<svg width="17" height="8" viewBox="0 0 17 8" fill="none" xmlns="http://www.w3.org/2000/svg">
<path d="M0.552734 4.39651C0.552734 3.71167 0.64151 3.08209 0.81906 2.50777C0.998422 1.93164 1.25388 1.4017 1.58543 0.917969H2.15069C2.02024 1.09733 1.89795 1.31836 1.78381 1.58107C1.67148 1.84196 1.57274 2.12912 1.48759 2.44255C1.40244 2.75417 1.33541 3.07665 1.28649 3.41001C1.23938 3.74337 1.21583 4.07221 1.21583 4.39651C1.21583 4.8277 1.2575 5.26523 1.34084 5.70911C1.42418 6.15299 1.53651 6.56516 1.67782 6.94562C1.81914 7.32609 1.97676 7.63589 2.15069 7.87504H1.58543C1.25388 7.39131 0.998422 6.86228 0.81906 6.28796C0.64151 5.71183 0.552734 5.08134 0.552734 4.39651Z" fill="#9B9B9B"/>
<path d="M5.0429 1.61368V7.17934H4.36893V2.32025H4.33632L2.97752 3.2225V2.53766L4.36893 1.61368H5.0429Z" fill="#9B9B9B"/>
<path d="M6.8175 7.17934L9.30683 2.25503V2.21155H6.43703V1.61368H10.0025V2.24416L7.52408 7.17934H6.8175Z" fill="#9B9B9B"/>
<path d="M12.6862 7.25543C12.313 7.25543 11.9832 7.1893 11.697 7.05704C11.4125 6.92297 11.1906 6.73908 11.0311 6.50537C10.8717 6.26984 10.7929 6.00171 10.7947 5.70096C10.7929 5.46543 10.8391 5.24802 10.9333 5.04873C11.0275 4.84763 11.1562 4.68004 11.3192 4.54597C11.4841 4.41009 11.668 4.32404 11.8709 4.2878V4.25519C11.6046 4.18634 11.3926 4.03688 11.235 3.80679C11.0773 3.57488 10.9994 3.31128 11.0013 3.01596C10.9994 2.73333 11.071 2.48059 11.2159 2.25775C11.3609 2.03491 11.5602 1.85917 11.8138 1.73053C12.0693 1.6019 12.3601 1.53758 12.6862 1.53758C13.0087 1.53758 13.2967 1.6019 13.5504 1.73053C13.804 1.85917 14.0033 2.03491 14.1482 2.25775C14.295 2.48059 14.3693 2.73333 14.3711 3.01596C14.3693 3.31128 14.2887 3.57488 14.1292 3.80679C13.9716 4.03688 13.7623 4.18634 13.5015 4.25519V4.2878C13.7026 4.32404 13.8837 4.41009 14.045 4.54597C14.2062 4.68004 14.3349 4.84763 14.4309 5.04873C14.5269 5.24802 14.5758 5.46543 14.5776 5.70096C14.5758 6.00171 14.4943 6.26984 14.333 6.50537C14.1736 6.73908 13.9517 6.92297 13.6672 7.05704C13.3846 7.1893 13.0576 7.25543 12.6862 7.25543ZM12.6862 6.65755C12.938 6.65755 13.1554 6.61679 13.3384 6.53526C13.5214 6.45373 13.6627 6.33869 13.7623 6.19013C13.862 6.04156 13.9127 5.86764 13.9145 5.66835C13.9127 5.45818 13.8584 5.27248 13.7515 5.11124C13.6446 4.94999 13.4987 4.82317 13.3139 4.73077C13.131 4.63837 12.9217 4.59217 12.6862 4.59217C12.4488 4.59217 12.2369 4.63837 12.0502 4.73077C11.8655 4.82317 11.7196 4.94999 11.6127 5.11124C11.5076 5.27248 11.456 5.45818 11.4578 5.66835C11.456 5.86764 11.504 6.04156 11.6018 6.19013C11.7015 6.33869 11.8437 6.45373 12.0285 6.53526C12.2133 6.61679 12.4325 6.65755 12.6862 6.65755ZM12.6862 4.01604C12.8855 4.01604 13.0621 3.97618 13.2161 3.89647C13.3719 3.81675 13.4942 3.70533 13.583 3.5622C13.6718 3.41907 13.717 3.25149 13.7189 3.05944C13.717 2.87102 13.6727 2.70706 13.5857 2.56756C13.4987 2.42624 13.3783 2.31754 13.2243 2.24144C13.0703 2.16354 12.8909 2.12459 12.6862 2.12459C12.4778 2.12459 12.2957 2.16354 12.1399 2.24144C11.9841 2.31754 11.8636 2.42624 11.7785 2.56756C11.6933 2.70706 11.6517 2.87102 11.6535 3.05944C11.6517 3.25149 11.6942 3.41907 11.7812 3.5622C11.87 3.70533 11.9923 3.81675 12.1481 3.89647C12.3039 3.97618 12.4833 4.01604 12.6862 4.01604Z" fill="#9B9B9B"/>
<path d="M16.9997 4.39651C16.9997 5.08134 16.91 5.71183 16.7306 6.28796C16.5531 6.86228 16.2985 7.39131 15.967 7.87504H15.4017C15.5322 7.69568 15.6536 7.47465 15.7659 7.21195C15.88 6.95106 15.9797 6.6648 16.0648 6.35318C16.15 6.03975 16.2161 5.71636 16.2632 5.383C16.3121 5.04783 16.3366 4.719 16.3366 4.39651C16.3366 3.96531 16.2949 3.52778 16.2116 3.0839C16.1282 2.64003 16.0159 2.22786 15.8746 1.84739C15.7333 1.46693 15.5757 1.15712 15.4017 0.917969H15.967C16.2985 1.4017 16.5531 1.93164 16.7306 2.50777C16.91 3.08209 16.9997 3.71167 16.9997 4.39651Z" fill="#9B9B9B"/>
</svg>
