<svg width="17" height="7" viewBox="0 0 17 7" fill="none" xmlns="http://www.w3.org/2000/svg">
<path d="M0.552734 3.48266C0.552734 2.79782 0.64151 2.16824 0.81906 1.59392C0.998422 1.01779 1.25388 0.487854 1.58543 0.00411987H2.15069C2.02024 0.183482 1.89795 0.404514 1.78381 0.667216C1.67148 0.928106 1.57274 1.21527 1.48759 1.5287C1.40244 1.84032 1.33541 2.16281 1.28649 2.49617C1.23938 2.82953 1.21583 3.15836 1.21583 3.48266C1.21583 3.91385 1.2575 4.35139 1.34084 4.79526C1.42418 5.23914 1.53651 5.65131 1.67782 6.03177C1.81914 6.41224 1.97676 6.72205 2.15069 6.96119H1.58543C1.25388 6.47746 0.998422 5.94843 0.81906 5.37411C0.64151 4.79798 0.552734 4.16749 0.552734 3.48266Z" fill="#9B9B9B"/>
<path d="M5.0429 0.699828V6.26549H4.36893V1.40641H4.33632L2.97752 2.30865V1.62381L4.36893 0.699828H5.0429Z" fill="#9B9B9B"/>
<path d="M6.8175 6.26549L9.30683 1.34118V1.2977H6.43703V0.699828H10.0025V1.33031L7.52408 6.26549H6.8175Z" fill="#9B9B9B"/>
<path d="M12.6862 6.34158C12.313 6.34158 11.9832 6.27545 11.697 6.14319C11.4125 6.00913 11.1906 5.82523 11.0311 5.59152C10.8717 5.35599 10.7929 5.08786 10.7947 4.78711C10.7929 4.55158 10.8391 4.33417 10.9333 4.13488C11.0275 3.93378 11.1562 3.76619 11.3192 3.63213C11.4841 3.49625 11.668 3.41019 11.8709 3.37395V3.34134C11.6046 3.2725 11.3926 3.12303 11.235 2.89294C11.0773 2.66103 10.9994 2.39743 11.0013 2.10211C10.9994 1.81948 11.071 1.56674 11.2159 1.3439C11.3609 1.12106 11.5602 0.945318 11.8138 0.816685C12.0693 0.688051 12.3601 0.623734 12.6862 0.623734C13.0087 0.623734 13.2967 0.688051 13.5504 0.816685C13.804 0.945318 14.0033 1.12106 14.1482 1.3439C14.295 1.56674 14.3693 1.81948 14.3711 2.10211C14.3693 2.39743 14.2887 2.66103 14.1292 2.89294C13.9716 3.12303 13.7623 3.2725 13.5015 3.34134V3.37395C13.7026 3.41019 13.8837 3.49625 14.045 3.63213C14.2062 3.76619 14.3349 3.93378 14.4309 4.13488C14.5269 4.33417 14.5758 4.55158 14.5776 4.78711C14.5758 5.08786 14.4943 5.35599 14.333 5.59152C14.1736 5.82523 13.9517 6.00913 13.6672 6.14319C13.3846 6.27545 13.0576 6.34158 12.6862 6.34158ZM12.6862 5.74371C12.938 5.74371 13.1554 5.70294 13.3384 5.62141C13.5214 5.53989 13.6627 5.42484 13.7623 5.27628C13.862 5.12772 13.9127 4.95379 13.9145 4.7545C13.9127 4.54434 13.8584 4.35863 13.7515 4.19739C13.6446 4.03614 13.4987 3.90932 13.3139 3.81692C13.131 3.72452 12.9217 3.67833 12.6862 3.67833C12.4488 3.67833 12.2369 3.72452 12.0502 3.81692C11.8655 3.90932 11.7196 4.03614 11.6127 4.19739C11.5076 4.35863 11.456 4.54434 11.4578 4.7545C11.456 4.95379 11.504 5.12772 11.6018 5.27628C11.7015 5.42484 11.8437 5.53989 12.0285 5.62141C12.2133 5.70294 12.4325 5.74371 12.6862 5.74371ZM12.6862 3.10219C12.8855 3.10219 13.0621 3.06233 13.2161 2.98262C13.3719 2.9029 13.4942 2.79148 13.583 2.64835C13.6718 2.50522 13.717 2.33764 13.7189 2.14559C13.717 1.95717 13.6727 1.79321 13.5857 1.65371C13.4987 1.51239 13.3783 1.40369 13.2243 1.32759C13.0703 1.24969 12.8909 1.21074 12.6862 1.21074C12.4778 1.21074 12.2957 1.24969 12.1399 1.32759C11.9841 1.40369 11.8636 1.51239 11.7785 1.65371C11.6933 1.79321 11.6517 1.95717 11.6535 2.14559C11.6517 2.33764 11.6942 2.50522 11.7812 2.64835C11.87 2.79148 11.9923 2.9029 12.1481 2.98262C12.3039 3.06233 12.4833 3.10219 12.6862 3.10219Z" fill="#9B9B9B"/>
<path d="M16.9997 3.48266C16.9997 4.16749 16.91 4.79798 16.7306 5.37411C16.5531 5.94843 16.2985 6.47746 15.967 6.96119H15.4017C15.5322 6.78183 15.6536 6.5608 15.7659 6.2981C15.88 6.03721 15.9797 5.75095 16.0648 5.43933C16.15 5.1259 16.2161 4.80251 16.2632 4.46915C16.3121 4.13398 16.3366 3.80515 16.3366 3.48266C16.3366 3.05146 16.2949 2.61393 16.2116 2.17005C16.1282 1.72618 16.0159 1.31401 15.8746 0.933542C15.7333 0.553077 15.5757 0.24327 15.4017 0.00411987H15.967C16.2985 0.487854 16.5531 1.01779 16.7306 1.59392C16.91 2.16824 16.9997 2.79782 16.9997 3.48266Z" fill="#9B9B9B"/>
</svg>
