<svg width="17" height="8" viewBox="0 0 17 8" fill="none" xmlns="http://www.w3.org/2000/svg">
<path d="M0.552734 4.38088C0.552734 3.69604 0.64151 3.06647 0.81906 2.49214C0.998422 1.91601 1.25388 1.38608 1.58543 0.902344H2.15069C2.02024 1.08171 1.89795 1.30274 1.78381 1.56544C1.67148 1.82633 1.57274 2.11349 1.48759 2.42692C1.40244 2.73854 1.33541 3.06103 1.28649 3.39439C1.23938 3.72775 1.21583 4.05658 1.21583 4.38088C1.21583 4.81207 1.2575 5.24961 1.34084 5.69349C1.42418 6.13736 1.53651 6.54953 1.67782 6.93C1.81914 7.31046 1.97676 7.62027 2.15069 7.85942H1.58543C1.25388 7.37568 0.998422 6.84666 0.81906 6.27234C0.64151 5.6962 0.552734 5.06572 0.552734 4.38088Z" fill="#9B9B9B"/>
<path d="M5.0429 1.59805V7.16371H4.36893V2.30463H4.33632L2.97752 3.20687V2.52204L4.36893 1.59805H5.0429Z" fill="#9B9B9B"/>
<path d="M6.8175 7.16371L9.30683 2.23941V2.19592H6.43703V1.59805H10.0025V2.22854L7.52408 7.16371H6.8175Z" fill="#9B9B9B"/>
<path d="M12.6862 7.2398C12.313 7.2398 11.9832 7.17368 11.697 7.04142C11.4125 6.90735 11.1906 6.72346 11.0311 6.48974C10.8717 6.25422 10.7929 5.98608 10.7947 5.68533C10.7929 5.44981 10.8391 5.2324 10.9333 5.03311C11.0275 4.832 11.1562 4.66442 11.3192 4.53035C11.4841 4.39447 11.668 4.30841 11.8709 4.27218V4.23957C11.6046 4.17072 11.3926 4.02125 11.235 3.79116C11.0773 3.55926 10.9994 3.29565 11.0013 3.00034C10.9994 2.71771 11.071 2.46497 11.2159 2.24212C11.3609 2.01928 11.5602 1.84354 11.8138 1.71491C12.0693 1.58628 12.3601 1.52196 12.6862 1.52196C13.0087 1.52196 13.2967 1.58628 13.5504 1.71491C13.804 1.84354 14.0033 2.01928 14.1482 2.24212C14.295 2.46497 14.3693 2.71771 14.3711 3.00034C14.3693 3.29565 14.2887 3.55926 14.1292 3.79116C13.9716 4.02125 13.7623 4.17072 13.5015 4.23957V4.27218C13.7026 4.30841 13.8837 4.39447 14.045 4.53035C14.2062 4.66442 14.3349 4.832 14.4309 5.03311C14.5269 5.2324 14.5758 5.44981 14.5776 5.68533C14.5758 5.98608 14.4943 6.25422 14.333 6.48974C14.1736 6.72346 13.9517 6.90735 13.6672 7.04142C13.3846 7.17368 13.0576 7.2398 12.6862 7.2398ZM12.6862 6.64193C12.938 6.64193 13.1554 6.60117 13.3384 6.51964C13.5214 6.43811 13.6627 6.32306 13.7623 6.1745C13.862 6.02594 13.9127 5.85201 13.9145 5.65272C13.9127 5.44256 13.8584 5.25686 13.7515 5.09561C13.6446 4.93437 13.4987 4.80755 13.3139 4.71515C13.131 4.62275 12.9217 4.57655 12.6862 4.57655C12.4488 4.57655 12.2369 4.62275 12.0502 4.71515C11.8655 4.80755 11.7196 4.93437 11.6127 5.09561C11.5076 5.25686 11.456 5.44256 11.4578 5.65272C11.456 5.85201 11.504 6.02594 11.6018 6.1745C11.7015 6.32306 11.8437 6.43811 12.0285 6.51964C12.2133 6.60117 12.4325 6.64193 12.6862 6.64193ZM12.6862 4.00042C12.8855 4.00042 13.0621 3.96056 13.2161 3.88084C13.3719 3.80112 13.4942 3.6897 13.583 3.54658C13.6718 3.40345 13.717 3.23586 13.7189 3.04382C13.717 2.8554 13.6727 2.69144 13.5857 2.55193C13.4987 2.41062 13.3783 2.30191 13.2243 2.22582C13.0703 2.14791 12.8909 2.10896 12.6862 2.10896C12.4778 2.10896 12.2957 2.14791 12.1399 2.22582C11.9841 2.30191 11.8636 2.41062 11.7785 2.55193C11.6933 2.69144 11.6517 2.8554 11.6535 3.04382C11.6517 3.23586 11.6942 3.40345 11.7812 3.54658C11.87 3.6897 11.9923 3.80112 12.1481 3.88084C12.3039 3.96056 12.4833 4.00042 12.6862 4.00042Z" fill="#9B9B9B"/>
<path d="M16.9997 4.38088C16.9997 5.06572 16.91 5.6962 16.7306 6.27234C16.5531 6.84666 16.2985 7.37568 15.967 7.85942H15.4017C15.5322 7.68006 15.6536 7.45902 15.7659 7.19632C15.88 6.93543 15.9797 6.64918 16.0648 6.33756C16.15 6.02413 16.2161 5.70073 16.2632 5.36737C16.3121 5.0322 16.3366 4.70337 16.3366 4.38088C16.3366 3.94969 16.2949 3.51215 16.2116 3.06828C16.1282 2.6244 16.0159 2.21223 15.8746 1.83177C15.7333 1.4513 15.5757 1.14149 15.4017 0.902344H15.967C16.2985 1.38608 16.5531 1.91601 16.7306 2.49214C16.91 3.06647 16.9997 3.69604 16.9997 4.38088Z" fill="#9B9B9B"/>
</svg>
