<svg width="17" height="8" viewBox="0 0 17 8" fill="none" xmlns="http://www.w3.org/2000/svg">
<path d="M0.552734 4.38308C0.552734 3.69824 0.64151 3.06866 0.81906 2.49434C0.998422 1.91821 1.25388 1.38828 1.58543 0.904541H2.15069C2.02024 1.0839 1.89795 1.30494 1.78381 1.56764C1.67148 1.82853 1.57274 2.11569 1.48759 2.42912C1.40244 2.74074 1.33541 3.06323 1.28649 3.39659C1.23938 3.72995 1.21583 4.05878 1.21583 4.38308C1.21583 4.81427 1.2575 5.25181 1.34084 5.69568C1.42418 6.13956 1.53651 6.55173 1.67782 6.93219C1.81914 7.31266 1.97676 7.62247 2.15069 7.86162H1.58543C1.25388 7.37788 0.998422 6.84885 0.81906 6.27453C0.64151 5.6984 0.552734 5.06792 0.552734 4.38308Z" fill="#9B9B9B"/>
<path d="M5.0429 1.60025V7.16591H4.36893V2.30683H4.33632L2.97752 3.20907V2.52423L4.36893 1.60025H5.0429Z" fill="#9B9B9B"/>
<path d="M6.8175 7.16591L9.30683 2.2416V2.19812H6.43703V1.60025H10.0025V2.23073L7.52408 7.16591H6.8175Z" fill="#9B9B9B"/>
<path d="M12.6862 7.242C12.313 7.242 11.9832 7.17587 11.697 7.04362C11.4125 6.90955 11.1906 6.72566 11.0311 6.49194C10.8717 6.25642 10.7929 5.98828 10.7947 5.68753C10.7929 5.452 10.8391 5.2346 10.9333 5.0353C11.0275 4.8342 11.1562 4.66662 11.3192 4.53255C11.4841 4.39667 11.668 4.31061 11.8709 4.27437V4.24176C11.6046 4.17292 11.3926 4.02345 11.235 3.79336C11.0773 3.56146 10.9994 3.29785 11.0013 3.00253C10.9994 2.7199 11.071 2.46717 11.2159 2.24432C11.3609 2.02148 11.5602 1.84574 11.8138 1.71711C12.0693 1.58847 12.3601 1.52416 12.6862 1.52416C13.0087 1.52416 13.2967 1.58847 13.5504 1.71711C13.804 1.84574 14.0033 2.02148 14.1482 2.24432C14.295 2.46717 14.3693 2.7199 14.3711 3.00253C14.3693 3.29785 14.2887 3.56146 14.1292 3.79336C13.9716 4.02345 13.7623 4.17292 13.5015 4.24176V4.27437C13.7026 4.31061 13.8837 4.39667 14.045 4.53255C14.2062 4.66662 14.3349 4.8342 14.4309 5.0353C14.5269 5.2346 14.5758 5.452 14.5776 5.68753C14.5758 5.98828 14.4943 6.25642 14.333 6.49194C14.1736 6.72566 13.9517 6.90955 13.6672 7.04362C13.3846 7.17587 13.0576 7.242 12.6862 7.242ZM12.6862 6.64413C12.938 6.64413 13.1554 6.60336 13.3384 6.52184C13.5214 6.44031 13.6627 6.32526 13.7623 6.1767C13.862 6.02814 13.9127 5.85421 13.9145 5.65492C13.9127 5.44476 13.8584 5.25905 13.7515 5.09781C13.6446 4.93656 13.4987 4.80974 13.3139 4.71734C13.131 4.62495 12.9217 4.57875 12.6862 4.57875C12.4488 4.57875 12.2369 4.62495 12.0502 4.71734C11.8655 4.80974 11.7196 4.93656 11.6127 5.09781C11.5076 5.25905 11.456 5.44476 11.4578 5.65492C11.456 5.85421 11.504 6.02814 11.6018 6.1767C11.7015 6.32526 11.8437 6.44031 12.0285 6.52184C12.2133 6.60336 12.4325 6.64413 12.6862 6.64413ZM12.6862 4.00261C12.8855 4.00261 13.0621 3.96276 13.2161 3.88304C13.3719 3.80332 13.4942 3.6919 13.583 3.54877C13.6718 3.40565 13.717 3.23806 13.7189 3.04602C13.717 2.85759 13.6727 2.69363 13.5857 2.55413C13.4987 2.41281 13.3783 2.30411 13.2243 2.22802C13.0703 2.15011 12.8909 2.11116 12.6862 2.11116C12.4778 2.11116 12.2957 2.15011 12.1399 2.22802C11.9841 2.30411 11.8636 2.41281 11.7785 2.55413C11.6933 2.69363 11.6517 2.85759 11.6535 3.04602C11.6517 3.23806 11.6942 3.40565 11.7812 3.54877C11.87 3.6919 11.9923 3.80332 12.1481 3.88304C12.3039 3.96276 12.4833 4.00261 12.6862 4.00261Z" fill="#9B9B9B"/>
<path d="M16.9997 4.38308C16.9997 5.06792 16.91 5.6984 16.7306 6.27453C16.5531 6.84885 16.2985 7.37788 15.967 7.86162H15.4017C15.5322 7.68225 15.6536 7.46122 15.7659 7.19852C15.88 6.93763 15.9797 6.65137 16.0648 6.33976C16.15 6.02632 16.2161 5.70293 16.2632 5.36957C16.3121 5.0344 16.3366 4.70557 16.3366 4.38308C16.3366 3.95188 16.2949 3.51435 16.2116 3.07047C16.1282 2.6266 16.0159 2.21443 15.8746 1.83396C15.7333 1.4535 15.5757 1.14369 15.4017 0.904541H15.967C16.2985 1.38828 16.5531 1.91821 16.7306 2.49434C16.91 3.06866 16.9997 3.69824 16.9997 4.38308Z" fill="#9B9B9B"/>
</svg>
