<svg width="17" height="8" viewBox="0 0 17 8" fill="none" xmlns="http://www.w3.org/2000/svg">
<path d="M0.552734 3.59572C0.552734 2.91089 0.64151 2.28131 0.81906 1.70699C0.998422 1.13086 1.25388 0.600922 1.58543 0.117188H2.15069C2.02024 0.29655 1.89795 0.517582 1.78381 0.780284C1.67148 1.04117 1.57274 1.32833 1.48759 1.64177C1.40244 1.95338 1.33541 2.27587 1.28649 2.60923C1.23938 2.94259 1.21583 3.27142 1.21583 3.59572C1.21583 4.02692 1.2575 4.46445 1.34084 4.90833C1.42418 5.3522 1.53651 5.76438 1.67782 6.14484C1.81914 6.52531 1.97676 6.83511 2.15069 7.07426H1.58543C1.25388 6.59053 0.998422 6.0615 0.81906 5.48718C0.64151 4.91105 0.552734 4.28056 0.552734 3.59572Z" fill="#9B9B9B"/>
<path d="M5.0429 0.812895V6.37855H4.36893V1.51947H4.33632L2.97752 2.42172V1.73688L4.36893 0.812895H5.0429Z" fill="#9B9B9B"/>
<path d="M6.8175 6.37855L9.30683 1.45425V1.41077H6.43703V0.812895H10.0025V1.44338L7.52408 6.37855H6.8175Z" fill="#9B9B9B"/>
<path d="M12.6862 6.45465C12.313 6.45465 11.9832 6.38852 11.697 6.25626C11.4125 6.12219 11.1906 5.9383 11.0311 5.70459C10.8717 5.46906 10.7929 5.20092 10.7947 4.90018C10.7929 4.66465 10.8391 4.44724 10.9333 4.24795C11.0275 4.04685 11.1562 3.87926 11.3192 3.74519C11.4841 3.60931 11.668 3.52326 11.8709 3.48702V3.45441C11.6046 3.38556 11.3926 3.23609 11.235 3.006C11.0773 2.7741 10.9994 2.51049 11.0013 2.21518C10.9994 1.93255 11.071 1.67981 11.2159 1.45697C11.3609 1.23412 11.5602 1.05839 11.8138 0.929752C12.0693 0.801119 12.3601 0.736802 12.6862 0.736802C13.0087 0.736802 13.2967 0.801119 13.5504 0.929752C13.804 1.05839 14.0033 1.23412 14.1482 1.45697C14.295 1.67981 14.3693 1.93255 14.3711 2.21518C14.3693 2.51049 14.2887 2.7741 14.1292 3.006C13.9716 3.23609 13.7623 3.38556 13.5015 3.45441V3.48702C13.7026 3.52326 13.8837 3.60931 14.045 3.74519C14.2062 3.87926 14.3349 4.04685 14.4309 4.24795C14.5269 4.44724 14.5758 4.66465 14.5776 4.90018C14.5758 5.20092 14.4943 5.46906 14.333 5.70459C14.1736 5.9383 13.9517 6.12219 13.6672 6.25626C13.3846 6.38852 13.0576 6.45465 12.6862 6.45465ZM12.6862 5.85677C12.938 5.85677 13.1554 5.81601 13.3384 5.73448C13.5214 5.65295 13.6627 5.53791 13.7623 5.38935C13.862 5.24078 13.9127 5.06686 13.9145 4.86757C13.9127 4.6574 13.8584 4.4717 13.7515 4.31046C13.6446 4.14921 13.4987 4.02239 13.3139 3.92999C13.131 3.83759 12.9217 3.79139 12.6862 3.79139C12.4488 3.79139 12.2369 3.83759 12.0502 3.92999C11.8655 4.02239 11.7196 4.14921 11.6127 4.31046C11.5076 4.4717 11.456 4.6574 11.4578 4.86757C11.456 5.06686 11.504 5.24078 11.6018 5.38935C11.7015 5.53791 11.8437 5.65295 12.0285 5.73448C12.2133 5.81601 12.4325 5.85677 12.6862 5.85677ZM12.6862 3.21526C12.8855 3.21526 13.0621 3.1754 13.2161 3.09569C13.3719 3.01597 13.4942 2.90455 13.583 2.76142C13.6718 2.61829 13.717 2.45071 13.7189 2.25866C13.717 2.07024 13.6727 1.90628 13.5857 1.76678C13.4987 1.62546 13.3783 1.51676 13.2243 1.44066C13.0703 1.36276 12.8909 1.32381 12.6862 1.32381C12.4778 1.32381 12.2957 1.36276 12.1399 1.44066C11.9841 1.51676 11.8636 1.62546 11.7785 1.76678C11.6933 1.90628 11.6517 2.07024 11.6535 2.25866C11.6517 2.45071 11.6942 2.61829 11.7812 2.76142C11.87 2.90455 11.9923 3.01597 12.1481 3.09569C12.3039 3.1754 12.4833 3.21526 12.6862 3.21526Z" fill="#9B9B9B"/>
<path d="M16.9997 3.59572C16.9997 4.28056 16.91 4.91105 16.7306 5.48718C16.5531 6.0615 16.2985 6.59053 15.967 7.07426H15.4017C15.5322 6.8949 15.6536 6.67387 15.7659 6.41117C15.88 6.15028 15.9797 5.86402 16.0648 5.5524C16.15 5.23897 16.2161 4.91558 16.2632 4.58222C16.3121 4.24705 16.3366 3.91821 16.3366 3.59572C16.3366 3.16453 16.2949 2.727 16.2116 2.28312C16.1282 1.83924 16.0159 1.42707 15.8746 1.04661C15.7333 0.666144 15.5757 0.356337 15.4017 0.117188H15.967C16.2985 0.600922 16.5531 1.13086 16.7306 1.70699C16.91 2.28131 16.9997 2.91089 16.9997 3.59572Z" fill="#9B9B9B"/>
</svg>
