<svg width="17" height="8" viewBox="0 0 17 8" fill="none" xmlns="http://www.w3.org/2000/svg">
<path d="M0.552734 3.68294C0.552734 2.99811 0.64151 2.36853 0.81906 1.79421C0.998422 1.21807 1.25388 0.688141 1.58543 0.204407H2.15069C2.02024 0.383769 1.89795 0.604801 1.78381 0.867503C1.67148 1.12839 1.57274 1.41555 1.48759 1.72898C1.40244 2.0406 1.33541 2.36309 1.28649 2.69645C1.23938 3.02981 1.21583 3.35864 1.21583 3.68294C1.21583 4.11414 1.2575 4.55167 1.34084 4.99555C1.42418 5.43942 1.53651 5.8516 1.67782 6.23206C1.81914 6.61253 1.97676 6.92233 2.15069 7.16148H1.58543C1.25388 6.67775 0.998422 6.14872 0.81906 5.5744C0.64151 4.99827 0.552734 4.36778 0.552734 3.68294Z" fill="#9B9B9B"/>
<path d="M5.0429 0.900114V6.46577H4.36893V1.60669H4.33632L2.97752 2.50894V1.8241L4.36893 0.900114H5.0429Z" fill="#9B9B9B"/>
<path d="M6.8175 6.46577L9.30683 1.54147V1.49799H6.43703V0.900114H10.0025V1.5306L7.52408 6.46577H6.8175Z" fill="#9B9B9B"/>
<path d="M12.6862 6.54187C12.313 6.54187 11.9832 6.47574 11.697 6.34348C11.4125 6.20941 11.1906 6.02552 11.0311 5.79181C10.8717 5.55628 10.7929 5.28814 10.7947 4.9874C10.7929 4.75187 10.8391 4.53446 10.9333 4.33517C11.0275 4.13407 11.1562 3.96648 11.3192 3.83241C11.4841 3.69653 11.668 3.61047 11.8709 3.57424V3.54163C11.6046 3.47278 11.3926 3.32331 11.235 3.09322C11.0773 2.86132 10.9994 2.59771 11.0013 2.3024C10.9994 2.01977 11.071 1.76703 11.2159 1.54419C11.3609 1.32134 11.5602 1.1456 11.8138 1.01697C12.0693 0.888338 12.3601 0.824021 12.6862 0.824021C13.0087 0.824021 13.2967 0.888338 13.5504 1.01697C13.804 1.1456 14.0033 1.32134 14.1482 1.54419C14.295 1.76703 14.3693 2.01977 14.3711 2.3024C14.3693 2.59771 14.2887 2.86132 14.1292 3.09322C13.9716 3.32331 13.7623 3.47278 13.5015 3.54163V3.57424C13.7026 3.61047 13.8837 3.69653 14.045 3.83241C14.2062 3.96648 14.3349 4.13407 14.4309 4.33517C14.5269 4.53446 14.5758 4.75187 14.5776 4.9874C14.5758 5.28814 14.4943 5.55628 14.333 5.79181C14.1736 6.02552 13.9517 6.20941 13.6672 6.34348C13.3846 6.47574 13.0576 6.54187 12.6862 6.54187ZM12.6862 5.94399C12.938 5.94399 13.1554 5.90323 13.3384 5.8217C13.5214 5.74017 13.6627 5.62513 13.7623 5.47656C13.862 5.328 13.9127 5.15408 13.9145 4.95478C13.9127 4.74462 13.8584 4.55892 13.7515 4.39767C13.6446 4.23643 13.4987 4.10961 13.3139 4.01721C13.131 3.92481 12.9217 3.87861 12.6862 3.87861C12.4488 3.87861 12.2369 3.92481 12.0502 4.01721C11.8655 4.10961 11.7196 4.23643 11.6127 4.39767C11.5076 4.55892 11.456 4.74462 11.4578 4.95478C11.456 5.15408 11.504 5.328 11.6018 5.47656C11.7015 5.62513 11.8437 5.74017 12.0285 5.8217C12.2133 5.90323 12.4325 5.94399 12.6862 5.94399ZM12.6862 3.30248C12.8855 3.30248 13.0621 3.26262 13.2161 3.1829C13.3719 3.10319 13.4942 2.99177 13.583 2.84864C13.6718 2.70551 13.717 2.53793 13.7189 2.34588C13.717 2.15746 13.6727 1.9935 13.5857 1.85399C13.4987 1.71268 13.3783 1.60397 13.2243 1.52788C13.0703 1.44998 12.8909 1.41102 12.6862 1.41102C12.4778 1.41102 12.2957 1.44998 12.1399 1.52788C11.9841 1.60397 11.8636 1.71268 11.7785 1.85399C11.6933 1.9935 11.6517 2.15746 11.6535 2.34588C11.6517 2.53793 11.6942 2.70551 11.7812 2.84864C11.87 2.99177 11.9923 3.10319 12.1481 3.1829C12.3039 3.26262 12.4833 3.30248 12.6862 3.30248Z" fill="#9B9B9B"/>
<path d="M16.9997 3.68294C16.9997 4.36778 16.91 4.99827 16.7306 5.5744C16.5531 6.14872 16.2985 6.67775 15.967 7.16148H15.4017C15.5322 6.98212 15.6536 6.76109 15.7659 6.49838C15.88 6.23749 15.9797 5.95124 16.0648 5.63962C16.15 5.32619 16.2161 5.0028 16.2632 4.66944C16.3121 4.33426 16.3366 4.00543 16.3366 3.68294C16.3366 3.25175 16.2949 2.81422 16.2116 2.37034C16.1282 1.92646 16.0159 1.51429 15.8746 1.13383C15.7333 0.753364 15.5757 0.443556 15.4017 0.204407H15.967C16.2985 0.688141 16.5531 1.21807 16.7306 1.79421C16.91 2.36853 16.9997 2.99811 16.9997 3.68294Z" fill="#9B9B9B"/>
</svg>
