<svg width="17" height="8" viewBox="0 0 17 8" fill="none" xmlns="http://www.w3.org/2000/svg">
<path d="M0.552734 3.58401C0.552734 2.89917 0.64151 2.26959 0.81906 1.69527C0.998422 1.11914 1.25388 0.589203 1.58543 0.105469H2.15069C2.02024 0.284831 1.89795 0.505863 1.78381 0.768565C1.67148 1.02946 1.57274 1.31662 1.48759 1.63005C1.40244 1.94167 1.33541 2.26415 1.28649 2.59751C1.23938 2.93087 1.21583 3.25971 1.21583 3.58401C1.21583 4.0152 1.2575 4.45273 1.34084 4.89661C1.42418 5.34049 1.53651 5.75266 1.67782 6.13312C1.81914 6.51359 1.97676 6.82339 2.15069 7.06254H1.58543C1.25388 6.57881 0.998422 6.04978 0.81906 5.47546C0.64151 4.89933 0.552734 4.26884 0.552734 3.58401Z" fill="#9B9B9B"/>
<path d="M5.0429 0.801176V6.36684H4.36893V1.50775H4.33632L2.97752 2.41V1.72516L4.36893 0.801176H5.0429Z" fill="#9B9B9B"/>
<path d="M6.8175 6.36684L9.30683 1.44253V1.39905H6.43703V0.801176H10.0025V1.43166L7.52408 6.36684H6.8175Z" fill="#9B9B9B"/>
<path d="M12.6862 6.44293C12.313 6.44293 11.9832 6.3768 11.697 6.24454C11.4125 6.11047 11.1906 5.92658 11.0311 5.69287C10.8717 5.45734 10.7929 5.18921 10.7947 4.88846C10.7929 4.65293 10.8391 4.43552 10.9333 4.23623C11.0275 4.03513 11.1562 3.86754 11.3192 3.73347C11.4841 3.59759 11.668 3.51154 11.8709 3.4753V3.44269C11.6046 3.37384 11.3926 3.22438 11.235 2.99429C11.0773 2.76238 10.9994 2.49878 11.0013 2.20346C10.9994 1.92083 11.071 1.66809 11.2159 1.44525C11.3609 1.22241 11.5602 1.04667 11.8138 0.918033C12.0693 0.7894 12.3601 0.725083 12.6862 0.725083C13.0087 0.725083 13.2967 0.7894 13.5504 0.918033C13.804 1.04667 14.0033 1.22241 14.1482 1.44525C14.295 1.66809 14.3693 1.92083 14.3711 2.20346C14.3693 2.49878 14.2887 2.76238 14.1292 2.99429C13.9716 3.22438 13.7623 3.37384 13.5015 3.44269V3.4753C13.7026 3.51154 13.8837 3.59759 14.045 3.73347C14.2062 3.86754 14.3349 4.03513 14.4309 4.23623C14.5269 4.43552 14.5758 4.65293 14.5776 4.88846C14.5758 5.18921 14.4943 5.45734 14.333 5.69287C14.1736 5.92658 13.9517 6.11047 13.6672 6.24454C13.3846 6.3768 13.0576 6.44293 12.6862 6.44293ZM12.6862 5.84505C12.938 5.84505 13.1554 5.80429 13.3384 5.72276C13.5214 5.64123 13.6627 5.52619 13.7623 5.37763C13.862 5.22906 13.9127 5.05514 13.9145 4.85585C13.9127 4.64568 13.8584 4.45998 13.7515 4.29874C13.6446 4.13749 13.4987 4.01067 13.3139 3.91827C13.131 3.82587 12.9217 3.77967 12.6862 3.77967C12.4488 3.77967 12.2369 3.82587 12.0502 3.91827C11.8655 4.01067 11.7196 4.13749 11.6127 4.29874C11.5076 4.45998 11.456 4.64568 11.4578 4.85585C11.456 5.05514 11.504 5.22906 11.6018 5.37763C11.7015 5.52619 11.8437 5.64123 12.0285 5.72276C12.2133 5.80429 12.4325 5.84505 12.6862 5.84505ZM12.6862 3.20354C12.8855 3.20354 13.0621 3.16368 13.2161 3.08397C13.3719 3.00425 13.4942 2.89283 13.583 2.7497C13.6718 2.60657 13.717 2.43899 13.7189 2.24694C13.717 2.05852 13.6727 1.89456 13.5857 1.75506C13.4987 1.61374 13.3783 1.50504 13.2243 1.42894C13.0703 1.35104 12.8909 1.31209 12.6862 1.31209C12.4778 1.31209 12.2957 1.35104 12.1399 1.42894C11.9841 1.50504 11.8636 1.61374 11.7785 1.75506C11.6933 1.89456 11.6517 2.05852 11.6535 2.24694C11.6517 2.43899 11.6942 2.60657 11.7812 2.7497C11.87 2.89283 11.9923 3.00425 12.1481 3.08397C12.3039 3.16368 12.4833 3.20354 12.6862 3.20354Z" fill="#9B9B9B"/>
<path d="M16.9997 3.58401C16.9997 4.26884 16.91 4.89933 16.7306 5.47546C16.5531 6.04978 16.2985 6.57881 15.967 7.06254H15.4017C15.5322 6.88318 15.6536 6.66215 15.7659 6.39945C15.88 6.13856 15.9797 5.8523 16.0648 5.54068C16.15 5.22725 16.2161 4.90386 16.2632 4.5705C16.3121 4.23533 16.3366 3.9065 16.3366 3.58401C16.3366 3.15281 16.2949 2.71528 16.2116 2.2714C16.1282 1.82753 16.0159 1.41536 15.8746 1.03489C15.7333 0.654426 15.5757 0.344618 15.4017 0.105469H15.967C16.2985 0.589203 16.5531 1.11914 16.7306 1.69527C16.91 2.26959 16.9997 2.89917 16.9997 3.58401Z" fill="#9B9B9B"/>
</svg>
