<svg width="17" height="8" viewBox="0 0 17 8" fill="none" xmlns="http://www.w3.org/2000/svg">
<path d="M0.552734 3.58324C0.552734 2.89841 0.64151 2.26883 0.81906 1.69451C0.998422 1.11837 1.25388 0.58844 1.58543 0.104706H2.15069C2.02024 0.284068 1.89795 0.5051 1.78381 0.767802C1.67148 1.02869 1.57274 1.31585 1.48759 1.62928C1.40244 1.9409 1.33541 2.26339 1.28649 2.59675C1.23938 2.93011 1.21583 3.25894 1.21583 3.58324C1.21583 4.01444 1.2575 4.45197 1.34084 4.89585C1.42418 5.33972 1.53651 5.75189 1.67782 6.13236C1.81914 6.51282 1.97676 6.82263 2.15069 7.06178H1.58543C1.25388 6.57805 0.998422 6.04902 0.81906 5.4747C0.64151 4.89857 0.552734 4.26808 0.552734 3.58324Z" fill="#9B9B9B"/>
<path d="M5.0429 0.800413V6.36607H4.36893V1.50699H4.33632L2.97752 2.40924V1.7244L4.36893 0.800413H5.0429Z" fill="#9B9B9B"/>
<path d="M6.8175 6.36607L9.30683 1.44177V1.39829H6.43703V0.800413H10.0025V1.4309L7.52408 6.36607H6.8175Z" fill="#9B9B9B"/>
<path d="M12.6862 6.44217C12.313 6.44217 11.9832 6.37604 11.697 6.24378C11.4125 6.10971 11.1906 5.92582 11.0311 5.69211C10.8717 5.45658 10.7929 5.18844 10.7947 4.88769C10.7929 4.65217 10.8391 4.43476 10.9333 4.23547C11.0275 4.03437 11.1562 3.86678 11.3192 3.73271C11.4841 3.59683 11.668 3.51077 11.8709 3.47454V3.44193C11.6046 3.37308 11.3926 3.22361 11.235 2.99352C11.0773 2.76162 10.9994 2.49801 11.0013 2.2027C10.9994 1.92007 11.071 1.66733 11.2159 1.44449C11.3609 1.22164 11.5602 1.0459 11.8138 0.91727C12.0693 0.788637 12.3601 0.72432 12.6862 0.72432C13.0087 0.72432 13.2967 0.788637 13.5504 0.91727C13.804 1.0459 14.0033 1.22164 14.1482 1.44449C14.295 1.66733 14.3693 1.92007 14.3711 2.2027C14.3693 2.49801 14.2887 2.76162 14.1292 2.99352C13.9716 3.22361 13.7623 3.37308 13.5015 3.44193V3.47454C13.7026 3.51077 13.8837 3.59683 14.045 3.73271C14.2062 3.86678 14.3349 4.03437 14.4309 4.23547C14.5269 4.43476 14.5758 4.65217 14.5776 4.88769C14.5758 5.18844 14.4943 5.45658 14.333 5.69211C14.1736 5.92582 13.9517 6.10971 13.6672 6.24378C13.3846 6.37604 13.0576 6.44217 12.6862 6.44217ZM12.6862 5.84429C12.938 5.84429 13.1554 5.80353 13.3384 5.722C13.5214 5.64047 13.6627 5.52543 13.7623 5.37686C13.862 5.2283 13.9127 5.05437 13.9145 4.85508C13.9127 4.64492 13.8584 4.45922 13.7515 4.29797C13.6446 4.13673 13.4987 4.00991 13.3139 3.91751C13.131 3.82511 12.9217 3.77891 12.6862 3.77891C12.4488 3.77891 12.2369 3.82511 12.0502 3.91751C11.8655 4.00991 11.7196 4.13673 11.6127 4.29797C11.5076 4.45922 11.456 4.64492 11.4578 4.85508C11.456 5.05437 11.504 5.2283 11.6018 5.37686C11.7015 5.52543 11.8437 5.64047 12.0285 5.722C12.2133 5.80353 12.4325 5.84429 12.6862 5.84429ZM12.6862 3.20278C12.8855 3.20278 13.0621 3.16292 13.2161 3.0832C13.3719 3.00349 13.4942 2.89207 13.583 2.74894C13.6718 2.60581 13.717 2.43822 13.7189 2.24618C13.717 2.05776 13.6727 1.8938 13.5857 1.75429C13.4987 1.61298 13.3783 1.50427 13.2243 1.42818C13.0703 1.35028 12.8909 1.31132 12.6862 1.31132C12.4778 1.31132 12.2957 1.35028 12.1399 1.42818C11.9841 1.50427 11.8636 1.61298 11.7785 1.75429C11.6933 1.8938 11.6517 2.05776 11.6535 2.24618C11.6517 2.43822 11.6942 2.60581 11.7812 2.74894C11.87 2.89207 11.9923 3.00349 12.1481 3.0832C12.3039 3.16292 12.4833 3.20278 12.6862 3.20278Z" fill="#9B9B9B"/>
<path d="M16.9997 3.58324C16.9997 4.26808 16.91 4.89857 16.7306 5.4747C16.5531 6.04902 16.2985 6.57805 15.967 7.06178H15.4017C15.5322 6.88242 15.6536 6.66139 15.7659 6.39868C15.88 6.13779 15.9797 5.85154 16.0648 5.53992C16.15 5.22649 16.2161 4.90309 16.2632 4.56973C16.3121 4.23456 16.3366 3.90573 16.3366 3.58324C16.3366 3.15205 16.2949 2.71451 16.2116 2.27064C16.1282 1.82676 16.0159 1.41459 15.8746 1.03413C15.7333 0.653663 15.5757 0.343856 15.4017 0.104706H15.967C16.2985 0.58844 16.5531 1.11837 16.7306 1.69451C16.91 2.26883 16.9997 2.89841 16.9997 3.58324Z" fill="#9B9B9B"/>
</svg>
