<svg width="17" height="8" viewBox="0 0 17 8" fill="none" xmlns="http://www.w3.org/2000/svg">
<path d="M0.552734 4.28286C0.552734 3.59802 0.64151 2.96844 0.81906 2.39412C0.998422 1.81799 1.25388 1.28806 1.58543 0.804321H2.15069C2.02024 0.983684 1.89795 1.20472 1.78381 1.46742C1.67148 1.72831 1.57274 2.01547 1.48759 2.3289C1.40244 2.64052 1.33541 2.96301 1.28649 3.29637C1.23938 3.62973 1.21583 3.95856 1.21583 4.28286C1.21583 4.71405 1.2575 5.15159 1.34084 5.59546C1.42418 6.03934 1.53651 6.45151 1.67782 6.83197C1.81914 7.21244 1.97676 7.52225 2.15069 7.7614H1.58543C1.25388 7.27766 0.998422 6.74863 0.81906 6.17431C0.64151 5.59818 0.552734 4.9677 0.552734 4.28286Z" fill="#9B9B9B"/>
<path d="M5.0429 1.50003V7.06569H4.36893V2.20661H4.33632L2.97752 3.10885V2.42402L4.36893 1.50003H5.0429Z" fill="#9B9B9B"/>
<path d="M6.8175 7.06569L9.30683 2.14138V2.0979H6.43703V1.50003H10.0025V2.13051L7.52408 7.06569H6.8175Z" fill="#9B9B9B"/>
<path d="M12.6862 7.14178C12.313 7.14178 11.9832 7.07565 11.697 6.9434C11.4125 6.80933 11.1906 6.62544 11.0311 6.39172C10.8717 6.1562 10.7929 5.88806 10.7947 5.58731C10.7929 5.35178 10.8391 5.13438 10.9333 4.93508C11.0275 4.73398 11.1562 4.5664 11.3192 4.43233C11.4841 4.29645 11.668 4.21039 11.8709 4.17415V4.14154C11.6046 4.0727 11.3926 3.92323 11.235 3.69314C11.0773 3.46124 10.9994 3.19763 11.0013 2.90231C10.9994 2.61968 11.071 2.36695 11.2159 2.1441C11.3609 1.92126 11.5602 1.74552 11.8138 1.61689C12.0693 1.48825 12.3601 1.42394 12.6862 1.42394C13.0087 1.42394 13.2967 1.48825 13.5504 1.61689C13.804 1.74552 14.0033 1.92126 14.1482 2.1441C14.295 2.36695 14.3693 2.61968 14.3711 2.90231C14.3693 3.19763 14.2887 3.46124 14.1292 3.69314C13.9716 3.92323 13.7623 4.0727 13.5015 4.14154V4.17415C13.7026 4.21039 13.8837 4.29645 14.045 4.43233C14.2062 4.5664 14.3349 4.73398 14.4309 4.93508C14.5269 5.13438 14.5758 5.35178 14.5776 5.58731C14.5758 5.88806 14.4943 6.1562 14.333 6.39172C14.1736 6.62544 13.9517 6.80933 13.6672 6.9434C13.3846 7.07565 13.0576 7.14178 12.6862 7.14178ZM12.6862 6.54391C12.938 6.54391 13.1554 6.50314 13.3384 6.42162C13.5214 6.34009 13.6627 6.22504 13.7623 6.07648C13.862 5.92792 13.9127 5.75399 13.9145 5.5547C13.9127 5.34454 13.8584 5.15883 13.7515 4.99759C13.6446 4.83634 13.4987 4.70952 13.3139 4.61712C13.131 4.52473 12.9217 4.47853 12.6862 4.47853C12.4488 4.47853 12.2369 4.52473 12.0502 4.61712C11.8655 4.70952 11.7196 4.83634 11.6127 4.99759C11.5076 5.15883 11.456 5.34454 11.4578 5.5547C11.456 5.75399 11.504 5.92792 11.6018 6.07648C11.7015 6.22504 11.8437 6.34009 12.0285 6.42162C12.2133 6.50314 12.4325 6.54391 12.6862 6.54391ZM12.6862 3.90239C12.8855 3.90239 13.0621 3.86254 13.2161 3.78282C13.3719 3.7031 13.4942 3.59168 13.583 3.44855C13.6718 3.30543 13.717 3.13784 13.7189 2.9458C13.717 2.75737 13.6727 2.59341 13.5857 2.45391C13.4987 2.31259 13.3783 2.20389 13.2243 2.1278C13.0703 2.04989 12.8909 2.01094 12.6862 2.01094C12.4778 2.01094 12.2957 2.04989 12.1399 2.1278C11.9841 2.20389 11.8636 2.31259 11.7785 2.45391C11.6933 2.59341 11.6517 2.75737 11.6535 2.9458C11.6517 3.13784 11.6942 3.30543 11.7812 3.44855C11.87 3.59168 11.9923 3.7031 12.1481 3.78282C12.3039 3.86254 12.4833 3.90239 12.6862 3.90239Z" fill="#9B9B9B"/>
<path d="M16.9997 4.28286C16.9997 4.9677 16.91 5.59818 16.7306 6.17431C16.5531 6.74863 16.2985 7.27766 15.967 7.7614H15.4017C15.5322 7.58203 15.6536 7.361 15.7659 7.0983C15.88 6.83741 15.9797 6.55115 16.0648 6.23954C16.15 5.92611 16.2161 5.60271 16.2632 5.26935C16.3121 4.93418 16.3366 4.60535 16.3366 4.28286C16.3366 3.85166 16.2949 3.41413 16.2116 2.97025C16.1282 2.52638 16.0159 2.11421 15.8746 1.73374C15.7333 1.35328 15.5757 1.04347 15.4017 0.804321H15.967C16.2985 1.28806 16.5531 1.81799 16.7306 2.39412C16.91 2.96844 16.9997 3.59802 16.9997 4.28286Z" fill="#9B9B9B"/>
</svg>
