<svg width="20" height="19" viewBox="0 0 20 19" fill="none" xmlns="http://www.w3.org/2000/svg">
<path d="M2.47918 3.40076C2.17966 3.76019 2.01562 4.21326 2.01562 4.68113V15.207C2.01562 16.8639 3.35877 18.207 5.01562 18.207H14.849C16.5058 18.207 17.849 16.8639 17.849 15.207V4.68113C17.849 4.21326 17.6849 3.76019 17.3854 3.40076L15.8098 1.50999C15.4298 1.05401 14.8669 0.790363 14.2733 0.790363H5.59127C4.99771 0.790363 4.43481 1.05401 4.05482 1.50999L2.47918 3.40076Z" stroke="#14142B" stroke-width="1.58333"/>
<path d="M2.01562 4.35547H17.849" stroke="#14142B" stroke-width="1.58333"/>
<path d="M13.099 7.91797C13.099 9.66687 11.6812 11.0846 9.93229 11.0846C8.18339 11.0846 6.76562 9.66687 6.76562 7.91797" stroke="#14142B" stroke-width="1.58333" stroke-linecap="round"/>
</svg>
