<svg width="20" height="20" viewBox="0 0 20 20" fill="none" xmlns="http://www.w3.org/2000/svg">
<path fill-rule="evenodd" clip-rule="evenodd" d="M3.27752 0H6.46158C7.78984 0 8.85433 1.15 8.85433 2.561V5.97C8.85433 7.39 7.78984 8.53 6.46158 8.53H3.27752C1.95868 8.53 0.884766 7.39 0.884766 5.97V2.561C0.884766 1.15 1.95868 0 3.27752 0ZM3.27752 11.4697H6.46158C7.78984 11.4697 8.85433 12.6107 8.85433 14.0307V17.4397C8.85433 18.8497 7.78984 19.9997 6.46158 19.9997H3.27752C1.95868 19.9997 0.884766 18.8497 0.884766 17.4397V14.0307C0.884766 12.6107 1.95868 11.4697 3.27752 11.4697ZM17.3327 0H14.1486C12.8204 0 11.7559 1.15 11.7559 2.561V5.97C11.7559 7.39 12.8204 8.53 14.1486 8.53H17.3327C18.6515 8.53 19.7254 7.39 19.7254 5.97V2.561C19.7254 1.15 18.6515 0 17.3327 0ZM14.1486 11.4697H17.3327C18.6515 11.4697 19.7254 12.6107 19.7254 14.0307V17.4397C19.7254 18.8497 18.6515 19.9997 17.3327 19.9997H14.1486C12.8204 19.9997 11.7559 18.8497 11.7559 17.4397V14.0307C11.7559 12.6107 12.8204 11.4697 14.1486 11.4697Z" fill="#CFD1DE"/>
</svg>
