<svg width="20" height="20" viewBox="0 0 20 20" fill="none" xmlns="http://www.w3.org/2000/svg">
<path fill-rule="evenodd" clip-rule="evenodd" d="M3.38396 0H6.56802C7.89628 0 8.96078 1.15 8.96078 2.561V5.97C8.96078 7.39 7.89628 8.53 6.56802 8.53H3.38396C2.06512 8.53 0.991211 7.39 0.991211 5.97V2.561C0.991211 1.15 2.06512 0 3.38396 0ZM3.38396 11.4697H6.56802C7.89628 11.4697 8.96078 12.6107 8.96078 14.0307V17.4397C8.96078 18.8497 7.89628 19.9997 6.56802 19.9997H3.38396C2.06512 19.9997 0.991211 18.8497 0.991211 17.4397V14.0307C0.991211 12.6107 2.06512 11.4697 3.38396 11.4697ZM17.4391 0H14.2551C12.9268 0 11.8623 1.15 11.8623 2.561V5.97C11.8623 7.39 12.9268 8.53 14.2551 8.53H17.4391C18.758 8.53 19.8319 7.39 19.8319 5.97V2.561C19.8319 1.15 18.758 0 17.4391 0ZM14.2551 11.4697H17.4391C18.758 11.4697 19.8319 12.6107 19.8319 14.0307V17.4397C19.8319 18.8497 18.758 19.9997 17.4391 19.9997H14.2551C12.9268 19.9997 11.8623 18.8497 11.8623 17.4397V14.0307C11.8623 12.6107 12.9268 11.4697 14.2551 11.4697Z" fill="#CFD1DE"/>
</svg>
