<svg width="21" height="13" viewBox="0 0 21 13" fill="none" xmlns="http://www.w3.org/2000/svg">
<path fill-rule="evenodd" clip-rule="evenodd" d="M19.2287 0.34375H18.062C17.4177 0.34375 16.8954 0.84743 16.8954 1.46875V11.2188C16.8954 11.8401 17.4177 12.3438 18.062 12.3438H19.2287C19.873 12.3438 20.3954 11.8401 20.3954 11.2188V1.46875C20.3954 0.84743 19.873 0.34375 19.2287 0.34375ZM12.5718 2.96888H13.7385C14.3828 2.96888 14.9052 3.47256 14.9052 4.09388V11.2189C14.9052 11.8402 14.3828 12.3439 13.7385 12.3439H12.5718C11.9275 12.3439 11.4052 11.8402 11.4052 11.2189V4.09388C11.4052 3.47256 11.9275 2.96888 12.5718 2.96888ZM8.24832 5.59367H7.08165C6.43732 5.59367 5.91499 6.09735 5.91499 6.71867V11.2187C5.91499 11.84 6.43732 12.3437 7.08165 12.3437H8.24832C8.89265 12.3437 9.41499 11.84 9.41499 11.2187V6.71867C9.41499 6.09735 8.89265 5.59367 8.24832 5.59367ZM2.75812 7.84364H1.59146C0.947124 7.84364 0.424789 8.34731 0.424789 8.96864V11.2186C0.424789 11.84 0.947124 12.3436 1.59146 12.3436H2.75812C3.40245 12.3436 3.92479 11.84 3.92479 11.2186V8.96864C3.92479 8.34731 3.40245 7.84364 2.75812 7.84364Z" fill="white"/>
</svg>
