<svg width="20" height="13" viewBox="0 0 20 13" fill="none" xmlns="http://www.w3.org/2000/svg">
<path fill-rule="evenodd" clip-rule="evenodd" d="M18.8039 0.0859375H17.6372C16.9929 0.0859375 16.4706 0.589617 16.4706 1.21094V10.9609C16.4706 11.5823 16.9929 12.0859 17.6372 12.0859H18.8039C19.4482 12.0859 19.9706 11.5823 19.9706 10.9609V1.21094C19.9706 0.589617 19.4482 0.0859375 18.8039 0.0859375ZM12.147 2.71107H13.3137C13.958 2.71107 14.4804 3.21475 14.4804 3.83607V10.9611C14.4804 11.5824 13.958 12.0861 13.3137 12.0861H12.147C11.5027 12.0861 10.9804 11.5824 10.9804 10.9611V3.83607C10.9804 3.21475 11.5027 2.71107 12.147 2.71107ZM7.82351 5.33586H6.65685C6.01252 5.33586 5.49018 5.83954 5.49018 6.46086V10.9609C5.49018 11.5822 6.01252 12.0859 6.65685 12.0859H7.82351C8.46785 12.0859 8.99018 11.5822 8.99018 10.9609V6.46086C8.99018 5.83954 8.46785 5.33586 7.82351 5.33586ZM2.33332 7.58582H1.16665C0.522319 7.58582 -1.52588e-05 8.0895 -1.52588e-05 8.71082V10.9608C-1.52588e-05 11.5821 0.522319 12.0858 1.16665 12.0858H2.33332C2.97765 12.0858 3.49998 11.5821 3.49998 10.9608V8.71082C3.49998 8.0895 2.97765 7.58582 2.33332 7.58582Z" fill="black"/>
</svg>
