<svg width="20" height="13" viewBox="0 0 20 13" fill="none" xmlns="http://www.w3.org/2000/svg">
<path fill-rule="evenodd" clip-rule="evenodd" d="M18.8039 0.386719H17.6372C16.9929 0.386719 16.4706 0.890398 16.4706 1.51172V11.2617C16.4706 11.883 16.9929 12.3867 17.6372 12.3867H18.8039C19.4482 12.3867 19.9706 11.883 19.9706 11.2617V1.51172C19.9706 0.890398 19.4482 0.386719 18.8039 0.386719ZM12.147 3.01185H13.3137C13.958 3.01185 14.4804 3.51553 14.4804 4.13685V11.2619C14.4804 11.8832 13.958 12.3869 13.3137 12.3869H12.147C11.5027 12.3869 10.9804 11.8832 10.9804 11.2619V4.13685C10.9804 3.51553 11.5027 3.01185 12.147 3.01185ZM7.82351 5.63664H6.65685C6.01252 5.63664 5.49018 6.14032 5.49018 6.76164V11.2616C5.49018 11.883 6.01252 12.3866 6.65685 12.3866H7.82351C8.46785 12.3866 8.99018 11.883 8.99018 11.2616V6.76164C8.99018 6.14032 8.46785 5.63664 7.82351 5.63664ZM2.33332 7.8866H1.16665C0.522319 7.8866 -1.52588e-05 8.39028 -1.52588e-05 9.0116V11.2616C-1.52588e-05 11.8829 0.522319 12.3866 1.16665 12.3866H2.33332C2.97765 12.3866 3.49998 11.8829 3.49998 11.2616V9.0116C3.49998 8.39028 2.97765 7.8866 2.33332 7.8866Z" fill="white"/>
</svg>
