<svg width="21" height="13" viewBox="0 0 21 13" fill="none" xmlns="http://www.w3.org/2000/svg">
<path fill-rule="evenodd" clip-rule="evenodd" d="M18.9348 0.0441208H17.7681C17.1238 0.0441208 16.6014 0.5478 16.6014 1.16912V10.9191C16.6014 11.5404 17.1238 12.0441 17.7681 12.0441H18.9348C19.5791 12.0441 20.1014 11.5404 20.1014 10.9191V1.16912C20.1014 0.5478 19.5791 0.0441208 18.9348 0.0441208ZM12.2779 2.66926H13.4446C14.0889 2.66926 14.6112 3.17294 14.6112 3.79426V10.9193C14.6112 11.5406 14.0889 12.0443 13.4446 12.0443H12.2779C11.6336 12.0443 11.1112 11.5406 11.1112 10.9193V3.79426C11.1112 3.17294 11.6336 2.66926 12.2779 2.66926ZM7.95437 5.29404H6.78771C6.14337 5.29404 5.62104 5.79772 5.62104 6.41904V10.919C5.62104 11.5404 6.14337 12.044 6.78771 12.044H7.95437C8.59871 12.044 9.12104 11.5404 9.12104 10.919V6.41904C9.12104 5.79772 8.59871 5.29404 7.95437 5.29404ZM2.46418 7.54401H1.29751C0.653179 7.54401 0.130844 8.04769 0.130844 8.66901V10.919C0.130844 11.5403 0.653179 12.044 1.29751 12.044H2.46418C3.10851 12.044 3.63084 11.5403 3.63084 10.919V8.66901C3.63084 8.04769 3.10851 7.54401 2.46418 7.54401Z" fill="white"/>
</svg>
