<svg width="21" height="13" viewBox="0 0 21 13" fill="none" xmlns="http://www.w3.org/2000/svg">
<path fill-rule="evenodd" clip-rule="evenodd" d="M19.6965 0.5H18.5298C17.8855 0.5 17.3632 1.00368 17.3632 1.625V11.375C17.3632 11.9963 17.8855 12.5 18.5298 12.5H19.6965C20.3408 12.5 20.8632 11.9963 20.8632 11.375V1.625C20.8632 1.00368 20.3408 0.5 19.6965 0.5ZM13.0396 3.12513H14.2063C14.8506 3.12513 15.373 3.62881 15.373 4.25013V11.3751C15.373 11.9965 14.8506 12.5001 14.2063 12.5001H13.0396C12.3953 12.5001 11.873 11.9965 11.873 11.3751V4.25013C11.873 3.62881 12.3953 3.12513 13.0396 3.12513ZM8.71611 5.74992H7.54944C6.90511 5.74992 6.38277 6.2536 6.38277 6.87492V11.3749C6.38277 11.9962 6.90511 12.4999 7.54944 12.4999H8.71611C9.36044 12.4999 9.88277 11.9962 9.88277 11.3749V6.87492C9.88277 6.2536 9.36044 5.74992 8.71611 5.74992ZM3.22591 7.99989H2.05924C1.41491 7.99989 0.892578 8.50356 0.892578 9.12489V11.3749C0.892578 11.9962 1.41491 12.4999 2.05924 12.4999H3.22591C3.87024 12.4999 4.39258 11.9962 4.39258 11.3749V9.12489C4.39258 8.50356 3.87024 7.99989 3.22591 7.99989Z" fill="black"/>
</svg>
