<svg width="21" height="13" viewBox="0 0 21 13" fill="none" xmlns="http://www.w3.org/2000/svg">
<path fill-rule="evenodd" clip-rule="evenodd" d="M18.9113 0.1875H17.7447C17.1003 0.1875 16.578 0.69118 16.578 1.3125V11.0625C16.578 11.6838 17.1003 12.1875 17.7447 12.1875H18.9113C19.5557 12.1875 20.078 11.6838 20.078 11.0625V1.3125C20.078 0.69118 19.5557 0.1875 18.9113 0.1875ZM12.2545 2.81263H13.4211C14.0655 2.81263 14.5878 3.31631 14.5878 3.93763V11.0626C14.5878 11.684 14.0655 12.1876 13.4211 12.1876H12.2545C11.6101 12.1876 11.0878 11.684 11.0878 11.0626V3.93763C11.0878 3.31631 11.6101 2.81263 12.2545 2.81263ZM7.93095 5.43742H6.76428C6.11995 5.43742 5.59762 5.9411 5.59762 6.56242V11.0624C5.59762 11.6837 6.11995 12.1874 6.76428 12.1874H7.93095C8.57528 12.1874 9.09762 11.6837 9.09762 11.0624V6.56242C9.09762 5.9411 8.57528 5.43742 7.93095 5.43742ZM2.44076 7.68739H1.27409C0.629756 7.68739 0.107422 8.19106 0.107422 8.81239V11.0624C0.107422 11.6837 0.629756 12.1874 1.27409 12.1874H2.44076C3.08509 12.1874 3.60742 11.6837 3.60742 11.0624V8.81239C3.60742 8.19106 3.08509 7.68739 2.44076 7.68739Z" fill="black"/>
</svg>
