<svg width="20" height="13" viewBox="0 0 20 13" fill="none" xmlns="http://www.w3.org/2000/svg">
<path fill-rule="evenodd" clip-rule="evenodd" d="M18.8039 0.0874023H17.6372C16.9929 0.0874023 16.4706 0.591082 16.4706 1.2124V10.9624C16.4706 11.5837 16.9929 12.0874 17.6372 12.0874H18.8039C19.4482 12.0874 19.9706 11.5837 19.9706 10.9624V1.2124C19.9706 0.591082 19.4482 0.0874023 18.8039 0.0874023ZM12.147 2.71254H13.3137C13.958 2.71254 14.4804 3.21622 14.4804 3.83754V10.9625C14.4804 11.5839 13.958 12.0875 13.3137 12.0875H12.147C11.5027 12.0875 10.9804 11.5839 10.9804 10.9625V3.83754C10.9804 3.21622 11.5027 2.71254 12.147 2.71254ZM7.82351 5.33732H6.65685C6.01252 5.33732 5.49018 5.841 5.49018 6.46232V10.9623C5.49018 11.5836 6.01252 12.0873 6.65685 12.0873H7.82351C8.46785 12.0873 8.99018 11.5836 8.99018 10.9623V6.46232C8.99018 5.841 8.46785 5.33732 7.82351 5.33732ZM2.33332 7.58729H1.16665C0.522319 7.58729 -1.52588e-05 8.09097 -1.52588e-05 8.71229V10.9623C-1.52588e-05 11.5836 0.522319 12.0873 1.16665 12.0873H2.33332C2.97765 12.0873 3.49998 11.5836 3.49998 10.9623V8.71229C3.49998 8.09097 2.97765 7.58729 2.33332 7.58729Z" fill="black"/>
</svg>
