<svg width="21" height="13" viewBox="0 0 21 13" fill="none" xmlns="http://www.w3.org/2000/svg">
<path fill-rule="evenodd" clip-rule="evenodd" d="M18.9543 0.5H17.7876C17.1433 0.5 16.621 1.00368 16.621 1.625V11.375C16.621 11.9963 17.1433 12.5 17.7876 12.5H18.9543C19.5986 12.5 20.121 11.9963 20.121 11.375V1.625C20.121 1.00368 19.5986 0.5 18.9543 0.5ZM12.2975 3.12513H13.4641C14.1084 3.12513 14.6308 3.62881 14.6308 4.25013V11.3751C14.6308 11.9965 14.1084 12.5001 13.4641 12.5001H12.2975C11.6531 12.5001 11.1308 11.9965 11.1308 11.3751V4.25013C11.1308 3.62881 11.6531 3.12513 12.2975 3.12513ZM7.97392 5.74992H6.80725C6.16292 5.74992 5.64059 6.2536 5.64059 6.87492V11.3749C5.64059 11.9962 6.16292 12.4999 6.80725 12.4999H7.97392C8.61825 12.4999 9.14059 11.9962 9.14059 11.3749V6.87492C9.14059 6.2536 8.61825 5.74992 7.97392 5.74992ZM2.48372 7.99989H1.31706C0.672725 7.99989 0.150391 8.50356 0.150391 9.12489V11.3749C0.150391 11.9962 0.672725 12.4999 1.31706 12.4999H2.48372C3.12806 12.4999 3.65039 11.9962 3.65039 11.3749V9.12489C3.65039 8.50356 3.12806 7.99989 2.48372 7.99989Z" fill="black"/>
</svg>
