<svg width="20" height="12" viewBox="0 0 20 12" fill="none" xmlns="http://www.w3.org/2000/svg">
<path fill-rule="evenodd" clip-rule="evenodd" d="M18.8244 0H17.6578C17.0134 0 16.4911 0.50368 16.4911 1.125V10.875C16.4911 11.4963 17.0134 12 17.6578 12H18.8244C19.4688 12 19.9911 11.4963 19.9911 10.875V1.125C19.9911 0.50368 19.4688 0 18.8244 0ZM12.1676 2.62513H13.3342C13.9786 2.62513 14.5009 3.12881 14.5009 3.75013V10.8751C14.5009 11.4965 13.9786 12.0001 13.3342 12.0001H12.1676C11.5232 12.0001 11.0009 11.4965 11.0009 10.8751V3.75013C11.0009 3.12881 11.5232 2.62513 12.1676 2.62513ZM7.84404 5.24992H6.67737C6.03304 5.24992 5.5107 5.7536 5.5107 6.37492V10.8749C5.5107 11.4962 6.03304 11.9999 6.67737 11.9999H7.84404C8.48837 11.9999 9.0107 11.4962 9.0107 10.8749V6.37492C9.0107 5.7536 8.48837 5.24992 7.84404 5.24992ZM2.35384 7.49989H1.18717C0.542842 7.49989 0.0205078 8.00356 0.0205078 8.62489V10.8749C0.0205078 11.4962 0.542842 11.9999 1.18717 11.9999H2.35384C2.99817 11.9999 3.52051 11.4962 3.52051 10.8749V8.62489C3.52051 8.00356 2.99817 7.49989 2.35384 7.49989Z" fill="black"/>
</svg>
