<svg width="20" height="13" viewBox="0 0 20 13" fill="none" xmlns="http://www.w3.org/2000/svg">
<path fill-rule="evenodd" clip-rule="evenodd" d="M18.8039 0.347656H17.6372C16.9929 0.347656 16.4706 0.851336 16.4706 1.47266V11.2227C16.4706 11.844 16.9929 12.3477 17.6372 12.3477H18.8039C19.4482 12.3477 19.9706 11.844 19.9706 11.2227V1.47266C19.9706 0.851336 19.4482 0.347656 18.8039 0.347656ZM12.147 2.97279H13.3137C13.958 2.97279 14.4804 3.47647 14.4804 4.09779V11.2228C14.4804 11.8441 13.958 12.3478 13.3137 12.3478H12.147C11.5027 12.3478 10.9804 11.8441 10.9804 11.2228V4.09779C10.9804 3.47647 11.5027 2.97279 12.147 2.97279ZM7.82351 5.59758H6.65685C6.01252 5.59758 5.49018 6.10126 5.49018 6.72258V11.2226C5.49018 11.8439 6.01252 12.3476 6.65685 12.3476H7.82351C8.46785 12.3476 8.99018 11.8439 8.99018 11.2226V6.72258C8.99018 6.10126 8.46785 5.59758 7.82351 5.59758ZM2.33332 7.84754H1.16665C0.522319 7.84754 -1.52588e-05 8.35122 -1.52588e-05 8.97254V11.2225C-1.52588e-05 11.8439 0.522319 12.3475 1.16665 12.3475H2.33332C2.97765 12.3475 3.49998 11.8439 3.49998 11.2225V8.97254C3.49998 8.35122 2.97765 7.84754 2.33332 7.84754Z" fill="white"/>
</svg>
