<svg width="21" height="13" viewBox="0 0 21 13" fill="none" xmlns="http://www.w3.org/2000/svg">
<path fill-rule="evenodd" clip-rule="evenodd" d="M19.1692 0.5H18.0025C17.3582 0.5 16.8358 1.00368 16.8358 1.625V11.375C16.8358 11.9963 17.3582 12.5 18.0025 12.5H19.1692C19.8135 12.5 20.3358 11.9963 20.3358 11.375V1.625C20.3358 1.00368 19.8135 0.5 19.1692 0.5ZM12.5123 3.12513H13.679C14.3233 3.12513 14.8456 3.62881 14.8456 4.25013V11.3751C14.8456 11.9965 14.3233 12.5001 13.679 12.5001H12.5123C11.868 12.5001 11.3456 11.9965 11.3456 11.3751V4.25013C11.3456 3.62881 11.868 3.12513 12.5123 3.12513ZM8.18876 5.74992H7.0221C6.37777 5.74992 5.85543 6.2536 5.85543 6.87492V11.3749C5.85543 11.9962 6.37777 12.4999 7.0221 12.4999H8.18876C8.8331 12.4999 9.35543 11.9962 9.35543 11.3749V6.87492C9.35543 6.2536 8.8331 5.74992 8.18876 5.74992ZM2.69857 7.99989H1.5319C0.887569 7.99989 0.365234 8.50356 0.365234 9.12489V11.3749C0.365234 11.9962 0.887569 12.4999 1.5319 12.4999H2.69857C3.3429 12.4999 3.86523 11.9962 3.86523 11.3749V9.12489C3.86523 8.50356 3.3429 7.99989 2.69857 7.99989Z" fill="black"/>
</svg>
