<svg width="21" height="13" viewBox="0 0 21 13" fill="none" xmlns="http://www.w3.org/2000/svg">
<path fill-rule="evenodd" clip-rule="evenodd" d="M19.1613 0.546875H17.9947C17.3503 0.546875 16.828 1.05055 16.828 1.67188V11.4219C16.828 12.0432 17.3503 12.5469 17.9947 12.5469H19.1613C19.8057 12.5469 20.328 12.0432 20.328 11.4219V1.67188C20.328 1.05055 19.8057 0.546875 19.1613 0.546875ZM12.5045 3.17201H13.6711C14.3155 3.17201 14.8378 3.67569 14.8378 4.29701V11.422C14.8378 12.0433 14.3155 12.547 13.6711 12.547H12.5045C11.8601 12.547 11.3378 12.0433 11.3378 11.422V4.29701C11.3378 3.67569 11.8601 3.17201 12.5045 3.17201ZM8.18095 5.79679H7.01428C6.36995 5.79679 5.84762 6.30047 5.84762 6.92179V11.4218C5.84762 12.0431 6.36995 12.5468 7.01428 12.5468H8.18095C8.82528 12.5468 9.34762 12.0431 9.34762 11.4218V6.92179C9.34762 6.30047 8.82528 5.79679 8.18095 5.79679ZM2.69076 8.04676H1.52409C0.879756 8.04676 0.357422 8.55044 0.357422 9.17176V11.4218C0.357422 12.0431 0.879756 12.5468 1.52409 12.5468H2.69076C3.33509 12.5468 3.85742 12.0431 3.85742 11.4218V9.17176C3.85742 8.55044 3.33509 8.04676 2.69076 8.04676Z" fill="black"/>
</svg>
