<svg width="21" height="12" viewBox="0 0 21 12" fill="none" xmlns="http://www.w3.org/2000/svg">
<path fill-rule="evenodd" clip-rule="evenodd" d="M19.0022 0H17.8355C17.1912 0 16.6688 0.50368 16.6688 1.125V10.875C16.6688 11.4963 17.1912 12 17.8355 12H19.0022C19.6465 12 20.1688 11.4963 20.1688 10.875V1.125C20.1688 0.50368 19.6465 0 19.0022 0ZM12.3453 2.62513H13.512C14.1563 2.62513 14.6786 3.12881 14.6786 3.75013V10.8751C14.6786 11.4965 14.1563 12.0001 13.512 12.0001H12.3453C11.701 12.0001 11.1786 11.4965 11.1786 10.8751V3.75013C11.1786 3.12881 11.701 2.62513 12.3453 2.62513ZM8.02177 5.24992H6.8551C6.21077 5.24992 5.68844 5.7536 5.68844 6.37492V10.8749C5.68844 11.4962 6.21077 11.9999 6.8551 11.9999H8.02177C8.6661 11.9999 9.18844 11.4962 9.18844 10.8749V6.37492C9.18844 5.7536 8.6661 5.24992 8.02177 5.24992ZM2.53158 7.49989H1.36491C0.720577 7.49989 0.198242 8.00356 0.198242 8.62489V10.8749C0.198242 11.4962 0.720577 11.9999 1.36491 11.9999H2.53158C3.17591 11.9999 3.69824 11.4962 3.69824 10.8749V8.62489C3.69824 8.00356 3.17591 7.49989 2.53158 7.49989Z" fill="black"/>
</svg>
