<svg width="20" height="13" viewBox="0 0 20 13" fill="none" xmlns="http://www.w3.org/2000/svg">
<path fill-rule="evenodd" clip-rule="evenodd" d="M18.8039 0.346802H17.6372C16.9929 0.346802 16.4706 0.850481 16.4706 1.4718V11.2218C16.4706 11.8431 16.9929 12.3468 17.6372 12.3468H18.8039C19.4482 12.3468 19.9706 11.8431 19.9706 11.2218V1.4718C19.9706 0.850481 19.4482 0.346802 18.8039 0.346802ZM12.147 2.97194H13.3137C13.958 2.97194 14.4804 3.47562 14.4804 4.09694V11.2219C14.4804 11.8433 13.958 12.3469 13.3137 12.3469H12.147C11.5027 12.3469 10.9804 11.8433 10.9804 11.2219V4.09694C10.9804 3.47562 11.5027 2.97194 12.147 2.97194ZM7.82351 5.59672H6.65685C6.01252 5.59672 5.49018 6.1004 5.49018 6.72172V11.2217C5.49018 11.843 6.01252 12.3467 6.65685 12.3467H7.82351C8.46785 12.3467 8.99018 11.843 8.99018 11.2217V6.72172C8.99018 6.1004 8.46785 5.59672 7.82351 5.59672ZM2.33332 7.84669H1.16665C0.522319 7.84669 -1.52588e-05 8.35037 -1.52588e-05 8.97169V11.2217C-1.52588e-05 11.843 0.522319 12.3467 1.16665 12.3467H2.33332C2.97765 12.3467 3.49998 11.843 3.49998 11.2217V8.97169C3.49998 8.35037 2.97765 7.84669 2.33332 7.84669Z" fill="white"/>
</svg>
