<svg width="21" height="13" viewBox="0 0 21 13" fill="none" xmlns="http://www.w3.org/2000/svg">
<path fill-rule="evenodd" clip-rule="evenodd" d="M19.1613 0.390625H17.9947C17.3503 0.390625 16.828 0.894305 16.828 1.51562V11.2656C16.828 11.8869 17.3503 12.3906 17.9947 12.3906H19.1613C19.8057 12.3906 20.328 11.8869 20.328 11.2656V1.51562C20.328 0.894305 19.8057 0.390625 19.1613 0.390625ZM12.5045 3.01576H13.6711C14.3155 3.01576 14.8378 3.51944 14.8378 4.14076V11.2658C14.8378 11.8871 14.3155 12.3908 13.6711 12.3908H12.5045C11.8601 12.3908 11.3378 11.8871 11.3378 11.2658V4.14076C11.3378 3.51944 11.8601 3.01576 12.5045 3.01576ZM8.18094 5.64054H7.01427C6.36994 5.64054 5.8476 6.14422 5.8476 6.76554V11.2655C5.8476 11.8869 6.36994 12.3905 7.01427 12.3905H8.18094C8.82527 12.3905 9.3476 11.8869 9.3476 11.2655V6.76554C9.3476 6.14422 8.82527 5.64054 8.18094 5.64054ZM2.69074 7.89051H1.52407C0.879741 7.89051 0.357407 8.39419 0.357407 9.01551V11.2655C0.357407 11.8868 0.879741 12.3905 1.52407 12.3905H2.69074C3.33507 12.3905 3.85741 11.8868 3.85741 11.2655V9.01551C3.85741 8.39419 3.33507 7.89051 2.69074 7.89051Z" fill="white"/>
</svg>
