<svg width="21" height="13" viewBox="0 0 21 13" fill="none" xmlns="http://www.w3.org/2000/svg">
<path fill-rule="evenodd" clip-rule="evenodd" d="M18.9113 0.439453H17.7447C17.1003 0.439453 16.578 0.943133 16.578 1.56445V11.3145C16.578 11.9358 17.1003 12.4395 17.7447 12.4395H18.9113C19.5557 12.4395 20.078 11.9358 20.078 11.3145V1.56445C20.078 0.943133 19.5557 0.439453 18.9113 0.439453ZM12.2545 3.06459H13.4211C14.0655 3.06459 14.5878 3.56827 14.5878 4.18959V11.3146C14.5878 11.9359 14.0655 12.4396 13.4211 12.4396H12.2545C11.6101 12.4396 11.0878 11.9359 11.0878 11.3146V4.18959C11.0878 3.56827 11.6101 3.06459 12.2545 3.06459ZM7.93095 5.68937H6.76428C6.11995 5.68937 5.59762 6.19305 5.59762 6.81437V11.3144C5.59762 11.9357 6.11995 12.4394 6.76428 12.4394H7.93095C8.57528 12.4394 9.09762 11.9357 9.09762 11.3144V6.81437C9.09762 6.19305 8.57528 5.68937 7.93095 5.68937ZM2.44076 7.93934H1.27409C0.629756 7.93934 0.107422 8.44302 0.107422 9.06434V11.3143C0.107422 11.9357 0.629756 12.4393 1.27409 12.4393H2.44076C3.08509 12.4393 3.60742 11.9357 3.60742 11.3143V9.06434C3.60742 8.44302 3.08509 7.93934 2.44076 7.93934Z" fill="white"/>
</svg>
