<svg width="21" height="13" viewBox="0 0 21 13" fill="none" xmlns="http://www.w3.org/2000/svg">
<path fill-rule="evenodd" clip-rule="evenodd" d="M18.9113 0.546875H17.7447C17.1003 0.546875 16.578 1.05055 16.578 1.67188V11.4219C16.578 12.0432 17.1003 12.5469 17.7447 12.5469H18.9113C19.5557 12.5469 20.078 12.0432 20.078 11.4219V1.67188C20.078 1.05055 19.5557 0.546875 18.9113 0.546875ZM12.2545 3.17201H13.4211C14.0655 3.17201 14.5878 3.67569 14.5878 4.29701V11.422C14.5878 12.0433 14.0655 12.547 13.4211 12.547H12.2545C11.6101 12.547 11.0878 12.0433 11.0878 11.422V4.29701C11.0878 3.67569 11.6101 3.17201 12.2545 3.17201ZM7.93095 5.79679H6.76428C6.11995 5.79679 5.59762 6.30047 5.59762 6.92179V11.4218C5.59762 12.0431 6.11995 12.5468 6.76428 12.5468H7.93095C8.57528 12.5468 9.09762 12.0431 9.09762 11.4218V6.92179C9.09762 6.30047 8.57528 5.79679 7.93095 5.79679ZM2.44076 8.04676H1.27409C0.629756 8.04676 0.107422 8.55044 0.107422 9.17176V11.4218C0.107422 12.0431 0.629756 12.5468 1.27409 12.5468H2.44076C3.08509 12.5468 3.60742 12.0431 3.60742 11.4218V9.17176C3.60742 8.55044 3.08509 8.04676 2.44076 8.04676Z" fill="black"/>
</svg>
