<svg width="21" height="13" viewBox="0 0 21 13" fill="none" xmlns="http://www.w3.org/2000/svg">
<path fill-rule="evenodd" clip-rule="evenodd" d="M19.799 0.5H18.6324C17.988 0.5 17.4657 1.00368 17.4657 1.625V11.375C17.4657 11.9963 17.988 12.5 18.6324 12.5H19.799C20.4434 12.5 20.9657 11.9963 20.9657 11.375V1.625C20.9657 1.00368 20.4434 0.5 19.799 0.5ZM13.1422 3.12513H14.3088C14.9532 3.12513 15.4755 3.62881 15.4755 4.25013V11.3751C15.4755 11.9965 14.9532 12.5001 14.3088 12.5001H13.1422C12.4978 12.5001 11.9755 11.9965 11.9755 11.3751V4.25013C11.9755 3.62881 12.4978 3.12513 13.1422 3.12513ZM8.81865 5.74992H7.65198C7.00765 5.74992 6.48531 6.2536 6.48531 6.87492V11.3749C6.48531 11.9962 7.00765 12.4999 7.65198 12.4999H8.81865C9.46298 12.4999 9.98531 11.9962 9.98531 11.3749V6.87492C9.98531 6.2536 9.46298 5.74992 8.81865 5.74992ZM3.32845 7.99989H2.16178C1.51745 7.99989 0.995117 8.50356 0.995117 9.12489V11.3749C0.995117 11.9962 1.51745 12.4999 2.16178 12.4999H3.32845C3.97278 12.4999 4.49512 11.9962 4.49512 11.3749V9.12489C4.49512 8.50356 3.97278 7.99989 3.32845 7.99989Z" fill="black"/>
</svg>
