<svg width="21" height="13" viewBox="0 0 21 13" fill="none" xmlns="http://www.w3.org/2000/svg">
<path fill-rule="evenodd" clip-rule="evenodd" d="M19.7043 0.5H18.5376C17.8933 0.5 17.371 1.00368 17.371 1.625V11.375C17.371 11.9963 17.8933 12.5 18.5376 12.5H19.7043C20.3486 12.5 20.871 11.9963 20.871 11.375V1.625C20.871 1.00368 20.3486 0.5 19.7043 0.5ZM13.0474 3.12513H14.2141C14.8584 3.12513 15.3808 3.62881 15.3808 4.25013V11.3751C15.3808 11.9965 14.8584 12.5001 14.2141 12.5001H13.0474C12.4031 12.5001 11.8808 11.9965 11.8808 11.3751V4.25013C11.8808 3.62881 12.4031 3.12513 13.0474 3.12513ZM8.7239 5.74992H7.55724C6.91291 5.74992 6.39057 6.2536 6.39057 6.87492V11.3749C6.39057 11.9962 6.91291 12.4999 7.55724 12.4999H8.7239C9.36824 12.4999 9.89057 11.9962 9.89057 11.3749V6.87492C9.89057 6.2536 9.36824 5.74992 8.7239 5.74992ZM3.23371 7.99989H2.06704C1.42271 7.99989 0.900375 8.50356 0.900375 9.12489V11.3749C0.900375 11.9962 1.42271 12.4999 2.06704 12.4999H3.23371C3.87804 12.4999 4.40038 11.9962 4.40038 11.3749V9.12489C4.40038 8.50356 3.87804 7.99989 3.23371 7.99989Z" fill="black"/>
</svg>
