<svg width="21" height="13" viewBox="0 0 21 13" fill="none" xmlns="http://www.w3.org/2000/svg">
<path fill-rule="evenodd" clip-rule="evenodd" d="M19.1613 0.439453H17.9947C17.3503 0.439453 16.828 0.943133 16.828 1.56445V11.3145C16.828 11.9358 17.3503 12.4395 17.9947 12.4395H19.1613C19.8057 12.4395 20.328 11.9358 20.328 11.3145V1.56445C20.328 0.943133 19.8057 0.439453 19.1613 0.439453ZM12.5045 3.06459H13.6711C14.3155 3.06459 14.8378 3.56827 14.8378 4.18959V11.3146C14.8378 11.9359 14.3155 12.4396 13.6711 12.4396H12.5045C11.8601 12.4396 11.3378 11.9359 11.3378 11.3146V4.18959C11.3378 3.56827 11.8601 3.06459 12.5045 3.06459ZM8.18095 5.68937H7.01428C6.36995 5.68937 5.84762 6.19305 5.84762 6.81437V11.3144C5.84762 11.9357 6.36995 12.4394 7.01428 12.4394H8.18095C8.82528 12.4394 9.34762 11.9357 9.34762 11.3144V6.81437C9.34762 6.19305 8.82528 5.68937 8.18095 5.68937ZM2.69076 7.93934H1.52409C0.879756 7.93934 0.357422 8.44302 0.357422 9.06434V11.3143C0.357422 11.9357 0.879756 12.4393 1.52409 12.4393H2.69076C3.33509 12.4393 3.85742 11.9357 3.85742 11.3143V9.06434C3.85742 8.44302 3.33509 7.93934 2.69076 7.93934Z" fill="white"/>
</svg>
