<svg width="21" height="13" viewBox="0 0 21 13" fill="none" xmlns="http://www.w3.org/2000/svg">
<path fill-rule="evenodd" clip-rule="evenodd" d="M19.2561 0.5H18.0894C17.4451 0.5 16.9227 1.00368 16.9227 1.625V11.375C16.9227 11.9963 17.4451 12.5 18.0894 12.5H19.2561C19.9004 12.5 20.4227 11.9963 20.4227 11.375V1.625C20.4227 1.00368 19.9004 0.5 19.2561 0.5ZM12.5992 3.12513H13.7659C14.4102 3.12513 14.9325 3.62881 14.9325 4.25013V11.3751C14.9325 11.9965 14.4102 12.5001 13.7659 12.5001H12.5992C11.9549 12.5001 11.4325 11.9965 11.4325 11.3751V4.25013C11.4325 3.62881 11.9549 3.12513 12.5992 3.12513ZM8.27568 5.74992H7.10901C6.46468 5.74992 5.94234 6.2536 5.94234 6.87492V11.3749C5.94234 11.9962 6.46468 12.4999 7.10901 12.4999H8.27568C8.92001 12.4999 9.44234 11.9962 9.44234 11.3749V6.87492C9.44234 6.2536 8.92001 5.74992 8.27568 5.74992ZM2.78548 7.99989H1.61882C0.974483 7.99989 0.452148 8.50356 0.452148 9.12489V11.3749C0.452148 11.9962 0.974483 12.4999 1.61882 12.4999H2.78548C3.42981 12.4999 3.95215 11.9962 3.95215 11.3749V9.12489C3.95215 8.50356 3.42981 7.99989 2.78548 7.99989Z" fill="black"/>
</svg>
