<svg width="21" height="13" viewBox="0 0 21 13" fill="none" xmlns="http://www.w3.org/2000/svg">
<path fill-rule="evenodd" clip-rule="evenodd" d="M19.5539 0.5H18.3873C17.7429 0.5 17.2206 1.00368 17.2206 1.625V11.375C17.2206 11.9963 17.7429 12.5 18.3873 12.5H19.5539C20.1982 12.5 20.7206 11.9963 20.7206 11.375V1.625C20.7206 1.00368 20.1982 0.5 19.5539 0.5ZM12.8971 3.12513H14.0637C14.7081 3.12513 15.2304 3.62881 15.2304 4.25013V11.3751C15.2304 11.9965 14.7081 12.5001 14.0637 12.5001H12.8971C12.2527 12.5001 11.7304 11.9965 11.7304 11.3751V4.25013C11.7304 3.62881 12.2527 3.12513 12.8971 3.12513ZM8.57353 5.74992H7.40686C6.76253 5.74992 6.2402 6.2536 6.2402 6.87492V11.3749C6.2402 11.9962 6.76253 12.4999 7.40686 12.4999H8.57353C9.21786 12.4999 9.7402 11.9962 9.7402 11.3749V6.87492C9.7402 6.2536 9.21786 5.74992 8.57353 5.74992ZM3.08333 7.99989H1.91667C1.27233 7.99989 0.75 8.50356 0.75 9.12489V11.3749C0.75 11.9962 1.27233 12.4999 1.91667 12.4999H3.08333C3.72767 12.4999 4.25 11.9962 4.25 11.3749V9.12489C4.25 8.50356 3.72767 7.99989 3.08333 7.99989Z" fill="black"/>
</svg>
