<svg width="21" height="13" viewBox="0 0 21 13" fill="none" xmlns="http://www.w3.org/2000/svg">
<path fill-rule="evenodd" clip-rule="evenodd" d="M18.9543 0.34375H17.7876C17.1433 0.34375 16.621 0.84743 16.621 1.46875V11.2188C16.621 11.8401 17.1433 12.3438 17.7876 12.3438H18.9543C19.5986 12.3438 20.121 11.8401 20.121 11.2188V1.46875C20.121 0.84743 19.5986 0.34375 18.9543 0.34375ZM12.2975 2.96888H13.4641C14.1084 2.96888 14.6308 3.47256 14.6308 4.09388V11.2189C14.6308 11.8402 14.1084 12.3439 13.4641 12.3439H12.2975C11.6531 12.3439 11.1308 11.8402 11.1308 11.2189V4.09388C11.1308 3.47256 11.6531 2.96888 12.2975 2.96888ZM7.97392 5.59367H6.80725C6.16292 5.59367 5.64059 6.09735 5.64059 6.71867V11.2187C5.64059 11.84 6.16292 12.3437 6.80725 12.3437H7.97392C8.61825 12.3437 9.14059 11.84 9.14059 11.2187V6.71867C9.14059 6.09735 8.61825 5.59367 7.97392 5.59367ZM2.48372 7.84364H1.31706C0.672725 7.84364 0.150391 8.34731 0.150391 8.96864V11.2186C0.150391 11.84 0.672725 12.3436 1.31706 12.3436H2.48372C3.12806 12.3436 3.65039 11.84 3.65039 11.2186V8.96864C3.65039 8.34731 3.12806 7.84364 2.48372 7.84364Z" fill="white"/>
</svg>
