<svg width="21" height="13" viewBox="0 0 21 13" fill="none" xmlns="http://www.w3.org/2000/svg">
<path fill-rule="evenodd" clip-rule="evenodd" d="M18.9348 0.386719H17.7681C17.1238 0.386719 16.6014 0.890398 16.6014 1.51172V11.2617C16.6014 11.883 17.1238 12.3867 17.7681 12.3867H18.9348C19.5791 12.3867 20.1014 11.883 20.1014 11.2617V1.51172C20.1014 0.890398 19.5791 0.386719 18.9348 0.386719ZM12.2779 3.01185H13.4446C14.0889 3.01185 14.6112 3.51553 14.6112 4.13685V11.2619C14.6112 11.8832 14.0889 12.3869 13.4446 12.3869H12.2779C11.6336 12.3869 11.1112 11.8832 11.1112 11.2619V4.13685C11.1112 3.51553 11.6336 3.01185 12.2779 3.01185ZM7.95437 5.63664H6.78771C6.14337 5.63664 5.62104 6.14032 5.62104 6.76164V11.2616C5.62104 11.883 6.14337 12.3866 6.78771 12.3866H7.95437C8.59871 12.3866 9.12104 11.883 9.12104 11.2616V6.76164C9.12104 6.14032 8.59871 5.63664 7.95437 5.63664ZM2.46418 7.8866H1.29751C0.653179 7.8866 0.130844 8.39028 0.130844 9.0116V11.2616C0.130844 11.8829 0.653179 12.3866 1.29751 12.3866H2.46418C3.10851 12.3866 3.63084 11.8829 3.63084 11.2616V9.0116C3.63084 8.39028 3.10851 7.8866 2.46418 7.8866Z" fill="white"/>
</svg>
