<svg width="21" height="13" viewBox="0 0 21 13" fill="none" xmlns="http://www.w3.org/2000/svg">
<path fill-rule="evenodd" clip-rule="evenodd" d="M19.1555 0.5H17.9888C17.3445 0.5 16.8221 1.00368 16.8221 1.625V11.375C16.8221 11.9963 17.3445 12.5 17.9888 12.5H19.1555C19.7998 12.5 20.3221 11.9963 20.3221 11.375V1.625C20.3221 1.00368 19.7998 0.5 19.1555 0.5ZM12.4986 3.12513H13.6653C14.3096 3.12513 14.832 3.62881 14.832 4.25013V11.3751C14.832 11.9965 14.3096 12.5001 13.6653 12.5001H12.4986C11.8543 12.5001 11.332 11.9965 11.332 11.3751V4.25013C11.332 3.62881 11.8543 3.12513 12.4986 3.12513ZM8.17509 5.74992H7.00843C6.36409 5.74992 5.84176 6.2536 5.84176 6.87492V11.3749C5.84176 11.9962 6.36409 12.4999 7.00843 12.4999H8.17509C8.81942 12.4999 9.34176 11.9962 9.34176 11.3749V6.87492C9.34176 6.2536 8.81942 5.74992 8.17509 5.74992ZM2.6849 7.99989H1.51823C0.873897 7.99989 0.351562 8.50356 0.351562 9.12489V11.3749C0.351562 11.9962 0.873897 12.4999 1.51823 12.4999H2.6849C3.32923 12.4999 3.85156 11.9962 3.85156 11.3749V9.12489C3.85156 8.50356 3.32923 7.99989 2.6849 7.99989Z" fill="black"/>
</svg>
