<svg width="21" height="13" viewBox="0 0 21 13" fill="none" xmlns="http://www.w3.org/2000/svg">
<path fill-rule="evenodd" clip-rule="evenodd" d="M18.9348 0.0429688H17.7681C17.1238 0.0429688 16.6014 0.546648 16.6014 1.16797V10.918C16.6014 11.5393 17.1238 12.043 17.7681 12.043H18.9348C19.5791 12.043 20.1014 11.5393 20.1014 10.918V1.16797C20.1014 0.546648 19.5791 0.0429688 18.9348 0.0429688ZM12.2779 2.6681H13.4446C14.0889 2.6681 14.6113 3.17178 14.6113 3.7931V10.9181C14.6113 11.5394 14.0889 12.0431 13.4446 12.0431H12.2779C11.6336 12.0431 11.1113 11.5394 11.1113 10.9181V3.7931C11.1113 3.17178 11.6336 2.6681 12.2779 2.6681ZM7.95439 5.29289H6.78772C6.14339 5.29289 5.62106 5.79657 5.62106 6.41789V10.9179C5.62106 11.5392 6.14339 12.0429 6.78772 12.0429H7.95439C8.59872 12.0429 9.12106 11.5392 9.12106 10.9179V6.41789C9.12106 5.79657 8.59872 5.29289 7.95439 5.29289ZM2.46419 7.54285H1.29753C0.653194 7.54285 0.130859 8.04653 0.130859 8.66785V10.9179C0.130859 11.5392 0.653194 12.0429 1.29753 12.0429H2.46419C3.10852 12.0429 3.63086 11.5392 3.63086 10.9179V8.66785C3.63086 8.04653 3.10852 7.54285 2.46419 7.54285Z" fill="white"/>
</svg>
