<svg width="21" height="13" viewBox="0 0 21 13" fill="none" xmlns="http://www.w3.org/2000/svg">
<path fill-rule="evenodd" clip-rule="evenodd" d="M19.1613 0.1875H17.9947C17.3503 0.1875 16.828 0.69118 16.828 1.3125V11.0625C16.828 11.6838 17.3503 12.1875 17.9947 12.1875H19.1613C19.8057 12.1875 20.328 11.6838 20.328 11.0625V1.3125C20.328 0.69118 19.8057 0.1875 19.1613 0.1875ZM12.5045 2.81263H13.6711C14.3155 2.81263 14.8378 3.31631 14.8378 3.93763V11.0626C14.8378 11.684 14.3155 12.1876 13.6711 12.1876H12.5045C11.8601 12.1876 11.3378 11.684 11.3378 11.0626V3.93763C11.3378 3.31631 11.8601 2.81263 12.5045 2.81263ZM8.18095 5.43742H7.01428C6.36995 5.43742 5.84762 5.9411 5.84762 6.56242V11.0624C5.84762 11.6837 6.36995 12.1874 7.01428 12.1874H8.18095C8.82528 12.1874 9.34762 11.6837 9.34762 11.0624V6.56242C9.34762 5.9411 8.82528 5.43742 8.18095 5.43742ZM2.69076 7.68739H1.52409C0.879756 7.68739 0.357422 8.19106 0.357422 8.81239V11.0624C0.357422 11.6837 0.879756 12.1874 1.52409 12.1874H2.69076C3.33509 12.1874 3.85742 11.6837 3.85742 11.0624V8.81239C3.85742 8.19106 3.33509 7.68739 2.69076 7.68739Z" fill="black"/>
</svg>
