<svg width="21" height="13" viewBox="0 0 21 13" fill="none" xmlns="http://www.w3.org/2000/svg">
<path fill-rule="evenodd" clip-rule="evenodd" d="M19.1613 0.595703H17.9947C17.3503 0.595703 16.828 1.09938 16.828 1.7207V11.4707C16.828 12.092 17.3503 12.5957 17.9947 12.5957H19.1613C19.8057 12.5957 20.328 12.092 20.328 11.4707V1.7207C20.328 1.09938 19.8057 0.595703 19.1613 0.595703ZM12.5045 3.22084H13.6711C14.3155 3.22084 14.8378 3.72452 14.8378 4.34584V11.4708C14.8378 12.0922 14.3155 12.5958 13.6711 12.5958H12.5045C11.8601 12.5958 11.3378 12.0922 11.3378 11.4708V4.34584C11.3378 3.72452 11.8601 3.22084 12.5045 3.22084ZM8.18095 5.84562H7.01428C6.36995 5.84562 5.84762 6.3493 5.84762 6.97062V11.4706C5.84762 12.0919 6.36995 12.5956 7.01428 12.5956H8.18095C8.82528 12.5956 9.34762 12.0919 9.34762 11.4706V6.97062C9.34762 6.3493 8.82528 5.84562 8.18095 5.84562ZM2.69076 8.09559H1.52409C0.879756 8.09559 0.357422 8.59927 0.357422 9.22059V11.4706C0.357422 12.0919 0.879756 12.5956 1.52409 12.5956H2.69076C3.33509 12.5956 3.85742 12.0919 3.85742 11.4706V9.22059C3.85742 8.59927 3.33509 8.09559 2.69076 8.09559Z" fill="black"/>
</svg>
