<svg width="21" height="13" viewBox="0 0 21 13" fill="none" xmlns="http://www.w3.org/2000/svg">
<path fill-rule="evenodd" clip-rule="evenodd" d="M18.9113 0.5H17.7447C17.1003 0.5 16.578 1.00368 16.578 1.625V11.375C16.578 11.9963 17.1003 12.5 17.7447 12.5H18.9113C19.5557 12.5 20.078 11.9963 20.078 11.375V1.625C20.078 1.00368 19.5557 0.5 18.9113 0.5ZM12.2545 3.12513H13.4211C14.0655 3.12513 14.5878 3.62881 14.5878 4.25013V11.3751C14.5878 11.9965 14.0655 12.5001 13.4211 12.5001H12.2545C11.6101 12.5001 11.0878 11.9965 11.0878 11.3751V4.25013C11.0878 3.62881 11.6101 3.12513 12.2545 3.12513ZM7.93094 5.74992H6.76427C6.11994 5.74992 5.5976 6.2536 5.5976 6.87492V11.3749C5.5976 11.9962 6.11994 12.4999 6.76427 12.4999H7.93094C8.57527 12.4999 9.0976 11.9962 9.0976 11.3749V6.87492C9.0976 6.2536 8.57527 5.74992 7.93094 5.74992ZM2.44074 7.99989H1.27407C0.629741 7.99989 0.107407 8.50356 0.107407 9.12489V11.3749C0.107407 11.9962 0.629741 12.4999 1.27407 12.4999H2.44074C3.08507 12.4999 3.60741 11.9962 3.60741 11.3749V9.12489C3.60741 8.50356 3.08507 7.99989 2.44074 7.99989Z" fill="black"/>
</svg>
