<svg width="21" height="12" viewBox="0 0 21 12" fill="none" xmlns="http://www.w3.org/2000/svg">
<path fill-rule="evenodd" clip-rule="evenodd" d="M19.3137 0H18.147C17.5027 0 16.9804 0.50368 16.9804 1.125V10.875C16.9804 11.4963 17.5027 12 18.147 12H19.3137C19.958 12 20.4804 11.4963 20.4804 10.875V1.125C20.4804 0.50368 19.958 0 19.3137 0ZM12.6568 2.62513H13.8235C14.4678 2.62513 14.9902 3.12881 14.9902 3.75013V10.8751C14.9902 11.4965 14.4678 12.0001 13.8235 12.0001H12.6568C12.0125 12.0001 11.4902 11.4965 11.4902 10.8751V3.75013C11.4902 3.12881 12.0125 2.62513 12.6568 2.62513ZM8.33329 5.24992H7.16663C6.5223 5.24992 5.99996 5.7536 5.99996 6.37492V10.8749C5.99996 11.4962 6.5223 11.9999 7.16663 11.9999H8.33329C8.97763 11.9999 9.49996 11.4962 9.49996 10.8749V6.37492C9.49996 5.7536 8.97763 5.24992 8.33329 5.24992ZM2.8431 7.49989H1.67643C1.0321 7.49989 0.509766 8.00356 0.509766 8.62489V10.8749C0.509766 11.4962 1.0321 11.9999 1.67643 11.9999H2.8431C3.48743 11.9999 4.00977 11.4962 4.00977 10.8749V8.62489C4.00977 8.00356 3.48743 7.49989 2.8431 7.49989Z" fill="black"/>
</svg>
