<svg width="20" height="13" viewBox="0 0 20 13" fill="none" xmlns="http://www.w3.org/2000/svg">
<path fill-rule="evenodd" clip-rule="evenodd" d="M18.8039 0.343193H17.6372C16.9929 0.343193 16.4706 0.846873 16.4706 1.46819V11.2182C16.4706 11.8395 16.9929 12.3432 17.6372 12.3432H18.8039C19.4482 12.3432 19.9706 11.8395 19.9706 11.2182V1.46819C19.9706 0.846873 19.4482 0.343193 18.8039 0.343193ZM12.147 2.96833H13.3137C13.958 2.96833 14.4804 3.47201 14.4804 4.09333V11.2183C14.4804 11.8396 13.958 12.3433 13.3137 12.3433H12.147C11.5027 12.3433 10.9804 11.8396 10.9804 11.2183V4.09333C10.9804 3.47201 11.5027 2.96833 12.147 2.96833ZM7.82351 5.59311H6.65685C6.01252 5.59311 5.49018 6.09679 5.49018 6.71811V11.2181C5.49018 11.8394 6.01252 12.3431 6.65685 12.3431H7.82351C8.46785 12.3431 8.99018 11.8394 8.99018 11.2181V6.71811C8.99018 6.09679 8.46785 5.59311 7.82351 5.59311ZM2.33332 7.84308H1.16665C0.522319 7.84308 -1.52588e-05 8.34676 -1.52588e-05 8.96808V11.2181C-1.52588e-05 11.8394 0.522319 12.3431 1.16665 12.3431H2.33332C2.97765 12.3431 3.49998 11.8394 3.49998 11.2181V8.96808C3.49998 8.34676 2.97765 7.84308 2.33332 7.84308Z" fill="white"/>
</svg>
