<svg width="21" height="13" viewBox="0 0 21 13" fill="none" xmlns="http://www.w3.org/2000/svg">
<path fill-rule="evenodd" clip-rule="evenodd" d="M18.9543 0.34375H17.7876C17.1433 0.34375 16.621 0.84743 16.621 1.46875V11.2188C16.621 11.8401 17.1433 12.3438 17.7876 12.3438H18.9543C19.5986 12.3438 20.121 11.8401 20.121 11.2188V1.46875C20.121 0.84743 19.5986 0.34375 18.9543 0.34375ZM12.2974 2.96888H13.4641C14.1084 2.96888 14.6308 3.47256 14.6308 4.09388V11.2189C14.6308 11.8402 14.1084 12.3439 13.4641 12.3439H12.2974C11.6531 12.3439 11.1308 11.8402 11.1308 11.2189V4.09388C11.1308 3.47256 11.6531 2.96888 12.2974 2.96888ZM7.9739 5.59367H6.80724C6.16291 5.59367 5.64057 6.09735 5.64057 6.71867V11.2187C5.64057 11.84 6.16291 12.3437 6.80724 12.3437H7.9739C8.61824 12.3437 9.14057 11.84 9.14057 11.2187V6.71867C9.14057 6.09735 8.61824 5.59367 7.9739 5.59367ZM2.48371 7.84364H1.31704C0.67271 7.84364 0.150375 8.34731 0.150375 8.96864V11.2186C0.150375 11.84 0.67271 12.3436 1.31704 12.3436H2.48371C3.12804 12.3436 3.65038 11.84 3.65038 11.2186V8.96864C3.65038 8.34731 3.12804 7.84364 2.48371 7.84364Z" fill="white"/>
</svg>
