<svg width="21" height="13" viewBox="0 0 21 13" fill="none" xmlns="http://www.w3.org/2000/svg">
<path fill-rule="evenodd" clip-rule="evenodd" d="M19.6457 0.5H18.479C17.8347 0.5 17.3124 1.00368 17.3124 1.625V11.375C17.3124 11.9963 17.8347 12.5 18.479 12.5H19.6457C20.29 12.5 20.8124 11.9963 20.8124 11.375V1.625C20.8124 1.00368 20.29 0.5 19.6457 0.5ZM12.9889 3.12513H14.1555C14.7999 3.12513 15.3222 3.62881 15.3222 4.25013V11.3751C15.3222 11.9965 14.7999 12.5001 14.1555 12.5001H12.9889C12.3445 12.5001 11.8222 11.9965 11.8222 11.3751V4.25013C11.8222 3.62881 12.3445 3.12513 12.9889 3.12513ZM8.66533 5.74992H7.49866C6.85433 5.74992 6.33199 6.2536 6.33199 6.87492V11.3749C6.33199 11.9962 6.85433 12.4999 7.49866 12.4999H8.66533C9.30966 12.4999 9.83199 11.9962 9.83199 11.3749V6.87492C9.83199 6.2536 9.30966 5.74992 8.66533 5.74992ZM3.17513 7.99989H2.00846C1.36413 7.99989 0.841797 8.50356 0.841797 9.12489V11.3749C0.841797 11.9962 1.36413 12.4999 2.00846 12.4999H3.17513C3.81946 12.4999 4.3418 11.9962 4.3418 11.3749V9.12489C4.3418 8.50356 3.81946 7.99989 3.17513 7.99989Z" fill="black"/>
</svg>
