<svg width="20" height="13" viewBox="0 0 20 13" fill="none" xmlns="http://www.w3.org/2000/svg">
<path fill-rule="evenodd" clip-rule="evenodd" d="M18.8039 0.387383H17.6372C16.9929 0.387383 16.4706 0.891062 16.4706 1.51238V11.2624C16.4706 11.8837 16.9929 12.3874 17.6372 12.3874H18.8039C19.4482 12.3874 19.9706 11.8837 19.9706 11.2624V1.51238C19.9706 0.891062 19.4482 0.387383 18.8039 0.387383ZM12.147 3.01252H13.3137C13.958 3.01252 14.4804 3.5162 14.4804 4.13752V11.2625C14.4804 11.8838 13.958 12.3875 13.3137 12.3875H12.147C11.5027 12.3875 10.9804 11.8838 10.9804 11.2625V4.13752C10.9804 3.5162 11.5027 3.01252 12.147 3.01252ZM7.82351 5.6373H6.65685C6.01252 5.6373 5.49018 6.14098 5.49018 6.7623V11.2623C5.49018 11.8836 6.01252 12.3873 6.65685 12.3873H7.82351C8.46785 12.3873 8.99018 11.8836 8.99018 11.2623V6.7623C8.99018 6.14098 8.46785 5.6373 7.82351 5.6373ZM2.33332 7.88727H1.16665C0.522319 7.88727 -1.52588e-05 8.39095 -1.52588e-05 9.01227V11.2623C-1.52588e-05 11.8836 0.522319 12.3873 1.16665 12.3873H2.33332C2.97765 12.3873 3.49998 11.8836 3.49998 11.2623V9.01227C3.49998 8.39095 2.97765 7.88727 2.33332 7.88727Z" fill="white"/>
</svg>
