<svg width="20" height="13" viewBox="0 0 20 13" fill="none" xmlns="http://www.w3.org/2000/svg">
<path fill-rule="evenodd" clip-rule="evenodd" d="M18.8039 0.386719H17.6373C16.9929 0.386719 16.4706 0.890398 16.4706 1.51172V11.2617C16.4706 11.883 16.9929 12.3867 17.6373 12.3867H18.8039C19.4482 12.3867 19.9706 11.883 19.9706 11.2617V1.51172C19.9706 0.890398 19.4482 0.386719 18.8039 0.386719ZM12.1471 3.01185H13.3137C13.9581 3.01185 14.4804 3.51553 14.4804 4.13685V11.2619C14.4804 11.8832 13.9581 12.3869 13.3137 12.3869H12.1471C11.5027 12.3869 10.9804 11.8832 10.9804 11.2619V4.13685C10.9804 3.51553 11.5027 3.01185 12.1471 3.01185ZM7.82353 5.63664H6.65686C6.01253 5.63664 5.4902 6.14032 5.4902 6.76164V11.2616C5.4902 11.883 6.01253 12.3866 6.65686 12.3866H7.82353C8.46786 12.3866 8.9902 11.883 8.9902 11.2616V6.76164C8.9902 6.14032 8.46786 5.63664 7.82353 5.63664ZM2.33333 7.8866H1.16667C0.522334 7.8866 0 8.39028 0 9.0116V11.2616C0 11.8829 0.522334 12.3866 1.16667 12.3866H2.33333C2.97767 12.3866 3.5 11.8829 3.5 11.2616V9.0116C3.5 8.39028 2.97767 7.8866 2.33333 7.8866Z" fill="black"/>
</svg>
