<svg width="154" height="138" viewBox="0 0 154 138" fill="none" xmlns="http://www.w3.org/2000/svg">
<path d="M128.282 0.0242977C136.819 8.11978 143.464 18.0003 147.742 28.9604C152.021 39.9206 153.826 51.6901 153.031 63.4287C152.235 75.1673 148.858 86.5855 143.14 96.8681C137.422 107.151 129.504 116.044 119.953 122.914C110.401 129.783 99.45 134.459 87.8823 136.608C76.3147 138.756 64.4153 138.325 53.0337 135.344C41.6521 132.363 31.069 126.906 22.0399 119.362C13.0108 111.819 5.75846 102.375 0.800529 91.7051L22.546 81.6007C26.0166 89.0696 31.0933 95.6803 37.4136 100.961C43.734 106.241 51.1421 110.061 59.1093 112.148C67.0764 114.235 75.4059 114.537 83.5033 113.033C91.6007 111.529 99.2661 108.255 105.952 103.447C112.639 98.6381 118.181 92.4127 122.184 85.2148C126.186 78.017 128.55 70.0242 129.107 61.8072C129.664 53.5902 128.4 45.3516 125.405 37.6795C122.411 30.0074 117.759 23.091 111.783 17.4242L128.282 0.0242977Z" fill="#43B5F4"/>
</svg>
