<svg width="119" height="158" viewBox="0 0 119 158" fill="none" xmlns="http://www.w3.org/2000/svg">
<path d="M118.65 75.8549C118.941 138.512 96.2117 155.736 63.6365 157.382C31.0613 159.028 0.957769 140.707 0.685243 81.8152C0.444623 29.818 23.1241 1.93432 55.6993 0.28844C88.2745 -1.35744 118.43 28.2942 118.65 75.8549Z" fill="url(#paint0_radial_1761_30272)"/>
<path d="M118.65 75.8549C118.941 138.512 96.2117 155.736 63.6365 157.382C31.0613 159.028 0.957769 140.707 0.685243 81.8152C0.444623 29.818 23.1241 1.93432 55.6993 0.28844C88.2745 -1.35744 118.43 28.2942 118.65 75.8549Z" fill="#FF9ABE" fill-opacity="0.13"/>
<path d="M118.65 75.8549C118.941 138.512 96.2117 155.736 63.6365 157.382C31.0613 159.028 0.957769 140.707 0.685243 81.8152C0.444623 29.818 23.1241 1.93432 55.6993 0.28844C88.2745 -1.35744 118.43 28.2942 118.65 75.8549Z" fill="url(#paint1_radial_1761_30272)" fill-opacity="0.37"/>
<path d="M118.65 75.8549C118.941 138.512 96.2117 155.736 63.6365 157.382C31.0613 159.028 0.957769 140.707 0.685243 81.8152C0.444623 29.818 23.1241 1.93432 55.6993 0.28844C88.2745 -1.35744 118.43 28.2942 118.65 75.8549Z" fill="url(#paint2_radial_1761_30272)" fill-opacity="0.31"/>
<defs>
<radialGradient id="paint0_radial_1761_30272" cx="0" cy="0" r="1" gradientUnits="userSpaceOnUse" gradientTransform="translate(72.9041 35.1511) rotate(106.321) scale(143.69 116.102)">
<stop stop-color="#55B3FF"/>
<stop offset="1" stop-color="#0E5B9A"/>
</radialGradient>
<radialGradient id="paint1_radial_1761_30272" cx="0" cy="0" r="1" gradientUnits="userSpaceOnUse" gradientTransform="translate(90.7217 20.0966) rotate(101.16) scale(139.934 109.872)">
<stop stop-color="white"/>
<stop offset="1" stop-color="white" stop-opacity="0"/>
</radialGradient>
<radialGradient id="paint2_radial_1761_30272" cx="0" cy="0" r="1" gradientUnits="userSpaceOnUse" gradientTransform="translate(59.0809 1.00886) rotate(-43.5862) scale(41.6251 48.8119)">
<stop stop-color="#3D5287"/>
<stop offset="1" stop-color="#7A9FFF" stop-opacity="0"/>
</radialGradient>
</defs>
</svg>
