<svg width="213" height="39" viewBox="0 0 213 39" fill="none" xmlns="http://www.w3.org/2000/svg">
<g filter="url(#filter0_d_1464_19248)">
<rect width="205" height="31" rx="15.5" transform="matrix(1 0 0 -1 4 31)" fill="#F2F6FA"/>
<rect width="110" height="27" rx="13.5" transform="matrix(1 0 0 -1 8 29)" fill="#55B3FF"/>
<path d="M42.5568 11.3643V9.81818H50.6804V11.3643H47.5334V20H45.7038V11.3643H42.5568ZM54.3904 20.1491C53.6447 20.1491 52.9984 19.9851 52.4515 19.657C51.9047 19.3288 51.4804 18.8698 51.1788 18.2798C50.8805 17.6899 50.7314 17.0005 50.7314 16.2116C50.7314 15.4228 50.8805 14.7318 51.1788 14.1385C51.4804 13.5452 51.9047 13.0845 52.4515 12.7564C52.9984 12.4283 53.6447 12.2642 54.3904 12.2642C55.1362 12.2642 55.7825 12.4283 56.3294 12.7564C56.8762 13.0845 57.2988 13.5452 57.5971 14.1385C57.8987 14.7318 58.0495 15.4228 58.0495 16.2116C58.0495 17.0005 57.8987 17.6899 57.5971 18.2798C57.2988 18.8698 56.8762 19.3288 56.3294 19.657C55.7825 19.9851 55.1362 20.1491 54.3904 20.1491ZM54.4004 18.7074C54.8047 18.7074 55.1428 18.5964 55.4146 18.3743C55.6864 18.1489 55.8886 17.8473 56.0211 17.4695C56.157 17.0916 56.225 16.6707 56.225 16.2067C56.225 15.7393 56.157 15.3168 56.0211 14.9389C55.8886 14.5578 55.6864 14.2545 55.4146 14.0291C55.1428 13.8037 54.8047 13.6911 54.4004 13.6911C53.9861 13.6911 53.6414 13.8037 53.3663 14.0291C53.0945 14.2545 52.8907 14.5578 52.7548 14.9389C52.6222 15.3168 52.5559 15.7393 52.5559 16.2067C52.5559 16.6707 52.6222 17.0916 52.7548 17.4695C52.8907 17.8473 53.0945 18.1489 53.3663 18.3743C53.6414 18.5964 53.9861 18.7074 54.4004 18.7074ZM62.4109 20.1342C61.811 20.1342 61.274 19.9801 60.8001 19.6719C60.3261 19.3636 59.9516 18.9162 59.6765 18.3295C59.4014 17.7429 59.2638 17.0303 59.2638 16.1918C59.2638 15.3433 59.4031 14.6274 59.6815 14.044C59.9632 13.4574 60.3427 13.0149 60.82 12.7166C61.2972 12.415 61.8292 12.2642 62.4158 12.2642C62.8633 12.2642 63.2312 12.3404 63.5195 12.4929C63.8079 12.642 64.0366 12.8227 64.2056 13.0348C64.3746 13.2436 64.5056 13.4408 64.5984 13.6264H64.6729V9.81818H66.4776V20H64.7077V18.7969H64.5984C64.5056 18.9825 64.3713 19.1797 64.1957 19.3885C64.02 19.594 63.788 19.7696 63.4996 19.9155C63.2113 20.0613 62.8484 20.1342 62.4109 20.1342ZM62.913 18.6577C63.2942 18.6577 63.619 18.5549 63.8874 18.3494C64.1559 18.1406 64.3597 17.8506 64.4989 17.4794C64.6381 17.1082 64.7077 16.6757 64.7077 16.1818C64.7077 15.688 64.6381 15.2588 64.4989 14.8942C64.363 14.5296 64.1609 14.2462 63.8924 14.044C63.6272 13.8419 63.3008 13.7408 62.913 13.7408C62.512 13.7408 62.1772 13.8452 61.9087 14.054C61.6403 14.2628 61.4381 14.5511 61.3022 14.919C61.1663 15.2869 61.0984 15.7079 61.0984 16.1818C61.0984 16.6591 61.1663 17.085 61.3022 17.4595C61.4414 17.8307 61.6452 18.1241 61.9137 18.3395C62.1855 18.5516 62.5186 18.6577 62.913 18.6577ZM71.7264 20.1491C70.9806 20.1491 70.3343 19.9851 69.7875 19.657C69.2406 19.3288 68.8163 18.8698 68.5147 18.2798C68.2164 17.6899 68.0673 17.0005 68.0673 16.2116C68.0673 15.4228 68.2164 14.7318 68.5147 14.1385C68.8163 13.5452 69.2406 13.0845 69.7875 12.7564C70.3343 12.4283 70.9806 12.2642 71.7264 12.2642C72.4721 12.2642 73.1184 12.4283 73.6653 12.7564C74.2122 13.0845 74.6348 13.5452 74.9331 14.1385C75.2347 14.7318 75.3855 15.4228 75.3855 16.2116C75.3855 17.0005 75.2347 17.6899 74.9331 18.2798C74.6348 18.8698 74.2122 19.3288 73.6653 19.657C73.1184 19.9851 72.4721 20.1491 71.7264 20.1491ZM71.7363 18.7074C72.1407 18.7074 72.4788 18.5964 72.7505 18.3743C73.0223 18.1489 73.2245 17.8473 73.3571 17.4695C73.493 17.0916 73.5609 16.6707 73.5609 16.2067C73.5609 15.7393 73.493 15.3168 73.3571 14.9389C73.2245 14.5578 73.0223 14.2545 72.7505 14.0291C72.4788 13.8037 72.1407 13.6911 71.7363 13.6911C71.322 13.6911 70.9773 13.8037 70.7022 14.0291C70.4305 14.2545 70.2266 14.5578 70.0907 14.9389C69.9582 15.3168 69.8919 15.7393 69.8919 16.2067C69.8919 16.6707 69.9582 17.0916 70.0907 17.4695C70.2266 17.8473 70.4305 18.1489 70.7022 18.3743C70.9773 18.5964 71.322 18.7074 71.7363 18.7074Z" fill="#FCFCFC"/>
<path d="M143.233 20V9.81818H146.673C147.472 9.81818 148.125 9.96236 148.632 10.2507C149.143 10.5357 149.52 10.9219 149.766 11.4091C150.011 11.8963 150.134 12.4399 150.134 13.0398C150.134 13.6397 150.011 14.1849 149.766 14.6754C149.524 15.166 149.149 15.5571 148.642 15.8487C148.135 16.1371 147.485 16.2812 146.693 16.2812H144.227V15.1875H146.653C147.2 15.1875 147.639 15.093 147.971 14.9041C148.302 14.7152 148.543 14.46 148.692 14.1385C148.844 13.8137 148.92 13.4474 148.92 13.0398C148.92 12.6321 148.844 12.2675 148.692 11.946C148.543 11.6245 148.301 11.3726 147.966 11.1903C147.631 11.0047 147.187 10.9119 146.634 10.9119H144.466V20H143.233ZM154.208 20.179C153.724 20.179 153.285 20.0878 152.89 19.9055C152.496 19.7199 152.183 19.4531 151.951 19.1051C151.719 18.7538 151.603 18.3295 151.603 17.8324C151.603 17.3949 151.689 17.0402 151.861 16.7685C152.033 16.4934 152.264 16.2779 152.552 16.1222C152.841 15.9664 153.159 15.8504 153.507 15.7741C153.858 15.6946 154.211 15.6316 154.566 15.5852C155.03 15.5256 155.406 15.4808 155.694 15.451C155.986 15.4179 156.198 15.3632 156.331 15.2869C156.467 15.2107 156.534 15.0781 156.534 14.8892V14.8494C156.534 14.3589 156.4 13.9777 156.132 13.706C155.867 13.4342 155.464 13.2983 154.924 13.2983C154.364 13.2983 153.924 13.4209 153.606 13.6662C153.288 13.9115 153.064 14.1733 152.935 14.4517L151.821 14.054C152.02 13.59 152.285 13.2287 152.617 12.9702C152.952 12.7083 153.316 12.526 153.711 12.4233C154.108 12.3172 154.499 12.2642 154.884 12.2642C155.129 12.2642 155.411 12.294 155.729 12.3537C156.051 12.41 156.36 12.5277 156.659 12.7067C156.96 12.8857 157.211 13.1558 157.409 13.517C157.608 13.8783 157.708 14.3622 157.708 14.9688V20H156.534V18.9659H156.475C156.395 19.1316 156.263 19.3089 156.077 19.4979C155.891 19.6868 155.645 19.8475 155.336 19.9801C155.028 20.1127 154.652 20.179 154.208 20.179ZM154.387 19.125C154.851 19.125 155.242 19.0339 155.56 18.8516C155.882 18.6693 156.123 18.4339 156.286 18.1456C156.452 17.8572 156.534 17.554 156.534 17.2358V16.1619C156.485 16.2216 156.375 16.2763 156.206 16.326C156.041 16.3724 155.848 16.4138 155.63 16.4503C155.414 16.4834 155.204 16.5133 154.998 16.5398C154.796 16.563 154.632 16.5829 154.506 16.5994C154.201 16.6392 153.916 16.7038 153.651 16.7933C153.389 16.8795 153.177 17.0104 153.015 17.1861C152.855 17.3584 152.776 17.5937 152.776 17.892C152.776 18.2997 152.927 18.608 153.228 18.8168C153.533 19.0223 153.919 19.125 154.387 19.125ZM162.932 23.0227C162.365 23.0227 161.878 22.9498 161.47 22.804C161.062 22.6615 160.723 22.4725 160.451 22.2372C160.182 22.0052 159.969 21.7566 159.809 21.4915L160.744 20.8352C160.85 20.9744 160.984 21.1335 161.147 21.3125C161.309 21.4948 161.531 21.6522 161.813 21.7848C162.098 21.9207 162.471 21.9886 162.932 21.9886C163.548 21.9886 164.057 21.8395 164.458 21.5412C164.859 21.2429 165.059 20.7756 165.059 20.1392V18.5881H164.96C164.874 18.7273 164.751 18.8996 164.592 19.1051C164.436 19.3073 164.211 19.4879 163.916 19.647C163.624 19.8028 163.23 19.8807 162.733 19.8807C162.116 19.8807 161.563 19.7348 161.072 19.4432C160.585 19.1515 160.199 18.7273 159.914 18.1705C159.632 17.6136 159.491 16.9375 159.491 16.142C159.491 15.3598 159.629 14.6787 159.904 14.0987C160.179 13.5154 160.562 13.0646 161.052 12.7464C161.543 12.425 162.11 12.2642 162.753 12.2642C163.25 12.2642 163.644 12.3471 163.936 12.5128C164.231 12.6752 164.456 12.8608 164.612 13.0696C164.771 13.2751 164.894 13.4441 164.98 13.5767H165.099V12.3636H166.233V20.2188C166.233 20.875 166.084 21.4086 165.785 21.8196C165.49 22.2339 165.093 22.5372 164.592 22.7294C164.095 22.925 163.541 23.0227 162.932 23.0227ZM162.892 18.8267C163.363 18.8267 163.76 18.719 164.085 18.5036C164.41 18.2881 164.657 17.9782 164.826 17.5739C164.995 17.1695 165.079 16.6856 165.079 16.1222C165.079 15.572 164.997 15.0864 164.831 14.6655C164.665 14.2446 164.42 13.9148 164.095 13.6761C163.77 13.4375 163.369 13.3182 162.892 13.3182C162.395 13.3182 161.98 13.4441 161.649 13.696C161.321 13.9479 161.074 14.286 160.908 14.7102C160.746 15.1345 160.665 15.6051 160.665 16.1222C160.665 16.6525 160.747 17.1214 160.913 17.5291C161.082 17.9335 161.331 18.2517 161.659 18.4837C161.99 18.7124 162.401 18.8267 162.892 18.8267ZM171.483 20.1591C170.793 20.1591 170.189 19.995 169.668 19.6669C169.151 19.3388 168.747 18.8797 168.455 18.2898C168.167 17.6998 168.023 17.0104 168.023 16.2216C168.023 15.4261 168.167 14.7318 168.455 14.1385C168.747 13.5452 169.151 13.0845 169.668 12.7564C170.189 12.4283 170.793 12.2642 171.483 12.2642C172.172 12.2642 172.775 12.4283 173.292 12.7564C173.813 13.0845 174.217 13.5452 174.506 14.1385C174.797 14.7318 174.943 15.4261 174.943 16.2216C174.943 17.0104 174.797 17.6998 174.506 18.2898C174.217 18.8797 173.813 19.3388 173.292 19.6669C172.775 19.995 172.172 20.1591 171.483 20.1591ZM171.483 19.1051C172.006 19.1051 172.437 18.9709 172.775 18.7024C173.113 18.4339 173.364 18.081 173.526 17.6435C173.689 17.206 173.77 16.732 173.77 16.2216C173.77 15.7112 173.689 15.2356 173.526 14.7947C173.364 14.3539 173.113 13.9976 172.775 13.7259C172.437 13.4541 172.006 13.3182 171.483 13.3182C170.959 13.3182 170.528 13.4541 170.19 13.7259C169.852 13.9976 169.602 14.3539 169.439 14.7947C169.277 15.2356 169.196 15.7112 169.196 16.2216C169.196 16.732 169.277 17.206 169.439 17.6435C169.602 18.081 169.852 18.4339 170.19 18.7024C170.528 18.9709 170.959 19.1051 171.483 19.1051ZM182.143 14.0739L181.089 14.3722C181.023 14.1965 180.925 14.0258 180.796 13.8601C180.67 13.6911 180.498 13.5518 180.279 13.4425C180.06 13.3331 179.78 13.2784 179.439 13.2784C178.971 13.2784 178.582 13.3861 178.27 13.6016C177.962 13.8137 177.808 14.0838 177.808 14.4119C177.808 14.7036 177.914 14.9339 178.126 15.103C178.338 15.272 178.67 15.4129 179.12 15.5256L180.254 15.804C180.937 15.9697 181.445 16.2232 181.78 16.5646C182.115 16.9027 182.282 17.3385 182.282 17.8722C182.282 18.3097 182.156 18.7008 181.904 19.0455C181.656 19.3902 181.308 19.6619 180.86 19.8608C180.413 20.0597 179.893 20.1591 179.299 20.1591C178.52 20.1591 177.876 19.9901 177.365 19.652C176.855 19.3139 176.532 18.8201 176.396 18.1705L177.51 17.892C177.616 18.303 177.816 18.6113 178.111 18.8168C178.409 19.0223 178.799 19.125 179.279 19.125C179.826 19.125 180.261 19.009 180.582 18.777C180.907 18.5417 181.069 18.2599 181.069 17.9318C181.069 17.6667 180.976 17.4446 180.791 17.2656C180.605 17.0833 180.32 16.9474 179.936 16.858L178.663 16.5597C177.964 16.3939 177.45 16.1371 177.122 15.7891C176.797 15.4377 176.635 14.9986 176.635 14.4716C176.635 14.0407 176.756 13.6596 176.998 13.3281C177.243 12.9967 177.576 12.7365 177.997 12.5476C178.421 12.3587 178.902 12.2642 179.439 12.2642C180.194 12.2642 180.788 12.4299 181.218 12.7614C181.653 13.0928 181.961 13.5303 182.143 14.0739Z" fill="#14142A"/>
</g>
<defs>
<filter id="filter0_d_1464_19248" x="0" y="0" width="213" height="39" filterUnits="userSpaceOnUse" color-interpolation-filters="sRGB">
<feFlood flood-opacity="0" result="BackgroundImageFix"/>
<feColorMatrix in="SourceAlpha" type="matrix" values="0 0 0 0 0 0 0 0 0 0 0 0 0 0 0 0 0 0 127 0" result="hardAlpha"/>
<feOffset dy="4"/>
<feGaussianBlur stdDeviation="2"/>
<feComposite in2="hardAlpha" operator="out"/>
<feColorMatrix type="matrix" values="0 0 0 0 0 0 0 0 0 0 0 0 0 0 0 0 0 0 0.25 0"/>
<feBlend mode="normal" in2="BackgroundImageFix" result="effect1_dropShadow_1464_19248"/>
<feBlend mode="normal" in="SourceGraphic" in2="effect1_dropShadow_1464_19248" result="shape"/>
</filter>
</defs>
</svg>
