<svg width="49" height="56" viewBox="0 0 49 56" fill="none" xmlns="http://www.w3.org/2000/svg">
<path d="M29.9725 0.320312H5.206C2.3351 0.320312 0 2.61806 0 5.44292V8.67239V47.6488V50.8782C0 53.7031 2.3351 56.0009 5.206 56.0009H29.9725C32.8425 56.0009 35.1785 53.7031 35.1785 50.8782V47.6488V8.67239V5.44292C35.1785 2.61806 32.8434 0.320313 29.9725 0.320313V0.320312ZM1.9 9.6004H33.2785V46.7208H1.9V9.6004ZM1.9 5.44292C1.9 3.64166 3.38295 2.17633 5.206 2.17633H29.9725C31.7956 2.17633 33.2785 3.64166 33.2785 5.44292V7.74438H1.9V5.44292ZM33.2785 50.8782C33.2785 52.6786 31.7956 54.1448 29.9725 54.1448H5.206C3.38295 54.1448 1.9 52.6795 1.9 50.8782V48.5768H33.2785V50.8782Z" fill="#55B3FF"/>
<path d="M14.1455 3.96875H20.6825V5.82477H14.1455V3.96875Z" fill="#55B3FF"/>
<path d="M30.1158 34.1376L22.2565 31.7183C21.962 31.6292 21.6418 31.6831 21.3957 31.8649C20.725 32.3624 20.1788 32.9795 19.7807 33.6829C16.7274 31.8223 14.4702 28.8443 13.5411 25.4487C14.3059 25.2891 15.0345 24.9828 15.69 24.5411C15.9494 24.3666 16.1033 24.0771 16.1004 23.769L16.0225 15.6035C16.0197 15.2944 15.8591 15.0067 15.595 14.8369C15.1352 14.5409 14.645 14.3107 14.1491 14.1558C13.8413 14.0555 13.5136 13.9794 13.1716 13.9284C9.90549 13.4495 6.84839 15.6638 6.35724 18.8571V18.858C4.64154 30.1129 12.6177 40.6374 24.1403 42.3199C24.4367 42.3626 24.7322 42.383 25.0229 42.383C27.9432 42.383 30.5101 40.2922 30.9537 37.3912C31.005 37.0572 31.0259 36.7268 31.0164 36.4187C31.005 35.8359 30.91 35.2707 30.7324 34.7371C30.6393 34.4513 30.4084 34.2286 30.1158 34.1376V34.1376ZM29.0746 37.1175C28.7421 39.2964 26.655 40.8174 24.4206 40.4834C13.9354 38.9531 6.67549 29.3742 8.23729 19.1317C8.57359 16.95 10.6598 15.4457 12.8904 15.764C13.1222 15.7983 13.3435 15.8503 13.5592 15.9199C13.752 15.9802 13.942 16.0563 14.1282 16.1482L14.1957 23.2605C13.6304 23.5518 13.0063 23.7096 12.365 23.7198C12.0848 23.7245 11.8207 23.8497 11.644 24.0613C11.4673 24.2738 11.3951 24.5513 11.4473 24.8204C12.3546 29.4967 15.4725 33.6105 19.7864 35.8238C20.0353 35.951 20.3279 35.9649 20.5882 35.86C20.8476 35.757 21.0471 35.5454 21.1326 35.2837C21.3368 34.6573 21.6969 34.0977 22.1843 33.6421L29.0423 35.7524C29.087 35.9797 29.1126 36.2164 29.1174 36.4614C29.124 36.6711 29.1098 36.891 29.0746 37.1175Z" fill="#55B3FF"/>
<path d="M38.7539 21.9181C40.5988 23.7945 41.5099 26.354 41.2524 28.9385C41.0795 30.6711 40.406 32.2886 39.3049 33.6147L40.7803 34.784C42.1179 33.1748 42.9349 31.2149 43.1439 29.1185C43.4555 25.9948 42.3544 22.9018 40.1248 20.6328L38.7539 21.9181Z" fill="#55B3FF"/>
<path d="M43.9675 17.0273L42.5957 18.3108C45.5179 21.2915 46.96 25.3488 46.5525 29.4413C46.2808 32.1668 45.2158 34.7318 43.4726 36.8607L44.9565 38.0207C46.9315 35.6088 48.1371 32.7041 48.4439 29.6204C48.9037 24.9887 47.2726 20.3988 43.9675 17.0273Z" fill="#55B3FF"/>
</svg>
