<svg width="132" height="162" viewBox="0 0 132 162" fill="none" xmlns="http://www.w3.org/2000/svg">
<g filter="url(#filter0_d_1563_24304)">
<rect x="4" width="124" height="154" rx="13" fill="#FFED8C"/>
<rect x="4" y="100.1" width="124" height="53.8999" rx="13" fill="#FFF5BC"/>
<rect x="4" y="100.1" width="124" height="17.9666" fill="#FFF5BC"/>
<path d="M21.0568 142.273V129.545H21.8722V142.273H21.0568ZM23.8011 133.364C23.7415 132.86 23.4995 132.469 23.0753 132.19C22.651 131.912 22.1307 131.773 21.5142 131.773C21.0634 131.773 20.669 131.846 20.331 131.991C19.9962 132.137 19.7344 132.338 19.5455 132.593C19.3598 132.848 19.267 133.138 19.267 133.463C19.267 133.735 19.3317 133.969 19.4609 134.164C19.5935 134.356 19.7625 134.517 19.968 134.646C20.1735 134.772 20.389 134.877 20.6143 134.96C20.8397 135.039 21.0469 135.104 21.2358 135.153L22.2699 135.432C22.535 135.501 22.83 135.598 23.1548 135.72C23.483 135.843 23.7962 136.01 24.0945 136.222C24.3961 136.431 24.6446 136.7 24.8402 137.028C25.0357 137.356 25.1335 137.759 25.1335 138.236C25.1335 138.786 24.9893 139.283 24.701 139.727C24.416 140.171 23.9983 140.524 23.4482 140.786C22.9013 141.048 22.2367 141.179 21.4545 141.179C20.7254 141.179 20.094 141.061 19.5604 140.826C19.0301 140.591 18.6125 140.263 18.3075 139.842C18.0059 139.421 17.8352 138.932 17.7955 138.375H19.0682C19.1013 138.759 19.2306 139.078 19.456 139.33C19.6847 139.578 19.973 139.764 20.321 139.886C20.6723 140.006 21.0502 140.065 21.4545 140.065C21.9252 140.065 22.3478 139.989 22.7223 139.837C23.0968 139.681 23.3935 139.465 23.6122 139.19C23.831 138.912 23.9403 138.587 23.9403 138.216C23.9403 137.878 23.8459 137.603 23.657 137.391C23.468 137.179 23.2195 137.006 22.9112 136.874C22.603 136.741 22.2699 136.625 21.9119 136.526L20.6591 136.168C19.8636 135.939 19.2339 135.612 18.7699 135.188C18.3059 134.764 18.0739 134.209 18.0739 133.523C18.0739 132.953 18.228 132.455 18.5362 132.031C18.8478 131.604 19.2654 131.272 19.7891 131.037C20.3161 130.798 20.9044 130.679 21.554 130.679C22.2102 130.679 22.7936 130.797 23.304 131.032C23.8144 131.264 24.2188 131.582 24.517 131.987C24.8187 132.391 24.9777 132.85 24.9943 133.364H23.8011ZM26.9817 141V140.105L30.3425 136.426C30.7369 135.995 31.0617 135.621 31.3169 135.303C31.5721 134.981 31.7611 134.679 31.8837 134.398C32.0096 134.113 32.0726 133.814 32.0726 133.503C32.0726 133.145 31.9864 132.835 31.8141 132.573C31.6451 132.311 31.4131 132.109 31.1181 131.967C30.8231 131.824 30.4917 131.753 30.1238 131.753C29.7327 131.753 29.3913 131.834 29.0996 131.996C28.8113 132.156 28.5875 132.379 28.4284 132.668C28.2727 132.956 28.1948 133.294 28.1948 133.682H27.0215C27.0215 133.085 27.159 132.562 27.4341 132.111C27.7092 131.66 28.0837 131.309 28.5577 131.057C29.035 130.805 29.5703 130.679 30.1635 130.679C30.7601 130.679 31.2888 130.805 31.7495 131.057C32.2102 131.309 32.5714 131.648 32.8333 132.076C33.0951 132.504 33.226 132.979 33.226 133.503C33.226 133.877 33.1581 134.244 33.0222 134.602C32.8896 134.956 32.6576 135.352 32.3262 135.79C31.998 136.224 31.5423 136.754 30.959 137.381L28.6721 139.827V139.906H33.405V141H26.9817ZM36.3333 141.08C36.088 141.08 35.8775 140.992 35.7019 140.816C35.5262 140.64 35.4384 140.43 35.4384 140.185C35.4384 139.939 35.5262 139.729 35.7019 139.553C35.8775 139.378 36.088 139.29 36.3333 139.29C36.5785 139.29 36.789 139.378 36.9647 139.553C37.1403 139.729 37.2282 139.939 37.2282 140.185C37.2282 140.347 37.1867 140.496 37.1039 140.632C37.0243 140.768 36.9166 140.877 36.7807 140.96C36.6481 141.04 36.499 141.08 36.3333 141.08ZM42.2793 141.139C41.5302 141.139 40.8922 140.935 40.3652 140.528C39.8382 140.117 39.4355 139.522 39.1571 138.743C38.8787 137.961 38.7395 137.016 38.7395 135.909C38.7395 134.809 38.8787 133.869 39.1571 133.09C39.4389 132.308 39.8432 131.711 40.3702 131.3C40.9005 130.886 41.5369 130.679 42.2793 130.679C43.0217 130.679 43.6564 130.886 44.1834 131.3C44.7137 131.711 45.1181 132.308 45.3965 133.09C45.6782 133.869 45.8191 134.809 45.8191 135.909C45.8191 137.016 45.6799 137.961 45.4015 138.743C45.123 139.522 44.7203 140.117 44.1934 140.528C43.6664 140.935 43.0283 141.139 42.2793 141.139ZM42.2793 140.045C43.0217 140.045 43.5984 139.687 44.0094 138.972C44.4204 138.256 44.6259 137.235 44.6259 135.909C44.6259 135.027 44.5314 134.277 44.3425 133.657C44.1569 133.037 43.8884 132.565 43.5371 132.24C43.1891 131.915 42.7698 131.753 42.2793 131.753C41.5435 131.753 40.9685 132.116 40.5542 132.842C40.1399 133.564 39.9327 134.587 39.9327 135.909C39.9327 136.791 40.0255 137.54 40.2111 138.156C40.3967 138.773 40.6635 139.242 41.0115 139.563C41.3629 139.885 41.7855 140.045 42.2793 140.045ZM51.0293 141.139C50.2802 141.139 49.6422 140.935 49.1152 140.528C48.5882 140.117 48.1855 139.522 47.9071 138.743C47.6287 137.961 47.4895 137.016 47.4895 135.909C47.4895 134.809 47.6287 133.869 47.9071 133.09C48.1889 132.308 48.5932 131.711 49.1202 131.3C49.6505 130.886 50.2869 130.679 51.0293 130.679C51.7717 130.679 52.4064 130.886 52.9334 131.3C53.4637 131.711 53.8681 132.308 54.1465 133.09C54.4282 133.869 54.5691 134.809 54.5691 135.909C54.5691 137.016 54.4299 137.961 54.1515 138.743C53.873 139.522 53.4703 140.117 52.9434 140.528C52.4164 140.935 51.7783 141.139 51.0293 141.139ZM51.0293 140.045C51.7717 140.045 52.3484 139.687 52.7594 138.972C53.1704 138.256 53.3759 137.235 53.3759 135.909C53.3759 135.027 53.2814 134.277 53.0925 133.657C52.9069 133.037 52.6384 132.565 52.2871 132.24C51.9391 131.915 51.5198 131.753 51.0293 131.753C50.2935 131.753 49.7185 132.116 49.3042 132.842C48.8899 133.564 48.6827 134.587 48.6827 135.909C48.6827 136.791 48.7755 137.54 48.9611 138.156C49.1467 138.773 49.4135 139.242 49.7615 139.563C50.1129 139.885 50.5355 140.045 51.0293 140.045ZM59.7793 141.139C59.0302 141.139 58.3922 140.935 57.8652 140.528C57.3382 140.117 56.9355 139.522 56.6571 138.743C56.3787 137.961 56.2395 137.016 56.2395 135.909C56.2395 134.809 56.3787 133.869 56.6571 133.09C56.9389 132.308 57.3432 131.711 57.8702 131.3C58.4005 130.886 59.0369 130.679 59.7793 130.679C60.5217 130.679 61.1564 130.886 61.6834 131.3C62.2137 131.711 62.6181 132.308 62.8965 133.09C63.1782 133.869 63.3191 134.809 63.3191 135.909C63.3191 137.016 63.1799 137.961 62.9015 138.743C62.623 139.522 62.2203 140.117 61.6934 140.528C61.1664 140.935 60.5283 141.139 59.7793 141.139ZM59.7793 140.045C60.5217 140.045 61.0984 139.687 61.5094 138.972C61.9204 138.256 62.1259 137.235 62.1259 135.909C62.1259 135.027 62.0314 134.277 61.8425 133.657C61.6569 133.037 61.3884 132.565 61.0371 132.24C60.6891 131.915 60.2698 131.753 59.7793 131.753C59.0435 131.753 58.4685 132.116 58.0542 132.842C57.6399 133.564 57.4327 134.587 57.4327 135.909C57.4327 136.791 57.5255 137.54 57.7111 138.156C57.8967 138.773 58.1635 139.242 58.5115 139.563C58.8629 139.885 59.2855 140.045 59.7793 140.045Z" fill="#14142A"/>
<path d="M17.8849 121V110.818H21.902C22.6709 110.818 23.3272 110.956 23.8707 111.231C24.4176 111.503 24.8336 111.889 25.1186 112.389C25.407 112.886 25.5511 113.471 25.5511 114.144C25.5511 114.82 25.4053 115.402 25.1136 115.889C24.822 116.373 24.3994 116.744 23.8459 117.003C23.2957 117.261 22.6295 117.391 21.8473 117.391H19.1577V115.661H21.4993C21.9103 115.661 22.2517 115.604 22.5234 115.491C22.7952 115.379 22.9974 115.21 23.13 114.984C23.2659 114.759 23.3338 114.479 23.3338 114.144C23.3338 113.806 23.2659 113.521 23.13 113.289C22.9974 113.057 22.7936 112.881 22.5185 112.762C22.2467 112.639 21.9036 112.578 21.4893 112.578H20.0376V121H17.8849ZM23.3835 116.366L25.9141 121H23.5376L21.0618 116.366H23.3835ZM30.3897 121.149C29.6042 121.149 28.9281 120.99 28.3613 120.672C27.7979 120.35 27.3637 119.896 27.0588 119.31C26.7538 118.72 26.6014 118.022 26.6014 117.217C26.6014 116.431 26.7538 115.742 27.0588 115.148C27.3637 114.555 27.7929 114.093 28.3464 113.761C28.9032 113.43 29.5562 113.264 30.3052 113.264C30.809 113.264 31.278 113.345 31.7122 113.508C32.1497 113.667 32.5308 113.907 32.8556 114.229C33.1838 114.55 33.439 114.955 33.6213 115.442C33.8036 115.926 33.8947 116.492 33.8947 117.142V117.724H27.4466V116.411H31.9011C31.9011 116.106 31.8348 115.836 31.7022 115.601C31.5697 115.366 31.3857 115.182 31.1504 115.049C30.9184 114.913 30.6483 114.845 30.34 114.845C30.0185 114.845 29.7335 114.92 29.4849 115.069C29.2396 115.215 29.0474 115.412 28.9082 115.661C28.769 115.906 28.6977 116.179 28.6944 116.481V117.729C28.6944 118.107 28.764 118.433 28.9032 118.708C29.0458 118.983 29.2463 119.195 29.5048 119.344C29.7633 119.494 30.0699 119.568 30.4245 119.568C30.6599 119.568 30.8753 119.535 31.0708 119.469C31.2664 119.402 31.4338 119.303 31.573 119.17C31.7122 119.038 31.8182 118.875 31.8912 118.683L33.85 118.812C33.7505 119.283 33.5467 119.694 33.2385 120.045C32.9335 120.393 32.5391 120.665 32.0552 120.861C31.5746 121.053 31.0195 121.149 30.3897 121.149ZM38.7172 124.023C38.0311 124.023 37.4428 123.928 36.9522 123.739C36.465 123.554 36.0772 123.3 35.7889 122.979C35.5005 122.657 35.3133 122.296 35.2271 121.895L37.1859 121.631C37.2456 121.784 37.34 121.926 37.4693 122.059C37.5985 122.192 37.7692 122.298 37.9814 122.377C38.1968 122.46 38.4586 122.501 38.7669 122.501C39.2276 122.501 39.6071 122.389 39.9054 122.163C40.207 121.941 40.3578 121.568 40.3578 121.045V119.648H40.2683C40.1755 119.86 40.0363 120.06 39.8507 120.249C39.6651 120.438 39.4264 120.592 39.1348 120.712C38.8431 120.831 38.4951 120.891 38.0907 120.891C37.5173 120.891 36.9953 120.758 36.5247 120.493C36.0574 120.224 35.6845 119.815 35.4061 119.265C35.131 118.711 34.9934 118.012 34.9934 117.167C34.9934 116.302 35.1343 115.579 35.416 114.999C35.6977 114.419 36.0723 113.985 36.5396 113.697C37.0102 113.408 37.5256 113.264 38.0858 113.264C38.5133 113.264 38.8713 113.337 39.1596 113.483C39.448 113.625 39.68 113.804 39.8556 114.02C40.0346 114.232 40.1722 114.441 40.2683 114.646H40.3478V113.364H42.4508V121.075C42.4508 121.724 42.2917 122.268 41.9735 122.705C41.6554 123.143 41.2145 123.471 40.6511 123.69C40.091 123.912 39.4463 124.023 38.7172 124.023ZM38.7619 119.3C39.1033 119.3 39.3916 119.215 39.627 119.046C39.8656 118.874 40.0479 118.629 40.1738 118.31C40.3031 117.989 40.3677 117.604 40.3677 117.157C40.3677 116.71 40.3047 116.322 40.1788 115.994C40.0529 115.662 39.8706 115.405 39.6319 115.223C39.3933 115.041 39.1033 114.95 38.7619 114.95C38.4139 114.95 38.1206 115.044 37.8819 115.233C37.6433 115.419 37.4627 115.677 37.34 116.009C37.2174 116.34 37.1561 116.723 37.1561 117.157C37.1561 117.598 37.2174 117.979 37.34 118.3C37.466 118.619 37.6466 118.866 37.8819 119.041C38.1206 119.214 38.4139 119.3 38.7619 119.3ZM46.3137 121.144C45.8265 121.144 45.3923 121.06 45.0112 120.891C44.63 120.718 44.3284 120.465 44.1064 120.13C43.8876 119.792 43.7782 119.371 43.7782 118.867C43.7782 118.443 43.8561 118.087 44.0119 117.798C44.1677 117.51 44.3798 117.278 44.6483 117.102C44.9167 116.927 45.2217 116.794 45.563 116.705C45.9077 116.615 46.269 116.552 46.6468 116.516C47.091 116.469 47.4489 116.426 47.7207 116.386C47.9925 116.343 48.1897 116.28 48.3123 116.197C48.435 116.115 48.4963 115.992 48.4963 115.83V115.8C48.4963 115.485 48.3968 115.241 48.198 115.069C48.0024 114.897 47.724 114.81 47.3627 114.81C46.9816 114.81 46.6783 114.895 46.4529 115.064C46.2276 115.23 46.0784 115.438 46.0055 115.69L44.0467 115.531C44.1461 115.067 44.3417 114.666 44.6333 114.328C44.925 113.987 45.3012 113.725 45.7619 113.543C46.2259 113.357 46.7628 113.264 47.3727 113.264C47.7969 113.264 48.2029 113.314 48.5907 113.413C48.9818 113.513 49.3282 113.667 49.6298 113.876C49.9347 114.085 50.175 114.353 50.3507 114.681C50.5263 115.006 50.6142 115.395 50.6142 115.849V121H48.6056V119.941H48.546C48.4234 120.18 48.2593 120.39 48.0538 120.572C47.8483 120.751 47.6014 120.892 47.313 120.995C47.0247 121.094 46.6916 121.144 46.3137 121.144ZM46.9203 119.683C47.2318 119.683 47.5069 119.621 47.7456 119.499C47.9842 119.373 48.1715 119.204 48.3074 118.991C48.4432 118.779 48.5112 118.539 48.5112 118.271V117.46C48.4449 117.503 48.3538 117.543 48.2377 117.58C48.1251 117.613 47.9975 117.644 47.8549 117.674C47.7124 117.701 47.5699 117.725 47.4274 117.749C47.2849 117.768 47.1556 117.787 47.0396 117.803C46.791 117.84 46.5739 117.898 46.3883 117.977C46.2027 118.057 46.0585 118.165 45.9558 118.3C45.853 118.433 45.8017 118.599 45.8017 118.798C45.8017 119.086 45.9061 119.306 46.1149 119.459C46.327 119.608 46.5955 119.683 46.9203 119.683ZM54.3752 110.818V121H52.2573V110.818H54.3752ZM59.522 121.149C58.7498 121.149 58.0819 120.985 57.5185 120.657C56.9583 120.326 56.5258 119.865 56.2209 119.275C55.916 118.682 55.7635 117.994 55.7635 117.212C55.7635 116.423 55.916 115.733 56.2209 115.143C56.5258 114.55 56.9583 114.089 57.5185 113.761C58.0819 113.43 58.7498 113.264 59.522 113.264C60.2943 113.264 60.9605 113.43 61.5206 113.761C62.084 114.089 62.5182 114.55 62.8232 115.143C63.1281 115.733 63.2805 116.423 63.2805 117.212C63.2805 117.994 63.1281 118.682 62.8232 119.275C62.5182 119.865 62.084 120.326 61.5206 120.657C60.9605 120.985 60.2943 121.149 59.522 121.149ZM59.532 119.509C59.8833 119.509 60.1766 119.409 60.4119 119.21C60.6473 119.008 60.8246 118.733 60.9439 118.385C61.0665 118.037 61.1278 117.641 61.1278 117.197C61.1278 116.753 61.0665 116.357 60.9439 116.009C60.8246 115.661 60.6473 115.385 60.4119 115.183C60.1766 114.981 59.8833 114.88 59.532 114.88C59.1773 114.88 58.879 114.981 58.6371 115.183C58.3984 115.385 58.2178 115.661 58.0952 116.009C57.9759 116.357 57.9162 116.753 57.9162 117.197C57.9162 117.641 57.9759 118.037 58.0952 118.385C58.2178 118.733 58.3984 119.008 58.6371 119.21C58.879 119.409 59.1773 119.509 59.532 119.509ZM72.3077 110.818V121H70.155V112.862H70.0953L67.7637 114.323V112.414L70.2843 110.818H72.3077Z" fill="#14142A"/>
</g>
<defs>
<filter id="filter0_d_1563_24304" x="0" y="0" width="132" height="162" filterUnits="userSpaceOnUse" color-interpolation-filters="sRGB">
<feFlood flood-opacity="0" result="BackgroundImageFix"/>
<feColorMatrix in="SourceAlpha" type="matrix" values="0 0 0 0 0 0 0 0 0 0 0 0 0 0 0 0 0 0 127 0" result="hardAlpha"/>
<feOffset dy="4"/>
<feGaussianBlur stdDeviation="2"/>
<feComposite in2="hardAlpha" operator="out"/>
<feColorMatrix type="matrix" values="0 0 0 0 0 0 0 0 0 0 0 0 0 0 0 0 0 0 0.25 0"/>
<feBlend mode="normal" in2="BackgroundImageFix" result="effect1_dropShadow_1563_24304"/>
<feBlend mode="normal" in="SourceGraphic" in2="effect1_dropShadow_1563_24304" result="shape"/>
</filter>
</defs>
</svg>
