<svg width="9" height="9" viewBox="0 0 9 9" fill="none" xmlns="http://www.w3.org/2000/svg">
<path d="M2.8855 7.85942C2.31065 7.28207 1.71805 6.68917 1.12988 6.10072C2.61028 4.61958 4.09734 3.13179 5.57997 1.64844C6.16591 2.23467 6.7563 2.82535 7.3378 3.40714C5.8574 4.88827 4.36812 6.37607 2.8855 7.85942Z" fill="white"/>
<path d="M7.24212 0C7.82584 0.584014 8.41623 1.17469 8.99996 1.75871C8.55606 2.20282 8.10328 2.6536 7.6616 3.0955C7.08231 2.5137 6.49193 1.92081 5.9082 1.33457C6.341 0.901558 6.79378 0.448559 7.24212 0Z" fill="white"/>
<path d="M2.63676 8.1267C1.77781 8.41093 0.901114 8.70183 0 8.99939C0.297412 8.10227 0.588165 7.22514 0.87448 6.36133C1.46043 6.94978 2.04859 7.53824 2.63676 8.1267Z" fill="white"/>
</svg>
