<svg width="49" height="56" viewBox="0 0 49 56" fill="none" xmlns="http://www.w3.org/2000/svg">
<path d="M29.9725 0H5.206C2.3351 0 0 2.29775 0 5.12261V8.35208V47.3285V50.5579C0 53.3828 2.3351 55.6805 5.206 55.6805H29.9725C32.8425 55.6805 35.1785 53.3828 35.1785 50.5579V47.3285V8.35208V5.12261C35.1785 2.29775 32.8434 0 29.9725 0V0ZM1.9 9.28009H33.2785V46.4005H1.9V9.28009ZM1.9 5.12261C1.9 3.32134 3.38295 1.85602 5.206 1.85602H29.9725C31.7956 1.85602 33.2785 3.32134 33.2785 5.12261V7.42407H1.9V5.12261ZM33.2785 50.5579C33.2785 52.3583 31.7956 53.8245 29.9725 53.8245H5.206C3.38295 53.8245 1.9 52.3592 1.9 50.5579V48.2565H33.2785V50.5579Z" fill="#55B3FF"/>
<path d="M14.1455 3.64844H20.6825V5.50446H14.1455V3.64844Z" fill="#55B3FF"/>
<path d="M30.1158 33.8173L22.2565 31.398C21.962 31.3089 21.6418 31.3627 21.3958 31.5446C20.725 32.042 20.1788 32.6592 19.7807 33.3626C16.7274 31.5019 14.4702 28.524 13.5411 25.1284C14.3059 24.9688 15.0345 24.6625 15.69 24.2208C15.9494 24.0463 16.1033 23.7568 16.1004 23.4487L16.0225 15.2831C16.0197 14.9741 15.8591 14.6864 15.595 14.5166C15.1352 14.2206 14.645 13.9904 14.1491 13.8354C13.8413 13.7352 13.5136 13.6591 13.1716 13.6081C9.90549 13.1292 6.84839 15.3435 6.35724 18.5367V18.5377C4.64154 29.7926 12.6177 40.3171 24.1403 41.9996C24.4367 42.0423 24.7322 42.0627 25.0229 42.0627C27.9432 42.0627 30.5101 39.9719 30.9537 37.0709C31.005 36.7368 31.0259 36.4065 31.0164 36.0984C31.005 35.5156 30.91 34.9504 30.7324 34.4168C30.6393 34.131 30.4084 33.9083 30.1158 33.8173ZM29.0746 36.7972C28.7421 38.9761 26.655 40.4971 24.4206 40.163C13.9354 38.6328 6.67549 29.0539 8.23729 18.8114C8.57359 16.6297 10.6598 15.1254 12.8904 15.4437C13.1222 15.478 13.3435 15.53 13.5592 15.5996C13.752 15.6599 13.942 15.736 14.1282 15.8279L14.1957 22.9401C13.6304 23.2315 13.0063 23.3893 12.365 23.3995C12.0848 23.4041 11.8207 23.5294 11.644 23.741C11.4673 23.9535 11.3951 24.231 11.4473 24.5001C12.3546 29.1764 15.4725 33.2902 19.7864 35.5035C20.0353 35.6307 20.3279 35.6446 20.5882 35.5397C20.8476 35.4367 21.0471 35.2251 21.1326 34.9634C21.3368 34.337 21.6969 33.7774 22.1842 33.3218L29.0423 35.4321C29.087 35.6594 29.1126 35.8961 29.1174 36.1411C29.124 36.3508 29.1098 36.5707 29.0746 36.7972Z" fill="#55B3FF"/>
<path d="M38.7539 21.5978C40.5988 23.4742 41.5099 26.0337 41.2524 28.6182C41.0795 30.3508 40.406 31.9683 39.3049 33.2944L40.7803 34.4637C42.1179 32.8545 42.9349 30.8946 43.1439 28.7982C43.4555 25.6745 42.3544 22.5815 40.1248 20.3125L38.7539 21.5978Z" fill="#55B3FF"/>
<path d="M43.9675 16.707L42.5957 17.9905C45.5179 20.9712 46.96 25.0285 46.5525 29.121C46.2808 31.8465 45.2158 34.4115 43.4726 36.5404L44.9565 37.7004C46.9315 35.2885 48.1371 32.3838 48.4439 29.3001C48.9037 24.6684 47.2726 20.0785 43.9675 16.707Z" fill="#55B3FF"/>
</svg>
