<svg width="71" height="66" viewBox="0 0 71 66" fill="none" xmlns="http://www.w3.org/2000/svg">
<path d="M53.9222 9.7724C53.9528 9.77457 53.9835 9.77675 54.0146 9.77675C54.0675 9.77675 54.1204 9.7724 54.1722 9.76533C55.5578 9.79306 56.6668 10.897 56.6685 12.2506C56.6685 12.8657 57.179 13.3644 57.8086 13.3644C58.4383 13.3644 58.9488 12.8657 58.9488 12.2506C58.946 10.0367 57.3683 8.12134 55.1548 7.64495V6.5747C55.1548 5.95963 54.6443 5.46094 54.0146 5.46094C53.385 5.46094 52.8745 5.95963 52.8745 6.5747V7.69552C50.5341 8.30679 49.0198 10.5185 49.3355 12.8651C49.6511 15.2118 51.6987 16.9661 54.1215 16.9661C55.5283 16.9661 56.6685 18.0804 56.6685 19.4547C56.6685 20.8284 55.5283 21.9427 54.1215 21.9427C52.7147 21.9427 51.5746 20.8284 51.5746 19.4547C51.5746 18.8396 51.064 18.3409 50.4344 18.3409C49.8048 18.3409 49.2943 18.8396 49.2943 19.4547C49.297 21.5887 50.7645 23.4556 52.8745 24.0098V25.2301C52.8745 25.8452 53.385 26.3439 54.0146 26.3439C54.6443 26.3439 55.1548 25.8452 55.1548 25.2301V24.0609C57.5626 23.5459 59.1865 21.3412 58.921 18.9473C58.656 16.5534 56.5867 14.7392 54.1215 14.7397C52.7537 14.7403 51.6297 13.6852 51.5757 12.3501C51.5222 11.015 52.5583 9.87681 53.9222 9.77294V9.7724Z" fill="#55B3FF"/>
<path d="M54.1867 0.015625C47.1726 0.015625 41.1869 4.48643 38.9444 10.4729H10.6461C10.0192 10.4729 9.51035 11.0249 9.5059 11.6367L9.23645 50.7074H1.17021C0.54057 50.7074 0 51.1528 0 51.7689V56.727C0.0144745 61.3947 3.77786 65.2292 8.55114 65.4402V65.4647H43.7533V65.4321C44.0383 65.4424 44.1558 65.4647 44.3362 65.4647H44.3607C49.301 65.4571 53.3021 61.5426 53.3021 56.7167V31.6484C53.5871 31.6637 53.8889 31.6718 54.1839 31.6718C63.1097 31.6718 70.3732 24.5629 70.3732 15.8432C70.3732 7.12399 63.1131 0.015625 54.1867 0.015625V0.015625ZM8.98482 63.2372H8.97758C5.28934 63.2323 2.297 60.319 2.2803 56.7156V52.9349H35.3447V56.6998C35.3464 59.0241 36.2967 61.2522 37.9846 62.8908C38.1043 63.0077 38.253 63.098 38.3782 63.2372H8.98482ZM51.0218 56.7156C51.0223 60.3125 48.0411 63.2301 44.3596 63.2372H44.3379C40.6413 63.2306 37.6434 60.3114 37.625 56.7009V51.7689C37.6345 51.484 37.5231 51.2083 37.3166 51.007C37.11 50.8058 36.8278 50.6976 36.5366 50.7074H11.5168L11.7784 12.7004H38.3114C38.1093 13.7201 38.0047 14.7555 37.9991 15.7937C37.9969 17.9891 38.4656 20.1601 39.3753 22.1673H28.6062C27.976 22.1673 27.4661 22.666 27.4661 23.2811C27.4661 23.8962 27.976 24.3949 28.6062 24.3949H40.6123C42.9644 28.008 46.7245 30.5271 51.0218 31.37V56.7156ZM54.1867 29.4448C46.5063 29.4448 40.2794 23.3627 40.28 15.8595C40.28 8.3563 46.5063 2.27414 54.1873 2.27414C61.8677 2.27414 68.094 8.35685 68.094 15.8595C68.0856 23.3589 61.8643 29.4367 54.1867 29.4448Z" fill="#55B3FF"/>
<path d="M21.2879 29.5781C19.2754 29.5781 17.6387 31.1264 17.6387 33.0298C17.6387 34.9332 19.2754 36.4815 21.2879 36.4815C23.3004 36.4815 24.9377 34.9332 24.9377 33.0298C24.9377 31.1264 23.3004 29.5781 21.2879 29.5781V29.5781ZM21.2879 34.254C20.5325 34.254 19.919 33.7047 19.919 33.0298C19.919 32.3544 20.533 31.8056 21.2879 31.8056C22.0428 31.8056 22.6574 32.3549 22.6574 33.0298C22.6574 33.7047 22.0428 34.254 21.2879 34.254Z" fill="#55B3FF"/>
<path d="M27.4658 33.0278C27.4658 33.6429 27.9758 34.1416 28.606 34.1416H43.8065C44.4361 34.1416 44.9467 33.6429 44.9467 33.0278C44.9467 32.4128 44.4361 31.9141 43.8065 31.9141H28.606C27.9758 31.9141 27.4658 32.4128 27.4658 33.0278Z" fill="#55B3FF"/>
<path d="M21.2879 19.8984C19.2754 19.8984 17.6387 21.4473 17.6387 23.3507C17.6387 25.2541 19.2754 26.8024 21.2879 26.8024C23.3004 26.8024 24.9377 25.2541 24.9377 23.3507C24.9377 21.4473 23.3004 19.8984 21.2879 19.8984ZM21.2879 24.5748C20.5325 24.5748 19.919 24.0256 19.919 23.3507C19.919 22.6758 20.533 22.126 21.2879 22.126C22.0428 22.126 22.6574 22.6752 22.6574 23.3507C22.6574 24.0256 22.0428 24.5754 21.2879 24.5754V24.5748Z" fill="#55B3FF"/>
<path d="M21.2879 39.2617C19.2754 39.2617 17.6387 40.81 17.6387 42.7134C17.6387 44.6168 19.2754 46.1651 21.2879 46.1651C23.3004 46.1651 24.9377 44.6168 24.9377 42.7134C24.9377 40.81 23.3004 39.2617 21.2879 39.2617ZM21.2879 43.9376C20.5325 43.9376 19.919 43.3888 19.919 42.7134C19.919 42.0385 20.533 41.4892 21.2879 41.4892C22.0428 41.4892 22.6574 42.0385 22.6574 42.7134C22.6574 43.3883 22.0428 43.9376 21.2879 43.9376V43.9376Z" fill="#55B3FF"/>
<path d="M43.8065 41.6562H28.606C27.9758 41.6562 27.4658 42.1549 27.4658 42.77C27.4658 43.3851 27.9758 43.8838 28.606 43.8838H43.8065C44.4361 43.8838 44.9467 43.3851 44.9467 42.77C44.9467 42.1549 44.4361 41.6562 43.8065 41.6562Z" fill="#55B3FF"/>
</svg>
