<svg width="20" height="20" viewBox="0 0 20 20" fill="none" xmlns="http://www.w3.org/2000/svg">
<path d="M9.30558 1.12208L9.48187 1.29934L9.30558 1.12208C9.06583 1.36052 8.93089 1.6842 8.93089 2.022V8.92603H1.98758C1.64917 8.92603 1.32435 9.05971 1.08465 9.2981C0.844902 9.53654 0.709961 9.86023 0.709961 10.198C0.709961 10.5358 0.844901 10.8595 1.08465 11.098C1.32435 11.3363 1.64917 11.47 1.98758 11.47H10.2085C10.5469 11.47 10.8717 11.3363 11.1114 11.098C11.3512 10.8595 11.4861 10.5358 11.4861 10.198V2.022C11.4861 1.6842 11.3512 1.36052 11.1114 1.12208C10.8717 0.883684 10.5469 0.75 10.2085 0.75C9.8701 0.75 9.54528 0.883684 9.30558 1.12208Z" fill="#FCFCFC" stroke="white" stroke-width="0.5"/>
<path d="M9.30535 19.2737L9.48165 19.0964L9.30536 19.2737C9.54506 19.5121 9.86988 19.6458 10.2083 19.6458C10.5467 19.6458 10.8715 19.5121 11.1112 19.2737L10.9349 19.0964L11.1112 19.2737C11.351 19.0352 11.4859 18.7116 11.4859 18.3738V11.4698H18.4292C18.7676 11.4698 19.0924 11.3361 19.3321 11.0977C19.5719 10.8593 19.7068 10.5356 19.7068 10.1978C19.7068 9.85998 19.5719 9.5363 19.3321 9.29786C19.0924 9.05946 18.7676 8.92578 18.4292 8.92578H10.2083C9.86988 8.92578 9.54506 9.05946 9.30535 9.29786C9.06561 9.5363 8.93066 9.85998 8.93066 10.1978V18.3738C8.93066 18.7116 9.0656 19.0352 9.30535 19.2737Z" fill="#FCFCFC" stroke="white" stroke-width="0.5"/>
</svg>
