<svg width="51" height="51" viewBox="0 0 51 51" fill="none" xmlns="http://www.w3.org/2000/svg">
<path d="M49.5625 50.0267H0.7625C0.560273 50.0267 0.366328 49.9482 0.223331 49.8085C0.0803348 49.6688 0 49.4794 0 49.2818V44.5222C0 44.3247 0.0803348 44.1352 0.223331 43.9955C0.366328 43.8558 0.560273 43.7773 0.7625 43.7773H49.5625C49.7647 43.7773 49.9587 43.8558 50.1017 43.9955C50.2447 44.1352 50.325 44.3247 50.325 44.5222V49.2818C50.325 49.4794 50.2447 49.6688 50.1017 49.8085C49.9587 49.9482 49.7647 50.0267 49.5625 50.0267ZM1.525 48.537H48.8V45.2671H1.525V48.537Z" fill="#55B3FF"/>
<path d="M31.5498 45.2677C31.3476 45.2677 31.1536 45.1892 31.0106 45.0495C30.8676 44.9099 30.7873 44.7204 30.7873 44.5228V2.35689H4.57481V44.5228C4.57481 44.7204 4.49447 44.9099 4.35147 45.0495C4.20848 45.1892 4.01453 45.2677 3.81231 45.2677C3.61008 45.2677 3.41613 45.1892 3.27314 45.0495C3.13014 44.9099 3.0498 44.7204 3.0498 44.5228V1.61204C3.0498 1.41449 3.13014 1.22504 3.27314 1.08535C3.41613 0.945663 3.61008 0.867187 3.81231 0.867188H31.5521C31.7543 0.867188 31.9482 0.945663 32.0912 1.08535C32.2342 1.22504 32.3146 1.41449 32.3146 1.61204V44.5228C32.3146 44.6209 32.2948 44.7179 32.2563 44.8084C32.2179 44.8989 32.1615 44.9811 32.0904 45.0503C32.0194 45.1195 31.9351 45.1743 31.8423 45.2116C31.7495 45.2489 31.6501 45.268 31.5498 45.2677V45.2677Z" fill="#55B3FF"/>
<path d="M46.5127 45.2674C46.3105 45.2674 46.1166 45.1889 45.9736 45.0492C45.8306 44.9095 45.7502 44.7201 45.7502 44.5225V17.0093L31.2757 11.5391C31.1802 11.5054 31.0926 11.4533 31.018 11.3861C30.9433 11.3188 30.8832 11.2377 30.8411 11.1474C30.799 11.0571 30.7758 10.9596 30.7728 10.8604C30.7698 10.7613 30.7871 10.6625 30.8238 10.57C30.8604 10.4775 30.9155 10.3931 30.986 10.3216C31.0565 10.2502 31.1409 10.1933 31.2342 10.1542C31.3275 10.115 31.4278 10.0945 31.5294 10.0938C31.6309 10.093 31.7316 10.1121 31.8255 10.1499L46.7895 15.8041C46.9329 15.8583 47.0562 15.9536 47.1431 16.0775C47.2301 16.2014 47.2767 16.3481 47.2768 16.4983V44.5225C47.2768 44.6205 47.257 44.7174 47.2186 44.8079C47.1802 44.8984 47.1239 44.9805 47.0529 45.0497C46.9819 45.1189 46.8977 45.1738 46.805 45.2111C46.7123 45.2484 46.613 45.2676 46.5127 45.2674V45.2674Z" fill="#55B3FF"/>
<path d="M14.9332 12.5163H8.51445C8.31223 12.5163 8.11828 12.4378 7.97528 12.2981C7.83229 12.1584 7.75195 11.969 7.75195 11.7714V5.56907C7.75195 5.37152 7.83229 5.18207 7.97528 5.04238C8.11828 4.90269 8.31223 4.82422 8.51445 4.82422H14.9332C15.1354 4.82422 15.3294 4.90269 15.4723 5.04238C15.6153 5.18207 15.6957 5.37152 15.6957 5.56907V11.7714C15.6957 11.969 15.6153 12.1584 15.4723 12.2981C15.3294 12.4378 15.1354 12.5163 14.9332 12.5163ZM9.27695 11.0266H14.1707V6.31392H9.27695V11.0266Z" fill="#55B3FF"/>
<path d="M26.8472 12.5163H20.4285C20.2263 12.5163 20.0323 12.4378 19.8893 12.2981C19.7463 12.1584 19.666 11.969 19.666 11.7714V5.56907C19.666 5.37152 19.7463 5.18207 19.8893 5.04238C20.0323 4.90269 20.2263 4.82422 20.4285 4.82422H26.8472C27.0495 4.82422 27.2434 4.90269 27.3864 5.04238C27.5294 5.18207 27.6097 5.37152 27.6097 5.56907V11.7714C27.6097 11.969 27.5294 12.1584 27.3864 12.2981C27.2434 12.4378 27.0495 12.5163 26.8472 12.5163ZM21.191 11.0266H26.0847V6.31392H21.191V11.0266Z" fill="#55B3FF"/>
<path d="M14.9332 23.3561H8.51445C8.31223 23.3561 8.11828 23.2776 7.97528 23.1379C7.83229 22.9982 7.75195 22.8088 7.75195 22.6112V16.4089C7.75195 16.2114 7.83229 16.0219 7.97528 15.8822C8.11828 15.7425 8.31223 15.6641 8.51445 15.6641H14.9332C15.1354 15.6641 15.3294 15.7425 15.4723 15.8822C15.6153 16.0219 15.6957 16.2114 15.6957 16.4089V22.6112C15.6957 22.8088 15.6153 22.9982 15.4723 23.1379C15.3294 23.2776 15.1354 23.3561 14.9332 23.3561ZM9.27695 21.8664H14.1707V17.1538H9.27695V21.8664Z" fill="#55B3FF"/>
<path d="M26.8472 23.3561H20.4285C20.2263 23.3561 20.0323 23.2776 19.8893 23.1379C19.7463 22.9982 19.666 22.8088 19.666 22.6112V16.4089C19.666 16.2114 19.7463 16.0219 19.8893 15.8822C20.0323 15.7425 20.2263 15.6641 20.4285 15.6641H26.8472C27.0495 15.6641 27.2434 15.7425 27.3864 15.8822C27.5294 16.0219 27.6097 16.2114 27.6097 16.4089V22.6112C27.6097 22.8088 27.5294 22.9982 27.3864 23.1379C27.2434 23.2776 27.0495 23.3561 26.8472 23.3561ZM21.191 21.8664H26.0847V17.1538H21.191V21.8664Z" fill="#55B3FF"/>
<path d="M23.9071 45.2686C23.7048 45.2686 23.5109 45.1902 23.3679 45.0505C23.2249 44.9108 23.1446 44.7213 23.1446 44.5238V28.7553H12.2164V44.5238C12.2164 44.7213 12.1361 44.9108 11.9931 45.0505C11.8501 45.1902 11.6561 45.2686 11.4539 45.2686C11.2517 45.2686 11.0577 45.1902 10.9147 45.0505C10.7717 44.9108 10.6914 44.7213 10.6914 44.5238V28.0105C10.6914 27.8129 10.7717 27.6235 10.9147 27.4838C11.0577 27.3441 11.2517 27.2656 11.4539 27.2656H23.9071C24.1093 27.2656 24.3032 27.3441 24.4462 27.4838C24.5892 27.6235 24.6696 27.8129 24.6696 28.0105V44.5238C24.6696 44.7213 24.5892 44.9108 24.4462 45.0505C24.3032 45.1902 24.1093 45.2686 23.9071 45.2686Z" fill="#55B3FF"/>
<path d="M41.5902 20.685H36.4754C36.2732 20.685 36.0792 20.6065 35.9362 20.4668C35.7932 20.3272 35.7129 20.1377 35.7129 19.9402C35.7129 19.7426 35.7932 19.5532 35.9362 19.4135C36.0792 19.2738 36.2732 19.1953 36.4754 19.1953H41.5902C41.7925 19.1953 41.9864 19.2738 42.1294 19.4135C42.2724 19.5532 42.3527 19.7426 42.3527 19.9402C42.3527 20.1377 42.2724 20.3272 42.1294 20.4668C41.9864 20.6065 41.7925 20.685 41.5902 20.685Z" fill="#55B3FF"/>
<path d="M41.5902 27.1928H36.4754C36.2732 27.1928 36.0792 27.1143 35.9362 26.9747C35.7932 26.835 35.7129 26.6455 35.7129 26.448C35.7129 26.2504 35.7932 26.061 35.9362 25.9213C36.0792 25.7816 36.2732 25.7031 36.4754 25.7031H41.5902C41.7925 25.7031 41.9864 25.7816 42.1294 25.9213C42.2724 26.061 42.3527 26.2504 42.3527 26.448C42.3527 26.6455 42.2724 26.835 42.1294 26.9747C41.9864 27.1143 41.7925 27.1928 41.5902 27.1928Z" fill="#55B3FF"/>
<path d="M41.5902 33.7006H36.4754C36.2732 33.7006 36.0792 33.6221 35.9362 33.4824C35.7932 33.3428 35.7129 33.1533 35.7129 32.9558C35.7129 32.7582 35.7932 32.5688 35.9362 32.4291C36.0792 32.2894 36.2732 32.2109 36.4754 32.2109H41.5902C41.7925 32.2109 41.9864 32.2894 42.1294 32.4291C42.2724 32.5688 42.3527 32.7582 42.3527 32.9558C42.3527 33.1533 42.2724 33.3428 42.1294 33.4824C41.9864 33.6221 41.7925 33.7006 41.5902 33.7006Z" fill="#55B3FF"/>
<path d="M41.5902 40.2045H36.4754C36.2732 40.2045 36.0792 40.1261 35.9362 39.9864C35.7932 39.8467 35.7129 39.6572 35.7129 39.4597C35.7129 39.2621 35.7932 39.0727 35.9362 38.933C36.0792 38.7933 36.2732 38.7148 36.4754 38.7148H41.5902C41.7925 38.7148 41.9864 38.7933 42.1294 38.933C42.2724 39.0727 42.3527 39.2621 42.3527 39.4597C42.3527 39.6572 42.2724 39.8467 42.1294 39.9864C41.9864 40.1261 41.7925 40.2045 41.5902 40.2045Z" fill="#55B3FF"/>
</svg>
