<svg width="47" height="60" viewBox="0 0 47 60" fill="none" xmlns="http://www.w3.org/2000/svg">
<path d="M6.09972 24.2776C6.08939 27.0973 6.78569 29.8765 8.12785 32.3728C9.47001 34.8691 11.4172 37.0065 13.7996 38.5986C14.09 38.797 14.3368 39.0503 14.5252 39.3436C14.7136 39.6369 14.8398 39.9641 14.8963 40.3059L15.7949 45.4693C15.8671 45.8937 16.0391 46.296 16.2973 46.6445C16.5555 46.993 16.8929 47.2783 17.283 47.478V54.7419C17.283 55.0053 17.3901 55.2579 17.5808 55.4442C17.7715 55.6304 18.0301 55.7351 18.2997 55.7351H18.5226L19.3467 58.9553C19.4017 59.1702 19.5286 59.3609 19.7074 59.4972C19.8861 59.6335 20.1063 59.7076 20.333 59.7076H26.433C26.6597 59.7076 26.88 59.6335 27.0587 59.4972C27.2374 59.3609 27.3643 59.1702 27.4193 58.9553L28.2434 55.7351H28.4663C28.736 55.7351 28.9946 55.6304 29.1852 55.4442C29.3759 55.2579 29.483 55.0053 29.483 54.7419V47.478C29.873 47.2784 30.2104 46.9931 30.4686 46.6447C30.7268 46.2963 30.8988 45.8941 30.9711 45.4698L31.8699 40.3055C31.9276 39.9622 32.0552 39.6337 32.2452 39.3394C32.4353 39.0452 32.6838 38.7911 32.9761 38.5924C37.9705 35.2694 40.8426 29.7163 40.658 23.7372C40.5439 19.2744 38.6742 15.0259 35.4375 11.8743C33.8569 10.3266 31.9746 9.10421 29.9021 8.2793C27.8295 7.4544 25.6087 7.04376 23.3709 7.07164C13.8476 7.18213 6.09972 14.901 6.09972 24.2776ZM22.3664 51.7625H27.4497V53.7488H19.3164V47.79H27.4497V49.7763H22.3664C22.0967 49.7763 21.8381 49.8809 21.6475 50.0672C21.4568 50.2534 21.3497 50.506 21.3497 50.7694C21.3497 51.0328 21.4568 51.2854 21.6475 51.4717C21.8381 51.6579 22.0967 51.7625 22.3664 51.7625ZM25.6392 57.7213H21.1268L20.6185 55.7351H26.1476L25.6392 57.7213ZM23.3957 9.05791C23.4556 9.05716 23.5147 9.05679 23.5744 9.05679C25.5124 9.05571 27.4315 9.4286 29.2216 10.154C31.0117 10.8795 32.6374 11.9432 34.0055 13.284C36.8721 16.0778 38.5269 19.8429 38.6261 23.7972C38.7895 29.0944 36.2497 34.0117 31.8321 36.951C31.3141 37.3006 30.8731 37.7482 30.5354 38.2673C30.1977 38.7864 29.97 39.3665 29.8659 39.9731L28.9673 45.1374C28.9393 45.3206 28.8456 45.4881 28.7029 45.6102C28.5602 45.7322 28.3778 45.8008 28.1882 45.8037H18.5779C18.3883 45.8006 18.206 45.7319 18.0634 45.6098C17.9208 45.4877 17.8273 45.3201 17.7994 45.1369L16.9008 39.9734C16.7979 39.3682 16.5717 38.7894 16.2355 38.2712C15.8993 37.753 15.46 37.306 14.9437 36.9568C12.8354 35.5468 11.1125 33.6542 9.9253 31.444C8.73813 29.2339 8.12281 26.7735 8.13305 24.2776C8.13305 15.9833 14.9796 9.15548 23.3957 9.05791Z" fill="#55B3FF"/>
<path d="M24.3995 4.0936V1.11422C24.3995 0.850827 24.2924 0.598222 24.1018 0.411974C23.9111 0.225726 23.6525 0.121094 23.3829 0.121094C23.1132 0.121094 22.8546 0.225726 22.664 0.411974C22.4733 0.598222 22.3662 0.850827 22.3662 1.11422V4.0936C22.3662 4.357 22.4733 4.6096 22.664 4.79585C22.8546 4.9821 23.1132 5.08673 23.3829 5.08673C23.6525 5.08673 23.9111 4.9821 24.1018 4.79585C24.2924 4.6096 24.3995 4.357 24.3995 4.0936Z" fill="#55B3FF"/>
<path d="M0 29.915C0 30.1784 0.107113 30.431 0.297774 30.6172C0.488436 30.8035 0.747028 30.9081 1.01666 30.9081H4.06666C4.33629 30.9081 4.59488 30.8035 4.78555 30.6172C4.97621 30.431 5.08332 30.1784 5.08332 29.915C5.08332 29.6516 4.97621 29.399 4.78555 29.2128C4.59488 29.0265 4.33629 28.9219 4.06666 28.9219H1.01666C0.747028 28.9219 0.488436 29.0265 0.297774 29.2128C0.107113 29.399 0 29.6516 0 29.915Z" fill="#55B3FF"/>
<path d="M41.6836 29.915C41.6836 30.1784 41.7907 30.431 41.9814 30.6172C42.172 30.8035 42.4306 30.9081 42.7003 30.9081H45.7503C46.0199 30.9081 46.2785 30.8035 46.4691 30.6172C46.6598 30.431 46.7669 30.1784 46.7669 29.915C46.7669 29.6516 46.6598 29.399 46.4691 29.2128C46.2785 29.0265 46.0199 28.9219 45.7503 28.9219H42.7003C42.4306 28.9219 42.172 29.0265 41.9814 29.2128C41.7907 29.399 41.6836 29.6516 41.6836 29.915Z" fill="#55B3FF"/>
<path d="M4.66204 10.2245C4.47066 10.0417 4.21321 9.93996 3.94555 9.94142C3.67789 9.94288 3.42161 10.0474 3.23234 10.2323C3.04308 10.4172 2.93608 10.6675 2.93459 10.929C2.93309 11.1904 3.03721 11.4419 3.22434 11.6289L5.38095 13.7357C5.57162 13.9219 5.83022 14.0266 6.09986 14.0266C6.3695 14.0266 6.6281 13.9219 6.81877 13.7357C7.00944 13.5494 7.11655 13.2968 7.11655 13.0334C7.11655 12.77 7.00944 12.5174 6.81877 12.3312L4.66204 10.2245Z" fill="#55B3FF"/>
<path d="M42.1049 10.2245L39.9482 12.3312C39.7575 12.5174 39.6504 12.77 39.6504 13.0334C39.6504 13.2968 39.7575 13.5494 39.9482 13.7357C40.1388 13.9219 40.3974 14.0266 40.6671 14.0266C40.9367 14.0266 41.1953 13.9219 41.386 13.7357L43.5426 11.6289C43.7297 11.4419 43.8339 11.1904 43.8324 10.929C43.8309 10.6675 43.7239 10.4172 43.5346 10.2323C43.3453 10.0474 43.0891 9.94288 42.8214 9.94142C42.5537 9.93996 42.2963 10.0417 42.1049 10.2245Z" fill="#55B3FF"/>
<path d="M10.5883 41.0097L8.43157 43.1164C8.2409 43.3027 8.13379 43.5553 8.13379 43.8187C8.13379 44.0821 8.2409 44.3347 8.43157 44.5209C8.62224 44.7072 8.88084 44.8118 9.15048 44.8118C9.42013 44.8118 9.67873 44.7072 9.86939 44.5209L12.026 42.4141C12.1221 42.3223 12.1987 42.2127 12.2512 42.0918C12.3037 41.9709 12.3311 41.841 12.3318 41.7096C12.3326 41.5783 12.3067 41.4481 12.2556 41.3266C12.2044 41.2051 12.1292 41.0947 12.0341 41.0018C11.939 40.9089 11.826 40.8354 11.7016 40.7855C11.5773 40.7355 11.444 40.7102 11.3095 40.711C11.175 40.7117 11.0421 40.7385 10.9183 40.7898C10.7945 40.841 10.6823 40.9158 10.5883 41.0097Z" fill="#55B3FF"/>
<path d="M34.7411 41.0096C34.5505 41.1958 34.4434 41.4484 34.4434 41.7118C34.4434 41.9752 34.5505 42.2278 34.7411 42.414L36.8977 44.5208C37.0884 44.7071 37.347 44.8117 37.6166 44.8117C37.8862 44.8117 38.1448 44.7071 38.3355 44.5208C38.5262 44.3346 38.6333 44.0819 38.6333 43.8185C38.6333 43.5551 38.5262 43.3025 38.3355 43.1163L36.1788 41.0096C35.9881 40.8234 35.7296 40.7188 35.4599 40.7188C35.1903 40.7188 34.9317 40.8234 34.7411 41.0096Z" fill="#55B3FF"/>
<path d="M14.2334 27.9281H20.3334V35.8732C20.3334 36.0766 20.3974 36.2752 20.5167 36.442C20.636 36.6087 20.8048 36.7357 21.0004 36.8057C21.196 36.8756 21.4088 36.8852 21.6102 36.8332C21.8115 36.7811 21.9916 36.6699 22.1262 36.5146L33.3095 23.6039C33.4347 23.4593 33.515 23.2828 33.5409 23.0951C33.5668 22.9074 33.5372 22.7164 33.4556 22.5446C33.374 22.3728 33.2439 22.2274 33.0805 22.1255C32.9171 22.0235 32.7272 21.9694 32.5334 21.9694H26.4334V14.0243C26.4334 13.8208 26.3694 13.6223 26.2501 13.4555C26.1308 13.2888 25.9619 13.1618 25.7664 13.0918C25.5708 13.0219 25.358 13.0123 25.1566 13.0643C24.9553 13.1164 24.7752 13.2276 24.6406 13.3829L13.4573 26.2936C13.3321 26.4382 13.2518 26.6147 13.2259 26.8024C13.2 26.9901 13.2296 27.1811 13.3112 27.3529C13.3927 27.5247 13.5229 27.6701 13.6863 27.772C13.8497 27.874 14.0395 27.9281 14.2334 27.9281ZM24.4001 16.7354V22.9625C24.4001 23.2259 24.5072 23.4785 24.6978 23.6647C24.8885 23.851 25.1471 23.9556 25.4167 23.9556H30.3413L22.3667 33.1621V26.935C22.3667 26.6716 22.2596 26.419 22.0689 26.2328C21.8783 26.0465 21.6197 25.9419 21.3501 25.9419H16.4255L24.4001 16.7354Z" fill="#55B3FF"/>
</svg>
