<svg width="172" height="47" viewBox="0 0 172 47" fill="none" xmlns="http://www.w3.org/2000/svg">
<g filter="url(#filter0_d_1714_40665)">
<rect x="4.69922" y="0.216797" width="163" height="38" rx="7" fill="#55B3FF"/>
<path opacity="0.8" d="M67.5775 24.2168V14.035H71.3957C72.1779 14.035 72.8341 14.1808 73.3644 14.4725C73.8981 14.7641 74.3008 15.1652 74.5725 15.6756C74.8476 16.1827 74.9852 16.7594 74.9852 17.4057C74.9852 18.0587 74.8476 18.6387 74.5725 19.1458C74.2974 19.6529 73.8914 20.0523 73.3545 20.3439C72.8176 20.6323 72.1563 20.7765 71.3708 20.7765H68.8403V19.2601H71.1222C71.5796 19.2601 71.9542 19.1806 72.2458 19.0215C72.5375 18.8624 72.7529 18.6436 72.8921 18.3652C73.0347 18.0868 73.1059 17.767 73.1059 17.4057C73.1059 17.0444 73.0347 16.7263 72.8921 16.4512C72.7529 16.1761 72.5358 15.9623 72.2409 15.8098C71.9492 15.6541 71.573 15.5762 71.1123 15.5762H69.422V24.2168H67.5775ZM78.5684 24.3709C78.0845 24.3709 77.6487 24.2847 77.2609 24.1124C76.8765 23.9367 76.5715 23.6782 76.3461 23.3368C76.1241 22.9954 76.0131 22.5745 76.0131 22.074C76.0131 21.6432 76.0926 21.2869 76.2517 21.0051C76.4108 20.7234 76.6279 20.498 76.903 20.329C77.1781 20.16 77.488 20.0324 77.8327 19.9462C78.1807 19.8567 78.5403 19.7921 78.9115 19.7523C79.3589 19.7059 79.7219 19.6645 80.0003 19.628C80.2787 19.5882 80.4809 19.5286 80.6068 19.449C80.7361 19.3662 80.8007 19.2386 80.8007 19.0662V19.0364C80.8007 18.6619 80.6897 18.3719 80.4676 18.1664C80.2455 17.9609 79.9257 17.8581 79.5081 17.8581C79.0673 17.8581 78.7176 17.9542 78.4591 18.1465C78.2039 18.3387 78.0315 18.5658 77.942 18.8276L76.2616 18.589C76.3942 18.1249 76.613 17.7372 76.9179 17.4256C77.2228 17.1107 77.5957 16.8754 78.0365 16.7196C78.4773 16.5605 78.9645 16.481 79.4981 16.481C79.866 16.481 80.2323 16.5241 80.5969 16.6103C80.9614 16.6964 81.2945 16.839 81.5961 17.0378C81.8978 17.2334 82.1397 17.5002 82.322 17.8382C82.5076 18.1763 82.6004 18.5989 82.6004 19.106V24.2168H80.8703V23.1678H80.8106C80.7013 23.3799 80.5471 23.5788 80.3483 23.7644C80.1527 23.9467 79.9058 24.0942 79.6075 24.2069C79.3125 24.3162 78.9662 24.3709 78.5684 24.3709ZM79.0358 23.0485C79.397 23.0485 79.7103 22.9772 79.9754 22.8347C80.2406 22.6889 80.4444 22.4966 80.5869 22.258C80.7327 22.0194 80.8057 21.7592 80.8057 21.4775V20.5776C80.7493 20.624 80.6532 20.6671 80.5173 20.7069C80.3847 20.7466 80.2356 20.7814 80.0699 20.8113C79.9041 20.8411 79.7401 20.8676 79.5777 20.8908C79.4153 20.914 79.2744 20.9339 79.1551 20.9505C78.8866 20.9869 78.6463 21.0466 78.4342 21.1294C78.2221 21.2123 78.0547 21.3283 77.9321 21.4775C77.8095 21.6233 77.7481 21.8122 77.7481 22.0442C77.7481 22.3757 77.8691 22.6259 78.1111 22.7949C78.353 22.964 78.6613 23.0485 79.0358 23.0485ZM87.7311 27.2395C87.0848 27.2395 86.5296 27.1517 86.0656 26.976C85.6016 26.8037 85.2287 26.5717 84.947 26.28C84.6653 25.9883 84.4697 25.6652 84.3604 25.3105L85.9811 24.9178C86.054 25.0669 86.1601 25.2144 86.2993 25.3603C86.4385 25.5094 86.6257 25.632 86.8611 25.7282C87.0997 25.8276 87.3997 25.8773 87.7609 25.8773C88.2713 25.8773 88.6939 25.753 89.0287 25.5044C89.3634 25.2592 89.5308 24.8548 89.5308 24.2914V22.8446H89.4413C89.3485 23.0302 89.2126 23.2208 89.0336 23.4164C88.858 23.6119 88.6243 23.776 88.3327 23.9086C88.0443 24.0411 87.6814 24.1074 87.2439 24.1074C86.6572 24.1074 86.1253 23.9699 85.648 23.6948C85.174 23.4164 84.7962 23.0021 84.5145 22.4519C84.2361 21.8984 84.0969 21.2057 84.0969 20.3738C84.0969 19.5352 84.2361 18.8276 84.5145 18.2509C84.7962 17.6709 85.1757 17.2317 85.653 16.9334C86.1302 16.6318 86.6622 16.481 87.2488 16.481C87.6963 16.481 88.0642 16.5572 88.3525 16.7097C88.6442 16.8588 88.8762 17.0395 89.0486 17.2516C89.2209 17.4604 89.3518 17.6576 89.4413 17.8432H89.5407V16.5804H91.3156V24.3411C91.3156 24.994 91.1598 25.5343 90.8483 25.9618C90.5367 26.3894 90.1108 26.7092 89.5706 26.9213C89.0303 27.1335 88.4172 27.2395 87.7311 27.2395ZM87.746 22.6955C88.1272 22.6955 88.452 22.6027 88.7204 22.4171C88.9889 22.2315 89.1927 21.9647 89.3319 21.6167C89.4711 21.2686 89.5407 20.851 89.5407 20.3638C89.5407 19.8832 89.4711 19.4623 89.3319 19.101C89.1961 18.7398 88.9939 18.4597 88.7254 18.2608C88.4603 18.0587 88.1338 17.9576 87.746 17.9576C87.345 17.9576 87.0102 18.062 86.7417 18.2708C86.4733 18.4796 86.2711 18.7663 86.1352 19.1309C85.9993 19.4921 85.9314 19.9031 85.9314 20.3638C85.9314 20.8311 85.9993 21.2405 86.1352 21.5918C86.2744 21.9398 86.4782 22.2116 86.7467 22.4071C87.0185 22.5994 87.3516 22.6955 87.746 22.6955ZM95.3575 24.3709C94.8736 24.3709 94.4378 24.2847 94.05 24.1124C93.6655 23.9367 93.3606 23.6782 93.1352 23.3368C92.9131 22.9954 92.8021 22.5745 92.8021 22.074C92.8021 21.6432 92.8817 21.2869 93.0407 21.0051C93.1998 20.7234 93.4169 20.498 93.692 20.329C93.9671 20.16 94.277 20.0324 94.6217 19.9462C94.9697 19.8567 95.3293 19.7921 95.7006 19.7523C96.148 19.7059 96.5109 19.6645 96.7893 19.628C97.0677 19.5882 97.2699 19.5286 97.3959 19.449C97.5251 19.3662 97.5898 19.2386 97.5898 19.0662V19.0364C97.5898 18.6619 97.4787 18.3719 97.2567 18.1664C97.0346 17.9609 96.7148 17.8581 96.2971 17.8581C95.8563 17.8581 95.5067 17.9542 95.2481 18.1465C94.9929 18.3387 94.8206 18.5658 94.7311 18.8276L93.0507 18.589C93.1833 18.1249 93.402 17.7372 93.7069 17.4256C94.0119 17.1107 94.3847 16.8754 94.8256 16.7196C95.2664 16.5605 95.7536 16.481 96.2872 16.481C96.6551 16.481 97.0213 16.5241 97.3859 16.6103C97.7505 16.6964 98.0836 16.839 98.3852 17.0378C98.6868 17.2334 98.9288 17.5002 99.1111 17.8382C99.2967 18.1763 99.3895 18.5989 99.3895 19.106V24.2168H97.6594V23.1678H97.5997C97.4903 23.3799 97.3362 23.5788 97.1373 23.7644C96.9418 23.9467 96.6949 24.0942 96.3966 24.2069C96.1016 24.3162 95.7552 24.3709 95.3575 24.3709ZM95.8248 23.0485C96.1861 23.0485 96.4993 22.9772 96.7645 22.8347C97.0296 22.6889 97.2335 22.4966 97.376 22.258C97.5218 22.0194 97.5947 21.7592 97.5947 21.4775V20.5776C97.5384 20.624 97.4423 20.6671 97.3064 20.7069C97.1738 20.7466 97.0247 20.7814 96.8589 20.8113C96.6932 20.8411 96.5291 20.8676 96.3667 20.8908C96.2043 20.914 96.0635 20.9339 95.9442 20.9505C95.6757 20.9869 95.4354 21.0466 95.2233 21.1294C95.0112 21.2123 94.8438 21.3283 94.7211 21.4775C94.5985 21.6233 94.5372 21.8122 94.5372 22.0442C94.5372 22.3757 94.6582 22.6259 94.9001 22.7949C95.1421 22.964 95.4503 23.0485 95.8248 23.0485ZM101.199 24.2168V16.5804H102.944V17.8532H103.024C103.163 17.4123 103.402 17.0726 103.74 16.834C104.081 16.592 104.47 16.4711 104.908 16.4711C105.007 16.4711 105.118 16.476 105.241 16.486C105.367 16.4926 105.471 16.5042 105.554 16.5208V18.1763C105.478 18.1498 105.357 18.1266 105.191 18.1067C105.029 18.0835 104.871 18.0719 104.719 18.0719C104.391 18.0719 104.096 18.1432 103.834 18.2857C103.576 18.4249 103.372 18.6188 103.223 18.8674C103.073 19.1159 102.999 19.4026 102.999 19.7275V24.2168H101.199Z" fill="white"/>
</g>
<defs>
<filter id="filter0_d_1714_40665" x="0.699219" y="0.216797" width="171" height="46" filterUnits="userSpaceOnUse" color-interpolation-filters="sRGB">
<feFlood flood-opacity="0" result="BackgroundImageFix"/>
<feColorMatrix in="SourceAlpha" type="matrix" values="0 0 0 0 0 0 0 0 0 0 0 0 0 0 0 0 0 0 127 0" result="hardAlpha"/>
<feOffset dy="4"/>
<feGaussianBlur stdDeviation="2"/>
<feComposite in2="hardAlpha" operator="out"/>
<feColorMatrix type="matrix" values="0 0 0 0 0 0 0 0 0 0 0 0 0 0 0 0 0 0 0.25 0"/>
<feBlend mode="normal" in2="BackgroundImageFix" result="effect1_dropShadow_1714_40665"/>
<feBlend mode="normal" in="SourceGraphic" in2="effect1_dropShadow_1714_40665" result="shape"/>
</filter>
</defs>
</svg>
