<svg width="20" height="20" viewBox="0 0 20 20" fill="none" xmlns="http://www.w3.org/2000/svg">
<path d="M10.8614 1.12208C10.6217 0.883684 10.2969 0.75 9.95851 0.75C9.6201 0.75 9.29528 0.883684 9.05558 1.12208C8.81583 1.36052 8.68089 1.6842 8.68089 2.022V8.92603H1.73758C1.39917 8.92603 1.07435 9.05971 0.834651 9.2981C0.594901 9.53654 0.459961 9.86023 0.459961 10.198C0.459961 10.5358 0.594901 10.8595 0.834651 11.098C1.07435 11.3363 1.39917 11.47 1.73758 11.47H9.95851C10.2969 11.47 10.6217 11.3363 10.8614 11.098C11.1012 10.8595 11.2361 10.5358 11.2361 10.198V2.022C11.2361 1.6842 11.1012 1.36052 10.8614 1.12208Z" fill="#FCFCFC" stroke="white" stroke-width="0.5"/>
<path d="M9.05535 9.29835C8.81561 9.53678 8.68066 9.86047 8.68066 10.1983V18.3742C8.68066 18.712 8.8156 19.0357 9.05535 19.2742C9.29506 19.5126 9.61988 19.6462 9.95828 19.6462C10.2967 19.6462 10.6215 19.5126 10.8612 19.2742C11.101 19.0357 11.2359 18.712 11.2359 18.3742V11.4703H18.1792C18.5176 11.4703 18.8424 11.3366 19.0821 11.0982C19.3219 10.8597 19.4568 10.5361 19.4568 10.1983C19.4568 9.86047 19.3219 9.53678 19.0821 9.29835C18.8424 9.05995 18.5176 8.92627 18.1792 8.92627H9.95828C9.61988 8.92627 9.29506 9.05995 9.05535 9.29835Z" fill="#FCFCFC" stroke="white" stroke-width="0.5"/>
</svg>
