<svg width="29" height="19" viewBox="0 0 29 19" fill="none" xmlns="http://www.w3.org/2000/svg">
<path fill-rule="evenodd" clip-rule="evenodd" d="M0.55957 4.25323C0.55957 3.31596 0.932112 2.41707 1.59524 1.75432C2.25837 1.09157 3.15777 0.719238 4.09557 0.719238H17.3556C18.2132 0.719137 19.0417 1.03057 19.6867 1.59554C20.3316 2.16051 20.7492 2.94051 20.8615 3.79027L26.36 1.34829C26.6292 1.22844 26.924 1.17771 27.2177 1.20072C27.5115 1.22373 27.7948 1.31974 28.042 1.48004C28.2892 1.64034 28.4923 1.85983 28.633 2.11856C28.7737 2.3773 28.8475 2.66708 28.8476 2.96155V16.1469C28.8473 16.4411 28.7736 16.7306 28.633 16.9892C28.4924 17.2477 28.2894 17.467 28.0425 17.6273C27.7955 17.7875 27.5125 17.8836 27.219 17.9068C26.9255 17.93 26.6308 17.8796 26.3618 17.7601L20.8615 15.3181C20.7492 16.1679 20.3316 16.9479 19.6867 17.5129C19.0417 18.0779 18.2132 18.3893 17.3556 18.3892H4.09557C3.15777 18.3892 2.25837 18.0169 1.59524 17.3541C0.932112 16.6913 0.55957 15.7925 0.55957 14.8552V4.25323ZM20.8916 13.3974L27.0796 16.1469V2.96155L20.8916 5.711V13.3974ZM4.09557 2.48623C3.62667 2.48623 3.17697 2.6724 2.84541 3.00377C2.51384 3.33515 2.32757 3.78459 2.32757 4.25323V14.8552C2.32757 15.3238 2.51384 15.7733 2.84541 16.1046C3.17697 16.436 3.62667 16.6222 4.09557 16.6222H17.3556C17.8245 16.6222 18.2742 16.436 18.6058 16.1046C18.9373 15.7733 19.1236 15.3238 19.1236 14.8552V4.25323C19.1236 3.78459 18.9373 3.33515 18.6058 3.00377C18.2742 2.6724 17.8245 2.48623 17.3556 2.48623H4.09557Z" fill="#389BEC"/>
</svg>
