<svg width="50" height="57" viewBox="0 0 50 57" fill="none" xmlns="http://www.w3.org/2000/svg">
<path d="M32.411 16.2647C32.675 16.2647 32.9282 16.1622 33.1148 15.9799C33.3015 15.7975 33.4064 15.5502 33.4064 15.2923V5.57284C33.403 4.33386 32.9097 3.14407 32.0296 2.25196C31.1494 1.35986 29.9505 0.834438 28.6831 0.785445C28.5445 0.799059 4.68994 0.761136 4.5716 0.7976C3.33233 0.880407 2.17134 1.4193 1.32289 2.30555C0.47443 3.1918 0.00167188 4.35943 0 5.57284V51.6744C0.00148202 52.9437 0.518312 54.1605 1.4371 55.058C2.3559 55.9555 3.60162 56.4604 4.90097 56.4618H28.5056C29.8049 56.4603 31.0506 55.9555 31.9693 55.058C32.8881 54.1605 33.4049 52.9436 33.4064 51.6744V43.9795C33.3591 42.6852 31.4556 42.7014 31.4156 43.9795V51.6743C31.4147 52.4279 31.1078 53.1505 30.5623 53.6834C30.0167 54.2163 29.2771 54.5161 28.5056 54.5169H4.90047C4.12905 54.5159 3.38951 54.2161 2.84406 53.6833C2.2986 53.1504 1.99177 52.428 1.99085 51.6744V5.57284C1.99176 4.923 2.22022 4.29302 2.63828 3.78752C3.05633 3.28203 3.63883 2.93146 4.28903 2.79402L5.30685 4.06577C6.01613 4.95751 6.92525 5.67851 7.96436 6.17339C9.00347 6.66826 10.1449 6.92383 11.3009 6.92044H22.1061C23.2621 6.92383 24.4036 6.66826 25.4427 6.17339C26.4818 5.67851 27.3909 4.95751 28.1002 4.06577L29.118 2.79402C29.7681 2.93158 30.3504 3.28221 30.7684 3.78769C31.1863 4.29317 31.4147 4.92308 31.4156 5.57284V15.2923C31.4156 15.5502 31.5204 15.7975 31.7071 15.9799C31.8938 16.1622 32.147 16.2647 32.411 16.2647ZM26.5313 2.86768C26.0076 3.52611 25.3364 4.05848 24.5691 4.42387C23.8019 4.78927 22.9592 4.97796 22.1056 4.97543H11.3004C10.4167 4.97685 9.54518 4.77417 8.75693 4.38394C7.96867 3.99371 7.28601 3.42697 6.76465 2.72996H26.6415L26.5313 2.86768Z" fill="#55B3FF"/>
<path d="M28.5216 28.3896C28.6502 22.3025 23.1599 16.9385 16.9282 17.0647C15.4051 17.0606 13.8963 17.3516 12.4892 17.921C11.0821 18.4903 9.80452 19.3267 8.7305 20.3816C1.45781 27.3949 6.71476 39.7982 16.9284 39.7145C23.1597 39.84 28.6505 34.4771 28.5216 28.3896ZM16.9282 37.7698C8.46895 37.8384 4.11335 27.5653 10.1384 21.7567C16.143 15.8711 26.5458 20.0811 26.5308 28.3898C26.6372 33.4313 22.0898 37.8743 16.9282 37.7698Z" fill="#55B3FF"/>
<path d="M43.6152 15.5583C43.016 14.9185 41.8824 15.3573 41.8946 16.2244V18.3661H33.3958C32.4465 18.3661 31.5361 18.7345 30.8648 19.3902C30.1935 20.0459 29.8164 20.9353 29.8164 21.8626C29.8164 22.79 30.1935 23.6794 30.8648 24.3351C31.5361 24.9908 32.4465 25.3592 33.3958 25.3592H41.8942V27.5016C41.8757 28.3616 43.0214 28.8101 43.6148 28.1677L49.0424 22.5287C49.216 22.3484 49.3126 22.1102 49.3126 21.8626C49.3126 21.6151 49.216 21.3769 49.0424 21.1966L43.6152 15.5583ZM43.8855 25.0488V24.3877C43.8855 24.1298 43.7806 23.8825 43.5939 23.7001C43.4072 23.5177 43.154 23.4153 42.89 23.4153H33.3958C31.2946 23.3387 31.2888 20.3905 33.3958 20.3116H42.8897C43.1537 20.3116 43.4069 20.2091 43.5935 20.0268C43.7802 19.8444 43.8851 19.5971 43.8851 19.3392V18.6781L46.9509 21.8634L43.8855 25.0488Z" fill="#55B3FF"/>
<path d="M35.0425 28.8418C34.8571 28.77 34.6538 28.7543 34.4591 28.7968C34.2645 28.8392 34.0873 28.9378 33.9507 29.0798L28.5231 34.7187C28.3496 34.8991 28.2529 35.1373 28.2529 35.3848C28.2529 35.6324 28.3496 35.8706 28.5231 36.0509L33.9507 41.69C34.543 42.3308 35.6906 41.8853 35.6713 41.0239V38.8816H44.1697C45.119 38.8816 46.0295 38.5132 46.7007 37.8575C47.372 37.2018 47.7491 36.3124 47.7491 35.3851C47.7491 34.4577 47.372 33.5684 46.7007 32.9126C46.0295 32.2569 45.119 31.8885 44.1697 31.8885H35.6713V29.7456C35.6712 29.5508 35.6113 29.3604 35.4992 29.1993C35.3871 29.0381 35.228 28.9136 35.0425 28.8418ZM44.1697 33.833C46.2719 33.9102 46.2758 36.8581 44.1697 36.9367H34.6758C34.4118 36.9367 34.1587 37.0392 33.972 37.2215C33.7853 37.4039 33.6804 37.6512 33.6804 37.9091V38.5702L30.6145 35.3849L33.6804 32.1997V32.8608C33.6804 33.1187 33.7853 33.366 33.972 33.5483C34.1587 33.7307 34.4118 33.8331 34.6758 33.8331L44.1697 33.833Z" fill="#55B3FF"/>
<path d="M14.7913 50.418C13.4767 50.4572 13.475 52.323 14.7913 52.3627H18.6152C19.9299 52.3235 19.9316 50.4577 18.6152 50.418H14.7913Z" fill="#55B3FF"/>
<path d="M16.5287 25.1671H19.3107C20.6263 25.1274 20.6263 23.2619 19.3107 23.2224H17.9235V22.1989C17.9235 21.9411 17.8186 21.6937 17.6319 21.5114C17.4453 21.329 17.1921 21.2266 16.9281 21.2266C16.6641 21.2266 16.4109 21.329 16.2242 21.5114C16.0375 21.6937 15.9327 21.9411 15.9327 22.1989V23.2819C14.3773 23.5943 13.4068 25.0365 13.5501 26.6156C13.5439 27.3941 13.854 28.1431 14.4123 28.6985C14.9707 29.254 15.7318 29.5704 16.5287 29.5783H17.3275C17.5942 29.5923 17.8453 29.7056 18.0291 29.895C18.2128 30.0844 18.3153 30.3354 18.3153 30.5963C18.3153 30.8572 18.2128 31.1082 18.0291 31.2976C17.8453 31.487 17.5942 31.6003 17.3275 31.6143H14.546C13.2313 31.6529 13.2298 33.5196 14.546 33.559H15.9272V34.5823C15.9272 34.8402 16.0321 35.0876 16.2187 35.2699C16.4054 35.4523 16.6586 35.5547 16.9226 35.5547C17.1866 35.5547 17.4398 35.4523 17.6265 35.2699C17.8131 35.0876 17.918 34.8402 17.918 34.5823V33.5006C21.3888 32.7239 20.9252 27.7261 17.3271 27.6337H16.5283C16.2593 27.6262 16.0043 27.5148 15.8192 27.324C15.6341 27.1332 15.5339 26.8785 15.5406 26.6157V26.1852C15.5339 25.9223 15.6341 25.6676 15.8193 25.4767C16.0045 25.2859 16.2596 25.1746 16.5287 25.1671Z" fill="#55B3FF"/>
</svg>
