<svg width="57" height="18" viewBox="0 0 57 18" fill="none" xmlns="http://www.w3.org/2000/svg">
<path d="M20.0215 17.7031L22.8346 0.303482H27.3337L24.5205 17.7031H20.0215Z" fill="white"/>
<path d="M40.8416 0.729555C39.9531 0.37834 38.5513 -0.00180054 36.8088 -0.00180054C32.3622 -0.00180054 29.2304 2.3603 29.2014 5.74161C29.1766 8.24282 31.4378 9.63942 33.1431 10.4686C34.898 11.3197 35.4885 11.8638 35.4802 12.6254C35.4664 13.792 34.0785 14.3264 32.7858 14.3264C30.9853 14.3264 30.0292 14.062 28.5461 13.4133L27.9694 13.1364L27.3389 17.0301C28.3874 17.5149 30.3327 17.9364 32.3539 17.957C37.0806 17.957 40.1517 15.6239 40.1876 12.0167C40.2042 10.032 39.0066 8.53068 36.4101 7.28834C34.8359 6.48123 33.8715 5.94683 33.8826 5.13008C33.8826 4.40561 34.698 3.63156 36.4612 3.63156C37.9346 3.6109 38.997 3.94697 39.8289 4.30231L40.2304 4.49927L40.8416 0.729555Z" fill="white"/>
<path d="M46.8349 11.5339C47.2074 10.534 48.627 6.67197 48.627 6.67197C48.6008 6.7188 48.9968 5.6624 49.2258 5.01093L49.5293 6.51221C49.5293 6.51221 50.3916 10.6648 50.5696 11.5339H46.8349ZM52.3866 0.322548H48.9071C47.8296 0.322548 47.0211 0.631067 46.5493 1.76597L39.8662 17.707H44.5929C44.5929 17.707 45.3641 15.5639 45.5394 15.0929C46.054 15.0929 50.6455 15.1039 51.3008 15.1039C51.4374 15.7113 51.8499 17.707 51.8499 17.707H56.0261L52.3866 0.322548Z" fill="white"/>
<path d="M16.2418 0.31678L11.8366 12.1782L11.3675 9.76793C10.5466 6.99126 7.99146 3.97906 5.13281 2.46953L9.16417 17.6875L13.9254 17.6847L21.0113 0.31678H16.2418Z" fill="white"/>
<path d="M7.7517 0.307365H0.491942L0.432617 0.668222C6.08094 2.11027 9.81567 5.58662 11.3678 9.76953L9.79221 1.77421C9.51628 0.673732 8.72712 0.34593 7.7517 0.307365Z" fill="#FAA61A"/>
</svg>
