<svg width="82" height="77" viewBox="0 0 82 77" fill="none" xmlns="http://www.w3.org/2000/svg">
<path d="M63.3155 34.0407C66.0588 35.8856 69.7783 35.1574 71.6232 32.4141C73.4682 29.6708 72.74 25.9513 69.9967 24.1064L63.3155 34.0407ZM41.831 11.7252L35.8925 12.4777L37.3975 24.3547L43.336 23.6022L41.831 11.7252ZM69.9967 24.1064C66.4368 21.7122 61.716 18.4647 57.0888 15.9588C54.7597 14.6974 52.285 13.5285 49.8351 12.7274C47.4496 11.9474 44.6493 11.368 41.831 11.7252L43.336 23.6022C43.6698 23.5599 44.5393 23.5915 46.1144 24.1065C47.6251 24.6005 49.4017 25.4107 51.3875 26.4861C55.3901 28.6538 59.5536 31.5106 63.3155 34.0407L69.9967 24.1064Z" fill="#F9D4BC"/>
<path d="M63.3155 34.0407C66.0588 35.8856 69.7783 35.1574 71.6232 32.4141C73.4682 29.6708 72.74 25.9513 69.9967 24.1064L63.3155 34.0407ZM41.831 11.7252L35.8925 12.4777L37.3975 24.3547L43.336 23.6022L41.831 11.7252ZM69.9967 24.1064C66.4368 21.7122 61.716 18.4647 57.0888 15.9588C54.7597 14.6974 52.285 13.5285 49.8351 12.7274C47.4496 11.9474 44.6493 11.368 41.831 11.7252L43.336 23.6022C43.6698 23.5599 44.5393 23.5915 46.1144 24.1065C47.6251 24.6005 49.4017 25.4107 51.3875 26.4861C55.3901 28.6538 59.5536 31.5106 63.3155 34.0407L69.9967 24.1064Z" fill="url(#paint0_radial_2059_11421)" fill-opacity="0.51"/>
<path d="M63.3155 34.0407C66.0588 35.8856 69.7783 35.1574 71.6232 32.4141C73.4682 29.6708 72.74 25.9513 69.9967 24.1064L63.3155 34.0407ZM41.831 11.7252L35.8925 12.4777L37.3975 24.3547L43.336 23.6022L41.831 11.7252ZM69.9967 24.1064C66.4368 21.7122 61.716 18.4647 57.0888 15.9588C54.7597 14.6974 52.285 13.5285 49.8351 12.7274C47.4496 11.9474 44.6493 11.368 41.831 11.7252L43.336 23.6022C43.6698 23.5599 44.5393 23.5915 46.1144 24.1065C47.6251 24.6005 49.4017 25.4107 51.3875 26.4861C55.3901 28.6538 59.5536 31.5106 63.3155 34.0407L69.9967 24.1064Z" fill="url(#paint1_linear_2059_11421)" fill-opacity="0.33"/>
<path d="M63.3155 34.0407C66.0588 35.8856 69.7783 35.1574 71.6232 32.4141C73.4682 29.6708 72.74 25.9513 69.9967 24.1064L63.3155 34.0407ZM41.831 11.7252L35.8925 12.4777L37.3975 24.3547L43.336 23.6022L41.831 11.7252ZM69.9967 24.1064C66.4368 21.7122 61.716 18.4647 57.0888 15.9588C54.7597 14.6974 52.285 13.5285 49.8351 12.7274C47.4496 11.9474 44.6493 11.368 41.831 11.7252L43.336 23.6022C43.6698 23.5599 44.5393 23.5915 46.1144 24.1065C47.6251 24.6005 49.4017 25.4107 51.3875 26.4861C55.3901 28.6538 59.5536 31.5106 63.3155 34.0407L69.9967 24.1064Z" fill="#5C170D" fill-opacity="0.1"/>
<path d="M63.3155 34.0407C66.0588 35.8856 69.7783 35.1574 71.6232 32.4141C73.4682 29.6708 72.74 25.9513 69.9967 24.1064L63.3155 34.0407ZM41.831 11.7252L35.8925 12.4777L37.3975 24.3547L43.336 23.6022L41.831 11.7252ZM69.9967 24.1064C66.4368 21.7122 61.716 18.4647 57.0888 15.9588C54.7597 14.6974 52.285 13.5285 49.8351 12.7274C47.4496 11.9474 44.6493 11.368 41.831 11.7252L43.336 23.6022C43.6698 23.5599 44.5393 23.5915 46.1144 24.1065C47.6251 24.6005 49.4017 25.4107 51.3875 26.4861C55.3901 28.6538 59.5536 31.5106 63.3155 34.0407L69.9967 24.1064Z" fill="#F5CAB0" fill-opacity="0.52"/>
<path d="M63.3155 34.0407C66.0588 35.8856 69.7783 35.1574 71.6232 32.4141C73.4682 29.6708 72.74 25.9513 69.9967 24.1064L63.3155 34.0407ZM41.831 11.7252L35.8925 12.4777L37.3975 24.3547L43.336 23.6022L41.831 11.7252ZM69.9967 24.1064C66.4368 21.7122 61.716 18.4647 57.0888 15.9588C54.7597 14.6974 52.285 13.5285 49.8351 12.7274C47.4496 11.9474 44.6493 11.368 41.831 11.7252L43.336 23.6022C43.6698 23.5599 44.5393 23.5915 46.1144 24.1065C47.6251 24.6005 49.4017 25.4107 51.3875 26.4861C55.3901 28.6538 59.5536 31.5106 63.3155 34.0407L69.9967 24.1064Z" fill="url(#paint2_radial_2059_11421)" fill-opacity="0.4"/>
<path d="M63.3155 34.0407C66.0588 35.8856 69.7783 35.1574 71.6232 32.4141C73.4682 29.6708 72.74 25.9513 69.9967 24.1064L63.3155 34.0407ZM41.831 11.7252L35.8925 12.4777L37.3975 24.3547L43.336 23.6022L41.831 11.7252ZM69.9967 24.1064C66.4368 21.7122 61.716 18.4647 57.0888 15.9588C54.7597 14.6974 52.285 13.5285 49.8351 12.7274C47.4496 11.9474 44.6493 11.368 41.831 11.7252L43.336 23.6022C43.6698 23.5599 44.5393 23.5915 46.1144 24.1065C47.6251 24.6005 49.4017 25.4107 51.3875 26.4861C55.3901 28.6538 59.5536 31.5106 63.3155 34.0407L69.9967 24.1064Z" fill="#FF9ABE" fill-opacity="0.13"/>
<path d="M71.0657 64.0862C64.472 57.3117 52.946 45.0015 44.9863 39.9844" stroke="#F9D4BC" stroke-width="12.0968" stroke-linecap="round"/>
<path d="M71.0657 64.0862C64.472 57.3117 52.946 45.0015 44.9863 39.9844" stroke="url(#paint3_radial_2059_11421)" stroke-opacity="0.65" stroke-width="12.0968" stroke-linecap="round"/>
<path d="M71.0657 64.0862C64.472 57.3117 52.946 45.0015 44.9863 39.9844" stroke="url(#paint4_linear_2059_11421)" stroke-opacity="0.71" stroke-width="12.0968" stroke-linecap="round"/>
<path d="M71.0657 64.0862C64.472 57.3117 52.946 45.0015 44.9863 39.9844" stroke="#5C170D" stroke-opacity="0.1" stroke-width="12.0968" stroke-linecap="round"/>
<path d="M71.0657 64.0862C64.472 57.3117 52.946 45.0015 44.9863 39.9844" stroke="#FF9ABE" stroke-opacity="0.13" stroke-width="12.0968" stroke-linecap="round"/>
<path d="M71.0657 64.0862C64.472 57.3117 52.946 45.0015 44.9863 39.9844" stroke="url(#paint5_linear_2059_11421)" stroke-width="12.0968" stroke-linecap="round"/>
<path d="M76.669 50.4301C69.6133 45.2819 56.5938 34.5143 50.5508 29.5625" stroke="#F9D4BC" stroke-width="10.701" stroke-linecap="round"/>
<path d="M76.669 50.4301C69.6133 45.2819 56.5938 34.5143 50.5508 29.5625" stroke="url(#paint6_radial_2059_11421)" stroke-opacity="0.65" stroke-width="10.701" stroke-linecap="round"/>
<path d="M76.669 50.4301C69.6133 45.2819 56.5938 34.5143 50.5508 29.5625" stroke="url(#paint7_linear_2059_11421)" stroke-opacity="0.71" stroke-width="10.701" stroke-linecap="round"/>
<path d="M76.669 50.4301C69.6133 45.2819 56.5938 34.5143 50.5508 29.5625" stroke="#5C170D" stroke-opacity="0.1" stroke-width="10.701" stroke-linecap="round"/>
<path d="M76.669 50.4301C69.6133 45.2819 56.5938 34.5143 50.5508 29.5625" stroke="#FF9ABE" stroke-opacity="0.13" stroke-width="10.701" stroke-linecap="round"/>
<path d="M76.669 50.4301C69.6133 45.2819 56.5938 34.5143 50.5508 29.5625" stroke="url(#paint8_linear_2059_11421)" stroke-width="10.701" stroke-linecap="round"/>
<path d="M76.669 50.4301C69.6133 45.2819 56.5938 34.5143 50.5508 29.5625" stroke="url(#paint9_linear_2059_11421)" stroke-width="10.701" stroke-linecap="round"/>
<path d="M58.9624 67.7249C53.2735 62.0853 43.9393 52.0325 37.9619 47.5391" stroke="#F9D4BC" stroke-width="10.701" stroke-linecap="round"/>
<path d="M58.9624 67.7249C53.2735 62.0853 43.9393 52.0325 37.9619 47.5391" stroke="url(#paint10_radial_2059_11421)" stroke-opacity="0.65" stroke-width="10.701" stroke-linecap="round"/>
<path d="M58.9624 67.7249C53.2735 62.0853 43.9393 52.0325 37.9619 47.5391" stroke="url(#paint11_linear_2059_11421)" stroke-opacity="0.71" stroke-width="10.701" stroke-linecap="round"/>
<path d="M58.9624 67.7249C53.2735 62.0853 43.9393 52.0325 37.9619 47.5391" stroke="#5C170D" stroke-opacity="0.1" stroke-width="10.701" stroke-linecap="round"/>
<path d="M58.9624 67.7249C53.2735 62.0853 43.9393 52.0325 37.9619 47.5391" stroke="#FF9ABE" stroke-opacity="0.13" stroke-width="10.701" stroke-linecap="round"/>
<path d="M58.9624 67.7249C53.2735 62.0853 43.9393 52.0325 37.9619 47.5391" stroke="url(#paint12_linear_2059_11421)" stroke-width="10.701" stroke-linecap="round"/>
<path d="M58.9624 67.7249C53.2735 62.0853 43.9393 52.0325 37.9619 47.5391" stroke="url(#paint13_linear_2059_11421)" stroke-width="10.701" stroke-linecap="round"/>
<path d="M47.9699 70.9686C43.9186 67.2671 36.1605 59.1452 31.3574 55.1211" stroke="#F9D4BC" stroke-width="10.2358" stroke-linecap="round"/>
<path d="M47.9699 70.9686C43.9186 67.2671 36.1605 59.1452 31.3574 55.1211" stroke="url(#paint14_radial_2059_11421)" stroke-opacity="0.65" stroke-width="10.2358" stroke-linecap="round"/>
<path d="M47.9699 70.9686C43.9186 67.2671 36.1605 59.1452 31.3574 55.1211" stroke="url(#paint15_linear_2059_11421)" stroke-opacity="0.71" stroke-width="10.2358" stroke-linecap="round"/>
<path d="M47.9699 70.9686C43.9186 67.2671 36.1605 59.1452 31.3574 55.1211" stroke="#5C170D" stroke-opacity="0.1" stroke-width="10.2358" stroke-linecap="round"/>
<path d="M47.9699 70.9686C43.9186 67.2671 36.1605 59.1452 31.3574 55.1211" stroke="#FF9ABE" stroke-opacity="0.13" stroke-width="10.2358" stroke-linecap="round"/>
<path d="M47.9699 70.9686C43.9186 67.2671 36.1605 59.1452 31.3574 55.1211" stroke="url(#paint16_linear_2059_11421)" stroke-width="10.2358" stroke-linecap="round"/>
<path d="M47.9699 70.9686C43.9186 67.2671 36.1605 59.1452 31.3574 55.1211" stroke="url(#paint17_linear_2059_11421)" stroke-width="10.2358" stroke-linecap="round"/>
<g filter="url(#filter0_i_2059_11421)">
<path d="M11.8663 40.5709C7.94084 35.9949 8.08485 29.1989 12.2007 24.7933L22.0061 14.2977C26.066 9.95196 32.7212 9.2961 37.5513 12.7657L57.8828 27.3704C60.856 29.5062 61.2652 33.7729 58.7522 36.4348L36.9424 59.5376C34.4769 62.1493 30.2921 62.0497 27.9536 59.3237L11.8663 40.5709Z" fill="#E9B29B"/>
<path d="M11.8663 40.5709C7.94084 35.9949 8.08485 29.1989 12.2007 24.7933L22.0061 14.2977C26.066 9.95196 32.7212 9.2961 37.5513 12.7657L57.8828 27.3704C60.856 29.5062 61.2652 33.7729 58.7522 36.4348L36.9424 59.5376C34.4769 62.1493 30.2921 62.0497 27.9536 59.3237L11.8663 40.5709Z" fill="url(#paint18_linear_2059_11421)"/>
<path d="M11.8663 40.5709C7.94084 35.9949 8.08485 29.1989 12.2007 24.7933L22.0061 14.2977C26.066 9.95196 32.7212 9.2961 37.5513 12.7657L57.8828 27.3704C60.856 29.5062 61.2652 33.7729 58.7522 36.4348L36.9424 59.5376C34.4769 62.1493 30.2921 62.0497 27.9536 59.3237L11.8663 40.5709Z" fill="url(#paint19_linear_2059_11421)"/>
</g>
<circle cx="34.1731" cy="57.5863" r="5.58315" transform="rotate(2.99882 34.1731 57.5863)" fill="url(#paint20_radial_2059_11421)"/>
<circle cx="34.1731" cy="57.5863" r="5.58315" transform="rotate(2.99882 34.1731 57.5863)" fill="#FF9ABE" fill-opacity="0.2"/>
<circle cx="34.1731" cy="57.5863" r="5.58315" transform="rotate(2.99882 34.1731 57.5863)" fill="url(#paint21_radial_2059_11421)" fill-opacity="0.37"/>
<circle cx="34.1731" cy="57.5863" r="5.58315" transform="rotate(2.99882 34.1731 57.5863)" fill="#A46830" fill-opacity="0.09"/>
<circle cx="34.1731" cy="57.5863" r="5.58315" transform="rotate(2.99882 34.1731 57.5863)" fill="#E6AA97" fill-opacity="0.46"/>
<circle cx="34.1731" cy="57.5863" r="5.58315" transform="rotate(2.99882 34.1731 57.5863)" fill="url(#paint22_linear_2059_11421)" fill-opacity="0.63"/>
<circle cx="41.9729" cy="51.0082" r="5.58315" transform="rotate(2.99882 41.9729 51.0082)" fill="url(#paint23_radial_2059_11421)"/>
<circle cx="41.9729" cy="51.0082" r="5.58315" transform="rotate(2.99882 41.9729 51.0082)" fill="#FF9ABE" fill-opacity="0.2"/>
<circle cx="41.9729" cy="51.0082" r="5.58315" transform="rotate(2.99882 41.9729 51.0082)" fill="url(#paint24_radial_2059_11421)" fill-opacity="0.37"/>
<circle cx="41.9729" cy="51.0082" r="5.58315" transform="rotate(2.99882 41.9729 51.0082)" fill="#A46830" fill-opacity="0.09"/>
<circle cx="41.9729" cy="51.0082" r="5.58315" transform="rotate(2.99882 41.9729 51.0082)" fill="#E6AA97" fill-opacity="0.46"/>
<circle cx="41.9729" cy="51.0082" r="5.58315" transform="rotate(2.99882 41.9729 51.0082)" fill="url(#paint25_linear_2059_11421)" fill-opacity="0.7"/>
<circle cx="50.2862" cy="43.5206" r="6.04842" transform="rotate(2.99882 50.2862 43.5206)" fill="url(#paint26_radial_2059_11421)"/>
<circle cx="50.2862" cy="43.5206" r="6.04842" transform="rotate(2.99882 50.2862 43.5206)" fill="#FF9ABE" fill-opacity="0.2"/>
<circle cx="50.2862" cy="43.5206" r="6.04842" transform="rotate(2.99882 50.2862 43.5206)" fill="url(#paint27_radial_2059_11421)" fill-opacity="0.37"/>
<circle cx="50.2862" cy="43.5206" r="6.04842" transform="rotate(2.99882 50.2862 43.5206)" fill="#A46830" fill-opacity="0.09"/>
<circle cx="50.2862" cy="43.5206" r="6.04842" transform="rotate(2.99882 50.2862 43.5206)" fill="#E7B09A" fill-opacity="0.5"/>
<circle cx="50.2862" cy="43.5206" r="6.04842" transform="rotate(2.99882 50.2862 43.5206)" fill="url(#paint28_linear_2059_11421)" fill-opacity="0.7"/>
<circle cx="57.0329" cy="34.7918" r="5.81578" transform="rotate(2.99882 57.0329 34.7918)" fill="url(#paint29_radial_2059_11421)"/>
<circle cx="57.0329" cy="34.7918" r="5.81578" transform="rotate(2.99882 57.0329 34.7918)" fill="#FF9ABE" fill-opacity="0.2"/>
<circle cx="57.0329" cy="34.7918" r="5.81578" transform="rotate(2.99882 57.0329 34.7918)" fill="url(#paint30_radial_2059_11421)" fill-opacity="0.37"/>
<circle cx="57.0329" cy="34.7918" r="5.81578" transform="rotate(2.99882 57.0329 34.7918)" fill="#A46830" fill-opacity="0.09"/>
<circle cx="57.0329" cy="34.7918" r="5.81578" transform="rotate(2.99882 57.0329 34.7918)" fill="#F5CAB0" fill-opacity="0.5"/>
<circle cx="57.0329" cy="34.7918" r="5.81578" transform="rotate(2.99882 57.0329 34.7918)" fill="url(#paint31_linear_2059_11421)" fill-opacity="0.7"/>
<path d="M51.3101 53.0222C50.4963 52.1188 51.9642 48.6308 54.2808 46.5439C56.5974 44.4571 59.8369 42.853 60.6507 43.7564" stroke="#A7A39D" stroke-width="2.32631" stroke-linecap="round"/>
<path d="M51.3101 53.0222C50.4963 52.1188 51.9642 48.6308 54.2808 46.5439C56.5974 44.4571 59.8369 42.853 60.6507 43.7564" stroke="url(#paint32_radial_2059_11421)" stroke-opacity="0.63" stroke-width="2.32631" stroke-linecap="round"/>
<defs>
<filter id="filter0_i_2059_11421" x="4.82826" y="10.543" width="55.5741" height="57.4043" filterUnits="userSpaceOnUse" color-interpolation-filters="sRGB">
<feFlood flood-opacity="0" result="BackgroundImageFix"/>
<feBlend mode="normal" in="SourceGraphic" in2="BackgroundImageFix" result="shape"/>
<feColorMatrix in="SourceAlpha" type="matrix" values="0 0 0 0 0 0 0 0 0 0 0 0 0 0 0 0 0 0 127 0" result="hardAlpha"/>
<feOffset dx="-4.18737" dy="6.51368"/>
<feGaussianBlur stdDeviation="3.48947"/>
<feComposite in2="hardAlpha" operator="arithmetic" k2="-1" k3="1"/>
<feColorMatrix type="matrix" values="0 0 0 0 0.9625 0 0 0 0 0.797396 0 0 0 0 0.693802 0 0 0 1 0"/>
<feBlend mode="normal" in2="shape" result="effect1_innerShadow_2059_11421"/>
</filter>
<radialGradient id="paint0_radial_2059_11421" cx="0" cy="0" r="1" gradientUnits="userSpaceOnUse" gradientTransform="translate(37.6573 34.1748) rotate(89.7416) scale(41.4456 70.9304)">
<stop offset="0.162651" stop-color="#5C170D"/>
<stop offset="0.453125" stop-color="#FEBA88"/>
<stop offset="1" stop-color="#5C170D"/>
</radialGradient>
<linearGradient id="paint1_linear_2059_11421" x1="59.3597" y1="16.7308" x2="51.6149" y2="36.0285" gradientUnits="userSpaceOnUse">
<stop stop-color="#914B3F"/>
<stop offset="1" stop-color="#FFF8F7" stop-opacity="0"/>
</linearGradient>
<radialGradient id="paint2_radial_2059_11421" cx="0" cy="0" r="1" gradientUnits="userSpaceOnUse" gradientTransform="translate(80.2955 54.7492) rotate(-165.023) scale(53.9095 65.4931)">
<stop offset="0.162651" stop-color="#5C170D"/>
<stop offset="0.453125" stop-color="#FEBA88"/>
<stop offset="0.972495" stop-color="#5C170D"/>
</radialGradient>
<radialGradient id="paint3_radial_2059_11421" cx="0" cy="0" r="1" gradientUnits="userSpaceOnUse" gradientTransform="translate(84.9898 102.589) rotate(-152.271) scale(78.2449 85.0087)">
<stop offset="0.162651" stop-color="#5C170D"/>
<stop offset="0.453125" stop-color="#FEBA88"/>
<stop offset="0.972495" stop-color="#5C170D"/>
</radialGradient>
<linearGradient id="paint4_linear_2059_11421" x1="53.6798" y1="57.7283" x2="62.9646" y2="46.2667" gradientUnits="userSpaceOnUse">
<stop stop-color="#914B3F"/>
<stop offset="1" stop-color="#FFF8F7" stop-opacity="0"/>
</linearGradient>
<linearGradient id="paint5_linear_2059_11421" x1="43.3554" y1="37.2665" x2="56.1816" y2="46.0298" gradientUnits="userSpaceOnUse">
<stop stop-color="#E8B19A"/>
<stop offset="1" stop-color="#E4AA96" stop-opacity="0"/>
</linearGradient>
<radialGradient id="paint6_radial_2059_11421" cx="0" cy="0" r="1" gradientUnits="userSpaceOnUse" gradientTransform="translate(83.7101 85.2867) rotate(-149.716) scale(62.8902 73.2554)">
<stop offset="0.162651" stop-color="#5C170D"/>
<stop offset="0.453125" stop-color="#FEBA88"/>
<stop offset="0.972495" stop-color="#5C170D"/>
</radialGradient>
<linearGradient id="paint7_linear_2059_11421" x1="61.0363" y1="46.9572" x2="69.5902" y2="37.5805" gradientUnits="userSpaceOnUse">
<stop stop-color="#914B3F"/>
<stop offset="1" stop-color="#FFF8F7" stop-opacity="0"/>
</linearGradient>
<linearGradient id="paint8_linear_2059_11421" x1="50.1183" y1="29.1296" x2="60.9265" y2="37.8379" gradientUnits="userSpaceOnUse">
<stop stop-color="#E8B19A"/>
<stop offset="1" stop-color="#E4AA96" stop-opacity="0"/>
</linearGradient>
<linearGradient id="paint9_linear_2059_11421" x1="57.8871" y1="37.5865" x2="62.5207" y2="43.3377" gradientUnits="userSpaceOnUse">
<stop stop-color="#DEA58E"/>
<stop offset="1" stop-color="#E5AA97" stop-opacity="0"/>
</linearGradient>
<radialGradient id="paint10_radial_2059_11421" cx="0" cy="0" r="1" gradientUnits="userSpaceOnUse" gradientTransform="translate(67.3713 97.0266) rotate(-149.564) scale(57.3042 64.6493)">
<stop offset="0.162651" stop-color="#5C170D"/>
<stop offset="0.453125" stop-color="#FEBA88"/>
<stop offset="0.972495" stop-color="#5C170D"/>
</radialGradient>
<linearGradient id="paint11_linear_2059_11421" x1="46.42" y1="62.5411" x2="53.9399" y2="54.2318" gradientUnits="userSpaceOnUse">
<stop stop-color="#914B3F"/>
<stop offset="1" stop-color="#FFF8F7" stop-opacity="0"/>
</linearGradient>
<linearGradient id="paint12_linear_2059_11421" x1="36.3395" y1="46.4962" x2="46.1605" y2="54.4628" gradientUnits="userSpaceOnUse">
<stop stop-color="#E8B19A"/>
<stop offset="1" stop-color="#E4AA96" stop-opacity="0"/>
</linearGradient>
<linearGradient id="paint13_linear_2059_11421" x1="43.4578" y1="54.1435" x2="47.6171" y2="59.4104" gradientUnits="userSpaceOnUse">
<stop stop-color="#CF917F"/>
<stop offset="1" stop-color="#E5AA97" stop-opacity="0"/>
</linearGradient>
<radialGradient id="paint14_radial_2059_11421" cx="0" cy="0" r="1" gradientUnits="userSpaceOnUse" gradientTransform="translate(52.9974 96.9484) rotate(-150.504) scale(45.779 61.9698)">
<stop offset="0.162651" stop-color="#5C170D"/>
<stop offset="0.453125" stop-color="#FEBA88"/>
<stop offset="0.972495" stop-color="#5C170D"/>
</radialGradient>
<linearGradient id="paint15_linear_2059_11421" x1="37.6974" y1="67.2368" x2="45.0732" y2="59.4758" gradientUnits="userSpaceOnUse">
<stop stop-color="#914B3F"/>
<stop offset="1" stop-color="#FFF8F7" stop-opacity="0"/>
</linearGradient>
<linearGradient id="paint16_linear_2059_11421" x1="30.2874" y1="53.4493" x2="38.2426" y2="59.6787" gradientUnits="userSpaceOnUse">
<stop stop-color="#E8B19A"/>
<stop offset="1" stop-color="#E4AA96" stop-opacity="0"/>
</linearGradient>
<linearGradient id="paint17_linear_2059_11421" x1="35.7831" y1="59.8387" x2="39.3632" y2="63.9233" gradientUnits="userSpaceOnUse">
<stop stop-color="#CA8A7A"/>
<stop offset="1" stop-color="#E5AA97" stop-opacity="0"/>
</linearGradient>
<linearGradient id="paint18_linear_2059_11421" x1="7.73715" y1="46.4214" x2="32.6522" y2="33.2837" gradientUnits="userSpaceOnUse">
<stop stop-color="#AD695F"/>
<stop offset="1" stop-color="#AD695F" stop-opacity="0"/>
</linearGradient>
<linearGradient id="paint19_linear_2059_11421" x1="47.695" y1="48.5147" x2="28.7262" y2="28.1861" gradientUnits="userSpaceOnUse">
<stop stop-color="#D09485"/>
<stop offset="1" stop-color="#E4AA96" stop-opacity="0"/>
</linearGradient>
<radialGradient id="paint20_radial_2059_11421" cx="0" cy="0" r="1" gradientUnits="userSpaceOnUse" gradientTransform="translate(35.3968 55.0625) rotate(142.405) scale(13.2885)">
<stop stop-color="#FEBA88"/>
<stop offset="1" stop-color="#5C170D"/>
</radialGradient>
<radialGradient id="paint21_radial_2059_11421" cx="0" cy="0" r="1" gradientUnits="userSpaceOnUse" gradientTransform="translate(37.3853 53.5328) rotate(108.435) scale(10.1579)">
<stop stop-color="white"/>
<stop offset="1" stop-color="white" stop-opacity="0"/>
</radialGradient>
<linearGradient id="paint22_linear_2059_11421" x1="31.3815" y1="56.1906" x2="35.5689" y2="59.4474" gradientUnits="userSpaceOnUse">
<stop stop-color="#D79C8A"/>
<stop offset="1" stop-color="#E3A893" stop-opacity="0"/>
</linearGradient>
<radialGradient id="paint23_radial_2059_11421" cx="0" cy="0" r="1" gradientUnits="userSpaceOnUse" gradientTransform="translate(43.1966 48.4843) rotate(57.1268) scale(15.7463)">
<stop stop-color="#FEBA88"/>
<stop offset="1" stop-color="#5C170D"/>
</radialGradient>
<radialGradient id="paint24_radial_2059_11421" cx="0" cy="0" r="1" gradientUnits="userSpaceOnUse" gradientTransform="translate(45.1851 46.9547) rotate(108.435) scale(10.1579)">
<stop stop-color="white"/>
<stop offset="1" stop-color="white" stop-opacity="0"/>
</radialGradient>
<linearGradient id="paint25_linear_2059_11421" x1="39.1813" y1="49.6124" x2="43.3687" y2="52.8693" gradientUnits="userSpaceOnUse">
<stop stop-color="#DBA18F"/>
<stop offset="1" stop-color="#E3A893" stop-opacity="0"/>
</linearGradient>
<radialGradient id="paint26_radial_2059_11421" cx="0" cy="0" r="1" gradientUnits="userSpaceOnUse" gradientTransform="translate(51.6119 40.7864) rotate(122.686) scale(16.2395)">
<stop stop-color="#FEBA88"/>
<stop offset="1" stop-color="#5C170D"/>
</radialGradient>
<radialGradient id="paint27_radial_2059_11421" cx="0" cy="0" r="1" gradientUnits="userSpaceOnUse" gradientTransform="translate(53.7661 39.1293) rotate(108.435) scale(11.0044)">
<stop stop-color="white"/>
<stop offset="1" stop-color="white" stop-opacity="0"/>
</radialGradient>
<linearGradient id="paint28_linear_2059_11421" x1="47.262" y1="42.0085" x2="51.7983" y2="45.5368" gradientUnits="userSpaceOnUse">
<stop stop-color="#DCA28F"/>
<stop offset="1" stop-color="#E3A893" stop-opacity="0"/>
</linearGradient>
<radialGradient id="paint29_radial_2059_11421" cx="0" cy="0" r="1" gradientUnits="userSpaceOnUse" gradientTransform="translate(58.3076 32.1627) rotate(159.722) scale(16.983)">
<stop stop-color="#FEBA88"/>
<stop offset="1" stop-color="#5C170D"/>
</radialGradient>
<radialGradient id="paint30_radial_2059_11421" cx="0" cy="0" r="1" gradientUnits="userSpaceOnUse" gradientTransform="translate(60.3789 30.5693) rotate(108.435) scale(10.5812)">
<stop stop-color="white"/>
<stop offset="1" stop-color="white" stop-opacity="0"/>
</radialGradient>
<linearGradient id="paint31_linear_2059_11421" x1="54.125" y1="30.4299" x2="58.4868" y2="36.7304" gradientUnits="userSpaceOnUse">
<stop stop-color="#EFC0A8"/>
<stop offset="1" stop-color="#E3A893" stop-opacity="0"/>
</linearGradient>
<radialGradient id="paint32_radial_2059_11421" cx="0" cy="0" r="1" gradientUnits="userSpaceOnUse" gradientTransform="translate(56.1375 48.5081) rotate(-133.08) scale(3.96548 12.7345)">
<stop stop-color="#A46B04" stop-opacity="0"/>
<stop offset="0.546875" stop-color="white"/>
<stop offset="1" stop-color="#4E3B1A" stop-opacity="0"/>
</radialGradient>
</defs>
</svg>
