<svg width="20" height="20" viewBox="0 0 20 20" fill="none" xmlns="http://www.w3.org/2000/svg">
<path fill-rule="evenodd" clip-rule="evenodd" d="M13.85 0.813148C14.481 0.813148 15.111 0.902148 15.71 1.10315C19.401 2.30315 20.731 6.35315 19.62 9.89315C18.99 11.7021 17.96 13.3531 16.611 14.7021C14.68 16.5721 12.561 18.2321 10.28 19.6621L10.03 19.8131L9.77002 19.6521C7.48102 18.2321 5.35002 16.5721 3.40102 14.6921C2.06102 13.3431 1.03002 11.7021 0.390017 9.89315C-0.739983 6.35315 0.590017 2.30315 4.32102 1.08215C4.61102 0.982148 4.91002 0.912148 5.21002 0.873148H5.33002C5.61102 0.832148 5.89002 0.813148 6.17002 0.813148H6.28002C6.91002 0.832148 7.52002 0.942148 8.11102 1.14315H8.17002C8.21002 1.16215 8.24002 1.18315 8.26002 1.20215C8.48102 1.27315 8.69002 1.35315 8.89002 1.46315L9.27002 1.63315C9.36184 1.68212 9.4649 1.75695 9.55398 1.82162C9.61041 1.86259 9.66123 1.89949 9.70002 1.92315C9.71634 1.93278 9.73292 1.94246 9.74964 1.95222C9.83538 2.00227 9.9247 2.05441 10 2.11215C11.111 1.26315 12.46 0.803148 13.85 0.813148ZM16.51 8.01315C16.92 8.00215 17.27 7.67315 17.3 7.25215V7.13315C17.33 5.73215 16.481 4.46315 15.19 3.97315C14.78 3.83215 14.33 4.05315 14.18 4.47315C14.04 4.89315 14.26 5.35315 14.68 5.50215C15.321 5.74215 15.75 6.37315 15.75 7.07215V7.10315C15.731 7.33215 15.8 7.55315 15.94 7.72315C16.08 7.89315 16.29 7.99215 16.51 8.01315Z" fill="#55B3FF"/>
</svg>
