<svg width="20" height="20" viewBox="0 0 20 20" fill="none" xmlns="http://www.w3.org/2000/svg">
<path fill-rule="evenodd" clip-rule="evenodd" d="M13.85 0.81266C14.481 0.81266 15.111 0.90166 15.71 1.10266C19.401 2.30266 20.731 6.35266 19.62 9.89266C18.99 11.7017 17.96 13.3527 16.611 14.7017C14.68 16.5717 12.561 18.2317 10.28 19.6617L10.03 19.8127L9.77002 19.6517C7.48102 18.2317 5.35002 16.5717 3.40102 14.6917C2.06102 13.3427 1.03002 11.7017 0.390017 9.89266C-0.739983 6.35266 0.590017 2.30266 4.32102 1.08166C4.61102 0.98166 4.91002 0.91166 5.21002 0.87266H5.33002C5.61102 0.83166 5.89002 0.81266 6.17002 0.81266H6.28002C6.91002 0.83166 7.52002 0.94166 8.11102 1.14266H8.17002C8.21002 1.16166 8.24002 1.18266 8.26002 1.20166C8.48102 1.27266 8.69002 1.35266 8.89002 1.46266L9.27002 1.63266C9.36184 1.68163 9.4649 1.75646 9.55398 1.82113C9.61041 1.8621 9.66123 1.899 9.70002 1.92266C9.71634 1.93229 9.73292 1.94197 9.74964 1.95173C9.83538 2.00178 9.9247 2.05392 10 2.11166C11.111 1.26266 12.46 0.80266 13.85 0.81266ZM16.51 8.01266C16.92 8.00166 17.27 7.67266 17.3 7.25166V7.13266C17.33 5.73166 16.481 4.46266 15.19 3.97266C14.78 3.83166 14.33 4.05266 14.18 4.47266C14.04 4.89266 14.26 5.35266 14.68 5.50166C15.321 5.74166 15.75 6.37266 15.75 7.07166V7.10266C15.731 7.33166 15.8 7.55266 15.94 7.72266C16.08 7.89266 16.29 7.99166 16.51 8.01266Z" fill="#55B3FF"/>
</svg>
