<svg width="25" height="22" viewBox="0 0 25 22" fill="none" xmlns="http://www.w3.org/2000/svg">
<path fill-rule="evenodd" clip-rule="evenodd" d="M12.0569 1.82619C8.90614 -0.0642847 5.05272 -0.373049 1.64111 0.991597C1.1442 1.19036 0.818359 1.67163 0.818359 2.20682V15.3231C0.818359 16.2016 1.70571 16.8024 2.52146 16.4761C5.31522 15.3586 8.47078 15.6115 11.0509 17.1596L12.3281 17.9259C12.4255 17.9843 12.5297 18.0099 12.6309 18.0081C12.732 18.0099 12.8362 17.9843 12.9336 17.9259L14.2108 17.1596C16.7909 15.6115 19.9465 15.3586 22.7403 16.4761C23.556 16.8024 24.4434 16.2016 24.4434 15.3231V2.20682C24.4434 1.67163 24.1175 1.19036 23.6206 0.991597C20.209 -0.373049 16.3556 -0.0642847 13.2048 1.82619L12.6309 2.17054L12.0569 1.82619ZM13.4746 4.51403C13.4746 4.04804 13.0968 3.67028 12.6309 3.67028C12.1649 3.67028 11.7871 4.04804 11.7871 4.51403V15.2015C11.7871 15.6675 12.1649 16.0453 12.6309 16.0453C13.0969 16.0453 13.4746 15.6675 13.4746 15.2015V4.51403Z" fill="#55B3FF"/>
<path d="M2.1963 18.624C4.47314 17.2959 7.28858 17.2959 9.56541 18.624L10.7886 19.3376C11.927 20.0016 13.3347 20.0016 14.4731 19.3376L15.6963 18.624C17.9731 17.2959 20.7886 17.2959 23.0654 18.624L23.181 18.6915C23.5835 18.9263 23.7195 19.4429 23.4847 19.8454C23.2499 20.2479 22.7332 20.3839 22.3307 20.1491L22.2151 20.0817C20.4637 19.06 18.298 19.06 16.5466 20.0817L15.3234 20.7952C13.6596 21.7658 11.6021 21.7658 9.9383 20.7952L8.71513 20.0817C6.96372 19.06 4.798 19.06 3.04659 20.0817L2.931 20.1491C2.52849 20.3839 2.01184 20.2479 1.77705 19.8454C1.54225 19.4429 1.67821 18.9263 2.08072 18.6915L2.1963 18.624Z" fill="#55B3FF"/>
</svg>
