<svg width="18" height="24" viewBox="0 0 18 24" fill="none" xmlns="http://www.w3.org/2000/svg">
<path fill-rule="evenodd" clip-rule="evenodd" d="M4.625 3.83333C4.625 2.06142 6.06142 0.625 7.83333 0.625H10.1667C11.9386 0.625 13.375 2.06142 13.375 3.83333V6.16667C13.375 6.64992 12.9832 7.04167 12.5 7.04167H5.5C5.01675 7.04167 4.625 6.64992 4.625 6.16667V3.83333ZM7.83333 2.375C7.02792 2.375 6.375 3.02792 6.375 3.83333V5.29167H11.625V3.83333C11.625 3.02792 10.9721 2.375 10.1667 2.375H7.83333Z" fill="#55B3FF"/>
<path fill-rule="evenodd" clip-rule="evenodd" d="M2.56808 3.75023C2.71558 3.67952 2.87933 3.79206 2.87903 3.95563L2.875 6.16667C2.875 7.61642 4.05025 8.79167 5.5 8.79167H12.5C13.9497 8.79167 15.125 7.61642 15.125 6.16667V3.95497C15.125 3.79159 15.2886 3.67934 15.436 3.74997C16.8186 4.41281 17.75 5.82458 17.75 7.43303V19.6707C17.75 21.6666 16.2633 23.3499 14.2827 23.5966C10.7745 24.0335 7.22555 24.0335 3.7173 23.5966C1.7367 23.3499 0.25 21.6666 0.25 19.6707V7.43303C0.25 5.82479 1.18521 4.41318 2.56808 3.75023ZM12.5 12C12.9832 12 13.375 12.3918 13.375 12.875C13.375 13.3582 12.9832 13.75 12.5 13.75H5.5C5.01675 13.75 4.625 13.3582 4.625 12.875C4.625 12.3918 5.01675 12 5.5 12H12.5ZM11.3333 15.5C11.8166 15.5 12.2083 15.8918 12.2083 16.375C12.2083 16.8582 11.8166 17.25 11.3333 17.25H5.5C5.01675 17.25 4.625 16.8582 4.625 16.375C4.625 15.8918 5.01675 15.5 5.5 15.5H11.3333Z" fill="#55B3FF"/>
</svg>
