<svg width="18" height="24" viewBox="0 0 18 24" fill="none" xmlns="http://www.w3.org/2000/svg">
<path fill-rule="evenodd" clip-rule="evenodd" d="M4.73242 3.83333C4.73242 2.06142 6.16884 0.625 7.94075 0.625H10.2741C12.046 0.625 13.4824 2.06142 13.4824 3.83333V6.16667C13.4824 6.64992 13.0907 7.04167 12.6074 7.04167H5.60742C5.12417 7.04167 4.73242 6.64992 4.73242 6.16667V3.83333ZM7.94075 2.375C7.13534 2.375 6.48242 3.02792 6.48242 3.83333V5.29167H11.7324V3.83333C11.7324 3.02792 11.0795 2.375 10.2741 2.375H7.94075Z" fill="#CFD1DE"/>
<path fill-rule="evenodd" clip-rule="evenodd" d="M2.67551 3.75023C2.823 3.67952 2.98676 3.79206 2.98646 3.95563L2.98242 6.16667C2.98242 7.61642 4.15767 8.79167 5.60742 8.79167H12.6074C14.0572 8.79167 15.2324 7.61642 15.2324 6.16667V3.95497C15.2324 3.79159 15.3961 3.67934 15.5434 3.74997C16.926 4.41281 17.8574 5.82458 17.8574 7.43303V19.6707C17.8574 21.6666 16.3707 23.3499 14.3901 23.5966C10.8819 24.0335 7.33297 24.0335 3.82472 23.5966C1.84412 23.3499 0.357422 21.6666 0.357422 19.6707V7.43303C0.357422 5.82479 1.29263 4.41318 2.67551 3.75023ZM12.6074 12C13.0907 12 13.4824 12.3918 13.4824 12.875C13.4824 13.3582 13.0907 13.75 12.6074 13.75H5.60742C5.12417 13.75 4.73242 13.3582 4.73242 12.875C4.73242 12.3918 5.12417 12 5.60742 12H12.6074ZM11.4408 15.5C11.924 15.5 12.3158 15.8918 12.3158 16.375C12.3158 16.8582 11.924 17.25 11.4408 17.25H5.60742C5.12417 17.25 4.73242 16.8582 4.73242 16.375C4.73242 15.8918 5.12417 15.5 5.60742 15.5H11.4408Z" fill="#CFD1DE"/>
</svg>
