<svg width="18" height="25" viewBox="0 0 18 25" fill="none" xmlns="http://www.w3.org/2000/svg">
<path fill-rule="evenodd" clip-rule="evenodd" d="M4.75586 4.03255C4.75586 2.26064 6.19228 0.824219 7.96419 0.824219H10.2975C12.0694 0.824219 13.5059 2.26064 13.5059 4.03255V6.36589C13.5059 6.84913 13.1141 7.24089 12.6309 7.24089H5.63086C5.14761 7.24089 4.75586 6.84913 4.75586 6.36589V4.03255ZM7.96419 2.57422C7.15878 2.57422 6.50586 3.22714 6.50586 4.03255V5.49089H11.7559V4.03255C11.7559 3.22714 11.1029 2.57422 10.2975 2.57422H7.96419Z" fill="#CFD1DE"/>
<path fill-rule="evenodd" clip-rule="evenodd" d="M2.69894 3.94945C2.84644 3.87874 3.01019 3.99128 3.00989 4.15485L3.00586 6.36589C3.00586 7.81564 4.18111 8.99089 5.63086 8.99089H12.6309C14.0806 8.99089 15.2559 7.81564 15.2559 6.36589V4.15419C15.2559 3.9908 15.4195 3.87856 15.5668 3.94919C16.9494 4.61203 17.8809 6.0238 17.8809 7.63225V19.8699C17.8809 21.8658 16.3942 23.5491 14.4136 23.7958C10.9053 24.2327 7.35641 24.2327 3.84816 23.7958C1.86756 23.5491 0.380859 21.8658 0.380859 19.8699V7.63225C0.380859 6.02401 1.31607 4.6124 2.69894 3.94945ZM12.6309 12.1992C13.1141 12.1992 13.5059 12.591 13.5059 13.0742C13.5059 13.5575 13.1141 13.9492 12.6309 13.9492H5.63086C5.14761 13.9492 4.75586 13.5575 4.75586 13.0742C4.75586 12.591 5.14761 12.1992 5.63086 12.1992H12.6309ZM11.4642 15.6992C11.9474 15.6992 12.3392 16.091 12.3392 16.5742C12.3392 17.0575 11.9474 17.4492 11.4642 17.4492H5.63086C5.14761 17.4492 4.75586 17.0575 4.75586 16.5742C4.75586 16.091 5.14761 15.6992 5.63086 15.6992H11.4642Z" fill="#CFD1DE"/>
</svg>
