<svg width="18" height="25" viewBox="0 0 18 25" fill="none" xmlns="http://www.w3.org/2000/svg">
<path fill-rule="evenodd" clip-rule="evenodd" d="M4.75586 4.03475C4.75586 2.26284 6.19228 0.826416 7.96419 0.826416H10.2975C12.0694 0.826416 13.5059 2.26284 13.5059 4.03475V6.36808C13.5059 6.85133 13.1141 7.24308 12.6309 7.24308H5.63086C5.14761 7.24308 4.75586 6.85133 4.75586 6.36808V4.03475ZM7.96419 2.57642C7.15878 2.57642 6.50586 3.22933 6.50586 4.03475V5.49308H11.7559V4.03475C11.7559 3.22933 11.1029 2.57642 10.2975 2.57642H7.96419Z" fill="#CFD1DE"/>
<path fill-rule="evenodd" clip-rule="evenodd" d="M2.69894 3.95165C2.84644 3.88094 3.01019 3.99348 3.00989 4.15705L3.00586 6.36809C3.00586 7.81784 4.18111 8.99309 5.63086 8.99309H12.6309C14.0806 8.99309 15.2559 7.81784 15.2559 6.36809V4.15639C15.2559 3.993 15.4195 3.88075 15.5668 3.95139C16.9494 4.61423 17.8809 6.026 17.8809 7.63445V19.8721C17.8809 21.868 16.3942 23.5513 14.4136 23.798C10.9053 24.2349 7.35641 24.2349 3.84816 23.798C1.86756 23.5513 0.380859 21.868 0.380859 19.8721V7.63445C0.380859 6.02621 1.31607 4.6146 2.69894 3.95165ZM12.6309 12.2014C13.1141 12.2014 13.5059 12.5932 13.5059 13.0764C13.5059 13.5597 13.1141 13.9514 12.6309 13.9514H5.63086C5.14761 13.9514 4.75586 13.5597 4.75586 13.0764C4.75586 12.5932 5.14761 12.2014 5.63086 12.2014H12.6309ZM11.4642 15.7014C11.9474 15.7014 12.3392 16.0932 12.3392 16.5764C12.3392 17.0597 11.9474 17.4514 11.4642 17.4514H5.63086C5.14761 17.4514 4.75586 17.0597 4.75586 16.5764C4.75586 16.0932 5.14761 15.7014 5.63086 15.7014H11.4642Z" fill="#CFD1DE"/>
</svg>
