<svg width="25" height="23" viewBox="0 0 25 23" fill="none" xmlns="http://www.w3.org/2000/svg">
<path fill-rule="evenodd" clip-rule="evenodd" d="M11.9261 2.62477C8.77528 0.734299 4.92186 0.425535 1.51025 1.79018C1.01334 1.98895 0.6875 2.47021 0.6875 3.0054V16.1216C0.6875 17.0002 1.57486 17.601 2.3906 17.2747C5.18436 16.1572 8.33992 16.41 10.9201 17.9581L12.1973 18.7245C12.2947 18.7829 12.3989 18.8084 12.5 18.8067C12.6011 18.8084 12.7053 18.7829 12.8027 18.7245L14.0799 17.9581C16.6601 16.41 19.8156 16.1572 22.6094 17.2747C23.4251 17.601 24.3125 17.0002 24.3125 16.1216V3.0054C24.3125 2.47021 23.9867 1.98895 23.4898 1.79018C20.0781 0.425535 16.2247 0.734299 13.0739 2.62477L12.5 2.96913L11.9261 2.62477ZM13.3438 5.31261C13.3438 4.84662 12.966 4.46886 12.5 4.46886C12.034 4.46886 11.6562 4.84662 11.6562 5.31261V16.0001C11.6562 16.4661 12.034 16.8439 12.5 16.8439C12.966 16.8439 13.3438 16.4661 13.3438 16.0001V5.31261Z" fill="#CFD1DE"/>
<path d="M2.06544 19.4226C4.34228 18.0945 7.15772 18.0945 9.43456 19.4226L10.6577 20.1361C11.7961 20.8002 13.2039 20.8002 14.3423 20.1361L15.5654 19.4226C17.8423 18.0945 20.6577 18.0945 22.9346 19.4226L23.0501 19.4901C23.4527 19.7249 23.5886 20.2415 23.3538 20.644C23.119 21.0465 22.6024 21.1825 22.1999 20.9477L22.0843 20.8803C20.3329 19.8586 18.1671 19.8586 16.4157 20.8803L15.1926 21.5938C13.5287 22.5643 11.4713 22.5643 9.80744 21.5938L8.58427 20.8803C6.83286 19.8586 4.66714 19.8586 2.91573 20.8803L2.80014 20.9477C2.39763 21.1825 1.88099 21.0465 1.64619 20.644C1.41139 20.2415 1.54735 19.7249 1.94986 19.4901L2.06544 19.4226Z" fill="#CFD1DE"/>
</svg>
