<svg width="25" height="23" viewBox="0 0 25 23" fill="none" xmlns="http://www.w3.org/2000/svg">
<path fill-rule="evenodd" clip-rule="evenodd" d="M12.0335 2.62477C8.88271 0.734299 5.02928 0.425535 1.61767 1.79018C1.12076 1.98895 0.794922 2.47021 0.794922 3.0054V16.1216C0.794922 17.0002 1.68228 17.601 2.49802 17.2747C5.29178 16.1572 8.44734 16.41 11.0275 17.9581L12.3047 18.7245C12.4021 18.7829 12.5063 18.8084 12.6074 18.8067C12.7086 18.8084 12.8127 18.7829 12.9101 18.7245L14.1873 17.9581C16.7675 16.41 19.9231 16.1572 22.7168 17.2747C23.5326 17.601 24.4199 17.0002 24.4199 16.1216V3.0054C24.4199 2.47021 24.0941 1.98895 23.5972 1.79018C20.1856 0.425535 16.3321 0.734299 13.1813 2.62477L12.6074 2.96913L12.0335 2.62477ZM13.4512 5.31261C13.4512 4.84662 13.0734 4.46886 12.6074 4.46886C12.1414 4.46886 11.7637 4.84662 11.7637 5.31261V16.0001C11.7637 16.4661 12.1414 16.8439 12.6074 16.8439C13.0734 16.8439 13.4512 16.4661 13.4512 16.0001V5.31261Z" fill="#CFD1DE"/>
<path d="M2.17287 19.4226C4.4497 18.0945 7.26514 18.0945 9.54198 19.4226L10.7651 20.1361C11.9036 20.8002 13.3113 20.8002 14.4497 20.1361L15.6729 19.4226C17.9497 18.0945 20.7651 18.0945 23.042 19.4226L23.1576 19.4901C23.5601 19.7249 23.696 20.2415 23.4612 20.644C23.2264 21.0465 22.7098 21.1825 22.3073 20.9477L22.1917 20.8803C20.4403 19.8586 18.2746 19.8586 16.5231 20.8803L15.3 21.5938C13.6361 22.5643 11.5787 22.5643 9.91486 21.5938L8.69169 20.8803C6.94028 19.8586 4.77456 19.8586 3.02315 20.8803L2.90756 20.9477C2.50505 21.1825 1.98841 21.0465 1.75361 20.644C1.51881 20.2415 1.65477 19.7249 2.05728 19.4901L2.17287 19.4226Z" fill="#CFD1DE"/>
</svg>
