<svg width="32" height="38" viewBox="0 0 32 38" fill="none" xmlns="http://www.w3.org/2000/svg">
<g style="mix-blend-mode:multiply" opacity="0.56">
<path fill-rule="evenodd" clip-rule="evenodd" d="M31.3621 28.7337C28.3453 31.2904 24.8301 34.1623 20.9274 37.0446C11.3553 31.8533 3.96146 20.1647 0.651367 7.81094C3.95698 5.32023 7.15318 2.66856 10.1751 0.0703125C13.7856 14.2993 22.783 24.6456 31.3621 28.7337Z" fill="#87C9FF"/>
<path fill-rule="evenodd" clip-rule="evenodd" d="M31.3621 28.7337C28.3453 31.2904 24.8301 34.1623 20.9274 37.0446C11.3553 31.8533 3.96146 20.1647 0.651367 7.81094C3.95698 5.32023 7.15318 2.66856 10.1751 0.0703125C13.7856 14.2993 22.783 24.6456 31.3621 28.7337Z" fill="url(#paint0_radial_1761_30266)" fill-opacity="0.48"/>
<path fill-rule="evenodd" clip-rule="evenodd" d="M31.3621 28.7337C28.3453 31.2904 24.8301 34.1623 20.9274 37.0446C11.3553 31.8533 3.96146 20.1647 0.651367 7.81094C3.95698 5.32023 7.15318 2.66856 10.1751 0.0703125C13.7856 14.2993 22.783 24.6456 31.3621 28.7337Z" fill="url(#paint1_linear_1761_30266)" fill-opacity="0.2"/>
</g>
<defs>
<radialGradient id="paint0_radial_1761_30266" cx="0" cy="0" r="1" gradientUnits="userSpaceOnUse" gradientTransform="translate(9.09101 24.884) rotate(40.5168) scale(46.5084 22.2883)">
<stop stop-color="#003873"/>
<stop offset="1" stop-color="#36679B" stop-opacity="0"/>
</radialGradient>
<linearGradient id="paint1_linear_1761_30266" x1="19.9353" y1="38.4411" x2="24.0574" y2="53.145" gradientUnits="userSpaceOnUse">
<stop stop-color="#043277"/>
<stop offset="0.745154" stop-color="#A8C5FF" stop-opacity="0"/>
</linearGradient>
</defs>
</svg>
