<svg width="37" height="32" viewBox="0 0 37 32" fill="none" xmlns="http://www.w3.org/2000/svg">
<g style="mix-blend-mode:multiply" opacity="0.56">
<path fill-rule="evenodd" clip-rule="evenodd" d="M36.1146 18.0932C34.3421 22.8235 31.9827 27.4427 28.9072 31.7549C13.8497 28.9954 4.91453 18.4903 0.982422 9.47249C2.47738 6.90974 3.61612 3.8318 4.33094 0.324219C4.9061 6.9352 17.8733 19.259 36.1146 18.0932Z" fill="#87C9FF"/>
<path fill-rule="evenodd" clip-rule="evenodd" d="M36.1146 18.0932C34.3421 22.8235 31.9827 27.4427 28.9072 31.7549C13.8497 28.9954 4.91453 18.4903 0.982422 9.47249C2.47738 6.90974 3.61612 3.8318 4.33094 0.324219C4.9061 6.9352 17.8733 19.259 36.1146 18.0932Z" fill="url(#paint0_radial_2059_11284)" fill-opacity="0.48"/>
<path fill-rule="evenodd" clip-rule="evenodd" d="M36.1146 18.0932C34.3421 22.8235 31.9827 27.4427 28.9072 31.7549C13.8497 28.9954 4.91453 18.4903 0.982422 9.47249C2.47738 6.90974 3.61612 3.8318 4.33094 0.324219C4.9061 6.9352 17.8733 19.259 36.1146 18.0932Z" fill="url(#paint1_linear_2059_11284)" fill-opacity="0.2"/>
</g>
<defs>
<radialGradient id="paint0_radial_2059_11284" cx="0" cy="0" r="1" gradientUnits="userSpaceOnUse" gradientTransform="translate(7.75366 22.389) rotate(29.9202) scale(48.0321 20.1487)">
<stop stop-color="#003873"/>
<stop offset="1" stop-color="#36679B" stop-opacity="0"/>
</radialGradient>
<linearGradient id="paint1_linear_2059_11284" x1="20.5223" y1="33.1387" x2="22.8146" y2="45.2812" gradientUnits="userSpaceOnUse">
<stop stop-color="#043277"/>
<stop offset="0.745154" stop-color="#A8C5FF" stop-opacity="0"/>
</linearGradient>
</defs>
</svg>
