<svg width="37" height="30" viewBox="0 0 37 30" fill="none" xmlns="http://www.w3.org/2000/svg">
<g style="mix-blend-mode:multiply" opacity="0.56">
<path fill-rule="evenodd" clip-rule="evenodd" d="M32.2796 0.429688C32.6029 1.28021 32.9046 2.12441 33.1859 2.95701C34.9176 8.08213 36.2094 13.7564 36.94 19.6753C25.2634 31.6131 10.7604 31.0303 2.02278 28.5164C1.89569 25.4339 1.51065 22.4619 0.950195 19.7443C12.5467 22.8418 27.2263 15.7645 32.2796 0.429688Z" fill="#87C9FF"/>
<path fill-rule="evenodd" clip-rule="evenodd" d="M32.2796 0.429688C32.6029 1.28021 32.9046 2.12441 33.1859 2.95701C34.9176 8.08213 36.2094 13.7564 36.94 19.6753C25.2634 31.6131 10.7604 31.0303 2.02278 28.5164C1.89569 25.4339 1.51065 22.4619 0.950195 19.7443C12.5467 22.8418 27.2263 15.7645 32.2796 0.429688Z" fill="url(#paint0_radial_2060_11030)" fill-opacity="0.48"/>
<path fill-rule="evenodd" clip-rule="evenodd" d="M32.2796 0.429688C32.6029 1.28021 32.9046 2.12441 33.1859 2.95701C34.9176 8.08213 36.2094 13.7564 36.94 19.6753C25.2634 31.6131 10.7604 31.0303 2.02278 28.5164C1.89569 25.4339 1.51065 22.4619 0.950195 19.7443C12.5467 22.8418 27.2263 15.7645 32.2796 0.429688Z" fill="url(#paint1_linear_2060_11030)" fill-opacity="0.2"/>
</g>
<defs>
<radialGradient id="paint0_radial_2060_11030" cx="0" cy="0" r="1" gradientUnits="userSpaceOnUse" gradientTransform="translate(7.88672 21.1848) rotate(27.8535) scale(48.235 19.3337)">
<stop stop-color="#003873"/>
<stop offset="1" stop-color="#36679B" stop-opacity="0"/>
</radialGradient>
<linearGradient id="paint1_linear_2060_11030" x1="20.967" y1="31.2964" x2="22.9577" y2="42.7801" gradientUnits="userSpaceOnUse">
<stop stop-color="#043277"/>
<stop offset="0.745154" stop-color="#A8C5FF" stop-opacity="0"/>
</linearGradient>
</defs>
</svg>
