<svg width="36" height="33" viewBox="0 0 36 33" fill="none" xmlns="http://www.w3.org/2000/svg">
<g style="mix-blend-mode:multiply">
<path fill-rule="evenodd" clip-rule="evenodd" d="M35.8861 26.9251C33.2879 15.9917 26.1552 4.38448 11.589 0.820312C7.58348 4.11456 3.98511 7.72112 0.81543 11.624C13.3039 12.9434 24.0048 20.3895 29.4774 32.7745C31.3429 30.6658 33.4786 28.7193 35.8861 26.9251Z" fill="#87C9FF"/>
<path fill-rule="evenodd" clip-rule="evenodd" d="M35.8861 26.9251C33.2879 15.9917 26.1552 4.38448 11.589 0.820312C7.58348 4.11456 3.98511 7.72112 0.81543 11.624C13.3039 12.9434 24.0048 20.3895 29.4774 32.7745C31.3429 30.6658 33.4786 28.7193 35.8861 26.9251Z" fill="url(#paint0_linear_2059_11334)" fill-opacity="0.26"/>
<path fill-rule="evenodd" clip-rule="evenodd" d="M35.8861 26.9251C33.2879 15.9917 26.1552 4.38448 11.589 0.820312C7.58348 4.11456 3.98511 7.72112 0.81543 11.624C13.3039 12.9434 24.0048 20.3895 29.4774 32.7745C31.3429 30.6658 33.4786 28.7193 35.8861 26.9251Z" fill="url(#paint1_radial_2059_11334)"/>
<path fill-rule="evenodd" clip-rule="evenodd" d="M35.8861 26.9251C33.2879 15.9917 26.1552 4.38448 11.589 0.820312C7.58348 4.11456 3.98511 7.72112 0.81543 11.624C13.3039 12.9434 24.0048 20.3895 29.4774 32.7745C31.3429 30.6658 33.4786 28.7193 35.8861 26.9251Z" fill="url(#paint2_radial_2059_11334)" fill-opacity="0.97"/>
</g>
<defs>
<linearGradient id="paint0_linear_2059_11334" x1="-21.5495" y1="-33.8722" x2="31.4303" y2="48.7302" gradientUnits="userSpaceOnUse">
<stop stop-color="#427DB6"/>
<stop offset="0.419203" stop-color="white"/>
<stop offset="1" stop-color="#427DB6"/>
</linearGradient>
<radialGradient id="paint1_radial_2059_11334" cx="0" cy="0" r="1" gradientUnits="userSpaceOnUse" gradientTransform="translate(107.901 35.5387) rotate(134.008) scale(313.99 255.547)">
<stop stop-color="white" stop-opacity="0"/>
<stop offset="0.572917" stop-color="#3D77B1"/>
<stop offset="1" stop-color="#F7FBFF" stop-opacity="0"/>
</radialGradient>
<radialGradient id="paint2_radial_2059_11334" cx="0" cy="0" r="1" gradientUnits="userSpaceOnUse" gradientTransform="translate(80.0931 45.8341) rotate(146.106) scale(114.941 80.1408)">
<stop stop-color="white" stop-opacity="0"/>
<stop offset="0.50821" stop-color="#3D77B1"/>
<stop offset="1" stop-color="#B3D9FF" stop-opacity="0"/>
</radialGradient>
</defs>
</svg>
