<svg width="86" height="28" viewBox="0 0 86 28" fill="none" xmlns="http://www.w3.org/2000/svg">
<g style="mix-blend-mode:multiply">
<path fill-rule="evenodd" clip-rule="evenodd" d="M65.525 0.717003C72.5494 4.20493 78.9972 9.29337 84.4848 15.7957C84.6962 16.0949 84.8988 16.3957 85.0918 16.6978C84.076 20.3378 74.1208 27.5672 42.4268 27.364C10.9446 27.1622 1.41278 20.0947 0.540039 16.5156C5.74157 9.3997 12.0805 4.0416 19.3167 0.480469C19.3703 5.09238 29.6965 8.82505 42.4268 8.82505C54.9387 8.82505 65.1283 5.21934 65.525 0.717003Z" fill="url(#paint0_radial_1761_30282)"/>
<path fill-rule="evenodd" clip-rule="evenodd" d="M65.525 0.717003C72.5494 4.20493 78.9972 9.29337 84.4848 15.7957C84.6962 16.0949 84.8988 16.3957 85.0918 16.6978C84.076 20.3378 74.1208 27.5672 42.4268 27.364C10.9446 27.1622 1.41278 20.0947 0.540039 16.5156C5.74157 9.3997 12.0805 4.0416 19.3167 0.480469C19.3703 5.09238 29.6965 8.82505 42.4268 8.82505C54.9387 8.82505 65.1283 5.21934 65.525 0.717003Z" fill="#FF9ABE" fill-opacity="0.13"/>
<path fill-rule="evenodd" clip-rule="evenodd" d="M65.525 0.717003C72.5494 4.20493 78.9972 9.29337 84.4848 15.7957C84.6962 16.0949 84.8988 16.3957 85.0918 16.6978C84.076 20.3378 74.1208 27.5672 42.4268 27.364C10.9446 27.1622 1.41278 20.0947 0.540039 16.5156C5.74157 9.3997 12.0805 4.0416 19.3167 0.480469C19.3703 5.09238 29.6965 8.82505 42.4268 8.82505C54.9387 8.82505 65.1283 5.21934 65.525 0.717003Z" fill="url(#paint1_radial_1761_30282)" fill-opacity="0.37"/>
<path fill-rule="evenodd" clip-rule="evenodd" d="M65.525 0.717003C72.5494 4.20493 78.9972 9.29337 84.4848 15.7957C84.6962 16.0949 84.8988 16.3957 85.0918 16.6978C84.076 20.3378 74.1208 27.5672 42.4268 27.364C10.9446 27.1622 1.41278 20.0947 0.540039 16.5156C5.74157 9.3997 12.0805 4.0416 19.3167 0.480469C19.3703 5.09238 29.6965 8.82505 42.4268 8.82505C54.9387 8.82505 65.1283 5.21934 65.525 0.717003Z" fill="url(#paint2_radial_1761_30282)" fill-opacity="0.2"/>
</g>
<defs>
<radialGradient id="paint0_radial_1761_30282" cx="0" cy="0" r="1" gradientUnits="userSpaceOnUse" gradientTransform="translate(56.5676 30.1662) rotate(106.321) scale(143.691 116.101)">
<stop stop-color="#55B3FF"/>
<stop offset="1" stop-color="#0E5B9A"/>
</radialGradient>
<radialGradient id="paint1_radial_1761_30282" cx="0" cy="0" r="1" gradientUnits="userSpaceOnUse" gradientTransform="translate(74.385 15.1115) rotate(101.16) scale(139.936 109.871)">
<stop stop-color="white"/>
<stop offset="1" stop-color="white" stop-opacity="0"/>
</radialGradient>
<radialGradient id="paint2_radial_1761_30282" cx="0" cy="0" r="1" gradientUnits="userSpaceOnUse" gradientTransform="translate(42.7445 -3.97648) rotate(-43.5869) scale(41.6251 48.812)">
<stop stop-color="#3D5287"/>
<stop offset="1" stop-color="#7A9FFF" stop-opacity="0"/>
</radialGradient>
</defs>
</svg>
