<svg width="32" height="23" viewBox="0 0 32 23" fill="none" xmlns="http://www.w3.org/2000/svg">
<g style="mix-blend-mode:multiply">
<path fill-rule="evenodd" clip-rule="evenodd" d="M29.7012 7.48779C22.6644 2.93773 13.3568 0.0822923 2.05911 0.685608C-1.16232 0.857638 -3.65787 1.31257 -5.57103 1.97628C-5.78855 4.5522 -5.89842 7.1827 -5.89844 9.86615C-5.89845 12.3994 -5.80117 14.8506 -5.61378 17.2267C7.62081 11.8619 21.0266 14.0535 31.0721 22.2908C30.115 18.4689 29.6557 14.425 29.6558 9.86635C29.6558 9.06228 29.6709 8.26947 29.7012 7.48779Z" fill="#87C9FF"/>
<path fill-rule="evenodd" clip-rule="evenodd" d="M29.7012 7.48779C22.6644 2.93773 13.3568 0.0822923 2.05911 0.685608C-1.16232 0.857638 -3.65787 1.31257 -5.57103 1.97628C-5.78855 4.5522 -5.89842 7.1827 -5.89844 9.86615C-5.89845 12.3994 -5.80117 14.8506 -5.61378 17.2267C7.62081 11.8619 21.0266 14.0535 31.0721 22.2908C30.115 18.4689 29.6557 14.425 29.6558 9.86635C29.6558 9.06228 29.6709 8.26947 29.7012 7.48779Z" fill="url(#paint0_linear_1761_30303)" fill-opacity="0.26"/>
<path fill-rule="evenodd" clip-rule="evenodd" d="M29.7012 7.48779C22.6644 2.93773 13.3568 0.0822923 2.05911 0.685608C-1.16232 0.857638 -3.65787 1.31257 -5.57103 1.97628C-5.78855 4.5522 -5.89842 7.1827 -5.89844 9.86615C-5.89845 12.3994 -5.80117 14.8506 -5.61378 17.2267C7.62081 11.8619 21.0266 14.0535 31.0721 22.2908C30.115 18.4689 29.6557 14.425 29.6558 9.86635C29.6558 9.06228 29.6709 8.26947 29.7012 7.48779Z" fill="url(#paint1_radial_1761_30303)"/>
<path fill-rule="evenodd" clip-rule="evenodd" d="M29.7012 7.48779C22.6644 2.93773 13.3568 0.0822923 2.05911 0.685608C-1.16232 0.857638 -3.65787 1.31257 -5.57103 1.97628C-5.78855 4.5522 -5.89842 7.1827 -5.89844 9.86615C-5.89845 12.3994 -5.80117 14.8506 -5.61378 17.2267C7.62081 11.8619 21.0266 14.0535 31.0721 22.2908C30.115 18.4689 29.6557 14.425 29.6558 9.86635C29.6558 9.06228 29.6709 8.26947 29.7012 7.48779Z" fill="url(#paint2_radial_1761_30303)" fill-opacity="0.97"/>
</g>
<defs>
<linearGradient id="paint0_linear_1761_30303" x1="-11.6523" y1="-85.1785" x2="41.3146" y2="-2.577" gradientUnits="userSpaceOnUse">
<stop stop-color="#427DB6"/>
<stop offset="0.419203" stop-color="white"/>
<stop offset="1" stop-color="#427DB6"/>
</linearGradient>
<radialGradient id="paint1_radial_1761_30303" cx="0" cy="0" r="1" gradientUnits="userSpaceOnUse" gradientTransform="translate(117.81 -15.7778) rotate(134.015) scale(313.98 255.541)">
<stop stop-color="white" stop-opacity="0"/>
<stop offset="0.572917" stop-color="#3D77B1"/>
<stop offset="1" stop-color="#F7FBFF" stop-opacity="0"/>
</radialGradient>
<radialGradient id="paint2_radial_1761_30303" cx="0" cy="0" r="1" gradientUnits="userSpaceOnUse" gradientTransform="translate(89.9992 -5.48389) rotate(146.113) scale(114.943 80.1348)">
<stop stop-color="white" stop-opacity="0"/>
<stop offset="0.50821" stop-color="#3D77B1"/>
<stop offset="1" stop-color="#B3D9FF" stop-opacity="0"/>
</radialGradient>
</defs>
</svg>
