<svg width="34" height="29" viewBox="0 0 34 29" fill="none" xmlns="http://www.w3.org/2000/svg">
<g style="mix-blend-mode:multiply">
<path fill-rule="evenodd" clip-rule="evenodd" d="M33.669 18.1073C27.1725 9.00059 16.789 1.47868 2.64408 0.675781C0.214582 5.31997 -1.72666 10.2696 -3.15527 15.5066C9.6334 13.4506 21.8112 18.7695 30.3159 28.4944C31.0062 24.7399 32.1229 21.2842 33.669 18.1073Z" fill="#87C9FF"/>
<path fill-rule="evenodd" clip-rule="evenodd" d="M33.669 18.1073C27.1725 9.00059 16.789 1.47868 2.64408 0.675781C0.214582 5.31997 -1.72666 10.2696 -3.15527 15.5066C9.6334 13.4506 21.8112 18.7695 30.3159 28.4944C31.0062 24.7399 32.1229 21.2842 33.669 18.1073Z" fill="url(#paint0_linear_1761_30308)" fill-opacity="0.26"/>
<path fill-rule="evenodd" clip-rule="evenodd" d="M33.669 18.1073C27.1725 9.00059 16.789 1.47868 2.64408 0.675781C0.214582 5.31997 -1.72666 10.2696 -3.15527 15.5066C9.6334 13.4506 21.8112 18.7695 30.3159 28.4944C31.0062 24.7399 32.1229 21.2842 33.669 18.1073Z" fill="url(#paint1_radial_1761_30308)"/>
<path fill-rule="evenodd" clip-rule="evenodd" d="M33.669 18.1073C27.1725 9.00059 16.789 1.47868 2.64408 0.675781C0.214582 5.31997 -1.72666 10.2696 -3.15527 15.5066C9.6334 13.4506 21.8112 18.7695 30.3159 28.4944C31.0062 24.7399 32.1229 21.2842 33.669 18.1073Z" fill="url(#paint2_radial_1761_30308)" fill-opacity="0.97"/>
</g>
<defs>
<linearGradient id="paint0_linear_1761_30308" x1="-11.8314" y1="-56.8006" x2="41.1343" y2="25.8011" gradientUnits="userSpaceOnUse">
<stop stop-color="#427DB6"/>
<stop offset="0.419203" stop-color="white"/>
<stop offset="1" stop-color="#427DB6"/>
</linearGradient>
<radialGradient id="paint1_radial_1761_30308" cx="0" cy="0" r="1" gradientUnits="userSpaceOnUse" gradientTransform="translate(117.632 12.5994) rotate(134.015) scale(313.979 255.54)">
<stop stop-color="white" stop-opacity="0"/>
<stop offset="0.572917" stop-color="#3D77B1"/>
<stop offset="1" stop-color="#F7FBFF" stop-opacity="0"/>
</radialGradient>
<radialGradient id="paint2_radial_1761_30308" cx="0" cy="0" r="1" gradientUnits="userSpaceOnUse" gradientTransform="translate(89.8211 22.8931) rotate(146.113) scale(114.943 80.1344)">
<stop stop-color="white" stop-opacity="0"/>
<stop offset="0.50821" stop-color="#3D77B1"/>
<stop offset="1" stop-color="#B3D9FF" stop-opacity="0"/>
</radialGradient>
</defs>
</svg>
