<svg width="43" height="29" viewBox="0 0 43 29" fill="none" xmlns="http://www.w3.org/2000/svg">
<g style="mix-blend-mode:multiply">
<path fill-rule="evenodd" clip-rule="evenodd" d="M32.2416 0.769531C24.1487 1.3381 15.4567 4.02225 7.21382 9.64552C3.42473 12.2304 1.18687 14.5431 0.0371094 16.6155C2.68005 20.7582 5.57777 24.7264 8.6226 28.6238C16.7842 17.3103 29.7521 12.7516 42.8461 14.3708C38.6554 9.30677 35.1356 4.88746 32.2416 0.769531Z" fill="#87C9FF"/>
<path fill-rule="evenodd" clip-rule="evenodd" d="M32.2416 0.769531C24.1487 1.3381 15.4567 4.02225 7.21382 9.64552C3.42473 12.2304 1.18687 14.5431 0.0371094 16.6155C2.68005 20.7582 5.57777 24.7264 8.6226 28.6238C16.7842 17.3103 29.7521 12.7516 42.8461 14.3708C38.6554 9.30677 35.1356 4.88746 32.2416 0.769531Z" fill="url(#paint0_linear_1761_30293)" fill-opacity="0.26"/>
<path fill-rule="evenodd" clip-rule="evenodd" d="M32.2416 0.769531C24.1487 1.3381 15.4567 4.02225 7.21382 9.64552C3.42473 12.2304 1.18687 14.5431 0.0371094 16.6155C2.68005 20.7582 5.57777 24.7264 8.6226 28.6238C16.7842 17.3103 29.7521 12.7516 42.8461 14.3708C38.6554 9.30677 35.1356 4.88746 32.2416 0.769531Z" fill="url(#paint1_radial_1761_30293)"/>
<path fill-rule="evenodd" clip-rule="evenodd" d="M32.2416 0.769531C24.1487 1.3381 15.4567 4.02225 7.21382 9.64552C3.42473 12.2304 1.18687 14.5431 0.0371094 16.6155C2.68005 20.7582 5.57777 24.7264 8.6226 28.6238C16.7842 17.3103 29.7521 12.7516 42.8461 14.3708C38.6554 9.30677 35.1356 4.88746 32.2416 0.769531Z" fill="url(#paint2_radial_1761_30293)" fill-opacity="0.97"/>
</g>
<defs>
<linearGradient id="paint0_linear_1761_30293" x1="-19.7467" y1="-125.519" x2="33.217" y2="-42.9131" gradientUnits="userSpaceOnUse">
<stop stop-color="#427DB6"/>
<stop offset="0.419203" stop-color="white"/>
<stop offset="1" stop-color="#427DB6"/>
</linearGradient>
<radialGradient id="paint1_radial_1761_30293" cx="0" cy="0" r="1" gradientUnits="userSpaceOnUse" gradientTransform="translate(109.729 -56.1193) rotate(134.018) scale(313.993 255.553)">
<stop stop-color="white" stop-opacity="0"/>
<stop offset="0.572917" stop-color="#3D77B1"/>
<stop offset="1" stop-color="#F7FBFF" stop-opacity="0"/>
</radialGradient>
<radialGradient id="paint2_radial_1761_30293" cx="0" cy="0" r="1" gradientUnits="userSpaceOnUse" gradientTransform="translate(81.9154 -45.8255) rotate(146.116) scale(114.951 80.1368)">
<stop stop-color="white" stop-opacity="0"/>
<stop offset="0.50821" stop-color="#3D77B1"/>
<stop offset="1" stop-color="#B3D9FF" stop-opacity="0"/>
</radialGradient>
</defs>
</svg>
