<svg width="59" height="152" viewBox="0 0 59 152" fill="none" xmlns="http://www.w3.org/2000/svg">
<path fill-rule="evenodd" clip-rule="evenodd" d="M44.0457 0.460938C41.9402 0.676246 39.8379 1.27389 37.8365 2.28594C9.92075 16.4017 -5.94904 41.0063 -5.94922 73.2591C-5.9494 105.643 9.95148 124.629 26.7341 144.668L26.8964 144.861C33.2003 152.388 44.4123 153.38 51.9393 147.076C59.4663 140.772 60.4578 129.56 54.154 122.033C36.9658 101.51 29.6049 91.5086 29.605 73.2593C29.6051 54.7743 37.6071 42.2431 53.8802 34.0145C54.6432 33.6287 55.3664 33.1953 56.0479 32.7199C59.7117 14.0404 49.1202 2.64444 44.0457 0.460938Z" fill="#87C9FF"/>
<path fill-rule="evenodd" clip-rule="evenodd" d="M44.0457 0.460938C41.9402 0.676246 39.8379 1.27389 37.8365 2.28594C9.92075 16.4017 -5.94904 41.0063 -5.94922 73.2591C-5.9494 105.643 9.95148 124.629 26.7341 144.668L26.8964 144.861C33.2003 152.388 44.4123 153.38 51.9393 147.076C59.4663 140.772 60.4578 129.56 54.154 122.033C36.9658 101.51 29.6049 91.5086 29.605 73.2593C29.6051 54.7743 37.6071 42.2431 53.8802 34.0145C54.6432 33.6287 55.3664 33.1953 56.0479 32.7199C59.7117 14.0404 49.1202 2.64444 44.0457 0.460938Z" fill="url(#paint0_linear_2060_11063)" fill-opacity="0.26"/>
<path fill-rule="evenodd" clip-rule="evenodd" d="M44.0457 0.460938C41.9402 0.676246 39.8379 1.27389 37.8365 2.28594C9.92075 16.4017 -5.94904 41.0063 -5.94922 73.2591C-5.9494 105.643 9.95148 124.629 26.7341 144.668L26.8964 144.861C33.2003 152.388 44.4123 153.38 51.9393 147.076C59.4663 140.772 60.4578 129.56 54.154 122.033C36.9658 101.51 29.6049 91.5086 29.605 73.2593C29.6051 54.7743 37.6071 42.2431 53.8802 34.0145C54.6432 33.6287 55.3664 33.1953 56.0479 32.7199C59.7117 14.0404 49.1202 2.64444 44.0457 0.460938Z" fill="url(#paint1_radial_2060_11063)"/>
<path fill-rule="evenodd" clip-rule="evenodd" d="M44.0457 0.460938C41.9402 0.676246 39.8379 1.27389 37.8365 2.28594C9.92075 16.4017 -5.94904 41.0063 -5.94922 73.2591C-5.9494 105.643 9.95148 124.629 26.7341 144.668L26.8964 144.861C33.2003 152.388 44.4123 153.38 51.9393 147.076C59.4663 140.772 60.4578 129.56 54.154 122.033C36.9658 101.51 29.6049 91.5086 29.605 73.2593C29.6051 54.7743 37.6071 42.2431 53.8802 34.0145C54.6432 33.6287 55.3664 33.1953 56.0479 32.7199C59.7117 14.0404 49.1202 2.64444 44.0457 0.460938Z" fill="url(#paint2_radial_2060_11063)" fill-opacity="0.97"/>
<defs>
<linearGradient id="paint0_linear_2060_11063" x1="-11.7031" y1="-21.7884" x2="41.2677" y2="60.8155" gradientUnits="userSpaceOnUse">
<stop stop-color="#427DB6"/>
<stop offset="0.419203" stop-color="white"/>
<stop offset="1" stop-color="#427DB6"/>
</linearGradient>
<radialGradient id="paint1_radial_2060_11063" cx="0" cy="0" r="1" gradientUnits="userSpaceOnUse" gradientTransform="translate(117.76 47.6162) rotate(134.014) scale(313.99 255.548)">
<stop stop-color="white" stop-opacity="0"/>
<stop offset="0.572917" stop-color="#3D77B1"/>
<stop offset="1" stop-color="#F7FBFF" stop-opacity="0"/>
</radialGradient>
<radialGradient id="paint2_radial_2060_11063" cx="0" cy="0" r="1" gradientUnits="userSpaceOnUse" gradientTransform="translate(89.9492 57.9106) rotate(146.111) scale(114.945 80.1381)">
<stop stop-color="white" stop-opacity="0"/>
<stop offset="0.50821" stop-color="#3D77B1"/>
<stop offset="1" stop-color="#B3D9FF" stop-opacity="0"/>
</radialGradient>
</defs>
</svg>
