<svg width="35" height="32" viewBox="0 0 35 32" fill="none" xmlns="http://www.w3.org/2000/svg">
<g style="mix-blend-mode:multiply" opacity="0.56">
<path fill-rule="evenodd" clip-rule="evenodd" d="M25.5178 0.570312C26.7175 1.24766 27.8571 2.07624 28.9094 3.05702C31.191 5.18354 33.154 7.65031 34.8393 10.2785C25.7901 28.7277 14.2607 32.0049 5.76444 31.013C5.23363 29.9318 4.83198 29.3413 4.68581 29.1264C4.61481 29.022 4.6041 29.0062 4.66815 29.0659C2.71085 27.2416 1.25757 25.0791 0.314453 22.7528C17.7504 16.6149 23.9321 12.1569 25.5178 0.570312Z" fill="#87C9FF"/>
<path fill-rule="evenodd" clip-rule="evenodd" d="M25.5178 0.570312C26.7175 1.24766 27.8571 2.07624 28.9094 3.05702C31.191 5.18354 33.154 7.65031 34.8393 10.2785C25.7901 28.7277 14.2607 32.0049 5.76444 31.013C5.23363 29.9318 4.83198 29.3413 4.68581 29.1264C4.61481 29.022 4.6041 29.0062 4.66815 29.0659C2.71085 27.2416 1.25757 25.0791 0.314453 22.7528C17.7504 16.6149 23.9321 12.1569 25.5178 0.570312Z" fill="url(#paint0_radial_2059_10963)" fill-opacity="0.48"/>
<path fill-rule="evenodd" clip-rule="evenodd" d="M25.5178 0.570312C26.7175 1.24766 27.8571 2.07624 28.9094 3.05702C31.191 5.18354 33.154 7.65031 34.8393 10.2785C25.7901 28.7277 14.2607 32.0049 5.76444 31.013C5.23363 29.9318 4.83198 29.3413 4.68581 29.1264C4.61481 29.022 4.6041 29.0062 4.66815 29.0659C2.71085 27.2416 1.25757 25.0791 0.314453 22.7528C17.7504 16.6149 23.9321 12.1569 25.5178 0.570312Z" fill="url(#paint1_linear_2059_10963)" fill-opacity="0.2"/>
</g>
<defs>
<radialGradient id="paint0_radial_2059_10963" cx="0" cy="0" r="1" gradientUnits="userSpaceOnUse" gradientTransform="translate(6.96863 22.053) rotate(29.6903) scale(47.0934 19.6622)">
<stop stop-color="#003873"/>
<stop offset="1" stop-color="#36679B" stop-opacity="0"/>
</radialGradient>
<linearGradient id="paint1_linear_2059_10963" x1="19.5165" y1="32.519" x2="21.7291" y2="44.3486" gradientUnits="userSpaceOnUse">
<stop stop-color="#043277"/>
<stop offset="0.745154" stop-color="#A8C5FF" stop-opacity="0"/>
</linearGradient>
</defs>
</svg>
