<svg width="119" height="32" viewBox="0 0 119 32" fill="none" xmlns="http://www.w3.org/2000/svg">
<g style="mix-blend-mode:multiply">
<path fill-rule="evenodd" clip-rule="evenodd" d="M117.258 22.7496C109.967 26.0487 91.8689 31.665 59.6208 31.8296C28.5403 31.9881 10.2352 26.6906 2.28825 23.2304C1.33859 16.9932 0.817927 10.1381 0.783146 2.62211C0.780661 2.08507 0.780621 1.55061 0.783011 1.01872C13.0131 5.95156 35.2097 11.2589 59.6208 11.2589C84.9422 11.2589 107.237 5.54837 118.737 0.46875C118.649 8.69064 118.145 16.093 117.258 22.7496Z" fill="url(#paint0_radial_1761_30279)"/>
<path fill-rule="evenodd" clip-rule="evenodd" d="M117.258 22.7496C109.967 26.0487 91.8689 31.665 59.6208 31.8296C28.5403 31.9881 10.2352 26.6906 2.28825 23.2304C1.33859 16.9932 0.817927 10.1381 0.783146 2.62211C0.780661 2.08507 0.780621 1.55061 0.783011 1.01872C13.0131 5.95156 35.2097 11.2589 59.6208 11.2589C84.9422 11.2589 107.237 5.54837 118.737 0.46875C118.649 8.69064 118.145 16.093 117.258 22.7496Z" fill="#FF9ABE" fill-opacity="0.13"/>
<path fill-rule="evenodd" clip-rule="evenodd" d="M117.258 22.7496C109.967 26.0487 91.8689 31.665 59.6208 31.8296C28.5403 31.9881 10.2352 26.6906 2.28825 23.2304C1.33859 16.9932 0.817927 10.1381 0.783146 2.62211C0.780661 2.08507 0.780621 1.55061 0.783011 1.01872C13.0131 5.95156 35.2097 11.2589 59.6208 11.2589C84.9422 11.2589 107.237 5.54837 118.737 0.46875C118.649 8.69064 118.145 16.093 117.258 22.7496Z" fill="url(#paint1_radial_1761_30279)" fill-opacity="0.37"/>
<path fill-rule="evenodd" clip-rule="evenodd" d="M117.258 22.7496C109.967 26.0487 91.8689 31.665 59.6208 31.8296C28.5403 31.9881 10.2352 26.6906 2.28825 23.2304C1.33859 16.9932 0.817927 10.1381 0.783146 2.62211C0.780661 2.08507 0.780621 1.55061 0.783011 1.01872C13.0131 5.95156 35.2097 11.2589 59.6208 11.2589C84.9422 11.2589 107.237 5.54837 118.737 0.46875C118.649 8.69064 118.145 16.093 117.258 22.7496Z" fill="url(#paint2_radial_1761_30279)" fill-opacity="0.2"/>
</g>
<defs>
<radialGradient id="paint0_radial_1761_30279" cx="0" cy="0" r="1" gradientUnits="userSpaceOnUse" gradientTransform="translate(73.2042 -38.6411) rotate(104.639) scale(160.792 117.794)">
<stop stop-color="#55B3FF"/>
<stop offset="1" stop-color="#0E5B9A"/>
</radialGradient>
<radialGradient id="paint1_radial_1761_30279" cx="0" cy="0" r="1" gradientUnits="userSpaceOnUse" gradientTransform="translate(91.1352 -55.6255) rotate(99.9811) scale(157.263 110.995)">
<stop stop-color="white"/>
<stop offset="1" stop-color="white" stop-opacity="0"/>
</radialGradient>
<radialGradient id="paint2_radial_1761_30279" cx="0" cy="0" r="1" gradientUnits="userSpaceOnUse" gradientTransform="translate(59.2935 -77.1591) rotate(-46.8574) scale(44.3718 51.9868)">
<stop stop-color="#3D5287"/>
<stop offset="1" stop-color="#7A9FFF" stop-opacity="0"/>
</radialGradient>
</defs>
</svg>
