<svg width="114" height="49" viewBox="0 0 114 49" fill="none" xmlns="http://www.w3.org/2000/svg">
<g style="mix-blend-mode:multiply">
<path fill-rule="evenodd" clip-rule="evenodd" d="M113.063 2.28189C105.793 36.4303 86.3152 47.1274 60.8531 48.4071C33.8191 49.7658 8.47847 37.5175 0.304688 0.0703125C20.1771 10.45 62.1468 21.0135 113.063 2.28189Z" fill="url(#paint0_radial_1761_30273)"/>
<path fill-rule="evenodd" clip-rule="evenodd" d="M113.063 2.28189C105.793 36.4303 86.3152 47.1274 60.8531 48.4071C33.8191 49.7658 8.47847 37.5175 0.304688 0.0703125C20.1771 10.45 62.1468 21.0135 113.063 2.28189Z" fill="#FF9ABE" fill-opacity="0.13"/>
<path fill-rule="evenodd" clip-rule="evenodd" d="M113.063 2.28189C105.793 36.4303 86.3152 47.1274 60.8531 48.4071C33.8191 49.7658 8.47847 37.5175 0.304688 0.0703125C20.1771 10.45 62.1468 21.0135 113.063 2.28189Z" fill="url(#paint1_radial_1761_30273)" fill-opacity="0.37"/>
<path fill-rule="evenodd" clip-rule="evenodd" d="M113.063 2.28189C105.793 36.4303 86.3152 47.1274 60.8531 48.4071C33.8191 49.7658 8.47847 37.5175 0.304688 0.0703125C20.1771 10.45 62.1468 21.0135 113.063 2.28189Z" fill="url(#paint2_radial_1761_30273)" fill-opacity="0.2"/>
<path fill-rule="evenodd" clip-rule="evenodd" d="M113.063 2.28189C105.793 36.4303 86.3152 47.1274 60.8531 48.4071C33.8191 49.7658 8.47847 37.5175 0.304688 0.0703125C20.1771 10.45 62.1468 21.0135 113.063 2.28189Z" fill="#1C006A"/>
<path fill-rule="evenodd" clip-rule="evenodd" d="M113.063 2.28189C105.793 36.4303 86.3152 47.1274 60.8531 48.4071C33.8191 49.7658 8.47847 37.5175 0.304688 0.0703125C20.1771 10.45 62.1468 21.0135 113.063 2.28189Z" fill="url(#paint3_linear_1761_30273)" fill-opacity="0.87"/>
</g>
<defs>
<radialGradient id="paint0_radial_1761_30273" cx="0" cy="0" r="1" gradientUnits="userSpaceOnUse" gradientTransform="translate(70.17 -73.828) rotate(106.402) scale(143.754 116.669)">
<stop stop-color="#55B3FF"/>
<stop offset="1" stop-color="#0E5B9A"/>
</radialGradient>
<radialGradient id="paint1_radial_1761_30273" cx="0" cy="0" r="1" gradientUnits="userSpaceOnUse" gradientTransform="translate(88.082 -88.8831) rotate(101.218) scale(139.967 110.432)">
<stop stop-color="white"/>
<stop offset="1" stop-color="white" stop-opacity="0"/>
</radialGradient>
<radialGradient id="paint2_radial_1761_30273" cx="0" cy="0" r="1" gradientUnits="userSpaceOnUse" gradientTransform="translate(56.2736 -107.971) rotate(-43.4359) scale(41.7416 48.9351)">
<stop stop-color="#3D5287"/>
<stop offset="1" stop-color="#7A9FFF" stop-opacity="0"/>
</radialGradient>
<linearGradient id="paint3_linear_1761_30273" x1="58.2074" y1="19.8794" x2="56.4714" y2="75.2432" gradientUnits="userSpaceOnUse">
<stop stop-color="#00C2FF"/>
<stop offset="0.927083" stop-color="#221EF0"/>
</linearGradient>
</defs>
</svg>
