<svg width="117" height="34" viewBox="0 0 117 34" fill="none" xmlns="http://www.w3.org/2000/svg">
<g style="mix-blend-mode:multiply">
<path fill-rule="evenodd" clip-rule="evenodd" d="M110.44 0.476238C113.17 6.93336 115.196 14.0887 116.36 21.8655C112.085 24.7475 95.8065 33.5593 58.3651 33.7504C22.02 33.9358 5.61996 25.4618 0.78125 22.179C1.8528 14.1576 3.59112 6.90907 5.92286 0.445312C12.1635 5.23974 33.6282 11.648 58.3651 11.648C83.049 11.648 104.228 5.26725 110.44 0.476238Z" fill="url(#paint0_radial_1761_30276)"/>
<path fill-rule="evenodd" clip-rule="evenodd" d="M110.44 0.476238C113.17 6.93336 115.196 14.0887 116.36 21.8655C112.085 24.7475 95.8065 33.5593 58.3651 33.7504C22.02 33.9358 5.61996 25.4618 0.78125 22.179C1.8528 14.1576 3.59112 6.90907 5.92286 0.445312C12.1635 5.23974 33.6282 11.648 58.3651 11.648C83.049 11.648 104.228 5.26725 110.44 0.476238Z" fill="#FF9ABE" fill-opacity="0.13"/>
<path fill-rule="evenodd" clip-rule="evenodd" d="M110.44 0.476238C113.17 6.93336 115.196 14.0887 116.36 21.8655C112.085 24.7475 95.8065 33.5593 58.3651 33.7504C22.02 33.9358 5.61996 25.4618 0.78125 22.179C1.8528 14.1576 3.59112 6.90907 5.92286 0.445312C12.1635 5.23974 33.6282 11.648 58.3651 11.648C83.049 11.648 104.228 5.26725 110.44 0.476238Z" fill="url(#paint1_radial_1761_30276)" fill-opacity="0.37"/>
<path fill-rule="evenodd" clip-rule="evenodd" d="M110.44 0.476238C113.17 6.93336 115.196 14.0887 116.36 21.8655C112.085 24.7475 95.8065 33.5593 58.3651 33.7504C22.02 33.9358 5.61996 25.4618 0.78125 22.179C1.8528 14.1576 3.59112 6.90907 5.92286 0.445312C12.1635 5.23974 33.6282 11.648 58.3651 11.648C83.049 11.648 104.228 5.26725 110.44 0.476238Z" fill="url(#paint2_radial_1761_30276)" fill-opacity="0.2"/>
</g>
<defs>
<radialGradient id="paint0_radial_1761_30276" cx="0" cy="0" r="1" gradientUnits="userSpaceOnUse" gradientTransform="translate(71.7455 -7.64285) rotate(102.756) scale(182.921 118.015)">
<stop stop-color="#55B3FF"/>
<stop offset="1" stop-color="#0E5B9A"/>
</radialGradient>
<radialGradient id="paint1_radial_1761_30276" cx="0" cy="0" r="1" gradientUnits="userSpaceOnUse" gradientTransform="translate(89.5667 -27.1196) rotate(98.6722) scale(179.67 110.732)">
<stop stop-color="white"/>
<stop offset="1" stop-color="white" stop-opacity="0"/>
</radialGradient>
<radialGradient id="paint2_radial_1761_30276" cx="0" cy="0" r="1" gradientUnits="userSpaceOnUse" gradientTransform="translate(57.9195 -51.8142) rotate(-50.9154) scale(47.8323 54.9662)">
<stop stop-color="#3D5287"/>
<stop offset="1" stop-color="#7A9FFF" stop-opacity="0"/>
</radialGradient>
</defs>
</svg>
