<svg width="38" height="24" viewBox="0 0 38 24" fill="none" xmlns="http://www.w3.org/2000/svg">
<g style="mix-blend-mode:multiply">
<path fill-rule="evenodd" clip-rule="evenodd" d="M32.0087 2.0353C22.5543 -0.588337 11.6357 -0.226765 1.04938 5.79936C-0.613983 6.7462 -2.00429 7.66771 -3.15527 8.56346C-1.72465 13.7696 0.172713 18.6007 2.42154 23.1676C11.8387 13.4056 25.1808 10.5944 37.9469 13.8035C35.3576 9.78408 33.3937 5.97902 32.0087 2.0353Z" fill="#87C9FF"/>
<path fill-rule="evenodd" clip-rule="evenodd" d="M32.0087 2.0353C22.5543 -0.588337 11.6357 -0.226765 1.04938 5.79936C-0.613983 6.7462 -2.00429 7.66771 -3.15527 8.56346C-1.72465 13.7696 0.172713 18.6007 2.42154 23.1676C11.8387 13.4056 25.1808 10.5944 37.9469 13.8035C35.3576 9.78408 33.3937 5.97902 32.0087 2.0353Z" fill="url(#paint0_linear_1761_30298)" fill-opacity="0.26"/>
<path fill-rule="evenodd" clip-rule="evenodd" d="M32.0087 2.0353C22.5543 -0.588337 11.6357 -0.226765 1.04938 5.79936C-0.613983 6.7462 -2.00429 7.66771 -3.15527 8.56346C-1.72465 13.7696 0.172713 18.6007 2.42154 23.1676C11.8387 13.4056 25.1808 10.5944 37.9469 13.8035C35.3576 9.78408 33.3937 5.97902 32.0087 2.0353Z" fill="url(#paint1_radial_1761_30298)"/>
<path fill-rule="evenodd" clip-rule="evenodd" d="M32.0087 2.0353C22.5543 -0.588337 11.6357 -0.226765 1.04938 5.79936C-0.613983 6.7462 -2.00429 7.66771 -3.15527 8.56346C-1.72465 13.7696 0.172713 18.6007 2.42154 23.1676C11.8387 13.4056 25.1808 10.5944 37.9469 13.8035C35.3576 9.78408 33.3937 5.97902 32.0087 2.0353Z" fill="url(#paint2_radial_1761_30298)" fill-opacity="0.97"/>
</g>
<defs>
<linearGradient id="paint0_linear_1761_30298" x1="-11.8702" y1="-109.284" x2="41.1026" y2="-26.6803" gradientUnits="userSpaceOnUse">
<stop stop-color="#427DB6"/>
<stop offset="0.419203" stop-color="white"/>
<stop offset="1" stop-color="#427DB6"/>
</linearGradient>
<radialGradient id="paint1_radial_1761_30298" cx="0" cy="0" r="1" gradientUnits="userSpaceOnUse" gradientTransform="translate(117.59 -39.8779) rotate(134.012) scale(313.99 255.548)">
<stop stop-color="white" stop-opacity="0"/>
<stop offset="0.572917" stop-color="#3D77B1"/>
<stop offset="1" stop-color="#F7FBFF" stop-opacity="0"/>
</radialGradient>
<radialGradient id="paint2_radial_1761_30298" cx="0" cy="0" r="1" gradientUnits="userSpaceOnUse" gradientTransform="translate(89.78 -29.5832) rotate(146.11) scale(114.944 80.1386)">
<stop stop-color="white" stop-opacity="0"/>
<stop offset="0.50821" stop-color="#3D77B1"/>
<stop offset="1" stop-color="#B3D9FF" stop-opacity="0"/>
</radialGradient>
</defs>
</svg>
