<svg width="26" height="35" viewBox="0 0 26 35" fill="none" xmlns="http://www.w3.org/2000/svg">
<g style="mix-blend-mode:multiply">
<path fill-rule="evenodd" clip-rule="evenodd" d="M21.2887 34.7664C18.4175 18.9498 13.5821 9.8875 0.381836 5.78086C2.43364 4.53712 4.56241 3.35736 6.76625 2.24297C8.76772 1.23092 10.87 0.633276 12.9755 0.417969C18.05 2.60148 28.6415 13.9975 24.9777 32.677C24.2962 33.1524 23.573 33.5857 22.81 33.9715C22.2946 34.2321 21.7875 34.4971 21.2887 34.7664Z" fill="#87C9FF"/>
<path fill-rule="evenodd" clip-rule="evenodd" d="M21.2887 34.7664C18.4175 18.9498 13.5821 9.8875 0.381836 5.78086C2.43364 4.53712 4.56241 3.35736 6.76625 2.24297C8.76772 1.23092 10.87 0.633276 12.9755 0.417969C18.05 2.60148 28.6415 13.9975 24.9777 32.677C24.2962 33.1524 23.573 33.5857 22.81 33.9715C22.2946 34.2321 21.7875 34.4971 21.2887 34.7664Z" fill="url(#paint0_linear_1761_30318)" fill-opacity="0.26"/>
<path fill-rule="evenodd" clip-rule="evenodd" d="M21.2887 34.7664C18.4175 18.9498 13.5821 9.8875 0.381836 5.78086C2.43364 4.53712 4.56241 3.35736 6.76625 2.24297C8.76772 1.23092 10.87 0.633276 12.9755 0.417969C18.05 2.60148 28.6415 13.9975 24.9777 32.677C24.2962 33.1524 23.573 33.5857 22.81 33.9715C22.2946 34.2321 21.7875 34.4971 21.2887 34.7664Z" fill="url(#paint1_radial_1761_30318)"/>
<path fill-rule="evenodd" clip-rule="evenodd" d="M21.2887 34.7664C18.4175 18.9498 13.5821 9.8875 0.381836 5.78086C2.43364 4.53712 4.56241 3.35736 6.76625 2.24297C8.76772 1.23092 10.87 0.633276 12.9755 0.417969C18.05 2.60148 28.6415 13.9975 24.9777 32.677C24.2962 33.1524 23.573 33.5857 22.81 33.9715C22.2946 34.2321 21.7875 34.4971 21.2887 34.7664Z" fill="url(#paint2_radial_1761_30318)" fill-opacity="0.97"/>
</g>
<defs>
<linearGradient id="paint0_linear_1761_30318" x1="-42.7749" y1="-21.8316" x2="10.1963" y2="60.7737" gradientUnits="userSpaceOnUse">
<stop stop-color="#427DB6"/>
<stop offset="0.419203" stop-color="white"/>
<stop offset="1" stop-color="#427DB6"/>
</linearGradient>
<radialGradient id="paint1_radial_1761_30318" cx="0" cy="0" r="1" gradientUnits="userSpaceOnUse" gradientTransform="translate(86.6909 47.5738) rotate(134.014) scale(313.995 255.553)">
<stop stop-color="white" stop-opacity="0"/>
<stop offset="0.572917" stop-color="#3D77B1"/>
<stop offset="1" stop-color="#F7FBFF" stop-opacity="0"/>
</radialGradient>
<radialGradient id="paint2_radial_1761_30318" cx="0" cy="0" r="1" gradientUnits="userSpaceOnUse" gradientTransform="translate(58.8797 57.8684) rotate(146.112) scale(114.948 80.1393)">
<stop stop-color="white" stop-opacity="0"/>
<stop offset="0.50821" stop-color="#3D77B1"/>
<stop offset="1" stop-color="#B3D9FF" stop-opacity="0"/>
</radialGradient>
</defs>
</svg>
