<svg width="12" height="14" viewBox="0 0 12 14" fill="none" xmlns="http://www.w3.org/2000/svg">
<path fill-rule="evenodd" clip-rule="evenodd" d="M0.329102 5.76594C0.329102 2.69936 2.74313 0.220764 5.66315 0.220764C8.5914 0.220764 11.0054 2.69936 11.0054 5.76594C11.0054 7.31122 10.476 8.74585 9.60463 9.96181C8.64333 11.3031 7.45848 12.4717 6.1248 13.389C5.81957 13.601 5.54409 13.617 5.20909 13.389C3.86782 12.4717 2.68297 11.3031 1.7299 9.96181C0.857883 8.74585 0.329102 7.31122 0.329102 5.76594ZM3.90519 5.9386C3.90519 6.9659 4.69488 7.77388 5.66315 7.77388C6.63206 7.77388 7.42935 6.9659 7.42935 5.9386C7.42935 4.91929 6.63206 4.07199 5.66315 4.07199C4.69488 4.07199 3.90519 4.91929 3.90519 5.9386Z" fill="#14142A"/>
</svg>
