<svg width="11" height="14" viewBox="0 0 11 14" fill="none" xmlns="http://www.w3.org/2000/svg">
<path fill-rule="evenodd" clip-rule="evenodd" d="M0.197266 5.87916C0.197266 2.81258 2.6113 0.333984 5.53131 0.333984C8.45956 0.333984 10.8736 2.81258 10.8736 5.87916C10.8736 7.42444 10.3442 8.85907 9.4728 10.075C8.51149 11.4163 7.32664 12.585 5.99297 13.5023C5.68773 13.7143 5.41226 13.7303 5.07726 13.5023C3.73599 12.585 2.55114 11.4163 1.59806 10.075C0.726048 8.85907 0.197266 7.42444 0.197266 5.87916ZM3.77335 6.05182C3.77335 7.07912 4.56304 7.8871 5.53131 7.8871C6.50022 7.8871 7.29751 7.07912 7.29751 6.05182C7.29751 5.03252 6.50022 4.18521 5.53131 4.18521C4.56304 4.18521 3.77335 5.03252 3.77335 6.05182Z" fill="#14142A"/>
</svg>
