<svg width="11" height="14" viewBox="0 0 11 14" fill="none" xmlns="http://www.w3.org/2000/svg">
<path fill-rule="evenodd" clip-rule="evenodd" d="M0.198242 5.87916C0.198242 2.81258 2.61227 0.333984 5.53229 0.333984C8.46054 0.333984 10.8746 2.81258 10.8746 5.87916C10.8746 7.42444 10.3452 8.85907 9.47377 10.075C8.51247 11.4163 7.32762 12.585 5.99395 13.5023C5.68871 13.7143 5.41324 13.7303 5.07823 13.5023C3.73696 12.585 2.55211 11.4163 1.59904 10.075C0.727024 8.85907 0.198242 7.42444 0.198242 5.87916ZM3.77433 6.05182C3.77433 7.07912 4.56402 7.8871 5.53229 7.8871C6.5012 7.8871 7.29849 7.07912 7.29849 6.05182C7.29849 5.03252 6.5012 4.18521 5.53229 4.18521C4.56402 4.18521 3.77433 5.03252 3.77433 6.05182Z" fill="#14142A"/>
</svg>
