<svg width="12" height="14" viewBox="0 0 12 14" fill="none" xmlns="http://www.w3.org/2000/svg">
<path fill-rule="evenodd" clip-rule="evenodd" d="M0.333008 6.28876C0.333008 3.29317 2.8956 0.871948 5.99531 0.871948C9.10375 0.871948 11.6663 3.29317 11.6663 6.28876C11.6663 7.79828 11.1043 9.19969 10.1793 10.3875C9.15888 11.6978 7.90111 12.8393 6.48537 13.7354C6.16135 13.9425 5.86892 13.9581 5.51331 13.7354C4.0895 12.8393 2.83173 11.6978 1.82001 10.3875C0.89433 9.19969 0.333008 7.79828 0.333008 6.28876ZM4.12916 6.45743C4.12916 7.46095 4.96745 8.25022 5.99531 8.25022C7.02384 8.25022 7.87019 7.46095 7.87019 6.45743C7.87019 5.46172 7.02384 4.63402 5.99531 4.63402C4.96745 4.63402 4.12916 5.46172 4.12916 6.45743Z" fill="#55B3FF"/>
</svg>
