<svg width="11" height="14" viewBox="0 0 11 14" fill="none" xmlns="http://www.w3.org/2000/svg">
<path fill-rule="evenodd" clip-rule="evenodd" d="M0.305664 5.87916C0.305664 2.81258 2.7197 0.333984 5.63971 0.333984C8.56796 0.333984 10.982 2.81258 10.982 5.87916C10.982 7.42444 10.4526 8.85907 9.5812 10.075C8.61989 11.4163 7.43504 12.585 6.10137 13.5023C5.79613 13.7143 5.52066 13.7303 5.18566 13.5023C3.84439 12.585 2.65954 11.4163 1.70646 10.075C0.834446 8.85907 0.305664 7.42444 0.305664 5.87916ZM3.88175 6.05182C3.88175 7.07912 4.67144 7.8871 5.63971 7.8871C6.60862 7.8871 7.40591 7.07912 7.40591 6.05182C7.40591 5.03252 6.60862 4.18521 5.63971 4.18521C4.67144 4.18521 3.88175 5.03252 3.88175 6.05182Z" fill="#14142A"/>
</svg>
