<svg width="12" height="14" viewBox="0 0 12 14" fill="none" xmlns="http://www.w3.org/2000/svg">
<path fill-rule="evenodd" clip-rule="evenodd" d="M0.333008 6.28791C0.333008 3.29231 2.8956 0.871094 5.99531 0.871094C9.10375 0.871094 11.6663 3.29231 11.6663 6.28791C11.6663 7.79742 11.1043 9.19884 10.1793 10.3867C9.15888 11.6969 7.90111 12.8385 6.48537 13.7346C6.16135 13.9416 5.86892 13.9573 5.51331 13.7346C4.0895 12.8385 2.83173 11.6969 1.82001 10.3867C0.89433 9.19884 0.333008 7.79742 0.333008 6.28791ZM4.12916 6.45657C4.12916 7.46009 4.96745 8.24937 5.99531 8.24937C7.02384 8.24937 7.87019 7.46009 7.87019 6.45657C7.87019 5.46086 7.02384 4.63317 5.99531 4.63317C4.96745 4.63317 4.12916 5.46086 4.12916 6.45657Z" fill="#55B3FF"/>
</svg>
