<svg width="391" height="91" viewBox="0 0 391 91" fill="none" xmlns="http://www.w3.org/2000/svg">
<g filter="url(#filter0_d_1729_30748)">
<path d="M0 19H390V94H0V19Z" fill="white"/>
<path d="M39.0225 43.9751C39.0225 43.0215 39.4758 42.1248 40.2436 41.5594L49.1355 35.0117L58.0274 41.5594C58.7952 42.1248 59.2485 43.0215 59.2485 43.9751V54.7604C59.2485 56.1411 58.1292 57.2604 56.7485 57.2604H53.1694C52.6171 57.2604 52.1694 56.8127 52.1694 56.2604V50.1756C52.1694 49.8995 51.9455 49.6756 51.6694 49.6756H46.6016C46.3254 49.6756 46.1016 49.8995 46.1016 50.1756V56.2604C46.1016 56.8127 45.6539 57.2604 45.1016 57.2604H41.5225C40.1418 57.2604 39.0225 56.1411 39.0225 54.7604V43.9751Z" stroke="#CFD1DE" stroke-width="2.02261" stroke-linecap="round" stroke-linejoin="round"/>
<path d="M335.034 55.744L335.205 54.6439C335.414 53.303 336.289 52.1546 337.585 51.7531C339.195 51.2545 341.586 50.6875 344.136 50.6875C346.686 50.6875 349.077 51.2545 350.687 51.7531C351.983 52.1546 352.858 53.3031 353.067 54.6439L353.238 55.744" stroke="#CFD1DE" stroke-width="2.02261" stroke-linecap="round" stroke-linejoin="round"/>
<path d="M344.136 46.1365C346.928 46.1365 349.192 43.8726 349.192 41.08C349.192 38.2873 346.928 36.0234 344.136 36.0234C341.343 36.0234 339.079 38.2873 339.079 41.08C339.079 43.8726 341.343 46.1365 344.136 46.1365Z" stroke="#CFD1DE" stroke-width="2.02261" stroke-linecap="round" stroke-linejoin="round"/>
<path d="M226.92 71V63.7273H229.462C229.969 63.7273 230.387 63.8149 230.716 63.9901C231.045 64.1629 231.29 64.3961 231.451 64.6896C231.612 64.9808 231.692 65.304 231.692 65.6591C231.692 65.9716 231.637 66.2296 231.526 66.4332C231.417 66.6368 231.272 66.7978 231.092 66.9162C230.915 67.0346 230.722 67.1222 230.513 67.179V67.25C230.736 67.2642 230.96 67.3423 231.185 67.4844C231.41 67.6264 231.598 67.83 231.749 68.0952C231.901 68.3603 231.977 68.6847 231.977 69.0682C231.977 69.4328 231.894 69.7607 231.728 70.0518C231.562 70.343 231.301 70.5739 230.943 70.7443C230.586 70.9148 230.121 71 229.548 71H226.92ZM227.8 70.2188H229.548C230.123 70.2188 230.531 70.1075 230.773 69.8849C231.017 69.66 231.138 69.3878 231.138 69.0682C231.138 68.822 231.076 68.5947 230.95 68.3864C230.825 68.1757 230.646 68.0076 230.414 67.8821C230.182 67.7543 229.907 67.6903 229.59 67.6903H227.8V70.2188ZM227.8 66.9233H229.434C229.699 66.9233 229.938 66.8712 230.151 66.767C230.367 66.6629 230.537 66.5161 230.663 66.3267C230.79 66.1373 230.854 65.9148 230.854 65.6591C230.854 65.3395 230.743 65.0684 230.521 64.8459C230.298 64.621 229.945 64.5085 229.462 64.5085H227.8V66.9233ZM233.31 71V65.5455H234.148V71H233.31ZM233.736 64.6364C233.573 64.6364 233.432 64.5807 233.314 64.4695C233.198 64.3582 233.14 64.2244 233.14 64.0682C233.14 63.9119 233.198 63.7782 233.314 63.6669C233.432 63.5556 233.573 63.5 233.736 63.5C233.9 63.5 234.039 63.5556 234.155 63.6669C234.274 63.7782 234.333 63.9119 234.333 64.0682C234.333 64.2244 234.274 64.3582 234.155 64.4695C234.039 64.5807 233.9 64.6364 233.736 64.6364ZM236.521 63.7273V71H235.683V63.7273H236.521ZM238.894 63.7273V71H238.056V63.7273H238.894ZM242.716 71.1136C242.191 71.1136 241.737 70.9976 241.356 70.7656C240.977 70.5312 240.685 70.2045 240.479 69.7855C240.275 69.3641 240.173 68.8741 240.173 68.3153C240.173 67.7566 240.275 67.2642 240.479 66.8381C240.685 66.4096 240.971 66.0758 241.338 65.8366C241.708 65.5952 242.138 65.4744 242.631 65.4744C242.915 65.4744 243.195 65.5218 243.472 65.6165C243.749 65.7112 244.002 65.8651 244.229 66.0781C244.456 66.2888 244.637 66.5682 244.772 66.9162C244.907 67.2642 244.975 67.6927 244.975 68.2017V68.5568H240.77V67.8324H244.122C244.122 67.5246 244.061 67.25 243.938 67.0085C243.817 66.767 243.644 66.5765 243.419 66.4368C243.197 66.2971 242.934 66.2273 242.631 66.2273C242.297 66.2273 242.008 66.3101 241.764 66.4759C241.523 66.6392 241.337 66.8523 241.207 67.1151C241.077 67.3778 241.012 67.6596 241.012 67.9602V68.4432C241.012 68.8551 241.083 69.2043 241.225 69.4908C241.369 69.7749 241.569 69.9915 241.825 70.1406C242.08 70.2874 242.378 70.3608 242.716 70.3608C242.936 70.3608 243.135 70.33 243.313 70.2685C243.493 70.2045 243.648 70.1098 243.778 69.9844C243.908 69.8565 244.009 69.6979 244.08 69.5085L244.889 69.7358C244.804 70.0104 244.661 70.2519 244.46 70.4602C244.258 70.6662 244.01 70.8272 243.714 70.9432C243.418 71.0568 243.085 71.1136 242.716 71.1136ZM248.622 65.5455V66.2557H245.795V65.5455H248.622ZM246.619 64.2386H247.457V69.4375C247.457 69.6742 247.491 69.8518 247.56 69.9702C247.631 70.0862 247.721 70.1643 247.83 70.2045C247.941 70.2424 248.058 70.2614 248.181 70.2614C248.274 70.2614 248.349 70.2566 248.409 70.2472C248.468 70.2353 248.515 70.2259 248.551 70.2188L248.721 70.9716C248.664 70.9929 248.585 71.0142 248.483 71.0355C248.381 71.0592 248.252 71.071 248.096 71.071C247.859 71.071 247.627 71.0201 247.4 70.9183C247.175 70.8165 246.988 70.6615 246.839 70.4531C246.692 70.2448 246.619 69.982 246.619 69.6648V64.2386ZM252.111 71.1136C251.585 71.1136 251.132 70.9976 250.751 70.7656C250.372 70.5312 250.079 70.2045 249.873 69.7855C249.67 69.3641 249.568 68.8741 249.568 68.3153C249.568 67.7566 249.67 67.2642 249.873 66.8381C250.079 66.4096 250.366 66.0758 250.733 65.8366C251.102 65.5952 251.533 65.4744 252.025 65.4744C252.309 65.4744 252.59 65.5218 252.867 65.6165C253.144 65.7112 253.396 65.8651 253.623 66.0781C253.851 66.2888 254.032 66.5682 254.167 66.9162C254.302 67.2642 254.369 67.6927 254.369 68.2017V68.5568H250.165V67.8324H253.517C253.517 67.5246 253.455 67.25 253.332 67.0085C253.211 66.767 253.039 66.5765 252.814 66.4368C252.591 66.2971 252.328 66.2273 252.025 66.2273C251.692 66.2273 251.403 66.3101 251.159 66.4759C250.917 66.6392 250.732 66.8523 250.601 67.1151C250.471 67.3778 250.406 67.6596 250.406 67.9602V68.4432C250.406 68.8551 250.477 69.2043 250.619 69.4908C250.764 69.7749 250.964 69.9915 251.219 70.1406C251.475 70.2874 251.772 70.3608 252.111 70.3608C252.331 70.3608 252.53 70.33 252.707 70.2685C252.887 70.2045 253.042 70.1098 253.172 69.9844C253.303 69.8565 253.403 69.6979 253.474 69.5085L254.284 69.7358C254.199 70.0104 254.055 70.2519 253.854 70.4602C253.653 70.6662 253.404 70.8272 253.108 70.9432C252.813 71.0568 252.48 71.1136 252.111 71.1136ZM255.644 71V65.5455H256.454V66.3693H256.51C256.61 66.0994 256.79 65.8804 257.05 65.7124C257.311 65.5443 257.604 65.4602 257.931 65.4602C257.992 65.4602 258.069 65.4614 258.162 65.4638C258.254 65.4661 258.324 65.4697 258.371 65.4744V66.3267C258.343 66.3196 258.278 66.3089 258.176 66.2947C258.077 66.2782 257.971 66.2699 257.86 66.2699C257.595 66.2699 257.358 66.3255 257.15 66.4368C256.944 66.5457 256.78 66.6972 256.66 66.8913C256.541 67.0831 256.482 67.3021 256.482 67.5483V71H255.644ZM260.97 71.1278C260.624 71.1278 260.31 71.0627 260.029 70.9325C259.747 70.8 259.523 70.6094 259.358 70.3608C259.192 70.1098 259.109 69.8068 259.109 69.4517C259.109 69.1392 259.171 68.8859 259.294 68.6918C259.417 68.4953 259.581 68.3414 259.787 68.2301C259.993 68.1188 260.221 68.036 260.469 67.9815C260.72 67.9247 260.972 67.8797 261.225 67.8466C261.557 67.804 261.826 67.772 262.032 67.7507C262.24 67.727 262.391 67.688 262.486 67.6335C262.583 67.5791 262.632 67.4844 262.632 67.3494V67.321C262.632 66.9706 262.536 66.6984 262.344 66.5043C262.155 66.3101 261.867 66.2131 261.481 66.2131C261.081 66.2131 260.767 66.3007 260.54 66.4759C260.313 66.651 260.153 66.8381 260.061 67.0369L259.265 66.7528C259.407 66.4214 259.597 66.1634 259.833 65.9787C260.073 65.7917 260.333 65.6615 260.615 65.5881C260.899 65.5123 261.178 65.4744 261.453 65.4744C261.628 65.4744 261.829 65.4957 262.056 65.5384C262.286 65.5786 262.507 65.6626 262.721 65.7905C262.936 65.9183 263.115 66.1113 263.257 66.3693C263.399 66.6274 263.47 66.973 263.47 67.4062V71H262.632V70.2614H262.589C262.532 70.3797 262.438 70.5064 262.305 70.6413C262.172 70.7763 261.996 70.8911 261.776 70.9858C261.556 71.0805 261.287 71.1278 260.97 71.1278ZM261.098 70.375C261.429 70.375 261.708 70.3099 261.936 70.1797C262.165 70.0495 262.338 69.8814 262.454 69.6754C262.573 69.4695 262.632 69.2528 262.632 69.0256V68.2585C262.596 68.3011 262.518 68.3402 262.397 68.3757C262.279 68.4089 262.142 68.4384 261.985 68.4645C261.832 68.4882 261.681 68.5095 261.534 68.5284C261.39 68.545 261.273 68.5592 261.183 68.571C260.965 68.5994 260.761 68.6456 260.572 68.7095C260.385 68.7711 260.234 68.8646 260.118 68.9901C260.004 69.1132 259.947 69.2812 259.947 69.4943C259.947 69.7855 260.055 70.0057 260.27 70.1548C260.488 70.3016 260.764 70.375 261.098 70.375Z" fill="#CFD1DE"/>
<path d="M331.756 71V63.7273H334.213C334.784 63.7273 335.25 63.8303 335.612 64.0362C335.977 64.2398 336.247 64.5156 336.422 64.8636C336.597 65.2116 336.685 65.5999 336.685 66.0284C336.685 66.4569 336.597 66.8464 336.422 67.1967C336.249 67.5471 335.982 67.8265 335.619 68.0348C335.257 68.2408 334.793 68.3438 334.227 68.3438H332.466V67.5625H334.199C334.589 67.5625 334.903 67.495 335.14 67.3601C335.377 67.2251 335.548 67.0429 335.655 66.8132C335.764 66.5812 335.818 66.3196 335.818 66.0284C335.818 65.7372 335.764 65.4768 335.655 65.2472C335.548 65.0175 335.375 64.8376 335.136 64.7074C334.897 64.5748 334.58 64.5085 334.185 64.5085H332.636V71H331.756ZM340.218 71.1136C339.692 71.1136 339.239 70.9976 338.858 70.7656C338.479 70.5312 338.187 70.2045 337.981 69.7855C337.777 69.3641 337.675 68.8741 337.675 68.3153C337.675 67.7566 337.777 67.2642 337.981 66.8381C338.187 66.4096 338.473 66.0758 338.84 65.8366C339.21 65.5952 339.64 65.4744 340.133 65.4744C340.417 65.4744 340.697 65.5218 340.974 65.6165C341.251 65.7112 341.504 65.8651 341.731 66.0781C341.958 66.2888 342.139 66.5682 342.274 66.9162C342.409 67.2642 342.477 67.6927 342.477 68.2017V68.5568H338.272V67.8324H341.624C341.624 67.5246 341.563 67.25 341.44 67.0085C341.319 66.767 341.146 66.5765 340.921 66.4368C340.699 66.2971 340.436 66.2273 340.133 66.2273C339.799 66.2273 339.51 66.3101 339.266 66.4759C339.025 66.6392 338.839 66.8523 338.709 67.1151C338.579 67.3778 338.513 67.6596 338.513 67.9602V68.4432C338.513 68.8551 338.585 69.2043 338.727 69.4908C338.871 69.7749 339.071 69.9915 339.327 70.1406C339.582 70.2874 339.879 70.3608 340.218 70.3608C340.438 70.3608 340.637 70.33 340.815 70.2685C340.995 70.2045 341.15 70.1098 341.28 69.9844C341.41 69.8565 341.511 69.6979 341.582 69.5085L342.391 69.7358C342.306 70.0104 342.163 70.2519 341.962 70.4602C341.76 70.6662 341.512 70.8272 341.216 70.9432C340.92 71.0568 340.587 71.1136 340.218 71.1136ZM343.751 71V65.5455H344.561V66.3693H344.618C344.717 66.0994 344.897 65.8804 345.158 65.7124C345.418 65.5443 345.712 65.4602 346.038 65.4602C346.1 65.4602 346.177 65.4614 346.269 65.4638C346.362 65.4661 346.431 65.4697 346.479 65.4744V66.3267C346.45 66.3196 346.385 66.3089 346.283 66.2947C346.184 66.2782 346.079 66.2699 345.967 66.2699C345.702 66.2699 345.465 66.3255 345.257 66.4368C345.051 66.5457 344.888 66.6972 344.767 66.8913C344.649 67.0831 344.589 67.3021 344.589 67.5483V71H343.751ZM350.243 65.5455V66.2557H347.303V65.5455H350.243ZM348.183 71V64.7926C348.183 64.4801 348.257 64.2197 348.403 64.0114C348.55 63.803 348.741 63.6468 348.975 63.5426C349.21 63.4384 349.457 63.3864 349.717 63.3864C349.923 63.3864 350.091 63.4029 350.222 63.4361C350.352 63.4692 350.449 63.5 350.513 63.5284L350.271 64.2528C350.229 64.2386 350.17 64.2209 350.094 64.1996C350.02 64.1783 349.923 64.1676 349.803 64.1676C349.526 64.1676 349.326 64.2375 349.202 64.3771C349.082 64.5168 349.021 64.7216 349.021 64.9915V71H348.183ZM351.417 71V65.5455H352.256V71H351.417ZM351.844 64.6364C351.68 64.6364 351.539 64.5807 351.421 64.4695C351.305 64.3582 351.247 64.2244 351.247 64.0682C351.247 63.9119 351.305 63.7782 351.421 63.6669C351.539 63.5556 351.68 63.5 351.844 63.5C352.007 63.5 352.147 63.5556 352.263 63.6669C352.381 63.7782 352.44 63.9119 352.44 64.0682C352.44 64.2244 352.381 64.3582 352.263 64.4695C352.147 64.5807 352.007 64.6364 351.844 64.6364ZM354.629 63.7273V71H353.79V63.7273H354.629Z" fill="#CFD1DE"/>
<path d="M142.079 37.0352H141.068C139.393 37.0352 138.034 38.3935 138.034 40.0691V54.2273C138.034 55.9029 139.393 57.2612 141.068 57.2612H153.204C154.879 57.2612 156.238 55.9029 156.238 54.2273V40.0691C156.238 38.3935 154.879 37.0352 153.204 37.0352H152.192" stroke="#CFD1DE" stroke-width="2.02261"/>
<rect x="142.079" y="35.0117" width="10.113" height="5.05651" rx="2.02261" stroke="#CFD1DE" stroke-width="2.02261"/>
<path d="M124.408 71V63.7273H126.865C127.436 63.7273 127.902 63.8303 128.265 64.0362C128.629 64.2398 128.899 64.5156 129.074 64.8636C129.249 65.2116 129.337 65.5999 129.337 66.0284C129.337 66.4569 129.249 66.8464 129.074 67.1967C128.901 67.5471 128.634 67.8265 128.272 68.0348C127.909 68.2408 127.445 68.3438 126.88 68.3438H125.118V67.5625H126.851C127.242 67.5625 127.556 67.495 127.792 67.3601C128.029 67.2251 128.201 67.0429 128.307 66.8132C128.416 66.5812 128.471 66.3196 128.471 66.0284C128.471 65.7372 128.416 65.4768 128.307 65.2472C128.201 65.0175 128.028 64.8376 127.789 64.7074C127.55 64.5748 127.232 64.5085 126.837 64.5085H125.289V71H124.408ZM130.642 71V65.5455H131.452V66.3693H131.509C131.608 66.0994 131.788 65.8804 132.048 65.7124C132.309 65.5443 132.602 65.4602 132.929 65.4602C132.991 65.4602 133.067 65.4614 133.16 65.4638C133.252 65.4661 133.322 65.4697 133.369 65.4744V66.3267C133.341 66.3196 133.276 66.3089 133.174 66.2947C133.075 66.2782 132.969 66.2699 132.858 66.2699C132.593 66.2699 132.356 66.3255 132.148 66.4368C131.942 66.5457 131.778 66.6972 131.658 66.8913C131.539 67.0831 131.48 67.3021 131.48 67.5483V71H130.642ZM136.413 71.1136C135.92 71.1136 135.488 70.9964 135.116 70.7621C134.747 70.5277 134.458 70.1998 134.25 69.7784C134.044 69.357 133.941 68.8646 133.941 68.3011C133.941 67.733 134.044 67.237 134.25 66.8132C134.458 66.3894 134.747 66.0604 135.116 65.826C135.488 65.5916 135.92 65.4744 136.413 65.4744C136.905 65.4744 137.336 65.5916 137.705 65.826C138.077 66.0604 138.366 66.3894 138.572 66.8132C138.78 67.237 138.884 67.733 138.884 68.3011C138.884 68.8646 138.78 69.357 138.572 69.7784C138.366 70.1998 138.077 70.5277 137.705 70.7621C137.336 70.9964 136.905 71.1136 136.413 71.1136ZM136.413 70.3608C136.787 70.3608 137.094 70.2649 137.336 70.0732C137.577 69.8814 137.756 69.6293 137.872 69.3168C137.988 69.0043 138.046 68.6657 138.046 68.3011C138.046 67.9366 137.988 67.5968 137.872 67.282C137.756 66.9671 137.577 66.7126 137.336 66.5185C137.094 66.3243 136.787 66.2273 136.413 66.2273C136.039 66.2273 135.731 66.3243 135.489 66.5185C135.248 66.7126 135.069 66.9671 134.953 67.282C134.837 67.5968 134.779 67.9366 134.779 68.3011C134.779 68.6657 134.837 69.0043 134.953 69.3168C135.069 69.6293 135.248 69.8814 135.489 70.0732C135.731 70.2649 136.039 70.3608 136.413 70.3608ZM140.508 73.0455C140.366 73.0455 140.239 73.0336 140.128 73.0099C140.017 72.9886 139.94 72.9673 139.897 72.946L140.11 72.2074C140.314 72.2595 140.494 72.2784 140.65 72.2642C140.806 72.25 140.945 72.1802 141.066 72.0547C141.189 71.9316 141.301 71.7315 141.403 71.4545L141.559 71.0284L139.542 65.5455H140.451L141.957 69.892H142.014L143.519 65.5455H144.428L142.113 71.7955C142.009 72.0772 141.88 72.3104 141.726 72.495C141.572 72.6821 141.393 72.8205 141.19 72.9105C140.989 73.0005 140.761 73.0455 140.508 73.0455ZM147.626 71.1136C147.101 71.1136 146.647 70.9976 146.266 70.7656C145.887 70.5312 145.595 70.2045 145.389 69.7855C145.185 69.3641 145.084 68.8741 145.084 68.3153C145.084 67.7566 145.185 67.2642 145.389 66.8381C145.595 66.4096 145.881 66.0758 146.248 65.8366C146.618 65.5952 147.049 65.4744 147.541 65.4744C147.825 65.4744 148.106 65.5218 148.383 65.6165C148.66 65.7112 148.912 65.8651 149.139 66.0781C149.366 66.2888 149.547 66.5682 149.682 66.9162C149.817 67.2642 149.885 67.6927 149.885 68.2017V68.5568H145.68V67.8324H149.032C149.032 67.5246 148.971 67.25 148.848 67.0085C148.727 66.767 148.554 66.5765 148.329 66.4368C148.107 66.2971 147.844 66.2273 147.541 66.2273C147.207 66.2273 146.918 66.3101 146.675 66.4759C146.433 66.6392 146.247 66.8523 146.117 67.1151C145.987 67.3778 145.922 67.6596 145.922 67.9602V68.4432C145.922 68.8551 145.993 69.2043 146.135 69.4908C146.279 69.7749 146.479 69.9915 146.735 70.1406C146.991 70.2874 147.288 70.3608 147.626 70.3608C147.846 70.3608 148.045 70.33 148.223 70.2685C148.403 70.2045 148.558 70.1098 148.688 69.9844C148.818 69.8565 148.919 69.6979 148.99 69.5085L149.8 69.7358C149.714 70.0104 149.571 70.2519 149.37 70.4602C149.169 70.6662 148.92 70.8272 148.624 70.9432C148.328 71.0568 147.996 71.1136 147.626 71.1136ZM153.376 71.1136C152.864 71.1136 152.424 70.9929 152.055 70.7514C151.685 70.5099 151.401 70.1773 151.202 69.7536C151.003 69.3298 150.904 68.8456 150.904 68.3011C150.904 67.7472 151.006 67.2583 151.209 66.8345C151.415 66.4084 151.702 66.0758 152.069 65.8366C152.438 65.5952 152.869 65.4744 153.361 65.4744C153.745 65.4744 154.09 65.5455 154.398 65.6875C154.706 65.8295 154.958 66.0284 155.155 66.2841C155.351 66.5398 155.473 66.8381 155.52 67.179H154.682C154.618 66.9304 154.476 66.7102 154.256 66.5185C154.038 66.3243 153.745 66.2273 153.376 66.2273C153.049 66.2273 152.762 66.3125 152.516 66.483C152.272 66.651 152.082 66.889 151.944 67.1967C151.809 67.5021 151.742 67.8608 151.742 68.2727C151.742 68.6941 151.808 69.0611 151.941 69.3736C152.076 69.6861 152.265 69.9287 152.509 70.1016C152.755 70.2744 153.044 70.3608 153.376 70.3608C153.593 70.3608 153.791 70.3229 153.969 70.2472C154.146 70.1714 154.296 70.0625 154.42 69.9205C154.543 69.7784 154.63 69.608 154.682 69.4091H155.52C155.473 69.7311 155.356 70.0211 155.169 70.2791C154.984 70.5348 154.739 70.7384 154.434 70.8899C154.131 71.0391 153.778 71.1136 153.376 71.1136ZM159.118 65.5455V66.2557H156.291V65.5455H159.118ZM157.115 64.2386H157.953V69.4375C157.953 69.6742 157.987 69.8518 158.056 69.9702C158.127 70.0862 158.217 70.1643 158.326 70.2045C158.437 70.2424 158.554 70.2614 158.677 70.2614C158.77 70.2614 158.845 70.2566 158.905 70.2472C158.964 70.2353 159.011 70.2259 159.047 70.2188L159.217 70.9716C159.16 70.9929 159.081 71.0142 158.979 71.0355C158.877 71.0592 158.748 71.071 158.592 71.071C158.355 71.071 158.123 71.0201 157.896 70.9183C157.671 70.8165 157.484 70.6615 157.335 70.4531C157.188 70.2448 157.115 69.982 157.115 69.6648V64.2386ZM162.536 71.1136C162.043 71.1136 161.611 70.9964 161.24 70.7621C160.87 70.5277 160.581 70.1998 160.373 69.7784C160.167 69.357 160.064 68.8646 160.064 68.3011C160.064 67.733 160.167 67.237 160.373 66.8132C160.581 66.3894 160.87 66.0604 161.24 65.826C161.611 65.5916 162.043 65.4744 162.536 65.4744C163.028 65.4744 163.459 65.5916 163.828 65.826C164.2 66.0604 164.489 66.3894 164.695 66.8132C164.903 67.237 165.007 67.733 165.007 68.3011C165.007 68.8646 164.903 69.357 164.695 69.7784C164.489 70.1998 164.2 70.5277 163.828 70.7621C163.459 70.9964 163.028 71.1136 162.536 71.1136ZM162.536 70.3608C162.91 70.3608 163.218 70.2649 163.459 70.0732C163.7 69.8814 163.879 69.6293 163.995 69.3168C164.111 69.0043 164.169 68.6657 164.169 68.3011C164.169 67.9366 164.111 67.5968 163.995 67.282C163.879 66.9671 163.7 66.7126 163.459 66.5185C163.218 66.3243 162.91 66.2273 162.536 66.2273C162.162 66.2273 161.854 66.3243 161.612 66.5185C161.371 66.7126 161.192 66.9671 161.076 67.282C160.96 67.5968 160.902 67.9366 160.902 68.3011C160.902 68.6657 160.96 69.0043 161.076 69.3168C161.192 69.6293 161.371 69.8814 161.612 70.0732C161.854 70.2649 162.162 70.3608 162.536 70.3608ZM170.15 66.767L169.397 66.9801C169.35 66.8546 169.28 66.7327 169.188 66.6143C169.098 66.4936 168.975 66.3942 168.819 66.3161C168.662 66.2379 168.462 66.1989 168.218 66.1989C167.885 66.1989 167.606 66.2758 167.384 66.4297C167.164 66.5812 167.054 66.7741 167.054 67.0085C167.054 67.2169 167.129 67.3814 167.281 67.5021C167.432 67.6229 167.669 67.7235 167.991 67.804L168.801 68.0028C169.288 68.1212 169.652 68.3023 169.891 68.5462C170.13 68.7876 170.25 69.099 170.25 69.4801C170.25 69.7926 170.16 70.072 169.98 70.3182C169.802 70.5644 169.554 70.7585 169.234 70.9006C168.914 71.0426 168.543 71.1136 168.119 71.1136C167.563 71.1136 167.102 70.9929 166.738 70.7514C166.373 70.5099 166.142 70.1572 166.045 69.6932L166.841 69.4943C166.916 69.7879 167.06 70.008 167.27 70.1548C167.483 70.3016 167.761 70.375 168.105 70.375C168.495 70.375 168.806 70.2921 169.035 70.1264C169.267 69.9583 169.383 69.7571 169.383 69.5227C169.383 69.3333 169.317 69.1747 169.184 69.0469C169.052 68.9167 168.848 68.8196 168.574 68.7557L167.664 68.5426C167.165 68.4242 166.798 68.2408 166.564 67.9922C166.332 67.7412 166.216 67.4276 166.216 67.0511C166.216 66.7434 166.302 66.4711 166.475 66.2344C166.65 65.9976 166.888 65.8118 167.189 65.6768C167.492 65.5419 167.835 65.4744 168.218 65.4744C168.758 65.4744 169.182 65.5928 169.49 65.8295C169.8 66.0663 170.02 66.3788 170.15 66.767Z" fill="#CFD1DE"/>
<path d="M36.076 71V63.7273H36.9567V66.9659H40.8345V63.7273H41.7152V71H40.8345V67.7472H36.9567V71H36.076ZM45.5806 71.1136C45.0882 71.1136 44.6561 70.9964 44.2844 70.7621C43.9151 70.5277 43.6263 70.1998 43.418 69.7784C43.212 69.357 43.109 68.8646 43.109 68.3011C43.109 67.733 43.212 67.237 43.418 66.8132C43.6263 66.3894 43.9151 66.0604 44.2844 65.826C44.6561 65.5916 45.0882 65.4744 45.5806 65.4744C46.073 65.4744 46.5039 65.5916 46.8732 65.826C47.2449 66.0604 47.5337 66.3894 47.7397 66.8132C47.948 67.237 48.0522 67.733 48.0522 68.3011C48.0522 68.8646 47.948 69.357 47.7397 69.7784C47.5337 70.1998 47.2449 70.5277 46.8732 70.7621C46.5039 70.9964 46.073 71.1136 45.5806 71.1136ZM45.5806 70.3608C45.9547 70.3608 46.2624 70.2649 46.5039 70.0732C46.7454 69.8814 46.9241 69.6293 47.0401 69.3168C47.1561 69.0043 47.2141 68.6657 47.2141 68.3011C47.2141 67.9366 47.1561 67.5968 47.0401 67.282C46.9241 66.9671 46.7454 66.7126 46.5039 66.5185C46.2624 66.3243 45.9547 66.2273 45.5806 66.2273C45.2066 66.2273 44.8988 66.3243 44.6573 66.5185C44.4158 66.7126 44.2371 66.9671 44.1211 67.282C44.0051 67.5968 43.9471 67.9366 43.9471 68.3011C43.9471 68.6657 44.0051 69.0043 44.1211 69.3168C44.2371 69.6293 44.4158 69.8814 44.6573 70.0732C44.8988 70.2649 45.2066 70.3608 45.5806 70.3608ZM49.3315 71V65.5455H50.1412V66.3977H50.2122C50.3258 66.1065 50.5093 65.8804 50.7626 65.7195C51.0159 65.5561 51.3201 65.4744 51.6752 65.4744C52.0351 65.4744 52.3346 65.5561 52.5737 65.7195C52.8152 65.8804 53.0034 66.1065 53.1383 66.3977H53.1951C53.3348 66.116 53.5443 65.8923 53.8237 65.7266C54.103 65.5585 54.438 65.4744 54.8287 65.4744C55.3163 65.4744 55.7153 65.6271 56.0254 65.9325C56.3355 66.2356 56.4906 66.7079 56.4906 67.3494V71H55.6525V67.3494C55.6525 66.947 55.5424 66.6593 55.3223 66.4865C55.1021 66.3137 54.8429 66.2273 54.5446 66.2273C54.161 66.2273 53.8639 66.3433 53.6532 66.5753C53.4425 66.8049 53.3372 67.0961 53.3372 67.4489V71H52.4849V67.2642C52.4849 66.9541 52.3843 66.7043 52.1831 66.5149C51.9818 66.3232 51.7226 66.2273 51.4054 66.2273C51.1876 66.2273 50.984 66.2853 50.7946 66.4013C50.6075 66.5173 50.456 66.6783 50.34 66.8842C50.2264 67.0878 50.1696 67.3234 50.1696 67.5909V71H49.3315ZM60.3098 71.1136C59.7843 71.1136 59.3309 70.9976 58.9498 70.7656C58.571 70.5312 58.2786 70.2045 58.0726 69.7855C57.869 69.3641 57.7672 68.8741 57.7672 68.3153C57.7672 67.7566 57.869 67.2642 58.0726 66.8381C58.2786 66.4096 58.565 66.0758 58.932 65.8366C59.3013 65.5952 59.7322 65.4744 60.2246 65.4744C60.5087 65.4744 60.7892 65.5218 61.0662 65.6165C61.3432 65.7112 61.5953 65.8651 61.8226 66.0781C62.0499 66.2888 62.231 66.5682 62.3659 66.9162C62.5009 67.2642 62.5684 67.6927 62.5684 68.2017V68.5568H58.3638V67.8324H61.7161C61.7161 67.5246 61.6545 67.25 61.5314 67.0085C61.4107 66.767 61.2379 66.5765 61.013 66.4368C60.7904 66.2971 60.5276 66.2273 60.2246 66.2273C59.8908 66.2273 59.602 66.3101 59.3581 66.4759C59.1167 66.6392 58.9308 66.8523 58.8006 67.1151C58.6704 67.3778 58.6053 67.6596 58.6053 67.9602V68.4432C58.6053 68.8551 58.6763 69.2043 58.8184 69.4908C58.9628 69.7749 59.1628 69.9915 59.4185 70.1406C59.6742 70.2874 59.9713 70.3608 60.3098 70.3608C60.53 70.3608 60.7289 70.33 60.9064 70.2685C61.0864 70.2045 61.2414 70.1098 61.3716 69.9844C61.5018 69.8565 61.6025 69.6979 61.6735 69.5085L62.4831 69.7358C62.3979 70.0104 62.2547 70.2519 62.0534 70.4602C61.8522 70.6662 61.6036 70.8272 61.3077 70.9432C61.0118 71.0568 60.6792 71.1136 60.3098 71.1136Z" fill="#CFD1DE"/>
<path d="M254.231 38.0569C254.789 38.0569 255.241 37.6047 255.241 37.0469C255.241 36.4891 254.789 36.0369 254.231 36.0369V38.0569ZM235.538 38.9778C235.538 38.42 235.086 37.9678 234.528 37.9678C233.97 37.9678 233.518 38.42 233.518 38.9778H235.538ZM237.074 38.0569H254.231V36.0369H237.074V38.0569ZM253.197 56.2629H237.074V58.2829H253.197V56.2629ZM235.054 54.2429V40.0769H233.034V54.2429H235.054ZM236.548 42.0076H253.197V39.9876H236.548V42.0076ZM255.217 44.0276V54.2429H257.237V44.0276H255.217ZM236.548 39.9876C235.99 39.9876 235.538 39.5355 235.538 38.9778H233.518C233.518 40.6511 234.875 42.0076 236.548 42.0076V39.9876ZM237.074 56.2629C235.958 56.2629 235.054 55.3585 235.054 54.2429H233.034C233.034 56.4742 234.843 58.2829 237.074 58.2829V56.2629ZM253.197 58.2829C255.429 58.2829 257.237 56.4742 257.237 54.2429H255.217C255.217 55.3585 254.313 56.2629 253.197 56.2629V58.2829ZM253.197 42.0076C254.313 42.0076 255.217 42.912 255.217 44.0276H257.237C257.237 41.7963 255.429 39.9876 253.197 39.9876V42.0076ZM237.074 36.0369C234.843 36.0369 233.034 37.8456 233.034 40.0769H235.054C235.054 38.9613 235.958 38.0569 237.074 38.0569V36.0369Z" fill="#CFD1DE"/>
</g>
<defs>
<filter id="filter0_d_1729_30748" x="-13" y="0" width="416" height="101" filterUnits="userSpaceOnUse" color-interpolation-filters="sRGB">
<feFlood flood-opacity="0" result="BackgroundImageFix"/>
<feColorMatrix in="SourceAlpha" type="matrix" values="0 0 0 0 0 0 0 0 0 0 0 0 0 0 0 0 0 0 127 0" result="hardAlpha"/>
<feOffset dy="-6"/>
<feGaussianBlur stdDeviation="6.5"/>
<feComposite in2="hardAlpha" operator="out"/>
<feColorMatrix type="matrix" values="0 0 0 0 0 0 0 0 0 0 0 0 0 0 0 0 0 0 0.04 0"/>
<feBlend mode="normal" in2="BackgroundImageFix" result="effect1_dropShadow_1729_30748"/>
<feBlend mode="normal" in="SourceGraphic" in2="effect1_dropShadow_1729_30748" result="shape"/>
</filter>
</defs>
</svg>
