<svg width="390" height="95" viewBox="0 0 390 95" fill="none" xmlns="http://www.w3.org/2000/svg">
<g filter="url(#filter0_d_1489_28033)">
<path d="M0 19.8875H390V94.8875H0V19.8875Z" fill="white"/>
<path d="M335.034 56.6305L335.205 55.5304C335.414 54.1895 336.289 53.041 337.585 52.6395C339.195 52.1409 341.586 51.5739 344.136 51.5739C346.686 51.5739 349.077 52.1409 350.687 52.6395C351.983 53.041 352.858 54.1895 353.067 55.5304L353.238 56.6305" stroke="#CFD1DE" stroke-width="2.02261" stroke-linecap="round" stroke-linejoin="round"/>
<path d="M344.136 47.0231C346.928 47.0231 349.192 44.7592 349.192 41.9666C349.192 39.1739 346.928 36.91 344.136 36.91C341.343 36.91 339.079 39.1739 339.079 41.9666C339.079 44.7592 341.343 47.0231 344.136 47.0231Z" stroke="#CFD1DE" stroke-width="2.02261" stroke-linecap="round" stroke-linejoin="round"/>
<path d="M331.756 71.8875V64.6147H334.213C334.784 64.6147 335.25 64.7177 335.612 64.9237C335.977 65.1273 336.247 65.4031 336.422 65.7511C336.597 66.0991 336.685 66.4874 336.685 66.9159C336.685 67.3444 336.597 67.7338 336.422 68.0842C336.249 68.4346 335.982 68.7139 335.619 68.9223C335.257 69.1282 334.793 69.2312 334.227 69.2312H332.466V68.45H334.199C334.589 68.45 334.903 68.3825 335.14 68.2475C335.377 68.1126 335.548 67.9303 335.655 67.7007C335.764 67.4687 335.818 67.2071 335.818 66.9159C335.818 66.6247 335.764 66.3643 335.655 66.1346C335.548 65.905 335.375 65.725 335.136 65.5948C334.897 65.4623 334.58 65.396 334.185 65.396H332.636V71.8875H331.756ZM340.218 72.0011C339.692 72.0011 339.239 71.8851 338.858 71.6531C338.479 71.4187 338.187 71.092 337.981 70.673C337.777 70.2516 337.675 69.7615 337.675 69.2028C337.675 68.6441 337.777 68.1517 337.981 67.7255C338.187 67.297 338.473 66.9632 338.84 66.7241C339.21 66.4826 339.64 66.3619 340.133 66.3619C340.417 66.3619 340.697 66.4092 340.974 66.5039C341.251 66.5986 341.504 66.7525 341.731 66.9656C341.958 67.1763 342.139 67.4556 342.274 67.8036C342.409 68.1517 342.477 68.5802 342.477 69.0892V69.4443H338.272V68.7198H341.624C341.624 68.4121 341.563 68.1375 341.44 67.896C341.319 67.6545 341.146 67.4639 340.921 67.3242C340.699 67.1846 340.436 67.1147 340.133 67.1147C339.799 67.1147 339.51 67.1976 339.266 67.3633C339.025 67.5267 338.839 67.7397 338.709 68.0025C338.579 68.2653 338.513 68.547 338.513 68.8477V69.3306C338.513 69.7426 338.585 70.0918 338.727 70.3782C338.871 70.6623 339.071 70.8789 339.327 71.0281C339.582 71.1749 339.879 71.2482 340.218 71.2482C340.438 71.2482 340.637 71.2175 340.815 71.1559C340.995 71.092 341.15 70.9973 341.28 70.8718C341.41 70.744 341.511 70.5854 341.582 70.396L342.391 70.6232C342.306 70.8979 342.163 71.1393 341.962 71.3477C341.76 71.5536 341.512 71.7146 341.216 71.8306C340.92 71.9443 340.587 72.0011 340.218 72.0011ZM343.751 71.8875V66.4329H344.561V67.2568H344.618C344.717 66.9869 344.897 66.7679 345.158 66.5998C345.418 66.4317 345.712 66.3477 346.038 66.3477C346.1 66.3477 346.177 66.3489 346.269 66.3512C346.362 66.3536 346.431 66.3571 346.479 66.3619V67.2142C346.45 67.2071 346.385 67.1964 346.283 67.1822C346.184 67.1656 346.079 67.1573 345.967 67.1573C345.702 67.1573 345.465 67.213 345.257 67.3242C345.051 67.4331 344.888 67.5847 344.767 67.7788C344.649 67.9705 344.589 68.1895 344.589 68.4357V71.8875H343.751ZM350.243 66.4329V67.1431H347.303V66.4329H350.243ZM348.183 71.8875V65.6801C348.183 65.3676 348.257 65.1071 348.403 64.8988C348.55 64.6905 348.741 64.5342 348.975 64.4301C349.21 64.3259 349.457 64.2738 349.717 64.2738C349.923 64.2738 350.091 64.2904 350.222 64.3235C350.352 64.3567 350.449 64.3875 350.513 64.4159L350.271 65.1403C350.229 65.1261 350.17 65.1083 350.094 65.087C350.02 65.0657 349.923 65.0551 349.803 65.0551C349.526 65.0551 349.326 65.1249 349.202 65.2646C349.082 65.4043 349.021 65.609 349.021 65.8789V71.8875H348.183ZM351.417 71.8875V66.4329H352.256V71.8875H351.417ZM351.844 65.5238C351.68 65.5238 351.539 65.4682 351.421 65.3569C351.305 65.2456 351.247 65.1119 351.247 64.9556C351.247 64.7994 351.305 64.6656 351.421 64.5544C351.539 64.4431 351.68 64.3875 351.844 64.3875C352.007 64.3875 352.147 64.4431 352.263 64.5544C352.381 64.6656 352.44 64.7994 352.44 64.9556C352.44 65.1119 352.381 65.2456 352.263 65.3569C352.147 65.4682 352.007 65.5238 351.844 65.5238ZM354.629 64.6147V71.8875H353.79V64.6147H354.629Z" fill="#CFD1DE"/>
<path d="M142.079 37.9214H141.068C139.393 37.9214 138.034 39.2797 138.034 40.9553V55.1135C138.034 56.7891 139.393 58.1474 141.068 58.1474H153.204C154.879 58.1474 156.238 56.7891 156.238 55.1135V40.9553C156.238 39.2797 154.879 37.9214 153.204 37.9214H152.192" stroke="#CFD1DE" stroke-width="2.02261"/>
<rect x="142.079" y="35.8988" width="10.113" height="5.05651" rx="2.02261" stroke="#CFD1DE" stroke-width="2.02261"/>
<path d="M124.407 71.8875V64.6147H126.864C127.435 64.6147 127.901 64.7177 128.264 64.9237C128.628 65.1273 128.898 65.4031 129.073 65.7511C129.248 66.0991 129.336 66.4874 129.336 66.9159C129.336 67.3444 129.248 67.7338 129.073 68.0842C128.9 68.4346 128.633 68.7139 128.271 68.9223C127.908 69.1282 127.444 69.2312 126.879 69.2312H125.117V68.45H126.85C127.241 68.45 127.555 68.3825 127.791 68.2475C128.028 68.1126 128.2 67.9303 128.306 67.7007C128.415 67.4687 128.47 67.2071 128.47 66.9159C128.47 66.6247 128.415 66.3643 128.306 66.1346C128.2 65.905 128.027 65.725 127.788 65.5948C127.549 65.4623 127.231 65.396 126.836 65.396H125.288V71.8875H124.407ZM130.641 71.8875V66.4329H131.451V67.2568H131.508C131.607 66.9869 131.787 66.7679 132.047 66.5998C132.308 66.4317 132.601 66.3477 132.928 66.3477C132.99 66.3477 133.066 66.3489 133.159 66.3512C133.251 66.3536 133.321 66.3571 133.368 66.3619V67.2142C133.34 67.2071 133.275 67.1964 133.173 67.1822C133.074 67.1656 132.968 67.1573 132.857 67.1573C132.592 67.1573 132.355 67.213 132.147 67.3242C131.941 67.4331 131.777 67.5847 131.657 67.7788C131.538 67.9705 131.479 68.1895 131.479 68.4357V71.8875H130.641ZM136.412 72.0011C135.919 72.0011 135.487 71.8839 135.116 71.6495C134.746 71.4152 134.457 71.0873 134.249 70.6659C134.043 70.2445 133.94 69.752 133.94 69.1886C133.94 68.6204 134.043 68.1244 134.249 67.7007C134.457 67.2769 134.746 66.9478 135.116 66.7134C135.487 66.4791 135.919 66.3619 136.412 66.3619C136.904 66.3619 137.335 66.4791 137.704 66.7134C138.076 66.9478 138.365 67.2769 138.571 67.7007C138.779 68.1244 138.883 68.6204 138.883 69.1886C138.883 69.752 138.779 70.2445 138.571 70.6659C138.365 71.0873 138.076 71.4152 137.704 71.6495C137.335 71.8839 136.904 72.0011 136.412 72.0011ZM136.412 71.2482C136.786 71.2482 137.093 71.1524 137.335 70.9606C137.576 70.7688 137.755 70.5167 137.871 70.2042C137.987 69.8917 138.045 69.5532 138.045 69.1886C138.045 68.824 137.987 68.4843 137.871 68.1694C137.755 67.8545 137.576 67.6 137.335 67.4059C137.093 67.2118 136.786 67.1147 136.412 67.1147C136.038 67.1147 135.73 67.2118 135.488 67.4059C135.247 67.6 135.068 67.8545 134.952 68.1694C134.836 68.4843 134.778 68.824 134.778 69.1886C134.778 69.5532 134.836 69.8917 134.952 70.2042C135.068 70.5167 135.247 70.7688 135.488 70.9606C135.73 71.1524 136.038 71.2482 136.412 71.2482ZM140.507 73.9329C140.365 73.9329 140.238 73.9211 140.127 73.8974C140.016 73.8761 139.939 73.8548 139.896 73.8335L140.109 73.0948C140.313 73.1469 140.493 73.1659 140.649 73.1517C140.805 73.1375 140.944 73.0676 141.065 72.9421C141.188 72.819 141.3 72.619 141.402 72.342L141.558 71.9159L139.541 66.4329H140.45L141.956 70.7795H142.013L143.518 66.4329H144.427L142.112 72.6829C142.008 72.9646 141.879 73.1978 141.725 73.3825C141.571 73.5695 141.392 73.708 141.189 73.798C140.988 73.8879 140.76 73.9329 140.507 73.9329ZM147.625 72.0011C147.1 72.0011 146.646 71.8851 146.265 71.6531C145.886 71.4187 145.594 71.092 145.388 70.673C145.184 70.2516 145.083 69.7615 145.083 69.2028C145.083 68.6441 145.184 68.1517 145.388 67.7255C145.594 67.297 145.88 66.9632 146.247 66.7241C146.617 66.4826 147.048 66.3619 147.54 66.3619C147.824 66.3619 148.105 66.4092 148.382 66.5039C148.659 66.5986 148.911 66.7525 149.138 66.9656C149.365 67.1763 149.546 67.4556 149.681 67.8036C149.816 68.1517 149.884 68.5802 149.884 69.0892V69.4443H145.679V68.7198H149.032C149.032 68.4121 148.97 68.1375 148.847 67.896C148.726 67.6545 148.553 67.4639 148.328 67.3242C148.106 67.1846 147.843 67.1147 147.54 67.1147C147.206 67.1147 146.917 67.1976 146.674 67.3633C146.432 67.5267 146.246 67.7397 146.116 68.0025C145.986 68.2653 145.921 68.547 145.921 68.8477V69.3306C145.921 69.7426 145.992 70.0918 146.134 70.3782C146.278 70.6623 146.478 70.8789 146.734 71.0281C146.99 71.1749 147.287 71.2482 147.625 71.2482C147.845 71.2482 148.044 71.2175 148.222 71.1559C148.402 71.092 148.557 70.9973 148.687 70.8718C148.817 70.744 148.918 70.5854 148.989 70.396L149.799 70.6232C149.713 70.8979 149.57 71.1393 149.369 71.3477C149.168 71.5536 148.919 71.7146 148.623 71.8306C148.327 71.9443 147.995 72.0011 147.625 72.0011ZM153.375 72.0011C152.863 72.0011 152.423 71.8803 152.054 71.6389C151.684 71.3974 151.4 71.0648 151.201 70.641C151.002 70.2172 150.903 69.7331 150.903 69.1886C150.903 68.6346 151.005 68.1457 151.208 67.722C151.414 67.2958 151.701 66.9632 152.068 66.7241C152.437 66.4826 152.868 66.3619 153.36 66.3619C153.744 66.3619 154.09 66.4329 154.397 66.575C154.705 66.717 154.957 66.9159 155.154 67.1715C155.35 67.4272 155.472 67.7255 155.519 68.0664H154.681C154.617 67.8178 154.475 67.5977 154.255 67.4059C154.037 67.2118 153.744 67.1147 153.375 67.1147C153.048 67.1147 152.761 67.2 152.515 67.3704C152.271 67.5385 152.081 67.7764 151.943 68.0842C151.809 68.3896 151.741 68.7482 151.741 69.1602C151.741 69.5816 151.807 69.9485 151.94 70.261C152.075 70.5735 152.264 70.8162 152.508 70.989C152.754 71.1618 153.043 71.2482 153.375 71.2482C153.592 71.2482 153.79 71.2104 153.968 71.1346C154.145 71.0589 154.295 70.95 154.419 70.8079C154.542 70.6659 154.629 70.4954 154.681 70.2965H155.519C155.472 70.6185 155.355 70.9085 155.168 71.1666C154.983 71.4223 154.738 71.6259 154.433 71.7774C154.13 71.9265 153.777 72.0011 153.375 72.0011ZM159.117 66.4329V67.1431H156.29V66.4329H159.117ZM157.114 65.1261H157.952V70.325C157.952 70.5617 157.986 70.7393 158.055 70.8576C158.126 70.9736 158.216 71.0518 158.325 71.092C158.436 71.1299 158.553 71.1488 158.676 71.1488C158.769 71.1488 158.844 71.1441 158.904 71.1346C158.963 71.1228 159.01 71.1133 159.046 71.1062L159.216 71.859C159.159 71.8803 159.08 71.9017 158.978 71.923C158.876 71.9466 158.747 71.9585 158.591 71.9585C158.354 71.9585 158.122 71.9076 157.895 71.8058C157.67 71.704 157.483 71.5489 157.334 71.3406C157.187 71.1322 157.114 70.8695 157.114 70.5522V65.1261ZM162.535 72.0011C162.042 72.0011 161.61 71.8839 161.239 71.6495C160.869 71.4152 160.58 71.0873 160.372 70.6659C160.166 70.2445 160.063 69.752 160.063 69.1886C160.063 68.6204 160.166 68.1244 160.372 67.7007C160.58 67.2769 160.869 66.9478 161.239 66.7134C161.61 66.4791 162.042 66.3619 162.535 66.3619C163.027 66.3619 163.458 66.4791 163.827 66.7134C164.199 66.9478 164.488 67.2769 164.694 67.7007C164.902 68.1244 165.006 68.6204 165.006 69.1886C165.006 69.752 164.902 70.2445 164.694 70.6659C164.488 71.0873 164.199 71.4152 163.827 71.6495C163.458 71.8839 163.027 72.0011 162.535 72.0011ZM162.535 71.2482C162.909 71.2482 163.217 71.1524 163.458 70.9606C163.699 70.7688 163.878 70.5167 163.994 70.2042C164.11 69.8917 164.168 69.5532 164.168 69.1886C164.168 68.824 164.11 68.4843 163.994 68.1694C163.878 67.8545 163.699 67.6 163.458 67.4059C163.217 67.2118 162.909 67.1147 162.535 67.1147C162.161 67.1147 161.853 67.2118 161.611 67.4059C161.37 67.6 161.191 67.8545 161.075 68.1694C160.959 68.4843 160.901 68.824 160.901 69.1886C160.901 69.5532 160.959 69.8917 161.075 70.2042C161.191 70.5167 161.37 70.7688 161.611 70.9606C161.853 71.1524 162.161 71.2482 162.535 71.2482ZM170.149 67.6545L169.396 67.8676C169.349 67.7421 169.279 67.6202 169.187 67.5018C169.097 67.3811 168.974 67.2816 168.818 67.2035C168.661 67.1254 168.461 67.0863 168.217 67.0863C167.884 67.0863 167.605 67.1633 167.383 67.3171C167.163 67.4687 167.053 67.6616 167.053 67.896C167.053 68.1043 167.128 68.2688 167.28 68.3896C167.431 68.5103 167.668 68.6109 167.99 68.6914L168.8 68.8903C169.287 69.0087 169.651 69.1898 169.89 69.4336C170.129 69.6751 170.249 69.9864 170.249 70.3676C170.249 70.6801 170.159 70.9594 169.979 71.2056C169.801 71.4518 169.553 71.646 169.233 71.788C168.913 71.9301 168.542 72.0011 168.118 72.0011C167.562 72.0011 167.101 71.8803 166.737 71.6389C166.372 71.3974 166.141 71.0446 166.044 70.5806L166.84 70.3818C166.915 70.6753 167.059 70.8955 167.269 71.0423C167.482 71.1891 167.761 71.2625 168.104 71.2625C168.494 71.2625 168.805 71.1796 169.034 71.0139C169.266 70.8458 169.382 70.6446 169.382 70.4102C169.382 70.2208 169.316 70.0622 169.183 69.9343C169.051 69.8041 168.847 69.7071 168.573 69.6431L167.663 69.4301C167.164 69.3117 166.797 69.1282 166.563 68.8796C166.331 68.6287 166.215 68.315 166.215 67.9386C166.215 67.6308 166.301 67.3586 166.474 67.1218C166.649 66.8851 166.887 66.6992 167.188 66.5643C167.491 66.4294 167.834 66.3619 168.217 66.3619C168.757 66.3619 169.181 66.4803 169.489 66.717C169.799 66.9537 170.019 67.2662 170.149 67.6545Z" fill="#CFD1DE"/>
<path d="M39.0225 44.8621C39.0225 43.9086 39.4758 43.0118 40.2436 42.4464L49.1355 35.8988L58.0274 42.4464C58.7952 43.0118 59.2485 43.9086 59.2485 44.8621V55.6474C59.2485 57.0281 58.1292 58.1474 56.7485 58.1474H53.1694C52.6171 58.1474 52.1694 57.6997 52.1694 57.1474V51.0626C52.1694 50.7865 51.9455 50.5626 51.6694 50.5626H46.6016C46.3254 50.5626 46.1016 50.7865 46.1016 51.0626V57.1474C46.1016 57.6997 45.6539 58.1474 45.1016 58.1474H41.5225C40.1418 58.1474 39.0225 57.0281 39.0225 55.6474V44.8621Z" stroke="#87C9FF" stroke-width="2.02261" stroke-linecap="round" stroke-linejoin="round"/>
<path d="M36.075 71.8875V64.6147H36.9557V67.8534H40.8335V64.6147H41.7142V71.8875H40.8335V68.6346H36.9557V71.8875H36.075ZM45.5796 72.0011C45.0872 72.0011 44.6552 71.8839 44.2835 71.6495C43.9142 71.4152 43.6253 71.0873 43.417 70.6659C43.211 70.2445 43.108 69.752 43.108 69.1886C43.108 68.6204 43.211 68.1244 43.417 67.7007C43.6253 67.2769 43.9142 66.9478 44.2835 66.7134C44.6552 66.4791 45.0872 66.3619 45.5796 66.3619C46.0721 66.3619 46.5029 66.4791 46.8722 66.7134C47.2439 66.9478 47.5328 67.2769 47.7387 67.7007C47.9471 68.1244 48.0512 68.6204 48.0512 69.1886C48.0512 69.752 47.9471 70.2445 47.7387 70.6659C47.5328 71.0873 47.2439 71.4152 46.8722 71.6495C46.5029 71.8839 46.0721 72.0011 45.5796 72.0011ZM45.5796 71.2482C45.9537 71.2482 46.2615 71.1524 46.5029 70.9606C46.7444 70.7688 46.9231 70.5167 47.0392 70.2042C47.1552 69.8917 47.2132 69.5532 47.2132 69.1886C47.2132 68.824 47.1552 68.4843 47.0392 68.1694C46.9231 67.8545 46.7444 67.6 46.5029 67.4059C46.2615 67.2118 45.9537 67.1147 45.5796 67.1147C45.2056 67.1147 44.8978 67.2118 44.6563 67.4059C44.4149 67.6 44.2361 67.8545 44.1201 68.1694C44.0041 68.4843 43.9461 68.824 43.9461 69.1886C43.9461 69.5532 44.0041 69.8917 44.1201 70.2042C44.2361 70.5167 44.4149 70.7688 44.6563 70.9606C44.8978 71.1524 45.2056 71.2482 45.5796 71.2482ZM49.3305 71.8875V66.4329H50.1402V67.2852H50.2112C50.3248 66.994 50.5083 66.7679 50.7616 66.6069C51.0149 66.4436 51.3192 66.3619 51.6743 66.3619C52.0341 66.3619 52.3336 66.4436 52.5727 66.6069C52.8142 66.7679 53.0024 66.994 53.1373 67.2852H53.1942C53.3338 67.0035 53.5434 66.7797 53.8227 66.614C54.1021 66.4459 54.4371 66.3619 54.8277 66.3619C55.3154 66.3619 55.7143 66.5146 56.0244 66.82C56.3345 67.123 56.4896 67.5953 56.4896 68.2369V71.8875H55.6515V68.2369C55.6515 67.8344 55.5415 67.5468 55.3213 67.374C55.1011 67.2011 54.8419 67.1147 54.5436 67.1147C54.1601 67.1147 53.863 67.2307 53.6523 67.4627C53.4416 67.6924 53.3362 67.9836 53.3362 68.3363V71.8875H52.4839V68.1517C52.4839 67.8415 52.3833 67.5918 52.1821 67.4024C51.9809 67.2106 51.7216 67.1147 51.4044 67.1147C51.1866 67.1147 50.983 67.1727 50.7936 67.2887C50.6066 67.4047 50.455 67.5657 50.339 67.7717C50.2254 67.9753 50.1686 68.2108 50.1686 68.4784V71.8875H49.3305ZM60.3089 72.0011C59.7833 72.0011 59.3299 71.8851 58.9488 71.6531C58.57 71.4187 58.2776 71.092 58.0716 70.673C57.868 70.2516 57.7662 69.7615 57.7662 69.2028C57.7662 68.6441 57.868 68.1517 58.0716 67.7255C58.2776 67.297 58.5641 66.9632 58.931 66.7241C59.3003 66.4826 59.7312 66.3619 60.2236 66.3619C60.5077 66.3619 60.7883 66.4092 61.0653 66.5039C61.3422 66.5986 61.5944 66.7525 61.8216 66.9656C62.0489 67.1763 62.23 67.4556 62.365 67.8036C62.4999 68.1517 62.5674 68.5802 62.5674 69.0892V69.4443H58.3628V68.7198H61.7151C61.7151 68.4121 61.6536 68.1375 61.5305 67.896C61.4097 67.6545 61.2369 67.4639 61.012 67.3242C60.7894 67.1846 60.5267 67.1147 60.2236 67.1147C59.8898 67.1147 59.601 67.1976 59.3572 67.3633C59.1157 67.5267 58.9298 67.7397 58.7996 68.0025C58.6694 68.2653 58.6043 68.547 58.6043 68.8477V69.3306C58.6043 69.7426 58.6753 70.0918 58.8174 70.3782C58.9618 70.6623 59.1618 70.8789 59.4175 71.0281C59.6732 71.1749 59.9703 71.2482 60.3089 71.2482C60.529 71.2482 60.7279 71.2175 60.9055 71.1559C61.0854 71.092 61.2404 70.9973 61.3706 70.8718C61.5009 70.744 61.6015 70.5854 61.6725 70.396L62.4822 70.6232C62.3969 70.8979 62.2537 71.1393 62.0525 71.3477C61.8512 71.5536 61.6027 71.7146 61.3067 71.8306C61.0108 71.9443 60.6782 72.0011 60.3089 72.0011Z" fill="#389BEC"/>
<path d="M226.92 71.8875V64.6147H229.462C229.969 64.6147 230.387 64.7023 230.716 64.8775C231.045 65.0503 231.29 65.2835 231.451 65.5771C231.612 65.8683 231.692 66.1914 231.692 66.5465C231.692 66.859 231.637 67.1171 231.526 67.3207C231.417 67.5243 231.272 67.6853 231.092 67.8036C230.915 67.922 230.722 68.0096 230.513 68.0664V68.1375C230.736 68.1517 230.96 68.2298 231.185 68.3718C231.41 68.5139 231.598 68.7175 231.749 68.9826C231.901 69.2478 231.977 69.5721 231.977 69.9556C231.977 70.3202 231.894 70.6481 231.728 70.9393C231.562 71.2305 231.301 71.4613 230.943 71.6318C230.586 71.8022 230.121 71.8875 229.548 71.8875H226.92ZM227.8 71.1062H229.548C230.123 71.1062 230.531 70.9949 230.773 70.7724C231.017 70.5475 231.138 70.2752 231.138 69.9556C231.138 69.7094 231.076 69.4821 230.95 69.2738C230.825 69.0631 230.646 68.895 230.414 68.7696C230.182 68.6417 229.907 68.5778 229.59 68.5778H227.8V71.1062ZM227.8 67.8107H229.434C229.699 67.8107 229.938 67.7587 230.151 67.6545C230.367 67.5503 230.537 67.4035 230.663 67.2142C230.79 67.0248 230.854 66.8022 230.854 66.5465C230.854 66.2269 230.743 65.9559 230.521 65.7333C230.298 65.5084 229.945 65.396 229.462 65.396H227.8V67.8107ZM233.31 71.8875V66.4329H234.148V71.8875H233.31ZM233.736 65.5238C233.573 65.5238 233.432 65.4682 233.314 65.3569C233.198 65.2456 233.14 65.1119 233.14 64.9556C233.14 64.7994 233.198 64.6656 233.314 64.5544C233.432 64.4431 233.573 64.3875 233.736 64.3875C233.9 64.3875 234.039 64.4431 234.155 64.5544C234.274 64.6656 234.333 64.7994 234.333 64.9556C234.333 65.1119 234.274 65.2456 234.155 65.3569C234.039 65.4682 233.9 65.5238 233.736 65.5238ZM236.521 64.6147V71.8875H235.683V64.6147H236.521ZM238.894 64.6147V71.8875H238.056V64.6147H238.894ZM242.716 72.0011C242.191 72.0011 241.737 71.8851 241.356 71.6531C240.977 71.4187 240.685 71.092 240.479 70.673C240.275 70.2516 240.173 69.7615 240.173 69.2028C240.173 68.6441 240.275 68.1517 240.479 67.7255C240.685 67.297 240.971 66.9632 241.338 66.7241C241.708 66.4826 242.138 66.3619 242.631 66.3619C242.915 66.3619 243.195 66.4092 243.472 66.5039C243.749 66.5986 244.002 66.7525 244.229 66.9656C244.456 67.1763 244.637 67.4556 244.772 67.8036C244.907 68.1517 244.975 68.5802 244.975 69.0892V69.4443H240.77V68.7198H244.122C244.122 68.4121 244.061 68.1375 243.938 67.896C243.817 67.6545 243.644 67.4639 243.419 67.3242C243.197 67.1846 242.934 67.1147 242.631 67.1147C242.297 67.1147 242.008 67.1976 241.764 67.3633C241.523 67.5267 241.337 67.7397 241.207 68.0025C241.077 68.2653 241.012 68.547 241.012 68.8477V69.3306C241.012 69.7426 241.083 70.0918 241.225 70.3782C241.369 70.6623 241.569 70.8789 241.825 71.0281C242.08 71.1749 242.378 71.2482 242.716 71.2482C242.936 71.2482 243.135 71.2175 243.313 71.1559C243.493 71.092 243.648 70.9973 243.778 70.8718C243.908 70.744 244.009 70.5854 244.08 70.396L244.889 70.6232C244.804 70.8979 244.661 71.1393 244.46 71.3477C244.258 71.5536 244.01 71.7146 243.714 71.8306C243.418 71.9443 243.085 72.0011 242.716 72.0011ZM248.622 66.4329V67.1431H245.795V66.4329H248.622ZM246.619 65.1261H247.457V70.325C247.457 70.5617 247.491 70.7393 247.56 70.8576C247.631 70.9736 247.721 71.0518 247.83 71.092C247.941 71.1299 248.058 71.1488 248.181 71.1488C248.274 71.1488 248.349 71.1441 248.409 71.1346C248.468 71.1228 248.515 71.1133 248.551 71.1062L248.721 71.859C248.664 71.8803 248.585 71.9017 248.483 71.923C248.381 71.9466 248.252 71.9585 248.096 71.9585C247.859 71.9585 247.627 71.9076 247.4 71.8058C247.175 71.704 246.988 71.5489 246.839 71.3406C246.692 71.1322 246.619 70.8695 246.619 70.5522V65.1261ZM252.111 72.0011C251.585 72.0011 251.132 71.8851 250.751 71.6531C250.372 71.4187 250.079 71.092 249.873 70.673C249.67 70.2516 249.568 69.7615 249.568 69.2028C249.568 68.6441 249.67 68.1517 249.873 67.7255C250.079 67.297 250.366 66.9632 250.733 66.7241C251.102 66.4826 251.533 66.3619 252.025 66.3619C252.309 66.3619 252.59 66.4092 252.867 66.5039C253.144 66.5986 253.396 66.7525 253.623 66.9656C253.851 67.1763 254.032 67.4556 254.167 67.8036C254.302 68.1517 254.369 68.5802 254.369 69.0892V69.4443H250.165V68.7198H253.517C253.517 68.4121 253.455 68.1375 253.332 67.896C253.211 67.6545 253.039 67.4639 252.814 67.3242C252.591 67.1846 252.328 67.1147 252.025 67.1147C251.692 67.1147 251.403 67.1976 251.159 67.3633C250.917 67.5267 250.732 67.7397 250.601 68.0025C250.471 68.2653 250.406 68.547 250.406 68.8477V69.3306C250.406 69.7426 250.477 70.0918 250.619 70.3782C250.764 70.6623 250.964 70.8789 251.219 71.0281C251.475 71.1749 251.772 71.2482 252.111 71.2482C252.331 71.2482 252.53 71.2175 252.707 71.1559C252.887 71.092 253.042 70.9973 253.172 70.8718C253.303 70.744 253.403 70.5854 253.474 70.396L254.284 70.6232C254.199 70.8979 254.055 71.1393 253.854 71.3477C253.653 71.5536 253.404 71.7146 253.108 71.8306C252.813 71.9443 252.48 72.0011 252.111 72.0011ZM255.644 71.8875V66.4329H256.454V67.2568H256.51C256.61 66.9869 256.79 66.7679 257.05 66.5998C257.311 66.4317 257.604 66.3477 257.931 66.3477C257.992 66.3477 258.069 66.3489 258.162 66.3512C258.254 66.3536 258.324 66.3571 258.371 66.3619V67.2142C258.343 67.2071 258.278 67.1964 258.176 67.1822C258.077 67.1656 257.971 67.1573 257.86 67.1573C257.595 67.1573 257.358 67.213 257.15 67.3242C256.944 67.4331 256.78 67.5847 256.66 67.7788C256.541 67.9705 256.482 68.1895 256.482 68.4357V71.8875H255.644ZM260.97 72.0153C260.624 72.0153 260.31 71.9502 260.029 71.82C259.747 71.6874 259.523 71.4968 259.358 71.2482C259.192 70.9973 259.109 70.6943 259.109 70.3392C259.109 70.0267 259.171 69.7733 259.294 69.5792C259.417 69.3827 259.581 69.2288 259.787 69.1176C259.993 69.0063 260.221 68.9234 260.469 68.869C260.72 68.8122 260.972 68.7672 261.225 68.734C261.557 68.6914 261.826 68.6595 262.032 68.6382C262.24 68.6145 262.391 68.5754 262.486 68.521C262.583 68.4665 262.632 68.3718 262.632 68.2369V68.2085C262.632 67.8581 262.536 67.5858 262.344 67.3917C262.155 67.1976 261.867 67.1005 261.481 67.1005C261.081 67.1005 260.767 67.1881 260.54 67.3633C260.313 67.5385 260.153 67.7255 260.061 67.9244L259.265 67.6403C259.407 67.3089 259.597 67.0508 259.833 66.8661C260.073 66.6791 260.333 66.5489 260.615 66.4755C260.899 66.3998 261.178 66.3619 261.453 66.3619C261.628 66.3619 261.829 66.3832 262.056 66.4258C262.286 66.466 262.507 66.5501 262.721 66.6779C262.936 66.8058 263.115 66.9987 263.257 67.2568C263.399 67.5148 263.47 67.8605 263.47 68.2937V71.8875H262.632V71.1488H262.589C262.532 71.2672 262.438 71.3938 262.305 71.5288C262.172 71.6637 261.996 71.7785 261.776 71.8732C261.556 71.9679 261.287 72.0153 260.97 72.0153ZM261.098 71.2625C261.429 71.2625 261.708 71.1973 261.936 71.0671C262.165 70.9369 262.338 70.7688 262.454 70.5629C262.573 70.3569 262.632 70.1403 262.632 69.913V69.146C262.596 69.1886 262.518 69.2276 262.397 69.2632C262.279 69.2963 262.142 69.3259 261.985 69.3519C261.832 69.3756 261.681 69.3969 261.534 69.4159C261.39 69.4324 261.273 69.4466 261.183 69.4585C260.965 69.4869 260.761 69.533 260.572 69.597C260.385 69.6585 260.234 69.752 260.118 69.8775C260.004 70.0006 259.947 70.1687 259.947 70.3818C259.947 70.673 260.055 70.8931 260.27 71.0423C260.488 71.1891 260.764 71.2625 261.098 71.2625Z" fill="#CFD1DE"/>
<path d="M254.231 37.9326L237.074 37.9326C235.401 37.9326 234.044 39.2892 234.044 40.9626V55.1287C234.044 56.8021 235.401 58.1587 237.074 58.1587H253.197C254.871 58.1587 256.227 56.8021 256.227 55.1287V44.9133C256.227 43.2399 254.871 41.8833 253.197 41.8833H236.548C235.433 41.8833 234.528 40.979 234.528 39.8636V39.8636" stroke="#CFD1DE" stroke-width="2.02" stroke-linecap="round" stroke-linejoin="round"/>
<rect width="70" height="2" transform="matrix(1 0 0 -1 14.1357 21.8875)" fill="#55B3FF"/>
</g>
<defs>
<filter id="filter0_d_1489_28033" x="-13" y="0.887451" width="416" height="101" filterUnits="userSpaceOnUse" color-interpolation-filters="sRGB">
<feFlood flood-opacity="0" result="BackgroundImageFix"/>
<feColorMatrix in="SourceAlpha" type="matrix" values="0 0 0 0 0 0 0 0 0 0 0 0 0 0 0 0 0 0 127 0" result="hardAlpha"/>
<feOffset dy="-6"/>
<feGaussianBlur stdDeviation="6.5"/>
<feComposite in2="hardAlpha" operator="out"/>
<feColorMatrix type="matrix" values="0 0 0 0 0 0 0 0 0 0 0 0 0 0 0 0 0 0 0.04 0"/>
<feBlend mode="normal" in2="BackgroundImageFix" result="effect1_dropShadow_1489_28033"/>
<feBlend mode="normal" in="SourceGraphic" in2="effect1_dropShadow_1489_28033" result="shape"/>
</filter>
</defs>
</svg>
