<svg width="390" height="94" viewBox="0 0 390 94" fill="none" xmlns="http://www.w3.org/2000/svg">
<g filter="url(#filter0_d_1714_39616)">
<path d="M0 19H390V94H0V19Z" fill="white"/>
<path d="M335.034 55.7421L335.205 54.642C335.414 53.3011 336.289 52.1526 337.585 51.7511C339.195 51.2525 341.586 50.6855 344.136 50.6855C346.686 50.6855 349.077 51.2525 350.687 51.7511C351.983 52.1526 352.858 53.3011 353.067 54.642L353.238 55.7421" stroke="#87C9FF" stroke-width="2.02261" stroke-linecap="round" stroke-linejoin="round"/>
<path d="M344.136 46.1365C346.928 46.1365 349.192 43.8726 349.192 41.08C349.192 38.2873 346.928 36.0234 344.136 36.0234C341.343 36.0234 339.079 38.2873 339.079 41.08C339.079 43.8726 341.343 46.1365 344.136 46.1365Z" stroke="#87C9FF" stroke-width="2.02261" stroke-linecap="round" stroke-linejoin="round"/>
<path d="M331.756 71V63.7273H334.213C334.784 63.7273 335.25 63.8303 335.612 64.0362C335.977 64.2398 336.247 64.5156 336.422 64.8636C336.597 65.2116 336.685 65.5999 336.685 66.0284C336.685 66.4569 336.597 66.8464 336.422 67.1967C336.249 67.5471 335.982 67.8265 335.619 68.0348C335.257 68.2408 334.793 68.3438 334.227 68.3438H332.466V67.5625H334.199C334.589 67.5625 334.903 67.495 335.14 67.3601C335.377 67.2251 335.548 67.0429 335.655 66.8132C335.764 66.5812 335.818 66.3196 335.818 66.0284C335.818 65.7372 335.764 65.4768 335.655 65.2472C335.548 65.0175 335.375 64.8376 335.136 64.7074C334.897 64.5748 334.58 64.5085 334.185 64.5085H332.636V71H331.756ZM340.218 71.1136C339.692 71.1136 339.239 70.9976 338.858 70.7656C338.479 70.5312 338.187 70.2045 337.981 69.7855C337.777 69.3641 337.675 68.8741 337.675 68.3153C337.675 67.7566 337.777 67.2642 337.981 66.8381C338.187 66.4096 338.473 66.0758 338.84 65.8366C339.21 65.5952 339.64 65.4744 340.133 65.4744C340.417 65.4744 340.697 65.5218 340.974 65.6165C341.251 65.7112 341.504 65.8651 341.731 66.0781C341.958 66.2888 342.139 66.5682 342.274 66.9162C342.409 67.2642 342.477 67.6927 342.477 68.2017V68.5568H338.272V67.8324H341.624C341.624 67.5246 341.563 67.25 341.44 67.0085C341.319 66.767 341.146 66.5765 340.921 66.4368C340.699 66.2971 340.436 66.2273 340.133 66.2273C339.799 66.2273 339.51 66.3101 339.266 66.4759C339.025 66.6392 338.839 66.8523 338.709 67.1151C338.579 67.3778 338.513 67.6596 338.513 67.9602V68.4432C338.513 68.8551 338.585 69.2043 338.727 69.4908C338.871 69.7749 339.071 69.9915 339.327 70.1406C339.582 70.2874 339.879 70.3608 340.218 70.3608C340.438 70.3608 340.637 70.33 340.815 70.2685C340.995 70.2045 341.15 70.1098 341.28 69.9844C341.41 69.8565 341.511 69.6979 341.582 69.5085L342.391 69.7358C342.306 70.0104 342.163 70.2519 341.962 70.4602C341.76 70.6662 341.512 70.8272 341.216 70.9432C340.92 71.0568 340.587 71.1136 340.218 71.1136ZM343.751 71V65.5455H344.561V66.3693H344.618C344.717 66.0994 344.897 65.8804 345.158 65.7124C345.418 65.5443 345.712 65.4602 346.038 65.4602C346.1 65.4602 346.177 65.4614 346.269 65.4638C346.362 65.4661 346.431 65.4697 346.479 65.4744V66.3267C346.45 66.3196 346.385 66.3089 346.283 66.2947C346.184 66.2782 346.079 66.2699 345.967 66.2699C345.702 66.2699 345.465 66.3255 345.257 66.4368C345.051 66.5457 344.888 66.6972 344.767 66.8913C344.649 67.0831 344.589 67.3021 344.589 67.5483V71H343.751ZM350.243 65.5455V66.2557H347.303V65.5455H350.243ZM348.183 71V64.7926C348.183 64.4801 348.257 64.2197 348.403 64.0114C348.55 63.803 348.741 63.6468 348.975 63.5426C349.21 63.4384 349.457 63.3864 349.717 63.3864C349.923 63.3864 350.091 63.4029 350.222 63.4361C350.352 63.4692 350.449 63.5 350.513 63.5284L350.271 64.2528C350.229 64.2386 350.17 64.2209 350.094 64.1996C350.02 64.1783 349.923 64.1676 349.803 64.1676C349.526 64.1676 349.326 64.2375 349.202 64.3771C349.082 64.5168 349.021 64.7216 349.021 64.9915V71H348.183ZM351.417 71V65.5455H352.256V71H351.417ZM351.844 64.6364C351.68 64.6364 351.539 64.5807 351.421 64.4695C351.305 64.3582 351.247 64.2244 351.247 64.0682C351.247 63.9119 351.305 63.7782 351.421 63.6669C351.539 63.5556 351.68 63.5 351.844 63.5C352.007 63.5 352.147 63.5556 352.263 63.6669C352.381 63.7782 352.44 63.9119 352.44 64.0682C352.44 64.2244 352.381 64.3582 352.263 64.4695C352.147 64.5807 352.007 64.6364 351.844 64.6364ZM354.629 63.7273V71H353.79V63.7273H354.629Z" fill="#389BEC"/>
<path d="M142.079 37.0332H141.068C139.393 37.0332 138.034 38.3915 138.034 40.0671V54.2254C138.034 55.9009 139.393 57.2593 141.068 57.2593H153.204C154.879 57.2593 156.238 55.9009 156.238 54.2254V40.0671C156.238 38.3915 154.879 37.0332 153.204 37.0332H152.192" stroke="#CFD1DE" stroke-width="2.02261"/>
<rect x="142.079" y="35.0117" width="10.113" height="5.05651" rx="2.02261" stroke="#CFD1DE" stroke-width="2.02261"/>
<path d="M124.407 71V63.7273H126.864C127.435 63.7273 127.901 63.8303 128.264 64.0362C128.628 64.2398 128.898 64.5156 129.073 64.8636C129.248 65.2116 129.336 65.5999 129.336 66.0284C129.336 66.4569 129.248 66.8464 129.073 67.1967C128.9 67.5471 128.633 67.8265 128.271 68.0348C127.908 68.2408 127.444 68.3438 126.879 68.3438H125.117V67.5625H126.85C127.241 67.5625 127.555 67.495 127.791 67.3601C128.028 67.2251 128.2 67.0429 128.306 66.8132C128.415 66.5812 128.47 66.3196 128.47 66.0284C128.47 65.7372 128.415 65.4768 128.306 65.2472C128.2 65.0175 128.027 64.8376 127.788 64.7074C127.549 64.5748 127.231 64.5085 126.836 64.5085H125.288V71H124.407ZM130.641 71V65.5455H131.451V66.3693H131.508C131.607 66.0994 131.787 65.8804 132.047 65.7124C132.308 65.5443 132.601 65.4602 132.928 65.4602C132.99 65.4602 133.066 65.4614 133.159 65.4638C133.251 65.4661 133.321 65.4697 133.368 65.4744V66.3267C133.34 66.3196 133.275 66.3089 133.173 66.2947C133.074 66.2782 132.968 66.2699 132.857 66.2699C132.592 66.2699 132.355 66.3255 132.147 66.4368C131.941 66.5457 131.777 66.6972 131.657 66.8913C131.538 67.0831 131.479 67.3021 131.479 67.5483V71H130.641ZM136.412 71.1136C135.919 71.1136 135.487 70.9964 135.116 70.7621C134.746 70.5277 134.457 70.1998 134.249 69.7784C134.043 69.357 133.94 68.8646 133.94 68.3011C133.94 67.733 134.043 67.237 134.249 66.8132C134.457 66.3894 134.746 66.0604 135.116 65.826C135.487 65.5916 135.919 65.4744 136.412 65.4744C136.904 65.4744 137.335 65.5916 137.704 65.826C138.076 66.0604 138.365 66.3894 138.571 66.8132C138.779 67.237 138.883 67.733 138.883 68.3011C138.883 68.8646 138.779 69.357 138.571 69.7784C138.365 70.1998 138.076 70.5277 137.704 70.7621C137.335 70.9964 136.904 71.1136 136.412 71.1136ZM136.412 70.3608C136.786 70.3608 137.093 70.2649 137.335 70.0732C137.576 69.8814 137.755 69.6293 137.871 69.3168C137.987 69.0043 138.045 68.6657 138.045 68.3011C138.045 67.9366 137.987 67.5968 137.871 67.282C137.755 66.9671 137.576 66.7126 137.335 66.5185C137.093 66.3243 136.786 66.2273 136.412 66.2273C136.038 66.2273 135.73 66.3243 135.488 66.5185C135.247 66.7126 135.068 66.9671 134.952 67.282C134.836 67.5968 134.778 67.9366 134.778 68.3011C134.778 68.6657 134.836 69.0043 134.952 69.3168C135.068 69.6293 135.247 69.8814 135.488 70.0732C135.73 70.2649 136.038 70.3608 136.412 70.3608ZM140.507 73.0455C140.365 73.0455 140.238 73.0336 140.127 73.0099C140.016 72.9886 139.939 72.9673 139.896 72.946L140.109 72.2074C140.313 72.2595 140.493 72.2784 140.649 72.2642C140.805 72.25 140.944 72.1802 141.065 72.0547C141.188 71.9316 141.3 71.7315 141.402 71.4545L141.558 71.0284L139.541 65.5455H140.45L141.956 69.892H142.013L143.518 65.5455H144.427L142.112 71.7955C142.008 72.0772 141.879 72.3104 141.725 72.495C141.571 72.6821 141.392 72.8205 141.189 72.9105C140.988 73.0005 140.76 73.0455 140.507 73.0455ZM147.625 71.1136C147.1 71.1136 146.646 70.9976 146.265 70.7656C145.886 70.5312 145.594 70.2045 145.388 69.7855C145.184 69.3641 145.083 68.8741 145.083 68.3153C145.083 67.7566 145.184 67.2642 145.388 66.8381C145.594 66.4096 145.88 66.0758 146.247 65.8366C146.617 65.5952 147.048 65.4744 147.54 65.4744C147.824 65.4744 148.105 65.5218 148.382 65.6165C148.659 65.7112 148.911 65.8651 149.138 66.0781C149.365 66.2888 149.546 66.5682 149.681 66.9162C149.816 67.2642 149.884 67.6927 149.884 68.2017V68.5568H145.679V67.8324H149.032C149.032 67.5246 148.97 67.25 148.847 67.0085C148.726 66.767 148.553 66.5765 148.328 66.4368C148.106 66.2971 147.843 66.2273 147.54 66.2273C147.206 66.2273 146.917 66.3101 146.674 66.4759C146.432 66.6392 146.246 66.8523 146.116 67.1151C145.986 67.3778 145.921 67.6596 145.921 67.9602V68.4432C145.921 68.8551 145.992 69.2043 146.134 69.4908C146.278 69.7749 146.478 69.9915 146.734 70.1406C146.99 70.2874 147.287 70.3608 147.625 70.3608C147.845 70.3608 148.044 70.33 148.222 70.2685C148.402 70.2045 148.557 70.1098 148.687 69.9844C148.817 69.8565 148.918 69.6979 148.989 69.5085L149.799 69.7358C149.713 70.0104 149.57 70.2519 149.369 70.4602C149.168 70.6662 148.919 70.8272 148.623 70.9432C148.327 71.0568 147.995 71.1136 147.625 71.1136ZM153.375 71.1136C152.863 71.1136 152.423 70.9929 152.054 70.7514C151.684 70.5099 151.4 70.1773 151.201 69.7536C151.002 69.3298 150.903 68.8456 150.903 68.3011C150.903 67.7472 151.005 67.2583 151.208 66.8345C151.414 66.4084 151.701 66.0758 152.068 65.8366C152.437 65.5952 152.868 65.4744 153.36 65.4744C153.744 65.4744 154.09 65.5455 154.397 65.6875C154.705 65.8295 154.957 66.0284 155.154 66.2841C155.35 66.5398 155.472 66.8381 155.519 67.179H154.681C154.617 66.9304 154.475 66.7102 154.255 66.5185C154.037 66.3243 153.744 66.2273 153.375 66.2273C153.048 66.2273 152.761 66.3125 152.515 66.483C152.271 66.651 152.081 66.889 151.943 67.1967C151.809 67.5021 151.741 67.8608 151.741 68.2727C151.741 68.6941 151.807 69.0611 151.94 69.3736C152.075 69.6861 152.264 69.9287 152.508 70.1016C152.754 70.2744 153.043 70.3608 153.375 70.3608C153.592 70.3608 153.79 70.3229 153.968 70.2472C154.145 70.1714 154.295 70.0625 154.419 69.9205C154.542 69.7784 154.629 69.608 154.681 69.4091H155.519C155.472 69.7311 155.355 70.0211 155.168 70.2791C154.983 70.5348 154.738 70.7384 154.433 70.8899C154.13 71.0391 153.777 71.1136 153.375 71.1136ZM159.117 65.5455V66.2557H156.29V65.5455H159.117ZM157.114 64.2386H157.952V69.4375C157.952 69.6742 157.986 69.8518 158.055 69.9702C158.126 70.0862 158.216 70.1643 158.325 70.2045C158.436 70.2424 158.553 70.2614 158.676 70.2614C158.769 70.2614 158.844 70.2566 158.904 70.2472C158.963 70.2353 159.01 70.2259 159.046 70.2188L159.216 70.9716C159.159 70.9929 159.08 71.0142 158.978 71.0355C158.876 71.0592 158.747 71.071 158.591 71.071C158.354 71.071 158.122 71.0201 157.895 70.9183C157.67 70.8165 157.483 70.6615 157.334 70.4531C157.187 70.2448 157.114 69.982 157.114 69.6648V64.2386ZM162.535 71.1136C162.042 71.1136 161.61 70.9964 161.239 70.7621C160.869 70.5277 160.58 70.1998 160.372 69.7784C160.166 69.357 160.063 68.8646 160.063 68.3011C160.063 67.733 160.166 67.237 160.372 66.8132C160.58 66.3894 160.869 66.0604 161.239 65.826C161.61 65.5916 162.042 65.4744 162.535 65.4744C163.027 65.4744 163.458 65.5916 163.827 65.826C164.199 66.0604 164.488 66.3894 164.694 66.8132C164.902 67.237 165.006 67.733 165.006 68.3011C165.006 68.8646 164.902 69.357 164.694 69.7784C164.488 70.1998 164.199 70.5277 163.827 70.7621C163.458 70.9964 163.027 71.1136 162.535 71.1136ZM162.535 70.3608C162.909 70.3608 163.217 70.2649 163.458 70.0732C163.699 69.8814 163.878 69.6293 163.994 69.3168C164.11 69.0043 164.168 68.6657 164.168 68.3011C164.168 67.9366 164.11 67.5968 163.994 67.282C163.878 66.9671 163.699 66.7126 163.458 66.5185C163.217 66.3243 162.909 66.2273 162.535 66.2273C162.161 66.2273 161.853 66.3243 161.611 66.5185C161.37 66.7126 161.191 66.9671 161.075 67.282C160.959 67.5968 160.901 67.9366 160.901 68.3011C160.901 68.6657 160.959 69.0043 161.075 69.3168C161.191 69.6293 161.37 69.8814 161.611 70.0732C161.853 70.2649 162.161 70.3608 162.535 70.3608ZM170.149 66.767L169.396 66.9801C169.349 66.8546 169.279 66.7327 169.187 66.6143C169.097 66.4936 168.974 66.3942 168.818 66.3161C168.661 66.2379 168.461 66.1989 168.217 66.1989C167.884 66.1989 167.605 66.2758 167.383 66.4297C167.163 66.5812 167.053 66.7741 167.053 67.0085C167.053 67.2169 167.128 67.3814 167.28 67.5021C167.431 67.6229 167.668 67.7235 167.99 67.804L168.8 68.0028C169.287 68.1212 169.651 68.3023 169.89 68.5462C170.129 68.7876 170.249 69.099 170.249 69.4801C170.249 69.7926 170.159 70.072 169.979 70.3182C169.801 70.5644 169.553 70.7585 169.233 70.9006C168.913 71.0426 168.542 71.1136 168.118 71.1136C167.562 71.1136 167.101 70.9929 166.737 70.7514C166.372 70.5099 166.141 70.1572 166.044 69.6932L166.84 69.4943C166.915 69.7879 167.059 70.008 167.269 70.1548C167.482 70.3016 167.761 70.375 168.104 70.375C168.494 70.375 168.805 70.2921 169.034 70.1264C169.266 69.9583 169.382 69.7571 169.382 69.5227C169.382 69.3333 169.316 69.1747 169.183 69.0469C169.051 68.9167 168.847 68.8196 168.573 68.7557L167.663 68.5426C167.164 68.4242 166.797 68.2408 166.563 67.9922C166.331 67.7412 166.215 67.4276 166.215 67.0511C166.215 66.7434 166.301 66.4711 166.474 66.2344C166.649 65.9976 166.887 65.8118 167.188 65.6768C167.491 65.5419 167.834 65.4744 168.217 65.4744C168.757 65.4744 169.181 65.5928 169.489 65.8295C169.799 66.0663 170.019 66.3788 170.149 66.767Z" fill="#CFD1DE"/>
<path d="M39.0225 43.9751C39.0225 43.0215 39.4758 42.1248 40.2436 41.5594L49.1355 35.0117L58.0274 41.5594C58.7952 42.1248 59.2485 43.0215 59.2485 43.9751V54.7604C59.2485 56.1411 58.1292 57.2604 56.7485 57.2604H53.1694C52.6171 57.2604 52.1694 56.8127 52.1694 56.2604V50.1756C52.1694 49.8995 51.9455 49.6756 51.6694 49.6756H46.6016C46.3254 49.6756 46.1016 49.8995 46.1016 50.1756V56.2604C46.1016 56.8127 45.6539 57.2604 45.1016 57.2604H41.5225C40.1418 57.2604 39.0225 56.1411 39.0225 54.7604V43.9751Z" stroke="#CFD1DE" stroke-width="2.02261" stroke-linecap="round" stroke-linejoin="round"/>
<path d="M36.075 71V63.7273H36.9557V66.9659H40.8335V63.7273H41.7142V71H40.8335V67.7472H36.9557V71H36.075ZM45.5796 71.1136C45.0872 71.1136 44.6552 70.9964 44.2835 70.7621C43.9142 70.5277 43.6253 70.1998 43.417 69.7784C43.211 69.357 43.108 68.8646 43.108 68.3011C43.108 67.733 43.211 67.237 43.417 66.8132C43.6253 66.3894 43.9142 66.0604 44.2835 65.826C44.6552 65.5916 45.0872 65.4744 45.5796 65.4744C46.0721 65.4744 46.5029 65.5916 46.8722 65.826C47.2439 66.0604 47.5328 66.3894 47.7387 66.8132C47.9471 67.237 48.0512 67.733 48.0512 68.3011C48.0512 68.8646 47.9471 69.357 47.7387 69.7784C47.5328 70.1998 47.2439 70.5277 46.8722 70.7621C46.5029 70.9964 46.0721 71.1136 45.5796 71.1136ZM45.5796 70.3608C45.9537 70.3608 46.2615 70.2649 46.5029 70.0732C46.7444 69.8814 46.9231 69.6293 47.0392 69.3168C47.1552 69.0043 47.2132 68.6657 47.2132 68.3011C47.2132 67.9366 47.1552 67.5968 47.0392 67.282C46.9231 66.9671 46.7444 66.7126 46.5029 66.5185C46.2615 66.3243 45.9537 66.2273 45.5796 66.2273C45.2056 66.2273 44.8978 66.3243 44.6563 66.5185C44.4149 66.7126 44.2361 66.9671 44.1201 67.282C44.0041 67.5968 43.9461 67.9366 43.9461 68.3011C43.9461 68.6657 44.0041 69.0043 44.1201 69.3168C44.2361 69.6293 44.4149 69.8814 44.6563 70.0732C44.8978 70.2649 45.2056 70.3608 45.5796 70.3608ZM49.3305 71V65.5455H50.1402V66.3977H50.2112C50.3248 66.1065 50.5083 65.8804 50.7616 65.7195C51.0149 65.5561 51.3192 65.4744 51.6743 65.4744C52.0341 65.4744 52.3336 65.5561 52.5727 65.7195C52.8142 65.8804 53.0024 66.1065 53.1373 66.3977H53.1942C53.3338 66.116 53.5434 65.8923 53.8227 65.7266C54.1021 65.5585 54.4371 65.4744 54.8277 65.4744C55.3154 65.4744 55.7143 65.6271 56.0244 65.9325C56.3345 66.2356 56.4896 66.7079 56.4896 67.3494V71H55.6515V67.3494C55.6515 66.947 55.5415 66.6593 55.3213 66.4865C55.1011 66.3137 54.8419 66.2273 54.5436 66.2273C54.1601 66.2273 53.863 66.3433 53.6523 66.5753C53.4416 66.8049 53.3362 67.0961 53.3362 67.4489V71H52.4839V67.2642C52.4839 66.9541 52.3833 66.7043 52.1821 66.5149C51.9809 66.3232 51.7216 66.2273 51.4044 66.2273C51.1866 66.2273 50.983 66.2853 50.7936 66.4013C50.6066 66.5173 50.455 66.6783 50.339 66.8842C50.2254 67.0878 50.1686 67.3234 50.1686 67.5909V71H49.3305ZM60.3089 71.1136C59.7833 71.1136 59.3299 70.9976 58.9488 70.7656C58.57 70.5312 58.2776 70.2045 58.0716 69.7855C57.868 69.3641 57.7662 68.8741 57.7662 68.3153C57.7662 67.7566 57.868 67.2642 58.0716 66.8381C58.2776 66.4096 58.5641 66.0758 58.931 65.8366C59.3003 65.5952 59.7312 65.4744 60.2236 65.4744C60.5077 65.4744 60.7883 65.5218 61.0653 65.6165C61.3422 65.7112 61.5944 65.8651 61.8216 66.0781C62.0489 66.2888 62.23 66.5682 62.365 66.9162C62.4999 67.2642 62.5674 67.6927 62.5674 68.2017V68.5568H58.3628V67.8324H61.7151C61.7151 67.5246 61.6536 67.25 61.5305 67.0085C61.4097 66.767 61.2369 66.5765 61.012 66.4368C60.7894 66.2971 60.5267 66.2273 60.2236 66.2273C59.8898 66.2273 59.601 66.3101 59.3572 66.4759C59.1157 66.6392 58.9298 66.8523 58.7996 67.1151C58.6694 67.3778 58.6043 67.6596 58.6043 67.9602V68.4432C58.6043 68.8551 58.6753 69.2043 58.8174 69.4908C58.9618 69.7749 59.1618 69.9915 59.4175 70.1406C59.6732 70.2874 59.9703 70.3608 60.3089 70.3608C60.529 70.3608 60.7279 70.33 60.9055 70.2685C61.0854 70.2045 61.2404 70.1098 61.3706 69.9844C61.5009 69.8565 61.6015 69.6979 61.6725 69.5085L62.4822 69.7358C62.3969 70.0104 62.2537 70.2519 62.0525 70.4602C61.8512 70.6662 61.6027 70.8272 61.3067 70.9432C61.0108 71.0568 60.6782 71.1136 60.3089 71.1136Z" fill="#CFD1DE"/>
<path d="M226.92 71V63.7273H229.462C229.969 63.7273 230.387 63.8149 230.716 63.9901C231.045 64.1629 231.29 64.3961 231.451 64.6896C231.612 64.9808 231.692 65.304 231.692 65.6591C231.692 65.9716 231.637 66.2296 231.526 66.4332C231.417 66.6368 231.272 66.7978 231.092 66.9162C230.915 67.0346 230.722 67.1222 230.513 67.179V67.25C230.736 67.2642 230.96 67.3423 231.185 67.4844C231.41 67.6264 231.598 67.83 231.749 68.0952C231.901 68.3603 231.977 68.6847 231.977 69.0682C231.977 69.4328 231.894 69.7607 231.728 70.0518C231.562 70.343 231.301 70.5739 230.943 70.7443C230.586 70.9148 230.121 71 229.548 71H226.92ZM227.8 70.2188H229.548C230.123 70.2188 230.531 70.1075 230.773 69.8849C231.017 69.66 231.138 69.3878 231.138 69.0682C231.138 68.822 231.076 68.5947 230.95 68.3864C230.825 68.1757 230.646 68.0076 230.414 67.8821C230.182 67.7543 229.907 67.6903 229.59 67.6903H227.8V70.2188ZM227.8 66.9233H229.434C229.699 66.9233 229.938 66.8712 230.151 66.767C230.367 66.6629 230.537 66.5161 230.663 66.3267C230.79 66.1373 230.854 65.9148 230.854 65.6591C230.854 65.3395 230.743 65.0684 230.521 64.8459C230.298 64.621 229.945 64.5085 229.462 64.5085H227.8V66.9233ZM233.31 71V65.5455H234.148V71H233.31ZM233.736 64.6364C233.573 64.6364 233.432 64.5807 233.314 64.4695C233.198 64.3582 233.14 64.2244 233.14 64.0682C233.14 63.9119 233.198 63.7782 233.314 63.6669C233.432 63.5556 233.573 63.5 233.736 63.5C233.9 63.5 234.039 63.5556 234.155 63.6669C234.274 63.7782 234.333 63.9119 234.333 64.0682C234.333 64.2244 234.274 64.3582 234.155 64.4695C234.039 64.5807 233.9 64.6364 233.736 64.6364ZM236.521 63.7273V71H235.683V63.7273H236.521ZM238.894 63.7273V71H238.056V63.7273H238.894ZM242.716 71.1136C242.191 71.1136 241.737 70.9976 241.356 70.7656C240.977 70.5312 240.685 70.2045 240.479 69.7855C240.275 69.3641 240.173 68.8741 240.173 68.3153C240.173 67.7566 240.275 67.2642 240.479 66.8381C240.685 66.4096 240.971 66.0758 241.338 65.8366C241.708 65.5952 242.138 65.4744 242.631 65.4744C242.915 65.4744 243.195 65.5218 243.472 65.6165C243.749 65.7112 244.002 65.8651 244.229 66.0781C244.456 66.2888 244.637 66.5682 244.772 66.9162C244.907 67.2642 244.975 67.6927 244.975 68.2017V68.5568H240.77V67.8324H244.122C244.122 67.5246 244.061 67.25 243.938 67.0085C243.817 66.767 243.644 66.5765 243.419 66.4368C243.197 66.2971 242.934 66.2273 242.631 66.2273C242.297 66.2273 242.008 66.3101 241.764 66.4759C241.523 66.6392 241.337 66.8523 241.207 67.1151C241.077 67.3778 241.012 67.6596 241.012 67.9602V68.4432C241.012 68.8551 241.083 69.2043 241.225 69.4908C241.369 69.7749 241.569 69.9915 241.825 70.1406C242.08 70.2874 242.378 70.3608 242.716 70.3608C242.936 70.3608 243.135 70.33 243.313 70.2685C243.493 70.2045 243.648 70.1098 243.778 69.9844C243.908 69.8565 244.009 69.6979 244.08 69.5085L244.889 69.7358C244.804 70.0104 244.661 70.2519 244.46 70.4602C244.258 70.6662 244.01 70.8272 243.714 70.9432C243.418 71.0568 243.085 71.1136 242.716 71.1136ZM248.622 65.5455V66.2557H245.795V65.5455H248.622ZM246.619 64.2386H247.457V69.4375C247.457 69.6742 247.491 69.8518 247.56 69.9702C247.631 70.0862 247.721 70.1643 247.83 70.2045C247.941 70.2424 248.058 70.2614 248.181 70.2614C248.274 70.2614 248.349 70.2566 248.409 70.2472C248.468 70.2353 248.515 70.2259 248.551 70.2188L248.721 70.9716C248.664 70.9929 248.585 71.0142 248.483 71.0355C248.381 71.0592 248.252 71.071 248.096 71.071C247.859 71.071 247.627 71.0201 247.4 70.9183C247.175 70.8165 246.988 70.6615 246.839 70.4531C246.692 70.2448 246.619 69.982 246.619 69.6648V64.2386ZM252.111 71.1136C251.585 71.1136 251.132 70.9976 250.751 70.7656C250.372 70.5312 250.079 70.2045 249.873 69.7855C249.67 69.3641 249.568 68.8741 249.568 68.3153C249.568 67.7566 249.67 67.2642 249.873 66.8381C250.079 66.4096 250.366 66.0758 250.733 65.8366C251.102 65.5952 251.533 65.4744 252.025 65.4744C252.309 65.4744 252.59 65.5218 252.867 65.6165C253.144 65.7112 253.396 65.8651 253.623 66.0781C253.851 66.2888 254.032 66.5682 254.167 66.9162C254.302 67.2642 254.369 67.6927 254.369 68.2017V68.5568H250.165V67.8324H253.517C253.517 67.5246 253.455 67.25 253.332 67.0085C253.211 66.767 253.039 66.5765 252.814 66.4368C252.591 66.2971 252.328 66.2273 252.025 66.2273C251.692 66.2273 251.403 66.3101 251.159 66.4759C250.917 66.6392 250.732 66.8523 250.601 67.1151C250.471 67.3778 250.406 67.6596 250.406 67.9602V68.4432C250.406 68.8551 250.477 69.2043 250.619 69.4908C250.764 69.7749 250.964 69.9915 251.219 70.1406C251.475 70.2874 251.772 70.3608 252.111 70.3608C252.331 70.3608 252.53 70.33 252.707 70.2685C252.887 70.2045 253.042 70.1098 253.172 69.9844C253.303 69.8565 253.403 69.6979 253.474 69.5085L254.284 69.7358C254.199 70.0104 254.055 70.2519 253.854 70.4602C253.653 70.6662 253.404 70.8272 253.108 70.9432C252.813 71.0568 252.48 71.1136 252.111 71.1136ZM255.644 71V65.5455H256.454V66.3693H256.51C256.61 66.0994 256.79 65.8804 257.05 65.7124C257.311 65.5443 257.604 65.4602 257.931 65.4602C257.992 65.4602 258.069 65.4614 258.162 65.4638C258.254 65.4661 258.324 65.4697 258.371 65.4744V66.3267C258.343 66.3196 258.278 66.3089 258.176 66.2947C258.077 66.2782 257.971 66.2699 257.86 66.2699C257.595 66.2699 257.358 66.3255 257.15 66.4368C256.944 66.5457 256.78 66.6972 256.66 66.8913C256.541 67.0831 256.482 67.3021 256.482 67.5483V71H255.644ZM260.97 71.1278C260.624 71.1278 260.31 71.0627 260.029 70.9325C259.747 70.8 259.523 70.6094 259.358 70.3608C259.192 70.1098 259.109 69.8068 259.109 69.4517C259.109 69.1392 259.171 68.8859 259.294 68.6918C259.417 68.4953 259.581 68.3414 259.787 68.2301C259.993 68.1188 260.221 68.036 260.469 67.9815C260.72 67.9247 260.972 67.8797 261.225 67.8466C261.557 67.804 261.826 67.772 262.032 67.7507C262.24 67.727 262.391 67.688 262.486 67.6335C262.583 67.5791 262.632 67.4844 262.632 67.3494V67.321C262.632 66.9706 262.536 66.6984 262.344 66.5043C262.155 66.3101 261.867 66.2131 261.481 66.2131C261.081 66.2131 260.767 66.3007 260.54 66.4759C260.313 66.651 260.153 66.8381 260.061 67.0369L259.265 66.7528C259.407 66.4214 259.597 66.1634 259.833 65.9787C260.073 65.7917 260.333 65.6615 260.615 65.5881C260.899 65.5123 261.178 65.4744 261.453 65.4744C261.628 65.4744 261.829 65.4957 262.056 65.5384C262.286 65.5786 262.507 65.6626 262.721 65.7905C262.936 65.9183 263.115 66.1113 263.257 66.3693C263.399 66.6274 263.47 66.973 263.47 67.4062V71H262.632V70.2614H262.589C262.532 70.3797 262.438 70.5064 262.305 70.6413C262.172 70.7763 261.996 70.8911 261.776 70.9858C261.556 71.0805 261.287 71.1278 260.97 71.1278ZM261.098 70.375C261.429 70.375 261.708 70.3099 261.936 70.1797C262.165 70.0495 262.338 69.8814 262.454 69.6754C262.573 69.4695 262.632 69.2528 262.632 69.0256V68.2585C262.596 68.3011 262.518 68.3402 262.397 68.3757C262.279 68.4089 262.142 68.4384 261.985 68.4645C261.832 68.4882 261.681 68.5095 261.534 68.5284C261.39 68.545 261.273 68.5592 261.183 68.571C260.965 68.5994 260.761 68.6456 260.572 68.7095C260.385 68.7711 260.234 68.8646 260.118 68.9901C260.004 69.1132 259.947 69.2812 259.947 69.4943C259.947 69.7855 260.055 70.0057 260.27 70.1548C260.488 70.3016 260.764 70.375 261.098 70.375Z" fill="#CFD1DE"/>
<path d="M254.231 37.0449L237.074 37.0449C235.401 37.0449 234.044 38.4015 234.044 40.0749V54.241C234.044 55.9144 235.401 57.271 237.074 57.271H253.197C254.871 57.271 256.227 55.9144 256.227 54.241V44.0256C256.227 42.3522 254.871 40.9956 253.197 40.9956H236.548C235.433 40.9956 234.528 40.0913 234.528 38.9759V38.9759" stroke="#CFD1DE" stroke-width="2.02" stroke-linecap="round" stroke-linejoin="round"/>
<rect width="70" height="2" transform="matrix(1 0 0 -1 308.136 21)" fill="#55B3FF"/>
<rect width="390" height="75" transform="translate(0 19)" fill="white"/>
<rect y="19" width="390" height="75" fill="white"/>
<path fill-rule="evenodd" clip-rule="evenodd" d="M49.6007 35.197C49.2441 34.9343 48.758 34.9343 48.4014 35.197L39.5095 41.7446C38.4828 42.5006 37.8767 43.6997 37.8767 44.9747V55.76C37.8767 57.6992 39.4488 59.2713 41.388 59.2713H44.9671C46.078 59.2713 46.9784 58.3708 46.9784 57.26V51.6865H51.0237V57.26C51.0237 58.3708 51.9241 59.2713 53.035 59.2713H56.6141C58.5533 59.2713 60.1254 57.6992 60.1254 55.76V44.9747C60.1254 43.6997 59.5193 42.5006 58.4926 41.7446L49.6007 35.197ZM40.7088 43.3733L49.001 37.2672L57.2933 43.3733C57.8023 43.7481 58.1028 44.3426 58.1028 44.9747V55.76C58.1028 56.5821 57.4363 57.2487 56.6141 57.2487H53.0463V51.1752C53.0463 50.3405 52.3696 49.6639 51.535 49.6639H46.4671C45.6325 49.6639 44.9558 50.3405 44.9558 51.1752V57.2487H41.388C40.5658 57.2487 39.8993 56.5821 39.8993 55.76V44.9747C39.8993 44.3426 40.1998 43.7481 40.7088 43.3733Z" fill="#CFD1DE"/>
<path d="M35.9404 64.7273V72H36.8211V68.7472H40.699V72H41.5796V64.7273H40.699V67.9659H36.8211V64.7273H35.9404Z" fill="#CFD1DE"/>
<path fill-rule="evenodd" clip-rule="evenodd" d="M44.1489 71.7621C44.5206 71.9964 44.9526 72.1136 45.445 72.1136C45.9375 72.1136 46.3683 71.9964 46.7377 71.7621C47.1093 71.5277 47.3982 71.1998 47.6041 70.7784C47.8125 70.357 47.9166 69.8646 47.9166 69.3011C47.9166 68.733 47.8125 68.237 47.6041 67.8132C47.3982 67.3894 47.1093 67.0604 46.7377 66.826C46.3683 66.5916 45.9375 66.4744 45.445 66.4744C44.9526 66.4744 44.5206 66.5916 44.1489 66.826C43.7796 67.0604 43.4907 67.3894 43.2824 67.8132C43.0764 68.237 42.9735 68.733 42.9735 69.3011C42.9735 69.8646 43.0764 70.357 43.2824 70.7784C43.4907 71.1998 43.7796 71.5277 44.1489 71.7621ZM46.3683 71.0732C46.1269 71.2649 45.8191 71.3608 45.445 71.3608C45.071 71.3608 44.7632 71.2649 44.5218 71.0732C44.2803 70.8814 44.1015 70.6293 43.9855 70.3168C43.8695 70.0043 43.8115 69.6657 43.8115 69.3011C43.8115 68.9366 43.8695 68.5968 43.9855 68.282C44.1015 67.9671 44.2803 67.7126 44.5218 67.5185C44.7632 67.3243 45.071 67.2273 45.445 67.2273C45.8191 67.2273 46.1269 67.3243 46.3683 67.5185C46.6098 67.7126 46.7886 67.9671 46.9046 68.282C47.0206 68.5968 47.0786 68.9366 47.0786 69.3011C47.0786 69.6657 47.0206 70.0043 46.9046 70.3168C46.7886 70.6293 46.6098 70.8814 46.3683 71.0732Z" fill="#CFD1DE"/>
<path d="M49.1959 66.5455V72H50.034V68.5909C50.034 68.3234 50.0908 68.0878 50.2045 67.8842C50.3205 67.6783 50.472 67.5173 50.659 67.4013C50.8484 67.2853 51.052 67.2273 51.2698 67.2273C51.587 67.2273 51.8463 67.3232 52.0475 67.5149C52.2487 67.7043 52.3493 67.9541 52.3493 68.2642V72H53.2016V68.4489C53.2016 68.0961 53.307 67.8049 53.5177 67.5753C53.7284 67.3433 54.0255 67.2273 54.409 67.2273C54.7073 67.2273 54.9665 67.3137 55.1867 67.4865C55.4069 67.6593 55.517 67.947 55.517 68.3494V72H56.355V68.3494C56.355 67.7079 56.2 67.2356 55.8898 66.9325C55.5797 66.6271 55.1808 66.4744 54.6931 66.4744C54.3025 66.4744 53.9675 66.5585 53.6881 66.7266C53.4088 66.8923 53.1992 67.116 53.0596 67.3977H53.0028C52.8678 67.1065 52.6796 66.8804 52.4381 66.7195C52.199 66.5561 51.8995 66.4744 51.5397 66.4744C51.1846 66.4744 50.8804 66.5561 50.627 66.7195C50.3737 66.8804 50.1903 67.1065 50.0766 67.3977H50.0056V66.5455H49.1959Z" fill="#CFD1DE"/>
<path fill-rule="evenodd" clip-rule="evenodd" d="M58.8142 71.7656C59.1953 71.9976 59.6487 72.1136 60.1743 72.1136C60.5436 72.1136 60.8762 72.0568 61.1721 71.9432C61.4681 71.8272 61.7167 71.6662 61.9179 71.4602C62.1191 71.2519 62.2623 71.0104 62.3476 70.7358L61.5379 70.5085C61.4669 70.6979 61.3663 70.8565 61.2361 70.9844C61.1059 71.1098 60.9508 71.2045 60.7709 71.2685C60.5933 71.33 60.3944 71.3608 60.1743 71.3608C59.8357 71.3608 59.5386 71.2874 59.2829 71.1406C59.0273 70.9915 58.8272 70.7749 58.6828 70.4908C58.554 70.231 58.4836 69.9197 58.4716 69.5568H62.4328V69.2017C62.4328 68.6927 62.3653 68.2642 62.2304 67.9162C62.0954 67.5682 61.9143 67.2888 61.6871 67.0781C61.4598 66.8651 61.2077 66.7112 60.9307 66.6165C60.6537 66.5218 60.3731 66.4744 60.089 66.4744C59.5966 66.4744 59.1658 66.5952 58.7964 66.8366C58.4295 67.0758 58.143 67.4096 57.9371 67.8381C57.7335 68.2642 57.6317 68.7566 57.6317 69.3153C57.6317 69.8741 57.7335 70.3641 57.9371 70.7855C58.143 71.2045 58.4354 71.5312 58.8142 71.7656ZM58.4737 68.8324C58.4897 68.5794 58.5535 68.3403 58.665 68.1151C58.7952 67.8523 58.9811 67.6392 59.2226 67.4759C59.4664 67.3101 59.7552 67.2273 60.089 67.2273C60.3921 67.2273 60.6549 67.2971 60.8774 67.4368C61.1023 67.5765 61.2751 67.767 61.3959 68.0085C61.519 68.25 61.5805 68.5246 61.5805 68.8324H58.4737Z" fill="#CFD1DE"/>
<path fill-rule="evenodd" clip-rule="evenodd" d="M152.069 37.0226H151.896C151.48 35.8442 150.356 35 149.035 35H142.967C141.646 35 140.522 35.8442 140.106 37.0226H139.933C137.699 37.0226 135.888 38.8337 135.888 41.0678V55.2261C135.888 57.4602 137.699 59.2713 139.933 59.2713H152.069C154.303 59.2713 156.114 57.4602 156.114 55.2261V41.0678C156.114 38.8337 154.303 37.0226 152.069 37.0226ZM137.911 41.0678C137.911 39.9508 138.816 39.0452 139.933 39.0452C139.933 40.7208 141.292 42.0791 142.967 42.0791H149.035C150.711 42.0791 152.069 40.7208 152.069 39.0452C153.186 39.0452 154.091 39.9508 154.091 41.0678V55.2261C154.091 56.3431 153.186 57.2487 152.069 57.2487H139.933C138.816 57.2487 137.911 56.3431 137.911 55.2261V41.0678ZM142.967 37.0226C142.409 37.0226 141.956 37.4754 141.956 38.0339V39.0452C141.956 39.6037 142.409 40.0565 142.967 40.0565H149.035C149.593 40.0565 150.046 39.6037 150.046 39.0452V38.0339C150.046 37.4754 149.593 37.0226 149.035 37.0226H142.967Z" fill="#CFD1DE"/>
<path fill-rule="evenodd" clip-rule="evenodd" d="M123.272 64.7273V72H124.153V69.3438H125.744C126.31 69.3438 126.774 69.2408 127.136 69.0348C127.498 68.8265 127.766 68.5471 127.939 68.1967C128.114 67.8464 128.201 67.4569 128.201 67.0284C128.201 66.5999 128.114 66.2116 127.939 65.8636C127.763 65.5156 127.494 65.2398 127.129 65.0362C126.767 64.8303 126.3 64.7273 125.73 64.7273H123.272ZM124.153 68.5625H125.716C126.106 68.5625 126.42 68.495 126.657 68.3601C126.893 68.2251 127.065 68.0429 127.172 67.8132C127.281 67.5812 127.335 67.3196 127.335 67.0284C127.335 66.7372 127.281 66.4768 127.172 66.2472C127.065 66.0175 126.892 65.8376 126.653 65.7074C126.414 65.5748 126.097 65.5085 125.701 65.5085H124.153V68.5625Z" fill="#CFD1DE"/>
<path d="M129.506 66.5455V72H130.345V68.5483C130.345 68.3021 130.404 68.0831 130.522 67.8913C130.643 67.6972 130.806 67.5457 131.012 67.4368C131.22 67.3255 131.457 67.2699 131.722 67.2699C131.834 67.2699 131.939 67.2782 132.038 67.2947C132.14 67.3089 132.205 67.3196 132.234 67.3267V66.4744C132.186 66.4697 132.117 66.4661 132.024 66.4638C131.932 66.4614 131.855 66.4602 131.793 66.4602C131.467 66.4602 131.173 66.5443 130.913 66.7124C130.652 66.8804 130.472 67.0994 130.373 67.3693H130.316V66.5455H129.506Z" fill="#CFD1DE"/>
<path fill-rule="evenodd" clip-rule="evenodd" d="M133.981 71.7621C134.353 71.9964 134.785 72.1136 135.277 72.1136C135.77 72.1136 136.2 71.9964 136.57 71.7621C136.941 71.5277 137.23 71.1998 137.436 70.7784C137.645 70.357 137.749 69.8646 137.749 69.3011C137.749 68.733 137.645 68.237 137.436 67.8132C137.23 67.3894 136.941 67.0604 136.57 66.826C136.2 66.5916 135.77 66.4744 135.277 66.4744C134.785 66.4744 134.353 66.5916 133.981 66.826C133.612 67.0604 133.323 67.3894 133.114 67.8132C132.908 68.237 132.805 68.733 132.805 69.3011C132.805 69.8646 132.908 70.357 133.114 70.7784C133.323 71.1998 133.612 71.5277 133.981 71.7621ZM136.2 71.0732C135.959 71.2649 135.651 71.3608 135.277 71.3608C134.903 71.3608 134.595 71.2649 134.354 71.0732C134.112 70.8814 133.934 70.6293 133.818 70.3168C133.702 70.0043 133.644 69.6657 133.644 69.3011C133.644 68.9366 133.702 68.5968 133.818 68.282C133.934 67.9671 134.112 67.7126 134.354 67.5185C134.595 67.3243 134.903 67.2273 135.277 67.2273C135.651 67.2273 135.959 67.3243 136.2 67.5185C136.442 67.7126 136.621 67.9671 136.737 68.282C136.853 68.5968 136.911 68.9366 136.911 69.3011C136.911 69.6657 136.853 70.0043 136.737 70.3168C136.621 70.6293 136.442 70.8814 136.2 71.0732Z" fill="#CFD1DE"/>
<path d="M138.992 74.0099C139.104 74.0336 139.23 74.0455 139.372 74.0455C139.626 74.0455 139.853 74.0005 140.054 73.9105C140.258 73.8205 140.437 73.6821 140.59 73.495C140.744 73.3104 140.873 73.0772 140.978 72.7955L143.293 66.5455H142.384L140.878 70.892H140.821L139.316 66.5455H138.407L140.424 72.0284L140.267 72.4545C140.166 72.7315 140.053 72.9316 139.93 73.0547C139.809 73.1802 139.671 73.25 139.514 73.2642C139.358 73.2784 139.178 73.2595 138.975 73.2074L138.762 73.946C138.804 73.9673 138.881 73.9886 138.992 74.0099Z" fill="#CFD1DE"/>
<path fill-rule="evenodd" clip-rule="evenodd" d="M145.131 71.7656C145.512 71.9976 145.965 72.1136 146.491 72.1136C146.86 72.1136 147.193 72.0568 147.489 71.9432C147.784 71.8272 148.033 71.6662 148.234 71.4602C148.436 71.2519 148.579 71.0104 148.664 70.7358L147.854 70.5085C147.783 70.6979 147.683 70.8565 147.552 70.9844C147.422 71.1098 147.267 71.2045 147.087 71.2685C146.91 71.33 146.711 71.3608 146.491 71.3608C146.152 71.3608 145.855 71.2874 145.599 71.1406C145.344 70.9915 145.144 70.7749 144.999 70.4908C144.87 70.231 144.8 69.9197 144.788 69.5568H148.749V69.2017C148.749 68.6927 148.682 68.2642 148.547 67.9162C148.412 67.5682 148.231 67.2888 148.003 67.0781C147.776 66.8651 147.524 66.7112 147.247 66.6165C146.97 66.5218 146.69 66.4744 146.405 66.4744C145.913 66.4744 145.482 66.5952 145.113 66.8366C144.746 67.0758 144.459 67.4096 144.253 67.8381C144.05 68.2642 143.948 68.7566 143.948 69.3153C143.948 69.8741 144.05 70.3641 144.253 70.7855C144.459 71.2045 144.752 71.5312 145.131 71.7656ZM144.79 68.8324C144.806 68.5794 144.87 68.3403 144.981 68.1151C145.112 67.8523 145.297 67.6392 145.539 67.4759C145.783 67.3101 146.072 67.2273 146.405 67.2273C146.708 67.2273 146.971 67.2971 147.194 67.4368C147.419 67.5765 147.592 67.767 147.712 68.0085C147.835 68.25 147.897 68.5246 147.897 68.8324H144.79Z" fill="#CFD1DE"/>
<path d="M150.919 71.7514C151.288 71.9929 151.729 72.1136 152.24 72.1136C152.642 72.1136 152.995 72.0391 153.298 71.8899C153.604 71.7384 153.849 71.5348 154.033 71.2791C154.22 71.0211 154.338 70.7311 154.385 70.4091H153.547C153.495 70.608 153.407 70.7784 153.284 70.9205C153.161 71.0625 153.011 71.1714 152.833 71.2472C152.655 71.3229 152.458 71.3608 152.24 71.3608C151.909 71.3608 151.62 71.2744 151.373 71.1016C151.13 70.9287 150.94 70.6861 150.805 70.3736C150.673 70.0611 150.606 69.6941 150.606 69.2727C150.606 68.8608 150.674 68.5021 150.809 68.1967C150.946 67.889 151.137 67.651 151.381 67.483C151.627 67.3125 151.913 67.2273 152.24 67.2273C152.609 67.2273 152.903 67.3243 153.121 67.5185C153.341 67.7102 153.483 67.9304 153.547 68.179H154.385C154.338 67.8381 154.216 67.5398 154.019 67.2841C153.823 67.0284 153.57 66.8295 153.263 66.6875C152.955 66.5455 152.609 66.4744 152.226 66.4744C151.733 66.4744 151.302 66.5952 150.933 66.8366C150.566 67.0758 150.28 67.4084 150.074 67.8345C149.87 68.2583 149.768 68.7472 149.768 69.3011C149.768 69.8456 149.868 70.3298 150.067 70.7536C150.266 71.1773 150.55 71.5099 150.919 71.7514Z" fill="#CFD1DE"/>
<path d="M157.982 67.2557V66.5455H156.817V65.2386H155.979V66.5455H155.155V67.2557H155.979V70.6648C155.979 70.982 156.053 71.2448 156.199 71.4531C156.349 71.6615 156.536 71.8165 156.761 71.9183C156.988 72.0201 157.22 72.071 157.457 72.071C157.613 72.071 157.742 72.0592 157.844 72.0355C157.945 72.0142 158.025 71.9929 158.082 71.9716L157.911 71.2188L157.769 71.2472C157.71 71.2566 157.634 71.2614 157.542 71.2614C157.419 71.2614 157.302 71.2424 157.19 71.2045C157.081 71.1643 156.991 71.0862 156.92 70.9702C156.852 70.8518 156.817 70.6742 156.817 70.4375V67.2557H157.982Z" fill="#CFD1DE"/>
<path fill-rule="evenodd" clip-rule="evenodd" d="M160.104 71.7621C160.476 71.9964 160.908 72.1136 161.4 72.1136C161.893 72.1136 162.323 71.9964 162.693 71.7621C163.064 71.5277 163.353 71.1998 163.559 70.7784C163.768 70.357 163.872 69.8646 163.872 69.3011C163.872 68.733 163.768 68.237 163.559 67.8132C163.353 67.3894 163.064 67.0604 162.693 66.826C162.323 66.5916 161.893 66.4744 161.4 66.4744C160.908 66.4744 160.476 66.5916 160.104 66.826C159.735 67.0604 159.446 67.3894 159.237 67.8132C159.032 68.237 158.929 68.733 158.929 69.3011C158.929 69.8646 159.032 70.357 159.237 70.7784C159.446 71.1998 159.735 71.5277 160.104 71.7621ZM162.323 71.0732C162.082 71.2649 161.774 71.3608 161.4 71.3608C161.026 71.3608 160.718 71.2649 160.477 71.0732C160.235 70.8814 160.057 70.6293 159.941 70.3168C159.825 70.0043 159.767 69.6657 159.767 69.3011C159.767 68.9366 159.825 68.5968 159.941 68.282C160.057 67.9671 160.235 67.7126 160.477 67.5185C160.718 67.3243 161.026 67.2273 161.4 67.2273C161.774 67.2273 162.082 67.3243 162.323 67.5185C162.565 67.7126 162.744 67.9671 162.86 68.282C162.976 68.5968 163.034 68.9366 163.034 69.3011C163.034 69.6657 162.976 70.0043 162.86 70.3168C162.744 70.6293 162.565 70.8814 162.323 71.0732Z" fill="#CFD1DE"/>
<path d="M168.262 67.9801L169.015 67.767C168.884 67.3788 168.664 67.0663 168.354 66.8295C168.046 66.5928 167.623 66.4744 167.083 66.4744C166.699 66.4744 166.356 66.5419 166.053 66.6768C165.752 66.8118 165.514 66.9976 165.339 67.2344C165.166 67.4711 165.08 67.7434 165.08 68.0511C165.08 68.4276 165.196 68.7412 165.428 68.9922C165.662 69.2408 166.029 69.4242 166.529 69.5426L167.438 69.7557C167.713 69.8196 167.916 69.9167 168.049 70.0469C168.181 70.1747 168.248 70.3333 168.248 70.5227C168.248 70.7571 168.132 70.9583 167.9 71.1264C167.67 71.2921 167.36 71.375 166.969 71.375C166.626 71.375 166.348 71.3016 166.135 71.1548C165.924 71.008 165.781 70.7879 165.705 70.4943L164.91 70.6932C165.007 71.1572 165.237 71.5099 165.602 71.7514C165.967 71.9929 166.427 72.1136 166.983 72.1136C167.407 72.1136 167.779 72.0426 168.098 71.9006C168.418 71.7585 168.667 71.5644 168.844 71.3182C169.024 71.072 169.114 70.7926 169.114 70.4801C169.114 70.099 168.995 69.7876 168.755 69.5462C168.516 69.3023 168.153 69.1212 167.665 69.0028L166.856 68.804C166.534 68.7235 166.297 68.6229 166.145 68.5021C165.994 68.3814 165.918 68.2169 165.918 68.0085C165.918 67.7741 166.028 67.5812 166.248 67.4297C166.471 67.2758 166.749 67.1989 167.083 67.1989C167.327 67.1989 167.527 67.2379 167.683 67.3161C167.839 67.3942 167.962 67.4936 168.052 67.6143C168.145 67.7327 168.214 67.8546 168.262 67.9801Z" fill="#CFD1DE"/>
<path fill-rule="evenodd" clip-rule="evenodd" d="M235.938 35.9902C233.707 35.9902 231.898 37.799 231.898 40.0302V54.1963C231.898 56.4275 233.707 58.2363 235.938 58.2363H252.062C254.293 58.2363 256.102 56.4275 256.102 54.1963V43.9809C256.102 41.7497 254.293 39.9409 252.062 39.9409H235.412C234.855 39.9409 234.403 39.4889 234.403 38.9312C234.403 38.8656 234.396 38.8015 234.385 38.7395C234.755 38.2939 235.314 38.0102 235.938 38.0102H253.096C253.654 38.0102 254.106 37.558 254.106 37.0002C254.106 36.4424 253.654 35.9902 253.096 35.9902H235.938ZM233.918 54.1963V41.5675C234.359 41.8179 234.869 41.9609 235.412 41.9609H252.062C253.177 41.9609 254.082 42.8653 254.082 43.9809V54.1963C254.082 55.3119 253.177 56.2163 252.062 56.2163H235.938C234.823 56.2163 233.918 55.3119 233.918 54.1963Z" fill="#CFD1DE"/>
<path fill-rule="evenodd" clip-rule="evenodd" d="M225.784 63.6823V70.9551H228.412C228.985 70.9551 229.45 70.8698 229.808 70.6994C230.165 70.5289 230.427 70.2981 230.592 70.0069C230.758 69.7157 230.841 69.3878 230.841 69.0233C230.841 68.6397 230.765 68.3154 230.614 68.0502C230.462 67.7851 230.274 67.5815 230.049 67.4394C229.824 67.2974 229.6 67.2193 229.378 67.2051V67.134C229.586 67.0772 229.779 66.9896 229.957 66.8713C230.137 66.7529 230.281 66.5919 230.39 66.3883C230.501 66.1847 230.557 65.9267 230.557 65.6142C230.557 65.259 230.476 64.9359 230.315 64.6447C230.154 64.3511 229.909 64.1179 229.58 63.9451C229.251 63.7699 228.833 63.6823 228.327 63.6823H225.784ZM228.412 70.1738H226.665V67.6454H228.455C228.772 67.6454 229.046 67.7093 229.278 67.8372C229.511 67.9626 229.689 68.1307 229.815 68.3414C229.94 68.5498 230.003 68.777 230.003 69.0233C230.003 69.3429 229.881 69.6151 229.637 69.84C229.396 70.0625 228.987 70.1738 228.412 70.1738ZM228.298 66.8784H226.665V64.4636H228.327C228.81 64.4636 229.162 64.576 229.385 64.8009C229.608 65.0235 229.719 65.2946 229.719 65.6142C229.719 65.8698 229.655 66.0924 229.527 66.2818C229.402 66.4712 229.231 66.6179 229.016 66.7221C228.803 66.8263 228.564 66.8784 228.298 66.8784Z" fill="#CFD1DE"/>
<path d="M232.174 65.5005V70.9551H233.013V65.5005H232.174Z" fill="#CFD1DE"/>
<path d="M232.178 64.4245C232.296 64.5358 232.437 64.5914 232.601 64.5914C232.764 64.5914 232.904 64.5358 233.02 64.4245C233.138 64.3133 233.197 64.1795 233.197 64.0233C233.197 63.867 233.138 63.7332 233.02 63.622C232.904 63.5107 232.764 63.4551 232.601 63.4551C232.437 63.4551 232.296 63.5107 232.178 63.622C232.062 63.7332 232.004 63.867 232.004 64.0233C232.004 64.1795 232.062 64.3133 232.178 64.4245Z" fill="#CFD1DE"/>
<path d="M235.386 70.9551V63.6823H234.547V70.9551H235.386Z" fill="#CFD1DE"/>
<path d="M237.759 70.9551V63.6823H236.921V70.9551H237.759Z" fill="#CFD1DE"/>
<path fill-rule="evenodd" clip-rule="evenodd" d="M240.22 70.7207C240.602 70.9527 241.055 71.0687 241.581 71.0687C241.95 71.0687 242.282 71.0119 242.578 70.8983C242.874 70.7822 243.123 70.6213 243.324 70.4153C243.525 70.207 243.669 69.9655 243.754 69.6909L242.944 69.4636C242.873 69.653 242.773 69.8116 242.642 69.9394C242.512 70.0649 242.357 70.1596 242.177 70.2235C242 70.2851 241.801 70.3159 241.581 70.3159C241.242 70.3159 240.945 70.2425 240.689 70.0957C240.434 69.9465 240.233 69.7299 240.089 69.4458C239.96 69.1861 239.89 68.8748 239.878 68.5119H243.839V68.1568C243.839 67.6478 243.772 67.2193 243.637 66.8713C243.502 66.5233 243.321 66.2439 243.093 66.0332C242.866 65.8201 242.614 65.6662 242.337 65.5715C242.06 65.4768 241.779 65.4295 241.495 65.4295C241.003 65.4295 240.572 65.5502 240.203 65.7917C239.836 66.0308 239.549 66.3646 239.343 66.7931C239.14 67.2193 239.038 67.7117 239.038 68.2704C239.038 68.8291 239.14 69.3192 239.343 69.7406C239.549 70.1596 239.842 70.4863 240.22 70.7207ZM239.88 67.7875C239.896 67.5344 239.96 67.2953 240.071 67.0701C240.201 66.8073 240.387 66.5943 240.629 66.4309C240.873 66.2652 241.161 66.1823 241.495 66.1823C241.798 66.1823 242.061 66.2522 242.284 66.3919C242.509 66.5315 242.681 66.7221 242.802 66.9636C242.925 67.2051 242.987 67.4797 242.987 67.7875H239.88Z" fill="#CFD1DE"/>
<path d="M247.486 66.2108V65.5005H246.321V64.1937H245.483V65.5005H244.659V66.2108H245.483V69.6198C245.483 69.9371 245.557 70.1999 245.703 70.4082C245.853 70.6165 246.04 70.7716 246.264 70.8734C246.492 70.9752 246.724 71.0261 246.96 71.0261C247.117 71.0261 247.246 71.0143 247.348 70.9906C247.449 70.9693 247.529 70.948 247.585 70.9267L247.415 70.1738L247.273 70.2022C247.214 70.2117 247.138 70.2164 247.046 70.2164C246.923 70.2164 246.805 70.1975 246.694 70.1596C246.585 70.1194 246.495 70.0412 246.424 69.9252C246.356 69.8069 246.321 69.6293 246.321 69.3926V66.2108H247.486Z" fill="#CFD1DE"/>
<path fill-rule="evenodd" clip-rule="evenodd" d="M249.615 70.7207C249.996 70.9527 250.449 71.0687 250.975 71.0687C251.344 71.0687 251.677 71.0119 251.973 70.8983C252.269 70.7822 252.517 70.6213 252.719 70.4153C252.92 70.207 253.063 69.9655 253.148 69.6909L252.339 69.4636C252.268 69.653 252.167 69.8116 252.037 69.9394C251.907 70.0649 251.752 70.1596 251.572 70.2235C251.394 70.2851 251.195 70.3159 250.975 70.3159C250.637 70.3159 250.339 70.2425 250.084 70.0957C249.828 69.9465 249.628 69.7299 249.484 69.4458C249.355 69.1861 249.284 68.8748 249.272 68.5119H253.234V68.1568C253.234 67.6478 253.166 67.2193 253.031 66.8713C252.896 66.5233 252.715 66.2439 252.488 66.0332C252.261 65.8201 252.008 65.6662 251.731 65.5715C251.454 65.4768 251.174 65.4295 250.89 65.4295C250.397 65.4295 249.967 65.5502 249.597 65.7917C249.23 66.0308 248.944 66.3646 248.738 66.7931C248.534 67.2193 248.432 67.7117 248.432 68.2704C248.432 68.8291 248.534 69.3192 248.738 69.7406C248.944 70.1596 249.236 70.4863 249.615 70.7207ZM249.275 67.7875C249.29 67.5344 249.354 67.2953 249.466 67.0701C249.596 66.8073 249.782 66.5943 250.023 66.4309C250.267 66.2652 250.556 66.1823 250.89 66.1823C251.193 66.1823 251.456 66.2522 251.678 66.3919C251.903 66.5315 252.076 66.7221 252.197 66.9636C252.32 67.2051 252.381 67.4797 252.381 67.7875H249.275Z" fill="#CFD1DE"/>
<path d="M254.508 65.5005V70.9551H255.347V67.5034C255.347 67.2572 255.406 67.0382 255.524 66.8464C255.645 66.6523 255.808 66.5008 256.014 66.3919C256.222 66.2806 256.459 66.225 256.724 66.225C256.836 66.225 256.941 66.2332 257.04 66.2498C257.142 66.264 257.207 66.2747 257.236 66.2818V65.4295C257.188 65.4248 257.119 65.4212 257.026 65.4188C256.934 65.4165 256.857 65.4153 256.795 65.4153C256.469 65.4153 256.175 65.4993 255.915 65.6674C255.654 65.8355 255.474 66.0545 255.375 66.3244H255.318V65.5005H254.508Z" fill="#CFD1DE"/>
<path fill-rule="evenodd" clip-rule="evenodd" d="M258.893 70.8876C259.175 71.0178 259.489 71.0829 259.834 71.0829C260.151 71.0829 260.42 71.0356 260.64 70.9409C260.861 70.8462 261.037 70.7313 261.169 70.5964C261.302 70.4615 261.397 70.3348 261.454 70.2164H261.496V70.9551H262.334V67.3613C262.334 66.9281 262.263 66.5824 262.121 66.3244C261.979 66.0663 261.8 65.8734 261.585 65.7456C261.372 65.6177 261.151 65.5337 260.921 65.4934C260.694 65.4508 260.492 65.4295 260.317 65.4295C260.043 65.4295 259.763 65.4674 259.479 65.5431C259.197 65.6165 258.937 65.7467 258.698 65.9338C258.461 66.1184 258.272 66.3765 258.13 66.7079L258.925 66.992C259.017 66.7931 259.177 66.6061 259.405 66.4309C259.632 66.2557 259.946 66.1681 260.346 66.1681C260.732 66.1681 261.019 66.2652 261.209 66.4593C261.4 66.6535 261.496 66.9257 261.496 67.2761V67.3045C261.496 67.4394 261.448 67.5341 261.351 67.5886C261.256 67.643 261.104 67.6821 260.896 67.7058C260.69 67.7271 260.421 67.759 260.09 67.8017C259.837 67.8348 259.584 67.8798 259.334 67.9366C259.085 67.9911 258.858 68.0739 258.652 68.1852C258.446 68.2965 258.281 68.4503 258.158 68.6468C258.035 68.841 257.973 69.0943 257.973 69.4068C257.973 69.7619 258.056 70.0649 258.222 70.3159C258.388 70.5644 258.611 70.755 258.893 70.8876ZM260.8 70.1348C260.573 70.265 260.294 70.3301 259.962 70.3301C259.628 70.3301 259.352 70.2567 259.135 70.1099C258.919 69.9608 258.812 69.7406 258.812 69.4494C258.812 69.2363 258.868 69.0682 258.982 68.9451C259.098 68.8197 259.25 68.7261 259.437 68.6646C259.626 68.6007 259.83 68.5545 260.047 68.5261C260.137 68.5143 260.254 68.5 260.399 68.4835C260.546 68.4645 260.696 68.4432 260.85 68.4196C261.006 68.3935 261.143 68.3639 261.262 68.3308C261.383 68.2953 261.461 68.2562 261.496 68.2136V68.9806C261.496 69.2079 261.437 69.4245 261.319 69.6305C261.203 69.8365 261.03 70.0045 260.8 70.1348Z" fill="#CFD1DE"/>
<path fill-rule="evenodd" clip-rule="evenodd" d="M235.938 35.9902C233.707 35.9902 231.898 37.799 231.898 40.0302V54.1963C231.898 56.4275 233.707 58.2363 235.938 58.2363H252.062C254.293 58.2363 256.102 56.4275 256.102 54.1963V43.9809C256.102 41.7497 254.293 39.9409 252.062 39.9409H235.412C234.855 39.9409 234.403 39.4889 234.403 38.9312C234.403 38.8656 234.396 38.8015 234.385 38.7395C234.755 38.2939 235.314 38.0102 235.938 38.0102H253.096C253.654 38.0102 254.106 37.558 254.106 37.0002C254.106 36.4424 253.654 35.9902 253.096 35.9902H235.938ZM233.918 54.1963V41.5675C234.359 41.8179 234.869 41.9609 235.412 41.9609H252.062C253.177 41.9609 254.082 42.8653 254.082 43.9809V54.1963C254.082 55.3119 253.177 56.2163 252.062 56.2163H235.938C234.823 56.2163 233.918 55.3119 233.918 54.1963Z" fill="#CFD1DE"/>
<path fill-rule="evenodd" clip-rule="evenodd" d="M225.784 63.6823V70.9551H228.412C228.985 70.9551 229.45 70.8698 229.808 70.6994C230.165 70.5289 230.427 70.2981 230.592 70.0069C230.758 69.7157 230.841 69.3878 230.841 69.0233C230.841 68.6397 230.765 68.3154 230.614 68.0502C230.462 67.7851 230.274 67.5815 230.049 67.4394C229.824 67.2974 229.6 67.2193 229.378 67.2051V67.134C229.586 67.0772 229.779 66.9896 229.957 66.8713C230.137 66.7529 230.281 66.5919 230.39 66.3883C230.501 66.1847 230.557 65.9267 230.557 65.6142C230.557 65.259 230.476 64.9359 230.315 64.6447C230.154 64.3511 229.909 64.1179 229.58 63.9451C229.251 63.7699 228.833 63.6823 228.327 63.6823H225.784ZM228.412 70.1738H226.665V67.6454H228.455C228.772 67.6454 229.046 67.7093 229.278 67.8372C229.511 67.9626 229.689 68.1307 229.815 68.3414C229.94 68.5498 230.003 68.777 230.003 69.0233C230.003 69.3429 229.881 69.6151 229.637 69.84C229.396 70.0625 228.987 70.1738 228.412 70.1738ZM228.298 66.8784H226.665V64.4636H228.327C228.81 64.4636 229.162 64.576 229.385 64.8009C229.608 65.0235 229.719 65.2946 229.719 65.6142C229.719 65.8698 229.655 66.0924 229.527 66.2818C229.402 66.4712 229.231 66.6179 229.016 66.7221C228.803 66.8263 228.564 66.8784 228.298 66.8784Z" fill="#CFD1DE"/>
<path d="M232.174 65.5005V70.9551H233.013V65.5005H232.174Z" fill="#CFD1DE"/>
<path d="M232.178 64.4245C232.296 64.5358 232.437 64.5914 232.601 64.5914C232.764 64.5914 232.904 64.5358 233.02 64.4245C233.138 64.3133 233.197 64.1795 233.197 64.0233C233.197 63.867 233.138 63.7332 233.02 63.622C232.904 63.5107 232.764 63.4551 232.601 63.4551C232.437 63.4551 232.296 63.5107 232.178 63.622C232.062 63.7332 232.004 63.867 232.004 64.0233C232.004 64.1795 232.062 64.3133 232.178 64.4245Z" fill="#CFD1DE"/>
<path d="M235.386 70.9551V63.6823H234.547V70.9551H235.386Z" fill="#CFD1DE"/>
<path d="M237.759 70.9551V63.6823H236.921V70.9551H237.759Z" fill="#CFD1DE"/>
<path fill-rule="evenodd" clip-rule="evenodd" d="M240.22 70.7207C240.602 70.9527 241.055 71.0687 241.581 71.0687C241.95 71.0687 242.282 71.0119 242.578 70.8983C242.874 70.7822 243.123 70.6213 243.324 70.4153C243.525 70.207 243.669 69.9655 243.754 69.6909L242.944 69.4636C242.873 69.653 242.773 69.8116 242.642 69.9394C242.512 70.0649 242.357 70.1596 242.177 70.2235C242 70.2851 241.801 70.3159 241.581 70.3159C241.242 70.3159 240.945 70.2425 240.689 70.0957C240.434 69.9465 240.233 69.7299 240.089 69.4458C239.96 69.1861 239.89 68.8748 239.878 68.5119H243.839V68.1568C243.839 67.6478 243.772 67.2193 243.637 66.8713C243.502 66.5233 243.321 66.2439 243.093 66.0332C242.866 65.8201 242.614 65.6662 242.337 65.5715C242.06 65.4768 241.779 65.4295 241.495 65.4295C241.003 65.4295 240.572 65.5502 240.203 65.7917C239.836 66.0308 239.549 66.3646 239.343 66.7931C239.14 67.2193 239.038 67.7117 239.038 68.2704C239.038 68.8291 239.14 69.3192 239.343 69.7406C239.549 70.1596 239.842 70.4863 240.22 70.7207ZM239.88 67.7875C239.896 67.5344 239.96 67.2953 240.071 67.0701C240.201 66.8073 240.387 66.5943 240.629 66.4309C240.873 66.2652 241.161 66.1823 241.495 66.1823C241.798 66.1823 242.061 66.2522 242.284 66.3919C242.509 66.5315 242.681 66.7221 242.802 66.9636C242.925 67.2051 242.987 67.4797 242.987 67.7875H239.88Z" fill="#CFD1DE"/>
<path d="M247.486 66.2108V65.5005H246.321V64.1937H245.483V65.5005H244.659V66.2108H245.483V69.6198C245.483 69.9371 245.557 70.1999 245.703 70.4082C245.853 70.6165 246.04 70.7716 246.264 70.8734C246.492 70.9752 246.724 71.0261 246.96 71.0261C247.117 71.0261 247.246 71.0143 247.348 70.9906C247.449 70.9693 247.529 70.948 247.585 70.9267L247.415 70.1738L247.273 70.2022C247.214 70.2117 247.138 70.2164 247.046 70.2164C246.923 70.2164 246.805 70.1975 246.694 70.1596C246.585 70.1194 246.495 70.0412 246.424 69.9252C246.356 69.8069 246.321 69.6293 246.321 69.3926V66.2108H247.486Z" fill="#CFD1DE"/>
<path fill-rule="evenodd" clip-rule="evenodd" d="M249.615 70.7207C249.996 70.9527 250.449 71.0687 250.975 71.0687C251.344 71.0687 251.677 71.0119 251.973 70.8983C252.269 70.7822 252.517 70.6213 252.719 70.4153C252.92 70.207 253.063 69.9655 253.148 69.6909L252.339 69.4636C252.268 69.653 252.167 69.8116 252.037 69.9394C251.907 70.0649 251.752 70.1596 251.572 70.2235C251.394 70.2851 251.195 70.3159 250.975 70.3159C250.637 70.3159 250.339 70.2425 250.084 70.0957C249.828 69.9465 249.628 69.7299 249.484 69.4458C249.355 69.1861 249.284 68.8748 249.272 68.5119H253.234V68.1568C253.234 67.6478 253.166 67.2193 253.031 66.8713C252.896 66.5233 252.715 66.2439 252.488 66.0332C252.261 65.8201 252.008 65.6662 251.731 65.5715C251.454 65.4768 251.174 65.4295 250.89 65.4295C250.397 65.4295 249.967 65.5502 249.597 65.7917C249.23 66.0308 248.944 66.3646 248.738 66.7931C248.534 67.2193 248.432 67.7117 248.432 68.2704C248.432 68.8291 248.534 69.3192 248.738 69.7406C248.944 70.1596 249.236 70.4863 249.615 70.7207ZM249.275 67.7875C249.29 67.5344 249.354 67.2953 249.466 67.0701C249.596 66.8073 249.782 66.5943 250.023 66.4309C250.267 66.2652 250.556 66.1823 250.89 66.1823C251.193 66.1823 251.456 66.2522 251.678 66.3919C251.903 66.5315 252.076 66.7221 252.197 66.9636C252.32 67.2051 252.381 67.4797 252.381 67.7875H249.275Z" fill="#CFD1DE"/>
<path d="M254.508 65.5005V70.9551H255.347V67.5034C255.347 67.2572 255.406 67.0382 255.524 66.8464C255.645 66.6523 255.808 66.5008 256.014 66.3919C256.222 66.2806 256.459 66.225 256.724 66.225C256.836 66.225 256.941 66.2332 257.04 66.2498C257.142 66.264 257.207 66.2747 257.236 66.2818V65.4295C257.188 65.4248 257.119 65.4212 257.026 65.4188C256.934 65.4165 256.857 65.4153 256.795 65.4153C256.469 65.4153 256.175 65.4993 255.915 65.6674C255.654 65.8355 255.474 66.0545 255.375 66.3244H255.318V65.5005H254.508Z" fill="#CFD1DE"/>
<path fill-rule="evenodd" clip-rule="evenodd" d="M258.893 70.8876C259.175 71.0178 259.489 71.0829 259.834 71.0829C260.151 71.0829 260.42 71.0356 260.64 70.9409C260.861 70.8462 261.037 70.7313 261.169 70.5964C261.302 70.4615 261.397 70.3348 261.454 70.2164H261.496V70.9551H262.334V67.3613C262.334 66.9281 262.263 66.5824 262.121 66.3244C261.979 66.0663 261.8 65.8734 261.585 65.7456C261.372 65.6177 261.151 65.5337 260.921 65.4934C260.694 65.4508 260.492 65.4295 260.317 65.4295C260.043 65.4295 259.763 65.4674 259.479 65.5431C259.197 65.6165 258.937 65.7467 258.698 65.9338C258.461 66.1184 258.272 66.3765 258.13 66.7079L258.925 66.992C259.017 66.7931 259.177 66.6061 259.405 66.4309C259.632 66.2557 259.946 66.1681 260.346 66.1681C260.732 66.1681 261.019 66.2652 261.209 66.4593C261.4 66.6535 261.496 66.9257 261.496 67.2761V67.3045C261.496 67.4394 261.448 67.5341 261.351 67.5886C261.256 67.643 261.104 67.6821 260.896 67.7058C260.69 67.7271 260.421 67.759 260.09 67.8017C259.837 67.8348 259.584 67.8798 259.334 67.9366C259.085 67.9911 258.858 68.0739 258.652 68.1852C258.446 68.2965 258.281 68.4503 258.158 68.6468C258.035 68.841 257.973 69.0943 257.973 69.4068C257.973 69.7619 258.056 70.0649 258.222 70.3159C258.388 70.5644 258.611 70.755 258.893 70.8876ZM260.8 70.1348C260.573 70.265 260.294 70.3301 259.962 70.3301C259.628 70.3301 259.352 70.2567 259.135 70.1099C258.919 69.9608 258.812 69.7406 258.812 69.4494C258.812 69.2363 258.868 69.0682 258.982 68.9451C259.098 68.8197 259.25 68.7261 259.437 68.6646C259.626 68.6007 259.83 68.5545 260.047 68.5261C260.137 68.5143 260.254 68.5 260.399 68.4835C260.546 68.4645 260.696 68.4432 260.85 68.4196C261.006 68.3935 261.143 68.3639 261.262 68.3308C261.383 68.2953 261.461 68.2562 261.496 68.2136V68.9806C261.496 69.2079 261.437 69.4245 261.319 69.6305C261.203 69.8365 261.03 70.0045 260.8 70.1348Z" fill="#CFD1DE"/>
<path fill-rule="evenodd" clip-rule="evenodd" d="M336.932 42.0795C336.932 38.7284 339.649 36.0117 343 36.0117C346.351 36.0117 349.068 38.7284 349.068 42.0795C349.068 45.4307 346.351 48.1474 343 48.1474C339.649 48.1474 336.932 45.4307 336.932 42.0795ZM343 38.0343C340.766 38.0343 338.955 39.8454 338.955 42.0795C338.955 44.3136 340.766 46.1247 343 46.1247C345.234 46.1247 347.045 44.3136 347.045 42.0795C347.045 39.8454 345.234 38.0343 343 38.0343Z" fill="#CFD1DE"/>
<path d="M343 52.6982C340.589 52.6982 338.305 53.2365 336.748 53.7185C335.872 53.9901 335.227 54.7845 335.069 55.7988L334.898 56.8989C334.812 57.4508 334.295 57.8286 333.743 57.7427C333.191 57.6569 332.813 57.1399 332.899 56.588L333.07 55.4879C333.33 53.8204 334.434 52.3179 336.15 51.7865C337.813 51.2714 340.311 50.6756 343 50.6756C345.689 50.6756 348.187 51.2714 349.85 51.7865C351.566 52.3179 352.671 53.8204 352.93 55.4879L353.101 56.588C353.187 57.1399 352.809 57.6569 352.257 57.7427C351.705 57.8286 351.188 57.4508 351.103 56.8989L350.931 55.7988C350.774 54.7845 350.129 53.9901 349.252 53.7185C347.695 53.2365 345.411 52.6982 343 52.6982Z" fill="#CFD1DE"/>
<path fill-rule="evenodd" clip-rule="evenodd" d="M330.62 64.7277V72.0004H331.501V69.3442H333.092C333.658 69.3442 334.122 69.2412 334.484 69.0352C334.846 68.8269 335.113 68.5475 335.286 68.1971C335.461 67.8468 335.549 67.4573 335.549 67.0288C335.549 66.6003 335.461 66.2121 335.286 65.8641C335.111 65.516 334.841 65.2402 334.477 65.0366C334.114 64.8307 333.648 64.7277 333.078 64.7277H330.62ZM331.501 68.5629H333.063C333.454 68.5629 333.768 68.4954 334.004 68.3605C334.241 68.2256 334.413 68.0433 334.519 67.8136C334.628 67.5816 334.683 67.32 334.683 67.0288C334.683 66.7376 334.628 66.4772 334.519 66.2476C334.413 66.0179 334.24 65.838 334.001 65.7078C333.762 65.5752 333.444 65.5089 333.049 65.5089H331.501V68.5629Z" fill="#CFD1DE"/>
<path fill-rule="evenodd" clip-rule="evenodd" d="M337.722 71.766C338.104 71.998 338.557 72.1141 339.082 72.1141C339.452 72.1141 339.784 72.0572 340.08 71.9436C340.376 71.8276 340.625 71.6666 340.826 71.4606C341.027 71.2523 341.171 71.0108 341.256 70.7362L340.446 70.5089C340.375 70.6983 340.274 70.8569 340.144 70.9848C340.014 71.1103 339.859 71.205 339.679 71.2689C339.502 71.3304 339.303 71.3612 339.082 71.3612C338.744 71.3612 338.447 71.2878 338.191 71.141C337.935 70.9919 337.735 70.7753 337.591 70.4912C337.462 70.2314 337.392 69.9201 337.38 69.5572H341.341V69.2021C341.341 68.6931 341.274 68.2646 341.139 67.9166C341.004 67.5686 340.823 67.2892 340.595 67.0785C340.368 66.8655 340.116 66.7116 339.839 66.6169C339.562 66.5222 339.281 66.4748 338.997 66.4748C338.505 66.4748 338.074 66.5956 337.705 66.8371C337.338 67.0762 337.051 67.41 336.845 67.8385C336.642 68.2646 336.54 68.757 336.54 69.3158C336.54 69.8745 336.642 70.3645 336.845 70.7859C337.051 71.205 337.344 71.5317 337.722 71.766ZM337.382 68.8328C337.398 68.5798 337.462 68.3407 337.573 68.1155C337.703 67.8527 337.889 67.6396 338.131 67.4763C338.375 67.3105 338.663 67.2277 338.997 67.2277C339.3 67.2277 339.563 67.2975 339.786 67.4372C340.011 67.5769 340.183 67.7675 340.304 68.0089C340.427 68.2504 340.489 68.525 340.489 68.8328H337.382Z" fill="#CFD1DE"/>
<path d="M342.616 66.5459V72.0004H343.454V68.5487C343.454 68.3025 343.513 68.0835 343.631 67.8918C343.752 67.6976 343.916 67.5461 344.122 67.4372C344.33 67.3259 344.567 67.2703 344.832 67.2703C344.943 67.2703 345.048 67.2786 345.148 67.2952C345.25 67.3094 345.315 67.32 345.343 67.3271V66.4748C345.296 66.4701 345.226 66.4666 345.134 66.4642C345.041 66.4618 344.964 66.4606 344.903 66.4606C344.576 66.4606 344.283 66.5447 344.022 66.7128C343.762 66.8809 343.582 67.0998 343.482 67.3697H343.426V66.5459H342.616Z" fill="#CFD1DE"/>
<path d="M349.107 67.2561V66.5459H347.886V65.9919C347.886 65.722 347.946 65.5172 348.067 65.3775C348.19 65.2379 348.39 65.168 348.667 65.168C348.788 65.168 348.885 65.1787 348.958 65.2C349.034 65.2213 349.093 65.2391 349.136 65.2533L349.377 64.5288C349.313 64.5004 349.216 64.4696 349.086 64.4365C348.956 64.4034 348.788 64.3868 348.582 64.3868C348.321 64.3868 348.074 64.4389 347.84 64.543C347.605 64.6472 347.415 64.8034 347.268 65.0118C347.121 65.2201 347.048 65.4805 347.048 65.793V66.5459H346.167V67.2561H347.048V72.0004H347.886V67.2561H349.107Z" fill="#CFD1DE"/>
<path d="M350.282 66.5459V72.0004H351.12V66.5459H350.282Z" fill="#CFD1DE"/>
<path d="M350.285 65.4699C350.404 65.5811 350.545 65.6368 350.708 65.6368C350.871 65.6368 351.011 65.5811 351.127 65.4699C351.245 65.3586 351.305 65.2248 351.305 65.0686C351.305 64.9123 351.245 64.7786 351.127 64.6673C351.011 64.556 350.871 64.5004 350.708 64.5004C350.545 64.5004 350.404 64.556 350.285 64.6673C350.169 64.7786 350.111 64.9123 350.111 65.0686C350.111 65.2248 350.169 65.3586 350.285 65.4699Z" fill="#CFD1DE"/>
<path d="M353.493 72.0004V64.7277H352.655V72.0004H353.493Z" fill="#CFD1DE"/>
<rect width="70" height="2" transform="matrix(1 0 0 -1 290 25)" fill="#55B3FF"/>
</g>
<defs>
<filter id="filter0_d_1714_39616" x="-13" y="0" width="416" height="101" filterUnits="userSpaceOnUse" color-interpolation-filters="sRGB">
<feFlood flood-opacity="0" result="BackgroundImageFix"/>
<feColorMatrix in="SourceAlpha" type="matrix" values="0 0 0 0 0 0 0 0 0 0 0 0 0 0 0 0 0 0 127 0" result="hardAlpha"/>
<feOffset dy="-6"/>
<feGaussianBlur stdDeviation="6.5"/>
<feComposite in2="hardAlpha" operator="out"/>
<feColorMatrix type="matrix" values="0 0 0 0 0 0 0 0 0 0 0 0 0 0 0 0 0 0 0.04 0"/>
<feBlend mode="normal" in2="BackgroundImageFix" result="effect1_dropShadow_1714_39616"/>
<feBlend mode="normal" in="SourceGraphic" in2="effect1_dropShadow_1714_39616" result="shape"/>
</filter>
</defs>
</svg>
