<svg width="391" height="95" viewBox="0 0 391 95" fill="none" xmlns="http://www.w3.org/2000/svg">
<g filter="url(#filter0_d_1714_36096)">
<path d="M0.130859 19.8867H390.131V94.8867H0.130859V19.8867Z" fill="white"/>
<path d="M335.165 56.6307L335.336 55.5306C335.545 54.1898 336.42 53.0413 337.716 52.6398C339.326 52.1412 341.717 51.5742 344.267 51.5742C346.817 51.5742 349.208 52.1412 350.818 52.6398C352.114 53.0413 352.989 54.1898 353.197 55.5306L353.368 56.6307" stroke="#CFD1DE" stroke-width="2.02261" stroke-linecap="round" stroke-linejoin="round"/>
<path d="M344.266 47.0232C347.059 47.0232 349.323 44.7593 349.323 41.9667C349.323 39.174 347.059 36.9102 344.266 36.9102C341.474 36.9102 339.21 39.174 339.21 41.9667C339.21 44.7593 341.474 47.0232 344.266 47.0232Z" stroke="#CFD1DE" stroke-width="2.02261" stroke-linecap="round" stroke-linejoin="round"/>
<path d="M331.887 71.8867V64.614H334.344C334.914 64.614 335.381 64.717 335.743 64.9229C336.108 65.1265 336.378 65.4023 336.553 65.7504C336.728 66.0984 336.816 66.4866 336.816 66.9151C336.816 67.3436 336.728 67.7331 336.553 68.0835C336.38 68.4338 336.112 68.7132 335.75 68.9215C335.388 69.1275 334.924 69.2305 334.358 69.2305H332.597V68.4492H334.33C334.72 68.4492 335.034 68.3817 335.271 68.2468C335.508 68.1119 335.679 67.9296 335.786 67.6999C335.895 67.4679 335.949 67.2063 335.949 66.9151C335.949 66.6239 335.895 66.3635 335.786 66.1339C335.679 65.9042 335.506 65.7243 335.267 65.5941C335.028 65.4615 334.711 65.3952 334.316 65.3952H332.767V71.8867H331.887ZM340.349 72.0004C339.823 72.0004 339.37 71.8844 338.989 71.6523C338.61 71.418 338.318 71.0913 338.112 70.6722C337.908 70.2508 337.806 69.7608 337.806 69.2021C337.806 68.6433 337.908 68.1509 338.112 67.7248C338.318 67.2963 338.604 66.9625 338.971 66.7234C339.34 66.4819 339.771 66.3612 340.264 66.3612C340.548 66.3612 340.828 66.4085 341.105 66.5032C341.382 66.5979 341.634 66.7518 341.862 66.9648C342.089 67.1755 342.27 67.4549 342.405 67.8029C342.54 68.1509 342.607 68.5794 342.607 69.0884V69.4435H338.403V68.7191H341.755C341.755 68.4113 341.694 68.1367 341.57 67.8952C341.45 67.6538 341.277 67.4632 341.052 67.3235C340.829 67.1838 340.567 67.114 340.264 67.114C339.93 67.114 339.641 67.1969 339.397 67.3626C339.156 67.5259 338.97 67.739 338.84 68.0018C338.709 68.2646 338.644 68.5463 338.644 68.8469V69.3299C338.644 69.7418 338.715 70.091 338.857 70.3775C339.002 70.6616 339.202 70.8782 339.458 71.0273C339.713 71.1741 340.01 71.2475 340.349 71.2475C340.569 71.2475 340.768 71.2167 340.945 71.1552C341.125 71.0913 341.28 70.9966 341.411 70.8711C341.541 70.7433 341.642 70.5846 341.713 70.3952L342.522 70.6225C342.437 70.8971 342.294 71.1386 342.093 71.3469C341.891 71.5529 341.643 71.7139 341.347 71.8299C341.051 71.9435 340.718 72.0004 340.349 72.0004ZM343.882 71.8867V66.4322H344.692V67.256H344.749C344.848 66.9862 345.028 66.7672 345.289 66.5991C345.549 66.431 345.843 66.3469 346.169 66.3469C346.231 66.3469 346.308 66.3481 346.4 66.3505C346.492 66.3529 346.562 66.3564 346.61 66.3612V67.2134C346.581 67.2063 346.516 67.1957 346.414 67.1815C346.315 67.1649 346.209 67.1566 346.098 67.1566C345.833 67.1566 345.596 67.2122 345.388 67.3235C345.182 67.4324 345.019 67.5839 344.898 67.7781C344.78 67.9698 344.72 68.1888 344.72 68.435V71.8867H343.882ZM350.374 66.4322V67.1424H347.433V66.4322H350.374ZM348.314 71.8867V65.6793C348.314 65.3668 348.387 65.1064 348.534 64.8981C348.681 64.6897 348.872 64.5335 349.106 64.4293C349.34 64.3252 349.588 64.2731 349.848 64.2731C350.054 64.2731 350.222 64.2897 350.352 64.3228C350.483 64.3559 350.58 64.3867 350.644 64.4151L350.402 65.1396C350.36 65.1254 350.3 65.1076 350.225 65.0863C350.151 65.065 350.054 65.0543 349.933 65.0543C349.656 65.0543 349.456 65.1242 349.333 65.2638C349.213 65.4035 349.152 65.6083 349.152 65.8782V71.8867H348.314ZM351.548 71.8867V66.4322H352.386V71.8867H351.548ZM351.974 65.5231C351.811 65.5231 351.67 65.4674 351.552 65.3562C351.436 65.2449 351.378 65.1112 351.378 64.9549C351.378 64.7987 351.436 64.6649 351.552 64.5536C351.67 64.4424 351.811 64.3867 351.974 64.3867C352.138 64.3867 352.277 64.4424 352.393 64.5536C352.512 64.6649 352.571 64.7987 352.571 64.9549C352.571 65.1112 352.512 65.2449 352.393 65.3562C352.277 65.4674 352.138 65.5231 351.974 65.5231ZM354.759 64.614V71.8867H353.921V64.614H354.759Z" fill="#CFD1DE"/>
<path d="M142.21 37.9219H141.199C139.523 37.9219 138.165 39.2802 138.165 40.9558V55.114C138.165 56.7896 139.523 58.1479 141.199 58.1479H153.335C155.01 58.1479 156.368 56.7896 156.368 55.114V40.9558C156.368 39.2802 155.01 37.9219 153.335 37.9219H152.323" stroke="#CFD1DE" stroke-width="2.02261"/>
<rect x="142.21" y="35.8984" width="10.113" height="5.05651" rx="2.02261" stroke="#CFD1DE" stroke-width="2.02261"/>
<path d="M124.538 71.8867V64.614H126.995C127.566 64.614 128.032 64.717 128.394 64.9229C128.759 65.1265 129.029 65.4023 129.204 65.7504C129.379 66.0984 129.467 66.4866 129.467 66.9151C129.467 67.3436 129.379 67.7331 129.204 68.0835C129.031 68.4338 128.764 68.7132 128.402 68.9215C128.039 69.1275 127.575 69.2305 127.009 69.2305H125.248V68.4492H126.981C127.372 68.4492 127.685 68.3817 127.922 68.2468C128.159 68.1119 128.331 67.9296 128.437 67.6999C128.546 67.4679 128.6 67.2063 128.6 66.9151C128.6 66.6239 128.546 66.3635 128.437 66.1339C128.331 65.9042 128.158 65.7243 127.919 65.5941C127.679 65.4615 127.362 65.3952 126.967 65.3952H125.419V71.8867H124.538ZM130.772 71.8867V66.4322H131.582V67.256H131.638C131.738 66.9862 131.918 66.7672 132.178 66.5991C132.439 66.431 132.732 66.3469 133.059 66.3469C133.12 66.3469 133.197 66.3481 133.29 66.3505C133.382 66.3529 133.452 66.3564 133.499 66.3612V67.2134C133.471 67.2063 133.406 67.1957 133.304 67.1815C133.204 67.1649 133.099 67.1566 132.988 67.1566C132.723 67.1566 132.486 67.2122 132.278 67.3235C132.072 67.4324 131.908 67.5839 131.788 67.7781C131.669 67.9698 131.61 68.1888 131.61 68.435V71.8867H130.772ZM136.543 72.0004C136.05 72.0004 135.618 71.8832 135.246 71.6488C134.877 71.4144 134.588 71.0865 134.38 70.6651C134.174 70.2437 134.071 69.7513 134.071 69.1879C134.071 68.6197 134.174 68.1237 134.38 67.6999C134.588 67.2762 134.877 66.9471 135.246 66.7127C135.618 66.4783 136.05 66.3612 136.543 66.3612C137.035 66.3612 137.466 66.4783 137.835 66.7127C138.207 66.9471 138.496 67.2762 138.702 67.6999C138.91 68.1237 139.014 68.6197 139.014 69.1879C139.014 69.7513 138.91 70.2437 138.702 70.6651C138.496 71.0865 138.207 71.4144 137.835 71.6488C137.466 71.8832 137.035 72.0004 136.543 72.0004ZM136.543 71.2475C136.917 71.2475 137.224 71.1516 137.466 70.9599C137.707 70.7681 137.886 70.516 138.002 70.2035C138.118 69.891 138.176 69.5524 138.176 69.1879C138.176 68.8233 138.118 68.4835 138.002 68.1687C137.886 67.8538 137.707 67.5993 137.466 67.4052C137.224 67.2111 136.917 67.114 136.543 67.114C136.168 67.114 135.861 67.2111 135.619 67.4052C135.378 67.5993 135.199 67.8538 135.083 68.1687C134.967 68.4835 134.909 68.8233 134.909 69.1879C134.909 69.5524 134.967 69.891 135.083 70.2035C135.199 70.516 135.378 70.7681 135.619 70.9599C135.861 71.1516 136.168 71.2475 136.543 71.2475ZM140.638 73.9322C140.496 73.9322 140.369 73.9203 140.258 73.8967C140.147 73.8754 140.07 73.854 140.027 73.8327L140.24 73.0941C140.444 73.1462 140.624 73.1651 140.78 73.1509C140.936 73.1367 141.075 73.0669 141.195 72.9414C141.319 72.8183 141.431 72.6183 141.533 72.3413L141.689 71.9151L139.672 66.4322H140.581L142.087 70.7788H142.144L143.649 66.4322H144.558L142.243 72.6822C142.139 72.9639 142.01 73.1971 141.856 73.3817C141.702 73.5688 141.523 73.7073 141.32 73.7972C141.118 73.8872 140.891 73.9322 140.638 73.9322ZM147.756 72.0004C147.231 72.0004 146.777 71.8844 146.396 71.6523C146.017 71.418 145.725 71.0913 145.519 70.6722C145.315 70.2508 145.214 69.7608 145.214 69.2021C145.214 68.6433 145.315 68.1509 145.519 67.7248C145.725 67.2963 146.011 66.9625 146.378 66.7234C146.748 66.4819 147.178 66.3612 147.671 66.3612C147.955 66.3612 148.236 66.4085 148.513 66.5032C148.79 66.5979 149.042 66.7518 149.269 66.9648C149.496 67.1755 149.677 67.4549 149.812 67.8029C149.947 68.1509 150.015 68.5794 150.015 69.0884V69.4435H145.81V68.7191H149.162C149.162 68.4113 149.101 68.1367 148.978 67.8952C148.857 67.6538 148.684 67.4632 148.459 67.3235C148.237 67.1838 147.974 67.114 147.671 67.114C147.337 67.114 147.048 67.1969 146.804 67.3626C146.563 67.5259 146.377 67.739 146.247 68.0018C146.117 68.2646 146.052 68.5463 146.052 68.8469V69.3299C146.052 69.7418 146.123 70.091 146.265 70.3775C146.409 70.6616 146.609 70.8782 146.865 71.0273C147.12 71.1741 147.418 71.2475 147.756 71.2475C147.976 71.2475 148.175 71.2167 148.353 71.1552C148.533 71.0913 148.688 70.9966 148.818 70.8711C148.948 70.7433 149.049 70.5846 149.12 70.3952L149.929 70.6225C149.844 70.8971 149.701 71.1386 149.5 71.3469C149.299 71.5529 149.05 71.7139 148.754 71.8299C148.458 71.9435 148.125 72.0004 147.756 72.0004ZM153.505 72.0004C152.994 72.0004 152.554 71.8796 152.184 71.6381C151.815 71.3967 151.531 71.064 151.332 70.6403C151.133 70.2165 151.034 69.7324 151.034 69.1879C151.034 68.6339 151.136 68.145 151.339 67.7212C151.545 67.2951 151.832 66.9625 152.199 66.7234C152.568 66.4819 152.999 66.3612 153.491 66.3612C153.875 66.3612 154.22 66.4322 154.528 66.5742C154.836 66.7163 155.088 66.9151 155.285 67.1708C155.481 67.4265 155.603 67.7248 155.65 68.0657H154.812C154.748 67.8171 154.606 67.5969 154.386 67.4052C154.168 67.2111 153.875 67.114 153.505 67.114C153.179 67.114 152.892 67.1992 152.646 67.3697C152.402 67.5378 152.212 67.7757 152.074 68.0835C151.939 68.3888 151.872 68.7475 151.872 69.1594C151.872 69.5808 151.938 69.9478 152.071 70.2603C152.206 70.5728 152.395 70.8155 152.639 70.9883C152.885 71.1611 153.174 71.2475 153.505 71.2475C153.723 71.2475 153.921 71.2096 154.098 71.1339C154.276 71.0581 154.426 70.9492 154.549 70.8072C154.673 70.6651 154.76 70.4947 154.812 70.2958H155.65C155.603 70.6178 155.486 70.9078 155.299 71.1658C155.114 71.4215 154.869 71.6251 154.564 71.7766C154.261 71.9258 153.908 72.0004 153.505 72.0004ZM159.248 66.4322V67.1424H156.421V66.4322H159.248ZM157.245 65.1254H158.083V70.3242C158.083 70.561 158.117 70.7385 158.186 70.8569C158.257 70.9729 158.347 71.051 158.456 71.0913C158.567 71.1291 158.684 71.1481 158.807 71.1481C158.9 71.1481 158.975 71.1433 159.035 71.1339C159.094 71.122 159.141 71.1126 159.177 71.1055L159.347 71.8583C159.29 71.8796 159.211 71.9009 159.109 71.9222C159.007 71.9459 158.878 71.9577 158.722 71.9577C158.485 71.9577 158.253 71.9068 158.026 71.805C157.801 71.7032 157.614 71.5482 157.465 71.3398C157.318 71.1315 157.245 70.8687 157.245 70.5515V65.1254ZM162.666 72.0004C162.173 72.0004 161.741 71.8832 161.369 71.6488C161 71.4144 160.711 71.0865 160.503 70.6651C160.297 70.2437 160.194 69.7513 160.194 69.1879C160.194 68.6197 160.297 68.1237 160.503 67.6999C160.711 67.2762 161 66.9471 161.369 66.7127C161.741 66.4783 162.173 66.3612 162.666 66.3612C163.158 66.3612 163.589 66.4783 163.958 66.7127C164.33 66.9471 164.619 67.2762 164.825 67.6999C165.033 68.1237 165.137 68.6197 165.137 69.1879C165.137 69.7513 165.033 70.2437 164.825 70.6651C164.619 71.0865 164.33 71.4144 163.958 71.6488C163.589 71.8832 163.158 72.0004 162.666 72.0004ZM162.666 71.2475C163.04 71.2475 163.347 71.1516 163.589 70.9599C163.83 70.7681 164.009 70.516 164.125 70.2035C164.241 69.891 164.299 69.5524 164.299 69.1879C164.299 68.8233 164.241 68.4835 164.125 68.1687C164.009 67.8538 163.83 67.5993 163.589 67.4052C163.347 67.2111 163.04 67.114 162.666 67.114C162.292 67.114 161.984 67.2111 161.742 67.4052C161.501 67.5993 161.322 67.8538 161.206 68.1687C161.09 68.4835 161.032 68.8233 161.032 69.1879C161.032 69.5524 161.09 69.891 161.206 70.2035C161.322 70.516 161.501 70.7681 161.742 70.9599C161.984 71.1516 162.292 71.2475 162.666 71.2475ZM170.28 67.6538L169.527 67.8668C169.48 67.7414 169.41 67.6194 169.318 67.5011C169.228 67.3803 169.105 67.2809 168.948 67.2028C168.792 67.1246 168.592 67.0856 168.348 67.0856C168.014 67.0856 167.736 67.1625 167.514 67.3164C167.294 67.4679 167.184 67.6609 167.184 67.8952C167.184 68.1036 167.259 68.2681 167.411 68.3888C167.562 68.5096 167.799 68.6102 168.121 68.6907L168.931 68.8896C169.418 69.0079 169.782 69.189 170.021 69.4329C170.26 69.6744 170.38 69.9857 170.38 70.3668C170.38 70.6793 170.29 70.9587 170.11 71.2049C169.932 71.4511 169.684 71.6452 169.364 71.7873C169.044 71.9293 168.673 72.0004 168.249 72.0004C167.693 72.0004 167.232 71.8796 166.867 71.6381C166.503 71.3967 166.272 71.0439 166.175 70.5799L166.97 70.381C167.046 70.6746 167.189 70.8948 167.4 71.0415C167.613 71.1883 167.891 71.2617 168.235 71.2617C168.625 71.2617 168.935 71.1789 169.165 71.0131C169.397 70.8451 169.513 70.6438 169.513 70.4094C169.513 70.2201 169.447 70.0614 169.314 69.9336C169.182 69.8034 168.978 69.7063 168.703 69.6424L167.794 69.4293C167.295 69.311 166.928 69.1275 166.693 68.8789C166.461 68.628 166.345 68.3143 166.345 67.9379C166.345 67.6301 166.432 67.3578 166.605 67.1211C166.78 66.8844 167.018 66.6985 167.318 66.5636C167.621 66.4286 167.965 66.3612 168.348 66.3612C168.888 66.3612 169.312 66.4795 169.62 66.7163C169.93 66.953 170.15 67.2655 170.28 67.6538Z" fill="#CFD1DE"/>
<path d="M39.1533 44.8618C39.1533 43.9083 39.6066 43.0115 40.3745 42.4461L49.2663 35.8984L58.1582 42.4461C58.9261 43.0115 59.3794 43.9083 59.3794 44.8618V55.6471C59.3794 57.0278 58.2601 58.1471 56.8794 58.1471H53.3003C52.748 58.1471 52.3003 57.6994 52.3003 57.1471V51.0623C52.3003 50.7862 52.0764 50.5623 51.8003 50.5623H46.7324C46.4563 50.5623 46.2324 50.7862 46.2324 51.0623V57.1471C46.2324 57.6994 45.7847 58.1471 45.2324 58.1471H41.6533C40.2726 58.1471 39.1533 57.0278 39.1533 55.6471V44.8618Z" stroke="#87C9FF" stroke-width="2.02261" stroke-linecap="round" stroke-linejoin="round"/>
<path d="M36.2059 71.8867V64.614H37.0866V67.8526H40.9644V64.614H41.8451V71.8867H40.9644V68.6339H37.0866V71.8867H36.2059ZM45.7105 72.0004C45.2181 72.0004 44.786 71.8832 44.4143 71.6488C44.045 71.4144 43.7562 71.0865 43.5479 70.6651C43.3419 70.2437 43.2389 69.7513 43.2389 69.1879C43.2389 68.6197 43.3419 68.1237 43.5479 67.6999C43.7562 67.2762 44.045 66.9471 44.4143 66.7127C44.786 66.4783 45.2181 66.3612 45.7105 66.3612C46.2029 66.3612 46.6338 66.4783 47.0031 66.7127C47.3748 66.9471 47.6636 67.2762 47.8696 67.6999C48.0779 68.1237 48.1821 68.6197 48.1821 69.1879C48.1821 69.7513 48.0779 70.2437 47.8696 70.6651C47.6636 71.0865 47.3748 71.4144 47.0031 71.6488C46.6338 71.8832 46.2029 72.0004 45.7105 72.0004ZM45.7105 71.2475C46.0845 71.2475 46.3923 71.1516 46.6338 70.9599C46.8753 70.7681 47.054 70.516 47.17 70.2035C47.286 69.891 47.344 69.5524 47.344 69.1879C47.344 68.8233 47.286 68.4835 47.17 68.1687C47.054 67.8538 46.8753 67.5993 46.6338 67.4052C46.3923 67.2111 46.0845 67.114 45.7105 67.114C45.3364 67.114 45.0287 67.2111 44.7872 67.4052C44.5457 67.5993 44.367 67.8538 44.251 68.1687C44.135 68.4835 44.077 68.8233 44.077 69.1879C44.077 69.5524 44.135 69.891 44.251 70.2035C44.367 70.516 44.5457 70.7681 44.7872 70.9599C45.0287 71.1516 45.3364 71.2475 45.7105 71.2475ZM49.4614 71.8867V66.4322H50.271V67.2844H50.3421C50.4557 66.9933 50.6392 66.7672 50.8925 66.6062C51.1458 66.4428 51.45 66.3612 51.8051 66.3612C52.165 66.3612 52.4645 66.4428 52.7036 66.6062C52.945 66.7672 53.1333 66.9933 53.2682 67.2844H53.325C53.4647 67.0027 53.6742 66.779 53.9536 66.6133C54.2329 66.4452 54.5679 66.3612 54.9585 66.3612C55.4462 66.3612 55.8451 66.5138 56.1553 66.8192C56.4654 67.1223 56.6205 67.5946 56.6205 68.2362V71.8867H55.7824V68.2362C55.7824 67.8337 55.6723 67.546 55.4521 67.3732C55.232 67.2004 54.9727 67.114 54.6744 67.114C54.2909 67.114 53.9938 67.23 53.7831 67.462C53.5724 67.6916 53.4671 67.9828 53.4671 68.3356V71.8867H52.6148V68.1509C52.6148 67.8408 52.5142 67.591 52.3129 67.4016C52.1117 67.2099 51.8525 67.114 51.5352 67.114C51.3174 67.114 51.1138 67.172 50.9244 67.288C50.7374 67.404 50.5859 67.565 50.4699 67.771C50.3563 67.9746 50.2994 68.2101 50.2994 68.4776V71.8867H49.4614ZM60.4397 72.0004C59.9142 72.0004 59.4608 71.8844 59.0796 71.6523C58.7008 71.418 58.4085 71.0913 58.2025 70.6722C57.9989 70.2508 57.8971 69.7608 57.8971 69.2021C57.8971 68.6433 57.9989 68.1509 58.2025 67.7248C58.4085 67.2963 58.6949 66.9625 59.0619 66.7234C59.4312 66.4819 59.8621 66.3612 60.3545 66.3612C60.6386 66.3612 60.9191 66.4085 61.1961 66.5032C61.4731 66.5979 61.7252 66.7518 61.9525 66.9648C62.1798 67.1755 62.3609 67.4549 62.4958 67.8029C62.6308 68.1509 62.6982 68.5794 62.6982 69.0884V69.4435H58.4937V68.7191H61.846C61.846 68.4113 61.7844 68.1367 61.6613 67.8952C61.5406 67.6538 61.3677 67.4632 61.1428 67.3235C60.9203 67.1838 60.6575 67.114 60.3545 67.114C60.0207 67.114 59.7319 67.1969 59.488 67.3626C59.2465 67.5259 59.0607 67.739 58.9305 68.0018C58.8003 68.2646 58.7352 68.5463 58.7352 68.8469V69.3299C58.7352 69.7418 58.8062 70.091 58.9482 70.3775C59.0927 70.6616 59.2927 70.8782 59.5484 71.0273C59.8041 71.1741 60.1012 71.2475 60.4397 71.2475C60.6599 71.2475 60.8588 71.2167 61.0363 71.1552C61.2162 71.0913 61.3713 70.9966 61.5015 70.8711C61.6317 70.7433 61.7323 70.5846 61.8034 70.3952L62.613 70.6225C62.5278 70.8971 62.3846 71.1386 62.1833 71.3469C61.9821 71.5529 61.7335 71.7139 61.4376 71.8299C61.1417 71.9435 60.809 72.0004 60.4397 72.0004Z" fill="#389BEC"/>
<path d="M227.051 71.8867V64.614H229.593C230.1 64.614 230.518 64.7016 230.847 64.8768C231.176 65.0496 231.421 65.2828 231.582 65.5763C231.743 65.8675 231.823 66.1907 231.823 66.5458C231.823 66.8583 231.768 67.1164 231.656 67.32C231.548 67.5236 231.403 67.6845 231.223 67.8029C231.046 67.9213 230.853 68.0089 230.644 68.0657V68.1367C230.867 68.1509 231.091 68.229 231.316 68.3711C231.54 68.5131 231.729 68.7167 231.88 68.9819C232.032 69.247 232.107 69.5714 232.107 69.9549C232.107 70.3195 232.025 70.6474 231.859 70.9386C231.693 71.2298 231.432 71.4606 231.074 71.631C230.717 71.8015 230.251 71.8867 229.678 71.8867H227.051ZM227.931 71.1055H229.678C230.254 71.1055 230.662 70.9942 230.904 70.7717C231.147 70.5468 231.269 70.2745 231.269 69.9549C231.269 69.7087 231.207 69.4814 231.081 69.2731C230.956 69.0624 230.777 68.8943 230.545 68.7688C230.313 68.641 230.038 68.5771 229.721 68.5771H227.931V71.1055ZM227.931 67.81H229.565C229.83 67.81 230.069 67.7579 230.282 67.6538C230.498 67.5496 230.668 67.4028 230.794 67.2134C230.921 67.024 230.985 66.8015 230.985 66.5458C230.985 66.2262 230.874 65.9551 230.651 65.7326C230.429 65.5077 230.076 65.3952 229.593 65.3952H227.931V67.81ZM233.441 71.8867V66.4322H234.279V71.8867H233.441ZM233.867 65.5231C233.704 65.5231 233.563 65.4674 233.444 65.3562C233.328 65.2449 233.27 65.1112 233.27 64.9549C233.27 64.7987 233.328 64.6649 233.444 64.5536C233.563 64.4424 233.704 64.3867 233.867 64.3867C234.03 64.3867 234.17 64.4424 234.286 64.5536C234.404 64.6649 234.464 64.7987 234.464 64.9549C234.464 65.1112 234.404 65.2449 234.286 65.3562C234.17 65.4674 234.03 65.5231 233.867 65.5231ZM236.652 64.614V71.8867H235.814V64.614H236.652ZM239.025 64.614V71.8867H238.187V64.614H239.025ZM242.847 72.0004C242.321 72.0004 241.868 71.8844 241.487 71.6523C241.108 71.418 240.816 71.0913 240.61 70.6722C240.406 70.2508 240.304 69.7608 240.304 69.2021C240.304 68.6433 240.406 68.1509 240.61 67.7248C240.816 67.2963 241.102 66.9625 241.469 66.7234C241.838 66.4819 242.269 66.3612 242.762 66.3612C243.046 66.3612 243.326 66.4085 243.603 66.5032C243.88 66.5979 244.132 66.7518 244.36 66.9648C244.587 67.1755 244.768 67.4549 244.903 67.8029C245.038 68.1509 245.105 68.5794 245.105 69.0884V69.4435H240.901V68.7191H244.253C244.253 68.4113 244.192 68.1367 244.069 67.8952C243.948 67.6538 243.775 67.4632 243.55 67.3235C243.328 67.1838 243.065 67.114 242.762 67.114C242.428 67.114 242.139 67.1969 241.895 67.3626C241.654 67.5259 241.468 67.739 241.338 68.0018C241.208 68.2646 241.142 68.5463 241.142 68.8469V69.3299C241.142 69.7418 241.213 70.091 241.355 70.3775C241.5 70.6616 241.7 70.8782 241.956 71.0273C242.211 71.1741 242.508 71.2475 242.847 71.2475C243.067 71.2475 243.266 71.2167 243.444 71.1552C243.623 71.0913 243.779 70.9966 243.909 70.8711C244.039 70.7433 244.14 70.5846 244.211 70.3952L245.02 70.6225C244.935 70.8971 244.792 71.1386 244.591 71.3469C244.389 71.5529 244.141 71.7139 243.845 71.8299C243.549 71.9435 243.216 72.0004 242.847 72.0004ZM248.752 66.4322V67.1424H245.926V66.4322H248.752ZM246.75 65.1254H247.588V70.3242C247.588 70.561 247.622 70.7385 247.691 70.8569C247.762 70.9729 247.852 71.051 247.961 71.0913C248.072 71.1291 248.189 71.1481 248.312 71.1481C248.404 71.1481 248.48 71.1433 248.539 71.1339C248.599 71.122 248.646 71.1126 248.681 71.1055L248.852 71.8583C248.795 71.8796 248.716 71.9009 248.614 71.9222C248.512 71.9459 248.383 71.9577 248.227 71.9577C247.99 71.9577 247.758 71.9068 247.531 71.805C247.306 71.7032 247.119 71.5482 246.97 71.3398C246.823 71.1315 246.75 70.8687 246.75 70.5515V65.1254ZM252.241 72.0004C251.716 72.0004 251.263 71.8844 250.881 71.6523C250.503 71.418 250.21 71.0913 250.004 70.6722C249.801 70.2508 249.699 69.7608 249.699 69.2021C249.699 68.6433 249.801 68.1509 250.004 67.7248C250.21 67.2963 250.497 66.9625 250.864 66.7234C251.233 66.4819 251.664 66.3612 252.156 66.3612C252.44 66.3612 252.721 66.4085 252.998 66.5032C253.275 66.5979 253.527 66.7518 253.754 66.9648C253.982 67.1755 254.163 67.4549 254.298 67.8029C254.433 68.1509 254.5 68.5794 254.5 69.0884V69.4435H250.295V68.7191H253.648C253.648 68.4113 253.586 68.1367 253.463 67.8952C253.342 67.6538 253.17 67.4632 252.945 67.3235C252.722 67.1838 252.459 67.114 252.156 67.114C251.822 67.114 251.534 67.1969 251.29 67.3626C251.048 67.5259 250.862 67.739 250.732 68.0018C250.602 68.2646 250.537 68.5463 250.537 68.8469V69.3299C250.537 69.7418 250.608 70.091 250.75 70.3775C250.894 70.6616 251.094 70.8782 251.35 71.0273C251.606 71.1741 251.903 71.2475 252.241 71.2475C252.462 71.2475 252.661 71.2167 252.838 71.1552C253.018 71.0913 253.173 70.9966 253.303 70.8711C253.433 70.7433 253.534 70.5846 253.605 70.3952L254.415 70.6225C254.33 70.8971 254.186 71.1386 253.985 71.3469C253.784 71.5529 253.535 71.7139 253.239 71.8299C252.943 71.9435 252.611 72.0004 252.241 72.0004ZM255.775 71.8867V66.4322H256.585V67.256H256.641C256.741 66.9862 256.921 66.7672 257.181 66.5991C257.442 66.431 257.735 66.3469 258.062 66.3469C258.123 66.3469 258.2 66.3481 258.293 66.3505C258.385 66.3529 258.455 66.3564 258.502 66.3612V67.2134C258.474 67.2063 258.409 67.1957 258.307 67.1815C258.207 67.1649 258.102 67.1566 257.991 67.1566C257.726 67.1566 257.489 67.2122 257.281 67.3235C257.075 67.4324 256.911 67.5839 256.79 67.7781C256.672 67.9698 256.613 68.1888 256.613 68.435V71.8867H255.775ZM261.101 72.0146C260.755 72.0146 260.441 71.9495 260.16 71.8192C259.878 71.6867 259.654 71.4961 259.488 71.2475C259.323 70.9966 259.24 70.6935 259.24 70.3384C259.24 70.0259 259.301 69.7726 259.425 69.5785C259.548 69.382 259.712 69.2281 259.918 69.1168C260.124 69.0056 260.351 68.9227 260.6 68.8683C260.851 68.8114 261.103 68.7665 261.356 68.7333C261.688 68.6907 261.956 68.6587 262.162 68.6374C262.371 68.6138 262.522 68.5747 262.617 68.5202C262.714 68.4658 262.763 68.3711 262.763 68.2362V68.2077C262.763 67.8574 262.667 67.5851 262.475 67.391C262.286 67.1969 261.998 67.0998 261.612 67.0998C261.212 67.0998 260.898 67.1874 260.671 67.3626C260.444 67.5378 260.284 67.7248 260.192 67.9237L259.396 67.6396C259.538 67.3081 259.728 67.0501 259.964 66.8654C260.203 66.6784 260.464 66.5482 260.746 66.4748C261.03 66.399 261.309 66.3612 261.584 66.3612C261.759 66.3612 261.96 66.3825 262.187 66.4251C262.417 66.4653 262.638 66.5494 262.851 66.6772C263.067 66.805 263.246 66.998 263.388 67.256C263.53 67.5141 263.601 67.8597 263.601 68.293V71.8867H262.763V71.1481H262.72C262.663 71.2665 262.568 71.3931 262.436 71.5281C262.303 71.663 262.127 71.7778 261.907 71.8725C261.687 71.9672 261.418 72.0146 261.101 72.0146ZM261.229 71.2617C261.56 71.2617 261.839 71.1966 262.067 71.0664C262.296 70.9362 262.469 70.7681 262.585 70.5621C262.703 70.3562 262.763 70.1396 262.763 69.9123V69.1452C262.727 69.1879 262.649 69.2269 262.528 69.2624C262.41 69.2956 262.273 69.3252 262.116 69.3512C261.962 69.3749 261.812 69.3962 261.665 69.4151C261.521 69.4317 261.404 69.4459 261.314 69.4577C261.096 69.4862 260.892 69.5323 260.703 69.5962C260.516 69.6578 260.364 69.7513 260.248 69.8768C260.135 69.9999 260.078 70.168 260.078 70.381C260.078 70.6722 260.186 70.8924 260.401 71.0415C260.619 71.1883 260.895 71.2617 261.229 71.2617Z" fill="#CFD1DE"/>
<path d="M254.362 37.9336L237.205 37.9336C235.531 37.9336 234.175 39.2902 234.175 40.9636V55.1297C234.175 56.8031 235.531 58.1597 237.205 58.1597H253.328C255.002 58.1597 256.358 56.8031 256.358 55.1297V44.9143C256.358 43.2409 255.002 41.8843 253.328 41.8843H236.679C235.563 41.8843 234.659 40.98 234.659 39.8646V39.8646" stroke="#CFD1DE" stroke-width="2.02" stroke-linecap="round" stroke-linejoin="round"/>
<rect width="70" height="2" transform="matrix(1 0 0 -1 14.2666 21.8867)" fill="#55B3FF"/>
</g>
<defs>
<filter id="filter0_d_1714_36096" x="-12.8691" y="0.886719" width="416" height="101" filterUnits="userSpaceOnUse" color-interpolation-filters="sRGB">
<feFlood flood-opacity="0" result="BackgroundImageFix"/>
<feColorMatrix in="SourceAlpha" type="matrix" values="0 0 0 0 0 0 0 0 0 0 0 0 0 0 0 0 0 0 127 0" result="hardAlpha"/>
<feOffset dy="-6"/>
<feGaussianBlur stdDeviation="6.5"/>
<feComposite in2="hardAlpha" operator="out"/>
<feColorMatrix type="matrix" values="0 0 0 0 0 0 0 0 0 0 0 0 0 0 0 0 0 0 0.04 0"/>
<feBlend mode="normal" in2="BackgroundImageFix" result="effect1_dropShadow_1714_36096"/>
<feBlend mode="normal" in="SourceGraphic" in2="effect1_dropShadow_1714_36096" result="shape"/>
</filter>
</defs>
</svg>
