<svg width="390" height="75" viewBox="0 0 390 75" fill="none" xmlns="http://www.w3.org/2000/svg">
<rect width="390" height="75" fill="white"/>
<path d="M0 0H390V75H0V0Z" fill="white"/>
<path fill-rule="evenodd" clip-rule="evenodd" d="M152.069 18.0226H151.896C151.48 16.8442 150.356 16 149.035 16H142.967C141.646 16 140.522 16.8442 140.106 18.0226H139.933C137.699 18.0226 135.888 19.8337 135.888 22.0678V36.2261C135.888 38.4602 137.699 40.2713 139.933 40.2713H152.069C154.303 40.2713 156.114 38.4602 156.114 36.2261V22.0678C156.114 19.8337 154.303 18.0226 152.069 18.0226ZM137.911 22.0678C137.911 20.9508 138.816 20.0452 139.933 20.0452C139.933 21.7208 141.292 23.0791 142.967 23.0791H149.035C150.711 23.0791 152.069 21.7208 152.069 20.0452C153.186 20.0452 154.091 20.9508 154.091 22.0678V36.2261C154.091 37.3431 153.186 38.2487 152.069 38.2487H139.933C138.816 38.2487 137.911 37.3431 137.911 36.2261V22.0678ZM142.967 18.0226C142.409 18.0226 141.956 18.4754 141.956 19.0339V20.0452C141.956 20.6037 142.409 21.0565 142.967 21.0565H149.035C149.593 21.0565 150.046 20.6037 150.046 20.0452V19.0339C150.046 18.4754 149.593 18.0226 149.035 18.0226H142.967Z" fill="#CFD1DE"/>
<path fill-rule="evenodd" clip-rule="evenodd" d="M123.272 45.7273V53H124.153V50.3438H125.744C126.31 50.3438 126.774 50.2408 127.136 50.0348C127.498 49.8265 127.766 49.5471 127.939 49.1967C128.114 48.8464 128.201 48.4569 128.201 48.0284C128.201 47.5999 128.114 47.2116 127.939 46.8636C127.763 46.5156 127.494 46.2398 127.129 46.0362C126.767 45.8303 126.3 45.7273 125.73 45.7273H123.272ZM124.153 49.5625H125.716C126.106 49.5625 126.42 49.495 126.657 49.3601C126.893 49.2251 127.065 49.0429 127.172 48.8132C127.281 48.5812 127.335 48.3196 127.335 48.0284C127.335 47.7372 127.281 47.4768 127.172 47.2472C127.065 47.0175 126.892 46.8376 126.653 46.7074C126.414 46.5748 126.097 46.5085 125.701 46.5085H124.153V49.5625Z" fill="#CFD1DE"/>
<path d="M129.506 47.5455V53H130.345V49.5483C130.345 49.3021 130.404 49.0831 130.522 48.8913C130.643 48.6972 130.806 48.5457 131.012 48.4368C131.22 48.3255 131.457 48.2699 131.722 48.2699C131.834 48.2699 131.939 48.2782 132.038 48.2947C132.14 48.3089 132.205 48.3196 132.234 48.3267V47.4744C132.186 47.4697 132.117 47.4661 132.024 47.4638C131.932 47.4614 131.855 47.4602 131.793 47.4602C131.467 47.4602 131.173 47.5443 130.913 47.7124C130.652 47.8804 130.472 48.0994 130.373 48.3693H130.316V47.5455H129.506Z" fill="#CFD1DE"/>
<path fill-rule="evenodd" clip-rule="evenodd" d="M133.981 52.7621C134.353 52.9964 134.785 53.1136 135.277 53.1136C135.77 53.1136 136.2 52.9964 136.57 52.7621C136.941 52.5277 137.23 52.1998 137.436 51.7784C137.645 51.357 137.749 50.8646 137.749 50.3011C137.749 49.733 137.645 49.237 137.436 48.8132C137.23 48.3894 136.941 48.0604 136.57 47.826C136.2 47.5916 135.77 47.4744 135.277 47.4744C134.785 47.4744 134.353 47.5916 133.981 47.826C133.612 48.0604 133.323 48.3894 133.114 48.8132C132.908 49.237 132.805 49.733 132.805 50.3011C132.805 50.8646 132.908 51.357 133.114 51.7784C133.323 52.1998 133.612 52.5277 133.981 52.7621ZM136.2 52.0732C135.959 52.2649 135.651 52.3608 135.277 52.3608C134.903 52.3608 134.595 52.2649 134.354 52.0732C134.112 51.8814 133.934 51.6293 133.818 51.3168C133.702 51.0043 133.644 50.6657 133.644 50.3011C133.644 49.9366 133.702 49.5968 133.818 49.282C133.934 48.9671 134.112 48.7126 134.354 48.5185C134.595 48.3243 134.903 48.2273 135.277 48.2273C135.651 48.2273 135.959 48.3243 136.2 48.5185C136.442 48.7126 136.621 48.9671 136.737 49.282C136.853 49.5968 136.911 49.9366 136.911 50.3011C136.911 50.6657 136.853 51.0043 136.737 51.3168C136.621 51.6293 136.442 51.8814 136.2 52.0732Z" fill="#CFD1DE"/>
<path d="M138.992 55.0099C139.104 55.0336 139.23 55.0455 139.372 55.0455C139.626 55.0455 139.853 55.0005 140.054 54.9105C140.258 54.8205 140.437 54.6821 140.59 54.495C140.744 54.3104 140.873 54.0772 140.978 53.7955L143.293 47.5455H142.384L140.878 51.892H140.821L139.316 47.5455H138.407L140.424 53.0284L140.267 53.4545C140.166 53.7315 140.053 53.9316 139.93 54.0547C139.809 54.1802 139.671 54.25 139.514 54.2642C139.358 54.2784 139.178 54.2595 138.975 54.2074L138.762 54.946C138.804 54.9673 138.881 54.9886 138.992 55.0099Z" fill="#CFD1DE"/>
<path fill-rule="evenodd" clip-rule="evenodd" d="M145.131 52.7656C145.512 52.9976 145.965 53.1136 146.491 53.1136C146.86 53.1136 147.193 53.0568 147.489 52.9432C147.784 52.8272 148.033 52.6662 148.234 52.4602C148.436 52.2519 148.579 52.0104 148.664 51.7358L147.854 51.5085C147.783 51.6979 147.683 51.8565 147.552 51.9844C147.422 52.1098 147.267 52.2045 147.087 52.2685C146.91 52.33 146.711 52.3608 146.491 52.3608C146.152 52.3608 145.855 52.2874 145.599 52.1406C145.344 51.9915 145.144 51.7749 144.999 51.4908C144.87 51.231 144.8 50.9197 144.788 50.5568H148.749V50.2017C148.749 49.6927 148.682 49.2642 148.547 48.9162C148.412 48.5682 148.231 48.2888 148.003 48.0781C147.776 47.8651 147.524 47.7112 147.247 47.6165C146.97 47.5218 146.69 47.4744 146.405 47.4744C145.913 47.4744 145.482 47.5952 145.113 47.8366C144.746 48.0758 144.459 48.4096 144.253 48.8381C144.05 49.2642 143.948 49.7566 143.948 50.3153C143.948 50.8741 144.05 51.3641 144.253 51.7855C144.459 52.2045 144.752 52.5312 145.131 52.7656ZM144.79 49.8324C144.806 49.5794 144.87 49.3403 144.981 49.1151C145.112 48.8523 145.297 48.6392 145.539 48.4759C145.783 48.3101 146.072 48.2273 146.405 48.2273C146.708 48.2273 146.971 48.2971 147.194 48.4368C147.419 48.5765 147.592 48.767 147.712 49.0085C147.835 49.25 147.897 49.5246 147.897 49.8324H144.79Z" fill="#CFD1DE"/>
<path d="M150.919 52.7514C151.288 52.9929 151.729 53.1136 152.24 53.1136C152.642 53.1136 152.995 53.0391 153.298 52.8899C153.604 52.7384 153.849 52.5348 154.033 52.2791C154.22 52.0211 154.338 51.7311 154.385 51.4091H153.547C153.495 51.608 153.407 51.7784 153.284 51.9205C153.161 52.0625 153.011 52.1714 152.833 52.2472C152.655 52.3229 152.458 52.3608 152.24 52.3608C151.909 52.3608 151.62 52.2744 151.373 52.1016C151.13 51.9287 150.94 51.6861 150.805 51.3736C150.673 51.0611 150.606 50.6941 150.606 50.2727C150.606 49.8608 150.674 49.5021 150.809 49.1967C150.946 48.889 151.137 48.651 151.381 48.483C151.627 48.3125 151.913 48.2273 152.24 48.2273C152.609 48.2273 152.903 48.3243 153.121 48.5185C153.341 48.7102 153.483 48.9304 153.547 49.179H154.385C154.338 48.8381 154.216 48.5398 154.019 48.2841C153.823 48.0284 153.57 47.8295 153.263 47.6875C152.955 47.5455 152.609 47.4744 152.226 47.4744C151.733 47.4744 151.302 47.5952 150.933 47.8366C150.566 48.0758 150.28 48.4084 150.074 48.8345C149.87 49.2583 149.768 49.7472 149.768 50.3011C149.768 50.8456 149.868 51.3298 150.067 51.7536C150.266 52.1773 150.55 52.5099 150.919 52.7514Z" fill="#CFD1DE"/>
<path d="M157.982 48.2557V47.5455H156.817V46.2386H155.979V47.5455H155.155V48.2557H155.979V51.6648C155.979 51.982 156.053 52.2448 156.199 52.4531C156.349 52.6615 156.536 52.8165 156.761 52.9183C156.988 53.0201 157.22 53.071 157.457 53.071C157.613 53.071 157.742 53.0592 157.844 53.0355C157.945 53.0142 158.025 52.9929 158.082 52.9716L157.911 52.2188L157.769 52.2472C157.71 52.2566 157.634 52.2614 157.542 52.2614C157.419 52.2614 157.302 52.2424 157.19 52.2045C157.081 52.1643 156.991 52.0862 156.92 51.9702C156.852 51.8518 156.817 51.6742 156.817 51.4375V48.2557H157.982Z" fill="#CFD1DE"/>
<path fill-rule="evenodd" clip-rule="evenodd" d="M160.104 52.7621C160.476 52.9964 160.908 53.1136 161.4 53.1136C161.893 53.1136 162.323 52.9964 162.693 52.7621C163.064 52.5277 163.353 52.1998 163.559 51.7784C163.768 51.357 163.872 50.8646 163.872 50.3011C163.872 49.733 163.768 49.237 163.559 48.8132C163.353 48.3894 163.064 48.0604 162.693 47.826C162.323 47.5916 161.893 47.4744 161.4 47.4744C160.908 47.4744 160.476 47.5916 160.104 47.826C159.735 48.0604 159.446 48.3894 159.237 48.8132C159.032 49.237 158.929 49.733 158.929 50.3011C158.929 50.8646 159.032 51.357 159.237 51.7784C159.446 52.1998 159.735 52.5277 160.104 52.7621ZM162.323 52.0732C162.082 52.2649 161.774 52.3608 161.4 52.3608C161.026 52.3608 160.718 52.2649 160.477 52.0732C160.235 51.8814 160.057 51.6293 159.941 51.3168C159.825 51.0043 159.767 50.6657 159.767 50.3011C159.767 49.9366 159.825 49.5968 159.941 49.282C160.057 48.9671 160.235 48.7126 160.477 48.5185C160.718 48.3243 161.026 48.2273 161.4 48.2273C161.774 48.2273 162.082 48.3243 162.323 48.5185C162.565 48.7126 162.744 48.9671 162.86 49.282C162.976 49.5968 163.034 49.9366 163.034 50.3011C163.034 50.6657 162.976 51.0043 162.86 51.3168C162.744 51.6293 162.565 51.8814 162.323 52.0732Z" fill="#CFD1DE"/>
<path d="M168.262 48.9801L169.015 48.767C168.884 48.3788 168.664 48.0663 168.354 47.8295C168.046 47.5928 167.623 47.4744 167.083 47.4744C166.699 47.4744 166.356 47.5419 166.053 47.6768C165.752 47.8118 165.514 47.9976 165.339 48.2344C165.166 48.4711 165.08 48.7434 165.08 49.0511C165.08 49.4276 165.196 49.7412 165.428 49.9922C165.662 50.2408 166.029 50.4242 166.529 50.5426L167.438 50.7557C167.713 50.8196 167.916 50.9167 168.049 51.0469C168.181 51.1747 168.248 51.3333 168.248 51.5227C168.248 51.7571 168.132 51.9583 167.9 52.1264C167.67 52.2921 167.36 52.375 166.969 52.375C166.626 52.375 166.348 52.3016 166.135 52.1548C165.924 52.008 165.781 51.7879 165.705 51.4943L164.91 51.6932C165.007 52.1572 165.237 52.5099 165.602 52.7514C165.967 52.9929 166.427 53.1136 166.983 53.1136C167.407 53.1136 167.779 53.0426 168.098 52.9006C168.418 52.7585 168.667 52.5644 168.844 52.3182C169.024 52.072 169.114 51.7926 169.114 51.4801C169.114 51.099 168.995 50.7876 168.755 50.5462C168.516 50.3023 168.153 50.1212 167.665 50.0028L166.856 49.804C166.534 49.7235 166.297 49.6229 166.145 49.5021C165.994 49.3814 165.918 49.2169 165.918 49.0085C165.918 48.7741 166.028 48.5812 166.248 48.4297C166.471 48.2758 166.749 48.1989 167.083 48.1989C167.327 48.1989 167.527 48.2379 167.683 48.3161C167.839 48.3942 167.962 48.4936 168.052 48.6143C168.145 48.7327 168.214 48.8546 168.262 48.9801Z" fill="#CFD1DE"/>
<path fill-rule="evenodd" clip-rule="evenodd" d="M235.938 16.9883C233.707 16.9883 231.898 18.797 231.898 21.0283V35.1943C231.898 37.4256 233.707 39.2343 235.938 39.2343H252.062C254.293 39.2343 256.102 37.4256 256.102 35.1943V24.979C256.102 22.7477 254.293 20.939 252.062 20.939H235.412C234.855 20.939 234.403 20.4869 234.403 19.9292C234.403 19.8637 234.396 19.7996 234.385 19.7375C234.755 19.2919 235.314 19.0083 235.938 19.0083H253.096C253.654 19.0083 254.106 18.5561 254.106 17.9983C254.106 17.4405 253.654 16.9883 253.096 16.9883H235.938ZM233.918 35.1943V22.5656C234.359 22.816 234.869 22.959 235.412 22.959H252.062C253.177 22.959 254.082 23.8634 254.082 24.979V35.1943C254.082 36.31 253.177 37.2143 252.062 37.2143H235.938C234.823 37.2143 233.918 36.31 233.918 35.1943Z" fill="#CFD1DE"/>
<path fill-rule="evenodd" clip-rule="evenodd" d="M225.784 44.6804V51.9531H228.412C228.985 51.9531 229.45 51.8679 229.808 51.6974C230.165 51.527 230.427 51.2962 230.592 51.005C230.758 50.7138 230.841 50.3859 230.841 50.0213C230.841 49.6378 230.765 49.3134 230.614 49.0483C230.462 48.7831 230.274 48.5795 230.049 48.4375C229.824 48.2954 229.6 48.2173 229.378 48.2031V48.1321C229.586 48.0753 229.779 47.9877 229.957 47.8693C230.137 47.7509 230.281 47.59 230.39 47.3864C230.501 47.1828 230.557 46.9247 230.557 46.6122C230.557 46.2571 230.476 45.9339 230.315 45.6427C230.154 45.3492 229.909 45.116 229.58 44.9432C229.251 44.768 228.833 44.6804 228.327 44.6804H225.784ZM228.412 51.1719H226.665V48.6435H228.455C228.772 48.6435 229.046 48.7074 229.278 48.8352C229.511 48.9607 229.689 49.1288 229.815 49.3395C229.94 49.5478 230.003 49.7751 230.003 50.0213C230.003 50.3409 229.881 50.6132 229.637 50.8381C229.396 51.0606 228.987 51.1719 228.412 51.1719ZM228.298 47.8764H226.665V45.4616H228.327C228.81 45.4616 229.162 45.5741 229.385 45.799C229.608 46.0215 229.719 46.2926 229.719 46.6122C229.719 46.8679 229.655 47.0904 229.527 47.2798C229.402 47.4692 229.231 47.616 229.016 47.7202C228.803 47.8243 228.564 47.8764 228.298 47.8764Z" fill="#CFD1DE"/>
<path d="M232.174 46.4986V51.9531H233.013V46.4986H232.174Z" fill="#CFD1DE"/>
<path d="M232.178 45.4226C232.296 45.5338 232.437 45.5895 232.601 45.5895C232.764 45.5895 232.904 45.5338 233.02 45.4226C233.138 45.3113 233.197 45.1775 233.197 45.0213C233.197 44.865 233.138 44.7313 233.02 44.62C232.904 44.5087 232.764 44.4531 232.601 44.4531C232.437 44.4531 232.296 44.5087 232.178 44.62C232.062 44.7313 232.004 44.865 232.004 45.0213C232.004 45.1775 232.062 45.3113 232.178 45.4226Z" fill="#CFD1DE"/>
<path d="M235.386 51.9531V44.6804H234.547V51.9531H235.386Z" fill="#CFD1DE"/>
<path d="M237.759 51.9531V44.6804H236.921V51.9531H237.759Z" fill="#CFD1DE"/>
<path fill-rule="evenodd" clip-rule="evenodd" d="M240.22 51.7187C240.602 51.9507 241.055 52.0668 241.581 52.0668C241.95 52.0668 242.282 52.0099 242.578 51.8963C242.874 51.7803 243.123 51.6193 243.324 51.4133C243.525 51.205 243.669 50.9635 243.754 50.6889L242.944 50.4616C242.873 50.651 242.773 50.8097 242.642 50.9375C242.512 51.063 242.357 51.1577 242.177 51.2216C242 51.2831 241.801 51.3139 241.581 51.3139C241.242 51.3139 240.945 51.2405 240.689 51.0937C240.434 50.9446 240.233 50.728 240.089 50.4439C239.96 50.1841 239.89 49.8728 239.878 49.5099H243.839V49.1548C243.839 48.6458 243.772 48.2173 243.637 47.8693C243.502 47.5213 243.321 47.2419 243.093 47.0312C242.866 46.8182 242.614 46.6643 242.337 46.5696C242.06 46.4749 241.779 46.4275 241.495 46.4275C241.003 46.4275 240.572 46.5483 240.203 46.7898C239.836 47.0289 239.549 47.3627 239.343 47.7912C239.14 48.2173 239.038 48.7097 239.038 49.2685C239.038 49.8272 239.14 50.3172 239.343 50.7386C239.549 51.1577 239.842 51.4844 240.22 51.7187ZM239.88 48.7855C239.896 48.5325 239.96 48.2934 240.071 48.0682C240.201 47.8054 240.387 47.5923 240.629 47.429C240.873 47.2632 241.161 47.1804 241.495 47.1804C241.798 47.1804 242.061 47.2502 242.284 47.3899C242.509 47.5296 242.681 47.7202 242.802 47.9616C242.925 48.2031 242.987 48.4777 242.987 48.7855H239.88Z" fill="#CFD1DE"/>
<path d="M247.486 47.2088V46.4986H246.321V45.1918H245.483V46.4986H244.659V47.2088H245.483V50.6179C245.483 50.9351 245.557 51.1979 245.703 51.4062C245.853 51.6146 246.04 51.7696 246.264 51.8714C246.492 51.9732 246.724 52.0241 246.96 52.0241C247.117 52.0241 247.246 52.0123 247.348 51.9886C247.449 51.9673 247.529 51.946 247.585 51.9247L247.415 51.1719L247.273 51.2003C247.214 51.2097 247.138 51.2145 247.046 51.2145C246.923 51.2145 246.805 51.1955 246.694 51.1577C246.585 51.1174 246.495 51.0393 246.424 50.9233C246.356 50.8049 246.321 50.6274 246.321 50.3906V47.2088H247.486Z" fill="#CFD1DE"/>
<path fill-rule="evenodd" clip-rule="evenodd" d="M249.615 51.7187C249.996 51.9507 250.449 52.0668 250.975 52.0668C251.344 52.0668 251.677 52.0099 251.973 51.8963C252.269 51.7803 252.517 51.6193 252.719 51.4133C252.92 51.205 253.063 50.9635 253.148 50.6889L252.339 50.4616C252.268 50.651 252.167 50.8097 252.037 50.9375C251.907 51.063 251.752 51.1577 251.572 51.2216C251.394 51.2831 251.195 51.3139 250.975 51.3139C250.637 51.3139 250.339 51.2405 250.084 51.0937C249.828 50.9446 249.628 50.728 249.484 50.4439C249.355 50.1841 249.284 49.8728 249.272 49.5099H253.234V49.1548C253.234 48.6458 253.166 48.2173 253.031 47.8693C252.896 47.5213 252.715 47.2419 252.488 47.0312C252.261 46.8182 252.008 46.6643 251.731 46.5696C251.454 46.4749 251.174 46.4275 250.89 46.4275C250.397 46.4275 249.967 46.5483 249.597 46.7898C249.23 47.0289 248.944 47.3627 248.738 47.7912C248.534 48.2173 248.432 48.7097 248.432 49.2685C248.432 49.8272 248.534 50.3172 248.738 50.7386C248.944 51.1577 249.236 51.4844 249.615 51.7187ZM249.275 48.7855C249.29 48.5325 249.354 48.2934 249.466 48.0682C249.596 47.8054 249.782 47.5923 250.023 47.429C250.267 47.2632 250.556 47.1804 250.89 47.1804C251.193 47.1804 251.456 47.2502 251.678 47.3899C251.903 47.5296 252.076 47.7202 252.197 47.9616C252.32 48.2031 252.381 48.4777 252.381 48.7855H249.275Z" fill="#CFD1DE"/>
<path d="M254.508 46.4986V51.9531H255.347V48.5014C255.347 48.2552 255.406 48.0362 255.524 47.8444C255.645 47.6503 255.808 47.4988 256.014 47.3899C256.222 47.2786 256.459 47.223 256.724 47.223C256.836 47.223 256.941 47.2313 257.04 47.2479C257.142 47.2621 257.207 47.2727 257.236 47.2798V46.4275C257.188 46.4228 257.119 46.4193 257.026 46.4169C256.934 46.4145 256.857 46.4133 256.795 46.4133C256.469 46.4133 256.175 46.4974 255.915 46.6655C255.654 46.8336 255.474 47.0525 255.375 47.3224H255.318V46.4986H254.508Z" fill="#CFD1DE"/>
<path fill-rule="evenodd" clip-rule="evenodd" d="M258.893 51.8856C259.175 52.0159 259.489 52.081 259.834 52.081C260.151 52.081 260.42 52.0336 260.64 51.9389C260.861 51.8442 261.037 51.7294 261.169 51.5945C261.302 51.4595 261.397 51.3329 261.454 51.2145H261.496V51.9531H262.334V48.3594C262.334 47.9261 262.263 47.5805 262.121 47.3224C261.979 47.0644 261.8 46.8714 261.585 46.7436C261.372 46.6158 261.151 46.5317 260.921 46.4915C260.694 46.4489 260.492 46.4275 260.317 46.4275C260.043 46.4275 259.763 46.4654 259.479 46.5412C259.197 46.6146 258.937 46.7448 258.698 46.9318C258.461 47.1165 258.272 47.3745 258.13 47.706L258.925 47.99C259.017 47.7912 259.177 47.6042 259.405 47.429C259.632 47.2538 259.946 47.1662 260.346 47.1662C260.732 47.1662 261.019 47.2632 261.209 47.4574C261.4 47.6515 261.496 47.9238 261.496 48.2741V48.3025C261.496 48.4375 261.448 48.5322 261.351 48.5866C261.256 48.6411 261.104 48.6802 260.896 48.7038C260.69 48.7251 260.421 48.7571 260.09 48.7997C259.837 48.8328 259.584 48.8778 259.334 48.9347C259.085 48.9891 258.858 49.072 258.652 49.1832C258.446 49.2945 258.281 49.4484 258.158 49.6449C258.035 49.839 257.973 50.0923 257.973 50.4048C257.973 50.7599 258.056 51.063 258.222 51.3139C258.388 51.5625 258.611 51.7531 258.893 51.8856ZM260.8 51.1328C260.573 51.263 260.294 51.3281 259.962 51.3281C259.628 51.3281 259.352 51.2547 259.135 51.1079C258.919 50.9588 258.812 50.7386 258.812 50.4474C258.812 50.2344 258.868 50.0663 258.982 49.9432C259.098 49.8177 259.25 49.7242 259.437 49.6626C259.626 49.5987 259.83 49.5525 260.047 49.5241C260.137 49.5123 260.254 49.4981 260.399 49.4815C260.546 49.4626 260.696 49.4413 260.85 49.4176C261.006 49.3916 261.143 49.362 261.262 49.3288C261.383 49.2933 261.461 49.2543 261.496 49.2116V49.9787C261.496 50.206 261.437 50.4226 261.319 50.6285C261.203 50.8345 261.03 51.0026 260.8 51.1328Z" fill="#CFD1DE"/>
<path fill-rule="evenodd" clip-rule="evenodd" d="M336.932 23.0795C336.932 19.7284 339.649 17.0117 343 17.0117C346.351 17.0117 349.068 19.7284 349.068 23.0795C349.068 26.4307 346.351 29.1474 343 29.1474C339.649 29.1474 336.932 26.4307 336.932 23.0795ZM343 19.0343C340.766 19.0343 338.955 20.8454 338.955 23.0795C338.955 25.3136 340.766 27.1247 343 27.1247C345.234 27.1247 347.045 25.3136 347.045 23.0795C347.045 20.8454 345.234 19.0343 343 19.0343Z" fill="#CFD1DE"/>
<path d="M343 33.6982C340.6 33.6982 338.327 34.2313 336.77 34.7117C335.88 34.9866 335.225 35.7933 335.065 36.8231L334.898 37.8989C334.812 38.4508 334.295 38.8286 333.743 38.7427C333.191 38.6569 332.813 38.1399 332.899 37.588L333.066 36.5122C333.328 34.8299 334.442 33.3137 336.174 32.7791C337.837 32.2657 340.324 31.6756 343 31.6756C345.676 31.6756 348.163 32.2657 349.826 32.7791C351.558 33.3137 352.672 34.8299 352.934 36.5122L353.101 37.588C353.187 38.1399 352.809 38.6569 352.257 38.7427C351.705 38.8286 351.188 38.4508 351.103 37.8989L350.935 36.8231C350.775 35.7933 350.12 34.9866 349.23 34.7117C347.674 34.2313 345.4 33.6982 343 33.6982Z" fill="#CFD1DE"/>
<path fill-rule="evenodd" clip-rule="evenodd" d="M330.62 45.7277V53.0004H331.501V50.3442H333.092C333.658 50.3442 334.122 50.2412 334.484 50.0352C334.846 49.8269 335.113 49.5475 335.286 49.1971C335.461 48.8468 335.549 48.4573 335.549 48.0288C335.549 47.6003 335.461 47.2121 335.286 46.8641C335.111 46.516 334.841 46.2402 334.477 46.0366C334.114 45.8307 333.648 45.7277 333.078 45.7277H330.62ZM331.501 49.5629H333.063C333.454 49.5629 333.768 49.4954 334.004 49.3605C334.241 49.2256 334.413 49.0433 334.519 48.8136C334.628 48.5816 334.683 48.32 334.683 48.0288C334.683 47.7376 334.628 47.4772 334.519 47.2476C334.413 47.0179 334.24 46.838 334.001 46.7078C333.762 46.5752 333.444 46.5089 333.049 46.5089H331.501V49.5629Z" fill="#CFD1DE"/>
<path fill-rule="evenodd" clip-rule="evenodd" d="M337.722 52.766C338.104 52.998 338.557 53.1141 339.082 53.1141C339.452 53.1141 339.784 53.0572 340.08 52.9436C340.376 52.8276 340.625 52.6666 340.826 52.4606C341.027 52.2523 341.171 52.0108 341.256 51.7362L340.446 51.5089C340.375 51.6983 340.274 51.8569 340.144 51.9848C340.014 52.1103 339.859 52.205 339.679 52.2689C339.502 52.3304 339.303 52.3612 339.082 52.3612C338.744 52.3612 338.447 52.2878 338.191 52.141C337.935 51.9919 337.735 51.7753 337.591 51.4912C337.462 51.2314 337.392 50.9201 337.38 50.5572H341.341V50.2021C341.341 49.6931 341.274 49.2646 341.139 48.9166C341.004 48.5686 340.823 48.2892 340.595 48.0785C340.368 47.8655 340.116 47.7116 339.839 47.6169C339.562 47.5222 339.281 47.4748 338.997 47.4748C338.505 47.4748 338.074 47.5956 337.705 47.8371C337.338 48.0762 337.051 48.41 336.845 48.8385C336.642 49.2646 336.54 49.757 336.54 50.3158C336.54 50.8745 336.642 51.3645 336.845 51.7859C337.051 52.205 337.344 52.5317 337.722 52.766ZM337.382 49.8328C337.398 49.5798 337.462 49.3407 337.573 49.1155C337.703 48.8527 337.889 48.6396 338.131 48.4763C338.375 48.3105 338.663 48.2277 338.997 48.2277C339.3 48.2277 339.563 48.2975 339.786 48.4372C340.011 48.5769 340.183 48.7675 340.304 49.0089C340.427 49.2504 340.489 49.525 340.489 49.8328H337.382Z" fill="#CFD1DE"/>
<path d="M342.616 47.5459V53.0004H343.454V49.5487C343.454 49.3025 343.513 49.0835 343.631 48.8918C343.752 48.6976 343.916 48.5461 344.122 48.4372C344.33 48.3259 344.567 48.2703 344.832 48.2703C344.943 48.2703 345.048 48.2786 345.148 48.2952C345.25 48.3094 345.315 48.32 345.343 48.3271V47.4748C345.296 47.4701 345.226 47.4666 345.134 47.4642C345.041 47.4618 344.964 47.4606 344.903 47.4606C344.576 47.4606 344.283 47.5447 344.022 47.7128C343.762 47.8809 343.582 48.0998 343.482 48.3697H343.426V47.5459H342.616Z" fill="#CFD1DE"/>
<path d="M349.107 48.2561V47.5459H347.886V46.9919C347.886 46.722 347.946 46.5172 348.067 46.3775C348.19 46.2379 348.39 46.168 348.667 46.168C348.788 46.168 348.885 46.1787 348.958 46.2C349.034 46.2213 349.093 46.2391 349.136 46.2533L349.377 45.5288C349.313 45.5004 349.216 45.4696 349.086 45.4365C348.956 45.4034 348.788 45.3868 348.582 45.3868C348.321 45.3868 348.074 45.4389 347.84 45.543C347.605 45.6472 347.415 45.8034 347.268 46.0118C347.121 46.2201 347.048 46.4805 347.048 46.793V47.5459H346.167V48.2561H347.048V53.0004H347.886V48.2561H349.107Z" fill="#CFD1DE"/>
<path d="M350.282 47.5459V53.0004H351.12V47.5459H350.282Z" fill="#CFD1DE"/>
<path d="M350.285 46.4699C350.404 46.5811 350.545 46.6368 350.708 46.6368C350.871 46.6368 351.011 46.5811 351.127 46.4699C351.245 46.3586 351.305 46.2248 351.305 46.0686C351.305 45.9123 351.245 45.7786 351.127 45.6673C351.011 45.556 350.871 45.5004 350.708 45.5004C350.545 45.5004 350.404 45.556 350.285 45.6673C350.169 45.7786 350.111 45.9123 350.111 46.0686C350.111 46.2248 350.169 46.3586 350.285 46.4699Z" fill="#CFD1DE"/>
<path d="M353.493 53.0004V45.7277H352.655V53.0004H353.493Z" fill="#CFD1DE"/>
<path fill-rule="evenodd" clip-rule="evenodd" d="M49.6603 15.197C49.3036 14.9343 48.8176 14.9343 48.461 15.197L39.5829 21.7345C38.5475 22.4968 37.9363 23.706 37.9363 24.9918V35.7317C37.9363 37.6866 39.521 39.2713 41.4758 39.2713H45.0154C46.1325 39.2713 47.038 38.3657 47.038 37.2487V31.6865H51.0832V37.2487C51.0832 38.3657 51.9888 39.2713 53.1058 39.2713H56.6454C58.6002 39.2713 60.1849 37.6866 60.1849 35.7317V24.9918C60.1849 23.706 59.5737 22.4968 58.5383 21.7345L49.6603 15.197ZM40.7822 23.3631L49.0606 17.2672L57.339 23.3631C57.8567 23.7443 58.1623 24.3489 58.1623 24.9918V35.7317C58.1623 36.5695 57.4832 37.2487 56.6454 37.2487H53.1058V31.1808C53.1058 30.3431 52.4267 29.6639 51.5889 29.6639H46.5324C45.6946 29.6639 45.0154 30.3431 45.0154 31.1808V37.2487H41.4758C40.6381 37.2487 39.9589 36.5695 39.9589 35.7317V24.9918C39.9589 24.3489 40.2645 23.7443 40.7822 23.3631Z" fill="#55B3FF"/>
<path d="M36 44.7273V52H36.8807V48.7472H40.7585V52H41.6392V44.7273H40.7585V47.9659H36.8807V44.7273H36Z" fill="#55B3FF"/>
<path fill-rule="evenodd" clip-rule="evenodd" d="M44.2085 51.7621C44.5801 51.9964 45.0122 52.1136 45.5046 52.1136C45.997 52.1136 46.4279 51.9964 46.7972 51.7621C47.1689 51.5277 47.4577 51.1998 47.6637 50.7784C47.872 50.357 47.9762 49.8646 47.9762 49.3011C47.9762 48.733 47.872 48.237 47.6637 47.8132C47.4577 47.3894 47.1689 47.0604 46.7972 46.826C46.4279 46.5916 45.997 46.4744 45.5046 46.4744C45.0122 46.4744 44.5801 46.5916 44.2085 46.826C43.8391 47.0604 43.5503 47.3894 43.342 47.8132C43.136 48.237 43.033 48.733 43.033 49.3011C43.033 49.8646 43.136 50.357 43.342 50.7784C43.5503 51.1998 43.8391 51.5277 44.2085 51.7621ZM46.4279 51.0732C46.1864 51.2649 45.8787 51.3608 45.5046 51.3608C45.1306 51.3608 44.8228 51.2649 44.5813 51.0732C44.3398 50.8814 44.1611 50.6293 44.0451 50.3168C43.9291 50.0043 43.8711 49.6657 43.8711 49.3011C43.8711 48.9366 43.9291 48.5968 44.0451 48.282C44.1611 47.9671 44.3398 47.7126 44.5813 47.5185C44.8228 47.3243 45.1306 47.2273 45.5046 47.2273C45.8787 47.2273 46.1864 47.3243 46.4279 47.5185C46.6694 47.7126 46.8481 47.9671 46.9641 48.282C47.0801 48.5968 47.1381 48.9366 47.1381 49.3011C47.1381 49.6657 47.0801 50.0043 46.9641 50.3168C46.8481 50.6293 46.6694 50.8814 46.4279 51.0732Z" fill="#55B3FF"/>
<path d="M49.2555 46.5455V52H50.0936V48.5909C50.0936 48.3234 50.1504 48.0878 50.264 47.8842C50.38 47.6783 50.5315 47.5173 50.7186 47.4013C50.908 47.2853 51.1116 47.2273 51.3294 47.2273C51.6466 47.2273 51.9058 47.3232 52.1071 47.5149C52.3083 47.7043 52.4089 47.9541 52.4089 48.2642V52H53.2612V48.4489C53.2612 48.0961 53.3665 47.8049 53.5772 47.5753C53.7879 47.3433 54.0851 47.2273 54.4686 47.2273C54.7669 47.2273 55.0261 47.3137 55.2463 47.4865C55.4664 47.6593 55.5765 47.947 55.5765 48.3494V52H56.4146V48.3494C56.4146 47.7079 56.2595 47.2356 55.9494 46.9325C55.6393 46.6271 55.2404 46.4744 54.7527 46.4744C54.362 46.4744 54.0271 46.5585 53.7477 46.7266C53.4683 46.8923 53.2588 47.116 53.1191 47.3977H53.0623C52.9274 47.1065 52.7392 46.8804 52.4977 46.7195C52.2586 46.5561 51.9591 46.4744 51.5993 46.4744C51.2441 46.4744 50.9399 46.5561 50.6866 46.7195C50.4333 46.8804 50.2498 47.1065 50.1362 47.3977H50.0652V46.5455H49.2555Z" fill="#55B3FF"/>
<path fill-rule="evenodd" clip-rule="evenodd" d="M58.8738 51.7656C59.2549 51.9976 59.7083 52.1136 60.2338 52.1136C60.6032 52.1136 60.9358 52.0568 61.2317 51.9432C61.5276 51.8272 61.7762 51.6662 61.9775 51.4602C62.1787 51.2519 62.3219 51.0104 62.4071 50.7358L61.5975 50.5085C61.5265 50.6979 61.4258 50.8565 61.2956 50.9844C61.1654 51.1098 61.0104 51.2045 60.8304 51.2685C60.6529 51.33 60.454 51.3608 60.2338 51.3608C59.8953 51.3608 59.5982 51.2874 59.3425 51.1406C59.0868 50.9915 58.8868 50.7749 58.7424 50.4908C58.6136 50.231 58.5432 49.9197 58.5312 49.5568H62.4924V49.2017C62.4924 48.6927 62.4249 48.2642 62.29 47.9162C62.155 47.5682 61.9739 47.2888 61.7466 47.0781C61.5194 46.8651 61.2672 46.7112 60.9902 46.6165C60.7132 46.5218 60.4327 46.4744 60.1486 46.4744C59.6562 46.4744 59.2253 46.5952 58.856 46.8366C58.4891 47.0758 58.2026 47.4096 57.9966 47.8381C57.793 48.2642 57.6912 48.7566 57.6912 49.3153C57.6912 49.8741 57.793 50.3641 57.9966 50.7855C58.2026 51.2045 58.495 51.5312 58.8738 51.7656ZM58.5333 48.8324C58.5493 48.5794 58.613 48.3403 58.7246 48.1151C58.8548 47.8523 59.0407 47.6392 59.2821 47.4759C59.526 47.3101 59.8148 47.2273 60.1486 47.2273C60.4516 47.2273 60.7144 47.2971 60.937 47.4368C61.1619 47.5765 61.3347 47.767 61.4554 48.0085C61.5785 48.25 61.6401 48.5246 61.6401 48.8324H58.5333Z" fill="#55B3FF"/>
</svg>
