<svg width="390" height="95" viewBox="0 0 390 95" fill="none" xmlns="http://www.w3.org/2000/svg">
<g filter="url(#filter0_d_1714_37087)">
<path d="M0 19.8867H390V94.8867H0V19.8867Z" fill="white"/>
<path d="M335.034 56.6307L335.205 55.5306C335.414 54.1898 336.289 53.0413 337.585 52.6398C339.195 52.1412 341.586 51.5742 344.136 51.5742C346.686 51.5742 349.077 52.1412 350.687 52.6398C351.983 53.0413 352.858 54.1898 353.067 55.5306L353.238 56.6307" stroke="#CFD1DE" stroke-width="2.02261" stroke-linecap="round" stroke-linejoin="round"/>
<path d="M344.136 47.0232C346.928 47.0232 349.192 44.7593 349.192 41.9667C349.192 39.174 346.928 36.9102 344.136 36.9102C341.343 36.9102 339.079 39.174 339.079 41.9667C339.079 44.7593 341.343 47.0232 344.136 47.0232Z" stroke="#CFD1DE" stroke-width="2.02261" stroke-linecap="round" stroke-linejoin="round"/>
<path d="M331.756 71.8867V64.614H334.213C334.784 64.614 335.25 64.717 335.612 64.9229C335.977 65.1265 336.247 65.4023 336.422 65.7504C336.597 66.0984 336.685 66.4866 336.685 66.9151C336.685 67.3436 336.597 67.7331 336.422 68.0835C336.249 68.4338 335.982 68.7132 335.619 68.9215C335.257 69.1275 334.793 69.2305 334.227 69.2305H332.466V68.4492H334.199C334.589 68.4492 334.903 68.3817 335.14 68.2468C335.377 68.1119 335.548 67.9296 335.655 67.6999C335.764 67.4679 335.818 67.2063 335.818 66.9151C335.818 66.6239 335.764 66.3635 335.655 66.1339C335.548 65.9042 335.375 65.7243 335.136 65.5941C334.897 65.4615 334.58 65.3952 334.185 65.3952H332.636V71.8867H331.756ZM340.218 72.0004C339.692 72.0004 339.239 71.8844 338.858 71.6523C338.479 71.418 338.187 71.0913 337.981 70.6722C337.777 70.2508 337.675 69.7608 337.675 69.2021C337.675 68.6433 337.777 68.1509 337.981 67.7248C338.187 67.2963 338.473 66.9625 338.84 66.7234C339.21 66.4819 339.64 66.3612 340.133 66.3612C340.417 66.3612 340.697 66.4085 340.974 66.5032C341.251 66.5979 341.504 66.7518 341.731 66.9648C341.958 67.1755 342.139 67.4549 342.274 67.8029C342.409 68.1509 342.477 68.5794 342.477 69.0884V69.4435H338.272V68.7191H341.624C341.624 68.4113 341.563 68.1367 341.44 67.8952C341.319 67.6538 341.146 67.4632 340.921 67.3235C340.699 67.1838 340.436 67.114 340.133 67.114C339.799 67.114 339.51 67.1969 339.266 67.3626C339.025 67.5259 338.839 67.739 338.709 68.0018C338.579 68.2646 338.513 68.5463 338.513 68.8469V69.3299C338.513 69.7418 338.585 70.091 338.727 70.3775C338.871 70.6616 339.071 70.8782 339.327 71.0273C339.582 71.1741 339.879 71.2475 340.218 71.2475C340.438 71.2475 340.637 71.2167 340.815 71.1552C340.995 71.0913 341.15 70.9966 341.28 70.8711C341.41 70.7433 341.511 70.5846 341.582 70.3952L342.391 70.6225C342.306 70.8971 342.163 71.1386 341.962 71.3469C341.76 71.5529 341.512 71.7139 341.216 71.8299C340.92 71.9435 340.587 72.0004 340.218 72.0004ZM343.751 71.8867V66.4322H344.561V67.256H344.618C344.717 66.9862 344.897 66.7672 345.158 66.5991C345.418 66.431 345.712 66.3469 346.038 66.3469C346.1 66.3469 346.177 66.3481 346.269 66.3505C346.362 66.3529 346.431 66.3564 346.479 66.3612V67.2134C346.45 67.2063 346.385 67.1957 346.283 67.1815C346.184 67.1649 346.079 67.1566 345.967 67.1566C345.702 67.1566 345.465 67.2122 345.257 67.3235C345.051 67.4324 344.888 67.5839 344.767 67.7781C344.649 67.9698 344.589 68.1888 344.589 68.435V71.8867H343.751ZM350.243 66.4322V67.1424H347.303V66.4322H350.243ZM348.183 71.8867V65.6793C348.183 65.3668 348.257 65.1064 348.403 64.8981C348.55 64.6897 348.741 64.5335 348.975 64.4293C349.21 64.3252 349.457 64.2731 349.717 64.2731C349.923 64.2731 350.091 64.2897 350.222 64.3228C350.352 64.3559 350.449 64.3867 350.513 64.4151L350.271 65.1396C350.229 65.1254 350.17 65.1076 350.094 65.0863C350.02 65.065 349.923 65.0543 349.803 65.0543C349.526 65.0543 349.326 65.1242 349.202 65.2638C349.082 65.4035 349.021 65.6083 349.021 65.8782V71.8867H348.183ZM351.417 71.8867V66.4322H352.256V71.8867H351.417ZM351.844 65.5231C351.68 65.5231 351.539 65.4674 351.421 65.3562C351.305 65.2449 351.247 65.1112 351.247 64.9549C351.247 64.7987 351.305 64.6649 351.421 64.5536C351.539 64.4424 351.68 64.3867 351.844 64.3867C352.007 64.3867 352.147 64.4424 352.263 64.5536C352.381 64.6649 352.44 64.7987 352.44 64.9549C352.44 65.1112 352.381 65.2449 352.263 65.3562C352.147 65.4674 352.007 65.5231 351.844 65.5231ZM354.629 64.614V71.8867H353.79V64.614H354.629Z" fill="#CFD1DE"/>
<path d="M142.079 37.9219H141.068C139.393 37.9219 138.034 39.2802 138.034 40.9558V55.114C138.034 56.7896 139.393 58.1479 141.068 58.1479H153.204C154.879 58.1479 156.238 56.7896 156.238 55.114V40.9558C156.238 39.2802 154.879 37.9219 153.204 37.9219H152.192" stroke="#CFD1DE" stroke-width="2.02261"/>
<rect x="142.079" y="35.8984" width="10.113" height="5.05651" rx="2.02261" stroke="#CFD1DE" stroke-width="2.02261"/>
<path d="M124.407 71.8867V64.614H126.864C127.435 64.614 127.901 64.717 128.264 64.9229C128.628 65.1265 128.898 65.4023 129.073 65.7504C129.248 66.0984 129.336 66.4866 129.336 66.9151C129.336 67.3436 129.248 67.7331 129.073 68.0835C128.9 68.4338 128.633 68.7132 128.271 68.9215C127.908 69.1275 127.444 69.2305 126.879 69.2305H125.117V68.4492H126.85C127.241 68.4492 127.555 68.3817 127.791 68.2468C128.028 68.1119 128.2 67.9296 128.306 67.6999C128.415 67.4679 128.47 67.2063 128.47 66.9151C128.47 66.6239 128.415 66.3635 128.306 66.1339C128.2 65.9042 128.027 65.7243 127.788 65.5941C127.549 65.4615 127.231 65.3952 126.836 65.3952H125.288V71.8867H124.407ZM130.641 71.8867V66.4322H131.451V67.256H131.508C131.607 66.9862 131.787 66.7672 132.047 66.5991C132.308 66.431 132.601 66.3469 132.928 66.3469C132.99 66.3469 133.066 66.3481 133.159 66.3505C133.251 66.3529 133.321 66.3564 133.368 66.3612V67.2134C133.34 67.2063 133.275 67.1957 133.173 67.1815C133.074 67.1649 132.968 67.1566 132.857 67.1566C132.592 67.1566 132.355 67.2122 132.147 67.3235C131.941 67.4324 131.777 67.5839 131.657 67.7781C131.538 67.9698 131.479 68.1888 131.479 68.435V71.8867H130.641ZM136.412 72.0004C135.919 72.0004 135.487 71.8832 135.116 71.6488C134.746 71.4144 134.457 71.0865 134.249 70.6651C134.043 70.2437 133.94 69.7513 133.94 69.1879C133.94 68.6197 134.043 68.1237 134.249 67.6999C134.457 67.2762 134.746 66.9471 135.116 66.7127C135.487 66.4783 135.919 66.3612 136.412 66.3612C136.904 66.3612 137.335 66.4783 137.704 66.7127C138.076 66.9471 138.365 67.2762 138.571 67.6999C138.779 68.1237 138.883 68.6197 138.883 69.1879C138.883 69.7513 138.779 70.2437 138.571 70.6651C138.365 71.0865 138.076 71.4144 137.704 71.6488C137.335 71.8832 136.904 72.0004 136.412 72.0004ZM136.412 71.2475C136.786 71.2475 137.093 71.1516 137.335 70.9599C137.576 70.7681 137.755 70.516 137.871 70.2035C137.987 69.891 138.045 69.5524 138.045 69.1879C138.045 68.8233 137.987 68.4835 137.871 68.1687C137.755 67.8538 137.576 67.5993 137.335 67.4052C137.093 67.2111 136.786 67.114 136.412 67.114C136.038 67.114 135.73 67.2111 135.488 67.4052C135.247 67.5993 135.068 67.8538 134.952 68.1687C134.836 68.4835 134.778 68.8233 134.778 69.1879C134.778 69.5524 134.836 69.891 134.952 70.2035C135.068 70.516 135.247 70.7681 135.488 70.9599C135.73 71.1516 136.038 71.2475 136.412 71.2475ZM140.507 73.9322C140.365 73.9322 140.238 73.9203 140.127 73.8967C140.016 73.8754 139.939 73.854 139.896 73.8327L140.109 73.0941C140.313 73.1462 140.493 73.1651 140.649 73.1509C140.805 73.1367 140.944 73.0669 141.065 72.9414C141.188 72.8183 141.3 72.6183 141.402 72.3413L141.558 71.9151L139.541 66.4322H140.45L141.956 70.7788H142.013L143.518 66.4322H144.427L142.112 72.6822C142.008 72.9639 141.879 73.1971 141.725 73.3817C141.571 73.5688 141.392 73.7073 141.189 73.7972C140.988 73.8872 140.76 73.9322 140.507 73.9322ZM147.625 72.0004C147.1 72.0004 146.646 71.8844 146.265 71.6523C145.886 71.418 145.594 71.0913 145.388 70.6722C145.184 70.2508 145.083 69.7608 145.083 69.2021C145.083 68.6433 145.184 68.1509 145.388 67.7248C145.594 67.2963 145.88 66.9625 146.247 66.7234C146.617 66.4819 147.048 66.3612 147.54 66.3612C147.824 66.3612 148.105 66.4085 148.382 66.5032C148.659 66.5979 148.911 66.7518 149.138 66.9648C149.365 67.1755 149.546 67.4549 149.681 67.8029C149.816 68.1509 149.884 68.5794 149.884 69.0884V69.4435H145.679V68.7191H149.032C149.032 68.4113 148.97 68.1367 148.847 67.8952C148.726 67.6538 148.553 67.4632 148.328 67.3235C148.106 67.1838 147.843 67.114 147.54 67.114C147.206 67.114 146.917 67.1969 146.674 67.3626C146.432 67.5259 146.246 67.739 146.116 68.0018C145.986 68.2646 145.921 68.5463 145.921 68.8469V69.3299C145.921 69.7418 145.992 70.091 146.134 70.3775C146.278 70.6616 146.478 70.8782 146.734 71.0273C146.99 71.1741 147.287 71.2475 147.625 71.2475C147.845 71.2475 148.044 71.2167 148.222 71.1552C148.402 71.0913 148.557 70.9966 148.687 70.8711C148.817 70.7433 148.918 70.5846 148.989 70.3952L149.799 70.6225C149.713 70.8971 149.57 71.1386 149.369 71.3469C149.168 71.5529 148.919 71.7139 148.623 71.8299C148.327 71.9435 147.995 72.0004 147.625 72.0004ZM153.375 72.0004C152.863 72.0004 152.423 71.8796 152.054 71.6381C151.684 71.3967 151.4 71.064 151.201 70.6403C151.002 70.2165 150.903 69.7324 150.903 69.1879C150.903 68.6339 151.005 68.145 151.208 67.7212C151.414 67.2951 151.701 66.9625 152.068 66.7234C152.437 66.4819 152.868 66.3612 153.36 66.3612C153.744 66.3612 154.09 66.4322 154.397 66.5742C154.705 66.7163 154.957 66.9151 155.154 67.1708C155.35 67.4265 155.472 67.7248 155.519 68.0657H154.681C154.617 67.8171 154.475 67.5969 154.255 67.4052C154.037 67.2111 153.744 67.114 153.375 67.114C153.048 67.114 152.761 67.1992 152.515 67.3697C152.271 67.5378 152.081 67.7757 151.943 68.0835C151.809 68.3888 151.741 68.7475 151.741 69.1594C151.741 69.5808 151.807 69.9478 151.94 70.2603C152.075 70.5728 152.264 70.8155 152.508 70.9883C152.754 71.1611 153.043 71.2475 153.375 71.2475C153.592 71.2475 153.79 71.2096 153.968 71.1339C154.145 71.0581 154.295 70.9492 154.419 70.8072C154.542 70.6651 154.629 70.4947 154.681 70.2958H155.519C155.472 70.6178 155.355 70.9078 155.168 71.1658C154.983 71.4215 154.738 71.6251 154.433 71.7766C154.13 71.9258 153.777 72.0004 153.375 72.0004ZM159.117 66.4322V67.1424H156.29V66.4322H159.117ZM157.114 65.1254H157.952V70.3242C157.952 70.561 157.986 70.7385 158.055 70.8569C158.126 70.9729 158.216 71.051 158.325 71.0913C158.436 71.1291 158.553 71.1481 158.676 71.1481C158.769 71.1481 158.844 71.1433 158.904 71.1339C158.963 71.122 159.01 71.1126 159.046 71.1055L159.216 71.8583C159.159 71.8796 159.08 71.9009 158.978 71.9222C158.876 71.9459 158.747 71.9577 158.591 71.9577C158.354 71.9577 158.122 71.9068 157.895 71.805C157.67 71.7032 157.483 71.5482 157.334 71.3398C157.187 71.1315 157.114 70.8687 157.114 70.5515V65.1254ZM162.535 72.0004C162.042 72.0004 161.61 71.8832 161.239 71.6488C160.869 71.4144 160.58 71.0865 160.372 70.6651C160.166 70.2437 160.063 69.7513 160.063 69.1879C160.063 68.6197 160.166 68.1237 160.372 67.6999C160.58 67.2762 160.869 66.9471 161.239 66.7127C161.61 66.4783 162.042 66.3612 162.535 66.3612C163.027 66.3612 163.458 66.4783 163.827 66.7127C164.199 66.9471 164.488 67.2762 164.694 67.6999C164.902 68.1237 165.006 68.6197 165.006 69.1879C165.006 69.7513 164.902 70.2437 164.694 70.6651C164.488 71.0865 164.199 71.4144 163.827 71.6488C163.458 71.8832 163.027 72.0004 162.535 72.0004ZM162.535 71.2475C162.909 71.2475 163.217 71.1516 163.458 70.9599C163.699 70.7681 163.878 70.516 163.994 70.2035C164.11 69.891 164.168 69.5524 164.168 69.1879C164.168 68.8233 164.11 68.4835 163.994 68.1687C163.878 67.8538 163.699 67.5993 163.458 67.4052C163.217 67.2111 162.909 67.114 162.535 67.114C162.161 67.114 161.853 67.2111 161.611 67.4052C161.37 67.5993 161.191 67.8538 161.075 68.1687C160.959 68.4835 160.901 68.8233 160.901 69.1879C160.901 69.5524 160.959 69.891 161.075 70.2035C161.191 70.516 161.37 70.7681 161.611 70.9599C161.853 71.1516 162.161 71.2475 162.535 71.2475ZM170.149 67.6538L169.396 67.8668C169.349 67.7414 169.279 67.6194 169.187 67.5011C169.097 67.3803 168.974 67.2809 168.818 67.2028C168.661 67.1246 168.461 67.0856 168.217 67.0856C167.884 67.0856 167.605 67.1625 167.383 67.3164C167.163 67.4679 167.053 67.6609 167.053 67.8952C167.053 68.1036 167.128 68.2681 167.28 68.3888C167.431 68.5096 167.668 68.6102 167.99 68.6907L168.8 68.8896C169.287 69.0079 169.651 69.189 169.89 69.4329C170.129 69.6744 170.249 69.9857 170.249 70.3668C170.249 70.6793 170.159 70.9587 169.979 71.2049C169.801 71.4511 169.553 71.6452 169.233 71.7873C168.913 71.9293 168.542 72.0004 168.118 72.0004C167.562 72.0004 167.101 71.8796 166.737 71.6381C166.372 71.3967 166.141 71.0439 166.044 70.5799L166.84 70.381C166.915 70.6746 167.059 70.8948 167.269 71.0415C167.482 71.1883 167.761 71.2617 168.104 71.2617C168.494 71.2617 168.805 71.1789 169.034 71.0131C169.266 70.8451 169.382 70.6438 169.382 70.4094C169.382 70.2201 169.316 70.0614 169.183 69.9336C169.051 69.8034 168.847 69.7063 168.573 69.6424L167.663 69.4293C167.164 69.311 166.797 69.1275 166.563 68.8789C166.331 68.628 166.215 68.3143 166.215 67.9379C166.215 67.6301 166.301 67.3578 166.474 67.1211C166.649 66.8844 166.887 66.6985 167.188 66.5636C167.491 66.4286 167.834 66.3612 168.217 66.3612C168.757 66.3612 169.181 66.4795 169.489 66.7163C169.799 66.953 170.019 67.2655 170.149 67.6538Z" fill="#CFD1DE"/>
<path d="M39.0225 44.8618C39.0225 43.9083 39.4758 43.0115 40.2436 42.4461L49.1355 35.8984L58.0274 42.4461C58.7952 43.0115 59.2485 43.9083 59.2485 44.8618V55.6471C59.2485 57.0278 58.1292 58.1471 56.7485 58.1471H53.1694C52.6171 58.1471 52.1694 57.6994 52.1694 57.1471V51.0623C52.1694 50.7862 51.9455 50.5623 51.6694 50.5623H46.6016C46.3254 50.5623 46.1016 50.7862 46.1016 51.0623V57.1471C46.1016 57.6994 45.6539 58.1471 45.1016 58.1471H41.5225C40.1418 58.1471 39.0225 57.0278 39.0225 55.6471V44.8618Z" stroke="#87C9FF" stroke-width="2.02261" stroke-linecap="round" stroke-linejoin="round"/>
<path d="M36.075 71.8867V64.614H36.9557V67.8526H40.8335V64.614H41.7142V71.8867H40.8335V68.6339H36.9557V71.8867H36.075ZM45.5796 72.0004C45.0872 72.0004 44.6552 71.8832 44.2835 71.6488C43.9142 71.4144 43.6253 71.0865 43.417 70.6651C43.211 70.2437 43.108 69.7513 43.108 69.1879C43.108 68.6197 43.211 68.1237 43.417 67.6999C43.6253 67.2762 43.9142 66.9471 44.2835 66.7127C44.6552 66.4783 45.0872 66.3612 45.5796 66.3612C46.0721 66.3612 46.5029 66.4783 46.8722 66.7127C47.2439 66.9471 47.5328 67.2762 47.7387 67.6999C47.9471 68.1237 48.0512 68.6197 48.0512 69.1879C48.0512 69.7513 47.9471 70.2437 47.7387 70.6651C47.5328 71.0865 47.2439 71.4144 46.8722 71.6488C46.5029 71.8832 46.0721 72.0004 45.5796 72.0004ZM45.5796 71.2475C45.9537 71.2475 46.2615 71.1516 46.5029 70.9599C46.7444 70.7681 46.9231 70.516 47.0392 70.2035C47.1552 69.891 47.2132 69.5524 47.2132 69.1879C47.2132 68.8233 47.1552 68.4835 47.0392 68.1687C46.9231 67.8538 46.7444 67.5993 46.5029 67.4052C46.2615 67.2111 45.9537 67.114 45.5796 67.114C45.2056 67.114 44.8978 67.2111 44.6563 67.4052C44.4149 67.5993 44.2361 67.8538 44.1201 68.1687C44.0041 68.4835 43.9461 68.8233 43.9461 69.1879C43.9461 69.5524 44.0041 69.891 44.1201 70.2035C44.2361 70.516 44.4149 70.7681 44.6563 70.9599C44.8978 71.1516 45.2056 71.2475 45.5796 71.2475ZM49.3305 71.8867V66.4322H50.1402V67.2844H50.2112C50.3248 66.9933 50.5083 66.7672 50.7616 66.6062C51.0149 66.4428 51.3192 66.3612 51.6743 66.3612C52.0341 66.3612 52.3336 66.4428 52.5727 66.6062C52.8142 66.7672 53.0024 66.9933 53.1373 67.2844H53.1942C53.3338 67.0027 53.5434 66.779 53.8227 66.6133C54.1021 66.4452 54.4371 66.3612 54.8277 66.3612C55.3154 66.3612 55.7143 66.5138 56.0244 66.8192C56.3345 67.1223 56.4896 67.5946 56.4896 68.2362V71.8867H55.6515V68.2362C55.6515 67.8337 55.5415 67.546 55.3213 67.3732C55.1011 67.2004 54.8419 67.114 54.5436 67.114C54.1601 67.114 53.863 67.23 53.6523 67.462C53.4416 67.6916 53.3362 67.9828 53.3362 68.3356V71.8867H52.4839V68.1509C52.4839 67.8408 52.3833 67.591 52.1821 67.4016C51.9809 67.2099 51.7216 67.114 51.4044 67.114C51.1866 67.114 50.983 67.172 50.7936 67.288C50.6066 67.404 50.455 67.565 50.339 67.771C50.2254 67.9746 50.1686 68.2101 50.1686 68.4776V71.8867H49.3305ZM60.3089 72.0004C59.7833 72.0004 59.3299 71.8844 58.9488 71.6523C58.57 71.418 58.2776 71.0913 58.0716 70.6722C57.868 70.2508 57.7662 69.7608 57.7662 69.2021C57.7662 68.6433 57.868 68.1509 58.0716 67.7248C58.2776 67.2963 58.5641 66.9625 58.931 66.7234C59.3003 66.4819 59.7312 66.3612 60.2236 66.3612C60.5077 66.3612 60.7883 66.4085 61.0653 66.5032C61.3422 66.5979 61.5944 66.7518 61.8216 66.9648C62.0489 67.1755 62.23 67.4549 62.365 67.8029C62.4999 68.1509 62.5674 68.5794 62.5674 69.0884V69.4435H58.3628V68.7191H61.7151C61.7151 68.4113 61.6536 68.1367 61.5305 67.8952C61.4097 67.6538 61.2369 67.4632 61.012 67.3235C60.7894 67.1838 60.5267 67.114 60.2236 67.114C59.8898 67.114 59.601 67.1969 59.3572 67.3626C59.1157 67.5259 58.9298 67.739 58.7996 68.0018C58.6694 68.2646 58.6043 68.5463 58.6043 68.8469V69.3299C58.6043 69.7418 58.6753 70.091 58.8174 70.3775C58.9618 70.6616 59.1618 70.8782 59.4175 71.0273C59.6732 71.1741 59.9703 71.2475 60.3089 71.2475C60.529 71.2475 60.7279 71.2167 60.9055 71.1552C61.0854 71.0913 61.2404 70.9966 61.3706 70.8711C61.5009 70.7433 61.6015 70.5846 61.6725 70.3952L62.4822 70.6225C62.3969 70.8971 62.2537 71.1386 62.0525 71.3469C61.8512 71.5529 61.6027 71.7139 61.3067 71.8299C61.0108 71.9435 60.6782 72.0004 60.3089 72.0004Z" fill="#389BEC"/>
<path d="M226.92 71.8867V64.614H229.462C229.969 64.614 230.387 64.7016 230.716 64.8768C231.045 65.0496 231.29 65.2828 231.451 65.5763C231.612 65.8675 231.692 66.1907 231.692 66.5458C231.692 66.8583 231.637 67.1164 231.526 67.32C231.417 67.5236 231.272 67.6845 231.092 67.8029C230.915 67.9213 230.722 68.0089 230.513 68.0657V68.1367C230.736 68.1509 230.96 68.229 231.185 68.3711C231.41 68.5131 231.598 68.7167 231.749 68.9819C231.901 69.247 231.977 69.5714 231.977 69.9549C231.977 70.3195 231.894 70.6474 231.728 70.9386C231.562 71.2298 231.301 71.4606 230.943 71.631C230.586 71.8015 230.121 71.8867 229.548 71.8867H226.92ZM227.8 71.1055H229.548C230.123 71.1055 230.531 70.9942 230.773 70.7717C231.017 70.5468 231.138 70.2745 231.138 69.9549C231.138 69.7087 231.076 69.4814 230.95 69.2731C230.825 69.0624 230.646 68.8943 230.414 68.7688C230.182 68.641 229.907 68.5771 229.59 68.5771H227.8V71.1055ZM227.8 67.81H229.434C229.699 67.81 229.938 67.7579 230.151 67.6538C230.367 67.5496 230.537 67.4028 230.663 67.2134C230.79 67.024 230.854 66.8015 230.854 66.5458C230.854 66.2262 230.743 65.9551 230.521 65.7326C230.298 65.5077 229.945 65.3952 229.462 65.3952H227.8V67.81ZM233.31 71.8867V66.4322H234.148V71.8867H233.31ZM233.736 65.5231C233.573 65.5231 233.432 65.4674 233.314 65.3562C233.198 65.2449 233.14 65.1112 233.14 64.9549C233.14 64.7987 233.198 64.6649 233.314 64.5536C233.432 64.4424 233.573 64.3867 233.736 64.3867C233.9 64.3867 234.039 64.4424 234.155 64.5536C234.274 64.6649 234.333 64.7987 234.333 64.9549C234.333 65.1112 234.274 65.2449 234.155 65.3562C234.039 65.4674 233.9 65.5231 233.736 65.5231ZM236.521 64.614V71.8867H235.683V64.614H236.521ZM238.894 64.614V71.8867H238.056V64.614H238.894ZM242.716 72.0004C242.191 72.0004 241.737 71.8844 241.356 71.6523C240.977 71.418 240.685 71.0913 240.479 70.6722C240.275 70.2508 240.173 69.7608 240.173 69.2021C240.173 68.6433 240.275 68.1509 240.479 67.7248C240.685 67.2963 240.971 66.9625 241.338 66.7234C241.708 66.4819 242.138 66.3612 242.631 66.3612C242.915 66.3612 243.195 66.4085 243.472 66.5032C243.749 66.5979 244.002 66.7518 244.229 66.9648C244.456 67.1755 244.637 67.4549 244.772 67.8029C244.907 68.1509 244.975 68.5794 244.975 69.0884V69.4435H240.77V68.7191H244.122C244.122 68.4113 244.061 68.1367 243.938 67.8952C243.817 67.6538 243.644 67.4632 243.419 67.3235C243.197 67.1838 242.934 67.114 242.631 67.114C242.297 67.114 242.008 67.1969 241.764 67.3626C241.523 67.5259 241.337 67.739 241.207 68.0018C241.077 68.2646 241.012 68.5463 241.012 68.8469V69.3299C241.012 69.7418 241.083 70.091 241.225 70.3775C241.369 70.6616 241.569 70.8782 241.825 71.0273C242.08 71.1741 242.378 71.2475 242.716 71.2475C242.936 71.2475 243.135 71.2167 243.313 71.1552C243.493 71.0913 243.648 70.9966 243.778 70.8711C243.908 70.7433 244.009 70.5846 244.08 70.3952L244.889 70.6225C244.804 70.8971 244.661 71.1386 244.46 71.3469C244.258 71.5529 244.01 71.7139 243.714 71.8299C243.418 71.9435 243.085 72.0004 242.716 72.0004ZM248.622 66.4322V67.1424H245.795V66.4322H248.622ZM246.619 65.1254H247.457V70.3242C247.457 70.561 247.491 70.7385 247.56 70.8569C247.631 70.9729 247.721 71.051 247.83 71.0913C247.941 71.1291 248.058 71.1481 248.181 71.1481C248.274 71.1481 248.349 71.1433 248.409 71.1339C248.468 71.122 248.515 71.1126 248.551 71.1055L248.721 71.8583C248.664 71.8796 248.585 71.9009 248.483 71.9222C248.381 71.9459 248.252 71.9577 248.096 71.9577C247.859 71.9577 247.627 71.9068 247.4 71.805C247.175 71.7032 246.988 71.5482 246.839 71.3398C246.692 71.1315 246.619 70.8687 246.619 70.5515V65.1254ZM252.111 72.0004C251.585 72.0004 251.132 71.8844 250.751 71.6523C250.372 71.418 250.079 71.0913 249.873 70.6722C249.67 70.2508 249.568 69.7608 249.568 69.2021C249.568 68.6433 249.67 68.1509 249.873 67.7248C250.079 67.2963 250.366 66.9625 250.733 66.7234C251.102 66.4819 251.533 66.3612 252.025 66.3612C252.309 66.3612 252.59 66.4085 252.867 66.5032C253.144 66.5979 253.396 66.7518 253.623 66.9648C253.851 67.1755 254.032 67.4549 254.167 67.8029C254.302 68.1509 254.369 68.5794 254.369 69.0884V69.4435H250.165V68.7191H253.517C253.517 68.4113 253.455 68.1367 253.332 67.8952C253.211 67.6538 253.039 67.4632 252.814 67.3235C252.591 67.1838 252.328 67.114 252.025 67.114C251.692 67.114 251.403 67.1969 251.159 67.3626C250.917 67.5259 250.732 67.739 250.601 68.0018C250.471 68.2646 250.406 68.5463 250.406 68.8469V69.3299C250.406 69.7418 250.477 70.091 250.619 70.3775C250.764 70.6616 250.964 70.8782 251.219 71.0273C251.475 71.1741 251.772 71.2475 252.111 71.2475C252.331 71.2475 252.53 71.2167 252.707 71.1552C252.887 71.0913 253.042 70.9966 253.172 70.8711C253.303 70.7433 253.403 70.5846 253.474 70.3952L254.284 70.6225C254.199 70.8971 254.055 71.1386 253.854 71.3469C253.653 71.5529 253.404 71.7139 253.108 71.8299C252.813 71.9435 252.48 72.0004 252.111 72.0004ZM255.644 71.8867V66.4322H256.454V67.256H256.51C256.61 66.9862 256.79 66.7672 257.05 66.5991C257.311 66.431 257.604 66.3469 257.931 66.3469C257.992 66.3469 258.069 66.3481 258.162 66.3505C258.254 66.3529 258.324 66.3564 258.371 66.3612V67.2134C258.343 67.2063 258.278 67.1957 258.176 67.1815C258.077 67.1649 257.971 67.1566 257.86 67.1566C257.595 67.1566 257.358 67.2122 257.15 67.3235C256.944 67.4324 256.78 67.5839 256.66 67.7781C256.541 67.9698 256.482 68.1888 256.482 68.435V71.8867H255.644ZM260.97 72.0146C260.624 72.0146 260.31 71.9495 260.029 71.8192C259.747 71.6867 259.523 71.4961 259.358 71.2475C259.192 70.9966 259.109 70.6935 259.109 70.3384C259.109 70.0259 259.171 69.7726 259.294 69.5785C259.417 69.382 259.581 69.2281 259.787 69.1168C259.993 69.0056 260.221 68.9227 260.469 68.8683C260.72 68.8114 260.972 68.7665 261.225 68.7333C261.557 68.6907 261.826 68.6587 262.032 68.6374C262.24 68.6138 262.391 68.5747 262.486 68.5202C262.583 68.4658 262.632 68.3711 262.632 68.2362V68.2077C262.632 67.8574 262.536 67.5851 262.344 67.391C262.155 67.1969 261.867 67.0998 261.481 67.0998C261.081 67.0998 260.767 67.1874 260.54 67.3626C260.313 67.5378 260.153 67.7248 260.061 67.9237L259.265 67.6396C259.407 67.3081 259.597 67.0501 259.833 66.8654C260.073 66.6784 260.333 66.5482 260.615 66.4748C260.899 66.399 261.178 66.3612 261.453 66.3612C261.628 66.3612 261.829 66.3825 262.056 66.4251C262.286 66.4653 262.507 66.5494 262.721 66.6772C262.936 66.805 263.115 66.998 263.257 67.256C263.399 67.5141 263.47 67.8597 263.47 68.293V71.8867H262.632V71.1481H262.589C262.532 71.2665 262.438 71.3931 262.305 71.5281C262.172 71.663 261.996 71.7778 261.776 71.8725C261.556 71.9672 261.287 72.0146 260.97 72.0146ZM261.098 71.2617C261.429 71.2617 261.708 71.1966 261.936 71.0664C262.165 70.9362 262.338 70.7681 262.454 70.5621C262.573 70.3562 262.632 70.1396 262.632 69.9123V69.1452C262.596 69.1879 262.518 69.2269 262.397 69.2624C262.279 69.2956 262.142 69.3252 261.985 69.3512C261.832 69.3749 261.681 69.3962 261.534 69.4151C261.39 69.4317 261.273 69.4459 261.183 69.4577C260.965 69.4862 260.761 69.5323 260.572 69.5962C260.385 69.6578 260.234 69.7513 260.118 69.8768C260.004 69.9999 259.947 70.168 259.947 70.381C259.947 70.6722 260.055 70.8924 260.27 71.0415C260.488 71.1883 260.764 71.2617 261.098 71.2617Z" fill="#CFD1DE"/>
<path d="M254.231 37.9336L237.074 37.9336C235.401 37.9336 234.044 39.2902 234.044 40.9636V55.1297C234.044 56.8031 235.401 58.1597 237.074 58.1597H253.197C254.871 58.1597 256.227 56.8031 256.227 55.1297V44.9143C256.227 43.2409 254.871 41.8843 253.197 41.8843H236.548C235.433 41.8843 234.528 40.98 234.528 39.8646V39.8646" stroke="#CFD1DE" stroke-width="2.02" stroke-linecap="round" stroke-linejoin="round"/>
<rect width="70" height="2" transform="matrix(1 0 0 -1 14.1357 21.8867)" fill="#55B3FF"/>
</g>
<defs>
<filter id="filter0_d_1714_37087" x="-13" y="0.886719" width="416" height="101" filterUnits="userSpaceOnUse" color-interpolation-filters="sRGB">
<feFlood flood-opacity="0" result="BackgroundImageFix"/>
<feColorMatrix in="SourceAlpha" type="matrix" values="0 0 0 0 0 0 0 0 0 0 0 0 0 0 0 0 0 0 127 0" result="hardAlpha"/>
<feOffset dy="-6"/>
<feGaussianBlur stdDeviation="6.5"/>
<feComposite in2="hardAlpha" operator="out"/>
<feColorMatrix type="matrix" values="0 0 0 0 0 0 0 0 0 0 0 0 0 0 0 0 0 0 0.04 0"/>
<feBlend mode="normal" in2="BackgroundImageFix" result="effect1_dropShadow_1714_37087"/>
<feBlend mode="normal" in="SourceGraphic" in2="effect1_dropShadow_1714_37087" result="shape"/>
</filter>
</defs>
</svg>
