<svg width="391" height="95" viewBox="0 0 391 95" fill="none" xmlns="http://www.w3.org/2000/svg">
<g filter="url(#filter0_d_1501_22262)">
<path d="M0.130859 19.8875H390.131V94.8875H0.130859V19.8875Z" fill="white"/>
<path d="M335.165 56.6305L335.336 55.5304C335.545 54.1895 336.42 53.041 337.716 52.6395C339.326 52.1409 341.717 51.5739 344.267 51.5739C346.817 51.5739 349.208 52.1409 350.818 52.6395C352.114 53.041 352.989 54.1895 353.197 55.5304L353.368 56.6305" stroke="#CFD1DE" stroke-width="2.02261" stroke-linecap="round" stroke-linejoin="round"/>
<path d="M344.266 47.0231C347.059 47.0231 349.323 44.7592 349.323 41.9666C349.323 39.1739 347.059 36.91 344.266 36.91C341.474 36.91 339.21 39.1739 339.21 41.9666C339.21 44.7592 341.474 47.0231 344.266 47.0231Z" stroke="#CFD1DE" stroke-width="2.02261" stroke-linecap="round" stroke-linejoin="round"/>
<path d="M331.887 71.8875V64.6147H334.344C334.914 64.6147 335.381 64.7177 335.743 64.9237C336.108 65.1273 336.378 65.4031 336.553 65.7511C336.728 66.0991 336.816 66.4874 336.816 66.9159C336.816 67.3444 336.728 67.7338 336.553 68.0842C336.38 68.4346 336.112 68.7139 335.75 68.9223C335.388 69.1282 334.924 69.2312 334.358 69.2312H332.597V68.45H334.33C334.72 68.45 335.034 68.3825 335.271 68.2475C335.508 68.1126 335.679 67.9303 335.786 67.7007C335.895 67.4687 335.949 67.2071 335.949 66.9159C335.949 66.6247 335.895 66.3643 335.786 66.1346C335.679 65.905 335.506 65.725 335.267 65.5948C335.028 65.4623 334.711 65.396 334.316 65.396H332.767V71.8875H331.887ZM340.349 72.0011C339.823 72.0011 339.37 71.8851 338.989 71.6531C338.61 71.4187 338.318 71.092 338.112 70.673C337.908 70.2516 337.806 69.7615 337.806 69.2028C337.806 68.6441 337.908 68.1517 338.112 67.7255C338.318 67.297 338.604 66.9632 338.971 66.7241C339.34 66.4826 339.771 66.3619 340.264 66.3619C340.548 66.3619 340.828 66.4092 341.105 66.5039C341.382 66.5986 341.634 66.7525 341.862 66.9656C342.089 67.1763 342.27 67.4556 342.405 67.8036C342.54 68.1517 342.607 68.5802 342.607 69.0892V69.4443H338.403V68.7198H341.755C341.755 68.4121 341.694 68.1375 341.57 67.896C341.45 67.6545 341.277 67.4639 341.052 67.3242C340.829 67.1846 340.567 67.1147 340.264 67.1147C339.93 67.1147 339.641 67.1976 339.397 67.3633C339.156 67.5267 338.97 67.7397 338.84 68.0025C338.709 68.2653 338.644 68.547 338.644 68.8477V69.3306C338.644 69.7426 338.715 70.0918 338.857 70.3782C339.002 70.6623 339.202 70.8789 339.458 71.0281C339.713 71.1749 340.01 71.2482 340.349 71.2482C340.569 71.2482 340.768 71.2175 340.945 71.1559C341.125 71.092 341.28 70.9973 341.411 70.8718C341.541 70.744 341.642 70.5854 341.713 70.396L342.522 70.6232C342.437 70.8979 342.294 71.1393 342.093 71.3477C341.891 71.5536 341.643 71.7146 341.347 71.8306C341.051 71.9443 340.718 72.0011 340.349 72.0011ZM343.882 71.8875V66.4329H344.692V67.2568H344.749C344.848 66.9869 345.028 66.7679 345.289 66.5998C345.549 66.4317 345.843 66.3477 346.169 66.3477C346.231 66.3477 346.308 66.3489 346.4 66.3512C346.492 66.3536 346.562 66.3571 346.61 66.3619V67.2142C346.581 67.2071 346.516 67.1964 346.414 67.1822C346.315 67.1656 346.209 67.1573 346.098 67.1573C345.833 67.1573 345.596 67.213 345.388 67.3242C345.182 67.4331 345.019 67.5847 344.898 67.7788C344.78 67.9705 344.72 68.1895 344.72 68.4357V71.8875H343.882ZM350.374 66.4329V67.1431H347.433V66.4329H350.374ZM348.314 71.8875V65.6801C348.314 65.3676 348.387 65.1071 348.534 64.8988C348.681 64.6905 348.872 64.5342 349.106 64.4301C349.34 64.3259 349.588 64.2738 349.848 64.2738C350.054 64.2738 350.222 64.2904 350.352 64.3235C350.483 64.3567 350.58 64.3875 350.644 64.4159L350.402 65.1403C350.36 65.1261 350.3 65.1083 350.225 65.087C350.151 65.0657 350.054 65.0551 349.933 65.0551C349.656 65.0551 349.456 65.1249 349.333 65.2646C349.213 65.4043 349.152 65.609 349.152 65.8789V71.8875H348.314ZM351.548 71.8875V66.4329H352.386V71.8875H351.548ZM351.974 65.5238C351.811 65.5238 351.67 65.4682 351.552 65.3569C351.436 65.2456 351.378 65.1119 351.378 64.9556C351.378 64.7994 351.436 64.6656 351.552 64.5544C351.67 64.4431 351.811 64.3875 351.974 64.3875C352.138 64.3875 352.277 64.4431 352.393 64.5544C352.512 64.6656 352.571 64.7994 352.571 64.9556C352.571 65.1119 352.512 65.2456 352.393 65.3569C352.277 65.4682 352.138 65.5238 351.974 65.5238ZM354.759 64.6147V71.8875H353.921V64.6147H354.759Z" fill="#CFD1DE"/>
<path d="M142.21 37.9214H141.199C139.523 37.9214 138.165 39.2797 138.165 40.9553V55.1135C138.165 56.7891 139.523 58.1474 141.199 58.1474H153.335C155.01 58.1474 156.368 56.7891 156.368 55.1135V40.9553C156.368 39.2797 155.01 37.9214 153.335 37.9214H152.323" stroke="#CFD1DE" stroke-width="2.02261"/>
<rect x="142.21" y="35.8988" width="10.113" height="5.05651" rx="2.02261" stroke="#CFD1DE" stroke-width="2.02261"/>
<path d="M124.538 71.8875V64.6147H126.995C127.566 64.6147 128.032 64.7177 128.394 64.9237C128.759 65.1273 129.029 65.4031 129.204 65.7511C129.379 66.0991 129.467 66.4874 129.467 66.9159C129.467 67.3444 129.379 67.7338 129.204 68.0842C129.031 68.4346 128.764 68.7139 128.402 68.9223C128.039 69.1282 127.575 69.2312 127.009 69.2312H125.248V68.45H126.981C127.372 68.45 127.685 68.3825 127.922 68.2475C128.159 68.1126 128.331 67.9303 128.437 67.7007C128.546 67.4687 128.6 67.2071 128.6 66.9159C128.6 66.6247 128.546 66.3643 128.437 66.1346C128.331 65.905 128.158 65.725 127.919 65.5948C127.679 65.4623 127.362 65.396 126.967 65.396H125.419V71.8875H124.538ZM130.772 71.8875V66.4329H131.582V67.2568H131.638C131.738 66.9869 131.918 66.7679 132.178 66.5998C132.439 66.4317 132.732 66.3477 133.059 66.3477C133.12 66.3477 133.197 66.3489 133.29 66.3512C133.382 66.3536 133.452 66.3571 133.499 66.3619V67.2142C133.471 67.2071 133.406 67.1964 133.304 67.1822C133.204 67.1656 133.099 67.1573 132.988 67.1573C132.723 67.1573 132.486 67.213 132.278 67.3242C132.072 67.4331 131.908 67.5847 131.788 67.7788C131.669 67.9705 131.61 68.1895 131.61 68.4357V71.8875H130.772ZM136.543 72.0011C136.05 72.0011 135.618 71.8839 135.246 71.6495C134.877 71.4152 134.588 71.0873 134.38 70.6659C134.174 70.2445 134.071 69.752 134.071 69.1886C134.071 68.6204 134.174 68.1244 134.38 67.7007C134.588 67.2769 134.877 66.9478 135.246 66.7134C135.618 66.4791 136.05 66.3619 136.543 66.3619C137.035 66.3619 137.466 66.4791 137.835 66.7134C138.207 66.9478 138.496 67.2769 138.702 67.7007C138.91 68.1244 139.014 68.6204 139.014 69.1886C139.014 69.752 138.91 70.2445 138.702 70.6659C138.496 71.0873 138.207 71.4152 137.835 71.6495C137.466 71.8839 137.035 72.0011 136.543 72.0011ZM136.543 71.2482C136.917 71.2482 137.224 71.1524 137.466 70.9606C137.707 70.7688 137.886 70.5167 138.002 70.2042C138.118 69.8917 138.176 69.5532 138.176 69.1886C138.176 68.824 138.118 68.4843 138.002 68.1694C137.886 67.8545 137.707 67.6 137.466 67.4059C137.224 67.2118 136.917 67.1147 136.543 67.1147C136.168 67.1147 135.861 67.2118 135.619 67.4059C135.378 67.6 135.199 67.8545 135.083 68.1694C134.967 68.4843 134.909 68.824 134.909 69.1886C134.909 69.5532 134.967 69.8917 135.083 70.2042C135.199 70.5167 135.378 70.7688 135.619 70.9606C135.861 71.1524 136.168 71.2482 136.543 71.2482ZM140.638 73.9329C140.496 73.9329 140.369 73.9211 140.258 73.8974C140.147 73.8761 140.07 73.8548 140.027 73.8335L140.24 73.0948C140.444 73.1469 140.624 73.1659 140.78 73.1517C140.936 73.1375 141.075 73.0676 141.195 72.9421C141.319 72.819 141.431 72.619 141.533 72.342L141.689 71.9159L139.672 66.4329H140.581L142.087 70.7795H142.144L143.649 66.4329H144.558L142.243 72.6829C142.139 72.9646 142.01 73.1978 141.856 73.3825C141.702 73.5695 141.523 73.708 141.32 73.798C141.118 73.8879 140.891 73.9329 140.638 73.9329ZM147.756 72.0011C147.231 72.0011 146.777 71.8851 146.396 71.6531C146.017 71.4187 145.725 71.092 145.519 70.673C145.315 70.2516 145.214 69.7615 145.214 69.2028C145.214 68.6441 145.315 68.1517 145.519 67.7255C145.725 67.297 146.011 66.9632 146.378 66.7241C146.748 66.4826 147.178 66.3619 147.671 66.3619C147.955 66.3619 148.236 66.4092 148.513 66.5039C148.79 66.5986 149.042 66.7525 149.269 66.9656C149.496 67.1763 149.677 67.4556 149.812 67.8036C149.947 68.1517 150.015 68.5802 150.015 69.0892V69.4443H145.81V68.7198H149.162C149.162 68.4121 149.101 68.1375 148.978 67.896C148.857 67.6545 148.684 67.4639 148.459 67.3242C148.237 67.1846 147.974 67.1147 147.671 67.1147C147.337 67.1147 147.048 67.1976 146.804 67.3633C146.563 67.5267 146.377 67.7397 146.247 68.0025C146.117 68.2653 146.052 68.547 146.052 68.8477V69.3306C146.052 69.7426 146.123 70.0918 146.265 70.3782C146.409 70.6623 146.609 70.8789 146.865 71.0281C147.12 71.1749 147.418 71.2482 147.756 71.2482C147.976 71.2482 148.175 71.2175 148.353 71.1559C148.533 71.092 148.688 70.9973 148.818 70.8718C148.948 70.744 149.049 70.5854 149.12 70.396L149.929 70.6232C149.844 70.8979 149.701 71.1393 149.5 71.3477C149.299 71.5536 149.05 71.7146 148.754 71.8306C148.458 71.9443 148.125 72.0011 147.756 72.0011ZM153.505 72.0011C152.994 72.0011 152.554 71.8803 152.184 71.6389C151.815 71.3974 151.531 71.0648 151.332 70.641C151.133 70.2172 151.034 69.7331 151.034 69.1886C151.034 68.6346 151.136 68.1457 151.339 67.722C151.545 67.2958 151.832 66.9632 152.199 66.7241C152.568 66.4826 152.999 66.3619 153.491 66.3619C153.875 66.3619 154.22 66.4329 154.528 66.575C154.836 66.717 155.088 66.9159 155.285 67.1715C155.481 67.4272 155.603 67.7255 155.65 68.0664H154.812C154.748 67.8178 154.606 67.5977 154.386 67.4059C154.168 67.2118 153.875 67.1147 153.505 67.1147C153.179 67.1147 152.892 67.2 152.646 67.3704C152.402 67.5385 152.212 67.7764 152.074 68.0842C151.939 68.3896 151.872 68.7482 151.872 69.1602C151.872 69.5816 151.938 69.9485 152.071 70.261C152.206 70.5735 152.395 70.8162 152.639 70.989C152.885 71.1618 153.174 71.2482 153.505 71.2482C153.723 71.2482 153.921 71.2104 154.098 71.1346C154.276 71.0589 154.426 70.95 154.549 70.8079C154.673 70.6659 154.76 70.4954 154.812 70.2965H155.65C155.603 70.6185 155.486 70.9085 155.299 71.1666C155.114 71.4223 154.869 71.6259 154.564 71.7774C154.261 71.9265 153.908 72.0011 153.505 72.0011ZM159.248 66.4329V67.1431H156.421V66.4329H159.248ZM157.245 65.1261H158.083V70.325C158.083 70.5617 158.117 70.7393 158.186 70.8576C158.257 70.9736 158.347 71.0518 158.456 71.092C158.567 71.1299 158.684 71.1488 158.807 71.1488C158.9 71.1488 158.975 71.1441 159.035 71.1346C159.094 71.1228 159.141 71.1133 159.177 71.1062L159.347 71.859C159.29 71.8803 159.211 71.9017 159.109 71.923C159.007 71.9466 158.878 71.9585 158.722 71.9585C158.485 71.9585 158.253 71.9076 158.026 71.8058C157.801 71.704 157.614 71.5489 157.465 71.3406C157.318 71.1322 157.245 70.8695 157.245 70.5522V65.1261ZM162.666 72.0011C162.173 72.0011 161.741 71.8839 161.369 71.6495C161 71.4152 160.711 71.0873 160.503 70.6659C160.297 70.2445 160.194 69.752 160.194 69.1886C160.194 68.6204 160.297 68.1244 160.503 67.7007C160.711 67.2769 161 66.9478 161.369 66.7134C161.741 66.4791 162.173 66.3619 162.666 66.3619C163.158 66.3619 163.589 66.4791 163.958 66.7134C164.33 66.9478 164.619 67.2769 164.825 67.7007C165.033 68.1244 165.137 68.6204 165.137 69.1886C165.137 69.752 165.033 70.2445 164.825 70.6659C164.619 71.0873 164.33 71.4152 163.958 71.6495C163.589 71.8839 163.158 72.0011 162.666 72.0011ZM162.666 71.2482C163.04 71.2482 163.347 71.1524 163.589 70.9606C163.83 70.7688 164.009 70.5167 164.125 70.2042C164.241 69.8917 164.299 69.5532 164.299 69.1886C164.299 68.824 164.241 68.4843 164.125 68.1694C164.009 67.8545 163.83 67.6 163.589 67.4059C163.347 67.2118 163.04 67.1147 162.666 67.1147C162.292 67.1147 161.984 67.2118 161.742 67.4059C161.501 67.6 161.322 67.8545 161.206 68.1694C161.09 68.4843 161.032 68.824 161.032 69.1886C161.032 69.5532 161.09 69.8917 161.206 70.2042C161.322 70.5167 161.501 70.7688 161.742 70.9606C161.984 71.1524 162.292 71.2482 162.666 71.2482ZM170.28 67.6545L169.527 67.8676C169.48 67.7421 169.41 67.6202 169.318 67.5018C169.228 67.3811 169.105 67.2816 168.948 67.2035C168.792 67.1254 168.592 67.0863 168.348 67.0863C168.014 67.0863 167.736 67.1633 167.514 67.3171C167.294 67.4687 167.184 67.6616 167.184 67.896C167.184 68.1043 167.259 68.2688 167.411 68.3896C167.562 68.5103 167.799 68.6109 168.121 68.6914L168.931 68.8903C169.418 69.0087 169.782 69.1898 170.021 69.4336C170.26 69.6751 170.38 69.9864 170.38 70.3676C170.38 70.6801 170.29 70.9594 170.11 71.2056C169.932 71.4518 169.684 71.646 169.364 71.788C169.044 71.9301 168.673 72.0011 168.249 72.0011C167.693 72.0011 167.232 71.8803 166.867 71.6389C166.503 71.3974 166.272 71.0446 166.175 70.5806L166.97 70.3818C167.046 70.6753 167.189 70.8955 167.4 71.0423C167.613 71.1891 167.891 71.2625 168.235 71.2625C168.625 71.2625 168.935 71.1796 169.165 71.0139C169.397 70.8458 169.513 70.6446 169.513 70.4102C169.513 70.2208 169.447 70.0622 169.314 69.9343C169.182 69.8041 168.978 69.7071 168.703 69.6431L167.794 69.4301C167.295 69.3117 166.928 69.1282 166.693 68.8796C166.461 68.6287 166.345 68.315 166.345 67.9386C166.345 67.6308 166.432 67.3586 166.605 67.1218C166.78 66.8851 167.018 66.6992 167.318 66.5643C167.621 66.4294 167.965 66.3619 168.348 66.3619C168.888 66.3619 169.312 66.4803 169.62 66.717C169.93 66.9537 170.15 67.2662 170.28 67.6545Z" fill="#CFD1DE"/>
<path d="M39.1533 44.8621C39.1533 43.9086 39.6066 43.0118 40.3745 42.4464L49.2663 35.8988L58.1582 42.4464C58.9261 43.0118 59.3794 43.9086 59.3794 44.8621V55.6474C59.3794 57.0281 58.2601 58.1474 56.8794 58.1474H53.3003C52.748 58.1474 52.3003 57.6997 52.3003 57.1474V51.0626C52.3003 50.7865 52.0764 50.5626 51.8003 50.5626H46.7324C46.4563 50.5626 46.2324 50.7865 46.2324 51.0626V57.1474C46.2324 57.6997 45.7847 58.1474 45.2324 58.1474H41.6533C40.2726 58.1474 39.1533 57.0281 39.1533 55.6474V44.8621Z" stroke="#87C9FF" stroke-width="2.02261" stroke-linecap="round" stroke-linejoin="round"/>
<path d="M36.2059 71.8875V64.6147H37.0866V67.8534H40.9644V64.6147H41.8451V71.8875H40.9644V68.6346H37.0866V71.8875H36.2059ZM45.7105 72.0011C45.2181 72.0011 44.786 71.8839 44.4143 71.6495C44.045 71.4152 43.7562 71.0873 43.5479 70.6659C43.3419 70.2445 43.2389 69.752 43.2389 69.1886C43.2389 68.6204 43.3419 68.1244 43.5479 67.7007C43.7562 67.2769 44.045 66.9478 44.4143 66.7134C44.786 66.4791 45.2181 66.3619 45.7105 66.3619C46.2029 66.3619 46.6338 66.4791 47.0031 66.7134C47.3748 66.9478 47.6636 67.2769 47.8696 67.7007C48.0779 68.1244 48.1821 68.6204 48.1821 69.1886C48.1821 69.752 48.0779 70.2445 47.8696 70.6659C47.6636 71.0873 47.3748 71.4152 47.0031 71.6495C46.6338 71.8839 46.2029 72.0011 45.7105 72.0011ZM45.7105 71.2482C46.0845 71.2482 46.3923 71.1524 46.6338 70.9606C46.8753 70.7688 47.054 70.5167 47.17 70.2042C47.286 69.8917 47.344 69.5532 47.344 69.1886C47.344 68.824 47.286 68.4843 47.17 68.1694C47.054 67.8545 46.8753 67.6 46.6338 67.4059C46.3923 67.2118 46.0845 67.1147 45.7105 67.1147C45.3364 67.1147 45.0287 67.2118 44.7872 67.4059C44.5457 67.6 44.367 67.8545 44.251 68.1694C44.135 68.4843 44.077 68.824 44.077 69.1886C44.077 69.5532 44.135 69.8917 44.251 70.2042C44.367 70.5167 44.5457 70.7688 44.7872 70.9606C45.0287 71.1524 45.3364 71.2482 45.7105 71.2482ZM49.4614 71.8875V66.4329H50.271V67.2852H50.3421C50.4557 66.994 50.6392 66.7679 50.8925 66.6069C51.1458 66.4436 51.45 66.3619 51.8051 66.3619C52.165 66.3619 52.4645 66.4436 52.7036 66.6069C52.945 66.7679 53.1333 66.994 53.2682 67.2852H53.325C53.4647 67.0035 53.6742 66.7797 53.9536 66.614C54.2329 66.4459 54.5679 66.3619 54.9585 66.3619C55.4462 66.3619 55.8451 66.5146 56.1553 66.82C56.4654 67.123 56.6205 67.5953 56.6205 68.2369V71.8875H55.7824V68.2369C55.7824 67.8344 55.6723 67.5468 55.4521 67.374C55.232 67.2011 54.9727 67.1147 54.6744 67.1147C54.2909 67.1147 53.9938 67.2307 53.7831 67.4627C53.5724 67.6924 53.4671 67.9836 53.4671 68.3363V71.8875H52.6148V68.1517C52.6148 67.8415 52.5142 67.5918 52.3129 67.4024C52.1117 67.2106 51.8525 67.1147 51.5352 67.1147C51.3174 67.1147 51.1138 67.1727 50.9244 67.2887C50.7374 67.4047 50.5859 67.5657 50.4699 67.7717C50.3563 67.9753 50.2994 68.2108 50.2994 68.4784V71.8875H49.4614ZM60.4397 72.0011C59.9142 72.0011 59.4608 71.8851 59.0796 71.6531C58.7008 71.4187 58.4085 71.092 58.2025 70.673C57.9989 70.2516 57.8971 69.7615 57.8971 69.2028C57.8971 68.6441 57.9989 68.1517 58.2025 67.7255C58.4085 67.297 58.6949 66.9632 59.0619 66.7241C59.4312 66.4826 59.8621 66.3619 60.3545 66.3619C60.6386 66.3619 60.9191 66.4092 61.1961 66.5039C61.4731 66.5986 61.7252 66.7525 61.9525 66.9656C62.1798 67.1763 62.3609 67.4556 62.4958 67.8036C62.6308 68.1517 62.6982 68.5802 62.6982 69.0892V69.4443H58.4937V68.7198H61.846C61.846 68.4121 61.7844 68.1375 61.6613 67.896C61.5406 67.6545 61.3677 67.4639 61.1428 67.3242C60.9203 67.1846 60.6575 67.1147 60.3545 67.1147C60.0207 67.1147 59.7319 67.1976 59.488 67.3633C59.2465 67.5267 59.0607 67.7397 58.9305 68.0025C58.8003 68.2653 58.7352 68.547 58.7352 68.8477V69.3306C58.7352 69.7426 58.8062 70.0918 58.9482 70.3782C59.0927 70.6623 59.2927 70.8789 59.5484 71.0281C59.8041 71.1749 60.1012 71.2482 60.4397 71.2482C60.6599 71.2482 60.8588 71.2175 61.0363 71.1559C61.2162 71.092 61.3713 70.9973 61.5015 70.8718C61.6317 70.744 61.7323 70.5854 61.8034 70.396L62.613 70.6232C62.5278 70.8979 62.3846 71.1393 62.1833 71.3477C61.9821 71.5536 61.7335 71.7146 61.4376 71.8306C61.1417 71.9443 60.809 72.0011 60.4397 72.0011Z" fill="#389BEC"/>
<path d="M227.051 71.8875V64.6147H229.593C230.1 64.6147 230.518 64.7023 230.847 64.8775C231.176 65.0503 231.421 65.2835 231.582 65.5771C231.743 65.8683 231.823 66.1914 231.823 66.5465C231.823 66.859 231.768 67.1171 231.656 67.3207C231.548 67.5243 231.403 67.6853 231.223 67.8036C231.046 67.922 230.853 68.0096 230.644 68.0664V68.1375C230.867 68.1517 231.091 68.2298 231.316 68.3718C231.54 68.5139 231.729 68.7175 231.88 68.9826C232.032 69.2478 232.107 69.5721 232.107 69.9556C232.107 70.3202 232.025 70.6481 231.859 70.9393C231.693 71.2305 231.432 71.4613 231.074 71.6318C230.717 71.8022 230.251 71.8875 229.678 71.8875H227.051ZM227.931 71.1062H229.678C230.254 71.1062 230.662 70.9949 230.904 70.7724C231.147 70.5475 231.269 70.2752 231.269 69.9556C231.269 69.7094 231.207 69.4821 231.081 69.2738C230.956 69.0631 230.777 68.895 230.545 68.7696C230.313 68.6417 230.038 68.5778 229.721 68.5778H227.931V71.1062ZM227.931 67.8107H229.565C229.83 67.8107 230.069 67.7587 230.282 67.6545C230.498 67.5503 230.668 67.4035 230.794 67.2142C230.921 67.0248 230.985 66.8022 230.985 66.5465C230.985 66.2269 230.874 65.9559 230.651 65.7333C230.429 65.5084 230.076 65.396 229.593 65.396H227.931V67.8107ZM233.441 71.8875V66.4329H234.279V71.8875H233.441ZM233.867 65.5238C233.704 65.5238 233.563 65.4682 233.444 65.3569C233.328 65.2456 233.27 65.1119 233.27 64.9556C233.27 64.7994 233.328 64.6656 233.444 64.5544C233.563 64.4431 233.704 64.3875 233.867 64.3875C234.03 64.3875 234.17 64.4431 234.286 64.5544C234.404 64.6656 234.464 64.7994 234.464 64.9556C234.464 65.1119 234.404 65.2456 234.286 65.3569C234.17 65.4682 234.03 65.5238 233.867 65.5238ZM236.652 64.6147V71.8875H235.814V64.6147H236.652ZM239.025 64.6147V71.8875H238.187V64.6147H239.025ZM242.847 72.0011C242.321 72.0011 241.868 71.8851 241.487 71.6531C241.108 71.4187 240.816 71.092 240.61 70.673C240.406 70.2516 240.304 69.7615 240.304 69.2028C240.304 68.6441 240.406 68.1517 240.61 67.7255C240.816 67.297 241.102 66.9632 241.469 66.7241C241.838 66.4826 242.269 66.3619 242.762 66.3619C243.046 66.3619 243.326 66.4092 243.603 66.5039C243.88 66.5986 244.132 66.7525 244.36 66.9656C244.587 67.1763 244.768 67.4556 244.903 67.8036C245.038 68.1517 245.105 68.5802 245.105 69.0892V69.4443H240.901V68.7198H244.253C244.253 68.4121 244.192 68.1375 244.069 67.896C243.948 67.6545 243.775 67.4639 243.55 67.3242C243.328 67.1846 243.065 67.1147 242.762 67.1147C242.428 67.1147 242.139 67.1976 241.895 67.3633C241.654 67.5267 241.468 67.7397 241.338 68.0025C241.208 68.2653 241.142 68.547 241.142 68.8477V69.3306C241.142 69.7426 241.213 70.0918 241.355 70.3782C241.5 70.6623 241.7 70.8789 241.956 71.0281C242.211 71.1749 242.508 71.2482 242.847 71.2482C243.067 71.2482 243.266 71.2175 243.444 71.1559C243.623 71.092 243.779 70.9973 243.909 70.8718C244.039 70.744 244.14 70.5854 244.211 70.396L245.02 70.6232C244.935 70.8979 244.792 71.1393 244.591 71.3477C244.389 71.5536 244.141 71.7146 243.845 71.8306C243.549 71.9443 243.216 72.0011 242.847 72.0011ZM248.752 66.4329V67.1431H245.926V66.4329H248.752ZM246.75 65.1261H247.588V70.325C247.588 70.5617 247.622 70.7393 247.691 70.8576C247.762 70.9736 247.852 71.0518 247.961 71.092C248.072 71.1299 248.189 71.1488 248.312 71.1488C248.404 71.1488 248.48 71.1441 248.539 71.1346C248.599 71.1228 248.646 71.1133 248.681 71.1062L248.852 71.859C248.795 71.8803 248.716 71.9017 248.614 71.923C248.512 71.9466 248.383 71.9585 248.227 71.9585C247.99 71.9585 247.758 71.9076 247.531 71.8058C247.306 71.704 247.119 71.5489 246.97 71.3406C246.823 71.1322 246.75 70.8695 246.75 70.5522V65.1261ZM252.241 72.0011C251.716 72.0011 251.263 71.8851 250.881 71.6531C250.503 71.4187 250.21 71.092 250.004 70.673C249.801 70.2516 249.699 69.7615 249.699 69.2028C249.699 68.6441 249.801 68.1517 250.004 67.7255C250.21 67.297 250.497 66.9632 250.864 66.7241C251.233 66.4826 251.664 66.3619 252.156 66.3619C252.44 66.3619 252.721 66.4092 252.998 66.5039C253.275 66.5986 253.527 66.7525 253.754 66.9656C253.982 67.1763 254.163 67.4556 254.298 67.8036C254.433 68.1517 254.5 68.5802 254.5 69.0892V69.4443H250.295V68.7198H253.648C253.648 68.4121 253.586 68.1375 253.463 67.896C253.342 67.6545 253.17 67.4639 252.945 67.3242C252.722 67.1846 252.459 67.1147 252.156 67.1147C251.822 67.1147 251.534 67.1976 251.29 67.3633C251.048 67.5267 250.862 67.7397 250.732 68.0025C250.602 68.2653 250.537 68.547 250.537 68.8477V69.3306C250.537 69.7426 250.608 70.0918 250.75 70.3782C250.894 70.6623 251.094 70.8789 251.35 71.0281C251.606 71.1749 251.903 71.2482 252.241 71.2482C252.462 71.2482 252.661 71.2175 252.838 71.1559C253.018 71.092 253.173 70.9973 253.303 70.8718C253.433 70.744 253.534 70.5854 253.605 70.396L254.415 70.6232C254.33 70.8979 254.186 71.1393 253.985 71.3477C253.784 71.5536 253.535 71.7146 253.239 71.8306C252.943 71.9443 252.611 72.0011 252.241 72.0011ZM255.775 71.8875V66.4329H256.585V67.2568H256.641C256.741 66.9869 256.921 66.7679 257.181 66.5998C257.442 66.4317 257.735 66.3477 258.062 66.3477C258.123 66.3477 258.2 66.3489 258.293 66.3512C258.385 66.3536 258.455 66.3571 258.502 66.3619V67.2142C258.474 67.2071 258.409 67.1964 258.307 67.1822C258.207 67.1656 258.102 67.1573 257.991 67.1573C257.726 67.1573 257.489 67.213 257.281 67.3242C257.075 67.4331 256.911 67.5847 256.79 67.7788C256.672 67.9705 256.613 68.1895 256.613 68.4357V71.8875H255.775ZM261.101 72.0153C260.755 72.0153 260.441 71.9502 260.16 71.82C259.878 71.6874 259.654 71.4968 259.488 71.2482C259.323 70.9973 259.24 70.6943 259.24 70.3392C259.24 70.0267 259.301 69.7733 259.425 69.5792C259.548 69.3827 259.712 69.2288 259.918 69.1176C260.124 69.0063 260.351 68.9234 260.6 68.869C260.851 68.8122 261.103 68.7672 261.356 68.734C261.688 68.6914 261.956 68.6595 262.162 68.6382C262.371 68.6145 262.522 68.5754 262.617 68.521C262.714 68.4665 262.763 68.3718 262.763 68.2369V68.2085C262.763 67.8581 262.667 67.5858 262.475 67.3917C262.286 67.1976 261.998 67.1005 261.612 67.1005C261.212 67.1005 260.898 67.1881 260.671 67.3633C260.444 67.5385 260.284 67.7255 260.192 67.9244L259.396 67.6403C259.538 67.3089 259.728 67.0508 259.964 66.8661C260.203 66.6791 260.464 66.5489 260.746 66.4755C261.03 66.3998 261.309 66.3619 261.584 66.3619C261.759 66.3619 261.96 66.3832 262.187 66.4258C262.417 66.466 262.638 66.5501 262.851 66.6779C263.067 66.8058 263.246 66.9987 263.388 67.2568C263.53 67.5148 263.601 67.8605 263.601 68.2937V71.8875H262.763V71.1488H262.72C262.663 71.2672 262.568 71.3938 262.436 71.5288C262.303 71.6637 262.127 71.7785 261.907 71.8732C261.687 71.9679 261.418 72.0153 261.101 72.0153ZM261.229 71.2625C261.56 71.2625 261.839 71.1973 262.067 71.0671C262.296 70.9369 262.469 70.7688 262.585 70.5629C262.703 70.3569 262.763 70.1403 262.763 69.913V69.146C262.727 69.1886 262.649 69.2276 262.528 69.2632C262.41 69.2963 262.273 69.3259 262.116 69.3519C261.962 69.3756 261.812 69.3969 261.665 69.4159C261.521 69.4324 261.404 69.4466 261.314 69.4585C261.096 69.4869 260.892 69.533 260.703 69.597C260.516 69.6585 260.364 69.752 260.248 69.8775C260.135 70.0006 260.078 70.1687 260.078 70.3818C260.078 70.673 260.186 70.8931 260.401 71.0423C260.619 71.1891 260.895 71.2625 261.229 71.2625Z" fill="#CFD1DE"/>
<path d="M254.362 37.9326L237.205 37.9326C235.531 37.9326 234.175 39.2892 234.175 40.9626V55.1287C234.175 56.8021 235.531 58.1587 237.205 58.1587H253.328C255.002 58.1587 256.358 56.8021 256.358 55.1287V44.9133C256.358 43.2399 255.002 41.8833 253.328 41.8833H236.679C235.563 41.8833 234.659 40.979 234.659 39.8636V39.8636" stroke="#CFD1DE" stroke-width="2.02" stroke-linecap="round" stroke-linejoin="round"/>
<rect width="70" height="2" transform="matrix(1 0 0 -1 14.2666 21.8875)" fill="#55B3FF"/>
</g>
<defs>
<filter id="filter0_d_1501_22262" x="-12.8691" y="0.887451" width="416" height="101" filterUnits="userSpaceOnUse" color-interpolation-filters="sRGB">
<feFlood flood-opacity="0" result="BackgroundImageFix"/>
<feColorMatrix in="SourceAlpha" type="matrix" values="0 0 0 0 0 0 0 0 0 0 0 0 0 0 0 0 0 0 127 0" result="hardAlpha"/>
<feOffset dy="-6"/>
<feGaussianBlur stdDeviation="6.5"/>
<feComposite in2="hardAlpha" operator="out"/>
<feColorMatrix type="matrix" values="0 0 0 0 0 0 0 0 0 0 0 0 0 0 0 0 0 0 0.04 0"/>
<feBlend mode="normal" in2="BackgroundImageFix" result="effect1_dropShadow_1501_22262"/>
<feBlend mode="normal" in="SourceGraphic" in2="effect1_dropShadow_1501_22262" result="shape"/>
</filter>
</defs>
</svg>
