<svg width="390" height="94" viewBox="0 0 390 94" fill="none" xmlns="http://www.w3.org/2000/svg">
<g filter="url(#filter0_d_1714_35845)">
<path d="M0 19H390V94H0V19Z" fill="white"/>
<path d="M335.034 55.7421L335.202 54.6663C335.412 53.3102 336.297 52.1488 337.608 51.744C339.217 51.2472 341.598 50.6855 344.136 50.6855C346.674 50.6855 349.054 51.2472 350.664 51.744C351.975 52.1488 352.859 53.3102 353.07 54.6663L353.238 55.7421" stroke="#CFD1DE" stroke-width="2.02261" stroke-linecap="round" stroke-linejoin="round"/>
<path d="M344.136 46.1365C346.928 46.1365 349.192 43.8726 349.192 41.08C349.192 38.2873 346.928 36.0234 344.136 36.0234C341.343 36.0234 339.079 38.2873 339.079 41.08C339.079 43.8726 341.343 46.1365 344.136 46.1365Z" stroke="#CFD1DE" stroke-width="2.02261" stroke-linecap="round" stroke-linejoin="round"/>
<path d="M331.756 71V63.7273H334.213C334.784 63.7273 335.25 63.8303 335.612 64.0362C335.977 64.2398 336.247 64.5156 336.422 64.8636C336.597 65.2116 336.685 65.5999 336.685 66.0284C336.685 66.4569 336.597 66.8464 336.422 67.1967C336.249 67.5471 335.982 67.8265 335.619 68.0348C335.257 68.2408 334.793 68.3438 334.227 68.3438H332.466V67.5625H334.199C334.589 67.5625 334.903 67.495 335.14 67.3601C335.377 67.2251 335.548 67.0429 335.655 66.8132C335.764 66.5812 335.818 66.3196 335.818 66.0284C335.818 65.7372 335.764 65.4768 335.655 65.2472C335.548 65.0175 335.375 64.8376 335.136 64.7074C334.897 64.5748 334.58 64.5085 334.185 64.5085H332.636V71H331.756ZM340.218 71.1136C339.692 71.1136 339.239 70.9976 338.858 70.7656C338.479 70.5312 338.187 70.2045 337.981 69.7855C337.777 69.3641 337.675 68.8741 337.675 68.3153C337.675 67.7566 337.777 67.2642 337.981 66.8381C338.187 66.4096 338.473 66.0758 338.84 65.8366C339.21 65.5952 339.64 65.4744 340.133 65.4744C340.417 65.4744 340.697 65.5218 340.974 65.6165C341.251 65.7112 341.504 65.8651 341.731 66.0781C341.958 66.2888 342.139 66.5682 342.274 66.9162C342.409 67.2642 342.477 67.6927 342.477 68.2017V68.5568H338.272V67.8324H341.624C341.624 67.5246 341.563 67.25 341.44 67.0085C341.319 66.767 341.146 66.5765 340.921 66.4368C340.699 66.2971 340.436 66.2273 340.133 66.2273C339.799 66.2273 339.51 66.3101 339.266 66.4759C339.025 66.6392 338.839 66.8523 338.709 67.1151C338.579 67.3778 338.513 67.6596 338.513 67.9602V68.4432C338.513 68.8551 338.585 69.2043 338.727 69.4908C338.871 69.7749 339.071 69.9915 339.327 70.1406C339.582 70.2874 339.879 70.3608 340.218 70.3608C340.438 70.3608 340.637 70.33 340.815 70.2685C340.995 70.2045 341.15 70.1098 341.28 69.9844C341.41 69.8565 341.511 69.6979 341.582 69.5085L342.391 69.7358C342.306 70.0104 342.163 70.2519 341.962 70.4602C341.76 70.6662 341.512 70.8272 341.216 70.9432C340.92 71.0568 340.587 71.1136 340.218 71.1136ZM343.751 71V65.5455H344.561V66.3693H344.618C344.717 66.0994 344.897 65.8804 345.158 65.7124C345.418 65.5443 345.712 65.4602 346.038 65.4602C346.1 65.4602 346.177 65.4614 346.269 65.4638C346.362 65.4661 346.431 65.4697 346.479 65.4744V66.3267C346.45 66.3196 346.385 66.3089 346.283 66.2947C346.184 66.2782 346.079 66.2699 345.967 66.2699C345.702 66.2699 345.465 66.3255 345.257 66.4368C345.051 66.5457 344.888 66.6972 344.767 66.8913C344.649 67.0831 344.589 67.3021 344.589 67.5483V71H343.751ZM350.243 65.5455V66.2557H347.303V65.5455H350.243ZM348.183 71V64.7926C348.183 64.4801 348.257 64.2197 348.403 64.0114C348.55 63.803 348.741 63.6468 348.975 63.5426C349.21 63.4384 349.457 63.3864 349.717 63.3864C349.923 63.3864 350.091 63.4029 350.222 63.4361C350.352 63.4692 350.449 63.5 350.513 63.5284L350.271 64.2528C350.229 64.2386 350.17 64.2209 350.094 64.1996C350.02 64.1783 349.923 64.1676 349.803 64.1676C349.526 64.1676 349.326 64.2375 349.202 64.3771C349.082 64.5168 349.021 64.7216 349.021 64.9915V71H348.183ZM351.417 71V65.5455H352.256V71H351.417ZM351.844 64.6364C351.68 64.6364 351.539 64.5807 351.421 64.4695C351.305 64.3582 351.247 64.2244 351.247 64.0682C351.247 63.9119 351.305 63.7782 351.421 63.6669C351.539 63.5556 351.68 63.5 351.844 63.5C352.007 63.5 352.147 63.5556 352.263 63.6669C352.381 63.7782 352.44 63.9119 352.44 64.0682C352.44 64.2244 352.381 64.3582 352.263 64.4695C352.147 64.5807 352.007 64.6364 351.844 64.6364ZM354.629 63.7273V71H353.79V63.7273H354.629Z" fill="#CFD1DE"/>
<path d="M142.079 37.0332H141.068C139.393 37.0332 138.034 38.3915 138.034 40.0671V54.2254C138.034 55.9009 139.393 57.2593 141.068 57.2593H153.204C154.879 57.2593 156.238 55.9009 156.238 54.2254V40.0671C156.238 38.3915 154.879 37.0332 153.204 37.0332H152.192" stroke="#CFD1DE" stroke-width="2.02261"/>
<rect x="142.079" y="35.0117" width="10.113" height="5.05651" rx="2.02261" stroke="#CFD1DE" stroke-width="2.02261"/>
<path d="M124.407 71V63.7273H126.864C127.435 63.7273 127.901 63.8303 128.264 64.0362C128.628 64.2398 128.898 64.5156 129.073 64.8636C129.248 65.2116 129.336 65.5999 129.336 66.0284C129.336 66.4569 129.248 66.8464 129.073 67.1967C128.9 67.5471 128.633 67.8265 128.271 68.0348C127.908 68.2408 127.444 68.3438 126.879 68.3438H125.117V67.5625H126.85C127.241 67.5625 127.555 67.495 127.791 67.3601C128.028 67.2251 128.2 67.0429 128.306 66.8132C128.415 66.5812 128.47 66.3196 128.47 66.0284C128.47 65.7372 128.415 65.4768 128.306 65.2472C128.2 65.0175 128.027 64.8376 127.788 64.7074C127.549 64.5748 127.231 64.5085 126.836 64.5085H125.288V71H124.407ZM130.641 71V65.5455H131.451V66.3693H131.508C131.607 66.0994 131.787 65.8804 132.047 65.7124C132.308 65.5443 132.601 65.4602 132.928 65.4602C132.99 65.4602 133.066 65.4614 133.159 65.4638C133.251 65.4661 133.321 65.4697 133.368 65.4744V66.3267C133.34 66.3196 133.275 66.3089 133.173 66.2947C133.074 66.2782 132.968 66.2699 132.857 66.2699C132.592 66.2699 132.355 66.3255 132.147 66.4368C131.941 66.5457 131.777 66.6972 131.657 66.8913C131.538 67.0831 131.479 67.3021 131.479 67.5483V71H130.641ZM136.412 71.1136C135.919 71.1136 135.487 70.9964 135.116 70.7621C134.746 70.5277 134.457 70.1998 134.249 69.7784C134.043 69.357 133.94 68.8646 133.94 68.3011C133.94 67.733 134.043 67.237 134.249 66.8132C134.457 66.3894 134.746 66.0604 135.116 65.826C135.487 65.5916 135.919 65.4744 136.412 65.4744C136.904 65.4744 137.335 65.5916 137.704 65.826C138.076 66.0604 138.365 66.3894 138.571 66.8132C138.779 67.237 138.883 67.733 138.883 68.3011C138.883 68.8646 138.779 69.357 138.571 69.7784C138.365 70.1998 138.076 70.5277 137.704 70.7621C137.335 70.9964 136.904 71.1136 136.412 71.1136ZM136.412 70.3608C136.786 70.3608 137.093 70.2649 137.335 70.0732C137.576 69.8814 137.755 69.6293 137.871 69.3168C137.987 69.0043 138.045 68.6657 138.045 68.3011C138.045 67.9366 137.987 67.5968 137.871 67.282C137.755 66.9671 137.576 66.7126 137.335 66.5185C137.093 66.3243 136.786 66.2273 136.412 66.2273C136.038 66.2273 135.73 66.3243 135.488 66.5185C135.247 66.7126 135.068 66.9671 134.952 67.282C134.836 67.5968 134.778 67.9366 134.778 68.3011C134.778 68.6657 134.836 69.0043 134.952 69.3168C135.068 69.6293 135.247 69.8814 135.488 70.0732C135.73 70.2649 136.038 70.3608 136.412 70.3608ZM140.507 73.0455C140.365 73.0455 140.238 73.0336 140.127 73.0099C140.016 72.9886 139.939 72.9673 139.896 72.946L140.109 72.2074C140.313 72.2595 140.493 72.2784 140.649 72.2642C140.805 72.25 140.944 72.1802 141.065 72.0547C141.188 71.9316 141.3 71.7315 141.402 71.4545L141.558 71.0284L139.541 65.5455H140.45L141.956 69.892H142.013L143.518 65.5455H144.427L142.112 71.7955C142.008 72.0772 141.879 72.3104 141.725 72.495C141.571 72.6821 141.392 72.8205 141.189 72.9105C140.988 73.0005 140.76 73.0455 140.507 73.0455ZM147.625 71.1136C147.1 71.1136 146.646 70.9976 146.265 70.7656C145.886 70.5312 145.594 70.2045 145.388 69.7855C145.184 69.3641 145.083 68.8741 145.083 68.3153C145.083 67.7566 145.184 67.2642 145.388 66.8381C145.594 66.4096 145.88 66.0758 146.247 65.8366C146.617 65.5952 147.048 65.4744 147.54 65.4744C147.824 65.4744 148.105 65.5218 148.382 65.6165C148.659 65.7112 148.911 65.8651 149.138 66.0781C149.365 66.2888 149.546 66.5682 149.681 66.9162C149.816 67.2642 149.884 67.6927 149.884 68.2017V68.5568H145.679V67.8324H149.032C149.032 67.5246 148.97 67.25 148.847 67.0085C148.726 66.767 148.553 66.5765 148.328 66.4368C148.106 66.2971 147.843 66.2273 147.54 66.2273C147.206 66.2273 146.917 66.3101 146.674 66.4759C146.432 66.6392 146.246 66.8523 146.116 67.1151C145.986 67.3778 145.921 67.6596 145.921 67.9602V68.4432C145.921 68.8551 145.992 69.2043 146.134 69.4908C146.278 69.7749 146.478 69.9915 146.734 70.1406C146.99 70.2874 147.287 70.3608 147.625 70.3608C147.845 70.3608 148.044 70.33 148.222 70.2685C148.402 70.2045 148.557 70.1098 148.687 69.9844C148.817 69.8565 148.918 69.6979 148.989 69.5085L149.799 69.7358C149.713 70.0104 149.57 70.2519 149.369 70.4602C149.168 70.6662 148.919 70.8272 148.623 70.9432C148.327 71.0568 147.995 71.1136 147.625 71.1136ZM153.375 71.1136C152.863 71.1136 152.423 70.9929 152.054 70.7514C151.684 70.5099 151.4 70.1773 151.201 69.7536C151.002 69.3298 150.903 68.8456 150.903 68.3011C150.903 67.7472 151.005 67.2583 151.208 66.8345C151.414 66.4084 151.701 66.0758 152.068 65.8366C152.437 65.5952 152.868 65.4744 153.36 65.4744C153.744 65.4744 154.09 65.5455 154.397 65.6875C154.705 65.8295 154.957 66.0284 155.154 66.2841C155.35 66.5398 155.472 66.8381 155.519 67.179H154.681C154.617 66.9304 154.475 66.7102 154.255 66.5185C154.037 66.3243 153.744 66.2273 153.375 66.2273C153.048 66.2273 152.761 66.3125 152.515 66.483C152.271 66.651 152.081 66.889 151.943 67.1967C151.809 67.5021 151.741 67.8608 151.741 68.2727C151.741 68.6941 151.807 69.0611 151.94 69.3736C152.075 69.6861 152.264 69.9287 152.508 70.1016C152.754 70.2744 153.043 70.3608 153.375 70.3608C153.592 70.3608 153.79 70.3229 153.968 70.2472C154.145 70.1714 154.295 70.0625 154.419 69.9205C154.542 69.7784 154.629 69.608 154.681 69.4091H155.519C155.472 69.7311 155.355 70.0211 155.168 70.2791C154.983 70.5348 154.738 70.7384 154.433 70.8899C154.13 71.0391 153.777 71.1136 153.375 71.1136ZM159.117 65.5455V66.2557H156.29V65.5455H159.117ZM157.114 64.2386H157.952V69.4375C157.952 69.6742 157.986 69.8518 158.055 69.9702C158.126 70.0862 158.216 70.1643 158.325 70.2045C158.436 70.2424 158.553 70.2614 158.676 70.2614C158.769 70.2614 158.844 70.2566 158.904 70.2472C158.963 70.2353 159.01 70.2259 159.046 70.2188L159.216 70.9716C159.159 70.9929 159.08 71.0142 158.978 71.0355C158.876 71.0592 158.747 71.071 158.591 71.071C158.354 71.071 158.122 71.0201 157.895 70.9183C157.67 70.8165 157.483 70.6615 157.334 70.4531C157.187 70.2448 157.114 69.982 157.114 69.6648V64.2386ZM162.535 71.1136C162.042 71.1136 161.61 70.9964 161.239 70.7621C160.869 70.5277 160.58 70.1998 160.372 69.7784C160.166 69.357 160.063 68.8646 160.063 68.3011C160.063 67.733 160.166 67.237 160.372 66.8132C160.58 66.3894 160.869 66.0604 161.239 65.826C161.61 65.5916 162.042 65.4744 162.535 65.4744C163.027 65.4744 163.458 65.5916 163.827 65.826C164.199 66.0604 164.488 66.3894 164.694 66.8132C164.902 67.237 165.006 67.733 165.006 68.3011C165.006 68.8646 164.902 69.357 164.694 69.7784C164.488 70.1998 164.199 70.5277 163.827 70.7621C163.458 70.9964 163.027 71.1136 162.535 71.1136ZM162.535 70.3608C162.909 70.3608 163.217 70.2649 163.458 70.0732C163.699 69.8814 163.878 69.6293 163.994 69.3168C164.11 69.0043 164.168 68.6657 164.168 68.3011C164.168 67.9366 164.11 67.5968 163.994 67.282C163.878 66.9671 163.699 66.7126 163.458 66.5185C163.217 66.3243 162.909 66.2273 162.535 66.2273C162.161 66.2273 161.853 66.3243 161.611 66.5185C161.37 66.7126 161.191 66.9671 161.075 67.282C160.959 67.5968 160.901 67.9366 160.901 68.3011C160.901 68.6657 160.959 69.0043 161.075 69.3168C161.191 69.6293 161.37 69.8814 161.611 70.0732C161.853 70.2649 162.161 70.3608 162.535 70.3608ZM170.149 66.767L169.396 66.9801C169.349 66.8546 169.279 66.7327 169.187 66.6143C169.097 66.4936 168.974 66.3942 168.818 66.3161C168.661 66.2379 168.461 66.1989 168.217 66.1989C167.884 66.1989 167.605 66.2758 167.383 66.4297C167.163 66.5812 167.053 66.7741 167.053 67.0085C167.053 67.2169 167.128 67.3814 167.28 67.5021C167.431 67.6229 167.668 67.7235 167.99 67.804L168.8 68.0028C169.287 68.1212 169.651 68.3023 169.89 68.5462C170.129 68.7876 170.249 69.099 170.249 69.4801C170.249 69.7926 170.159 70.072 169.979 70.3182C169.801 70.5644 169.553 70.7585 169.233 70.9006C168.913 71.0426 168.542 71.1136 168.118 71.1136C167.562 71.1136 167.101 70.9929 166.737 70.7514C166.372 70.5099 166.141 70.1572 166.044 69.6932L166.84 69.4943C166.915 69.7879 167.059 70.008 167.269 70.1548C167.482 70.3016 167.761 70.375 168.104 70.375C168.494 70.375 168.805 70.2921 169.034 70.1264C169.266 69.9583 169.382 69.7571 169.382 69.5227C169.382 69.3333 169.316 69.1747 169.183 69.0469C169.051 68.9167 168.847 68.8196 168.573 68.7557L167.663 68.5426C167.164 68.4242 166.797 68.2408 166.563 67.9922C166.331 67.7412 166.215 67.4276 166.215 67.0511C166.215 66.7434 166.301 66.4711 166.474 66.2344C166.649 65.9976 166.887 65.8118 167.188 65.6768C167.491 65.5419 167.834 65.4744 168.217 65.4744C168.757 65.4744 169.181 65.5928 169.489 65.8295C169.799 66.0663 170.019 66.3788 170.149 66.767Z" fill="#CFD1DE"/>
<path d="M39.0225 43.9922C39.0225 43.0279 39.4809 42.121 40.2574 41.5492L49.1355 35.0117L58.0136 41.5492C58.7901 42.121 59.2485 43.0279 59.2485 43.9922V54.7321C59.2485 56.1284 58.1166 57.2604 56.7203 57.2604H53.1807C52.6222 57.2604 52.1694 56.8076 52.1694 56.2491V50.1813C52.1694 49.902 51.943 49.6756 51.6637 49.6756H46.6072C46.328 49.6756 46.1016 49.902 46.1016 50.1813V56.2491C46.1016 56.8076 45.6488 57.2604 45.0903 57.2604H41.5507C40.1544 57.2604 39.0225 56.1284 39.0225 54.7321V43.9922Z" stroke="#CFD1DE" stroke-width="2.02261" stroke-linecap="round" stroke-linejoin="round"/>
<path d="M36.075 71V63.7273H36.9557V66.9659H40.8335V63.7273H41.7142V71H40.8335V67.7472H36.9557V71H36.075ZM45.5796 71.1136C45.0872 71.1136 44.6552 70.9964 44.2835 70.7621C43.9142 70.5277 43.6253 70.1998 43.417 69.7784C43.211 69.357 43.108 68.8646 43.108 68.3011C43.108 67.733 43.211 67.237 43.417 66.8132C43.6253 66.3894 43.9142 66.0604 44.2835 65.826C44.6552 65.5916 45.0872 65.4744 45.5796 65.4744C46.0721 65.4744 46.5029 65.5916 46.8722 65.826C47.2439 66.0604 47.5328 66.3894 47.7387 66.8132C47.9471 67.237 48.0512 67.733 48.0512 68.3011C48.0512 68.8646 47.9471 69.357 47.7387 69.7784C47.5328 70.1998 47.2439 70.5277 46.8722 70.7621C46.5029 70.9964 46.0721 71.1136 45.5796 71.1136ZM45.5796 70.3608C45.9537 70.3608 46.2615 70.2649 46.5029 70.0732C46.7444 69.8814 46.9231 69.6293 47.0392 69.3168C47.1552 69.0043 47.2132 68.6657 47.2132 68.3011C47.2132 67.9366 47.1552 67.5968 47.0392 67.282C46.9231 66.9671 46.7444 66.7126 46.5029 66.5185C46.2615 66.3243 45.9537 66.2273 45.5796 66.2273C45.2056 66.2273 44.8978 66.3243 44.6563 66.5185C44.4149 66.7126 44.2361 66.9671 44.1201 67.282C44.0041 67.5968 43.9461 67.9366 43.9461 68.3011C43.9461 68.6657 44.0041 69.0043 44.1201 69.3168C44.2361 69.6293 44.4149 69.8814 44.6563 70.0732C44.8978 70.2649 45.2056 70.3608 45.5796 70.3608ZM49.3305 71V65.5455H50.1402V66.3977H50.2112C50.3248 66.1065 50.5083 65.8804 50.7616 65.7195C51.0149 65.5561 51.3192 65.4744 51.6743 65.4744C52.0341 65.4744 52.3336 65.5561 52.5727 65.7195C52.8142 65.8804 53.0024 66.1065 53.1373 66.3977H53.1942C53.3338 66.116 53.5434 65.8923 53.8227 65.7266C54.1021 65.5585 54.4371 65.4744 54.8277 65.4744C55.3154 65.4744 55.7143 65.6271 56.0244 65.9325C56.3345 66.2356 56.4896 66.7079 56.4896 67.3494V71H55.6515V67.3494C55.6515 66.947 55.5415 66.6593 55.3213 66.4865C55.1011 66.3137 54.8419 66.2273 54.5436 66.2273C54.1601 66.2273 53.863 66.3433 53.6523 66.5753C53.4416 66.8049 53.3362 67.0961 53.3362 67.4489V71H52.4839V67.2642C52.4839 66.9541 52.3833 66.7043 52.1821 66.5149C51.9809 66.3232 51.7216 66.2273 51.4044 66.2273C51.1866 66.2273 50.983 66.2853 50.7936 66.4013C50.6066 66.5173 50.455 66.6783 50.339 66.8842C50.2254 67.0878 50.1686 67.3234 50.1686 67.5909V71H49.3305ZM60.3089 71.1136C59.7833 71.1136 59.3299 70.9976 58.9488 70.7656C58.57 70.5312 58.2776 70.2045 58.0716 69.7855C57.868 69.3641 57.7662 68.8741 57.7662 68.3153C57.7662 67.7566 57.868 67.2642 58.0716 66.8381C58.2776 66.4096 58.5641 66.0758 58.931 65.8366C59.3003 65.5952 59.7312 65.4744 60.2236 65.4744C60.5077 65.4744 60.7883 65.5218 61.0653 65.6165C61.3422 65.7112 61.5944 65.8651 61.8216 66.0781C62.0489 66.2888 62.23 66.5682 62.365 66.9162C62.4999 67.2642 62.5674 67.6927 62.5674 68.2017V68.5568H58.3628V67.8324H61.7151C61.7151 67.5246 61.6536 67.25 61.5305 67.0085C61.4097 66.767 61.2369 66.5765 61.012 66.4368C60.7894 66.2971 60.5267 66.2273 60.2236 66.2273C59.8898 66.2273 59.601 66.3101 59.3572 66.4759C59.1157 66.6392 58.9298 66.8523 58.7996 67.1151C58.6694 67.3778 58.6043 67.6596 58.6043 67.9602V68.4432C58.6043 68.8551 58.6753 69.2043 58.8174 69.4908C58.9618 69.7749 59.1618 69.9915 59.4175 70.1406C59.6732 70.2874 59.9703 70.3608 60.3089 70.3608C60.529 70.3608 60.7279 70.33 60.9055 70.2685C61.0854 70.2045 61.2404 70.1098 61.3706 69.9844C61.5009 69.8565 61.6015 69.6979 61.6725 69.5085L62.4822 69.7358C62.3969 70.0104 62.2537 70.2519 62.0525 70.4602C61.8512 70.6662 61.6027 70.8272 61.3067 70.9432C61.0108 71.0568 60.6782 71.1136 60.3089 71.1136Z" fill="#CFD1DE"/>
<path d="M226.92 71V63.7273H229.462C229.969 63.7273 230.387 63.8149 230.716 63.9901C231.045 64.1629 231.29 64.3961 231.451 64.6896C231.612 64.9808 231.692 65.304 231.692 65.6591C231.692 65.9716 231.637 66.2296 231.526 66.4332C231.417 66.6368 231.272 66.7978 231.092 66.9162C230.915 67.0346 230.722 67.1222 230.513 67.179V67.25C230.736 67.2642 230.96 67.3423 231.185 67.4844C231.41 67.6264 231.598 67.83 231.749 68.0952C231.901 68.3603 231.977 68.6847 231.977 69.0682C231.977 69.4328 231.894 69.7607 231.728 70.0518C231.562 70.343 231.301 70.5739 230.943 70.7443C230.586 70.9148 230.121 71 229.548 71H226.92ZM227.8 70.2188H229.548C230.123 70.2188 230.531 70.1075 230.773 69.8849C231.017 69.66 231.138 69.3878 231.138 69.0682C231.138 68.822 231.076 68.5947 230.95 68.3864C230.825 68.1757 230.646 68.0076 230.414 67.8821C230.182 67.7543 229.907 67.6903 229.59 67.6903H227.8V70.2188ZM227.8 66.9233H229.434C229.699 66.9233 229.938 66.8712 230.151 66.767C230.367 66.6629 230.537 66.5161 230.663 66.3267C230.79 66.1373 230.854 65.9148 230.854 65.6591C230.854 65.3395 230.743 65.0684 230.521 64.8459C230.298 64.621 229.945 64.5085 229.462 64.5085H227.8V66.9233ZM233.31 71V65.5455H234.148V71H233.31ZM233.736 64.6364C233.573 64.6364 233.432 64.5807 233.314 64.4695C233.198 64.3582 233.14 64.2244 233.14 64.0682C233.14 63.9119 233.198 63.7782 233.314 63.6669C233.432 63.5556 233.573 63.5 233.736 63.5C233.9 63.5 234.039 63.5556 234.155 63.6669C234.274 63.7782 234.333 63.9119 234.333 64.0682C234.333 64.2244 234.274 64.3582 234.155 64.4695C234.039 64.5807 233.9 64.6364 233.736 64.6364ZM236.521 63.7273V71H235.683V63.7273H236.521ZM238.894 63.7273V71H238.056V63.7273H238.894ZM242.716 71.1136C242.191 71.1136 241.737 70.9976 241.356 70.7656C240.977 70.5312 240.685 70.2045 240.479 69.7855C240.275 69.3641 240.173 68.8741 240.173 68.3153C240.173 67.7566 240.275 67.2642 240.479 66.8381C240.685 66.4096 240.971 66.0758 241.338 65.8366C241.708 65.5952 242.138 65.4744 242.631 65.4744C242.915 65.4744 243.195 65.5218 243.472 65.6165C243.749 65.7112 244.002 65.8651 244.229 66.0781C244.456 66.2888 244.637 66.5682 244.772 66.9162C244.907 67.2642 244.975 67.6927 244.975 68.2017V68.5568H240.77V67.8324H244.122C244.122 67.5246 244.061 67.25 243.938 67.0085C243.817 66.767 243.644 66.5765 243.419 66.4368C243.197 66.2971 242.934 66.2273 242.631 66.2273C242.297 66.2273 242.008 66.3101 241.764 66.4759C241.523 66.6392 241.337 66.8523 241.207 67.1151C241.077 67.3778 241.012 67.6596 241.012 67.9602V68.4432C241.012 68.8551 241.083 69.2043 241.225 69.4908C241.369 69.7749 241.569 69.9915 241.825 70.1406C242.08 70.2874 242.378 70.3608 242.716 70.3608C242.936 70.3608 243.135 70.33 243.313 70.2685C243.493 70.2045 243.648 70.1098 243.778 69.9844C243.908 69.8565 244.009 69.6979 244.08 69.5085L244.889 69.7358C244.804 70.0104 244.661 70.2519 244.46 70.4602C244.258 70.6662 244.01 70.8272 243.714 70.9432C243.418 71.0568 243.085 71.1136 242.716 71.1136ZM248.622 65.5455V66.2557H245.795V65.5455H248.622ZM246.619 64.2386H247.457V69.4375C247.457 69.6742 247.491 69.8518 247.56 69.9702C247.631 70.0862 247.721 70.1643 247.83 70.2045C247.941 70.2424 248.058 70.2614 248.181 70.2614C248.274 70.2614 248.349 70.2566 248.409 70.2472C248.468 70.2353 248.515 70.2259 248.551 70.2188L248.721 70.9716C248.664 70.9929 248.585 71.0142 248.483 71.0355C248.381 71.0592 248.252 71.071 248.096 71.071C247.859 71.071 247.627 71.0201 247.4 70.9183C247.175 70.8165 246.988 70.6615 246.839 70.4531C246.692 70.2448 246.619 69.982 246.619 69.6648V64.2386ZM252.111 71.1136C251.585 71.1136 251.132 70.9976 250.751 70.7656C250.372 70.5312 250.079 70.2045 249.873 69.7855C249.67 69.3641 249.568 68.8741 249.568 68.3153C249.568 67.7566 249.67 67.2642 249.873 66.8381C250.079 66.4096 250.366 66.0758 250.733 65.8366C251.102 65.5952 251.533 65.4744 252.025 65.4744C252.309 65.4744 252.59 65.5218 252.867 65.6165C253.144 65.7112 253.396 65.8651 253.623 66.0781C253.851 66.2888 254.032 66.5682 254.167 66.9162C254.302 67.2642 254.369 67.6927 254.369 68.2017V68.5568H250.165V67.8324H253.517C253.517 67.5246 253.455 67.25 253.332 67.0085C253.211 66.767 253.039 66.5765 252.814 66.4368C252.591 66.2971 252.328 66.2273 252.025 66.2273C251.692 66.2273 251.403 66.3101 251.159 66.4759C250.917 66.6392 250.732 66.8523 250.601 67.1151C250.471 67.3778 250.406 67.6596 250.406 67.9602V68.4432C250.406 68.8551 250.477 69.2043 250.619 69.4908C250.764 69.7749 250.964 69.9915 251.219 70.1406C251.475 70.2874 251.772 70.3608 252.111 70.3608C252.331 70.3608 252.53 70.33 252.707 70.2685C252.887 70.2045 253.042 70.1098 253.172 69.9844C253.303 69.8565 253.403 69.6979 253.474 69.5085L254.284 69.7358C254.199 70.0104 254.055 70.2519 253.854 70.4602C253.653 70.6662 253.404 70.8272 253.108 70.9432C252.813 71.0568 252.48 71.1136 252.111 71.1136ZM255.644 71V65.5455H256.454V66.3693H256.51C256.61 66.0994 256.79 65.8804 257.05 65.7124C257.311 65.5443 257.604 65.4602 257.931 65.4602C257.992 65.4602 258.069 65.4614 258.162 65.4638C258.254 65.4661 258.324 65.4697 258.371 65.4744V66.3267C258.343 66.3196 258.278 66.3089 258.176 66.2947C258.077 66.2782 257.971 66.2699 257.86 66.2699C257.595 66.2699 257.358 66.3255 257.15 66.4368C256.944 66.5457 256.78 66.6972 256.66 66.8913C256.541 67.0831 256.482 67.3021 256.482 67.5483V71H255.644ZM260.97 71.1278C260.624 71.1278 260.31 71.0627 260.029 70.9325C259.747 70.8 259.523 70.6094 259.358 70.3608C259.192 70.1098 259.109 69.8068 259.109 69.4517C259.109 69.1392 259.171 68.8859 259.294 68.6918C259.417 68.4953 259.581 68.3414 259.787 68.2301C259.993 68.1188 260.221 68.036 260.469 67.9815C260.72 67.9247 260.972 67.8797 261.225 67.8466C261.557 67.804 261.826 67.772 262.032 67.7507C262.24 67.727 262.391 67.688 262.486 67.6335C262.583 67.5791 262.632 67.4844 262.632 67.3494V67.321C262.632 66.9706 262.536 66.6984 262.344 66.5043C262.155 66.3101 261.867 66.2131 261.481 66.2131C261.081 66.2131 260.767 66.3007 260.54 66.4759C260.313 66.651 260.153 66.8381 260.061 67.0369L259.265 66.7528C259.407 66.4214 259.597 66.1634 259.833 65.9787C260.073 65.7917 260.333 65.6615 260.615 65.5881C260.899 65.5123 261.178 65.4744 261.453 65.4744C261.628 65.4744 261.829 65.4957 262.056 65.5384C262.286 65.5786 262.507 65.6626 262.721 65.7905C262.936 65.9183 263.115 66.1113 263.257 66.3693C263.399 66.6274 263.47 66.973 263.47 67.4062V71H262.632V70.2614H262.589C262.532 70.3797 262.438 70.5064 262.305 70.6413C262.172 70.7763 261.996 70.8911 261.776 70.9858C261.556 71.0805 261.287 71.1278 260.97 71.1278ZM261.098 70.375C261.429 70.375 261.708 70.3099 261.936 70.1797C262.165 70.0495 262.338 69.8814 262.454 69.6754C262.573 69.4695 262.632 69.2528 262.632 69.0256V68.2585C262.596 68.3011 262.518 68.3402 262.397 68.3757C262.279 68.4089 262.142 68.4384 261.985 68.4645C261.832 68.4882 261.681 68.5095 261.534 68.5284C261.39 68.545 261.273 68.5592 261.183 68.571C260.965 68.5994 260.761 68.6456 260.572 68.7095C260.385 68.7711 260.234 68.8646 260.118 68.9901C260.004 69.1132 259.947 69.2812 259.947 69.4943C259.947 69.7855 260.055 70.0057 260.27 70.1548C260.488 70.3016 260.764 70.375 261.098 70.375Z" fill="#CFD1DE"/>
<path d="M254.231 37.0449L237.074 37.0449C235.401 37.0449 234.044 38.4015 234.044 40.0749V54.241C234.044 55.9144 235.401 57.271 237.074 57.271H253.197C254.871 57.271 256.227 55.9144 256.227 54.241V44.0256C256.227 42.3522 254.871 40.9956 253.197 40.9956H236.548C235.433 40.9956 234.528 40.0913 234.528 38.9759V38.9759" stroke="#CFD1DE" stroke-width="2.02" stroke-linecap="round" stroke-linejoin="round"/>
</g>
<defs>
<filter id="filter0_d_1714_35845" x="-13" y="0" width="416" height="101" filterUnits="userSpaceOnUse" color-interpolation-filters="sRGB">
<feFlood flood-opacity="0" result="BackgroundImageFix"/>
<feColorMatrix in="SourceAlpha" type="matrix" values="0 0 0 0 0 0 0 0 0 0 0 0 0 0 0 0 0 0 127 0" result="hardAlpha"/>
<feOffset dy="-6"/>
<feGaussianBlur stdDeviation="6.5"/>
<feComposite in2="hardAlpha" operator="out"/>
<feColorMatrix type="matrix" values="0 0 0 0 0 0 0 0 0 0 0 0 0 0 0 0 0 0 0.04 0"/>
<feBlend mode="normal" in2="BackgroundImageFix" result="effect1_dropShadow_1714_35845"/>
<feBlend mode="normal" in="SourceGraphic" in2="effect1_dropShadow_1714_35845" result="shape"/>
</filter>
</defs>
</svg>
