<svg width="390" height="94" viewBox="0 0 390 94" fill="none" xmlns="http://www.w3.org/2000/svg">
<g filter="url(#filter0_d_1464_16759)">
<path d="M-1 19H389V94H-1V19Z" fill="white"/>
<path d="M334.034 55.743L334.205 54.6429C334.413 53.3021 335.288 52.1536 336.584 51.7521C338.194 51.2535 340.585 50.6865 343.135 50.6865C345.685 50.6865 348.077 51.2535 349.686 51.7521C350.983 52.1536 351.857 53.3021 352.066 54.6429L352.237 55.743" stroke="#CFD1DE" stroke-width="2.02261" stroke-linecap="round" stroke-linejoin="round"/>
<path d="M343.136 46.1356C345.928 46.1356 348.192 43.8717 348.192 41.0791C348.192 38.2865 345.928 36.0226 343.136 36.0226C340.343 36.0226 338.079 38.2865 338.079 41.0791C338.079 43.8717 340.343 46.1356 343.136 46.1356Z" stroke="#CFD1DE" stroke-width="2.02261" stroke-linecap="round" stroke-linejoin="round"/>
<path d="M330.756 71V63.7273H333.213C333.784 63.7273 334.25 63.8303 334.612 64.0362C334.977 64.2398 335.247 64.5156 335.422 64.8636C335.597 65.2116 335.685 65.5999 335.685 66.0284C335.685 66.4569 335.597 66.8464 335.422 67.1967C335.249 67.5471 334.982 67.8265 334.619 68.0348C334.257 68.2408 333.793 68.3438 333.227 68.3438H331.466V67.5625H333.199C333.589 67.5625 333.903 67.495 334.14 67.3601C334.377 67.2251 334.548 67.0429 334.655 66.8132C334.764 66.5812 334.818 66.3196 334.818 66.0284C334.818 65.7372 334.764 65.4768 334.655 65.2472C334.548 65.0175 334.375 64.8376 334.136 64.7074C333.897 64.5748 333.58 64.5085 333.185 64.5085H331.636V71H330.756ZM339.218 71.1136C338.692 71.1136 338.239 70.9976 337.858 70.7656C337.479 70.5312 337.187 70.2045 336.981 69.7855C336.777 69.3641 336.675 68.8741 336.675 68.3153C336.675 67.7566 336.777 67.2642 336.981 66.8381C337.187 66.4096 337.473 66.0758 337.84 65.8366C338.21 65.5952 338.64 65.4744 339.133 65.4744C339.417 65.4744 339.697 65.5218 339.974 65.6165C340.251 65.7112 340.504 65.8651 340.731 66.0781C340.958 66.2888 341.139 66.5682 341.274 66.9162C341.409 67.2642 341.477 67.6927 341.477 68.2017V68.5568H337.272V67.8324H340.624C340.624 67.5246 340.563 67.25 340.44 67.0085C340.319 66.767 340.146 66.5765 339.921 66.4368C339.699 66.2971 339.436 66.2273 339.133 66.2273C338.799 66.2273 338.51 66.3101 338.266 66.4759C338.025 66.6392 337.839 66.8523 337.709 67.1151C337.579 67.3778 337.513 67.6596 337.513 67.9602V68.4432C337.513 68.8551 337.585 69.2043 337.727 69.4908C337.871 69.7749 338.071 69.9915 338.327 70.1406C338.582 70.2874 338.879 70.3608 339.218 70.3608C339.438 70.3608 339.637 70.33 339.815 70.2685C339.995 70.2045 340.15 70.1098 340.28 69.9844C340.41 69.8565 340.511 69.6979 340.582 69.5085L341.391 69.7358C341.306 70.0104 341.163 70.2519 340.962 70.4602C340.76 70.6662 340.512 70.8272 340.216 70.9432C339.92 71.0568 339.587 71.1136 339.218 71.1136ZM342.751 71V65.5455H343.561V66.3693H343.618C343.717 66.0994 343.897 65.8804 344.158 65.7124C344.418 65.5443 344.712 65.4602 345.038 65.4602C345.1 65.4602 345.177 65.4614 345.269 65.4638C345.362 65.4661 345.431 65.4697 345.479 65.4744V66.3267C345.45 66.3196 345.385 66.3089 345.283 66.2947C345.184 66.2782 345.079 66.2699 344.967 66.2699C344.702 66.2699 344.465 66.3255 344.257 66.4368C344.051 66.5457 343.888 66.6972 343.767 66.8913C343.649 67.0831 343.589 67.3021 343.589 67.5483V71H342.751ZM349.243 65.5455V66.2557H346.303V65.5455H349.243ZM347.183 71V64.7926C347.183 64.4801 347.257 64.2197 347.403 64.0114C347.55 63.803 347.741 63.6468 347.975 63.5426C348.21 63.4384 348.457 63.3864 348.717 63.3864C348.923 63.3864 349.091 63.4029 349.222 63.4361C349.352 63.4692 349.449 63.5 349.513 63.5284L349.271 64.2528C349.229 64.2386 349.17 64.2209 349.094 64.1996C349.02 64.1783 348.923 64.1676 348.803 64.1676C348.526 64.1676 348.326 64.2375 348.202 64.3771C348.082 64.5168 348.021 64.7216 348.021 64.9915V71H347.183ZM350.417 71V65.5455H351.256V71H350.417ZM350.844 64.6364C350.68 64.6364 350.539 64.5807 350.421 64.4695C350.305 64.3582 350.247 64.2244 350.247 64.0682C350.247 63.9119 350.305 63.7782 350.421 63.6669C350.539 63.5556 350.68 63.5 350.844 63.5C351.007 63.5 351.147 63.5556 351.263 63.6669C351.381 63.7782 351.44 63.9119 351.44 64.0682C351.44 64.2244 351.381 64.3582 351.263 64.4695C351.147 64.5807 351.007 64.6364 350.844 64.6364ZM353.629 63.7273V71H352.79V63.7273H353.629Z" fill="#CFD1DE"/>
<path d="M141.079 37.0339H140.068C138.392 37.0339 137.034 38.3923 137.034 40.0678V54.2261C137.034 55.9017 138.392 57.26 140.068 57.26H152.203C153.879 57.26 155.237 55.9017 155.237 54.2261V40.0678C155.237 38.3923 153.879 37.0339 152.203 37.0339H151.192" stroke="#CFD1DE" stroke-width="2.02261"/>
<rect x="141.079" y="35.0113" width="10.113" height="5.05651" rx="2.02261" stroke="#CFD1DE" stroke-width="2.02261"/>
<path d="M123.407 71V63.7273H125.864C126.435 63.7273 126.901 63.8303 127.264 64.0362C127.628 64.2398 127.898 64.5156 128.073 64.8636C128.248 65.2116 128.336 65.5999 128.336 66.0284C128.336 66.4569 128.248 66.8464 128.073 67.1967C127.9 67.5471 127.633 67.8265 127.271 68.0348C126.908 68.2408 126.444 68.3438 125.879 68.3438H124.117V67.5625H125.85C126.241 67.5625 126.555 67.495 126.791 67.3601C127.028 67.2251 127.2 67.0429 127.306 66.8132C127.415 66.5812 127.47 66.3196 127.47 66.0284C127.47 65.7372 127.415 65.4768 127.306 65.2472C127.2 65.0175 127.027 64.8376 126.788 64.7074C126.549 64.5748 126.231 64.5085 125.836 64.5085H124.288V71H123.407ZM129.641 71V65.5455H130.451V66.3693H130.508C130.607 66.0994 130.787 65.8804 131.047 65.7124C131.308 65.5443 131.601 65.4602 131.928 65.4602C131.99 65.4602 132.066 65.4614 132.159 65.4638C132.251 65.4661 132.321 65.4697 132.368 65.4744V66.3267C132.34 66.3196 132.275 66.3089 132.173 66.2947C132.074 66.2782 131.968 66.2699 131.857 66.2699C131.592 66.2699 131.355 66.3255 131.147 66.4368C130.941 66.5457 130.777 66.6972 130.657 66.8913C130.538 67.0831 130.479 67.3021 130.479 67.5483V71H129.641ZM135.412 71.1136C134.919 71.1136 134.487 70.9964 134.116 70.7621C133.746 70.5277 133.457 70.1998 133.249 69.7784C133.043 69.357 132.94 68.8646 132.94 68.3011C132.94 67.733 133.043 67.237 133.249 66.8132C133.457 66.3894 133.746 66.0604 134.116 65.826C134.487 65.5916 134.919 65.4744 135.412 65.4744C135.904 65.4744 136.335 65.5916 136.704 65.826C137.076 66.0604 137.365 66.3894 137.571 66.8132C137.779 67.237 137.883 67.733 137.883 68.3011C137.883 68.8646 137.779 69.357 137.571 69.7784C137.365 70.1998 137.076 70.5277 136.704 70.7621C136.335 70.9964 135.904 71.1136 135.412 71.1136ZM135.412 70.3608C135.786 70.3608 136.093 70.2649 136.335 70.0732C136.576 69.8814 136.755 69.6293 136.871 69.3168C136.987 69.0043 137.045 68.6657 137.045 68.3011C137.045 67.9366 136.987 67.5968 136.871 67.282C136.755 66.9671 136.576 66.7126 136.335 66.5185C136.093 66.3243 135.786 66.2273 135.412 66.2273C135.038 66.2273 134.73 66.3243 134.488 66.5185C134.247 66.7126 134.068 66.9671 133.952 67.282C133.836 67.5968 133.778 67.9366 133.778 68.3011C133.778 68.6657 133.836 69.0043 133.952 69.3168C134.068 69.6293 134.247 69.8814 134.488 70.0732C134.73 70.2649 135.038 70.3608 135.412 70.3608ZM139.507 73.0455C139.365 73.0455 139.238 73.0336 139.127 73.0099C139.016 72.9886 138.939 72.9673 138.896 72.946L139.109 72.2074C139.313 72.2595 139.493 72.2784 139.649 72.2642C139.805 72.25 139.944 72.1802 140.065 72.0547C140.188 71.9316 140.3 71.7315 140.402 71.4545L140.558 71.0284L138.541 65.5455H139.45L140.956 69.892H141.013L142.518 65.5455H143.427L141.112 71.7955C141.008 72.0772 140.879 72.3104 140.725 72.495C140.571 72.6821 140.392 72.8205 140.189 72.9105C139.988 73.0005 139.76 73.0455 139.507 73.0455ZM146.625 71.1136C146.1 71.1136 145.646 70.9976 145.265 70.7656C144.886 70.5312 144.594 70.2045 144.388 69.7855C144.184 69.3641 144.083 68.8741 144.083 68.3153C144.083 67.7566 144.184 67.2642 144.388 66.8381C144.594 66.4096 144.88 66.0758 145.247 65.8366C145.617 65.5952 146.048 65.4744 146.54 65.4744C146.824 65.4744 147.105 65.5218 147.382 65.6165C147.659 65.7112 147.911 65.8651 148.138 66.0781C148.365 66.2888 148.546 66.5682 148.681 66.9162C148.816 67.2642 148.884 67.6927 148.884 68.2017V68.5568H144.679V67.8324H148.032C148.032 67.5246 147.97 67.25 147.847 67.0085C147.726 66.767 147.553 66.5765 147.328 66.4368C147.106 66.2971 146.843 66.2273 146.54 66.2273C146.206 66.2273 145.917 66.3101 145.674 66.4759C145.432 66.6392 145.246 66.8523 145.116 67.1151C144.986 67.3778 144.921 67.6596 144.921 67.9602V68.4432C144.921 68.8551 144.992 69.2043 145.134 69.4908C145.278 69.7749 145.478 69.9915 145.734 70.1406C145.99 70.2874 146.287 70.3608 146.625 70.3608C146.845 70.3608 147.044 70.33 147.222 70.2685C147.402 70.2045 147.557 70.1098 147.687 69.9844C147.817 69.8565 147.918 69.6979 147.989 69.5085L148.799 69.7358C148.713 70.0104 148.57 70.2519 148.369 70.4602C148.168 70.6662 147.919 70.8272 147.623 70.9432C147.327 71.0568 146.995 71.1136 146.625 71.1136ZM152.375 71.1136C151.863 71.1136 151.423 70.9929 151.054 70.7514C150.684 70.5099 150.4 70.1773 150.201 69.7536C150.002 69.3298 149.903 68.8456 149.903 68.3011C149.903 67.7472 150.005 67.2583 150.208 66.8345C150.414 66.4084 150.701 66.0758 151.068 65.8366C151.437 65.5952 151.868 65.4744 152.36 65.4744C152.744 65.4744 153.09 65.5455 153.397 65.6875C153.705 65.8295 153.957 66.0284 154.154 66.2841C154.35 66.5398 154.472 66.8381 154.519 67.179H153.681C153.617 66.9304 153.475 66.7102 153.255 66.5185C153.037 66.3243 152.744 66.2273 152.375 66.2273C152.048 66.2273 151.761 66.3125 151.515 66.483C151.271 66.651 151.081 66.889 150.943 67.1967C150.809 67.5021 150.741 67.8608 150.741 68.2727C150.741 68.6941 150.807 69.0611 150.94 69.3736C151.075 69.6861 151.264 69.9287 151.508 70.1016C151.754 70.2744 152.043 70.3608 152.375 70.3608C152.592 70.3608 152.79 70.3229 152.968 70.2472C153.145 70.1714 153.295 70.0625 153.419 69.9205C153.542 69.7784 153.629 69.608 153.681 69.4091H154.519C154.472 69.7311 154.355 70.0211 154.168 70.2791C153.983 70.5348 153.738 70.7384 153.433 70.8899C153.13 71.0391 152.777 71.1136 152.375 71.1136ZM158.117 65.5455V66.2557H155.29V65.5455H158.117ZM156.114 64.2386H156.952V69.4375C156.952 69.6742 156.986 69.8518 157.055 69.9702C157.126 70.0862 157.216 70.1643 157.325 70.2045C157.436 70.2424 157.553 70.2614 157.676 70.2614C157.769 70.2614 157.844 70.2566 157.904 70.2472C157.963 70.2353 158.01 70.2259 158.046 70.2188L158.216 70.9716C158.159 70.9929 158.08 71.0142 157.978 71.0355C157.876 71.0592 157.747 71.071 157.591 71.071C157.354 71.071 157.122 71.0201 156.895 70.9183C156.67 70.8165 156.483 70.6615 156.334 70.4531C156.187 70.2448 156.114 69.982 156.114 69.6648V64.2386ZM161.535 71.1136C161.042 71.1136 160.61 70.9964 160.239 70.7621C159.869 70.5277 159.58 70.1998 159.372 69.7784C159.166 69.357 159.063 68.8646 159.063 68.3011C159.063 67.733 159.166 67.237 159.372 66.8132C159.58 66.3894 159.869 66.0604 160.239 65.826C160.61 65.5916 161.042 65.4744 161.535 65.4744C162.027 65.4744 162.458 65.5916 162.827 65.826C163.199 66.0604 163.488 66.3894 163.694 66.8132C163.902 67.237 164.006 67.733 164.006 68.3011C164.006 68.8646 163.902 69.357 163.694 69.7784C163.488 70.1998 163.199 70.5277 162.827 70.7621C162.458 70.9964 162.027 71.1136 161.535 71.1136ZM161.535 70.3608C161.909 70.3608 162.217 70.2649 162.458 70.0732C162.699 69.8814 162.878 69.6293 162.994 69.3168C163.11 69.0043 163.168 68.6657 163.168 68.3011C163.168 67.9366 163.11 67.5968 162.994 67.282C162.878 66.9671 162.699 66.7126 162.458 66.5185C162.217 66.3243 161.909 66.2273 161.535 66.2273C161.161 66.2273 160.853 66.3243 160.611 66.5185C160.37 66.7126 160.191 66.9671 160.075 67.282C159.959 67.5968 159.901 67.9366 159.901 68.3011C159.901 68.6657 159.959 69.0043 160.075 69.3168C160.191 69.6293 160.37 69.8814 160.611 70.0732C160.853 70.2649 161.161 70.3608 161.535 70.3608ZM169.149 66.767L168.396 66.9801C168.349 66.8546 168.279 66.7327 168.187 66.6143C168.097 66.4936 167.974 66.3942 167.818 66.3161C167.661 66.2379 167.461 66.1989 167.217 66.1989C166.884 66.1989 166.605 66.2758 166.383 66.4297C166.163 66.5812 166.053 66.7741 166.053 67.0085C166.053 67.2169 166.128 67.3814 166.28 67.5021C166.431 67.6229 166.668 67.7235 166.99 67.804L167.8 68.0028C168.287 68.1212 168.651 68.3023 168.89 68.5462C169.129 68.7876 169.249 69.099 169.249 69.4801C169.249 69.7926 169.159 70.072 168.979 70.3182C168.801 70.5644 168.553 70.7585 168.233 70.9006C167.913 71.0426 167.542 71.1136 167.118 71.1136C166.562 71.1136 166.101 70.9929 165.737 70.7514C165.372 70.5099 165.141 70.1572 165.044 69.6932L165.84 69.4943C165.915 69.7879 166.059 70.008 166.269 70.1548C166.482 70.3016 166.761 70.375 167.104 70.375C167.494 70.375 167.805 70.2921 168.034 70.1264C168.266 69.9583 168.382 69.7571 168.382 69.5227C168.382 69.3333 168.316 69.1747 168.183 69.0469C168.051 68.9167 167.847 68.8196 167.573 68.7557L166.663 68.5426C166.164 68.4242 165.797 68.2408 165.563 67.9922C165.331 67.7412 165.215 67.4276 165.215 67.0511C165.215 66.7434 165.301 66.4711 165.474 66.2344C165.649 65.9976 165.887 65.8118 166.188 65.6768C166.491 65.5419 166.834 65.4744 167.217 65.4744C167.757 65.4744 168.181 65.5928 168.489 65.8295C168.799 66.0663 169.019 66.3788 169.149 66.767Z" fill="#CFD1DE"/>
<path d="M38.0225 43.9747C38.0225 43.0211 38.4758 42.1244 39.2436 41.5589L48.1355 35.0113L57.0274 41.5589C57.7952 42.1244 58.2485 43.0211 58.2485 43.9747V54.76C58.2485 56.1407 57.1292 57.26 55.7485 57.26H52.1694C51.6171 57.26 51.1694 56.8122 51.1694 56.26V50.1752C51.1694 49.899 50.9455 49.6752 50.6694 49.6752H45.6016C45.3254 49.6752 45.1016 49.899 45.1016 50.1752V56.26C45.1016 56.8122 44.6539 57.26 44.1016 57.26H40.5225C39.1418 57.26 38.0225 56.1407 38.0225 54.76V43.9747Z" stroke="#CFD1DE" stroke-width="2.02261" stroke-linecap="round" stroke-linejoin="round"/>
<path d="M35.075 71V63.7273H35.9557V66.9659H39.8335V63.7273H40.7142V71H39.8335V67.7472H35.9557V71H35.075ZM44.5796 71.1136C44.0872 71.1136 43.6552 70.9964 43.2835 70.7621C42.9142 70.5277 42.6253 70.1998 42.417 69.7784C42.211 69.357 42.108 68.8646 42.108 68.3011C42.108 67.733 42.211 67.237 42.417 66.8132C42.6253 66.3894 42.9142 66.0604 43.2835 65.826C43.6552 65.5916 44.0872 65.4744 44.5796 65.4744C45.0721 65.4744 45.5029 65.5916 45.8722 65.826C46.2439 66.0604 46.5328 66.3894 46.7387 66.8132C46.9471 67.237 47.0512 67.733 47.0512 68.3011C47.0512 68.8646 46.9471 69.357 46.7387 69.7784C46.5328 70.1998 46.2439 70.5277 45.8722 70.7621C45.5029 70.9964 45.0721 71.1136 44.5796 71.1136ZM44.5796 70.3608C44.9537 70.3608 45.2615 70.2649 45.5029 70.0732C45.7444 69.8814 45.9231 69.6293 46.0392 69.3168C46.1552 69.0043 46.2132 68.6657 46.2132 68.3011C46.2132 67.9366 46.1552 67.5968 46.0392 67.282C45.9231 66.9671 45.7444 66.7126 45.5029 66.5185C45.2615 66.3243 44.9537 66.2273 44.5796 66.2273C44.2056 66.2273 43.8978 66.3243 43.6563 66.5185C43.4149 66.7126 43.2361 66.9671 43.1201 67.282C43.0041 67.5968 42.9461 67.9366 42.9461 68.3011C42.9461 68.6657 43.0041 69.0043 43.1201 69.3168C43.2361 69.6293 43.4149 69.8814 43.6563 70.0732C43.8978 70.2649 44.2056 70.3608 44.5796 70.3608ZM48.3305 71V65.5455H49.1402V66.3977H49.2112C49.3248 66.1065 49.5083 65.8804 49.7616 65.7195C50.0149 65.5561 50.3192 65.4744 50.6743 65.4744C51.0341 65.4744 51.3336 65.5561 51.5727 65.7195C51.8142 65.8804 52.0024 66.1065 52.1373 66.3977H52.1942C52.3338 66.116 52.5434 65.8923 52.8227 65.7266C53.1021 65.5585 53.4371 65.4744 53.8277 65.4744C54.3154 65.4744 54.7143 65.6271 55.0244 65.9325C55.3345 66.2356 55.4896 66.7079 55.4896 67.3494V71H54.6515V67.3494C54.6515 66.947 54.5415 66.6593 54.3213 66.4865C54.1011 66.3137 53.8419 66.2273 53.5436 66.2273C53.1601 66.2273 52.863 66.3433 52.6523 66.5753C52.4416 66.8049 52.3362 67.0961 52.3362 67.4489V71H51.4839V67.2642C51.4839 66.9541 51.3833 66.7043 51.1821 66.5149C50.9809 66.3232 50.7216 66.2273 50.4044 66.2273C50.1866 66.2273 49.983 66.2853 49.7936 66.4013C49.6066 66.5173 49.455 66.6783 49.339 66.8842C49.2254 67.0878 49.1686 67.3234 49.1686 67.5909V71H48.3305ZM59.3089 71.1136C58.7833 71.1136 58.3299 70.9976 57.9488 70.7656C57.57 70.5312 57.2776 70.2045 57.0716 69.7855C56.868 69.3641 56.7662 68.8741 56.7662 68.3153C56.7662 67.7566 56.868 67.2642 57.0716 66.8381C57.2776 66.4096 57.5641 66.0758 57.931 65.8366C58.3003 65.5952 58.7312 65.4744 59.2236 65.4744C59.5077 65.4744 59.7883 65.5218 60.0653 65.6165C60.3422 65.7112 60.5944 65.8651 60.8216 66.0781C61.0489 66.2888 61.23 66.5682 61.365 66.9162C61.4999 67.2642 61.5674 67.6927 61.5674 68.2017V68.5568H57.3628V67.8324H60.7151C60.7151 67.5246 60.6536 67.25 60.5305 67.0085C60.4097 66.767 60.2369 66.5765 60.012 66.4368C59.7894 66.2971 59.5267 66.2273 59.2236 66.2273C58.8898 66.2273 58.601 66.3101 58.3572 66.4759C58.1157 66.6392 57.9298 66.8523 57.7996 67.1151C57.6694 67.3778 57.6043 67.6596 57.6043 67.9602V68.4432C57.6043 68.8551 57.6753 69.2043 57.8174 69.4908C57.9618 69.7749 58.1618 69.9915 58.4175 70.1406C58.6732 70.2874 58.9703 70.3608 59.3089 70.3608C59.529 70.3608 59.7279 70.33 59.9055 70.2685C60.0854 70.2045 60.2404 70.1098 60.3706 69.9844C60.5009 69.8565 60.6015 69.6979 60.6725 69.5085L61.4822 69.7358C61.3969 70.0104 61.2537 70.2519 61.0525 70.4602C60.8512 70.6662 60.6027 70.8272 60.3067 70.9432C60.0108 71.0568 59.6782 71.1136 59.3089 71.1136Z" fill="#CFD1DE"/>
<path d="M225.92 71V63.7273H228.462C228.969 63.7273 229.387 63.8149 229.716 63.9901C230.045 64.1629 230.29 64.3961 230.451 64.6896C230.612 64.9808 230.692 65.304 230.692 65.6591C230.692 65.9716 230.637 66.2296 230.526 66.4332C230.417 66.6368 230.272 66.7978 230.092 66.9162C229.915 67.0346 229.722 67.1222 229.513 67.179V67.25C229.736 67.2642 229.96 67.3423 230.185 67.4844C230.41 67.6264 230.598 67.83 230.749 68.0952C230.901 68.3603 230.977 68.6847 230.977 69.0682C230.977 69.4328 230.894 69.7607 230.728 70.0518C230.562 70.343 230.301 70.5739 229.943 70.7443C229.586 70.9148 229.121 71 228.548 71H225.92ZM226.8 70.2188H228.548C229.123 70.2188 229.531 70.1075 229.773 69.8849C230.017 69.66 230.138 69.3878 230.138 69.0682C230.138 68.822 230.076 68.5947 229.95 68.3864C229.825 68.1757 229.646 68.0076 229.414 67.8821C229.182 67.7543 228.907 67.6903 228.59 67.6903H226.8V70.2188ZM226.8 66.9233H228.434C228.699 66.9233 228.938 66.8712 229.151 66.767C229.367 66.6629 229.537 66.5161 229.663 66.3267C229.79 66.1373 229.854 65.9148 229.854 65.6591C229.854 65.3395 229.743 65.0684 229.521 64.8459C229.298 64.621 228.945 64.5085 228.462 64.5085H226.8V66.9233ZM232.31 71V65.5455H233.148V71H232.31ZM232.736 64.6364C232.573 64.6364 232.432 64.5807 232.314 64.4695C232.198 64.3582 232.14 64.2244 232.14 64.0682C232.14 63.9119 232.198 63.7782 232.314 63.6669C232.432 63.5556 232.573 63.5 232.736 63.5C232.9 63.5 233.039 63.5556 233.155 63.6669C233.274 63.7782 233.333 63.9119 233.333 64.0682C233.333 64.2244 233.274 64.3582 233.155 64.4695C233.039 64.5807 232.9 64.6364 232.736 64.6364ZM235.521 63.7273V71H234.683V63.7273H235.521ZM237.894 63.7273V71H237.056V63.7273H237.894ZM241.716 71.1136C241.191 71.1136 240.737 70.9976 240.356 70.7656C239.977 70.5312 239.685 70.2045 239.479 69.7855C239.275 69.3641 239.173 68.8741 239.173 68.3153C239.173 67.7566 239.275 67.2642 239.479 66.8381C239.685 66.4096 239.971 66.0758 240.338 65.8366C240.708 65.5952 241.138 65.4744 241.631 65.4744C241.915 65.4744 242.195 65.5218 242.472 65.6165C242.749 65.7112 243.002 65.8651 243.229 66.0781C243.456 66.2888 243.637 66.5682 243.772 66.9162C243.907 67.2642 243.975 67.6927 243.975 68.2017V68.5568H239.77V67.8324H243.122C243.122 67.5246 243.061 67.25 242.938 67.0085C242.817 66.767 242.644 66.5765 242.419 66.4368C242.197 66.2971 241.934 66.2273 241.631 66.2273C241.297 66.2273 241.008 66.3101 240.764 66.4759C240.523 66.6392 240.337 66.8523 240.207 67.1151C240.077 67.3778 240.012 67.6596 240.012 67.9602V68.4432C240.012 68.8551 240.083 69.2043 240.225 69.4908C240.369 69.7749 240.569 69.9915 240.825 70.1406C241.08 70.2874 241.378 70.3608 241.716 70.3608C241.936 70.3608 242.135 70.33 242.313 70.2685C242.493 70.2045 242.648 70.1098 242.778 69.9844C242.908 69.8565 243.009 69.6979 243.08 69.5085L243.889 69.7358C243.804 70.0104 243.661 70.2519 243.46 70.4602C243.258 70.6662 243.01 70.8272 242.714 70.9432C242.418 71.0568 242.085 71.1136 241.716 71.1136ZM247.622 65.5455V66.2557H244.795V65.5455H247.622ZM245.619 64.2386H246.457V69.4375C246.457 69.6742 246.491 69.8518 246.56 69.9702C246.631 70.0862 246.721 70.1643 246.83 70.2045C246.941 70.2424 247.058 70.2614 247.181 70.2614C247.274 70.2614 247.349 70.2566 247.409 70.2472C247.468 70.2353 247.515 70.2259 247.551 70.2188L247.721 70.9716C247.664 70.9929 247.585 71.0142 247.483 71.0355C247.381 71.0592 247.252 71.071 247.096 71.071C246.859 71.071 246.627 71.0201 246.4 70.9183C246.175 70.8165 245.988 70.6615 245.839 70.4531C245.692 70.2448 245.619 69.982 245.619 69.6648V64.2386ZM251.111 71.1136C250.585 71.1136 250.132 70.9976 249.751 70.7656C249.372 70.5312 249.079 70.2045 248.873 69.7855C248.67 69.3641 248.568 68.8741 248.568 68.3153C248.568 67.7566 248.67 67.2642 248.873 66.8381C249.079 66.4096 249.366 66.0758 249.733 65.8366C250.102 65.5952 250.533 65.4744 251.025 65.4744C251.309 65.4744 251.59 65.5218 251.867 65.6165C252.144 65.7112 252.396 65.8651 252.623 66.0781C252.851 66.2888 253.032 66.5682 253.167 66.9162C253.302 67.2642 253.369 67.6927 253.369 68.2017V68.5568H249.165V67.8324H252.517C252.517 67.5246 252.455 67.25 252.332 67.0085C252.211 66.767 252.039 66.5765 251.814 66.4368C251.591 66.2971 251.328 66.2273 251.025 66.2273C250.692 66.2273 250.403 66.3101 250.159 66.4759C249.917 66.6392 249.732 66.8523 249.601 67.1151C249.471 67.3778 249.406 67.6596 249.406 67.9602V68.4432C249.406 68.8551 249.477 69.2043 249.619 69.4908C249.764 69.7749 249.964 69.9915 250.219 70.1406C250.475 70.2874 250.772 70.3608 251.111 70.3608C251.331 70.3608 251.53 70.33 251.707 70.2685C251.887 70.2045 252.042 70.1098 252.172 69.9844C252.303 69.8565 252.403 69.6979 252.474 69.5085L253.284 69.7358C253.199 70.0104 253.055 70.2519 252.854 70.4602C252.653 70.6662 252.404 70.8272 252.108 70.9432C251.813 71.0568 251.48 71.1136 251.111 71.1136ZM254.644 71V65.5455H255.454V66.3693H255.51C255.61 66.0994 255.79 65.8804 256.05 65.7124C256.311 65.5443 256.604 65.4602 256.931 65.4602C256.992 65.4602 257.069 65.4614 257.162 65.4638C257.254 65.4661 257.324 65.4697 257.371 65.4744V66.3267C257.343 66.3196 257.278 66.3089 257.176 66.2947C257.077 66.2782 256.971 66.2699 256.86 66.2699C256.595 66.2699 256.358 66.3255 256.15 66.4368C255.944 66.5457 255.78 66.6972 255.66 66.8913C255.541 67.0831 255.482 67.3021 255.482 67.5483V71H254.644ZM259.97 71.1278C259.624 71.1278 259.31 71.0627 259.029 70.9325C258.747 70.8 258.523 70.6094 258.358 70.3608C258.192 70.1098 258.109 69.8068 258.109 69.4517C258.109 69.1392 258.171 68.8859 258.294 68.6918C258.417 68.4953 258.581 68.3414 258.787 68.2301C258.993 68.1188 259.221 68.036 259.469 67.9815C259.72 67.9247 259.972 67.8797 260.225 67.8466C260.557 67.804 260.826 67.772 261.032 67.7507C261.24 67.727 261.391 67.688 261.486 67.6335C261.583 67.5791 261.632 67.4844 261.632 67.3494V67.321C261.632 66.9706 261.536 66.6984 261.344 66.5043C261.155 66.3101 260.867 66.2131 260.481 66.2131C260.081 66.2131 259.767 66.3007 259.54 66.4759C259.313 66.651 259.153 66.8381 259.061 67.0369L258.265 66.7528C258.407 66.4214 258.597 66.1634 258.833 65.9787C259.073 65.7917 259.333 65.6615 259.615 65.5881C259.899 65.5123 260.178 65.4744 260.453 65.4744C260.628 65.4744 260.829 65.4957 261.056 65.5384C261.286 65.5786 261.507 65.6626 261.721 65.7905C261.936 65.9183 262.115 66.1113 262.257 66.3693C262.399 66.6274 262.47 66.973 262.47 67.4062V71H261.632V70.2614H261.589C261.532 70.3797 261.438 70.5064 261.305 70.6413C261.172 70.7763 260.996 70.8911 260.776 70.9858C260.556 71.0805 260.287 71.1278 259.97 71.1278ZM260.098 70.375C260.429 70.375 260.708 70.3099 260.936 70.1797C261.165 70.0495 261.338 69.8814 261.454 69.6754C261.573 69.4695 261.632 69.2528 261.632 69.0256V68.2585C261.596 68.3011 261.518 68.3402 261.397 68.3757C261.279 68.4089 261.142 68.4384 260.985 68.4645C260.832 68.4882 260.681 68.5095 260.534 68.5284C260.39 68.545 260.273 68.5592 260.183 68.571C259.965 68.5994 259.761 68.6456 259.572 68.7095C259.385 68.7711 259.234 68.8646 259.118 68.9901C259.004 69.1132 258.947 69.2812 258.947 69.4943C258.947 69.7855 259.055 70.0057 259.27 70.1548C259.488 70.3016 259.764 70.375 260.098 70.375Z" fill="#389BEC"/>
<path d="M253.231 38.0552C253.789 38.0552 254.241 37.603 254.241 37.0452C254.241 36.4874 253.789 36.0352 253.231 36.0352V38.0552ZM234.538 38.9761C234.538 38.4183 234.086 37.9661 233.528 37.9661C232.97 37.9661 232.518 38.4183 232.518 38.9761H234.538ZM236.074 38.0552H253.231V36.0352H236.074V38.0552ZM252.197 56.2612H236.074V58.2812H252.197V56.2612ZM234.054 54.2412V40.0752H232.034V54.2412H234.054ZM235.548 42.0059H252.197V39.9859H235.548V42.0059ZM254.217 44.0259V54.2412H256.237V44.0259H254.217ZM235.548 39.9859C234.99 39.9859 234.538 39.5338 234.538 38.9761H232.518C232.518 40.6494 233.875 42.0059 235.548 42.0059V39.9859ZM236.074 56.2612C234.958 56.2612 234.054 55.3568 234.054 54.2412H232.034C232.034 56.4725 233.843 58.2812 236.074 58.2812V56.2612ZM252.197 58.2812C254.429 58.2812 256.237 56.4725 256.237 54.2412H254.217C254.217 55.3568 253.313 56.2612 252.197 56.2612V58.2812ZM252.197 42.0059C253.313 42.0059 254.217 42.9102 254.217 44.0259H256.237C256.237 41.7946 254.429 39.9859 252.197 39.9859V42.0059ZM236.074 36.0352C233.843 36.0352 232.034 37.8439 232.034 40.0752H234.054C234.054 38.9595 234.958 38.0552 236.074 38.0552V36.0352Z" fill="#87C9FF"/>
<rect width="70" height="2" transform="matrix(1 0 0 -1 209.136 21)" fill="#55B3FF"/>
</g>
<defs>
<filter id="filter0_d_1464_16759" x="-14" y="0" width="416" height="101" filterUnits="userSpaceOnUse" color-interpolation-filters="sRGB">
<feFlood flood-opacity="0" result="BackgroundImageFix"/>
<feColorMatrix in="SourceAlpha" type="matrix" values="0 0 0 0 0 0 0 0 0 0 0 0 0 0 0 0 0 0 127 0" result="hardAlpha"/>
<feOffset dy="-6"/>
<feGaussianBlur stdDeviation="6.5"/>
<feComposite in2="hardAlpha" operator="out"/>
<feColorMatrix type="matrix" values="0 0 0 0 0 0 0 0 0 0 0 0 0 0 0 0 0 0 0.04 0"/>
<feBlend mode="normal" in2="BackgroundImageFix" result="effect1_dropShadow_1464_16759"/>
<feBlend mode="normal" in="SourceGraphic" in2="effect1_dropShadow_1464_16759" result="shape"/>
</filter>
</defs>
</svg>
