<svg width="390" height="95" viewBox="0 0 390 95" fill="none" xmlns="http://www.w3.org/2000/svg">
<g filter="url(#filter0_d_1714_36727)">
<path d="M0 19.6875H390V94.6875H0V19.6875Z" fill="white"/>
<path d="M335.034 56.4315L335.205 55.3314C335.414 53.9905 336.289 52.8421 337.585 52.4406C339.195 51.942 341.586 51.375 344.136 51.375C346.686 51.375 349.077 51.942 350.687 52.4406C351.983 52.8421 352.858 53.9906 353.067 55.3314L353.238 56.4315" stroke="#87C9FF" stroke-width="2.02261" stroke-linecap="round" stroke-linejoin="round"/>
<path d="M344.136 46.824C346.928 46.824 349.192 44.5601 349.192 41.7675C349.192 38.9748 346.928 36.7109 344.136 36.7109C341.343 36.7109 339.079 38.9748 339.079 41.7675C339.079 44.5601 341.343 46.824 344.136 46.824Z" stroke="#87C9FF" stroke-width="2.02261" stroke-linecap="round" stroke-linejoin="round"/>
<path d="M331.756 71.6875V64.4148H334.213C334.784 64.4148 335.25 64.5178 335.612 64.7237C335.977 64.9273 336.247 65.2031 336.422 65.5511C336.597 65.8991 336.685 66.2874 336.685 66.7159C336.685 67.1444 336.597 67.5339 336.422 67.8842C336.249 68.2346 335.982 68.514 335.619 68.7223C335.257 68.9283 334.793 69.0312 334.227 69.0312H332.466V68.25H334.199C334.589 68.25 334.903 68.1825 335.14 68.0476C335.377 67.9126 335.548 67.7304 335.655 67.5007C335.764 67.2687 335.818 67.0071 335.818 66.7159C335.818 66.4247 335.764 66.1643 335.655 65.9347C335.548 65.705 335.375 65.5251 335.136 65.3949C334.897 65.2623 334.58 65.196 334.185 65.196H332.636V71.6875H331.756ZM340.218 71.8011C339.692 71.8011 339.239 71.6851 338.858 71.4531C338.479 71.2188 338.187 70.892 337.981 70.473C337.777 70.0516 337.675 69.5616 337.675 69.0028C337.675 68.4441 337.777 67.9517 337.981 67.5256C338.187 67.0971 338.473 66.7633 338.84 66.5241C339.21 66.2827 339.64 66.1619 340.133 66.1619C340.417 66.1619 340.697 66.2093 340.974 66.304C341.251 66.3987 341.504 66.5526 341.731 66.7656C341.958 66.9763 342.139 67.2557 342.274 67.6037C342.409 67.9517 342.477 68.3802 342.477 68.8892V69.2443H338.272V68.5199H341.624C341.624 68.2121 341.563 67.9375 341.44 67.696C341.319 67.4545 341.146 67.264 340.921 67.1243C340.699 66.9846 340.436 66.9148 340.133 66.9148C339.799 66.9148 339.51 66.9976 339.266 67.1634C339.025 67.3267 338.839 67.5398 338.709 67.8026C338.579 68.0653 338.513 68.3471 338.513 68.6477V69.1307C338.513 69.5426 338.585 69.8918 338.727 70.1783C338.871 70.4624 339.071 70.679 339.327 70.8281C339.582 70.9749 339.879 71.0483 340.218 71.0483C340.438 71.0483 340.637 71.0175 340.815 70.956C340.995 70.892 341.15 70.7973 341.28 70.6719C341.41 70.544 341.511 70.3854 341.582 70.196L342.391 70.4233C342.306 70.6979 342.163 70.9394 341.962 71.1477C341.76 71.3537 341.512 71.5147 341.216 71.6307C340.92 71.7443 340.587 71.8011 340.218 71.8011ZM343.751 71.6875V66.233H344.561V67.0568H344.618C344.717 66.7869 344.897 66.5679 345.158 66.3999C345.418 66.2318 345.712 66.1477 346.038 66.1477C346.1 66.1477 346.177 66.1489 346.269 66.1513C346.362 66.1536 346.431 66.1572 346.479 66.1619V67.0142C346.45 67.0071 346.385 66.9964 346.283 66.9822C346.184 66.9657 346.079 66.9574 345.967 66.9574C345.702 66.9574 345.465 67.013 345.257 67.1243C345.051 67.2332 344.888 67.3847 344.767 67.5788C344.649 67.7706 344.589 67.9896 344.589 68.2358V71.6875H343.751ZM350.243 66.233V66.9432H347.303V66.233H350.243ZM348.183 71.6875V65.4801C348.183 65.1676 348.257 64.9072 348.403 64.6989C348.55 64.4905 348.741 64.3343 348.975 64.2301C349.21 64.1259 349.457 64.0739 349.717 64.0739C349.923 64.0739 350.091 64.0904 350.222 64.1236C350.352 64.1567 350.449 64.1875 350.513 64.2159L350.271 64.9403C350.229 64.9261 350.17 64.9084 350.094 64.8871C350.02 64.8658 349.923 64.8551 349.803 64.8551C349.526 64.8551 349.326 64.925 349.202 65.0646C349.082 65.2043 349.021 65.4091 349.021 65.679V71.6875H348.183ZM351.417 71.6875V66.233H352.256V71.6875H351.417ZM351.844 65.3239C351.68 65.3239 351.539 65.2682 351.421 65.157C351.305 65.0457 351.247 64.9119 351.247 64.7557C351.247 64.5994 351.305 64.4657 351.421 64.3544C351.539 64.2431 351.68 64.1875 351.844 64.1875C352.007 64.1875 352.147 64.2431 352.263 64.3544C352.381 64.4657 352.44 64.5994 352.44 64.7557C352.44 64.9119 352.381 65.0457 352.263 65.157C352.147 65.2682 352.007 65.3239 351.844 65.3239ZM354.629 64.4148V71.6875H353.79V64.4148H354.629Z" fill="#389BEC"/>
<path d="M142.079 37.7227H141.068C139.393 37.7227 138.034 39.081 138.034 40.7566V54.9148C138.034 56.5904 139.393 57.9487 141.068 57.9487H153.204C154.879 57.9487 156.238 56.5904 156.238 54.9148V40.7566C156.238 39.081 154.879 37.7227 153.204 37.7227H152.192" stroke="#CFD1DE" stroke-width="2.02261"/>
<rect x="142.079" y="35.6992" width="10.113" height="5.05651" rx="2.02261" stroke="#CFD1DE" stroke-width="2.02261"/>
<path d="M124.407 71.6875V64.4148H126.864C127.435 64.4148 127.901 64.5178 128.264 64.7237C128.628 64.9273 128.898 65.2031 129.073 65.5511C129.248 65.8991 129.336 66.2874 129.336 66.7159C129.336 67.1444 129.248 67.5339 129.073 67.8842C128.9 68.2346 128.633 68.514 128.271 68.7223C127.908 68.9283 127.444 69.0312 126.879 69.0312H125.117V68.25H126.85C127.241 68.25 127.555 68.1825 127.791 68.0476C128.028 67.9126 128.2 67.7304 128.306 67.5007C128.415 67.2687 128.47 67.0071 128.47 66.7159C128.47 66.4247 128.415 66.1643 128.306 65.9347C128.2 65.705 128.027 65.5251 127.788 65.3949C127.549 65.2623 127.231 65.196 126.836 65.196H125.288V71.6875H124.407ZM130.641 71.6875V66.233H131.451V67.0568H131.508C131.607 66.7869 131.787 66.5679 132.047 66.3999C132.308 66.2318 132.601 66.1477 132.928 66.1477C132.99 66.1477 133.066 66.1489 133.159 66.1513C133.251 66.1536 133.321 66.1572 133.368 66.1619V67.0142C133.34 67.0071 133.275 66.9964 133.173 66.9822C133.074 66.9657 132.968 66.9574 132.857 66.9574C132.592 66.9574 132.355 67.013 132.147 67.1243C131.941 67.2332 131.777 67.3847 131.657 67.5788C131.538 67.7706 131.479 67.9896 131.479 68.2358V71.6875H130.641ZM136.412 71.8011C135.919 71.8011 135.487 71.6839 135.116 71.4496C134.746 71.2152 134.457 70.8873 134.249 70.4659C134.043 70.0445 133.94 69.5521 133.94 68.9886C133.94 68.4205 134.043 67.9245 134.249 67.5007C134.457 67.0769 134.746 66.7479 135.116 66.5135C135.487 66.2791 135.919 66.1619 136.412 66.1619C136.904 66.1619 137.335 66.2791 137.704 66.5135C138.076 66.7479 138.365 67.0769 138.571 67.5007C138.779 67.9245 138.883 68.4205 138.883 68.9886C138.883 69.5521 138.779 70.0445 138.571 70.4659C138.365 70.8873 138.076 71.2152 137.704 71.4496C137.335 71.6839 136.904 71.8011 136.412 71.8011ZM136.412 71.0483C136.786 71.0483 137.093 70.9524 137.335 70.7607C137.576 70.5689 137.755 70.3168 137.871 70.0043C137.987 69.6918 138.045 69.3532 138.045 68.9886C138.045 68.6241 137.987 68.2843 137.871 67.9695C137.755 67.6546 137.576 67.4001 137.335 67.206C137.093 67.0118 136.786 66.9148 136.412 66.9148C136.038 66.9148 135.73 67.0118 135.488 67.206C135.247 67.4001 135.068 67.6546 134.952 67.9695C134.836 68.2843 134.778 68.6241 134.778 68.9886C134.778 69.3532 134.836 69.6918 134.952 70.0043C135.068 70.3168 135.247 70.5689 135.488 70.7607C135.73 70.9524 136.038 71.0483 136.412 71.0483ZM140.507 73.733C140.365 73.733 140.238 73.7211 140.127 73.6974C140.016 73.6761 139.939 73.6548 139.896 73.6335L140.109 72.8949C140.313 72.947 140.493 72.9659 140.649 72.9517C140.805 72.9375 140.944 72.8677 141.065 72.7422C141.188 72.6191 141.3 72.419 141.402 72.142L141.558 71.7159L139.541 66.233H140.45L141.956 70.5795H142.013L143.518 66.233H144.427L142.112 72.483C142.008 72.7647 141.879 72.9979 141.725 73.1825C141.571 73.3696 141.392 73.508 141.189 73.598C140.988 73.688 140.76 73.733 140.507 73.733ZM147.625 71.8011C147.1 71.8011 146.646 71.6851 146.265 71.4531C145.886 71.2188 145.594 70.892 145.388 70.473C145.184 70.0516 145.083 69.5616 145.083 69.0028C145.083 68.4441 145.184 67.9517 145.388 67.5256C145.594 67.0971 145.88 66.7633 146.247 66.5241C146.617 66.2827 147.048 66.1619 147.54 66.1619C147.824 66.1619 148.105 66.2093 148.382 66.304C148.659 66.3987 148.911 66.5526 149.138 66.7656C149.365 66.9763 149.546 67.2557 149.681 67.6037C149.816 67.9517 149.884 68.3802 149.884 68.8892V69.2443H145.679V68.5199H149.032C149.032 68.2121 148.97 67.9375 148.847 67.696C148.726 67.4545 148.553 67.264 148.328 67.1243C148.106 66.9846 147.843 66.9148 147.54 66.9148C147.206 66.9148 146.917 66.9976 146.674 67.1634C146.432 67.3267 146.246 67.5398 146.116 67.8026C145.986 68.0653 145.921 68.3471 145.921 68.6477V69.1307C145.921 69.5426 145.992 69.8918 146.134 70.1783C146.278 70.4624 146.478 70.679 146.734 70.8281C146.99 70.9749 147.287 71.0483 147.625 71.0483C147.845 71.0483 148.044 71.0175 148.222 70.956C148.402 70.892 148.557 70.7973 148.687 70.6719C148.817 70.544 148.918 70.3854 148.989 70.196L149.799 70.4233C149.713 70.6979 149.57 70.9394 149.369 71.1477C149.168 71.3537 148.919 71.5147 148.623 71.6307C148.327 71.7443 147.995 71.8011 147.625 71.8011ZM153.375 71.8011C152.863 71.8011 152.423 71.6804 152.054 71.4389C151.684 71.1974 151.4 70.8648 151.201 70.4411C151.002 70.0173 150.903 69.5331 150.903 68.9886C150.903 68.4347 151.005 67.9458 151.208 67.522C151.414 67.0959 151.701 66.7633 152.068 66.5241C152.437 66.2827 152.868 66.1619 153.36 66.1619C153.744 66.1619 154.09 66.233 154.397 66.375C154.705 66.517 154.957 66.7159 155.154 66.9716C155.35 67.2273 155.472 67.5256 155.519 67.8665H154.681C154.617 67.6179 154.475 67.3977 154.255 67.206C154.037 67.0118 153.744 66.9148 153.375 66.9148C153.048 66.9148 152.761 67 152.515 67.1705C152.271 67.3385 152.081 67.5765 151.943 67.8842C151.809 68.1896 151.741 68.5483 151.741 68.9602C151.741 69.3816 151.807 69.7486 151.94 70.0611C152.075 70.3736 152.264 70.6162 152.508 70.7891C152.754 70.9619 153.043 71.0483 153.375 71.0483C153.592 71.0483 153.79 71.0104 153.968 70.9347C154.145 70.8589 154.295 70.75 154.419 70.608C154.542 70.4659 154.629 70.2955 154.681 70.0966H155.519C155.472 70.4186 155.355 70.7086 155.168 70.9666C154.983 71.2223 154.738 71.4259 154.433 71.5774C154.13 71.7266 153.777 71.8011 153.375 71.8011ZM159.117 66.233V66.9432H156.29V66.233H159.117ZM157.114 64.9261H157.952V70.125C157.952 70.3617 157.986 70.5393 158.055 70.6577C158.126 70.7737 158.216 70.8518 158.325 70.892C158.436 70.9299 158.553 70.9489 158.676 70.9489C158.769 70.9489 158.844 70.9441 158.904 70.9347C158.963 70.9228 159.01 70.9134 159.046 70.9062L159.216 71.6591C159.159 71.6804 159.08 71.7017 158.978 71.723C158.876 71.7467 158.747 71.7585 158.591 71.7585C158.354 71.7585 158.122 71.7076 157.895 71.6058C157.67 71.504 157.483 71.349 157.334 71.1406C157.187 70.9323 157.114 70.6695 157.114 70.3523V64.9261ZM162.535 71.8011C162.042 71.8011 161.61 71.6839 161.239 71.4496C160.869 71.2152 160.58 70.8873 160.372 70.4659C160.166 70.0445 160.063 69.5521 160.063 68.9886C160.063 68.4205 160.166 67.9245 160.372 67.5007C160.58 67.0769 160.869 66.7479 161.239 66.5135C161.61 66.2791 162.042 66.1619 162.535 66.1619C163.027 66.1619 163.458 66.2791 163.827 66.5135C164.199 66.7479 164.488 67.0769 164.694 67.5007C164.902 67.9245 165.006 68.4205 165.006 68.9886C165.006 69.5521 164.902 70.0445 164.694 70.4659C164.488 70.8873 164.199 71.2152 163.827 71.4496C163.458 71.6839 163.027 71.8011 162.535 71.8011ZM162.535 71.0483C162.909 71.0483 163.217 70.9524 163.458 70.7607C163.699 70.5689 163.878 70.3168 163.994 70.0043C164.11 69.6918 164.168 69.3532 164.168 68.9886C164.168 68.6241 164.11 68.2843 163.994 67.9695C163.878 67.6546 163.699 67.4001 163.458 67.206C163.217 67.0118 162.909 66.9148 162.535 66.9148C162.161 66.9148 161.853 67.0118 161.611 67.206C161.37 67.4001 161.191 67.6546 161.075 67.9695C160.959 68.2843 160.901 68.6241 160.901 68.9886C160.901 69.3532 160.959 69.6918 161.075 70.0043C161.191 70.3168 161.37 70.5689 161.611 70.7607C161.853 70.9524 162.161 71.0483 162.535 71.0483ZM170.149 67.4545L169.396 67.6676C169.349 67.5421 169.279 67.4202 169.187 67.3018C169.097 67.1811 168.974 67.0817 168.818 67.0036C168.661 66.9254 168.461 66.8864 168.217 66.8864C167.884 66.8864 167.605 66.9633 167.383 67.1172C167.163 67.2687 167.053 67.4616 167.053 67.696C167.053 67.9044 167.128 68.0689 167.28 68.1896C167.431 68.3104 167.668 68.411 167.99 68.4915L168.8 68.6903C169.287 68.8087 169.651 68.9898 169.89 69.2337C170.129 69.4751 170.249 69.7865 170.249 70.1676C170.249 70.4801 170.159 70.7595 169.979 71.0057C169.801 71.2519 169.553 71.446 169.233 71.5881C168.913 71.7301 168.542 71.8011 168.118 71.8011C167.562 71.8011 167.101 71.6804 166.737 71.4389C166.372 71.1974 166.141 70.8447 166.044 70.3807L166.84 70.1818C166.915 70.4754 167.059 70.6955 167.269 70.8423C167.482 70.9891 167.761 71.0625 168.104 71.0625C168.494 71.0625 168.805 70.9796 169.034 70.8139C169.266 70.6458 169.382 70.4446 169.382 70.2102C169.382 70.0208 169.316 69.8622 169.183 69.7344C169.051 69.6042 168.847 69.5071 168.573 69.4432L167.663 69.2301C167.164 69.1117 166.797 68.9283 166.563 68.6797C166.331 68.4287 166.215 68.1151 166.215 67.7386C166.215 67.4309 166.301 67.1586 166.474 66.9219C166.649 66.6851 166.887 66.4993 167.188 66.3643C167.491 66.2294 167.834 66.1619 168.217 66.1619C168.757 66.1619 169.181 66.2803 169.489 66.517C169.799 66.7538 170.019 67.0663 170.149 67.4545Z" fill="#CFD1DE"/>
<path d="M39.0225 44.6626C39.0225 43.709 39.4758 42.8123 40.2436 42.2469L49.1355 35.6992L58.0274 42.2469C58.7952 42.8123 59.2485 43.709 59.2485 44.6626V55.4479C59.2485 56.8286 58.1292 57.9479 56.7485 57.9479H53.1694C52.6171 57.9479 52.1694 57.5002 52.1694 56.9479V50.8631C52.1694 50.587 51.9455 50.3631 51.6694 50.3631H46.6016C46.3254 50.3631 46.1016 50.587 46.1016 50.8631V56.9479C46.1016 57.5002 45.6539 57.9479 45.1016 57.9479H41.5225C40.1418 57.9479 39.0225 56.8286 39.0225 55.4479V44.6626Z" stroke="#CFD1DE" stroke-width="2.02261" stroke-linecap="round" stroke-linejoin="round"/>
<path d="M36.075 71.6875V64.4148H36.9557V67.6534H40.8335V64.4148H41.7142V71.6875H40.8335V68.4347H36.9557V71.6875H36.075ZM45.5796 71.8011C45.0872 71.8011 44.6552 71.6839 44.2835 71.4496C43.9142 71.2152 43.6253 70.8873 43.417 70.4659C43.211 70.0445 43.108 69.5521 43.108 68.9886C43.108 68.4205 43.211 67.9245 43.417 67.5007C43.6253 67.0769 43.9142 66.7479 44.2835 66.5135C44.6552 66.2791 45.0872 66.1619 45.5796 66.1619C46.0721 66.1619 46.5029 66.2791 46.8722 66.5135C47.2439 66.7479 47.5328 67.0769 47.7387 67.5007C47.9471 67.9245 48.0512 68.4205 48.0512 68.9886C48.0512 69.5521 47.9471 70.0445 47.7387 70.4659C47.5328 70.8873 47.2439 71.2152 46.8722 71.4496C46.5029 71.6839 46.0721 71.8011 45.5796 71.8011ZM45.5796 71.0483C45.9537 71.0483 46.2615 70.9524 46.5029 70.7607C46.7444 70.5689 46.9231 70.3168 47.0392 70.0043C47.1552 69.6918 47.2132 69.3532 47.2132 68.9886C47.2132 68.6241 47.1552 68.2843 47.0392 67.9695C46.9231 67.6546 46.7444 67.4001 46.5029 67.206C46.2615 67.0118 45.9537 66.9148 45.5796 66.9148C45.2056 66.9148 44.8978 67.0118 44.6563 67.206C44.4149 67.4001 44.2361 67.6546 44.1201 67.9695C44.0041 68.2843 43.9461 68.6241 43.9461 68.9886C43.9461 69.3532 44.0041 69.6918 44.1201 70.0043C44.2361 70.3168 44.4149 70.5689 44.6563 70.7607C44.8978 70.9524 45.2056 71.0483 45.5796 71.0483ZM49.3305 71.6875V66.233H50.1402V67.0852H50.2112C50.3248 66.794 50.5083 66.5679 50.7616 66.407C51.0149 66.2436 51.3192 66.1619 51.6743 66.1619C52.0341 66.1619 52.3336 66.2436 52.5727 66.407C52.8142 66.5679 53.0024 66.794 53.1373 67.0852H53.1942C53.3338 66.8035 53.5434 66.5798 53.8227 66.4141C54.1021 66.246 54.4371 66.1619 54.8277 66.1619C55.3154 66.1619 55.7143 66.3146 56.0244 66.62C56.3345 66.9231 56.4896 67.3954 56.4896 68.0369V71.6875H55.6515V68.0369C55.6515 67.6345 55.5415 67.3468 55.3213 67.174C55.1011 67.0012 54.8419 66.9148 54.5436 66.9148C54.1601 66.9148 53.863 67.0308 53.6523 67.2628C53.4416 67.4924 53.3362 67.7836 53.3362 68.1364V71.6875H52.4839V67.9517C52.4839 67.6416 52.3833 67.3918 52.1821 67.2024C51.9809 67.0107 51.7216 66.9148 51.4044 66.9148C51.1866 66.9148 50.983 66.9728 50.7936 67.0888C50.6066 67.2048 50.455 67.3658 50.339 67.5717C50.2254 67.7753 50.1686 68.0109 50.1686 68.2784V71.6875H49.3305ZM60.3089 71.8011C59.7833 71.8011 59.3299 71.6851 58.9488 71.4531C58.57 71.2188 58.2776 70.892 58.0716 70.473C57.868 70.0516 57.7662 69.5616 57.7662 69.0028C57.7662 68.4441 57.868 67.9517 58.0716 67.5256C58.2776 67.0971 58.5641 66.7633 58.931 66.5241C59.3003 66.2827 59.7312 66.1619 60.2236 66.1619C60.5077 66.1619 60.7883 66.2093 61.0653 66.304C61.3422 66.3987 61.5944 66.5526 61.8216 66.7656C62.0489 66.9763 62.23 67.2557 62.365 67.6037C62.4999 67.9517 62.5674 68.3802 62.5674 68.8892V69.2443H58.3628V68.5199H61.7151C61.7151 68.2121 61.6536 67.9375 61.5305 67.696C61.4097 67.4545 61.2369 67.264 61.012 67.1243C60.7894 66.9846 60.5267 66.9148 60.2236 66.9148C59.8898 66.9148 59.601 66.9976 59.3572 67.1634C59.1157 67.3267 58.9298 67.5398 58.7996 67.8026C58.6694 68.0653 58.6043 68.3471 58.6043 68.6477V69.1307C58.6043 69.5426 58.6753 69.8918 58.8174 70.1783C58.9618 70.4624 59.1618 70.679 59.4175 70.8281C59.6732 70.9749 59.9703 71.0483 60.3089 71.0483C60.529 71.0483 60.7279 71.0175 60.9055 70.956C61.0854 70.892 61.2404 70.7973 61.3706 70.6719C61.5009 70.544 61.6015 70.3854 61.6725 70.196L62.4822 70.4233C62.3969 70.6979 62.2537 70.9394 62.0525 71.1477C61.8512 71.3537 61.6027 71.5147 61.3067 71.6307C61.0108 71.7443 60.6782 71.8011 60.3089 71.8011Z" fill="#CFD1DE"/>
<path d="M226.92 71.6875V64.4148H229.462C229.969 64.4148 230.387 64.5024 230.716 64.6776C231.045 64.8504 231.29 65.0836 231.451 65.3771C231.612 65.6683 231.692 65.9915 231.692 66.3466C231.692 66.6591 231.637 66.9171 231.526 67.1207C231.417 67.3243 231.272 67.4853 231.092 67.6037C230.915 67.7221 230.722 67.8097 230.513 67.8665V67.9375C230.736 67.9517 230.96 68.0298 231.185 68.1719C231.41 68.3139 231.598 68.5175 231.749 68.7827C231.901 69.0478 231.977 69.3722 231.977 69.7557C231.977 70.1203 231.894 70.4482 231.728 70.7393C231.562 71.0305 231.301 71.2614 230.943 71.4318C230.586 71.6023 230.121 71.6875 229.548 71.6875H226.92ZM227.8 70.9062H229.548C230.123 70.9062 230.531 70.795 230.773 70.5724C231.017 70.3475 231.138 70.0753 231.138 69.7557C231.138 69.5095 231.076 69.2822 230.95 69.0739C230.825 68.8632 230.646 68.6951 230.414 68.5696C230.182 68.4418 229.907 68.3778 229.59 68.3778H227.8V70.9062ZM227.8 67.6108H229.434C229.699 67.6108 229.938 67.5587 230.151 67.4545C230.367 67.3504 230.537 67.2036 230.663 67.0142C230.79 66.8248 230.854 66.6023 230.854 66.3466C230.854 66.027 230.743 65.7559 230.521 65.5334C230.298 65.3085 229.945 65.196 229.462 65.196H227.8V67.6108ZM233.31 71.6875V66.233H234.148V71.6875H233.31ZM233.736 65.3239C233.573 65.3239 233.432 65.2682 233.314 65.157C233.198 65.0457 233.14 64.9119 233.14 64.7557C233.14 64.5994 233.198 64.4657 233.314 64.3544C233.432 64.2431 233.573 64.1875 233.736 64.1875C233.9 64.1875 234.039 64.2431 234.155 64.3544C234.274 64.4657 234.333 64.5994 234.333 64.7557C234.333 64.9119 234.274 65.0457 234.155 65.157C234.039 65.2682 233.9 65.3239 233.736 65.3239ZM236.521 64.4148V71.6875H235.683V64.4148H236.521ZM238.894 64.4148V71.6875H238.056V64.4148H238.894ZM242.716 71.8011C242.191 71.8011 241.737 71.6851 241.356 71.4531C240.977 71.2188 240.685 70.892 240.479 70.473C240.275 70.0516 240.173 69.5616 240.173 69.0028C240.173 68.4441 240.275 67.9517 240.479 67.5256C240.685 67.0971 240.971 66.7633 241.338 66.5241C241.708 66.2827 242.138 66.1619 242.631 66.1619C242.915 66.1619 243.195 66.2093 243.472 66.304C243.749 66.3987 244.002 66.5526 244.229 66.7656C244.456 66.9763 244.637 67.2557 244.772 67.6037C244.907 67.9517 244.975 68.3802 244.975 68.8892V69.2443H240.77V68.5199H244.122C244.122 68.2121 244.061 67.9375 243.938 67.696C243.817 67.4545 243.644 67.264 243.419 67.1243C243.197 66.9846 242.934 66.9148 242.631 66.9148C242.297 66.9148 242.008 66.9976 241.764 67.1634C241.523 67.3267 241.337 67.5398 241.207 67.8026C241.077 68.0653 241.012 68.3471 241.012 68.6477V69.1307C241.012 69.5426 241.083 69.8918 241.225 70.1783C241.369 70.4624 241.569 70.679 241.825 70.8281C242.08 70.9749 242.378 71.0483 242.716 71.0483C242.936 71.0483 243.135 71.0175 243.313 70.956C243.493 70.892 243.648 70.7973 243.778 70.6719C243.908 70.544 244.009 70.3854 244.08 70.196L244.889 70.4233C244.804 70.6979 244.661 70.9394 244.46 71.1477C244.258 71.3537 244.01 71.5147 243.714 71.6307C243.418 71.7443 243.085 71.8011 242.716 71.8011ZM248.622 66.233V66.9432H245.795V66.233H248.622ZM246.619 64.9261H247.457V70.125C247.457 70.3617 247.491 70.5393 247.56 70.6577C247.631 70.7737 247.721 70.8518 247.83 70.892C247.941 70.9299 248.058 70.9489 248.181 70.9489C248.274 70.9489 248.349 70.9441 248.409 70.9347C248.468 70.9228 248.515 70.9134 248.551 70.9062L248.721 71.6591C248.664 71.6804 248.585 71.7017 248.483 71.723C248.381 71.7467 248.252 71.7585 248.096 71.7585C247.859 71.7585 247.627 71.7076 247.4 71.6058C247.175 71.504 246.988 71.349 246.839 71.1406C246.692 70.9323 246.619 70.6695 246.619 70.3523V64.9261ZM252.111 71.8011C251.585 71.8011 251.132 71.6851 250.751 71.4531C250.372 71.2188 250.079 70.892 249.873 70.473C249.67 70.0516 249.568 69.5616 249.568 69.0028C249.568 68.4441 249.67 67.9517 249.873 67.5256C250.079 67.0971 250.366 66.7633 250.733 66.5241C251.102 66.2827 251.533 66.1619 252.025 66.1619C252.309 66.1619 252.59 66.2093 252.867 66.304C253.144 66.3987 253.396 66.5526 253.623 66.7656C253.851 66.9763 254.032 67.2557 254.167 67.6037C254.302 67.9517 254.369 68.3802 254.369 68.8892V69.2443H250.165V68.5199H253.517C253.517 68.2121 253.455 67.9375 253.332 67.696C253.211 67.4545 253.039 67.264 252.814 67.1243C252.591 66.9846 252.328 66.9148 252.025 66.9148C251.692 66.9148 251.403 66.9976 251.159 67.1634C250.917 67.3267 250.732 67.5398 250.601 67.8026C250.471 68.0653 250.406 68.3471 250.406 68.6477V69.1307C250.406 69.5426 250.477 69.8918 250.619 70.1783C250.764 70.4624 250.964 70.679 251.219 70.8281C251.475 70.9749 251.772 71.0483 252.111 71.0483C252.331 71.0483 252.53 71.0175 252.707 70.956C252.887 70.892 253.042 70.7973 253.172 70.6719C253.303 70.544 253.403 70.3854 253.474 70.196L254.284 70.4233C254.199 70.6979 254.055 70.9394 253.854 71.1477C253.653 71.3537 253.404 71.5147 253.108 71.6307C252.813 71.7443 252.48 71.8011 252.111 71.8011ZM255.644 71.6875V66.233H256.454V67.0568H256.51C256.61 66.7869 256.79 66.5679 257.05 66.3999C257.311 66.2318 257.604 66.1477 257.931 66.1477C257.992 66.1477 258.069 66.1489 258.162 66.1513C258.254 66.1536 258.324 66.1572 258.371 66.1619V67.0142C258.343 67.0071 258.278 66.9964 258.176 66.9822C258.077 66.9657 257.971 66.9574 257.86 66.9574C257.595 66.9574 257.358 67.013 257.15 67.1243C256.944 67.2332 256.78 67.3847 256.66 67.5788C256.541 67.7706 256.482 67.9896 256.482 68.2358V71.6875H255.644ZM260.97 71.8153C260.624 71.8153 260.31 71.7502 260.029 71.62C259.747 71.4875 259.523 71.2969 259.358 71.0483C259.192 70.7973 259.109 70.4943 259.109 70.1392C259.109 69.8267 259.171 69.5734 259.294 69.3793C259.417 69.1828 259.581 69.0289 259.787 68.9176C259.993 68.8063 260.221 68.7235 260.469 68.669C260.72 68.6122 260.972 68.5672 261.225 68.5341C261.557 68.4915 261.826 68.4595 262.032 68.4382C262.24 68.4145 262.391 68.3755 262.486 68.321C262.583 68.2666 262.632 68.1719 262.632 68.0369V68.0085C262.632 67.6581 262.536 67.3859 262.344 67.1918C262.155 66.9976 261.867 66.9006 261.481 66.9006C261.081 66.9006 260.767 66.9882 260.54 67.1634C260.313 67.3385 260.153 67.5256 260.061 67.7244L259.265 67.4403C259.407 67.1089 259.597 66.8509 259.833 66.6662C260.073 66.4792 260.333 66.349 260.615 66.2756C260.899 66.1998 261.178 66.1619 261.453 66.1619C261.628 66.1619 261.829 66.1832 262.056 66.2259C262.286 66.2661 262.507 66.3501 262.721 66.478C262.936 66.6058 263.115 66.7988 263.257 67.0568C263.399 67.3149 263.47 67.6605 263.47 68.0938V71.6875H262.632V70.9489H262.589C262.532 71.0672 262.438 71.1939 262.305 71.3288C262.172 71.4638 261.996 71.5786 261.776 71.6733C261.556 71.768 261.287 71.8153 260.97 71.8153ZM261.098 71.0625C261.429 71.0625 261.708 70.9974 261.936 70.8672C262.165 70.737 262.338 70.5689 262.454 70.3629C262.573 70.157 262.632 69.9403 262.632 69.7131V68.946C262.596 68.9886 262.518 69.0277 262.397 69.0632C262.279 69.0964 262.142 69.1259 261.985 69.152C261.832 69.1757 261.681 69.197 261.534 69.2159C261.39 69.2325 261.273 69.2467 261.183 69.2585C260.965 69.2869 260.761 69.3331 260.572 69.397C260.385 69.4586 260.234 69.5521 260.118 69.6776C260.004 69.8007 259.947 69.9687 259.947 70.1818C259.947 70.473 260.055 70.6932 260.27 70.8423C260.488 70.9891 260.764 71.0625 261.098 71.0625Z" fill="#CFD1DE"/>
<path d="M254.231 37.7344L237.074 37.7344C235.401 37.7344 234.044 39.091 234.044 40.7644V54.9304C234.044 56.6039 235.401 57.9604 237.074 57.9604H253.197C254.871 57.9604 256.227 56.6039 256.227 54.9304V44.7151C256.227 43.0416 254.871 41.6851 253.197 41.6851H236.548C235.433 41.6851 234.528 40.7808 234.528 39.6653V39.6653" stroke="#CFD1DE" stroke-width="2.02" stroke-linecap="round" stroke-linejoin="round"/>
<rect width="70" height="2" transform="matrix(1 0 0 -1 308.136 21.6875)" fill="#55B3FF"/>
</g>
<defs>
<filter id="filter0_d_1714_36727" x="-13" y="0.6875" width="416" height="101" filterUnits="userSpaceOnUse" color-interpolation-filters="sRGB">
<feFlood flood-opacity="0" result="BackgroundImageFix"/>
<feColorMatrix in="SourceAlpha" type="matrix" values="0 0 0 0 0 0 0 0 0 0 0 0 0 0 0 0 0 0 127 0" result="hardAlpha"/>
<feOffset dy="-6"/>
<feGaussianBlur stdDeviation="6.5"/>
<feComposite in2="hardAlpha" operator="out"/>
<feColorMatrix type="matrix" values="0 0 0 0 0 0 0 0 0 0 0 0 0 0 0 0 0 0 0.04 0"/>
<feBlend mode="normal" in2="BackgroundImageFix" result="effect1_dropShadow_1714_36727"/>
<feBlend mode="normal" in="SourceGraphic" in2="effect1_dropShadow_1714_36727" result="shape"/>
</filter>
</defs>
</svg>
