<svg width="391" height="94" viewBox="0 0 391 94" fill="none" xmlns="http://www.w3.org/2000/svg">
<g filter="url(#filter0_d_1714_36337)">
<rect x="0.452148" y="19" width="390" height="75" fill="white"/>
<path d="M36.3924 71V63.7273H37.2731V66.9659H41.1509V63.7273H42.0316V71H41.1509V67.7472H37.2731V71H36.3924ZM45.897 71.1136C45.4046 71.1136 44.9725 70.9964 44.6009 70.7621C44.2315 70.5277 43.9427 70.1998 43.7344 69.7784C43.5284 69.357 43.4254 68.8646 43.4254 68.3011C43.4254 67.733 43.5284 67.237 43.7344 66.8132C43.9427 66.3894 44.2315 66.0604 44.6009 65.826C44.9725 65.5916 45.4046 65.4744 45.897 65.4744C46.3894 65.4744 46.8203 65.5916 47.1896 65.826C47.5613 66.0604 47.8501 66.3894 48.0561 66.8132C48.2644 67.237 48.3686 67.733 48.3686 68.3011C48.3686 68.8646 48.2644 69.357 48.0561 69.7784C47.8501 70.1998 47.5613 70.5277 47.1896 70.7621C46.8203 70.9964 46.3894 71.1136 45.897 71.1136ZM45.897 70.3608C46.2711 70.3608 46.5788 70.2649 46.8203 70.0732C47.0618 69.8814 47.2405 69.6293 47.3565 69.3168C47.4725 69.0043 47.5305 68.6657 47.5305 68.3011C47.5305 67.9366 47.4725 67.5968 47.3565 67.282C47.2405 66.9671 47.0618 66.7126 46.8203 66.5185C46.5788 66.3243 46.2711 66.2273 45.897 66.2273C45.523 66.2273 45.2152 66.3243 44.9737 66.5185C44.7322 66.7126 44.5535 66.9671 44.4375 67.282C44.3215 67.5968 44.2635 67.9366 44.2635 68.3011C44.2635 68.6657 44.3215 69.0043 44.4375 69.3168C44.5535 69.6293 44.7322 69.8814 44.9737 70.0732C45.2152 70.2649 45.523 70.3608 45.897 70.3608ZM49.6479 71V65.5455H50.4576V66.3977H50.5286C50.6422 66.1065 50.8257 65.8804 51.079 65.7195C51.3323 65.5561 51.6365 65.4744 51.9917 65.4744C52.3515 65.4744 52.651 65.5561 52.8901 65.7195C53.1316 65.8804 53.3198 66.1065 53.4547 66.3977H53.5115C53.6512 66.116 53.8607 65.8923 54.1401 65.7266C54.4194 65.5585 54.7544 65.4744 55.1451 65.4744C55.6328 65.4744 56.0317 65.6271 56.3418 65.9325C56.6519 66.2356 56.807 66.7079 56.807 67.3494V71H55.9689V67.3494C55.9689 66.947 55.8588 66.6593 55.6387 66.4865C55.4185 66.3137 55.1593 66.2273 54.861 66.2273C54.4775 66.2273 54.1803 66.3433 53.9696 66.5753C53.7589 66.8049 53.6536 67.0961 53.6536 67.4489V71H52.8013V67.2642C52.8013 66.9541 52.7007 66.7043 52.4995 66.5149C52.2982 66.3232 52.039 66.2273 51.7218 66.2273C51.504 66.2273 51.3004 66.2853 51.111 66.4013C50.9239 66.5173 50.7724 66.6783 50.6564 66.8842C50.5428 67.0878 50.486 67.3234 50.486 67.5909V71H49.6479ZM60.6262 71.1136C60.1007 71.1136 59.6473 70.9976 59.2662 70.7656C58.8874 70.5312 58.595 70.2045 58.389 69.7855C58.1854 69.3641 58.0836 68.8741 58.0836 68.3153C58.0836 67.7566 58.1854 67.2642 58.389 66.8381C58.595 66.4096 58.8815 66.0758 59.2484 65.8366C59.6177 65.5952 60.0486 65.4744 60.541 65.4744C60.8251 65.4744 61.1056 65.5218 61.3826 65.6165C61.6596 65.7112 61.9118 65.8651 62.139 66.0781C62.3663 66.2888 62.5474 66.5682 62.6824 66.9162C62.8173 67.2642 62.8848 67.6927 62.8848 68.2017V68.5568H58.6802V67.8324H62.0325C62.0325 67.5246 61.9709 67.25 61.8478 67.0085C61.7271 66.767 61.5543 66.5765 61.3294 66.4368C61.1068 66.2971 60.844 66.2273 60.541 66.2273C60.2072 66.2273 59.9184 66.3101 59.6745 66.4759C59.4331 66.6392 59.2472 66.8523 59.117 67.1151C58.9868 67.3778 58.9217 67.6596 58.9217 67.9602V68.4432C58.9217 68.8551 58.9927 69.2043 59.1348 69.4908C59.2792 69.7749 59.4792 69.9915 59.7349 70.1406C59.9906 70.2874 60.2877 70.3608 60.6262 70.3608C60.8464 70.3608 61.0453 70.33 61.2228 70.2685C61.4028 70.2045 61.5578 70.1098 61.688 69.9844C61.8182 69.8565 61.9189 69.6979 61.9899 69.5085L62.7995 69.7358C62.7143 70.0104 62.5711 70.2519 62.3699 70.4602C62.1686 70.6662 61.92 70.8272 61.6241 70.9432C61.3282 71.0568 60.9956 71.1136 60.6262 71.1136Z" fill="#A0A3BD"/>
<path d="M120.969 71V63.7273H125.358V64.5085H121.849V66.9659H125.131V67.7472H121.849V70.2188H125.415V71H120.969ZM130.695 66.767L129.942 66.9801C129.895 66.8546 129.825 66.7327 129.733 66.6143C129.643 66.4936 129.52 66.3942 129.363 66.3161C129.207 66.2379 129.007 66.1989 128.763 66.1989C128.43 66.1989 128.151 66.2758 127.929 66.4297C127.709 66.5812 127.599 66.7741 127.599 67.0085C127.599 67.2169 127.674 67.3814 127.826 67.5021C127.977 67.6229 128.214 67.7235 128.536 67.804L129.346 68.0028C129.833 68.1212 130.197 68.3023 130.436 68.5462C130.675 68.7876 130.795 69.099 130.795 69.4801C130.795 69.7926 130.705 70.072 130.525 70.3182C130.347 70.5644 130.099 70.7585 129.779 70.9006C129.459 71.0426 129.088 71.1136 128.664 71.1136C128.108 71.1136 127.647 70.9929 127.282 70.7514C126.918 70.5099 126.687 70.1572 126.59 69.6932L127.385 69.4943C127.461 69.7879 127.604 70.008 127.815 70.1548C128.028 70.3016 128.306 70.375 128.65 70.375C129.04 70.375 129.35 70.2921 129.58 70.1264C129.812 69.9583 129.928 69.7571 129.928 69.5227C129.928 69.3333 129.862 69.1747 129.729 69.0469C129.597 68.9167 129.393 68.8196 129.118 68.7557L128.209 68.5426C127.71 68.4242 127.343 68.2408 127.108 67.9922C126.876 67.7412 126.76 67.4276 126.76 67.0511C126.76 66.7434 126.847 66.4711 127.02 66.2344C127.195 65.9976 127.433 65.8118 127.733 65.6768C128.037 65.5419 128.38 65.4744 128.763 65.4744C129.303 65.4744 129.727 65.5928 130.035 65.8295C130.345 66.0663 130.565 66.3788 130.695 66.767ZM134.428 65.5455V66.2557H131.602V65.5455H134.428ZM132.425 64.2386H133.263V69.4375C133.263 69.6742 133.298 69.8518 133.366 69.9702C133.438 70.0862 133.527 70.1643 133.636 70.2045C133.748 70.2424 133.865 70.2614 133.988 70.2614C134.08 70.2614 134.156 70.2566 134.215 70.2472C134.274 70.2353 134.322 70.2259 134.357 70.2188L134.528 70.9716C134.471 70.9929 134.392 71.0142 134.29 71.0355C134.188 71.0592 134.059 71.071 133.903 71.071C133.666 71.071 133.434 71.0201 133.207 70.9183C132.982 70.8165 132.795 70.6615 132.646 70.4531C132.499 70.2448 132.425 69.982 132.425 69.6648V64.2386ZM137.294 71.1278C136.948 71.1278 136.635 71.0627 136.353 70.9325C136.071 70.8 135.848 70.6094 135.682 70.3608C135.516 70.1098 135.433 69.8068 135.433 69.4517C135.433 69.1392 135.495 68.8859 135.618 68.6918C135.741 68.4953 135.906 68.3414 136.112 68.2301C136.317 68.1188 136.545 68.036 136.793 67.9815C137.044 67.9247 137.296 67.8797 137.55 67.8466C137.881 67.804 138.15 67.772 138.356 67.7507C138.564 67.727 138.716 67.688 138.81 67.6335C138.907 67.5791 138.956 67.4844 138.956 67.3494V67.321C138.956 66.9706 138.86 66.6984 138.668 66.5043C138.479 66.3101 138.191 66.2131 137.805 66.2131C137.405 66.2131 137.092 66.3007 136.864 66.4759C136.637 66.651 136.477 66.8381 136.385 67.0369L135.589 66.7528C135.732 66.4214 135.921 66.1634 136.158 65.9787C136.397 65.7917 136.657 65.6615 136.939 65.5881C137.223 65.5123 137.502 65.4744 137.777 65.4744C137.952 65.4744 138.153 65.4957 138.381 65.5384C138.61 65.5786 138.832 65.6626 139.045 65.7905C139.26 65.9183 139.439 66.1113 139.581 66.3693C139.723 66.6274 139.794 66.973 139.794 67.4062V71H138.956V70.2614H138.913C138.857 70.3797 138.762 70.5064 138.629 70.6413C138.497 70.7763 138.32 70.8911 138.1 70.9858C137.88 71.0805 137.611 71.1278 137.294 71.1278ZM137.422 70.375C137.753 70.375 138.033 70.3099 138.26 70.1797C138.49 70.0495 138.662 69.8814 138.778 69.6754C138.897 69.4695 138.956 69.2528 138.956 69.0256V68.2585C138.92 68.3011 138.842 68.3402 138.722 68.3757C138.603 68.4089 138.466 68.4384 138.31 68.4645C138.156 68.4882 138.005 68.5095 137.859 68.5284C137.714 68.545 137.597 68.5592 137.507 68.571C137.289 68.5994 137.086 68.6456 136.896 68.7095C136.709 68.7711 136.558 68.8646 136.442 68.9901C136.328 69.1132 136.271 69.2812 136.271 69.4943C136.271 69.7855 136.379 70.0057 136.594 70.1548C136.812 70.3016 137.088 70.375 137.422 70.375ZM143.383 71.1136C142.929 71.1136 142.528 70.9988 142.18 70.7692C141.831 70.5372 141.559 70.2105 141.363 69.7891C141.166 69.3653 141.068 68.8646 141.068 68.2869C141.068 67.714 141.166 67.2169 141.363 66.7955C141.559 66.3741 141.833 66.0485 142.183 65.8189C142.533 65.5893 142.938 65.4744 143.398 65.4744C143.753 65.4744 144.033 65.5336 144.239 65.652C144.448 65.768 144.606 65.9006 144.715 66.0497C144.826 66.1965 144.913 66.3172 144.974 66.4119H145.045V63.7273H145.883V71H145.074V70.1619H144.974C144.913 70.2614 144.825 70.3868 144.711 70.5384C144.598 70.6875 144.436 70.8213 144.225 70.9396C144.014 71.0556 143.734 71.1136 143.383 71.1136ZM143.497 70.3608C143.833 70.3608 144.117 70.2732 144.349 70.098C144.581 69.9205 144.758 69.6754 144.878 69.3629C144.999 69.0481 145.059 68.6847 145.059 68.2727C145.059 67.8655 145 67.5092 144.882 67.2038C144.764 66.8961 144.588 66.657 144.356 66.4865C144.124 66.3137 143.838 66.2273 143.497 66.2273C143.142 66.2273 142.846 66.3184 142.609 66.5007C142.375 66.6806 142.198 66.9257 142.08 67.2358C141.964 67.5436 141.906 67.8892 141.906 68.2727C141.906 68.661 141.965 69.0137 142.084 69.331C142.204 69.6458 142.382 69.8968 142.616 70.0838C142.853 70.2685 143.147 70.3608 143.497 70.3608ZM147.535 71V65.5455H148.373V71H147.535ZM147.577 64.8068L148.444 63.1591H149.424L148.316 64.8068H147.577ZM153.771 66.767L153.018 66.9801C152.971 66.8546 152.901 66.7327 152.809 66.6143C152.719 66.4936 152.596 66.3942 152.44 66.3161C152.283 66.2379 152.083 66.1989 151.839 66.1989C151.506 66.1989 151.228 66.2758 151.005 66.4297C150.785 66.5812 150.675 66.7741 150.675 67.0085C150.675 67.2169 150.75 67.3814 150.902 67.5021C151.054 67.6229 151.29 67.7235 151.612 67.804L152.422 68.0028C152.91 68.1212 153.273 68.3023 153.512 68.5462C153.751 68.7876 153.871 69.099 153.871 69.4801C153.871 69.7926 153.781 70.072 153.601 70.3182C153.423 70.5644 153.175 70.7585 152.855 70.9006C152.536 71.0426 152.164 71.1136 151.74 71.1136C151.184 71.1136 150.723 70.9929 150.359 70.7514C149.994 70.5099 149.763 70.1572 149.666 69.6932L150.462 69.4943C150.537 69.7879 150.681 70.008 150.891 70.1548C151.104 70.3016 151.383 70.375 151.726 70.375C152.116 70.375 152.427 70.2921 152.656 70.1264C152.888 69.9583 153.004 69.7571 153.004 69.5227C153.004 69.3333 152.938 69.1747 152.805 69.0469C152.673 68.9167 152.469 68.8196 152.195 68.7557L151.286 68.5426C150.786 68.4242 150.419 68.2408 150.185 67.9922C149.953 67.7412 149.837 67.4276 149.837 67.0511C149.837 66.7434 149.923 66.4711 150.096 66.2344C150.271 65.9976 150.509 65.8118 150.81 65.6768C151.113 65.5419 151.456 65.4744 151.839 65.4744C152.379 65.4744 152.803 65.5928 153.111 65.8295C153.421 66.0663 153.641 66.3788 153.771 66.767ZM157.504 65.5455V66.2557H154.678V65.5455H157.504ZM155.502 64.2386H156.34V69.4375C156.34 69.6742 156.374 69.8518 156.443 69.9702C156.514 70.0862 156.604 70.1643 156.713 70.2045C156.824 70.2424 156.941 70.2614 157.064 70.2614C157.156 70.2614 157.232 70.2566 157.291 70.2472C157.351 70.2353 157.398 70.2259 157.433 70.2188L157.604 70.9716C157.547 70.9929 157.468 71.0142 157.366 71.0355C157.264 71.0592 157.135 71.071 156.979 71.071C156.742 71.071 156.51 71.0201 156.283 70.9183C156.058 70.8165 155.871 70.6615 155.722 70.4531C155.575 70.2448 155.502 69.982 155.502 69.6648V64.2386ZM158.765 71V65.5455H159.603V71H158.765ZM159.191 64.6364C159.028 64.6364 158.887 64.5807 158.769 64.4695C158.653 64.3582 158.595 64.2244 158.595 64.0682C158.595 63.9119 158.653 63.7782 158.769 63.6669C158.887 63.5556 159.028 63.5 159.191 63.5C159.355 63.5 159.494 63.5556 159.61 63.6669C159.729 63.7782 159.788 63.9119 159.788 64.0682C159.788 64.2244 159.729 64.3582 159.61 64.4695C159.494 64.5807 159.355 64.6364 159.191 64.6364ZM163.354 71.1136C162.843 71.1136 162.402 70.9929 162.033 70.7514C161.664 70.5099 161.38 70.1773 161.181 69.7536C160.982 69.3298 160.882 68.8456 160.882 68.3011C160.882 67.7472 160.984 67.2583 161.188 66.8345C161.394 66.4084 161.68 66.0758 162.047 65.8366C162.417 65.5952 162.847 65.4744 163.34 65.4744C163.723 65.4744 164.069 65.5455 164.377 65.6875C164.685 65.8295 164.937 66.0284 165.133 66.2841C165.33 66.5398 165.452 66.8381 165.499 67.179H164.661C164.597 66.9304 164.455 66.7102 164.235 66.5185C164.017 66.3243 163.723 66.2273 163.354 66.2273C163.027 66.2273 162.741 66.3125 162.495 66.483C162.251 66.651 162.06 66.889 161.923 67.1967C161.788 67.5021 161.721 67.8608 161.721 68.2727C161.721 68.6941 161.787 69.0611 161.919 69.3736C162.054 69.6861 162.244 69.9287 162.488 70.1016C162.734 70.2744 163.023 70.3608 163.354 70.3608C163.572 70.3608 163.77 70.3229 163.947 70.2472C164.125 70.1714 164.275 70.0625 164.398 69.9205C164.521 69.7784 164.609 69.608 164.661 69.4091H165.499C165.452 69.7311 165.334 70.0211 165.147 70.2791C164.963 70.5348 164.718 70.7384 164.412 70.8899C164.109 71.0391 163.757 71.1136 163.354 71.1136ZM168.329 71.1278C167.984 71.1278 167.67 71.0627 167.388 70.9325C167.106 70.8 166.883 70.6094 166.717 70.3608C166.551 70.1098 166.468 69.8068 166.468 69.4517C166.468 69.1392 166.53 68.8859 166.653 68.6918C166.776 68.4953 166.941 68.3414 167.147 68.2301C167.353 68.1188 167.58 68.036 167.828 67.9815C168.079 67.9247 168.332 67.8797 168.585 67.8466C168.916 67.804 169.185 67.772 169.391 67.7507C169.599 67.727 169.751 67.688 169.846 67.6335C169.943 67.5791 169.991 67.4844 169.991 67.3494V67.321C169.991 66.9706 169.895 66.6984 169.703 66.5043C169.514 66.3101 169.226 66.2131 168.841 66.2131C168.44 66.2131 168.127 66.3007 167.9 66.4759C167.672 66.651 167.512 66.8381 167.42 67.0369L166.625 66.7528C166.767 66.4214 166.956 66.1634 167.193 65.9787C167.432 65.7917 167.692 65.6615 167.974 65.5881C168.258 65.5123 168.538 65.4744 168.812 65.4744C168.987 65.4744 169.189 65.4957 169.416 65.5384C169.645 65.5786 169.867 65.6626 170.08 65.7905C170.295 65.9183 170.474 66.1113 170.616 66.3693C170.758 66.6274 170.829 66.973 170.829 67.4062V71H169.991V70.2614H169.949C169.892 70.3797 169.797 70.5064 169.664 70.6413C169.532 70.7763 169.355 70.8911 169.135 70.9858C168.915 71.0805 168.646 71.1278 168.329 71.1278ZM168.457 70.375C168.788 70.375 169.068 70.3099 169.295 70.1797C169.525 70.0495 169.698 69.8814 169.814 69.6754C169.932 69.4695 169.991 69.2528 169.991 69.0256V68.2585C169.956 68.3011 169.877 68.3402 169.757 68.3757C169.638 68.4089 169.501 68.4384 169.345 68.4645C169.191 68.4882 169.041 68.5095 168.894 68.5284C168.749 68.545 168.632 68.5592 168.542 68.571C168.324 68.5994 168.121 68.6456 167.931 68.7095C167.744 68.7711 167.593 68.8646 167.477 68.9901C167.363 69.1132 167.306 69.2812 167.306 69.4943C167.306 69.7855 167.414 70.0057 167.63 70.1548C167.847 70.3016 168.123 70.375 168.457 70.375ZM176.222 66.767L175.47 66.9801C175.422 66.8546 175.352 66.7327 175.26 66.6143C175.17 66.4936 175.047 66.3942 174.891 66.3161C174.735 66.2379 174.535 66.1989 174.291 66.1989C173.957 66.1989 173.679 66.2758 173.456 66.4297C173.236 66.5812 173.126 66.7741 173.126 67.0085C173.126 67.2169 173.202 67.3814 173.353 67.5021C173.505 67.6229 173.741 67.7235 174.063 67.804L174.873 68.0028C175.361 68.1212 175.724 68.3023 175.963 68.5462C176.202 68.7876 176.322 69.099 176.322 69.4801C176.322 69.7926 176.232 70.072 176.052 70.3182C175.874 70.5644 175.626 70.7585 175.306 70.9006C174.987 71.0426 174.615 71.1136 174.191 71.1136C173.635 71.1136 173.174 70.9929 172.81 70.7514C172.445 70.5099 172.214 70.1572 172.117 69.6932L172.913 69.4943C172.989 69.7879 173.132 70.008 173.343 70.1548C173.556 70.3016 173.834 70.375 174.177 70.375C174.568 70.375 174.878 70.2921 175.107 70.1264C175.339 69.9583 175.455 69.7571 175.455 69.5227C175.455 69.3333 175.389 69.1747 175.257 69.0469C175.124 68.9167 174.92 68.8196 174.646 68.7557L173.737 68.5426C173.237 68.4242 172.87 68.2408 172.636 67.9922C172.404 67.7412 172.288 67.4276 172.288 67.0511C172.288 66.7434 172.374 66.4711 172.547 66.2344C172.722 65.9976 172.96 65.8118 173.261 65.6768C173.564 65.5419 173.907 65.4744 174.291 65.4744C174.83 65.4744 175.254 65.5928 175.562 65.8295C175.872 66.0663 176.092 66.3788 176.222 66.767Z" fill="#A0A3BD"/>
<path d="M220.724 71V63.7273H223.182C223.752 63.7273 224.219 63.8303 224.581 64.0362C224.946 64.2398 225.215 64.5156 225.391 64.8636C225.566 65.2116 225.653 65.5999 225.653 66.0284C225.653 66.4569 225.566 66.8464 225.391 67.1967C225.218 67.5471 224.95 67.8265 224.588 68.0348C224.226 68.2408 223.762 68.3438 223.196 68.3438H221.435V67.5625H223.168C223.558 67.5625 223.872 67.495 224.109 67.3601C224.345 67.2251 224.517 67.0429 224.624 66.8132C224.732 66.5812 224.787 66.3196 224.787 66.0284C224.787 65.7372 224.732 65.4768 224.624 65.2472C224.517 65.0175 224.344 64.8376 224.105 64.7074C223.866 64.5748 223.549 64.5085 223.153 64.5085H221.605V71H220.724ZM226.958 71V65.5455H227.768V66.3693H227.825C227.924 66.0994 228.104 65.8804 228.365 65.7124C228.625 65.5443 228.919 65.4602 229.245 65.4602C229.307 65.4602 229.384 65.4614 229.476 65.4638C229.569 65.4661 229.638 65.4697 229.686 65.4744V66.3267C229.657 66.3196 229.592 66.3089 229.49 66.2947C229.391 66.2782 229.286 66.2699 229.174 66.2699C228.909 66.2699 228.672 66.3255 228.464 66.4368C228.258 66.5457 228.095 66.6972 227.974 66.8913C227.856 67.0831 227.797 67.3021 227.797 67.5483V71H226.958ZM232.729 71.1136C232.237 71.1136 231.805 70.9964 231.433 70.7621C231.064 70.5277 230.775 70.1998 230.566 69.7784C230.36 69.357 230.257 68.8646 230.257 68.3011C230.257 67.733 230.36 67.237 230.566 66.8132C230.775 66.3894 231.064 66.0604 231.433 65.826C231.805 65.5916 232.237 65.4744 232.729 65.4744C233.221 65.4744 233.652 65.5916 234.022 65.826C234.393 66.0604 234.682 66.3894 234.888 66.8132C235.096 67.237 235.201 67.733 235.201 68.3011C235.201 68.8646 235.096 69.357 234.888 69.7784C234.682 70.1998 234.393 70.5277 234.022 70.7621C233.652 70.9964 233.221 71.1136 232.729 71.1136ZM232.729 70.3608C233.103 70.3608 233.411 70.2649 233.652 70.0732C233.894 69.8814 234.073 69.6293 234.189 69.3168C234.305 69.0043 234.363 68.6657 234.363 68.3011C234.363 67.9366 234.305 67.5968 234.189 67.282C234.073 66.9671 233.894 66.7126 233.652 66.5185C233.411 66.3243 233.103 66.2273 232.729 66.2273C232.355 66.2273 232.047 66.3243 231.806 66.5185C231.564 66.7126 231.386 66.9671 231.27 67.282C231.154 67.5968 231.096 67.9366 231.096 68.3011C231.096 68.6657 231.154 69.0043 231.27 69.3168C231.386 69.6293 231.564 69.8814 231.806 70.0732C232.047 70.2649 232.355 70.3608 232.729 70.3608ZM236.824 73.0455C236.682 73.0455 236.556 73.0336 236.444 73.0099C236.333 72.9886 236.256 72.9673 236.214 72.946L236.427 72.2074C236.63 72.2595 236.81 72.2784 236.966 72.2642C237.123 72.25 237.261 72.1802 237.382 72.0547C237.505 71.9316 237.617 71.7315 237.719 71.4545L237.876 71.0284L235.858 65.5455H236.768L238.273 69.892H238.33L239.836 65.5455H240.745L238.43 71.7955C238.325 72.0772 238.196 72.3104 238.042 72.495C237.889 72.6821 237.71 72.8205 237.506 72.9105C237.305 73.0005 237.078 73.0455 236.824 73.0455ZM243.943 71.1136C243.417 71.1136 242.964 70.9976 242.583 70.7656C242.204 70.5312 241.911 70.2045 241.705 69.7855C241.502 69.3641 241.4 68.8741 241.4 68.3153C241.4 67.7566 241.502 67.2642 241.705 66.8381C241.911 66.4096 242.198 66.0758 242.565 65.8366C242.934 65.5952 243.365 65.4744 243.857 65.4744C244.142 65.4744 244.422 65.5218 244.699 65.6165C244.976 65.7112 245.228 65.8651 245.455 66.0781C245.683 66.2888 245.864 66.5682 245.999 66.9162C246.134 67.2642 246.201 67.6927 246.201 68.2017V68.5568H241.997V67.8324H245.349C245.349 67.5246 245.287 67.25 245.164 67.0085C245.044 66.767 244.871 66.5765 244.646 66.4368C244.423 66.2971 244.16 66.2273 243.857 66.2273C243.524 66.2273 243.235 66.3101 242.991 66.4759C242.749 66.6392 242.564 66.8523 242.433 67.1151C242.303 67.3778 242.238 67.6596 242.238 67.9602V68.4432C242.238 68.8551 242.309 69.2043 242.451 69.4908C242.596 69.7749 242.796 69.9915 243.051 70.1406C243.307 70.2874 243.604 70.3608 243.943 70.3608C244.163 70.3608 244.362 70.33 244.539 70.2685C244.719 70.2045 244.874 70.1098 245.004 69.9844C245.135 69.8565 245.235 69.6979 245.306 69.5085L246.116 69.7358C246.031 70.0104 245.887 70.2519 245.686 70.4602C245.485 70.6662 245.236 70.8272 244.941 70.9432C244.645 71.0568 244.312 71.1136 243.943 71.1136ZM249.692 71.1136C249.181 71.1136 248.74 70.9929 248.371 70.7514C248.002 70.5099 247.718 70.1773 247.519 69.7536C247.32 69.3298 247.22 68.8456 247.22 68.3011C247.22 67.7472 247.322 67.2583 247.526 66.8345C247.732 66.4084 248.018 66.0758 248.385 65.8366C248.754 65.5952 249.185 65.4744 249.678 65.4744C250.061 65.4744 250.407 65.5455 250.715 65.6875C251.022 65.8295 251.275 66.0284 251.471 66.2841C251.668 66.5398 251.789 66.8381 251.837 67.179H250.999C250.935 66.9304 250.793 66.7102 250.573 66.5185C250.355 66.3243 250.061 66.2273 249.692 66.2273C249.365 66.2273 249.079 66.3125 248.833 66.483C248.589 66.651 248.398 66.889 248.261 67.1967C248.126 67.5021 248.058 67.8608 248.058 68.2727C248.058 68.6941 248.125 69.0611 248.257 69.3736C248.392 69.6861 248.582 69.9287 248.825 70.1016C249.072 70.2744 249.36 70.3608 249.692 70.3608C249.91 70.3608 250.107 70.3229 250.285 70.2472C250.463 70.1714 250.613 70.0625 250.736 69.9205C250.859 69.7784 250.947 69.608 250.999 69.4091H251.837C251.789 69.7311 251.672 70.0211 251.485 70.2791C251.301 70.5348 251.056 70.7384 250.75 70.8899C250.447 71.0391 250.094 71.1136 249.692 71.1136ZM255.434 65.5455V66.2557H252.607V65.5455H255.434ZM253.431 64.2386H254.269V69.4375C254.269 69.6742 254.304 69.8518 254.372 69.9702C254.443 70.0862 254.533 70.1643 254.642 70.2045C254.753 70.2424 254.871 70.2614 254.994 70.2614C255.086 70.2614 255.162 70.2566 255.221 70.2472C255.28 70.2353 255.328 70.2259 255.363 70.2188L255.534 70.9716C255.477 70.9929 255.397 71.0142 255.296 71.0355C255.194 71.0592 255.065 71.071 254.909 71.071C254.672 71.071 254.44 71.0201 254.213 70.9183C253.988 70.8165 253.801 70.6615 253.651 70.4531C253.505 70.2448 253.431 69.982 253.431 69.6648V64.2386ZM258.852 71.1136C258.36 71.1136 257.928 70.9964 257.556 70.7621C257.187 70.5277 256.898 70.1998 256.689 69.7784C256.483 69.357 256.381 68.8646 256.381 68.3011C256.381 67.733 256.483 67.237 256.689 66.8132C256.898 66.3894 257.187 66.0604 257.556 65.826C257.928 65.5916 258.36 65.4744 258.852 65.4744C259.345 65.4744 259.775 65.5916 260.145 65.826C260.516 66.0604 260.805 66.3894 261.011 66.8132C261.22 67.237 261.324 67.733 261.324 68.3011C261.324 68.8646 261.22 69.357 261.011 69.7784C260.805 70.1998 260.516 70.5277 260.145 70.7621C259.775 70.9964 259.345 71.1136 258.852 71.1136ZM258.852 70.3608C259.226 70.3608 259.534 70.2649 259.775 70.0732C260.017 69.8814 260.196 69.6293 260.312 69.3168C260.428 69.0043 260.486 68.6657 260.486 68.3011C260.486 67.9366 260.428 67.5968 260.312 67.282C260.196 66.9671 260.017 66.7126 259.775 66.5185C259.534 66.3243 259.226 66.2273 258.852 66.2273C258.478 66.2273 258.17 66.3243 257.929 66.5185C257.687 66.7126 257.509 66.9671 257.393 67.282C257.277 67.5968 257.219 67.9366 257.219 68.3011C257.219 68.6657 257.277 69.0043 257.393 69.3168C257.509 69.6293 257.687 69.8814 257.929 70.0732C258.17 70.2649 258.478 70.3608 258.852 70.3608ZM266.467 66.767L265.714 66.9801C265.666 66.8546 265.597 66.7327 265.504 66.6143C265.414 66.4936 265.291 66.3942 265.135 66.3161C264.979 66.2379 264.779 66.1989 264.535 66.1989C264.201 66.1989 263.923 66.2758 263.7 66.4297C263.48 66.5812 263.37 66.7741 263.37 67.0085C263.37 67.2169 263.446 67.3814 263.597 67.5021C263.749 67.6229 263.986 67.7235 264.308 67.804L265.117 68.0028C265.605 68.1212 265.968 68.3023 266.207 68.5462C266.446 68.7876 266.566 69.099 266.566 69.4801C266.566 69.7926 266.476 70.072 266.296 70.3182C266.119 70.5644 265.87 70.7585 265.55 70.9006C265.231 71.0426 264.859 71.1136 264.435 71.1136C263.879 71.1136 263.419 70.9929 263.054 70.7514C262.689 70.5099 262.459 70.1572 262.362 69.6932L263.157 69.4943C263.233 69.7879 263.376 70.008 263.587 70.1548C263.8 70.3016 264.078 70.375 264.421 70.375C264.812 70.375 265.122 70.2921 265.352 70.1264C265.584 69.9583 265.7 69.7571 265.7 69.5227C265.7 69.3333 265.633 69.1747 265.501 69.0469C265.368 68.9167 265.165 68.8196 264.89 68.7557L263.981 68.5426C263.481 68.4242 263.114 68.2408 262.88 67.9922C262.648 67.7412 262.532 67.4276 262.532 67.0511C262.532 66.7434 262.618 66.4711 262.791 66.2344C262.966 65.9976 263.204 65.8118 263.505 65.6768C263.808 65.5419 264.151 65.4744 264.535 65.4744C265.075 65.4744 265.498 65.5928 265.806 65.8295C266.116 66.0663 266.336 66.3788 266.467 66.767Z" fill="#A0A3BD"/>
<g opacity="0.5">
<path d="M39.4746 42.9751C39.4746 42.0215 39.9279 41.1248 40.6958 40.5594L49.5876 34.0117L58.4795 40.5594C59.2474 41.1248 59.7007 42.0215 59.7007 42.9751V53.7604C59.7007 55.1411 58.5814 56.2604 57.2007 56.2604H53.6215C53.0693 56.2604 52.6215 55.8127 52.6215 55.2604V49.1756C52.6215 48.8995 52.3977 48.6756 52.1215 48.6756H47.0537C46.7776 48.6756 46.5537 48.8995 46.5537 49.1756V55.2604C46.5537 55.8127 46.106 56.2604 45.5537 56.2604H41.9746C40.5939 56.2604 39.4746 55.1411 39.4746 53.7604V42.9751Z" stroke="#A0A3BD" stroke-width="2.02261" stroke-linecap="round" stroke-linejoin="round"/>
</g>
<path d="M156.953 48.9952C156.335 50.5247 155.352 51.8799 154.09 52.9425C152.829 54.005 151.326 54.7428 149.714 55.0914C148.101 55.44 146.428 55.3889 144.84 54.9425C143.252 54.4961 141.797 53.668 140.602 52.5303C139.408 51.3927 138.509 49.9801 137.986 48.4157C137.463 46.8513 137.33 45.1826 137.599 43.5551C137.869 41.9275 138.532 40.3907 139.532 39.0784C140.531 37.7661 141.837 36.7184 143.334 36.0264" stroke="#CFD1DE" stroke-width="2.02261" stroke-linecap="round"/>
<path d="M152.458 34.8518C151.699 34.5377 150.907 34.3177 150.099 34.1956C149.271 34.0704 148.588 34.7612 148.588 35.599L148.588 42.6781C148.588 43.5159 149.267 44.1951 150.105 44.1951L157.184 44.1951C158.022 44.1951 158.712 43.5122 158.587 42.6838C158.465 41.8757 158.245 41.0835 157.931 40.325C157.423 39.098 156.678 37.9832 155.739 37.0441C154.8 36.105 153.685 35.3601 152.458 34.8518Z" stroke="#CFD1DE" stroke-width="2.02261" stroke-linecap="round"/>
<path d="M238.531 36.0332H237.52C235.844 36.0332 234.486 37.3915 234.486 39.0671V53.2254C234.486 54.9009 235.844 56.2593 237.52 56.2593H249.655C251.331 56.2593 252.689 54.9009 252.689 53.2254V39.0671C252.689 37.3915 251.331 36.0332 249.655 36.0332H248.644" stroke="#CFD1DE" stroke-width="2.02261"/>
<rect x="238.531" y="34.0117" width="10.113" height="5.05651" rx="2.02261" stroke="#CFD1DE" stroke-width="2.02261"/>
<path d="M330.072 71V63.7273H332.529C333.1 63.7273 333.566 63.8303 333.929 64.0362C334.293 64.2398 334.563 64.5156 334.738 64.8636C334.913 65.2116 335.001 65.5999 335.001 66.0284C335.001 66.4569 334.913 66.8464 334.738 67.1967C334.565 67.5471 334.298 67.8265 333.936 68.0348C333.574 68.2408 333.109 68.3438 332.544 68.3438H330.782V67.5625H332.515C332.906 67.5625 333.22 67.495 333.456 67.3601C333.693 67.2251 333.865 67.0429 333.971 66.8132C334.08 66.5812 334.135 66.3196 334.135 66.0284C334.135 65.7372 334.08 65.4768 333.971 65.2472C333.865 65.0175 333.692 64.8376 333.453 64.7074C333.214 64.5748 332.896 64.5085 332.501 64.5085H330.953V71H330.072ZM338.534 71.1136C338.009 71.1136 337.556 70.9976 337.174 70.7656C336.796 70.5312 336.503 70.2045 336.297 69.7855C336.094 69.3641 335.992 68.8741 335.992 68.3153C335.992 67.7566 336.094 67.2642 336.297 66.8381C336.503 66.4096 336.79 66.0758 337.157 65.8366C337.526 65.5952 337.957 65.4744 338.449 65.4744C338.733 65.4744 339.014 65.5218 339.291 65.6165C339.568 65.7112 339.82 65.8651 340.047 66.0781C340.275 66.2888 340.456 66.5682 340.591 66.9162C340.725 67.2642 340.793 67.6927 340.793 68.2017V68.5568H336.588V67.8324H339.941C339.941 67.5246 339.879 67.25 339.756 67.0085C339.635 66.767 339.462 66.5765 339.238 66.4368C339.015 66.2971 338.752 66.2273 338.449 66.2273C338.115 66.2273 337.827 66.3101 337.583 66.4759C337.341 66.6392 337.155 66.8523 337.025 67.1151C336.895 67.3778 336.83 67.6596 336.83 67.9602V68.4432C336.83 68.8551 336.901 69.2043 337.043 69.4908C337.187 69.7749 337.387 69.9915 337.643 70.1406C337.899 70.2874 338.196 70.3608 338.534 70.3608C338.755 70.3608 338.953 70.33 339.131 70.2685C339.311 70.2045 339.466 70.1098 339.596 69.9844C339.726 69.8565 339.827 69.6979 339.898 69.5085L340.708 69.7358C340.623 70.0104 340.479 70.2519 340.278 70.4602C340.077 70.6662 339.828 70.8272 339.532 70.9432C339.236 71.0568 338.904 71.1136 338.534 71.1136ZM342.068 71V65.5455H342.877V66.3693H342.934C343.034 66.0994 343.214 65.8804 343.474 65.7124C343.734 65.5443 344.028 65.4602 344.355 65.4602C344.416 65.4602 344.493 65.4614 344.586 65.4638C344.678 65.4661 344.748 65.4697 344.795 65.4744V66.3267C344.767 66.3196 344.702 66.3089 344.6 66.2947C344.5 66.2782 344.395 66.2699 344.284 66.2699C344.019 66.2699 343.782 66.3255 343.574 66.4368C343.368 66.5457 343.204 66.6972 343.083 66.8913C342.965 67.0831 342.906 67.3021 342.906 67.5483V71H342.068ZM348.559 65.5455V66.2557H345.619V65.5455H348.559ZM346.5 71V64.7926C346.5 64.4801 346.573 64.2197 346.72 64.0114C346.867 63.803 347.057 63.6468 347.292 63.5426C347.526 63.4384 347.773 63.3864 348.034 63.3864C348.24 63.3864 348.408 63.4029 348.538 63.4361C348.668 63.4692 348.765 63.5 348.829 63.5284L348.588 64.2528C348.545 64.2386 348.486 64.2209 348.41 64.1996C348.337 64.1783 348.24 64.1676 348.119 64.1676C347.842 64.1676 347.642 64.2375 347.519 64.3771C347.398 64.5168 347.338 64.7216 347.338 64.9915V71H346.5ZM349.734 71V65.5455H350.572V71H349.734ZM350.16 64.6364C349.997 64.6364 349.856 64.5807 349.737 64.4695C349.621 64.3582 349.563 64.2244 349.563 64.0682C349.563 63.9119 349.621 63.7782 349.737 63.6669C349.856 63.5556 349.997 63.5 350.16 63.5C350.323 63.5 350.463 63.5556 350.579 63.6669C350.697 63.7782 350.757 63.9119 350.757 64.0682C350.757 64.2244 350.697 64.3582 350.579 64.4695C350.463 64.5807 350.323 64.6364 350.16 64.6364ZM352.945 63.7273V71H352.107V63.7273H352.945Z" fill="#389BEC"/>
<g opacity="0.5">
<path d="M332.486 54.7421L332.657 53.642C332.866 52.3011 333.74 51.1526 335.037 50.7511C336.646 50.2525 339.038 49.6855 341.588 49.6855C344.138 49.6855 346.529 50.2525 348.139 50.7511C349.435 51.1526 350.31 52.3011 350.518 53.642L350.689 54.7421" stroke="#389BEC" stroke-width="2.02261" stroke-linecap="round" stroke-linejoin="round"/>
<path d="M341.588 45.1365C344.38 45.1365 346.644 42.8726 346.644 40.08C346.644 37.2873 344.38 35.0234 341.588 35.0234C338.795 35.0234 336.531 37.2873 336.531 40.08C336.531 42.8726 338.795 45.1365 341.588 45.1365Z" stroke="#389BEC" stroke-width="2.02261" stroke-linecap="round" stroke-linejoin="round"/>
</g>
<rect width="81" height="2" transform="matrix(1 0 0 -1 301.452 21)" fill="#55B3FF"/>
</g>
<defs>
<filter id="filter0_d_1714_36337" x="-12.5479" y="0" width="416" height="101" filterUnits="userSpaceOnUse" color-interpolation-filters="sRGB">
<feFlood flood-opacity="0" result="BackgroundImageFix"/>
<feColorMatrix in="SourceAlpha" type="matrix" values="0 0 0 0 0 0 0 0 0 0 0 0 0 0 0 0 0 0 127 0" result="hardAlpha"/>
<feOffset dy="-6"/>
<feGaussianBlur stdDeviation="6.5"/>
<feComposite in2="hardAlpha" operator="out"/>
<feColorMatrix type="matrix" values="0 0 0 0 0 0 0 0 0 0 0 0 0 0 0 0 0 0 0.04 0"/>
<feBlend mode="normal" in2="BackgroundImageFix" result="effect1_dropShadow_1714_36337"/>
<feBlend mode="normal" in="SourceGraphic" in2="effect1_dropShadow_1714_36337" result="shape"/>
</filter>
</defs>
</svg>
