<svg width="391" height="95" viewBox="0 0 391 95" fill="none" xmlns="http://www.w3.org/2000/svg">
<g filter="url(#filter0_d_1714_36933)">
<path d="M0.357422 19.2695H390.357V94.2695H0.357422V19.2695Z" fill="white"/>
<path d="M335.392 56.0116L335.563 54.9115C335.771 53.5706 336.646 52.4221 337.942 52.0207C339.552 51.5221 341.943 50.9551 344.493 50.9551C347.043 50.9551 349.435 51.5221 351.044 52.0207C352.341 52.4221 353.215 53.5706 353.424 54.9115L353.595 56.0116" stroke="#CFD1DE" stroke-width="2.02261" stroke-linecap="round" stroke-linejoin="round"/>
<path d="M344.493 46.406C347.286 46.406 349.55 44.1421 349.55 41.3495C349.55 38.5568 347.286 36.293 344.493 36.293C341.7 36.293 339.437 38.5568 339.437 41.3495C339.437 44.1421 341.7 46.406 344.493 46.406Z" stroke="#CFD1DE" stroke-width="2.02261" stroke-linecap="round" stroke-linejoin="round"/>
<path d="M332.113 71.2695V63.9968H334.57C335.141 63.9968 335.607 64.0998 335.97 64.3058C336.334 64.5094 336.604 64.7852 336.779 65.1332C336.954 65.4812 337.042 65.8694 337.042 66.2979C337.042 66.7264 336.954 67.1159 336.779 67.4663C336.606 67.8166 336.339 68.096 335.977 68.3043C335.615 68.5103 335.151 68.6133 334.585 68.6133H332.823V67.832H334.556C334.947 67.832 335.261 67.7646 335.497 67.6296C335.734 67.4947 335.906 67.3124 336.012 67.0827C336.121 66.8507 336.176 66.5891 336.176 66.2979C336.176 66.0067 336.121 65.7463 336.012 65.5167C335.906 65.2871 335.733 65.1071 335.494 64.9769C335.255 64.8443 334.937 64.7781 334.542 64.7781H332.994V71.2695H332.113ZM340.575 71.3832C340.05 71.3832 339.597 71.2672 339.215 71.0352C338.837 70.8008 338.544 70.4741 338.338 70.055C338.135 69.6336 338.033 69.1436 338.033 68.5849C338.033 68.0262 338.135 67.5337 338.338 67.1076C338.544 66.6791 338.831 66.3453 339.198 66.1062C339.567 65.8647 339.998 65.744 340.49 65.744C340.774 65.744 341.055 65.7913 341.332 65.886C341.609 65.9807 341.861 66.1346 342.088 66.3477C342.316 66.5584 342.497 66.8377 342.632 67.1857C342.767 67.5337 342.834 67.9622 342.834 68.4712V68.8263H338.629V68.1019H341.982C341.982 67.7942 341.92 67.5195 341.797 67.2781C341.676 67.0366 341.503 66.846 341.279 66.7063C341.056 66.5666 340.793 66.4968 340.49 66.4968C340.156 66.4968 339.868 66.5797 339.624 66.7454C339.382 66.9087 339.196 67.1218 339.066 67.3846C338.936 67.6474 338.871 67.9291 338.871 68.2298V68.7127C338.871 69.1246 338.942 69.4738 339.084 69.7603C339.228 70.0444 339.428 70.261 339.684 70.4102C339.94 70.5569 340.237 70.6303 340.575 70.6303C340.796 70.6303 340.994 70.5996 341.172 70.538C341.352 70.4741 341.507 70.3794 341.637 70.2539C341.767 70.1261 341.868 69.9674 341.939 69.7781L342.749 70.0053C342.664 70.2799 342.52 70.5214 342.319 70.7298C342.118 70.9357 341.869 71.0967 341.573 71.2127C341.277 71.3263 340.945 71.3832 340.575 71.3832ZM344.109 71.2695V65.815H344.919V66.6388H344.975C345.075 66.369 345.255 66.15 345.515 65.9819C345.776 65.8138 346.069 65.7298 346.396 65.7298C346.457 65.7298 346.534 65.7309 346.627 65.7333C346.719 65.7357 346.789 65.7392 346.836 65.744V66.5962C346.808 66.5891 346.743 66.5785 346.641 66.5643C346.541 66.5477 346.436 66.5394 346.325 66.5394C346.06 66.5394 345.823 66.5951 345.615 66.7063C345.409 66.8152 345.245 66.9667 345.124 67.1609C345.006 67.3526 344.947 67.5716 344.947 67.8178V71.2695H344.109ZM350.6 65.815V66.5252H347.66V65.815H350.6ZM348.541 71.2695V65.0621C348.541 64.7496 348.614 64.4892 348.761 64.2809C348.908 64.0726 349.098 63.9163 349.333 63.8121C349.567 63.708 349.814 63.6559 350.075 63.6559C350.281 63.6559 350.449 63.6725 350.579 63.7056C350.709 63.7388 350.806 63.7695 350.87 63.7979L350.629 64.5224C350.586 64.5082 350.527 64.4904 350.451 64.4691C350.378 64.4478 350.281 64.4371 350.16 64.4371C349.883 64.4371 349.683 64.507 349.56 64.6467C349.439 64.7863 349.379 64.9911 349.379 65.261V71.2695H348.541ZM351.775 71.2695V65.815H352.613V71.2695H351.775ZM352.201 64.9059C352.038 64.9059 351.897 64.8503 351.778 64.739C351.662 64.6277 351.604 64.494 351.604 64.3377C351.604 64.1815 351.662 64.0477 351.778 63.9364C351.897 63.8252 352.038 63.7695 352.201 63.7695C352.364 63.7695 352.504 63.8252 352.62 63.9364C352.738 64.0477 352.798 64.1815 352.798 64.3377C352.798 64.494 352.738 64.6277 352.62 64.739C352.504 64.8503 352.364 64.9059 352.201 64.9059ZM354.986 63.9968V71.2695H354.148V63.9968H354.986Z" fill="#CFD1DE"/>
<path d="M142.437 37.3027H141.426C139.75 37.3027 138.392 38.6611 138.392 40.3366V54.4949C138.392 56.1705 139.75 57.5288 141.426 57.5288H153.561C155.237 57.5288 156.595 56.1705 156.595 54.4949V40.3366C156.595 38.6611 155.237 37.3027 153.561 37.3027H152.55" stroke="#CFD1DE" stroke-width="2.02261"/>
<rect x="142.437" y="35.2812" width="10.113" height="5.05651" rx="2.02261" stroke="#CFD1DE" stroke-width="2.02261"/>
<path d="M124.765 71.2695V63.9968H127.223C127.793 63.9968 128.26 64.0998 128.622 64.3058C128.987 64.5094 129.256 64.7852 129.432 65.1332C129.607 65.4812 129.694 65.8694 129.694 66.2979C129.694 66.7264 129.607 67.1159 129.432 67.4663C129.259 67.8166 128.991 68.096 128.629 68.3043C128.267 68.5103 127.803 68.6133 127.237 68.6133H125.476V67.832H127.209C127.599 67.832 127.913 67.7646 128.15 67.6296C128.386 67.4947 128.558 67.3124 128.665 67.0827C128.773 66.8507 128.828 66.5891 128.828 66.2979C128.828 66.0067 128.773 65.7463 128.665 65.5167C128.558 65.2871 128.385 65.1071 128.146 64.9769C127.907 64.8443 127.59 64.7781 127.194 64.7781H125.646V71.2695H124.765ZM130.999 71.2695V65.815H131.809V66.6388H131.866C131.965 66.369 132.145 66.15 132.406 65.9819C132.666 65.8138 132.96 65.7298 133.286 65.7298C133.348 65.7298 133.425 65.7309 133.517 65.7333C133.61 65.7357 133.679 65.7392 133.727 65.744V66.5962C133.698 66.5891 133.633 66.5785 133.531 66.5643C133.432 66.5477 133.327 66.5394 133.215 66.5394C132.95 66.5394 132.713 66.5951 132.505 66.7063C132.299 66.8152 132.136 66.9667 132.015 67.1609C131.897 67.3526 131.838 67.5716 131.838 67.8178V71.2695H130.999ZM136.77 71.3832C136.278 71.3832 135.846 71.266 135.474 71.0316C135.105 70.7972 134.816 70.4693 134.607 70.0479C134.401 69.6265 134.298 69.1341 134.298 68.5707C134.298 68.0025 134.401 67.5065 134.607 67.0827C134.816 66.659 135.105 66.3299 135.474 66.0955C135.846 65.8612 136.278 65.744 136.77 65.744C137.262 65.744 137.693 65.8612 138.063 66.0955C138.434 66.3299 138.723 66.659 138.929 67.0827C139.137 67.5065 139.242 68.0025 139.242 68.5707C139.242 69.1341 139.137 69.6265 138.929 70.0479C138.723 70.4693 138.434 70.7972 138.063 71.0316C137.693 71.266 137.262 71.3832 136.77 71.3832ZM136.77 70.6303C137.144 70.6303 137.452 70.5344 137.693 70.3427C137.935 70.1509 138.114 69.8988 138.23 69.5863C138.346 69.2738 138.404 68.9353 138.404 68.5707C138.404 68.2061 138.346 67.8664 138.23 67.5515C138.114 67.2366 137.935 66.9821 137.693 66.788C137.452 66.5939 137.144 66.4968 136.77 66.4968C136.396 66.4968 136.088 66.5939 135.847 66.788C135.605 66.9821 135.427 67.2366 135.311 67.5515C135.195 67.8664 135.137 68.2061 135.137 68.5707C135.137 68.9353 135.195 69.2738 135.311 69.5863C135.427 69.8988 135.605 70.1509 135.847 70.3427C136.088 70.5344 136.396 70.6303 136.77 70.6303ZM140.865 73.315C140.723 73.315 140.597 73.3031 140.485 73.2795C140.374 73.2582 140.297 73.2369 140.255 73.2156L140.468 72.4769C140.671 72.529 140.851 72.5479 141.007 72.5337C141.164 72.5195 141.302 72.4497 141.423 72.3242C141.546 72.2011 141.658 72.0011 141.76 71.7241L141.917 71.2979L139.9 65.815H140.809L142.314 70.1616H142.371L143.877 65.815H144.786L142.471 72.065C142.366 72.3467 142.237 72.5799 142.083 72.7646C141.93 72.9516 141.751 73.0901 141.547 73.18C141.346 73.27 141.119 73.315 140.865 73.315ZM147.984 71.3832C147.458 71.3832 147.005 71.2672 146.624 71.0352C146.245 70.8008 145.952 70.4741 145.746 70.055C145.543 69.6336 145.441 69.1436 145.441 68.5849C145.441 68.0262 145.543 67.5337 145.746 67.1076C145.952 66.6791 146.239 66.3453 146.606 66.1062C146.975 65.8647 147.406 65.744 147.898 65.744C148.183 65.744 148.463 65.7913 148.74 65.886C149.017 65.9807 149.269 66.1346 149.496 66.3477C149.724 66.5584 149.905 66.8377 150.04 67.1857C150.175 67.5337 150.242 67.9622 150.242 68.4712V68.8263H146.038V68.1019H149.39C149.39 67.7942 149.328 67.5195 149.205 67.2781C149.085 67.0366 148.912 66.846 148.687 66.7063C148.464 66.5666 148.201 66.4968 147.898 66.4968C147.565 66.4968 147.276 66.5797 147.032 66.7454C146.79 66.9087 146.605 67.1218 146.474 67.3846C146.344 67.6474 146.279 67.9291 146.279 68.2298V68.7127C146.279 69.1246 146.35 69.4738 146.492 69.7603C146.637 70.0444 146.837 70.261 147.092 70.4102C147.348 70.5569 147.645 70.6303 147.984 70.6303C148.204 70.6303 148.403 70.5996 148.58 70.538C148.76 70.4741 148.915 70.3794 149.045 70.2539C149.176 70.1261 149.276 69.9674 149.347 69.7781L150.157 70.0053C150.072 70.2799 149.929 70.5214 149.727 70.7298C149.526 70.9357 149.277 71.0967 148.982 71.2127C148.686 71.3263 148.353 71.3832 147.984 71.3832ZM153.733 71.3832C153.222 71.3832 152.781 71.2624 152.412 71.021C152.043 70.7795 151.759 70.4469 151.56 70.0231C151.361 69.5993 151.261 69.1152 151.261 68.5707C151.261 68.0167 151.363 67.5278 151.567 67.104C151.773 66.6779 152.059 66.3453 152.426 66.1062C152.795 65.8647 153.226 65.744 153.719 65.744C154.102 65.744 154.448 65.815 154.756 65.957C155.063 66.0991 155.316 66.2979 155.512 66.5536C155.709 66.8093 155.83 67.1076 155.878 67.4485H155.04C154.976 67.1999 154.834 66.9798 154.614 66.788C154.396 66.5939 154.102 66.4968 153.733 66.4968C153.406 66.4968 153.12 66.582 152.874 66.7525C152.63 66.9206 152.439 67.1585 152.302 67.4663C152.167 67.7717 152.099 68.1303 152.099 68.5423C152.099 68.9637 152.166 69.3306 152.298 69.6431C152.433 69.9556 152.623 70.1983 152.866 70.3711C153.113 70.5439 153.402 70.6303 153.733 70.6303C153.951 70.6303 154.148 70.5924 154.326 70.5167C154.504 70.4409 154.654 70.332 154.777 70.19C154.9 70.0479 154.988 69.8775 155.04 69.6786H155.878C155.83 70.0006 155.713 70.2906 155.526 70.5487C155.342 70.8043 155.097 71.0079 154.791 71.1594C154.488 71.3086 154.135 71.3832 153.733 71.3832ZM159.475 65.815V66.5252H156.648V65.815H159.475ZM157.472 64.5082H158.31V69.707C158.31 69.9438 158.345 70.1213 158.413 70.2397C158.484 70.3557 158.574 70.4338 158.683 70.4741C158.795 70.512 158.912 70.5309 159.035 70.5309C159.127 70.5309 159.203 70.5262 159.262 70.5167C159.321 70.5049 159.369 70.4954 159.404 70.4883L159.575 71.2411C159.518 71.2624 159.438 71.2837 159.337 71.305C159.235 71.3287 159.106 71.3406 158.95 71.3406C158.713 71.3406 158.481 71.2897 158.254 71.1879C158.029 71.0861 157.842 70.931 157.692 70.7227C157.546 70.5143 157.472 70.2515 157.472 69.9343V64.5082ZM162.893 71.3832C162.401 71.3832 161.969 71.266 161.597 71.0316C161.228 70.7972 160.939 70.4693 160.73 70.0479C160.525 69.6265 160.422 69.1341 160.422 68.5707C160.422 68.0025 160.525 67.5065 160.73 67.0827C160.939 66.659 161.228 66.3299 161.597 66.0955C161.969 65.8612 162.401 65.744 162.893 65.744C163.386 65.744 163.816 65.8612 164.186 66.0955C164.557 66.3299 164.846 66.659 165.052 67.0827C165.261 67.5065 165.365 68.0025 165.365 68.5707C165.365 69.1341 165.261 69.6265 165.052 70.0479C164.846 70.4693 164.557 70.7972 164.186 71.0316C163.816 71.266 163.386 71.3832 162.893 71.3832ZM162.893 70.6303C163.267 70.6303 163.575 70.5344 163.816 70.3427C164.058 70.1509 164.237 69.8988 164.353 69.5863C164.469 69.2738 164.527 68.9353 164.527 68.5707C164.527 68.2061 164.469 67.8664 164.353 67.5515C164.237 67.2366 164.058 66.9821 163.816 66.788C163.575 66.5939 163.267 66.4968 162.893 66.4968C162.519 66.4968 162.211 66.5939 161.97 66.788C161.728 66.9821 161.55 67.2366 161.434 67.5515C161.318 67.8664 161.26 68.2061 161.26 68.5707C161.26 68.9353 161.318 69.2738 161.434 69.5863C161.55 69.8988 161.728 70.1509 161.97 70.3427C162.211 70.5344 162.519 70.6303 162.893 70.6303ZM170.508 67.0366L169.755 67.2496C169.707 67.1242 169.638 67.0022 169.545 66.8839C169.455 66.7631 169.332 66.6637 169.176 66.5856C169.02 66.5075 168.82 66.4684 168.576 66.4684C168.242 66.4684 167.964 66.5453 167.741 66.6992C167.521 66.8507 167.411 67.0437 167.411 67.2781C167.411 67.4864 167.487 67.6509 167.638 67.7717C167.79 67.8924 168.027 67.993 168.349 68.0735L169.158 68.2724C169.646 68.3907 170.009 68.5719 170.248 68.8157C170.488 69.0572 170.607 69.3685 170.607 69.7496C170.607 70.0621 170.517 70.3415 170.337 70.5877C170.16 70.8339 169.911 71.0281 169.591 71.1701C169.272 71.3121 168.9 71.3832 168.476 71.3832C167.92 71.3832 167.46 71.2624 167.095 71.021C166.73 70.7795 166.5 70.4267 166.403 69.9627L167.198 69.7638C167.274 70.0574 167.417 70.2776 167.628 70.4244C167.841 70.5711 168.119 70.6445 168.462 70.6445C168.853 70.6445 169.163 70.5617 169.393 70.396C169.625 70.2279 169.741 70.0266 169.741 69.7923C169.741 69.6029 169.674 69.4442 169.542 69.3164C169.409 69.1862 169.206 69.0891 168.931 69.0252L168.022 68.8121C167.522 68.6938 167.155 68.5103 166.921 68.2617C166.689 68.0108 166.573 67.6971 166.573 67.3207C166.573 67.0129 166.659 66.7406 166.832 66.5039C167.007 66.2672 167.245 66.0813 167.546 65.9464C167.849 65.8114 168.192 65.744 168.576 65.744C169.116 65.744 169.539 65.8623 169.847 66.0991C170.157 66.3358 170.377 66.6483 170.508 67.0366Z" fill="#CFD1DE"/>
<path d="M39.3799 44.2446C39.3799 43.2911 39.8332 42.3943 40.601 41.8289L49.4929 35.2812L58.3848 41.8289C59.1526 42.3943 59.6059 43.2911 59.6059 44.2446V55.0299C59.6059 56.4106 58.4867 57.5299 57.1059 57.5299H53.5268C52.9745 57.5299 52.5268 57.0822 52.5268 56.5299V50.4451C52.5268 50.169 52.303 49.9451 52.0268 49.9451H46.959C46.6829 49.9451 46.459 50.169 46.459 50.4451V56.5299C46.459 57.0822 46.0113 57.5299 45.459 57.5299H41.8799C40.4992 57.5299 39.3799 56.4106 39.3799 55.0299V44.2446Z" stroke="#87C9FF" stroke-width="2.02261" stroke-linecap="round" stroke-linejoin="round"/>
<path d="M36.4334 71.2695V63.9968H37.3141V67.2354H41.1919V63.9968H42.0726V71.2695H41.1919V68.0167H37.3141V71.2695H36.4334ZM45.938 71.3832C45.4456 71.3832 45.0136 71.266 44.6419 71.0316C44.2725 70.7972 43.9837 70.4693 43.7754 70.0479C43.5694 69.6265 43.4664 69.1341 43.4664 68.5707C43.4664 68.0025 43.5694 67.5065 43.7754 67.0827C43.9837 66.659 44.2725 66.3299 44.6419 66.0955C45.0136 65.8612 45.4456 65.744 45.938 65.744C46.4305 65.744 46.8613 65.8612 47.2306 66.0955C47.6023 66.3299 47.8912 66.659 48.0971 67.0827C48.3055 67.5065 48.4096 68.0025 48.4096 68.5707C48.4096 69.1341 48.3055 69.6265 48.0971 70.0479C47.8912 70.4693 47.6023 70.7972 47.2306 71.0316C46.8613 71.266 46.4305 71.3832 45.938 71.3832ZM45.938 70.6303C46.3121 70.6303 46.6199 70.5344 46.8613 70.3427C47.1028 70.1509 47.2815 69.8988 47.3975 69.5863C47.5136 69.2738 47.5716 68.9353 47.5716 68.5707C47.5716 68.2061 47.5136 67.8664 47.3975 67.5515C47.2815 67.2366 47.1028 66.9821 46.8613 66.788C46.6199 66.5939 46.3121 66.4968 45.938 66.4968C45.564 66.4968 45.2562 66.5939 45.0147 66.788C44.7733 66.9821 44.5945 67.2366 44.4785 67.5515C44.3625 67.8664 44.3045 68.2061 44.3045 68.5707C44.3045 68.9353 44.3625 69.2738 44.4785 69.5863C44.5945 69.8988 44.7733 70.1509 45.0147 70.3427C45.2562 70.5344 45.564 70.6303 45.938 70.6303ZM49.6889 71.2695V65.815H50.4986V66.6673H50.5696C50.6832 66.3761 50.8667 66.15 51.12 65.989C51.3733 65.8256 51.6776 65.744 52.0327 65.744C52.3925 65.744 52.692 65.8256 52.9311 65.989C53.1726 66.15 53.3608 66.3761 53.4957 66.6673H53.5526C53.6922 66.3855 53.9018 66.1618 54.1811 65.9961C54.4605 65.828 54.7955 65.744 55.1861 65.744C55.6738 65.744 56.0727 65.8967 56.3828 66.2021C56.6929 66.5051 56.848 66.9774 56.848 67.619V71.2695H56.0099V67.619C56.0099 67.2165 55.8999 66.9289 55.6797 66.756C55.4595 66.5832 55.2003 66.4968 54.902 66.4968C54.5185 66.4968 54.2214 66.6128 54.0107 66.8448C53.8 67.0745 53.6946 67.3656 53.6946 67.7184V71.2695H52.8423V67.5337C52.8423 67.2236 52.7417 66.9738 52.5405 66.7844C52.3393 66.5927 52.08 66.4968 51.7628 66.4968C51.545 66.4968 51.3414 66.5548 51.152 66.6708C50.965 66.7868 50.8134 66.9478 50.6974 67.1538C50.5838 67.3574 50.527 67.5929 50.527 67.8604V71.2695H49.6889ZM60.6673 71.3832C60.1417 71.3832 59.6883 71.2672 59.3072 71.0352C58.9284 70.8008 58.636 70.4741 58.43 70.055C58.2264 69.6336 58.1246 69.1436 58.1246 68.5849C58.1246 68.0262 58.2264 67.5337 58.43 67.1076C58.636 66.6791 58.9225 66.3453 59.2894 66.1062C59.6587 65.8647 60.0896 65.744 60.582 65.744C60.8661 65.744 61.1467 65.7913 61.4237 65.886C61.7006 65.9807 61.9528 66.1346 62.18 66.3477C62.4073 66.5584 62.5884 66.8377 62.7234 67.1857C62.8583 67.5337 62.9258 67.9622 62.9258 68.4712V68.8263H58.7212V68.1019H62.0735C62.0735 67.7942 62.012 67.5195 61.8888 67.2781C61.7681 67.0366 61.5953 66.846 61.3704 66.7063C61.1478 66.5666 60.8851 66.4968 60.582 66.4968C60.2482 66.4968 59.9594 66.5797 59.7156 66.7454C59.4741 66.9087 59.2882 67.1218 59.158 67.3846C59.0278 67.6474 58.9627 67.9291 58.9627 68.2298V68.7127C58.9627 69.1246 59.0337 69.4738 59.1758 69.7603C59.3202 70.0444 59.5202 70.261 59.7759 70.4102C60.0316 70.5569 60.3287 70.6303 60.6673 70.6303C60.8874 70.6303 61.0863 70.5996 61.2638 70.538C61.4438 70.4741 61.5988 70.3794 61.729 70.2539C61.8593 70.1261 61.9599 69.9674 62.0309 69.7781L62.8406 70.0053C62.7553 70.2799 62.6121 70.5214 62.4109 70.7298C62.2096 70.9357 61.9611 71.0967 61.6651 71.2127C61.3692 71.3263 61.0366 71.3832 60.6673 71.3832Z" fill="#389BEC"/>
<path d="M227.277 71.2695V63.9968H229.82C230.326 63.9968 230.744 64.0844 231.073 64.2596C231.402 64.4324 231.647 64.6656 231.808 64.9592C231.969 65.2504 232.05 65.5735 232.05 65.9286C232.05 66.2411 231.994 66.4992 231.883 66.7028C231.774 66.9064 231.63 67.0674 231.45 67.1857C231.272 67.3041 231.079 67.3917 230.871 67.4485V67.5195C231.093 67.5337 231.317 67.6119 231.542 67.7539C231.767 67.896 231.955 68.0996 232.107 68.3647C232.258 68.6299 232.334 68.9542 232.334 69.3377C232.334 69.7023 232.251 70.0302 232.085 70.3214C231.92 70.6126 231.658 70.8434 231.301 71.0138C230.943 71.1843 230.478 71.2695 229.905 71.2695H227.277ZM228.158 70.4883H229.905C230.48 70.4883 230.889 70.377 231.13 70.1545C231.374 69.9296 231.496 69.6573 231.496 69.3377C231.496 69.0915 231.433 68.8642 231.308 68.6559C231.182 68.4452 231.003 68.2771 230.771 68.1516C230.539 68.0238 230.265 67.9599 229.948 67.9599H228.158V70.4883ZM228.158 67.1928H229.791C230.057 67.1928 230.296 67.1407 230.509 67.0366C230.724 66.9324 230.895 66.7856 231.02 66.5962C231.148 66.4068 231.212 66.1843 231.212 65.9286C231.212 65.609 231.101 65.3379 230.878 65.1154C230.655 64.8905 230.303 64.7781 229.82 64.7781H228.158V67.1928ZM233.667 71.2695V65.815H234.506V71.2695H233.667ZM234.094 64.9059C233.93 64.9059 233.789 64.8503 233.671 64.739C233.555 64.6277 233.497 64.494 233.497 64.3377C233.497 64.1815 233.555 64.0477 233.671 63.9364C233.789 63.8252 233.93 63.7695 234.094 63.7695C234.257 63.7695 234.397 63.8252 234.513 63.9364C234.631 64.0477 234.69 64.1815 234.69 64.3377C234.69 64.494 234.631 64.6277 234.513 64.739C234.397 64.8503 234.257 64.9059 234.094 64.9059ZM236.879 63.9968V71.2695H236.04V63.9968H236.879ZM239.252 63.9968V71.2695H238.414V63.9968H239.252ZM243.074 71.3832C242.548 71.3832 242.095 71.2672 241.713 71.0352C241.335 70.8008 241.042 70.4741 240.836 70.055C240.633 69.6336 240.531 69.1436 240.531 68.5849C240.531 68.0262 240.633 67.5337 240.836 67.1076C241.042 66.6791 241.329 66.3453 241.696 66.1062C242.065 65.8647 242.496 65.744 242.988 65.744C243.272 65.744 243.553 65.7913 243.83 65.886C244.107 65.9807 244.359 66.1346 244.586 66.3477C244.814 66.5584 244.995 66.8377 245.13 67.1857C245.265 67.5337 245.332 67.9622 245.332 68.4712V68.8263H241.127V68.1019H244.48C244.48 67.7942 244.418 67.5195 244.295 67.2781C244.174 67.0366 244.002 66.846 243.777 66.7063C243.554 66.5666 243.291 66.4968 242.988 66.4968C242.654 66.4968 242.366 66.5797 242.122 66.7454C241.88 66.9087 241.694 67.1218 241.564 67.3846C241.434 67.6474 241.369 67.9291 241.369 68.2298V68.7127C241.369 69.1246 241.44 69.4738 241.582 69.7603C241.726 70.0444 241.926 70.261 242.182 70.4102C242.438 70.5569 242.735 70.6303 243.074 70.6303C243.294 70.6303 243.493 70.5996 243.67 70.538C243.85 70.4741 244.005 70.3794 244.135 70.2539C244.266 70.1261 244.366 69.9674 244.437 69.7781L245.247 70.0053C245.162 70.2799 245.018 70.5214 244.817 70.7298C244.616 70.9357 244.367 71.0967 244.071 71.2127C243.775 71.3263 243.443 71.3832 243.074 71.3832ZM248.979 65.815V66.5252H246.152V65.815H248.979ZM246.976 64.5082H247.814V69.707C247.814 69.9438 247.849 70.1213 247.917 70.2397C247.988 70.3557 248.078 70.4338 248.187 70.4741C248.298 70.512 248.416 70.5309 248.539 70.5309C248.631 70.5309 248.707 70.5262 248.766 70.5167C248.825 70.5049 248.873 70.4954 248.908 70.4883L249.078 71.2411C249.022 71.2624 248.942 71.2837 248.841 71.305C248.739 71.3287 248.61 71.3406 248.453 71.3406C248.217 71.3406 247.985 71.2897 247.757 71.1879C247.533 71.0861 247.346 70.931 247.196 70.7227C247.05 70.5143 246.976 70.2515 246.976 69.9343V64.5082ZM252.468 71.3832C251.942 71.3832 251.489 71.2672 251.108 71.0352C250.729 70.8008 250.437 70.4741 250.231 70.055C250.027 69.6336 249.925 69.1436 249.925 68.5849C249.925 68.0262 250.027 67.5337 250.231 67.1076C250.437 66.6791 250.723 66.3453 251.09 66.1062C251.46 65.8647 251.89 65.744 252.383 65.744C252.667 65.744 252.947 65.7913 253.224 65.886C253.501 65.9807 253.754 66.1346 253.981 66.3477C254.208 66.5584 254.389 66.8377 254.524 67.1857C254.659 67.5337 254.727 67.9622 254.727 68.4712V68.8263H250.522V68.1019H253.874C253.874 67.7942 253.813 67.5195 253.69 67.2781C253.569 67.0366 253.396 66.846 253.171 66.7063C252.949 66.5666 252.686 66.4968 252.383 66.4968C252.049 66.4968 251.76 66.5797 251.516 66.7454C251.275 66.9087 251.089 67.1218 250.959 67.3846C250.829 67.6474 250.763 67.9291 250.763 68.2298V68.7127C250.763 69.1246 250.835 69.4738 250.977 69.7603C251.121 70.0444 251.321 70.261 251.577 70.4102C251.832 70.5569 252.129 70.6303 252.468 70.6303C252.688 70.6303 252.887 70.5996 253.065 70.538C253.245 70.4741 253.4 70.3794 253.53 70.2539C253.66 70.1261 253.761 69.9674 253.832 69.7781L254.641 70.0053C254.556 70.2799 254.413 70.5214 254.212 70.7298C254.01 70.9357 253.762 71.0967 253.466 71.2127C253.17 71.3263 252.837 71.3832 252.468 71.3832ZM256.001 71.2695V65.815H256.811V66.6388H256.868C256.967 66.369 257.147 66.15 257.408 65.9819C257.668 65.8138 257.962 65.7298 258.288 65.7298C258.35 65.7298 258.427 65.7309 258.519 65.7333C258.612 65.7357 258.681 65.7392 258.729 65.744V66.5962C258.7 66.5891 258.635 66.5785 258.533 66.5643C258.434 66.5477 258.329 66.5394 258.217 66.5394C257.952 66.5394 257.715 66.5951 257.507 66.7063C257.301 66.8152 257.138 66.9667 257.017 67.1609C256.899 67.3526 256.839 67.5716 256.839 67.8178V71.2695H256.001ZM261.327 71.3974C260.982 71.3974 260.668 71.3323 260.386 71.2021C260.104 71.0695 259.881 70.8789 259.715 70.6303C259.549 70.3794 259.466 70.0763 259.466 69.7212C259.466 69.4087 259.528 69.1554 259.651 68.9613C259.774 68.7648 259.939 68.6109 260.145 68.4996C260.351 68.3884 260.578 68.3055 260.827 68.2511C261.077 68.1942 261.33 68.1493 261.583 68.1161C261.914 68.0735 262.183 68.0415 262.389 68.0202C262.597 67.9966 262.749 67.9575 262.844 67.9031C262.941 67.8486 262.989 67.7539 262.989 67.619V67.5906C262.989 67.2402 262.893 66.9679 262.702 66.7738C262.512 66.5797 262.224 66.4826 261.839 66.4826C261.439 66.4826 261.125 66.5702 260.898 66.7454C260.67 66.9206 260.51 67.1076 260.418 67.3065L259.623 67.0224C259.765 66.6909 259.954 66.4329 260.191 66.2482C260.43 66.0612 260.69 65.931 260.972 65.8576C261.256 65.7818 261.536 65.744 261.81 65.744C261.985 65.744 262.187 65.7653 262.414 65.8079C262.644 65.8481 262.865 65.9322 263.078 66.06C263.293 66.1879 263.472 66.3808 263.614 66.6388C263.756 66.8969 263.827 67.2425 263.827 67.6758V71.2695H262.989V70.5309H262.947C262.89 70.6493 262.795 70.7759 262.662 70.9109C262.53 71.0458 262.354 71.1606 262.133 71.2553C261.913 71.35 261.644 71.3974 261.327 71.3974ZM261.455 70.6445C261.787 70.6445 262.066 70.5794 262.293 70.4492C262.523 70.319 262.696 70.1509 262.812 69.945C262.93 69.739 262.989 69.5224 262.989 69.2951V68.5281C262.954 68.5707 262.876 68.6097 262.755 68.6452C262.636 68.6784 262.499 68.708 262.343 68.734C262.189 68.7577 262.039 68.779 261.892 68.7979C261.747 68.8145 261.63 68.8287 261.54 68.8406C261.323 68.869 261.119 68.9151 260.93 68.979C260.742 69.0406 260.591 69.1341 260.475 69.2596C260.361 69.3827 260.305 69.5508 260.305 69.7638C260.305 70.055 260.412 70.2752 260.628 70.4244C260.845 70.5711 261.121 70.6445 261.455 70.6445Z" fill="#CFD1DE"/>
<path d="M254.589 37.3145L237.431 37.3145C235.758 37.3145 234.401 38.671 234.401 40.3445V54.5105C234.401 56.1839 235.758 57.5405 237.431 57.5405H253.555C255.228 57.5405 256.585 56.1839 256.585 54.5105V44.2951C256.585 42.6217 255.228 41.2651 253.555 41.2651H236.905C235.79 41.2651 234.886 40.3609 234.886 39.2454V39.2454" stroke="#CFD1DE" stroke-width="2.02" stroke-linecap="round" stroke-linejoin="round"/>
<rect width="70" height="2" transform="matrix(1 0 0 -1 14.4922 21.2695)" fill="#55B3FF"/>
</g>
<defs>
<filter id="filter0_d_1714_36933" x="-12.6426" y="0.269531" width="416" height="101" filterUnits="userSpaceOnUse" color-interpolation-filters="sRGB">
<feFlood flood-opacity="0" result="BackgroundImageFix"/>
<feColorMatrix in="SourceAlpha" type="matrix" values="0 0 0 0 0 0 0 0 0 0 0 0 0 0 0 0 0 0 127 0" result="hardAlpha"/>
<feOffset dy="-6"/>
<feGaussianBlur stdDeviation="6.5"/>
<feComposite in2="hardAlpha" operator="out"/>
<feColorMatrix type="matrix" values="0 0 0 0 0 0 0 0 0 0 0 0 0 0 0 0 0 0 0.04 0"/>
<feBlend mode="normal" in2="BackgroundImageFix" result="effect1_dropShadow_1714_36933"/>
<feBlend mode="normal" in="SourceGraphic" in2="effect1_dropShadow_1714_36933" result="shape"/>
</filter>
</defs>
</svg>
