<svg width="390" height="94" viewBox="0 0 390 94" fill="none" xmlns="http://www.w3.org/2000/svg">
<g filter="url(#filter0_d_1717_30648)">
<path d="M1 19H391V94H1V19Z" fill="white"/>
<path d="M336.034 55.7421L336.205 54.642C336.414 53.3011 337.289 52.1526 338.585 51.7511C340.195 51.2525 342.586 50.6855 345.136 50.6855C347.686 50.6855 350.077 51.2525 351.687 51.7511C352.983 52.1526 353.858 53.3011 354.067 54.642L354.238 55.7421" stroke="#87C9FF" stroke-width="2.02261" stroke-linecap="round" stroke-linejoin="round"/>
<path d="M345.136 46.1365C347.928 46.1365 350.192 43.8726 350.192 41.08C350.192 38.2873 347.928 36.0234 345.136 36.0234C342.343 36.0234 340.079 38.2873 340.079 41.08C340.079 43.8726 342.343 46.1365 345.136 46.1365Z" stroke="#87C9FF" stroke-width="2.02261" stroke-linecap="round" stroke-linejoin="round"/>
<path d="M332.756 71V63.7273H335.213C335.784 63.7273 336.25 63.8303 336.612 64.0362C336.977 64.2398 337.247 64.5156 337.422 64.8636C337.597 65.2116 337.685 65.5999 337.685 66.0284C337.685 66.4569 337.597 66.8464 337.422 67.1967C337.249 67.5471 336.982 67.8265 336.619 68.0348C336.257 68.2408 335.793 68.3438 335.227 68.3438H333.466V67.5625H335.199C335.589 67.5625 335.903 67.495 336.14 67.3601C336.377 67.2251 336.548 67.0429 336.655 66.8132C336.764 66.5812 336.818 66.3196 336.818 66.0284C336.818 65.7372 336.764 65.4768 336.655 65.2472C336.548 65.0175 336.375 64.8376 336.136 64.7074C335.897 64.5748 335.58 64.5085 335.185 64.5085H333.636V71H332.756ZM341.218 71.1136C340.692 71.1136 340.239 70.9976 339.858 70.7656C339.479 70.5312 339.187 70.2045 338.981 69.7855C338.777 69.3641 338.675 68.8741 338.675 68.3153C338.675 67.7566 338.777 67.2642 338.981 66.8381C339.187 66.4096 339.473 66.0758 339.84 65.8366C340.21 65.5952 340.64 65.4744 341.133 65.4744C341.417 65.4744 341.697 65.5218 341.974 65.6165C342.251 65.7112 342.504 65.8651 342.731 66.0781C342.958 66.2888 343.139 66.5682 343.274 66.9162C343.409 67.2642 343.477 67.6927 343.477 68.2017V68.5568H339.272V67.8324H342.624C342.624 67.5246 342.563 67.25 342.44 67.0085C342.319 66.767 342.146 66.5765 341.921 66.4368C341.699 66.2971 341.436 66.2273 341.133 66.2273C340.799 66.2273 340.51 66.3101 340.266 66.4759C340.025 66.6392 339.839 66.8523 339.709 67.1151C339.579 67.3778 339.513 67.6596 339.513 67.9602V68.4432C339.513 68.8551 339.585 69.2043 339.727 69.4908C339.871 69.7749 340.071 69.9915 340.327 70.1406C340.582 70.2874 340.879 70.3608 341.218 70.3608C341.438 70.3608 341.637 70.33 341.815 70.2685C341.995 70.2045 342.15 70.1098 342.28 69.9844C342.41 69.8565 342.511 69.6979 342.582 69.5085L343.391 69.7358C343.306 70.0104 343.163 70.2519 342.962 70.4602C342.76 70.6662 342.512 70.8272 342.216 70.9432C341.92 71.0568 341.587 71.1136 341.218 71.1136ZM344.751 71V65.5455H345.561V66.3693H345.618C345.717 66.0994 345.897 65.8804 346.158 65.7124C346.418 65.5443 346.712 65.4602 347.038 65.4602C347.1 65.4602 347.177 65.4614 347.269 65.4638C347.362 65.4661 347.431 65.4697 347.479 65.4744V66.3267C347.45 66.3196 347.385 66.3089 347.283 66.2947C347.184 66.2782 347.079 66.2699 346.967 66.2699C346.702 66.2699 346.465 66.3255 346.257 66.4368C346.051 66.5457 345.888 66.6972 345.767 66.8913C345.649 67.0831 345.589 67.3021 345.589 67.5483V71H344.751ZM351.243 65.5455V66.2557H348.303V65.5455H351.243ZM349.183 71V64.7926C349.183 64.4801 349.257 64.2197 349.403 64.0114C349.55 63.803 349.741 63.6468 349.975 63.5426C350.21 63.4384 350.457 63.3864 350.717 63.3864C350.923 63.3864 351.091 63.4029 351.222 63.4361C351.352 63.4692 351.449 63.5 351.513 63.5284L351.271 64.2528C351.229 64.2386 351.17 64.2209 351.094 64.1996C351.02 64.1783 350.923 64.1676 350.803 64.1676C350.526 64.1676 350.326 64.2375 350.202 64.3771C350.082 64.5168 350.021 64.7216 350.021 64.9915V71H349.183ZM352.417 71V65.5455H353.256V71H352.417ZM352.844 64.6364C352.68 64.6364 352.539 64.5807 352.421 64.4695C352.305 64.3582 352.247 64.2244 352.247 64.0682C352.247 63.9119 352.305 63.7782 352.421 63.6669C352.539 63.5556 352.68 63.5 352.844 63.5C353.007 63.5 353.147 63.5556 353.263 63.6669C353.381 63.7782 353.44 63.9119 353.44 64.0682C353.44 64.2244 353.381 64.3582 353.263 64.4695C353.147 64.5807 353.007 64.6364 352.844 64.6364ZM355.629 63.7273V71H354.79V63.7273H355.629Z" fill="#389BEC"/>
<path d="M143.079 37.0332H142.068C140.393 37.0332 139.034 38.3915 139.034 40.0671V54.2254C139.034 55.9009 140.393 57.2593 142.068 57.2593H154.204C155.879 57.2593 157.238 55.9009 157.238 54.2254V40.0671C157.238 38.3915 155.879 37.0332 154.204 37.0332H153.192" stroke="#CFD1DE" stroke-width="2.02261"/>
<rect x="143.079" y="35.0117" width="10.113" height="5.05651" rx="2.02261" stroke="#CFD1DE" stroke-width="2.02261"/>
<path d="M125.408 71V63.7273H127.865C128.436 63.7273 128.902 63.8303 129.265 64.0362C129.629 64.2398 129.899 64.5156 130.074 64.8636C130.249 65.2116 130.337 65.5999 130.337 66.0284C130.337 66.4569 130.249 66.8464 130.074 67.1967C129.901 67.5471 129.634 67.8265 129.272 68.0348C128.909 68.2408 128.445 68.3438 127.88 68.3438H126.118V67.5625H127.851C128.242 67.5625 128.556 67.495 128.792 67.3601C129.029 67.2251 129.201 67.0429 129.307 66.8132C129.416 66.5812 129.471 66.3196 129.471 66.0284C129.471 65.7372 129.416 65.4768 129.307 65.2472C129.201 65.0175 129.028 64.8376 128.789 64.7074C128.55 64.5748 128.232 64.5085 127.837 64.5085H126.289V71H125.408ZM131.642 71V65.5455H132.452V66.3693H132.509C132.608 66.0994 132.788 65.8804 133.048 65.7124C133.309 65.5443 133.602 65.4602 133.929 65.4602C133.991 65.4602 134.067 65.4614 134.16 65.4638C134.252 65.4661 134.322 65.4697 134.369 65.4744V66.3267C134.341 66.3196 134.276 66.3089 134.174 66.2947C134.075 66.2782 133.969 66.2699 133.858 66.2699C133.593 66.2699 133.356 66.3255 133.148 66.4368C132.942 66.5457 132.778 66.6972 132.658 66.8913C132.539 67.0831 132.48 67.3021 132.48 67.5483V71H131.642ZM137.413 71.1136C136.92 71.1136 136.488 70.9964 136.116 70.7621C135.747 70.5277 135.458 70.1998 135.25 69.7784C135.044 69.357 134.941 68.8646 134.941 68.3011C134.941 67.733 135.044 67.237 135.25 66.8132C135.458 66.3894 135.747 66.0604 136.116 65.826C136.488 65.5916 136.92 65.4744 137.413 65.4744C137.905 65.4744 138.336 65.5916 138.705 65.826C139.077 66.0604 139.366 66.3894 139.572 66.8132C139.78 67.237 139.884 67.733 139.884 68.3011C139.884 68.8646 139.78 69.357 139.572 69.7784C139.366 70.1998 139.077 70.5277 138.705 70.7621C138.336 70.9964 137.905 71.1136 137.413 71.1136ZM137.413 70.3608C137.787 70.3608 138.094 70.2649 138.336 70.0732C138.577 69.8814 138.756 69.6293 138.872 69.3168C138.988 69.0043 139.046 68.6657 139.046 68.3011C139.046 67.9366 138.988 67.5968 138.872 67.282C138.756 66.9671 138.577 66.7126 138.336 66.5185C138.094 66.3243 137.787 66.2273 137.413 66.2273C137.039 66.2273 136.731 66.3243 136.489 66.5185C136.248 66.7126 136.069 66.9671 135.953 67.282C135.837 67.5968 135.779 67.9366 135.779 68.3011C135.779 68.6657 135.837 69.0043 135.953 69.3168C136.069 69.6293 136.248 69.8814 136.489 70.0732C136.731 70.2649 137.039 70.3608 137.413 70.3608ZM141.508 73.0455C141.366 73.0455 141.239 73.0336 141.128 73.0099C141.017 72.9886 140.94 72.9673 140.897 72.946L141.11 72.2074C141.314 72.2595 141.494 72.2784 141.65 72.2642C141.806 72.25 141.945 72.1802 142.066 72.0547C142.189 71.9316 142.301 71.7315 142.403 71.4545L142.559 71.0284L140.542 65.5455H141.451L142.957 69.892H143.014L144.519 65.5455H145.428L143.113 71.7955C143.009 72.0772 142.88 72.3104 142.726 72.495C142.572 72.6821 142.393 72.8205 142.19 72.9105C141.989 73.0005 141.761 73.0455 141.508 73.0455ZM148.626 71.1136C148.101 71.1136 147.647 70.9976 147.266 70.7656C146.887 70.5312 146.595 70.2045 146.389 69.7855C146.185 69.3641 146.084 68.8741 146.084 68.3153C146.084 67.7566 146.185 67.2642 146.389 66.8381C146.595 66.4096 146.881 66.0758 147.248 65.8366C147.618 65.5952 148.049 65.4744 148.541 65.4744C148.825 65.4744 149.106 65.5218 149.383 65.6165C149.66 65.7112 149.912 65.8651 150.139 66.0781C150.366 66.2888 150.547 66.5682 150.682 66.9162C150.817 67.2642 150.885 67.6927 150.885 68.2017V68.5568H146.68V67.8324H150.032C150.032 67.5246 149.971 67.25 149.848 67.0085C149.727 66.767 149.554 66.5765 149.329 66.4368C149.107 66.2971 148.844 66.2273 148.541 66.2273C148.207 66.2273 147.918 66.3101 147.675 66.4759C147.433 66.6392 147.247 66.8523 147.117 67.1151C146.987 67.3778 146.922 67.6596 146.922 67.9602V68.4432C146.922 68.8551 146.993 69.2043 147.135 69.4908C147.279 69.7749 147.479 69.9915 147.735 70.1406C147.991 70.2874 148.288 70.3608 148.626 70.3608C148.846 70.3608 149.045 70.33 149.223 70.2685C149.403 70.2045 149.558 70.1098 149.688 69.9844C149.818 69.8565 149.919 69.6979 149.99 69.5085L150.8 69.7358C150.714 70.0104 150.571 70.2519 150.37 70.4602C150.169 70.6662 149.92 70.8272 149.624 70.9432C149.328 71.0568 148.996 71.1136 148.626 71.1136ZM154.376 71.1136C153.864 71.1136 153.424 70.9929 153.055 70.7514C152.685 70.5099 152.401 70.1773 152.202 69.7536C152.003 69.3298 151.904 68.8456 151.904 68.3011C151.904 67.7472 152.006 67.2583 152.209 66.8345C152.415 66.4084 152.702 66.0758 153.069 65.8366C153.438 65.5952 153.869 65.4744 154.361 65.4744C154.745 65.4744 155.09 65.5455 155.398 65.6875C155.706 65.8295 155.958 66.0284 156.155 66.2841C156.351 66.5398 156.473 66.8381 156.52 67.179H155.682C155.618 66.9304 155.476 66.7102 155.256 66.5185C155.038 66.3243 154.745 66.2273 154.376 66.2273C154.049 66.2273 153.762 66.3125 153.516 66.483C153.272 66.651 153.082 66.889 152.944 67.1967C152.809 67.5021 152.742 67.8608 152.742 68.2727C152.742 68.6941 152.808 69.0611 152.941 69.3736C153.076 69.6861 153.265 69.9287 153.509 70.1016C153.755 70.2744 154.044 70.3608 154.376 70.3608C154.593 70.3608 154.791 70.3229 154.969 70.2472C155.146 70.1714 155.296 70.0625 155.42 69.9205C155.543 69.7784 155.63 69.608 155.682 69.4091H156.52C156.473 69.7311 156.356 70.0211 156.169 70.2791C155.984 70.5348 155.739 70.7384 155.434 70.8899C155.131 71.0391 154.778 71.1136 154.376 71.1136ZM160.118 65.5455V66.2557H157.291V65.5455H160.118ZM158.115 64.2386H158.953V69.4375C158.953 69.6742 158.987 69.8518 159.056 69.9702C159.127 70.0862 159.217 70.1643 159.326 70.2045C159.437 70.2424 159.554 70.2614 159.677 70.2614C159.77 70.2614 159.845 70.2566 159.905 70.2472C159.964 70.2353 160.011 70.2259 160.047 70.2188L160.217 70.9716C160.16 70.9929 160.081 71.0142 159.979 71.0355C159.877 71.0592 159.748 71.071 159.592 71.071C159.355 71.071 159.123 71.0201 158.896 70.9183C158.671 70.8165 158.484 70.6615 158.335 70.4531C158.188 70.2448 158.115 69.982 158.115 69.6648V64.2386ZM163.536 71.1136C163.043 71.1136 162.611 70.9964 162.24 70.7621C161.87 70.5277 161.581 70.1998 161.373 69.7784C161.167 69.357 161.064 68.8646 161.064 68.3011C161.064 67.733 161.167 67.237 161.373 66.8132C161.581 66.3894 161.87 66.0604 162.24 65.826C162.611 65.5916 163.043 65.4744 163.536 65.4744C164.028 65.4744 164.459 65.5916 164.828 65.826C165.2 66.0604 165.489 66.3894 165.695 66.8132C165.903 67.237 166.007 67.733 166.007 68.3011C166.007 68.8646 165.903 69.357 165.695 69.7784C165.489 70.1998 165.2 70.5277 164.828 70.7621C164.459 70.9964 164.028 71.1136 163.536 71.1136ZM163.536 70.3608C163.91 70.3608 164.218 70.2649 164.459 70.0732C164.7 69.8814 164.879 69.6293 164.995 69.3168C165.111 69.0043 165.169 68.6657 165.169 68.3011C165.169 67.9366 165.111 67.5968 164.995 67.282C164.879 66.9671 164.7 66.7126 164.459 66.5185C164.218 66.3243 163.91 66.2273 163.536 66.2273C163.162 66.2273 162.854 66.3243 162.612 66.5185C162.371 66.7126 162.192 66.9671 162.076 67.282C161.96 67.5968 161.902 67.9366 161.902 68.3011C161.902 68.6657 161.96 69.0043 162.076 69.3168C162.192 69.6293 162.371 69.8814 162.612 70.0732C162.854 70.2649 163.162 70.3608 163.536 70.3608ZM171.15 66.767L170.397 66.9801C170.35 66.8546 170.28 66.7327 170.188 66.6143C170.098 66.4936 169.975 66.3942 169.819 66.3161C169.662 66.2379 169.462 66.1989 169.218 66.1989C168.885 66.1989 168.606 66.2758 168.384 66.4297C168.164 66.5812 168.054 66.7741 168.054 67.0085C168.054 67.2169 168.129 67.3814 168.281 67.5021C168.432 67.6229 168.669 67.7235 168.991 67.804L169.801 68.0028C170.288 68.1212 170.652 68.3023 170.891 68.5462C171.13 68.7876 171.25 69.099 171.25 69.4801C171.25 69.7926 171.16 70.072 170.98 70.3182C170.802 70.5644 170.554 70.7585 170.234 70.9006C169.914 71.0426 169.543 71.1136 169.119 71.1136C168.563 71.1136 168.102 70.9929 167.738 70.7514C167.373 70.5099 167.142 70.1572 167.045 69.6932L167.841 69.4943C167.916 69.7879 168.06 70.008 168.27 70.1548C168.483 70.3016 168.761 70.375 169.105 70.375C169.495 70.375 169.806 70.2921 170.035 70.1264C170.267 69.9583 170.383 69.7571 170.383 69.5227C170.383 69.3333 170.317 69.1747 170.184 69.0469C170.052 68.9167 169.848 68.8196 169.574 68.7557L168.664 68.5426C168.165 68.4242 167.798 68.2408 167.564 67.9922C167.332 67.7412 167.216 67.4276 167.216 67.0511C167.216 66.7434 167.302 66.4711 167.475 66.2344C167.65 65.9976 167.888 65.8118 168.189 65.6768C168.492 65.5419 168.835 65.4744 169.218 65.4744C169.758 65.4744 170.182 65.5928 170.49 65.8295C170.8 66.0663 171.02 66.3788 171.15 66.767Z" fill="#CFD1DE"/>
<path d="M40.0225 43.9751C40.0225 43.0215 40.4758 42.1248 41.2436 41.5594L50.1355 35.0117L59.0274 41.5594C59.7952 42.1248 60.2485 43.0215 60.2485 43.9751V54.7604C60.2485 56.1411 59.1292 57.2604 57.7485 57.2604H54.1694C53.6171 57.2604 53.1694 56.8127 53.1694 56.2604V50.1756C53.1694 49.8995 52.9455 49.6756 52.6694 49.6756H47.6016C47.3254 49.6756 47.1016 49.8995 47.1016 50.1756V56.2604C47.1016 56.8127 46.6539 57.2604 46.1016 57.2604H42.5225C41.1418 57.2604 40.0225 56.1411 40.0225 54.7604V43.9751Z" stroke="#CFD1DE" stroke-width="2.02261" stroke-linecap="round" stroke-linejoin="round"/>
<path d="M37.076 71V63.7273H37.9567V66.9659H41.8345V63.7273H42.7152V71H41.8345V67.7472H37.9567V71H37.076ZM46.5806 71.1136C46.0882 71.1136 45.6561 70.9964 45.2844 70.7621C44.9151 70.5277 44.6263 70.1998 44.418 69.7784C44.212 69.357 44.109 68.8646 44.109 68.3011C44.109 67.733 44.212 67.237 44.418 66.8132C44.6263 66.3894 44.9151 66.0604 45.2844 65.826C45.6561 65.5916 46.0882 65.4744 46.5806 65.4744C47.073 65.4744 47.5039 65.5916 47.8732 65.826C48.2449 66.0604 48.5337 66.3894 48.7397 66.8132C48.948 67.237 49.0522 67.733 49.0522 68.3011C49.0522 68.8646 48.948 69.357 48.7397 69.7784C48.5337 70.1998 48.2449 70.5277 47.8732 70.7621C47.5039 70.9964 47.073 71.1136 46.5806 71.1136ZM46.5806 70.3608C46.9547 70.3608 47.2624 70.2649 47.5039 70.0732C47.7454 69.8814 47.9241 69.6293 48.0401 69.3168C48.1561 69.0043 48.2141 68.6657 48.2141 68.3011C48.2141 67.9366 48.1561 67.5968 48.0401 67.282C47.9241 66.9671 47.7454 66.7126 47.5039 66.5185C47.2624 66.3243 46.9547 66.2273 46.5806 66.2273C46.2066 66.2273 45.8988 66.3243 45.6573 66.5185C45.4158 66.7126 45.2371 66.9671 45.1211 67.282C45.0051 67.5968 44.9471 67.9366 44.9471 68.3011C44.9471 68.6657 45.0051 69.0043 45.1211 69.3168C45.2371 69.6293 45.4158 69.8814 45.6573 70.0732C45.8988 70.2649 46.2066 70.3608 46.5806 70.3608ZM50.3315 71V65.5455H51.1412V66.3977H51.2122C51.3258 66.1065 51.5093 65.8804 51.7626 65.7195C52.0159 65.5561 52.3201 65.4744 52.6752 65.4744C53.0351 65.4744 53.3346 65.5561 53.5737 65.7195C53.8152 65.8804 54.0034 66.1065 54.1383 66.3977H54.1951C54.3348 66.116 54.5443 65.8923 54.8237 65.7266C55.103 65.5585 55.438 65.4744 55.8287 65.4744C56.3163 65.4744 56.7153 65.6271 57.0254 65.9325C57.3355 66.2356 57.4906 66.7079 57.4906 67.3494V71H56.6525V67.3494C56.6525 66.947 56.5424 66.6593 56.3223 66.4865C56.1021 66.3137 55.8429 66.2273 55.5446 66.2273C55.161 66.2273 54.8639 66.3433 54.6532 66.5753C54.4425 66.8049 54.3372 67.0961 54.3372 67.4489V71H53.4849V67.2642C53.4849 66.9541 53.3843 66.7043 53.1831 66.5149C52.9818 66.3232 52.7226 66.2273 52.4054 66.2273C52.1876 66.2273 51.984 66.2853 51.7946 66.4013C51.6075 66.5173 51.456 66.6783 51.34 66.8842C51.2264 67.0878 51.1696 67.3234 51.1696 67.5909V71H50.3315ZM61.3098 71.1136C60.7843 71.1136 60.3309 70.9976 59.9498 70.7656C59.571 70.5312 59.2786 70.2045 59.0726 69.7855C58.869 69.3641 58.7672 68.8741 58.7672 68.3153C58.7672 67.7566 58.869 67.2642 59.0726 66.8381C59.2786 66.4096 59.565 66.0758 59.932 65.8366C60.3013 65.5952 60.7322 65.4744 61.2246 65.4744C61.5087 65.4744 61.7892 65.5218 62.0662 65.6165C62.3432 65.7112 62.5953 65.8651 62.8226 66.0781C63.0499 66.2888 63.231 66.5682 63.3659 66.9162C63.5009 67.2642 63.5684 67.6927 63.5684 68.2017V68.5568H59.3638V67.8324H62.7161C62.7161 67.5246 62.6545 67.25 62.5314 67.0085C62.4107 66.767 62.2379 66.5765 62.013 66.4368C61.7904 66.2971 61.5276 66.2273 61.2246 66.2273C60.8908 66.2273 60.602 66.3101 60.3581 66.4759C60.1167 66.6392 59.9308 66.8523 59.8006 67.1151C59.6704 67.3778 59.6053 67.6596 59.6053 67.9602V68.4432C59.6053 68.8551 59.6763 69.2043 59.8184 69.4908C59.9628 69.7749 60.1628 69.9915 60.4185 70.1406C60.6742 70.2874 60.9713 70.3608 61.3098 70.3608C61.53 70.3608 61.7289 70.33 61.9064 70.2685C62.0864 70.2045 62.2414 70.1098 62.3716 69.9844C62.5018 69.8565 62.6025 69.6979 62.6735 69.5085L63.4831 69.7358C63.3979 70.0104 63.2547 70.2519 63.0534 70.4602C62.8522 70.6662 62.6036 70.8272 62.3077 70.9432C62.0118 71.0568 61.6792 71.1136 61.3098 71.1136Z" fill="#CFD1DE"/>
<path d="M227.92 71V63.7273H230.462C230.969 63.7273 231.387 63.8149 231.716 63.9901C232.045 64.1629 232.29 64.3961 232.451 64.6896C232.612 64.9808 232.692 65.304 232.692 65.6591C232.692 65.9716 232.637 66.2296 232.526 66.4332C232.417 66.6368 232.272 66.7978 232.092 66.9162C231.915 67.0346 231.722 67.1222 231.513 67.179V67.25C231.736 67.2642 231.96 67.3423 232.185 67.4844C232.41 67.6264 232.598 67.83 232.749 68.0952C232.901 68.3603 232.977 68.6847 232.977 69.0682C232.977 69.4328 232.894 69.7607 232.728 70.0518C232.562 70.343 232.301 70.5739 231.943 70.7443C231.586 70.9148 231.121 71 230.548 71H227.92ZM228.8 70.2188H230.548C231.123 70.2188 231.531 70.1075 231.773 69.8849C232.017 69.66 232.138 69.3878 232.138 69.0682C232.138 68.822 232.076 68.5947 231.95 68.3864C231.825 68.1757 231.646 68.0076 231.414 67.8821C231.182 67.7543 230.907 67.6903 230.59 67.6903H228.8V70.2188ZM228.8 66.9233H230.434C230.699 66.9233 230.938 66.8712 231.151 66.767C231.367 66.6629 231.537 66.5161 231.663 66.3267C231.79 66.1373 231.854 65.9148 231.854 65.6591C231.854 65.3395 231.743 65.0684 231.521 64.8459C231.298 64.621 230.945 64.5085 230.462 64.5085H228.8V66.9233ZM234.31 71V65.5455H235.148V71H234.31ZM234.736 64.6364C234.573 64.6364 234.432 64.5807 234.314 64.4695C234.198 64.3582 234.14 64.2244 234.14 64.0682C234.14 63.9119 234.198 63.7782 234.314 63.6669C234.432 63.5556 234.573 63.5 234.736 63.5C234.9 63.5 235.039 63.5556 235.155 63.6669C235.274 63.7782 235.333 63.9119 235.333 64.0682C235.333 64.2244 235.274 64.3582 235.155 64.4695C235.039 64.5807 234.9 64.6364 234.736 64.6364ZM237.521 63.7273V71H236.683V63.7273H237.521ZM239.894 63.7273V71H239.056V63.7273H239.894ZM243.716 71.1136C243.191 71.1136 242.737 70.9976 242.356 70.7656C241.977 70.5312 241.685 70.2045 241.479 69.7855C241.275 69.3641 241.173 68.8741 241.173 68.3153C241.173 67.7566 241.275 67.2642 241.479 66.8381C241.685 66.4096 241.971 66.0758 242.338 65.8366C242.708 65.5952 243.138 65.4744 243.631 65.4744C243.915 65.4744 244.195 65.5218 244.472 65.6165C244.749 65.7112 245.002 65.8651 245.229 66.0781C245.456 66.2888 245.637 66.5682 245.772 66.9162C245.907 67.2642 245.975 67.6927 245.975 68.2017V68.5568H241.77V67.8324H245.122C245.122 67.5246 245.061 67.25 244.938 67.0085C244.817 66.767 244.644 66.5765 244.419 66.4368C244.197 66.2971 243.934 66.2273 243.631 66.2273C243.297 66.2273 243.008 66.3101 242.764 66.4759C242.523 66.6392 242.337 66.8523 242.207 67.1151C242.077 67.3778 242.012 67.6596 242.012 67.9602V68.4432C242.012 68.8551 242.083 69.2043 242.225 69.4908C242.369 69.7749 242.569 69.9915 242.825 70.1406C243.08 70.2874 243.378 70.3608 243.716 70.3608C243.936 70.3608 244.135 70.33 244.313 70.2685C244.493 70.2045 244.648 70.1098 244.778 69.9844C244.908 69.8565 245.009 69.6979 245.08 69.5085L245.889 69.7358C245.804 70.0104 245.661 70.2519 245.46 70.4602C245.258 70.6662 245.01 70.8272 244.714 70.9432C244.418 71.0568 244.085 71.1136 243.716 71.1136ZM249.622 65.5455V66.2557H246.795V65.5455H249.622ZM247.619 64.2386H248.457V69.4375C248.457 69.6742 248.491 69.8518 248.56 69.9702C248.631 70.0862 248.721 70.1643 248.83 70.2045C248.941 70.2424 249.058 70.2614 249.181 70.2614C249.274 70.2614 249.349 70.2566 249.409 70.2472C249.468 70.2353 249.515 70.2259 249.551 70.2188L249.721 70.9716C249.664 70.9929 249.585 71.0142 249.483 71.0355C249.381 71.0592 249.252 71.071 249.096 71.071C248.859 71.071 248.627 71.0201 248.4 70.9183C248.175 70.8165 247.988 70.6615 247.839 70.4531C247.692 70.2448 247.619 69.982 247.619 69.6648V64.2386ZM253.111 71.1136C252.585 71.1136 252.132 70.9976 251.751 70.7656C251.372 70.5312 251.079 70.2045 250.873 69.7855C250.67 69.3641 250.568 68.8741 250.568 68.3153C250.568 67.7566 250.67 67.2642 250.873 66.8381C251.079 66.4096 251.366 66.0758 251.733 65.8366C252.102 65.5952 252.533 65.4744 253.025 65.4744C253.309 65.4744 253.59 65.5218 253.867 65.6165C254.144 65.7112 254.396 65.8651 254.623 66.0781C254.851 66.2888 255.032 66.5682 255.167 66.9162C255.302 67.2642 255.369 67.6927 255.369 68.2017V68.5568H251.165V67.8324H254.517C254.517 67.5246 254.455 67.25 254.332 67.0085C254.211 66.767 254.039 66.5765 253.814 66.4368C253.591 66.2971 253.328 66.2273 253.025 66.2273C252.692 66.2273 252.403 66.3101 252.159 66.4759C251.917 66.6392 251.732 66.8523 251.601 67.1151C251.471 67.3778 251.406 67.6596 251.406 67.9602V68.4432C251.406 68.8551 251.477 69.2043 251.619 69.4908C251.764 69.7749 251.964 69.9915 252.219 70.1406C252.475 70.2874 252.772 70.3608 253.111 70.3608C253.331 70.3608 253.53 70.33 253.707 70.2685C253.887 70.2045 254.042 70.1098 254.172 69.9844C254.303 69.8565 254.403 69.6979 254.474 69.5085L255.284 69.7358C255.199 70.0104 255.055 70.2519 254.854 70.4602C254.653 70.6662 254.404 70.8272 254.108 70.9432C253.813 71.0568 253.48 71.1136 253.111 71.1136ZM256.644 71V65.5455H257.454V66.3693H257.51C257.61 66.0994 257.79 65.8804 258.05 65.7124C258.311 65.5443 258.604 65.4602 258.931 65.4602C258.992 65.4602 259.069 65.4614 259.162 65.4638C259.254 65.4661 259.324 65.4697 259.371 65.4744V66.3267C259.343 66.3196 259.278 66.3089 259.176 66.2947C259.077 66.2782 258.971 66.2699 258.86 66.2699C258.595 66.2699 258.358 66.3255 258.15 66.4368C257.944 66.5457 257.78 66.6972 257.66 66.8913C257.541 67.0831 257.482 67.3021 257.482 67.5483V71H256.644ZM261.97 71.1278C261.624 71.1278 261.31 71.0627 261.029 70.9325C260.747 70.8 260.523 70.6094 260.358 70.3608C260.192 70.1098 260.109 69.8068 260.109 69.4517C260.109 69.1392 260.171 68.8859 260.294 68.6918C260.417 68.4953 260.581 68.3414 260.787 68.2301C260.993 68.1188 261.221 68.036 261.469 67.9815C261.72 67.9247 261.972 67.8797 262.225 67.8466C262.557 67.804 262.826 67.772 263.032 67.7507C263.24 67.727 263.391 67.688 263.486 67.6335C263.583 67.5791 263.632 67.4844 263.632 67.3494V67.321C263.632 66.9706 263.536 66.6984 263.344 66.5043C263.155 66.3101 262.867 66.2131 262.481 66.2131C262.081 66.2131 261.767 66.3007 261.54 66.4759C261.313 66.651 261.153 66.8381 261.061 67.0369L260.265 66.7528C260.407 66.4214 260.597 66.1634 260.833 65.9787C261.073 65.7917 261.333 65.6615 261.615 65.5881C261.899 65.5123 262.178 65.4744 262.453 65.4744C262.628 65.4744 262.829 65.4957 263.056 65.5384C263.286 65.5786 263.507 65.6626 263.721 65.7905C263.936 65.9183 264.115 66.1113 264.257 66.3693C264.399 66.6274 264.47 66.973 264.47 67.4062V71H263.632V70.2614H263.589C263.532 70.3797 263.438 70.5064 263.305 70.6413C263.172 70.7763 262.996 70.8911 262.776 70.9858C262.556 71.0805 262.287 71.1278 261.97 71.1278ZM262.098 70.375C262.429 70.375 262.708 70.3099 262.936 70.1797C263.165 70.0495 263.338 69.8814 263.454 69.6754C263.573 69.4695 263.632 69.2528 263.632 69.0256V68.2585C263.596 68.3011 263.518 68.3402 263.397 68.3757C263.279 68.4089 263.142 68.4384 262.985 68.4645C262.832 68.4882 262.681 68.5095 262.534 68.5284C262.39 68.545 262.273 68.5592 262.183 68.571C261.965 68.5994 261.761 68.6456 261.572 68.7095C261.385 68.7711 261.234 68.8646 261.118 68.9901C261.004 69.1132 260.947 69.2812 260.947 69.4943C260.947 69.7855 261.055 70.0057 261.27 70.1548C261.488 70.3016 261.764 70.375 262.098 70.375Z" fill="#CFD1DE"/>
<path d="M255.231 37.0449L238.074 37.0449C236.401 37.0449 235.044 38.4015 235.044 40.0749V54.241C235.044 55.9144 236.401 57.271 238.074 57.271H254.197C255.871 57.271 257.227 55.9144 257.227 54.241V44.0256C257.227 42.3522 255.871 40.9956 254.197 40.9956H237.548C236.433 40.9956 235.528 40.0913 235.528 38.9759V38.9759" stroke="#CFD1DE" stroke-width="2.02" stroke-linecap="round" stroke-linejoin="round"/>
<rect width="70" height="2" transform="matrix(1 0 0 -1 309.136 21)" fill="#55B3FF"/>
</g>
<defs>
<filter id="filter0_d_1717_30648" x="-12" y="0" width="416" height="101" filterUnits="userSpaceOnUse" color-interpolation-filters="sRGB">
<feFlood flood-opacity="0" result="BackgroundImageFix"/>
<feColorMatrix in="SourceAlpha" type="matrix" values="0 0 0 0 0 0 0 0 0 0 0 0 0 0 0 0 0 0 127 0" result="hardAlpha"/>
<feOffset dy="-6"/>
<feGaussianBlur stdDeviation="6.5"/>
<feComposite in2="hardAlpha" operator="out"/>
<feColorMatrix type="matrix" values="0 0 0 0 0 0 0 0 0 0 0 0 0 0 0 0 0 0 0.04 0"/>
<feBlend mode="normal" in2="BackgroundImageFix" result="effect1_dropShadow_1717_30648"/>
<feBlend mode="normal" in="SourceGraphic" in2="effect1_dropShadow_1717_30648" result="shape"/>
</filter>
</defs>
</svg>
