<svg width="391" height="94" viewBox="0 0 391 94" fill="none" xmlns="http://www.w3.org/2000/svg">
<g filter="url(#filter0_d_1714_36387)">
<path d="M0.894531 19H390.895V94H0.894531V19Z" fill="white"/>
<path d="M335.928 55.7421L336.099 54.642C336.308 53.3011 337.183 52.1526 338.479 51.7511C340.089 51.2525 342.48 50.6855 345.03 50.6855C347.58 50.6855 349.971 51.2525 351.581 51.7511C352.877 52.1526 353.752 53.3011 353.961 54.642L354.132 55.7421" stroke="#87C9FF" stroke-width="2.02261" stroke-linecap="round" stroke-linejoin="round"/>
<path d="M345.03 46.1365C347.823 46.1365 350.087 43.8726 350.087 41.08C350.087 38.2873 347.823 36.0234 345.03 36.0234C342.238 36.0234 339.974 38.2873 339.974 41.08C339.974 43.8726 342.238 46.1365 345.03 46.1365Z" stroke="#87C9FF" stroke-width="2.02261" stroke-linecap="round" stroke-linejoin="round"/>
<path d="M332.65 71V63.7273H335.108C335.678 63.7273 336.145 63.8303 336.507 64.0362C336.871 64.2398 337.141 64.5156 337.316 64.8636C337.492 65.2116 337.579 65.5999 337.579 66.0284C337.579 66.4569 337.492 66.8464 337.316 67.1967C337.144 67.5471 336.876 67.8265 336.514 68.0348C336.152 68.2408 335.688 68.3438 335.122 68.3438H333.36V67.5625H335.093C335.484 67.5625 335.798 67.495 336.034 67.3601C336.271 67.2251 336.443 67.0429 336.549 66.8132C336.658 66.5812 336.713 66.3196 336.713 66.0284C336.713 65.7372 336.658 65.4768 336.549 65.2472C336.443 65.0175 336.27 64.8376 336.031 64.7074C335.792 64.5748 335.475 64.5085 335.079 64.5085H333.531V71H332.65ZM341.113 71.1136C340.587 71.1136 340.134 70.9976 339.752 70.7656C339.374 70.5312 339.081 70.2045 338.875 69.7855C338.672 69.3641 338.57 68.8741 338.57 68.3153C338.57 67.7566 338.672 67.2642 338.875 66.8381C339.081 66.4096 339.368 66.0758 339.735 65.8366C340.104 65.5952 340.535 65.4744 341.027 65.4744C341.311 65.4744 341.592 65.5218 341.869 65.6165C342.146 65.7112 342.398 65.8651 342.625 66.0781C342.853 66.2888 343.034 66.5682 343.169 66.9162C343.304 67.2642 343.371 67.6927 343.371 68.2017V68.5568H339.167V67.8324H342.519C342.519 67.5246 342.457 67.25 342.334 67.0085C342.213 66.767 342.041 66.5765 341.816 66.4368C341.593 66.2971 341.33 66.2273 341.027 66.2273C340.694 66.2273 340.405 66.3101 340.161 66.4759C339.919 66.6392 339.734 66.8523 339.603 67.1151C339.473 67.3778 339.408 67.6596 339.408 67.9602V68.4432C339.408 68.8551 339.479 69.2043 339.621 69.4908C339.766 69.7749 339.966 69.9915 340.221 70.1406C340.477 70.2874 340.774 70.3608 341.113 70.3608C341.333 70.3608 341.532 70.33 341.709 70.2685C341.889 70.2045 342.044 70.1098 342.174 69.9844C342.305 69.8565 342.405 69.6979 342.476 69.5085L343.286 69.7358C343.201 70.0104 343.057 70.2519 342.856 70.4602C342.655 70.6662 342.406 70.8272 342.11 70.9432C341.815 71.0568 341.482 71.1136 341.113 71.1136ZM344.646 71V65.5455H345.456V66.3693H345.512C345.612 66.0994 345.792 65.8804 346.052 65.7124C346.313 65.5443 346.606 65.4602 346.933 65.4602C346.994 65.4602 347.071 65.4614 347.164 65.4638C347.256 65.4661 347.326 65.4697 347.373 65.4744V66.3267C347.345 66.3196 347.28 66.3089 347.178 66.2947C347.078 66.2782 346.973 66.2699 346.862 66.2699C346.597 66.2699 346.36 66.3255 346.152 66.4368C345.946 66.5457 345.782 66.6972 345.662 66.8913C345.543 67.0831 345.484 67.3021 345.484 67.5483V71H344.646ZM351.137 65.5455V66.2557H348.197V65.5455H351.137ZM349.078 71V64.7926C349.078 64.4801 349.151 64.2197 349.298 64.0114C349.445 63.803 349.635 63.6468 349.87 63.5426C350.104 63.4384 350.351 63.3864 350.612 63.3864C350.818 63.3864 350.986 63.4029 351.116 63.4361C351.246 63.4692 351.343 63.5 351.407 63.5284L351.166 64.2528C351.123 64.2386 351.064 64.2209 350.988 64.1996C350.915 64.1783 350.818 64.1676 350.697 64.1676C350.42 64.1676 350.22 64.2375 350.097 64.3771C349.976 64.5168 349.916 64.7216 349.916 64.9915V71H349.078ZM352.312 71V65.5455H353.15V71H352.312ZM352.738 64.6364C352.575 64.6364 352.434 64.5807 352.316 64.4695C352.2 64.3582 352.142 64.2244 352.142 64.0682C352.142 63.9119 352.2 63.7782 352.316 63.6669C352.434 63.5556 352.575 63.5 352.738 63.5C352.901 63.5 353.041 63.5556 353.157 63.6669C353.276 63.7782 353.335 63.9119 353.335 64.0682C353.335 64.2244 353.276 64.3582 353.157 64.4695C353.041 64.5807 352.901 64.6364 352.738 64.6364ZM355.523 63.7273V71H354.685V63.7273H355.523Z" fill="#389BEC"/>
<path d="M142.973 37.0332H141.962C140.287 37.0332 138.928 38.3915 138.928 40.0671V54.2254C138.928 55.9009 140.287 57.2593 141.962 57.2593H154.098C155.773 57.2593 157.132 55.9009 157.132 54.2254V40.0671C157.132 38.3915 155.773 37.0332 154.098 37.0332H153.086" stroke="#CFD1DE" stroke-width="2.02261"/>
<rect x="142.974" y="35.0117" width="10.113" height="5.05651" rx="2.02261" stroke="#CFD1DE" stroke-width="2.02261"/>
<path d="M125.303 71V63.7273H127.76C128.33 63.7273 128.797 63.8303 129.159 64.0362C129.524 64.2398 129.794 64.5156 129.969 64.8636C130.144 65.2116 130.232 65.5999 130.232 66.0284C130.232 66.4569 130.144 66.8464 129.969 67.1967C129.796 67.5471 129.528 67.8265 129.166 68.0348C128.804 68.2408 128.34 68.3438 127.774 68.3438H126.013V67.5625H127.746C128.136 67.5625 128.45 67.495 128.687 67.3601C128.924 67.2251 129.095 67.0429 129.202 66.8132C129.311 66.5812 129.365 66.3196 129.365 66.0284C129.365 65.7372 129.311 65.4768 129.202 65.2472C129.095 65.0175 128.922 64.8376 128.683 64.7074C128.444 64.5748 128.127 64.5085 127.732 64.5085H126.183V71H125.303ZM131.537 71V65.5455H132.346V66.3693H132.403C132.502 66.0994 132.682 65.8804 132.943 65.7124C133.203 65.5443 133.497 65.4602 133.824 65.4602C133.885 65.4602 133.962 65.4614 134.054 65.4638C134.147 65.4661 134.217 65.4697 134.264 65.4744V66.3267C134.235 66.3196 134.17 66.3089 134.069 66.2947C133.969 66.2782 133.864 66.2699 133.752 66.2699C133.487 66.2699 133.251 66.3255 133.042 66.4368C132.836 66.5457 132.673 66.6972 132.552 66.8913C132.434 67.0831 132.375 67.3021 132.375 67.5483V71H131.537ZM137.307 71.1136C136.815 71.1136 136.383 70.9964 136.011 70.7621C135.642 70.5277 135.353 70.1998 135.145 69.7784C134.939 69.357 134.836 68.8646 134.836 68.3011C134.836 67.733 134.939 67.237 135.145 66.8132C135.353 66.3894 135.642 66.0604 136.011 65.826C136.383 65.5916 136.815 65.4744 137.307 65.4744C137.8 65.4744 138.23 65.5916 138.6 65.826C138.971 66.0604 139.26 66.3894 139.466 66.8132C139.675 67.237 139.779 67.733 139.779 68.3011C139.779 68.8646 139.675 69.357 139.466 69.7784C139.26 70.1998 138.971 70.5277 138.6 70.7621C138.23 70.9964 137.8 71.1136 137.307 71.1136ZM137.307 70.3608C137.681 70.3608 137.989 70.2649 138.23 70.0732C138.472 69.8814 138.651 69.6293 138.767 69.3168C138.883 69.0043 138.941 68.6657 138.941 68.3011C138.941 67.9366 138.883 67.5968 138.767 67.282C138.651 66.9671 138.472 66.7126 138.23 66.5185C137.989 66.3243 137.681 66.2273 137.307 66.2273C136.933 66.2273 136.625 66.3243 136.384 66.5185C136.142 66.7126 135.964 66.9671 135.848 67.282C135.732 67.5968 135.674 67.9366 135.674 68.3011C135.674 68.6657 135.732 69.0043 135.848 69.3168C135.964 69.6293 136.142 69.8814 136.384 70.0732C136.625 70.2649 136.933 70.3608 137.307 70.3608ZM141.403 73.0455C141.26 73.0455 141.134 73.0336 141.023 73.0099C140.911 72.9886 140.834 72.9673 140.792 72.946L141.005 72.2074C141.208 72.2595 141.388 72.2784 141.545 72.2642C141.701 72.25 141.839 72.1802 141.96 72.0547C142.083 71.9316 142.196 71.7315 142.297 71.4545L142.454 71.0284L140.437 65.5455H141.346L142.851 69.892H142.908L144.414 65.5455H145.323L143.008 71.7955C142.903 72.0772 142.774 72.3104 142.621 72.495C142.467 72.6821 142.288 72.8205 142.084 72.9105C141.883 73.0005 141.656 73.0455 141.403 73.0455ZM148.521 71.1136C147.995 71.1136 147.542 70.9976 147.161 70.7656C146.782 70.5312 146.49 70.2045 146.284 69.7855C146.08 69.3641 145.978 68.8741 145.978 68.3153C145.978 67.7566 146.08 67.2642 146.284 66.8381C146.49 66.4096 146.776 66.0758 147.143 65.8366C147.512 65.5952 147.943 65.4744 148.436 65.4744C148.72 65.4744 149 65.5218 149.277 65.6165C149.554 65.7112 149.806 65.8651 150.034 66.0781C150.261 66.2888 150.442 66.5682 150.577 66.9162C150.712 67.2642 150.779 67.6927 150.779 68.2017V68.5568H146.575V67.8324H149.927C149.927 67.5246 149.865 67.25 149.742 67.0085C149.622 66.767 149.449 66.5765 149.224 66.4368C149.001 66.2971 148.739 66.2273 148.436 66.2273C148.102 66.2273 147.813 66.3101 147.569 66.4759C147.328 66.6392 147.142 66.8523 147.012 67.1151C146.881 67.3778 146.816 67.6596 146.816 67.9602V68.4432C146.816 68.8551 146.887 69.2043 147.029 69.4908C147.174 69.7749 147.374 69.9915 147.629 70.1406C147.885 70.2874 148.182 70.3608 148.521 70.3608C148.741 70.3608 148.94 70.33 149.117 70.2685C149.297 70.2045 149.452 70.1098 149.583 69.9844C149.713 69.8565 149.813 69.6979 149.884 69.5085L150.694 69.7358C150.609 70.0104 150.466 70.2519 150.264 70.4602C150.063 70.6662 149.815 70.8272 149.519 70.9432C149.223 71.0568 148.89 71.1136 148.521 71.1136ZM154.27 71.1136C153.759 71.1136 153.318 70.9929 152.949 70.7514C152.58 70.5099 152.296 70.1773 152.097 69.7536C151.898 69.3298 151.798 68.8456 151.798 68.3011C151.798 67.7472 151.9 67.2583 152.104 66.8345C152.31 66.4084 152.596 66.0758 152.963 65.8366C153.333 65.5952 153.763 65.4744 154.256 65.4744C154.639 65.4744 154.985 65.5455 155.293 65.6875C155.601 65.8295 155.853 66.0284 156.049 66.2841C156.246 66.5398 156.368 66.8381 156.415 67.179H155.577C155.513 66.9304 155.371 66.7102 155.151 66.5185C154.933 66.3243 154.639 66.2273 154.27 66.2273C153.943 66.2273 153.657 66.3125 153.411 66.483C153.167 66.651 152.976 66.889 152.839 67.1967C152.704 67.5021 152.637 67.8608 152.637 68.2727C152.637 68.6941 152.703 69.0611 152.835 69.3736C152.97 69.6861 153.16 69.9287 153.404 70.1016C153.65 70.2744 153.939 70.3608 154.27 70.3608C154.488 70.3608 154.686 70.3229 154.863 70.2472C155.041 70.1714 155.191 70.0625 155.314 69.9205C155.437 69.7784 155.525 69.608 155.577 69.4091H156.415C156.368 69.7311 156.25 70.0211 156.063 70.2791C155.879 70.5348 155.634 70.7384 155.328 70.8899C155.025 71.0391 154.673 71.1136 154.27 71.1136ZM160.012 65.5455V66.2557H157.186V65.5455H160.012ZM158.009 64.2386H158.847V69.4375C158.847 69.6742 158.882 69.8518 158.95 69.9702C159.021 70.0862 159.111 70.1643 159.22 70.2045C159.332 70.2424 159.449 70.2614 159.572 70.2614C159.664 70.2614 159.74 70.2566 159.799 70.2472C159.858 70.2353 159.906 70.2259 159.941 70.2188L160.112 70.9716C160.055 70.9929 159.976 71.0142 159.874 71.0355C159.772 71.0592 159.643 71.071 159.487 71.071C159.25 71.071 159.018 71.0201 158.791 70.9183C158.566 70.8165 158.379 70.6615 158.23 70.4531C158.083 70.2448 158.009 69.982 158.009 69.6648V64.2386ZM163.43 71.1136C162.938 71.1136 162.506 70.9964 162.134 70.7621C161.765 70.5277 161.476 70.1998 161.268 69.7784C161.062 69.357 160.959 68.8646 160.959 68.3011C160.959 67.733 161.062 67.237 161.268 66.8132C161.476 66.3894 161.765 66.0604 162.134 65.826C162.506 65.5916 162.938 65.4744 163.43 65.4744C163.923 65.4744 164.354 65.5916 164.723 65.826C165.095 66.0604 165.383 66.3894 165.589 66.8132C165.798 67.237 165.902 67.733 165.902 68.3011C165.902 68.8646 165.798 69.357 165.589 69.7784C165.383 70.1998 165.095 70.5277 164.723 70.7621C164.354 70.9964 163.923 71.1136 163.43 71.1136ZM163.43 70.3608C163.804 70.3608 164.112 70.2649 164.354 70.0732C164.595 69.8814 164.774 69.6293 164.89 69.3168C165.006 69.0043 165.064 68.6657 165.064 68.3011C165.064 67.9366 165.006 67.5968 164.89 67.282C164.774 66.9671 164.595 66.7126 164.354 66.5185C164.112 66.3243 163.804 66.2273 163.43 66.2273C163.056 66.2273 162.748 66.3243 162.507 66.5185C162.265 66.7126 162.087 66.9671 161.971 67.282C161.855 67.5968 161.797 67.9366 161.797 68.3011C161.797 68.6657 161.855 69.0043 161.971 69.3168C162.087 69.6293 162.265 69.8814 162.507 70.0732C162.748 70.2649 163.056 70.3608 163.43 70.3608ZM171.045 66.767L170.292 66.9801C170.245 66.8546 170.175 66.7327 170.082 66.6143C169.992 66.4936 169.869 66.3942 169.713 66.3161C169.557 66.2379 169.357 66.1989 169.113 66.1989C168.779 66.1989 168.501 66.2758 168.278 66.4297C168.058 66.5812 167.948 66.7741 167.948 67.0085C167.948 67.2169 168.024 67.3814 168.175 67.5021C168.327 67.6229 168.564 67.7235 168.886 67.804L169.695 68.0028C170.183 68.1212 170.546 68.3023 170.786 68.5462C171.025 68.7876 171.144 69.099 171.144 69.4801C171.144 69.7926 171.054 70.072 170.874 70.3182C170.697 70.5644 170.448 70.7585 170.129 70.9006C169.809 71.0426 169.437 71.1136 169.013 71.1136C168.457 71.1136 167.997 70.9929 167.632 70.7514C167.268 70.5099 167.037 70.1572 166.94 69.6932L167.735 69.4943C167.811 69.7879 167.954 70.008 168.165 70.1548C168.378 70.3016 168.656 70.375 168.999 70.375C169.39 70.375 169.7 70.2921 169.93 70.1264C170.162 69.9583 170.278 69.7571 170.278 69.5227C170.278 69.3333 170.211 69.1747 170.079 69.0469C169.946 68.9167 169.743 68.8196 169.468 68.7557L168.559 68.5426C168.059 68.4242 167.692 68.2408 167.458 67.9922C167.226 67.7412 167.11 67.4276 167.11 67.0511C167.11 66.7434 167.196 66.4711 167.369 66.2344C167.545 65.9976 167.782 65.8118 168.083 65.6768C168.386 65.5419 168.729 65.4744 169.113 65.4744C169.653 65.4744 170.076 65.5928 170.384 65.8295C170.694 66.0663 170.915 66.3788 171.045 66.767Z" fill="#CFD1DE"/>
<path d="M39.917 43.9751C39.917 43.0215 40.3703 42.1248 41.1381 41.5594L50.03 35.0117L58.9219 41.5594C59.6897 42.1248 60.143 43.0215 60.143 43.9751V54.7604C60.143 56.1411 59.0238 57.2604 57.643 57.2604H54.0639C53.5116 57.2604 53.0639 56.8127 53.0639 56.2604V50.1756C53.0639 49.8995 52.8401 49.6756 52.5639 49.6756H47.4961C47.22 49.6756 46.9961 49.8995 46.9961 50.1756V56.2604C46.9961 56.8127 46.5484 57.2604 45.9961 57.2604H42.417C41.0363 57.2604 39.917 56.1411 39.917 54.7604V43.9751Z" stroke="#CFD1DE" stroke-width="2.02261" stroke-linecap="round" stroke-linejoin="round"/>
<path d="M36.9705 71V63.7273H37.8512V66.9659H41.729V63.7273H42.6097V71H41.729V67.7472H37.8512V71H36.9705ZM46.4751 71.1136C45.9827 71.1136 45.5507 70.9964 45.179 70.7621C44.8097 70.5277 44.5208 70.1998 44.3125 69.7784C44.1065 69.357 44.0036 68.8646 44.0036 68.3011C44.0036 67.733 44.1065 67.237 44.3125 66.8132C44.5208 66.3894 44.8097 66.0604 45.179 65.826C45.5507 65.5916 45.9827 65.4744 46.4751 65.4744C46.9676 65.4744 47.3984 65.5916 47.7678 65.826C48.1394 66.0604 48.4283 66.3894 48.6342 66.8132C48.8426 67.237 48.9467 67.733 48.9467 68.3011C48.9467 68.8646 48.8426 69.357 48.6342 69.7784C48.4283 70.1998 48.1394 70.5277 47.7678 70.7621C47.3984 70.9964 46.9676 71.1136 46.4751 71.1136ZM46.4751 70.3608C46.8492 70.3608 47.157 70.2649 47.3984 70.0732C47.6399 69.8814 47.8187 69.6293 47.9347 69.3168C48.0507 69.0043 48.1087 68.6657 48.1087 68.3011C48.1087 67.9366 48.0507 67.5968 47.9347 67.282C47.8187 66.9671 47.6399 66.7126 47.3984 66.5185C47.157 66.3243 46.8492 66.2273 46.4751 66.2273C46.1011 66.2273 45.7933 66.3243 45.5518 66.5185C45.3104 66.7126 45.1316 66.9671 45.0156 67.282C44.8996 67.5968 44.8416 67.9366 44.8416 68.3011C44.8416 68.6657 44.8996 69.0043 45.0156 69.3168C45.1316 69.6293 45.3104 69.8814 45.5518 70.0732C45.7933 70.2649 46.1011 70.3608 46.4751 70.3608ZM50.226 71V65.5455H51.0357V66.3977H51.1067C51.2203 66.1065 51.4038 65.8804 51.6571 65.7195C51.9105 65.5561 52.2147 65.4744 52.5698 65.4744C52.9296 65.4744 53.2291 65.5561 53.4682 65.7195C53.7097 65.8804 53.8979 66.1065 54.0328 66.3977H54.0897C54.2293 66.116 54.4389 65.8923 54.7182 65.7266C54.9976 65.5585 55.3326 65.4744 55.7232 65.4744C56.2109 65.4744 56.6098 65.6271 56.9199 65.9325C57.2301 66.2356 57.3851 66.7079 57.3851 67.3494V71H56.5471V67.3494C56.5471 66.947 56.437 66.6593 56.2168 66.4865C55.9966 66.3137 55.7374 66.2273 55.4391 66.2273C55.0556 66.2273 54.7585 66.3433 54.5478 66.5753C54.3371 66.8049 54.2317 67.0961 54.2317 67.4489V71H53.3794V67.2642C53.3794 66.9541 53.2788 66.7043 53.0776 66.5149C52.8764 66.3232 52.6171 66.2273 52.2999 66.2273C52.0821 66.2273 51.8785 66.2853 51.6891 66.4013C51.5021 66.5173 51.3506 66.6783 51.2346 66.8842C51.1209 67.0878 51.0641 67.3234 51.0641 67.5909V71H50.226ZM61.2044 71.1136C60.6788 71.1136 60.2254 70.9976 59.8443 70.7656C59.4655 70.5312 59.1731 70.2045 58.9672 69.7855C58.7636 69.3641 58.6618 68.8741 58.6618 68.3153C58.6618 67.7566 58.7636 67.2642 58.9672 66.8381C59.1731 66.4096 59.4596 66.0758 59.8265 65.8366C60.1958 65.5952 60.6267 65.4744 61.1191 65.4744C61.4032 65.4744 61.6838 65.5218 61.9608 65.6165C62.2377 65.7112 62.4899 65.8651 62.7172 66.0781C62.9444 66.2888 63.1255 66.5682 63.2605 66.9162C63.3954 67.2642 63.4629 67.6927 63.4629 68.2017V68.5568H59.2583V67.8324H62.6106C62.6106 67.5246 62.5491 67.25 62.426 67.0085C62.3052 66.767 62.1324 66.5765 61.9075 66.4368C61.685 66.2971 61.4222 66.2273 61.1191 66.2273C60.7853 66.2273 60.4965 66.3101 60.2527 66.4759C60.0112 66.6392 59.8253 66.8523 59.6951 67.1151C59.5649 67.3778 59.4998 67.6596 59.4998 67.9602V68.4432C59.4998 68.8551 59.5708 69.2043 59.7129 69.4908C59.8573 69.7749 60.0574 69.9915 60.313 70.1406C60.5687 70.2874 60.8658 70.3608 61.2044 70.3608C61.4245 70.3608 61.6234 70.33 61.801 70.2685C61.9809 70.2045 62.1359 70.1098 62.2662 69.9844C62.3964 69.8565 62.497 69.6979 62.568 69.5085L63.3777 69.7358C63.2924 70.0104 63.1492 70.2519 62.948 70.4602C62.7467 70.6662 62.4982 70.8272 62.2022 70.9432C61.9063 71.0568 61.5737 71.1136 61.2044 71.1136Z" fill="#CFD1DE"/>
<path d="M227.814 71V63.7273H230.357C230.864 63.7273 231.281 63.8149 231.61 63.9901C231.94 64.1629 232.185 64.3961 232.346 64.6896C232.507 64.9808 232.587 65.304 232.587 65.6591C232.587 65.9716 232.531 66.2296 232.42 66.4332C232.311 66.6368 232.167 66.7978 231.987 66.9162C231.809 67.0346 231.616 67.1222 231.408 67.179V67.25C231.631 67.2642 231.854 67.3423 232.079 67.4844C232.304 67.6264 232.492 67.83 232.644 68.0952C232.795 68.3603 232.871 68.6847 232.871 69.0682C232.871 69.4328 232.788 69.7607 232.623 70.0518C232.457 70.343 232.195 70.5739 231.838 70.7443C231.48 70.9148 231.015 71 230.442 71H227.814ZM228.695 70.2188H230.442C231.017 70.2188 231.426 70.1075 231.667 69.8849C231.911 69.66 232.033 69.3878 232.033 69.0682C232.033 68.822 231.97 68.5947 231.845 68.3864C231.719 68.1757 231.541 68.0076 231.309 67.8821C231.077 67.7543 230.802 67.6903 230.485 67.6903H228.695V70.2188ZM228.695 66.9233H230.328C230.594 66.9233 230.833 66.8712 231.046 66.767C231.261 66.6629 231.432 66.5161 231.557 66.3267C231.685 66.1373 231.749 65.9148 231.749 65.6591C231.749 65.3395 231.638 65.0684 231.415 64.8459C231.193 64.621 230.84 64.5085 230.357 64.5085H228.695V66.9233ZM234.205 71V65.5455H235.043V71H234.205ZM234.631 64.6364C234.467 64.6364 234.326 64.5807 234.208 64.4695C234.092 64.3582 234.034 64.2244 234.034 64.0682C234.034 63.9119 234.092 63.7782 234.208 63.6669C234.326 63.5556 234.467 63.5 234.631 63.5C234.794 63.5 234.934 63.5556 235.05 63.6669C235.168 63.7782 235.227 63.9119 235.227 64.0682C235.227 64.2244 235.168 64.3582 235.05 64.4695C234.934 64.5807 234.794 64.6364 234.631 64.6364ZM237.416 63.7273V71H236.578V63.7273H237.416ZM239.789 63.7273V71H238.951V63.7273H239.789ZM243.611 71.1136C243.085 71.1136 242.632 70.9976 242.251 70.7656C241.872 70.5312 241.579 70.2045 241.373 69.7855C241.17 69.3641 241.068 68.8741 241.068 68.3153C241.068 67.7566 241.17 67.2642 241.373 66.8381C241.579 66.4096 241.866 66.0758 242.233 65.8366C242.602 65.5952 243.033 65.4744 243.525 65.4744C243.809 65.4744 244.09 65.5218 244.367 65.6165C244.644 65.7112 244.896 65.8651 245.123 66.0781C245.351 66.2888 245.532 66.5682 245.667 66.9162C245.802 67.2642 245.869 67.6927 245.869 68.2017V68.5568H241.665V67.8324H245.017C245.017 67.5246 244.955 67.25 244.832 67.0085C244.711 66.767 244.539 66.5765 244.314 66.4368C244.091 66.2971 243.828 66.2273 243.525 66.2273C243.192 66.2273 242.903 66.3101 242.659 66.4759C242.417 66.6392 242.232 66.8523 242.101 67.1151C241.971 67.3778 241.906 67.6596 241.906 67.9602V68.4432C241.906 68.8551 241.977 69.2043 242.119 69.4908C242.264 69.7749 242.464 69.9915 242.719 70.1406C242.975 70.2874 243.272 70.3608 243.611 70.3608C243.831 70.3608 244.03 70.33 244.207 70.2685C244.387 70.2045 244.542 70.1098 244.672 69.9844C244.803 69.8565 244.903 69.6979 244.974 69.5085L245.784 69.7358C245.699 70.0104 245.555 70.2519 245.354 70.4602C245.153 70.6662 244.904 70.8272 244.608 70.9432C244.313 71.0568 243.98 71.1136 243.611 71.1136ZM249.516 65.5455V66.2557H246.689V65.5455H249.516ZM247.513 64.2386H248.351V69.4375C248.351 69.6742 248.386 69.8518 248.454 69.9702C248.525 70.0862 248.615 70.1643 248.724 70.2045C248.836 70.2424 248.953 70.2614 249.076 70.2614C249.168 70.2614 249.244 70.2566 249.303 70.2472C249.362 70.2353 249.41 70.2259 249.445 70.2188L249.616 70.9716C249.559 70.9929 249.479 71.0142 249.378 71.0355C249.276 71.0592 249.147 71.071 248.991 71.071C248.754 71.071 248.522 71.0201 248.295 70.9183C248.07 70.8165 247.883 70.6615 247.733 70.4531C247.587 70.2448 247.513 69.982 247.513 69.6648V64.2386ZM253.005 71.1136C252.48 71.1136 252.026 70.9976 251.645 70.7656C251.266 70.5312 250.974 70.2045 250.768 69.7855C250.564 69.3641 250.463 68.8741 250.463 68.3153C250.463 67.7566 250.564 67.2642 250.768 66.8381C250.974 66.4096 251.26 66.0758 251.627 65.8366C251.997 65.5952 252.427 65.4744 252.92 65.4744C253.204 65.4744 253.485 65.5218 253.762 65.6165C254.039 65.7112 254.291 65.8651 254.518 66.0781C254.745 66.2888 254.926 66.5682 255.061 66.9162C255.196 67.2642 255.264 67.6927 255.264 68.2017V68.5568H251.059V67.8324H254.411C254.411 67.5246 254.35 67.25 254.227 67.0085C254.106 66.767 253.933 66.5765 253.708 66.4368C253.486 66.2971 253.223 66.2273 252.92 66.2273C252.586 66.2273 252.297 66.3101 252.053 66.4759C251.812 66.6392 251.626 66.8523 251.496 67.1151C251.366 67.3778 251.301 67.6596 251.301 67.9602V68.4432C251.301 68.8551 251.372 69.2043 251.514 69.4908C251.658 69.7749 251.858 69.9915 252.114 70.1406C252.369 70.2874 252.667 70.3608 253.005 70.3608C253.225 70.3608 253.424 70.33 253.602 70.2685C253.782 70.2045 253.937 70.1098 254.067 69.9844C254.197 69.8565 254.298 69.6979 254.369 69.5085L255.178 69.7358C255.093 70.0104 254.95 70.2519 254.749 70.4602C254.548 70.6662 254.299 70.8272 254.003 70.9432C253.707 71.0568 253.374 71.1136 253.005 71.1136ZM256.539 71V65.5455H257.348V66.3693H257.405C257.504 66.0994 257.684 65.8804 257.945 65.7124C258.205 65.5443 258.499 65.4602 258.825 65.4602C258.887 65.4602 258.964 65.4614 259.056 65.4638C259.149 65.4661 259.218 65.4697 259.266 65.4744V66.3267C259.237 66.3196 259.172 66.3089 259.07 66.2947C258.971 66.2782 258.866 66.2699 258.754 66.2699C258.489 66.2699 258.253 66.3255 258.044 66.4368C257.838 66.5457 257.675 66.6972 257.554 66.8913C257.436 67.0831 257.377 67.3021 257.377 67.5483V71H256.539ZM261.864 71.1278C261.519 71.1278 261.205 71.0627 260.923 70.9325C260.642 70.8 260.418 70.6094 260.252 70.3608C260.086 70.1098 260.004 69.8068 260.004 69.4517C260.004 69.1392 260.065 68.8859 260.188 68.6918C260.311 68.4953 260.476 68.3414 260.682 68.2301C260.888 68.1188 261.115 68.036 261.364 67.9815C261.615 67.9247 261.867 67.8797 262.12 67.8466C262.451 67.804 262.72 67.772 262.926 67.7507C263.134 67.727 263.286 67.688 263.381 67.6335C263.478 67.5791 263.526 67.4844 263.526 67.3494V67.321C263.526 66.9706 263.43 66.6984 263.239 66.5043C263.049 66.3101 262.762 66.2131 262.376 66.2131C261.976 66.2131 261.662 66.3007 261.435 66.4759C261.207 66.651 261.048 66.8381 260.955 67.0369L260.16 66.7528C260.302 66.4214 260.491 66.1634 260.728 65.9787C260.967 65.7917 261.228 65.6615 261.509 65.5881C261.793 65.5123 262.073 65.4744 262.347 65.4744C262.522 65.4744 262.724 65.4957 262.951 65.5384C263.181 65.5786 263.402 65.6626 263.615 65.7905C263.83 65.9183 264.009 66.1113 264.151 66.3693C264.293 66.6274 264.364 66.973 264.364 67.4062V71H263.526V70.2614H263.484C263.427 70.3797 263.332 70.5064 263.2 70.6413C263.067 70.7763 262.891 70.8911 262.67 70.9858C262.45 71.0805 262.182 71.1278 261.864 71.1278ZM261.992 70.375C262.324 70.375 262.603 70.3099 262.83 70.1797C263.06 70.0495 263.233 69.8814 263.349 69.6754C263.467 69.4695 263.526 69.2528 263.526 69.0256V68.2585C263.491 68.3011 263.413 68.3402 263.292 68.3757C263.174 68.4089 263.036 68.4384 262.88 68.4645C262.726 68.4882 262.576 68.5095 262.429 68.5284C262.285 68.545 262.167 68.5592 262.077 68.571C261.86 68.5994 261.656 68.6456 261.467 68.7095C261.28 68.7711 261.128 68.8646 261.012 68.9901C260.898 69.1132 260.842 69.2812 260.842 69.4943C260.842 69.7855 260.949 70.0057 261.165 70.1548C261.383 70.3016 261.658 70.375 261.992 70.375Z" fill="#CFD1DE"/>
<path d="M255.126 37.0449L237.968 37.0449C236.295 37.0449 234.938 38.4015 234.938 40.0749V54.241C234.938 55.9144 236.295 57.271 237.968 57.271H254.092C255.765 57.271 257.122 55.9144 257.122 54.241V44.0256C257.122 42.3522 255.765 40.9956 254.092 40.9956H237.443C236.327 40.9956 235.423 40.0913 235.423 38.9759V38.9759" stroke="#CFD1DE" stroke-width="2.02" stroke-linecap="round" stroke-linejoin="round"/>
<rect width="70" height="2" transform="matrix(1 0 0 -1 309.03 21)" fill="#55B3FF"/>
</g>
<defs>
<filter id="filter0_d_1714_36387" x="-12.1055" y="0" width="416" height="101" filterUnits="userSpaceOnUse" color-interpolation-filters="sRGB">
<feFlood flood-opacity="0" result="BackgroundImageFix"/>
<feColorMatrix in="SourceAlpha" type="matrix" values="0 0 0 0 0 0 0 0 0 0 0 0 0 0 0 0 0 0 127 0" result="hardAlpha"/>
<feOffset dy="-6"/>
<feGaussianBlur stdDeviation="6.5"/>
<feComposite in2="hardAlpha" operator="out"/>
<feColorMatrix type="matrix" values="0 0 0 0 0 0 0 0 0 0 0 0 0 0 0 0 0 0 0.04 0"/>
<feBlend mode="normal" in2="BackgroundImageFix" result="effect1_dropShadow_1714_36387"/>
<feBlend mode="normal" in="SourceGraphic" in2="effect1_dropShadow_1714_36387" result="shape"/>
</filter>
</defs>
</svg>
