<svg width="391" height="94" viewBox="0 0 391 94" fill="none" xmlns="http://www.w3.org/2000/svg">
<g filter="url(#filter0_d_1714_36145)">
<path d="M0.351562 19H390.352V94H0.351562V19Z" fill="white"/>
<path d="M335.385 55.7421L335.556 54.642C335.765 53.3011 336.64 52.1526 337.936 51.7511C339.546 51.2525 341.937 50.6855 344.487 50.6855C347.037 50.6855 349.428 51.2525 351.038 51.7511C352.334 52.1526 353.209 53.3011 353.418 54.642L353.589 55.7421" stroke="#87C9FF" stroke-width="2.02261" stroke-linecap="round" stroke-linejoin="round"/>
<path d="M344.487 46.1365C347.28 46.1365 349.544 43.8726 349.544 41.08C349.544 38.2873 347.28 36.0234 344.487 36.0234C341.695 36.0234 339.431 38.2873 339.431 41.08C339.431 43.8726 341.695 46.1365 344.487 46.1365Z" stroke="#87C9FF" stroke-width="2.02261" stroke-linecap="round" stroke-linejoin="round"/>
<path d="M332.107 71V63.7273H334.565C335.135 63.7273 335.602 63.8303 335.964 64.0362C336.328 64.2398 336.598 64.5156 336.773 64.8636C336.949 65.2116 337.036 65.5999 337.036 66.0284C337.036 66.4569 336.949 66.8464 336.773 67.1967C336.601 67.5471 336.333 67.8265 335.971 68.0348C335.609 68.2408 335.145 68.3438 334.579 68.3438H332.817V67.5625H334.55C334.941 67.5625 335.255 67.495 335.491 67.3601C335.728 67.2251 335.9 67.0429 336.006 66.8132C336.115 66.5812 336.17 66.3196 336.17 66.0284C336.17 65.7372 336.115 65.4768 336.006 65.2472C335.9 65.0175 335.727 64.8376 335.488 64.7074C335.249 64.5748 334.932 64.5085 334.536 64.5085H332.988V71H332.107ZM340.57 71.1136C340.044 71.1136 339.591 70.9976 339.21 70.7656C338.831 70.5312 338.538 70.2045 338.332 69.7855C338.129 69.3641 338.027 68.8741 338.027 68.3153C338.027 67.7566 338.129 67.2642 338.332 66.8381C338.538 66.4096 338.825 66.0758 339.192 65.8366C339.561 65.5952 339.992 65.4744 340.484 65.4744C340.768 65.4744 341.049 65.5218 341.326 65.6165C341.603 65.7112 341.855 65.8651 342.082 66.0781C342.31 66.2888 342.491 66.5682 342.626 66.9162C342.761 67.2642 342.828 67.6927 342.828 68.2017V68.5568H338.624V67.8324H341.976C341.976 67.5246 341.914 67.25 341.791 67.0085C341.67 66.767 341.498 66.5765 341.273 66.4368C341.05 66.2971 340.787 66.2273 340.484 66.2273C340.151 66.2273 339.862 66.3101 339.618 66.4759C339.376 66.6392 339.191 66.8523 339.06 67.1151C338.93 67.3778 338.865 67.6596 338.865 67.9602V68.4432C338.865 68.8551 338.936 69.2043 339.078 69.4908C339.223 69.7749 339.423 69.9915 339.678 70.1406C339.934 70.2874 340.231 70.3608 340.57 70.3608C340.79 70.3608 340.989 70.33 341.166 70.2685C341.346 70.2045 341.501 70.1098 341.631 69.9844C341.762 69.8565 341.862 69.6979 341.933 69.5085L342.743 69.7358C342.658 70.0104 342.514 70.2519 342.313 70.4602C342.112 70.6662 341.863 70.8272 341.567 70.9432C341.272 71.0568 340.939 71.1136 340.57 71.1136ZM344.103 71V65.5455H344.913V66.3693H344.969C345.069 66.0994 345.249 65.8804 345.509 65.7124C345.77 65.5443 346.063 65.4602 346.39 65.4602C346.451 65.4602 346.528 65.4614 346.621 65.4638C346.713 65.4661 346.783 65.4697 346.83 65.4744V66.3267C346.802 66.3196 346.737 66.3089 346.635 66.2947C346.536 66.2782 346.43 66.2699 346.319 66.2699C346.054 66.2699 345.817 66.3255 345.609 66.4368C345.403 66.5457 345.239 66.6972 345.119 66.8913C345 67.0831 344.941 67.3021 344.941 67.5483V71H344.103ZM350.594 65.5455V66.2557H347.654V65.5455H350.594ZM348.535 71V64.7926C348.535 64.4801 348.608 64.2197 348.755 64.0114C348.902 63.803 349.092 63.6468 349.327 63.5426C349.561 63.4384 349.808 63.3864 350.069 63.3864C350.275 63.3864 350.443 63.4029 350.573 63.4361C350.703 63.4692 350.8 63.5 350.864 63.5284L350.623 64.2528C350.58 64.2386 350.521 64.2209 350.445 64.1996C350.372 64.1783 350.275 64.1676 350.154 64.1676C349.877 64.1676 349.677 64.2375 349.554 64.3771C349.433 64.5168 349.373 64.7216 349.373 64.9915V71H348.535ZM351.769 71V65.5455H352.607V71H351.769ZM352.195 64.6364C352.032 64.6364 351.891 64.5807 351.773 64.4695C351.657 64.3582 351.599 64.2244 351.599 64.0682C351.599 63.9119 351.657 63.7782 351.773 63.6669C351.891 63.5556 352.032 63.5 352.195 63.5C352.358 63.5 352.498 63.5556 352.614 63.6669C352.733 63.7782 352.792 63.9119 352.792 64.0682C352.792 64.2244 352.733 64.3582 352.614 64.4695C352.498 64.5807 352.358 64.6364 352.195 64.6364ZM354.98 63.7273V71H354.142V63.7273H354.98Z" fill="#389BEC"/>
<path d="M142.43 37.0332H141.419C139.744 37.0332 138.385 38.3915 138.385 40.0671V54.2254C138.385 55.9009 139.744 57.2593 141.419 57.2593H153.555C155.23 57.2593 156.589 55.9009 156.589 54.2254V40.0671C156.589 38.3915 155.23 37.0332 153.555 37.0332H152.543" stroke="#CFD1DE" stroke-width="2.02261"/>
<rect x="142.431" y="35.0117" width="10.113" height="5.05651" rx="2.02261" stroke="#CFD1DE" stroke-width="2.02261"/>
<path d="M124.76 71V63.7273H127.217C127.788 63.7273 128.254 63.8303 128.616 64.0362C128.981 64.2398 129.251 64.5156 129.426 64.8636C129.601 65.2116 129.689 65.5999 129.689 66.0284C129.689 66.4569 129.601 66.8464 129.426 67.1967C129.253 67.5471 128.985 67.8265 128.623 68.0348C128.261 68.2408 127.797 68.3438 127.231 68.3438H125.47V67.5625H127.203C127.593 67.5625 127.907 67.495 128.144 67.3601C128.381 67.2251 128.552 67.0429 128.659 66.8132C128.768 66.5812 128.822 66.3196 128.822 66.0284C128.822 65.7372 128.768 65.4768 128.659 65.2472C128.552 65.0175 128.379 64.8376 128.14 64.7074C127.901 64.5748 127.584 64.5085 127.189 64.5085H125.64V71H124.76ZM130.994 71V65.5455H131.803V66.3693H131.86C131.96 66.0994 132.139 65.8804 132.4 65.7124C132.66 65.5443 132.954 65.4602 133.281 65.4602C133.342 65.4602 133.419 65.4614 133.511 65.4638C133.604 65.4661 133.674 65.4697 133.721 65.4744V66.3267C133.692 66.3196 133.627 66.3089 133.526 66.2947C133.426 66.2782 133.321 66.2699 133.21 66.2699C132.944 66.2699 132.708 66.3255 132.499 66.4368C132.293 66.5457 132.13 66.6972 132.009 66.8913C131.891 67.0831 131.832 67.3021 131.832 67.5483V71H130.994ZM136.764 71.1136C136.272 71.1136 135.84 70.9964 135.468 70.7621C135.099 70.5277 134.81 70.1998 134.602 69.7784C134.396 69.357 134.293 68.8646 134.293 68.3011C134.293 67.733 134.396 67.237 134.602 66.8132C134.81 66.3894 135.099 66.0604 135.468 65.826C135.84 65.5916 136.272 65.4744 136.764 65.4744C137.257 65.4744 137.688 65.5916 138.057 65.826C138.429 66.0604 138.717 66.3894 138.923 66.8132C139.132 67.237 139.236 67.733 139.236 68.3011C139.236 68.8646 139.132 69.357 138.923 69.7784C138.717 70.1998 138.429 70.5277 138.057 70.7621C137.688 70.9964 137.257 71.1136 136.764 71.1136ZM136.764 70.3608C137.138 70.3608 137.446 70.2649 137.688 70.0732C137.929 69.8814 138.108 69.6293 138.224 69.3168C138.34 69.0043 138.398 68.6657 138.398 68.3011C138.398 67.9366 138.34 67.5968 138.224 67.282C138.108 66.9671 137.929 66.7126 137.688 66.5185C137.446 66.3243 137.138 66.2273 136.764 66.2273C136.39 66.2273 136.082 66.3243 135.841 66.5185C135.599 66.7126 135.421 66.9671 135.305 67.282C135.189 67.5968 135.131 67.9366 135.131 68.3011C135.131 68.6657 135.189 69.0043 135.305 69.3168C135.421 69.6293 135.599 69.8814 135.841 70.0732C136.082 70.2649 136.39 70.3608 136.764 70.3608ZM140.86 73.0455C140.718 73.0455 140.591 73.0336 140.48 73.0099C140.368 72.9886 140.291 72.9673 140.249 72.946L140.462 72.2074C140.665 72.2595 140.845 72.2784 141.002 72.2642C141.158 72.25 141.296 72.1802 141.417 72.0547C141.54 71.9316 141.653 71.7315 141.754 71.4545L141.911 71.0284L139.894 65.5455H140.803L142.308 69.892H142.365L143.871 65.5455H144.78L142.465 71.7955C142.36 72.0772 142.231 72.3104 142.078 72.495C141.924 72.6821 141.745 72.8205 141.541 72.9105C141.34 73.0005 141.113 73.0455 140.86 73.0455ZM147.978 71.1136C147.452 71.1136 146.999 70.9976 146.618 70.7656C146.239 70.5312 145.947 70.2045 145.741 69.7855C145.537 69.3641 145.435 68.8741 145.435 68.3153C145.435 67.7566 145.537 67.2642 145.741 66.8381C145.947 66.4096 146.233 66.0758 146.6 65.8366C146.969 65.5952 147.4 65.4744 147.893 65.4744C148.177 65.4744 148.457 65.5218 148.734 65.6165C149.011 65.7112 149.263 65.8651 149.491 66.0781C149.718 66.2888 149.899 66.5682 150.034 66.9162C150.169 67.2642 150.236 67.6927 150.236 68.2017V68.5568H146.032V67.8324H149.384C149.384 67.5246 149.323 67.25 149.199 67.0085C149.079 66.767 148.906 66.5765 148.681 66.4368C148.458 66.2971 148.196 66.2273 147.893 66.2273C147.559 66.2273 147.27 66.3101 147.026 66.4759C146.785 66.6392 146.599 66.8523 146.469 67.1151C146.338 67.3778 146.273 67.6596 146.273 67.9602V68.4432C146.273 68.8551 146.344 69.2043 146.486 69.4908C146.631 69.7749 146.831 69.9915 147.086 70.1406C147.342 70.2874 147.639 70.3608 147.978 70.3608C148.198 70.3608 148.397 70.33 148.574 70.2685C148.754 70.2045 148.909 70.1098 149.04 69.9844C149.17 69.8565 149.27 69.6979 149.341 69.5085L150.151 69.7358C150.066 70.0104 149.923 70.2519 149.721 70.4602C149.52 70.6662 149.272 70.8272 148.976 70.9432C148.68 71.0568 148.347 71.1136 147.978 71.1136ZM153.727 71.1136C153.216 71.1136 152.775 70.9929 152.406 70.7514C152.037 70.5099 151.753 70.1773 151.554 69.7536C151.355 69.3298 151.256 68.8456 151.256 68.3011C151.256 67.7472 151.357 67.2583 151.561 66.8345C151.767 66.4084 152.053 66.0758 152.42 65.8366C152.79 65.5952 153.22 65.4744 153.713 65.4744C154.096 65.4744 154.442 65.5455 154.75 65.6875C155.058 65.8295 155.31 66.0284 155.506 66.2841C155.703 66.5398 155.825 66.8381 155.872 67.179H155.034C154.97 66.9304 154.828 66.7102 154.608 66.5185C154.39 66.3243 154.096 66.2273 153.727 66.2273C153.4 66.2273 153.114 66.3125 152.868 66.483C152.624 66.651 152.433 66.889 152.296 67.1967C152.161 67.5021 152.094 67.8608 152.094 68.2727C152.094 68.6941 152.16 69.0611 152.292 69.3736C152.427 69.6861 152.617 69.9287 152.861 70.1016C153.107 70.2744 153.396 70.3608 153.727 70.3608C153.945 70.3608 154.143 70.3229 154.32 70.2472C154.498 70.1714 154.648 70.0625 154.771 69.9205C154.894 69.7784 154.982 69.608 155.034 69.4091H155.872C155.825 69.7311 155.707 70.0211 155.52 70.2791C155.336 70.5348 155.091 70.7384 154.785 70.8899C154.482 71.0391 154.13 71.1136 153.727 71.1136ZM159.469 65.5455V66.2557H156.643V65.5455H159.469ZM157.466 64.2386H158.305V69.4375C158.305 69.6742 158.339 69.8518 158.407 69.9702C158.479 70.0862 158.568 70.1643 158.677 70.2045C158.789 70.2424 158.906 70.2614 159.029 70.2614C159.121 70.2614 159.197 70.2566 159.256 70.2472C159.315 70.2353 159.363 70.2259 159.398 70.2188L159.569 70.9716C159.512 70.9929 159.433 71.0142 159.331 71.0355C159.229 71.0592 159.1 71.071 158.944 71.071C158.707 71.071 158.475 71.0201 158.248 70.9183C158.023 70.8165 157.836 70.6615 157.687 70.4531C157.54 70.2448 157.466 69.982 157.466 69.6648V64.2386ZM162.887 71.1136C162.395 71.1136 161.963 70.9964 161.591 70.7621C161.222 70.5277 160.933 70.1998 160.725 69.7784C160.519 69.357 160.416 68.8646 160.416 68.3011C160.416 67.733 160.519 67.237 160.725 66.8132C160.933 66.3894 161.222 66.0604 161.591 65.826C161.963 65.5916 162.395 65.4744 162.887 65.4744C163.38 65.4744 163.811 65.5916 164.18 65.826C164.552 66.0604 164.84 66.3894 165.046 66.8132C165.255 67.237 165.359 67.733 165.359 68.3011C165.359 68.8646 165.255 69.357 165.046 69.7784C164.84 70.1998 164.552 70.5277 164.18 70.7621C163.811 70.9964 163.38 71.1136 162.887 71.1136ZM162.887 70.3608C163.261 70.3608 163.569 70.2649 163.811 70.0732C164.052 69.8814 164.231 69.6293 164.347 69.3168C164.463 69.0043 164.521 68.6657 164.521 68.3011C164.521 67.9366 164.463 67.5968 164.347 67.282C164.231 66.9671 164.052 66.7126 163.811 66.5185C163.569 66.3243 163.261 66.2273 162.887 66.2273C162.513 66.2273 162.205 66.3243 161.964 66.5185C161.722 66.7126 161.544 66.9671 161.428 67.282C161.312 67.5968 161.254 67.9366 161.254 68.3011C161.254 68.6657 161.312 69.0043 161.428 69.3168C161.544 69.6293 161.722 69.8814 161.964 70.0732C162.205 70.2649 162.513 70.3608 162.887 70.3608ZM170.502 66.767L169.749 66.9801C169.702 66.8546 169.632 66.7327 169.539 66.6143C169.449 66.4936 169.326 66.3942 169.17 66.3161C169.014 66.2379 168.814 66.1989 168.57 66.1989C168.236 66.1989 167.958 66.2758 167.735 66.4297C167.515 66.5812 167.405 66.7741 167.405 67.0085C167.405 67.2169 167.481 67.3814 167.632 67.5021C167.784 67.6229 168.021 67.7235 168.343 67.804L169.152 68.0028C169.64 68.1212 170.003 68.3023 170.243 68.5462C170.482 68.7876 170.601 69.099 170.601 69.4801C170.601 69.7926 170.511 70.072 170.331 70.3182C170.154 70.5644 169.905 70.7585 169.586 70.9006C169.266 71.0426 168.894 71.1136 168.471 71.1136C167.914 71.1136 167.454 70.9929 167.089 70.7514C166.725 70.5099 166.494 70.1572 166.397 69.6932L167.192 69.4943C167.268 69.7879 167.411 70.008 167.622 70.1548C167.835 70.3016 168.113 70.375 168.456 70.375C168.847 70.375 169.157 70.2921 169.387 70.1264C169.619 69.9583 169.735 69.7571 169.735 69.5227C169.735 69.3333 169.668 69.1747 169.536 69.0469C169.403 68.9167 169.2 68.8196 168.925 68.7557L168.016 68.5426C167.516 68.4242 167.15 68.2408 166.915 67.9922C166.683 67.7412 166.567 67.4276 166.567 67.0511C166.567 66.7434 166.654 66.4711 166.826 66.2344C167.002 65.9976 167.239 65.8118 167.54 65.6768C167.843 65.5419 168.186 65.4744 168.57 65.4744C169.11 65.4744 169.533 65.5928 169.841 65.8295C170.151 66.0663 170.372 66.3788 170.502 66.767Z" fill="#CFD1DE"/>
<path d="M39.374 43.9751C39.374 43.0215 39.8273 42.1248 40.5952 41.5594L49.4871 35.0117L58.3789 41.5594C59.1468 42.1248 59.6001 43.0215 59.6001 43.9751V54.7604C59.6001 56.1411 58.4808 57.2604 57.1001 57.2604H53.521C52.9687 57.2604 52.521 56.8127 52.521 56.2604V50.1756C52.521 49.8995 52.2971 49.6756 52.021 49.6756H46.9531C46.677 49.6756 46.4531 49.8995 46.4531 50.1756V56.2604C46.4531 56.8127 46.0054 57.2604 45.4531 57.2604H41.874C40.4933 57.2604 39.374 56.1411 39.374 54.7604V43.9751Z" stroke="#CFD1DE" stroke-width="2.02261" stroke-linecap="round" stroke-linejoin="round"/>
<path d="M36.4276 71V63.7273H37.3082V66.9659H41.1861V63.7273H42.0668V71H41.1861V67.7472H37.3082V71H36.4276ZM45.9322 71.1136C45.4397 71.1136 45.0077 70.9964 44.636 70.7621C44.2667 70.5277 43.9779 70.1998 43.7695 69.7784C43.5636 69.357 43.4606 68.8646 43.4606 68.3011C43.4606 67.733 43.5636 67.237 43.7695 66.8132C43.9779 66.3894 44.2667 66.0604 44.636 65.826C45.0077 65.5916 45.4397 65.4744 45.9322 65.4744C46.4246 65.4744 46.8555 65.5916 47.2248 65.826C47.5965 66.0604 47.8853 66.3894 48.0913 66.8132C48.2996 67.237 48.4038 67.733 48.4038 68.3011C48.4038 68.8646 48.2996 69.357 48.0913 69.7784C47.8853 70.1998 47.5965 70.5277 47.2248 70.7621C46.8555 70.9964 46.4246 71.1136 45.9322 71.1136ZM45.9322 70.3608C46.3062 70.3608 46.614 70.2649 46.8555 70.0732C47.0969 69.8814 47.2757 69.6293 47.3917 69.3168C47.5077 69.0043 47.5657 68.6657 47.5657 68.3011C47.5657 67.9366 47.5077 67.5968 47.3917 67.282C47.2757 66.9671 47.0969 66.7126 46.8555 66.5185C46.614 66.3243 46.3062 66.2273 45.9322 66.2273C45.5581 66.2273 45.2504 66.3243 45.0089 66.5185C44.7674 66.7126 44.5887 66.9671 44.4727 67.282C44.3567 67.5968 44.2987 67.9366 44.2987 68.3011C44.2987 68.6657 44.3567 69.0043 44.4727 69.3168C44.5887 69.6293 44.7674 69.8814 45.0089 70.0732C45.2504 70.2649 45.5581 70.3608 45.9322 70.3608ZM49.6831 71V65.5455H50.4927V66.3977H50.5637C50.6774 66.1065 50.8609 65.8804 51.1142 65.7195C51.3675 65.5561 51.6717 65.4744 52.0268 65.4744C52.3867 65.4744 52.6861 65.5561 52.9252 65.7195C53.1667 65.8804 53.3549 66.1065 53.4899 66.3977H53.5467C53.6864 66.116 53.8959 65.8923 54.1752 65.7266C54.4546 65.5585 54.7896 65.4744 55.1802 65.4744C55.6679 65.4744 56.0668 65.6271 56.377 65.9325C56.6871 66.2356 56.8422 66.7079 56.8422 67.3494V71H56.0041V67.3494C56.0041 66.947 55.894 66.6593 55.6738 66.4865C55.4537 66.3137 55.1944 66.2273 54.8961 66.2273C54.5126 66.2273 54.2155 66.3433 54.0048 66.5753C53.7941 66.8049 53.6887 67.0961 53.6887 67.4489V71H52.8365V67.2642C52.8365 66.9541 52.7359 66.7043 52.5346 66.5149C52.3334 66.3232 52.0742 66.2273 51.7569 66.2273C51.5391 66.2273 51.3355 66.2853 51.1461 66.4013C50.9591 66.5173 50.8076 66.6783 50.6916 66.8842C50.5779 67.0878 50.5211 67.3234 50.5211 67.5909V71H49.6831ZM60.6614 71.1136C60.1358 71.1136 59.6825 70.9976 59.3013 70.7656C58.9225 70.5312 58.6301 70.2045 58.4242 69.7855C58.2206 69.3641 58.1188 68.8741 58.1188 68.3153C58.1188 67.7566 58.2206 67.2642 58.4242 66.8381C58.6301 66.4096 58.9166 66.0758 59.2836 65.8366C59.6529 65.5952 60.0837 65.4744 60.5762 65.4744C60.8603 65.4744 61.1408 65.5218 61.4178 65.6165C61.6948 65.7112 61.9469 65.8651 62.1742 66.0781C62.4015 66.2888 62.5826 66.5682 62.7175 66.9162C62.8525 67.2642 62.9199 67.6927 62.9199 68.2017V68.5568H58.7154V67.8324H62.0676C62.0676 67.5246 62.0061 67.25 61.883 67.0085C61.7623 66.767 61.5894 66.5765 61.3645 66.4368C61.142 66.2971 60.8792 66.2273 60.5762 66.2273C60.2424 66.2273 59.9535 66.3101 59.7097 66.4759C59.4682 66.6392 59.2824 66.8523 59.1522 67.1151C59.022 67.3778 58.9569 67.6596 58.9569 67.9602V68.4432C58.9569 68.8551 59.0279 69.2043 59.1699 69.4908C59.3143 69.7749 59.5144 69.9915 59.7701 70.1406C60.0257 70.2874 60.3229 70.3608 60.6614 70.3608C60.8816 70.3608 61.0804 70.33 61.258 70.2685C61.4379 70.2045 61.593 70.1098 61.7232 69.9844C61.8534 69.8565 61.954 69.6979 62.025 69.5085L62.8347 69.7358C62.7495 70.0104 62.6062 70.2519 62.405 70.4602C62.2038 70.6662 61.9552 70.8272 61.6593 70.9432C61.3633 71.0568 61.0307 71.1136 60.6614 71.1136Z" fill="#CFD1DE"/>
<path d="M227.271 71V63.7273H229.814C230.321 63.7273 230.738 63.8149 231.067 63.9901C231.397 64.1629 231.642 64.3961 231.803 64.6896C231.964 64.9808 232.044 65.304 232.044 65.6591C232.044 65.9716 231.988 66.2296 231.877 66.4332C231.768 66.6368 231.624 66.7978 231.444 66.9162C231.266 67.0346 231.073 67.1222 230.865 67.179V67.25C231.088 67.2642 231.311 67.3423 231.536 67.4844C231.761 67.6264 231.949 67.83 232.101 68.0952C232.252 68.3603 232.328 68.6847 232.328 69.0682C232.328 69.4328 232.245 69.7607 232.08 70.0518C231.914 70.343 231.652 70.5739 231.295 70.7443C230.937 70.9148 230.472 71 229.899 71H227.271ZM228.152 70.2188H229.899C230.474 70.2188 230.883 70.1075 231.124 69.8849C231.368 69.66 231.49 69.3878 231.49 69.0682C231.49 68.822 231.427 68.5947 231.302 68.3864C231.176 68.1757 230.998 68.0076 230.766 67.8821C230.534 67.7543 230.259 67.6903 229.942 67.6903H228.152V70.2188ZM228.152 66.9233H229.786C230.051 66.9233 230.29 66.8712 230.503 66.767C230.718 66.6629 230.889 66.5161 231.014 66.3267C231.142 66.1373 231.206 65.9148 231.206 65.6591C231.206 65.3395 231.095 65.0684 230.872 64.8459C230.65 64.621 230.297 64.5085 229.814 64.5085H228.152V66.9233ZM233.662 71V65.5455H234.5V71H233.662ZM234.088 64.6364C233.924 64.6364 233.783 64.5807 233.665 64.4695C233.549 64.3582 233.491 64.2244 233.491 64.0682C233.491 63.9119 233.549 63.7782 233.665 63.6669C233.783 63.5556 233.924 63.5 234.088 63.5C234.251 63.5 234.391 63.5556 234.507 63.6669C234.625 63.7782 234.684 63.9119 234.684 64.0682C234.684 64.2244 234.625 64.3582 234.507 64.4695C234.391 64.5807 234.251 64.6364 234.088 64.6364ZM236.873 63.7273V71H236.035V63.7273H236.873ZM239.246 63.7273V71H238.408V63.7273H239.246ZM243.068 71.1136C242.542 71.1136 242.089 70.9976 241.708 70.7656C241.329 70.5312 241.036 70.2045 240.83 69.7855C240.627 69.3641 240.525 68.8741 240.525 68.3153C240.525 67.7566 240.627 67.2642 240.83 66.8381C241.036 66.4096 241.323 66.0758 241.69 65.8366C242.059 65.5952 242.49 65.4744 242.982 65.4744C243.267 65.4744 243.547 65.5218 243.824 65.6165C244.101 65.7112 244.353 65.8651 244.58 66.0781C244.808 66.2888 244.989 66.5682 245.124 66.9162C245.259 67.2642 245.326 67.6927 245.326 68.2017V68.5568H241.122V67.8324H244.474C244.474 67.5246 244.412 67.25 244.289 67.0085C244.169 66.767 243.996 66.5765 243.771 66.4368C243.548 66.2971 243.285 66.2273 242.982 66.2273C242.649 66.2273 242.36 66.3101 242.116 66.4759C241.874 66.6392 241.689 66.8523 241.558 67.1151C241.428 67.3778 241.363 67.6596 241.363 67.9602V68.4432C241.363 68.8551 241.434 69.2043 241.576 69.4908C241.721 69.7749 241.921 69.9915 242.176 70.1406C242.432 70.2874 242.729 70.3608 243.068 70.3608C243.288 70.3608 243.487 70.33 243.664 70.2685C243.844 70.2045 243.999 70.1098 244.129 69.9844C244.26 69.8565 244.36 69.6979 244.431 69.5085L245.241 69.7358C245.156 70.0104 245.012 70.2519 244.811 70.4602C244.61 70.6662 244.361 70.8272 244.066 70.9432C243.77 71.0568 243.437 71.1136 243.068 71.1136ZM248.973 65.5455V66.2557H246.146V65.5455H248.973ZM246.97 64.2386H247.808V69.4375C247.808 69.6742 247.843 69.8518 247.911 69.9702C247.982 70.0862 248.072 70.1643 248.181 70.2045C248.293 70.2424 248.41 70.2614 248.533 70.2614C248.625 70.2614 248.701 70.2566 248.76 70.2472C248.819 70.2353 248.867 70.2259 248.902 70.2188L249.073 70.9716C249.016 70.9929 248.936 71.0142 248.835 71.0355C248.733 71.0592 248.604 71.071 248.448 71.071C248.211 71.071 247.979 71.0201 247.752 70.9183C247.527 70.8165 247.34 70.6615 247.191 70.4531C247.044 70.2448 246.97 69.982 246.97 69.6648V64.2386ZM252.462 71.1136C251.937 71.1136 251.483 70.9976 251.102 70.7656C250.723 70.5312 250.431 70.2045 250.225 69.7855C250.021 69.3641 249.92 68.8741 249.92 68.3153C249.92 67.7566 250.021 67.2642 250.225 66.8381C250.431 66.4096 250.717 66.0758 251.084 65.8366C251.454 65.5952 251.885 65.4744 252.377 65.4744C252.661 65.4744 252.942 65.5218 253.219 65.6165C253.496 65.7112 253.748 65.8651 253.975 66.0781C254.202 66.2888 254.383 66.5682 254.518 66.9162C254.653 67.2642 254.721 67.6927 254.721 68.2017V68.5568H250.516V67.8324H253.868C253.868 67.5246 253.807 67.25 253.684 67.0085C253.563 66.767 253.39 66.5765 253.165 66.4368C252.943 66.2971 252.68 66.2273 252.377 66.2273C252.043 66.2273 251.754 66.3101 251.51 66.4759C251.269 66.6392 251.083 66.8523 250.953 67.1151C250.823 67.3778 250.758 67.6596 250.758 67.9602V68.4432C250.758 68.8551 250.829 69.2043 250.971 69.4908C251.115 69.7749 251.315 69.9915 251.571 70.1406C251.827 70.2874 252.124 70.3608 252.462 70.3608C252.682 70.3608 252.881 70.33 253.059 70.2685C253.239 70.2045 253.394 70.1098 253.524 69.9844C253.654 69.8565 253.755 69.6979 253.826 69.5085L254.635 69.7358C254.55 70.0104 254.407 70.2519 254.206 70.4602C254.005 70.6662 253.756 70.8272 253.46 70.9432C253.164 71.0568 252.831 71.1136 252.462 71.1136ZM255.996 71V65.5455H256.805V66.3693H256.862C256.961 66.0994 257.141 65.8804 257.402 65.7124C257.662 65.5443 257.956 65.4602 258.282 65.4602C258.344 65.4602 258.421 65.4614 258.513 65.4638C258.606 65.4661 258.675 65.4697 258.723 65.4744V66.3267C258.694 66.3196 258.629 66.3089 258.528 66.2947C258.428 66.2782 258.323 66.2699 258.211 66.2699C257.946 66.2699 257.71 66.3255 257.501 66.4368C257.295 66.5457 257.132 66.6972 257.011 66.8913C256.893 67.0831 256.834 67.3021 256.834 67.5483V71H255.996ZM261.321 71.1278C260.976 71.1278 260.662 71.0627 260.38 70.9325C260.099 70.8 259.875 70.6094 259.709 70.3608C259.543 70.1098 259.461 69.8068 259.461 69.4517C259.461 69.1392 259.522 68.8859 259.645 68.6918C259.768 68.4953 259.933 68.3414 260.139 68.2301C260.345 68.1188 260.572 68.036 260.821 67.9815C261.072 67.9247 261.324 67.8797 261.577 67.8466C261.908 67.804 262.177 67.772 262.383 67.7507C262.592 67.727 262.743 67.688 262.838 67.6335C262.935 67.5791 262.983 67.4844 262.983 67.3494V67.321C262.983 66.9706 262.887 66.6984 262.696 66.5043C262.506 66.3101 262.219 66.2131 261.833 66.2131C261.433 66.2131 261.119 66.3007 260.892 66.4759C260.664 66.651 260.505 66.8381 260.412 67.0369L259.617 66.7528C259.759 66.4214 259.948 66.1634 260.185 65.9787C260.424 65.7917 260.685 65.6615 260.966 65.5881C261.25 65.5123 261.53 65.4744 261.804 65.4744C261.98 65.4744 262.181 65.4957 262.408 65.5384C262.638 65.5786 262.859 65.6626 263.072 65.7905C263.288 65.9183 263.466 66.1113 263.608 66.3693C263.75 66.6274 263.821 66.973 263.821 67.4062V71H262.983V70.2614H262.941C262.884 70.3797 262.789 70.5064 262.657 70.6413C262.524 70.7763 262.348 70.8911 262.127 70.9858C261.907 71.0805 261.639 71.1278 261.321 71.1278ZM261.449 70.375C261.781 70.375 262.06 70.3099 262.287 70.1797C262.517 70.0495 262.69 69.8814 262.806 69.6754C262.924 69.4695 262.983 69.2528 262.983 69.0256V68.2585C262.948 68.3011 262.87 68.3402 262.749 68.3757C262.631 68.4089 262.493 68.4384 262.337 68.4645C262.183 68.4882 262.033 68.5095 261.886 68.5284C261.742 68.545 261.624 68.5592 261.534 68.571C261.317 68.5994 261.113 68.6456 260.924 68.7095C260.737 68.7711 260.585 68.8646 260.469 68.9901C260.355 69.1132 260.299 69.2812 260.299 69.4943C260.299 69.7855 260.406 70.0057 260.622 70.1548C260.84 70.3016 261.115 70.375 261.449 70.375Z" fill="#CFD1DE"/>
<path d="M254.583 37.0449L237.426 37.0449C235.752 37.0449 234.396 38.4015 234.396 40.0749V54.241C234.396 55.9144 235.752 57.271 237.426 57.271H253.549C255.222 57.271 256.579 55.9144 256.579 54.241V44.0256C256.579 42.3522 255.222 40.9956 253.549 40.9956H236.9C235.784 40.9956 234.88 40.0913 234.88 38.9759V38.9759" stroke="#CFD1DE" stroke-width="2.02" stroke-linecap="round" stroke-linejoin="round"/>
<rect width="70" height="2" transform="matrix(1 0 0 -1 308.487 21)" fill="#55B3FF"/>
</g>
<defs>
<filter id="filter0_d_1714_36145" x="-12.6484" y="0" width="416" height="101" filterUnits="userSpaceOnUse" color-interpolation-filters="sRGB">
<feFlood flood-opacity="0" result="BackgroundImageFix"/>
<feColorMatrix in="SourceAlpha" type="matrix" values="0 0 0 0 0 0 0 0 0 0 0 0 0 0 0 0 0 0 127 0" result="hardAlpha"/>
<feOffset dy="-6"/>
<feGaussianBlur stdDeviation="6.5"/>
<feComposite in2="hardAlpha" operator="out"/>
<feColorMatrix type="matrix" values="0 0 0 0 0 0 0 0 0 0 0 0 0 0 0 0 0 0 0.04 0"/>
<feBlend mode="normal" in2="BackgroundImageFix" result="effect1_dropShadow_1714_36145"/>
<feBlend mode="normal" in="SourceGraphic" in2="effect1_dropShadow_1714_36145" result="shape"/>
</filter>
</defs>
</svg>
