<svg width="390" height="95" viewBox="0 0 390 95" fill="none" xmlns="http://www.w3.org/2000/svg">
<g filter="url(#filter0_d_1714_39304)">
<path d="M0 19.6973H390V94.6973H0V19.6973Z" fill="white"/>
<path d="M335.034 56.4393L335.205 55.3392C335.414 53.9984 336.289 52.8499 337.585 52.4484C339.195 51.9498 341.586 51.3828 344.136 51.3828C346.686 51.3828 349.077 51.9498 350.687 52.4484C351.983 52.8499 352.858 53.9984 353.067 55.3392L353.238 56.4393" stroke="#CFD1DE" stroke-width="2.02261" stroke-linecap="round" stroke-linejoin="round"/>
<path d="M344.136 46.8337C346.928 46.8337 349.192 44.5699 349.192 41.7772C349.192 38.9846 346.928 36.7207 344.136 36.7207C341.343 36.7207 339.079 38.9846 339.079 41.7772C339.079 44.5699 341.343 46.8337 344.136 46.8337Z" stroke="#CFD1DE" stroke-width="2.02261" stroke-linecap="round" stroke-linejoin="round"/>
<path d="M331.756 71.6973V64.4245H334.213C334.784 64.4245 335.25 64.5275 335.612 64.7335C335.977 64.9371 336.247 65.2129 336.422 65.5609C336.597 65.9089 336.685 66.2972 336.685 66.7257C336.685 67.1542 336.597 67.5436 336.422 67.894C336.249 68.2444 335.982 68.5237 335.619 68.7321C335.257 68.938 334.793 69.041 334.227 69.041H332.466V68.2598H334.199C334.589 68.2598 334.903 68.1923 335.14 68.0574C335.377 67.9224 335.548 67.7401 335.655 67.5105C335.764 67.2785 335.818 67.0169 335.818 66.7257C335.818 66.4345 335.764 66.1741 335.655 65.9444C335.548 65.7148 335.375 65.5349 335.136 65.4047C334.897 65.2721 334.58 65.2058 334.185 65.2058H332.636V71.6973H331.756ZM340.218 71.8109C339.692 71.8109 339.239 71.6949 338.858 71.4629C338.479 71.2285 338.187 70.9018 337.981 70.4828C337.777 70.0614 337.675 69.5713 337.675 69.0126C337.675 68.4539 337.777 67.9615 337.981 67.5353C338.187 67.1068 338.473 66.773 338.84 66.5339C339.21 66.2924 339.64 66.1717 340.133 66.1717C340.417 66.1717 340.697 66.219 340.974 66.3137C341.251 66.4084 341.504 66.5623 341.731 66.7754C341.958 66.9861 342.139 67.2654 342.274 67.6135C342.409 67.9615 342.477 68.39 342.477 68.899V69.2541H338.272V68.5297H341.624C341.624 68.2219 341.563 67.9473 341.44 67.7058C341.319 67.4643 341.146 67.2737 340.921 67.1341C340.699 66.9944 340.436 66.9245 340.133 66.9245C339.799 66.9245 339.51 67.0074 339.266 67.1731C339.025 67.3365 338.839 67.5495 338.709 67.8123C338.579 68.0751 338.513 68.3568 338.513 68.6575V69.1404C338.513 69.5524 338.585 69.9016 338.727 70.188C338.871 70.4721 339.071 70.6887 339.327 70.8379C339.582 70.9847 339.879 71.0581 340.218 71.0581C340.438 71.0581 340.637 71.0273 340.815 70.9657C340.995 70.9018 341.15 70.8071 341.28 70.6816C341.41 70.5538 341.511 70.3952 341.582 70.2058L342.391 70.4331C342.306 70.7077 342.163 70.9492 341.962 71.1575C341.76 71.3635 341.512 71.5244 341.216 71.6404C340.92 71.7541 340.587 71.8109 340.218 71.8109ZM343.751 71.6973V66.2427H344.561V67.0666H344.618C344.717 66.7967 344.897 66.5777 345.158 66.4096C345.418 66.2415 345.712 66.1575 346.038 66.1575C346.1 66.1575 346.177 66.1587 346.269 66.161C346.362 66.1634 346.431 66.167 346.479 66.1717V67.024C346.45 67.0169 346.385 67.0062 346.283 66.992C346.184 66.9754 346.079 66.9672 345.967 66.9672C345.702 66.9672 345.465 67.0228 345.257 67.1341C345.051 67.243 344.888 67.3945 344.767 67.5886C344.649 67.7804 344.589 67.9993 344.589 68.2456V71.6973H343.751ZM350.243 66.2427V66.9529H347.303V66.2427H350.243ZM348.183 71.6973V65.4899C348.183 65.1774 348.257 64.917 348.403 64.7086C348.55 64.5003 348.741 64.344 348.975 64.2399C349.21 64.1357 349.457 64.0836 349.717 64.0836C349.923 64.0836 350.091 64.1002 350.222 64.1333C350.352 64.1665 350.449 64.1973 350.513 64.2257L350.271 64.9501C350.229 64.9359 350.17 64.9181 350.094 64.8968C350.02 64.8755 349.923 64.8649 349.803 64.8649C349.526 64.8649 349.326 64.9347 349.202 65.0744C349.082 65.2141 349.021 65.4189 349.021 65.6887V71.6973H348.183ZM351.417 71.6973V66.2427H352.256V71.6973H351.417ZM351.844 65.3336C351.68 65.3336 351.539 65.278 351.421 65.1667C351.305 65.0555 351.247 64.9217 351.247 64.7654C351.247 64.6092 351.305 64.4754 351.421 64.3642C351.539 64.2529 351.68 64.1973 351.844 64.1973C352.007 64.1973 352.147 64.2529 352.263 64.3642C352.381 64.4754 352.44 64.6092 352.44 64.7654C352.44 64.9217 352.381 65.0555 352.263 65.1667C352.147 65.278 352.007 65.3336 351.844 65.3336ZM354.629 64.4245V71.6973H353.79V64.4245H354.629Z" fill="#CFD1DE"/>
<path d="M142.079 37.7305H141.068C139.393 37.7305 138.034 39.0888 138.034 40.7644V54.9226C138.034 56.5982 139.393 57.9565 141.068 57.9565H153.204C154.879 57.9565 156.238 56.5982 156.238 54.9226V40.7644C156.238 39.0888 154.879 37.7305 153.204 37.7305H152.192" stroke="#87C9FF" stroke-width="2.02261"/>
<rect x="142.079" y="35.709" width="10.113" height="5.05651" rx="2.02261" stroke="#87C9FF" stroke-width="2.02261"/>
<path d="M124.408 71.6973V64.4245H126.865C127.436 64.4245 127.902 64.5275 128.265 64.7335C128.629 64.9371 128.899 65.2129 129.074 65.5609C129.249 65.9089 129.337 66.2972 129.337 66.7257C129.337 67.1542 129.249 67.5436 129.074 67.894C128.901 68.2444 128.634 68.5237 128.272 68.7321C127.909 68.938 127.445 69.041 126.88 69.041H125.118V68.2598H126.851C127.242 68.2598 127.556 68.1923 127.792 68.0574C128.029 67.9224 128.201 67.7401 128.307 67.5105C128.416 67.2785 128.471 67.0169 128.471 66.7257C128.471 66.4345 128.416 66.1741 128.307 65.9444C128.201 65.7148 128.028 65.5349 127.789 65.4047C127.55 65.2721 127.232 65.2058 126.837 65.2058H125.289V71.6973H124.408ZM130.642 71.6973V66.2427H131.452V67.0666H131.509C131.608 66.7967 131.788 66.5777 132.048 66.4096C132.309 66.2415 132.602 66.1575 132.929 66.1575C132.991 66.1575 133.067 66.1587 133.16 66.161C133.252 66.1634 133.322 66.167 133.369 66.1717V67.024C133.341 67.0169 133.276 67.0062 133.174 66.992C133.075 66.9754 132.969 66.9672 132.858 66.9672C132.593 66.9672 132.356 67.0228 132.148 67.1341C131.942 67.243 131.778 67.3945 131.658 67.5886C131.539 67.7804 131.48 67.9993 131.48 68.2456V71.6973H130.642ZM136.413 71.8109C135.92 71.8109 135.488 71.6937 135.116 71.4593C134.747 71.225 134.458 70.8971 134.25 70.4757C134.044 70.0543 133.941 69.5618 133.941 68.9984C133.941 68.4302 134.044 67.9342 134.25 67.5105C134.458 67.0867 134.747 66.7576 135.116 66.5233C135.488 66.2889 135.92 66.1717 136.413 66.1717C136.905 66.1717 137.336 66.2889 137.705 66.5233C138.077 66.7576 138.366 67.0867 138.572 67.5105C138.78 67.9342 138.884 68.4302 138.884 68.9984C138.884 69.5618 138.78 70.0543 138.572 70.4757C138.366 70.8971 138.077 71.225 137.705 71.4593C137.336 71.6937 136.905 71.8109 136.413 71.8109ZM136.413 71.0581C136.787 71.0581 137.094 70.9622 137.336 70.7704C137.577 70.5787 137.756 70.3265 137.872 70.014C137.988 69.7015 138.046 69.363 138.046 68.9984C138.046 68.6338 137.988 68.2941 137.872 67.9792C137.756 67.6644 137.577 67.4099 137.336 67.2157C137.094 67.0216 136.787 66.9245 136.413 66.9245C136.039 66.9245 135.731 67.0216 135.489 67.2157C135.248 67.4099 135.069 67.6644 134.953 67.9792C134.837 68.2941 134.779 68.6338 134.779 68.9984C134.779 69.363 134.837 69.7015 134.953 70.014C135.069 70.3265 135.248 70.5787 135.489 70.7704C135.731 70.9622 136.039 71.0581 136.413 71.0581ZM140.508 73.7427C140.366 73.7427 140.239 73.7309 140.128 73.7072C140.017 73.6859 139.94 73.6646 139.897 73.6433L140.11 72.9047C140.314 72.9567 140.494 72.9757 140.65 72.9615C140.806 72.9473 140.945 72.8774 141.066 72.752C141.189 72.6288 141.301 72.4288 141.403 72.1518L141.559 71.7257L139.542 66.2427H140.451L141.957 70.5893H142.014L143.519 66.2427H144.428L142.113 72.4927C142.009 72.7744 141.88 73.0076 141.726 73.1923C141.572 73.3793 141.393 73.5178 141.19 73.6078C140.989 73.6977 140.761 73.7427 140.508 73.7427ZM147.626 71.8109C147.101 71.8109 146.647 71.6949 146.266 71.4629C145.887 71.2285 145.595 70.9018 145.389 70.4828C145.185 70.0614 145.084 69.5713 145.084 69.0126C145.084 68.4539 145.185 67.9615 145.389 67.5353C145.595 67.1068 145.881 66.773 146.248 66.5339C146.618 66.2924 147.049 66.1717 147.541 66.1717C147.825 66.1717 148.106 66.219 148.383 66.3137C148.66 66.4084 148.912 66.5623 149.139 66.7754C149.366 66.9861 149.547 67.2654 149.682 67.6135C149.817 67.9615 149.885 68.39 149.885 68.899V69.2541H145.68V68.5297H149.032C149.032 68.2219 148.971 67.9473 148.848 67.7058C148.727 67.4643 148.554 67.2737 148.329 67.1341C148.107 66.9944 147.844 66.9245 147.541 66.9245C147.207 66.9245 146.918 67.0074 146.675 67.1731C146.433 67.3365 146.247 67.5495 146.117 67.8123C145.987 68.0751 145.922 68.3568 145.922 68.6575V69.1404C145.922 69.5524 145.993 69.9016 146.135 70.188C146.279 70.4721 146.479 70.6887 146.735 70.8379C146.991 70.9847 147.288 71.0581 147.626 71.0581C147.846 71.0581 148.045 71.0273 148.223 70.9657C148.403 70.9018 148.558 70.8071 148.688 70.6816C148.818 70.5538 148.919 70.3952 148.99 70.2058L149.8 70.4331C149.714 70.7077 149.571 70.9492 149.37 71.1575C149.169 71.3635 148.92 71.5244 148.624 71.6404C148.328 71.7541 147.996 71.8109 147.626 71.8109ZM153.376 71.8109C152.864 71.8109 152.424 71.6902 152.055 71.4487C151.685 71.2072 151.401 70.8746 151.202 70.4508C151.003 70.027 150.904 69.5429 150.904 68.9984C150.904 68.4444 151.006 67.9556 151.209 67.5318C151.415 67.1056 151.702 66.773 152.069 66.5339C152.438 66.2924 152.869 66.1717 153.361 66.1717C153.745 66.1717 154.09 66.2427 154.398 66.3848C154.706 66.5268 154.958 66.7257 155.155 66.9814C155.351 67.237 155.473 67.5353 155.52 67.8762H154.682C154.618 67.6277 154.476 67.4075 154.256 67.2157C154.038 67.0216 153.745 66.9245 153.376 66.9245C153.049 66.9245 152.762 67.0098 152.516 67.1802C152.272 67.3483 152.082 67.5862 151.944 67.894C151.809 68.1994 151.742 68.5581 151.742 68.97C151.742 69.3914 151.808 69.7583 151.941 70.0708C152.076 70.3833 152.265 70.626 152.509 70.7988C152.755 70.9717 153.044 71.0581 153.376 71.0581C153.593 71.0581 153.791 71.0202 153.969 70.9444C154.146 70.8687 154.296 70.7598 154.42 70.6177C154.543 70.4757 154.63 70.3052 154.682 70.1064H155.52C155.473 70.4283 155.356 70.7183 155.169 70.9764C154.984 71.2321 154.739 71.4357 154.434 71.5872C154.131 71.7363 153.778 71.8109 153.376 71.8109ZM159.118 66.2427V66.9529H156.291V66.2427H159.118ZM157.115 64.9359H157.953V70.1348C157.953 70.3715 157.987 70.5491 158.056 70.6674C158.127 70.7834 158.217 70.8616 158.326 70.9018C158.437 70.9397 158.554 70.9586 158.677 70.9586C158.77 70.9586 158.845 70.9539 158.905 70.9444C158.964 70.9326 159.011 70.9231 159.047 70.916L159.217 71.6689C159.16 71.6902 159.081 71.7115 158.979 71.7328C158.877 71.7565 158.748 71.7683 158.592 71.7683C158.355 71.7683 158.123 71.7174 157.896 71.6156C157.671 71.5138 157.484 71.3587 157.335 71.1504C157.188 70.9421 157.115 70.6793 157.115 70.362V64.9359ZM162.536 71.8109C162.043 71.8109 161.611 71.6937 161.24 71.4593C160.87 71.225 160.581 70.8971 160.373 70.4757C160.167 70.0543 160.064 69.5618 160.064 68.9984C160.064 68.4302 160.167 67.9342 160.373 67.5105C160.581 67.0867 160.87 66.7576 161.24 66.5233C161.611 66.2889 162.043 66.1717 162.536 66.1717C163.028 66.1717 163.459 66.2889 163.828 66.5233C164.2 66.7576 164.489 67.0867 164.695 67.5105C164.903 67.9342 165.007 68.4302 165.007 68.9984C165.007 69.5618 164.903 70.0543 164.695 70.4757C164.489 70.8971 164.2 71.225 163.828 71.4593C163.459 71.6937 163.028 71.8109 162.536 71.8109ZM162.536 71.0581C162.91 71.0581 163.218 70.9622 163.459 70.7704C163.7 70.5787 163.879 70.3265 163.995 70.014C164.111 69.7015 164.169 69.363 164.169 68.9984C164.169 68.6338 164.111 68.2941 163.995 67.9792C163.879 67.6644 163.7 67.4099 163.459 67.2157C163.218 67.0216 162.91 66.9245 162.536 66.9245C162.162 66.9245 161.854 67.0216 161.612 67.2157C161.371 67.4099 161.192 67.6644 161.076 67.9792C160.96 68.2941 160.902 68.6338 160.902 68.9984C160.902 69.363 160.96 69.7015 161.076 70.014C161.192 70.3265 161.371 70.5787 161.612 70.7704C161.854 70.9622 162.162 71.0581 162.536 71.0581ZM170.15 67.4643L169.397 67.6774C169.35 67.5519 169.28 67.43 169.188 67.3116C169.098 67.1909 168.975 67.0914 168.819 67.0133C168.662 66.9352 168.462 66.8961 168.218 66.8961C167.885 66.8961 167.606 66.9731 167.384 67.127C167.164 67.2785 167.054 67.4714 167.054 67.7058C167.054 67.9141 167.129 68.0787 167.281 68.1994C167.432 68.3201 167.669 68.4208 167.991 68.5012L168.801 68.7001C169.288 68.8185 169.652 68.9996 169.891 69.2434C170.13 69.4849 170.25 69.7962 170.25 70.1774C170.25 70.4899 170.16 70.7692 169.98 71.0154C169.802 71.2617 169.554 71.4558 169.234 71.5978C168.914 71.7399 168.543 71.8109 168.119 71.8109C167.563 71.8109 167.102 71.6902 166.738 71.4487C166.373 71.2072 166.142 70.8545 166.045 70.3904L166.841 70.1916C166.916 70.4851 167.06 70.7053 167.27 70.8521C167.483 70.9989 167.761 71.0723 168.105 71.0723C168.495 71.0723 168.806 70.9894 169.035 70.8237C169.267 70.6556 169.383 70.4544 169.383 70.22C169.383 70.0306 169.317 69.872 169.184 69.7441C169.052 69.6139 168.848 69.5169 168.574 69.4529L167.664 69.2399C167.165 69.1215 166.798 68.938 166.564 68.6895C166.332 68.4385 166.216 68.1248 166.216 67.7484C166.216 67.4406 166.302 67.1684 166.475 66.9316C166.65 66.6949 166.888 66.5091 167.189 66.3741C167.492 66.2392 167.835 66.1717 168.218 66.1717C168.758 66.1717 169.182 66.2901 169.49 66.5268C169.8 66.7636 170.02 67.0761 170.15 67.4643Z" fill="#389BEC"/>
<path d="M39.0225 44.6724C39.0225 43.7188 39.4758 42.822 40.2436 42.2566L49.1355 35.709L58.0274 42.2566C58.7952 42.822 59.2485 43.7188 59.2485 44.6724V55.4576C59.2485 56.8384 58.1292 57.9576 56.7485 57.9576H53.1694C52.6171 57.9576 52.1694 57.5099 52.1694 56.9576V50.8729C52.1694 50.5967 51.9455 50.3729 51.6694 50.3729H46.6016C46.3254 50.3729 46.1016 50.5967 46.1016 50.8729V56.9576C46.1016 57.5099 45.6539 57.9576 45.1016 57.9576H41.5225C40.1418 57.9576 39.0225 56.8384 39.0225 55.4576V44.6724Z" stroke="#CFD1DE" stroke-width="2.02261" stroke-linecap="round" stroke-linejoin="round"/>
<path d="M36.076 71.6973V64.4245H36.9567V67.6632H40.8345V64.4245H41.7152V71.6973H40.8345V68.4444H36.9567V71.6973H36.076ZM45.5806 71.8109C45.0882 71.8109 44.6561 71.6937 44.2844 71.4593C43.9151 71.225 43.6263 70.8971 43.418 70.4757C43.212 70.0543 43.109 69.5618 43.109 68.9984C43.109 68.4302 43.212 67.9342 43.418 67.5105C43.6263 67.0867 43.9151 66.7576 44.2844 66.5233C44.6561 66.2889 45.0882 66.1717 45.5806 66.1717C46.073 66.1717 46.5039 66.2889 46.8732 66.5233C47.2449 66.7576 47.5337 67.0867 47.7397 67.5105C47.948 67.9342 48.0522 68.4302 48.0522 68.9984C48.0522 69.5618 47.948 70.0543 47.7397 70.4757C47.5337 70.8971 47.2449 71.225 46.8732 71.4593C46.5039 71.6937 46.073 71.8109 45.5806 71.8109ZM45.5806 71.0581C45.9547 71.0581 46.2624 70.9622 46.5039 70.7704C46.7454 70.5787 46.9241 70.3265 47.0401 70.014C47.1561 69.7015 47.2141 69.363 47.2141 68.9984C47.2141 68.6338 47.1561 68.2941 47.0401 67.9792C46.9241 67.6644 46.7454 67.4099 46.5039 67.2157C46.2624 67.0216 45.9547 66.9245 45.5806 66.9245C45.2066 66.9245 44.8988 67.0216 44.6573 67.2157C44.4158 67.4099 44.2371 67.6644 44.1211 67.9792C44.0051 68.2941 43.9471 68.6338 43.9471 68.9984C43.9471 69.363 44.0051 69.7015 44.1211 70.014C44.2371 70.3265 44.4158 70.5787 44.6573 70.7704C44.8988 70.9622 45.2066 71.0581 45.5806 71.0581ZM49.3315 71.6973V66.2427H50.1412V67.095H50.2122C50.3258 66.8038 50.5093 66.5777 50.7626 66.4167C51.0159 66.2534 51.3201 66.1717 51.6752 66.1717C52.0351 66.1717 52.3346 66.2534 52.5737 66.4167C52.8152 66.5777 53.0034 66.8038 53.1383 67.095H53.1951C53.3348 66.8133 53.5443 66.5895 53.8237 66.4238C54.103 66.2557 54.438 66.1717 54.8287 66.1717C55.3163 66.1717 55.7153 66.3244 56.0254 66.6298C56.3355 66.9328 56.4906 67.4051 56.4906 68.0467V71.6973H55.6525V68.0467C55.6525 67.6442 55.5424 67.3566 55.3223 67.1838C55.1021 67.0109 54.8429 66.9245 54.5446 66.9245C54.161 66.9245 53.8639 67.0405 53.6532 67.2725C53.4425 67.5022 53.3372 67.7934 53.3372 68.1461V71.6973H52.4849V67.9615C52.4849 67.6513 52.3843 67.4016 52.1831 67.2122C51.9818 67.0204 51.7226 66.9245 51.4054 66.9245C51.1876 66.9245 50.984 66.9825 50.7946 67.0985C50.6075 67.2145 50.456 67.3755 50.34 67.5815C50.2264 67.7851 50.1696 68.0207 50.1696 68.2882V71.6973H49.3315ZM60.3098 71.8109C59.7843 71.8109 59.3309 71.6949 58.9498 71.4629C58.571 71.2285 58.2786 70.9018 58.0726 70.4828C57.869 70.0614 57.7672 69.5713 57.7672 69.0126C57.7672 68.4539 57.869 67.9615 58.0726 67.5353C58.2786 67.1068 58.565 66.773 58.932 66.5339C59.3013 66.2924 59.7322 66.1717 60.2246 66.1717C60.5087 66.1717 60.7892 66.219 61.0662 66.3137C61.3432 66.4084 61.5953 66.5623 61.8226 66.7754C62.0499 66.9861 62.231 67.2654 62.3659 67.6135C62.5009 67.9615 62.5684 68.39 62.5684 68.899V69.2541H58.3638V68.5297H61.7161C61.7161 68.2219 61.6545 67.9473 61.5314 67.7058C61.4107 67.4643 61.2379 67.2737 61.013 67.1341C60.7904 66.9944 60.5276 66.9245 60.2246 66.9245C59.8908 66.9245 59.602 67.0074 59.3581 67.1731C59.1167 67.3365 58.9308 67.5495 58.8006 67.8123C58.6704 68.0751 58.6053 68.3568 58.6053 68.6575V69.1404C58.6053 69.5524 58.6763 69.9016 58.8184 70.188C58.9628 70.4721 59.1628 70.6887 59.4185 70.8379C59.6742 70.9847 59.9713 71.0581 60.3098 71.0581C60.53 71.0581 60.7289 71.0273 60.9064 70.9657C61.0864 70.9018 61.2414 70.8071 61.3716 70.6816C61.5018 70.5538 61.6025 70.3952 61.6735 70.2058L62.4831 70.4331C62.3979 70.7077 62.2547 70.9492 62.0534 71.1575C61.8522 71.3635 61.6036 71.5244 61.3077 71.6404C61.0118 71.7541 60.6792 71.8109 60.3098 71.8109Z" fill="#CFD1DE"/>
<path d="M226.92 71.6973V64.4245H229.462C229.969 64.4245 230.387 64.5121 230.716 64.6873C231.045 64.8601 231.29 65.0933 231.451 65.3869C231.612 65.6781 231.692 66.0012 231.692 66.3564C231.692 66.6689 231.637 66.9269 231.526 67.1305C231.417 67.3341 231.272 67.4951 231.092 67.6135C230.915 67.7318 230.722 67.8194 230.513 67.8762V67.9473C230.736 67.9615 230.96 68.0396 231.185 68.1816C231.41 68.3237 231.598 68.5273 231.749 68.7924C231.901 69.0576 231.977 69.3819 231.977 69.7654C231.977 70.13 231.894 70.4579 231.728 70.7491C231.562 71.0403 231.301 71.2711 230.943 71.4416C230.586 71.612 230.121 71.6973 229.548 71.6973H226.92ZM227.8 70.916H229.548C230.123 70.916 230.531 70.8047 230.773 70.5822C231.017 70.3573 231.138 70.085 231.138 69.7654C231.138 69.5192 231.076 69.292 230.95 69.0836C230.825 68.8729 230.646 68.7048 230.414 68.5794C230.182 68.4515 229.907 68.3876 229.59 68.3876H227.8V70.916ZM227.8 67.6206H229.434C229.699 67.6206 229.938 67.5685 230.151 67.4643C230.367 67.3601 230.537 67.2134 230.663 67.024C230.79 66.8346 230.854 66.612 230.854 66.3564C230.854 66.0368 230.743 65.7657 230.521 65.5431C230.298 65.3182 229.945 65.2058 229.462 65.2058H227.8V67.6206ZM233.31 71.6973V66.2427H234.148V71.6973H233.31ZM233.736 65.3336C233.573 65.3336 233.432 65.278 233.314 65.1667C233.198 65.0555 233.14 64.9217 233.14 64.7654C233.14 64.6092 233.198 64.4754 233.314 64.3642C233.432 64.2529 233.573 64.1973 233.736 64.1973C233.9 64.1973 234.039 64.2529 234.155 64.3642C234.274 64.4754 234.333 64.6092 234.333 64.7654C234.333 64.9217 234.274 65.0555 234.155 65.1667C234.039 65.278 233.9 65.3336 233.736 65.3336ZM236.521 64.4245V71.6973H235.683V64.4245H236.521ZM238.894 64.4245V71.6973H238.056V64.4245H238.894ZM242.716 71.8109C242.191 71.8109 241.737 71.6949 241.356 71.4629C240.977 71.2285 240.685 70.9018 240.479 70.4828C240.275 70.0614 240.173 69.5713 240.173 69.0126C240.173 68.4539 240.275 67.9615 240.479 67.5353C240.685 67.1068 240.971 66.773 241.338 66.5339C241.708 66.2924 242.138 66.1717 242.631 66.1717C242.915 66.1717 243.195 66.219 243.472 66.3137C243.749 66.4084 244.002 66.5623 244.229 66.7754C244.456 66.9861 244.637 67.2654 244.772 67.6135C244.907 67.9615 244.975 68.39 244.975 68.899V69.2541H240.77V68.5297H244.122C244.122 68.2219 244.061 67.9473 243.938 67.7058C243.817 67.4643 243.644 67.2737 243.419 67.1341C243.197 66.9944 242.934 66.9245 242.631 66.9245C242.297 66.9245 242.008 67.0074 241.764 67.1731C241.523 67.3365 241.337 67.5495 241.207 67.8123C241.077 68.0751 241.012 68.3568 241.012 68.6575V69.1404C241.012 69.5524 241.083 69.9016 241.225 70.188C241.369 70.4721 241.569 70.6887 241.825 70.8379C242.08 70.9847 242.378 71.0581 242.716 71.0581C242.936 71.0581 243.135 71.0273 243.313 70.9657C243.493 70.9018 243.648 70.8071 243.778 70.6816C243.908 70.5538 244.009 70.3952 244.08 70.2058L244.889 70.4331C244.804 70.7077 244.661 70.9492 244.46 71.1575C244.258 71.3635 244.01 71.5244 243.714 71.6404C243.418 71.7541 243.085 71.8109 242.716 71.8109ZM248.622 66.2427V66.9529H245.795V66.2427H248.622ZM246.619 64.9359H247.457V70.1348C247.457 70.3715 247.491 70.5491 247.56 70.6674C247.631 70.7834 247.721 70.8616 247.83 70.9018C247.941 70.9397 248.058 70.9586 248.181 70.9586C248.274 70.9586 248.349 70.9539 248.409 70.9444C248.468 70.9326 248.515 70.9231 248.551 70.916L248.721 71.6689C248.664 71.6902 248.585 71.7115 248.483 71.7328C248.381 71.7565 248.252 71.7683 248.096 71.7683C247.859 71.7683 247.627 71.7174 247.4 71.6156C247.175 71.5138 246.988 71.3587 246.839 71.1504C246.692 70.9421 246.619 70.6793 246.619 70.362V64.9359ZM252.111 71.8109C251.585 71.8109 251.132 71.6949 250.751 71.4629C250.372 71.2285 250.079 70.9018 249.873 70.4828C249.67 70.0614 249.568 69.5713 249.568 69.0126C249.568 68.4539 249.67 67.9615 249.873 67.5353C250.079 67.1068 250.366 66.773 250.733 66.5339C251.102 66.2924 251.533 66.1717 252.025 66.1717C252.309 66.1717 252.59 66.219 252.867 66.3137C253.144 66.4084 253.396 66.5623 253.623 66.7754C253.851 66.9861 254.032 67.2654 254.167 67.6135C254.302 67.9615 254.369 68.39 254.369 68.899V69.2541H250.165V68.5297H253.517C253.517 68.2219 253.455 67.9473 253.332 67.7058C253.211 67.4643 253.039 67.2737 252.814 67.1341C252.591 66.9944 252.328 66.9245 252.025 66.9245C251.692 66.9245 251.403 67.0074 251.159 67.1731C250.917 67.3365 250.732 67.5495 250.601 67.8123C250.471 68.0751 250.406 68.3568 250.406 68.6575V69.1404C250.406 69.5524 250.477 69.9016 250.619 70.188C250.764 70.4721 250.964 70.6887 251.219 70.8379C251.475 70.9847 251.772 71.0581 252.111 71.0581C252.331 71.0581 252.53 71.0273 252.707 70.9657C252.887 70.9018 253.042 70.8071 253.172 70.6816C253.303 70.5538 253.403 70.3952 253.474 70.2058L254.284 70.4331C254.199 70.7077 254.055 70.9492 253.854 71.1575C253.653 71.3635 253.404 71.5244 253.108 71.6404C252.813 71.7541 252.48 71.8109 252.111 71.8109ZM255.644 71.6973V66.2427H256.454V67.0666H256.51C256.61 66.7967 256.79 66.5777 257.05 66.4096C257.311 66.2415 257.604 66.1575 257.931 66.1575C257.992 66.1575 258.069 66.1587 258.162 66.161C258.254 66.1634 258.324 66.167 258.371 66.1717V67.024C258.343 67.0169 258.278 67.0062 258.176 66.992C258.077 66.9754 257.971 66.9672 257.86 66.9672C257.595 66.9672 257.358 67.0228 257.15 67.1341C256.944 67.243 256.78 67.3945 256.66 67.5886C256.541 67.7804 256.482 67.9993 256.482 68.2456V71.6973H255.644ZM260.97 71.8251C260.624 71.8251 260.31 71.76 260.029 71.6298C259.747 71.4972 259.523 71.3066 259.358 71.0581C259.192 70.8071 259.109 70.5041 259.109 70.149C259.109 69.8365 259.171 69.5832 259.294 69.389C259.417 69.1925 259.581 69.0386 259.787 68.9274C259.993 68.8161 260.221 68.7333 260.469 68.6788C260.72 68.622 260.972 68.577 261.225 68.5439C261.557 68.5012 261.826 68.4693 262.032 68.448C262.24 68.4243 262.391 68.3852 262.486 68.3308C262.583 68.2763 262.632 68.1816 262.632 68.0467V68.0183C262.632 67.6679 262.536 67.3957 262.344 67.2015C262.155 67.0074 261.867 66.9103 261.481 66.9103C261.081 66.9103 260.767 66.9979 260.54 67.1731C260.313 67.3483 260.153 67.5353 260.061 67.7342L259.265 67.4501C259.407 67.1187 259.597 66.8606 259.833 66.676C260.073 66.4889 260.333 66.3587 260.615 66.2853C260.899 66.2096 261.178 66.1717 261.453 66.1717C261.628 66.1717 261.829 66.193 262.056 66.2356C262.286 66.2759 262.507 66.3599 262.721 66.4877C262.936 66.6156 263.115 66.8085 263.257 67.0666C263.399 67.3246 263.47 67.6703 263.47 68.1035V71.6973H262.632V70.9586H262.589C262.532 71.077 262.438 71.2037 262.305 71.3386C262.172 71.4735 261.996 71.5884 261.776 71.6831C261.556 71.7778 261.287 71.8251 260.97 71.8251ZM261.098 71.0723C261.429 71.0723 261.708 71.0072 261.936 70.877C262.165 70.7467 262.338 70.5787 262.454 70.3727C262.573 70.1667 262.632 69.9501 262.632 69.7228V68.9558C262.596 68.9984 262.518 69.0375 262.397 69.073C262.279 69.1061 262.142 69.1357 261.985 69.1618C261.832 69.1854 261.681 69.2067 261.534 69.2257C261.39 69.2422 261.273 69.2565 261.183 69.2683C260.965 69.2967 260.761 69.3429 260.572 69.4068C260.385 69.4683 260.234 69.5618 260.118 69.6873C260.004 69.8104 259.947 69.9785 259.947 70.1916C259.947 70.4828 260.055 70.7029 260.27 70.8521C260.488 70.9989 260.764 71.0723 261.098 71.0723Z" fill="#CFD1DE"/>
<path d="M254.231 37.7422L237.074 37.7422C235.401 37.7422 234.044 39.0988 234.044 40.7722V54.9382C234.044 56.6117 235.401 57.9682 237.074 57.9682H253.197C254.871 57.9682 256.227 56.6117 256.227 54.9382V44.7229C256.227 43.0495 254.871 41.6929 253.197 41.6929H236.548C235.433 41.6929 234.528 40.7886 234.528 39.6731V39.6731" stroke="#CFD1DE" stroke-width="2.02" stroke-linecap="round" stroke-linejoin="round"/>
<rect width="70" height="2" transform="matrix(1 0 0 -1 112.136 21.6973)" fill="#55B3FF"/>
</g>
<defs>
<filter id="filter0_d_1714_39304" x="-13" y="0.697266" width="416" height="101" filterUnits="userSpaceOnUse" color-interpolation-filters="sRGB">
<feFlood flood-opacity="0" result="BackgroundImageFix"/>
<feColorMatrix in="SourceAlpha" type="matrix" values="0 0 0 0 0 0 0 0 0 0 0 0 0 0 0 0 0 0 127 0" result="hardAlpha"/>
<feOffset dy="-6"/>
<feGaussianBlur stdDeviation="6.5"/>
<feComposite in2="hardAlpha" operator="out"/>
<feColorMatrix type="matrix" values="0 0 0 0 0 0 0 0 0 0 0 0 0 0 0 0 0 0 0.04 0"/>
<feBlend mode="normal" in2="BackgroundImageFix" result="effect1_dropShadow_1714_39304"/>
<feBlend mode="normal" in="SourceGraphic" in2="effect1_dropShadow_1714_39304" result="shape"/>
</filter>
</defs>
</svg>
