<svg width="391" height="94" viewBox="0 0 391 94" fill="none" xmlns="http://www.w3.org/2000/svg">
<g filter="url(#filter0_d_1714_40664)">
<path d="M0.699219 19H390.699V94H0.699219V19Z" fill="white"/>
<path d="M335.733 55.7421L335.905 54.642C336.113 53.3011 336.988 52.1526 338.284 51.7511C339.894 51.2525 342.285 50.6855 344.835 50.6855C347.385 50.6855 349.776 51.2525 351.386 51.7511C352.682 52.1526 353.557 53.3011 353.766 54.642L353.937 55.7421" stroke="#CFD1DE" stroke-width="2.02261" stroke-linecap="round" stroke-linejoin="round"/>
<path d="M344.835 46.1365C347.627 46.1365 349.891 43.8726 349.891 41.08C349.891 38.2873 347.627 36.0234 344.835 36.0234C342.042 36.0234 339.778 38.2873 339.778 41.08C339.778 43.8726 342.042 46.1365 344.835 46.1365Z" stroke="#CFD1DE" stroke-width="2.02261" stroke-linecap="round" stroke-linejoin="round"/>
<path d="M332.455 71V63.7273H334.912C335.483 63.7273 335.949 63.8303 336.311 64.0362C336.676 64.2398 336.946 64.5156 337.121 64.8636C337.296 65.2116 337.384 65.5999 337.384 66.0284C337.384 66.4569 337.296 66.8464 337.121 67.1967C336.948 67.5471 336.681 67.8265 336.319 68.0348C335.956 68.2408 335.492 68.3438 334.926 68.3438H333.165V67.5625H334.898C335.289 67.5625 335.602 67.495 335.839 67.3601C336.076 67.2251 336.248 67.0429 336.354 66.8132C336.463 66.5812 336.517 66.3196 336.517 66.0284C336.517 65.7372 336.463 65.4768 336.354 65.2472C336.248 65.0175 336.075 64.8376 335.836 64.7074C335.596 64.5748 335.279 64.5085 334.884 64.5085H333.336V71H332.455ZM340.917 71.1136C340.392 71.1136 339.938 70.9976 339.557 70.7656C339.178 70.5312 338.886 70.2045 338.68 69.7855C338.476 69.3641 338.375 68.8741 338.375 68.3153C338.375 67.7566 338.476 67.2642 338.68 66.8381C338.886 66.4096 339.172 66.0758 339.539 65.8366C339.909 65.5952 340.34 65.4744 340.832 65.4744C341.116 65.4744 341.397 65.5218 341.674 65.6165C341.951 65.7112 342.203 65.8651 342.43 66.0781C342.657 66.2888 342.838 66.5682 342.973 66.9162C343.108 67.2642 343.176 67.6927 343.176 68.2017V68.5568H338.971V67.8324H342.324C342.324 67.5246 342.262 67.25 342.139 67.0085C342.018 66.767 341.845 66.5765 341.62 66.4368C341.398 66.2971 341.135 66.2273 340.832 66.2273C340.498 66.2273 340.209 66.3101 339.966 66.4759C339.724 66.6392 339.538 66.8523 339.408 67.1151C339.278 67.3778 339.213 67.6596 339.213 67.9602V68.4432C339.213 68.8551 339.284 69.2043 339.426 69.4908C339.57 69.7749 339.77 69.9915 340.026 70.1406C340.282 70.2874 340.579 70.3608 340.917 70.3608C341.137 70.3608 341.336 70.33 341.514 70.2685C341.694 70.2045 341.849 70.1098 341.979 69.9844C342.109 69.8565 342.21 69.6979 342.281 69.5085L343.091 69.7358C343.005 70.0104 342.862 70.2519 342.661 70.4602C342.46 70.6662 342.211 70.8272 341.915 70.9432C341.619 71.0568 341.287 71.1136 340.917 71.1136ZM344.451 71V65.5455H345.26V66.3693H345.317C345.417 66.0994 345.596 65.8804 345.857 65.7124C346.117 65.5443 346.411 65.4602 346.738 65.4602C346.799 65.4602 346.876 65.4614 346.968 65.4638C347.061 65.4661 347.131 65.4697 347.178 65.4744V66.3267C347.15 66.3196 347.084 66.3089 346.983 66.2947C346.883 66.2782 346.778 66.2699 346.667 66.2699C346.401 66.2699 346.165 66.3255 345.956 66.4368C345.75 66.5457 345.587 66.6972 345.466 66.8913C345.348 67.0831 345.289 67.3021 345.289 67.5483V71H344.451ZM350.942 65.5455V66.2557H348.002V65.5455H350.942ZM348.882 71V64.7926C348.882 64.4801 348.956 64.2197 349.103 64.0114C349.249 63.803 349.44 63.6468 349.674 63.5426C349.909 63.4384 350.156 63.3864 350.417 63.3864C350.623 63.3864 350.791 63.4029 350.921 63.4361C351.051 63.4692 351.148 63.5 351.212 63.5284L350.971 64.2528C350.928 64.2386 350.869 64.2209 350.793 64.1996C350.72 64.1783 350.623 64.1676 350.502 64.1676C350.225 64.1676 350.025 64.2375 349.902 64.3771C349.781 64.5168 349.721 64.7216 349.721 64.9915V71H348.882ZM352.117 71V65.5455H352.955V71H352.117ZM352.543 64.6364C352.379 64.6364 352.239 64.5807 352.12 64.4695C352.004 64.3582 351.946 64.2244 351.946 64.0682C351.946 63.9119 352.004 63.7782 352.12 63.6669C352.239 63.5556 352.379 63.5 352.543 63.5C352.706 63.5 352.846 63.5556 352.962 63.6669C353.08 63.7782 353.139 63.9119 353.139 64.0682C353.139 64.2244 353.08 64.3582 352.962 64.4695C352.846 64.5807 352.706 64.6364 352.543 64.6364ZM355.328 63.7273V71H354.49V63.7273H355.328Z" fill="#CFD1DE"/>
<path d="M142.779 37.0332H141.767C140.092 37.0332 138.733 38.3915 138.733 40.0671V54.2254C138.733 55.9009 140.092 57.2593 141.767 57.2593H153.903C155.579 57.2593 156.937 55.9009 156.937 54.2254V40.0671C156.937 38.3915 155.579 37.0332 153.903 37.0332H152.892" stroke="#CFD1DE" stroke-width="2.02261"/>
<rect x="142.778" y="35.0117" width="10.113" height="5.05651" rx="2.02261" stroke="#CFD1DE" stroke-width="2.02261"/>
<path d="M125.107 71V63.7273H127.565C128.135 63.7273 128.602 63.8303 128.964 64.0362C129.328 64.2398 129.598 64.5156 129.773 64.8636C129.949 65.2116 130.036 65.5999 130.036 66.0284C130.036 66.4569 129.949 66.8464 129.773 67.1967C129.601 67.5471 129.333 67.8265 128.971 68.0348C128.609 68.2408 128.145 68.3438 127.579 68.3438H125.817V67.5625H127.55C127.941 67.5625 128.255 67.495 128.491 67.3601C128.728 67.2251 128.9 67.0429 129.006 66.8132C129.115 66.5812 129.17 66.3196 129.17 66.0284C129.17 65.7372 129.115 65.4768 129.006 65.2472C128.9 65.0175 128.727 64.8376 128.488 64.7074C128.249 64.5748 127.932 64.5085 127.536 64.5085H125.988V71H125.107ZM131.341 71V65.5455H132.151V66.3693H132.208C132.307 66.0994 132.487 65.8804 132.748 65.7124C133.008 65.5443 133.301 65.4602 133.628 65.4602C133.69 65.4602 133.767 65.4614 133.859 65.4638C133.951 65.4661 134.021 65.4697 134.069 65.4744V66.3267C134.04 66.3196 133.975 66.3089 133.873 66.2947C133.774 66.2782 133.668 66.2699 133.557 66.2699C133.292 66.2699 133.055 66.3255 132.847 66.4368C132.641 66.5457 132.478 66.6972 132.357 66.8913C132.239 67.0831 132.179 67.3021 132.179 67.5483V71H131.341ZM137.112 71.1136C136.619 71.1136 136.187 70.9964 135.816 70.7621C135.446 70.5277 135.158 70.1998 134.949 69.7784C134.743 69.357 134.64 68.8646 134.64 68.3011C134.64 67.733 134.743 67.237 134.949 66.8132C135.158 66.3894 135.446 66.0604 135.816 65.826C136.187 65.5916 136.619 65.4744 137.112 65.4744C137.604 65.4744 138.035 65.5916 138.404 65.826C138.776 66.0604 139.065 66.3894 139.271 66.8132C139.479 67.237 139.583 67.733 139.583 68.3011C139.583 68.8646 139.479 69.357 139.271 69.7784C139.065 70.1998 138.776 70.5277 138.404 70.7621C138.035 70.9964 137.604 71.1136 137.112 71.1136ZM137.112 70.3608C137.486 70.3608 137.794 70.2649 138.035 70.0732C138.277 69.8814 138.455 69.6293 138.571 69.3168C138.687 69.0043 138.745 68.6657 138.745 68.3011C138.745 67.9366 138.687 67.5968 138.571 67.282C138.455 66.9671 138.277 66.7126 138.035 66.5185C137.794 66.3243 137.486 66.2273 137.112 66.2273C136.738 66.2273 136.43 66.3243 136.189 66.5185C135.947 66.7126 135.768 66.9671 135.652 67.282C135.536 67.5968 135.478 67.9366 135.478 68.3011C135.478 68.6657 135.536 69.0043 135.652 69.3168C135.768 69.6293 135.947 69.8814 136.189 70.0732C136.43 70.2649 136.738 70.3608 137.112 70.3608ZM141.207 73.0455C141.065 73.0455 140.939 73.0336 140.827 73.0099C140.716 72.9886 140.639 72.9673 140.596 72.946L140.809 72.2074C141.013 72.2595 141.193 72.2784 141.349 72.2642C141.506 72.25 141.644 72.1802 141.765 72.0547C141.888 71.9316 142 71.7315 142.102 71.4545L142.258 71.0284L140.241 65.5455H141.15L142.656 69.892H142.713L144.219 65.5455H145.128L142.812 71.7955C142.708 72.0772 142.579 72.3104 142.425 72.495C142.271 72.6821 142.093 72.8205 141.889 72.9105C141.688 73.0005 141.461 73.0455 141.207 73.0455ZM148.325 71.1136C147.8 71.1136 147.347 70.9976 146.965 70.7656C146.587 70.5312 146.294 70.2045 146.088 69.7855C145.885 69.3641 145.783 68.8741 145.783 68.3153C145.783 67.7566 145.885 67.2642 146.088 66.8381C146.294 66.4096 146.581 66.0758 146.948 65.8366C147.317 65.5952 147.748 65.4744 148.24 65.4744C148.524 65.4744 148.805 65.5218 149.082 65.6165C149.359 65.7112 149.611 65.8651 149.838 66.0781C150.066 66.2888 150.247 66.5682 150.382 66.9162C150.517 67.2642 150.584 67.6927 150.584 68.2017V68.5568H146.379V67.8324H149.732C149.732 67.5246 149.67 67.25 149.547 67.0085C149.426 66.767 149.253 66.5765 149.029 66.4368C148.806 66.2971 148.543 66.2273 148.24 66.2273C147.906 66.2273 147.618 66.3101 147.374 66.4759C147.132 66.6392 146.946 66.8523 146.816 67.1151C146.686 67.3778 146.621 67.6596 146.621 67.9602V68.4432C146.621 68.8551 146.692 69.2043 146.834 69.4908C146.978 69.7749 147.178 69.9915 147.434 70.1406C147.69 70.2874 147.987 70.3608 148.325 70.3608C148.546 70.3608 148.744 70.33 148.922 70.2685C149.102 70.2045 149.257 70.1098 149.387 69.9844C149.517 69.8565 149.618 69.6979 149.689 69.5085L150.499 69.7358C150.414 70.0104 150.27 70.2519 150.069 70.4602C149.868 70.6662 149.619 70.8272 149.323 70.9432C149.027 71.0568 148.695 71.1136 148.325 71.1136ZM154.075 71.1136C153.563 71.1136 153.123 70.9929 152.754 70.7514C152.384 70.5099 152.1 70.1773 151.901 69.7536C151.703 69.3298 151.603 68.8456 151.603 68.3011C151.603 67.7472 151.705 67.2583 151.909 66.8345C152.115 66.4084 152.401 66.0758 152.768 65.8366C153.137 65.5952 153.568 65.4744 154.061 65.4744C154.444 65.4744 154.79 65.5455 155.097 65.6875C155.405 65.8295 155.657 66.0284 155.854 66.2841C156.05 66.5398 156.172 66.8381 156.22 67.179H155.382C155.318 66.9304 155.176 66.7102 154.955 66.5185C154.738 66.3243 154.444 66.2273 154.075 66.2273C153.748 66.2273 153.462 66.3125 153.215 66.483C152.972 66.651 152.781 66.889 152.644 67.1967C152.509 67.5021 152.441 67.8608 152.441 68.2727C152.441 68.6941 152.508 69.0611 152.64 69.3736C152.775 69.6861 152.964 69.9287 153.208 70.1016C153.454 70.2744 153.743 70.3608 154.075 70.3608C154.293 70.3608 154.49 70.3229 154.668 70.2472C154.845 70.1714 154.996 70.0625 155.119 69.9205C155.242 69.7784 155.329 69.608 155.382 69.4091H156.22C156.172 69.7311 156.055 70.0211 155.868 70.2791C155.683 70.5348 155.438 70.7384 155.133 70.8899C154.83 71.0391 154.477 71.1136 154.075 71.1136ZM159.817 65.5455V66.2557H156.99V65.5455H159.817ZM157.814 64.2386H158.652V69.4375C158.652 69.6742 158.686 69.8518 158.755 69.9702C158.826 70.0862 158.916 70.1643 159.025 70.2045C159.136 70.2424 159.253 70.2614 159.377 70.2614C159.469 70.2614 159.545 70.2566 159.604 70.2472C159.663 70.2353 159.71 70.2259 159.746 70.2188L159.916 70.9716C159.86 70.9929 159.78 71.0142 159.678 71.0355C159.577 71.0592 159.448 71.071 159.291 71.071C159.055 71.071 158.823 71.0201 158.595 70.9183C158.37 70.8165 158.183 70.6615 158.034 70.4531C157.887 70.2448 157.814 69.982 157.814 69.6648V64.2386ZM163.235 71.1136C162.742 71.1136 162.31 70.9964 161.939 70.7621C161.569 70.5277 161.281 70.1998 161.072 69.7784C160.866 69.357 160.763 68.8646 160.763 68.3011C160.763 67.733 160.866 67.237 161.072 66.8132C161.281 66.3894 161.569 66.0604 161.939 65.826C162.31 65.5916 162.742 65.4744 163.235 65.4744C163.727 65.4744 164.158 65.5916 164.528 65.826C164.899 66.0604 165.188 66.3894 165.394 66.8132C165.602 67.237 165.706 67.733 165.706 68.3011C165.706 68.8646 165.602 69.357 165.394 69.7784C165.188 70.1998 164.899 70.5277 164.528 70.7621C164.158 70.9964 163.727 71.1136 163.235 71.1136ZM163.235 70.3608C163.609 70.3608 163.917 70.2649 164.158 70.0732C164.4 69.8814 164.578 69.6293 164.694 69.3168C164.81 69.0043 164.868 68.6657 164.868 68.3011C164.868 67.9366 164.81 67.5968 164.694 67.282C164.578 66.9671 164.4 66.7126 164.158 66.5185C163.917 66.3243 163.609 66.2273 163.235 66.2273C162.861 66.2273 162.553 66.3243 162.312 66.5185C162.07 66.7126 161.891 66.9671 161.775 67.282C161.659 67.5968 161.601 67.9366 161.601 68.3011C161.601 68.6657 161.659 69.0043 161.775 69.3168C161.891 69.6293 162.07 69.8814 162.312 70.0732C162.553 70.2649 162.861 70.3608 163.235 70.3608ZM170.849 66.767L170.097 66.9801C170.049 66.8546 169.979 66.7327 169.887 66.6143C169.797 66.4936 169.674 66.3942 169.518 66.3161C169.362 66.2379 169.161 66.1989 168.918 66.1989C168.584 66.1989 168.306 66.2758 168.083 66.4297C167.863 66.5812 167.753 66.7741 167.753 67.0085C167.753 67.2169 167.829 67.3814 167.98 67.5021C168.132 67.6229 168.368 67.7235 168.69 67.804L169.5 68.0028C169.988 68.1212 170.351 68.3023 170.59 68.5462C170.829 68.7876 170.949 69.099 170.949 69.4801C170.949 69.7926 170.859 70.072 170.679 70.3182C170.501 70.5644 170.253 70.7585 169.933 70.9006C169.614 71.0426 169.242 71.1136 168.818 71.1136C168.262 71.1136 167.801 70.9929 167.437 70.7514C167.072 70.5099 166.841 70.1572 166.744 69.6932L167.54 69.4943C167.616 69.7879 167.759 70.008 167.969 70.1548C168.183 70.3016 168.461 70.375 168.804 70.375C169.195 70.375 169.505 70.2921 169.734 70.1264C169.966 69.9583 170.082 69.7571 170.082 69.5227C170.082 69.3333 170.016 69.1747 169.884 69.0469C169.751 68.9167 169.547 68.8196 169.273 68.7557L168.364 68.5426C167.864 68.4242 167.497 68.2408 167.263 67.9922C167.031 67.7412 166.915 67.4276 166.915 67.0511C166.915 66.7434 167.001 66.4711 167.174 66.2344C167.349 65.9976 167.587 65.8118 167.888 65.6768C168.191 65.5419 168.534 65.4744 168.918 65.4744C169.457 65.4744 169.881 65.5928 170.189 65.8295C170.499 66.0663 170.719 66.3788 170.849 66.767Z" fill="#CFD1DE"/>
<path d="M39.7217 43.9751C39.7217 43.0215 40.175 42.1248 40.9428 41.5594L49.8347 35.0117L58.7266 41.5594C59.4944 42.1248 59.9477 43.0215 59.9477 43.9751V54.7604C59.9477 56.1411 58.8284 57.2604 57.4477 57.2604H53.8686C53.3163 57.2604 52.8686 56.8127 52.8686 56.2604V50.1756C52.8686 49.8995 52.6448 49.6756 52.3686 49.6756H47.3008C47.0247 49.6756 46.8008 49.8995 46.8008 50.1756V56.2604C46.8008 56.8127 46.3531 57.2604 45.8008 57.2604H42.2217C40.841 57.2604 39.7217 56.1411 39.7217 54.7604V43.9751Z" stroke="#CFD1DE" stroke-width="2.02261" stroke-linecap="round" stroke-linejoin="round"/>
<path d="M36.7752 71V63.7273H37.6559V66.9659H41.5337V63.7273H42.4144V71H41.5337V67.7472H37.6559V71H36.7752ZM46.2798 71.1136C45.7874 71.1136 45.3554 70.9964 44.9837 70.7621C44.6143 70.5277 44.3255 70.1998 44.1172 69.7784C43.9112 69.357 43.8082 68.8646 43.8082 68.3011C43.8082 67.733 43.9112 67.237 44.1172 66.8132C44.3255 66.3894 44.6143 66.0604 44.9837 65.826C45.3554 65.5916 45.7874 65.4744 46.2798 65.4744C46.7723 65.4744 47.2031 65.5916 47.5724 65.826C47.9441 66.0604 48.233 66.3894 48.4389 66.8132C48.6473 67.237 48.7514 67.733 48.7514 68.3011C48.7514 68.8646 48.6473 69.357 48.4389 69.7784C48.233 70.1998 47.9441 70.5277 47.5724 70.7621C47.2031 70.9964 46.7723 71.1136 46.2798 71.1136ZM46.2798 70.3608C46.6539 70.3608 46.9616 70.2649 47.2031 70.0732C47.4446 69.8814 47.6233 69.6293 47.7393 69.3168C47.8554 69.0043 47.9134 68.6657 47.9134 68.3011C47.9134 67.9366 47.8554 67.5968 47.7393 67.282C47.6233 66.9671 47.4446 66.7126 47.2031 66.5185C46.9616 66.3243 46.6539 66.2273 46.2798 66.2273C45.9058 66.2273 45.598 66.3243 45.3565 66.5185C45.1151 66.7126 44.9363 66.9671 44.8203 67.282C44.7043 67.5968 44.6463 67.9366 44.6463 68.3011C44.6463 68.6657 44.7043 69.0043 44.8203 69.3168C44.9363 69.6293 45.1151 69.8814 45.3565 70.0732C45.598 70.2649 45.9058 70.3608 46.2798 70.3608ZM50.0307 71V65.5455H50.8404V66.3977H50.9114C51.025 66.1065 51.2085 65.8804 51.4618 65.7195C51.7151 65.5561 52.0194 65.4744 52.3745 65.4744C52.7343 65.4744 53.0338 65.5561 53.2729 65.7195C53.5144 65.8804 53.7026 66.1065 53.8375 66.3977H53.8944C54.034 66.116 54.2435 65.8923 54.5229 65.7266C54.8023 65.5585 55.1373 65.4744 55.5279 65.4744C56.0156 65.4744 56.4145 65.6271 56.7246 65.9325C57.0347 66.2356 57.1898 66.7079 57.1898 67.3494V71H56.3517V67.3494C56.3517 66.947 56.2417 66.6593 56.0215 66.4865C55.8013 66.3137 55.5421 66.2273 55.2438 66.2273C54.8603 66.2273 54.5632 66.3433 54.3525 66.5753C54.1417 66.8049 54.0364 67.0961 54.0364 67.4489V71H53.1841V67.2642C53.1841 66.9541 53.0835 66.7043 52.8823 66.5149C52.681 66.3232 52.4218 66.2273 52.1046 66.2273C51.8868 66.2273 51.6832 66.2853 51.4938 66.4013C51.3068 66.5173 51.1552 66.6783 51.0392 66.8842C50.9256 67.0878 50.8688 67.3234 50.8688 67.5909V71H50.0307ZM61.0091 71.1136C60.4835 71.1136 60.0301 70.9976 59.649 70.7656C59.2702 70.5312 58.9778 70.2045 58.7718 69.7855C58.5682 69.3641 58.4664 68.8741 58.4664 68.3153C58.4664 67.7566 58.5682 67.2642 58.7718 66.8381C58.9778 66.4096 59.2643 66.0758 59.6312 65.8366C60.0005 65.5952 60.4314 65.4744 60.9238 65.4744C61.2079 65.4744 61.4885 65.5218 61.7654 65.6165C62.0424 65.7112 62.2946 65.8651 62.5218 66.0781C62.7491 66.2888 62.9302 66.5682 63.0652 66.9162C63.2001 67.2642 63.2676 67.6927 63.2676 68.2017V68.5568H59.063V67.8324H62.4153C62.4153 67.5246 62.3538 67.25 62.2306 67.0085C62.1099 66.767 61.9371 66.5765 61.7122 66.4368C61.4896 66.2971 61.2269 66.2273 60.9238 66.2273C60.59 66.2273 60.3012 66.3101 60.0574 66.4759C59.8159 66.6392 59.63 66.8523 59.4998 67.1151C59.3696 67.3778 59.3045 67.6596 59.3045 67.9602V68.4432C59.3045 68.8551 59.3755 69.2043 59.5176 69.4908C59.662 69.7749 59.862 69.9915 60.1177 70.1406C60.3734 70.2874 60.6705 70.3608 61.0091 70.3608C61.2292 70.3608 61.4281 70.33 61.6056 70.2685C61.7856 70.2045 61.9406 70.1098 62.0708 69.9844C62.2011 69.8565 62.3017 69.6979 62.3727 69.5085L63.1824 69.7358C63.0971 70.0104 62.9539 70.2519 62.7527 70.4602C62.5514 70.6662 62.3029 70.8272 62.0069 70.9432C61.711 71.0568 61.3784 71.1136 61.0091 71.1136Z" fill="#CFD1DE"/>
<path d="M227.619 71V63.7273H230.162C230.668 63.7273 231.086 63.8149 231.415 63.9901C231.744 64.1629 231.989 64.3961 232.15 64.6896C232.311 64.9808 232.392 65.304 232.392 65.6591C232.392 65.9716 232.336 66.2296 232.225 66.4332C232.116 66.6368 231.971 66.7978 231.792 66.9162C231.614 67.0346 231.421 67.1222 231.213 67.179V67.25C231.435 67.2642 231.659 67.3423 231.884 67.4844C232.109 67.6264 232.297 67.83 232.449 68.0952C232.6 68.3603 232.676 68.6847 232.676 69.0682C232.676 69.4328 232.593 69.7607 232.427 70.0518C232.261 70.343 232 70.5739 231.642 70.7443C231.285 70.9148 230.82 71 230.247 71H227.619ZM228.5 70.2188H230.247C230.822 70.2188 231.23 70.1075 231.472 69.8849C231.716 69.66 231.838 69.3878 231.838 69.0682C231.838 68.822 231.775 68.5947 231.65 68.3864C231.524 68.1757 231.345 68.0076 231.113 67.8821C230.881 67.7543 230.607 67.6903 230.289 67.6903H228.5V70.2188ZM228.5 66.9233H230.133C230.398 66.9233 230.637 66.8712 230.85 66.767C231.066 66.6629 231.236 66.5161 231.362 66.3267C231.49 66.1373 231.554 65.9148 231.554 65.6591C231.554 65.3395 231.442 65.0684 231.22 64.8459C230.997 64.621 230.645 64.5085 230.162 64.5085H228.5V66.9233ZM234.009 71V65.5455H234.847V71H234.009ZM234.435 64.6364C234.272 64.6364 234.131 64.5807 234.013 64.4695C233.897 64.3582 233.839 64.2244 233.839 64.0682C233.839 63.9119 233.897 63.7782 234.013 63.6669C234.131 63.5556 234.272 63.5 234.435 63.5C234.599 63.5 234.738 63.5556 234.854 63.6669C234.973 63.7782 235.032 63.9119 235.032 64.0682C235.032 64.2244 234.973 64.3582 234.854 64.4695C234.738 64.5807 234.599 64.6364 234.435 64.6364ZM237.22 63.7273V71H236.382V63.7273H237.22ZM239.593 63.7273V71H238.755V63.7273H239.593ZM243.415 71.1136C242.89 71.1136 242.436 70.9976 242.055 70.7656C241.676 70.5312 241.384 70.2045 241.178 69.7855C240.974 69.3641 240.873 68.8741 240.873 68.3153C240.873 67.7566 240.974 67.2642 241.178 66.8381C241.384 66.4096 241.671 66.0758 242.037 65.8366C242.407 65.5952 242.838 65.4744 243.33 65.4744C243.614 65.4744 243.895 65.5218 244.172 65.6165C244.449 65.7112 244.701 65.8651 244.928 66.0781C245.155 66.2888 245.336 66.5682 245.471 66.9162C245.606 67.2642 245.674 67.6927 245.674 68.2017V68.5568H241.469V67.8324H244.822C244.822 67.5246 244.76 67.25 244.637 67.0085C244.516 66.767 244.343 66.5765 244.118 66.4368C243.896 66.2971 243.633 66.2273 243.33 66.2273C242.996 66.2273 242.707 66.3101 242.464 66.4759C242.222 66.6392 242.036 66.8523 241.906 67.1151C241.776 67.3778 241.711 67.6596 241.711 67.9602V68.4432C241.711 68.8551 241.782 69.2043 241.924 69.4908C242.068 69.7749 242.268 69.9915 242.524 70.1406C242.78 70.2874 243.077 70.3608 243.415 70.3608C243.635 70.3608 243.834 70.33 244.012 70.2685C244.192 70.2045 244.347 70.1098 244.477 69.9844C244.607 69.8565 244.708 69.6979 244.779 69.5085L245.589 69.7358C245.503 70.0104 245.36 70.2519 245.159 70.4602C244.958 70.6662 244.709 70.8272 244.413 70.9432C244.117 71.0568 243.785 71.1136 243.415 71.1136ZM249.321 65.5455V66.2557H246.494V65.5455H249.321ZM247.318 64.2386H248.156V69.4375C248.156 69.6742 248.19 69.8518 248.259 69.9702C248.33 70.0862 248.42 70.1643 248.529 70.2045C248.64 70.2424 248.757 70.2614 248.881 70.2614C248.973 70.2614 249.049 70.2566 249.108 70.2472C249.167 70.2353 249.214 70.2259 249.25 70.2188L249.42 70.9716C249.363 70.9929 249.284 71.0142 249.182 71.0355C249.081 71.0592 248.952 71.071 248.795 71.071C248.559 71.071 248.327 71.0201 248.099 70.9183C247.874 70.8165 247.687 70.6615 247.538 70.4531C247.391 70.2448 247.318 69.982 247.318 69.6648V64.2386ZM252.81 71.1136C252.284 71.1136 251.831 70.9976 251.45 70.7656C251.071 70.5312 250.779 70.2045 250.573 69.7855C250.369 69.3641 250.267 68.8741 250.267 68.3153C250.267 67.7566 250.369 67.2642 250.573 66.8381C250.779 66.4096 251.065 66.0758 251.432 65.8366C251.801 65.5952 252.232 65.4744 252.725 65.4744C253.009 65.4744 253.289 65.5218 253.566 65.6165C253.843 65.7112 254.095 65.8651 254.323 66.0781C254.55 66.2888 254.731 66.5682 254.866 66.9162C255.001 67.2642 255.068 67.6927 255.068 68.2017V68.5568H250.864V67.8324H254.216C254.216 67.5246 254.155 67.25 254.031 67.0085C253.911 66.767 253.738 66.5765 253.513 66.4368C253.29 66.2971 253.028 66.2273 252.725 66.2273C252.391 66.2273 252.102 66.3101 251.858 66.4759C251.617 66.6392 251.431 66.8523 251.301 67.1151C251.17 67.3778 251.105 67.6596 251.105 67.9602V68.4432C251.105 68.8551 251.176 69.2043 251.318 69.4908C251.463 69.7749 251.663 69.9915 251.919 70.1406C252.174 70.2874 252.471 70.3608 252.81 70.3608C253.03 70.3608 253.229 70.33 253.406 70.2685C253.586 70.2045 253.741 70.1098 253.872 69.9844C254.002 69.8565 254.102 69.6979 254.173 69.5085L254.983 69.7358C254.898 70.0104 254.755 70.2519 254.553 70.4602C254.352 70.6662 254.104 70.8272 253.808 70.9432C253.512 71.0568 253.179 71.1136 252.81 71.1136ZM256.343 71V65.5455H257.153V66.3693H257.21C257.309 66.0994 257.489 65.8804 257.749 65.7124C258.01 65.5443 258.303 65.4602 258.63 65.4602C258.692 65.4602 258.769 65.4614 258.861 65.4638C258.953 65.4661 259.023 65.4697 259.07 65.4744V66.3267C259.042 66.3196 258.977 66.3089 258.875 66.2947C258.776 66.2782 258.67 66.2699 258.559 66.2699C258.294 66.2699 258.057 66.3255 257.849 66.4368C257.643 66.5457 257.48 66.6972 257.359 66.8913C257.24 67.0831 257.181 67.3021 257.181 67.5483V71H256.343ZM261.669 71.1278C261.323 71.1278 261.01 71.0627 260.728 70.9325C260.446 70.8 260.223 70.6094 260.057 70.3608C259.891 70.1098 259.808 69.8068 259.808 69.4517C259.808 69.1392 259.87 68.8859 259.993 68.6918C260.116 68.4953 260.281 68.3414 260.487 68.2301C260.692 68.1188 260.92 68.036 261.168 67.9815C261.419 67.9247 261.671 67.8797 261.925 67.8466C262.256 67.804 262.525 67.772 262.731 67.7507C262.939 67.727 263.091 67.688 263.185 67.6335C263.282 67.5791 263.331 67.4844 263.331 67.3494V67.321C263.331 66.9706 263.235 66.6984 263.043 66.5043C262.854 66.3101 262.566 66.2131 262.18 66.2131C261.78 66.2131 261.467 66.3007 261.239 66.4759C261.012 66.651 260.852 66.8381 260.76 67.0369L259.964 66.7528C260.107 66.4214 260.296 66.1634 260.533 65.9787C260.772 65.7917 261.032 65.6615 261.314 65.5881C261.598 65.5123 261.877 65.4744 262.152 65.4744C262.327 65.4744 262.528 65.4957 262.756 65.5384C262.985 65.5786 263.207 65.6626 263.42 65.7905C263.635 65.9183 263.814 66.1113 263.956 66.3693C264.098 66.6274 264.169 66.973 264.169 67.4062V71H263.331V70.2614H263.288C263.232 70.3797 263.137 70.5064 263.004 70.6413C262.872 70.7763 262.695 70.8911 262.475 70.9858C262.255 71.0805 261.986 71.1278 261.669 71.1278ZM261.797 70.375C262.128 70.375 262.408 70.3099 262.635 70.1797C262.865 70.0495 263.037 69.8814 263.153 69.6754C263.272 69.4695 263.331 69.2528 263.331 69.0256V68.2585C263.295 68.3011 263.217 68.3402 263.097 68.3757C262.978 68.4089 262.841 68.4384 262.685 68.4645C262.531 68.4882 262.38 68.5095 262.234 68.5284C262.089 68.545 261.972 68.5592 261.882 68.571C261.664 68.5994 261.461 68.6456 261.271 68.7095C261.084 68.7711 260.933 68.8646 260.817 68.9901C260.703 69.1132 260.646 69.2812 260.646 69.4943C260.646 69.7855 260.754 70.0057 260.969 70.1548C261.187 70.3016 261.463 70.375 261.797 70.375Z" fill="#389BEC"/>
<path d="M254.93 38.0549C255.488 38.0549 255.94 37.6027 255.94 37.0449C255.94 36.4871 255.488 36.0349 254.93 36.0349V38.0549ZM236.237 38.9759C236.237 38.4181 235.785 37.9659 235.227 37.9659C234.67 37.9659 234.217 38.4181 234.217 38.9759H236.237ZM237.773 38.0549H254.93V36.0349H237.773V38.0549ZM253.897 56.261H237.773V58.281H253.897V56.261ZM235.753 54.241V40.0749H233.733V54.241H235.753ZM237.247 42.0056H253.897V39.9856H237.247V42.0056ZM255.917 44.0256V54.241H257.937V44.0256H255.917ZM237.247 39.9856C236.69 39.9856 236.237 39.5335 236.237 38.9759H234.217C234.217 40.6492 235.574 42.0056 237.247 42.0056V39.9856ZM237.773 56.261C236.658 56.261 235.753 55.3566 235.753 54.241H233.733C233.733 56.4722 235.542 58.281 237.773 58.281V56.261ZM253.897 58.281C256.128 58.281 257.937 56.4722 257.937 54.241H255.917C255.917 55.3566 255.012 56.261 253.897 56.261V58.281ZM253.897 42.0056C255.012 42.0056 255.917 42.91 255.917 44.0256H257.937C257.937 41.7944 256.128 39.9856 253.897 39.9856V42.0056ZM237.773 36.0349C235.542 36.0349 233.733 37.8437 233.733 40.0749H235.753C235.753 38.9593 236.658 38.0549 237.773 38.0549V36.0349Z" fill="#87C9FF"/>
<rect width="70" height="2" transform="matrix(1 0 0 -1 210.835 21)" fill="#55B3FF"/>
</g>
<defs>
<filter id="filter0_d_1714_40664" x="-12.3008" y="0" width="416" height="101" filterUnits="userSpaceOnUse" color-interpolation-filters="sRGB">
<feFlood flood-opacity="0" result="BackgroundImageFix"/>
<feColorMatrix in="SourceAlpha" type="matrix" values="0 0 0 0 0 0 0 0 0 0 0 0 0 0 0 0 0 0 127 0" result="hardAlpha"/>
<feOffset dy="-6"/>
<feGaussianBlur stdDeviation="6.5"/>
<feComposite in2="hardAlpha" operator="out"/>
<feColorMatrix type="matrix" values="0 0 0 0 0 0 0 0 0 0 0 0 0 0 0 0 0 0 0.04 0"/>
<feBlend mode="normal" in2="BackgroundImageFix" result="effect1_dropShadow_1714_40664"/>
<feBlend mode="normal" in="SourceGraphic" in2="effect1_dropShadow_1714_40664" result="shape"/>
</filter>
</defs>
</svg>
