<svg width="391" height="95" viewBox="0 0 391 95" fill="none" xmlns="http://www.w3.org/2000/svg">
<g filter="url(#filter0_d_1714_37652)">
<rect x="0.357422" y="19.5469" width="390" height="75" fill="white"/>
<g opacity="0.5">
<path d="M29.2441 43.522C29.2441 42.5684 29.6975 41.6717 30.4653 41.1062L39.3572 34.5586L48.249 41.1062C49.0169 41.6717 49.4702 42.5684 49.4702 43.522V54.3073C49.4702 55.688 48.3509 56.8073 46.9702 56.8073H43.3911C42.8388 56.8073 42.3911 56.3595 42.3911 55.8073V49.7225C42.3911 49.4463 42.1672 49.2225 41.8911 49.2225H36.8233C36.5471 49.2225 36.3233 49.4463 36.3233 49.7225V55.8073C36.3233 56.3595 35.8755 56.8073 35.3233 56.8073H31.7441C30.3634 56.8073 29.2441 55.688 29.2441 54.3073V43.522Z" stroke="#A0A3BD" stroke-width="2.02261" stroke-linecap="round" stroke-linejoin="round"/>
</g>
<g opacity="0.5">
<path d="M342.256 55.2889L342.427 54.1888C342.636 52.848 343.51 51.6995 344.807 51.298C346.416 50.7994 348.808 50.2324 351.358 50.2324C353.908 50.2324 356.299 50.7994 357.909 51.298C359.205 51.6995 360.08 52.848 360.288 54.1888L360.459 55.2889" stroke="#CFD1DE" stroke-width="2.02261" stroke-linecap="round" stroke-linejoin="round"/>
<path d="M351.357 45.6833C354.15 45.6833 356.414 43.4195 356.414 40.6268C356.414 37.8342 354.15 35.5703 351.357 35.5703C348.565 35.5703 346.301 37.8342 346.301 40.6268C346.301 43.4195 348.565 45.6833 351.357 45.6833Z" stroke="#CFD1DE" stroke-width="2.02261" stroke-linecap="round" stroke-linejoin="round"/>
</g>
<path d="M138.301 36.5801H137.29C135.614 36.5801 134.256 37.9384 134.256 39.614V53.7722C134.256 55.4478 135.614 56.8061 137.29 56.8061H149.425C151.101 56.8061 152.459 55.4478 152.459 53.7722V39.614C152.459 37.9384 151.101 36.5801 149.425 36.5801H148.414" stroke="#CFD1DE" stroke-width="2.02261"/>
<rect x="138.301" y="34.5586" width="10.113" height="5.05651" rx="2.02261" stroke="#CFD1DE" stroke-width="2.02261"/>
<path d="M26.2977 71.5469V64.2741H27.1784V67.5128H31.0562V64.2741H31.9369V71.5469H31.0562V68.294H27.1784V71.5469H26.2977ZM35.8023 71.6605C35.3099 71.6605 34.8778 71.5433 34.5061 71.3089C34.1368 71.0746 33.848 70.7467 33.6396 70.3253C33.4337 69.9039 33.3307 69.4115 33.3307 68.848C33.3307 68.2798 33.4337 67.7839 33.6396 67.3601C33.848 66.9363 34.1368 66.6072 34.5061 66.3729C34.8778 66.1385 35.3099 66.0213 35.8023 66.0213C36.2947 66.0213 36.7256 66.1385 37.0949 66.3729C37.4666 66.6072 37.7554 66.9363 37.9614 67.3601C38.1697 67.7839 38.2739 68.2798 38.2739 68.848C38.2739 69.4115 38.1697 69.9039 37.9614 70.3253C37.7554 70.7467 37.4666 71.0746 37.0949 71.3089C36.7256 71.5433 36.2947 71.6605 35.8023 71.6605ZM35.8023 70.9077C36.1763 70.9077 36.4841 70.8118 36.7256 70.62C36.9671 70.4283 37.1458 70.1761 37.2618 69.8636C37.3778 69.5511 37.4358 69.2126 37.4358 68.848C37.4358 68.4834 37.3778 68.1437 37.2618 67.8288C37.1458 67.514 36.9671 67.2595 36.7256 67.0653C36.4841 66.8712 36.1763 66.7741 35.8023 66.7741C35.4282 66.7741 35.1205 66.8712 34.879 67.0653C34.6375 67.2595 34.4588 67.514 34.3428 67.8288C34.2268 68.1437 34.1688 68.4834 34.1688 68.848C34.1688 69.2126 34.2268 69.5511 34.3428 69.8636C34.4588 70.1761 34.6375 70.4283 34.879 70.62C35.1205 70.8118 35.4282 70.9077 35.8023 70.9077ZM39.5532 71.5469V66.0923H40.3628V66.9446H40.4339C40.5475 66.6534 40.731 66.4273 40.9843 66.2663C41.2376 66.103 41.5418 66.0213 41.8969 66.0213C42.2568 66.0213 42.5563 66.103 42.7954 66.2663C43.0368 66.4273 43.2251 66.6534 43.36 66.9446H43.4168C43.5565 66.6629 43.766 66.4392 44.0454 66.2734C44.3247 66.1054 44.6597 66.0213 45.0503 66.0213C45.538 66.0213 45.9369 66.174 46.2471 66.4794C46.5572 66.7824 46.7123 67.2547 46.7123 67.8963V71.5469H45.8742V67.8963C45.8742 67.4938 45.7641 67.2062 45.5439 67.0334C45.3238 66.8606 45.0645 66.7741 44.7662 66.7741C44.3827 66.7741 44.0856 66.8902 43.8749 67.1222C43.6642 67.3518 43.5589 67.643 43.5589 67.9957V71.5469H42.7066V67.8111C42.7066 67.5009 42.606 67.2512 42.4047 67.0618C42.2035 66.87 41.9443 66.7741 41.627 66.7741C41.4092 66.7741 41.2056 66.8321 41.0162 66.9482C40.8292 67.0642 40.6777 67.2251 40.5617 67.4311C40.4481 67.6347 40.3912 67.8703 40.3912 68.1378V71.5469H39.5532ZM50.5315 71.6605C50.0059 71.6605 49.5526 71.5445 49.1714 71.3125C48.7926 71.0781 48.5003 70.7514 48.2943 70.3324C48.0907 69.911 47.9889 69.4209 47.9889 68.8622C47.9889 68.3035 48.0907 67.8111 48.2943 67.3849C48.5003 66.9564 48.7867 66.6226 49.1537 66.3835C49.523 66.142 49.9539 66.0213 50.4463 66.0213C50.7304 66.0213 51.0109 66.0687 51.2879 66.1634C51.5649 66.258 51.817 66.4119 52.0443 66.625C52.2716 66.8357 52.4527 67.1151 52.5876 67.4631C52.7226 67.8111 52.79 68.2396 52.79 68.7486V69.1037H48.5855V68.3793H51.9378C51.9378 68.0715 51.8762 67.7969 51.7531 67.5554C51.6324 67.3139 51.4595 67.1233 51.2346 66.9837C51.0121 66.844 50.7493 66.7741 50.4463 66.7741C50.1125 66.7741 49.8237 66.857 49.5798 67.0227C49.3383 67.1861 49.1525 67.3991 49.0223 67.6619C48.8921 67.9247 48.827 68.2064 48.827 68.5071V68.9901C48.827 69.402 48.898 69.7512 49.04 70.0376C49.1845 70.3217 49.3845 70.5384 49.6402 70.6875C49.8959 70.8343 50.193 70.9077 50.5315 70.9077C50.7517 70.9077 50.9506 70.8769 51.1281 70.8153C51.308 70.7514 51.4631 70.6567 51.5933 70.5312C51.7235 70.4034 51.8241 70.2448 51.8952 70.0554L52.7048 70.2827C52.6196 70.5573 52.4764 70.7988 52.2751 71.0071C52.0739 71.2131 51.8253 71.3741 51.5294 71.4901C51.2335 71.6037 50.9008 71.6605 50.5315 71.6605Z" fill="#A0A3BD"/>
<path d="M120.63 71.5469V64.2741H123.087C123.658 64.2741 124.124 64.3771 124.486 64.5831C124.851 64.7867 125.121 65.0625 125.296 65.4105C125.471 65.7585 125.559 66.1468 125.559 66.5753C125.559 67.0038 125.471 67.3932 125.296 67.7436C125.123 68.094 124.856 68.3733 124.493 68.5817C124.131 68.7876 123.667 68.8906 123.101 68.8906H121.34V68.1094H123.073C123.464 68.1094 123.777 68.0419 124.014 67.907C124.251 67.772 124.422 67.5897 124.529 67.3601C124.638 67.1281 124.692 66.8665 124.692 66.5753C124.692 66.2841 124.638 66.0237 124.529 65.794C124.422 65.5644 124.249 65.3845 124.01 65.2543C123.771 65.1217 123.454 65.0554 123.059 65.0554H121.51V71.5469H120.63ZM126.864 71.5469V66.0923H127.673V66.9162H127.73C127.83 66.6463 128.01 66.4273 128.27 66.2592C128.53 66.0911 128.824 66.0071 129.151 66.0071C129.212 66.0071 129.289 66.0083 129.381 66.0107C129.474 66.013 129.544 66.0166 129.591 66.0213V66.8736C129.563 66.8665 129.497 66.8558 129.396 66.8416C129.296 66.825 129.191 66.8168 129.08 66.8168C128.814 66.8168 128.578 66.8724 128.369 66.9837C128.163 67.0926 128 67.2441 127.879 67.4382C127.761 67.63 127.702 67.849 127.702 68.0952V71.5469H126.864ZM132.634 71.6605C132.142 71.6605 131.71 71.5433 131.338 71.3089C130.969 71.0746 130.68 70.7467 130.472 70.3253C130.266 69.9039 130.163 69.4115 130.163 68.848C130.163 68.2798 130.266 67.7839 130.472 67.3601C130.68 66.9363 130.969 66.6072 131.338 66.3729C131.71 66.1385 132.142 66.0213 132.634 66.0213C133.127 66.0213 133.558 66.1385 133.927 66.3729C134.299 66.6072 134.587 66.9363 134.793 67.3601C135.002 67.7839 135.106 68.2798 135.106 68.848C135.106 69.4115 135.002 69.9039 134.793 70.3253C134.587 70.7467 134.299 71.0746 133.927 71.3089C133.558 71.5433 133.127 71.6605 132.634 71.6605ZM132.634 70.9077C133.008 70.9077 133.316 70.8118 133.558 70.62C133.799 70.4283 133.978 70.1761 134.094 69.8636C134.21 69.5511 134.268 69.2126 134.268 68.848C134.268 68.4834 134.21 68.1437 134.094 67.8288C133.978 67.514 133.799 67.2595 133.558 67.0653C133.316 66.8712 133.008 66.7741 132.634 66.7741C132.26 66.7741 131.953 66.8712 131.711 67.0653C131.47 67.2595 131.291 67.514 131.175 67.8288C131.059 68.1437 131.001 68.4834 131.001 68.848C131.001 69.2126 131.059 69.5511 131.175 69.8636C131.291 70.1761 131.47 70.4283 131.711 70.62C131.953 70.8118 132.26 70.9077 132.634 70.9077ZM136.73 73.5923C136.588 73.5923 136.461 73.5805 136.35 73.5568C136.238 73.5355 136.161 73.5142 136.119 73.4929L136.332 72.7543C136.536 72.8063 136.715 72.8253 136.872 72.8111C137.028 72.7969 137.166 72.727 137.287 72.6016C137.41 72.4785 137.523 72.2784 137.625 72.0014L137.781 71.5753L135.764 66.0923H136.673L138.179 70.4389H138.235L139.741 66.0923H140.65L138.335 72.3423C138.231 72.6241 138.102 72.8572 137.948 73.0419C137.794 73.2289 137.615 73.3674 137.411 73.4574C137.21 73.5473 136.983 73.5923 136.73 73.5923ZM143.848 71.6605C143.322 71.6605 142.869 71.5445 142.488 71.3125C142.109 71.0781 141.817 70.7514 141.611 70.3324C141.407 69.911 141.305 69.4209 141.305 68.8622C141.305 68.3035 141.407 67.8111 141.611 67.3849C141.817 66.9564 142.103 66.6226 142.47 66.3835C142.839 66.142 143.27 66.0213 143.763 66.0213C144.047 66.0213 144.327 66.0687 144.604 66.1634C144.881 66.258 145.133 66.4119 145.361 66.625C145.588 66.8357 145.769 67.1151 145.904 67.4631C146.039 67.8111 146.106 68.2396 146.106 68.7486V69.1037H141.902V68.3793H145.254C145.254 68.0715 145.193 67.7969 145.07 67.5554C144.949 67.3139 144.776 67.1233 144.551 66.9837C144.329 66.844 144.066 66.7741 143.763 66.7741C143.429 66.7741 143.14 66.857 142.896 67.0227C142.655 67.1861 142.469 67.3991 142.339 67.6619C142.208 67.9247 142.143 68.2064 142.143 68.5071V68.9901C142.143 69.402 142.214 69.7512 142.356 70.0376C142.501 70.3217 142.701 70.5384 142.957 70.6875C143.212 70.8343 143.509 70.9077 143.848 70.9077C144.068 70.9077 144.267 70.8769 144.445 70.8153C144.624 70.7514 144.78 70.6567 144.91 70.5312C145.04 70.4034 145.141 70.2448 145.212 70.0554L146.021 70.2827C145.936 70.5573 145.793 70.7988 145.592 71.0071C145.39 71.2131 145.142 71.3741 144.846 71.4901C144.55 71.6037 144.217 71.6605 143.848 71.6605ZM149.597 71.6605C149.086 71.6605 148.646 71.5398 148.276 71.2983C147.907 71.0568 147.623 70.7242 147.424 70.3004C147.225 69.8767 147.126 69.3925 147.126 68.848C147.126 68.294 147.227 67.8052 147.431 67.3814C147.637 66.9553 147.923 66.6226 148.29 66.3835C148.66 66.142 149.091 66.0213 149.583 66.0213C149.967 66.0213 150.312 66.0923 150.62 66.2344C150.928 66.3764 151.18 66.5753 151.376 66.831C151.573 67.0866 151.695 67.3849 151.742 67.7259H150.904C150.84 67.4773 150.698 67.2571 150.478 67.0653C150.26 66.8712 149.967 66.7741 149.597 66.7741C149.271 66.7741 148.984 66.8594 148.738 67.0298C148.494 67.1979 148.303 67.4358 148.166 67.7436C148.031 68.049 147.964 68.4077 147.964 68.8196C147.964 69.241 148.03 69.608 148.163 69.9205C148.297 70.233 148.487 70.4756 148.731 70.6484C148.977 70.8213 149.266 70.9077 149.597 70.9077C149.815 70.9077 150.013 70.8698 150.19 70.794C150.368 70.7183 150.518 70.6094 150.641 70.4673C150.764 70.3253 150.852 70.1548 150.904 69.956H151.742C151.695 70.2779 151.578 70.5679 151.391 70.826C151.206 71.0817 150.961 71.2853 150.655 71.4368C150.352 71.5859 150 71.6605 149.597 71.6605ZM155.339 66.0923V66.8026H152.513V66.0923H155.339ZM153.337 64.7855H154.175V69.9844C154.175 70.2211 154.209 70.3987 154.278 70.517C154.349 70.633 154.439 70.7112 154.547 70.7514C154.659 70.7893 154.776 70.8082 154.899 70.8082C154.991 70.8082 155.067 70.8035 155.126 70.794C155.186 70.7822 155.233 70.7727 155.268 70.7656L155.439 71.5185C155.382 71.5398 155.303 71.5611 155.201 71.5824C155.099 71.6061 154.97 71.6179 154.814 71.6179C154.577 71.6179 154.345 71.567 154.118 71.4652C153.893 71.3634 153.706 71.2083 153.557 71C153.41 70.7917 153.337 70.5289 153.337 70.2116V64.7855ZM158.757 71.6605C158.265 71.6605 157.833 71.5433 157.461 71.3089C157.092 71.0746 156.803 70.7467 156.595 70.3253C156.389 69.9039 156.286 69.4115 156.286 68.848C156.286 68.2798 156.389 67.7839 156.595 67.3601C156.803 66.9363 157.092 66.6072 157.461 66.3729C157.833 66.1385 158.265 66.0213 158.757 66.0213C159.25 66.0213 159.681 66.1385 160.05 66.3729C160.422 66.6072 160.71 66.9363 160.916 67.3601C161.125 67.7839 161.229 68.2798 161.229 68.848C161.229 69.4115 161.125 69.9039 160.916 70.3253C160.71 70.7467 160.422 71.0746 160.05 71.3089C159.681 71.5433 159.25 71.6605 158.757 71.6605ZM158.757 70.9077C159.131 70.9077 159.439 70.8118 159.681 70.62C159.922 70.4283 160.101 70.1761 160.217 69.8636C160.333 69.5511 160.391 69.2126 160.391 68.848C160.391 68.4834 160.333 68.1437 160.217 67.8288C160.101 67.514 159.922 67.2595 159.681 67.0653C159.439 66.8712 159.131 66.7741 158.757 66.7741C158.383 66.7741 158.076 66.8712 157.834 67.0653C157.593 67.2595 157.414 67.514 157.298 67.8288C157.182 68.1437 157.124 68.4834 157.124 68.848C157.124 69.2126 157.182 69.5511 157.298 69.8636C157.414 70.1761 157.593 70.4283 157.834 70.62C158.076 70.8118 158.383 70.9077 158.757 70.9077ZM166.372 67.3139L165.619 67.527C165.572 67.4015 165.502 67.2796 165.41 67.1612C165.32 67.0405 165.196 66.9411 165.04 66.8629C164.884 66.7848 164.684 66.7457 164.44 66.7457C164.106 66.7457 163.828 66.8227 163.606 66.9766C163.385 67.1281 163.275 67.321 163.275 67.5554C163.275 67.7637 163.351 67.9283 163.503 68.049C163.654 68.1697 163.891 68.2704 164.213 68.3509L165.022 68.5497C165.51 68.6681 165.874 68.8492 166.113 69.093C166.352 69.3345 166.471 69.6458 166.471 70.027C166.471 70.3395 166.381 70.6188 166.201 70.8651C166.024 71.1113 165.775 71.3054 165.456 71.4474C165.136 71.5895 164.764 71.6605 164.341 71.6605C163.784 71.6605 163.324 71.5398 162.959 71.2983C162.595 71.0568 162.364 70.7041 162.267 70.2401L163.062 70.0412C163.138 70.3348 163.281 70.5549 163.492 70.7017C163.705 70.8485 163.983 70.9219 164.326 70.9219C164.717 70.9219 165.027 70.839 165.257 70.6733C165.489 70.5052 165.605 70.304 165.605 70.0696C165.605 69.8802 165.539 69.7216 165.406 69.5938C165.273 69.4635 165.07 69.3665 164.795 69.3026L163.886 69.0895C163.387 68.9711 163.02 68.7876 162.785 68.5391C162.553 68.2881 162.437 67.9744 162.437 67.598C162.437 67.2902 162.524 67.018 162.696 66.7812C162.872 66.5445 163.11 66.3587 163.41 66.2237C163.713 66.0888 164.057 66.0213 164.44 66.0213C164.98 66.0213 165.404 66.1397 165.711 66.3764C166.022 66.6132 166.242 66.9257 166.372 67.3139Z" fill="#A0A3BD"/>
<path d="M229.141 71.5469V64.2741H231.684C232.191 64.2741 232.609 64.3617 232.938 64.5369C233.267 64.7098 233.512 64.9429 233.673 65.2365C233.834 65.5277 233.914 65.8509 233.914 66.206C233.914 66.5185 233.859 66.7765 233.747 66.9801C233.638 67.1837 233.494 67.3447 233.314 67.4631C233.136 67.5814 232.944 67.669 232.735 67.7259V67.7969C232.958 67.8111 233.181 67.8892 233.406 68.0312C233.631 68.1733 233.819 68.3769 233.971 68.642C234.122 68.9072 234.198 69.2315 234.198 69.6151C234.198 69.9796 234.115 70.3075 233.95 70.5987C233.784 70.8899 233.522 71.1207 233.165 71.2912C232.807 71.4616 232.342 71.5469 231.769 71.5469H229.141ZM230.022 70.7656H231.769C232.345 70.7656 232.753 70.6544 232.994 70.4318C233.238 70.2069 233.36 69.9347 233.36 69.6151C233.36 69.3688 233.297 69.1416 233.172 68.9332C233.046 68.7225 232.868 68.5545 232.636 68.429C232.404 68.3011 232.129 68.2372 231.812 68.2372H230.022V70.7656ZM230.022 67.4702H231.656C231.921 67.4702 232.16 67.4181 232.373 67.3139C232.588 67.2098 232.759 67.063 232.884 66.8736C233.012 66.6842 233.076 66.4616 233.076 66.206C233.076 65.8864 232.965 65.6153 232.742 65.3928C232.52 65.1679 232.167 65.0554 231.684 65.0554H230.022V67.4702ZM235.532 71.5469V66.0923H236.37V71.5469H235.532ZM235.958 65.1832C235.794 65.1832 235.654 65.1276 235.535 65.0163C235.419 64.9051 235.361 64.7713 235.361 64.6151C235.361 64.4588 235.419 64.325 235.535 64.2138C235.654 64.1025 235.794 64.0469 235.958 64.0469C236.121 64.0469 236.261 64.1025 236.377 64.2138C236.495 64.325 236.554 64.4588 236.554 64.6151C236.554 64.7713 236.495 64.9051 236.377 65.0163C236.261 65.1276 236.121 65.1832 235.958 65.1832ZM238.743 64.2741V71.5469H237.905V64.2741H238.743ZM241.116 64.2741V71.5469H240.278V64.2741H241.116ZM244.938 71.6605C244.412 71.6605 243.959 71.5445 243.578 71.3125C243.199 71.0781 242.907 70.7514 242.701 70.3324C242.497 69.911 242.395 69.4209 242.395 68.8622C242.395 68.3035 242.497 67.8111 242.701 67.3849C242.907 66.9564 243.193 66.6226 243.56 66.3835C243.929 66.142 244.36 66.0213 244.853 66.0213C245.137 66.0213 245.417 66.0687 245.694 66.1634C245.971 66.258 246.223 66.4119 246.451 66.625C246.678 66.8357 246.859 67.1151 246.994 67.4631C247.129 67.8111 247.196 68.2396 247.196 68.7486V69.1037H242.992V68.3793H246.344C246.344 68.0715 246.282 67.7969 246.159 67.5554C246.039 67.3139 245.866 67.1233 245.641 66.9837C245.418 66.844 245.156 66.7741 244.853 66.7741C244.519 66.7741 244.23 66.857 243.986 67.0227C243.745 67.1861 243.559 67.3991 243.429 67.6619C243.298 67.9247 243.233 68.2064 243.233 68.5071V68.9901C243.233 69.402 243.304 69.7512 243.446 70.0376C243.591 70.3217 243.791 70.5384 244.046 70.6875C244.302 70.8343 244.599 70.9077 244.938 70.9077C245.158 70.9077 245.357 70.8769 245.534 70.8153C245.714 70.7514 245.869 70.6567 246 70.5312C246.13 70.4034 246.23 70.2448 246.301 70.0554L247.111 70.2827C247.026 70.5573 246.883 70.7988 246.681 71.0071C246.48 71.2131 246.232 71.3741 245.936 71.4901C245.64 71.6037 245.307 71.6605 244.938 71.6605ZM250.843 66.0923V66.8026H248.017V66.0923H250.843ZM248.84 64.7855H249.679V69.9844C249.679 70.2211 249.713 70.3987 249.782 70.517C249.853 70.633 249.943 70.7112 250.051 70.7514C250.163 70.7893 250.28 70.8082 250.403 70.8082C250.495 70.8082 250.571 70.8035 250.63 70.794C250.689 70.7822 250.737 70.7727 250.772 70.7656L250.943 71.5185C250.886 71.5398 250.807 71.5611 250.705 71.5824C250.603 71.6061 250.474 71.6179 250.318 71.6179C250.081 71.6179 249.849 71.567 249.622 71.4652C249.397 71.3634 249.21 71.2083 249.061 71C248.914 70.7917 248.84 70.5289 248.84 70.2116V64.7855ZM254.332 71.6605C253.807 71.6605 253.353 71.5445 252.972 71.3125C252.593 71.0781 252.301 70.7514 252.095 70.3324C251.891 69.911 251.79 69.4209 251.79 68.8622C251.79 68.3035 251.891 67.8111 252.095 67.3849C252.301 66.9564 252.588 66.6226 252.954 66.3835C253.324 66.142 253.755 66.0213 254.247 66.0213C254.531 66.0213 254.812 66.0687 255.089 66.1634C255.366 66.258 255.618 66.4119 255.845 66.625C256.072 66.8357 256.253 67.1151 256.388 67.4631C256.523 67.8111 256.591 68.2396 256.591 68.7486V69.1037H252.386V68.3793H255.739C255.739 68.0715 255.677 67.7969 255.554 67.5554C255.433 67.3139 255.26 67.1233 255.035 66.9837C254.813 66.844 254.55 66.7741 254.247 66.7741C253.913 66.7741 253.624 66.857 253.381 67.0227C253.139 67.1861 252.953 67.3991 252.823 67.6619C252.693 67.9247 252.628 68.2064 252.628 68.5071V68.9901C252.628 69.402 252.699 69.7512 252.841 70.0376C252.985 70.3217 253.185 70.5384 253.441 70.6875C253.697 70.8343 253.994 70.9077 254.332 70.9077C254.552 70.9077 254.751 70.8769 254.929 70.8153C255.109 70.7514 255.264 70.6567 255.394 70.5312C255.524 70.4034 255.625 70.2448 255.696 70.0554L256.506 70.2827C256.42 70.5573 256.277 70.7988 256.076 71.0071C255.875 71.2131 255.626 71.3741 255.33 71.4901C255.034 71.6037 254.702 71.6605 254.332 71.6605ZM257.866 71.5469V66.0923H258.675V66.9162H258.732C258.832 66.6463 259.012 66.4273 259.272 66.2592C259.532 66.0911 259.826 66.0071 260.153 66.0071C260.214 66.0071 260.291 66.0083 260.383 66.0107C260.476 66.013 260.546 66.0166 260.593 66.0213V66.8736C260.565 66.8665 260.499 66.8558 260.398 66.8416C260.298 66.825 260.193 66.8168 260.082 66.8168C259.816 66.8168 259.58 66.8724 259.371 66.9837C259.165 67.0926 259.002 67.2441 258.881 67.4382C258.763 67.63 258.704 67.849 258.704 68.0952V71.5469H257.866ZM263.191 71.6747C262.846 71.6747 262.532 71.6096 262.25 71.4794C261.969 71.3468 261.745 71.1562 261.579 70.9077C261.414 70.6567 261.331 70.3537 261.331 69.9986C261.331 69.6861 261.392 69.4328 261.515 69.2386C261.638 69.0421 261.803 68.8883 262.009 68.777C262.215 68.6657 262.442 68.5829 262.691 68.5284C262.942 68.4716 263.194 68.4266 263.447 68.3935C263.779 68.3509 264.047 68.3189 264.253 68.2976C264.462 68.2739 264.613 68.2348 264.708 68.1804C264.805 68.1259 264.853 68.0312 264.853 67.8963V67.8679C264.853 67.5175 264.758 67.2453 264.566 67.0511C264.376 66.857 264.089 66.7599 263.703 66.7599C263.303 66.7599 262.989 66.8475 262.762 67.0227C262.535 67.1979 262.375 67.3849 262.282 67.5838L261.487 67.2997C261.629 66.9683 261.818 66.7102 262.055 66.5256C262.294 66.3385 262.555 66.2083 262.836 66.1349C263.12 66.0592 263.4 66.0213 263.674 66.0213C263.85 66.0213 264.051 66.0426 264.278 66.0852C264.508 66.1255 264.729 66.2095 264.942 66.3374C265.158 66.4652 265.336 66.6581 265.478 66.9162C265.62 67.1742 265.691 67.5199 265.691 67.9531V71.5469H264.853V70.8082H264.811C264.754 70.9266 264.659 71.0533 264.527 71.1882C264.394 71.3232 264.218 71.438 263.998 71.5327C263.777 71.6274 263.509 71.6747 263.191 71.6747ZM263.319 70.9219C263.651 70.9219 263.93 70.8568 264.157 70.7266C264.387 70.5964 264.56 70.4283 264.676 70.2223C264.794 70.0163 264.853 69.7997 264.853 69.5724V68.8054C264.818 68.848 264.74 68.8871 264.619 68.9226C264.501 68.9557 264.363 68.9853 264.207 69.0114C264.053 69.035 263.903 69.0563 263.756 69.0753C263.612 69.0919 263.495 69.1061 263.405 69.1179C263.187 69.1463 262.983 69.1925 262.794 69.2564C262.607 69.3179 262.455 69.4115 262.339 69.5369C262.226 69.66 262.169 69.8281 262.169 70.0412C262.169 70.3324 262.276 70.5526 262.492 70.7017C262.71 70.8485 262.986 70.9219 263.319 70.9219Z" fill="#389BEC"/>
<path d="M339.977 71.5469V64.2741H342.435C343.005 64.2741 343.472 64.3771 343.834 64.5831C344.198 64.7867 344.468 65.0625 344.644 65.4105C344.819 65.7585 344.906 66.1468 344.906 66.5753C344.906 67.0038 344.819 67.3932 344.644 67.7436C344.471 68.094 344.203 68.3733 343.841 68.5817C343.479 68.7876 343.015 68.8906 342.449 68.8906H340.688V68.1094H342.421C342.811 68.1094 343.125 68.0419 343.362 67.907C343.598 67.772 343.77 67.5897 343.877 67.3601C343.985 67.1281 344.04 66.8665 344.04 66.5753C344.04 66.2841 343.985 66.0237 343.877 65.794C343.77 65.5644 343.597 65.3845 343.358 65.2543C343.119 65.1217 342.802 65.0554 342.406 65.0554H340.858V71.5469H339.977ZM348.44 71.6605C347.914 71.6605 347.461 71.5445 347.08 71.3125C346.701 71.0781 346.408 70.7514 346.203 70.3324C345.999 69.911 345.897 69.4209 345.897 68.8622C345.897 68.3035 345.999 67.8111 346.203 67.3849C346.408 66.9564 346.695 66.6226 347.062 66.3835C347.431 66.142 347.862 66.0213 348.354 66.0213C348.639 66.0213 348.919 66.0687 349.196 66.1634C349.473 66.258 349.725 66.4119 349.953 66.625C350.18 66.8357 350.361 67.1151 350.496 67.4631C350.631 67.8111 350.698 68.2396 350.698 68.7486V69.1037H346.494V68.3793H349.846C349.846 68.0715 349.784 67.7969 349.661 67.5554C349.541 67.3139 349.368 67.1233 349.143 66.9837C348.92 66.844 348.658 66.7741 348.354 66.7741C348.021 66.7741 347.732 66.857 347.488 67.0227C347.247 67.1861 347.061 67.3991 346.93 67.6619C346.8 67.9247 346.735 68.2064 346.735 68.5071V68.9901C346.735 69.402 346.806 69.7512 346.948 70.0376C347.093 70.3217 347.293 70.5384 347.548 70.6875C347.804 70.8343 348.101 70.9077 348.44 70.9077C348.66 70.9077 348.859 70.8769 349.036 70.8153C349.216 70.7514 349.371 70.6567 349.502 70.5312C349.632 70.4034 349.732 70.2448 349.803 70.0554L350.613 70.2827C350.528 70.5573 350.385 70.7988 350.183 71.0071C349.982 71.2131 349.734 71.3741 349.438 71.4901C349.142 71.6037 348.809 71.6605 348.44 71.6605ZM351.973 71.5469V66.0923H352.783V66.9162H352.84C352.939 66.6463 353.119 66.4273 353.379 66.2592C353.64 66.0911 353.933 66.0071 354.26 66.0071C354.322 66.0071 354.399 66.0083 354.491 66.0107C354.583 66.013 354.653 66.0166 354.7 66.0213V66.8736C354.672 66.8665 354.607 66.8558 354.505 66.8416C354.406 66.825 354.3 66.8168 354.189 66.8168C353.924 66.8168 353.687 66.8724 353.479 66.9837C353.273 67.0926 353.109 67.2441 352.989 67.4382C352.87 67.63 352.811 67.849 352.811 68.0952V71.5469H351.973ZM358.465 66.0923V66.8026H355.524V66.0923H358.465ZM356.405 71.5469V65.3395C356.405 65.027 356.478 64.7666 356.625 64.5582C356.772 64.3499 356.962 64.1937 357.197 64.0895C357.431 63.9853 357.679 63.9332 357.939 63.9332C358.145 63.9332 358.313 63.9498 358.443 63.983C358.573 64.0161 358.671 64.0469 358.734 64.0753L358.493 64.7997C358.45 64.7855 358.391 64.7678 358.315 64.7464C358.242 64.7251 358.145 64.7145 358.024 64.7145C357.747 64.7145 357.547 64.7843 357.424 64.924C357.303 65.0637 357.243 65.2685 357.243 65.5384V71.5469H356.405ZM359.639 71.5469V66.0923H360.477V71.5469H359.639ZM360.065 65.1832C359.902 65.1832 359.761 65.1276 359.643 65.0163C359.527 64.9051 359.469 64.7713 359.469 64.6151C359.469 64.4588 359.527 64.325 359.643 64.2138C359.761 64.1025 359.902 64.0469 360.065 64.0469C360.229 64.0469 360.368 64.1025 360.484 64.2138C360.603 64.325 360.662 64.4588 360.662 64.6151C360.662 64.7713 360.603 64.9051 360.484 65.0163C360.368 65.1276 360.229 65.1832 360.065 65.1832ZM362.85 64.2741V71.5469H362.012V64.2741H362.85Z" fill="#A0A3BD"/>
<path d="M256.453 37.5918L239.296 37.5918C237.622 37.5918 236.266 38.9484 236.266 40.6218V54.7879C236.266 56.4613 237.622 57.8179 239.296 57.8179H255.419C257.092 57.8179 258.449 56.4613 258.449 54.7879V44.5725C258.449 42.8991 257.092 41.5425 255.419 41.5425H238.77C237.654 41.5425 236.75 40.6382 236.75 39.5228V39.5228" stroke="#9BCDF5" stroke-width="2.02" stroke-linecap="round" stroke-linejoin="round"/>
<rect width="70" height="2" transform="matrix(1 0 0 -1 212.357 21.5469)" fill="#55B3FF"/>
</g>
<defs>
<filter id="filter0_d_1714_37652" x="-12.6426" y="0.546875" width="416" height="101" filterUnits="userSpaceOnUse" color-interpolation-filters="sRGB">
<feFlood flood-opacity="0" result="BackgroundImageFix"/>
<feColorMatrix in="SourceAlpha" type="matrix" values="0 0 0 0 0 0 0 0 0 0 0 0 0 0 0 0 0 0 127 0" result="hardAlpha"/>
<feOffset dy="-6"/>
<feGaussianBlur stdDeviation="6.5"/>
<feComposite in2="hardAlpha" operator="out"/>
<feColorMatrix type="matrix" values="0 0 0 0 0 0 0 0 0 0 0 0 0 0 0 0 0 0 0.04 0"/>
<feBlend mode="normal" in2="BackgroundImageFix" result="effect1_dropShadow_1714_37652"/>
<feBlend mode="normal" in="SourceGraphic" in2="effect1_dropShadow_1714_37652" result="shape"/>
</filter>
</defs>
</svg>
