<svg width="391" height="94" viewBox="0 0 391 94" fill="none" xmlns="http://www.w3.org/2000/svg">
<g filter="url(#filter0_d_1714_36131)">
<path d="M0.173828 19H390.174V94H0.173828V19Z" fill="white"/>
<path d="M335.208 55.7421L335.379 54.642C335.587 53.3011 336.462 52.1526 337.758 51.7511C339.368 51.2525 341.759 50.6855 344.309 50.6855C346.859 50.6855 349.25 51.2525 350.86 51.7511C352.156 52.1526 353.031 53.3011 353.24 54.642L353.411 55.7421" stroke="#87C9FF" stroke-width="2.02261" stroke-linecap="round" stroke-linejoin="round"/>
<path d="M344.309 46.1365C347.102 46.1365 349.366 43.8726 349.366 41.08C349.366 38.2873 347.102 36.0234 344.309 36.0234C341.517 36.0234 339.253 38.2873 339.253 41.08C339.253 43.8726 341.517 46.1365 344.309 46.1365Z" stroke="#87C9FF" stroke-width="2.02261" stroke-linecap="round" stroke-linejoin="round"/>
<path d="M331.93 71V63.7273H334.387C334.957 63.7273 335.424 63.8303 335.786 64.0362C336.151 64.2398 336.421 64.5156 336.596 64.8636C336.771 65.2116 336.858 65.5999 336.858 66.0284C336.858 66.4569 336.771 66.8464 336.596 67.1967C336.423 67.5471 336.155 67.8265 335.793 68.0348C335.431 68.2408 334.967 68.3438 334.401 68.3438H332.64V67.5625H334.373C334.763 67.5625 335.077 67.495 335.314 67.3601C335.55 67.2251 335.722 67.0429 335.829 66.8132C335.938 66.5812 335.992 66.3196 335.992 66.0284C335.992 65.7372 335.938 65.4768 335.829 65.2472C335.722 65.0175 335.549 64.8376 335.31 64.7074C335.071 64.5748 334.754 64.5085 334.358 64.5085H332.81V71H331.93ZM340.392 71.1136C339.866 71.1136 339.413 70.9976 339.032 70.7656C338.653 70.5312 338.361 70.2045 338.155 69.7855C337.951 69.3641 337.849 68.8741 337.849 68.3153C337.849 67.7566 337.951 67.2642 338.155 66.8381C338.361 66.4096 338.647 66.0758 339.014 65.8366C339.383 65.5952 339.814 65.4744 340.307 65.4744C340.591 65.4744 340.871 65.5218 341.148 65.6165C341.425 65.7112 341.677 65.8651 341.905 66.0781C342.132 66.2888 342.313 66.5682 342.448 66.9162C342.583 67.2642 342.65 67.6927 342.65 68.2017V68.5568H338.446V67.8324H341.798C341.798 67.5246 341.737 67.25 341.613 67.0085C341.493 66.767 341.32 66.5765 341.095 66.4368C340.872 66.2971 340.61 66.2273 340.307 66.2273C339.973 66.2273 339.684 66.3101 339.44 66.4759C339.199 66.6392 339.013 66.8523 338.883 67.1151C338.752 67.3778 338.687 67.6596 338.687 67.9602V68.4432C338.687 68.8551 338.758 69.2043 338.9 69.4908C339.045 69.7749 339.245 69.9915 339.501 70.1406C339.756 70.2874 340.053 70.3608 340.392 70.3608C340.612 70.3608 340.811 70.33 340.988 70.2685C341.168 70.2045 341.323 70.1098 341.454 69.9844C341.584 69.8565 341.684 69.6979 341.756 69.5085L342.565 69.7358C342.48 70.0104 342.337 70.2519 342.135 70.4602C341.934 70.6662 341.686 70.8272 341.39 70.9432C341.094 71.0568 340.761 71.1136 340.392 71.1136ZM343.925 71V65.5455H344.735V66.3693H344.792C344.891 66.0994 345.071 65.8804 345.331 65.7124C345.592 65.5443 345.885 65.4602 346.212 65.4602C346.274 65.4602 346.351 65.4614 346.443 65.4638C346.535 65.4661 346.605 65.4697 346.653 65.4744V66.3267C346.624 66.3196 346.559 66.3089 346.457 66.2947C346.358 66.2782 346.252 66.2699 346.141 66.2699C345.876 66.2699 345.639 66.3255 345.431 66.4368C345.225 66.5457 345.062 66.6972 344.941 66.8913C344.823 67.0831 344.763 67.3021 344.763 67.5483V71H343.925ZM350.417 65.5455V66.2557H347.476V65.5455H350.417ZM348.357 71V64.7926C348.357 64.4801 348.43 64.2197 348.577 64.0114C348.724 63.803 348.915 63.6468 349.149 63.5426C349.383 63.4384 349.631 63.3864 349.891 63.3864C350.097 63.3864 350.265 63.4029 350.395 63.4361C350.526 63.4692 350.623 63.5 350.687 63.5284L350.445 64.2528C350.403 64.2386 350.343 64.2209 350.268 64.1996C350.194 64.1783 350.097 64.1676 349.976 64.1676C349.699 64.1676 349.499 64.2375 349.376 64.3771C349.256 64.5168 349.195 64.7216 349.195 64.9915V71H348.357ZM351.591 71V65.5455H352.429V71H351.591ZM352.017 64.6364C351.854 64.6364 351.713 64.5807 351.595 64.4695C351.479 64.3582 351.421 64.2244 351.421 64.0682C351.421 63.9119 351.479 63.7782 351.595 63.6669C351.713 63.5556 351.854 63.5 352.017 63.5C352.181 63.5 352.32 63.5556 352.436 63.6669C352.555 63.7782 352.614 63.9119 352.614 64.0682C352.614 64.2244 352.555 64.3582 352.436 64.4695C352.32 64.5807 352.181 64.6364 352.017 64.6364ZM354.802 63.7273V71H353.964V63.7273H354.802Z" fill="#389BEC"/>
<path d="M142.253 37.0332H141.241C139.566 37.0332 138.208 38.3915 138.208 40.0671V54.2254C138.208 55.9009 139.566 57.2593 141.241 57.2593H153.377C155.053 57.2593 156.411 55.9009 156.411 54.2254V40.0671C156.411 38.3915 155.053 37.0332 153.377 37.0332H152.366" stroke="#CFD1DE" stroke-width="2.02261"/>
<rect x="142.253" y="35.0117" width="10.113" height="5.05651" rx="2.02261" stroke="#CFD1DE" stroke-width="2.02261"/>
<path d="M124.582 71V63.7273H127.039C127.61 63.7273 128.076 63.8303 128.438 64.0362C128.803 64.2398 129.073 64.5156 129.248 64.8636C129.423 65.2116 129.511 65.5999 129.511 66.0284C129.511 66.4569 129.423 66.8464 129.248 67.1967C129.075 67.5471 128.808 67.8265 128.445 68.0348C128.083 68.2408 127.619 68.3438 127.053 68.3438H125.292V67.5625H127.025C127.416 67.5625 127.729 67.495 127.966 67.3601C128.203 67.2251 128.374 67.0429 128.481 66.8132C128.59 66.5812 128.644 66.3196 128.644 66.0284C128.644 65.7372 128.59 65.4768 128.481 65.2472C128.374 65.0175 128.202 64.8376 127.963 64.7074C127.723 64.5748 127.406 64.5085 127.011 64.5085H125.463V71H124.582ZM130.816 71V65.5455H131.626V66.3693H131.682C131.782 66.0994 131.962 65.8804 132.222 65.7124C132.483 65.5443 132.776 65.4602 133.103 65.4602C133.164 65.4602 133.241 65.4614 133.334 65.4638C133.426 65.4661 133.496 65.4697 133.543 65.4744V66.3267C133.515 66.3196 133.45 66.3089 133.348 66.2947C133.248 66.2782 133.143 66.2699 133.032 66.2699C132.767 66.2699 132.53 66.3255 132.322 66.4368C132.116 66.5457 131.952 66.6972 131.831 66.8913C131.713 67.0831 131.654 67.3021 131.654 67.5483V71H130.816ZM136.586 71.1136C136.094 71.1136 135.662 70.9964 135.29 70.7621C134.921 70.5277 134.632 70.1998 134.424 69.7784C134.218 69.357 134.115 68.8646 134.115 68.3011C134.115 67.733 134.218 67.237 134.424 66.8132C134.632 66.3894 134.921 66.0604 135.29 65.826C135.662 65.5916 136.094 65.4744 136.586 65.4744C137.079 65.4744 137.51 65.5916 137.879 65.826C138.251 66.0604 138.54 66.3894 138.746 66.8132C138.954 67.237 139.058 67.733 139.058 68.3011C139.058 68.8646 138.954 69.357 138.746 69.7784C138.54 70.1998 138.251 70.5277 137.879 70.7621C137.51 70.9964 137.079 71.1136 136.586 71.1136ZM136.586 70.3608C136.961 70.3608 137.268 70.2649 137.51 70.0732C137.751 69.8814 137.93 69.6293 138.046 69.3168C138.162 69.0043 138.22 68.6657 138.22 68.3011C138.22 67.9366 138.162 67.5968 138.046 67.282C137.93 66.9671 137.751 66.7126 137.51 66.5185C137.268 66.3243 136.961 66.2273 136.586 66.2273C136.212 66.2273 135.905 66.3243 135.663 66.5185C135.422 66.7126 135.243 66.9671 135.127 67.282C135.011 67.5968 134.953 67.9366 134.953 68.3011C134.953 68.6657 135.011 69.0043 135.127 69.3168C135.243 69.6293 135.422 69.8814 135.663 70.0732C135.905 70.2649 136.212 70.3608 136.586 70.3608ZM140.682 73.0455C140.54 73.0455 140.413 73.0336 140.302 73.0099C140.191 72.9886 140.114 72.9673 140.071 72.946L140.284 72.2074C140.488 72.2595 140.668 72.2784 140.824 72.2642C140.98 72.25 141.119 72.1802 141.239 72.0547C141.362 71.9316 141.475 71.7315 141.577 71.4545L141.733 71.0284L139.716 65.5455H140.625L142.131 69.892H142.188L143.693 65.5455H144.602L142.287 71.7955C142.183 72.0772 142.054 72.3104 141.9 72.495C141.746 72.6821 141.567 72.8205 141.364 72.9105C141.162 73.0005 140.935 73.0455 140.682 73.0455ZM147.8 71.1136C147.275 71.1136 146.821 70.9976 146.44 70.7656C146.061 70.5312 145.769 70.2045 145.563 69.7855C145.359 69.3641 145.257 68.8741 145.257 68.3153C145.257 67.7566 145.359 67.2642 145.563 66.8381C145.769 66.4096 146.055 66.0758 146.422 65.8366C146.792 65.5952 147.222 65.4744 147.715 65.4744C147.999 65.4744 148.279 65.5218 148.556 65.6165C148.833 65.7112 149.086 65.8651 149.313 66.0781C149.54 66.2888 149.721 66.5682 149.856 66.9162C149.991 67.2642 150.059 67.6927 150.059 68.2017V68.5568H145.854V67.8324H149.206C149.206 67.5246 149.145 67.25 149.022 67.0085C148.901 66.767 148.728 66.5765 148.503 66.4368C148.281 66.2971 148.018 66.2273 147.715 66.2273C147.381 66.2273 147.092 66.3101 146.848 66.4759C146.607 66.6392 146.421 66.8523 146.291 67.1151C146.161 67.3778 146.096 67.6596 146.096 67.9602V68.4432C146.096 68.8551 146.167 69.2043 146.309 69.4908C146.453 69.7749 146.653 69.9915 146.909 70.1406C147.164 70.2874 147.462 70.3608 147.8 70.3608C148.02 70.3608 148.219 70.33 148.397 70.2685C148.577 70.2045 148.732 70.1098 148.862 69.9844C148.992 69.8565 149.093 69.6979 149.164 69.5085L149.973 69.7358C149.888 70.0104 149.745 70.2519 149.544 70.4602C149.342 70.6662 149.094 70.8272 148.798 70.9432C148.502 71.0568 148.169 71.1136 147.8 71.1136ZM153.549 71.1136C153.038 71.1136 152.598 70.9929 152.228 70.7514C151.859 70.5099 151.575 70.1773 151.376 69.7536C151.177 69.3298 151.078 68.8456 151.078 68.3011C151.078 67.7472 151.18 67.2583 151.383 66.8345C151.589 66.4084 151.876 66.0758 152.243 65.8366C152.612 65.5952 153.043 65.4744 153.535 65.4744C153.919 65.4744 154.264 65.5455 154.572 65.6875C154.88 65.8295 155.132 66.0284 155.328 66.2841C155.525 66.5398 155.647 66.8381 155.694 67.179H154.856C154.792 66.9304 154.65 66.7102 154.43 66.5185C154.212 66.3243 153.919 66.2273 153.549 66.2273C153.223 66.2273 152.936 66.3125 152.69 66.483C152.446 66.651 152.256 66.889 152.118 67.1967C151.983 67.5021 151.916 67.8608 151.916 68.2727C151.916 68.6941 151.982 69.0611 152.115 69.3736C152.25 69.6861 152.439 69.9287 152.683 70.1016C152.929 70.2744 153.218 70.3608 153.549 70.3608C153.767 70.3608 153.965 70.3229 154.142 70.2472C154.32 70.1714 154.47 70.0625 154.593 69.9205C154.717 69.7784 154.804 69.608 154.856 69.4091H155.694C155.647 69.7311 155.53 70.0211 155.343 70.2791C155.158 70.5348 154.913 70.7384 154.608 70.8899C154.305 71.0391 153.952 71.1136 153.549 71.1136ZM159.292 65.5455V66.2557H156.465V65.5455H159.292ZM157.289 64.2386H158.127V69.4375C158.127 69.6742 158.161 69.8518 158.23 69.9702C158.301 70.0862 158.391 70.1643 158.5 70.2045C158.611 70.2424 158.728 70.2614 158.851 70.2614C158.944 70.2614 159.019 70.2566 159.078 70.2472C159.138 70.2353 159.185 70.2259 159.221 70.2188L159.391 70.9716C159.334 70.9929 159.255 71.0142 159.153 71.0355C159.051 71.0592 158.922 71.071 158.766 71.071C158.529 71.071 158.297 71.0201 158.07 70.9183C157.845 70.8165 157.658 70.6615 157.509 70.4531C157.362 70.2448 157.289 69.982 157.289 69.6648V64.2386ZM162.71 71.1136C162.217 71.1136 161.785 70.9964 161.413 70.7621C161.044 70.5277 160.755 70.1998 160.547 69.7784C160.341 69.357 160.238 68.8646 160.238 68.3011C160.238 67.733 160.341 67.237 160.547 66.8132C160.755 66.3894 161.044 66.0604 161.413 65.826C161.785 65.5916 162.217 65.4744 162.71 65.4744C163.202 65.4744 163.633 65.5916 164.002 65.826C164.374 66.0604 164.663 66.3894 164.869 66.8132C165.077 67.237 165.181 67.733 165.181 68.3011C165.181 68.8646 165.077 69.357 164.869 69.7784C164.663 70.1998 164.374 70.5277 164.002 70.7621C163.633 70.9964 163.202 71.1136 162.71 71.1136ZM162.71 70.3608C163.084 70.3608 163.391 70.2649 163.633 70.0732C163.874 69.8814 164.053 69.6293 164.169 69.3168C164.285 69.0043 164.343 68.6657 164.343 68.3011C164.343 67.9366 164.285 67.5968 164.169 67.282C164.053 66.9671 163.874 66.7126 163.633 66.5185C163.391 66.3243 163.084 66.2273 162.71 66.2273C162.335 66.2273 162.028 66.3243 161.786 66.5185C161.545 66.7126 161.366 66.9671 161.25 67.282C161.134 67.5968 161.076 67.9366 161.076 68.3011C161.076 68.6657 161.134 69.0043 161.25 69.3168C161.366 69.6293 161.545 69.8814 161.786 70.0732C162.028 70.2649 162.335 70.3608 162.71 70.3608ZM170.324 66.767L169.571 66.9801C169.524 66.8546 169.454 66.7327 169.362 66.6143C169.272 66.4936 169.149 66.3942 168.992 66.3161C168.836 66.2379 168.636 66.1989 168.392 66.1989C168.058 66.1989 167.78 66.2758 167.558 66.4297C167.338 66.5812 167.227 66.7741 167.227 67.0085C167.227 67.2169 167.303 67.3814 167.455 67.5021C167.606 67.6229 167.843 67.7235 168.165 67.804L168.975 68.0028C169.462 68.1212 169.826 68.3023 170.065 68.5462C170.304 68.7876 170.423 69.099 170.423 69.4801C170.423 69.7926 170.334 70.072 170.154 70.3182C169.976 70.5644 169.727 70.7585 169.408 70.9006C169.088 71.0426 168.717 71.1136 168.293 71.1136C167.736 71.1136 167.276 70.9929 166.911 70.7514C166.547 70.5099 166.316 70.1572 166.219 69.6932L167.014 69.4943C167.09 69.7879 167.233 70.008 167.444 70.1548C167.657 70.3016 167.935 70.375 168.279 70.375C168.669 70.375 168.979 70.2921 169.209 70.1264C169.441 69.9583 169.557 69.7571 169.557 69.5227C169.557 69.3333 169.491 69.1747 169.358 69.0469C169.226 68.9167 169.022 68.8196 168.747 68.7557L167.838 68.5426C167.339 68.4242 166.972 68.2408 166.737 67.9922C166.505 67.7412 166.389 67.4276 166.389 67.0511C166.389 66.7434 166.476 66.4711 166.649 66.2344C166.824 65.9976 167.062 65.8118 167.362 65.6768C167.665 65.5419 168.009 65.4744 168.392 65.4744C168.932 65.4744 169.356 65.5928 169.664 65.8295C169.974 66.0663 170.194 66.3788 170.324 66.767Z" fill="#CFD1DE"/>
<path d="M39.1963 43.9751C39.1963 43.0215 39.6496 42.1248 40.4174 41.5594L49.3093 35.0117L58.2012 41.5594C58.969 42.1248 59.4223 43.0215 59.4223 43.9751V54.7604C59.4223 56.1411 58.3031 57.2604 56.9223 57.2604H53.3432C52.7909 57.2604 52.3432 56.8127 52.3432 56.2604V50.1756C52.3432 49.8995 52.1194 49.6756 51.8432 49.6756H46.7754C46.4993 49.6756 46.2754 49.8995 46.2754 50.1756V56.2604C46.2754 56.8127 45.8277 57.2604 45.2754 57.2604H41.6963C40.3156 57.2604 39.1963 56.1411 39.1963 54.7604V43.9751Z" stroke="#CFD1DE" stroke-width="2.02261" stroke-linecap="round" stroke-linejoin="round"/>
<path d="M36.2498 71V63.7273H37.1305V66.9659H41.0083V63.7273H41.889V71H41.0083V67.7472H37.1305V71H36.2498ZM45.7544 71.1136C45.262 71.1136 44.83 70.9964 44.4583 70.7621C44.089 70.5277 43.8001 70.1998 43.5918 69.7784C43.3858 69.357 43.2828 68.8646 43.2828 68.3011C43.2828 67.733 43.3858 67.237 43.5918 66.8132C43.8001 66.3894 44.089 66.0604 44.4583 65.826C44.83 65.5916 45.262 65.4744 45.7544 65.4744C46.2469 65.4744 46.6777 65.5916 47.0471 65.826C47.4187 66.0604 47.7076 66.3894 47.9135 66.8132C48.1219 67.237 48.226 67.733 48.226 68.3011C48.226 68.8646 48.1219 69.357 47.9135 69.7784C47.7076 70.1998 47.4187 70.5277 47.0471 70.7621C46.6777 70.9964 46.2469 71.1136 45.7544 71.1136ZM45.7544 70.3608C46.1285 70.3608 46.4363 70.2649 46.6777 70.0732C46.9192 69.8814 47.098 69.6293 47.214 69.3168C47.33 69.0043 47.388 68.6657 47.388 68.3011C47.388 67.9366 47.33 67.5968 47.214 67.282C47.098 66.9671 46.9192 66.7126 46.6777 66.5185C46.4363 66.3243 46.1285 66.2273 45.7544 66.2273C45.3804 66.2273 45.0726 66.3243 44.8311 66.5185C44.5897 66.7126 44.4109 66.9671 44.2949 67.282C44.1789 67.5968 44.1209 67.9366 44.1209 68.3011C44.1209 68.6657 44.1789 69.0043 44.2949 69.3168C44.4109 69.6293 44.5897 69.8814 44.8311 70.0732C45.0726 70.2649 45.3804 70.3608 45.7544 70.3608ZM49.5053 71V65.5455H50.315V66.3977H50.386C50.4996 66.1065 50.6831 65.8804 50.9364 65.7195C51.1897 65.5561 51.494 65.4744 51.8491 65.4744C52.2089 65.4744 52.5084 65.5561 52.7475 65.7195C52.989 65.8804 53.1772 66.1065 53.3121 66.3977H53.369C53.5086 66.116 53.7182 65.8923 53.9975 65.7266C54.2769 65.5585 54.6119 65.4744 55.0025 65.4744C55.4902 65.4744 55.8891 65.6271 56.1992 65.9325C56.5094 66.2356 56.6644 66.7079 56.6644 67.3494V71H55.8263V67.3494C55.8263 66.947 55.7163 66.6593 55.4961 66.4865C55.2759 66.3137 55.0167 66.2273 54.7184 66.2273C54.3349 66.2273 54.0378 66.3433 53.8271 66.5753C53.6164 66.8049 53.511 67.0961 53.511 67.4489V71H52.6587V67.2642C52.6587 66.9541 52.5581 66.7043 52.3569 66.5149C52.1557 66.3232 51.8964 66.2273 51.5792 66.2273C51.3614 66.2273 51.1578 66.2853 50.9684 66.4013C50.7814 66.5173 50.6299 66.6783 50.5138 66.8842C50.4002 67.0878 50.3434 67.3234 50.3434 67.5909V71H49.5053ZM60.4837 71.1136C59.9581 71.1136 59.5047 70.9976 59.1236 70.7656C58.7448 70.5312 58.4524 70.2045 58.2464 69.7855C58.0429 69.3641 57.9411 68.8741 57.9411 68.3153C57.9411 67.7566 58.0429 67.2642 58.2464 66.8381C58.4524 66.4096 58.7389 66.0758 59.1058 65.8366C59.4751 65.5952 59.906 65.4744 60.3984 65.4744C60.6825 65.4744 60.9631 65.5218 61.2401 65.6165C61.517 65.7112 61.7692 65.8651 61.9964 66.0781C62.2237 66.2888 62.4048 66.5682 62.5398 66.9162C62.6747 67.2642 62.7422 67.6927 62.7422 68.2017V68.5568H58.5376V67.8324H61.8899C61.8899 67.5246 61.8284 67.25 61.7053 67.0085C61.5845 66.767 61.4117 66.5765 61.1868 66.4368C60.9643 66.2971 60.7015 66.2273 60.3984 66.2273C60.0646 66.2273 59.7758 66.3101 59.532 66.4759C59.2905 66.6392 59.1046 66.8523 58.9744 67.1151C58.8442 67.3778 58.7791 67.6596 58.7791 67.9602V68.4432C58.7791 68.8551 58.8501 69.2043 58.9922 69.4908C59.1366 69.7749 59.3366 69.9915 59.5923 70.1406C59.848 70.2874 60.1451 70.3608 60.4837 70.3608C60.7038 70.3608 60.9027 70.33 61.0803 70.2685C61.2602 70.2045 61.4152 70.1098 61.5455 69.9844C61.6757 69.8565 61.7763 69.6979 61.8473 69.5085L62.657 69.7358C62.5717 70.0104 62.4285 70.2519 62.2273 70.4602C62.026 70.6662 61.7775 70.8272 61.4815 70.9432C61.1856 71.0568 60.853 71.1136 60.4837 71.1136Z" fill="#CFD1DE"/>
<path d="M227.094 71V63.7273H229.636C230.143 63.7273 230.561 63.8149 230.89 63.9901C231.219 64.1629 231.464 64.3961 231.625 64.6896C231.786 64.9808 231.866 65.304 231.866 65.6591C231.866 65.9716 231.811 66.2296 231.699 66.4332C231.59 66.6368 231.446 66.7978 231.266 66.9162C231.089 67.0346 230.896 67.1222 230.687 67.179V67.25C230.91 67.2642 231.134 67.3423 231.358 67.4844C231.583 67.6264 231.772 67.83 231.923 68.0952C232.075 68.3603 232.15 68.6847 232.15 69.0682C232.15 69.4328 232.068 69.7607 231.902 70.0518C231.736 70.343 231.474 70.5739 231.117 70.7443C230.76 70.9148 230.294 71 229.721 71H227.094ZM227.974 70.2188H229.721C230.297 70.2188 230.705 70.1075 230.947 69.8849C231.19 69.66 231.312 69.3878 231.312 69.0682C231.312 68.822 231.25 68.5947 231.124 68.3864C230.999 68.1757 230.82 68.0076 230.588 67.8821C230.356 67.7543 230.081 67.6903 229.764 67.6903H227.974V70.2188ZM227.974 66.9233H229.608C229.873 66.9233 230.112 66.8712 230.325 66.767C230.541 66.6629 230.711 66.5161 230.836 66.3267C230.964 66.1373 231.028 65.9148 231.028 65.6591C231.028 65.3395 230.917 65.0684 230.694 64.8459C230.472 64.621 230.119 64.5085 229.636 64.5085H227.974V66.9233ZM233.484 71V65.5455H234.322V71H233.484ZM233.91 64.6364C233.747 64.6364 233.606 64.5807 233.487 64.4695C233.371 64.3582 233.313 64.2244 233.313 64.0682C233.313 63.9119 233.371 63.7782 233.487 63.6669C233.606 63.5556 233.747 63.5 233.91 63.5C234.073 63.5 234.213 63.5556 234.329 63.6669C234.447 63.7782 234.507 63.9119 234.507 64.0682C234.507 64.2244 234.447 64.3582 234.329 64.4695C234.213 64.5807 234.073 64.6364 233.91 64.6364ZM236.695 63.7273V71H235.857V63.7273H236.695ZM239.068 63.7273V71H238.23V63.7273H239.068ZM242.89 71.1136C242.364 71.1136 241.911 70.9976 241.53 70.7656C241.151 70.5312 240.859 70.2045 240.653 69.7855C240.449 69.3641 240.347 68.8741 240.347 68.3153C240.347 67.7566 240.449 67.2642 240.653 66.8381C240.859 66.4096 241.145 66.0758 241.512 65.8366C241.881 65.5952 242.312 65.4744 242.805 65.4744C243.089 65.4744 243.369 65.5218 243.646 65.6165C243.923 65.7112 244.175 65.8651 244.403 66.0781C244.63 66.2888 244.811 66.5682 244.946 66.9162C245.081 67.2642 245.148 67.6927 245.148 68.2017V68.5568H240.944V67.8324H244.296C244.296 67.5246 244.235 67.25 244.112 67.0085C243.991 66.767 243.818 66.5765 243.593 66.4368C243.371 66.2971 243.108 66.2273 242.805 66.2273C242.471 66.2273 242.182 66.3101 241.938 66.4759C241.697 66.6392 241.511 66.8523 241.381 67.1151C241.25 67.3778 241.185 67.6596 241.185 67.9602V68.4432C241.185 68.8551 241.256 69.2043 241.398 69.4908C241.543 69.7749 241.743 69.9915 241.999 70.1406C242.254 70.2874 242.551 70.3608 242.89 70.3608C243.11 70.3608 243.309 70.33 243.487 70.2685C243.666 70.2045 243.821 70.1098 243.952 69.9844C244.082 69.8565 244.183 69.6979 244.254 69.5085L245.063 69.7358C244.978 70.0104 244.835 70.2519 244.634 70.4602C244.432 70.6662 244.184 70.8272 243.888 70.9432C243.592 71.0568 243.259 71.1136 242.89 71.1136ZM248.795 65.5455V66.2557H245.969V65.5455H248.795ZM246.793 64.2386H247.631V69.4375C247.631 69.6742 247.665 69.8518 247.734 69.9702C247.805 70.0862 247.895 70.1643 248.004 70.2045C248.115 70.2424 248.232 70.2614 248.355 70.2614C248.447 70.2614 248.523 70.2566 248.582 70.2472C248.642 70.2353 248.689 70.2259 248.724 70.2188L248.895 70.9716C248.838 70.9929 248.759 71.0142 248.657 71.0355C248.555 71.0592 248.426 71.071 248.27 71.071C248.033 71.071 247.801 71.0201 247.574 70.9183C247.349 70.8165 247.162 70.6615 247.013 70.4531C246.866 70.2448 246.793 69.982 246.793 69.6648V64.2386ZM252.284 71.1136C251.759 71.1136 251.306 70.9976 250.924 70.7656C250.546 70.5312 250.253 70.2045 250.047 69.7855C249.844 69.3641 249.742 68.8741 249.742 68.3153C249.742 67.7566 249.844 67.2642 250.047 66.8381C250.253 66.4096 250.54 66.0758 250.907 65.8366C251.276 65.5952 251.707 65.4744 252.199 65.4744C252.483 65.4744 252.764 65.5218 253.041 65.6165C253.318 65.7112 253.57 65.8651 253.797 66.0781C254.025 66.2888 254.206 66.5682 254.341 66.9162C254.475 67.2642 254.543 67.6927 254.543 68.2017V68.5568H250.338V67.8324H253.691C253.691 67.5246 253.629 67.25 253.506 67.0085C253.385 66.767 253.212 66.5765 252.988 66.4368C252.765 66.2971 252.502 66.2273 252.199 66.2273C251.865 66.2273 251.577 66.3101 251.333 66.4759C251.091 66.6392 250.905 66.8523 250.775 67.1151C250.645 67.3778 250.58 67.6596 250.58 67.9602V68.4432C250.58 68.8551 250.651 69.2043 250.793 69.4908C250.937 69.7749 251.137 69.9915 251.393 70.1406C251.649 70.2874 251.946 70.3608 252.284 70.3608C252.505 70.3608 252.703 70.33 252.881 70.2685C253.061 70.2045 253.216 70.1098 253.346 69.9844C253.476 69.8565 253.577 69.6979 253.648 69.5085L254.458 69.7358C254.373 70.0104 254.229 70.2519 254.028 70.4602C253.827 70.6662 253.578 70.8272 253.282 70.9432C252.986 71.0568 252.654 71.1136 252.284 71.1136ZM255.818 71V65.5455H256.627V66.3693H256.684C256.784 66.0994 256.964 65.8804 257.224 65.7124C257.484 65.5443 257.778 65.4602 258.105 65.4602C258.166 65.4602 258.243 65.4614 258.336 65.4638C258.428 65.4661 258.498 65.4697 258.545 65.4744V66.3267C258.517 66.3196 258.452 66.3089 258.35 66.2947C258.25 66.2782 258.145 66.2699 258.034 66.2699C257.769 66.2699 257.532 66.3255 257.324 66.4368C257.118 66.5457 256.954 66.6972 256.833 66.8913C256.715 67.0831 256.656 67.3021 256.656 67.5483V71H255.818ZM261.144 71.1278C260.798 71.1278 260.484 71.0627 260.203 70.9325C259.921 70.8 259.697 70.6094 259.531 70.3608C259.366 70.1098 259.283 69.8068 259.283 69.4517C259.283 69.1392 259.344 68.8859 259.468 68.6918C259.591 68.4953 259.755 68.3414 259.961 68.2301C260.167 68.1188 260.394 68.036 260.643 67.9815C260.894 67.9247 261.146 67.8797 261.399 67.8466C261.731 67.804 261.999 67.772 262.205 67.7507C262.414 67.727 262.565 67.688 262.66 67.6335C262.757 67.5791 262.806 67.4844 262.806 67.3494V67.321C262.806 66.9706 262.71 66.6984 262.518 66.5043C262.329 66.3101 262.041 66.2131 261.655 66.2131C261.255 66.2131 260.941 66.3007 260.714 66.4759C260.487 66.651 260.327 66.8381 260.235 67.0369L259.439 66.7528C259.581 66.4214 259.771 66.1634 260.007 65.9787C260.246 65.7917 260.507 65.6615 260.789 65.5881C261.073 65.5123 261.352 65.4744 261.627 65.4744C261.802 65.4744 262.003 65.4957 262.23 65.5384C262.46 65.5786 262.681 65.6626 262.894 65.7905C263.11 65.9183 263.289 66.1113 263.431 66.3693C263.573 66.6274 263.644 66.973 263.644 67.4062V71H262.806V70.2614H262.763C262.706 70.3797 262.611 70.5064 262.479 70.6413C262.346 70.7763 262.17 70.8911 261.95 70.9858C261.73 71.0805 261.461 71.1278 261.144 71.1278ZM261.271 70.375C261.603 70.375 261.882 70.3099 262.11 70.1797C262.339 70.0495 262.512 69.8814 262.628 69.6754C262.746 69.4695 262.806 69.2528 262.806 69.0256V68.2585C262.77 68.3011 262.692 68.3402 262.571 68.3757C262.453 68.4089 262.316 68.4384 262.159 68.4645C262.005 68.4882 261.855 68.5095 261.708 68.5284C261.564 68.545 261.447 68.5592 261.357 68.571C261.139 68.5994 260.935 68.6456 260.746 68.7095C260.559 68.7711 260.407 68.8646 260.291 68.9901C260.178 69.1132 260.121 69.2812 260.121 69.4943C260.121 69.7855 260.229 70.0057 260.444 70.1548C260.662 70.3016 260.938 70.375 261.271 70.375Z" fill="#CFD1DE"/>
<path d="M254.405 37.0449L237.248 37.0449C235.574 37.0449 234.218 38.4015 234.218 40.0749V54.241C234.218 55.9144 235.574 57.271 237.248 57.271H253.371C255.045 57.271 256.401 55.9144 256.401 54.241V44.0256C256.401 42.3522 255.045 40.9956 253.371 40.9956H236.722C235.606 40.9956 234.702 40.0913 234.702 38.9759V38.9759" stroke="#CFD1DE" stroke-width="2.02" stroke-linecap="round" stroke-linejoin="round"/>
<rect width="70" height="2" transform="matrix(1 0 0 -1 308.31 21)" fill="#55B3FF"/>
</g>
<defs>
<filter id="filter0_d_1714_36131" x="-12.8262" y="0" width="416" height="101" filterUnits="userSpaceOnUse" color-interpolation-filters="sRGB">
<feFlood flood-opacity="0" result="BackgroundImageFix"/>
<feColorMatrix in="SourceAlpha" type="matrix" values="0 0 0 0 0 0 0 0 0 0 0 0 0 0 0 0 0 0 127 0" result="hardAlpha"/>
<feOffset dy="-6"/>
<feGaussianBlur stdDeviation="6.5"/>
<feComposite in2="hardAlpha" operator="out"/>
<feColorMatrix type="matrix" values="0 0 0 0 0 0 0 0 0 0 0 0 0 0 0 0 0 0 0.04 0"/>
<feBlend mode="normal" in2="BackgroundImageFix" result="effect1_dropShadow_1714_36131"/>
<feBlend mode="normal" in="SourceGraphic" in2="effect1_dropShadow_1714_36131" result="shape"/>
</filter>
</defs>
</svg>
