<svg width="391" height="95" viewBox="0 0 391 95" fill="none" xmlns="http://www.w3.org/2000/svg">
<g filter="url(#filter0_d_1733_30985)">
<path d="M0.0205078 19.5H390.021V94.5H0.0205078V19.5Z" fill="white"/>
<path d="M335.054 56.2421L335.226 55.142C335.434 53.8011 336.309 52.6526 337.605 52.2511C339.215 51.7525 341.606 51.1855 344.156 51.1855C346.706 51.1855 349.097 51.7525 350.707 52.2511C352.003 52.6526 352.878 53.8011 353.087 55.142L353.258 56.2421" stroke="#87C9FF" stroke-width="2.02261" stroke-linecap="round" stroke-linejoin="round"/>
<path d="M344.156 46.6365C346.949 46.6365 349.213 44.3726 349.213 41.58C349.213 38.7873 346.949 36.5234 344.156 36.5234C341.363 36.5234 339.1 38.7873 339.1 41.58C339.1 44.3726 341.363 46.6365 344.156 46.6365Z" stroke="#87C9FF" stroke-width="2.02261" stroke-linecap="round" stroke-linejoin="round"/>
<path d="M331.776 71.5V64.2273H334.234C334.804 64.2273 335.271 64.3303 335.633 64.5362C335.997 64.7398 336.267 65.0156 336.442 65.3636C336.618 65.7116 336.705 66.0999 336.705 66.5284C336.705 66.9569 336.618 67.3464 336.442 67.6967C336.27 68.0471 336.002 68.3265 335.64 68.5348C335.278 68.7408 334.814 68.8438 334.248 68.8438H332.486V68.0625H334.219C334.61 68.0625 334.924 67.995 335.16 67.8601C335.397 67.7251 335.569 67.5429 335.675 67.3132C335.784 67.0812 335.839 66.8196 335.839 66.5284C335.839 66.2372 335.784 65.9768 335.675 65.7472C335.569 65.5175 335.396 65.3376 335.157 65.2074C334.918 65.0748 334.601 65.0085 334.205 65.0085H332.657V71.5H331.776ZM340.239 71.6136C339.713 71.6136 339.26 71.4976 338.878 71.2656C338.5 71.0312 338.207 70.7045 338.001 70.2855C337.798 69.8641 337.696 69.3741 337.696 68.8153C337.696 68.2566 337.798 67.7642 338.001 67.3381C338.207 66.9096 338.494 66.5758 338.861 66.3366C339.23 66.0952 339.661 65.9744 340.153 65.9744C340.437 65.9744 340.718 66.0218 340.995 66.1165C341.272 66.2112 341.524 66.3651 341.751 66.5781C341.979 66.7888 342.16 67.0682 342.295 67.4162C342.43 67.7642 342.497 68.1927 342.497 68.7017V69.0568H338.293V68.3324H341.645C341.645 68.0246 341.583 67.75 341.46 67.5085C341.339 67.267 341.167 67.0765 340.942 66.9368C340.719 66.7971 340.456 66.7273 340.153 66.7273C339.82 66.7273 339.531 66.8101 339.287 66.9759C339.045 67.1392 338.86 67.3523 338.729 67.6151C338.599 67.8778 338.534 68.1596 338.534 68.4602V68.9432C338.534 69.3551 338.605 69.7043 338.747 69.9908C338.891 70.2749 339.092 70.4915 339.347 70.6406C339.603 70.7874 339.9 70.8608 340.239 70.8608C340.459 70.8608 340.658 70.83 340.835 70.7685C341.015 70.7045 341.17 70.6098 341.3 70.4844C341.431 70.3565 341.531 70.1979 341.602 70.0085L342.412 70.2358C342.327 70.5104 342.183 70.7519 341.982 70.9602C341.781 71.1662 341.532 71.3272 341.236 71.4432C340.94 71.5568 340.608 71.6136 340.239 71.6136ZM343.772 71.5V66.0455H344.582V66.8693H344.638C344.738 66.5994 344.918 66.3804 345.178 66.2124C345.439 66.0443 345.732 65.9602 346.059 65.9602C346.12 65.9602 346.197 65.9614 346.29 65.9638C346.382 65.9661 346.452 65.9697 346.499 65.9744V66.8267C346.471 66.8196 346.406 66.8089 346.304 66.7947C346.204 66.7782 346.099 66.7699 345.988 66.7699C345.723 66.7699 345.486 66.8255 345.278 66.9368C345.072 67.0457 344.908 67.1972 344.788 67.3913C344.669 67.5831 344.61 67.8021 344.61 68.0483V71.5H343.772ZM350.263 66.0455V66.7557H347.323V66.0455H350.263ZM348.204 71.5V65.2926C348.204 64.9801 348.277 64.7197 348.424 64.5114C348.571 64.303 348.761 64.1468 348.996 64.0426C349.23 63.9384 349.477 63.8864 349.738 63.8864C349.944 63.8864 350.112 63.9029 350.242 63.9361C350.372 63.9692 350.469 64 350.533 64.0284L350.292 64.7528C350.249 64.7386 350.19 64.7209 350.114 64.6996C350.041 64.6783 349.944 64.6676 349.823 64.6676C349.546 64.6676 349.346 64.7375 349.223 64.8771C349.102 65.0168 349.042 65.2216 349.042 65.4915V71.5H348.204ZM351.438 71.5V66.0455H352.276V71.5H351.438ZM351.864 65.1364C351.701 65.1364 351.56 65.0807 351.441 64.9695C351.325 64.8582 351.267 64.7244 351.267 64.5682C351.267 64.4119 351.325 64.2782 351.441 64.1669C351.56 64.0556 351.701 64 351.864 64C352.027 64 352.167 64.0556 352.283 64.1669C352.401 64.2782 352.461 64.4119 352.461 64.5682C352.461 64.7244 352.401 64.8582 352.283 64.9695C352.167 65.0807 352.027 65.1364 351.864 65.1364ZM354.649 64.2273V71.5H353.811V64.2273H354.649Z" fill="#389BEC"/>
<path d="M142.1 37.5332H141.088C139.413 37.5332 138.054 38.8915 138.054 40.5671V54.7254C138.054 56.4009 139.413 57.7593 141.088 57.7593H153.224C154.9 57.7593 156.258 56.4009 156.258 54.7254V40.5671C156.258 38.8915 154.9 37.5332 153.224 37.5332H152.213" stroke="#CFD1DE" stroke-width="2.02261"/>
<rect x="142.1" y="35.5117" width="10.113" height="5.05651" rx="2.02261" stroke="#CFD1DE" stroke-width="2.02261"/>
<path d="M124.429 71.5V64.2273H126.886C127.456 64.2273 127.923 64.3303 128.285 64.5362C128.65 64.7398 128.92 65.0156 129.095 65.3636C129.27 65.7116 129.358 66.0999 129.358 66.5284C129.358 66.9569 129.27 67.3464 129.095 67.6967C128.922 68.0471 128.654 68.3265 128.292 68.5348C127.93 68.7408 127.466 68.8438 126.9 68.8438H125.139V68.0625H126.872C127.262 68.0625 127.576 67.995 127.813 67.8601C128.05 67.7251 128.221 67.5429 128.328 67.3132C128.437 67.0812 128.491 66.8196 128.491 66.5284C128.491 66.2372 128.437 65.9768 128.328 65.7472C128.221 65.5175 128.048 65.3376 127.809 65.2074C127.57 65.0748 127.253 65.0085 126.858 65.0085H125.309V71.5H124.429ZM130.663 71.5V66.0455H131.472V66.8693H131.529C131.628 66.5994 131.808 66.3804 132.069 66.2124C132.329 66.0443 132.623 65.9602 132.949 65.9602C133.011 65.9602 133.088 65.9614 133.18 65.9638C133.273 65.9661 133.342 65.9697 133.39 65.9744V66.8267C133.361 66.8196 133.296 66.8089 133.195 66.7947C133.095 66.7782 132.99 66.7699 132.878 66.7699C132.613 66.7699 132.377 66.8255 132.168 66.9368C131.962 67.0457 131.799 67.1972 131.678 67.3913C131.56 67.5831 131.501 67.8021 131.501 68.0483V71.5H130.663ZM136.433 71.6136C135.941 71.6136 135.509 71.4964 135.137 71.2621C134.768 71.0277 134.479 70.6998 134.271 70.2784C134.065 69.857 133.962 69.3646 133.962 68.8011C133.962 68.233 134.065 67.737 134.271 67.3132C134.479 66.8894 134.768 66.5604 135.137 66.326C135.509 66.0916 135.941 65.9744 136.433 65.9744C136.926 65.9744 137.356 66.0916 137.726 66.326C138.097 66.5604 138.386 66.8894 138.592 67.3132C138.801 67.737 138.905 68.233 138.905 68.8011C138.905 69.3646 138.801 69.857 138.592 70.2784C138.386 70.6998 138.097 71.0277 137.726 71.2621C137.356 71.4964 136.926 71.6136 136.433 71.6136ZM136.433 70.8608C136.807 70.8608 137.115 70.7649 137.356 70.5732C137.598 70.3814 137.777 70.1293 137.893 69.8168C138.009 69.5043 138.067 69.1657 138.067 68.8011C138.067 68.4366 138.009 68.0968 137.893 67.782C137.777 67.4671 137.598 67.2126 137.356 67.0185C137.115 66.8243 136.807 66.7273 136.433 66.7273C136.059 66.7273 135.751 66.8243 135.51 67.0185C135.268 67.2126 135.09 67.4671 134.974 67.782C134.858 68.0968 134.8 68.4366 134.8 68.8011C134.8 69.1657 134.858 69.5043 134.974 69.8168C135.09 70.1293 135.268 70.3814 135.51 70.5732C135.751 70.7649 136.059 70.8608 136.433 70.8608ZM140.528 73.5455C140.386 73.5455 140.26 73.5336 140.149 73.5099C140.037 73.4886 139.96 73.4673 139.918 73.446L140.131 72.7074C140.334 72.7595 140.514 72.7784 140.671 72.7642C140.827 72.75 140.965 72.6802 141.086 72.5547C141.209 72.4316 141.322 72.2315 141.423 71.9545L141.58 71.5284L139.563 66.0455H140.472L141.977 70.392H142.034L143.54 66.0455H144.449L142.134 72.2955C142.029 72.5772 141.9 72.8104 141.747 72.995C141.593 73.1821 141.414 73.3205 141.21 73.4105C141.009 73.5005 140.782 73.5455 140.528 73.5455ZM147.647 71.6136C147.121 71.6136 146.668 71.4976 146.287 71.2656C145.908 71.0312 145.616 70.7045 145.41 70.2855C145.206 69.8641 145.104 69.3741 145.104 68.8153C145.104 68.2566 145.206 67.7642 145.41 67.3381C145.616 66.9096 145.902 66.5758 146.269 66.3366C146.638 66.0952 147.069 65.9744 147.562 65.9744C147.846 65.9744 148.126 66.0218 148.403 66.1165C148.68 66.2112 148.932 66.3651 149.16 66.5781C149.387 66.7888 149.568 67.0682 149.703 67.4162C149.838 67.7642 149.905 68.1927 149.905 68.7017V69.0568H145.701V68.3324H149.053C149.053 68.0246 148.991 67.75 148.868 67.5085C148.748 67.267 148.575 67.0765 148.35 66.9368C148.127 66.7971 147.865 66.7273 147.562 66.7273C147.228 66.7273 146.939 66.8101 146.695 66.9759C146.454 67.1392 146.268 67.3523 146.138 67.6151C146.007 67.8778 145.942 68.1596 145.942 68.4602V68.9432C145.942 69.3551 146.013 69.7043 146.155 69.9908C146.3 70.2749 146.5 70.4915 146.755 70.6406C147.011 70.7874 147.308 70.8608 147.647 70.8608C147.867 70.8608 148.066 70.83 148.243 70.7685C148.423 70.7045 148.578 70.6098 148.709 70.4844C148.839 70.3565 148.939 70.1979 149.01 70.0085L149.82 70.2358C149.735 70.5104 149.592 70.7519 149.39 70.9602C149.189 71.1662 148.941 71.3272 148.645 71.4432C148.349 71.5568 148.016 71.6136 147.647 71.6136ZM153.396 71.6136C152.885 71.6136 152.444 71.4929 152.075 71.2514C151.706 71.0099 151.422 70.6773 151.223 70.2536C151.024 69.8298 150.924 69.3456 150.924 68.8011C150.924 68.2472 151.026 67.7583 151.23 67.3345C151.436 66.9084 151.722 66.5758 152.089 66.3366C152.459 66.0952 152.889 65.9744 153.382 65.9744C153.765 65.9744 154.111 66.0455 154.419 66.1875C154.727 66.3295 154.979 66.5284 155.175 66.7841C155.372 67.0398 155.494 67.3381 155.541 67.679H154.703C154.639 67.4304 154.497 67.2102 154.277 67.0185C154.059 66.8243 153.765 66.7273 153.396 66.7273C153.069 66.7273 152.783 66.8125 152.537 66.983C152.293 67.151 152.102 67.389 151.965 67.6967C151.83 68.0021 151.763 68.3608 151.763 68.7727C151.763 69.1941 151.829 69.5611 151.961 69.8736C152.096 70.1861 152.286 70.4287 152.53 70.6016C152.776 70.7744 153.065 70.8608 153.396 70.8608C153.614 70.8608 153.812 70.8229 153.989 70.7472C154.167 70.6714 154.317 70.5625 154.44 70.4205C154.563 70.2784 154.651 70.108 154.703 69.9091H155.541C155.494 70.2311 155.376 70.5211 155.189 70.7791C155.005 71.0348 154.76 71.2384 154.454 71.3899C154.151 71.5391 153.799 71.6136 153.396 71.6136ZM159.138 66.0455V66.7557H156.312V66.0455H159.138ZM157.135 64.7386H157.973V69.9375C157.973 70.1742 158.008 70.3518 158.076 70.4702C158.147 70.5862 158.237 70.6643 158.346 70.7045C158.458 70.7424 158.575 70.7614 158.698 70.7614C158.79 70.7614 158.866 70.7566 158.925 70.7472C158.984 70.7353 159.032 70.7259 159.067 70.7188L159.238 71.4716C159.181 71.4929 159.102 71.5142 159 71.5355C158.898 71.5592 158.769 71.571 158.613 71.571C158.376 71.571 158.144 71.5201 157.917 71.4183C157.692 71.3165 157.505 71.1615 157.356 70.9531C157.209 70.7448 157.135 70.482 157.135 70.1648V64.7386ZM162.556 71.6136C162.064 71.6136 161.632 71.4964 161.26 71.2621C160.891 71.0277 160.602 70.6998 160.394 70.2784C160.188 69.857 160.085 69.3646 160.085 68.8011C160.085 68.233 160.188 67.737 160.394 67.3132C160.602 66.8894 160.891 66.5604 161.26 66.326C161.632 66.0916 162.064 65.9744 162.556 65.9744C163.049 65.9744 163.479 66.0916 163.849 66.326C164.22 66.5604 164.509 66.8894 164.715 67.3132C164.924 67.737 165.028 68.233 165.028 68.8011C165.028 69.3646 164.924 69.857 164.715 70.2784C164.509 70.6998 164.22 71.0277 163.849 71.2621C163.479 71.4964 163.049 71.6136 162.556 71.6136ZM162.556 70.8608C162.93 70.8608 163.238 70.7649 163.479 70.5732C163.721 70.3814 163.9 70.1293 164.016 69.8168C164.132 69.5043 164.19 69.1657 164.19 68.8011C164.19 68.4366 164.132 68.0968 164.016 67.782C163.9 67.4671 163.721 67.2126 163.479 67.0185C163.238 66.8243 162.93 66.7273 162.556 66.7273C162.182 66.7273 161.874 66.8243 161.633 67.0185C161.391 67.2126 161.213 67.4671 161.097 67.782C160.981 68.0968 160.923 68.4366 160.923 68.8011C160.923 69.1657 160.981 69.5043 161.097 69.8168C161.213 70.1293 161.391 70.3814 161.633 70.5732C161.874 70.7649 162.182 70.8608 162.556 70.8608ZM170.171 67.267L169.418 67.4801C169.371 67.3546 169.301 67.2327 169.208 67.1143C169.118 66.9936 168.995 66.8942 168.839 66.8161C168.683 66.7379 168.483 66.6989 168.239 66.6989C167.905 66.6989 167.627 66.7758 167.404 66.9297C167.184 67.0812 167.074 67.2741 167.074 67.5085C167.074 67.7169 167.15 67.8814 167.301 68.0021C167.453 68.1229 167.69 68.2235 168.012 68.304L168.821 68.5028C169.309 68.6212 169.672 68.8023 169.911 69.0462C170.151 69.2876 170.27 69.599 170.27 69.9801C170.27 70.2926 170.18 70.572 170 70.8182C169.823 71.0644 169.574 71.2585 169.255 71.4006C168.935 71.5426 168.563 71.6136 168.139 71.6136C167.583 71.6136 167.123 71.4929 166.758 71.2514C166.393 71.0099 166.163 70.6572 166.066 70.1932L166.861 69.9943C166.937 70.2879 167.08 70.508 167.291 70.6548C167.504 70.8016 167.782 70.875 168.125 70.875C168.516 70.875 168.826 70.7921 169.056 70.6264C169.288 70.4583 169.404 70.2571 169.404 70.0227C169.404 69.8333 169.337 69.6747 169.205 69.5469C169.072 69.4167 168.869 69.3196 168.594 69.2557L167.685 69.0426C167.185 68.9242 166.818 68.7408 166.584 68.4922C166.352 68.2412 166.236 67.9276 166.236 67.5511C166.236 67.2434 166.322 66.9711 166.495 66.7344C166.67 66.4976 166.908 66.3118 167.209 66.1768C167.512 66.0419 167.855 65.9744 168.239 65.9744C168.779 65.9744 169.202 66.0928 169.51 66.3295C169.82 66.5663 170.041 66.8788 170.171 67.267Z" fill="#CFD1DE"/>
<path d="M39.0432 44.4751C39.0432 43.5215 39.4965 42.6248 40.2644 42.0594L49.1562 35.5117L58.0481 42.0594C58.816 42.6248 59.2693 43.5215 59.2693 44.4751V55.2604C59.2693 56.6411 58.15 57.7604 56.7693 57.7604H53.1902C52.6379 57.7604 52.1901 57.3127 52.1901 56.7604V50.6756C52.1901 50.3995 51.9663 50.1756 51.6901 50.1756H46.6223C46.3462 50.1756 46.1223 50.3995 46.1223 50.6756V56.7604C46.1223 57.3127 45.6746 57.7604 45.1223 57.7604H41.5432C40.1625 57.7604 39.0432 56.6411 39.0432 55.2604V44.4751Z" stroke="#CFD1DE" stroke-width="2.02261" stroke-linecap="round" stroke-linejoin="round"/>
<path d="M36.0965 71.5V64.2273H36.9772V67.4659H40.855V64.2273H41.7357V71.5H40.855V68.2472H36.9772V71.5H36.0965ZM45.6011 71.6136C45.1087 71.6136 44.6766 71.4964 44.305 71.2621C43.9356 71.0277 43.6468 70.6998 43.4385 70.2784C43.2325 69.857 43.1295 69.3646 43.1295 68.8011C43.1295 68.233 43.2325 67.737 43.4385 67.3132C43.6468 66.8894 43.9356 66.5604 44.305 66.326C44.6766 66.0916 45.1087 65.9744 45.6011 65.9744C46.0935 65.9744 46.5244 66.0916 46.8937 66.326C47.2654 66.5604 47.5542 66.8894 47.7602 67.3132C47.9685 67.737 48.0727 68.233 48.0727 68.8011C48.0727 69.3646 47.9685 69.857 47.7602 70.2784C47.5542 70.6998 47.2654 71.0277 46.8937 71.2621C46.5244 71.4964 46.0935 71.6136 45.6011 71.6136ZM45.6011 70.8608C45.9752 70.8608 46.2829 70.7649 46.5244 70.5732C46.7659 70.3814 46.9446 70.1293 47.0606 69.8168C47.1766 69.5043 47.2346 69.1657 47.2346 68.8011C47.2346 68.4366 47.1766 68.0968 47.0606 67.782C46.9446 67.4671 46.7659 67.2126 46.5244 67.0185C46.2829 66.8243 45.9752 66.7273 45.6011 66.7273C45.2271 66.7273 44.9193 66.8243 44.6778 67.0185C44.4363 67.2126 44.2576 67.4671 44.1416 67.782C44.0256 68.0968 43.9676 68.4366 43.9676 68.8011C43.9676 69.1657 44.0256 69.5043 44.1416 69.8168C44.2576 70.1293 44.4363 70.3814 44.6778 70.5732C44.9193 70.7649 45.2271 70.8608 45.6011 70.8608ZM49.352 71.5V66.0455H50.1617V66.8977H50.2327C50.3463 66.6065 50.5298 66.3804 50.7831 66.2195C51.0364 66.0561 51.3406 65.9744 51.6958 65.9744C52.0556 65.9744 52.3551 66.0561 52.5942 66.2195C52.8357 66.3804 53.0239 66.6065 53.1588 66.8977H53.2156C53.3553 66.616 53.5648 66.3923 53.8442 66.2266C54.1236 66.0585 54.4585 65.9744 54.8492 65.9744C55.3369 65.9744 55.7358 66.1271 56.0459 66.4325C56.356 66.7356 56.5111 67.2079 56.5111 67.8494V71.5H55.673V67.8494C55.673 67.447 55.5629 67.1593 55.3428 66.9865C55.1226 66.8137 54.8634 66.7273 54.5651 66.7273C54.1816 66.7273 53.8844 66.8433 53.6737 67.0753C53.463 67.3049 53.3577 67.5961 53.3577 67.9489V71.5H52.5054V67.7642C52.5054 67.4541 52.4048 67.2043 52.2036 67.0149C52.0023 66.8232 51.7431 66.7273 51.4259 66.7273C51.2081 66.7273 51.0045 66.7853 50.8151 66.9013C50.628 67.0173 50.4765 67.1783 50.3605 67.3842C50.2469 67.5878 50.1901 67.8234 50.1901 68.0909V71.5H49.352ZM60.3303 71.6136C59.8048 71.6136 59.3514 71.4976 58.9703 71.2656C58.5915 71.0312 58.2991 70.7045 58.0931 70.2855C57.8895 69.8641 57.7877 69.3741 57.7877 68.8153C57.7877 68.2566 57.8895 67.7642 58.0931 67.3381C58.2991 66.9096 58.5856 66.5758 58.9525 66.3366C59.3218 66.0952 59.7527 65.9744 60.2451 65.9744C60.5292 65.9744 60.8097 66.0218 61.0867 66.1165C61.3637 66.2112 61.6159 66.3651 61.8431 66.5781C62.0704 66.7888 62.2515 67.0682 62.3865 67.4162C62.5214 67.7642 62.5889 68.1927 62.5889 68.7017V69.0568H58.3843V68.3324H61.7366C61.7366 68.0246 61.675 67.75 61.5519 67.5085C61.4312 67.267 61.2584 67.0765 61.0335 66.9368C60.8109 66.7971 60.5481 66.7273 60.2451 66.7273C59.9113 66.7273 59.6225 66.8101 59.3786 66.9759C59.1372 67.1392 58.9513 67.3523 58.8211 67.6151C58.6909 67.8778 58.6258 68.1596 58.6258 68.4602V68.9432C58.6258 69.3551 58.6968 69.7043 58.8389 69.9908C58.9833 70.2749 59.1833 70.4915 59.439 70.6406C59.6947 70.7874 59.9918 70.8608 60.3303 70.8608C60.5505 70.8608 60.7494 70.83 60.9269 70.7685C61.1069 70.7045 61.2619 70.6098 61.3921 70.4844C61.5223 70.3565 61.623 70.1979 61.694 70.0085L62.5036 70.2358C62.4184 70.5104 62.2752 70.7519 62.074 70.9602C61.8727 71.1662 61.6241 71.3272 61.3282 71.4432C61.0323 71.5568 60.6997 71.6136 60.3303 71.6136Z" fill="#CFD1DE"/>
<path d="M226.94 71.5V64.2273H229.483C229.989 64.2273 230.407 64.3149 230.736 64.4901C231.065 64.6629 231.311 64.8961 231.472 65.1896C231.632 65.4808 231.713 65.804 231.713 66.1591C231.713 66.4716 231.657 66.7296 231.546 66.9332C231.437 67.1368 231.293 67.2978 231.113 67.4162C230.935 67.5346 230.742 67.6222 230.534 67.679V67.75C230.757 67.7642 230.98 67.8423 231.205 67.9844C231.43 68.1264 231.618 68.33 231.77 68.5952C231.921 68.8603 231.997 69.1847 231.997 69.5682C231.997 69.9328 231.914 70.2607 231.748 70.5518C231.583 70.843 231.321 71.0739 230.964 71.2443C230.606 71.4148 230.141 71.5 229.568 71.5H226.94ZM227.821 70.7188H229.568C230.143 70.7188 230.552 70.6075 230.793 70.3849C231.037 70.16 231.159 69.8878 231.159 69.5682C231.159 69.322 231.096 69.0947 230.971 68.8864C230.845 68.6757 230.667 68.5076 230.435 68.3821C230.203 68.2543 229.928 68.1903 229.611 68.1903H227.821V70.7188ZM227.821 67.4233H229.454C229.72 67.4233 229.959 67.3712 230.172 67.267C230.387 67.1629 230.558 67.0161 230.683 66.8267C230.811 66.6373 230.875 66.4148 230.875 66.1591C230.875 65.8395 230.764 65.5684 230.541 65.3459C230.319 65.121 229.966 65.0085 229.483 65.0085H227.821V67.4233ZM233.331 71.5V66.0455H234.169V71.5H233.331ZM233.757 65.1364C233.593 65.1364 233.452 65.0807 233.334 64.9695C233.218 64.8582 233.16 64.7244 233.16 64.5682C233.16 64.4119 233.218 64.2782 233.334 64.1669C233.452 64.0556 233.593 64 233.757 64C233.92 64 234.06 64.0556 234.176 64.1669C234.294 64.2782 234.353 64.4119 234.353 64.5682C234.353 64.7244 234.294 64.8582 234.176 64.9695C234.06 65.0807 233.92 65.1364 233.757 65.1364ZM236.542 64.2273V71.5H235.704V64.2273H236.542ZM238.915 64.2273V71.5H238.077V64.2273H238.915ZM242.737 71.6136C242.211 71.6136 241.758 71.4976 241.377 71.2656C240.998 71.0312 240.705 70.7045 240.499 70.2855C240.296 69.8641 240.194 69.3741 240.194 68.8153C240.194 68.2566 240.296 67.7642 240.499 67.3381C240.705 66.9096 240.992 66.5758 241.359 66.3366C241.728 66.0952 242.159 65.9744 242.651 65.9744C242.935 65.9744 243.216 66.0218 243.493 66.1165C243.77 66.2112 244.022 66.3651 244.249 66.5781C244.477 66.7888 244.658 67.0682 244.793 67.4162C244.928 67.7642 244.995 68.1927 244.995 68.7017V69.0568H240.791V68.3324H244.143C244.143 68.0246 244.081 67.75 243.958 67.5085C243.837 67.267 243.665 67.0765 243.44 66.9368C243.217 66.7971 242.954 66.7273 242.651 66.7273C242.318 66.7273 242.029 66.8101 241.785 66.9759C241.543 67.1392 241.358 67.3523 241.227 67.6151C241.097 67.8778 241.032 68.1596 241.032 68.4602V68.9432C241.032 69.3551 241.103 69.7043 241.245 69.9908C241.39 70.2749 241.59 70.4915 241.845 70.6406C242.101 70.7874 242.398 70.8608 242.737 70.8608C242.957 70.8608 243.156 70.83 243.333 70.7685C243.513 70.7045 243.668 70.6098 243.798 70.4844C243.929 70.3565 244.029 70.1979 244.1 70.0085L244.91 70.2358C244.825 70.5104 244.681 70.7519 244.48 70.9602C244.279 71.1662 244.03 71.3272 243.734 71.4432C243.439 71.5568 243.106 71.6136 242.737 71.6136ZM248.642 66.0455V66.7557H245.815V66.0455H248.642ZM246.639 64.7386H247.477V69.9375C247.477 70.1742 247.512 70.3518 247.58 70.4702C247.651 70.5862 247.741 70.6643 247.85 70.7045C247.961 70.7424 248.079 70.7614 248.202 70.7614C248.294 70.7614 248.37 70.7566 248.429 70.7472C248.488 70.7353 248.536 70.7259 248.571 70.7188L248.742 71.4716C248.685 71.4929 248.605 71.5142 248.504 71.5355C248.402 71.5592 248.273 71.571 248.117 71.571C247.88 71.571 247.648 71.5201 247.421 71.4183C247.196 71.3165 247.009 71.1615 246.859 70.9531C246.713 70.7448 246.639 70.482 246.639 70.1648V64.7386ZM252.131 71.6136C251.606 71.6136 251.152 71.4976 250.771 71.2656C250.392 71.0312 250.1 70.7045 249.894 70.2855C249.69 69.8641 249.589 69.3741 249.589 68.8153C249.589 68.2566 249.69 67.7642 249.894 67.3381C250.1 66.9096 250.386 66.5758 250.753 66.3366C251.123 66.0952 251.553 65.9744 252.046 65.9744C252.33 65.9744 252.611 66.0218 252.888 66.1165C253.165 66.2112 253.417 66.3651 253.644 66.5781C253.871 66.7888 254.052 67.0682 254.187 67.4162C254.322 67.7642 254.39 68.1927 254.39 68.7017V69.0568H250.185V68.3324H253.537C253.537 68.0246 253.476 67.75 253.353 67.5085C253.232 67.267 253.059 67.0765 252.834 66.9368C252.612 66.7971 252.349 66.7273 252.046 66.7273C251.712 66.7273 251.423 66.8101 251.179 66.9759C250.938 67.1392 250.752 67.3523 250.622 67.6151C250.492 67.8778 250.427 68.1596 250.427 68.4602V68.9432C250.427 69.3551 250.498 69.7043 250.64 69.9908C250.784 70.2749 250.984 70.4915 251.24 70.6406C251.495 70.7874 251.793 70.8608 252.131 70.8608C252.351 70.8608 252.55 70.83 252.728 70.7685C252.908 70.7045 253.063 70.6098 253.193 70.4844C253.323 70.3565 253.424 70.1979 253.495 70.0085L254.304 70.2358C254.219 70.5104 254.076 70.7519 253.875 70.9602C253.674 71.1662 253.425 71.3272 253.129 71.4432C252.833 71.5568 252.5 71.6136 252.131 71.6136ZM255.665 71.5V66.0455H256.474V66.8693H256.531C256.63 66.5994 256.81 66.3804 257.071 66.2124C257.331 66.0443 257.625 65.9602 257.951 65.9602C258.013 65.9602 258.09 65.9614 258.182 65.9638C258.275 65.9661 258.344 65.9697 258.392 65.9744V66.8267C258.363 66.8196 258.298 66.8089 258.196 66.7947C258.097 66.7782 257.992 66.7699 257.88 66.7699C257.615 66.7699 257.379 66.8255 257.17 66.9368C256.964 67.0457 256.801 67.1972 256.68 67.3913C256.562 67.5831 256.503 67.8021 256.503 68.0483V71.5H255.665ZM260.99 71.6278C260.645 71.6278 260.331 71.5627 260.049 71.4325C259.768 71.3 259.544 71.1094 259.378 70.8608C259.212 70.6098 259.13 70.3068 259.13 69.9517C259.13 69.6392 259.191 69.3859 259.314 69.1918C259.437 68.9953 259.602 68.8414 259.808 68.7301C260.014 68.6188 260.241 68.536 260.49 68.4815C260.741 68.4247 260.993 68.3797 261.246 68.3466C261.577 68.304 261.846 68.272 262.052 68.2507C262.26 68.227 262.412 68.188 262.507 68.1335C262.604 68.0791 262.652 67.9844 262.652 67.8494V67.821C262.652 67.4706 262.556 67.1984 262.365 67.0043C262.175 66.8101 261.888 66.7131 261.502 66.7131C261.102 66.7131 260.788 66.8007 260.561 66.9759C260.333 67.151 260.174 67.3381 260.081 67.5369L259.286 67.2528C259.428 66.9214 259.617 66.6634 259.854 66.4787C260.093 66.2917 260.353 66.1615 260.635 66.0881C260.919 66.0123 261.199 65.9744 261.473 65.9744C261.648 65.9744 261.85 65.9957 262.077 66.0384C262.307 66.0786 262.528 66.1626 262.741 66.2905C262.956 66.4183 263.135 66.6113 263.277 66.8693C263.419 67.1274 263.49 67.473 263.49 67.9062V71.5H262.652V70.7614H262.61C262.553 70.8797 262.458 71.0064 262.326 71.1413C262.193 71.2763 262.017 71.3911 261.796 71.4858C261.576 71.5805 261.308 71.6278 260.99 71.6278ZM261.118 70.875C261.45 70.875 261.729 70.8099 261.956 70.6797C262.186 70.5495 262.359 70.3814 262.475 70.1754C262.593 69.9695 262.652 69.7528 262.652 69.5256V68.7585C262.617 68.8011 262.539 68.8402 262.418 68.8757C262.3 68.9089 262.162 68.9384 262.006 68.9645C261.852 68.9882 261.702 69.0095 261.555 69.0284C261.411 69.045 261.293 69.0592 261.203 69.071C260.986 69.0994 260.782 69.1456 260.593 69.2095C260.406 69.2711 260.254 69.3646 260.138 69.4901C260.024 69.6132 259.968 69.7812 259.968 69.9943C259.968 70.2855 260.075 70.5057 260.291 70.6548C260.509 70.8016 260.784 70.875 261.118 70.875Z" fill="#CFD1DE"/>
<path d="M254.252 37.5449L237.094 37.5449C235.421 37.5449 234.064 38.9015 234.064 40.5749V54.741C234.064 56.4144 235.421 57.771 237.094 57.771H253.218C254.891 57.771 256.248 56.4144 256.248 54.741V44.5256C256.248 42.8522 254.891 41.4956 253.218 41.4956H236.568C235.453 41.4956 234.549 40.5913 234.549 39.4759V39.4759" stroke="#CFD1DE" stroke-width="2.02" stroke-linecap="round" stroke-linejoin="round"/>
<rect width="70" height="2" transform="matrix(1 0 0 -1 308.156 21.5)" fill="#55B3FF"/>
</g>
<defs>
<filter id="filter0_d_1733_30985" x="-12.9795" y="0.5" width="416" height="101" filterUnits="userSpaceOnUse" color-interpolation-filters="sRGB">
<feFlood flood-opacity="0" result="BackgroundImageFix"/>
<feColorMatrix in="SourceAlpha" type="matrix" values="0 0 0 0 0 0 0 0 0 0 0 0 0 0 0 0 0 0 127 0" result="hardAlpha"/>
<feOffset dy="-6"/>
<feGaussianBlur stdDeviation="6.5"/>
<feComposite in2="hardAlpha" operator="out"/>
<feColorMatrix type="matrix" values="0 0 0 0 0 0 0 0 0 0 0 0 0 0 0 0 0 0 0.04 0"/>
<feBlend mode="normal" in2="BackgroundImageFix" result="effect1_dropShadow_1733_30985"/>
<feBlend mode="normal" in="SourceGraphic" in2="effect1_dropShadow_1733_30985" result="shape"/>
</filter>
</defs>
</svg>
