<svg width="391" height="95" viewBox="0 0 391 95" fill="none" xmlns="http://www.w3.org/2000/svg">
<g filter="url(#filter0_d_1464_18167)">
<rect x="0.107422" y="19.0957" width="390" height="75" fill="white"/>
<g opacity="0.5">
<path d="M28.9941 43.0708C28.9941 42.1172 29.4475 41.2205 30.2153 40.6551L39.1072 34.1074L47.999 40.6551C48.7669 41.2205 49.2202 42.1172 49.2202 43.0708V53.8561C49.2202 55.2368 48.1009 56.3561 46.7202 56.3561H43.1411C42.5888 56.3561 42.1411 55.9084 42.1411 55.3561V49.2713C42.1411 48.9952 41.9172 48.7713 41.6411 48.7713H36.5733C36.2971 48.7713 36.0733 48.9952 36.0733 49.2713V55.3561C36.0733 55.9084 35.6255 56.3561 35.0733 56.3561H31.4941C30.1134 56.3561 28.9941 55.2368 28.9941 53.8561V43.0708Z" stroke="#A0A3BD" stroke-width="2.02261" stroke-linecap="round" stroke-linejoin="round"/>
</g>
<g opacity="0.5">
<path d="M342.006 54.8378L342.177 53.7377C342.386 52.3968 343.26 51.2483 344.557 50.8468C346.166 50.3482 348.558 49.7812 351.108 49.7812C353.658 49.7812 356.049 50.3482 357.659 50.8468C358.955 51.2483 359.83 52.3968 360.038 53.7377L360.209 54.8378" stroke="#CFD1DE" stroke-width="2.02261" stroke-linecap="round" stroke-linejoin="round"/>
<path d="M351.107 45.2322C353.9 45.2322 356.164 42.9683 356.164 40.1757C356.164 37.383 353.9 35.1191 351.107 35.1191C348.315 35.1191 346.051 37.383 346.051 40.1757C346.051 42.9683 348.315 45.2322 351.107 45.2322Z" stroke="#CFD1DE" stroke-width="2.02261" stroke-linecap="round" stroke-linejoin="round"/>
</g>
<path d="M138.051 36.1289H137.04C135.364 36.1289 134.006 37.4872 134.006 39.1628V53.3211C134.006 54.9966 135.364 56.355 137.04 56.355H149.175C150.851 56.355 152.209 54.9966 152.209 53.3211V39.1628C152.209 37.4872 150.851 36.1289 149.175 36.1289H148.164" stroke="#CFD1DE" stroke-width="2.02261"/>
<rect x="138.051" y="34.1074" width="10.113" height="5.05651" rx="2.02261" stroke="#CFD1DE" stroke-width="2.02261"/>
<path d="M26.0477 71.0957V63.823H26.9284V67.0616H30.8062V63.823H31.6869V71.0957H30.8062V67.8429H26.9284V71.0957H26.0477ZM35.5523 71.2093C35.0599 71.2093 34.6278 71.0922 34.2561 70.8578C33.8868 70.6234 33.598 70.2955 33.3896 69.8741C33.1837 69.4527 33.0807 68.9603 33.0807 68.3968C33.0807 67.8287 33.1837 67.3327 33.3896 66.9089C33.598 66.4851 33.8868 66.1561 34.2561 65.9217C34.6278 65.6873 35.0599 65.5701 35.5523 65.5701C36.0447 65.5701 36.4756 65.6873 36.8449 65.9217C37.2166 66.1561 37.5054 66.4851 37.7114 66.9089C37.9197 67.3327 38.0239 67.8287 38.0239 68.3968C38.0239 68.9603 37.9197 69.4527 37.7114 69.8741C37.5054 70.2955 37.2166 70.6234 36.8449 70.8578C36.4756 71.0922 36.0447 71.2093 35.5523 71.2093ZM35.5523 70.4565C35.9263 70.4565 36.2341 70.3606 36.4756 70.1689C36.7171 69.9771 36.8958 69.725 37.0118 69.4125C37.1278 69.1 37.1858 68.7614 37.1858 68.3968C37.1858 68.0323 37.1278 67.6925 37.0118 67.3777C36.8958 67.0628 36.7171 66.8083 36.4756 66.6142C36.2341 66.42 35.9263 66.323 35.5523 66.323C35.1782 66.323 34.8705 66.42 34.629 66.6142C34.3875 66.8083 34.2088 67.0628 34.0928 67.3777C33.9768 67.6925 33.9188 68.0323 33.9188 68.3968C33.9188 68.7614 33.9768 69.1 34.0928 69.4125C34.2088 69.725 34.3875 69.9771 34.629 70.1689C34.8705 70.3606 35.1782 70.4565 35.5523 70.4565ZM39.3032 71.0957V65.6412H40.1128V66.4934H40.1839C40.2975 66.2022 40.481 65.9761 40.7343 65.8152C40.9876 65.6518 41.2918 65.5701 41.6469 65.5701C42.0068 65.5701 42.3063 65.6518 42.5454 65.8152C42.7868 65.9761 42.9751 66.2022 43.11 66.4934H43.1668C43.3065 66.2117 43.516 65.988 43.7954 65.8223C44.0747 65.6542 44.4097 65.5701 44.8003 65.5701C45.288 65.5701 45.6869 65.7228 45.9971 66.0282C46.3072 66.3313 46.4623 66.8036 46.4623 67.4451V71.0957H45.6242V67.4451C45.6242 67.0427 45.5141 66.755 45.2939 66.5822C45.0738 66.4094 44.8145 66.323 44.5162 66.323C44.1327 66.323 43.8356 66.439 43.6249 66.671C43.4142 66.9006 43.3089 67.1918 43.3089 67.5446V71.0957H42.4566V67.3599C42.4566 67.0498 42.356 66.8 42.1547 66.6106C41.9535 66.4189 41.6943 66.323 41.377 66.323C41.1592 66.323 40.9556 66.381 40.7662 66.497C40.5792 66.613 40.4277 66.774 40.3117 66.9799C40.1981 67.1835 40.1412 67.4191 40.1412 67.6866V71.0957H39.3032ZM50.2815 71.2093C49.7559 71.2093 49.3026 71.0933 48.9214 70.8613C48.5426 70.627 48.2503 70.3002 48.0443 69.8812C47.8407 69.4598 47.7389 68.9698 47.7389 68.411C47.7389 67.8523 47.8407 67.3599 48.0443 66.9338C48.2503 66.5053 48.5367 66.1715 48.9037 65.9324C49.273 65.6909 49.7039 65.5701 50.1963 65.5701C50.4804 65.5701 50.7609 65.6175 51.0379 65.7122C51.3149 65.8069 51.567 65.9608 51.7943 66.1738C52.0216 66.3845 52.2027 66.6639 52.3376 67.0119C52.4726 67.3599 52.54 67.7884 52.54 68.2974V68.6525H48.3355V67.9281H51.6878C51.6878 67.6203 51.6262 67.3457 51.5031 67.1042C51.3824 66.8627 51.2095 66.6722 50.9846 66.5325C50.7621 66.3928 50.4993 66.323 50.1963 66.323C49.8625 66.323 49.5737 66.4058 49.3298 66.5716C49.0883 66.7349 48.9025 66.948 48.7723 67.2108C48.6421 67.4735 48.577 67.7553 48.577 68.0559V68.5389C48.577 68.9508 48.648 69.3 48.79 69.5865C48.9345 69.8706 49.1345 70.0872 49.3902 70.2363C49.6459 70.3831 49.943 70.4565 50.2815 70.4565C50.5017 70.4565 50.7006 70.4257 50.8781 70.3642C51.058 70.3002 51.2131 70.2056 51.3433 70.0801C51.4735 69.9522 51.5741 69.7936 51.6452 69.6042L52.4548 69.8315C52.3696 70.1061 52.2264 70.3476 52.0251 70.5559C51.8239 70.7619 51.5753 70.9229 51.2794 71.0389C50.9835 71.1525 50.6508 71.2093 50.2815 71.2093Z" fill="#A0A3BD"/>
<path d="M120.38 71.0957V63.823H122.837C123.408 63.823 123.874 63.926 124.236 64.1319C124.601 64.3355 124.871 64.6113 125.046 64.9593C125.221 65.3074 125.309 65.6956 125.309 66.1241C125.309 66.5526 125.221 66.9421 125.046 67.2924C124.873 67.6428 124.606 67.9222 124.243 68.1305C123.881 68.3365 123.417 68.4395 122.851 68.4395H121.09V67.6582H122.823C123.214 67.6582 123.527 67.5907 123.764 67.4558C124.001 67.3208 124.172 67.1386 124.279 66.9089C124.388 66.6769 124.442 66.4153 124.442 66.1241C124.442 65.8329 124.388 65.5725 124.279 65.3429C124.172 65.1132 123.999 64.9333 123.76 64.8031C123.521 64.6705 123.204 64.6042 122.809 64.6042H121.26V71.0957H120.38ZM126.614 71.0957V65.6412H127.423V66.465H127.48C127.58 66.1951 127.76 65.9761 128.02 65.8081C128.28 65.64 128.574 65.5559 128.901 65.5559C128.962 65.5559 129.039 65.5571 129.131 65.5595C129.224 65.5618 129.294 65.5654 129.341 65.5701V66.4224C129.313 66.4153 129.247 66.4047 129.146 66.3904C129.046 66.3739 128.941 66.3656 128.83 66.3656C128.564 66.3656 128.328 66.4212 128.119 66.5325C127.913 66.6414 127.75 66.7929 127.629 66.987C127.511 67.1788 127.452 67.3978 127.452 67.644V71.0957H126.614ZM132.384 71.2093C131.892 71.2093 131.46 71.0922 131.088 70.8578C130.719 70.6234 130.43 70.2955 130.222 69.8741C130.016 69.4527 129.913 68.9603 129.913 68.3968C129.913 67.8287 130.016 67.3327 130.222 66.9089C130.43 66.4851 130.719 66.1561 131.088 65.9217C131.46 65.6873 131.892 65.5701 132.384 65.5701C132.877 65.5701 133.308 65.6873 133.677 65.9217C134.049 66.1561 134.337 66.4851 134.543 66.9089C134.752 67.3327 134.856 67.8287 134.856 68.3968C134.856 68.9603 134.752 69.4527 134.543 69.8741C134.337 70.2955 134.049 70.6234 133.677 70.8578C133.308 71.0922 132.877 71.2093 132.384 71.2093ZM132.384 70.4565C132.758 70.4565 133.066 70.3606 133.308 70.1689C133.549 69.9771 133.728 69.725 133.844 69.4125C133.96 69.1 134.018 68.7614 134.018 68.3968C134.018 68.0323 133.96 67.6925 133.844 67.3777C133.728 67.0628 133.549 66.8083 133.308 66.6142C133.066 66.42 132.758 66.323 132.384 66.323C132.01 66.323 131.703 66.42 131.461 66.6142C131.22 66.8083 131.041 67.0628 130.925 67.3777C130.809 67.6925 130.751 68.0323 130.751 68.3968C130.751 68.7614 130.809 69.1 130.925 69.4125C131.041 69.725 131.22 69.9771 131.461 70.1689C131.703 70.3606 132.01 70.4565 132.384 70.4565ZM136.48 73.1412C136.338 73.1412 136.211 73.1293 136.1 73.1056C135.988 73.0843 135.911 73.063 135.869 73.0417L136.082 72.3031C136.286 72.3552 136.465 72.3741 136.622 72.3599C136.778 72.3457 136.916 72.2759 137.037 72.1504C137.16 72.0273 137.273 71.8272 137.375 71.5502L137.531 71.1241L135.514 65.6412H136.423L137.929 69.9877H137.985L139.491 65.6412H140.4L138.085 71.8912C137.981 72.1729 137.852 72.4061 137.698 72.5907C137.544 72.7778 137.365 72.9163 137.161 73.0062C136.96 73.0962 136.733 73.1412 136.48 73.1412ZM143.598 71.2093C143.072 71.2093 142.619 71.0933 142.238 70.8613C141.859 70.627 141.567 70.3002 141.361 69.8812C141.157 69.4598 141.055 68.9698 141.055 68.411C141.055 67.8523 141.157 67.3599 141.361 66.9338C141.567 66.5053 141.853 66.1715 142.22 65.9324C142.589 65.6909 143.02 65.5701 143.513 65.5701C143.797 65.5701 144.077 65.6175 144.354 65.7122C144.631 65.8069 144.883 65.9608 145.111 66.1738C145.338 66.3845 145.519 66.6639 145.654 67.0119C145.789 67.3599 145.856 67.7884 145.856 68.2974V68.6525H141.652V67.9281H145.004C145.004 67.6203 144.943 67.3457 144.82 67.1042C144.699 66.8627 144.526 66.6722 144.301 66.5325C144.079 66.3928 143.816 66.323 143.513 66.323C143.179 66.323 142.89 66.4058 142.646 66.5716C142.405 66.7349 142.219 66.948 142.089 67.2108C141.958 67.4735 141.893 67.7553 141.893 68.0559V68.5389C141.893 68.9508 141.964 69.3 142.106 69.5865C142.251 69.8706 142.451 70.0872 142.707 70.2363C142.962 70.3831 143.259 70.4565 143.598 70.4565C143.818 70.4565 144.017 70.4257 144.195 70.3642C144.374 70.3002 144.53 70.2056 144.66 70.0801C144.79 69.9522 144.891 69.7936 144.962 69.6042L145.771 69.8315C145.686 70.1061 145.543 70.3476 145.342 70.5559C145.14 70.7619 144.892 70.9229 144.596 71.0389C144.3 71.1525 143.967 71.2093 143.598 71.2093ZM149.347 71.2093C148.836 71.2093 148.396 71.0886 148.026 70.8471C147.657 70.6056 147.373 70.273 147.174 69.8493C146.975 69.4255 146.876 68.9413 146.876 68.3968C146.876 67.8429 146.977 67.354 147.181 66.9302C147.387 66.5041 147.673 66.1715 148.04 65.9324C148.41 65.6909 148.841 65.5701 149.333 65.5701C149.717 65.5701 150.062 65.6412 150.37 65.7832C150.678 65.9252 150.93 66.1241 151.126 66.3798C151.323 66.6355 151.445 66.9338 151.492 67.2747H150.654C150.59 67.0261 150.448 66.8059 150.228 66.6142C150.01 66.42 149.717 66.323 149.347 66.323C149.021 66.323 148.734 66.4082 148.488 66.5787C148.244 66.7467 148.053 66.9847 147.916 67.2924C147.781 67.5978 147.714 67.9565 147.714 68.3684C147.714 68.7898 147.78 69.1568 147.913 69.4693C148.047 69.7818 148.237 70.0244 148.481 70.1973C148.727 70.3701 149.016 70.4565 149.347 70.4565C149.565 70.4565 149.763 70.4186 149.94 70.3429C150.118 70.2671 150.268 70.1582 150.391 70.0162C150.514 69.8741 150.602 69.7037 150.654 69.5048H151.492C151.445 69.8268 151.328 70.1168 151.141 70.3748C150.956 70.6305 150.711 70.8341 150.405 70.9856C150.102 71.1348 149.75 71.2093 149.347 71.2093ZM155.089 65.6412V66.3514H152.263V65.6412H155.089ZM153.087 64.3343H153.925V69.5332C153.925 69.7699 153.959 69.9475 154.028 70.0659C154.099 70.1819 154.189 70.26 154.297 70.3002C154.409 70.3381 154.526 70.3571 154.649 70.3571C154.741 70.3571 154.817 70.3523 154.876 70.3429C154.936 70.331 154.983 70.3216 155.018 70.3145L155.189 71.0673C155.132 71.0886 155.053 71.1099 154.951 71.1312C154.849 71.1549 154.72 71.1667 154.564 71.1667C154.327 71.1667 154.095 71.1158 153.868 71.014C153.643 70.9122 153.456 70.7572 153.307 70.5488C153.16 70.3405 153.087 70.0777 153.087 69.7605V64.3343ZM158.507 71.2093C158.015 71.2093 157.583 71.0922 157.211 70.8578C156.842 70.6234 156.553 70.2955 156.345 69.8741C156.139 69.4527 156.036 68.9603 156.036 68.3968C156.036 67.8287 156.139 67.3327 156.345 66.9089C156.553 66.4851 156.842 66.1561 157.211 65.9217C157.583 65.6873 158.015 65.5701 158.507 65.5701C159 65.5701 159.431 65.6873 159.8 65.9217C160.172 66.1561 160.46 66.4851 160.666 66.9089C160.875 67.3327 160.979 67.8287 160.979 68.3968C160.979 68.9603 160.875 69.4527 160.666 69.8741C160.46 70.2955 160.172 70.6234 159.8 70.8578C159.431 71.0922 159 71.2093 158.507 71.2093ZM158.507 70.4565C158.881 70.4565 159.189 70.3606 159.431 70.1689C159.672 69.9771 159.851 69.725 159.967 69.4125C160.083 69.1 160.141 68.7614 160.141 68.3968C160.141 68.0323 160.083 67.6925 159.967 67.3777C159.851 67.0628 159.672 66.8083 159.431 66.6142C159.189 66.42 158.881 66.323 158.507 66.323C158.133 66.323 157.826 66.42 157.584 66.6142C157.343 66.8083 157.164 67.0628 157.048 67.3777C156.932 67.6925 156.874 68.0323 156.874 68.3968C156.874 68.7614 156.932 69.1 157.048 69.4125C157.164 69.725 157.343 69.9771 157.584 70.1689C157.826 70.3606 158.133 70.4565 158.507 70.4565ZM166.122 66.8627L165.369 67.0758C165.322 66.9503 165.252 66.8284 165.16 66.71C165.07 66.5893 164.946 66.4899 164.79 66.4118C164.634 66.3336 164.434 66.2946 164.19 66.2946C163.856 66.2946 163.578 66.3715 163.356 66.5254C163.135 66.6769 163.025 66.8699 163.025 67.1042C163.025 67.3126 163.101 67.4771 163.253 67.5978C163.404 67.7186 163.641 67.8192 163.963 67.8997L164.772 68.0985C165.26 68.2169 165.624 68.398 165.863 68.6419C166.102 68.8833 166.221 69.1947 166.221 69.5758C166.221 69.8883 166.131 70.1677 165.951 70.4139C165.774 70.6601 165.525 70.8542 165.206 70.9963C164.886 71.1383 164.514 71.2093 164.091 71.2093C163.534 71.2093 163.074 71.0886 162.709 70.8471C162.345 70.6056 162.114 70.2529 162.017 69.7889L162.812 69.59C162.888 69.8836 163.031 70.1038 163.242 70.2505C163.455 70.3973 163.733 70.4707 164.076 70.4707C164.467 70.4707 164.777 70.3878 165.007 70.2221C165.239 70.054 165.355 69.8528 165.355 69.6184C165.355 69.429 165.289 69.2704 165.156 69.1426C165.023 69.0124 164.82 68.9153 164.545 68.8514L163.636 68.6383C163.137 68.5199 162.77 68.3365 162.535 68.0879C162.303 67.8369 162.187 67.5233 162.187 67.1468C162.187 66.8391 162.274 66.5668 162.446 66.3301C162.622 66.0933 162.86 65.9075 163.16 65.7725C163.463 65.6376 163.807 65.5701 164.19 65.5701C164.73 65.5701 165.154 65.6885 165.461 65.9252C165.772 66.162 165.992 66.4745 166.122 66.8627Z" fill="#A0A3BD"/>
<path d="M228.891 71.0957V63.823H231.434C231.941 63.823 232.359 63.9106 232.688 64.0858C233.017 64.2586 233.262 64.4918 233.423 64.7853C233.584 65.0765 233.664 65.3997 233.664 65.7548C233.664 66.0673 233.609 66.3253 233.497 66.5289C233.388 66.7325 233.244 66.8935 233.064 67.0119C232.886 67.1303 232.694 67.2179 232.485 67.2747V67.3457C232.708 67.3599 232.931 67.438 233.156 67.5801C233.381 67.7221 233.569 67.9257 233.721 68.1909C233.872 68.456 233.948 68.7804 233.948 69.1639C233.948 69.5285 233.865 69.8564 233.7 70.1475C233.534 70.4387 233.272 70.6696 232.915 70.84C232.557 71.0105 232.092 71.0957 231.519 71.0957H228.891ZM229.772 70.3145H231.519C232.095 70.3145 232.503 70.2032 232.744 69.9806C232.988 69.7557 233.11 69.4835 233.11 69.1639C233.11 68.9177 233.047 68.6904 232.922 68.4821C232.796 68.2714 232.618 68.1033 232.386 67.9778C232.154 67.85 231.879 67.786 231.562 67.786H229.772V70.3145ZM229.772 67.019H231.406C231.671 67.019 231.91 66.9669 232.123 66.8627C232.338 66.7586 232.509 66.6118 232.634 66.4224C232.762 66.233 232.826 66.0105 232.826 65.7548C232.826 65.4352 232.715 65.1641 232.492 64.9416C232.27 64.7167 231.917 64.6042 231.434 64.6042H229.772V67.019ZM235.282 71.0957V65.6412H236.12V71.0957H235.282ZM235.708 64.7321C235.544 64.7321 235.404 64.6764 235.285 64.5652C235.169 64.4539 235.111 64.3201 235.111 64.1639C235.111 64.0076 235.169 63.8739 235.285 63.7626C235.404 63.6513 235.544 63.5957 235.708 63.5957C235.871 63.5957 236.011 63.6513 236.127 63.7626C236.245 63.8739 236.304 64.0076 236.304 64.1639C236.304 64.3201 236.245 64.4539 236.127 64.5652C236.011 64.6764 235.871 64.7321 235.708 64.7321ZM238.493 63.823V71.0957H237.655V63.823H238.493ZM240.866 63.823V71.0957H240.028V63.823H240.866ZM244.688 71.2093C244.162 71.2093 243.709 71.0933 243.328 70.8613C242.949 70.627 242.657 70.3002 242.451 69.8812C242.247 69.4598 242.145 68.9698 242.145 68.411C242.145 67.8523 242.247 67.3599 242.451 66.9338C242.657 66.5053 242.943 66.1715 243.31 65.9324C243.679 65.6909 244.11 65.5701 244.603 65.5701C244.887 65.5701 245.167 65.6175 245.444 65.7122C245.721 65.8069 245.973 65.9608 246.201 66.1738C246.428 66.3845 246.609 66.6639 246.744 67.0119C246.879 67.3599 246.946 67.7884 246.946 68.2974V68.6525H242.742V67.9281H246.094C246.094 67.6203 246.032 67.3457 245.909 67.1042C245.789 66.8627 245.616 66.6722 245.391 66.5325C245.168 66.3928 244.906 66.323 244.603 66.323C244.269 66.323 243.98 66.4058 243.736 66.5716C243.495 66.7349 243.309 66.948 243.179 67.2108C243.048 67.4735 242.983 67.7553 242.983 68.0559V68.5389C242.983 68.9508 243.054 69.3 243.196 69.5865C243.341 69.8706 243.541 70.0872 243.796 70.2363C244.052 70.3831 244.349 70.4565 244.688 70.4565C244.908 70.4565 245.107 70.4257 245.284 70.3642C245.464 70.3002 245.619 70.2056 245.75 70.0801C245.88 69.9522 245.98 69.7936 246.051 69.6042L246.861 69.8315C246.776 70.1061 246.633 70.3476 246.431 70.5559C246.23 70.7619 245.982 70.9229 245.686 71.0389C245.39 71.1525 245.057 71.2093 244.688 71.2093ZM250.593 65.6412V66.3514H247.767V65.6412H250.593ZM248.59 64.3343H249.429V69.5332C249.429 69.7699 249.463 69.9475 249.532 70.0659C249.603 70.1819 249.693 70.26 249.801 70.3002C249.913 70.3381 250.03 70.3571 250.153 70.3571C250.245 70.3571 250.321 70.3523 250.38 70.3429C250.439 70.331 250.487 70.3216 250.522 70.3145L250.693 71.0673C250.636 71.0886 250.557 71.1099 250.455 71.1312C250.353 71.1549 250.224 71.1667 250.068 71.1667C249.831 71.1667 249.599 71.1158 249.372 71.014C249.147 70.9122 248.96 70.7572 248.811 70.5488C248.664 70.3405 248.59 70.0777 248.59 69.7605V64.3343ZM254.082 71.2093C253.557 71.2093 253.103 71.0933 252.722 70.8613C252.343 70.627 252.051 70.3002 251.845 69.8812C251.641 69.4598 251.54 68.9698 251.54 68.411C251.54 67.8523 251.641 67.3599 251.845 66.9338C252.051 66.5053 252.338 66.1715 252.704 65.9324C253.074 65.6909 253.505 65.5701 253.997 65.5701C254.281 65.5701 254.562 65.6175 254.839 65.7122C255.116 65.8069 255.368 65.9608 255.595 66.1738C255.822 66.3845 256.003 66.6639 256.138 67.0119C256.273 67.3599 256.341 67.7884 256.341 68.2974V68.6525H252.136V67.9281H255.489C255.489 67.6203 255.427 67.3457 255.304 67.1042C255.183 66.8627 255.01 66.6722 254.785 66.5325C254.563 66.3928 254.3 66.323 253.997 66.323C253.663 66.323 253.374 66.4058 253.131 66.5716C252.889 66.7349 252.703 66.948 252.573 67.2108C252.443 67.4735 252.378 67.7553 252.378 68.0559V68.5389C252.378 68.9508 252.449 69.3 252.591 69.5865C252.735 69.8706 252.935 70.0872 253.191 70.2363C253.447 70.3831 253.744 70.4565 254.082 70.4565C254.302 70.4565 254.501 70.4257 254.679 70.3642C254.859 70.3002 255.014 70.2056 255.144 70.0801C255.274 69.9522 255.375 69.7936 255.446 69.6042L256.256 69.8315C256.17 70.1061 256.027 70.3476 255.826 70.5559C255.625 70.7619 255.376 70.9229 255.08 71.0389C254.784 71.1525 254.452 71.2093 254.082 71.2093ZM257.616 71.0957V65.6412H258.425V66.465H258.482C258.582 66.1951 258.762 65.9761 259.022 65.8081C259.282 65.64 259.576 65.5559 259.903 65.5559C259.964 65.5559 260.041 65.5571 260.133 65.5595C260.226 65.5618 260.296 65.5654 260.343 65.5701V66.4224C260.315 66.4153 260.249 66.4047 260.148 66.3904C260.048 66.3739 259.943 66.3656 259.832 66.3656C259.566 66.3656 259.33 66.4212 259.121 66.5325C258.915 66.6414 258.752 66.7929 258.631 66.987C258.513 67.1788 258.454 67.3978 258.454 67.644V71.0957H257.616ZM262.941 71.2235C262.596 71.2235 262.282 71.1584 262 71.0282C261.719 70.8957 261.495 70.7051 261.329 70.4565C261.164 70.2056 261.081 69.9025 261.081 69.5474C261.081 69.2349 261.142 68.9816 261.265 68.7875C261.388 68.591 261.553 68.4371 261.759 68.3258C261.965 68.2145 262.192 68.1317 262.441 68.0772C262.692 68.0204 262.944 67.9754 263.197 67.9423C263.529 67.8997 263.797 67.8677 264.003 67.8464C264.212 67.8227 264.363 67.7837 264.458 67.7292C264.555 67.6748 264.603 67.5801 264.603 67.4451V67.4167C264.603 67.0663 264.508 66.7941 264.316 66.6C264.126 66.4058 263.839 66.3088 263.453 66.3088C263.053 66.3088 262.739 66.3964 262.512 66.5716C262.285 66.7467 262.125 66.9338 262.032 67.1326L261.237 66.8485C261.379 66.5171 261.568 66.2591 261.805 66.0744C262.044 65.8874 262.305 65.7572 262.586 65.6838C262.87 65.608 263.15 65.5701 263.424 65.5701C263.6 65.5701 263.801 65.5914 264.028 65.6341C264.258 65.6743 264.479 65.7583 264.692 65.8862C264.908 66.014 265.086 66.207 265.228 66.465C265.37 66.7231 265.441 67.0687 265.441 67.502V71.0957H264.603V70.3571H264.561C264.504 70.4754 264.409 70.6021 264.277 70.737C264.144 70.872 263.968 70.9868 263.748 71.0815C263.527 71.1762 263.259 71.2235 262.941 71.2235ZM263.069 70.4707C263.401 70.4707 263.68 70.4056 263.907 70.2754C264.137 70.1452 264.31 69.9771 264.426 69.7711C264.544 69.5652 264.603 69.3485 264.603 69.1213V68.3542C264.568 68.3968 264.49 68.4359 264.369 68.4714C264.251 68.5046 264.113 68.5341 263.957 68.5602C263.803 68.5839 263.653 68.6052 263.506 68.6241C263.362 68.6407 263.245 68.6549 263.155 68.6667C262.937 68.6951 262.733 68.7413 262.544 68.8052C262.357 68.8668 262.205 68.9603 262.089 69.0858C261.976 69.2089 261.919 69.377 261.919 69.59C261.919 69.8812 262.026 70.1014 262.242 70.2505C262.46 70.3973 262.736 70.4707 263.069 70.4707Z" fill="#389BEC"/>
<path d="M339.727 71.0957V63.823H342.185C342.755 63.823 343.222 63.926 343.584 64.1319C343.948 64.3355 344.218 64.6113 344.394 64.9593C344.569 65.3074 344.656 65.6956 344.656 66.1241C344.656 66.5526 344.569 66.9421 344.394 67.2924C344.221 67.6428 343.953 67.9222 343.591 68.1305C343.229 68.3365 342.765 68.4395 342.199 68.4395H340.438V67.6582H342.171C342.561 67.6582 342.875 67.5907 343.112 67.4558C343.348 67.3208 343.52 67.1386 343.627 66.9089C343.735 66.6769 343.79 66.4153 343.79 66.1241C343.79 65.8329 343.735 65.5725 343.627 65.3429C343.52 65.1132 343.347 64.9333 343.108 64.8031C342.869 64.6705 342.552 64.6042 342.156 64.6042H340.608V71.0957H339.727ZM348.19 71.2093C347.664 71.2093 347.211 71.0933 346.83 70.8613C346.451 70.627 346.158 70.3002 345.953 69.8812C345.749 69.4598 345.647 68.9698 345.647 68.411C345.647 67.8523 345.749 67.3599 345.953 66.9338C346.158 66.5053 346.445 66.1715 346.812 65.9324C347.181 65.6909 347.612 65.5701 348.104 65.5701C348.389 65.5701 348.669 65.6175 348.946 65.7122C349.223 65.8069 349.475 65.9608 349.703 66.1738C349.93 66.3845 350.111 66.6639 350.246 67.0119C350.381 67.3599 350.448 67.7884 350.448 68.2974V68.6525H346.244V67.9281H349.596C349.596 67.6203 349.534 67.3457 349.411 67.1042C349.291 66.8627 349.118 66.6722 348.893 66.5325C348.67 66.3928 348.408 66.323 348.104 66.323C347.771 66.323 347.482 66.4058 347.238 66.5716C346.997 66.7349 346.811 66.948 346.68 67.2108C346.55 67.4735 346.485 67.7553 346.485 68.0559V68.5389C346.485 68.9508 346.556 69.3 346.698 69.5865C346.843 69.8706 347.043 70.0872 347.298 70.2363C347.554 70.3831 347.851 70.4565 348.19 70.4565C348.41 70.4565 348.609 70.4257 348.786 70.3642C348.966 70.3002 349.121 70.2056 349.252 70.0801C349.382 69.9522 349.482 69.7936 349.553 69.6042L350.363 69.8315C350.278 70.1061 350.135 70.3476 349.933 70.5559C349.732 70.7619 349.484 70.9229 349.188 71.0389C348.892 71.1525 348.559 71.2093 348.19 71.2093ZM351.723 71.0957V65.6412H352.533V66.465H352.59C352.689 66.1951 352.869 65.9761 353.129 65.8081C353.39 65.64 353.683 65.5559 354.01 65.5559C354.072 65.5559 354.149 65.5571 354.241 65.5595C354.333 65.5618 354.403 65.5654 354.45 65.5701V66.4224C354.422 66.4153 354.357 66.4047 354.255 66.3904C354.156 66.3739 354.05 66.3656 353.939 66.3656C353.674 66.3656 353.437 66.4212 353.229 66.5325C353.023 66.6414 352.859 66.7929 352.739 66.987C352.62 67.1788 352.561 67.3978 352.561 67.644V71.0957H351.723ZM358.215 65.6412V66.3514H355.274V65.6412H358.215ZM356.155 71.0957V64.8883C356.155 64.5758 356.228 64.3154 356.375 64.1071C356.522 63.8987 356.712 63.7425 356.947 63.6383C357.181 63.5341 357.429 63.4821 357.689 63.4821C357.895 63.4821 358.063 63.4986 358.193 63.5318C358.323 63.5649 358.421 63.5957 358.484 63.6241L358.243 64.3485C358.2 64.3343 358.141 64.3166 358.065 64.2953C357.992 64.274 357.895 64.2633 357.774 64.2633C357.497 64.2633 357.297 64.3332 357.174 64.4728C357.053 64.6125 356.993 64.8173 356.993 65.0872V71.0957H356.155ZM359.389 71.0957V65.6412H360.227V71.0957H359.389ZM359.815 64.7321C359.652 64.7321 359.511 64.6764 359.393 64.5652C359.277 64.4539 359.219 64.3201 359.219 64.1639C359.219 64.0076 359.277 63.8739 359.393 63.7626C359.511 63.6513 359.652 63.5957 359.815 63.5957C359.979 63.5957 360.118 63.6513 360.234 63.7626C360.353 63.8739 360.412 64.0076 360.412 64.1639C360.412 64.3201 360.353 64.4539 360.234 64.5652C360.118 64.6764 359.979 64.7321 359.815 64.7321ZM362.6 63.823V71.0957H361.762V63.823H362.6Z" fill="#A0A3BD"/>
<path d="M256.203 37.1406L239.046 37.1406C237.372 37.1406 236.016 38.4972 236.016 40.1706V54.3367C236.016 56.0101 237.372 57.3667 239.046 57.3667H255.169C256.842 57.3667 258.199 56.0101 258.199 54.3367V44.1213C258.199 42.4479 256.842 41.0913 255.169 41.0913H238.52C237.404 41.0913 236.5 40.1871 236.5 39.0716V39.0716" stroke="#9BCDF5" stroke-width="2.02" stroke-linecap="round" stroke-linejoin="round"/>
<rect width="70" height="2" transform="matrix(1 0 0 -1 212.107 21.0957)" fill="#55B3FF"/>
</g>
<defs>
<filter id="filter0_d_1464_18167" x="-12.8926" y="0.0957031" width="416" height="101" filterUnits="userSpaceOnUse" color-interpolation-filters="sRGB">
<feFlood flood-opacity="0" result="BackgroundImageFix"/>
<feColorMatrix in="SourceAlpha" type="matrix" values="0 0 0 0 0 0 0 0 0 0 0 0 0 0 0 0 0 0 127 0" result="hardAlpha"/>
<feOffset dy="-6"/>
<feGaussianBlur stdDeviation="6.5"/>
<feComposite in2="hardAlpha" operator="out"/>
<feColorMatrix type="matrix" values="0 0 0 0 0 0 0 0 0 0 0 0 0 0 0 0 0 0 0.04 0"/>
<feBlend mode="normal" in2="BackgroundImageFix" result="effect1_dropShadow_1464_18167"/>
<feBlend mode="normal" in="SourceGraphic" in2="effect1_dropShadow_1464_18167" result="shape"/>
</filter>
</defs>
</svg>
