<svg width="391" height="95" viewBox="0 0 391 95" fill="none" xmlns="http://www.w3.org/2000/svg">
<g filter="url(#filter0_d_1592_21829)">
<path d="M0.107422 19.6973H390.107V94.6973H0.107422V19.6973Z" fill="white"/>
<path d="M335.141 56.4393L335.312 55.3392C335.521 53.9984 336.396 52.8499 337.692 52.4484C339.302 51.9498 341.693 51.3828 344.243 51.3828C346.793 51.3828 349.184 51.9498 350.794 52.4484C352.09 52.8499 352.965 53.9984 353.173 55.3392L353.345 56.4393" stroke="#CFD1DE" stroke-width="2.02261" stroke-linecap="round" stroke-linejoin="round"/>
<path d="M344.243 46.8337C347.036 46.8337 349.3 44.5699 349.3 41.7772C349.3 38.9846 347.036 36.7207 344.243 36.7207C341.45 36.7207 339.187 38.9846 339.187 41.7772C339.187 44.5699 341.45 46.8337 344.243 46.8337Z" stroke="#CFD1DE" stroke-width="2.02261" stroke-linecap="round" stroke-linejoin="round"/>
<path d="M331.863 71.6973V64.4245H334.32C334.891 64.4245 335.357 64.5275 335.72 64.7335C336.084 64.9371 336.354 65.2129 336.529 65.5609C336.704 65.9089 336.792 66.2972 336.792 66.7257C336.792 67.1542 336.704 67.5436 336.529 67.894C336.356 68.2444 336.089 68.5237 335.727 68.7321C335.365 68.938 334.901 69.041 334.335 69.041H332.573V68.2598H334.306C334.697 68.2598 335.011 68.1923 335.247 68.0574C335.484 67.9224 335.656 67.7401 335.762 67.5105C335.871 67.2785 335.926 67.0169 335.926 66.7257C335.926 66.4345 335.871 66.1741 335.762 65.9444C335.656 65.7148 335.483 65.5349 335.244 65.4047C335.005 65.2721 334.687 65.2058 334.292 65.2058H332.744V71.6973H331.863ZM340.325 71.8109C339.8 71.8109 339.347 71.6949 338.965 71.4629C338.587 71.2285 338.294 70.9018 338.088 70.4828C337.885 70.0614 337.783 69.5713 337.783 69.0126C337.783 68.4539 337.885 67.9615 338.088 67.5353C338.294 67.1068 338.581 66.773 338.948 66.5339C339.317 66.2924 339.748 66.1717 340.24 66.1717C340.524 66.1717 340.805 66.219 341.082 66.3137C341.359 66.4084 341.611 66.5623 341.838 66.7754C342.066 66.9861 342.247 67.2654 342.382 67.6135C342.517 67.9615 342.584 68.39 342.584 68.899V69.2541H338.379V68.5297H341.732C341.732 68.2219 341.67 67.9473 341.547 67.7058C341.426 67.4643 341.253 67.2737 341.029 67.1341C340.806 66.9944 340.543 66.9245 340.24 66.9245C339.906 66.9245 339.618 67.0074 339.374 67.1731C339.132 67.3365 338.946 67.5495 338.816 67.8123C338.686 68.0751 338.621 68.3568 338.621 68.6575V69.1404C338.621 69.5524 338.692 69.9016 338.834 70.188C338.978 70.4721 339.178 70.6887 339.434 70.8379C339.69 70.9847 339.987 71.0581 340.325 71.0581C340.546 71.0581 340.744 71.0273 340.922 70.9657C341.102 70.9018 341.257 70.8071 341.387 70.6816C341.517 70.5538 341.618 70.3952 341.689 70.2058L342.499 70.4331C342.414 70.7077 342.27 70.9492 342.069 71.1575C341.868 71.3635 341.619 71.5244 341.323 71.6404C341.027 71.7541 340.695 71.8109 340.325 71.8109ZM343.859 71.6973V66.2427H344.669V67.0666H344.725C344.825 66.7967 345.005 66.5777 345.265 66.4096C345.526 66.2415 345.819 66.1575 346.146 66.1575C346.207 66.1575 346.284 66.1587 346.377 66.161C346.469 66.1634 346.539 66.167 346.586 66.1717V67.024C346.558 67.0169 346.493 67.0062 346.391 66.992C346.291 66.9754 346.186 66.9672 346.075 66.9672C345.81 66.9672 345.573 67.0228 345.365 67.1341C345.159 67.243 344.995 67.3945 344.874 67.5886C344.756 67.7804 344.697 67.9993 344.697 68.2456V71.6973H343.859ZM350.35 66.2427V66.9529H347.41V66.2427H350.35ZM348.291 71.6973V65.4899C348.291 65.1774 348.364 64.917 348.511 64.7086C348.658 64.5003 348.848 64.344 349.083 64.2399C349.317 64.1357 349.564 64.0836 349.825 64.0836C350.031 64.0836 350.199 64.1002 350.329 64.1333C350.459 64.1665 350.556 64.1973 350.62 64.2257L350.379 64.9501C350.336 64.9359 350.277 64.9181 350.201 64.8968C350.128 64.8755 350.031 64.8649 349.91 64.8649C349.633 64.8649 349.433 64.9347 349.31 65.0744C349.189 65.2141 349.129 65.4189 349.129 65.6887V71.6973H348.291ZM351.525 71.6973V66.2427H352.363V71.6973H351.525ZM351.951 65.3336C351.788 65.3336 351.647 65.278 351.528 65.1667C351.412 65.0555 351.354 64.9217 351.354 64.7654C351.354 64.6092 351.412 64.4754 351.528 64.3642C351.647 64.2529 351.788 64.1973 351.951 64.1973C352.114 64.1973 352.254 64.2529 352.37 64.3642C352.488 64.4754 352.548 64.6092 352.548 64.7654C352.548 64.9217 352.488 65.0555 352.37 65.1667C352.254 65.278 352.114 65.3336 351.951 65.3336ZM354.736 64.4245V71.6973H353.898V64.4245H354.736Z" fill="#CFD1DE"/>
<path d="M142.186 37.7305H141.175C139.499 37.7305 138.141 39.0888 138.141 40.7644V54.9226C138.141 56.5982 139.499 57.9565 141.175 57.9565H153.311C154.986 57.9565 156.345 56.5982 156.345 54.9226V40.7644C156.345 39.0888 154.986 37.7305 153.311 37.7305H152.299" stroke="#87C9FF" stroke-width="2.02261"/>
<rect x="142.187" y="35.709" width="10.113" height="5.05651" rx="2.02261" stroke="#87C9FF" stroke-width="2.02261"/>
<path d="M124.515 71.6973V64.4245H126.973C127.543 64.4245 128.01 64.5275 128.372 64.7335C128.737 64.9371 129.006 65.2129 129.182 65.5609C129.357 65.9089 129.444 66.2972 129.444 66.7257C129.444 67.1542 129.357 67.5436 129.182 67.894C129.009 68.2444 128.741 68.5237 128.379 68.7321C128.017 68.938 127.553 69.041 126.987 69.041H125.226V68.2598H126.959C127.349 68.2598 127.663 68.1923 127.9 68.0574C128.136 67.9224 128.308 67.7401 128.415 67.5105C128.523 67.2785 128.578 67.0169 128.578 66.7257C128.578 66.4345 128.523 66.1741 128.415 65.9444C128.308 65.7148 128.135 65.5349 127.896 65.4047C127.657 65.2721 127.34 65.2058 126.944 65.2058H125.396V71.6973H124.515ZM130.749 71.6973V66.2427H131.559V67.0666H131.616C131.715 66.7967 131.895 66.5777 132.156 66.4096C132.416 66.2415 132.71 66.1575 133.036 66.1575C133.098 66.1575 133.175 66.1587 133.267 66.161C133.36 66.1634 133.429 66.167 133.477 66.1717V67.024C133.448 67.0169 133.383 67.0062 133.281 66.992C133.182 66.9754 133.077 66.9672 132.965 66.9672C132.7 66.9672 132.463 67.0228 132.255 67.1341C132.049 67.243 131.886 67.3945 131.765 67.5886C131.647 67.7804 131.588 67.9993 131.588 68.2456V71.6973H130.749ZM136.52 71.8109C136.028 71.8109 135.596 71.6937 135.224 71.4593C134.855 71.225 134.566 70.8971 134.357 70.4757C134.151 70.0543 134.048 69.5618 134.048 68.9984C134.048 68.4302 134.151 67.9342 134.357 67.5105C134.566 67.0867 134.855 66.7576 135.224 66.5233C135.596 66.2889 136.028 66.1717 136.52 66.1717C137.012 66.1717 137.443 66.2889 137.813 66.5233C138.184 66.7576 138.473 67.0867 138.679 67.5105C138.887 67.9342 138.992 68.4302 138.992 68.9984C138.992 69.5618 138.887 70.0543 138.679 70.4757C138.473 70.8971 138.184 71.225 137.813 71.4593C137.443 71.6937 137.012 71.8109 136.52 71.8109ZM136.52 71.0581C136.894 71.0581 137.202 70.9622 137.443 70.7704C137.685 70.5787 137.864 70.3265 137.98 70.014C138.096 69.7015 138.154 69.363 138.154 68.9984C138.154 68.6338 138.096 68.2941 137.98 67.9792C137.864 67.6644 137.685 67.4099 137.443 67.2157C137.202 67.0216 136.894 66.9245 136.52 66.9245C136.146 66.9245 135.838 67.0216 135.597 67.2157C135.355 67.4099 135.177 67.6644 135.061 67.9792C134.945 68.2941 134.887 68.6338 134.887 68.9984C134.887 69.363 134.945 69.7015 135.061 70.014C135.177 70.3265 135.355 70.5787 135.597 70.7704C135.838 70.9622 136.146 71.0581 136.52 71.0581ZM140.615 73.7427C140.473 73.7427 140.347 73.7309 140.235 73.7072C140.124 73.6859 140.047 73.6646 140.005 73.6433L140.218 72.9047C140.421 72.9567 140.601 72.9757 140.757 72.9615C140.914 72.9473 141.052 72.8774 141.173 72.752C141.296 72.6288 141.408 72.4288 141.51 72.1518L141.667 71.7257L139.65 66.2427H140.559L142.064 70.5893H142.121L143.627 66.2427H144.536L142.221 72.4927C142.116 72.7744 141.987 73.0076 141.833 73.1923C141.68 73.3793 141.501 73.5178 141.297 73.6078C141.096 73.6977 140.869 73.7427 140.615 73.7427ZM147.734 71.8109C147.208 71.8109 146.755 71.6949 146.374 71.4629C145.995 71.2285 145.702 70.9018 145.496 70.4828C145.293 70.0614 145.191 69.5713 145.191 69.0126C145.191 68.4539 145.293 67.9615 145.496 67.5353C145.702 67.1068 145.989 66.773 146.356 66.5339C146.725 66.2924 147.156 66.1717 147.648 66.1717C147.933 66.1717 148.213 66.219 148.49 66.3137C148.767 66.4084 149.019 66.5623 149.246 66.7754C149.474 66.9861 149.655 67.2654 149.79 67.6135C149.925 67.9615 149.992 68.39 149.992 68.899V69.2541H145.788V68.5297H149.14C149.14 68.2219 149.078 67.9473 148.955 67.7058C148.835 67.4643 148.662 67.2737 148.437 67.1341C148.214 66.9944 147.951 66.9245 147.648 66.9245C147.315 66.9245 147.026 67.0074 146.782 67.1731C146.54 67.3365 146.355 67.5495 146.224 67.8123C146.094 68.0751 146.029 68.3568 146.029 68.6575V69.1404C146.029 69.5524 146.1 69.9016 146.242 70.188C146.387 70.4721 146.587 70.6887 146.842 70.8379C147.098 70.9847 147.395 71.0581 147.734 71.0581C147.954 71.0581 148.153 71.0273 148.33 70.9657C148.51 70.9018 148.665 70.8071 148.795 70.6816C148.926 70.5538 149.026 70.3952 149.097 70.2058L149.907 70.4331C149.822 70.7077 149.679 70.9492 149.477 71.1575C149.276 71.3635 149.027 71.5244 148.732 71.6404C148.436 71.7541 148.103 71.8109 147.734 71.8109ZM153.483 71.8109C152.972 71.8109 152.531 71.6902 152.162 71.4487C151.793 71.2072 151.509 70.8746 151.31 70.4508C151.111 70.027 151.011 69.5429 151.011 68.9984C151.011 68.4444 151.113 67.9556 151.317 67.5318C151.523 67.1056 151.809 66.773 152.176 66.5339C152.545 66.2924 152.976 66.1717 153.469 66.1717C153.852 66.1717 154.198 66.2427 154.506 66.3848C154.813 66.5268 155.066 66.7257 155.262 66.9814C155.459 67.237 155.58 67.5353 155.628 67.8762H154.79C154.726 67.6277 154.584 67.4075 154.364 67.2157C154.146 67.0216 153.852 66.9245 153.483 66.9245C153.156 66.9245 152.87 67.0098 152.624 67.1802C152.38 67.3483 152.189 67.5862 152.052 67.894C151.917 68.1994 151.849 68.5581 151.849 68.97C151.849 69.3914 151.916 69.7583 152.048 70.0708C152.183 70.3833 152.373 70.626 152.616 70.7988C152.863 70.9717 153.152 71.0581 153.483 71.0581C153.701 71.0581 153.898 71.0202 154.076 70.9444C154.254 70.8687 154.404 70.7598 154.527 70.6177C154.65 70.4757 154.738 70.3052 154.79 70.1064H155.628C155.58 70.4283 155.463 70.7183 155.276 70.9764C155.092 71.2321 154.847 71.4357 154.541 71.5872C154.238 71.7363 153.885 71.8109 153.483 71.8109ZM159.225 66.2427V66.9529H156.398V66.2427H159.225ZM157.222 64.9359H158.06V70.1348C158.06 70.3715 158.095 70.5491 158.163 70.6674C158.234 70.7834 158.324 70.8616 158.433 70.9018C158.545 70.9397 158.662 70.9586 158.785 70.9586C158.877 70.9586 158.953 70.9539 159.012 70.9444C159.071 70.9326 159.119 70.9231 159.154 70.916L159.325 71.6689C159.268 71.6902 159.188 71.7115 159.087 71.7328C158.985 71.7565 158.856 71.7683 158.7 71.7683C158.463 71.7683 158.231 71.7174 158.004 71.6156C157.779 71.5138 157.592 71.3587 157.442 71.1504C157.296 70.9421 157.222 70.6793 157.222 70.362V64.9359ZM162.643 71.8109C162.151 71.8109 161.719 71.6937 161.347 71.4593C160.978 71.225 160.689 70.8971 160.48 70.4757C160.275 70.0543 160.172 69.5618 160.172 68.9984C160.172 68.4302 160.275 67.9342 160.48 67.5105C160.689 67.0867 160.978 66.7576 161.347 66.5233C161.719 66.2889 162.151 66.1717 162.643 66.1717C163.136 66.1717 163.566 66.2889 163.936 66.5233C164.307 66.7576 164.596 67.0867 164.802 67.5105C165.011 67.9342 165.115 68.4302 165.115 68.9984C165.115 69.5618 165.011 70.0543 164.802 70.4757C164.596 70.8971 164.307 71.225 163.936 71.4593C163.566 71.6937 163.136 71.8109 162.643 71.8109ZM162.643 71.0581C163.017 71.0581 163.325 70.9622 163.566 70.7704C163.808 70.5787 163.987 70.3265 164.103 70.014C164.219 69.7015 164.277 69.363 164.277 68.9984C164.277 68.6338 164.219 68.2941 164.103 67.9792C163.987 67.6644 163.808 67.4099 163.566 67.2157C163.325 67.0216 163.017 66.9245 162.643 66.9245C162.269 66.9245 161.961 67.0216 161.72 67.2157C161.478 67.4099 161.3 67.6644 161.184 67.9792C161.068 68.2941 161.01 68.6338 161.01 68.9984C161.01 69.363 161.068 69.7015 161.184 70.014C161.3 70.3265 161.478 70.5787 161.72 70.7704C161.961 70.9622 162.269 71.0581 162.643 71.0581ZM170.258 67.4643L169.505 67.6774C169.457 67.5519 169.388 67.43 169.295 67.3116C169.205 67.1909 169.082 67.0914 168.926 67.0133C168.77 66.9352 168.57 66.8961 168.326 66.8961C167.992 66.8961 167.714 66.9731 167.491 67.127C167.271 67.2785 167.161 67.4714 167.161 67.7058C167.161 67.9141 167.237 68.0787 167.388 68.1994C167.54 68.3201 167.777 68.4208 168.099 68.5012L168.908 68.7001C169.396 68.8185 169.759 68.9996 169.998 69.2434C170.238 69.4849 170.357 69.7962 170.357 70.1774C170.357 70.4899 170.267 70.7692 170.087 71.0154C169.91 71.2617 169.661 71.4558 169.341 71.5978C169.022 71.7399 168.65 71.8109 168.226 71.8109C167.67 71.8109 167.21 71.6902 166.845 71.4487C166.48 71.2072 166.25 70.8545 166.153 70.3904L166.948 70.1916C167.024 70.4851 167.167 70.7053 167.378 70.8521C167.591 70.9989 167.869 71.0723 168.212 71.0723C168.603 71.0723 168.913 70.9894 169.143 70.8237C169.375 70.6556 169.491 70.4544 169.491 70.22C169.491 70.0306 169.424 69.872 169.292 69.7441C169.159 69.6139 168.956 69.5169 168.681 69.4529L167.772 69.2399C167.272 69.1215 166.905 68.938 166.671 68.6895C166.439 68.4385 166.323 68.1248 166.323 67.7484C166.323 67.4406 166.409 67.1684 166.582 66.9316C166.757 66.6949 166.995 66.5091 167.296 66.3741C167.599 66.2392 167.942 66.1717 168.326 66.1717C168.866 66.1717 169.289 66.2901 169.597 66.5268C169.907 66.7636 170.127 67.0761 170.258 67.4643Z" fill="#389BEC"/>
<path d="M39.1299 44.6724C39.1299 43.7188 39.5832 42.822 40.351 42.2566L49.2429 35.709L58.1348 42.2566C58.9026 42.822 59.3559 43.7188 59.3559 44.6724V55.4576C59.3559 56.8384 58.2367 57.9576 56.8559 57.9576H53.2768C52.7245 57.9576 52.2768 57.5099 52.2768 56.9576V50.8729C52.2768 50.5967 52.053 50.3729 51.7768 50.3729H46.709C46.4329 50.3729 46.209 50.5967 46.209 50.8729V56.9576C46.209 57.5099 45.7613 57.9576 45.209 57.9576H41.6299C40.2492 57.9576 39.1299 56.8384 39.1299 55.4576V44.6724Z" stroke="#CFD1DE" stroke-width="2.02261" stroke-linecap="round" stroke-linejoin="round"/>
<path d="M36.1834 71.6973V64.4245H37.0641V67.6632H40.9419V64.4245H41.8226V71.6973H40.9419V68.4444H37.0641V71.6973H36.1834ZM45.688 71.8109C45.1956 71.8109 44.7636 71.6937 44.3919 71.4593C44.0225 71.225 43.7337 70.8971 43.5254 70.4757C43.3194 70.0543 43.2164 69.5618 43.2164 68.9984C43.2164 68.4302 43.3194 67.9342 43.5254 67.5105C43.7337 67.0867 44.0225 66.7576 44.3919 66.5233C44.7636 66.2889 45.1956 66.1717 45.688 66.1717C46.1805 66.1717 46.6113 66.2889 46.9806 66.5233C47.3523 66.7576 47.6412 67.0867 47.8471 67.5105C48.0555 67.9342 48.1596 68.4302 48.1596 68.9984C48.1596 69.5618 48.0555 70.0543 47.8471 70.4757C47.6412 70.8971 47.3523 71.225 46.9806 71.4593C46.6113 71.6937 46.1805 71.8109 45.688 71.8109ZM45.688 71.0581C46.0621 71.0581 46.3699 70.9622 46.6113 70.7704C46.8528 70.5787 47.0315 70.3265 47.1475 70.014C47.2636 69.7015 47.3216 69.363 47.3216 68.9984C47.3216 68.6338 47.2636 68.2941 47.1475 67.9792C47.0315 67.6644 46.8528 67.4099 46.6113 67.2157C46.3699 67.0216 46.0621 66.9245 45.688 66.9245C45.314 66.9245 45.0062 67.0216 44.7647 67.2157C44.5233 67.4099 44.3445 67.6644 44.2285 67.9792C44.1125 68.2941 44.0545 68.6338 44.0545 68.9984C44.0545 69.363 44.1125 69.7015 44.2285 70.014C44.3445 70.3265 44.5233 70.5787 44.7647 70.7704C45.0062 70.9622 45.314 71.0581 45.688 71.0581ZM49.4389 71.6973V66.2427H50.2486V67.095H50.3196C50.4332 66.8038 50.6167 66.5777 50.87 66.4167C51.1233 66.2534 51.4276 66.1717 51.7827 66.1717C52.1425 66.1717 52.442 66.2534 52.6811 66.4167C52.9226 66.5777 53.1108 66.8038 53.2457 67.095H53.3026C53.4422 66.8133 53.6518 66.5895 53.9311 66.4238C54.2105 66.2557 54.5455 66.1717 54.9361 66.1717C55.4238 66.1717 55.8227 66.3244 56.1328 66.6298C56.4429 66.9328 56.598 67.4051 56.598 68.0467V71.6973H55.7599V68.0467C55.7599 67.6442 55.6499 67.3566 55.4297 67.1838C55.2095 67.0109 54.9503 66.9245 54.652 66.9245C54.2685 66.9245 53.9714 67.0405 53.7607 67.2725C53.55 67.5022 53.4446 67.7934 53.4446 68.1461V71.6973H52.5923V67.9615C52.5923 67.6513 52.4917 67.4016 52.2905 67.2122C52.0893 67.0204 51.83 66.9245 51.5128 66.9245C51.295 66.9245 51.0914 66.9825 50.902 67.0985C50.715 67.2145 50.5634 67.3755 50.4474 67.5815C50.3338 67.7851 50.277 68.0207 50.277 68.2882V71.6973H49.4389ZM60.4173 71.8109C59.8917 71.8109 59.4383 71.6949 59.0572 71.4629C58.6784 71.2285 58.386 70.9018 58.18 70.4828C57.9764 70.0614 57.8746 69.5713 57.8746 69.0126C57.8746 68.4539 57.9764 67.9615 58.18 67.5353C58.386 67.1068 58.6725 66.773 59.0394 66.5339C59.4087 66.2924 59.8396 66.1717 60.332 66.1717C60.6161 66.1717 60.8967 66.219 61.1737 66.3137C61.4506 66.4084 61.7028 66.5623 61.93 66.7754C62.1573 66.9861 62.3384 67.2654 62.4734 67.6135C62.6083 67.9615 62.6758 68.39 62.6758 68.899V69.2541H58.4712V68.5297H61.8235C61.8235 68.2219 61.762 67.9473 61.6388 67.7058C61.5181 67.4643 61.3453 67.2737 61.1204 67.1341C60.8978 66.9944 60.6351 66.9245 60.332 66.9245C59.9982 66.9245 59.7094 67.0074 59.4656 67.1731C59.2241 67.3365 59.0382 67.5495 58.908 67.8123C58.7778 68.0751 58.7127 68.3568 58.7127 68.6575V69.1404C58.7127 69.5524 58.7837 69.9016 58.9258 70.188C59.0702 70.4721 59.2702 70.6887 59.5259 70.8379C59.7816 70.9847 60.0787 71.0581 60.4173 71.0581C60.6374 71.0581 60.8363 71.0273 61.0138 70.9657C61.1938 70.9018 61.3488 70.8071 61.479 70.6816C61.6093 70.5538 61.7099 70.3952 61.7809 70.2058L62.5906 70.4331C62.5053 70.7077 62.3621 70.9492 62.1609 71.1575C61.9596 71.3635 61.7111 71.5244 61.4151 71.6404C61.1192 71.7541 60.7866 71.8109 60.4173 71.8109Z" fill="#CFD1DE"/>
<path d="M227.027 71.6973V64.4245H229.57C230.076 64.4245 230.494 64.5121 230.823 64.6873C231.152 64.8601 231.397 65.0933 231.558 65.3869C231.719 65.6781 231.8 66.0012 231.8 66.3564C231.8 66.6689 231.744 66.9269 231.633 67.1305C231.524 67.3341 231.38 67.4951 231.2 67.6135C231.022 67.7318 230.829 67.8194 230.621 67.8762V67.9473C230.843 67.9615 231.067 68.0396 231.292 68.1816C231.517 68.3237 231.705 68.5273 231.857 68.7924C232.008 69.0576 232.084 69.3819 232.084 69.7654C232.084 70.13 232.001 70.4579 231.835 70.7491C231.67 71.0403 231.408 71.2711 231.051 71.4416C230.693 71.612 230.228 71.6973 229.655 71.6973H227.027ZM227.908 70.916H229.655C230.23 70.916 230.639 70.8047 230.88 70.5822C231.124 70.3573 231.246 70.085 231.246 69.7654C231.246 69.5192 231.183 69.292 231.058 69.0836C230.932 68.8729 230.753 68.7048 230.521 68.5794C230.289 68.4515 230.015 68.3876 229.698 68.3876H227.908V70.916ZM227.908 67.6206H229.541C229.807 67.6206 230.046 67.5685 230.259 67.4643C230.474 67.3601 230.645 67.2134 230.77 67.024C230.898 66.8346 230.962 66.612 230.962 66.3564C230.962 66.0368 230.851 65.7657 230.628 65.5431C230.405 65.3182 230.053 65.2058 229.57 65.2058H227.908V67.6206ZM233.417 71.6973V66.2427H234.256V71.6973H233.417ZM233.844 65.3336C233.68 65.3336 233.539 65.278 233.421 65.1667C233.305 65.0555 233.247 64.9217 233.247 64.7654C233.247 64.6092 233.305 64.4754 233.421 64.3642C233.539 64.2529 233.68 64.1973 233.844 64.1973C234.007 64.1973 234.147 64.2529 234.263 64.3642C234.381 64.4754 234.44 64.6092 234.44 64.7654C234.44 64.9217 234.381 65.0555 234.263 65.1667C234.147 65.278 234.007 65.3336 233.844 65.3336ZM236.629 64.4245V71.6973H235.79V64.4245H236.629ZM239.002 64.4245V71.6973H238.164V64.4245H239.002ZM242.824 71.8109C242.298 71.8109 241.845 71.6949 241.463 71.4629C241.085 71.2285 240.792 70.9018 240.586 70.4828C240.383 70.0614 240.281 69.5713 240.281 69.0126C240.281 68.4539 240.383 67.9615 240.586 67.5353C240.792 67.1068 241.079 66.773 241.446 66.5339C241.815 66.2924 242.246 66.1717 242.738 66.1717C243.022 66.1717 243.303 66.219 243.58 66.3137C243.857 66.4084 244.109 66.5623 244.336 66.7754C244.564 66.9861 244.745 67.2654 244.88 67.6135C245.015 67.9615 245.082 68.39 245.082 68.899V69.2541H240.877V68.5297H244.23C244.23 68.2219 244.168 67.9473 244.045 67.7058C243.924 67.4643 243.752 67.2737 243.527 67.1341C243.304 66.9944 243.041 66.9245 242.738 66.9245C242.404 66.9245 242.116 67.0074 241.872 67.1731C241.63 67.3365 241.444 67.5495 241.314 67.8123C241.184 68.0751 241.119 68.3568 241.119 68.6575V69.1404C241.119 69.5524 241.19 69.9016 241.332 70.188C241.476 70.4721 241.676 70.6887 241.932 70.8379C242.188 70.9847 242.485 71.0581 242.824 71.0581C243.044 71.0581 243.243 71.0273 243.42 70.9657C243.6 70.9018 243.755 70.8071 243.885 70.6816C244.016 70.5538 244.116 70.3952 244.187 70.2058L244.997 70.4331C244.912 70.7077 244.768 70.9492 244.567 71.1575C244.366 71.3635 244.117 71.5244 243.821 71.6404C243.525 71.7541 243.193 71.8109 242.824 71.8109ZM248.729 66.2427V66.9529H245.902V66.2427H248.729ZM246.726 64.9359H247.564V70.1348C247.564 70.3715 247.599 70.5491 247.667 70.6674C247.738 70.7834 247.828 70.8616 247.937 70.9018C248.048 70.9397 248.166 70.9586 248.289 70.9586C248.381 70.9586 248.457 70.9539 248.516 70.9444C248.575 70.9326 248.623 70.9231 248.658 70.916L248.828 71.6689C248.772 71.6902 248.692 71.7115 248.591 71.7328C248.489 71.7565 248.36 71.7683 248.203 71.7683C247.967 71.7683 247.735 71.7174 247.507 71.6156C247.283 71.5138 247.096 71.3587 246.946 71.1504C246.8 70.9421 246.726 70.6793 246.726 70.362V64.9359ZM252.218 71.8109C251.692 71.8109 251.239 71.6949 250.858 71.4629C250.479 71.2285 250.187 70.9018 249.981 70.4828C249.777 70.0614 249.675 69.5713 249.675 69.0126C249.675 68.4539 249.777 67.9615 249.981 67.5353C250.187 67.1068 250.473 66.773 250.84 66.5339C251.21 66.2924 251.64 66.1717 252.133 66.1717C252.417 66.1717 252.697 66.219 252.974 66.3137C253.251 66.4084 253.504 66.5623 253.731 66.7754C253.958 66.9861 254.139 67.2654 254.274 67.6135C254.409 67.9615 254.477 68.39 254.477 68.899V69.2541H250.272V68.5297H253.624C253.624 68.2219 253.563 67.9473 253.44 67.7058C253.319 67.4643 253.146 67.2737 252.921 67.1341C252.699 66.9944 252.436 66.9245 252.133 66.9245C251.799 66.9245 251.51 67.0074 251.266 67.1731C251.025 67.3365 250.839 67.5495 250.709 67.8123C250.579 68.0751 250.513 68.3568 250.513 68.6575V69.1404C250.513 69.5524 250.585 69.9016 250.727 70.188C250.871 70.4721 251.071 70.6887 251.327 70.8379C251.582 70.9847 251.879 71.0581 252.218 71.0581C252.438 71.0581 252.637 71.0273 252.815 70.9657C252.995 70.9018 253.15 70.8071 253.28 70.6816C253.41 70.5538 253.511 70.3952 253.582 70.2058L254.391 70.4331C254.306 70.7077 254.163 70.9492 253.962 71.1575C253.76 71.3635 253.512 71.5244 253.216 71.6404C252.92 71.7541 252.587 71.8109 252.218 71.8109ZM255.751 71.6973V66.2427H256.561V67.0666H256.618C256.717 66.7967 256.897 66.5777 257.158 66.4096C257.418 66.2415 257.712 66.1575 258.038 66.1575C258.1 66.1575 258.177 66.1587 258.269 66.161C258.362 66.1634 258.431 66.167 258.479 66.1717V67.024C258.45 67.0169 258.385 67.0062 258.283 66.992C258.184 66.9754 258.079 66.9672 257.967 66.9672C257.702 66.9672 257.465 67.0228 257.257 67.1341C257.051 67.243 256.888 67.3945 256.767 67.5886C256.649 67.7804 256.589 67.9993 256.589 68.2456V71.6973H255.751ZM261.077 71.8251C260.732 71.8251 260.418 71.76 260.136 71.6298C259.854 71.4972 259.631 71.3066 259.465 71.0581C259.299 70.8071 259.216 70.5041 259.216 70.149C259.216 69.8365 259.278 69.5832 259.401 69.389C259.524 69.1925 259.689 69.0386 259.895 68.9274C260.101 68.8161 260.328 68.7333 260.577 68.6788C260.827 68.622 261.08 68.577 261.333 68.5439C261.664 68.5012 261.933 68.4693 262.139 68.448C262.347 68.4243 262.499 68.3852 262.594 68.3308C262.691 68.2763 262.739 68.1816 262.739 68.0467V68.0183C262.739 67.6679 262.643 67.3957 262.452 67.2015C262.262 67.0074 261.974 66.9103 261.589 66.9103C261.189 66.9103 260.875 66.9979 260.648 67.1731C260.42 67.3483 260.26 67.5353 260.168 67.7342L259.373 67.4501C259.515 67.1187 259.704 66.8606 259.941 66.676C260.18 66.4889 260.44 66.3587 260.722 66.2853C261.006 66.2096 261.286 66.1717 261.56 66.1717C261.735 66.1717 261.937 66.193 262.164 66.2356C262.394 66.2759 262.615 66.3599 262.828 66.4877C263.043 66.6156 263.222 66.8085 263.364 67.0666C263.506 67.3246 263.577 67.6703 263.577 68.1035V71.6973H262.739V70.9586H262.697C262.64 71.077 262.545 71.2037 262.412 71.3386C262.28 71.4735 262.104 71.5884 261.883 71.6831C261.663 71.7778 261.394 71.8251 261.077 71.8251ZM261.205 71.0723C261.537 71.0723 261.816 71.0072 262.043 70.877C262.273 70.7467 262.446 70.5787 262.562 70.3727C262.68 70.1667 262.739 69.9501 262.739 69.7228V68.9558C262.704 68.9984 262.626 69.0375 262.505 69.073C262.386 69.1061 262.249 69.1357 262.093 69.1618C261.939 69.1854 261.789 69.2067 261.642 69.2257C261.497 69.2422 261.38 69.2565 261.29 69.2683C261.073 69.2967 260.869 69.3429 260.68 69.4068C260.492 69.4683 260.341 69.5618 260.225 69.6873C260.111 69.8104 260.055 69.9785 260.055 70.1916C260.055 70.4828 260.162 70.7029 260.378 70.8521C260.595 70.9989 260.871 71.0723 261.205 71.0723Z" fill="#CFD1DE"/>
<path d="M254.339 37.7422L237.181 37.7422C235.508 37.7422 234.151 39.0988 234.151 40.7722V54.9382C234.151 56.6117 235.508 57.9682 237.181 57.9682H253.305C254.978 57.9682 256.335 56.6117 256.335 54.9382V44.7229C256.335 43.0495 254.978 41.6929 253.305 41.6929H236.655C235.54 41.6929 234.636 40.7886 234.636 39.6731V39.6731" stroke="#CFD1DE" stroke-width="2.02" stroke-linecap="round" stroke-linejoin="round"/>
<rect width="70" height="2" transform="matrix(1 0 0 -1 112.243 21.6973)" fill="#55B3FF"/>
</g>
<defs>
<filter id="filter0_d_1592_21829" x="-12.8926" y="0.697266" width="416" height="101" filterUnits="userSpaceOnUse" color-interpolation-filters="sRGB">
<feFlood flood-opacity="0" result="BackgroundImageFix"/>
<feColorMatrix in="SourceAlpha" type="matrix" values="0 0 0 0 0 0 0 0 0 0 0 0 0 0 0 0 0 0 127 0" result="hardAlpha"/>
<feOffset dy="-6"/>
<feGaussianBlur stdDeviation="6.5"/>
<feComposite in2="hardAlpha" operator="out"/>
<feColorMatrix type="matrix" values="0 0 0 0 0 0 0 0 0 0 0 0 0 0 0 0 0 0 0.04 0"/>
<feBlend mode="normal" in2="BackgroundImageFix" result="effect1_dropShadow_1592_21829"/>
<feBlend mode="normal" in="SourceGraphic" in2="effect1_dropShadow_1592_21829" result="shape"/>
</filter>
</defs>
</svg>
