<svg width="391" height="95" viewBox="0 0 391 95" fill="none" xmlns="http://www.w3.org/2000/svg">
<g filter="url(#filter0_d_1733_30967)">
<path d="M0.841797 19.5H390.842V94.5H0.841797V19.5Z" fill="white"/>
<path d="M335.876 56.2421L336.047 55.142C336.255 53.8011 337.13 52.6526 338.426 52.2511C340.036 51.7525 342.427 51.1855 344.977 51.1855C347.527 51.1855 349.919 51.7525 351.528 52.2511C352.825 52.6526 353.699 53.8011 353.908 55.142L354.079 56.2421" stroke="#87C9FF" stroke-width="2.02261" stroke-linecap="round" stroke-linejoin="round"/>
<path d="M344.977 46.6365C347.77 46.6365 350.034 44.3726 350.034 41.58C350.034 38.7873 347.77 36.5234 344.977 36.5234C342.185 36.5234 339.921 38.7873 339.921 41.58C339.921 44.3726 342.185 46.6365 344.977 46.6365Z" stroke="#87C9FF" stroke-width="2.02261" stroke-linecap="round" stroke-linejoin="round"/>
<path d="M332.597 71.5V64.2273H335.055C335.625 64.2273 336.092 64.3303 336.454 64.5362C336.819 64.7398 337.088 65.0156 337.264 65.3636C337.439 65.7116 337.526 66.0999 337.526 66.5284C337.526 66.9569 337.439 67.3464 337.264 67.6967C337.091 68.0471 336.823 68.3265 336.461 68.5348C336.099 68.7408 335.635 68.8438 335.069 68.8438H333.308V68.0625H335.041C335.431 68.0625 335.745 67.995 335.982 67.8601C336.218 67.7251 336.39 67.5429 336.497 67.3132C336.606 67.0812 336.66 66.8196 336.66 66.5284C336.66 66.2372 336.606 65.9768 336.497 65.7472C336.39 65.5175 336.217 65.3376 335.978 65.2074C335.739 65.0748 335.422 65.0085 335.026 65.0085H333.478V71.5H332.597ZM341.06 71.6136C340.534 71.6136 340.081 71.4976 339.7 71.2656C339.321 71.0312 339.029 70.7045 338.823 70.2855C338.619 69.8641 338.517 69.3741 338.517 68.8153C338.517 68.2566 338.619 67.7642 338.823 67.3381C339.029 66.9096 339.315 66.5758 339.682 66.3366C340.051 66.0952 340.482 65.9744 340.975 65.9744C341.259 65.9744 341.539 66.0218 341.816 66.1165C342.093 66.2112 342.345 66.3651 342.573 66.5781C342.8 66.7888 342.981 67.0682 343.116 67.4162C343.251 67.7642 343.318 68.1927 343.318 68.7017V69.0568H339.114V68.3324H342.466C342.466 68.0246 342.405 67.75 342.281 67.5085C342.161 67.267 341.988 67.0765 341.763 66.9368C341.54 66.7971 341.278 66.7273 340.975 66.7273C340.641 66.7273 340.352 66.8101 340.108 66.9759C339.867 67.1392 339.681 67.3523 339.551 67.6151C339.42 67.8778 339.355 68.1596 339.355 68.4602V68.9432C339.355 69.3551 339.426 69.7043 339.568 69.9908C339.713 70.2749 339.913 70.4915 340.169 70.6406C340.424 70.7874 340.721 70.8608 341.06 70.8608C341.28 70.8608 341.479 70.83 341.656 70.7685C341.836 70.7045 341.991 70.6098 342.122 70.4844C342.252 70.3565 342.352 70.1979 342.423 70.0085L343.233 70.2358C343.148 70.5104 343.005 70.7519 342.803 70.9602C342.602 71.1662 342.354 71.3272 342.058 71.4432C341.762 71.5568 341.429 71.6136 341.06 71.6136ZM344.593 71.5V66.0455H345.403V66.8693H345.46C345.559 66.5994 345.739 66.3804 345.999 66.2124C346.26 66.0443 346.553 65.9602 346.88 65.9602C346.942 65.9602 347.019 65.9614 347.111 65.9638C347.203 65.9661 347.273 65.9697 347.32 65.9744V66.8267C347.292 66.8196 347.227 66.8089 347.125 66.7947C347.026 66.7782 346.92 66.7699 346.809 66.7699C346.544 66.7699 346.307 66.8255 346.099 66.9368C345.893 67.0457 345.73 67.1972 345.609 67.3913C345.49 67.5831 345.431 67.8021 345.431 68.0483V71.5H344.593ZM351.085 66.0455V66.7557H348.144V66.0455H351.085ZM349.025 71.5V65.2926C349.025 64.9801 349.098 64.7197 349.245 64.5114C349.392 64.303 349.583 64.1468 349.817 64.0426C350.051 63.9384 350.299 63.8864 350.559 63.8864C350.765 63.8864 350.933 63.9029 351.063 63.9361C351.194 63.9692 351.291 64 351.355 64.0284L351.113 64.7528C351.07 64.7386 351.011 64.7209 350.936 64.6996C350.862 64.6783 350.765 64.6676 350.644 64.6676C350.367 64.6676 350.167 64.7375 350.044 64.8771C349.923 65.0168 349.863 65.2216 349.863 65.4915V71.5H349.025ZM352.259 71.5V66.0455H353.097V71.5H352.259ZM352.685 65.1364C352.522 65.1364 352.381 65.0807 352.263 64.9695C352.147 64.8582 352.089 64.7244 352.089 64.5682C352.089 64.4119 352.147 64.2782 352.263 64.1669C352.381 64.0556 352.522 64 352.685 64C352.849 64 352.988 64.0556 353.104 64.1669C353.223 64.2782 353.282 64.4119 353.282 64.5682C353.282 64.7244 353.223 64.8582 353.104 64.9695C352.988 65.0807 352.849 65.1364 352.685 65.1364ZM355.47 64.2273V71.5H354.632V64.2273H355.47Z" fill="#389BEC"/>
<path d="M142.921 37.5332H141.91C140.234 37.5332 138.876 38.8915 138.876 40.5671V54.7254C138.876 56.4009 140.234 57.7593 141.91 57.7593H154.045C155.721 57.7593 157.079 56.4009 157.079 54.7254V40.5671C157.079 38.8915 155.721 37.5332 154.045 37.5332H153.034" stroke="#CFD1DE" stroke-width="2.02261"/>
<rect x="142.921" y="35.5117" width="10.113" height="5.05651" rx="2.02261" stroke="#CFD1DE" stroke-width="2.02261"/>
<path d="M125.25 71.5V64.2273H127.707C128.278 64.2273 128.744 64.3303 129.106 64.5362C129.471 64.7398 129.741 65.0156 129.916 65.3636C130.091 65.7116 130.179 66.0999 130.179 66.5284C130.179 66.9569 130.091 67.3464 129.916 67.6967C129.743 68.0471 129.476 68.3265 129.113 68.5348C128.751 68.7408 128.287 68.8438 127.721 68.8438H125.96V68.0625H127.693C128.084 68.0625 128.397 67.995 128.634 67.8601C128.871 67.7251 129.042 67.5429 129.149 67.3132C129.258 67.0812 129.312 66.8196 129.312 66.5284C129.312 66.2372 129.258 65.9768 129.149 65.7472C129.042 65.5175 128.87 65.3376 128.631 65.2074C128.391 65.0748 128.074 65.0085 127.679 65.0085H126.131V71.5H125.25ZM131.484 71.5V66.0455H132.294V66.8693H132.35C132.45 66.5994 132.63 66.3804 132.89 66.2124C133.151 66.0443 133.444 65.9602 133.771 65.9602C133.832 65.9602 133.909 65.9614 134.002 65.9638C134.094 65.9661 134.164 65.9697 134.211 65.9744V66.8267C134.183 66.8196 134.118 66.8089 134.016 66.7947C133.916 66.7782 133.811 66.7699 133.7 66.7699C133.435 66.7699 133.198 66.8255 132.99 66.9368C132.784 67.0457 132.62 67.1972 132.499 67.3913C132.381 67.5831 132.322 67.8021 132.322 68.0483V71.5H131.484ZM137.254 71.6136C136.762 71.6136 136.33 71.4964 135.958 71.2621C135.589 71.0277 135.3 70.6998 135.092 70.2784C134.886 69.857 134.783 69.3646 134.783 68.8011C134.783 68.233 134.886 67.737 135.092 67.3132C135.3 66.8894 135.589 66.5604 135.958 66.326C136.33 66.0916 136.762 65.9744 137.254 65.9744C137.747 65.9744 138.178 66.0916 138.547 66.326C138.919 66.5604 139.208 66.8894 139.414 67.3132C139.622 67.737 139.726 68.233 139.726 68.8011C139.726 69.3646 139.622 69.857 139.414 70.2784C139.208 70.6998 138.919 71.0277 138.547 71.2621C138.178 71.4964 137.747 71.6136 137.254 71.6136ZM137.254 70.8608C137.628 70.8608 137.936 70.7649 138.178 70.5732C138.419 70.3814 138.598 70.1293 138.714 69.8168C138.83 69.5043 138.888 69.1657 138.888 68.8011C138.888 68.4366 138.83 68.0968 138.714 67.782C138.598 67.4671 138.419 67.2126 138.178 67.0185C137.936 66.8243 137.628 66.7273 137.254 66.7273C136.88 66.7273 136.573 66.8243 136.331 67.0185C136.09 67.2126 135.911 67.4671 135.795 67.782C135.679 68.0968 135.621 68.4366 135.621 68.8011C135.621 69.1657 135.679 69.5043 135.795 69.8168C135.911 70.1293 136.09 70.3814 136.331 70.5732C136.573 70.7649 136.88 70.8608 137.254 70.8608ZM141.35 73.5455C141.208 73.5455 141.081 73.5336 140.97 73.5099C140.859 73.4886 140.782 73.4673 140.739 73.446L140.952 72.7074C141.156 72.7595 141.336 72.7784 141.492 72.7642C141.648 72.75 141.787 72.6802 141.907 72.5547C142.03 72.4316 142.143 72.2315 142.245 71.9545L142.401 71.5284L140.384 66.0455H141.293L142.799 70.392H142.855L144.361 66.0455H145.27L142.955 72.2955C142.851 72.5772 142.722 72.8104 142.568 72.995C142.414 73.1821 142.235 73.3205 142.032 73.4105C141.83 73.5005 141.603 73.5455 141.35 73.5455ZM148.468 71.6136C147.942 71.6136 147.489 71.4976 147.108 71.2656C146.729 71.0312 146.437 70.7045 146.231 70.2855C146.027 69.8641 145.925 69.3741 145.925 68.8153C145.925 68.2566 146.027 67.7642 146.231 67.3381C146.437 66.9096 146.723 66.5758 147.09 66.3366C147.46 66.0952 147.89 65.9744 148.383 65.9744C148.667 65.9744 148.947 66.0218 149.224 66.1165C149.501 66.2112 149.754 66.3651 149.981 66.5781C150.208 66.7888 150.389 67.0682 150.524 67.4162C150.659 67.7642 150.727 68.1927 150.727 68.7017V69.0568H146.522V68.3324H149.874C149.874 68.0246 149.813 67.75 149.69 67.5085C149.569 67.267 149.396 67.0765 149.171 66.9368C148.949 66.7971 148.686 66.7273 148.383 66.7273C148.049 66.7273 147.76 66.8101 147.516 66.9759C147.275 67.1392 147.089 67.3523 146.959 67.6151C146.829 67.8778 146.763 68.1596 146.763 68.4602V68.9432C146.763 69.3551 146.835 69.7043 146.977 69.9908C147.121 70.2749 147.321 70.4915 147.577 70.6406C147.832 70.7874 148.129 70.8608 148.468 70.8608C148.688 70.8608 148.887 70.83 149.065 70.7685C149.245 70.7045 149.4 70.6098 149.53 70.4844C149.66 70.3565 149.761 70.1979 149.832 70.0085L150.641 70.2358C150.556 70.5104 150.413 70.7519 150.212 70.9602C150.01 71.1662 149.762 71.3272 149.466 71.4432C149.17 71.5568 148.837 71.6136 148.468 71.6136ZM154.217 71.6136C153.706 71.6136 153.266 71.4929 152.896 71.2514C152.527 71.0099 152.243 70.6773 152.044 70.2536C151.845 69.8298 151.746 69.3456 151.746 68.8011C151.746 68.2472 151.848 67.7583 152.051 67.3345C152.257 66.9084 152.544 66.5758 152.911 66.3366C153.28 66.0952 153.711 65.9744 154.203 65.9744C154.587 65.9744 154.932 66.0455 155.24 66.1875C155.548 66.3295 155.8 66.5284 155.996 66.7841C156.193 67.0398 156.315 67.3381 156.362 67.679H155.524C155.46 67.4304 155.318 67.2102 155.098 67.0185C154.88 66.8243 154.587 66.7273 154.217 66.7273C153.891 66.7273 153.604 66.8125 153.358 66.983C153.114 67.151 152.924 67.389 152.786 67.6967C152.651 68.0021 152.584 68.3608 152.584 68.7727C152.584 69.1941 152.65 69.5611 152.783 69.8736C152.918 70.1861 153.107 70.4287 153.351 70.6016C153.597 70.7744 153.886 70.8608 154.217 70.8608C154.435 70.8608 154.633 70.8229 154.81 70.7472C154.988 70.6714 155.138 70.5625 155.261 70.4205C155.384 70.2784 155.472 70.108 155.524 69.9091H156.362C156.315 70.2311 156.198 70.5211 156.011 70.7791C155.826 71.0348 155.581 71.2384 155.276 71.3899C154.973 71.5391 154.62 71.6136 154.217 71.6136ZM159.96 66.0455V66.7557H157.133V66.0455H159.96ZM157.957 64.7386H158.795V69.9375C158.795 70.1742 158.829 70.3518 158.898 70.4702C158.969 70.5862 159.059 70.6643 159.168 70.7045C159.279 70.7424 159.396 70.7614 159.519 70.7614C159.612 70.7614 159.687 70.7566 159.746 70.7472C159.806 70.7353 159.853 70.7259 159.888 70.7188L160.059 71.4716C160.002 71.4929 159.923 71.5142 159.821 71.5355C159.719 71.5592 159.59 71.571 159.434 71.571C159.197 71.571 158.965 71.5201 158.738 71.4183C158.513 71.3165 158.326 71.1615 158.177 70.9531C158.03 70.7448 157.957 70.482 157.957 70.1648V64.7386ZM163.377 71.6136C162.885 71.6136 162.453 71.4964 162.081 71.2621C161.712 71.0277 161.423 70.6998 161.215 70.2784C161.009 69.857 160.906 69.3646 160.906 68.8011C160.906 68.233 161.009 67.737 161.215 67.3132C161.423 66.8894 161.712 66.5604 162.081 66.326C162.453 66.0916 162.885 65.9744 163.377 65.9744C163.87 65.9744 164.301 66.0916 164.67 66.326C165.042 66.5604 165.331 66.8894 165.537 67.3132C165.745 67.737 165.849 68.233 165.849 68.8011C165.849 69.3646 165.745 69.857 165.537 70.2784C165.331 70.6998 165.042 71.0277 164.67 71.2621C164.301 71.4964 163.87 71.6136 163.377 71.6136ZM163.377 70.8608C163.752 70.8608 164.059 70.7649 164.301 70.5732C164.542 70.3814 164.721 70.1293 164.837 69.8168C164.953 69.5043 165.011 69.1657 165.011 68.8011C165.011 68.4366 164.953 68.0968 164.837 67.782C164.721 67.4671 164.542 67.2126 164.301 67.0185C164.059 66.8243 163.752 66.7273 163.377 66.7273C163.003 66.7273 162.696 66.8243 162.454 67.0185C162.213 67.2126 162.034 67.4671 161.918 67.782C161.802 68.0968 161.744 68.4366 161.744 68.8011C161.744 69.1657 161.802 69.5043 161.918 69.8168C162.034 70.1293 162.213 70.3814 162.454 70.5732C162.696 70.7649 163.003 70.8608 163.377 70.8608ZM170.992 67.267L170.239 67.4801C170.192 67.3546 170.122 67.2327 170.03 67.1143C169.94 66.9936 169.817 66.8942 169.66 66.8161C169.504 66.7379 169.304 66.6989 169.06 66.6989C168.726 66.6989 168.448 66.7758 168.226 66.9297C168.006 67.0812 167.895 67.2741 167.895 67.5085C167.895 67.7169 167.971 67.8814 168.123 68.0021C168.274 68.1229 168.511 68.2235 168.833 68.304L169.643 68.5028C170.13 68.6212 170.494 68.8023 170.733 69.0462C170.972 69.2876 171.091 69.599 171.091 69.9801C171.091 70.2926 171.001 70.572 170.822 70.8182C170.644 71.0644 170.395 71.2585 170.076 71.4006C169.756 71.5426 169.385 71.6136 168.961 71.6136C168.404 71.6136 167.944 71.4929 167.579 71.2514C167.215 71.0099 166.984 70.6572 166.887 70.1932L167.682 69.9943C167.758 70.2879 167.901 70.508 168.112 70.6548C168.325 70.8016 168.603 70.875 168.947 70.875C169.337 70.875 169.647 70.7921 169.877 70.6264C170.109 70.4583 170.225 70.2571 170.225 70.0227C170.225 69.8333 170.159 69.6747 170.026 69.5469C169.894 69.4167 169.69 69.3196 169.415 69.2557L168.506 69.0426C168.007 68.9242 167.64 68.7408 167.405 68.4922C167.173 68.2412 167.057 67.9276 167.057 67.5511C167.057 67.2434 167.144 66.9711 167.317 66.7344C167.492 66.4976 167.73 66.3118 168.03 66.1768C168.333 66.0419 168.677 65.9744 169.06 65.9744C169.6 65.9744 170.024 66.0928 170.331 66.3295C170.642 66.5663 170.862 66.8788 170.992 67.267Z" fill="#CFD1DE"/>
<path d="M39.8645 44.4751C39.8645 43.5215 40.3178 42.6248 41.0857 42.0594L49.9775 35.5117L58.8694 42.0594C59.6372 42.6248 60.0906 43.5215 60.0906 44.4751V55.2604C60.0906 56.6411 58.9713 57.7604 57.5906 57.7604H54.0114C53.4592 57.7604 53.0114 57.3127 53.0114 56.7604V50.6756C53.0114 50.3995 52.7876 50.1756 52.5114 50.1756H47.4436C47.1675 50.1756 46.9436 50.3995 46.9436 50.6756V56.7604C46.9436 57.3127 46.4959 57.7604 45.9436 57.7604H42.3645C40.9838 57.7604 39.8645 56.6411 39.8645 55.2604V44.4751Z" stroke="#CFD1DE" stroke-width="2.02261" stroke-linecap="round" stroke-linejoin="round"/>
<path d="M36.9178 71.5V64.2273H37.7985V67.4659H41.6763V64.2273H42.557V71.5H41.6763V68.2472H37.7985V71.5H36.9178ZM46.4224 71.6136C45.93 71.6136 45.4979 71.4964 45.1262 71.2621C44.7569 71.0277 44.4681 70.6998 44.2598 70.2784C44.0538 69.857 43.9508 69.3646 43.9508 68.8011C43.9508 68.233 44.0538 67.737 44.2598 67.3132C44.4681 66.8894 44.7569 66.5604 45.1262 66.326C45.4979 66.0916 45.93 65.9744 46.4224 65.9744C46.9148 65.9744 47.3457 66.0916 47.715 66.326C48.0867 66.5604 48.3755 66.8894 48.5815 67.3132C48.7898 67.737 48.894 68.233 48.894 68.8011C48.894 69.3646 48.7898 69.857 48.5815 70.2784C48.3755 70.6998 48.0867 71.0277 47.715 71.2621C47.3457 71.4964 46.9148 71.6136 46.4224 71.6136ZM46.4224 70.8608C46.7965 70.8608 47.1042 70.7649 47.3457 70.5732C47.5872 70.3814 47.7659 70.1293 47.8819 69.8168C47.9979 69.5043 48.0559 69.1657 48.0559 68.8011C48.0559 68.4366 47.9979 68.0968 47.8819 67.782C47.7659 67.4671 47.5872 67.2126 47.3457 67.0185C47.1042 66.8243 46.7965 66.7273 46.4224 66.7273C46.0484 66.7273 45.7406 66.8243 45.4991 67.0185C45.2576 67.2126 45.0789 67.4671 44.9629 67.782C44.8469 68.0968 44.7889 68.4366 44.7889 68.8011C44.7889 69.1657 44.8469 69.5043 44.9629 69.8168C45.0789 70.1293 45.2576 70.3814 45.4991 70.5732C45.7406 70.7649 46.0484 70.8608 46.4224 70.8608ZM50.1733 71.5V66.0455H50.983V66.8977H51.054C51.1676 66.6065 51.3511 66.3804 51.6044 66.2195C51.8577 66.0561 52.1619 65.9744 52.517 65.9744C52.8769 65.9744 53.1764 66.0561 53.4155 66.2195C53.657 66.3804 53.8452 66.6065 53.9801 66.8977H54.0369C54.1766 66.616 54.3861 66.3923 54.6655 66.2266C54.9448 66.0585 55.2798 65.9744 55.6705 65.9744C56.1581 65.9744 56.5571 66.1271 56.8672 66.4325C57.1773 66.7356 57.3324 67.2079 57.3324 67.8494V71.5H56.4943V67.8494C56.4943 67.447 56.3842 67.1593 56.1641 66.9865C55.9439 66.8137 55.6847 66.7273 55.3864 66.7273C55.0028 66.7273 54.7057 66.8433 54.495 67.0753C54.2843 67.3049 54.179 67.5961 54.179 67.9489V71.5H53.3267V67.7642C53.3267 67.4541 53.2261 67.2043 53.0249 67.0149C52.8236 66.8232 52.5644 66.7273 52.2472 66.7273C52.0294 66.7273 51.8258 66.7853 51.6364 66.9013C51.4493 67.0173 51.2978 67.1783 51.1818 67.3842C51.0682 67.5878 51.0114 67.8234 51.0114 68.0909V71.5H50.1733ZM61.1516 71.6136C60.6261 71.6136 60.1727 71.4976 59.7915 71.2656C59.4128 71.0312 59.1204 70.7045 58.9144 70.2855C58.7108 69.8641 58.609 69.3741 58.609 68.8153C58.609 68.2566 58.7108 67.7642 58.9144 67.3381C59.1204 66.9096 59.4068 66.5758 59.7738 66.3366C60.1431 66.0952 60.574 65.9744 61.0664 65.9744C61.3505 65.9744 61.631 66.0218 61.908 66.1165C62.185 66.2112 62.4371 66.3651 62.6644 66.5781C62.8917 66.7888 63.0728 67.0682 63.2077 67.4162C63.3427 67.7642 63.4102 68.1927 63.4102 68.7017V69.0568H59.2056V68.3324H62.5579C62.5579 68.0246 62.4963 67.75 62.3732 67.5085C62.2525 67.267 62.0797 67.0765 61.8548 66.9368C61.6322 66.7971 61.3694 66.7273 61.0664 66.7273C60.7326 66.7273 60.4438 66.8101 60.1999 66.9759C59.9585 67.1392 59.7726 67.3523 59.6424 67.6151C59.5122 67.8778 59.4471 68.1596 59.4471 68.4602V68.9432C59.4471 69.3551 59.5181 69.7043 59.6602 69.9908C59.8046 70.2749 60.0046 70.4915 60.2603 70.6406C60.516 70.7874 60.8131 70.8608 61.1516 70.8608C61.3718 70.8608 61.5707 70.83 61.7482 70.7685C61.9281 70.7045 62.0832 70.6098 62.2134 70.4844C62.3436 70.3565 62.4442 70.1979 62.5153 70.0085L63.3249 70.2358C63.2397 70.5104 63.0965 70.7519 62.8952 70.9602C62.694 71.1662 62.4454 71.3272 62.1495 71.4432C61.8536 71.5568 61.521 71.6136 61.1516 71.6136Z" fill="#CFD1DE"/>
<path d="M227.762 71.5V64.2273H230.304C230.811 64.2273 231.229 64.3149 231.558 64.4901C231.887 64.6629 232.132 64.8961 232.293 65.1896C232.454 65.4808 232.534 65.804 232.534 66.1591C232.534 66.4716 232.479 66.7296 232.367 66.9332C232.258 67.1368 232.114 67.2978 231.934 67.4162C231.757 67.5346 231.564 67.6222 231.355 67.679V67.75C231.578 67.7642 231.802 67.8423 232.026 67.9844C232.251 68.1264 232.44 68.33 232.591 68.5952C232.743 68.8603 232.818 69.1847 232.818 69.5682C232.818 69.9328 232.735 70.2607 232.57 70.5518C232.404 70.843 232.142 71.0739 231.785 71.2443C231.427 71.4148 230.962 71.5 230.389 71.5H227.762ZM228.642 70.7188H230.389C230.965 70.7188 231.373 70.6075 231.615 70.3849C231.858 70.16 231.98 69.8878 231.98 69.5682C231.98 69.322 231.918 69.0947 231.792 68.8864C231.667 68.6757 231.488 68.5076 231.256 68.3821C231.024 68.2543 230.749 68.1903 230.432 68.1903H228.642V70.7188ZM228.642 67.4233H230.276C230.541 67.4233 230.78 67.3712 230.993 67.267C231.209 67.1629 231.379 67.0161 231.504 66.8267C231.632 66.6373 231.696 66.4148 231.696 66.1591C231.696 65.8395 231.585 65.5684 231.362 65.3459C231.14 65.121 230.787 65.0085 230.304 65.0085H228.642V67.4233ZM234.152 71.5V66.0455H234.99V71.5H234.152ZM234.578 65.1364C234.415 65.1364 234.274 65.0807 234.155 64.9695C234.039 64.8582 233.981 64.7244 233.981 64.5682C233.981 64.4119 234.039 64.2782 234.155 64.1669C234.274 64.0556 234.415 64 234.578 64C234.741 64 234.881 64.0556 234.997 64.1669C235.115 64.2782 235.175 64.4119 235.175 64.5682C235.175 64.7244 235.115 64.8582 234.997 64.9695C234.881 65.0807 234.741 65.1364 234.578 65.1364ZM237.363 64.2273V71.5H236.525V64.2273H237.363ZM239.736 64.2273V71.5H238.898V64.2273H239.736ZM243.558 71.6136C243.032 71.6136 242.579 71.4976 242.198 71.2656C241.819 71.0312 241.527 70.7045 241.321 70.2855C241.117 69.8641 241.015 69.3741 241.015 68.8153C241.015 68.2566 241.117 67.7642 241.321 67.3381C241.527 66.9096 241.813 66.5758 242.18 66.3366C242.549 66.0952 242.98 65.9744 243.473 65.9744C243.757 65.9744 244.037 66.0218 244.314 66.1165C244.591 66.2112 244.843 66.3651 245.071 66.5781C245.298 66.7888 245.479 67.0682 245.614 67.4162C245.749 67.7642 245.816 68.1927 245.816 68.7017V69.0568H241.612V68.3324H244.964C244.964 68.0246 244.903 67.75 244.779 67.5085C244.659 67.267 244.486 67.0765 244.261 66.9368C244.038 66.7971 243.776 66.7273 243.473 66.7273C243.139 66.7273 242.85 66.8101 242.606 66.9759C242.365 67.1392 242.179 67.3523 242.049 67.6151C241.918 67.8778 241.853 68.1596 241.853 68.4602V68.9432C241.853 69.3551 241.924 69.7043 242.066 69.9908C242.211 70.2749 242.411 70.4915 242.667 70.6406C242.922 70.7874 243.219 70.8608 243.558 70.8608C243.778 70.8608 243.977 70.83 244.154 70.7685C244.334 70.7045 244.489 70.6098 244.62 70.4844C244.75 70.3565 244.85 70.1979 244.922 70.0085L245.731 70.2358C245.646 70.5104 245.503 70.7519 245.301 70.9602C245.1 71.1662 244.852 71.3272 244.556 71.4432C244.26 71.5568 243.927 71.6136 243.558 71.6136ZM249.463 66.0455V66.7557H246.637V66.0455H249.463ZM247.461 64.7386H248.299V69.9375C248.299 70.1742 248.333 70.3518 248.402 70.4702C248.473 70.5862 248.563 70.6643 248.672 70.7045C248.783 70.7424 248.9 70.7614 249.023 70.7614C249.115 70.7614 249.191 70.7566 249.25 70.7472C249.31 70.7353 249.357 70.7259 249.392 70.7188L249.563 71.4716C249.506 71.4929 249.427 71.5142 249.325 71.5355C249.223 71.5592 249.094 71.571 248.938 71.571C248.701 71.571 248.469 71.5201 248.242 71.4183C248.017 71.3165 247.83 71.1615 247.681 70.9531C247.534 70.7448 247.461 70.482 247.461 70.1648V64.7386ZM252.952 71.6136C252.427 71.6136 251.973 71.4976 251.592 71.2656C251.214 71.0312 250.921 70.7045 250.715 70.2855C250.512 69.8641 250.41 69.3741 250.41 68.8153C250.41 68.2566 250.512 67.7642 250.715 67.3381C250.921 66.9096 251.208 66.5758 251.575 66.3366C251.944 66.0952 252.375 65.9744 252.867 65.9744C253.151 65.9744 253.432 66.0218 253.709 66.1165C253.986 66.2112 254.238 66.3651 254.465 66.5781C254.692 66.7888 254.874 67.0682 255.009 67.4162C255.143 67.7642 255.211 68.1927 255.211 68.7017V69.0568H251.006V68.3324H254.359C254.359 68.0246 254.297 67.75 254.174 67.5085C254.053 67.267 253.88 67.0765 253.656 66.9368C253.433 66.7971 253.17 66.7273 252.867 66.7273C252.533 66.7273 252.245 66.8101 252.001 66.9759C251.759 67.1392 251.573 67.3523 251.443 67.6151C251.313 67.8778 251.248 68.1596 251.248 68.4602V68.9432C251.248 69.3551 251.319 69.7043 251.461 69.9908C251.605 70.2749 251.805 70.4915 252.061 70.6406C252.317 70.7874 252.614 70.8608 252.952 70.8608C253.173 70.8608 253.371 70.83 253.549 70.7685C253.729 70.7045 253.884 70.6098 254.014 70.4844C254.144 70.3565 254.245 70.1979 254.316 70.0085L255.126 70.2358C255.04 70.5104 254.897 70.7519 254.696 70.9602C254.495 71.1662 254.246 71.3272 253.95 71.4432C253.654 71.5568 253.322 71.6136 252.952 71.6136ZM256.486 71.5V66.0455H257.295V66.8693H257.352C257.452 66.5994 257.632 66.3804 257.892 66.2124C258.152 66.0443 258.446 65.9602 258.773 65.9602C258.834 65.9602 258.911 65.9614 259.004 65.9638C259.096 65.9661 259.166 65.9697 259.213 65.9744V66.8267C259.185 66.8196 259.12 66.8089 259.018 66.7947C258.918 66.7782 258.813 66.7699 258.702 66.7699C258.437 66.7699 258.2 66.8255 257.991 66.9368C257.786 67.0457 257.622 67.1972 257.501 67.3913C257.383 67.5831 257.324 67.8021 257.324 68.0483V71.5H256.486ZM261.812 71.6278C261.466 71.6278 261.152 71.5627 260.871 71.4325C260.589 71.3 260.365 71.1094 260.199 70.8608C260.034 70.6098 259.951 70.3068 259.951 69.9517C259.951 69.6392 260.012 69.3859 260.135 69.1918C260.259 68.9953 260.423 68.8414 260.629 68.7301C260.835 68.6188 261.062 68.536 261.311 68.4815C261.562 68.4247 261.814 68.3797 262.067 68.3466C262.399 68.304 262.667 68.272 262.873 68.2507C263.082 68.227 263.233 68.188 263.328 68.1335C263.425 68.0791 263.474 67.9844 263.474 67.8494V67.821C263.474 67.4706 263.378 67.1984 263.186 67.0043C262.997 66.8101 262.709 66.7131 262.323 66.7131C261.923 66.7131 261.609 66.8007 261.382 66.9759C261.155 67.151 260.995 67.3381 260.903 67.5369L260.107 67.2528C260.249 66.9214 260.439 66.6634 260.675 66.4787C260.914 66.2917 261.175 66.1615 261.456 66.0881C261.741 66.0123 262.02 65.9744 262.295 65.9744C262.47 65.9744 262.671 65.9957 262.898 66.0384C263.128 66.0786 263.349 66.1626 263.562 66.2905C263.778 66.4183 263.956 66.6113 264.099 66.8693C264.241 67.1274 264.312 67.473 264.312 67.9062V71.5H263.474V70.7614H263.431C263.374 70.8797 263.279 71.0064 263.147 71.1413C263.014 71.2763 262.838 71.3911 262.618 71.4858C262.398 71.5805 262.129 71.6278 261.812 71.6278ZM261.939 70.875C262.271 70.875 262.55 70.8099 262.778 70.6797C263.007 70.5495 263.18 70.3814 263.296 70.1754C263.414 69.9695 263.474 69.7528 263.474 69.5256V68.7585C263.438 68.8011 263.36 68.8402 263.239 68.8757C263.121 68.9089 262.983 68.9384 262.827 68.9645C262.673 68.9882 262.523 69.0095 262.376 69.0284C262.232 69.045 262.115 69.0592 262.025 69.071C261.807 69.0994 261.603 69.1456 261.414 69.2095C261.227 69.2711 261.075 69.3646 260.959 69.4901C260.846 69.6132 260.789 69.7812 260.789 69.9943C260.789 70.2855 260.897 70.5057 261.112 70.6548C261.33 70.8016 261.606 70.875 261.939 70.875Z" fill="#CFD1DE"/>
<path d="M255.073 37.5449L237.916 37.5449C236.242 37.5449 234.886 38.9015 234.886 40.5749V54.741C234.886 56.4144 236.242 57.771 237.916 57.771H254.039C255.713 57.771 257.069 56.4144 257.069 54.741V44.5256C257.069 42.8522 255.713 41.4956 254.039 41.4956H237.39C236.274 41.4956 235.37 40.5913 235.37 39.4759V39.4759" stroke="#CFD1DE" stroke-width="2.02" stroke-linecap="round" stroke-linejoin="round"/>
<rect width="70" height="2" transform="matrix(1 0 0 -1 308.978 21.5)" fill="#55B3FF"/>
</g>
<defs>
<filter id="filter0_d_1733_30967" x="-12.1582" y="0.5" width="416" height="101" filterUnits="userSpaceOnUse" color-interpolation-filters="sRGB">
<feFlood flood-opacity="0" result="BackgroundImageFix"/>
<feColorMatrix in="SourceAlpha" type="matrix" values="0 0 0 0 0 0 0 0 0 0 0 0 0 0 0 0 0 0 127 0" result="hardAlpha"/>
<feOffset dy="-6"/>
<feGaussianBlur stdDeviation="6.5"/>
<feComposite in2="hardAlpha" operator="out"/>
<feColorMatrix type="matrix" values="0 0 0 0 0 0 0 0 0 0 0 0 0 0 0 0 0 0 0.04 0"/>
<feBlend mode="normal" in2="BackgroundImageFix" result="effect1_dropShadow_1733_30967"/>
<feBlend mode="normal" in="SourceGraphic" in2="effect1_dropShadow_1733_30967" result="shape"/>
</filter>
</defs>
</svg>
