<svg width="391" height="94" viewBox="0 0 391 94" fill="none" xmlns="http://www.w3.org/2000/svg">
<g filter="url(#filter0_d_1714_40717)">
<path d="M0.150391 19H390.15V94H0.150391V19Z" fill="white"/>
<path d="M335.185 55.7421L335.356 54.642C335.564 53.3011 336.439 52.1526 337.735 51.7511C339.345 51.2525 341.736 50.6855 344.286 50.6855C346.836 50.6855 349.228 51.2525 350.837 51.7511C352.134 52.1526 353.008 53.3011 353.217 54.642L353.388 55.7421" stroke="#CFD1DE" stroke-width="2.02261" stroke-linecap="round" stroke-linejoin="round"/>
<path d="M344.286 46.1365C347.079 46.1365 349.343 43.8726 349.343 41.08C349.343 38.2873 347.079 36.0234 344.286 36.0234C341.493 36.0234 339.229 38.2873 339.229 41.08C339.229 43.8726 341.493 46.1365 344.286 46.1365Z" stroke="#CFD1DE" stroke-width="2.02261" stroke-linecap="round" stroke-linejoin="round"/>
<path d="M331.906 71V63.7273H334.363C334.934 63.7273 335.4 63.8303 335.763 64.0362C336.127 64.2398 336.397 64.5156 336.572 64.8636C336.747 65.2116 336.835 65.5999 336.835 66.0284C336.835 66.4569 336.747 66.8464 336.572 67.1967C336.399 67.5471 336.132 67.8265 335.77 68.0348C335.407 68.2408 334.943 68.3438 334.378 68.3438H332.616V67.5625H334.349C334.74 67.5625 335.054 67.495 335.29 67.3601C335.527 67.2251 335.699 67.0429 335.805 66.8132C335.914 66.5812 335.969 66.3196 335.969 66.0284C335.969 65.7372 335.914 65.4768 335.805 65.2472C335.699 65.0175 335.526 64.8376 335.287 64.7074C335.048 64.5748 334.73 64.5085 334.335 64.5085H332.787V71H331.906ZM340.368 71.1136C339.843 71.1136 339.39 70.9976 339.008 70.7656C338.63 70.5312 338.337 70.2045 338.131 69.7855C337.928 69.3641 337.826 68.8741 337.826 68.3153C337.826 67.7566 337.928 67.2642 338.131 66.8381C338.337 66.4096 338.624 66.0758 338.991 65.8366C339.36 65.5952 339.791 65.4744 340.283 65.4744C340.567 65.4744 340.848 65.5218 341.125 65.6165C341.402 65.7112 341.654 65.8651 341.881 66.0781C342.108 66.2888 342.29 66.5682 342.425 66.9162C342.559 67.2642 342.627 67.6927 342.627 68.2017V68.5568H338.422V67.8324H341.775C341.775 67.5246 341.713 67.25 341.59 67.0085C341.469 66.767 341.296 66.5765 341.072 66.4368C340.849 66.2971 340.586 66.2273 340.283 66.2273C339.949 66.2273 339.661 66.3101 339.417 66.4759C339.175 66.6392 338.989 66.8523 338.859 67.1151C338.729 67.3778 338.664 67.6596 338.664 67.9602V68.4432C338.664 68.8551 338.735 69.2043 338.877 69.4908C339.021 69.7749 339.221 69.9915 339.477 70.1406C339.733 70.2874 340.03 70.3608 340.368 70.3608C340.589 70.3608 340.787 70.33 340.965 70.2685C341.145 70.2045 341.3 70.1098 341.43 69.9844C341.56 69.8565 341.661 69.6979 341.732 69.5085L342.542 69.7358C342.456 70.0104 342.313 70.2519 342.112 70.4602C341.911 70.6662 341.662 70.8272 341.366 70.9432C341.07 71.0568 340.738 71.1136 340.368 71.1136ZM343.902 71V65.5455H344.711V66.3693H344.768C344.868 66.0994 345.048 65.8804 345.308 65.7124C345.568 65.5443 345.862 65.4602 346.189 65.4602C346.25 65.4602 346.327 65.4614 346.42 65.4638C346.512 65.4661 346.582 65.4697 346.629 65.4744V66.3267C346.601 66.3196 346.536 66.3089 346.434 66.2947C346.334 66.2782 346.229 66.2699 346.118 66.2699C345.853 66.2699 345.616 66.3255 345.407 66.4368C345.202 66.5457 345.038 66.6972 344.917 66.8913C344.799 67.0831 344.74 67.3021 344.74 67.5483V71H343.902ZM350.393 65.5455V66.2557H347.453V65.5455H350.393ZM348.334 71V64.7926C348.334 64.4801 348.407 64.2197 348.554 64.0114C348.701 63.803 348.891 63.6468 349.126 63.5426C349.36 63.4384 349.607 63.3864 349.868 63.3864C350.074 63.3864 350.242 63.4029 350.372 63.4361C350.502 63.4692 350.599 63.5 350.663 63.5284L350.422 64.2528C350.379 64.2386 350.32 64.2209 350.244 64.1996C350.171 64.1783 350.074 64.1676 349.953 64.1676C349.676 64.1676 349.476 64.2375 349.353 64.3771C349.232 64.5168 349.172 64.7216 349.172 64.9915V71H348.334ZM351.568 71V65.5455H352.406V71H351.568ZM351.994 64.6364C351.831 64.6364 351.69 64.5807 351.571 64.4695C351.455 64.3582 351.397 64.2244 351.397 64.0682C351.397 63.9119 351.455 63.7782 351.571 63.6669C351.69 63.5556 351.831 63.5 351.994 63.5C352.157 63.5 352.297 63.5556 352.413 63.6669C352.531 63.7782 352.591 63.9119 352.591 64.0682C352.591 64.2244 352.531 64.3582 352.413 64.4695C352.297 64.5807 352.157 64.6364 351.994 64.6364ZM354.779 63.7273V71H353.941V63.7273H354.779Z" fill="#CFD1DE"/>
<path d="M142.23 37.0332H141.218C139.543 37.0332 138.185 38.3915 138.185 40.0671V54.2254C138.185 55.9009 139.543 57.2593 141.218 57.2593H153.354C155.03 57.2593 156.388 55.9009 156.388 54.2254V40.0671C156.388 38.3915 155.03 37.0332 153.354 37.0332H152.343" stroke="#CFD1DE" stroke-width="2.02261"/>
<rect x="142.229" y="35.0117" width="10.113" height="5.05651" rx="2.02261" stroke="#CFD1DE" stroke-width="2.02261"/>
<path d="M124.558 71V63.7273H127.016C127.586 63.7273 128.053 63.8303 128.415 64.0362C128.78 64.2398 129.049 64.5156 129.225 64.8636C129.4 65.2116 129.487 65.5999 129.487 66.0284C129.487 66.4569 129.4 66.8464 129.225 67.1967C129.052 67.5471 128.784 67.8265 128.422 68.0348C128.06 68.2408 127.596 68.3438 127.03 68.3438H125.269V67.5625H127.002C127.392 67.5625 127.706 67.495 127.943 67.3601C128.179 67.2251 128.351 67.0429 128.458 66.8132C128.566 66.5812 128.621 66.3196 128.621 66.0284C128.621 65.7372 128.566 65.4768 128.458 65.2472C128.351 65.0175 128.178 64.8376 127.939 64.7074C127.7 64.5748 127.383 64.5085 126.987 64.5085H125.439V71H124.558ZM130.792 71V65.5455H131.602V66.3693H131.659C131.758 66.0994 131.938 65.8804 132.199 65.7124C132.459 65.5443 132.753 65.4602 133.079 65.4602C133.141 65.4602 133.218 65.4614 133.31 65.4638C133.403 65.4661 133.472 65.4697 133.52 65.4744V66.3267C133.491 66.3196 133.426 66.3089 133.324 66.2947C133.225 66.2782 133.12 66.2699 133.008 66.2699C132.743 66.2699 132.506 66.3255 132.298 66.4368C132.092 66.5457 131.929 66.6972 131.808 66.8913C131.69 67.0831 131.631 67.3021 131.631 67.5483V71H130.792ZM136.563 71.1136C136.071 71.1136 135.639 70.9964 135.267 70.7621C134.898 70.5277 134.609 70.1998 134.4 69.7784C134.194 69.357 134.091 68.8646 134.091 68.3011C134.091 67.733 134.194 67.237 134.4 66.8132C134.609 66.3894 134.898 66.0604 135.267 65.826C135.639 65.5916 136.071 65.4744 136.563 65.4744C137.055 65.4744 137.486 65.5916 137.856 65.826C138.227 66.0604 138.516 66.3894 138.722 66.8132C138.93 67.237 139.035 67.733 139.035 68.3011C139.035 68.8646 138.93 69.357 138.722 69.7784C138.516 70.1998 138.227 70.5277 137.856 70.7621C137.486 70.9964 137.055 71.1136 136.563 71.1136ZM136.563 70.3608C136.937 70.3608 137.245 70.2649 137.486 70.0732C137.728 69.8814 137.907 69.6293 138.023 69.3168C138.139 69.0043 138.197 68.6657 138.197 68.3011C138.197 67.9366 138.139 67.5968 138.023 67.282C137.907 66.9671 137.728 66.7126 137.486 66.5185C137.245 66.3243 136.937 66.2273 136.563 66.2273C136.189 66.2273 135.881 66.3243 135.64 66.5185C135.398 66.7126 135.22 66.9671 135.104 67.282C134.988 67.5968 134.93 67.9366 134.93 68.3011C134.93 68.6657 134.988 69.0043 135.104 69.3168C135.22 69.6293 135.398 69.8814 135.64 70.0732C135.881 70.2649 136.189 70.3608 136.563 70.3608ZM140.658 73.0455C140.516 73.0455 140.39 73.0336 140.278 73.0099C140.167 72.9886 140.09 72.9673 140.048 72.946L140.261 72.2074C140.464 72.2595 140.644 72.2784 140.8 72.2642C140.957 72.25 141.095 72.1802 141.216 72.0547C141.339 71.9316 141.451 71.7315 141.553 71.4545L141.71 71.0284L139.692 65.5455H140.602L142.107 69.892H142.164L143.67 65.5455H144.579L142.263 71.7955C142.159 72.0772 142.03 72.3104 141.876 72.495C141.723 72.6821 141.544 72.8205 141.34 72.9105C141.139 73.0005 140.912 73.0455 140.658 73.0455ZM147.777 71.1136C147.251 71.1136 146.798 70.9976 146.417 70.7656C146.038 70.5312 145.745 70.2045 145.539 69.7855C145.336 69.3641 145.234 68.8741 145.234 68.3153C145.234 67.7566 145.336 67.2642 145.539 66.8381C145.745 66.4096 146.032 66.0758 146.399 65.8366C146.768 65.5952 147.199 65.4744 147.691 65.4744C147.975 65.4744 148.256 65.5218 148.533 65.6165C148.81 65.7112 149.062 65.8651 149.289 66.0781C149.517 66.2888 149.698 66.5682 149.833 66.9162C149.968 67.2642 150.035 67.6927 150.035 68.2017V68.5568H145.831V67.8324H149.183C149.183 67.5246 149.121 67.25 148.998 67.0085C148.877 66.767 148.705 66.5765 148.48 66.4368C148.257 66.2971 147.994 66.2273 147.691 66.2273C147.358 66.2273 147.069 66.3101 146.825 66.4759C146.583 66.6392 146.398 66.8523 146.267 67.1151C146.137 67.3778 146.072 67.6596 146.072 67.9602V68.4432C146.072 68.8551 146.143 69.2043 146.285 69.4908C146.43 69.7749 146.63 69.9915 146.885 70.1406C147.141 70.2874 147.438 70.3608 147.777 70.3608C147.997 70.3608 148.196 70.33 148.373 70.2685C148.553 70.2045 148.708 70.1098 148.838 69.9844C148.969 69.8565 149.069 69.6979 149.14 69.5085L149.95 69.7358C149.865 70.0104 149.721 70.2519 149.52 70.4602C149.319 70.6662 149.07 70.8272 148.775 70.9432C148.479 71.0568 148.146 71.1136 147.777 71.1136ZM153.526 71.1136C153.015 71.1136 152.574 70.9929 152.205 70.7514C151.836 70.5099 151.551 70.1773 151.353 69.7536C151.154 69.3298 151.054 68.8456 151.054 68.3011C151.054 67.7472 151.156 67.2583 151.36 66.8345C151.566 66.4084 151.852 66.0758 152.219 65.8366C152.588 65.5952 153.019 65.4744 153.512 65.4744C153.895 65.4744 154.241 65.5455 154.549 65.6875C154.856 65.8295 155.109 66.0284 155.305 66.2841C155.502 66.5398 155.623 66.8381 155.671 67.179H154.833C154.769 66.9304 154.627 66.7102 154.407 66.5185C154.189 66.3243 153.895 66.2273 153.526 66.2273C153.199 66.2273 152.913 66.3125 152.667 66.483C152.423 66.651 152.232 66.889 152.095 67.1967C151.96 67.5021 151.892 67.8608 151.892 68.2727C151.892 68.6941 151.959 69.0611 152.091 69.3736C152.226 69.6861 152.416 69.9287 152.659 70.1016C152.906 70.2744 153.194 70.3608 153.526 70.3608C153.744 70.3608 153.941 70.3229 154.119 70.2472C154.297 70.1714 154.447 70.0625 154.57 69.9205C154.693 69.7784 154.781 69.608 154.833 69.4091H155.671C155.623 69.7311 155.506 70.0211 155.319 70.2791C155.135 70.5348 154.89 70.7384 154.584 70.8899C154.281 71.0391 153.928 71.1136 153.526 71.1136ZM159.268 65.5455V66.2557H156.441V65.5455H159.268ZM157.265 64.2386H158.103V69.4375C158.103 69.6742 158.138 69.8518 158.206 69.9702C158.277 70.0862 158.367 70.1643 158.476 70.2045C158.587 70.2424 158.705 70.2614 158.828 70.2614C158.92 70.2614 158.996 70.2566 159.055 70.2472C159.114 70.2353 159.162 70.2259 159.197 70.2188L159.368 70.9716C159.311 70.9929 159.231 71.0142 159.13 71.0355C159.028 71.0592 158.899 71.071 158.743 71.071C158.506 71.071 158.274 71.0201 158.047 70.9183C157.822 70.8165 157.635 70.6615 157.485 70.4531C157.339 70.2448 157.265 69.982 157.265 69.6648V64.2386ZM162.686 71.1136C162.194 71.1136 161.762 70.9964 161.39 70.7621C161.021 70.5277 160.732 70.1998 160.523 69.7784C160.317 69.357 160.214 68.8646 160.214 68.3011C160.214 67.733 160.317 67.237 160.523 66.8132C160.732 66.3894 161.021 66.0604 161.39 65.826C161.762 65.5916 162.194 65.4744 162.686 65.4744C163.179 65.4744 163.609 65.5916 163.979 65.826C164.35 66.0604 164.639 66.3894 164.845 66.8132C165.054 67.237 165.158 67.733 165.158 68.3011C165.158 68.8646 165.054 69.357 164.845 69.7784C164.639 70.1998 164.35 70.5277 163.979 70.7621C163.609 70.9964 163.179 71.1136 162.686 71.1136ZM162.686 70.3608C163.06 70.3608 163.368 70.2649 163.609 70.0732C163.851 69.8814 164.03 69.6293 164.146 69.3168C164.262 69.0043 164.32 68.6657 164.32 68.3011C164.32 67.9366 164.262 67.5968 164.146 67.282C164.03 66.9671 163.851 66.7126 163.609 66.5185C163.368 66.3243 163.06 66.2273 162.686 66.2273C162.312 66.2273 162.004 66.3243 161.763 66.5185C161.521 66.7126 161.343 66.9671 161.227 67.282C161.111 67.5968 161.053 67.9366 161.053 68.3011C161.053 68.6657 161.111 69.0043 161.227 69.3168C161.343 69.6293 161.521 69.8814 161.763 70.0732C162.004 70.2649 162.312 70.3608 162.686 70.3608ZM170.301 66.767L169.548 66.9801C169.5 66.8546 169.431 66.7327 169.338 66.6143C169.248 66.4936 169.125 66.3942 168.969 66.3161C168.813 66.2379 168.613 66.1989 168.369 66.1989C168.035 66.1989 167.757 66.2758 167.534 66.4297C167.314 66.5812 167.204 66.7741 167.204 67.0085C167.204 67.2169 167.28 67.3814 167.431 67.5021C167.583 67.6229 167.82 67.7235 168.142 67.804L168.951 68.0028C169.439 68.1212 169.802 68.3023 170.041 68.5462C170.28 68.7876 170.4 69.099 170.4 69.4801C170.4 69.7926 170.31 70.072 170.13 70.3182C169.953 70.5644 169.704 70.7585 169.384 70.9006C169.065 71.0426 168.693 71.1136 168.269 71.1136C167.713 71.1136 167.253 70.9929 166.888 70.7514C166.523 70.5099 166.293 70.1572 166.195 69.6932L166.991 69.4943C167.067 69.7879 167.21 70.008 167.421 70.1548C167.634 70.3016 167.912 70.375 168.255 70.375C168.646 70.375 168.956 70.2921 169.186 70.1264C169.418 69.9583 169.534 69.7571 169.534 69.5227C169.534 69.3333 169.467 69.1747 169.335 69.0469C169.202 68.9167 168.999 68.8196 168.724 68.7557L167.815 68.5426C167.315 68.4242 166.948 68.2408 166.714 67.9922C166.482 67.7412 166.366 67.4276 166.366 67.0511C166.366 66.7434 166.452 66.4711 166.625 66.2344C166.8 65.9976 167.038 65.8118 167.339 65.6768C167.642 65.5419 167.985 65.4744 168.369 65.4744C168.909 65.4744 169.332 65.5928 169.64 65.8295C169.95 66.0663 170.17 66.3788 170.301 66.767Z" fill="#CFD1DE"/>
<path d="M39.1729 43.9751C39.1729 43.0215 39.6262 42.1248 40.394 41.5594L49.2859 35.0117L58.1778 41.5594C58.9456 42.1248 59.3989 43.0215 59.3989 43.9751V54.7604C59.3989 56.1411 58.2796 57.2604 56.8989 57.2604H53.3198C52.7675 57.2604 52.3198 56.8127 52.3198 56.2604V50.1756C52.3198 49.8995 52.0959 49.6756 51.8198 49.6756H46.752C46.4758 49.6756 46.252 49.8995 46.252 50.1756V56.2604C46.252 56.8127 45.8043 57.2604 45.252 57.2604H41.6729C40.2921 57.2604 39.1729 56.1411 39.1729 54.7604V43.9751Z" stroke="#CFD1DE" stroke-width="2.02261" stroke-linecap="round" stroke-linejoin="round"/>
<path d="M36.2264 71V63.7273H37.1071V66.9659H40.9849V63.7273H41.8656V71H40.9849V67.7472H37.1071V71H36.2264ZM45.731 71.1136C45.2386 71.1136 44.8065 70.9964 44.4348 70.7621C44.0655 70.5277 43.7767 70.1998 43.5684 69.7784C43.3624 69.357 43.2594 68.8646 43.2594 68.3011C43.2594 67.733 43.3624 67.237 43.5684 66.8132C43.7767 66.3894 44.0655 66.0604 44.4348 65.826C44.8065 65.5916 45.2386 65.4744 45.731 65.4744C46.2234 65.4744 46.6543 65.5916 47.0236 65.826C47.3953 66.0604 47.6841 66.3894 47.8901 66.8132C48.0984 67.237 48.2026 67.733 48.2026 68.3011C48.2026 68.8646 48.0984 69.357 47.8901 69.7784C47.6841 70.1998 47.3953 70.5277 47.0236 70.7621C46.6543 70.9964 46.2234 71.1136 45.731 71.1136ZM45.731 70.3608C46.1051 70.3608 46.4128 70.2649 46.6543 70.0732C46.8958 69.8814 47.0745 69.6293 47.1905 69.3168C47.3065 69.0043 47.3645 68.6657 47.3645 68.3011C47.3645 67.9366 47.3065 67.5968 47.1905 67.282C47.0745 66.9671 46.8958 66.7126 46.6543 66.5185C46.4128 66.3243 46.1051 66.2273 45.731 66.2273C45.3569 66.2273 45.0492 66.3243 44.8077 66.5185C44.5662 66.7126 44.3875 66.9671 44.2715 67.282C44.1555 67.5968 44.0975 67.9366 44.0975 68.3011C44.0975 68.6657 44.1555 69.0043 44.2715 69.3168C44.3875 69.6293 44.5662 69.8814 44.8077 70.0732C45.0492 70.2649 45.3569 70.3608 45.731 70.3608ZM49.4819 71V65.5455H50.2915V66.3977H50.3626C50.4762 66.1065 50.6597 65.8804 50.913 65.7195C51.1663 65.5561 51.4705 65.4744 51.8256 65.4744C52.1855 65.4744 52.485 65.5561 52.7241 65.7195C52.9656 65.8804 53.1538 66.1065 53.2887 66.3977H53.3455C53.4852 66.116 53.6947 65.8923 53.9741 65.7266C54.2534 65.5585 54.5884 65.4744 54.979 65.4744C55.4667 65.4744 55.8656 65.6271 56.1758 65.9325C56.4859 66.2356 56.641 66.7079 56.641 67.3494V71H55.8029V67.3494C55.8029 66.947 55.6928 66.6593 55.4727 66.4865C55.2525 66.3137 54.9933 66.2273 54.695 66.2273C54.3114 66.2273 54.0143 66.3433 53.8036 66.5753C53.5929 66.8049 53.4876 67.0961 53.4876 67.4489V71H52.6353V67.2642C52.6353 66.9541 52.5347 66.7043 52.3335 66.5149C52.1322 66.3232 51.873 66.2273 51.5558 66.2273C51.3379 66.2273 51.1344 66.2853 50.945 66.4013C50.7579 66.5173 50.6064 66.6783 50.4904 66.8842C50.3768 67.0878 50.32 67.3234 50.32 67.5909V71H49.4819ZM60.4602 71.1136C59.9347 71.1136 59.4813 70.9976 59.1001 70.7656C58.7214 70.5312 58.429 70.2045 58.223 69.7855C58.0194 69.3641 57.9176 68.8741 57.9176 68.3153C57.9176 67.7566 58.0194 67.2642 58.223 66.8381C58.429 66.4096 58.7154 66.0758 59.0824 65.8366C59.4517 65.5952 59.8826 65.4744 60.375 65.4744C60.6591 65.4744 60.9396 65.5218 61.2166 65.6165C61.4936 65.7112 61.7457 65.8651 61.973 66.0781C62.2003 66.2888 62.3814 66.5682 62.5163 66.9162C62.6513 67.2642 62.7188 67.6927 62.7188 68.2017V68.5568H58.5142V67.8324H61.8665C61.8665 67.5246 61.8049 67.25 61.6818 67.0085C61.5611 66.767 61.3883 66.5765 61.1634 66.4368C60.9408 66.2971 60.678 66.2273 60.375 66.2273C60.0412 66.2273 59.7524 66.3101 59.5085 66.4759C59.267 66.6392 59.0812 66.8523 58.951 67.1151C58.8208 67.3778 58.7557 67.6596 58.7557 67.9602V68.4432C58.7557 68.8551 58.8267 69.2043 58.9688 69.4908C59.1132 69.7749 59.3132 69.9915 59.5689 70.1406C59.8246 70.2874 60.1217 70.3608 60.4602 70.3608C60.6804 70.3608 60.8793 70.33 61.0568 70.2685C61.2367 70.2045 61.3918 70.1098 61.522 69.9844C61.6522 69.8565 61.7528 69.6979 61.8239 69.5085L62.6335 69.7358C62.5483 70.0104 62.4051 70.2519 62.2038 70.4602C62.0026 70.6662 61.754 70.8272 61.4581 70.9432C61.1622 71.0568 60.8295 71.1136 60.4602 71.1136Z" fill="#CFD1DE"/>
<path d="M227.07 71V63.7273H229.613C230.119 63.7273 230.537 63.8149 230.866 63.9901C231.195 64.1629 231.44 64.3961 231.601 64.6896C231.762 64.9808 231.843 65.304 231.843 65.6591C231.843 65.9716 231.787 66.2296 231.676 66.4332C231.567 66.6368 231.423 66.7978 231.243 66.9162C231.065 67.0346 230.872 67.1222 230.664 67.179V67.25C230.886 67.2642 231.11 67.3423 231.335 67.4844C231.56 67.6264 231.748 67.83 231.9 68.0952C232.051 68.3603 232.127 68.6847 232.127 69.0682C232.127 69.4328 232.044 69.7607 231.878 70.0518C231.713 70.343 231.451 70.5739 231.094 70.7443C230.736 70.9148 230.271 71 229.698 71H227.07ZM227.951 70.2188H229.698C230.273 70.2188 230.682 70.1075 230.923 69.8849C231.167 69.66 231.289 69.3878 231.289 69.0682C231.289 68.822 231.226 68.5947 231.101 68.3864C230.975 68.1757 230.796 68.0076 230.564 67.8821C230.332 67.7543 230.058 67.6903 229.741 67.6903H227.951V70.2188ZM227.951 66.9233H229.584C229.849 66.9233 230.089 66.8712 230.302 66.767C230.517 66.6629 230.688 66.5161 230.813 66.3267C230.941 66.1373 231.005 65.9148 231.005 65.6591C231.005 65.3395 230.894 65.0684 230.671 64.8459C230.448 64.621 230.096 64.5085 229.613 64.5085H227.951V66.9233ZM233.46 71V65.5455H234.298V71H233.46ZM233.887 64.6364C233.723 64.6364 233.582 64.5807 233.464 64.4695C233.348 64.3582 233.29 64.2244 233.29 64.0682C233.29 63.9119 233.348 63.7782 233.464 63.6669C233.582 63.5556 233.723 63.5 233.887 63.5C234.05 63.5 234.19 63.5556 234.306 63.6669C234.424 63.7782 234.483 63.9119 234.483 64.0682C234.483 64.2244 234.424 64.3582 234.306 64.4695C234.19 64.5807 234.05 64.6364 233.887 64.6364ZM236.672 63.7273V71H235.833V63.7273H236.672ZM239.045 63.7273V71H238.206V63.7273H239.045ZM242.866 71.1136C242.341 71.1136 241.888 70.9976 241.506 70.7656C241.128 70.5312 240.835 70.2045 240.629 69.7855C240.426 69.3641 240.324 68.8741 240.324 68.3153C240.324 67.7566 240.426 67.2642 240.629 66.8381C240.835 66.4096 241.122 66.0758 241.489 65.8366C241.858 65.5952 242.289 65.4744 242.781 65.4744C243.065 65.4744 243.346 65.5218 243.623 65.6165C243.9 65.7112 244.152 65.8651 244.379 66.0781C244.607 66.2888 244.788 66.5682 244.923 66.9162C245.058 67.2642 245.125 67.6927 245.125 68.2017V68.5568H240.92V67.8324H244.273C244.273 67.5246 244.211 67.25 244.088 67.0085C243.967 66.767 243.795 66.5765 243.57 66.4368C243.347 66.2971 243.084 66.2273 242.781 66.2273C242.447 66.2273 242.159 66.3101 241.915 66.4759C241.673 66.6392 241.487 66.8523 241.357 67.1151C241.227 67.3778 241.162 67.6596 241.162 67.9602V68.4432C241.162 68.8551 241.233 69.2043 241.375 69.4908C241.519 69.7749 241.719 69.9915 241.975 70.1406C242.231 70.2874 242.528 70.3608 242.866 70.3608C243.087 70.3608 243.286 70.33 243.463 70.2685C243.643 70.2045 243.798 70.1098 243.928 69.9844C244.058 69.8565 244.159 69.6979 244.23 69.5085L245.04 69.7358C244.955 70.0104 244.811 70.2519 244.61 70.4602C244.409 70.6662 244.16 70.8272 243.864 70.9432C243.568 71.0568 243.236 71.1136 242.866 71.1136ZM248.772 65.5455V66.2557H245.945V65.5455H248.772ZM246.769 64.2386H247.607V69.4375C247.607 69.6742 247.642 69.8518 247.71 69.9702C247.781 70.0862 247.871 70.1643 247.98 70.2045C248.091 70.2424 248.209 70.2614 248.332 70.2614C248.424 70.2614 248.5 70.2566 248.559 70.2472C248.618 70.2353 248.665 70.2259 248.701 70.2188L248.871 70.9716C248.815 70.9929 248.735 71.0142 248.634 71.0355C248.532 71.0592 248.403 71.071 248.246 71.071C248.01 71.071 247.778 71.0201 247.55 70.9183C247.326 70.8165 247.138 70.6615 246.989 70.4531C246.843 70.2448 246.769 69.982 246.769 69.6648V64.2386ZM252.261 71.1136C251.735 71.1136 251.282 70.9976 250.901 70.7656C250.522 70.5312 250.23 70.2045 250.024 69.7855C249.82 69.3641 249.718 68.8741 249.718 68.3153C249.718 67.7566 249.82 67.2642 250.024 66.8381C250.23 66.4096 250.516 66.0758 250.883 65.8366C251.252 65.5952 251.683 65.4744 252.176 65.4744C252.46 65.4744 252.74 65.5218 253.017 65.6165C253.294 65.7112 253.547 65.8651 253.774 66.0781C254.001 66.2888 254.182 66.5682 254.317 66.9162C254.452 67.2642 254.52 67.6927 254.52 68.2017V68.5568H250.315V67.8324H253.667C253.667 67.5246 253.606 67.25 253.483 67.0085C253.362 66.767 253.189 66.5765 252.964 66.4368C252.742 66.2971 252.479 66.2273 252.176 66.2273C251.842 66.2273 251.553 66.3101 251.309 66.4759C251.068 66.6392 250.882 66.8523 250.752 67.1151C250.622 67.3778 250.556 67.6596 250.556 67.9602V68.4432C250.556 68.8551 250.627 69.2043 250.77 69.4908C250.914 69.7749 251.114 69.9915 251.37 70.1406C251.625 70.2874 251.922 70.3608 252.261 70.3608C252.481 70.3608 252.68 70.33 252.858 70.2685C253.038 70.2045 253.193 70.1098 253.323 69.9844C253.453 69.8565 253.554 69.6979 253.625 69.5085L254.434 69.7358C254.349 70.0104 254.206 70.2519 254.005 70.4602C253.803 70.6662 253.555 70.8272 253.259 70.9432C252.963 71.0568 252.63 71.1136 252.261 71.1136ZM255.794 71V65.5455H256.604V66.3693H256.661C256.76 66.0994 256.94 65.8804 257.201 65.7124C257.461 65.5443 257.755 65.4602 258.081 65.4602C258.143 65.4602 258.22 65.4614 258.312 65.4638C258.404 65.4661 258.474 65.4697 258.522 65.4744V66.3267C258.493 66.3196 258.428 66.3089 258.326 66.2947C258.227 66.2782 258.122 66.2699 258.01 66.2699C257.745 66.2699 257.508 66.3255 257.3 66.4368C257.094 66.5457 256.931 66.6972 256.81 66.8913C256.692 67.0831 256.632 67.3021 256.632 67.5483V71H255.794ZM261.12 71.1278C260.775 71.1278 260.461 71.0627 260.179 70.9325C259.897 70.8 259.674 70.6094 259.508 70.3608C259.342 70.1098 259.259 69.8068 259.259 69.4517C259.259 69.1392 259.321 68.8859 259.444 68.6918C259.567 68.4953 259.732 68.3414 259.938 68.2301C260.144 68.1188 260.371 68.036 260.619 67.9815C260.87 67.9247 261.123 67.8797 261.376 67.8466C261.707 67.804 261.976 67.772 262.182 67.7507C262.39 67.727 262.542 67.688 262.637 67.6335C262.734 67.5791 262.782 67.4844 262.782 67.3494V67.321C262.782 66.9706 262.686 66.6984 262.494 66.5043C262.305 66.3101 262.017 66.2131 261.632 66.2131C261.231 66.2131 260.918 66.3007 260.691 66.4759C260.463 66.651 260.303 66.8381 260.211 67.0369L259.416 66.7528C259.558 66.4214 259.747 66.1634 259.984 65.9787C260.223 65.7917 260.483 65.6615 260.765 65.5881C261.049 65.5123 261.329 65.4744 261.603 65.4744C261.778 65.4744 261.98 65.4957 262.207 65.5384C262.436 65.5786 262.658 65.6626 262.871 65.7905C263.086 65.9183 263.265 66.1113 263.407 66.3693C263.549 66.6274 263.62 66.973 263.62 67.4062V71H262.782V70.2614H262.74C262.683 70.3797 262.588 70.5064 262.455 70.6413C262.323 70.7763 262.146 70.8911 261.926 70.9858C261.706 71.0805 261.437 71.1278 261.12 71.1278ZM261.248 70.375C261.579 70.375 261.859 70.3099 262.086 70.1797C262.316 70.0495 262.489 69.8814 262.605 69.6754C262.723 69.4695 262.782 69.2528 262.782 69.0256V68.2585C262.747 68.3011 262.669 68.3402 262.548 68.3757C262.429 68.4089 262.292 68.4384 262.136 68.4645C261.982 68.4882 261.832 68.5095 261.685 68.5284C261.54 68.545 261.423 68.5592 261.333 68.571C261.115 68.5994 260.912 68.6456 260.722 68.7095C260.535 68.7711 260.384 68.8646 260.268 68.9901C260.154 69.1132 260.097 69.2812 260.097 69.4943C260.097 69.7855 260.205 70.0057 260.421 70.1548C260.638 70.3016 260.914 70.375 261.248 70.375Z" fill="#389BEC"/>
<path d="M254.382 38.0549C254.939 38.0549 255.392 37.6027 255.392 37.0449C255.392 36.4871 254.939 36.0349 254.382 36.0349V38.0549ZM235.689 38.9759C235.689 38.4181 235.236 37.9659 234.679 37.9659C234.121 37.9659 233.669 38.4181 233.669 38.9759H235.689ZM237.224 38.0549H254.382V36.0349H237.224V38.0549ZM253.348 56.261H237.224V58.281H253.348V56.261ZM235.204 54.241V40.0749H233.184V54.241H235.204ZM236.698 42.0056H253.348V39.9856H236.698V42.0056ZM255.368 44.0256V54.241H257.388V44.0256H255.368ZM236.698 39.9856C236.141 39.9856 235.689 39.5335 235.689 38.9759H233.669C233.669 40.6492 235.025 42.0056 236.698 42.0056V39.9856ZM237.224 56.261C236.109 56.261 235.204 55.3566 235.204 54.241H233.184C233.184 56.4722 234.993 58.281 237.224 58.281V56.261ZM253.348 58.281C255.579 58.281 257.388 56.4722 257.388 54.241H255.368C255.368 55.3566 254.463 56.261 253.348 56.261V58.281ZM253.348 42.0056C254.463 42.0056 255.368 42.91 255.368 44.0256H257.388C257.388 41.7944 255.579 39.9856 253.348 39.9856V42.0056ZM237.224 36.0349C234.993 36.0349 233.184 37.8437 233.184 40.0749H235.204C235.204 38.9593 236.109 38.0549 237.224 38.0549V36.0349Z" fill="#87C9FF"/>
<rect width="70" height="2" transform="matrix(1 0 0 -1 210.286 21)" fill="#55B3FF"/>
</g>
<defs>
<filter id="filter0_d_1714_40717" x="-12.8496" y="0" width="416" height="101" filterUnits="userSpaceOnUse" color-interpolation-filters="sRGB">
<feFlood flood-opacity="0" result="BackgroundImageFix"/>
<feColorMatrix in="SourceAlpha" type="matrix" values="0 0 0 0 0 0 0 0 0 0 0 0 0 0 0 0 0 0 127 0" result="hardAlpha"/>
<feOffset dy="-6"/>
<feGaussianBlur stdDeviation="6.5"/>
<feComposite in2="hardAlpha" operator="out"/>
<feColorMatrix type="matrix" values="0 0 0 0 0 0 0 0 0 0 0 0 0 0 0 0 0 0 0.04 0"/>
<feBlend mode="normal" in2="BackgroundImageFix" result="effect1_dropShadow_1714_40717"/>
<feBlend mode="normal" in="SourceGraphic" in2="effect1_dropShadow_1714_40717" result="shape"/>
</filter>
</defs>
</svg>
