<svg width="390" height="94" viewBox="0 0 390 94" fill="none" xmlns="http://www.w3.org/2000/svg">
<g filter="url(#filter0_d_1714_38254)">
<path d="M0 19.5H390V94.5H0V19.5Z" fill="white"/>
<path d="M335.034 56.244L335.201 55.1682C335.412 53.8122 336.296 52.6507 337.608 52.246C339.217 51.7491 341.598 51.1875 344.136 51.1875C346.674 51.1875 349.054 51.7491 350.664 52.246C351.975 52.6507 352.859 53.8122 353.07 55.1682L353.237 56.244" stroke="#CFD1DE" stroke-width="2.02261" stroke-linecap="round" stroke-linejoin="round"/>
<path d="M344.136 46.6365C346.928 46.6365 349.192 44.3726 349.192 41.58C349.192 38.7873 346.928 36.5234 344.136 36.5234C341.343 36.5234 339.079 38.7873 339.079 41.58C339.079 44.3726 341.343 46.6365 344.136 46.6365Z" stroke="#CFD1DE" stroke-width="2.02261" stroke-linecap="round" stroke-linejoin="round"/>
<path d="M331.756 71.5V64.2273H334.213C334.784 64.2273 335.25 64.3303 335.612 64.5362C335.977 64.7398 336.247 65.0156 336.422 65.3636C336.597 65.7116 336.685 66.0999 336.685 66.5284C336.685 66.9569 336.597 67.3464 336.422 67.6967C336.249 68.0471 335.982 68.3265 335.619 68.5348C335.257 68.7408 334.793 68.8438 334.227 68.8438H332.466V68.0625H334.199C334.589 68.0625 334.903 67.995 335.14 67.8601C335.377 67.7251 335.548 67.5429 335.655 67.3132C335.764 67.0812 335.818 66.8196 335.818 66.5284C335.818 66.2372 335.764 65.9768 335.655 65.7472C335.548 65.5175 335.375 65.3376 335.136 65.2074C334.897 65.0748 334.58 65.0085 334.185 65.0085H332.636V71.5H331.756ZM340.218 71.6136C339.692 71.6136 339.239 71.4976 338.858 71.2656C338.479 71.0312 338.187 70.7045 337.981 70.2855C337.777 69.8641 337.675 69.3741 337.675 68.8153C337.675 68.2566 337.777 67.7642 337.981 67.3381C338.187 66.9096 338.473 66.5758 338.84 66.3366C339.21 66.0952 339.64 65.9744 340.133 65.9744C340.417 65.9744 340.697 66.0218 340.974 66.1165C341.251 66.2112 341.504 66.3651 341.731 66.5781C341.958 66.7888 342.139 67.0682 342.274 67.4162C342.409 67.7642 342.477 68.1927 342.477 68.7017V69.0568H338.272V68.3324H341.624C341.624 68.0246 341.563 67.75 341.44 67.5085C341.319 67.267 341.146 67.0765 340.921 66.9368C340.699 66.7971 340.436 66.7273 340.133 66.7273C339.799 66.7273 339.51 66.8101 339.266 66.9759C339.025 67.1392 338.839 67.3523 338.709 67.6151C338.579 67.8778 338.513 68.1596 338.513 68.4602V68.9432C338.513 69.3551 338.585 69.7043 338.727 69.9908C338.871 70.2749 339.071 70.4915 339.327 70.6406C339.582 70.7874 339.879 70.8608 340.218 70.8608C340.438 70.8608 340.637 70.83 340.815 70.7685C340.995 70.7045 341.15 70.6098 341.28 70.4844C341.41 70.3565 341.511 70.1979 341.582 70.0085L342.391 70.2358C342.306 70.5104 342.163 70.7519 341.962 70.9602C341.76 71.1662 341.512 71.3272 341.216 71.4432C340.92 71.5568 340.587 71.6136 340.218 71.6136ZM343.751 71.5V66.0455H344.561V66.8693H344.618C344.717 66.5994 344.897 66.3804 345.158 66.2124C345.418 66.0443 345.712 65.9602 346.038 65.9602C346.1 65.9602 346.177 65.9614 346.269 65.9638C346.362 65.9661 346.431 65.9697 346.479 65.9744V66.8267C346.45 66.8196 346.385 66.8089 346.283 66.7947C346.184 66.7782 346.079 66.7699 345.967 66.7699C345.702 66.7699 345.465 66.8255 345.257 66.9368C345.051 67.0457 344.888 67.1972 344.767 67.3913C344.649 67.5831 344.589 67.8021 344.589 68.0483V71.5H343.751ZM350.243 66.0455V66.7557H347.303V66.0455H350.243ZM348.183 71.5V65.2926C348.183 64.9801 348.257 64.7197 348.403 64.5114C348.55 64.303 348.741 64.1468 348.975 64.0426C349.21 63.9384 349.457 63.8864 349.717 63.8864C349.923 63.8864 350.091 63.9029 350.222 63.9361C350.352 63.9692 350.449 64 350.513 64.0284L350.271 64.7528C350.229 64.7386 350.17 64.7209 350.094 64.6996C350.02 64.6783 349.923 64.6676 349.803 64.6676C349.526 64.6676 349.326 64.7375 349.202 64.8771C349.082 65.0168 349.021 65.2216 349.021 65.4915V71.5H348.183ZM351.417 71.5V66.0455H352.256V71.5H351.417ZM351.844 65.1364C351.68 65.1364 351.539 65.0807 351.421 64.9695C351.305 64.8582 351.247 64.7244 351.247 64.5682C351.247 64.4119 351.305 64.2782 351.421 64.1669C351.539 64.0556 351.68 64 351.844 64C352.007 64 352.147 64.0556 352.263 64.1669C352.381 64.2782 352.44 64.4119 352.44 64.5682C352.44 64.7244 352.381 64.8582 352.263 64.9695C352.147 65.0807 352.007 65.1364 351.844 65.1364ZM354.629 64.2273V71.5H353.79V64.2273H354.629Z" fill="#CFD1DE"/>
<path d="M142.079 37.5352H141.068C139.392 37.5352 138.034 38.8935 138.034 40.5691V54.7273C138.034 56.4029 139.392 57.7612 141.068 57.7612H153.203C154.879 57.7612 156.237 56.4029 156.237 54.7273V40.5691C156.237 38.8935 154.879 37.5352 153.203 37.5352H152.192" stroke="#CFD1DE" stroke-width="2.02261"/>
<rect x="142.079" y="35.5117" width="10.113" height="5.05651" rx="2.02261" stroke="#CFD1DE" stroke-width="2.02261"/>
<path d="M124.408 71.5V64.2273H126.865C127.436 64.2273 127.902 64.3303 128.265 64.5362C128.629 64.7398 128.899 65.0156 129.074 65.3636C129.249 65.7116 129.337 66.0999 129.337 66.5284C129.337 66.9569 129.249 67.3464 129.074 67.6967C128.901 68.0471 128.634 68.3265 128.272 68.5348C127.909 68.7408 127.445 68.8438 126.88 68.8438H125.118V68.0625H126.851C127.242 68.0625 127.556 67.995 127.792 67.8601C128.029 67.7251 128.201 67.5429 128.307 67.3132C128.416 67.0812 128.471 66.8196 128.471 66.5284C128.471 66.2372 128.416 65.9768 128.307 65.7472C128.201 65.5175 128.028 65.3376 127.789 65.2074C127.55 65.0748 127.232 65.0085 126.837 65.0085H125.289V71.5H124.408ZM130.642 71.5V66.0455H131.452V66.8693H131.509C131.608 66.5994 131.788 66.3804 132.048 66.2124C132.309 66.0443 132.602 65.9602 132.929 65.9602C132.991 65.9602 133.067 65.9614 133.16 65.9638C133.252 65.9661 133.322 65.9697 133.369 65.9744V66.8267C133.341 66.8196 133.276 66.8089 133.174 66.7947C133.075 66.7782 132.969 66.7699 132.858 66.7699C132.593 66.7699 132.356 66.8255 132.148 66.9368C131.942 67.0457 131.778 67.1972 131.658 67.3913C131.539 67.5831 131.48 67.8021 131.48 68.0483V71.5H130.642ZM136.413 71.6136C135.92 71.6136 135.488 71.4964 135.116 71.2621C134.747 71.0277 134.458 70.6998 134.25 70.2784C134.044 69.857 133.941 69.3646 133.941 68.8011C133.941 68.233 134.044 67.737 134.25 67.3132C134.458 66.8894 134.747 66.5604 135.116 66.326C135.488 66.0916 135.92 65.9744 136.413 65.9744C136.905 65.9744 137.336 66.0916 137.705 66.326C138.077 66.5604 138.366 66.8894 138.572 67.3132C138.78 67.737 138.884 68.233 138.884 68.8011C138.884 69.3646 138.78 69.857 138.572 70.2784C138.366 70.6998 138.077 71.0277 137.705 71.2621C137.336 71.4964 136.905 71.6136 136.413 71.6136ZM136.413 70.8608C136.787 70.8608 137.094 70.7649 137.336 70.5732C137.577 70.3814 137.756 70.1293 137.872 69.8168C137.988 69.5043 138.046 69.1657 138.046 68.8011C138.046 68.4366 137.988 68.0968 137.872 67.782C137.756 67.4671 137.577 67.2126 137.336 67.0185C137.094 66.8243 136.787 66.7273 136.413 66.7273C136.039 66.7273 135.731 66.8243 135.489 67.0185C135.248 67.2126 135.069 67.4671 134.953 67.782C134.837 68.0968 134.779 68.4366 134.779 68.8011C134.779 69.1657 134.837 69.5043 134.953 69.8168C135.069 70.1293 135.248 70.3814 135.489 70.5732C135.731 70.7649 136.039 70.8608 136.413 70.8608ZM140.508 73.5455C140.366 73.5455 140.239 73.5336 140.128 73.5099C140.017 73.4886 139.94 73.4673 139.897 73.446L140.11 72.7074C140.314 72.7595 140.494 72.7784 140.65 72.7642C140.806 72.75 140.945 72.6802 141.066 72.5547C141.189 72.4316 141.301 72.2315 141.403 71.9545L141.559 71.5284L139.542 66.0455H140.451L141.957 70.392H142.014L143.519 66.0455H144.428L142.113 72.2955C142.009 72.5772 141.88 72.8104 141.726 72.995C141.572 73.1821 141.393 73.3205 141.19 73.4105C140.989 73.5005 140.761 73.5455 140.508 73.5455ZM147.626 71.6136C147.101 71.6136 146.647 71.4976 146.266 71.2656C145.887 71.0312 145.595 70.7045 145.389 70.2855C145.185 69.8641 145.084 69.3741 145.084 68.8153C145.084 68.2566 145.185 67.7642 145.389 67.3381C145.595 66.9096 145.881 66.5758 146.248 66.3366C146.618 66.0952 147.049 65.9744 147.541 65.9744C147.825 65.9744 148.106 66.0218 148.383 66.1165C148.66 66.2112 148.912 66.3651 149.139 66.5781C149.366 66.7888 149.547 67.0682 149.682 67.4162C149.817 67.7642 149.885 68.1927 149.885 68.7017V69.0568H145.68V68.3324H149.032C149.032 68.0246 148.971 67.75 148.848 67.5085C148.727 67.267 148.554 67.0765 148.329 66.9368C148.107 66.7971 147.844 66.7273 147.541 66.7273C147.207 66.7273 146.918 66.8101 146.675 66.9759C146.433 67.1392 146.247 67.3523 146.117 67.6151C145.987 67.8778 145.922 68.1596 145.922 68.4602V68.9432C145.922 69.3551 145.993 69.7043 146.135 69.9908C146.279 70.2749 146.479 70.4915 146.735 70.6406C146.991 70.7874 147.288 70.8608 147.626 70.8608C147.846 70.8608 148.045 70.83 148.223 70.7685C148.403 70.7045 148.558 70.6098 148.688 70.4844C148.818 70.3565 148.919 70.1979 148.99 70.0085L149.8 70.2358C149.714 70.5104 149.571 70.7519 149.37 70.9602C149.169 71.1662 148.92 71.3272 148.624 71.4432C148.328 71.5568 147.996 71.6136 147.626 71.6136ZM153.376 71.6136C152.864 71.6136 152.424 71.4929 152.055 71.2514C151.685 71.0099 151.401 70.6773 151.202 70.2536C151.003 69.8298 150.904 69.3456 150.904 68.8011C150.904 68.2472 151.006 67.7583 151.209 67.3345C151.415 66.9084 151.702 66.5758 152.069 66.3366C152.438 66.0952 152.869 65.9744 153.361 65.9744C153.745 65.9744 154.09 66.0455 154.398 66.1875C154.706 66.3295 154.958 66.5284 155.155 66.7841C155.351 67.0398 155.473 67.3381 155.52 67.679H154.682C154.618 67.4304 154.476 67.2102 154.256 67.0185C154.038 66.8243 153.745 66.7273 153.376 66.7273C153.049 66.7273 152.762 66.8125 152.516 66.983C152.272 67.151 152.082 67.389 151.944 67.6967C151.809 68.0021 151.742 68.3608 151.742 68.7727C151.742 69.1941 151.808 69.5611 151.941 69.8736C152.076 70.1861 152.265 70.4287 152.509 70.6016C152.755 70.7744 153.044 70.8608 153.376 70.8608C153.593 70.8608 153.791 70.8229 153.969 70.7472C154.146 70.6714 154.296 70.5625 154.42 70.4205C154.543 70.2784 154.63 70.108 154.682 69.9091H155.52C155.473 70.2311 155.356 70.5211 155.169 70.7791C154.984 71.0348 154.739 71.2384 154.434 71.3899C154.131 71.5391 153.778 71.6136 153.376 71.6136ZM159.118 66.0455V66.7557H156.291V66.0455H159.118ZM157.115 64.7386H157.953V69.9375C157.953 70.1742 157.987 70.3518 158.056 70.4702C158.127 70.5862 158.217 70.6643 158.326 70.7045C158.437 70.7424 158.554 70.7614 158.677 70.7614C158.77 70.7614 158.845 70.7566 158.905 70.7472C158.964 70.7353 159.011 70.7259 159.047 70.7188L159.217 71.4716C159.16 71.4929 159.081 71.5142 158.979 71.5355C158.877 71.5592 158.748 71.571 158.592 71.571C158.355 71.571 158.123 71.5201 157.896 71.4183C157.671 71.3165 157.484 71.1615 157.335 70.9531C157.188 70.7448 157.115 70.482 157.115 70.1648V64.7386ZM162.536 71.6136C162.043 71.6136 161.611 71.4964 161.24 71.2621C160.87 71.0277 160.581 70.6998 160.373 70.2784C160.167 69.857 160.064 69.3646 160.064 68.8011C160.064 68.233 160.167 67.737 160.373 67.3132C160.581 66.8894 160.87 66.5604 161.24 66.326C161.611 66.0916 162.043 65.9744 162.536 65.9744C163.028 65.9744 163.459 66.0916 163.828 66.326C164.2 66.5604 164.489 66.8894 164.695 67.3132C164.903 67.737 165.007 68.233 165.007 68.8011C165.007 69.3646 164.903 69.857 164.695 70.2784C164.489 70.6998 164.2 71.0277 163.828 71.2621C163.459 71.4964 163.028 71.6136 162.536 71.6136ZM162.536 70.8608C162.91 70.8608 163.218 70.7649 163.459 70.5732C163.7 70.3814 163.879 70.1293 163.995 69.8168C164.111 69.5043 164.169 69.1657 164.169 68.8011C164.169 68.4366 164.111 68.0968 163.995 67.782C163.879 67.4671 163.7 67.2126 163.459 67.0185C163.218 66.8243 162.91 66.7273 162.536 66.7273C162.162 66.7273 161.854 66.8243 161.612 67.0185C161.371 67.2126 161.192 67.4671 161.076 67.782C160.96 68.0968 160.902 68.4366 160.902 68.8011C160.902 69.1657 160.96 69.5043 161.076 69.8168C161.192 70.1293 161.371 70.3814 161.612 70.5732C161.854 70.7649 162.162 70.8608 162.536 70.8608ZM170.15 67.267L169.397 67.4801C169.35 67.3546 169.28 67.2327 169.188 67.1143C169.098 66.9936 168.975 66.8942 168.819 66.8161C168.662 66.7379 168.462 66.6989 168.218 66.6989C167.885 66.6989 167.606 66.7758 167.384 66.9297C167.164 67.0812 167.054 67.2741 167.054 67.5085C167.054 67.7169 167.129 67.8814 167.281 68.0021C167.432 68.1229 167.669 68.2235 167.991 68.304L168.801 68.5028C169.288 68.6212 169.652 68.8023 169.891 69.0462C170.13 69.2876 170.25 69.599 170.25 69.9801C170.25 70.2926 170.16 70.572 169.98 70.8182C169.802 71.0644 169.554 71.2585 169.234 71.4006C168.914 71.5426 168.543 71.6136 168.119 71.6136C167.563 71.6136 167.102 71.4929 166.738 71.2514C166.373 71.0099 166.142 70.6572 166.045 70.1932L166.841 69.9943C166.916 70.2879 167.06 70.508 167.27 70.6548C167.483 70.8016 167.761 70.875 168.105 70.875C168.495 70.875 168.806 70.7921 169.035 70.6264C169.267 70.4583 169.383 70.2571 169.383 70.0227C169.383 69.8333 169.317 69.6747 169.184 69.5469C169.052 69.4167 168.848 69.3196 168.574 69.2557L167.664 69.0426C167.165 68.9242 166.798 68.7408 166.564 68.4922C166.332 68.2412 166.216 67.9276 166.216 67.5511C166.216 67.2434 166.302 66.9711 166.475 66.7344C166.65 66.4976 166.888 66.3118 167.189 66.1768C167.492 66.0419 167.835 65.9744 168.218 65.9744C168.758 65.9744 169.182 66.0928 169.49 66.3295C169.8 66.5663 170.02 66.8788 170.15 67.267Z" fill="#CFD1DE"/>
<path d="M39.0227 44.4922C39.0227 43.5279 39.4811 42.621 40.2577 42.0492L49.1357 35.5117L58.0138 42.0492C58.7903 42.621 59.2488 43.5279 59.2488 44.4922V55.2321C59.2488 56.6284 58.1168 57.7604 56.7205 57.7604H53.1809C52.6224 57.7604 52.1696 57.3076 52.1696 56.7491V50.6813C52.1696 50.402 51.9433 50.1756 51.664 50.1756H46.6075C46.3282 50.1756 46.1018 50.402 46.1018 50.6813V56.7491C46.1018 57.3076 45.649 57.7604 45.0905 57.7604H41.551C40.1546 57.7604 39.0227 56.6284 39.0227 55.2321V44.4922Z" stroke="#CFD1DE" stroke-width="2.02261" stroke-linecap="round" stroke-linejoin="round"/>
<path d="M36.076 71.5V64.2273H36.9567V67.4659H40.8345V64.2273H41.7152V71.5H40.8345V68.2472H36.9567V71.5H36.076ZM45.5806 71.6136C45.0882 71.6136 44.6561 71.4964 44.2844 71.2621C43.9151 71.0277 43.6263 70.6998 43.418 70.2784C43.212 69.857 43.109 69.3646 43.109 68.8011C43.109 68.233 43.212 67.737 43.418 67.3132C43.6263 66.8894 43.9151 66.5604 44.2844 66.326C44.6561 66.0916 45.0882 65.9744 45.5806 65.9744C46.073 65.9744 46.5039 66.0916 46.8732 66.326C47.2449 66.5604 47.5337 66.8894 47.7397 67.3132C47.948 67.737 48.0522 68.233 48.0522 68.8011C48.0522 69.3646 47.948 69.857 47.7397 70.2784C47.5337 70.6998 47.2449 71.0277 46.8732 71.2621C46.5039 71.4964 46.073 71.6136 45.5806 71.6136ZM45.5806 70.8608C45.9547 70.8608 46.2624 70.7649 46.5039 70.5732C46.7454 70.3814 46.9241 70.1293 47.0401 69.8168C47.1561 69.5043 47.2141 69.1657 47.2141 68.8011C47.2141 68.4366 47.1561 68.0968 47.0401 67.782C46.9241 67.4671 46.7454 67.2126 46.5039 67.0185C46.2624 66.8243 45.9547 66.7273 45.5806 66.7273C45.2066 66.7273 44.8988 66.8243 44.6573 67.0185C44.4158 67.2126 44.2371 67.4671 44.1211 67.782C44.0051 68.0968 43.9471 68.4366 43.9471 68.8011C43.9471 69.1657 44.0051 69.5043 44.1211 69.8168C44.2371 70.1293 44.4158 70.3814 44.6573 70.5732C44.8988 70.7649 45.2066 70.8608 45.5806 70.8608ZM49.3315 71.5V66.0455H50.1412V66.8977H50.2122C50.3258 66.6065 50.5093 66.3804 50.7626 66.2195C51.0159 66.0561 51.3201 65.9744 51.6752 65.9744C52.0351 65.9744 52.3346 66.0561 52.5737 66.2195C52.8152 66.3804 53.0034 66.6065 53.1383 66.8977H53.1951C53.3348 66.616 53.5443 66.3923 53.8237 66.2266C54.103 66.0585 54.438 65.9744 54.8287 65.9744C55.3163 65.9744 55.7153 66.1271 56.0254 66.4325C56.3355 66.7356 56.4906 67.2079 56.4906 67.8494V71.5H55.6525V67.8494C55.6525 67.447 55.5424 67.1593 55.3223 66.9865C55.1021 66.8137 54.8429 66.7273 54.5446 66.7273C54.161 66.7273 53.8639 66.8433 53.6532 67.0753C53.4425 67.3049 53.3372 67.5961 53.3372 67.9489V71.5H52.4849V67.7642C52.4849 67.4541 52.3843 67.2043 52.1831 67.0149C51.9818 66.8232 51.7226 66.7273 51.4054 66.7273C51.1876 66.7273 50.984 66.7853 50.7946 66.9013C50.6075 67.0173 50.456 67.1783 50.34 67.3842C50.2264 67.5878 50.1696 67.8234 50.1696 68.0909V71.5H49.3315ZM60.3098 71.6136C59.7843 71.6136 59.3309 71.4976 58.9498 71.2656C58.571 71.0312 58.2786 70.7045 58.0726 70.2855C57.869 69.8641 57.7672 69.3741 57.7672 68.8153C57.7672 68.2566 57.869 67.7642 58.0726 67.3381C58.2786 66.9096 58.565 66.5758 58.932 66.3366C59.3013 66.0952 59.7322 65.9744 60.2246 65.9744C60.5087 65.9744 60.7892 66.0218 61.0662 66.1165C61.3432 66.2112 61.5953 66.3651 61.8226 66.5781C62.0499 66.7888 62.231 67.0682 62.3659 67.4162C62.5009 67.7642 62.5684 68.1927 62.5684 68.7017V69.0568H58.3638V68.3324H61.7161C61.7161 68.0246 61.6545 67.75 61.5314 67.5085C61.4107 67.267 61.2379 67.0765 61.013 66.9368C60.7904 66.7971 60.5276 66.7273 60.2246 66.7273C59.8908 66.7273 59.602 66.8101 59.3581 66.9759C59.1167 67.1392 58.9308 67.3523 58.8006 67.6151C58.6704 67.8778 58.6053 68.1596 58.6053 68.4602V68.9432C58.6053 69.3551 58.6763 69.7043 58.8184 69.9908C58.9628 70.2749 59.1628 70.4915 59.4185 70.6406C59.6742 70.7874 59.9713 70.8608 60.3098 70.8608C60.53 70.8608 60.7289 70.83 60.9064 70.7685C61.0864 70.7045 61.2414 70.6098 61.3716 70.4844C61.5018 70.3565 61.6025 70.1979 61.6735 70.0085L62.4831 70.2358C62.3979 70.5104 62.2547 70.7519 62.0534 70.9602C61.8522 71.1662 61.6036 71.3272 61.3077 71.4432C61.0118 71.5568 60.6792 71.6136 60.3098 71.6136Z" fill="#CFD1DE"/>
<path d="M226.92 71.5V64.2273H229.462C229.969 64.2273 230.387 64.3149 230.716 64.4901C231.045 64.6629 231.29 64.8961 231.451 65.1896C231.612 65.4808 231.692 65.804 231.692 66.1591C231.692 66.4716 231.637 66.7296 231.526 66.9332C231.417 67.1368 231.272 67.2978 231.092 67.4162C230.915 67.5346 230.722 67.6222 230.513 67.679V67.75C230.736 67.7642 230.96 67.8423 231.185 67.9844C231.41 68.1264 231.598 68.33 231.749 68.5952C231.901 68.8603 231.977 69.1847 231.977 69.5682C231.977 69.9328 231.894 70.2607 231.728 70.5518C231.562 70.843 231.301 71.0739 230.943 71.2443C230.586 71.4148 230.121 71.5 229.548 71.5H226.92ZM227.8 70.7188H229.548C230.123 70.7188 230.531 70.6075 230.773 70.3849C231.017 70.16 231.138 69.8878 231.138 69.5682C231.138 69.322 231.076 69.0947 230.95 68.8864C230.825 68.6757 230.646 68.5076 230.414 68.3821C230.182 68.2543 229.907 68.1903 229.59 68.1903H227.8V70.7188ZM227.8 67.4233H229.434C229.699 67.4233 229.938 67.3712 230.151 67.267C230.367 67.1629 230.537 67.0161 230.663 66.8267C230.79 66.6373 230.854 66.4148 230.854 66.1591C230.854 65.8395 230.743 65.5684 230.521 65.3459C230.298 65.121 229.945 65.0085 229.462 65.0085H227.8V67.4233ZM233.31 71.5V66.0455H234.148V71.5H233.31ZM233.736 65.1364C233.573 65.1364 233.432 65.0807 233.314 64.9695C233.198 64.8582 233.14 64.7244 233.14 64.5682C233.14 64.4119 233.198 64.2782 233.314 64.1669C233.432 64.0556 233.573 64 233.736 64C233.9 64 234.039 64.0556 234.155 64.1669C234.274 64.2782 234.333 64.4119 234.333 64.5682C234.333 64.7244 234.274 64.8582 234.155 64.9695C234.039 65.0807 233.9 65.1364 233.736 65.1364ZM236.521 64.2273V71.5H235.683V64.2273H236.521ZM238.894 64.2273V71.5H238.056V64.2273H238.894ZM242.716 71.6136C242.191 71.6136 241.737 71.4976 241.356 71.2656C240.977 71.0312 240.685 70.7045 240.479 70.2855C240.275 69.8641 240.173 69.3741 240.173 68.8153C240.173 68.2566 240.275 67.7642 240.479 67.3381C240.685 66.9096 240.971 66.5758 241.338 66.3366C241.708 66.0952 242.138 65.9744 242.631 65.9744C242.915 65.9744 243.195 66.0218 243.472 66.1165C243.749 66.2112 244.002 66.3651 244.229 66.5781C244.456 66.7888 244.637 67.0682 244.772 67.4162C244.907 67.7642 244.975 68.1927 244.975 68.7017V69.0568H240.77V68.3324H244.122C244.122 68.0246 244.061 67.75 243.938 67.5085C243.817 67.267 243.644 67.0765 243.419 66.9368C243.197 66.7971 242.934 66.7273 242.631 66.7273C242.297 66.7273 242.008 66.8101 241.764 66.9759C241.523 67.1392 241.337 67.3523 241.207 67.6151C241.077 67.8778 241.012 68.1596 241.012 68.4602V68.9432C241.012 69.3551 241.083 69.7043 241.225 69.9908C241.369 70.2749 241.569 70.4915 241.825 70.6406C242.08 70.7874 242.378 70.8608 242.716 70.8608C242.936 70.8608 243.135 70.83 243.313 70.7685C243.493 70.7045 243.648 70.6098 243.778 70.4844C243.908 70.3565 244.009 70.1979 244.08 70.0085L244.889 70.2358C244.804 70.5104 244.661 70.7519 244.46 70.9602C244.258 71.1662 244.01 71.3272 243.714 71.4432C243.418 71.5568 243.085 71.6136 242.716 71.6136ZM248.622 66.0455V66.7557H245.795V66.0455H248.622ZM246.619 64.7386H247.457V69.9375C247.457 70.1742 247.491 70.3518 247.56 70.4702C247.631 70.5862 247.721 70.6643 247.83 70.7045C247.941 70.7424 248.058 70.7614 248.181 70.7614C248.274 70.7614 248.349 70.7566 248.409 70.7472C248.468 70.7353 248.515 70.7259 248.551 70.7188L248.721 71.4716C248.664 71.4929 248.585 71.5142 248.483 71.5355C248.381 71.5592 248.252 71.571 248.096 71.571C247.859 71.571 247.627 71.5201 247.4 71.4183C247.175 71.3165 246.988 71.1615 246.839 70.9531C246.692 70.7448 246.619 70.482 246.619 70.1648V64.7386ZM252.111 71.6136C251.585 71.6136 251.132 71.4976 250.751 71.2656C250.372 71.0312 250.079 70.7045 249.873 70.2855C249.67 69.8641 249.568 69.3741 249.568 68.8153C249.568 68.2566 249.67 67.7642 249.873 67.3381C250.079 66.9096 250.366 66.5758 250.733 66.3366C251.102 66.0952 251.533 65.9744 252.025 65.9744C252.309 65.9744 252.59 66.0218 252.867 66.1165C253.144 66.2112 253.396 66.3651 253.623 66.5781C253.851 66.7888 254.032 67.0682 254.167 67.4162C254.302 67.7642 254.369 68.1927 254.369 68.7017V69.0568H250.165V68.3324H253.517C253.517 68.0246 253.455 67.75 253.332 67.5085C253.211 67.267 253.039 67.0765 252.814 66.9368C252.591 66.7971 252.328 66.7273 252.025 66.7273C251.692 66.7273 251.403 66.8101 251.159 66.9759C250.917 67.1392 250.732 67.3523 250.601 67.6151C250.471 67.8778 250.406 68.1596 250.406 68.4602V68.9432C250.406 69.3551 250.477 69.7043 250.619 69.9908C250.764 70.2749 250.964 70.4915 251.219 70.6406C251.475 70.7874 251.772 70.8608 252.111 70.8608C252.331 70.8608 252.53 70.83 252.707 70.7685C252.887 70.7045 253.042 70.6098 253.172 70.4844C253.303 70.3565 253.403 70.1979 253.474 70.0085L254.284 70.2358C254.199 70.5104 254.055 70.7519 253.854 70.9602C253.653 71.1662 253.404 71.3272 253.108 71.4432C252.813 71.5568 252.48 71.6136 252.111 71.6136ZM255.644 71.5V66.0455H256.454V66.8693H256.51C256.61 66.5994 256.79 66.3804 257.05 66.2124C257.311 66.0443 257.604 65.9602 257.931 65.9602C257.992 65.9602 258.069 65.9614 258.162 65.9638C258.254 65.9661 258.324 65.9697 258.371 65.9744V66.8267C258.343 66.8196 258.278 66.8089 258.176 66.7947C258.077 66.7782 257.971 66.7699 257.86 66.7699C257.595 66.7699 257.358 66.8255 257.15 66.9368C256.944 67.0457 256.78 67.1972 256.66 67.3913C256.541 67.5831 256.482 67.8021 256.482 68.0483V71.5H255.644ZM260.97 71.6278C260.624 71.6278 260.31 71.5627 260.029 71.4325C259.747 71.3 259.523 71.1094 259.358 70.8608C259.192 70.6098 259.109 70.3068 259.109 69.9517C259.109 69.6392 259.171 69.3859 259.294 69.1918C259.417 68.9953 259.581 68.8414 259.787 68.7301C259.993 68.6188 260.221 68.536 260.469 68.4815C260.72 68.4247 260.972 68.3797 261.225 68.3466C261.557 68.304 261.826 68.272 262.032 68.2507C262.24 68.227 262.391 68.188 262.486 68.1335C262.583 68.0791 262.632 67.9844 262.632 67.8494V67.821C262.632 67.4706 262.536 67.1984 262.344 67.0043C262.155 66.8101 261.867 66.7131 261.481 66.7131C261.081 66.7131 260.767 66.8007 260.54 66.9759C260.313 67.151 260.153 67.3381 260.061 67.5369L259.265 67.2528C259.407 66.9214 259.597 66.6634 259.833 66.4787C260.073 66.2917 260.333 66.1615 260.615 66.0881C260.899 66.0123 261.178 65.9744 261.453 65.9744C261.628 65.9744 261.829 65.9957 262.056 66.0384C262.286 66.0786 262.507 66.1626 262.721 66.2905C262.936 66.4183 263.115 66.6113 263.257 66.8693C263.399 67.1274 263.47 67.473 263.47 67.9062V71.5H262.632V70.7614H262.589C262.532 70.8797 262.438 71.0064 262.305 71.1413C262.172 71.2763 261.996 71.3911 261.776 71.4858C261.556 71.5805 261.287 71.6278 260.97 71.6278ZM261.098 70.875C261.429 70.875 261.708 70.8099 261.936 70.6797C262.165 70.5495 262.338 70.3814 262.454 70.1754C262.573 69.9695 262.632 69.7528 262.632 69.5256V68.7585C262.596 68.8011 262.518 68.8402 262.397 68.8757C262.279 68.9089 262.142 68.9384 261.985 68.9645C261.832 68.9882 261.681 69.0095 261.534 69.0284C261.39 69.045 261.273 69.0592 261.183 69.071C260.965 69.0994 260.761 69.1456 260.572 69.2095C260.385 69.2711 260.234 69.3646 260.118 69.4901C260.004 69.6132 259.947 69.7812 259.947 69.9943C259.947 70.2855 260.055 70.5057 260.27 70.6548C260.488 70.8016 260.764 70.875 261.098 70.875Z" fill="#389BEC"/>
<path d="M254.231 38.5569C254.789 38.5569 255.241 38.1047 255.241 37.5469C255.241 36.9891 254.789 36.5369 254.231 36.5369V38.5569ZM235.538 39.4778C235.538 38.92 235.086 38.4678 234.528 38.4678C233.97 38.4678 233.518 38.92 233.518 39.4778H235.538ZM237.074 38.5569H254.231V36.5369H237.074V38.5569ZM253.197 56.7629H237.074V58.7829H253.197V56.7629ZM235.054 54.7429V40.5769H233.034V54.7429H235.054ZM236.548 42.5076H253.197V40.4876H236.548V42.5076ZM255.217 44.5276V54.7429H257.237V44.5276H255.217ZM236.548 40.4876C235.99 40.4876 235.538 40.0355 235.538 39.4778H233.518C233.518 41.1511 234.875 42.5076 236.548 42.5076V40.4876ZM237.074 56.7629C235.958 56.7629 235.054 55.8585 235.054 54.7429H233.034C233.034 56.9742 234.843 58.7829 237.074 58.7829V56.7629ZM253.197 58.7829C255.429 58.7829 257.237 56.9742 257.237 54.7429H255.217C255.217 55.8585 254.313 56.7629 253.197 56.7629V58.7829ZM253.197 42.5076C254.313 42.5076 255.217 43.412 255.217 44.5276H257.237C257.237 42.2963 255.429 40.4876 253.197 40.4876V42.5076ZM237.074 36.5369C234.843 36.5369 233.034 38.3456 233.034 40.5769H235.054C235.054 39.4613 235.958 38.5569 237.074 38.5569V36.5369Z" fill="#87C9FF"/>
<rect width="70" height="2" transform="matrix(1 0 0 -1 210.136 21.5)" fill="#55B3FF"/>
</g>
<defs>
<filter id="filter0_d_1714_38254" x="-13" y="0.5" width="416" height="101" filterUnits="userSpaceOnUse" color-interpolation-filters="sRGB">
<feFlood flood-opacity="0" result="BackgroundImageFix"/>
<feColorMatrix in="SourceAlpha" type="matrix" values="0 0 0 0 0 0 0 0 0 0 0 0 0 0 0 0 0 0 127 0" result="hardAlpha"/>
<feOffset dy="-6"/>
<feGaussianBlur stdDeviation="6.5"/>
<feComposite in2="hardAlpha" operator="out"/>
<feColorMatrix type="matrix" values="0 0 0 0 0 0 0 0 0 0 0 0 0 0 0 0 0 0 0.04 0"/>
<feBlend mode="normal" in2="BackgroundImageFix" result="effect1_dropShadow_1714_38254"/>
<feBlend mode="normal" in="SourceGraphic" in2="effect1_dropShadow_1714_38254" result="shape"/>
</filter>
</defs>
</svg>
