<svg width="391" height="95" viewBox="0 0 391 95" fill="none" xmlns="http://www.w3.org/2000/svg">
<g filter="url(#filter0_d_1714_39213)">
<path d="M1 19.6973H391V94.6973H1V19.6973Z" fill="white"/>
<path d="M336.034 56.4393L336.205 55.3392C336.413 53.9984 337.288 52.8499 338.584 52.4484C340.194 51.9498 342.585 51.3828 345.135 51.3828C347.685 51.3828 350.077 51.9498 351.686 52.4484C352.983 52.8499 353.857 53.9984 354.066 55.3392L354.237 56.4393" stroke="#CFD1DE" stroke-width="2.02261" stroke-linecap="round" stroke-linejoin="round"/>
<path d="M345.136 46.8337C347.928 46.8337 350.192 44.5699 350.192 41.7772C350.192 38.9846 347.928 36.7207 345.136 36.7207C342.343 36.7207 340.079 38.9846 340.079 41.7772C340.079 44.5699 342.343 46.8337 345.136 46.8337Z" stroke="#CFD1DE" stroke-width="2.02261" stroke-linecap="round" stroke-linejoin="round"/>
<path d="M332.756 71.6973V64.4245H335.213C335.784 64.4245 336.25 64.5275 336.612 64.7335C336.977 64.9371 337.247 65.2129 337.422 65.5609C337.597 65.9089 337.685 66.2972 337.685 66.7257C337.685 67.1542 337.597 67.5436 337.422 67.894C337.249 68.2444 336.982 68.5237 336.619 68.7321C336.257 68.938 335.793 69.041 335.227 69.041H333.466V68.2598H335.199C335.589 68.2598 335.903 68.1923 336.14 68.0574C336.377 67.9224 336.548 67.7401 336.655 67.5105C336.764 67.2785 336.818 67.0169 336.818 66.7257C336.818 66.4345 336.764 66.1741 336.655 65.9444C336.548 65.7148 336.375 65.5349 336.136 65.4047C335.897 65.2721 335.58 65.2058 335.185 65.2058H333.636V71.6973H332.756ZM341.218 71.8109C340.692 71.8109 340.239 71.6949 339.858 71.4629C339.479 71.2285 339.187 70.9018 338.981 70.4828C338.777 70.0614 338.675 69.5713 338.675 69.0126C338.675 68.4539 338.777 67.9615 338.981 67.5353C339.187 67.1068 339.473 66.773 339.84 66.5339C340.21 66.2924 340.64 66.1717 341.133 66.1717C341.417 66.1717 341.697 66.219 341.974 66.3137C342.251 66.4084 342.504 66.5623 342.731 66.7754C342.958 66.9861 343.139 67.2654 343.274 67.6135C343.409 67.9615 343.477 68.39 343.477 68.899V69.2541H339.272V68.5297H342.624C342.624 68.2219 342.563 67.9473 342.44 67.7058C342.319 67.4643 342.146 67.2737 341.921 67.1341C341.699 66.9944 341.436 66.9245 341.133 66.9245C340.799 66.9245 340.51 67.0074 340.266 67.1731C340.025 67.3365 339.839 67.5495 339.709 67.8123C339.579 68.0751 339.513 68.3568 339.513 68.6575V69.1404C339.513 69.5524 339.585 69.9016 339.727 70.188C339.871 70.4721 340.071 70.6887 340.327 70.8379C340.582 70.9847 340.879 71.0581 341.218 71.0581C341.438 71.0581 341.637 71.0273 341.815 70.9657C341.995 70.9018 342.15 70.8071 342.28 70.6816C342.41 70.5538 342.511 70.3952 342.582 70.2058L343.391 70.4331C343.306 70.7077 343.163 70.9492 342.962 71.1575C342.76 71.3635 342.512 71.5244 342.216 71.6404C341.92 71.7541 341.587 71.8109 341.218 71.8109ZM344.751 71.6973V66.2427H345.561V67.0666H345.618C345.717 66.7967 345.897 66.5777 346.158 66.4096C346.418 66.2415 346.712 66.1575 347.038 66.1575C347.1 66.1575 347.177 66.1587 347.269 66.161C347.362 66.1634 347.431 66.167 347.479 66.1717V67.024C347.45 67.0169 347.385 67.0062 347.283 66.992C347.184 66.9754 347.079 66.9672 346.967 66.9672C346.702 66.9672 346.465 67.0228 346.257 67.1341C346.051 67.243 345.888 67.3945 345.767 67.5886C345.649 67.7804 345.589 67.9993 345.589 68.2456V71.6973H344.751ZM351.243 66.2427V66.9529H348.303V66.2427H351.243ZM349.183 71.6973V65.4899C349.183 65.1774 349.257 64.917 349.403 64.7086C349.55 64.5003 349.741 64.344 349.975 64.2399C350.21 64.1357 350.457 64.0836 350.717 64.0836C350.923 64.0836 351.091 64.1002 351.222 64.1333C351.352 64.1665 351.449 64.1973 351.513 64.2257L351.271 64.9501C351.229 64.9359 351.17 64.9181 351.094 64.8968C351.02 64.8755 350.923 64.8649 350.803 64.8649C350.526 64.8649 350.326 64.9347 350.202 65.0744C350.082 65.2141 350.021 65.4189 350.021 65.6887V71.6973H349.183ZM352.417 71.6973V66.2427H353.256V71.6973H352.417ZM352.844 65.3336C352.68 65.3336 352.539 65.278 352.421 65.1667C352.305 65.0555 352.247 64.9217 352.247 64.7654C352.247 64.6092 352.305 64.4754 352.421 64.3642C352.539 64.2529 352.68 64.1973 352.844 64.1973C353.007 64.1973 353.147 64.2529 353.263 64.3642C353.381 64.4754 353.44 64.6092 353.44 64.7654C353.44 64.9217 353.381 65.0555 353.263 65.1667C353.147 65.278 353.007 65.3336 352.844 65.3336ZM355.629 64.4245V71.6973H354.79V64.4245H355.629Z" fill="#CFD1DE"/>
<path d="M143.079 37.7305H142.068C140.392 37.7305 139.034 39.0888 139.034 40.7644V54.9226C139.034 56.5982 140.392 57.9565 142.068 57.9565H154.203C155.879 57.9565 157.237 56.5982 157.237 54.9226V40.7644C157.237 39.0888 155.879 37.7305 154.203 37.7305H153.192" stroke="#87C9FF" stroke-width="2.02261"/>
<rect x="143.079" y="35.709" width="10.113" height="5.05651" rx="2.02261" stroke="#87C9FF" stroke-width="2.02261"/>
<path d="M125.408 71.6973V64.4245H127.865C128.436 64.4245 128.902 64.5275 129.265 64.7335C129.629 64.9371 129.899 65.2129 130.074 65.5609C130.249 65.9089 130.337 66.2972 130.337 66.7257C130.337 67.1542 130.249 67.5436 130.074 67.894C129.901 68.2444 129.634 68.5237 129.272 68.7321C128.909 68.938 128.445 69.041 127.88 69.041H126.118V68.2598H127.851C128.242 68.2598 128.556 68.1923 128.792 68.0574C129.029 67.9224 129.201 67.7401 129.307 67.5105C129.416 67.2785 129.471 67.0169 129.471 66.7257C129.471 66.4345 129.416 66.1741 129.307 65.9444C129.201 65.7148 129.028 65.5349 128.789 65.4047C128.55 65.2721 128.232 65.2058 127.837 65.2058H126.289V71.6973H125.408ZM131.642 71.6973V66.2427H132.452V67.0666H132.509C132.608 66.7967 132.788 66.5777 133.048 66.4096C133.309 66.2415 133.602 66.1575 133.929 66.1575C133.991 66.1575 134.067 66.1587 134.16 66.161C134.252 66.1634 134.322 66.167 134.369 66.1717V67.024C134.341 67.0169 134.276 67.0062 134.174 66.992C134.075 66.9754 133.969 66.9672 133.858 66.9672C133.593 66.9672 133.356 67.0228 133.148 67.1341C132.942 67.243 132.778 67.3945 132.658 67.5886C132.539 67.7804 132.48 67.9993 132.48 68.2456V71.6973H131.642ZM137.413 71.8109C136.92 71.8109 136.488 71.6937 136.116 71.4593C135.747 71.225 135.458 70.8971 135.25 70.4757C135.044 70.0543 134.941 69.5618 134.941 68.9984C134.941 68.4302 135.044 67.9342 135.25 67.5105C135.458 67.0867 135.747 66.7576 136.116 66.5233C136.488 66.2889 136.92 66.1717 137.413 66.1717C137.905 66.1717 138.336 66.2889 138.705 66.5233C139.077 66.7576 139.366 67.0867 139.572 67.5105C139.78 67.9342 139.884 68.4302 139.884 68.9984C139.884 69.5618 139.78 70.0543 139.572 70.4757C139.366 70.8971 139.077 71.225 138.705 71.4593C138.336 71.6937 137.905 71.8109 137.413 71.8109ZM137.413 71.0581C137.787 71.0581 138.094 70.9622 138.336 70.7704C138.577 70.5787 138.756 70.3265 138.872 70.014C138.988 69.7015 139.046 69.363 139.046 68.9984C139.046 68.6338 138.988 68.2941 138.872 67.9792C138.756 67.6644 138.577 67.4099 138.336 67.2157C138.094 67.0216 137.787 66.9245 137.413 66.9245C137.039 66.9245 136.731 67.0216 136.489 67.2157C136.248 67.4099 136.069 67.6644 135.953 67.9792C135.837 68.2941 135.779 68.6338 135.779 68.9984C135.779 69.363 135.837 69.7015 135.953 70.014C136.069 70.3265 136.248 70.5787 136.489 70.7704C136.731 70.9622 137.039 71.0581 137.413 71.0581ZM141.508 73.7427C141.366 73.7427 141.239 73.7309 141.128 73.7072C141.017 73.6859 140.94 73.6646 140.897 73.6433L141.11 72.9047C141.314 72.9567 141.494 72.9757 141.65 72.9615C141.806 72.9473 141.945 72.8774 142.066 72.752C142.189 72.6288 142.301 72.4288 142.403 72.1518L142.559 71.7257L140.542 66.2427H141.451L142.957 70.5893H143.014L144.519 66.2427H145.428L143.113 72.4927C143.009 72.7744 142.88 73.0076 142.726 73.1923C142.572 73.3793 142.393 73.5178 142.19 73.6078C141.989 73.6977 141.761 73.7427 141.508 73.7427ZM148.626 71.8109C148.101 71.8109 147.647 71.6949 147.266 71.4629C146.887 71.2285 146.595 70.9018 146.389 70.4828C146.185 70.0614 146.084 69.5713 146.084 69.0126C146.084 68.4539 146.185 67.9615 146.389 67.5353C146.595 67.1068 146.881 66.773 147.248 66.5339C147.618 66.2924 148.049 66.1717 148.541 66.1717C148.825 66.1717 149.106 66.219 149.383 66.3137C149.66 66.4084 149.912 66.5623 150.139 66.7754C150.366 66.9861 150.547 67.2654 150.682 67.6135C150.817 67.9615 150.885 68.39 150.885 68.899V69.2541H146.68V68.5297H150.032C150.032 68.2219 149.971 67.9473 149.848 67.7058C149.727 67.4643 149.554 67.2737 149.329 67.1341C149.107 66.9944 148.844 66.9245 148.541 66.9245C148.207 66.9245 147.918 67.0074 147.675 67.1731C147.433 67.3365 147.247 67.5495 147.117 67.8123C146.987 68.0751 146.922 68.3568 146.922 68.6575V69.1404C146.922 69.5524 146.993 69.9016 147.135 70.188C147.279 70.4721 147.479 70.6887 147.735 70.8379C147.991 70.9847 148.288 71.0581 148.626 71.0581C148.846 71.0581 149.045 71.0273 149.223 70.9657C149.403 70.9018 149.558 70.8071 149.688 70.6816C149.818 70.5538 149.919 70.3952 149.99 70.2058L150.8 70.4331C150.714 70.7077 150.571 70.9492 150.37 71.1575C150.169 71.3635 149.92 71.5244 149.624 71.6404C149.328 71.7541 148.996 71.8109 148.626 71.8109ZM154.376 71.8109C153.864 71.8109 153.424 71.6902 153.055 71.4487C152.685 71.2072 152.401 70.8746 152.202 70.4508C152.003 70.027 151.904 69.5429 151.904 68.9984C151.904 68.4444 152.006 67.9556 152.209 67.5318C152.415 67.1056 152.702 66.773 153.069 66.5339C153.438 66.2924 153.869 66.1717 154.361 66.1717C154.745 66.1717 155.09 66.2427 155.398 66.3848C155.706 66.5268 155.958 66.7257 156.155 66.9814C156.351 67.237 156.473 67.5353 156.52 67.8762H155.682C155.618 67.6277 155.476 67.4075 155.256 67.2157C155.038 67.0216 154.745 66.9245 154.376 66.9245C154.049 66.9245 153.762 67.0098 153.516 67.1802C153.272 67.3483 153.082 67.5862 152.944 67.894C152.809 68.1994 152.742 68.5581 152.742 68.97C152.742 69.3914 152.808 69.7583 152.941 70.0708C153.076 70.3833 153.265 70.626 153.509 70.7988C153.755 70.9717 154.044 71.0581 154.376 71.0581C154.593 71.0581 154.791 71.0202 154.969 70.9444C155.146 70.8687 155.296 70.7598 155.42 70.6177C155.543 70.4757 155.63 70.3052 155.682 70.1064H156.52C156.473 70.4283 156.356 70.7183 156.169 70.9764C155.984 71.2321 155.739 71.4357 155.434 71.5872C155.131 71.7363 154.778 71.8109 154.376 71.8109ZM160.118 66.2427V66.9529H157.291V66.2427H160.118ZM158.115 64.9359H158.953V70.1348C158.953 70.3715 158.987 70.5491 159.056 70.6674C159.127 70.7834 159.217 70.8616 159.326 70.9018C159.437 70.9397 159.554 70.9586 159.677 70.9586C159.77 70.9586 159.845 70.9539 159.905 70.9444C159.964 70.9326 160.011 70.9231 160.047 70.916L160.217 71.6689C160.16 71.6902 160.081 71.7115 159.979 71.7328C159.877 71.7565 159.748 71.7683 159.592 71.7683C159.355 71.7683 159.123 71.7174 158.896 71.6156C158.671 71.5138 158.484 71.3587 158.335 71.1504C158.188 70.9421 158.115 70.6793 158.115 70.362V64.9359ZM163.536 71.8109C163.043 71.8109 162.611 71.6937 162.24 71.4593C161.87 71.225 161.581 70.8971 161.373 70.4757C161.167 70.0543 161.064 69.5618 161.064 68.9984C161.064 68.4302 161.167 67.9342 161.373 67.5105C161.581 67.0867 161.87 66.7576 162.24 66.5233C162.611 66.2889 163.043 66.1717 163.536 66.1717C164.028 66.1717 164.459 66.2889 164.828 66.5233C165.2 66.7576 165.489 67.0867 165.695 67.5105C165.903 67.9342 166.007 68.4302 166.007 68.9984C166.007 69.5618 165.903 70.0543 165.695 70.4757C165.489 70.8971 165.2 71.225 164.828 71.4593C164.459 71.6937 164.028 71.8109 163.536 71.8109ZM163.536 71.0581C163.91 71.0581 164.218 70.9622 164.459 70.7704C164.7 70.5787 164.879 70.3265 164.995 70.014C165.111 69.7015 165.169 69.363 165.169 68.9984C165.169 68.6338 165.111 68.2941 164.995 67.9792C164.879 67.6644 164.7 67.4099 164.459 67.2157C164.218 67.0216 163.91 66.9245 163.536 66.9245C163.162 66.9245 162.854 67.0216 162.612 67.2157C162.371 67.4099 162.192 67.6644 162.076 67.9792C161.96 68.2941 161.902 68.6338 161.902 68.9984C161.902 69.363 161.96 69.7015 162.076 70.014C162.192 70.3265 162.371 70.5787 162.612 70.7704C162.854 70.9622 163.162 71.0581 163.536 71.0581ZM171.15 67.4643L170.397 67.6774C170.35 67.5519 170.28 67.43 170.188 67.3116C170.098 67.1909 169.975 67.0914 169.819 67.0133C169.662 66.9352 169.462 66.8961 169.218 66.8961C168.885 66.8961 168.606 66.9731 168.384 67.127C168.164 67.2785 168.054 67.4714 168.054 67.7058C168.054 67.9141 168.129 68.0787 168.281 68.1994C168.432 68.3201 168.669 68.4208 168.991 68.5012L169.801 68.7001C170.288 68.8185 170.652 68.9996 170.891 69.2434C171.13 69.4849 171.25 69.7962 171.25 70.1774C171.25 70.4899 171.16 70.7692 170.98 71.0154C170.802 71.2617 170.554 71.4558 170.234 71.5978C169.914 71.7399 169.543 71.8109 169.119 71.8109C168.563 71.8109 168.102 71.6902 167.738 71.4487C167.373 71.2072 167.142 70.8545 167.045 70.3904L167.841 70.1916C167.916 70.4851 168.06 70.7053 168.27 70.8521C168.483 70.9989 168.761 71.0723 169.105 71.0723C169.495 71.0723 169.806 70.9894 170.035 70.8237C170.267 70.6556 170.383 70.4544 170.383 70.22C170.383 70.0306 170.317 69.872 170.184 69.7441C170.052 69.6139 169.848 69.5169 169.574 69.4529L168.664 69.2399C168.165 69.1215 167.798 68.938 167.564 68.6895C167.332 68.4385 167.216 68.1248 167.216 67.7484C167.216 67.4406 167.302 67.1684 167.475 66.9316C167.65 66.6949 167.888 66.5091 168.189 66.3741C168.492 66.2392 168.835 66.1717 169.218 66.1717C169.758 66.1717 170.182 66.2901 170.49 66.5268C170.8 66.7636 171.02 67.0761 171.15 67.4643Z" fill="#389BEC"/>
<path d="M40.0225 44.6724C40.0225 43.7188 40.4758 42.822 41.2436 42.2566L50.1355 35.709L59.0274 42.2566C59.7952 42.822 60.2485 43.7188 60.2485 44.6724V55.4576C60.2485 56.8384 59.1292 57.9576 57.7485 57.9576H54.1694C53.6171 57.9576 53.1694 57.5099 53.1694 56.9576V50.8729C53.1694 50.5967 52.9455 50.3729 52.6694 50.3729H47.6016C47.3254 50.3729 47.1016 50.5967 47.1016 50.8729V56.9576C47.1016 57.5099 46.6539 57.9576 46.1016 57.9576H42.5225C41.1418 57.9576 40.0225 56.8384 40.0225 55.4576V44.6724Z" stroke="#CFD1DE" stroke-width="2.02261" stroke-linecap="round" stroke-linejoin="round"/>
<path d="M37.076 71.6973V64.4245H37.9567V67.6632H41.8345V64.4245H42.7152V71.6973H41.8345V68.4444H37.9567V71.6973H37.076ZM46.5806 71.8109C46.0882 71.8109 45.6561 71.6937 45.2844 71.4593C44.9151 71.225 44.6263 70.8971 44.418 70.4757C44.212 70.0543 44.109 69.5618 44.109 68.9984C44.109 68.4302 44.212 67.9342 44.418 67.5105C44.6263 67.0867 44.9151 66.7576 45.2844 66.5233C45.6561 66.2889 46.0882 66.1717 46.5806 66.1717C47.073 66.1717 47.5039 66.2889 47.8732 66.5233C48.2449 66.7576 48.5337 67.0867 48.7397 67.5105C48.948 67.9342 49.0522 68.4302 49.0522 68.9984C49.0522 69.5618 48.948 70.0543 48.7397 70.4757C48.5337 70.8971 48.2449 71.225 47.8732 71.4593C47.5039 71.6937 47.073 71.8109 46.5806 71.8109ZM46.5806 71.0581C46.9547 71.0581 47.2624 70.9622 47.5039 70.7704C47.7454 70.5787 47.9241 70.3265 48.0401 70.014C48.1561 69.7015 48.2141 69.363 48.2141 68.9984C48.2141 68.6338 48.1561 68.2941 48.0401 67.9792C47.9241 67.6644 47.7454 67.4099 47.5039 67.2157C47.2624 67.0216 46.9547 66.9245 46.5806 66.9245C46.2066 66.9245 45.8988 67.0216 45.6573 67.2157C45.4158 67.4099 45.2371 67.6644 45.1211 67.9792C45.0051 68.2941 44.9471 68.6338 44.9471 68.9984C44.9471 69.363 45.0051 69.7015 45.1211 70.014C45.2371 70.3265 45.4158 70.5787 45.6573 70.7704C45.8988 70.9622 46.2066 71.0581 46.5806 71.0581ZM50.3315 71.6973V66.2427H51.1412V67.095H51.2122C51.3258 66.8038 51.5093 66.5777 51.7626 66.4167C52.0159 66.2534 52.3201 66.1717 52.6752 66.1717C53.0351 66.1717 53.3346 66.2534 53.5737 66.4167C53.8152 66.5777 54.0034 66.8038 54.1383 67.095H54.1951C54.3348 66.8133 54.5443 66.5895 54.8237 66.4238C55.103 66.2557 55.438 66.1717 55.8287 66.1717C56.3163 66.1717 56.7153 66.3244 57.0254 66.6298C57.3355 66.9328 57.4906 67.4051 57.4906 68.0467V71.6973H56.6525V68.0467C56.6525 67.6442 56.5424 67.3566 56.3223 67.1838C56.1021 67.0109 55.8429 66.9245 55.5446 66.9245C55.161 66.9245 54.8639 67.0405 54.6532 67.2725C54.4425 67.5022 54.3372 67.7934 54.3372 68.1461V71.6973H53.4849V67.9615C53.4849 67.6513 53.3843 67.4016 53.1831 67.2122C52.9818 67.0204 52.7226 66.9245 52.4054 66.9245C52.1876 66.9245 51.984 66.9825 51.7946 67.0985C51.6075 67.2145 51.456 67.3755 51.34 67.5815C51.2264 67.7851 51.1696 68.0207 51.1696 68.2882V71.6973H50.3315ZM61.3098 71.8109C60.7843 71.8109 60.3309 71.6949 59.9498 71.4629C59.571 71.2285 59.2786 70.9018 59.0726 70.4828C58.869 70.0614 58.7672 69.5713 58.7672 69.0126C58.7672 68.4539 58.869 67.9615 59.0726 67.5353C59.2786 67.1068 59.565 66.773 59.932 66.5339C60.3013 66.2924 60.7322 66.1717 61.2246 66.1717C61.5087 66.1717 61.7892 66.219 62.0662 66.3137C62.3432 66.4084 62.5953 66.5623 62.8226 66.7754C63.0499 66.9861 63.231 67.2654 63.3659 67.6135C63.5009 67.9615 63.5684 68.39 63.5684 68.899V69.2541H59.3638V68.5297H62.7161C62.7161 68.2219 62.6545 67.9473 62.5314 67.7058C62.4107 67.4643 62.2379 67.2737 62.013 67.1341C61.7904 66.9944 61.5276 66.9245 61.2246 66.9245C60.8908 66.9245 60.602 67.0074 60.3581 67.1731C60.1167 67.3365 59.9308 67.5495 59.8006 67.8123C59.6704 68.0751 59.6053 68.3568 59.6053 68.6575V69.1404C59.6053 69.5524 59.6763 69.9016 59.8184 70.188C59.9628 70.4721 60.1628 70.6887 60.4185 70.8379C60.6742 70.9847 60.9713 71.0581 61.3098 71.0581C61.53 71.0581 61.7289 71.0273 61.9064 70.9657C62.0864 70.9018 62.2414 70.8071 62.3716 70.6816C62.5018 70.5538 62.6025 70.3952 62.6735 70.2058L63.4831 70.4331C63.3979 70.7077 63.2547 70.9492 63.0534 71.1575C62.8522 71.3635 62.6036 71.5244 62.3077 71.6404C62.0118 71.7541 61.6792 71.8109 61.3098 71.8109Z" fill="#CFD1DE"/>
<path d="M227.92 71.6973V64.4245H230.462C230.969 64.4245 231.387 64.5121 231.716 64.6873C232.045 64.8601 232.29 65.0933 232.451 65.3869C232.612 65.6781 232.692 66.0012 232.692 66.3564C232.692 66.6689 232.637 66.9269 232.526 67.1305C232.417 67.3341 232.272 67.4951 232.092 67.6135C231.915 67.7318 231.722 67.8194 231.513 67.8762V67.9473C231.736 67.9615 231.96 68.0396 232.185 68.1816C232.41 68.3237 232.598 68.5273 232.749 68.7924C232.901 69.0576 232.977 69.3819 232.977 69.7654C232.977 70.13 232.894 70.4579 232.728 70.7491C232.562 71.0403 232.301 71.2711 231.943 71.4416C231.586 71.612 231.121 71.6973 230.548 71.6973H227.92ZM228.8 70.916H230.548C231.123 70.916 231.531 70.8047 231.773 70.5822C232.017 70.3573 232.138 70.085 232.138 69.7654C232.138 69.5192 232.076 69.292 231.95 69.0836C231.825 68.8729 231.646 68.7048 231.414 68.5794C231.182 68.4515 230.907 68.3876 230.59 68.3876H228.8V70.916ZM228.8 67.6206H230.434C230.699 67.6206 230.938 67.5685 231.151 67.4643C231.367 67.3601 231.537 67.2134 231.663 67.024C231.79 66.8346 231.854 66.612 231.854 66.3564C231.854 66.0368 231.743 65.7657 231.521 65.5431C231.298 65.3182 230.945 65.2058 230.462 65.2058H228.8V67.6206ZM234.31 71.6973V66.2427H235.148V71.6973H234.31ZM234.736 65.3336C234.573 65.3336 234.432 65.278 234.314 65.1667C234.198 65.0555 234.14 64.9217 234.14 64.7654C234.14 64.6092 234.198 64.4754 234.314 64.3642C234.432 64.2529 234.573 64.1973 234.736 64.1973C234.9 64.1973 235.039 64.2529 235.155 64.3642C235.274 64.4754 235.333 64.6092 235.333 64.7654C235.333 64.9217 235.274 65.0555 235.155 65.1667C235.039 65.278 234.9 65.3336 234.736 65.3336ZM237.521 64.4245V71.6973H236.683V64.4245H237.521ZM239.894 64.4245V71.6973H239.056V64.4245H239.894ZM243.716 71.8109C243.191 71.8109 242.737 71.6949 242.356 71.4629C241.977 71.2285 241.685 70.9018 241.479 70.4828C241.275 70.0614 241.173 69.5713 241.173 69.0126C241.173 68.4539 241.275 67.9615 241.479 67.5353C241.685 67.1068 241.971 66.773 242.338 66.5339C242.708 66.2924 243.138 66.1717 243.631 66.1717C243.915 66.1717 244.195 66.219 244.472 66.3137C244.749 66.4084 245.002 66.5623 245.229 66.7754C245.456 66.9861 245.637 67.2654 245.772 67.6135C245.907 67.9615 245.975 68.39 245.975 68.899V69.2541H241.77V68.5297H245.122C245.122 68.2219 245.061 67.9473 244.938 67.7058C244.817 67.4643 244.644 67.2737 244.419 67.1341C244.197 66.9944 243.934 66.9245 243.631 66.9245C243.297 66.9245 243.008 67.0074 242.764 67.1731C242.523 67.3365 242.337 67.5495 242.207 67.8123C242.077 68.0751 242.012 68.3568 242.012 68.6575V69.1404C242.012 69.5524 242.083 69.9016 242.225 70.188C242.369 70.4721 242.569 70.6887 242.825 70.8379C243.08 70.9847 243.378 71.0581 243.716 71.0581C243.936 71.0581 244.135 71.0273 244.313 70.9657C244.493 70.9018 244.648 70.8071 244.778 70.6816C244.908 70.5538 245.009 70.3952 245.08 70.2058L245.889 70.4331C245.804 70.7077 245.661 70.9492 245.46 71.1575C245.258 71.3635 245.01 71.5244 244.714 71.6404C244.418 71.7541 244.085 71.8109 243.716 71.8109ZM249.622 66.2427V66.9529H246.795V66.2427H249.622ZM247.619 64.9359H248.457V70.1348C248.457 70.3715 248.491 70.5491 248.56 70.6674C248.631 70.7834 248.721 70.8616 248.83 70.9018C248.941 70.9397 249.058 70.9586 249.181 70.9586C249.274 70.9586 249.349 70.9539 249.409 70.9444C249.468 70.9326 249.515 70.9231 249.551 70.916L249.721 71.6689C249.664 71.6902 249.585 71.7115 249.483 71.7328C249.381 71.7565 249.252 71.7683 249.096 71.7683C248.859 71.7683 248.627 71.7174 248.4 71.6156C248.175 71.5138 247.988 71.3587 247.839 71.1504C247.692 70.9421 247.619 70.6793 247.619 70.362V64.9359ZM253.111 71.8109C252.585 71.8109 252.132 71.6949 251.751 71.4629C251.372 71.2285 251.079 70.9018 250.873 70.4828C250.67 70.0614 250.568 69.5713 250.568 69.0126C250.568 68.4539 250.67 67.9615 250.873 67.5353C251.079 67.1068 251.366 66.773 251.733 66.5339C252.102 66.2924 252.533 66.1717 253.025 66.1717C253.309 66.1717 253.59 66.219 253.867 66.3137C254.144 66.4084 254.396 66.5623 254.623 66.7754C254.851 66.9861 255.032 67.2654 255.167 67.6135C255.302 67.9615 255.369 68.39 255.369 68.899V69.2541H251.165V68.5297H254.517C254.517 68.2219 254.455 67.9473 254.332 67.7058C254.211 67.4643 254.039 67.2737 253.814 67.1341C253.591 66.9944 253.328 66.9245 253.025 66.9245C252.692 66.9245 252.403 67.0074 252.159 67.1731C251.917 67.3365 251.732 67.5495 251.601 67.8123C251.471 68.0751 251.406 68.3568 251.406 68.6575V69.1404C251.406 69.5524 251.477 69.9016 251.619 70.188C251.764 70.4721 251.964 70.6887 252.219 70.8379C252.475 70.9847 252.772 71.0581 253.111 71.0581C253.331 71.0581 253.53 71.0273 253.707 70.9657C253.887 70.9018 254.042 70.8071 254.172 70.6816C254.303 70.5538 254.403 70.3952 254.474 70.2058L255.284 70.4331C255.199 70.7077 255.055 70.9492 254.854 71.1575C254.653 71.3635 254.404 71.5244 254.108 71.6404C253.813 71.7541 253.48 71.8109 253.111 71.8109ZM256.644 71.6973V66.2427H257.454V67.0666H257.51C257.61 66.7967 257.79 66.5777 258.05 66.4096C258.311 66.2415 258.604 66.1575 258.931 66.1575C258.992 66.1575 259.069 66.1587 259.162 66.161C259.254 66.1634 259.324 66.167 259.371 66.1717V67.024C259.343 67.0169 259.278 67.0062 259.176 66.992C259.077 66.9754 258.971 66.9672 258.86 66.9672C258.595 66.9672 258.358 67.0228 258.15 67.1341C257.944 67.243 257.78 67.3945 257.66 67.5886C257.541 67.7804 257.482 67.9993 257.482 68.2456V71.6973H256.644ZM261.97 71.8251C261.624 71.8251 261.31 71.76 261.029 71.6298C260.747 71.4972 260.523 71.3066 260.358 71.0581C260.192 70.8071 260.109 70.5041 260.109 70.149C260.109 69.8365 260.171 69.5832 260.294 69.389C260.417 69.1925 260.581 69.0386 260.787 68.9274C260.993 68.8161 261.221 68.7333 261.469 68.6788C261.72 68.622 261.972 68.577 262.225 68.5439C262.557 68.5012 262.826 68.4693 263.032 68.448C263.24 68.4243 263.391 68.3852 263.486 68.3308C263.583 68.2763 263.632 68.1816 263.632 68.0467V68.0183C263.632 67.6679 263.536 67.3957 263.344 67.2015C263.155 67.0074 262.867 66.9103 262.481 66.9103C262.081 66.9103 261.767 66.9979 261.54 67.1731C261.313 67.3483 261.153 67.5353 261.061 67.7342L260.265 67.4501C260.407 67.1187 260.597 66.8606 260.833 66.676C261.073 66.4889 261.333 66.3587 261.615 66.2853C261.899 66.2096 262.178 66.1717 262.453 66.1717C262.628 66.1717 262.829 66.193 263.056 66.2356C263.286 66.2759 263.507 66.3599 263.721 66.4877C263.936 66.6156 264.115 66.8085 264.257 67.0666C264.399 67.3246 264.47 67.6703 264.47 68.1035V71.6973H263.632V70.9586H263.589C263.532 71.077 263.438 71.2037 263.305 71.3386C263.172 71.4735 262.996 71.5884 262.776 71.6831C262.556 71.7778 262.287 71.8251 261.97 71.8251ZM262.098 71.0723C262.429 71.0723 262.708 71.0072 262.936 70.877C263.165 70.7467 263.338 70.5787 263.454 70.3727C263.573 70.1667 263.632 69.9501 263.632 69.7228V68.9558C263.596 68.9984 263.518 69.0375 263.397 69.073C263.279 69.1061 263.142 69.1357 262.985 69.1618C262.832 69.1854 262.681 69.2067 262.534 69.2257C262.39 69.2422 262.273 69.2565 262.183 69.2683C261.965 69.2967 261.761 69.3429 261.572 69.4068C261.385 69.4683 261.234 69.5618 261.118 69.6873C261.004 69.8104 260.947 69.9785 260.947 70.1916C260.947 70.4828 261.055 70.7029 261.27 70.8521C261.488 70.9989 261.764 71.0723 262.098 71.0723Z" fill="#CFD1DE"/>
<path d="M255.231 37.7422L238.074 37.7422C236.401 37.7422 235.044 39.0988 235.044 40.7722V54.9382C235.044 56.6117 236.401 57.9682 238.074 57.9682H254.197C255.871 57.9682 257.227 56.6117 257.227 54.9382V44.7229C257.227 43.0495 255.871 41.6929 254.197 41.6929H237.548C236.433 41.6929 235.528 40.7886 235.528 39.6731V39.6731" stroke="#CFD1DE" stroke-width="2.02" stroke-linecap="round" stroke-linejoin="round"/>
<rect width="70" height="2" transform="matrix(1 0 0 -1 113.136 21.6973)" fill="#55B3FF"/>
</g>
<defs>
<filter id="filter0_d_1714_39213" x="-12" y="0.697266" width="416" height="101" filterUnits="userSpaceOnUse" color-interpolation-filters="sRGB">
<feFlood flood-opacity="0" result="BackgroundImageFix"/>
<feColorMatrix in="SourceAlpha" type="matrix" values="0 0 0 0 0 0 0 0 0 0 0 0 0 0 0 0 0 0 127 0" result="hardAlpha"/>
<feOffset dy="-6"/>
<feGaussianBlur stdDeviation="6.5"/>
<feComposite in2="hardAlpha" operator="out"/>
<feColorMatrix type="matrix" values="0 0 0 0 0 0 0 0 0 0 0 0 0 0 0 0 0 0 0.04 0"/>
<feBlend mode="normal" in2="BackgroundImageFix" result="effect1_dropShadow_1714_39213"/>
<feBlend mode="normal" in="SourceGraphic" in2="effect1_dropShadow_1714_39213" result="shape"/>
</filter>
</defs>
</svg>
