<svg width="391" height="95" viewBox="0 0 391 95" fill="none" xmlns="http://www.w3.org/2000/svg">
<g filter="url(#filter0_d_1464_18931)">
<rect x="0.107422" y="19.0469" width="390" height="75" fill="white"/>
<g opacity="0.5">
<path d="M28.9941 43.022C28.9941 42.0684 29.4475 41.1717 30.2153 40.6062L39.1072 34.0586L47.999 40.6062C48.7669 41.1717 49.2202 42.0684 49.2202 43.022V53.8073C49.2202 55.188 48.1009 56.3073 46.7202 56.3073H43.1411C42.5888 56.3073 42.1411 55.8595 42.1411 55.3073V49.2225C42.1411 48.9463 41.9172 48.7225 41.6411 48.7225H36.5733C36.2971 48.7225 36.0733 48.9463 36.0733 49.2225V55.3073C36.0733 55.8595 35.6255 56.3073 35.0733 56.3073H31.4941C30.1134 56.3073 28.9941 55.188 28.9941 53.8073V43.022Z" stroke="#A0A3BD" stroke-width="2.02261" stroke-linecap="round" stroke-linejoin="round"/>
</g>
<g opacity="0.5">
<path d="M342.006 54.7889L342.177 53.6888C342.386 52.348 343.26 51.1995 344.557 50.798C346.166 50.2994 348.558 49.7324 351.108 49.7324C353.658 49.7324 356.049 50.2994 357.659 50.798C358.955 51.1995 359.83 52.348 360.038 53.6888L360.209 54.7889" stroke="#CFD1DE" stroke-width="2.02261" stroke-linecap="round" stroke-linejoin="round"/>
<path d="M351.107 45.1833C353.9 45.1833 356.164 42.9195 356.164 40.1268C356.164 37.3342 353.9 35.0703 351.107 35.0703C348.315 35.0703 346.051 37.3342 346.051 40.1268C346.051 42.9195 348.315 45.1833 351.107 45.1833Z" stroke="#CFD1DE" stroke-width="2.02261" stroke-linecap="round" stroke-linejoin="round"/>
</g>
<path d="M138.051 36.0801H137.04C135.364 36.0801 134.006 37.4384 134.006 39.114V53.2722C134.006 54.9478 135.364 56.3061 137.04 56.3061H149.175C150.851 56.3061 152.209 54.9478 152.209 53.2722V39.114C152.209 37.4384 150.851 36.0801 149.175 36.0801H148.164" stroke="#CFD1DE" stroke-width="2.02261"/>
<rect x="138.051" y="34.0586" width="10.113" height="5.05651" rx="2.02261" stroke="#CFD1DE" stroke-width="2.02261"/>
<path d="M26.0477 71.0469V63.7741H26.9284V67.0128H30.8062V63.7741H31.6869V71.0469H30.8062V67.794H26.9284V71.0469H26.0477ZM35.5523 71.1605C35.0599 71.1605 34.6278 71.0433 34.2561 70.8089C33.8868 70.5746 33.598 70.2467 33.3896 69.8253C33.1837 69.4039 33.0807 68.9115 33.0807 68.348C33.0807 67.7798 33.1837 67.2839 33.3896 66.8601C33.598 66.4363 33.8868 66.1072 34.2561 65.8729C34.6278 65.6385 35.0599 65.5213 35.5523 65.5213C36.0447 65.5213 36.4756 65.6385 36.8449 65.8729C37.2166 66.1072 37.5054 66.4363 37.7114 66.8601C37.9197 67.2839 38.0239 67.7798 38.0239 68.348C38.0239 68.9115 37.9197 69.4039 37.7114 69.8253C37.5054 70.2467 37.2166 70.5746 36.8449 70.8089C36.4756 71.0433 36.0447 71.1605 35.5523 71.1605ZM35.5523 70.4077C35.9263 70.4077 36.2341 70.3118 36.4756 70.12C36.7171 69.9283 36.8958 69.6761 37.0118 69.3636C37.1278 69.0511 37.1858 68.7126 37.1858 68.348C37.1858 67.9834 37.1278 67.6437 37.0118 67.3288C36.8958 67.014 36.7171 66.7595 36.4756 66.5653C36.2341 66.3712 35.9263 66.2741 35.5523 66.2741C35.1782 66.2741 34.8705 66.3712 34.629 66.5653C34.3875 66.7595 34.2088 67.014 34.0928 67.3288C33.9768 67.6437 33.9188 67.9834 33.9188 68.348C33.9188 68.7126 33.9768 69.0511 34.0928 69.3636C34.2088 69.6761 34.3875 69.9283 34.629 70.12C34.8705 70.3118 35.1782 70.4077 35.5523 70.4077ZM39.3032 71.0469V65.5923H40.1128V66.4446H40.1839C40.2975 66.1534 40.481 65.9273 40.7343 65.7663C40.9876 65.603 41.2918 65.5213 41.6469 65.5213C42.0068 65.5213 42.3063 65.603 42.5454 65.7663C42.7868 65.9273 42.9751 66.1534 43.11 66.4446H43.1668C43.3065 66.1629 43.516 65.9392 43.7954 65.7734C44.0747 65.6054 44.4097 65.5213 44.8003 65.5213C45.288 65.5213 45.6869 65.674 45.9971 65.9794C46.3072 66.2824 46.4623 66.7547 46.4623 67.3963V71.0469H45.6242V67.3963C45.6242 66.9938 45.5141 66.7062 45.2939 66.5334C45.0738 66.3606 44.8145 66.2741 44.5162 66.2741C44.1327 66.2741 43.8356 66.3902 43.6249 66.6222C43.4142 66.8518 43.3089 67.143 43.3089 67.4957V71.0469H42.4566V67.3111C42.4566 67.0009 42.356 66.7512 42.1547 66.5618C41.9535 66.37 41.6943 66.2741 41.377 66.2741C41.1592 66.2741 40.9556 66.3321 40.7662 66.4482C40.5792 66.5642 40.4277 66.7251 40.3117 66.9311C40.1981 67.1347 40.1412 67.3703 40.1412 67.6378V71.0469H39.3032ZM50.2815 71.1605C49.7559 71.1605 49.3026 71.0445 48.9214 70.8125C48.5426 70.5781 48.2503 70.2514 48.0443 69.8324C47.8407 69.411 47.7389 68.9209 47.7389 68.3622C47.7389 67.8035 47.8407 67.3111 48.0443 66.8849C48.2503 66.4564 48.5367 66.1226 48.9037 65.8835C49.273 65.642 49.7039 65.5213 50.1963 65.5213C50.4804 65.5213 50.7609 65.5687 51.0379 65.6634C51.3149 65.758 51.567 65.9119 51.7943 66.125C52.0216 66.3357 52.2027 66.6151 52.3376 66.9631C52.4726 67.3111 52.54 67.7396 52.54 68.2486V68.6037H48.3355V67.8793H51.6878C51.6878 67.5715 51.6262 67.2969 51.5031 67.0554C51.3824 66.8139 51.2095 66.6233 50.9846 66.4837C50.7621 66.344 50.4993 66.2741 50.1963 66.2741C49.8625 66.2741 49.5737 66.357 49.3298 66.5227C49.0883 66.6861 48.9025 66.8991 48.7723 67.1619C48.6421 67.4247 48.577 67.7064 48.577 68.0071V68.4901C48.577 68.902 48.648 69.2512 48.79 69.5376C48.9345 69.8217 49.1345 70.0384 49.3902 70.1875C49.6459 70.3343 49.943 70.4077 50.2815 70.4077C50.5017 70.4077 50.7006 70.3769 50.8781 70.3153C51.058 70.2514 51.2131 70.1567 51.3433 70.0312C51.4735 69.9034 51.5741 69.7448 51.6452 69.5554L52.4548 69.7827C52.3696 70.0573 52.2264 70.2988 52.0251 70.5071C51.8239 70.7131 51.5753 70.8741 51.2794 70.9901C50.9835 71.1037 50.6508 71.1605 50.2815 71.1605Z" fill="#A0A3BD"/>
<path d="M120.38 71.0469V63.7741H122.837C123.408 63.7741 123.874 63.8771 124.236 64.0831C124.601 64.2867 124.871 64.5625 125.046 64.9105C125.221 65.2585 125.309 65.6468 125.309 66.0753C125.309 66.5038 125.221 66.8932 125.046 67.2436C124.873 67.594 124.606 67.8733 124.243 68.0817C123.881 68.2876 123.417 68.3906 122.851 68.3906H121.09V67.6094H122.823C123.214 67.6094 123.527 67.5419 123.764 67.407C124.001 67.272 124.172 67.0897 124.279 66.8601C124.388 66.6281 124.442 66.3665 124.442 66.0753C124.442 65.7841 124.388 65.5237 124.279 65.294C124.172 65.0644 123.999 64.8845 123.76 64.7543C123.521 64.6217 123.204 64.5554 122.809 64.5554H121.26V71.0469H120.38ZM126.614 71.0469V65.5923H127.423V66.4162H127.48C127.58 66.1463 127.76 65.9273 128.02 65.7592C128.28 65.5911 128.574 65.5071 128.901 65.5071C128.962 65.5071 129.039 65.5083 129.131 65.5107C129.224 65.513 129.294 65.5166 129.341 65.5213V66.3736C129.313 66.3665 129.247 66.3558 129.146 66.3416C129.046 66.325 128.941 66.3168 128.83 66.3168C128.564 66.3168 128.328 66.3724 128.119 66.4837C127.913 66.5926 127.75 66.7441 127.629 66.9382C127.511 67.13 127.452 67.349 127.452 67.5952V71.0469H126.614ZM132.384 71.1605C131.892 71.1605 131.46 71.0433 131.088 70.8089C130.719 70.5746 130.43 70.2467 130.222 69.8253C130.016 69.4039 129.913 68.9115 129.913 68.348C129.913 67.7798 130.016 67.2839 130.222 66.8601C130.43 66.4363 130.719 66.1072 131.088 65.8729C131.46 65.6385 131.892 65.5213 132.384 65.5213C132.877 65.5213 133.308 65.6385 133.677 65.8729C134.049 66.1072 134.337 66.4363 134.543 66.8601C134.752 67.2839 134.856 67.7798 134.856 68.348C134.856 68.9115 134.752 69.4039 134.543 69.8253C134.337 70.2467 134.049 70.5746 133.677 70.8089C133.308 71.0433 132.877 71.1605 132.384 71.1605ZM132.384 70.4077C132.758 70.4077 133.066 70.3118 133.308 70.12C133.549 69.9283 133.728 69.6761 133.844 69.3636C133.96 69.0511 134.018 68.7126 134.018 68.348C134.018 67.9834 133.96 67.6437 133.844 67.3288C133.728 67.014 133.549 66.7595 133.308 66.5653C133.066 66.3712 132.758 66.2741 132.384 66.2741C132.01 66.2741 131.703 66.3712 131.461 66.5653C131.22 66.7595 131.041 67.014 130.925 67.3288C130.809 67.6437 130.751 67.9834 130.751 68.348C130.751 68.7126 130.809 69.0511 130.925 69.3636C131.041 69.6761 131.22 69.9283 131.461 70.12C131.703 70.3118 132.01 70.4077 132.384 70.4077ZM136.48 73.0923C136.338 73.0923 136.211 73.0805 136.1 73.0568C135.988 73.0355 135.911 73.0142 135.869 72.9929L136.082 72.2543C136.286 72.3063 136.465 72.3253 136.622 72.3111C136.778 72.2969 136.916 72.227 137.037 72.1016C137.16 71.9785 137.273 71.7784 137.375 71.5014L137.531 71.0753L135.514 65.5923H136.423L137.929 69.9389H137.985L139.491 65.5923H140.4L138.085 71.8423C137.981 72.1241 137.852 72.3572 137.698 72.5419C137.544 72.7289 137.365 72.8674 137.161 72.9574C136.96 73.0473 136.733 73.0923 136.48 73.0923ZM143.598 71.1605C143.072 71.1605 142.619 71.0445 142.238 70.8125C141.859 70.5781 141.567 70.2514 141.361 69.8324C141.157 69.411 141.055 68.9209 141.055 68.3622C141.055 67.8035 141.157 67.3111 141.361 66.8849C141.567 66.4564 141.853 66.1226 142.22 65.8835C142.589 65.642 143.02 65.5213 143.513 65.5213C143.797 65.5213 144.077 65.5687 144.354 65.6634C144.631 65.758 144.883 65.9119 145.111 66.125C145.338 66.3357 145.519 66.6151 145.654 66.9631C145.789 67.3111 145.856 67.7396 145.856 68.2486V68.6037H141.652V67.8793H145.004C145.004 67.5715 144.943 67.2969 144.82 67.0554C144.699 66.8139 144.526 66.6233 144.301 66.4837C144.079 66.344 143.816 66.2741 143.513 66.2741C143.179 66.2741 142.89 66.357 142.646 66.5227C142.405 66.6861 142.219 66.8991 142.089 67.1619C141.958 67.4247 141.893 67.7064 141.893 68.0071V68.4901C141.893 68.902 141.964 69.2512 142.106 69.5376C142.251 69.8217 142.451 70.0384 142.707 70.1875C142.962 70.3343 143.259 70.4077 143.598 70.4077C143.818 70.4077 144.017 70.3769 144.195 70.3153C144.374 70.2514 144.53 70.1567 144.66 70.0312C144.79 69.9034 144.891 69.7448 144.962 69.5554L145.771 69.7827C145.686 70.0573 145.543 70.2988 145.342 70.5071C145.14 70.7131 144.892 70.8741 144.596 70.9901C144.3 71.1037 143.967 71.1605 143.598 71.1605ZM149.347 71.1605C148.836 71.1605 148.396 71.0398 148.026 70.7983C147.657 70.5568 147.373 70.2242 147.174 69.8004C146.975 69.3767 146.876 68.8925 146.876 68.348C146.876 67.794 146.977 67.3052 147.181 66.8814C147.387 66.4553 147.673 66.1226 148.04 65.8835C148.41 65.642 148.841 65.5213 149.333 65.5213C149.717 65.5213 150.062 65.5923 150.37 65.7344C150.678 65.8764 150.93 66.0753 151.126 66.331C151.323 66.5866 151.445 66.8849 151.492 67.2259H150.654C150.59 66.9773 150.448 66.7571 150.228 66.5653C150.01 66.3712 149.717 66.2741 149.347 66.2741C149.021 66.2741 148.734 66.3594 148.488 66.5298C148.244 66.6979 148.053 66.9358 147.916 67.2436C147.781 67.549 147.714 67.9077 147.714 68.3196C147.714 68.741 147.78 69.108 147.913 69.4205C148.047 69.733 148.237 69.9756 148.481 70.1484C148.727 70.3213 149.016 70.4077 149.347 70.4077C149.565 70.4077 149.763 70.3698 149.94 70.294C150.118 70.2183 150.268 70.1094 150.391 69.9673C150.514 69.8253 150.602 69.6548 150.654 69.456H151.492C151.445 69.7779 151.328 70.0679 151.141 70.326C150.956 70.5817 150.711 70.7853 150.405 70.9368C150.102 71.0859 149.75 71.1605 149.347 71.1605ZM155.089 65.5923V66.3026H152.263V65.5923H155.089ZM153.087 64.2855H153.925V69.4844C153.925 69.7211 153.959 69.8987 154.028 70.017C154.099 70.133 154.189 70.2112 154.297 70.2514C154.409 70.2893 154.526 70.3082 154.649 70.3082C154.741 70.3082 154.817 70.3035 154.876 70.294C154.936 70.2822 154.983 70.2727 155.018 70.2656L155.189 71.0185C155.132 71.0398 155.053 71.0611 154.951 71.0824C154.849 71.1061 154.72 71.1179 154.564 71.1179C154.327 71.1179 154.095 71.067 153.868 70.9652C153.643 70.8634 153.456 70.7083 153.307 70.5C153.16 70.2917 153.087 70.0289 153.087 69.7116V64.2855ZM158.507 71.1605C158.015 71.1605 157.583 71.0433 157.211 70.8089C156.842 70.5746 156.553 70.2467 156.345 69.8253C156.139 69.4039 156.036 68.9115 156.036 68.348C156.036 67.7798 156.139 67.2839 156.345 66.8601C156.553 66.4363 156.842 66.1072 157.211 65.8729C157.583 65.6385 158.015 65.5213 158.507 65.5213C159 65.5213 159.431 65.6385 159.8 65.8729C160.172 66.1072 160.46 66.4363 160.666 66.8601C160.875 67.2839 160.979 67.7798 160.979 68.348C160.979 68.9115 160.875 69.4039 160.666 69.8253C160.46 70.2467 160.172 70.5746 159.8 70.8089C159.431 71.0433 159 71.1605 158.507 71.1605ZM158.507 70.4077C158.881 70.4077 159.189 70.3118 159.431 70.12C159.672 69.9283 159.851 69.6761 159.967 69.3636C160.083 69.0511 160.141 68.7126 160.141 68.348C160.141 67.9834 160.083 67.6437 159.967 67.3288C159.851 67.014 159.672 66.7595 159.431 66.5653C159.189 66.3712 158.881 66.2741 158.507 66.2741C158.133 66.2741 157.826 66.3712 157.584 66.5653C157.343 66.7595 157.164 67.014 157.048 67.3288C156.932 67.6437 156.874 67.9834 156.874 68.348C156.874 68.7126 156.932 69.0511 157.048 69.3636C157.164 69.6761 157.343 69.9283 157.584 70.12C157.826 70.3118 158.133 70.4077 158.507 70.4077ZM166.122 66.8139L165.369 67.027C165.322 66.9015 165.252 66.7796 165.16 66.6612C165.07 66.5405 164.946 66.4411 164.79 66.3629C164.634 66.2848 164.434 66.2457 164.19 66.2457C163.856 66.2457 163.578 66.3227 163.356 66.4766C163.135 66.6281 163.025 66.821 163.025 67.0554C163.025 67.2637 163.101 67.4283 163.253 67.549C163.404 67.6697 163.641 67.7704 163.963 67.8509L164.772 68.0497C165.26 68.1681 165.624 68.3492 165.863 68.593C166.102 68.8345 166.221 69.1458 166.221 69.527C166.221 69.8395 166.131 70.1188 165.951 70.3651C165.774 70.6113 165.525 70.8054 165.206 70.9474C164.886 71.0895 164.514 71.1605 164.091 71.1605C163.534 71.1605 163.074 71.0398 162.709 70.7983C162.345 70.5568 162.114 70.2041 162.017 69.7401L162.812 69.5412C162.888 69.8348 163.031 70.0549 163.242 70.2017C163.455 70.3485 163.733 70.4219 164.076 70.4219C164.467 70.4219 164.777 70.339 165.007 70.1733C165.239 70.0052 165.355 69.804 165.355 69.5696C165.355 69.3802 165.289 69.2216 165.156 69.0938C165.023 68.9635 164.82 68.8665 164.545 68.8026L163.636 68.5895C163.137 68.4711 162.77 68.2876 162.535 68.0391C162.303 67.7881 162.187 67.4744 162.187 67.098C162.187 66.7902 162.274 66.518 162.446 66.2812C162.622 66.0445 162.86 65.8587 163.16 65.7237C163.463 65.5888 163.807 65.5213 164.19 65.5213C164.73 65.5213 165.154 65.6397 165.461 65.8764C165.772 66.1132 165.992 66.4257 166.122 66.8139Z" fill="#A0A3BD"/>
<path d="M228.891 71.0469V63.7741H231.434C231.941 63.7741 232.359 63.8617 232.688 64.0369C233.017 64.2098 233.262 64.4429 233.423 64.7365C233.584 65.0277 233.664 65.3509 233.664 65.706C233.664 66.0185 233.609 66.2765 233.497 66.4801C233.388 66.6837 233.244 66.8447 233.064 66.9631C232.886 67.0814 232.694 67.169 232.485 67.2259V67.2969C232.708 67.3111 232.931 67.3892 233.156 67.5312C233.381 67.6733 233.569 67.8769 233.721 68.142C233.872 68.4072 233.948 68.7315 233.948 69.1151C233.948 69.4796 233.865 69.8075 233.7 70.0987C233.534 70.3899 233.272 70.6207 232.915 70.7912C232.557 70.9616 232.092 71.0469 231.519 71.0469H228.891ZM229.772 70.2656H231.519C232.095 70.2656 232.503 70.1544 232.744 69.9318C232.988 69.7069 233.11 69.4347 233.11 69.1151C233.11 68.8688 233.047 68.6416 232.922 68.4332C232.796 68.2225 232.618 68.0545 232.386 67.929C232.154 67.8011 231.879 67.7372 231.562 67.7372H229.772V70.2656ZM229.772 66.9702H231.406C231.671 66.9702 231.91 66.9181 232.123 66.8139C232.338 66.7098 232.509 66.563 232.634 66.3736C232.762 66.1842 232.826 65.9616 232.826 65.706C232.826 65.3864 232.715 65.1153 232.492 64.8928C232.27 64.6679 231.917 64.5554 231.434 64.5554H229.772V66.9702ZM235.282 71.0469V65.5923H236.12V71.0469H235.282ZM235.708 64.6832C235.544 64.6832 235.404 64.6276 235.285 64.5163C235.169 64.4051 235.111 64.2713 235.111 64.1151C235.111 63.9588 235.169 63.825 235.285 63.7138C235.404 63.6025 235.544 63.5469 235.708 63.5469C235.871 63.5469 236.011 63.6025 236.127 63.7138C236.245 63.825 236.304 63.9588 236.304 64.1151C236.304 64.2713 236.245 64.4051 236.127 64.5163C236.011 64.6276 235.871 64.6832 235.708 64.6832ZM238.493 63.7741V71.0469H237.655V63.7741H238.493ZM240.866 63.7741V71.0469H240.028V63.7741H240.866ZM244.688 71.1605C244.162 71.1605 243.709 71.0445 243.328 70.8125C242.949 70.5781 242.657 70.2514 242.451 69.8324C242.247 69.411 242.145 68.9209 242.145 68.3622C242.145 67.8035 242.247 67.3111 242.451 66.8849C242.657 66.4564 242.943 66.1226 243.31 65.8835C243.679 65.642 244.11 65.5213 244.603 65.5213C244.887 65.5213 245.167 65.5687 245.444 65.6634C245.721 65.758 245.973 65.9119 246.201 66.125C246.428 66.3357 246.609 66.6151 246.744 66.9631C246.879 67.3111 246.946 67.7396 246.946 68.2486V68.6037H242.742V67.8793H246.094C246.094 67.5715 246.032 67.2969 245.909 67.0554C245.789 66.8139 245.616 66.6233 245.391 66.4837C245.168 66.344 244.906 66.2741 244.603 66.2741C244.269 66.2741 243.98 66.357 243.736 66.5227C243.495 66.6861 243.309 66.8991 243.179 67.1619C243.048 67.4247 242.983 67.7064 242.983 68.0071V68.4901C242.983 68.902 243.054 69.2512 243.196 69.5376C243.341 69.8217 243.541 70.0384 243.796 70.1875C244.052 70.3343 244.349 70.4077 244.688 70.4077C244.908 70.4077 245.107 70.3769 245.284 70.3153C245.464 70.2514 245.619 70.1567 245.75 70.0312C245.88 69.9034 245.98 69.7448 246.051 69.5554L246.861 69.7827C246.776 70.0573 246.633 70.2988 246.431 70.5071C246.23 70.7131 245.982 70.8741 245.686 70.9901C245.39 71.1037 245.057 71.1605 244.688 71.1605ZM250.593 65.5923V66.3026H247.767V65.5923H250.593ZM248.59 64.2855H249.429V69.4844C249.429 69.7211 249.463 69.8987 249.532 70.017C249.603 70.133 249.693 70.2112 249.801 70.2514C249.913 70.2893 250.03 70.3082 250.153 70.3082C250.245 70.3082 250.321 70.3035 250.38 70.294C250.439 70.2822 250.487 70.2727 250.522 70.2656L250.693 71.0185C250.636 71.0398 250.557 71.0611 250.455 71.0824C250.353 71.1061 250.224 71.1179 250.068 71.1179C249.831 71.1179 249.599 71.067 249.372 70.9652C249.147 70.8634 248.96 70.7083 248.811 70.5C248.664 70.2917 248.59 70.0289 248.59 69.7116V64.2855ZM254.082 71.1605C253.557 71.1605 253.103 71.0445 252.722 70.8125C252.343 70.5781 252.051 70.2514 251.845 69.8324C251.641 69.411 251.54 68.9209 251.54 68.3622C251.54 67.8035 251.641 67.3111 251.845 66.8849C252.051 66.4564 252.338 66.1226 252.704 65.8835C253.074 65.642 253.505 65.5213 253.997 65.5213C254.281 65.5213 254.562 65.5687 254.839 65.6634C255.116 65.758 255.368 65.9119 255.595 66.125C255.822 66.3357 256.003 66.6151 256.138 66.9631C256.273 67.3111 256.341 67.7396 256.341 68.2486V68.6037H252.136V67.8793H255.489C255.489 67.5715 255.427 67.2969 255.304 67.0554C255.183 66.8139 255.01 66.6233 254.785 66.4837C254.563 66.344 254.3 66.2741 253.997 66.2741C253.663 66.2741 253.374 66.357 253.131 66.5227C252.889 66.6861 252.703 66.8991 252.573 67.1619C252.443 67.4247 252.378 67.7064 252.378 68.0071V68.4901C252.378 68.902 252.449 69.2512 252.591 69.5376C252.735 69.8217 252.935 70.0384 253.191 70.1875C253.447 70.3343 253.744 70.4077 254.082 70.4077C254.302 70.4077 254.501 70.3769 254.679 70.3153C254.859 70.2514 255.014 70.1567 255.144 70.0312C255.274 69.9034 255.375 69.7448 255.446 69.5554L256.256 69.7827C256.17 70.0573 256.027 70.2988 255.826 70.5071C255.625 70.7131 255.376 70.8741 255.08 70.9901C254.784 71.1037 254.452 71.1605 254.082 71.1605ZM257.616 71.0469V65.5923H258.425V66.4162H258.482C258.582 66.1463 258.762 65.9273 259.022 65.7592C259.282 65.5911 259.576 65.5071 259.903 65.5071C259.964 65.5071 260.041 65.5083 260.133 65.5107C260.226 65.513 260.296 65.5166 260.343 65.5213V66.3736C260.315 66.3665 260.249 66.3558 260.148 66.3416C260.048 66.325 259.943 66.3168 259.832 66.3168C259.566 66.3168 259.33 66.3724 259.121 66.4837C258.915 66.5926 258.752 66.7441 258.631 66.9382C258.513 67.13 258.454 67.349 258.454 67.5952V71.0469H257.616ZM262.941 71.1747C262.596 71.1747 262.282 71.1096 262 70.9794C261.719 70.8468 261.495 70.6562 261.329 70.4077C261.164 70.1567 261.081 69.8537 261.081 69.4986C261.081 69.1861 261.142 68.9328 261.265 68.7386C261.388 68.5421 261.553 68.3883 261.759 68.277C261.965 68.1657 262.192 68.0829 262.441 68.0284C262.692 67.9716 262.944 67.9266 263.197 67.8935C263.529 67.8509 263.797 67.8189 264.003 67.7976C264.212 67.7739 264.363 67.7348 264.458 67.6804C264.555 67.6259 264.603 67.5312 264.603 67.3963V67.3679C264.603 67.0175 264.508 66.7453 264.316 66.5511C264.126 66.357 263.839 66.2599 263.453 66.2599C263.053 66.2599 262.739 66.3475 262.512 66.5227C262.285 66.6979 262.125 66.8849 262.032 67.0838L261.237 66.7997C261.379 66.4683 261.568 66.2102 261.805 66.0256C262.044 65.8385 262.305 65.7083 262.586 65.6349C262.87 65.5592 263.15 65.5213 263.424 65.5213C263.6 65.5213 263.801 65.5426 264.028 65.5852C264.258 65.6255 264.479 65.7095 264.692 65.8374C264.908 65.9652 265.086 66.1581 265.228 66.4162C265.37 66.6742 265.441 67.0199 265.441 67.4531V71.0469H264.603V70.3082H264.561C264.504 70.4266 264.409 70.5533 264.277 70.6882C264.144 70.8232 263.968 70.938 263.748 71.0327C263.527 71.1274 263.259 71.1747 262.941 71.1747ZM263.069 70.4219C263.401 70.4219 263.68 70.3568 263.907 70.2266C264.137 70.0964 264.31 69.9283 264.426 69.7223C264.544 69.5163 264.603 69.2997 264.603 69.0724V68.3054C264.568 68.348 264.49 68.3871 264.369 68.4226C264.251 68.4557 264.113 68.4853 263.957 68.5114C263.803 68.535 263.653 68.5563 263.506 68.5753C263.362 68.5919 263.245 68.6061 263.155 68.6179C262.937 68.6463 262.733 68.6925 262.544 68.7564C262.357 68.8179 262.205 68.9115 262.089 69.0369C261.976 69.16 261.919 69.3281 261.919 69.5412C261.919 69.8324 262.026 70.0526 262.242 70.2017C262.46 70.3485 262.736 70.4219 263.069 70.4219Z" fill="#389BEC"/>
<path d="M339.727 71.0469V63.7741H342.185C342.755 63.7741 343.222 63.8771 343.584 64.0831C343.948 64.2867 344.218 64.5625 344.394 64.9105C344.569 65.2585 344.656 65.6468 344.656 66.0753C344.656 66.5038 344.569 66.8932 344.394 67.2436C344.221 67.594 343.953 67.8733 343.591 68.0817C343.229 68.2876 342.765 68.3906 342.199 68.3906H340.438V67.6094H342.171C342.561 67.6094 342.875 67.5419 343.112 67.407C343.348 67.272 343.52 67.0897 343.627 66.8601C343.735 66.6281 343.79 66.3665 343.79 66.0753C343.79 65.7841 343.735 65.5237 343.627 65.294C343.52 65.0644 343.347 64.8845 343.108 64.7543C342.869 64.6217 342.552 64.5554 342.156 64.5554H340.608V71.0469H339.727ZM348.19 71.1605C347.664 71.1605 347.211 71.0445 346.83 70.8125C346.451 70.5781 346.158 70.2514 345.953 69.8324C345.749 69.411 345.647 68.9209 345.647 68.3622C345.647 67.8035 345.749 67.3111 345.953 66.8849C346.158 66.4564 346.445 66.1226 346.812 65.8835C347.181 65.642 347.612 65.5213 348.104 65.5213C348.389 65.5213 348.669 65.5687 348.946 65.6634C349.223 65.758 349.475 65.9119 349.703 66.125C349.93 66.3357 350.111 66.6151 350.246 66.9631C350.381 67.3111 350.448 67.7396 350.448 68.2486V68.6037H346.244V67.8793H349.596C349.596 67.5715 349.534 67.2969 349.411 67.0554C349.291 66.8139 349.118 66.6233 348.893 66.4837C348.67 66.344 348.408 66.2741 348.104 66.2741C347.771 66.2741 347.482 66.357 347.238 66.5227C346.997 66.6861 346.811 66.8991 346.68 67.1619C346.55 67.4247 346.485 67.7064 346.485 68.0071V68.4901C346.485 68.902 346.556 69.2512 346.698 69.5376C346.843 69.8217 347.043 70.0384 347.298 70.1875C347.554 70.3343 347.851 70.4077 348.19 70.4077C348.41 70.4077 348.609 70.3769 348.786 70.3153C348.966 70.2514 349.121 70.1567 349.252 70.0312C349.382 69.9034 349.482 69.7448 349.553 69.5554L350.363 69.7827C350.278 70.0573 350.135 70.2988 349.933 70.5071C349.732 70.7131 349.484 70.8741 349.188 70.9901C348.892 71.1037 348.559 71.1605 348.19 71.1605ZM351.723 71.0469V65.5923H352.533V66.4162H352.59C352.689 66.1463 352.869 65.9273 353.129 65.7592C353.39 65.5911 353.683 65.5071 354.01 65.5071C354.072 65.5071 354.149 65.5083 354.241 65.5107C354.333 65.513 354.403 65.5166 354.45 65.5213V66.3736C354.422 66.3665 354.357 66.3558 354.255 66.3416C354.156 66.325 354.05 66.3168 353.939 66.3168C353.674 66.3168 353.437 66.3724 353.229 66.4837C353.023 66.5926 352.859 66.7441 352.739 66.9382C352.62 67.13 352.561 67.349 352.561 67.5952V71.0469H351.723ZM358.215 65.5923V66.3026H355.274V65.5923H358.215ZM356.155 71.0469V64.8395C356.155 64.527 356.228 64.2666 356.375 64.0582C356.522 63.8499 356.712 63.6937 356.947 63.5895C357.181 63.4853 357.429 63.4332 357.689 63.4332C357.895 63.4332 358.063 63.4498 358.193 63.483C358.323 63.5161 358.421 63.5469 358.484 63.5753L358.243 64.2997C358.2 64.2855 358.141 64.2678 358.065 64.2464C357.992 64.2251 357.895 64.2145 357.774 64.2145C357.497 64.2145 357.297 64.2843 357.174 64.424C357.053 64.5637 356.993 64.7685 356.993 65.0384V71.0469H356.155ZM359.389 71.0469V65.5923H360.227V71.0469H359.389ZM359.815 64.6832C359.652 64.6832 359.511 64.6276 359.393 64.5163C359.277 64.4051 359.219 64.2713 359.219 64.1151C359.219 63.9588 359.277 63.825 359.393 63.7138C359.511 63.6025 359.652 63.5469 359.815 63.5469C359.979 63.5469 360.118 63.6025 360.234 63.7138C360.353 63.825 360.412 63.9588 360.412 64.1151C360.412 64.2713 360.353 64.4051 360.234 64.5163C360.118 64.6276 359.979 64.6832 359.815 64.6832ZM362.6 63.7741V71.0469H361.762V63.7741H362.6Z" fill="#A0A3BD"/>
<path d="M256.203 37.0918L239.046 37.0918C237.372 37.0918 236.016 38.4484 236.016 40.1218V54.2879C236.016 55.9613 237.372 57.3179 239.046 57.3179H255.169C256.842 57.3179 258.199 55.9613 258.199 54.2879V44.0725C258.199 42.3991 256.842 41.0425 255.169 41.0425H238.52C237.404 41.0425 236.5 40.1382 236.5 39.0228V39.0228" stroke="#9BCDF5" stroke-width="2.02" stroke-linecap="round" stroke-linejoin="round"/>
<rect width="70" height="2" transform="matrix(1 0 0 -1 212.107 21.0469)" fill="#55B3FF"/>
</g>
<defs>
<filter id="filter0_d_1464_18931" x="-12.8926" y="0.046875" width="416" height="101" filterUnits="userSpaceOnUse" color-interpolation-filters="sRGB">
<feFlood flood-opacity="0" result="BackgroundImageFix"/>
<feColorMatrix in="SourceAlpha" type="matrix" values="0 0 0 0 0 0 0 0 0 0 0 0 0 0 0 0 0 0 127 0" result="hardAlpha"/>
<feOffset dy="-6"/>
<feGaussianBlur stdDeviation="6.5"/>
<feComposite in2="hardAlpha" operator="out"/>
<feColorMatrix type="matrix" values="0 0 0 0 0 0 0 0 0 0 0 0 0 0 0 0 0 0 0.04 0"/>
<feBlend mode="normal" in2="BackgroundImageFix" result="effect1_dropShadow_1464_18931"/>
<feBlend mode="normal" in="SourceGraphic" in2="effect1_dropShadow_1464_18931" result="shape"/>
</filter>
</defs>
</svg>
