<svg width="391" height="94" viewBox="0 0 391 94" fill="none" xmlns="http://www.w3.org/2000/svg">
<g filter="url(#filter0_d_1714_36363)">
<rect x="0.173828" y="19" width="390" height="75" fill="white"/>
<path d="M36.1141 71V63.7273H36.9948V66.9659H40.8726V63.7273H41.7533V71H40.8726V67.7472H36.9948V71H36.1141ZM45.6187 71.1136C45.1263 71.1136 44.6942 70.9964 44.3225 70.7621C43.9532 70.5277 43.6644 70.1998 43.4561 69.7784C43.2501 69.357 43.1471 68.8646 43.1471 68.3011C43.1471 67.733 43.2501 67.237 43.4561 66.8132C43.6644 66.3894 43.9532 66.0604 44.3225 65.826C44.6942 65.5916 45.1263 65.4744 45.6187 65.4744C46.1111 65.4744 46.542 65.5916 46.9113 65.826C47.283 66.0604 47.5718 66.3894 47.7778 66.8132C47.9861 67.237 48.0903 67.733 48.0903 68.3011C48.0903 68.8646 47.9861 69.357 47.7778 69.7784C47.5718 70.1998 47.283 70.5277 46.9113 70.7621C46.542 70.9964 46.1111 71.1136 45.6187 71.1136ZM45.6187 70.3608C45.9927 70.3608 46.3005 70.2649 46.542 70.0732C46.7835 69.8814 46.9622 69.6293 47.0782 69.3168C47.1942 69.0043 47.2522 68.6657 47.2522 68.3011C47.2522 67.9366 47.1942 67.5968 47.0782 67.282C46.9622 66.9671 46.7835 66.7126 46.542 66.5185C46.3005 66.3243 45.9927 66.2273 45.6187 66.2273C45.2446 66.2273 44.9369 66.3243 44.6954 66.5185C44.4539 66.7126 44.2752 66.9671 44.1592 67.282C44.0432 67.5968 43.9852 67.9366 43.9852 68.3011C43.9852 68.6657 44.0432 69.0043 44.1592 69.3168C44.2752 69.6293 44.4539 69.8814 44.6954 70.0732C44.9369 70.2649 45.2446 70.3608 45.6187 70.3608ZM49.3696 71V65.5455H50.1792V66.3977H50.2503C50.3639 66.1065 50.5474 65.8804 50.8007 65.7195C51.054 65.5561 51.3582 65.4744 51.7133 65.4744C52.0732 65.4744 52.3727 65.5561 52.6118 65.7195C52.8532 65.8804 53.0415 66.1065 53.1764 66.3977H53.2332C53.3729 66.116 53.5824 65.8923 53.8618 65.7266C54.1411 65.5585 54.4761 65.4744 54.8667 65.4744C55.3544 65.4744 55.7533 65.6271 56.0635 65.9325C56.3736 66.2356 56.5287 66.7079 56.5287 67.3494V71H55.6906V67.3494C55.6906 66.947 55.5805 66.6593 55.3604 66.4865C55.1402 66.3137 54.8809 66.2273 54.5827 66.2273C54.1991 66.2273 53.902 66.3433 53.6913 66.5753C53.4806 66.8049 53.3753 67.0961 53.3753 67.4489V71H52.523V67.2642C52.523 66.9541 52.4224 66.7043 52.2211 66.5149C52.0199 66.3232 51.7607 66.2273 51.4434 66.2273C51.2256 66.2273 51.022 66.2853 50.8327 66.4013C50.6456 66.5173 50.4941 66.6783 50.3781 66.8842C50.2645 67.0878 50.2077 67.3234 50.2077 67.5909V71H49.3696ZM60.3479 71.1136C59.8224 71.1136 59.369 70.9976 58.9878 70.7656C58.609 70.5312 58.3167 70.2045 58.1107 69.7855C57.9071 69.3641 57.8053 68.8741 57.8053 68.3153C57.8053 67.7566 57.9071 67.2642 58.1107 66.8381C58.3167 66.4096 58.6031 66.0758 58.9701 65.8366C59.3394 65.5952 59.7703 65.4744 60.2627 65.4744C60.5468 65.4744 60.8273 65.5218 61.1043 65.6165C61.3813 65.7112 61.6334 65.8651 61.8607 66.0781C62.088 66.2888 62.2691 66.5682 62.404 66.9162C62.539 67.2642 62.6064 67.6927 62.6064 68.2017V68.5568H58.4019V67.8324H61.7542C61.7542 67.5246 61.6926 67.25 61.5695 67.0085C61.4488 66.767 61.276 66.5765 61.051 66.4368C60.8285 66.2971 60.5657 66.2273 60.2627 66.2273C59.9289 66.2273 59.6401 66.3101 59.3962 66.4759C59.1547 66.6392 58.9689 66.8523 58.8387 67.1151C58.7085 67.3778 58.6434 67.6596 58.6434 67.9602V68.4432C58.6434 68.8551 58.7144 69.2043 58.8564 69.4908C59.0009 69.7749 59.2009 69.9915 59.4566 70.1406C59.7123 70.2874 60.0094 70.3608 60.3479 70.3608C60.5681 70.3608 60.767 70.33 60.9445 70.2685C61.1244 70.2045 61.2795 70.1098 61.4097 69.9844C61.5399 69.8565 61.6405 69.6979 61.7116 69.5085L62.5212 69.7358C62.436 70.0104 62.2928 70.2519 62.0915 70.4602C61.8903 70.6662 61.6417 70.8272 61.3458 70.9432C61.0499 71.0568 60.7172 71.1136 60.3479 71.1136Z" fill="#A0A3BD"/>
<path d="M120.69 71V63.7273H125.079V64.5085H121.571V66.9659H124.852V67.7472H121.571V70.2188H125.136V71H120.69ZM130.417 66.767L129.664 66.9801C129.617 66.8546 129.547 66.7327 129.454 66.6143C129.364 66.4936 129.241 66.3942 129.085 66.3161C128.929 66.2379 128.729 66.1989 128.485 66.1989C128.151 66.1989 127.873 66.2758 127.65 66.4297C127.43 66.5812 127.32 66.7741 127.32 67.0085C127.32 67.2169 127.396 67.3814 127.547 67.5021C127.699 67.6229 127.936 67.7235 128.258 67.804L129.067 68.0028C129.555 68.1212 129.918 68.3023 130.158 68.5462C130.397 68.7876 130.516 69.099 130.516 69.4801C130.516 69.7926 130.426 70.072 130.246 70.3182C130.069 70.5644 129.82 70.7585 129.501 70.9006C129.181 71.0426 128.809 71.1136 128.386 71.1136C127.829 71.1136 127.369 70.9929 127.004 70.7514C126.64 70.5099 126.409 70.1572 126.312 69.6932L127.107 69.4943C127.183 69.7879 127.326 70.008 127.537 70.1548C127.75 70.3016 128.028 70.375 128.371 70.375C128.762 70.375 129.072 70.2921 129.302 70.1264C129.534 69.9583 129.65 69.7571 129.65 69.5227C129.65 69.3333 129.583 69.1747 129.451 69.0469C129.318 68.9167 129.115 68.8196 128.84 68.7557L127.931 68.5426C127.431 68.4242 127.065 68.2408 126.83 67.9922C126.598 67.7412 126.482 67.4276 126.482 67.0511C126.482 66.7434 126.569 66.4711 126.741 66.2344C126.917 65.9976 127.155 65.8118 127.455 65.6768C127.758 65.5419 128.101 65.4744 128.485 65.4744C129.025 65.4744 129.449 65.5928 129.756 65.8295C130.066 66.0663 130.287 66.3788 130.417 66.767ZM134.15 65.5455V66.2557H131.323V65.5455H134.15ZM132.147 64.2386H132.985V69.4375C132.985 69.6742 133.02 69.8518 133.088 69.9702C133.159 70.0862 133.249 70.1643 133.358 70.2045C133.469 70.2424 133.586 70.2614 133.71 70.2614C133.802 70.2614 133.878 70.2566 133.937 70.2472C133.996 70.2353 134.043 70.2259 134.079 70.2188L134.249 70.9716C134.193 70.9929 134.113 71.0142 134.011 71.0355C133.91 71.0592 133.781 71.071 133.624 71.071C133.388 71.071 133.156 71.0201 132.928 70.9183C132.703 70.8165 132.516 70.6615 132.367 70.4531C132.22 70.2448 132.147 69.982 132.147 69.6648V64.2386ZM137.016 71.1278C136.67 71.1278 136.356 71.0627 136.075 70.9325C135.793 70.8 135.569 70.6094 135.403 70.3608C135.238 70.1098 135.155 69.8068 135.155 69.4517C135.155 69.1392 135.216 68.8859 135.34 68.6918C135.463 68.4953 135.627 68.3414 135.833 68.2301C136.039 68.1188 136.266 68.036 136.515 67.9815C136.766 67.9247 137.018 67.8797 137.271 67.8466C137.603 67.804 137.872 67.772 138.078 67.7507C138.286 67.727 138.437 67.688 138.532 67.6335C138.629 67.5791 138.678 67.4844 138.678 67.3494V67.321C138.678 66.9706 138.582 66.6984 138.39 66.5043C138.201 66.3101 137.913 66.2131 137.527 66.2131C137.127 66.2131 136.813 66.3007 136.586 66.4759C136.359 66.651 136.199 66.8381 136.107 67.0369L135.311 66.7528C135.453 66.4214 135.643 66.1634 135.879 65.9787C136.118 65.7917 136.379 65.6615 136.661 65.5881C136.945 65.5123 137.224 65.4744 137.499 65.4744C137.674 65.4744 137.875 65.4957 138.102 65.5384C138.332 65.5786 138.553 65.6626 138.766 65.7905C138.982 65.9183 139.161 66.1113 139.303 66.3693C139.445 66.6274 139.516 66.973 139.516 67.4062V71H138.678V70.2614H138.635C138.578 70.3797 138.484 70.5064 138.351 70.6413C138.218 70.7763 138.042 70.8911 137.822 70.9858C137.602 71.0805 137.333 71.1278 137.016 71.1278ZM137.144 70.375C137.475 70.375 137.754 70.3099 137.982 70.1797C138.211 70.0495 138.384 69.8814 138.5 69.6754C138.618 69.4695 138.678 69.2528 138.678 69.0256V68.2585C138.642 68.3011 138.564 68.3402 138.443 68.3757C138.325 68.4089 138.188 68.4384 138.031 68.4645C137.877 68.4882 137.727 68.5095 137.58 68.5284C137.436 68.545 137.319 68.5592 137.229 68.571C137.011 68.5994 136.807 68.6456 136.618 68.7095C136.431 68.7711 136.279 68.8646 136.163 68.9901C136.05 69.1132 135.993 69.2812 135.993 69.4943C135.993 69.7855 136.101 70.0057 136.316 70.1548C136.534 70.3016 136.81 70.375 137.144 70.375ZM143.105 71.1136C142.65 71.1136 142.249 70.9988 141.901 70.7692C141.553 70.5372 141.281 70.2105 141.084 69.7891C140.888 69.3653 140.79 68.8646 140.79 68.2869C140.79 67.714 140.888 67.2169 141.084 66.7955C141.281 66.3741 141.554 66.0485 141.905 65.8189C142.255 65.5893 142.66 65.4744 143.119 65.4744C143.474 65.4744 143.755 65.5336 143.961 65.652C144.169 65.768 144.328 65.9006 144.437 66.0497C144.548 66.1965 144.634 66.3172 144.696 66.4119H144.767V63.7273H145.605V71H144.795V70.1619H144.696C144.634 70.2614 144.547 70.3868 144.433 70.5384C144.32 70.6875 144.157 70.8213 143.947 70.9396C143.736 71.0556 143.455 71.1136 143.105 71.1136ZM143.219 70.3608C143.555 70.3608 143.839 70.2732 144.071 70.098C144.303 69.9205 144.479 69.6754 144.6 69.3629C144.721 69.0481 144.781 68.6847 144.781 68.2727C144.781 67.8655 144.722 67.5092 144.604 67.2038C144.485 66.8961 144.31 66.657 144.078 66.4865C143.846 66.3137 143.56 66.2273 143.219 66.2273C142.864 66.2273 142.568 66.3184 142.331 66.5007C142.097 66.6806 141.92 66.9257 141.802 67.2358C141.686 67.5436 141.628 67.8892 141.628 68.2727C141.628 68.661 141.687 69.0137 141.805 69.331C141.926 69.6458 142.104 69.8968 142.338 70.0838C142.575 70.2685 142.868 70.3608 143.219 70.3608ZM147.256 71V65.5455H148.094V71H147.256ZM147.299 64.8068L148.165 63.1591H149.146L148.038 64.8068H147.299ZM153.493 66.767L152.74 66.9801C152.693 66.8546 152.623 66.7327 152.531 66.6143C152.441 66.4936 152.318 66.3942 152.161 66.3161C152.005 66.2379 151.805 66.1989 151.561 66.1989C151.227 66.1989 150.949 66.2758 150.727 66.4297C150.506 66.5812 150.396 66.7741 150.396 67.0085C150.396 67.2169 150.472 67.3814 150.624 67.5021C150.775 67.6229 151.012 67.7235 151.334 67.804L152.144 68.0028C152.631 68.1212 152.995 68.3023 153.234 68.5462C153.473 68.7876 153.592 69.099 153.592 69.4801C153.592 69.7926 153.502 70.072 153.323 70.3182C153.145 70.5644 152.896 70.7585 152.577 70.9006C152.257 71.0426 151.886 71.1136 151.462 71.1136C150.905 71.1136 150.445 70.9929 150.08 70.7514C149.716 70.5099 149.485 70.1572 149.388 69.6932L150.183 69.4943C150.259 69.7879 150.402 70.008 150.613 70.1548C150.826 70.3016 151.104 70.375 151.448 70.375C151.838 70.375 152.148 70.2921 152.378 70.1264C152.61 69.9583 152.726 69.7571 152.726 69.5227C152.726 69.3333 152.66 69.1747 152.527 69.0469C152.395 68.9167 152.191 68.8196 151.916 68.7557L151.007 68.5426C150.508 68.4242 150.141 68.2408 149.906 67.9922C149.674 67.7412 149.558 67.4276 149.558 67.0511C149.558 66.7434 149.645 66.4711 149.818 66.2344C149.993 65.9976 150.231 65.8118 150.531 65.6768C150.834 65.5419 151.178 65.4744 151.561 65.4744C152.101 65.4744 152.525 65.5928 152.832 65.8295C153.143 66.0663 153.363 66.3788 153.493 66.767ZM157.226 65.5455V66.2557H154.399V65.5455H157.226ZM155.223 64.2386H156.061V69.4375C156.061 69.6742 156.096 69.8518 156.164 69.9702C156.235 70.0862 156.325 70.1643 156.434 70.2045C156.545 70.2424 156.663 70.2614 156.786 70.2614C156.878 70.2614 156.954 70.2566 157.013 70.2472C157.072 70.2353 157.12 70.2259 157.155 70.2188L157.326 70.9716C157.269 70.9929 157.189 71.0142 157.088 71.0355C156.986 71.0592 156.857 71.071 156.701 71.071C156.464 71.071 156.232 71.0201 156.005 70.9183C155.78 70.8165 155.593 70.6615 155.443 70.4531C155.297 70.2448 155.223 69.982 155.223 69.6648V64.2386ZM158.487 71V65.5455H159.325V71H158.487ZM158.913 64.6364C158.75 64.6364 158.609 64.5807 158.49 64.4695C158.374 64.3582 158.316 64.2244 158.316 64.0682C158.316 63.9119 158.374 63.7782 158.49 63.6669C158.609 63.5556 158.75 63.5 158.913 63.5C159.076 63.5 159.216 63.5556 159.332 63.6669C159.45 63.7782 159.509 63.9119 159.509 64.0682C159.509 64.2244 159.45 64.3582 159.332 64.4695C159.216 64.5807 159.076 64.6364 158.913 64.6364ZM163.076 71.1136C162.564 71.1136 162.124 70.9929 161.755 70.7514C161.385 70.5099 161.101 70.1773 160.902 69.7536C160.704 69.3298 160.604 68.8456 160.604 68.3011C160.604 67.7472 160.706 67.2583 160.91 66.8345C161.116 66.4084 161.402 66.0758 161.769 65.8366C162.138 65.5952 162.569 65.4744 163.062 65.4744C163.445 65.4744 163.791 65.5455 164.098 65.6875C164.406 65.8295 164.658 66.0284 164.855 66.2841C165.051 66.5398 165.173 66.8381 165.221 67.179H164.383C164.319 66.9304 164.177 66.7102 163.956 66.5185C163.739 66.3243 163.445 66.2273 163.076 66.2273C162.749 66.2273 162.463 66.3125 162.216 66.483C161.973 66.651 161.782 66.889 161.645 67.1967C161.51 67.5021 161.442 67.8608 161.442 68.2727C161.442 68.6941 161.508 69.0611 161.641 69.3736C161.776 69.6861 161.965 69.9287 162.209 70.1016C162.455 70.2744 162.744 70.3608 163.076 70.3608C163.294 70.3608 163.491 70.3229 163.669 70.2472C163.846 70.1714 163.997 70.0625 164.12 69.9205C164.243 69.7784 164.33 69.608 164.383 69.4091H165.221C165.173 69.7311 165.056 70.0211 164.869 70.2791C164.684 70.5348 164.439 70.7384 164.134 70.8899C163.831 71.0391 163.478 71.1136 163.076 71.1136ZM168.051 71.1278C167.705 71.1278 167.392 71.0627 167.11 70.9325C166.828 70.8 166.604 70.6094 166.439 70.3608C166.273 70.1098 166.19 69.8068 166.19 69.4517C166.19 69.1392 166.252 68.8859 166.375 68.6918C166.498 68.4953 166.662 68.3414 166.868 68.2301C167.074 68.1188 167.302 68.036 167.55 67.9815C167.801 67.9247 168.053 67.8797 168.307 67.8466C168.638 67.804 168.907 67.772 169.113 67.7507C169.321 67.727 169.473 67.688 169.567 67.6335C169.664 67.5791 169.713 67.4844 169.713 67.3494V67.321C169.713 66.9706 169.617 66.6984 169.425 66.5043C169.236 66.3101 168.948 66.2131 168.562 66.2131C168.162 66.2131 167.848 66.3007 167.621 66.4759C167.394 66.651 167.234 66.8381 167.142 67.0369L166.346 66.7528C166.488 66.4214 166.678 66.1634 166.915 65.9787C167.154 65.7917 167.414 65.6615 167.696 65.5881C167.98 65.5123 168.259 65.4744 168.534 65.4744C168.709 65.4744 168.91 65.4957 169.138 65.5384C169.367 65.5786 169.589 65.6626 169.802 65.7905C170.017 65.9183 170.196 66.1113 170.338 66.3693C170.48 66.6274 170.551 66.973 170.551 67.4062V71H169.713V70.2614H169.67C169.613 70.3797 169.519 70.5064 169.386 70.6413C169.254 70.7763 169.077 70.8911 168.857 70.9858C168.637 71.0805 168.368 71.1278 168.051 71.1278ZM168.179 70.375C168.51 70.375 168.79 70.3099 169.017 70.1797C169.246 70.0495 169.419 69.8814 169.535 69.6754C169.654 69.4695 169.713 69.2528 169.713 69.0256V68.2585C169.677 68.3011 169.599 68.3402 169.478 68.3757C169.36 68.4089 169.223 68.4384 169.066 68.4645C168.913 68.4882 168.762 68.5095 168.616 68.5284C168.471 68.545 168.354 68.5592 168.264 68.571C168.046 68.5994 167.843 68.6456 167.653 68.7095C167.466 68.7711 167.315 68.8646 167.199 68.9901C167.085 69.1132 167.028 69.2812 167.028 69.4943C167.028 69.7855 167.136 70.0057 167.351 70.1548C167.569 70.3016 167.845 70.375 168.179 70.375ZM175.944 66.767L175.191 66.9801C175.144 66.8546 175.074 66.7327 174.982 66.6143C174.892 66.4936 174.769 66.3942 174.612 66.3161C174.456 66.2379 174.256 66.1989 174.012 66.1989C173.679 66.1989 173.4 66.2758 173.178 66.4297C172.958 66.5812 172.848 66.7741 172.848 67.0085C172.848 67.2169 172.923 67.3814 173.075 67.5021C173.226 67.6229 173.463 67.7235 173.785 67.804L174.595 68.0028C175.082 68.1212 175.446 68.3023 175.685 68.5462C175.924 68.7876 176.044 69.099 176.044 69.4801C176.044 69.7926 175.954 70.072 175.774 70.3182C175.596 70.5644 175.348 70.7585 175.028 70.9006C174.708 71.0426 174.337 71.1136 173.913 71.1136C173.357 71.1136 172.896 70.9929 172.532 70.7514C172.167 70.5099 171.936 70.1572 171.839 69.6932L172.634 69.4943C172.71 69.7879 172.853 70.008 173.064 70.1548C173.277 70.3016 173.555 70.375 173.899 70.375C174.289 70.375 174.599 70.2921 174.829 70.1264C175.061 69.9583 175.177 69.7571 175.177 69.5227C175.177 69.3333 175.111 69.1747 174.978 69.0469C174.846 68.9167 174.642 68.8196 174.367 68.7557L173.458 68.5426C172.959 68.4242 172.592 68.2408 172.358 67.9922C172.126 67.7412 172.009 67.4276 172.009 67.0511C172.009 66.7434 172.096 66.4711 172.269 66.2344C172.444 65.9976 172.682 65.8118 172.983 65.6768C173.286 65.5419 173.629 65.4744 174.012 65.4744C174.552 65.4744 174.976 65.5928 175.284 65.8295C175.594 66.0663 175.814 66.3788 175.944 66.767Z" fill="#A0A3BD"/>
<path d="M220.446 71V63.7273H222.903C223.474 63.7273 223.94 63.8303 224.303 64.0362C224.667 64.2398 224.937 64.5156 225.112 64.8636C225.287 65.2116 225.375 65.5999 225.375 66.0284C225.375 66.4569 225.287 66.8464 225.112 67.1967C224.939 67.5471 224.672 67.8265 224.31 68.0348C223.948 68.2408 223.484 68.3438 222.918 68.3438H221.156V67.5625H222.889C223.28 67.5625 223.594 67.495 223.83 67.3601C224.067 67.2251 224.239 67.0429 224.345 66.8132C224.454 66.5812 224.509 66.3196 224.509 66.0284C224.509 65.7372 224.454 65.4768 224.345 65.2472C224.239 65.0175 224.066 64.8376 223.827 64.7074C223.588 64.5748 223.27 64.5085 222.875 64.5085H221.327V71H220.446ZM226.68 71V65.5455H227.49V66.3693H227.547C227.646 66.0994 227.826 65.8804 228.086 65.7124C228.347 65.5443 228.64 65.4602 228.967 65.4602C229.029 65.4602 229.106 65.4614 229.198 65.4638C229.29 65.4661 229.36 65.4697 229.407 65.4744V66.3267C229.379 66.3196 229.314 66.3089 229.212 66.2947C229.113 66.2782 229.007 66.2699 228.896 66.2699C228.631 66.2699 228.394 66.3255 228.186 66.4368C227.98 66.5457 227.816 66.6972 227.696 66.8913C227.577 67.0831 227.518 67.3021 227.518 67.5483V71H226.68ZM232.451 71.1136C231.958 71.1136 231.526 70.9964 231.155 70.7621C230.785 70.5277 230.496 70.1998 230.288 69.7784C230.082 69.357 229.979 68.8646 229.979 68.3011C229.979 67.733 230.082 67.237 230.288 66.8132C230.496 66.3894 230.785 66.0604 231.155 65.826C231.526 65.5916 231.958 65.4744 232.451 65.4744C232.943 65.4744 233.374 65.5916 233.743 65.826C234.115 66.0604 234.404 66.3894 234.61 66.8132C234.818 67.237 234.922 67.733 234.922 68.3011C234.922 68.8646 234.818 69.357 234.61 69.7784C234.404 70.1998 234.115 70.5277 233.743 70.7621C233.374 70.9964 232.943 71.1136 232.451 71.1136ZM232.451 70.3608C232.825 70.3608 233.133 70.2649 233.374 70.0732C233.616 69.8814 233.794 69.6293 233.91 69.3168C234.026 69.0043 234.084 68.6657 234.084 68.3011C234.084 67.9366 234.026 67.5968 233.91 67.282C233.794 66.9671 233.616 66.7126 233.374 66.5185C233.133 66.3243 232.825 66.2273 232.451 66.2273C232.077 66.2273 231.769 66.3243 231.527 66.5185C231.286 66.7126 231.107 66.9671 230.991 67.282C230.875 67.5968 230.817 67.9366 230.817 68.3011C230.817 68.6657 230.875 69.0043 230.991 69.3168C231.107 69.6293 231.286 69.8814 231.527 70.0732C231.769 70.2649 232.077 70.3608 232.451 70.3608ZM236.546 73.0455C236.404 73.0455 236.277 73.0336 236.166 73.0099C236.055 72.9886 235.978 72.9673 235.935 72.946L236.148 72.2074C236.352 72.2595 236.532 72.2784 236.688 72.2642C236.844 72.25 236.983 72.1802 237.104 72.0547C237.227 71.9316 237.339 71.7315 237.441 71.4545L237.597 71.0284L235.58 65.5455H236.489L237.995 69.892H238.052L239.557 65.5455H240.467L238.151 71.7955C238.047 72.0772 237.918 72.3104 237.764 72.495C237.61 72.6821 237.431 72.8205 237.228 72.9105C237.027 73.0005 236.799 73.0455 236.546 73.0455ZM243.664 71.1136C243.139 71.1136 242.685 70.9976 242.304 70.7656C241.925 70.5312 241.633 70.2045 241.427 69.7855C241.224 69.3641 241.122 68.8741 241.122 68.3153C241.122 67.7566 241.224 67.2642 241.427 66.8381C241.633 66.4096 241.92 66.0758 242.286 65.8366C242.656 65.5952 243.087 65.4744 243.579 65.4744C243.863 65.4744 244.144 65.5218 244.421 65.6165C244.698 65.7112 244.95 65.8651 245.177 66.0781C245.404 66.2888 245.585 66.5682 245.72 66.9162C245.855 67.2642 245.923 67.6927 245.923 68.2017V68.5568H241.718V67.8324H245.071C245.071 67.5246 245.009 67.25 244.886 67.0085C244.765 66.767 244.592 66.5765 244.367 66.4368C244.145 66.2971 243.882 66.2273 243.579 66.2273C243.245 66.2273 242.956 66.3101 242.713 66.4759C242.471 66.6392 242.285 66.8523 242.155 67.1151C242.025 67.3778 241.96 67.6596 241.96 67.9602V68.4432C241.96 68.8551 242.031 69.2043 242.173 69.4908C242.317 69.7749 242.517 69.9915 242.773 70.1406C243.029 70.2874 243.326 70.3608 243.664 70.3608C243.884 70.3608 244.083 70.33 244.261 70.2685C244.441 70.2045 244.596 70.1098 244.726 69.9844C244.856 69.8565 244.957 69.6979 245.028 69.5085L245.838 69.7358C245.752 70.0104 245.609 70.2519 245.408 70.4602C245.207 70.6662 244.958 70.8272 244.662 70.9432C244.366 71.0568 244.034 71.1136 243.664 71.1136ZM249.414 71.1136C248.902 71.1136 248.462 70.9929 248.093 70.7514C247.723 70.5099 247.439 70.1773 247.24 69.7536C247.041 69.3298 246.942 68.8456 246.942 68.3011C246.942 67.7472 247.044 67.2583 247.247 66.8345C247.453 66.4084 247.74 66.0758 248.107 65.8366C248.476 65.5952 248.907 65.4744 249.399 65.4744C249.783 65.4744 250.129 65.5455 250.436 65.6875C250.744 65.8295 250.996 66.0284 251.193 66.2841C251.389 66.5398 251.511 66.8381 251.559 67.179H250.72C250.657 66.9304 250.514 66.7102 250.294 66.5185C250.076 66.3243 249.783 66.2273 249.414 66.2273C249.087 66.2273 248.8 66.3125 248.554 66.483C248.31 66.651 248.12 66.889 247.983 67.1967C247.848 67.5021 247.78 67.8608 247.78 68.2727C247.78 68.6941 247.846 69.0611 247.979 69.3736C248.114 69.6861 248.303 69.9287 248.547 70.1016C248.793 70.2744 249.082 70.3608 249.414 70.3608C249.631 70.3608 249.829 70.3229 250.007 70.2472C250.184 70.1714 250.335 70.0625 250.458 69.9205C250.581 69.7784 250.668 69.608 250.72 69.4091H251.559C251.511 69.7311 251.394 70.0211 251.207 70.2791C251.022 70.5348 250.777 70.7384 250.472 70.8899C250.169 71.0391 249.816 71.1136 249.414 71.1136ZM255.156 65.5455V66.2557H252.329V65.5455H255.156ZM253.153 64.2386H253.991V69.4375C253.991 69.6742 254.025 69.8518 254.094 69.9702C254.165 70.0862 254.255 70.1643 254.364 70.2045C254.475 70.2424 254.592 70.2614 254.715 70.2614C254.808 70.2614 254.884 70.2566 254.943 70.2472C255.002 70.2353 255.049 70.2259 255.085 70.2188L255.255 70.9716C255.198 70.9929 255.119 71.0142 255.017 71.0355C254.916 71.0592 254.786 71.071 254.63 71.071C254.393 71.071 254.161 71.0201 253.934 70.9183C253.709 70.8165 253.522 70.6615 253.373 70.4531C253.226 70.2448 253.153 69.982 253.153 69.6648V64.2386ZM258.574 71.1136C258.081 71.1136 257.649 70.9964 257.278 70.7621C256.908 70.5277 256.619 70.1998 256.411 69.7784C256.205 69.357 256.102 68.8646 256.102 68.3011C256.102 67.733 256.205 67.237 256.411 66.8132C256.619 66.3894 256.908 66.0604 257.278 65.826C257.649 65.5916 258.081 65.4744 258.574 65.4744C259.066 65.4744 259.497 65.5916 259.866 65.826C260.238 66.0604 260.527 66.3894 260.733 66.8132C260.941 67.237 261.045 67.733 261.045 68.3011C261.045 68.8646 260.941 69.357 260.733 69.7784C260.527 70.1998 260.238 70.5277 259.866 70.7621C259.497 70.9964 259.066 71.1136 258.574 71.1136ZM258.574 70.3608C258.948 70.3608 259.256 70.2649 259.497 70.0732C259.739 69.8814 259.917 69.6293 260.033 69.3168C260.149 69.0043 260.207 68.6657 260.207 68.3011C260.207 67.9366 260.149 67.5968 260.033 67.282C259.917 66.9671 259.739 66.7126 259.497 66.5185C259.256 66.3243 258.948 66.2273 258.574 66.2273C258.2 66.2273 257.892 66.3243 257.65 66.5185C257.409 66.7126 257.23 66.9671 257.114 67.282C256.998 67.5968 256.94 67.9366 256.94 68.3011C256.94 68.6657 256.998 69.0043 257.114 69.3168C257.23 69.6293 257.409 69.8814 257.65 70.0732C257.892 70.2649 258.2 70.3608 258.574 70.3608ZM266.188 66.767L265.435 66.9801C265.388 66.8546 265.318 66.7327 265.226 66.6143C265.136 66.4936 265.013 66.3942 264.857 66.3161C264.7 66.2379 264.5 66.1989 264.256 66.1989C263.923 66.1989 263.645 66.2758 263.422 66.4297C263.202 66.5812 263.092 66.7741 263.092 67.0085C263.092 67.2169 263.167 67.3814 263.319 67.5021C263.47 67.6229 263.707 67.7235 264.029 67.804L264.839 68.0028C265.327 68.1212 265.69 68.3023 265.929 68.5462C266.168 68.7876 266.288 69.099 266.288 69.4801C266.288 69.7926 266.198 70.072 266.018 70.3182C265.84 70.5644 265.592 70.7585 265.272 70.9006C264.953 71.0426 264.581 71.1136 264.157 71.1136C263.601 71.1136 263.14 70.9929 262.776 70.7514C262.411 70.5099 262.18 70.1572 262.083 69.6932L262.879 69.4943C262.954 69.7879 263.098 70.008 263.308 70.1548C263.521 70.3016 263.8 70.375 264.143 70.375C264.533 70.375 264.844 70.2921 265.073 70.1264C265.305 69.9583 265.421 69.7571 265.421 69.5227C265.421 69.3333 265.355 69.1747 265.222 69.0469C265.09 68.9167 264.886 68.8196 264.612 68.7557L263.703 68.5426C263.203 68.4242 262.836 68.2408 262.602 67.9922C262.37 67.7412 262.254 67.4276 262.254 67.0511C262.254 66.7434 262.34 66.4711 262.513 66.2344C262.688 65.9976 262.926 65.8118 263.227 65.6768C263.53 65.5419 263.873 65.4744 264.256 65.4744C264.796 65.4744 265.22 65.5928 265.528 65.8295C265.838 66.0663 266.058 66.3788 266.188 66.767Z" fill="#A0A3BD"/>
<g opacity="0.5">
<path d="M39.1963 42.9751C39.1963 42.0215 39.6496 41.1248 40.4174 40.5594L49.3093 34.0117L58.2012 40.5594C58.969 41.1248 59.4223 42.0215 59.4223 42.9751V53.7604C59.4223 55.1411 58.3031 56.2604 56.9223 56.2604H53.3432C52.7909 56.2604 52.3432 55.8127 52.3432 55.2604V49.1756C52.3432 48.8995 52.1194 48.6756 51.8432 48.6756H46.7754C46.4993 48.6756 46.2754 48.8995 46.2754 49.1756V55.2604C46.2754 55.8127 45.8277 56.2604 45.2754 56.2604H41.6963C40.3156 56.2604 39.1963 55.1411 39.1963 53.7604V42.9751Z" stroke="#A0A3BD" stroke-width="2.02261" stroke-linecap="round" stroke-linejoin="round"/>
</g>
<path d="M156.675 48.9952C156.057 50.5247 155.074 51.8799 153.812 52.9425C152.55 54.005 151.048 54.7428 149.435 55.0914C147.823 55.44 146.15 55.3889 144.561 54.9425C142.973 54.4961 141.519 53.668 140.324 52.5303C139.129 51.3927 138.231 49.9801 137.708 48.4157C137.184 46.8513 137.051 45.1826 137.321 43.5551C137.59 41.9275 138.254 40.3907 139.253 39.0784C140.253 37.7661 141.559 36.7184 143.056 36.0264" stroke="#CFD1DE" stroke-width="2.02261" stroke-linecap="round"/>
<path d="M152.179 34.8518C151.421 34.5377 150.629 34.3177 149.821 34.1956C148.992 34.0704 148.309 34.7612 148.309 35.599L148.309 42.6781C148.309 43.5159 148.988 44.1951 149.826 44.1951L156.905 44.1951C157.743 44.1951 158.434 43.5122 158.309 42.6838C158.187 41.8757 157.967 41.0835 157.653 40.325C157.144 39.098 156.399 37.9832 155.46 37.0441C154.521 36.105 153.406 35.3601 152.179 34.8518Z" stroke="#CFD1DE" stroke-width="2.02261" stroke-linecap="round"/>
<path d="M238.253 36.0332H237.241C235.566 36.0332 234.208 37.3915 234.208 39.0671V53.2254C234.208 54.9009 235.566 56.2593 237.241 56.2593H249.377C251.053 56.2593 252.411 54.9009 252.411 53.2254V39.0671C252.411 37.3915 251.053 36.0332 249.377 36.0332H248.366" stroke="#CFD1DE" stroke-width="2.02261"/>
<rect x="238.253" y="34.0117" width="10.113" height="5.05651" rx="2.02261" stroke="#CFD1DE" stroke-width="2.02261"/>
<path d="M329.794 71V63.7273H332.251C332.822 63.7273 333.288 63.8303 333.65 64.0362C334.015 64.2398 334.285 64.5156 334.46 64.8636C334.635 65.2116 334.723 65.5999 334.723 66.0284C334.723 66.4569 334.635 66.8464 334.46 67.1967C334.287 67.5471 334.02 67.8265 333.657 68.0348C333.295 68.2408 332.831 68.3438 332.265 68.3438H330.504V67.5625H332.237C332.628 67.5625 332.941 67.495 333.178 67.3601C333.415 67.2251 333.586 67.0429 333.693 66.8132C333.802 66.5812 333.856 66.3196 333.856 66.0284C333.856 65.7372 333.802 65.4768 333.693 65.2472C333.586 65.0175 333.414 64.8376 333.174 64.7074C332.935 64.5748 332.618 64.5085 332.223 64.5085H330.674V71H329.794ZM338.256 71.1136C337.731 71.1136 337.277 70.9976 336.896 70.7656C336.517 70.5312 336.225 70.2045 336.019 69.7855C335.815 69.3641 335.714 68.8741 335.714 68.3153C335.714 67.7566 335.815 67.2642 336.019 66.8381C336.225 66.4096 336.511 66.0758 336.878 65.8366C337.248 65.5952 337.678 65.4744 338.171 65.4744C338.455 65.4744 338.736 65.5218 339.013 65.6165C339.29 65.7112 339.542 65.8651 339.769 66.0781C339.996 66.2888 340.177 66.5682 340.312 66.9162C340.447 67.2642 340.515 67.6927 340.515 68.2017V68.5568H336.31V67.8324H339.662C339.662 67.5246 339.601 67.25 339.478 67.0085C339.357 66.767 339.184 66.5765 338.959 66.4368C338.737 66.2971 338.474 66.2273 338.171 66.2273C337.837 66.2273 337.548 66.3101 337.304 66.4759C337.063 66.6392 336.877 66.8523 336.747 67.1151C336.617 67.3778 336.552 67.6596 336.552 67.9602V68.4432C336.552 68.8551 336.623 69.2043 336.765 69.4908C336.909 69.7749 337.109 69.9915 337.365 70.1406C337.62 70.2874 337.918 70.3608 338.256 70.3608C338.476 70.3608 338.675 70.33 338.853 70.2685C339.033 70.2045 339.188 70.1098 339.318 69.9844C339.448 69.8565 339.549 69.6979 339.62 69.5085L340.429 69.7358C340.344 70.0104 340.201 70.2519 340 70.4602C339.799 70.6662 339.55 70.8272 339.254 70.9432C338.958 71.0568 338.625 71.1136 338.256 71.1136ZM341.79 71V65.5455H342.599V66.3693H342.656C342.755 66.0994 342.935 65.8804 343.196 65.7124C343.456 65.5443 343.75 65.4602 344.076 65.4602C344.138 65.4602 344.215 65.4614 344.307 65.4638C344.4 65.4661 344.469 65.4697 344.517 65.4744V66.3267C344.488 66.3196 344.423 66.3089 344.321 66.2947C344.222 66.2782 344.117 66.2699 344.005 66.2699C343.74 66.2699 343.504 66.3255 343.295 66.4368C343.089 66.5457 342.926 66.6972 342.805 66.8913C342.687 67.0831 342.628 67.3021 342.628 67.5483V71H341.79ZM348.281 65.5455V66.2557H345.341V65.5455H348.281ZM346.221 71V64.7926C346.221 64.4801 346.295 64.2197 346.441 64.0114C346.588 63.803 346.779 63.6468 347.013 63.5426C347.248 63.4384 347.495 63.3864 347.755 63.3864C347.961 63.3864 348.129 63.4029 348.26 63.4361C348.39 63.4692 348.487 63.5 348.551 63.5284L348.309 64.2528C348.267 64.2386 348.208 64.2209 348.132 64.1996C348.058 64.1783 347.961 64.1676 347.841 64.1676C347.564 64.1676 347.364 64.2375 347.241 64.3771C347.12 64.5168 347.059 64.7216 347.059 64.9915V71H346.221ZM349.456 71V65.5455H350.294V71H349.456ZM349.882 64.6364C349.718 64.6364 349.577 64.5807 349.459 64.4695C349.343 64.3582 349.285 64.2244 349.285 64.0682C349.285 63.9119 349.343 63.7782 349.459 63.6669C349.577 63.5556 349.718 63.5 349.882 63.5C350.045 63.5 350.185 63.5556 350.301 63.6669C350.419 63.7782 350.478 63.9119 350.478 64.0682C350.478 64.2244 350.419 64.3582 350.301 64.4695C350.185 64.5807 350.045 64.6364 349.882 64.6364ZM352.667 63.7273V71H351.829V63.7273H352.667Z" fill="#389BEC"/>
<g opacity="0.5">
<path d="M332.208 54.7421L332.379 53.642C332.587 52.3011 333.462 51.1526 334.758 50.7511C336.368 50.2525 338.759 49.6855 341.309 49.6855C343.859 49.6855 346.25 50.2525 347.86 50.7511C349.156 51.1526 350.031 52.3011 350.24 53.642L350.411 54.7421" stroke="#389BEC" stroke-width="2.02261" stroke-linecap="round" stroke-linejoin="round"/>
<path d="M341.309 45.1365C344.102 45.1365 346.366 42.8726 346.366 40.08C346.366 37.2873 344.102 35.0234 341.309 35.0234C338.517 35.0234 336.253 37.2873 336.253 40.08C336.253 42.8726 338.517 45.1365 341.309 45.1365Z" stroke="#389BEC" stroke-width="2.02261" stroke-linecap="round" stroke-linejoin="round"/>
</g>
<rect width="81" height="2" transform="matrix(1 0 0 -1 301.174 21)" fill="#55B3FF"/>
</g>
<defs>
<filter id="filter0_d_1714_36363" x="-12.8262" y="0" width="416" height="101" filterUnits="userSpaceOnUse" color-interpolation-filters="sRGB">
<feFlood flood-opacity="0" result="BackgroundImageFix"/>
<feColorMatrix in="SourceAlpha" type="matrix" values="0 0 0 0 0 0 0 0 0 0 0 0 0 0 0 0 0 0 127 0" result="hardAlpha"/>
<feOffset dy="-6"/>
<feGaussianBlur stdDeviation="6.5"/>
<feComposite in2="hardAlpha" operator="out"/>
<feColorMatrix type="matrix" values="0 0 0 0 0 0 0 0 0 0 0 0 0 0 0 0 0 0 0.04 0"/>
<feBlend mode="normal" in2="BackgroundImageFix" result="effect1_dropShadow_1714_36363"/>
<feBlend mode="normal" in="SourceGraphic" in2="effect1_dropShadow_1714_36363" result="shape"/>
</filter>
</defs>
</svg>
