<svg width="391" height="94" viewBox="0 0 391 94" fill="none" xmlns="http://www.w3.org/2000/svg">
<g filter="url(#filter0_d_1714_36170)">
<path d="M0.59668 19H390.597V94H0.59668V19Z" fill="white"/>
<path d="M335.631 55.7421L335.802 54.642C336.01 53.3011 336.885 52.1526 338.181 51.7511C339.791 51.2525 342.182 50.6855 344.732 50.6855C347.282 50.6855 349.674 51.2525 351.283 51.7511C352.58 52.1526 353.454 53.3011 353.663 54.642L353.834 55.7421" stroke="#87C9FF" stroke-width="2.02261" stroke-linecap="round" stroke-linejoin="round"/>
<path d="M344.732 46.1365C347.525 46.1365 349.789 43.8726 349.789 41.08C349.789 38.2873 347.525 36.0234 344.732 36.0234C341.94 36.0234 339.676 38.2873 339.676 41.08C339.676 43.8726 341.94 46.1365 344.732 46.1365Z" stroke="#87C9FF" stroke-width="2.02261" stroke-linecap="round" stroke-linejoin="round"/>
<path d="M332.352 71V63.7273H334.81C335.38 63.7273 335.847 63.8303 336.209 64.0362C336.573 64.2398 336.843 64.5156 337.019 64.8636C337.194 65.2116 337.281 65.5999 337.281 66.0284C337.281 66.4569 337.194 66.8464 337.019 67.1967C336.846 67.5471 336.578 67.8265 336.216 68.0348C335.854 68.2408 335.39 68.3438 334.824 68.3438H333.063V67.5625H334.796C335.186 67.5625 335.5 67.495 335.737 67.3601C335.973 67.2251 336.145 67.0429 336.252 66.8132C336.36 66.5812 336.415 66.3196 336.415 66.0284C336.415 65.7372 336.36 65.4768 336.252 65.2472C336.145 65.0175 335.972 64.8376 335.733 64.7074C335.494 64.5748 335.177 64.5085 334.781 64.5085H333.233V71H332.352ZM340.815 71.1136C340.289 71.1136 339.836 70.9976 339.455 70.7656C339.076 70.5312 338.783 70.2045 338.578 69.7855C338.374 69.3641 338.272 68.8741 338.272 68.3153C338.272 67.7566 338.374 67.2642 338.578 66.8381C338.783 66.4096 339.07 66.0758 339.437 65.8366C339.806 65.5952 340.237 65.4744 340.729 65.4744C341.014 65.4744 341.294 65.5218 341.571 65.6165C341.848 65.7112 342.1 65.8651 342.328 66.0781C342.555 66.2888 342.736 66.5682 342.871 66.9162C343.006 67.2642 343.073 67.6927 343.073 68.2017V68.5568H338.869V67.8324H342.221C342.221 67.5246 342.159 67.25 342.036 67.0085C341.916 66.767 341.743 66.5765 341.518 66.4368C341.295 66.2971 341.033 66.2273 340.729 66.2273C340.396 66.2273 340.107 66.3101 339.863 66.4759C339.622 66.6392 339.436 66.8523 339.305 67.1151C339.175 67.3778 339.11 67.6596 339.11 67.9602V68.4432C339.11 68.8551 339.181 69.2043 339.323 69.4908C339.468 69.7749 339.668 69.9915 339.923 70.1406C340.179 70.2874 340.476 70.3608 340.815 70.3608C341.035 70.3608 341.234 70.33 341.411 70.2685C341.591 70.2045 341.746 70.1098 341.877 69.9844C342.007 69.8565 342.107 69.6979 342.178 69.5085L342.988 69.7358C342.903 70.0104 342.76 70.2519 342.558 70.4602C342.357 70.6662 342.109 70.8272 341.813 70.9432C341.517 71.0568 341.184 71.1136 340.815 71.1136ZM344.348 71V65.5455H345.158V66.3693H345.215C345.314 66.0994 345.494 65.8804 345.754 65.7124C346.015 65.5443 346.308 65.4602 346.635 65.4602C346.697 65.4602 346.774 65.4614 346.866 65.4638C346.958 65.4661 347.028 65.4697 347.075 65.4744V66.3267C347.047 66.3196 346.982 66.3089 346.88 66.2947C346.781 66.2782 346.675 66.2699 346.564 66.2699C346.299 66.2699 346.062 66.3255 345.854 66.4368C345.648 66.5457 345.484 66.6972 345.364 66.8913C345.245 67.0831 345.186 67.3021 345.186 67.5483V71H344.348ZM350.84 65.5455V66.2557H347.899V65.5455H350.84ZM348.78 71V64.7926C348.78 64.4801 348.853 64.2197 349 64.0114C349.147 63.803 349.337 63.6468 349.572 63.5426C349.806 63.4384 350.054 63.3864 350.314 63.3864C350.52 63.3864 350.688 63.4029 350.818 63.4361C350.948 63.4692 351.046 63.5 351.109 63.5284L350.868 64.2528C350.825 64.2386 350.766 64.2209 350.69 64.1996C350.617 64.1783 350.52 64.1676 350.399 64.1676C350.122 64.1676 349.922 64.2375 349.799 64.3771C349.678 64.5168 349.618 64.7216 349.618 64.9915V71H348.78ZM352.014 71V65.5455H352.852V71H352.014ZM352.44 64.6364C352.277 64.6364 352.136 64.5807 352.018 64.4695C351.902 64.3582 351.844 64.2244 351.844 64.0682C351.844 63.9119 351.902 63.7782 352.018 63.6669C352.136 63.5556 352.277 63.5 352.44 63.5C352.604 63.5 352.743 63.5556 352.859 63.6669C352.978 63.7782 353.037 63.9119 353.037 64.0682C353.037 64.2244 352.978 64.3582 352.859 64.4695C352.743 64.5807 352.604 64.6364 352.44 64.6364ZM355.225 63.7273V71H354.387V63.7273H355.225Z" fill="#389BEC"/>
<path d="M142.676 37.0332H141.665C139.989 37.0332 138.631 38.3915 138.631 40.0671V54.2254C138.631 55.9009 139.989 57.2593 141.665 57.2593H153.8C155.476 57.2593 156.834 55.9009 156.834 54.2254V40.0671C156.834 38.3915 155.476 37.0332 153.8 37.0332H152.789" stroke="#CFD1DE" stroke-width="2.02261"/>
<rect x="142.676" y="35.0117" width="10.113" height="5.05651" rx="2.02261" stroke="#CFD1DE" stroke-width="2.02261"/>
<path d="M125.005 71V63.7273H127.462C128.033 63.7273 128.499 63.8303 128.861 64.0362C129.226 64.2398 129.496 64.5156 129.671 64.8636C129.846 65.2116 129.934 65.5999 129.934 66.0284C129.934 66.4569 129.846 66.8464 129.671 67.1967C129.498 67.5471 129.231 67.8265 128.868 68.0348C128.506 68.2408 128.042 68.3438 127.476 68.3438H125.715V67.5625H127.448C127.839 67.5625 128.152 67.495 128.389 67.3601C128.626 67.2251 128.797 67.0429 128.904 66.8132C129.013 66.5812 129.067 66.3196 129.067 66.0284C129.067 65.7372 129.013 65.4768 128.904 65.2472C128.797 65.0175 128.624 64.8376 128.385 64.7074C128.146 64.5748 127.829 64.5085 127.434 64.5085H125.885V71H125.005ZM131.239 71V65.5455H132.048V66.3693H132.105C132.205 66.0994 132.385 65.8804 132.645 65.7124C132.905 65.5443 133.199 65.4602 133.526 65.4602C133.587 65.4602 133.664 65.4614 133.756 65.4638C133.849 65.4661 133.919 65.4697 133.966 65.4744V66.3267C133.938 66.3196 133.872 66.3089 133.771 66.2947C133.671 66.2782 133.566 66.2699 133.455 66.2699C133.189 66.2699 132.953 66.3255 132.744 66.4368C132.538 66.5457 132.375 66.6972 132.254 66.8913C132.136 67.0831 132.077 67.3021 132.077 67.5483V71H131.239ZM137.009 71.1136C136.517 71.1136 136.085 70.9964 135.713 70.7621C135.344 70.5277 135.055 70.1998 134.847 69.7784C134.641 69.357 134.538 68.8646 134.538 68.3011C134.538 67.733 134.641 67.237 134.847 66.8132C135.055 66.3894 135.344 66.0604 135.713 65.826C136.085 65.5916 136.517 65.4744 137.009 65.4744C137.502 65.4744 137.933 65.5916 138.302 65.826C138.674 66.0604 138.962 66.3894 139.168 66.8132C139.377 67.237 139.481 67.733 139.481 68.3011C139.481 68.8646 139.377 69.357 139.168 69.7784C138.962 70.1998 138.674 70.5277 138.302 70.7621C137.933 70.9964 137.502 71.1136 137.009 71.1136ZM137.009 70.3608C137.383 70.3608 137.691 70.2649 137.933 70.0732C138.174 69.8814 138.353 69.6293 138.469 69.3168C138.585 69.0043 138.643 68.6657 138.643 68.3011C138.643 67.9366 138.585 67.5968 138.469 67.282C138.353 66.9671 138.174 66.7126 137.933 66.5185C137.691 66.3243 137.383 66.2273 137.009 66.2273C136.635 66.2273 136.328 66.3243 136.086 66.5185C135.845 66.7126 135.666 66.9671 135.55 67.282C135.434 67.5968 135.376 67.9366 135.376 68.3011C135.376 68.6657 135.434 69.0043 135.55 69.3168C135.666 69.6293 135.845 69.8814 136.086 70.0732C136.328 70.2649 136.635 70.3608 137.009 70.3608ZM141.105 73.0455C140.963 73.0455 140.836 73.0336 140.725 73.0099C140.613 72.9886 140.536 72.9673 140.494 72.946L140.707 72.2074C140.911 72.2595 141.09 72.2784 141.247 72.2642C141.403 72.25 141.541 72.1802 141.662 72.0547C141.785 71.9316 141.898 71.7315 142 71.4545L142.156 71.0284L140.139 65.5455H141.048L142.554 69.892H142.61L144.116 65.5455H145.025L142.71 71.7955C142.606 72.0772 142.477 72.3104 142.323 72.495C142.169 72.6821 141.99 72.8205 141.786 72.9105C141.585 73.0005 141.358 73.0455 141.105 73.0455ZM148.223 71.1136C147.697 71.1136 147.244 70.9976 146.863 70.7656C146.484 70.5312 146.192 70.2045 145.986 69.7855C145.782 69.3641 145.68 68.8741 145.68 68.3153C145.68 67.7566 145.782 67.2642 145.986 66.8381C146.192 66.4096 146.478 66.0758 146.845 65.8366C147.214 65.5952 147.645 65.4744 148.138 65.4744C148.422 65.4744 148.702 65.5218 148.979 65.6165C149.256 65.7112 149.508 65.8651 149.736 66.0781C149.963 66.2888 150.144 66.5682 150.279 66.9162C150.414 67.2642 150.481 67.6927 150.481 68.2017V68.5568H146.277V67.8324H149.629C149.629 67.5246 149.568 67.25 149.445 67.0085C149.324 66.767 149.151 66.5765 148.926 66.4368C148.704 66.2971 148.441 66.2273 148.138 66.2273C147.804 66.2273 147.515 66.3101 147.271 66.4759C147.03 66.6392 146.844 66.8523 146.714 67.1151C146.583 67.3778 146.518 67.6596 146.518 67.9602V68.4432C146.518 68.8551 146.589 69.2043 146.731 69.4908C146.876 69.7749 147.076 69.9915 147.332 70.1406C147.587 70.2874 147.884 70.3608 148.223 70.3608C148.443 70.3608 148.642 70.33 148.82 70.2685C148.999 70.2045 149.155 70.1098 149.285 69.9844C149.415 69.8565 149.516 69.6979 149.587 69.5085L150.396 69.7358C150.311 70.0104 150.168 70.2519 149.967 70.4602C149.765 70.6662 149.517 70.8272 149.221 70.9432C148.925 71.0568 148.592 71.1136 148.223 71.1136ZM153.972 71.1136C153.461 71.1136 153.021 70.9929 152.651 70.7514C152.282 70.5099 151.998 70.1773 151.799 69.7536C151.6 69.3298 151.501 68.8456 151.501 68.3011C151.501 67.7472 151.602 67.2583 151.806 66.8345C152.012 66.4084 152.298 66.0758 152.665 65.8366C153.035 65.5952 153.466 65.4744 153.958 65.4744C154.342 65.4744 154.687 65.5455 154.995 65.6875C155.303 65.8295 155.555 66.0284 155.751 66.2841C155.948 66.5398 156.07 66.8381 156.117 67.179H155.279C155.215 66.9304 155.073 66.7102 154.853 66.5185C154.635 66.3243 154.342 66.2273 153.972 66.2273C153.646 66.2273 153.359 66.3125 153.113 66.483C152.869 66.651 152.678 66.889 152.541 67.1967C152.406 67.5021 152.339 67.8608 152.339 68.2727C152.339 68.6941 152.405 69.0611 152.538 69.3736C152.672 69.6861 152.862 69.9287 153.106 70.1016C153.352 70.2744 153.641 70.3608 153.972 70.3608C154.19 70.3608 154.388 70.3229 154.565 70.2472C154.743 70.1714 154.893 70.0625 155.016 69.9205C155.139 69.7784 155.227 69.608 155.279 69.4091H156.117C156.07 69.7311 155.953 70.0211 155.766 70.2791C155.581 70.5348 155.336 70.7384 155.03 70.8899C154.727 71.0391 154.375 71.1136 153.972 71.1136ZM159.714 65.5455V66.2557H156.888V65.5455H159.714ZM157.712 64.2386H158.55V69.4375C158.55 69.6742 158.584 69.8518 158.653 69.9702C158.724 70.0862 158.814 70.1643 158.922 70.2045C159.034 70.2424 159.151 70.2614 159.274 70.2614C159.366 70.2614 159.442 70.2566 159.501 70.2472C159.561 70.2353 159.608 70.2259 159.643 70.2188L159.814 70.9716C159.757 70.9929 159.678 71.0142 159.576 71.0355C159.474 71.0592 159.345 71.071 159.189 71.071C158.952 71.071 158.72 71.0201 158.493 70.9183C158.268 70.8165 158.081 70.6615 157.932 70.4531C157.785 70.2448 157.712 69.982 157.712 69.6648V64.2386ZM163.132 71.1136C162.64 71.1136 162.208 70.9964 161.836 70.7621C161.467 70.5277 161.178 70.1998 160.97 69.7784C160.764 69.357 160.661 68.8646 160.661 68.3011C160.661 67.733 160.764 67.237 160.97 66.8132C161.178 66.3894 161.467 66.0604 161.836 65.826C162.208 65.5916 162.64 65.4744 163.132 65.4744C163.625 65.4744 164.056 65.5916 164.425 65.826C164.797 66.0604 165.085 66.3894 165.291 66.8132C165.5 67.237 165.604 67.733 165.604 68.3011C165.604 68.8646 165.5 69.357 165.291 69.7784C165.085 70.1998 164.797 70.5277 164.425 70.7621C164.056 70.9964 163.625 71.1136 163.132 71.1136ZM163.132 70.3608C163.506 70.3608 163.814 70.2649 164.056 70.0732C164.297 69.8814 164.476 69.6293 164.592 69.3168C164.708 69.0043 164.766 68.6657 164.766 68.3011C164.766 67.9366 164.708 67.5968 164.592 67.282C164.476 66.9671 164.297 66.7126 164.056 66.5185C163.814 66.3243 163.506 66.2273 163.132 66.2273C162.758 66.2273 162.451 66.3243 162.209 66.5185C161.968 66.7126 161.789 66.9671 161.673 67.282C161.557 67.5968 161.499 67.9366 161.499 68.3011C161.499 68.6657 161.557 69.0043 161.673 69.3168C161.789 69.6293 161.968 69.8814 162.209 70.0732C162.451 70.2649 162.758 70.3608 163.132 70.3608ZM170.747 66.767L169.994 66.9801C169.947 66.8546 169.877 66.7327 169.785 66.6143C169.695 66.4936 169.571 66.3942 169.415 66.3161C169.259 66.2379 169.059 66.1989 168.815 66.1989C168.481 66.1989 168.203 66.2758 167.981 66.4297C167.76 66.5812 167.65 66.7741 167.65 67.0085C167.65 67.2169 167.726 67.3814 167.878 67.5021C168.029 67.6229 168.266 67.7235 168.588 67.804L169.397 68.0028C169.885 68.1212 170.249 68.3023 170.488 68.5462C170.727 68.7876 170.846 69.099 170.846 69.4801C170.846 69.7926 170.756 70.072 170.576 70.3182C170.399 70.5644 170.15 70.7585 169.831 70.9006C169.511 71.0426 169.139 71.1136 168.716 71.1136C168.159 71.1136 167.699 70.9929 167.334 70.7514C166.97 70.5099 166.739 70.1572 166.642 69.6932L167.437 69.4943C167.513 69.7879 167.656 70.008 167.867 70.1548C168.08 70.3016 168.358 70.375 168.701 70.375C169.092 70.375 169.402 70.2921 169.632 70.1264C169.864 69.9583 169.98 69.7571 169.98 69.5227C169.98 69.3333 169.914 69.1747 169.781 69.0469C169.648 68.9167 169.445 68.8196 169.17 68.7557L168.261 68.5426C167.762 68.4242 167.395 68.2408 167.16 67.9922C166.928 67.7412 166.812 67.4276 166.812 67.0511C166.812 66.7434 166.899 66.4711 167.071 66.2344C167.247 65.9976 167.485 65.8118 167.785 65.6768C168.088 65.5419 168.432 65.4744 168.815 65.4744C169.355 65.4744 169.779 65.5928 170.086 65.8295C170.397 66.0663 170.617 66.3788 170.747 66.767Z" fill="#CFD1DE"/>
<path d="M39.6191 43.9751C39.6191 43.0215 40.0725 42.1248 40.8403 41.5594L49.7322 35.0117L58.624 41.5594C59.3919 42.1248 59.8452 43.0215 59.8452 43.9751V54.7604C59.8452 56.1411 58.7259 57.2604 57.3452 57.2604H53.7661C53.2138 57.2604 52.7661 56.8127 52.7661 56.2604V50.1756C52.7661 49.8995 52.5422 49.6756 52.2661 49.6756H47.1983C46.9221 49.6756 46.6983 49.8995 46.6983 50.1756V56.2604C46.6983 56.8127 46.2505 57.2604 45.6983 57.2604H42.1191C40.7384 57.2604 39.6191 56.1411 39.6191 54.7604V43.9751Z" stroke="#CFD1DE" stroke-width="2.02261" stroke-linecap="round" stroke-linejoin="round"/>
<path d="M36.6727 71V63.7273H37.5534V66.9659H41.4312V63.7273H42.3119V71H41.4312V67.7472H37.5534V71H36.6727ZM46.1773 71.1136C45.6849 71.1136 45.2528 70.9964 44.8811 70.7621C44.5118 70.5277 44.223 70.1998 44.0146 69.7784C43.8087 69.357 43.7057 68.8646 43.7057 68.3011C43.7057 67.733 43.8087 67.237 44.0146 66.8132C44.223 66.3894 44.5118 66.0604 44.8811 65.826C45.2528 65.5916 45.6849 65.4744 46.1773 65.4744C46.6697 65.4744 47.1006 65.5916 47.4699 65.826C47.8416 66.0604 48.1304 66.3894 48.3364 66.8132C48.5447 67.237 48.6489 67.733 48.6489 68.3011C48.6489 68.8646 48.5447 69.357 48.3364 69.7784C48.1304 70.1998 47.8416 70.5277 47.4699 70.7621C47.1006 70.9964 46.6697 71.1136 46.1773 71.1136ZM46.1773 70.3608C46.5513 70.3608 46.8591 70.2649 47.1006 70.0732C47.3421 69.8814 47.5208 69.6293 47.6368 69.3168C47.7528 69.0043 47.8108 68.6657 47.8108 68.3011C47.8108 67.9366 47.7528 67.5968 47.6368 67.282C47.5208 66.9671 47.3421 66.7126 47.1006 66.5185C46.8591 66.3243 46.5513 66.2273 46.1773 66.2273C45.8032 66.2273 45.4955 66.3243 45.254 66.5185C45.0125 66.7126 44.8338 66.9671 44.7178 67.282C44.6018 67.5968 44.5438 67.9366 44.5438 68.3011C44.5438 68.6657 44.6018 69.0043 44.7178 69.3168C44.8338 69.6293 45.0125 69.8814 45.254 70.0732C45.4955 70.2649 45.8032 70.3608 46.1773 70.3608ZM49.9282 71V65.5455H50.7378V66.3977H50.8089C50.9225 66.1065 51.106 65.8804 51.3593 65.7195C51.6126 65.5561 51.9168 65.4744 52.2719 65.4744C52.6318 65.4744 52.9313 65.5561 53.1704 65.7195C53.4118 65.8804 53.6001 66.1065 53.735 66.3977H53.7918C53.9315 66.116 54.141 65.8923 54.4204 65.7266C54.6997 65.5585 55.0347 65.4744 55.4253 65.4744C55.913 65.4744 56.3119 65.6271 56.6221 65.9325C56.9322 66.2356 57.0873 66.7079 57.0873 67.3494V71H56.2492V67.3494C56.2492 66.947 56.1391 66.6593 55.9189 66.4865C55.6988 66.3137 55.4395 66.2273 55.1412 66.2273C54.7577 66.2273 54.4606 66.3433 54.2499 66.5753C54.0392 66.8049 53.9339 67.0961 53.9339 67.4489V71H53.0816V67.2642C53.0816 66.9541 52.981 66.7043 52.7797 66.5149C52.5785 66.3232 52.3193 66.2273 52.002 66.2273C51.7842 66.2273 51.5806 66.2853 51.3912 66.4013C51.2042 66.5173 51.0527 66.6783 50.9367 66.8842C50.8231 67.0878 50.7662 67.3234 50.7662 67.5909V71H49.9282ZM60.9065 71.1136C60.3809 71.1136 59.9276 70.9976 59.5464 70.7656C59.1676 70.5312 58.8753 70.2045 58.6693 69.7855C58.4657 69.3641 58.3639 68.8741 58.3639 68.3153C58.3639 67.7566 58.4657 67.2642 58.6693 66.8381C58.8753 66.4096 59.1617 66.0758 59.5287 65.8366C59.898 65.5952 60.3289 65.4744 60.8213 65.4744C61.1054 65.4744 61.3859 65.5218 61.6629 65.6165C61.9399 65.7112 62.192 65.8651 62.4193 66.0781C62.6466 66.2888 62.8277 66.5682 62.9626 66.9162C63.0976 67.2642 63.165 67.6927 63.165 68.2017V68.5568H58.9605V67.8324H62.3128C62.3128 67.5246 62.2512 67.25 62.1281 67.0085C62.0074 66.767 61.8345 66.5765 61.6096 66.4368C61.3871 66.2971 61.1243 66.2273 60.8213 66.2273C60.4875 66.2273 60.1987 66.3101 59.9548 66.4759C59.7133 66.6392 59.5275 66.8523 59.3973 67.1151C59.2671 67.3778 59.202 67.6596 59.202 67.9602V68.4432C59.202 68.8551 59.273 69.2043 59.415 69.4908C59.5595 69.7749 59.7595 69.9915 60.0152 70.1406C60.2709 70.2874 60.568 70.3608 60.9065 70.3608C61.1267 70.3608 61.3256 70.33 61.5031 70.2685C61.683 70.2045 61.8381 70.1098 61.9683 69.9844C62.0985 69.8565 62.1991 69.6979 62.2702 69.5085L63.0798 69.7358C62.9946 70.0104 62.8514 70.2519 62.6501 70.4602C62.4489 70.6662 62.2003 70.8272 61.9044 70.9432C61.6085 71.0568 61.2758 71.1136 60.9065 71.1136Z" fill="#CFD1DE"/>
<path d="M227.516 71V63.7273H230.059C230.566 63.7273 230.984 63.8149 231.313 63.9901C231.642 64.1629 231.887 64.3961 232.048 64.6896C232.209 64.9808 232.289 65.304 232.289 65.6591C232.289 65.9716 232.234 66.2296 232.122 66.4332C232.013 66.6368 231.869 66.7978 231.689 66.9162C231.511 67.0346 231.319 67.1222 231.11 67.179V67.25C231.333 67.2642 231.556 67.3423 231.781 67.4844C232.006 67.6264 232.194 67.83 232.346 68.0952C232.497 68.3603 232.573 68.6847 232.573 69.0682C232.573 69.4328 232.49 69.7607 232.325 70.0518C232.159 70.343 231.897 70.5739 231.54 70.7443C231.182 70.9148 230.717 71 230.144 71H227.516ZM228.397 70.2188H230.144C230.72 70.2188 231.128 70.1075 231.369 69.8849C231.613 69.66 231.735 69.3878 231.735 69.0682C231.735 68.822 231.672 68.5947 231.547 68.3864C231.421 68.1757 231.243 68.0076 231.011 67.8821C230.779 67.7543 230.504 67.6903 230.187 67.6903H228.397V70.2188ZM228.397 66.9233H230.031C230.296 66.9233 230.535 66.8712 230.748 66.767C230.963 66.6629 231.134 66.5161 231.259 66.3267C231.387 66.1373 231.451 65.9148 231.451 65.6591C231.451 65.3395 231.34 65.0684 231.117 64.8459C230.895 64.621 230.542 64.5085 230.059 64.5085H228.397V66.9233ZM233.907 71V65.5455H234.745V71H233.907ZM234.333 64.6364C234.169 64.6364 234.029 64.5807 233.91 64.4695C233.794 64.3582 233.736 64.2244 233.736 64.0682C233.736 63.9119 233.794 63.7782 233.91 63.6669C234.029 63.5556 234.169 63.5 234.333 63.5C234.496 63.5 234.636 63.5556 234.752 63.6669C234.87 63.7782 234.929 63.9119 234.929 64.0682C234.929 64.2244 234.87 64.3582 234.752 64.4695C234.636 64.5807 234.496 64.6364 234.333 64.6364ZM237.118 63.7273V71H236.28V63.7273H237.118ZM239.491 63.7273V71H238.653V63.7273H239.491ZM243.313 71.1136C242.787 71.1136 242.334 70.9976 241.953 70.7656C241.574 70.5312 241.282 70.2045 241.076 69.7855C240.872 69.3641 240.77 68.8741 240.77 68.3153C240.77 67.7566 240.872 67.2642 241.076 66.8381C241.282 66.4096 241.568 66.0758 241.935 65.8366C242.304 65.5952 242.735 65.4744 243.228 65.4744C243.512 65.4744 243.792 65.5218 244.069 65.6165C244.346 65.7112 244.598 65.8651 244.826 66.0781C245.053 66.2888 245.234 66.5682 245.369 66.9162C245.504 67.2642 245.571 67.6927 245.571 68.2017V68.5568H241.367V67.8324H244.719C244.719 67.5246 244.657 67.25 244.534 67.0085C244.414 66.767 244.241 66.5765 244.016 66.4368C243.793 66.2971 243.531 66.2273 243.228 66.2273C242.894 66.2273 242.605 66.3101 242.361 66.4759C242.12 66.6392 241.934 66.8523 241.804 67.1151C241.673 67.3778 241.608 67.6596 241.608 67.9602V68.4432C241.608 68.8551 241.679 69.2043 241.821 69.4908C241.966 69.7749 242.166 69.9915 242.421 70.1406C242.677 70.2874 242.974 70.3608 243.313 70.3608C243.533 70.3608 243.732 70.33 243.909 70.2685C244.089 70.2045 244.244 70.1098 244.375 69.9844C244.505 69.8565 244.605 69.6979 244.676 69.5085L245.486 69.7358C245.401 70.0104 245.258 70.2519 245.056 70.4602C244.855 70.6662 244.607 70.8272 244.311 70.9432C244.015 71.0568 243.682 71.1136 243.313 71.1136ZM249.218 65.5455V66.2557H246.392V65.5455H249.218ZM247.215 64.2386H248.054V69.4375C248.054 69.6742 248.088 69.8518 248.157 69.9702C248.228 70.0862 248.318 70.1643 248.426 70.2045C248.538 70.2424 248.655 70.2614 248.778 70.2614C248.87 70.2614 248.946 70.2566 249.005 70.2472C249.064 70.2353 249.112 70.2259 249.147 70.2188L249.318 70.9716C249.261 70.9929 249.182 71.0142 249.08 71.0355C248.978 71.0592 248.849 71.071 248.693 71.071C248.456 71.071 248.224 71.0201 247.997 70.9183C247.772 70.8165 247.585 70.6615 247.436 70.4531C247.289 70.2448 247.215 69.982 247.215 69.6648V64.2386ZM252.707 71.1136C252.182 71.1136 251.728 70.9976 251.347 70.7656C250.968 70.5312 250.676 70.2045 250.47 69.7855C250.266 69.3641 250.165 68.8741 250.165 68.3153C250.165 67.7566 250.266 67.2642 250.47 66.8381C250.676 66.4096 250.963 66.0758 251.329 65.8366C251.699 65.5952 252.13 65.4744 252.622 65.4744C252.906 65.4744 253.187 65.5218 253.464 65.6165C253.741 65.7112 253.993 65.8651 254.22 66.0781C254.447 66.2888 254.628 66.5682 254.763 66.9162C254.898 67.2642 254.966 67.6927 254.966 68.2017V68.5568H250.761V67.8324H254.114C254.114 67.5246 254.052 67.25 253.929 67.0085C253.808 66.767 253.635 66.5765 253.41 66.4368C253.188 66.2971 252.925 66.2273 252.622 66.2273C252.288 66.2273 251.999 66.3101 251.756 66.4759C251.514 66.6392 251.328 66.8523 251.198 67.1151C251.068 67.3778 251.003 67.6596 251.003 67.9602V68.4432C251.003 68.8551 251.074 69.2043 251.216 69.4908C251.36 69.7749 251.56 69.9915 251.816 70.1406C252.072 70.2874 252.369 70.3608 252.707 70.3608C252.927 70.3608 253.126 70.33 253.304 70.2685C253.484 70.2045 253.639 70.1098 253.769 69.9844C253.899 69.8565 254 69.6979 254.071 69.5085L254.881 69.7358C254.795 70.0104 254.652 70.2519 254.451 70.4602C254.25 70.6662 254.001 70.8272 253.705 70.9432C253.409 71.0568 253.077 71.1136 252.707 71.1136ZM256.241 71V65.5455H257.05V66.3693H257.107C257.207 66.0994 257.387 65.8804 257.647 65.7124C257.907 65.5443 258.201 65.4602 258.528 65.4602C258.589 65.4602 258.666 65.4614 258.758 65.4638C258.851 65.4661 258.921 65.4697 258.968 65.4744V66.3267C258.94 66.3196 258.874 66.3089 258.773 66.2947C258.673 66.2782 258.568 66.2699 258.457 66.2699C258.191 66.2699 257.955 66.3255 257.746 66.4368C257.54 66.5457 257.377 66.6972 257.256 66.8913C257.138 67.0831 257.079 67.3021 257.079 67.5483V71H256.241ZM261.566 71.1278C261.221 71.1278 260.907 71.0627 260.625 70.9325C260.344 70.8 260.12 70.6094 259.954 70.3608C259.789 70.1098 259.706 69.8068 259.706 69.4517C259.706 69.1392 259.767 68.8859 259.89 68.6918C260.013 68.4953 260.178 68.3414 260.384 68.2301C260.59 68.1188 260.817 68.036 261.066 67.9815C261.317 67.9247 261.569 67.8797 261.822 67.8466C262.154 67.804 262.422 67.772 262.628 67.7507C262.837 67.727 262.988 67.688 263.083 67.6335C263.18 67.5791 263.228 67.4844 263.228 67.3494V67.321C263.228 66.9706 263.133 66.6984 262.941 66.5043C262.751 66.3101 262.464 66.2131 262.078 66.2131C261.678 66.2131 261.364 66.3007 261.137 66.4759C260.91 66.651 260.75 66.8381 260.657 67.0369L259.862 66.7528C260.004 66.4214 260.193 66.1634 260.43 65.9787C260.669 65.7917 260.93 65.6615 261.211 65.5881C261.495 65.5123 261.775 65.4744 262.049 65.4744C262.225 65.4744 262.426 65.4957 262.653 65.5384C262.883 65.5786 263.104 65.6626 263.317 65.7905C263.533 65.9183 263.711 66.1113 263.853 66.3693C263.995 66.6274 264.066 66.973 264.066 67.4062V71H263.228V70.2614H263.186C263.129 70.3797 263.034 70.5064 262.902 70.6413C262.769 70.7763 262.593 70.8911 262.373 70.9858C262.152 71.0805 261.884 71.1278 261.566 71.1278ZM261.694 70.375C262.026 70.375 262.305 70.3099 262.532 70.1797C262.762 70.0495 262.935 69.8814 263.051 69.6754C263.169 69.4695 263.228 69.2528 263.228 69.0256V68.2585C263.193 68.3011 263.115 68.3402 262.994 68.3757C262.876 68.4089 262.738 68.4384 262.582 68.4645C262.428 68.4882 262.278 68.5095 262.131 68.5284C261.987 68.545 261.87 68.5592 261.78 68.571C261.562 68.5994 261.358 68.6456 261.169 68.7095C260.982 68.7711 260.83 68.8646 260.714 68.9901C260.601 69.1132 260.544 69.2812 260.544 69.4943C260.544 69.7855 260.651 70.0057 260.867 70.1548C261.085 70.3016 261.361 70.375 261.694 70.375Z" fill="#CFD1DE"/>
<path d="M254.828 37.0449L237.671 37.0449C235.997 37.0449 234.641 38.4015 234.641 40.0749V54.241C234.641 55.9144 235.997 57.271 237.671 57.271H253.794C255.467 57.271 256.824 55.9144 256.824 54.241V44.0256C256.824 42.3522 255.467 40.9956 253.794 40.9956H237.145C236.029 40.9956 235.125 40.0913 235.125 38.9759V38.9759" stroke="#CFD1DE" stroke-width="2.02" stroke-linecap="round" stroke-linejoin="round"/>
<rect width="70" height="2" transform="matrix(1 0 0 -1 308.732 21)" fill="#55B3FF"/>
</g>
<defs>
<filter id="filter0_d_1714_36170" x="-12.4033" y="0" width="416" height="101" filterUnits="userSpaceOnUse" color-interpolation-filters="sRGB">
<feFlood flood-opacity="0" result="BackgroundImageFix"/>
<feColorMatrix in="SourceAlpha" type="matrix" values="0 0 0 0 0 0 0 0 0 0 0 0 0 0 0 0 0 0 127 0" result="hardAlpha"/>
<feOffset dy="-6"/>
<feGaussianBlur stdDeviation="6.5"/>
<feComposite in2="hardAlpha" operator="out"/>
<feColorMatrix type="matrix" values="0 0 0 0 0 0 0 0 0 0 0 0 0 0 0 0 0 0 0.04 0"/>
<feBlend mode="normal" in2="BackgroundImageFix" result="effect1_dropShadow_1714_36170"/>
<feBlend mode="normal" in="SourceGraphic" in2="effect1_dropShadow_1714_36170" result="shape"/>
</filter>
</defs>
</svg>
