<svg width="391" height="94" viewBox="0 0 391 94" fill="none" xmlns="http://www.w3.org/2000/svg">
<g filter="url(#filter0_d_1714_36110)">
<path d="M0.995117 19H390.995V94H0.995117V19Z" fill="white"/>
<path d="M336.029 55.7421L336.2 54.642C336.409 53.3011 337.283 52.1526 338.58 51.7511C340.189 51.2525 342.581 50.6855 345.131 50.6855C347.681 50.6855 350.072 51.2525 351.682 51.7511C352.978 52.1526 353.853 53.3011 354.061 54.642L354.232 55.7421" stroke="#87C9FF" stroke-width="2.02261" stroke-linecap="round" stroke-linejoin="round"/>
<path d="M345.131 46.1365C347.923 46.1365 350.187 43.8726 350.187 41.08C350.187 38.2873 347.923 36.0234 345.131 36.0234C342.338 36.0234 340.074 38.2873 340.074 41.08C340.074 43.8726 342.338 46.1365 345.131 46.1365Z" stroke="#87C9FF" stroke-width="2.02261" stroke-linecap="round" stroke-linejoin="round"/>
<path d="M332.751 71V63.7273H335.208C335.779 63.7273 336.245 63.8303 336.607 64.0362C336.972 64.2398 337.242 64.5156 337.417 64.8636C337.592 65.2116 337.68 65.5999 337.68 66.0284C337.68 66.4569 337.592 66.8464 337.417 67.1967C337.244 67.5471 336.977 67.8265 336.614 68.0348C336.252 68.2408 335.788 68.3438 335.222 68.3438H333.461V67.5625H335.194C335.585 67.5625 335.898 67.495 336.135 67.3601C336.372 67.2251 336.543 67.0429 336.65 66.8132C336.759 66.5812 336.813 66.3196 336.813 66.0284C336.813 65.7372 336.759 65.4768 336.65 65.2472C336.543 65.0175 336.371 64.8376 336.131 64.7074C335.892 64.5748 335.575 64.5085 335.18 64.5085H333.631V71H332.751ZM341.213 71.1136C340.688 71.1136 340.234 70.9976 339.853 70.7656C339.474 70.5312 339.182 70.2045 338.976 69.7855C338.772 69.3641 338.671 68.8741 338.671 68.3153C338.671 67.7566 338.772 67.2642 338.976 66.8381C339.182 66.4096 339.468 66.0758 339.835 65.8366C340.205 65.5952 340.636 65.4744 341.128 65.4744C341.412 65.4744 341.693 65.5218 341.97 65.6165C342.247 65.7112 342.499 65.8651 342.726 66.0781C342.953 66.2888 343.134 66.5682 343.269 66.9162C343.404 67.2642 343.472 67.6927 343.472 68.2017V68.5568H339.267V67.8324H342.619C342.619 67.5246 342.558 67.25 342.435 67.0085C342.314 66.767 342.141 66.5765 341.916 66.4368C341.694 66.2971 341.431 66.2273 341.128 66.2273C340.794 66.2273 340.505 66.3101 340.261 66.4759C340.02 66.6392 339.834 66.8523 339.704 67.1151C339.574 67.3778 339.509 67.6596 339.509 67.9602V68.4432C339.509 68.8551 339.58 69.2043 339.722 69.4908C339.866 69.7749 340.066 69.9915 340.322 70.1406C340.578 70.2874 340.875 70.3608 341.213 70.3608C341.433 70.3608 341.632 70.33 341.81 70.2685C341.99 70.2045 342.145 70.1098 342.275 69.9844C342.405 69.8565 342.506 69.6979 342.577 69.5085L343.386 69.7358C343.301 70.0104 343.158 70.2519 342.957 70.4602C342.756 70.6662 342.507 70.8272 342.211 70.9432C341.915 71.0568 341.582 71.1136 341.213 71.1136ZM344.747 71V65.5455H345.556V66.3693H345.613C345.712 66.0994 345.892 65.8804 346.153 65.7124C346.413 65.5443 346.707 65.4602 347.033 65.4602C347.095 65.4602 347.172 65.4614 347.264 65.4638C347.357 65.4661 347.426 65.4697 347.474 65.4744V66.3267C347.445 66.3196 347.38 66.3089 347.278 66.2947C347.179 66.2782 347.074 66.2699 346.962 66.2699C346.697 66.2699 346.461 66.3255 346.252 66.4368C346.046 66.5457 345.883 66.6972 345.762 66.8913C345.644 67.0831 345.585 67.3021 345.585 67.5483V71H344.747ZM351.238 65.5455V66.2557H348.298V65.5455H351.238ZM349.178 71V64.7926C349.178 64.4801 349.252 64.2197 349.399 64.0114C349.545 63.803 349.736 63.6468 349.97 63.5426C350.205 63.4384 350.452 63.3864 350.712 63.3864C350.918 63.3864 351.086 63.4029 351.217 63.4361C351.347 63.4692 351.444 63.5 351.508 63.5284L351.266 64.2528C351.224 64.2386 351.165 64.2209 351.089 64.1996C351.015 64.1783 350.918 64.1676 350.798 64.1676C350.521 64.1676 350.321 64.2375 350.198 64.3771C350.077 64.5168 350.016 64.7216 350.016 64.9915V71H349.178ZM352.413 71V65.5455H353.251V71H352.413ZM352.839 64.6364C352.675 64.6364 352.534 64.5807 352.416 64.4695C352.3 64.3582 352.242 64.2244 352.242 64.0682C352.242 63.9119 352.3 63.7782 352.416 63.6669C352.534 63.5556 352.675 63.5 352.839 63.5C353.002 63.5 353.142 63.5556 353.258 63.6669C353.376 63.7782 353.435 63.9119 353.435 64.0682C353.435 64.2244 353.376 64.3582 353.258 64.4695C353.142 64.5807 353.002 64.6364 352.839 64.6364ZM355.624 63.7273V71H354.786V63.7273H355.624Z" fill="#389BEC"/>
<path d="M143.074 37.0332H142.063C140.387 37.0332 139.029 38.3915 139.029 40.0671V54.2254C139.029 55.9009 140.387 57.2593 142.063 57.2593H154.198C155.874 57.2593 157.232 55.9009 157.232 54.2254V40.0671C157.232 38.3915 155.874 37.0332 154.198 37.0332H153.187" stroke="#CFD1DE" stroke-width="2.02261"/>
<rect x="143.074" y="35.0117" width="10.113" height="5.05651" rx="2.02261" stroke="#CFD1DE" stroke-width="2.02261"/>
<path d="M125.403 71V63.7273H127.861C128.431 63.7273 128.897 63.8303 129.26 64.0362C129.624 64.2398 129.894 64.5156 130.069 64.8636C130.245 65.2116 130.332 65.5999 130.332 66.0284C130.332 66.4569 130.245 66.8464 130.069 67.1967C129.897 67.5471 129.629 67.8265 129.267 68.0348C128.905 68.2408 128.441 68.3438 127.875 68.3438H126.113V67.5625H127.846C128.237 67.5625 128.551 67.495 128.787 67.3601C129.024 67.2251 129.196 67.0429 129.302 66.8132C129.411 66.5812 129.466 66.3196 129.466 66.0284C129.466 65.7372 129.411 65.4768 129.302 65.2472C129.196 65.0175 129.023 64.8376 128.784 64.7074C128.545 64.5748 128.227 64.5085 127.832 64.5085H126.284V71H125.403ZM131.637 71V65.5455H132.447V66.3693H132.504C132.603 66.0994 132.783 65.8804 133.043 65.7124C133.304 65.5443 133.597 65.4602 133.924 65.4602C133.986 65.4602 134.063 65.4614 134.155 65.4638C134.247 65.4661 134.317 65.4697 134.364 65.4744V66.3267C134.336 66.3196 134.271 66.3089 134.169 66.2947C134.07 66.2782 133.964 66.2699 133.853 66.2699C133.588 66.2699 133.351 66.3255 133.143 66.4368C132.937 66.5457 132.774 66.6972 132.653 66.8913C132.534 67.0831 132.475 67.3021 132.475 67.5483V71H131.637ZM137.408 71.1136C136.915 71.1136 136.483 70.9964 136.112 70.7621C135.742 70.5277 135.453 70.1998 135.245 69.7784C135.039 69.357 134.936 68.8646 134.936 68.3011C134.936 67.733 135.039 67.237 135.245 66.8132C135.453 66.3894 135.742 66.0604 136.112 65.826C136.483 65.5916 136.915 65.4744 137.408 65.4744C137.9 65.4744 138.331 65.5916 138.7 65.826C139.072 66.0604 139.361 66.3894 139.567 66.8132C139.775 67.237 139.879 67.733 139.879 68.3011C139.879 68.8646 139.775 69.357 139.567 69.7784C139.361 70.1998 139.072 70.5277 138.7 70.7621C138.331 70.9964 137.9 71.1136 137.408 71.1136ZM137.408 70.3608C137.782 70.3608 138.09 70.2649 138.331 70.0732C138.573 69.8814 138.751 69.6293 138.867 69.3168C138.983 69.0043 139.041 68.6657 139.041 68.3011C139.041 67.9366 138.983 67.5968 138.867 67.282C138.751 66.9671 138.573 66.7126 138.331 66.5185C138.09 66.3243 137.782 66.2273 137.408 66.2273C137.034 66.2273 136.726 66.3243 136.484 66.5185C136.243 66.7126 136.064 66.9671 135.948 67.282C135.832 67.5968 135.774 67.9366 135.774 68.3011C135.774 68.6657 135.832 69.0043 135.948 69.3168C136.064 69.6293 136.243 69.8814 136.484 70.0732C136.726 70.2649 137.034 70.3608 137.408 70.3608ZM141.503 73.0455C141.361 73.0455 141.234 73.0336 141.123 73.0099C141.012 72.9886 140.935 72.9673 140.892 72.946L141.105 72.2074C141.309 72.2595 141.489 72.2784 141.645 72.2642C141.801 72.25 141.94 72.1802 142.061 72.0547C142.184 71.9316 142.296 71.7315 142.398 71.4545L142.554 71.0284L140.537 65.5455H141.446L142.952 69.892H143.009L144.514 65.5455H145.424L143.108 71.7955C143.004 72.0772 142.875 72.3104 142.721 72.495C142.567 72.6821 142.389 72.8205 142.185 72.9105C141.984 73.0005 141.756 73.0455 141.503 73.0455ZM148.621 71.1136C148.096 71.1136 147.642 70.9976 147.261 70.7656C146.882 70.5312 146.59 70.2045 146.384 69.7855C146.181 69.3641 146.079 68.8741 146.079 68.3153C146.079 67.7566 146.181 67.2642 146.384 66.8381C146.59 66.4096 146.877 66.0758 147.244 65.8366C147.613 65.5952 148.044 65.4744 148.536 65.4744C148.82 65.4744 149.101 65.5218 149.378 65.6165C149.655 65.7112 149.907 65.8651 150.134 66.0781C150.361 66.2888 150.543 66.5682 150.677 66.9162C150.812 67.2642 150.88 67.6927 150.88 68.2017V68.5568H146.675V67.8324H150.028C150.028 67.5246 149.966 67.25 149.843 67.0085C149.722 66.767 149.549 66.5765 149.324 66.4368C149.102 66.2971 148.839 66.2273 148.536 66.2273C148.202 66.2273 147.914 66.3101 147.67 66.4759C147.428 66.6392 147.242 66.8523 147.112 67.1151C146.982 67.3778 146.917 67.6596 146.917 67.9602V68.4432C146.917 68.8551 146.988 69.2043 147.13 69.4908C147.274 69.7749 147.474 69.9915 147.73 70.1406C147.986 70.2874 148.283 70.3608 148.621 70.3608C148.842 70.3608 149.04 70.33 149.218 70.2685C149.398 70.2045 149.553 70.1098 149.683 69.9844C149.813 69.8565 149.914 69.6979 149.985 69.5085L150.795 69.7358C150.709 70.0104 150.566 70.2519 150.365 70.4602C150.164 70.6662 149.915 70.8272 149.619 70.9432C149.323 71.0568 148.991 71.1136 148.621 71.1136ZM154.371 71.1136C153.859 71.1136 153.419 70.9929 153.05 70.7514C152.68 70.5099 152.396 70.1773 152.197 69.7536C151.998 69.3298 151.899 68.8456 151.899 68.3011C151.899 67.7472 152.001 67.2583 152.204 66.8345C152.41 66.4084 152.697 66.0758 153.064 65.8366C153.433 65.5952 153.864 65.4744 154.356 65.4744C154.74 65.4744 155.086 65.5455 155.393 65.6875C155.701 65.8295 155.953 66.0284 156.15 66.2841C156.346 66.5398 156.468 66.8381 156.516 67.179H155.677C155.614 66.9304 155.472 66.7102 155.251 66.5185C155.034 66.3243 154.74 66.2273 154.371 66.2273C154.044 66.2273 153.757 66.3125 153.511 66.483C153.267 66.651 153.077 66.889 152.94 67.1967C152.805 67.5021 152.737 67.8608 152.737 68.2727C152.737 68.6941 152.803 69.0611 152.936 69.3736C153.071 69.6861 153.26 69.9287 153.504 70.1016C153.75 70.2744 154.039 70.3608 154.371 70.3608C154.588 70.3608 154.786 70.3229 154.964 70.2472C155.141 70.1714 155.292 70.0625 155.415 69.9205C155.538 69.7784 155.625 69.608 155.677 69.4091H156.516C156.468 69.7311 156.351 70.0211 156.164 70.2791C155.979 70.5348 155.734 70.7384 155.429 70.8899C155.126 71.0391 154.773 71.1136 154.371 71.1136ZM160.113 65.5455V66.2557H157.286V65.5455H160.113ZM158.11 64.2386H158.948V69.4375C158.948 69.6742 158.982 69.8518 159.051 69.9702C159.122 70.0862 159.212 70.1643 159.321 70.2045C159.432 70.2424 159.549 70.2614 159.672 70.2614C159.765 70.2614 159.841 70.2566 159.9 70.2472C159.959 70.2353 160.006 70.2259 160.042 70.2188L160.212 70.9716C160.155 70.9929 160.076 71.0142 159.974 71.0355C159.873 71.0592 159.744 71.071 159.587 71.071C159.351 71.071 159.119 71.0201 158.891 70.9183C158.666 70.8165 158.479 70.6615 158.33 70.4531C158.183 70.2448 158.11 69.982 158.11 69.6648V64.2386ZM163.531 71.1136C163.038 71.1136 162.606 70.9964 162.235 70.7621C161.865 70.5277 161.576 70.1998 161.368 69.7784C161.162 69.357 161.059 68.8646 161.059 68.3011C161.059 67.733 161.162 67.237 161.368 66.8132C161.576 66.3894 161.865 66.0604 162.235 65.826C162.606 65.5916 163.038 65.4744 163.531 65.4744C164.023 65.4744 164.454 65.5916 164.823 65.826C165.195 66.0604 165.484 66.3894 165.69 66.8132C165.898 67.237 166.002 67.733 166.002 68.3011C166.002 68.8646 165.898 69.357 165.69 69.7784C165.484 70.1998 165.195 70.5277 164.823 70.7621C164.454 70.9964 164.023 71.1136 163.531 71.1136ZM163.531 70.3608C163.905 70.3608 164.213 70.2649 164.454 70.0732C164.696 69.8814 164.874 69.6293 164.99 69.3168C165.106 69.0043 165.164 68.6657 165.164 68.3011C165.164 67.9366 165.106 67.5968 164.99 67.282C164.874 66.9671 164.696 66.7126 164.454 66.5185C164.213 66.3243 163.905 66.2273 163.531 66.2273C163.157 66.2273 162.849 66.3243 162.608 66.5185C162.366 66.7126 162.187 66.9671 162.071 67.282C161.955 67.5968 161.897 67.9366 161.897 68.3011C161.897 68.6657 161.955 69.0043 162.071 69.3168C162.187 69.6293 162.366 69.8814 162.608 70.0732C162.849 70.2649 163.157 70.3608 163.531 70.3608ZM171.145 66.767L170.392 66.9801C170.345 66.8546 170.275 66.7327 170.183 66.6143C170.093 66.4936 169.97 66.3942 169.814 66.3161C169.657 66.2379 169.457 66.1989 169.214 66.1989C168.88 66.1989 168.602 66.2758 168.379 66.4297C168.159 66.5812 168.049 66.7741 168.049 67.0085C168.049 67.2169 168.124 67.3814 168.276 67.5021C168.428 67.6229 168.664 67.7235 168.986 67.804L169.796 68.0028C170.284 68.1212 170.647 68.3023 170.886 68.5462C171.125 68.7876 171.245 69.099 171.245 69.4801C171.245 69.7926 171.155 70.072 170.975 70.3182C170.797 70.5644 170.549 70.7585 170.229 70.9006C169.91 71.0426 169.538 71.1136 169.114 71.1136C168.558 71.1136 168.097 70.9929 167.733 70.7514C167.368 70.5099 167.137 70.1572 167.04 69.6932L167.836 69.4943C167.911 69.7879 168.055 70.008 168.265 70.1548C168.478 70.3016 168.757 70.375 169.1 70.375C169.491 70.375 169.801 70.2921 170.03 70.1264C170.262 69.9583 170.378 69.7571 170.378 69.5227C170.378 69.3333 170.312 69.1747 170.179 69.0469C170.047 68.9167 169.843 68.8196 169.569 68.7557L168.66 68.5426C168.16 68.4242 167.793 68.2408 167.559 67.9922C167.327 67.7412 167.211 67.4276 167.211 67.0511C167.211 66.7434 167.297 66.4711 167.47 66.2344C167.645 65.9976 167.883 65.8118 168.184 65.6768C168.487 65.5419 168.83 65.4744 169.214 65.4744C169.753 65.4744 170.177 65.5928 170.485 65.8295C170.795 66.0663 171.015 66.3788 171.145 66.767Z" fill="#CFD1DE"/>
<path d="M40.0176 43.9751C40.0176 43.0215 40.4709 42.1248 41.2387 41.5594L50.1306 35.0117L59.0225 41.5594C59.7903 42.1248 60.2436 43.0215 60.2436 43.9751V54.7604C60.2436 56.1411 59.1243 57.2604 57.7436 57.2604H54.1645C53.6122 57.2604 53.1645 56.8127 53.1645 56.2604V50.1756C53.1645 49.8995 52.9407 49.6756 52.6645 49.6756H47.5967C47.3206 49.6756 47.0967 49.8995 47.0967 50.1756V56.2604C47.0967 56.8127 46.649 57.2604 46.0967 57.2604H42.5176C41.1369 57.2604 40.0176 56.1411 40.0176 54.7604V43.9751Z" stroke="#CFD1DE" stroke-width="2.02261" stroke-linecap="round" stroke-linejoin="round"/>
<path d="M37.0711 71V63.7273H37.9518V66.9659H41.8296V63.7273H42.7103V71H41.8296V67.7472H37.9518V71H37.0711ZM46.5757 71.1136C46.0833 71.1136 45.6512 70.9964 45.2796 70.7621C44.9102 70.5277 44.6214 70.1998 44.4131 69.7784C44.2071 69.357 44.1041 68.8646 44.1041 68.3011C44.1041 67.733 44.2071 67.237 44.4131 66.8132C44.6214 66.3894 44.9102 66.0604 45.2796 65.826C45.6512 65.5916 46.0833 65.4744 46.5757 65.4744C47.0682 65.4744 47.499 65.5916 47.8683 65.826C48.24 66.0604 48.5289 66.3894 48.7348 66.8132C48.9432 67.237 49.0473 67.733 49.0473 68.3011C49.0473 68.8646 48.9432 69.357 48.7348 69.7784C48.5289 70.1998 48.24 70.5277 47.8683 70.7621C47.499 70.9964 47.0682 71.1136 46.5757 71.1136ZM46.5757 70.3608C46.9498 70.3608 47.2575 70.2649 47.499 70.0732C47.7405 69.8814 47.9192 69.6293 48.0352 69.3168C48.1512 69.0043 48.2093 68.6657 48.2093 68.3011C48.2093 67.9366 48.1512 67.5968 48.0352 67.282C47.9192 66.9671 47.7405 66.7126 47.499 66.5185C47.2575 66.3243 46.9498 66.2273 46.5757 66.2273C46.2017 66.2273 45.8939 66.3243 45.6524 66.5185C45.411 66.7126 45.2322 66.9671 45.1162 67.282C45.0002 67.5968 44.9422 67.9366 44.9422 68.3011C44.9422 68.6657 45.0002 69.0043 45.1162 69.3168C45.2322 69.6293 45.411 69.8814 45.6524 70.0732C45.8939 70.2649 46.2017 70.3608 46.5757 70.3608ZM50.3266 71V65.5455H51.1363V66.3977H51.2073C51.3209 66.1065 51.5044 65.8804 51.7577 65.7195C52.011 65.5561 52.3153 65.4744 52.6704 65.4744C53.0302 65.4744 53.3297 65.5561 53.5688 65.7195C53.8103 65.8804 53.9985 66.1065 54.1334 66.3977H54.1903C54.3299 66.116 54.5394 65.8923 54.8188 65.7266C55.0982 65.5585 55.4332 65.4744 55.8238 65.4744C56.3115 65.4744 56.7104 65.6271 57.0205 65.9325C57.3306 66.2356 57.4857 66.7079 57.4857 67.3494V71H56.6476V67.3494C56.6476 66.947 56.5376 66.6593 56.3174 66.4865C56.0972 66.3137 55.838 66.2273 55.5397 66.2273C55.1562 66.2273 54.859 66.3433 54.6483 66.5753C54.4376 66.8049 54.3323 67.0961 54.3323 67.4489V71H53.48V67.2642C53.48 66.9541 53.3794 66.7043 53.1782 66.5149C52.9769 66.3232 52.7177 66.2273 52.4005 66.2273C52.1827 66.2273 51.9791 66.2853 51.7897 66.4013C51.6027 66.5173 51.4511 66.6783 51.3351 66.8842C51.2215 67.0878 51.1647 67.3234 51.1647 67.5909V71H50.3266ZM61.305 71.1136C60.7794 71.1136 60.326 70.9976 59.9449 70.7656C59.5661 70.5312 59.2737 70.2045 59.0677 69.7855C58.8641 69.3641 58.7623 68.8741 58.7623 68.3153C58.7623 67.7566 58.8641 67.2642 59.0677 66.8381C59.2737 66.4096 59.5602 66.0758 59.9271 65.8366C60.2964 65.5952 60.7273 65.4744 61.2197 65.4744C61.5038 65.4744 61.7844 65.5218 62.0613 65.6165C62.3383 65.7112 62.5905 65.8651 62.8177 66.0781C63.045 66.2888 63.2261 66.5682 63.3611 66.9162C63.496 67.2642 63.5635 67.6927 63.5635 68.2017V68.5568H59.3589V67.8324H62.7112C62.7112 67.5246 62.6497 67.25 62.5265 67.0085C62.4058 66.767 62.233 66.5765 62.0081 66.4368C61.7855 66.2971 61.5228 66.2273 61.2197 66.2273C60.8859 66.2273 60.5971 66.3101 60.3532 66.4759C60.1118 66.6392 59.9259 66.8523 59.7957 67.1151C59.6655 67.3778 59.6004 67.6596 59.6004 67.9602V68.4432C59.6004 68.8551 59.6714 69.2043 59.8135 69.4908C59.9579 69.7749 60.1579 69.9915 60.4136 70.1406C60.6693 70.2874 60.9664 70.3608 61.305 70.3608C61.5251 70.3608 61.724 70.33 61.9015 70.2685C62.0815 70.2045 62.2365 70.1098 62.3667 69.9844C62.497 69.8565 62.5976 69.6979 62.6686 69.5085L63.4782 69.7358C63.393 70.0104 63.2498 70.2519 63.0486 70.4602C62.8473 70.6662 62.5988 70.8272 62.3028 70.9432C62.0069 71.0568 61.6743 71.1136 61.305 71.1136Z" fill="#CFD1DE"/>
<path d="M227.915 71V63.7273H230.457C230.964 63.7273 231.382 63.8149 231.711 63.9901C232.04 64.1629 232.285 64.3961 232.446 64.6896C232.607 64.9808 232.688 65.304 232.688 65.6591C232.688 65.9716 232.632 66.2296 232.521 66.4332C232.412 66.6368 232.267 66.7978 232.087 66.9162C231.91 67.0346 231.717 67.1222 231.509 67.179V67.25C231.731 67.2642 231.955 67.3423 232.18 67.4844C232.405 67.6264 232.593 67.83 232.744 68.0952C232.896 68.3603 232.972 68.6847 232.972 69.0682C232.972 69.4328 232.889 69.7607 232.723 70.0518C232.557 70.343 232.296 70.5739 231.938 70.7443C231.581 70.9148 231.116 71 230.543 71H227.915ZM228.796 70.2188H230.543C231.118 70.2188 231.526 70.1075 231.768 69.8849C232.012 69.66 232.134 69.3878 232.134 69.0682C232.134 68.822 232.071 68.5947 231.945 68.3864C231.82 68.1757 231.641 68.0076 231.409 67.8821C231.177 67.7543 230.903 67.6903 230.585 67.6903H228.796V70.2188ZM228.796 66.9233H230.429C230.694 66.9233 230.933 66.8712 231.146 66.767C231.362 66.6629 231.532 66.5161 231.658 66.3267C231.786 66.1373 231.85 65.9148 231.85 65.6591C231.85 65.3395 231.738 65.0684 231.516 64.8459C231.293 64.621 230.94 64.5085 230.457 64.5085H228.796V66.9233ZM234.305 71V65.5455H235.143V71H234.305ZM234.731 64.6364C234.568 64.6364 234.427 64.5807 234.309 64.4695C234.193 64.3582 234.135 64.2244 234.135 64.0682C234.135 63.9119 234.193 63.7782 234.309 63.6669C234.427 63.5556 234.568 63.5 234.731 63.5C234.895 63.5 235.034 63.5556 235.15 63.6669C235.269 63.7782 235.328 63.9119 235.328 64.0682C235.328 64.2244 235.269 64.3582 235.15 64.4695C235.034 64.5807 234.895 64.6364 234.731 64.6364ZM237.516 63.7273V71H236.678V63.7273H237.516ZM239.889 63.7273V71H239.051V63.7273H239.889ZM243.711 71.1136C243.186 71.1136 242.732 70.9976 242.351 70.7656C241.972 70.5312 241.68 70.2045 241.474 69.7855C241.27 69.3641 241.169 68.8741 241.169 68.3153C241.169 67.7566 241.27 67.2642 241.474 66.8381C241.68 66.4096 241.966 66.0758 242.333 65.8366C242.703 65.5952 243.134 65.4744 243.626 65.4744C243.91 65.4744 244.191 65.5218 244.468 65.6165C244.745 65.7112 244.997 65.8651 245.224 66.0781C245.451 66.2888 245.632 66.5682 245.767 66.9162C245.902 67.2642 245.97 67.6927 245.97 68.2017V68.5568H241.765V67.8324H245.117C245.117 67.5246 245.056 67.25 244.933 67.0085C244.812 66.767 244.639 66.5765 244.414 66.4368C244.192 66.2971 243.929 66.2273 243.626 66.2273C243.292 66.2273 243.003 66.3101 242.759 66.4759C242.518 66.6392 242.332 66.8523 242.202 67.1151C242.072 67.3778 242.007 67.6596 242.007 67.9602V68.4432C242.007 68.8551 242.078 69.2043 242.22 69.4908C242.364 69.7749 242.564 69.9915 242.82 70.1406C243.076 70.2874 243.373 70.3608 243.711 70.3608C243.931 70.3608 244.13 70.33 244.308 70.2685C244.488 70.2045 244.643 70.1098 244.773 69.9844C244.903 69.8565 245.004 69.6979 245.075 69.5085L245.884 69.7358C245.799 70.0104 245.656 70.2519 245.455 70.4602C245.254 70.6662 245.005 70.8272 244.709 70.9432C244.413 71.0568 244.081 71.1136 243.711 71.1136ZM249.617 65.5455V66.2557H246.79V65.5455H249.617ZM247.614 64.2386H248.452V69.4375C248.452 69.6742 248.486 69.8518 248.555 69.9702C248.626 70.0862 248.716 70.1643 248.825 70.2045C248.936 70.2424 249.053 70.2614 249.176 70.2614C249.269 70.2614 249.344 70.2566 249.404 70.2472C249.463 70.2353 249.51 70.2259 249.546 70.2188L249.716 70.9716C249.659 70.9929 249.58 71.0142 249.478 71.0355C249.376 71.0592 249.247 71.071 249.091 71.071C248.854 71.071 248.622 71.0201 248.395 70.9183C248.17 70.8165 247.983 70.6615 247.834 70.4531C247.687 70.2448 247.614 69.982 247.614 69.6648V64.2386ZM253.106 71.1136C252.58 71.1136 252.127 70.9976 251.746 70.7656C251.367 70.5312 251.074 70.2045 250.869 69.7855C250.665 69.3641 250.563 68.8741 250.563 68.3153C250.563 67.7566 250.665 67.2642 250.869 66.8381C251.074 66.4096 251.361 66.0758 251.728 65.8366C252.097 65.5952 252.528 65.4744 253.021 65.4744C253.305 65.4744 253.585 65.5218 253.862 65.6165C254.139 65.7112 254.391 65.8651 254.619 66.0781C254.846 66.2888 255.027 66.5682 255.162 66.9162C255.297 67.2642 255.364 67.6927 255.364 68.2017V68.5568H251.16V67.8324H254.512C254.512 67.5246 254.45 67.25 254.327 67.0085C254.207 66.767 254.034 66.5765 253.809 66.4368C253.586 66.2971 253.324 66.2273 253.021 66.2273C252.687 66.2273 252.398 66.3101 252.154 66.4759C251.913 66.6392 251.727 66.8523 251.597 67.1151C251.466 67.3778 251.401 67.6596 251.401 67.9602V68.4432C251.401 68.8551 251.472 69.2043 251.614 69.4908C251.759 69.7749 251.959 69.9915 252.214 70.1406C252.47 70.2874 252.767 70.3608 253.106 70.3608C253.326 70.3608 253.525 70.33 253.702 70.2685C253.882 70.2045 254.037 70.1098 254.168 69.9844C254.298 69.8565 254.398 69.6979 254.469 69.5085L255.279 69.7358C255.194 70.0104 255.051 70.2519 254.849 70.4602C254.648 70.6662 254.4 70.8272 254.104 70.9432C253.808 71.0568 253.475 71.1136 253.106 71.1136ZM256.639 71V65.5455H257.449V66.3693H257.506C257.605 66.0994 257.785 65.8804 258.045 65.7124C258.306 65.5443 258.599 65.4602 258.926 65.4602C258.988 65.4602 259.065 65.4614 259.157 65.4638C259.249 65.4661 259.319 65.4697 259.366 65.4744V66.3267C259.338 66.3196 259.273 66.3089 259.171 66.2947C259.072 66.2782 258.966 66.2699 258.855 66.2699C258.59 66.2699 258.353 66.3255 258.145 66.4368C257.939 66.5457 257.775 66.6972 257.655 66.8913C257.536 67.0831 257.477 67.3021 257.477 67.5483V71H256.639ZM261.965 71.1278C261.619 71.1278 261.306 71.0627 261.024 70.9325C260.742 70.8 260.518 70.6094 260.353 70.3608C260.187 70.1098 260.104 69.8068 260.104 69.4517C260.104 69.1392 260.166 68.8859 260.289 68.6918C260.412 68.4953 260.576 68.3414 260.782 68.2301C260.988 68.1188 261.216 68.036 261.464 67.9815C261.715 67.9247 261.967 67.8797 262.221 67.8466C262.552 67.804 262.821 67.772 263.027 67.7507C263.235 67.727 263.387 67.688 263.481 67.6335C263.578 67.5791 263.627 67.4844 263.627 67.3494V67.321C263.627 66.9706 263.531 66.6984 263.339 66.5043C263.15 66.3101 262.862 66.2131 262.476 66.2131C262.076 66.2131 261.763 66.3007 261.535 66.4759C261.308 66.651 261.148 66.8381 261.056 67.0369L260.26 66.7528C260.402 66.4214 260.592 66.1634 260.829 65.9787C261.068 65.7917 261.328 65.6615 261.61 65.5881C261.894 65.5123 262.173 65.4744 262.448 65.4744C262.623 65.4744 262.824 65.4957 263.052 65.5384C263.281 65.5786 263.503 65.6626 263.716 65.7905C263.931 65.9183 264.11 66.1113 264.252 66.3693C264.394 66.6274 264.465 66.973 264.465 67.4062V71H263.627V70.2614H263.584C263.527 70.3797 263.433 70.5064 263.3 70.6413C263.168 70.7763 262.991 70.8911 262.771 70.9858C262.551 71.0805 262.282 71.1278 261.965 71.1278ZM262.093 70.375C262.424 70.375 262.704 70.3099 262.931 70.1797C263.16 70.0495 263.333 69.8814 263.449 69.6754C263.568 69.4695 263.627 69.2528 263.627 69.0256V68.2585C263.591 68.3011 263.513 68.3402 263.392 68.3757C263.274 68.4089 263.137 68.4384 262.981 68.4645C262.827 68.4882 262.676 68.5095 262.53 68.5284C262.385 68.545 262.268 68.5592 262.178 68.571C261.96 68.5994 261.757 68.6456 261.567 68.7095C261.38 68.7711 261.229 68.8646 261.113 68.9901C260.999 69.1132 260.942 69.2812 260.942 69.4943C260.942 69.7855 261.05 70.0057 261.265 70.1548C261.483 70.3016 261.759 70.375 262.093 70.375Z" fill="#CFD1DE"/>
<path d="M255.226 37.0449L238.069 37.0449C236.396 37.0449 235.039 38.4015 235.039 40.0749V54.241C235.039 55.9144 236.396 57.271 238.069 57.271H254.192C255.866 57.271 257.222 55.9144 257.222 54.241V44.0256C257.222 42.3522 255.866 40.9956 254.192 40.9956H237.543C236.428 40.9956 235.523 40.0913 235.523 38.9759V38.9759" stroke="#CFD1DE" stroke-width="2.02" stroke-linecap="round" stroke-linejoin="round"/>
<rect width="70" height="2" transform="matrix(1 0 0 -1 309.131 21)" fill="#55B3FF"/>
</g>
<defs>
<filter id="filter0_d_1714_36110" x="-12.0049" y="0" width="416" height="101" filterUnits="userSpaceOnUse" color-interpolation-filters="sRGB">
<feFlood flood-opacity="0" result="BackgroundImageFix"/>
<feColorMatrix in="SourceAlpha" type="matrix" values="0 0 0 0 0 0 0 0 0 0 0 0 0 0 0 0 0 0 127 0" result="hardAlpha"/>
<feOffset dy="-6"/>
<feGaussianBlur stdDeviation="6.5"/>
<feComposite in2="hardAlpha" operator="out"/>
<feColorMatrix type="matrix" values="0 0 0 0 0 0 0 0 0 0 0 0 0 0 0 0 0 0 0.04 0"/>
<feBlend mode="normal" in2="BackgroundImageFix" result="effect1_dropShadow_1714_36110"/>
<feBlend mode="normal" in="SourceGraphic" in2="effect1_dropShadow_1714_36110" result="shape"/>
</filter>
</defs>
</svg>
