<svg width="391" height="95" viewBox="0 0 391 95" fill="none" xmlns="http://www.w3.org/2000/svg">
<g filter="url(#filter0_d_1714_37623)">
<path d="M0.357422 19.0957H390.357V94.0957H0.357422V19.0957Z" fill="white"/>
<path d="M335.392 55.8378L335.563 54.7377C335.771 53.3968 336.646 52.2483 337.942 51.8468C339.552 51.3482 341.943 50.7812 344.493 50.7812C347.043 50.7812 349.435 51.3482 351.044 51.8468C352.341 52.2483 353.215 53.3968 353.424 54.7377L353.595 55.8378" stroke="#CFD1DE" stroke-width="2.02261" stroke-linecap="round" stroke-linejoin="round"/>
<path d="M344.493 46.2322C347.286 46.2322 349.55 43.9683 349.55 41.1757C349.55 38.383 347.286 36.1191 344.493 36.1191C341.7 36.1191 339.437 38.383 339.437 41.1757C339.437 43.9683 341.7 46.2322 344.493 46.2322Z" stroke="#CFD1DE" stroke-width="2.02261" stroke-linecap="round" stroke-linejoin="round"/>
<path d="M332.113 71.0957V63.823H334.57C335.141 63.823 335.607 63.926 335.97 64.1319C336.334 64.3355 336.604 64.6113 336.779 64.9593C336.954 65.3074 337.042 65.6956 337.042 66.1241C337.042 66.5526 336.954 66.9421 336.779 67.2924C336.606 67.6428 336.339 67.9222 335.977 68.1305C335.615 68.3365 335.151 68.4395 334.585 68.4395H332.823V67.6582H334.556C334.947 67.6582 335.261 67.5907 335.497 67.4558C335.734 67.3208 335.906 67.1386 336.012 66.9089C336.121 66.6769 336.176 66.4153 336.176 66.1241C336.176 65.8329 336.121 65.5725 336.012 65.3429C335.906 65.1132 335.733 64.9333 335.494 64.8031C335.255 64.6705 334.937 64.6042 334.542 64.6042H332.994V71.0957H332.113ZM340.575 71.2093C340.05 71.2093 339.597 71.0933 339.215 70.8613C338.837 70.627 338.544 70.3002 338.338 69.8812C338.135 69.4598 338.033 68.9698 338.033 68.411C338.033 67.8523 338.135 67.3599 338.338 66.9338C338.544 66.5053 338.831 66.1715 339.198 65.9324C339.567 65.6909 339.998 65.5701 340.49 65.5701C340.774 65.5701 341.055 65.6175 341.332 65.7122C341.609 65.8069 341.861 65.9608 342.088 66.1738C342.316 66.3845 342.497 66.6639 342.632 67.0119C342.767 67.3599 342.834 67.7884 342.834 68.2974V68.6525H338.629V67.9281H341.982C341.982 67.6203 341.92 67.3457 341.797 67.1042C341.676 66.8627 341.503 66.6722 341.279 66.5325C341.056 66.3928 340.793 66.323 340.49 66.323C340.156 66.323 339.868 66.4058 339.624 66.5716C339.382 66.7349 339.196 66.948 339.066 67.2108C338.936 67.4735 338.871 67.7553 338.871 68.0559V68.5389C338.871 68.9508 338.942 69.3 339.084 69.5865C339.228 69.8706 339.428 70.0872 339.684 70.2363C339.94 70.3831 340.237 70.4565 340.575 70.4565C340.796 70.4565 340.994 70.4257 341.172 70.3642C341.352 70.3002 341.507 70.2056 341.637 70.0801C341.767 69.9522 341.868 69.7936 341.939 69.6042L342.749 69.8315C342.664 70.1061 342.52 70.3476 342.319 70.5559C342.118 70.7619 341.869 70.9229 341.573 71.0389C341.277 71.1525 340.945 71.2093 340.575 71.2093ZM344.109 71.0957V65.6412H344.919V66.465H344.975C345.075 66.1951 345.255 65.9761 345.515 65.8081C345.776 65.64 346.069 65.5559 346.396 65.5559C346.457 65.5559 346.534 65.5571 346.627 65.5595C346.719 65.5618 346.789 65.5654 346.836 65.5701V66.4224C346.808 66.4153 346.743 66.4047 346.641 66.3904C346.541 66.3739 346.436 66.3656 346.325 66.3656C346.06 66.3656 345.823 66.4212 345.615 66.5325C345.409 66.6414 345.245 66.7929 345.124 66.987C345.006 67.1788 344.947 67.3978 344.947 67.644V71.0957H344.109ZM350.6 65.6412V66.3514H347.66V65.6412H350.6ZM348.541 71.0957V64.8883C348.541 64.5758 348.614 64.3154 348.761 64.1071C348.908 63.8987 349.098 63.7425 349.333 63.6383C349.567 63.5341 349.814 63.4821 350.075 63.4821C350.281 63.4821 350.449 63.4986 350.579 63.5318C350.709 63.5649 350.806 63.5957 350.87 63.6241L350.629 64.3485C350.586 64.3343 350.527 64.3166 350.451 64.2953C350.378 64.274 350.281 64.2633 350.16 64.2633C349.883 64.2633 349.683 64.3332 349.56 64.4728C349.439 64.6125 349.379 64.8173 349.379 65.0872V71.0957H348.541ZM351.775 71.0957V65.6412H352.613V71.0957H351.775ZM352.201 64.7321C352.038 64.7321 351.897 64.6764 351.778 64.5652C351.662 64.4539 351.604 64.3201 351.604 64.1639C351.604 64.0076 351.662 63.8739 351.778 63.7626C351.897 63.6513 352.038 63.5957 352.201 63.5957C352.364 63.5957 352.504 63.6513 352.62 63.7626C352.738 63.8739 352.798 64.0076 352.798 64.1639C352.798 64.3201 352.738 64.4539 352.62 64.5652C352.504 64.6764 352.364 64.7321 352.201 64.7321ZM354.986 63.823V71.0957H354.148V63.823H354.986Z" fill="#CFD1DE"/>
<path d="M142.437 37.1289H141.426C139.75 37.1289 138.392 38.4872 138.392 40.1628V54.3211C138.392 55.9966 139.75 57.355 141.426 57.355H153.561C155.237 57.355 156.595 55.9966 156.595 54.3211V40.1628C156.595 38.4872 155.237 37.1289 153.561 37.1289H152.55" stroke="#CFD1DE" stroke-width="2.02261"/>
<rect x="142.437" y="35.1074" width="10.113" height="5.05651" rx="2.02261" stroke="#CFD1DE" stroke-width="2.02261"/>
<path d="M124.765 71.0957V63.823H127.223C127.793 63.823 128.26 63.926 128.622 64.1319C128.987 64.3355 129.256 64.6113 129.432 64.9593C129.607 65.3074 129.694 65.6956 129.694 66.1241C129.694 66.5526 129.607 66.9421 129.432 67.2924C129.259 67.6428 128.991 67.9222 128.629 68.1305C128.267 68.3365 127.803 68.4395 127.237 68.4395H125.476V67.6582H127.209C127.599 67.6582 127.913 67.5907 128.15 67.4558C128.386 67.3208 128.558 67.1386 128.665 66.9089C128.773 66.6769 128.828 66.4153 128.828 66.1241C128.828 65.8329 128.773 65.5725 128.665 65.3429C128.558 65.1132 128.385 64.9333 128.146 64.8031C127.907 64.6705 127.59 64.6042 127.194 64.6042H125.646V71.0957H124.765ZM130.999 71.0957V65.6412H131.809V66.465H131.866C131.965 66.1951 132.145 65.9761 132.406 65.8081C132.666 65.64 132.96 65.5559 133.286 65.5559C133.348 65.5559 133.425 65.5571 133.517 65.5595C133.61 65.5618 133.679 65.5654 133.727 65.5701V66.4224C133.698 66.4153 133.633 66.4047 133.531 66.3904C133.432 66.3739 133.327 66.3656 133.215 66.3656C132.95 66.3656 132.713 66.4212 132.505 66.5325C132.299 66.6414 132.136 66.7929 132.015 66.987C131.897 67.1788 131.838 67.3978 131.838 67.644V71.0957H130.999ZM136.77 71.2093C136.278 71.2093 135.846 71.0922 135.474 70.8578C135.105 70.6234 134.816 70.2955 134.607 69.8741C134.401 69.4527 134.298 68.9603 134.298 68.3968C134.298 67.8287 134.401 67.3327 134.607 66.9089C134.816 66.4851 135.105 66.1561 135.474 65.9217C135.846 65.6873 136.278 65.5701 136.77 65.5701C137.262 65.5701 137.693 65.6873 138.063 65.9217C138.434 66.1561 138.723 66.4851 138.929 66.9089C139.137 67.3327 139.242 67.8287 139.242 68.3968C139.242 68.9603 139.137 69.4527 138.929 69.8741C138.723 70.2955 138.434 70.6234 138.063 70.8578C137.693 71.0922 137.262 71.2093 136.77 71.2093ZM136.77 70.4565C137.144 70.4565 137.452 70.3606 137.693 70.1689C137.935 69.9771 138.114 69.725 138.23 69.4125C138.346 69.1 138.404 68.7614 138.404 68.3968C138.404 68.0323 138.346 67.6925 138.23 67.3777C138.114 67.0628 137.935 66.8083 137.693 66.6142C137.452 66.42 137.144 66.323 136.77 66.323C136.396 66.323 136.088 66.42 135.847 66.6142C135.605 66.8083 135.427 67.0628 135.311 67.3777C135.195 67.6925 135.137 68.0323 135.137 68.3968C135.137 68.7614 135.195 69.1 135.311 69.4125C135.427 69.725 135.605 69.9771 135.847 70.1689C136.088 70.3606 136.396 70.4565 136.77 70.4565ZM140.865 73.1412C140.723 73.1412 140.597 73.1293 140.485 73.1056C140.374 73.0843 140.297 73.063 140.255 73.0417L140.468 72.3031C140.671 72.3552 140.851 72.3741 141.007 72.3599C141.164 72.3457 141.302 72.2759 141.423 72.1504C141.546 72.0273 141.658 71.8272 141.76 71.5502L141.917 71.1241L139.9 65.6412H140.809L142.314 69.9877H142.371L143.877 65.6412H144.786L142.471 71.8912C142.366 72.1729 142.237 72.4061 142.083 72.5907C141.93 72.7778 141.751 72.9163 141.547 73.0062C141.346 73.0962 141.119 73.1412 140.865 73.1412ZM147.984 71.2093C147.458 71.2093 147.005 71.0933 146.624 70.8613C146.245 70.627 145.952 70.3002 145.746 69.8812C145.543 69.4598 145.441 68.9698 145.441 68.411C145.441 67.8523 145.543 67.3599 145.746 66.9338C145.952 66.5053 146.239 66.1715 146.606 65.9324C146.975 65.6909 147.406 65.5701 147.898 65.5701C148.183 65.5701 148.463 65.6175 148.74 65.7122C149.017 65.8069 149.269 65.9608 149.496 66.1738C149.724 66.3845 149.905 66.6639 150.04 67.0119C150.175 67.3599 150.242 67.7884 150.242 68.2974V68.6525H146.038V67.9281H149.39C149.39 67.6203 149.328 67.3457 149.205 67.1042C149.085 66.8627 148.912 66.6722 148.687 66.5325C148.464 66.3928 148.201 66.323 147.898 66.323C147.565 66.323 147.276 66.4058 147.032 66.5716C146.79 66.7349 146.605 66.948 146.474 67.2108C146.344 67.4735 146.279 67.7553 146.279 68.0559V68.5389C146.279 68.9508 146.35 69.3 146.492 69.5865C146.637 69.8706 146.837 70.0872 147.092 70.2363C147.348 70.3831 147.645 70.4565 147.984 70.4565C148.204 70.4565 148.403 70.4257 148.58 70.3642C148.76 70.3002 148.915 70.2056 149.045 70.0801C149.176 69.9522 149.276 69.7936 149.347 69.6042L150.157 69.8315C150.072 70.1061 149.929 70.3476 149.727 70.5559C149.526 70.7619 149.277 70.9229 148.982 71.0389C148.686 71.1525 148.353 71.2093 147.984 71.2093ZM153.733 71.2093C153.222 71.2093 152.781 71.0886 152.412 70.8471C152.043 70.6056 151.759 70.273 151.56 69.8493C151.361 69.4255 151.261 68.9413 151.261 68.3968C151.261 67.8429 151.363 67.354 151.567 66.9302C151.773 66.5041 152.059 66.1715 152.426 65.9324C152.795 65.6909 153.226 65.5701 153.719 65.5701C154.102 65.5701 154.448 65.6412 154.756 65.7832C155.063 65.9252 155.316 66.1241 155.512 66.3798C155.709 66.6355 155.83 66.9338 155.878 67.2747H155.04C154.976 67.0261 154.834 66.8059 154.614 66.6142C154.396 66.42 154.102 66.323 153.733 66.323C153.406 66.323 153.12 66.4082 152.874 66.5787C152.63 66.7467 152.439 66.9847 152.302 67.2924C152.167 67.5978 152.099 67.9565 152.099 68.3684C152.099 68.7898 152.166 69.1568 152.298 69.4693C152.433 69.7818 152.623 70.0244 152.866 70.1973C153.113 70.3701 153.402 70.4565 153.733 70.4565C153.951 70.4565 154.148 70.4186 154.326 70.3429C154.504 70.2671 154.654 70.1582 154.777 70.0162C154.9 69.8741 154.988 69.7037 155.04 69.5048H155.878C155.83 69.8268 155.713 70.1168 155.526 70.3748C155.342 70.6305 155.097 70.8341 154.791 70.9856C154.488 71.1348 154.135 71.2093 153.733 71.2093ZM159.475 65.6412V66.3514H156.648V65.6412H159.475ZM157.472 64.3343H158.31V69.5332C158.31 69.7699 158.345 69.9475 158.413 70.0659C158.484 70.1819 158.574 70.26 158.683 70.3002C158.795 70.3381 158.912 70.3571 159.035 70.3571C159.127 70.3571 159.203 70.3523 159.262 70.3429C159.321 70.331 159.369 70.3216 159.404 70.3145L159.575 71.0673C159.518 71.0886 159.438 71.1099 159.337 71.1312C159.235 71.1549 159.106 71.1667 158.95 71.1667C158.713 71.1667 158.481 71.1158 158.254 71.014C158.029 70.9122 157.842 70.7572 157.692 70.5488C157.546 70.3405 157.472 70.0777 157.472 69.7605V64.3343ZM162.893 71.2093C162.401 71.2093 161.969 71.0922 161.597 70.8578C161.228 70.6234 160.939 70.2955 160.73 69.8741C160.525 69.4527 160.422 68.9603 160.422 68.3968C160.422 67.8287 160.525 67.3327 160.73 66.9089C160.939 66.4851 161.228 66.1561 161.597 65.9217C161.969 65.6873 162.401 65.5701 162.893 65.5701C163.386 65.5701 163.816 65.6873 164.186 65.9217C164.557 66.1561 164.846 66.4851 165.052 66.9089C165.261 67.3327 165.365 67.8287 165.365 68.3968C165.365 68.9603 165.261 69.4527 165.052 69.8741C164.846 70.2955 164.557 70.6234 164.186 70.8578C163.816 71.0922 163.386 71.2093 162.893 71.2093ZM162.893 70.4565C163.267 70.4565 163.575 70.3606 163.816 70.1689C164.058 69.9771 164.237 69.725 164.353 69.4125C164.469 69.1 164.527 68.7614 164.527 68.3968C164.527 68.0323 164.469 67.6925 164.353 67.3777C164.237 67.0628 164.058 66.8083 163.816 66.6142C163.575 66.42 163.267 66.323 162.893 66.323C162.519 66.323 162.211 66.42 161.97 66.6142C161.728 66.8083 161.55 67.0628 161.434 67.3777C161.318 67.6925 161.26 68.0323 161.26 68.3968C161.26 68.7614 161.318 69.1 161.434 69.4125C161.55 69.725 161.728 69.9771 161.97 70.1689C162.211 70.3606 162.519 70.4565 162.893 70.4565ZM170.508 66.8627L169.755 67.0758C169.707 66.9503 169.638 66.8284 169.545 66.71C169.455 66.5893 169.332 66.4899 169.176 66.4118C169.02 66.3336 168.82 66.2946 168.576 66.2946C168.242 66.2946 167.964 66.3715 167.741 66.5254C167.521 66.6769 167.411 66.8699 167.411 67.1042C167.411 67.3126 167.487 67.4771 167.638 67.5978C167.79 67.7186 168.027 67.8192 168.349 67.8997L169.158 68.0985C169.646 68.2169 170.009 68.398 170.248 68.6419C170.488 68.8833 170.607 69.1947 170.607 69.5758C170.607 69.8883 170.517 70.1677 170.337 70.4139C170.16 70.6601 169.911 70.8542 169.591 70.9963C169.272 71.1383 168.9 71.2093 168.476 71.2093C167.92 71.2093 167.46 71.0886 167.095 70.8471C166.73 70.6056 166.5 70.2529 166.403 69.7889L167.198 69.59C167.274 69.8836 167.417 70.1038 167.628 70.2505C167.841 70.3973 168.119 70.4707 168.462 70.4707C168.853 70.4707 169.163 70.3878 169.393 70.2221C169.625 70.054 169.741 69.8528 169.741 69.6184C169.741 69.429 169.674 69.2704 169.542 69.1426C169.409 69.0124 169.206 68.9153 168.931 68.8514L168.022 68.6383C167.522 68.5199 167.155 68.3365 166.921 68.0879C166.689 67.8369 166.573 67.5233 166.573 67.1468C166.573 66.8391 166.659 66.5668 166.832 66.3301C167.007 66.0933 167.245 65.9075 167.546 65.7725C167.849 65.6376 168.192 65.5701 168.576 65.5701C169.116 65.5701 169.539 65.6885 169.847 65.9252C170.157 66.162 170.377 66.4745 170.508 66.8627Z" fill="#CFD1DE"/>
<path d="M39.3799 44.0708C39.3799 43.1172 39.8332 42.2205 40.601 41.6551L49.4929 35.1074L58.3848 41.6551C59.1526 42.2205 59.6059 43.1172 59.6059 44.0708V54.8561C59.6059 56.2368 58.4867 57.3561 57.1059 57.3561H53.5268C52.9745 57.3561 52.5268 56.9084 52.5268 56.3561V50.2713C52.5268 49.9952 52.303 49.7713 52.0268 49.7713H46.959C46.6829 49.7713 46.459 49.9952 46.459 50.2713V56.3561C46.459 56.9084 46.0113 57.3561 45.459 57.3561H41.8799C40.4992 57.3561 39.3799 56.2368 39.3799 54.8561V44.0708Z" stroke="#CFD1DE" stroke-width="2.02261" stroke-linecap="round" stroke-linejoin="round"/>
<path d="M36.4334 71.0957V63.823H37.3141V67.0616H41.1919V63.823H42.0726V71.0957H41.1919V67.8429H37.3141V71.0957H36.4334ZM45.938 71.2093C45.4456 71.2093 45.0136 71.0922 44.6419 70.8578C44.2725 70.6234 43.9837 70.2955 43.7754 69.8741C43.5694 69.4527 43.4664 68.9603 43.4664 68.3968C43.4664 67.8287 43.5694 67.3327 43.7754 66.9089C43.9837 66.4851 44.2725 66.1561 44.6419 65.9217C45.0136 65.6873 45.4456 65.5701 45.938 65.5701C46.4305 65.5701 46.8613 65.6873 47.2306 65.9217C47.6023 66.1561 47.8912 66.4851 48.0971 66.9089C48.3055 67.3327 48.4096 67.8287 48.4096 68.3968C48.4096 68.9603 48.3055 69.4527 48.0971 69.8741C47.8912 70.2955 47.6023 70.6234 47.2306 70.8578C46.8613 71.0922 46.4305 71.2093 45.938 71.2093ZM45.938 70.4565C46.3121 70.4565 46.6199 70.3606 46.8613 70.1689C47.1028 69.9771 47.2815 69.725 47.3975 69.4125C47.5136 69.1 47.5716 68.7614 47.5716 68.3968C47.5716 68.0323 47.5136 67.6925 47.3975 67.3777C47.2815 67.0628 47.1028 66.8083 46.8613 66.6142C46.6199 66.42 46.3121 66.323 45.938 66.323C45.564 66.323 45.2562 66.42 45.0147 66.6142C44.7733 66.8083 44.5945 67.0628 44.4785 67.3777C44.3625 67.6925 44.3045 68.0323 44.3045 68.3968C44.3045 68.7614 44.3625 69.1 44.4785 69.4125C44.5945 69.725 44.7733 69.9771 45.0147 70.1689C45.2562 70.3606 45.564 70.4565 45.938 70.4565ZM49.6889 71.0957V65.6412H50.4986V66.4934H50.5696C50.6832 66.2022 50.8667 65.9761 51.12 65.8152C51.3733 65.6518 51.6776 65.5701 52.0327 65.5701C52.3925 65.5701 52.692 65.6518 52.9311 65.8152C53.1726 65.9761 53.3608 66.2022 53.4957 66.4934H53.5526C53.6922 66.2117 53.9018 65.988 54.1811 65.8223C54.4605 65.6542 54.7955 65.5701 55.1861 65.5701C55.6738 65.5701 56.0727 65.7228 56.3828 66.0282C56.6929 66.3313 56.848 66.8036 56.848 67.4451V71.0957H56.0099V67.4451C56.0099 67.0427 55.8999 66.755 55.6797 66.5822C55.4595 66.4094 55.2003 66.323 54.902 66.323C54.5185 66.323 54.2214 66.439 54.0107 66.671C53.8 66.9006 53.6946 67.1918 53.6946 67.5446V71.0957H52.8423V67.3599C52.8423 67.0498 52.7417 66.8 52.5405 66.6106C52.3393 66.4189 52.08 66.323 51.7628 66.323C51.545 66.323 51.3414 66.381 51.152 66.497C50.965 66.613 50.8134 66.774 50.6974 66.9799C50.5838 67.1835 50.527 67.4191 50.527 67.6866V71.0957H49.6889ZM60.6673 71.2093C60.1417 71.2093 59.6883 71.0933 59.3072 70.8613C58.9284 70.627 58.636 70.3002 58.43 69.8812C58.2264 69.4598 58.1246 68.9698 58.1246 68.411C58.1246 67.8523 58.2264 67.3599 58.43 66.9338C58.636 66.5053 58.9225 66.1715 59.2894 65.9324C59.6587 65.6909 60.0896 65.5701 60.582 65.5701C60.8661 65.5701 61.1467 65.6175 61.4237 65.7122C61.7006 65.8069 61.9528 65.9608 62.18 66.1738C62.4073 66.3845 62.5884 66.6639 62.7234 67.0119C62.8583 67.3599 62.9258 67.7884 62.9258 68.2974V68.6525H58.7212V67.9281H62.0735C62.0735 67.6203 62.012 67.3457 61.8888 67.1042C61.7681 66.8627 61.5953 66.6722 61.3704 66.5325C61.1478 66.3928 60.8851 66.323 60.582 66.323C60.2482 66.323 59.9594 66.4058 59.7156 66.5716C59.4741 66.7349 59.2882 66.948 59.158 67.2108C59.0278 67.4735 58.9627 67.7553 58.9627 68.0559V68.5389C58.9627 68.9508 59.0337 69.3 59.1758 69.5865C59.3202 69.8706 59.5202 70.0872 59.7759 70.2363C60.0316 70.3831 60.3287 70.4565 60.6673 70.4565C60.8874 70.4565 61.0863 70.4257 61.2638 70.3642C61.4438 70.3002 61.5988 70.2056 61.729 70.0801C61.8593 69.9522 61.9599 69.7936 62.0309 69.6042L62.8406 69.8315C62.7553 70.1061 62.6121 70.3476 62.4109 70.5559C62.2096 70.7619 61.9611 70.9229 61.6651 71.0389C61.3692 71.1525 61.0366 71.2093 60.6673 71.2093Z" fill="#CFD1DE"/>
<path d="M227.277 71.0957V63.823H229.82C230.326 63.823 230.744 63.9106 231.073 64.0858C231.402 64.2586 231.647 64.4918 231.808 64.7853C231.969 65.0765 232.05 65.3997 232.05 65.7548C232.05 66.0673 231.994 66.3253 231.883 66.5289C231.774 66.7325 231.63 66.8935 231.45 67.0119C231.272 67.1303 231.079 67.2179 230.871 67.2747V67.3457C231.093 67.3599 231.317 67.438 231.542 67.5801C231.767 67.7221 231.955 67.9257 232.107 68.1909C232.258 68.456 232.334 68.7804 232.334 69.1639C232.334 69.5285 232.251 69.8564 232.085 70.1475C231.92 70.4387 231.658 70.6696 231.301 70.84C230.943 71.0105 230.478 71.0957 229.905 71.0957H227.277ZM228.158 70.3145H229.905C230.48 70.3145 230.889 70.2032 231.13 69.9806C231.374 69.7557 231.496 69.4835 231.496 69.1639C231.496 68.9177 231.433 68.6904 231.308 68.4821C231.182 68.2714 231.003 68.1033 230.771 67.9778C230.539 67.85 230.265 67.786 229.948 67.786H228.158V70.3145ZM228.158 67.019H229.791C230.057 67.019 230.296 66.9669 230.509 66.8627C230.724 66.7586 230.895 66.6118 231.02 66.4224C231.148 66.233 231.212 66.0105 231.212 65.7548C231.212 65.4352 231.101 65.1641 230.878 64.9416C230.655 64.7167 230.303 64.6042 229.82 64.6042H228.158V67.019ZM233.667 71.0957V65.6412H234.506V71.0957H233.667ZM234.094 64.7321C233.93 64.7321 233.789 64.6764 233.671 64.5652C233.555 64.4539 233.497 64.3201 233.497 64.1639C233.497 64.0076 233.555 63.8739 233.671 63.7626C233.789 63.6513 233.93 63.5957 234.094 63.5957C234.257 63.5957 234.397 63.6513 234.513 63.7626C234.631 63.8739 234.69 64.0076 234.69 64.1639C234.69 64.3201 234.631 64.4539 234.513 64.5652C234.397 64.6764 234.257 64.7321 234.094 64.7321ZM236.879 63.823V71.0957H236.04V63.823H236.879ZM239.252 63.823V71.0957H238.414V63.823H239.252ZM243.074 71.2093C242.548 71.2093 242.095 71.0933 241.713 70.8613C241.335 70.627 241.042 70.3002 240.836 69.8812C240.633 69.4598 240.531 68.9698 240.531 68.411C240.531 67.8523 240.633 67.3599 240.836 66.9338C241.042 66.5053 241.329 66.1715 241.696 65.9324C242.065 65.6909 242.496 65.5701 242.988 65.5701C243.272 65.5701 243.553 65.6175 243.83 65.7122C244.107 65.8069 244.359 65.9608 244.586 66.1738C244.814 66.3845 244.995 66.6639 245.13 67.0119C245.265 67.3599 245.332 67.7884 245.332 68.2974V68.6525H241.127V67.9281H244.48C244.48 67.6203 244.418 67.3457 244.295 67.1042C244.174 66.8627 244.002 66.6722 243.777 66.5325C243.554 66.3928 243.291 66.323 242.988 66.323C242.654 66.323 242.366 66.4058 242.122 66.5716C241.88 66.7349 241.694 66.948 241.564 67.2108C241.434 67.4735 241.369 67.7553 241.369 68.0559V68.5389C241.369 68.9508 241.44 69.3 241.582 69.5865C241.726 69.8706 241.926 70.0872 242.182 70.2363C242.438 70.3831 242.735 70.4565 243.074 70.4565C243.294 70.4565 243.493 70.4257 243.67 70.3642C243.85 70.3002 244.005 70.2056 244.135 70.0801C244.266 69.9522 244.366 69.7936 244.437 69.6042L245.247 69.8315C245.162 70.1061 245.018 70.3476 244.817 70.5559C244.616 70.7619 244.367 70.9229 244.071 71.0389C243.775 71.1525 243.443 71.2093 243.074 71.2093ZM248.979 65.6412V66.3514H246.152V65.6412H248.979ZM246.976 64.3343H247.814V69.5332C247.814 69.7699 247.849 69.9475 247.917 70.0659C247.988 70.1819 248.078 70.26 248.187 70.3002C248.298 70.3381 248.416 70.3571 248.539 70.3571C248.631 70.3571 248.707 70.3523 248.766 70.3429C248.825 70.331 248.873 70.3216 248.908 70.3145L249.078 71.0673C249.022 71.0886 248.942 71.1099 248.841 71.1312C248.739 71.1549 248.61 71.1667 248.453 71.1667C248.217 71.1667 247.985 71.1158 247.757 71.014C247.533 70.9122 247.346 70.7572 247.196 70.5488C247.05 70.3405 246.976 70.0777 246.976 69.7605V64.3343ZM252.468 71.2093C251.942 71.2093 251.489 71.0933 251.108 70.8613C250.729 70.627 250.437 70.3002 250.231 69.8812C250.027 69.4598 249.925 68.9698 249.925 68.411C249.925 67.8523 250.027 67.3599 250.231 66.9338C250.437 66.5053 250.723 66.1715 251.09 65.9324C251.46 65.6909 251.89 65.5701 252.383 65.5701C252.667 65.5701 252.947 65.6175 253.224 65.7122C253.501 65.8069 253.754 65.9608 253.981 66.1738C254.208 66.3845 254.389 66.6639 254.524 67.0119C254.659 67.3599 254.727 67.7884 254.727 68.2974V68.6525H250.522V67.9281H253.874C253.874 67.6203 253.813 67.3457 253.69 67.1042C253.569 66.8627 253.396 66.6722 253.171 66.5325C252.949 66.3928 252.686 66.323 252.383 66.323C252.049 66.323 251.76 66.4058 251.516 66.5716C251.275 66.7349 251.089 66.948 250.959 67.2108C250.829 67.4735 250.763 67.7553 250.763 68.0559V68.5389C250.763 68.9508 250.835 69.3 250.977 69.5865C251.121 69.8706 251.321 70.0872 251.577 70.2363C251.832 70.3831 252.129 70.4565 252.468 70.4565C252.688 70.4565 252.887 70.4257 253.065 70.3642C253.245 70.3002 253.4 70.2056 253.53 70.0801C253.66 69.9522 253.761 69.7936 253.832 69.6042L254.641 69.8315C254.556 70.1061 254.413 70.3476 254.212 70.5559C254.01 70.7619 253.762 70.9229 253.466 71.0389C253.17 71.1525 252.837 71.2093 252.468 71.2093ZM256.001 71.0957V65.6412H256.811V66.465H256.868C256.967 66.1951 257.147 65.9761 257.408 65.8081C257.668 65.64 257.962 65.5559 258.288 65.5559C258.35 65.5559 258.427 65.5571 258.519 65.5595C258.612 65.5618 258.681 65.5654 258.729 65.5701V66.4224C258.7 66.4153 258.635 66.4047 258.533 66.3904C258.434 66.3739 258.329 66.3656 258.217 66.3656C257.952 66.3656 257.715 66.4212 257.507 66.5325C257.301 66.6414 257.138 66.7929 257.017 66.987C256.899 67.1788 256.839 67.3978 256.839 67.644V71.0957H256.001ZM261.327 71.2235C260.982 71.2235 260.668 71.1584 260.386 71.0282C260.104 70.8957 259.881 70.7051 259.715 70.4565C259.549 70.2056 259.466 69.9025 259.466 69.5474C259.466 69.2349 259.528 68.9816 259.651 68.7875C259.774 68.591 259.939 68.4371 260.145 68.3258C260.351 68.2145 260.578 68.1317 260.827 68.0772C261.077 68.0204 261.33 67.9754 261.583 67.9423C261.914 67.8997 262.183 67.8677 262.389 67.8464C262.597 67.8227 262.749 67.7837 262.844 67.7292C262.941 67.6748 262.989 67.5801 262.989 67.4451V67.4167C262.989 67.0663 262.893 66.7941 262.702 66.6C262.512 66.4058 262.224 66.3088 261.839 66.3088C261.439 66.3088 261.125 66.3964 260.898 66.5716C260.67 66.7467 260.51 66.9338 260.418 67.1326L259.623 66.8485C259.765 66.5171 259.954 66.2591 260.191 66.0744C260.43 65.8874 260.69 65.7572 260.972 65.6838C261.256 65.608 261.536 65.5701 261.81 65.5701C261.985 65.5701 262.187 65.5914 262.414 65.6341C262.644 65.6743 262.865 65.7583 263.078 65.8862C263.293 66.014 263.472 66.207 263.614 66.465C263.756 66.7231 263.827 67.0687 263.827 67.502V71.0957H262.989V70.3571H262.947C262.89 70.4754 262.795 70.6021 262.662 70.737C262.53 70.872 262.354 70.9868 262.133 71.0815C261.913 71.1762 261.644 71.2235 261.327 71.2235ZM261.455 70.4707C261.787 70.4707 262.066 70.4056 262.293 70.2754C262.523 70.1452 262.696 69.9771 262.812 69.7711C262.93 69.5652 262.989 69.3485 262.989 69.1213V68.3542C262.954 68.3968 262.876 68.4359 262.755 68.4714C262.636 68.5046 262.499 68.5341 262.343 68.5602C262.189 68.5839 262.039 68.6052 261.892 68.6241C261.747 68.6407 261.63 68.6549 261.54 68.6667C261.323 68.6951 261.119 68.7413 260.93 68.8052C260.742 68.8668 260.591 68.9603 260.475 69.0858C260.361 69.2089 260.305 69.377 260.305 69.59C260.305 69.8812 260.412 70.1014 260.628 70.2505C260.845 70.3973 261.121 70.4707 261.455 70.4707Z" fill="#389BEC"/>
<path d="M254.589 38.1506C255.147 38.1506 255.599 37.6984 255.599 37.1406C255.599 36.5828 255.147 36.1306 254.589 36.1306V38.1506ZM235.896 39.0716C235.896 38.5138 235.443 38.0616 234.886 38.0616C234.328 38.0616 233.876 38.5138 233.876 39.0716H235.896ZM237.431 38.1506H254.589V36.1306H237.431V38.1506ZM253.555 56.3567H237.431V58.3767H253.555V56.3567ZM235.411 54.3367V40.1706H233.391V54.3367H235.411ZM236.905 42.1013H253.555V40.0813H236.905V42.1013ZM255.575 44.1213V54.3367H257.595V44.1213H255.575ZM236.905 40.0813C236.348 40.0813 235.896 39.6292 235.896 39.0716H233.876C233.876 40.7449 235.232 42.1013 236.905 42.1013V40.0813ZM237.431 56.3567C236.316 56.3567 235.411 55.4523 235.411 54.3367H233.391C233.391 56.5679 235.2 58.3767 237.431 58.3767V56.3567ZM253.555 58.3767C255.786 58.3767 257.595 56.5679 257.595 54.3367H255.575C255.575 55.4523 254.67 56.3567 253.555 56.3567V58.3767ZM253.555 42.1013C254.67 42.1013 255.575 43.0057 255.575 44.1213H257.595C257.595 41.8901 255.786 40.0813 253.555 40.0813V42.1013ZM237.431 36.1306C235.2 36.1306 233.391 37.9394 233.391 40.1706H235.411C235.411 39.055 236.316 38.1506 237.431 38.1506V36.1306Z" fill="#87C9FF"/>
<rect width="70" height="2" transform="matrix(1 0 0 -1 210.493 21.0957)" fill="#55B3FF"/>
</g>
<defs>
<filter id="filter0_d_1714_37623" x="-12.6426" y="0.0957031" width="416" height="101" filterUnits="userSpaceOnUse" color-interpolation-filters="sRGB">
<feFlood flood-opacity="0" result="BackgroundImageFix"/>
<feColorMatrix in="SourceAlpha" type="matrix" values="0 0 0 0 0 0 0 0 0 0 0 0 0 0 0 0 0 0 127 0" result="hardAlpha"/>
<feOffset dy="-6"/>
<feGaussianBlur stdDeviation="6.5"/>
<feComposite in2="hardAlpha" operator="out"/>
<feColorMatrix type="matrix" values="0 0 0 0 0 0 0 0 0 0 0 0 0 0 0 0 0 0 0.04 0"/>
<feBlend mode="normal" in2="BackgroundImageFix" result="effect1_dropShadow_1714_37623"/>
<feBlend mode="normal" in="SourceGraphic" in2="effect1_dropShadow_1714_37623" result="shape"/>
</filter>
</defs>
</svg>
