<svg width="390" height="95" viewBox="0 0 390 95" fill="none" xmlns="http://www.w3.org/2000/svg">
<g filter="url(#filter0_d_1592_21931)">
<path d="M1.10742 19.6973H391.107V94.6973H1.10742V19.6973Z" fill="white"/>
<path d="M336.141 56.4393L336.312 55.3392C336.521 53.9984 337.396 52.8499 338.692 52.4484C340.302 51.9498 342.693 51.3828 345.243 51.3828C347.793 51.3828 350.184 51.9498 351.794 52.4484C353.09 52.8499 353.965 53.9984 354.173 55.3392L354.345 56.4393" stroke="#CFD1DE" stroke-width="2.02261" stroke-linecap="round" stroke-linejoin="round"/>
<path d="M345.243 46.8337C348.036 46.8337 350.3 44.5699 350.3 41.7772C350.3 38.9846 348.036 36.7207 345.243 36.7207C342.45 36.7207 340.187 38.9846 340.187 41.7772C340.187 44.5699 342.45 46.8337 345.243 46.8337Z" stroke="#CFD1DE" stroke-width="2.02261" stroke-linecap="round" stroke-linejoin="round"/>
<path d="M332.863 71.6973V64.4245H335.32C335.891 64.4245 336.357 64.5275 336.72 64.7335C337.084 64.9371 337.354 65.2129 337.529 65.5609C337.704 65.9089 337.792 66.2972 337.792 66.7257C337.792 67.1542 337.704 67.5436 337.529 67.894C337.356 68.2444 337.089 68.5237 336.727 68.7321C336.365 68.938 335.901 69.041 335.335 69.041H333.573V68.2598H335.306C335.697 68.2598 336.011 68.1923 336.247 68.0574C336.484 67.9224 336.656 67.7401 336.762 67.5105C336.871 67.2785 336.926 67.0169 336.926 66.7257C336.926 66.4345 336.871 66.1741 336.762 65.9444C336.656 65.7148 336.483 65.5349 336.244 65.4047C336.005 65.2721 335.687 65.2058 335.292 65.2058H333.744V71.6973H332.863ZM341.325 71.8109C340.8 71.8109 340.347 71.6949 339.965 71.4629C339.587 71.2285 339.294 70.9018 339.088 70.4828C338.885 70.0614 338.783 69.5713 338.783 69.0126C338.783 68.4539 338.885 67.9615 339.088 67.5353C339.294 67.1068 339.581 66.773 339.948 66.5339C340.317 66.2924 340.748 66.1717 341.24 66.1717C341.524 66.1717 341.805 66.219 342.082 66.3137C342.359 66.4084 342.611 66.5623 342.838 66.7754C343.066 66.9861 343.247 67.2654 343.382 67.6135C343.517 67.9615 343.584 68.39 343.584 68.899V69.2541H339.379V68.5297H342.732C342.732 68.2219 342.67 67.9473 342.547 67.7058C342.426 67.4643 342.253 67.2737 342.029 67.1341C341.806 66.9944 341.543 66.9245 341.24 66.9245C340.906 66.9245 340.618 67.0074 340.374 67.1731C340.132 67.3365 339.946 67.5495 339.816 67.8123C339.686 68.0751 339.621 68.3568 339.621 68.6575V69.1404C339.621 69.5524 339.692 69.9016 339.834 70.188C339.978 70.4721 340.178 70.6887 340.434 70.8379C340.69 70.9847 340.987 71.0581 341.325 71.0581C341.546 71.0581 341.744 71.0273 341.922 70.9657C342.102 70.9018 342.257 70.8071 342.387 70.6816C342.517 70.5538 342.618 70.3952 342.689 70.2058L343.499 70.4331C343.414 70.7077 343.27 70.9492 343.069 71.1575C342.868 71.3635 342.619 71.5244 342.323 71.6404C342.027 71.7541 341.695 71.8109 341.325 71.8109ZM344.859 71.6973V66.2427H345.669V67.0666H345.725C345.825 66.7967 346.005 66.5777 346.265 66.4096C346.526 66.2415 346.819 66.1575 347.146 66.1575C347.207 66.1575 347.284 66.1587 347.377 66.161C347.469 66.1634 347.539 66.167 347.586 66.1717V67.024C347.558 67.0169 347.493 67.0062 347.391 66.992C347.291 66.9754 347.186 66.9672 347.075 66.9672C346.81 66.9672 346.573 67.0228 346.365 67.1341C346.159 67.243 345.995 67.3945 345.874 67.5886C345.756 67.7804 345.697 67.9993 345.697 68.2456V71.6973H344.859ZM351.35 66.2427V66.9529H348.41V66.2427H351.35ZM349.291 71.6973V65.4899C349.291 65.1774 349.364 64.917 349.511 64.7086C349.658 64.5003 349.848 64.344 350.083 64.2399C350.317 64.1357 350.564 64.0836 350.825 64.0836C351.031 64.0836 351.199 64.1002 351.329 64.1333C351.459 64.1665 351.556 64.1973 351.62 64.2257L351.379 64.9501C351.336 64.9359 351.277 64.9181 351.201 64.8968C351.128 64.8755 351.031 64.8649 350.91 64.8649C350.633 64.8649 350.433 64.9347 350.31 65.0744C350.189 65.2141 350.129 65.4189 350.129 65.6887V71.6973H349.291ZM352.525 71.6973V66.2427H353.363V71.6973H352.525ZM352.951 65.3336C352.788 65.3336 352.647 65.278 352.528 65.1667C352.412 65.0555 352.354 64.9217 352.354 64.7654C352.354 64.6092 352.412 64.4754 352.528 64.3642C352.647 64.2529 352.788 64.1973 352.951 64.1973C353.114 64.1973 353.254 64.2529 353.37 64.3642C353.488 64.4754 353.548 64.6092 353.548 64.7654C353.548 64.9217 353.488 65.0555 353.37 65.1667C353.254 65.278 353.114 65.3336 352.951 65.3336ZM355.736 64.4245V71.6973H354.898V64.4245H355.736Z" fill="#CFD1DE"/>
<path d="M143.186 37.7305H142.175C140.499 37.7305 139.141 39.0888 139.141 40.7644V54.9226C139.141 56.5982 140.499 57.9565 142.175 57.9565H154.311C155.986 57.9565 157.345 56.5982 157.345 54.9226V40.7644C157.345 39.0888 155.986 37.7305 154.311 37.7305H153.299" stroke="#87C9FF" stroke-width="2.02261"/>
<rect x="143.187" y="35.709" width="10.113" height="5.05651" rx="2.02261" stroke="#87C9FF" stroke-width="2.02261"/>
<path d="M125.515 71.6973V64.4245H127.973C128.543 64.4245 129.01 64.5275 129.372 64.7335C129.737 64.9371 130.006 65.2129 130.182 65.5609C130.357 65.9089 130.444 66.2972 130.444 66.7257C130.444 67.1542 130.357 67.5436 130.182 67.894C130.009 68.2444 129.741 68.5237 129.379 68.7321C129.017 68.938 128.553 69.041 127.987 69.041H126.226V68.2598H127.959C128.349 68.2598 128.663 68.1923 128.9 68.0574C129.136 67.9224 129.308 67.7401 129.415 67.5105C129.523 67.2785 129.578 67.0169 129.578 66.7257C129.578 66.4345 129.523 66.1741 129.415 65.9444C129.308 65.7148 129.135 65.5349 128.896 65.4047C128.657 65.2721 128.34 65.2058 127.944 65.2058H126.396V71.6973H125.515ZM131.749 71.6973V66.2427H132.559V67.0666H132.616C132.715 66.7967 132.895 66.5777 133.156 66.4096C133.416 66.2415 133.71 66.1575 134.036 66.1575C134.098 66.1575 134.175 66.1587 134.267 66.161C134.36 66.1634 134.429 66.167 134.477 66.1717V67.024C134.448 67.0169 134.383 67.0062 134.281 66.992C134.182 66.9754 134.077 66.9672 133.965 66.9672C133.7 66.9672 133.463 67.0228 133.255 67.1341C133.049 67.243 132.886 67.3945 132.765 67.5886C132.647 67.7804 132.588 67.9993 132.588 68.2456V71.6973H131.749ZM137.52 71.8109C137.028 71.8109 136.596 71.6937 136.224 71.4593C135.855 71.225 135.566 70.8971 135.357 70.4757C135.151 70.0543 135.048 69.5618 135.048 68.9984C135.048 68.4302 135.151 67.9342 135.357 67.5105C135.566 67.0867 135.855 66.7576 136.224 66.5233C136.596 66.2889 137.028 66.1717 137.52 66.1717C138.012 66.1717 138.443 66.2889 138.813 66.5233C139.184 66.7576 139.473 67.0867 139.679 67.5105C139.887 67.9342 139.992 68.4302 139.992 68.9984C139.992 69.5618 139.887 70.0543 139.679 70.4757C139.473 70.8971 139.184 71.225 138.813 71.4593C138.443 71.6937 138.012 71.8109 137.52 71.8109ZM137.52 71.0581C137.894 71.0581 138.202 70.9622 138.443 70.7704C138.685 70.5787 138.864 70.3265 138.98 70.014C139.096 69.7015 139.154 69.363 139.154 68.9984C139.154 68.6338 139.096 68.2941 138.98 67.9792C138.864 67.6644 138.685 67.4099 138.443 67.2157C138.202 67.0216 137.894 66.9245 137.52 66.9245C137.146 66.9245 136.838 67.0216 136.597 67.2157C136.355 67.4099 136.177 67.6644 136.061 67.9792C135.945 68.2941 135.887 68.6338 135.887 68.9984C135.887 69.363 135.945 69.7015 136.061 70.014C136.177 70.3265 136.355 70.5787 136.597 70.7704C136.838 70.9622 137.146 71.0581 137.52 71.0581ZM141.615 73.7427C141.473 73.7427 141.347 73.7309 141.235 73.7072C141.124 73.6859 141.047 73.6646 141.005 73.6433L141.218 72.9047C141.421 72.9567 141.601 72.9757 141.757 72.9615C141.914 72.9473 142.052 72.8774 142.173 72.752C142.296 72.6288 142.408 72.4288 142.51 72.1518L142.667 71.7257L140.65 66.2427H141.559L143.064 70.5893H143.121L144.627 66.2427H145.536L143.221 72.4927C143.116 72.7744 142.987 73.0076 142.833 73.1923C142.68 73.3793 142.501 73.5178 142.297 73.6078C142.096 73.6977 141.869 73.7427 141.615 73.7427ZM148.734 71.8109C148.208 71.8109 147.755 71.6949 147.374 71.4629C146.995 71.2285 146.702 70.9018 146.496 70.4828C146.293 70.0614 146.191 69.5713 146.191 69.0126C146.191 68.4539 146.293 67.9615 146.496 67.5353C146.702 67.1068 146.989 66.773 147.356 66.5339C147.725 66.2924 148.156 66.1717 148.648 66.1717C148.933 66.1717 149.213 66.219 149.49 66.3137C149.767 66.4084 150.019 66.5623 150.246 66.7754C150.474 66.9861 150.655 67.2654 150.79 67.6135C150.925 67.9615 150.992 68.39 150.992 68.899V69.2541H146.788V68.5297H150.14C150.14 68.2219 150.078 67.9473 149.955 67.7058C149.835 67.4643 149.662 67.2737 149.437 67.1341C149.214 66.9944 148.951 66.9245 148.648 66.9245C148.315 66.9245 148.026 67.0074 147.782 67.1731C147.54 67.3365 147.355 67.5495 147.224 67.8123C147.094 68.0751 147.029 68.3568 147.029 68.6575V69.1404C147.029 69.5524 147.1 69.9016 147.242 70.188C147.387 70.4721 147.587 70.6887 147.842 70.8379C148.098 70.9847 148.395 71.0581 148.734 71.0581C148.954 71.0581 149.153 71.0273 149.33 70.9657C149.51 70.9018 149.665 70.8071 149.795 70.6816C149.926 70.5538 150.026 70.3952 150.097 70.2058L150.907 70.4331C150.822 70.7077 150.679 70.9492 150.477 71.1575C150.276 71.3635 150.027 71.5244 149.732 71.6404C149.436 71.7541 149.103 71.8109 148.734 71.8109ZM154.483 71.8109C153.972 71.8109 153.531 71.6902 153.162 71.4487C152.793 71.2072 152.509 70.8746 152.31 70.4508C152.111 70.027 152.011 69.5429 152.011 68.9984C152.011 68.4444 152.113 67.9556 152.317 67.5318C152.523 67.1056 152.809 66.773 153.176 66.5339C153.545 66.2924 153.976 66.1717 154.469 66.1717C154.852 66.1717 155.198 66.2427 155.506 66.3848C155.813 66.5268 156.066 66.7257 156.262 66.9814C156.459 67.237 156.58 67.5353 156.628 67.8762H155.79C155.726 67.6277 155.584 67.4075 155.364 67.2157C155.146 67.0216 154.852 66.9245 154.483 66.9245C154.156 66.9245 153.87 67.0098 153.624 67.1802C153.38 67.3483 153.189 67.5862 153.052 67.894C152.917 68.1994 152.849 68.5581 152.849 68.97C152.849 69.3914 152.916 69.7583 153.048 70.0708C153.183 70.3833 153.373 70.626 153.616 70.7988C153.863 70.9717 154.152 71.0581 154.483 71.0581C154.701 71.0581 154.898 71.0202 155.076 70.9444C155.254 70.8687 155.404 70.7598 155.527 70.6177C155.65 70.4757 155.738 70.3052 155.79 70.1064H156.628C156.58 70.4283 156.463 70.7183 156.276 70.9764C156.092 71.2321 155.847 71.4357 155.541 71.5872C155.238 71.7363 154.885 71.8109 154.483 71.8109ZM160.225 66.2427V66.9529H157.398V66.2427H160.225ZM158.222 64.9359H159.06V70.1348C159.06 70.3715 159.095 70.5491 159.163 70.6674C159.234 70.7834 159.324 70.8616 159.433 70.9018C159.545 70.9397 159.662 70.9586 159.785 70.9586C159.877 70.9586 159.953 70.9539 160.012 70.9444C160.071 70.9326 160.119 70.9231 160.154 70.916L160.325 71.6689C160.268 71.6902 160.188 71.7115 160.087 71.7328C159.985 71.7565 159.856 71.7683 159.7 71.7683C159.463 71.7683 159.231 71.7174 159.004 71.6156C158.779 71.5138 158.592 71.3587 158.442 71.1504C158.296 70.9421 158.222 70.6793 158.222 70.362V64.9359ZM163.643 71.8109C163.151 71.8109 162.719 71.6937 162.347 71.4593C161.978 71.225 161.689 70.8971 161.48 70.4757C161.275 70.0543 161.172 69.5618 161.172 68.9984C161.172 68.4302 161.275 67.9342 161.48 67.5105C161.689 67.0867 161.978 66.7576 162.347 66.5233C162.719 66.2889 163.151 66.1717 163.643 66.1717C164.136 66.1717 164.566 66.2889 164.936 66.5233C165.307 66.7576 165.596 67.0867 165.802 67.5105C166.011 67.9342 166.115 68.4302 166.115 68.9984C166.115 69.5618 166.011 70.0543 165.802 70.4757C165.596 70.8971 165.307 71.225 164.936 71.4593C164.566 71.6937 164.136 71.8109 163.643 71.8109ZM163.643 71.0581C164.017 71.0581 164.325 70.9622 164.566 70.7704C164.808 70.5787 164.987 70.3265 165.103 70.014C165.219 69.7015 165.277 69.363 165.277 68.9984C165.277 68.6338 165.219 68.2941 165.103 67.9792C164.987 67.6644 164.808 67.4099 164.566 67.2157C164.325 67.0216 164.017 66.9245 163.643 66.9245C163.269 66.9245 162.961 67.0216 162.72 67.2157C162.478 67.4099 162.3 67.6644 162.184 67.9792C162.068 68.2941 162.01 68.6338 162.01 68.9984C162.01 69.363 162.068 69.7015 162.184 70.014C162.3 70.3265 162.478 70.5787 162.72 70.7704C162.961 70.9622 163.269 71.0581 163.643 71.0581ZM171.258 67.4643L170.505 67.6774C170.457 67.5519 170.388 67.43 170.295 67.3116C170.205 67.1909 170.082 67.0914 169.926 67.0133C169.77 66.9352 169.57 66.8961 169.326 66.8961C168.992 66.8961 168.714 66.9731 168.491 67.127C168.271 67.2785 168.161 67.4714 168.161 67.7058C168.161 67.9141 168.237 68.0787 168.388 68.1994C168.54 68.3201 168.777 68.4208 169.099 68.5012L169.908 68.7001C170.396 68.8185 170.759 68.9996 170.998 69.2434C171.238 69.4849 171.357 69.7962 171.357 70.1774C171.357 70.4899 171.267 70.7692 171.087 71.0154C170.91 71.2617 170.661 71.4558 170.341 71.5978C170.022 71.7399 169.65 71.8109 169.226 71.8109C168.67 71.8109 168.21 71.6902 167.845 71.4487C167.48 71.2072 167.25 70.8545 167.153 70.3904L167.948 70.1916C168.024 70.4851 168.167 70.7053 168.378 70.8521C168.591 70.9989 168.869 71.0723 169.212 71.0723C169.603 71.0723 169.913 70.9894 170.143 70.8237C170.375 70.6556 170.491 70.4544 170.491 70.22C170.491 70.0306 170.424 69.872 170.292 69.7441C170.159 69.6139 169.956 69.5169 169.681 69.4529L168.772 69.2399C168.272 69.1215 167.905 68.938 167.671 68.6895C167.439 68.4385 167.323 68.1248 167.323 67.7484C167.323 67.4406 167.409 67.1684 167.582 66.9316C167.757 66.6949 167.995 66.5091 168.296 66.3741C168.599 66.2392 168.942 66.1717 169.326 66.1717C169.866 66.1717 170.289 66.2901 170.597 66.5268C170.907 66.7636 171.127 67.0761 171.258 67.4643Z" fill="#389BEC"/>
<path d="M40.1299 44.6724C40.1299 43.7188 40.5832 42.822 41.351 42.2566L50.2429 35.709L59.1348 42.2566C59.9026 42.822 60.3559 43.7188 60.3559 44.6724V55.4576C60.3559 56.8384 59.2367 57.9576 57.8559 57.9576H54.2768C53.7245 57.9576 53.2768 57.5099 53.2768 56.9576V50.8729C53.2768 50.5967 53.053 50.3729 52.7768 50.3729H47.709C47.4329 50.3729 47.209 50.5967 47.209 50.8729V56.9576C47.209 57.5099 46.7613 57.9576 46.209 57.9576H42.6299C41.2492 57.9576 40.1299 56.8384 40.1299 55.4576V44.6724Z" stroke="#CFD1DE" stroke-width="2.02261" stroke-linecap="round" stroke-linejoin="round"/>
<path d="M37.1834 71.6973V64.4245H38.0641V67.6632H41.9419V64.4245H42.8226V71.6973H41.9419V68.4444H38.0641V71.6973H37.1834ZM46.688 71.8109C46.1956 71.8109 45.7636 71.6937 45.3919 71.4593C45.0225 71.225 44.7337 70.8971 44.5254 70.4757C44.3194 70.0543 44.2164 69.5618 44.2164 68.9984C44.2164 68.4302 44.3194 67.9342 44.5254 67.5105C44.7337 67.0867 45.0225 66.7576 45.3919 66.5233C45.7636 66.2889 46.1956 66.1717 46.688 66.1717C47.1805 66.1717 47.6113 66.2889 47.9806 66.5233C48.3523 66.7576 48.6412 67.0867 48.8471 67.5105C49.0555 67.9342 49.1596 68.4302 49.1596 68.9984C49.1596 69.5618 49.0555 70.0543 48.8471 70.4757C48.6412 70.8971 48.3523 71.225 47.9806 71.4593C47.6113 71.6937 47.1805 71.8109 46.688 71.8109ZM46.688 71.0581C47.0621 71.0581 47.3699 70.9622 47.6113 70.7704C47.8528 70.5787 48.0315 70.3265 48.1475 70.014C48.2636 69.7015 48.3216 69.363 48.3216 68.9984C48.3216 68.6338 48.2636 68.2941 48.1475 67.9792C48.0315 67.6644 47.8528 67.4099 47.6113 67.2157C47.3699 67.0216 47.0621 66.9245 46.688 66.9245C46.314 66.9245 46.0062 67.0216 45.7647 67.2157C45.5233 67.4099 45.3445 67.6644 45.2285 67.9792C45.1125 68.2941 45.0545 68.6338 45.0545 68.9984C45.0545 69.363 45.1125 69.7015 45.2285 70.014C45.3445 70.3265 45.5233 70.5787 45.7647 70.7704C46.0062 70.9622 46.314 71.0581 46.688 71.0581ZM50.4389 71.6973V66.2427H51.2486V67.095H51.3196C51.4332 66.8038 51.6167 66.5777 51.87 66.4167C52.1233 66.2534 52.4276 66.1717 52.7827 66.1717C53.1425 66.1717 53.442 66.2534 53.6811 66.4167C53.9226 66.5777 54.1108 66.8038 54.2457 67.095H54.3026C54.4422 66.8133 54.6518 66.5895 54.9311 66.4238C55.2105 66.2557 55.5455 66.1717 55.9361 66.1717C56.4238 66.1717 56.8227 66.3244 57.1328 66.6298C57.4429 66.9328 57.598 67.4051 57.598 68.0467V71.6973H56.7599V68.0467C56.7599 67.6442 56.6499 67.3566 56.4297 67.1838C56.2095 67.0109 55.9503 66.9245 55.652 66.9245C55.2685 66.9245 54.9714 67.0405 54.7607 67.2725C54.55 67.5022 54.4446 67.7934 54.4446 68.1461V71.6973H53.5923V67.9615C53.5923 67.6513 53.4917 67.4016 53.2905 67.2122C53.0893 67.0204 52.83 66.9245 52.5128 66.9245C52.295 66.9245 52.0914 66.9825 51.902 67.0985C51.715 67.2145 51.5634 67.3755 51.4474 67.5815C51.3338 67.7851 51.277 68.0207 51.277 68.2882V71.6973H50.4389ZM61.4173 71.8109C60.8917 71.8109 60.4383 71.6949 60.0572 71.4629C59.6784 71.2285 59.386 70.9018 59.18 70.4828C58.9764 70.0614 58.8746 69.5713 58.8746 69.0126C58.8746 68.4539 58.9764 67.9615 59.18 67.5353C59.386 67.1068 59.6725 66.773 60.0394 66.5339C60.4087 66.2924 60.8396 66.1717 61.332 66.1717C61.6161 66.1717 61.8967 66.219 62.1737 66.3137C62.4506 66.4084 62.7028 66.5623 62.93 66.7754C63.1573 66.9861 63.3384 67.2654 63.4734 67.6135C63.6083 67.9615 63.6758 68.39 63.6758 68.899V69.2541H59.4712V68.5297H62.8235C62.8235 68.2219 62.762 67.9473 62.6388 67.7058C62.5181 67.4643 62.3453 67.2737 62.1204 67.1341C61.8978 66.9944 61.6351 66.9245 61.332 66.9245C60.9982 66.9245 60.7094 67.0074 60.4656 67.1731C60.2241 67.3365 60.0382 67.5495 59.908 67.8123C59.7778 68.0751 59.7127 68.3568 59.7127 68.6575V69.1404C59.7127 69.5524 59.7837 69.9016 59.9258 70.188C60.0702 70.4721 60.2702 70.6887 60.5259 70.8379C60.7816 70.9847 61.0787 71.0581 61.4173 71.0581C61.6374 71.0581 61.8363 71.0273 62.0138 70.9657C62.1938 70.9018 62.3488 70.8071 62.479 70.6816C62.6093 70.5538 62.7099 70.3952 62.7809 70.2058L63.5906 70.4331C63.5053 70.7077 63.3621 70.9492 63.1609 71.1575C62.9596 71.3635 62.7111 71.5244 62.4151 71.6404C62.1192 71.7541 61.7866 71.8109 61.4173 71.8109Z" fill="#CFD1DE"/>
<path d="M228.027 71.6973V64.4245H230.57C231.076 64.4245 231.494 64.5121 231.823 64.6873C232.152 64.8601 232.397 65.0933 232.558 65.3869C232.719 65.6781 232.8 66.0012 232.8 66.3564C232.8 66.6689 232.744 66.9269 232.633 67.1305C232.524 67.3341 232.38 67.4951 232.2 67.6135C232.022 67.7318 231.829 67.8194 231.621 67.8762V67.9473C231.843 67.9615 232.067 68.0396 232.292 68.1816C232.517 68.3237 232.705 68.5273 232.857 68.7924C233.008 69.0576 233.084 69.3819 233.084 69.7654C233.084 70.13 233.001 70.4579 232.835 70.7491C232.67 71.0403 232.408 71.2711 232.051 71.4416C231.693 71.612 231.228 71.6973 230.655 71.6973H228.027ZM228.908 70.916H230.655C231.23 70.916 231.639 70.8047 231.88 70.5822C232.124 70.3573 232.246 70.085 232.246 69.7654C232.246 69.5192 232.183 69.292 232.058 69.0836C231.932 68.8729 231.753 68.7048 231.521 68.5794C231.289 68.4515 231.015 68.3876 230.698 68.3876H228.908V70.916ZM228.908 67.6206H230.541C230.807 67.6206 231.046 67.5685 231.259 67.4643C231.474 67.3601 231.645 67.2134 231.77 67.024C231.898 66.8346 231.962 66.612 231.962 66.3564C231.962 66.0368 231.851 65.7657 231.628 65.5431C231.405 65.3182 231.053 65.2058 230.57 65.2058H228.908V67.6206ZM234.417 71.6973V66.2427H235.256V71.6973H234.417ZM234.844 65.3336C234.68 65.3336 234.539 65.278 234.421 65.1667C234.305 65.0555 234.247 64.9217 234.247 64.7654C234.247 64.6092 234.305 64.4754 234.421 64.3642C234.539 64.2529 234.68 64.1973 234.844 64.1973C235.007 64.1973 235.147 64.2529 235.263 64.3642C235.381 64.4754 235.44 64.6092 235.44 64.7654C235.44 64.9217 235.381 65.0555 235.263 65.1667C235.147 65.278 235.007 65.3336 234.844 65.3336ZM237.629 64.4245V71.6973H236.79V64.4245H237.629ZM240.002 64.4245V71.6973H239.164V64.4245H240.002ZM243.824 71.8109C243.298 71.8109 242.845 71.6949 242.463 71.4629C242.085 71.2285 241.792 70.9018 241.586 70.4828C241.383 70.0614 241.281 69.5713 241.281 69.0126C241.281 68.4539 241.383 67.9615 241.586 67.5353C241.792 67.1068 242.079 66.773 242.446 66.5339C242.815 66.2924 243.246 66.1717 243.738 66.1717C244.022 66.1717 244.303 66.219 244.58 66.3137C244.857 66.4084 245.109 66.5623 245.336 66.7754C245.564 66.9861 245.745 67.2654 245.88 67.6135C246.015 67.9615 246.082 68.39 246.082 68.899V69.2541H241.877V68.5297H245.23C245.23 68.2219 245.168 67.9473 245.045 67.7058C244.924 67.4643 244.752 67.2737 244.527 67.1341C244.304 66.9944 244.041 66.9245 243.738 66.9245C243.404 66.9245 243.116 67.0074 242.872 67.1731C242.63 67.3365 242.444 67.5495 242.314 67.8123C242.184 68.0751 242.119 68.3568 242.119 68.6575V69.1404C242.119 69.5524 242.19 69.9016 242.332 70.188C242.476 70.4721 242.676 70.6887 242.932 70.8379C243.188 70.9847 243.485 71.0581 243.824 71.0581C244.044 71.0581 244.243 71.0273 244.42 70.9657C244.6 70.9018 244.755 70.8071 244.885 70.6816C245.016 70.5538 245.116 70.3952 245.187 70.2058L245.997 70.4331C245.912 70.7077 245.768 70.9492 245.567 71.1575C245.366 71.3635 245.117 71.5244 244.821 71.6404C244.525 71.7541 244.193 71.8109 243.824 71.8109ZM249.729 66.2427V66.9529H246.902V66.2427H249.729ZM247.726 64.9359H248.564V70.1348C248.564 70.3715 248.599 70.5491 248.667 70.6674C248.738 70.7834 248.828 70.8616 248.937 70.9018C249.048 70.9397 249.166 70.9586 249.289 70.9586C249.381 70.9586 249.457 70.9539 249.516 70.9444C249.575 70.9326 249.623 70.9231 249.658 70.916L249.828 71.6689C249.772 71.6902 249.692 71.7115 249.591 71.7328C249.489 71.7565 249.36 71.7683 249.203 71.7683C248.967 71.7683 248.735 71.7174 248.507 71.6156C248.283 71.5138 248.096 71.3587 247.946 71.1504C247.8 70.9421 247.726 70.6793 247.726 70.362V64.9359ZM253.218 71.8109C252.692 71.8109 252.239 71.6949 251.858 71.4629C251.479 71.2285 251.187 70.9018 250.981 70.4828C250.777 70.0614 250.675 69.5713 250.675 69.0126C250.675 68.4539 250.777 67.9615 250.981 67.5353C251.187 67.1068 251.473 66.773 251.84 66.5339C252.21 66.2924 252.64 66.1717 253.133 66.1717C253.417 66.1717 253.697 66.219 253.974 66.3137C254.251 66.4084 254.504 66.5623 254.731 66.7754C254.958 66.9861 255.139 67.2654 255.274 67.6135C255.409 67.9615 255.477 68.39 255.477 68.899V69.2541H251.272V68.5297H254.624C254.624 68.2219 254.563 67.9473 254.44 67.7058C254.319 67.4643 254.146 67.2737 253.921 67.1341C253.699 66.9944 253.436 66.9245 253.133 66.9245C252.799 66.9245 252.51 67.0074 252.266 67.1731C252.025 67.3365 251.839 67.5495 251.709 67.8123C251.579 68.0751 251.513 68.3568 251.513 68.6575V69.1404C251.513 69.5524 251.585 69.9016 251.727 70.188C251.871 70.4721 252.071 70.6887 252.327 70.8379C252.582 70.9847 252.879 71.0581 253.218 71.0581C253.438 71.0581 253.637 71.0273 253.815 70.9657C253.995 70.9018 254.15 70.8071 254.28 70.6816C254.41 70.5538 254.511 70.3952 254.582 70.2058L255.391 70.4331C255.306 70.7077 255.163 70.9492 254.962 71.1575C254.76 71.3635 254.512 71.5244 254.216 71.6404C253.92 71.7541 253.587 71.8109 253.218 71.8109ZM256.751 71.6973V66.2427H257.561V67.0666H257.618C257.717 66.7967 257.897 66.5777 258.158 66.4096C258.418 66.2415 258.712 66.1575 259.038 66.1575C259.1 66.1575 259.177 66.1587 259.269 66.161C259.362 66.1634 259.431 66.167 259.479 66.1717V67.024C259.45 67.0169 259.385 67.0062 259.283 66.992C259.184 66.9754 259.079 66.9672 258.967 66.9672C258.702 66.9672 258.465 67.0228 258.257 67.1341C258.051 67.243 257.888 67.3945 257.767 67.5886C257.649 67.7804 257.589 67.9993 257.589 68.2456V71.6973H256.751ZM262.077 71.8251C261.732 71.8251 261.418 71.76 261.136 71.6298C260.854 71.4972 260.631 71.3066 260.465 71.0581C260.299 70.8071 260.216 70.5041 260.216 70.149C260.216 69.8365 260.278 69.5832 260.401 69.389C260.524 69.1925 260.689 69.0386 260.895 68.9274C261.101 68.8161 261.328 68.7333 261.577 68.6788C261.827 68.622 262.08 68.577 262.333 68.5439C262.664 68.5012 262.933 68.4693 263.139 68.448C263.347 68.4243 263.499 68.3852 263.594 68.3308C263.691 68.2763 263.739 68.1816 263.739 68.0467V68.0183C263.739 67.6679 263.643 67.3957 263.452 67.2015C263.262 67.0074 262.974 66.9103 262.589 66.9103C262.189 66.9103 261.875 66.9979 261.648 67.1731C261.42 67.3483 261.26 67.5353 261.168 67.7342L260.373 67.4501C260.515 67.1187 260.704 66.8606 260.941 66.676C261.18 66.4889 261.44 66.3587 261.722 66.2853C262.006 66.2096 262.286 66.1717 262.56 66.1717C262.735 66.1717 262.937 66.193 263.164 66.2356C263.394 66.2759 263.615 66.3599 263.828 66.4877C264.043 66.6156 264.222 66.8085 264.364 67.0666C264.506 67.3246 264.577 67.6703 264.577 68.1035V71.6973H263.739V70.9586H263.697C263.64 71.077 263.545 71.2037 263.412 71.3386C263.28 71.4735 263.104 71.5884 262.883 71.6831C262.663 71.7778 262.394 71.8251 262.077 71.8251ZM262.205 71.0723C262.537 71.0723 262.816 71.0072 263.043 70.877C263.273 70.7467 263.446 70.5787 263.562 70.3727C263.68 70.1667 263.739 69.9501 263.739 69.7228V68.9558C263.704 68.9984 263.626 69.0375 263.505 69.073C263.386 69.1061 263.249 69.1357 263.093 69.1618C262.939 69.1854 262.789 69.2067 262.642 69.2257C262.497 69.2422 262.38 69.2565 262.29 69.2683C262.073 69.2967 261.869 69.3429 261.68 69.4068C261.492 69.4683 261.341 69.5618 261.225 69.6873C261.111 69.8104 261.055 69.9785 261.055 70.1916C261.055 70.4828 261.162 70.7029 261.378 70.8521C261.595 70.9989 261.871 71.0723 262.205 71.0723Z" fill="#CFD1DE"/>
<path d="M255.339 37.7422L238.181 37.7422C236.508 37.7422 235.151 39.0988 235.151 40.7722V54.9382C235.151 56.6117 236.508 57.9682 238.181 57.9682H254.305C255.978 57.9682 257.335 56.6117 257.335 54.9382V44.7229C257.335 43.0495 255.978 41.6929 254.305 41.6929H237.655C236.54 41.6929 235.636 40.7886 235.636 39.6731V39.6731" stroke="#CFD1DE" stroke-width="2.02" stroke-linecap="round" stroke-linejoin="round"/>
<rect width="70" height="2" transform="matrix(1 0 0 -1 113.243 21.6973)" fill="#55B3FF"/>
</g>
<defs>
<filter id="filter0_d_1592_21931" x="-11.8926" y="0.697266" width="416" height="101" filterUnits="userSpaceOnUse" color-interpolation-filters="sRGB">
<feFlood flood-opacity="0" result="BackgroundImageFix"/>
<feColorMatrix in="SourceAlpha" type="matrix" values="0 0 0 0 0 0 0 0 0 0 0 0 0 0 0 0 0 0 127 0" result="hardAlpha"/>
<feOffset dy="-6"/>
<feGaussianBlur stdDeviation="6.5"/>
<feComposite in2="hardAlpha" operator="out"/>
<feColorMatrix type="matrix" values="0 0 0 0 0 0 0 0 0 0 0 0 0 0 0 0 0 0 0.04 0"/>
<feBlend mode="normal" in2="BackgroundImageFix" result="effect1_dropShadow_1592_21931"/>
<feBlend mode="normal" in="SourceGraphic" in2="effect1_dropShadow_1592_21931" result="shape"/>
</filter>
</defs>
</svg>
