<svg width="391" height="94" viewBox="0 0 391 94" fill="none" xmlns="http://www.w3.org/2000/svg">
<g filter="url(#filter0_d_1714_40613)">
<path d="M0.424805 19H390.425V94H0.424805V19Z" fill="white"/>
<path d="M335.459 55.7421L335.63 54.642C335.839 53.3011 336.713 52.1526 338.01 51.7511C339.619 51.2525 342.011 50.6855 344.561 50.6855C347.111 50.6855 349.502 51.2525 351.112 51.7511C352.408 52.1526 353.283 53.3011 353.491 54.642L353.662 55.7421" stroke="#CFD1DE" stroke-width="2.02261" stroke-linecap="round" stroke-linejoin="round"/>
<path d="M344.56 46.1365C347.353 46.1365 349.617 43.8726 349.617 41.08C349.617 38.2873 347.353 36.0234 344.56 36.0234C341.768 36.0234 339.504 38.2873 339.504 41.08C339.504 43.8726 341.768 46.1365 344.56 46.1365Z" stroke="#CFD1DE" stroke-width="2.02261" stroke-linecap="round" stroke-linejoin="round"/>
<path d="M332.18 71V63.7273H334.638C335.208 63.7273 335.675 63.8303 336.037 64.0362C336.402 64.2398 336.671 64.5156 336.847 64.8636C337.022 65.2116 337.109 65.5999 337.109 66.0284C337.109 66.4569 337.022 66.8464 336.847 67.1967C336.674 67.5471 336.406 67.8265 336.044 68.0348C335.682 68.2408 335.218 68.3438 334.652 68.3438H332.891V67.5625H334.624C335.014 67.5625 335.328 67.495 335.565 67.3601C335.801 67.2251 335.973 67.0429 336.08 66.8132C336.189 66.5812 336.243 66.3196 336.243 66.0284C336.243 65.7372 336.189 65.4768 336.08 65.2472C335.973 65.0175 335.8 64.8376 335.561 64.7074C335.322 64.5748 335.005 64.5085 334.609 64.5085H333.061V71H332.18ZM340.643 71.1136C340.117 71.1136 339.664 70.9976 339.283 70.7656C338.904 70.5312 338.612 70.2045 338.406 69.7855C338.202 69.3641 338.1 68.8741 338.1 68.3153C338.1 67.7566 338.202 67.2642 338.406 66.8381C338.612 66.4096 338.898 66.0758 339.265 65.8366C339.634 65.5952 340.065 65.4744 340.558 65.4744C340.842 65.4744 341.122 65.5218 341.399 65.6165C341.676 65.7112 341.928 65.8651 342.156 66.0781C342.383 66.2888 342.564 66.5682 342.699 66.9162C342.834 67.2642 342.901 67.6927 342.901 68.2017V68.5568H338.697V67.8324H342.049C342.049 67.5246 341.988 67.25 341.864 67.0085C341.744 66.767 341.571 66.5765 341.346 66.4368C341.123 66.2971 340.861 66.2273 340.558 66.2273C340.224 66.2273 339.935 66.3101 339.691 66.4759C339.45 66.6392 339.264 66.8523 339.134 67.1151C339.003 67.3778 338.938 67.6596 338.938 67.9602V68.4432C338.938 68.8551 339.009 69.2043 339.151 69.4908C339.296 69.7749 339.496 69.9915 339.752 70.1406C340.007 70.2874 340.304 70.3608 340.643 70.3608C340.863 70.3608 341.062 70.33 341.239 70.2685C341.419 70.2045 341.574 70.1098 341.705 69.9844C341.835 69.8565 341.935 69.6979 342.006 69.5085L342.816 69.7358C342.731 70.0104 342.588 70.2519 342.386 70.4602C342.185 70.6662 341.937 70.8272 341.641 70.9432C341.345 71.0568 341.012 71.1136 340.643 71.1136ZM344.176 71V65.5455H344.986V66.3693H345.043C345.142 66.0994 345.322 65.8804 345.582 65.7124C345.843 65.5443 346.136 65.4602 346.463 65.4602C346.525 65.4602 346.602 65.4614 346.694 65.4638C346.786 65.4661 346.856 65.4697 346.903 65.4744V66.3267C346.875 66.3196 346.81 66.3089 346.708 66.2947C346.609 66.2782 346.503 66.2699 346.392 66.2699C346.127 66.2699 345.89 66.3255 345.682 66.4368C345.476 66.5457 345.313 66.6972 345.192 66.8913C345.073 67.0831 345.014 67.3021 345.014 67.5483V71H344.176ZM350.668 65.5455V66.2557H347.727V65.5455H350.668ZM348.608 71V64.7926C348.608 64.4801 348.681 64.2197 348.828 64.0114C348.975 63.803 349.166 63.6468 349.4 63.5426C349.634 63.4384 349.882 63.3864 350.142 63.3864C350.348 63.3864 350.516 63.4029 350.646 63.4361C350.777 63.4692 350.874 63.5 350.938 63.5284L350.696 64.2528C350.653 64.2386 350.594 64.2209 350.519 64.1996C350.445 64.1783 350.348 64.1676 350.227 64.1676C349.95 64.1676 349.75 64.2375 349.627 64.3771C349.506 64.5168 349.446 64.7216 349.446 64.9915V71H348.608ZM351.842 71V65.5455H352.68V71H351.842ZM352.268 64.6364C352.105 64.6364 351.964 64.5807 351.846 64.4695C351.73 64.3582 351.672 64.2244 351.672 64.0682C351.672 63.9119 351.73 63.7782 351.846 63.6669C351.964 63.5556 352.105 63.5 352.268 63.5C352.432 63.5 352.571 63.5556 352.687 63.6669C352.806 63.7782 352.865 63.9119 352.865 64.0682C352.865 64.2244 352.806 64.3582 352.687 64.4695C352.571 64.5807 352.432 64.6364 352.268 64.6364ZM355.053 63.7273V71H354.215V63.7273H355.053Z" fill="#CFD1DE"/>
<path d="M142.504 37.0332H141.493C139.817 37.0332 138.459 38.3915 138.459 40.0671V54.2254C138.459 55.9009 139.817 57.2593 141.493 57.2593H153.629C155.304 57.2593 156.662 55.9009 156.662 54.2254V40.0671C156.662 38.3915 155.304 37.0332 153.629 37.0332H152.617" stroke="#CFD1DE" stroke-width="2.02261"/>
<rect x="142.504" y="35.0117" width="10.113" height="5.05651" rx="2.02261" stroke="#CFD1DE" stroke-width="2.02261"/>
<path d="M124.833 71V63.7273H127.29C127.861 63.7273 128.327 63.8303 128.689 64.0362C129.054 64.2398 129.324 64.5156 129.499 64.8636C129.674 65.2116 129.762 65.5999 129.762 66.0284C129.762 66.4569 129.674 66.8464 129.499 67.1967C129.326 67.5471 129.059 67.8265 128.696 68.0348C128.334 68.2408 127.87 68.3438 127.304 68.3438H125.543V67.5625H127.276C127.667 67.5625 127.98 67.495 128.217 67.3601C128.454 67.2251 128.625 67.0429 128.732 66.8132C128.841 66.5812 128.895 66.3196 128.895 66.0284C128.895 65.7372 128.841 65.4768 128.732 65.2472C128.625 65.0175 128.453 64.8376 128.214 64.7074C127.974 64.5748 127.657 64.5085 127.262 64.5085H125.714V71H124.833ZM131.067 71V65.5455H131.877V66.3693H131.933C132.033 66.0994 132.213 65.8804 132.473 65.7124C132.734 65.5443 133.027 65.4602 133.354 65.4602C133.415 65.4602 133.492 65.4614 133.585 65.4638C133.677 65.4661 133.747 65.4697 133.794 65.4744V66.3267C133.766 66.3196 133.701 66.3089 133.599 66.2947C133.499 66.2782 133.394 66.2699 133.283 66.2699C133.018 66.2699 132.781 66.3255 132.573 66.4368C132.367 66.5457 132.203 66.6972 132.082 66.8913C131.964 67.0831 131.905 67.3021 131.905 67.5483V71H131.067ZM136.837 71.1136C136.345 71.1136 135.913 70.9964 135.541 70.7621C135.172 70.5277 134.883 70.1998 134.675 69.7784C134.469 69.357 134.366 68.8646 134.366 68.3011C134.366 67.733 134.469 67.237 134.675 66.8132C134.883 66.3894 135.172 66.0604 135.541 65.826C135.913 65.5916 136.345 65.4744 136.837 65.4744C137.33 65.4744 137.761 65.5916 138.13 65.826C138.502 66.0604 138.791 66.3894 138.997 66.8132C139.205 67.237 139.309 67.733 139.309 68.3011C139.309 68.8646 139.205 69.357 138.997 69.7784C138.791 70.1998 138.502 70.5277 138.13 70.7621C137.761 70.9964 137.33 71.1136 136.837 71.1136ZM136.837 70.3608C137.211 70.3608 137.519 70.2649 137.761 70.0732C138.002 69.8814 138.181 69.6293 138.297 69.3168C138.413 69.0043 138.471 68.6657 138.471 68.3011C138.471 67.9366 138.413 67.5968 138.297 67.282C138.181 66.9671 138.002 66.7126 137.761 66.5185C137.519 66.3243 137.211 66.2273 136.837 66.2273C136.463 66.2273 136.156 66.3243 135.914 66.5185C135.673 66.7126 135.494 66.9671 135.378 67.282C135.262 67.5968 135.204 67.9366 135.204 68.3011C135.204 68.6657 135.262 69.0043 135.378 69.3168C135.494 69.6293 135.673 69.8814 135.914 70.0732C136.156 70.2649 136.463 70.3608 136.837 70.3608ZM140.933 73.0455C140.791 73.0455 140.664 73.0336 140.553 73.0099C140.442 72.9886 140.365 72.9673 140.322 72.946L140.535 72.2074C140.739 72.2595 140.919 72.2784 141.075 72.2642C141.231 72.25 141.37 72.1802 141.49 72.0547C141.613 71.9316 141.726 71.7315 141.828 71.4545L141.984 71.0284L139.967 65.5455H140.876L142.382 69.892H142.438L143.944 65.5455H144.853L142.538 71.7955C142.434 72.0772 142.305 72.3104 142.151 72.495C141.997 72.6821 141.818 72.8205 141.615 72.9105C141.413 73.0005 141.186 73.0455 140.933 73.0455ZM148.051 71.1136C147.525 71.1136 147.072 70.9976 146.691 70.7656C146.312 70.5312 146.02 70.2045 145.814 69.7855C145.61 69.3641 145.508 68.8741 145.508 68.3153C145.508 67.7566 145.61 67.2642 145.814 66.8381C146.02 66.4096 146.306 66.0758 146.673 65.8366C147.043 65.5952 147.473 65.4744 147.966 65.4744C148.25 65.4744 148.53 65.5218 148.807 65.6165C149.084 65.7112 149.337 65.8651 149.564 66.0781C149.791 66.2888 149.972 66.5682 150.107 66.9162C150.242 67.2642 150.31 67.6927 150.31 68.2017V68.5568H146.105V67.8324H149.457C149.457 67.5246 149.396 67.25 149.273 67.0085C149.152 66.767 148.979 66.5765 148.754 66.4368C148.532 66.2971 148.269 66.2273 147.966 66.2273C147.632 66.2273 147.343 66.3101 147.099 66.4759C146.858 66.6392 146.672 66.8523 146.542 67.1151C146.412 67.3778 146.347 67.6596 146.347 67.9602V68.4432C146.347 68.8551 146.418 69.2043 146.56 69.4908C146.704 69.7749 146.904 69.9915 147.16 70.1406C147.415 70.2874 147.713 70.3608 148.051 70.3608C148.271 70.3608 148.47 70.33 148.648 70.2685C148.828 70.2045 148.983 70.1098 149.113 69.9844C149.243 69.8565 149.344 69.6979 149.415 69.5085L150.224 69.7358C150.139 70.0104 149.996 70.2519 149.795 70.4602C149.593 70.6662 149.345 70.8272 149.049 70.9432C148.753 71.0568 148.42 71.1136 148.051 71.1136ZM153.8 71.1136C153.289 71.1136 152.849 70.9929 152.479 70.7514C152.11 70.5099 151.826 70.1773 151.627 69.7536C151.428 69.3298 151.329 68.8456 151.329 68.3011C151.329 67.7472 151.431 67.2583 151.634 66.8345C151.84 66.4084 152.127 66.0758 152.494 65.8366C152.863 65.5952 153.294 65.4744 153.786 65.4744C154.17 65.4744 154.515 65.5455 154.823 65.6875C155.131 65.8295 155.383 66.0284 155.579 66.2841C155.776 66.5398 155.898 66.8381 155.945 67.179H155.107C155.043 66.9304 154.901 66.7102 154.681 66.5185C154.463 66.3243 154.17 66.2273 153.8 66.2273C153.474 66.2273 153.187 66.3125 152.941 66.483C152.697 66.651 152.507 66.889 152.369 67.1967C152.234 67.5021 152.167 67.8608 152.167 68.2727C152.167 68.6941 152.233 69.0611 152.366 69.3736C152.501 69.6861 152.69 69.9287 152.934 70.1016C153.18 70.2744 153.469 70.3608 153.8 70.3608C154.018 70.3608 154.216 70.3229 154.393 70.2472C154.571 70.1714 154.721 70.0625 154.844 69.9205C154.967 69.7784 155.055 69.608 155.107 69.4091H155.945C155.898 69.7311 155.781 70.0211 155.594 70.2791C155.409 70.5348 155.164 70.7384 154.859 70.8899C154.556 71.0391 154.203 71.1136 153.8 71.1136ZM159.543 65.5455V66.2557H156.716V65.5455H159.543ZM157.54 64.2386H158.378V69.4375C158.378 69.6742 158.412 69.8518 158.481 69.9702C158.552 70.0862 158.642 70.1643 158.751 70.2045C158.862 70.2424 158.979 70.2614 159.102 70.2614C159.195 70.2614 159.27 70.2566 159.329 70.2472C159.389 70.2353 159.436 70.2259 159.472 70.2188L159.642 70.9716C159.585 70.9929 159.506 71.0142 159.404 71.0355C159.302 71.0592 159.173 71.071 159.017 71.071C158.78 71.071 158.548 71.0201 158.321 70.9183C158.096 70.8165 157.909 70.6615 157.76 70.4531C157.613 70.2448 157.54 69.982 157.54 69.6648V64.2386ZM162.96 71.1136C162.468 71.1136 162.036 70.9964 161.664 70.7621C161.295 70.5277 161.006 70.1998 160.798 69.7784C160.592 69.357 160.489 68.8646 160.489 68.3011C160.489 67.733 160.592 67.237 160.798 66.8132C161.006 66.3894 161.295 66.0604 161.664 65.826C162.036 65.5916 162.468 65.4744 162.96 65.4744C163.453 65.4744 163.884 65.5916 164.253 65.826C164.625 66.0604 164.914 66.3894 165.12 66.8132C165.328 67.237 165.432 67.733 165.432 68.3011C165.432 68.8646 165.328 69.357 165.12 69.7784C164.914 70.1998 164.625 70.5277 164.253 70.7621C163.884 70.9964 163.453 71.1136 162.96 71.1136ZM162.96 70.3608C163.335 70.3608 163.642 70.2649 163.884 70.0732C164.125 69.8814 164.304 69.6293 164.42 69.3168C164.536 69.0043 164.594 68.6657 164.594 68.3011C164.594 67.9366 164.536 67.5968 164.42 67.282C164.304 66.9671 164.125 66.7126 163.884 66.5185C163.642 66.3243 163.335 66.2273 162.96 66.2273C162.586 66.2273 162.279 66.3243 162.037 66.5185C161.796 66.7126 161.617 66.9671 161.501 67.282C161.385 67.5968 161.327 67.9366 161.327 68.3011C161.327 68.6657 161.385 69.0043 161.501 69.3168C161.617 69.6293 161.796 69.8814 162.037 70.0732C162.279 70.2649 162.586 70.3608 162.96 70.3608ZM170.575 66.767L169.822 66.9801C169.775 66.8546 169.705 66.7327 169.613 66.6143C169.523 66.4936 169.4 66.3942 169.243 66.3161C169.087 66.2379 168.887 66.1989 168.643 66.1989C168.309 66.1989 168.031 66.2758 167.809 66.4297C167.589 66.5812 167.478 66.7741 167.478 67.0085C167.478 67.2169 167.554 67.3814 167.706 67.5021C167.857 67.6229 168.094 67.7235 168.416 67.804L169.226 68.0028C169.713 68.1212 170.077 68.3023 170.316 68.5462C170.555 68.7876 170.674 69.099 170.674 69.4801C170.674 69.7926 170.584 70.072 170.405 70.3182C170.227 70.5644 169.978 70.7585 169.659 70.9006C169.339 71.0426 168.968 71.1136 168.544 71.1136C167.987 71.1136 167.527 70.9929 167.162 70.7514C166.798 70.5099 166.567 70.1572 166.47 69.6932L167.265 69.4943C167.341 69.7879 167.484 70.008 167.695 70.1548C167.908 70.3016 168.186 70.375 168.53 70.375C168.92 70.375 169.23 70.2921 169.46 70.1264C169.692 69.9583 169.808 69.7571 169.808 69.5227C169.808 69.3333 169.742 69.1747 169.609 69.0469C169.477 68.9167 169.273 68.8196 168.998 68.7557L168.089 68.5426C167.59 68.4242 167.223 68.2408 166.988 67.9922C166.756 67.7412 166.64 67.4276 166.64 67.0511C166.64 66.7434 166.727 66.4711 166.9 66.2344C167.075 65.9976 167.313 65.8118 167.613 65.6768C167.916 65.5419 168.26 65.4744 168.643 65.4744C169.183 65.4744 169.607 65.5928 169.915 65.8295C170.225 66.0663 170.445 66.3788 170.575 66.767Z" fill="#CFD1DE"/>
<path d="M39.4473 43.9751C39.4473 43.0215 39.9006 42.1248 40.6684 41.5594L49.5603 35.0117L58.4522 41.5594C59.22 42.1248 59.6733 43.0215 59.6733 43.9751V54.7604C59.6733 56.1411 58.554 57.2604 57.1733 57.2604H53.5942C53.0419 57.2604 52.5942 56.8127 52.5942 56.2604V50.1756C52.5942 49.8995 52.3703 49.6756 52.0942 49.6756H47.0264C46.7502 49.6756 46.5264 49.8995 46.5264 50.1756V56.2604C46.5264 56.8127 46.0787 57.2604 45.5264 57.2604H41.9473C40.5666 57.2604 39.4473 56.1411 39.4473 54.7604V43.9751Z" stroke="#CFD1DE" stroke-width="2.02261" stroke-linecap="round" stroke-linejoin="round"/>
<path d="M36.5008 71V63.7273H37.3815V66.9659H41.2593V63.7273H42.14V71H41.2593V67.7472H37.3815V71H36.5008ZM46.0054 71.1136C45.513 71.1136 45.0809 70.9964 44.7093 70.7621C44.3399 70.5277 44.0511 70.1998 43.8428 69.7784C43.6368 69.357 43.5338 68.8646 43.5338 68.3011C43.5338 67.733 43.6368 67.237 43.8428 66.8132C44.0511 66.3894 44.3399 66.0604 44.7093 65.826C45.0809 65.5916 45.513 65.4744 46.0054 65.4744C46.4978 65.4744 46.9287 65.5916 47.298 65.826C47.6697 66.0604 47.9585 66.3894 48.1645 66.8132C48.3728 67.237 48.477 67.733 48.477 68.3011C48.477 68.8646 48.3728 69.357 48.1645 69.7784C47.9585 70.1998 47.6697 70.5277 47.298 70.7621C46.9287 70.9964 46.4978 71.1136 46.0054 71.1136ZM46.0054 70.3608C46.3795 70.3608 46.6872 70.2649 46.9287 70.0732C47.1702 69.8814 47.3489 69.6293 47.4649 69.3168C47.5809 69.0043 47.6389 68.6657 47.6389 68.3011C47.6389 67.9366 47.5809 67.5968 47.4649 67.282C47.3489 66.9671 47.1702 66.7126 46.9287 66.5185C46.6872 66.3243 46.3795 66.2273 46.0054 66.2273C45.6314 66.2273 45.3236 66.3243 45.0821 66.5185C44.8406 66.7126 44.6619 66.9671 44.5459 67.282C44.4299 67.5968 44.3719 67.9366 44.3719 68.3011C44.3719 68.6657 44.4299 69.0043 44.5459 69.3168C44.6619 69.6293 44.8406 69.8814 45.0821 70.0732C45.3236 70.2649 45.6314 70.3608 46.0054 70.3608ZM49.7563 71V65.5455H50.566V66.3977H50.637C50.7506 66.1065 50.9341 65.8804 51.1874 65.7195C51.4407 65.5561 51.7449 65.4744 52.1001 65.4744C52.4599 65.4744 52.7594 65.5561 52.9985 65.7195C53.24 65.8804 53.4282 66.1065 53.5631 66.3977H53.6199C53.7596 66.116 53.9691 65.8923 54.2485 65.7266C54.5278 65.5585 54.8628 65.4744 55.2535 65.4744C55.7412 65.4744 56.1401 65.6271 56.4502 65.9325C56.7603 66.2356 56.9154 66.7079 56.9154 67.3494V71H56.0773V67.3494C56.0773 66.947 55.9672 66.6593 55.7471 66.4865C55.5269 66.3137 55.2677 66.2273 54.9694 66.2273C54.5858 66.2273 54.2887 66.3433 54.078 66.5753C53.8673 66.8049 53.762 67.0961 53.762 67.4489V71H52.9097V67.2642C52.9097 66.9541 52.8091 66.7043 52.6079 66.5149C52.4066 66.3232 52.1474 66.2273 51.8302 66.2273C51.6124 66.2273 51.4088 66.2853 51.2194 66.4013C51.0323 66.5173 50.8808 66.6783 50.7648 66.8842C50.6512 67.0878 50.5944 67.3234 50.5944 67.5909V71H49.7563ZM60.7346 71.1136C60.2091 71.1136 59.7557 70.9976 59.3746 70.7656C58.9958 70.5312 58.7034 70.2045 58.4974 69.7855C58.2938 69.3641 58.192 68.8741 58.192 68.3153C58.192 67.7566 58.2938 67.2642 58.4974 66.8381C58.7034 66.4096 58.9898 66.0758 59.3568 65.8366C59.7261 65.5952 60.157 65.4744 60.6494 65.4744C60.9335 65.4744 61.214 65.5218 61.491 65.6165C61.768 65.7112 62.0202 65.8651 62.2474 66.0781C62.4747 66.2888 62.6558 66.5682 62.7907 66.9162C62.9257 67.2642 62.9932 67.6927 62.9932 68.2017V68.5568H58.7886V67.8324H62.1409C62.1409 67.5246 62.0793 67.25 61.9562 67.0085C61.8355 66.767 61.6627 66.5765 61.4378 66.4368C61.2152 66.2971 60.9524 66.2273 60.6494 66.2273C60.3156 66.2273 60.0268 66.3101 59.7829 66.4759C59.5415 66.6392 59.3556 66.8523 59.2254 67.1151C59.0952 67.3778 59.0301 67.6596 59.0301 67.9602V68.4432C59.0301 68.8551 59.1011 69.2043 59.2432 69.4908C59.3876 69.7749 59.5876 69.9915 59.8433 70.1406C60.099 70.2874 60.3961 70.3608 60.7346 70.3608C60.9548 70.3608 61.1537 70.33 61.3312 70.2685C61.5112 70.2045 61.6662 70.1098 61.7964 69.9844C61.9266 69.8565 62.0273 69.6979 62.0983 69.5085L62.9079 69.7358C62.8227 70.0104 62.6795 70.2519 62.4782 70.4602C62.277 70.6662 62.0284 70.8272 61.7325 70.9432C61.4366 71.0568 61.104 71.1136 60.7346 71.1136Z" fill="#CFD1DE"/>
<path d="M227.345 71V63.7273H229.887C230.394 63.7273 230.812 63.8149 231.141 63.9901C231.47 64.1629 231.715 64.3961 231.876 64.6896C232.037 64.9808 232.117 65.304 232.117 65.6591C232.117 65.9716 232.062 66.2296 231.95 66.4332C231.841 66.6368 231.697 66.7978 231.517 66.9162C231.34 67.0346 231.147 67.1222 230.938 67.179V67.25C231.161 67.2642 231.385 67.3423 231.609 67.4844C231.834 67.6264 232.023 67.83 232.174 68.0952C232.326 68.3603 232.401 68.6847 232.401 69.0682C232.401 69.4328 232.319 69.7607 232.153 70.0518C231.987 70.343 231.725 70.5739 231.368 70.7443C231.011 70.9148 230.545 71 229.972 71H227.345ZM228.225 70.2188H229.972C230.548 70.2188 230.956 70.1075 231.198 69.8849C231.441 69.66 231.563 69.3878 231.563 69.0682C231.563 68.822 231.501 68.5947 231.375 68.3864C231.25 68.1757 231.071 68.0076 230.839 67.8821C230.607 67.7543 230.332 67.6903 230.015 67.6903H228.225V70.2188ZM228.225 66.9233H229.859C230.124 66.9233 230.363 66.8712 230.576 66.767C230.792 66.6629 230.962 66.5161 231.087 66.3267C231.215 66.1373 231.279 65.9148 231.279 65.6591C231.279 65.3395 231.168 65.0684 230.945 64.8459C230.723 64.621 230.37 64.5085 229.887 64.5085H228.225V66.9233ZM233.735 71V65.5455H234.573V71H233.735ZM234.161 64.6364C233.998 64.6364 233.857 64.5807 233.738 64.4695C233.622 64.3582 233.564 64.2244 233.564 64.0682C233.564 63.9119 233.622 63.7782 233.738 63.6669C233.857 63.5556 233.998 63.5 234.161 63.5C234.324 63.5 234.464 63.5556 234.58 63.6669C234.698 63.7782 234.758 63.9119 234.758 64.0682C234.758 64.2244 234.698 64.3582 234.58 64.4695C234.464 64.5807 234.324 64.6364 234.161 64.6364ZM236.946 63.7273V71H236.108V63.7273H236.946ZM239.319 63.7273V71H238.481V63.7273H239.319ZM243.141 71.1136C242.615 71.1136 242.162 70.9976 241.781 70.7656C241.402 70.5312 241.11 70.2045 240.904 69.7855C240.7 69.3641 240.598 68.8741 240.598 68.3153C240.598 67.7566 240.7 67.2642 240.904 66.8381C241.11 66.4096 241.396 66.0758 241.763 65.8366C242.132 65.5952 242.563 65.4744 243.056 65.4744C243.34 65.4744 243.62 65.5218 243.897 65.6165C244.174 65.7112 244.426 65.8651 244.654 66.0781C244.881 66.2888 245.062 66.5682 245.197 66.9162C245.332 67.2642 245.399 67.6927 245.399 68.2017V68.5568H241.195V67.8324H244.547C244.547 67.5246 244.486 67.25 244.362 67.0085C244.242 66.767 244.069 66.5765 243.844 66.4368C243.621 66.2971 243.359 66.2273 243.056 66.2273C242.722 66.2273 242.433 66.3101 242.189 66.4759C241.948 66.6392 241.762 66.8523 241.632 67.1151C241.501 67.3778 241.436 67.6596 241.436 67.9602V68.4432C241.436 68.8551 241.507 69.2043 241.649 69.4908C241.794 69.7749 241.994 69.9915 242.25 70.1406C242.505 70.2874 242.802 70.3608 243.141 70.3608C243.361 70.3608 243.56 70.33 243.737 70.2685C243.917 70.2045 244.072 70.1098 244.203 69.9844C244.333 69.8565 244.434 69.6979 244.505 69.5085L245.314 69.7358C245.229 70.0104 245.086 70.2519 244.884 70.4602C244.683 70.6662 244.435 70.8272 244.139 70.9432C243.843 71.0568 243.51 71.1136 243.141 71.1136ZM249.046 65.5455V66.2557H246.22V65.5455H249.046ZM247.044 64.2386H247.882V69.4375C247.882 69.6742 247.916 69.8518 247.985 69.9702C248.056 70.0862 248.146 70.1643 248.255 70.2045C248.366 70.2424 248.483 70.2614 248.606 70.2614C248.698 70.2614 248.774 70.2566 248.833 70.2472C248.893 70.2353 248.94 70.2259 248.975 70.2188L249.146 70.9716C249.089 70.9929 249.01 71.0142 248.908 71.0355C248.806 71.0592 248.677 71.071 248.521 71.071C248.284 71.071 248.052 71.0201 247.825 70.9183C247.6 70.8165 247.413 70.6615 247.264 70.4531C247.117 70.2448 247.044 69.982 247.044 69.6648V64.2386ZM252.535 71.1136C252.01 71.1136 251.556 70.9976 251.175 70.7656C250.797 70.5312 250.504 70.2045 250.298 69.7855C250.095 69.3641 249.993 68.8741 249.993 68.3153C249.993 67.7566 250.095 67.2642 250.298 66.8381C250.504 66.4096 250.791 66.0758 251.158 65.8366C251.527 65.5952 251.958 65.4744 252.45 65.4744C252.734 65.4744 253.015 65.5218 253.292 65.6165C253.569 65.7112 253.821 65.8651 254.048 66.0781C254.275 66.2888 254.457 66.5682 254.592 66.9162C254.726 67.2642 254.794 67.6927 254.794 68.2017V68.5568H250.589V67.8324H253.942C253.942 67.5246 253.88 67.25 253.757 67.0085C253.636 66.767 253.463 66.5765 253.239 66.4368C253.016 66.2971 252.753 66.2273 252.45 66.2273C252.116 66.2273 251.828 66.3101 251.584 66.4759C251.342 66.6392 251.156 66.8523 251.026 67.1151C250.896 67.3778 250.831 67.6596 250.831 67.9602V68.4432C250.831 68.8551 250.902 69.2043 251.044 69.4908C251.188 69.7749 251.388 69.9915 251.644 70.1406C251.9 70.2874 252.197 70.3608 252.535 70.3608C252.756 70.3608 252.954 70.33 253.132 70.2685C253.312 70.2045 253.467 70.1098 253.597 69.9844C253.727 69.8565 253.828 69.6979 253.899 69.5085L254.709 69.7358C254.623 70.0104 254.48 70.2519 254.279 70.4602C254.078 70.6662 253.829 70.8272 253.533 70.9432C253.237 71.0568 252.905 71.1136 252.535 71.1136ZM256.069 71V65.5455H256.878V66.3693H256.935C257.035 66.0994 257.215 65.8804 257.475 65.7124C257.735 65.5443 258.029 65.4602 258.356 65.4602C258.417 65.4602 258.494 65.4614 258.587 65.4638C258.679 65.4661 258.749 65.4697 258.796 65.4744V66.3267C258.768 66.3196 258.703 66.3089 258.601 66.2947C258.501 66.2782 258.396 66.2699 258.285 66.2699C258.02 66.2699 257.783 66.3255 257.574 66.4368C257.369 66.5457 257.205 66.6972 257.084 66.8913C256.966 67.0831 256.907 67.3021 256.907 67.5483V71H256.069ZM261.395 71.1278C261.049 71.1278 260.735 71.0627 260.454 70.9325C260.172 70.8 259.948 70.6094 259.782 70.3608C259.617 70.1098 259.534 69.8068 259.534 69.4517C259.534 69.1392 259.595 68.8859 259.718 68.6918C259.842 68.4953 260.006 68.3414 260.212 68.2301C260.418 68.1188 260.645 68.036 260.894 67.9815C261.145 67.9247 261.397 67.8797 261.65 67.8466C261.982 67.804 262.25 67.772 262.456 67.7507C262.665 67.727 262.816 67.688 262.911 67.6335C263.008 67.5791 263.057 67.4844 263.057 67.3494V67.321C263.057 66.9706 262.961 66.6984 262.769 66.5043C262.58 66.3101 262.292 66.2131 261.906 66.2131C261.506 66.2131 261.192 66.3007 260.965 66.4759C260.738 66.651 260.578 66.8381 260.486 67.0369L259.69 66.7528C259.832 66.4214 260.022 66.1634 260.258 65.9787C260.497 65.7917 260.758 65.6615 261.04 65.5881C261.324 65.5123 261.603 65.4744 261.878 65.4744C262.053 65.4744 262.254 65.4957 262.481 65.5384C262.711 65.5786 262.932 65.6626 263.145 65.7905C263.361 65.9183 263.54 66.1113 263.682 66.3693C263.824 66.6274 263.895 66.973 263.895 67.4062V71H263.057V70.2614H263.014C262.957 70.3797 262.862 70.5064 262.73 70.6413C262.597 70.7763 262.421 70.8911 262.201 70.9858C261.981 71.0805 261.712 71.1278 261.395 71.1278ZM261.522 70.375C261.854 70.375 262.133 70.3099 262.361 70.1797C262.59 70.0495 262.763 69.8814 262.879 69.6754C262.997 69.4695 263.057 69.2528 263.057 69.0256V68.2585C263.021 68.3011 262.943 68.3402 262.822 68.3757C262.704 68.4089 262.566 68.4384 262.41 68.4645C262.256 68.4882 262.106 68.5095 261.959 68.5284C261.815 68.545 261.698 68.5592 261.608 68.571C261.39 68.5994 261.186 68.6456 260.997 68.7095C260.81 68.7711 260.658 68.8646 260.542 68.9901C260.429 69.1132 260.372 69.2812 260.372 69.4943C260.372 69.7855 260.48 70.0057 260.695 70.1548C260.913 70.3016 261.189 70.375 261.522 70.375Z" fill="#389BEC"/>
<path d="M254.656 38.0549C255.214 38.0549 255.666 37.6027 255.666 37.0449C255.666 36.4871 255.214 36.0349 254.656 36.0349V38.0549ZM235.963 38.9759C235.963 38.4181 235.511 37.9659 234.953 37.9659C234.395 37.9659 233.943 38.4181 233.943 38.9759H235.963ZM237.499 38.0549H254.656V36.0349H237.499V38.0549ZM253.622 56.261H237.499V58.281H253.622V56.261ZM235.479 54.241V40.0749H233.459V54.241H235.479ZM236.973 42.0056H253.622V39.9856H236.973V42.0056ZM255.642 44.0256V54.241H257.662V44.0256H255.642ZM236.973 39.9856C236.415 39.9856 235.963 39.5335 235.963 38.9759H233.943C233.943 40.6492 235.3 42.0056 236.973 42.0056V39.9856ZM237.499 56.261C236.383 56.261 235.479 55.3566 235.479 54.241H233.459C233.459 56.4722 235.268 58.281 237.499 58.281V56.261ZM253.622 58.281C255.853 58.281 257.662 56.4722 257.662 54.241H255.642C255.642 55.3566 254.738 56.261 253.622 56.261V58.281ZM253.622 42.0056C254.738 42.0056 255.642 42.91 255.642 44.0256H257.662C257.662 41.7944 255.853 39.9856 253.622 39.9856V42.0056ZM237.499 36.0349C235.268 36.0349 233.459 37.8437 233.459 40.0749H235.479C235.479 38.9593 236.383 38.0549 237.499 38.0549V36.0349Z" fill="#87C9FF"/>
<rect width="70" height="2" transform="matrix(1 0 0 -1 210.561 21)" fill="#55B3FF"/>
</g>
<defs>
<filter id="filter0_d_1714_40613" x="-12.5752" y="0" width="416" height="101" filterUnits="userSpaceOnUse" color-interpolation-filters="sRGB">
<feFlood flood-opacity="0" result="BackgroundImageFix"/>
<feColorMatrix in="SourceAlpha" type="matrix" values="0 0 0 0 0 0 0 0 0 0 0 0 0 0 0 0 0 0 127 0" result="hardAlpha"/>
<feOffset dy="-6"/>
<feGaussianBlur stdDeviation="6.5"/>
<feComposite in2="hardAlpha" operator="out"/>
<feColorMatrix type="matrix" values="0 0 0 0 0 0 0 0 0 0 0 0 0 0 0 0 0 0 0.04 0"/>
<feBlend mode="normal" in2="BackgroundImageFix" result="effect1_dropShadow_1714_40613"/>
<feBlend mode="normal" in="SourceGraphic" in2="effect1_dropShadow_1714_40613" result="shape"/>
</filter>
</defs>
</svg>
