<svg width="391" height="95" viewBox="0 0 391 95" fill="none" xmlns="http://www.w3.org/2000/svg">
<g filter="url(#filter0_d_1552_26383)">
<path d="M0.107422 19.0957H390.107V94.0957H0.107422V19.0957Z" fill="white"/>
<path d="M335.142 55.8378L335.313 54.7377C335.521 53.3968 336.396 52.2483 337.692 51.8468C339.302 51.3482 341.693 50.7812 344.243 50.7812C346.793 50.7812 349.185 51.3482 350.794 51.8468C352.091 52.2483 352.965 53.3968 353.174 54.7377L353.345 55.8378" stroke="#CFD1DE" stroke-width="2.02261" stroke-linecap="round" stroke-linejoin="round"/>
<path d="M344.243 46.2322C347.036 46.2322 349.3 43.9683 349.3 41.1757C349.3 38.383 347.036 36.1191 344.243 36.1191C341.45 36.1191 339.187 38.383 339.187 41.1757C339.187 43.9683 341.45 46.2322 344.243 46.2322Z" stroke="#CFD1DE" stroke-width="2.02261" stroke-linecap="round" stroke-linejoin="round"/>
<path d="M331.863 71.0957V63.823H334.32C334.891 63.823 335.357 63.926 335.72 64.1319C336.084 64.3355 336.354 64.6113 336.529 64.9593C336.704 65.3074 336.792 65.6956 336.792 66.1241C336.792 66.5526 336.704 66.9421 336.529 67.2924C336.356 67.6428 336.089 67.9222 335.727 68.1305C335.365 68.3365 334.901 68.4395 334.335 68.4395H332.573V67.6582H334.306C334.697 67.6582 335.011 67.5907 335.247 67.4558C335.484 67.3208 335.656 67.1386 335.762 66.9089C335.871 66.6769 335.926 66.4153 335.926 66.1241C335.926 65.8329 335.871 65.5725 335.762 65.3429C335.656 65.1132 335.483 64.9333 335.244 64.8031C335.005 64.6705 334.687 64.6042 334.292 64.6042H332.744V71.0957H331.863ZM340.325 71.2093C339.8 71.2093 339.347 71.0933 338.965 70.8613C338.587 70.627 338.294 70.3002 338.088 69.8812C337.885 69.4598 337.783 68.9698 337.783 68.411C337.783 67.8523 337.885 67.3599 338.088 66.9338C338.294 66.5053 338.581 66.1715 338.948 65.9324C339.317 65.6909 339.748 65.5701 340.24 65.5701C340.524 65.5701 340.805 65.6175 341.082 65.7122C341.359 65.8069 341.611 65.9608 341.838 66.1738C342.066 66.3845 342.247 66.6639 342.382 67.0119C342.517 67.3599 342.584 67.7884 342.584 68.2974V68.6525H338.379V67.9281H341.732C341.732 67.6203 341.67 67.3457 341.547 67.1042C341.426 66.8627 341.253 66.6722 341.029 66.5325C340.806 66.3928 340.543 66.323 340.24 66.323C339.906 66.323 339.618 66.4058 339.374 66.5716C339.132 66.7349 338.946 66.948 338.816 67.2108C338.686 67.4735 338.621 67.7553 338.621 68.0559V68.5389C338.621 68.9508 338.692 69.3 338.834 69.5865C338.978 69.8706 339.178 70.0872 339.434 70.2363C339.69 70.3831 339.987 70.4565 340.325 70.4565C340.546 70.4565 340.744 70.4257 340.922 70.3642C341.102 70.3002 341.257 70.2056 341.387 70.0801C341.517 69.9522 341.618 69.7936 341.689 69.6042L342.499 69.8315C342.414 70.1061 342.27 70.3476 342.069 70.5559C341.868 70.7619 341.619 70.9229 341.323 71.0389C341.027 71.1525 340.695 71.2093 340.325 71.2093ZM343.859 71.0957V65.6412H344.669V66.465H344.725C344.825 66.1951 345.005 65.9761 345.265 65.8081C345.526 65.64 345.819 65.5559 346.146 65.5559C346.207 65.5559 346.284 65.5571 346.377 65.5595C346.469 65.5618 346.539 65.5654 346.586 65.5701V66.4224C346.558 66.4153 346.493 66.4047 346.391 66.3904C346.291 66.3739 346.186 66.3656 346.075 66.3656C345.81 66.3656 345.573 66.4212 345.365 66.5325C345.159 66.6414 344.995 66.7929 344.874 66.987C344.756 67.1788 344.697 67.3978 344.697 67.644V71.0957H343.859ZM350.35 65.6412V66.3514H347.41V65.6412H350.35ZM348.291 71.0957V64.8883C348.291 64.5758 348.364 64.3154 348.511 64.1071C348.658 63.8987 348.848 63.7425 349.083 63.6383C349.317 63.5341 349.564 63.4821 349.825 63.4821C350.031 63.4821 350.199 63.4986 350.329 63.5318C350.459 63.5649 350.556 63.5957 350.62 63.6241L350.379 64.3485C350.336 64.3343 350.277 64.3166 350.201 64.2953C350.128 64.274 350.031 64.2633 349.91 64.2633C349.633 64.2633 349.433 64.3332 349.31 64.4728C349.189 64.6125 349.129 64.8173 349.129 65.0872V71.0957H348.291ZM351.525 71.0957V65.6412H352.363V71.0957H351.525ZM351.951 64.7321C351.788 64.7321 351.647 64.6764 351.528 64.5652C351.412 64.4539 351.354 64.3201 351.354 64.1639C351.354 64.0076 351.412 63.8739 351.528 63.7626C351.647 63.6513 351.788 63.5957 351.951 63.5957C352.114 63.5957 352.254 63.6513 352.37 63.7626C352.488 63.8739 352.548 64.0076 352.548 64.1639C352.548 64.3201 352.488 64.4539 352.37 64.5652C352.254 64.6764 352.114 64.7321 351.951 64.7321ZM354.736 63.823V71.0957H353.898V63.823H354.736Z" fill="#CFD1DE"/>
<path d="M142.187 37.1289H141.176C139.5 37.1289 138.142 38.4872 138.142 40.1628V54.3211C138.142 55.9966 139.5 57.355 141.176 57.355H153.311C154.987 57.355 156.345 55.9966 156.345 54.3211V40.1628C156.345 38.4872 154.987 37.1289 153.311 37.1289H152.3" stroke="#CFD1DE" stroke-width="2.02261"/>
<rect x="142.187" y="35.1074" width="10.113" height="5.05651" rx="2.02261" stroke="#CFD1DE" stroke-width="2.02261"/>
<path d="M124.515 71.0957V63.823H126.973C127.543 63.823 128.01 63.926 128.372 64.1319C128.737 64.3355 129.006 64.6113 129.182 64.9593C129.357 65.3074 129.444 65.6956 129.444 66.1241C129.444 66.5526 129.357 66.9421 129.182 67.2924C129.009 67.6428 128.741 67.9222 128.379 68.1305C128.017 68.3365 127.553 68.4395 126.987 68.4395H125.226V67.6582H126.959C127.349 67.6582 127.663 67.5907 127.9 67.4558C128.136 67.3208 128.308 67.1386 128.415 66.9089C128.523 66.6769 128.578 66.4153 128.578 66.1241C128.578 65.8329 128.523 65.5725 128.415 65.3429C128.308 65.1132 128.135 64.9333 127.896 64.8031C127.657 64.6705 127.34 64.6042 126.944 64.6042H125.396V71.0957H124.515ZM130.749 71.0957V65.6412H131.559V66.465H131.616C131.715 66.1951 131.895 65.9761 132.156 65.8081C132.416 65.64 132.71 65.5559 133.036 65.5559C133.098 65.5559 133.175 65.5571 133.267 65.5595C133.36 65.5618 133.429 65.5654 133.477 65.5701V66.4224C133.448 66.4153 133.383 66.4047 133.281 66.3904C133.182 66.3739 133.077 66.3656 132.965 66.3656C132.7 66.3656 132.463 66.4212 132.255 66.5325C132.049 66.6414 131.886 66.7929 131.765 66.987C131.647 67.1788 131.588 67.3978 131.588 67.644V71.0957H130.749ZM136.52 71.2093C136.028 71.2093 135.596 71.0922 135.224 70.8578C134.855 70.6234 134.566 70.2955 134.357 69.8741C134.151 69.4527 134.048 68.9603 134.048 68.3968C134.048 67.8287 134.151 67.3327 134.357 66.9089C134.566 66.4851 134.855 66.1561 135.224 65.9217C135.596 65.6873 136.028 65.5701 136.52 65.5701C137.012 65.5701 137.443 65.6873 137.813 65.9217C138.184 66.1561 138.473 66.4851 138.679 66.9089C138.887 67.3327 138.992 67.8287 138.992 68.3968C138.992 68.9603 138.887 69.4527 138.679 69.8741C138.473 70.2955 138.184 70.6234 137.813 70.8578C137.443 71.0922 137.012 71.2093 136.52 71.2093ZM136.52 70.4565C136.894 70.4565 137.202 70.3606 137.443 70.1689C137.685 69.9771 137.864 69.725 137.98 69.4125C138.096 69.1 138.154 68.7614 138.154 68.3968C138.154 68.0323 138.096 67.6925 137.98 67.3777C137.864 67.0628 137.685 66.8083 137.443 66.6142C137.202 66.42 136.894 66.323 136.52 66.323C136.146 66.323 135.838 66.42 135.597 66.6142C135.355 66.8083 135.177 67.0628 135.061 67.3777C134.945 67.6925 134.887 68.0323 134.887 68.3968C134.887 68.7614 134.945 69.1 135.061 69.4125C135.177 69.725 135.355 69.9771 135.597 70.1689C135.838 70.3606 136.146 70.4565 136.52 70.4565ZM140.615 73.1412C140.473 73.1412 140.347 73.1293 140.235 73.1056C140.124 73.0843 140.047 73.063 140.005 73.0417L140.218 72.3031C140.421 72.3552 140.601 72.3741 140.757 72.3599C140.914 72.3457 141.052 72.2759 141.173 72.1504C141.296 72.0273 141.408 71.8272 141.51 71.5502L141.667 71.1241L139.65 65.6412H140.559L142.064 69.9877H142.121L143.627 65.6412H144.536L142.221 71.8912C142.116 72.1729 141.987 72.4061 141.833 72.5907C141.68 72.7778 141.501 72.9163 141.297 73.0062C141.096 73.0962 140.869 73.1412 140.615 73.1412ZM147.734 71.2093C147.208 71.2093 146.755 71.0933 146.374 70.8613C145.995 70.627 145.702 70.3002 145.496 69.8812C145.293 69.4598 145.191 68.9698 145.191 68.411C145.191 67.8523 145.293 67.3599 145.496 66.9338C145.702 66.5053 145.989 66.1715 146.356 65.9324C146.725 65.6909 147.156 65.5701 147.648 65.5701C147.933 65.5701 148.213 65.6175 148.49 65.7122C148.767 65.8069 149.019 65.9608 149.246 66.1738C149.474 66.3845 149.655 66.6639 149.79 67.0119C149.925 67.3599 149.992 67.7884 149.992 68.2974V68.6525H145.788V67.9281H149.14C149.14 67.6203 149.078 67.3457 148.955 67.1042C148.835 66.8627 148.662 66.6722 148.437 66.5325C148.214 66.3928 147.951 66.323 147.648 66.323C147.315 66.323 147.026 66.4058 146.782 66.5716C146.54 66.7349 146.355 66.948 146.224 67.2108C146.094 67.4735 146.029 67.7553 146.029 68.0559V68.5389C146.029 68.9508 146.1 69.3 146.242 69.5865C146.387 69.8706 146.587 70.0872 146.842 70.2363C147.098 70.3831 147.395 70.4565 147.734 70.4565C147.954 70.4565 148.153 70.4257 148.33 70.3642C148.51 70.3002 148.665 70.2056 148.795 70.0801C148.926 69.9522 149.026 69.7936 149.097 69.6042L149.907 69.8315C149.822 70.1061 149.679 70.3476 149.477 70.5559C149.276 70.7619 149.027 70.9229 148.732 71.0389C148.436 71.1525 148.103 71.2093 147.734 71.2093ZM153.483 71.2093C152.972 71.2093 152.531 71.0886 152.162 70.8471C151.793 70.6056 151.509 70.273 151.31 69.8493C151.111 69.4255 151.011 68.9413 151.011 68.3968C151.011 67.8429 151.113 67.354 151.317 66.9302C151.523 66.5041 151.809 66.1715 152.176 65.9324C152.545 65.6909 152.976 65.5701 153.469 65.5701C153.852 65.5701 154.198 65.6412 154.506 65.7832C154.813 65.9252 155.066 66.1241 155.262 66.3798C155.459 66.6355 155.58 66.9338 155.628 67.2747H154.79C154.726 67.0261 154.584 66.8059 154.364 66.6142C154.146 66.42 153.852 66.323 153.483 66.323C153.156 66.323 152.87 66.4082 152.624 66.5787C152.38 66.7467 152.189 66.9847 152.052 67.2924C151.917 67.5978 151.849 67.9565 151.849 68.3684C151.849 68.7898 151.916 69.1568 152.048 69.4693C152.183 69.7818 152.373 70.0244 152.616 70.1973C152.863 70.3701 153.152 70.4565 153.483 70.4565C153.701 70.4565 153.898 70.4186 154.076 70.3429C154.254 70.2671 154.404 70.1582 154.527 70.0162C154.65 69.8741 154.738 69.7037 154.79 69.5048H155.628C155.58 69.8268 155.463 70.1168 155.276 70.3748C155.092 70.6305 154.847 70.8341 154.541 70.9856C154.238 71.1348 153.885 71.2093 153.483 71.2093ZM159.225 65.6412V66.3514H156.398V65.6412H159.225ZM157.222 64.3343H158.06V69.5332C158.06 69.7699 158.095 69.9475 158.163 70.0659C158.234 70.1819 158.324 70.26 158.433 70.3002C158.545 70.3381 158.662 70.3571 158.785 70.3571C158.877 70.3571 158.953 70.3523 159.012 70.3429C159.071 70.331 159.119 70.3216 159.154 70.3145L159.325 71.0673C159.268 71.0886 159.188 71.1099 159.087 71.1312C158.985 71.1549 158.856 71.1667 158.7 71.1667C158.463 71.1667 158.231 71.1158 158.004 71.014C157.779 70.9122 157.592 70.7572 157.442 70.5488C157.296 70.3405 157.222 70.0777 157.222 69.7605V64.3343ZM162.643 71.2093C162.151 71.2093 161.719 71.0922 161.347 70.8578C160.978 70.6234 160.689 70.2955 160.48 69.8741C160.275 69.4527 160.172 68.9603 160.172 68.3968C160.172 67.8287 160.275 67.3327 160.48 66.9089C160.689 66.4851 160.978 66.1561 161.347 65.9217C161.719 65.6873 162.151 65.5701 162.643 65.5701C163.136 65.5701 163.566 65.6873 163.936 65.9217C164.307 66.1561 164.596 66.4851 164.802 66.9089C165.011 67.3327 165.115 67.8287 165.115 68.3968C165.115 68.9603 165.011 69.4527 164.802 69.8741C164.596 70.2955 164.307 70.6234 163.936 70.8578C163.566 71.0922 163.136 71.2093 162.643 71.2093ZM162.643 70.4565C163.017 70.4565 163.325 70.3606 163.566 70.1689C163.808 69.9771 163.987 69.725 164.103 69.4125C164.219 69.1 164.277 68.7614 164.277 68.3968C164.277 68.0323 164.219 67.6925 164.103 67.3777C163.987 67.0628 163.808 66.8083 163.566 66.6142C163.325 66.42 163.017 66.323 162.643 66.323C162.269 66.323 161.961 66.42 161.72 66.6142C161.478 66.8083 161.3 67.0628 161.184 67.3777C161.068 67.6925 161.01 68.0323 161.01 68.3968C161.01 68.7614 161.068 69.1 161.184 69.4125C161.3 69.725 161.478 69.9771 161.72 70.1689C161.961 70.3606 162.269 70.4565 162.643 70.4565ZM170.258 66.8627L169.505 67.0758C169.457 66.9503 169.388 66.8284 169.295 66.71C169.205 66.5893 169.082 66.4899 168.926 66.4118C168.77 66.3336 168.57 66.2946 168.326 66.2946C167.992 66.2946 167.714 66.3715 167.491 66.5254C167.271 66.6769 167.161 66.8699 167.161 67.1042C167.161 67.3126 167.237 67.4771 167.388 67.5978C167.54 67.7186 167.777 67.8192 168.099 67.8997L168.908 68.0985C169.396 68.2169 169.759 68.398 169.998 68.6419C170.238 68.8833 170.357 69.1947 170.357 69.5758C170.357 69.8883 170.267 70.1677 170.087 70.4139C169.91 70.6601 169.661 70.8542 169.341 70.9963C169.022 71.1383 168.65 71.2093 168.226 71.2093C167.67 71.2093 167.21 71.0886 166.845 70.8471C166.48 70.6056 166.25 70.2529 166.153 69.7889L166.948 69.59C167.024 69.8836 167.167 70.1038 167.378 70.2505C167.591 70.3973 167.869 70.4707 168.212 70.4707C168.603 70.4707 168.913 70.3878 169.143 70.2221C169.375 70.054 169.491 69.8528 169.491 69.6184C169.491 69.429 169.424 69.2704 169.292 69.1426C169.159 69.0124 168.956 68.9153 168.681 68.8514L167.772 68.6383C167.272 68.5199 166.905 68.3365 166.671 68.0879C166.439 67.8369 166.323 67.5233 166.323 67.1468C166.323 66.8391 166.409 66.5668 166.582 66.3301C166.757 66.0933 166.995 65.9075 167.296 65.7725C167.599 65.6376 167.942 65.5701 168.326 65.5701C168.866 65.5701 169.289 65.6885 169.597 65.9252C169.907 66.162 170.127 66.4745 170.258 66.8627Z" fill="#CFD1DE"/>
<path d="M39.1299 44.0708C39.1299 43.1172 39.5832 42.2205 40.351 41.6551L49.2429 35.1074L58.1348 41.6551C58.9026 42.2205 59.3559 43.1172 59.3559 44.0708V54.8561C59.3559 56.2368 58.2367 57.3561 56.8559 57.3561H53.2768C52.7245 57.3561 52.2768 56.9084 52.2768 56.3561V50.2713C52.2768 49.9952 52.053 49.7713 51.7768 49.7713H46.709C46.4329 49.7713 46.209 49.9952 46.209 50.2713V56.3561C46.209 56.9084 45.7613 57.3561 45.209 57.3561H41.6299C40.2492 57.3561 39.1299 56.2368 39.1299 54.8561V44.0708Z" stroke="#CFD1DE" stroke-width="2.02261" stroke-linecap="round" stroke-linejoin="round"/>
<path d="M36.1834 71.0957V63.823H37.0641V67.0616H40.9419V63.823H41.8226V71.0957H40.9419V67.8429H37.0641V71.0957H36.1834ZM45.688 71.2093C45.1956 71.2093 44.7636 71.0922 44.3919 70.8578C44.0225 70.6234 43.7337 70.2955 43.5254 69.8741C43.3194 69.4527 43.2164 68.9603 43.2164 68.3968C43.2164 67.8287 43.3194 67.3327 43.5254 66.9089C43.7337 66.4851 44.0225 66.1561 44.3919 65.9217C44.7636 65.6873 45.1956 65.5701 45.688 65.5701C46.1805 65.5701 46.6113 65.6873 46.9806 65.9217C47.3523 66.1561 47.6412 66.4851 47.8471 66.9089C48.0555 67.3327 48.1596 67.8287 48.1596 68.3968C48.1596 68.9603 48.0555 69.4527 47.8471 69.8741C47.6412 70.2955 47.3523 70.6234 46.9806 70.8578C46.6113 71.0922 46.1805 71.2093 45.688 71.2093ZM45.688 70.4565C46.0621 70.4565 46.3699 70.3606 46.6113 70.1689C46.8528 69.9771 47.0315 69.725 47.1475 69.4125C47.2636 69.1 47.3216 68.7614 47.3216 68.3968C47.3216 68.0323 47.2636 67.6925 47.1475 67.3777C47.0315 67.0628 46.8528 66.8083 46.6113 66.6142C46.3699 66.42 46.0621 66.323 45.688 66.323C45.314 66.323 45.0062 66.42 44.7647 66.6142C44.5233 66.8083 44.3445 67.0628 44.2285 67.3777C44.1125 67.6925 44.0545 68.0323 44.0545 68.3968C44.0545 68.7614 44.1125 69.1 44.2285 69.4125C44.3445 69.725 44.5233 69.9771 44.7647 70.1689C45.0062 70.3606 45.314 70.4565 45.688 70.4565ZM49.4389 71.0957V65.6412H50.2486V66.4934H50.3196C50.4332 66.2022 50.6167 65.9761 50.87 65.8152C51.1233 65.6518 51.4276 65.5701 51.7827 65.5701C52.1425 65.5701 52.442 65.6518 52.6811 65.8152C52.9226 65.9761 53.1108 66.2022 53.2457 66.4934H53.3026C53.4422 66.2117 53.6518 65.988 53.9311 65.8223C54.2105 65.6542 54.5455 65.5701 54.9361 65.5701C55.4238 65.5701 55.8227 65.7228 56.1328 66.0282C56.4429 66.3313 56.598 66.8036 56.598 67.4451V71.0957H55.7599V67.4451C55.7599 67.0427 55.6499 66.755 55.4297 66.5822C55.2095 66.4094 54.9503 66.323 54.652 66.323C54.2685 66.323 53.9714 66.439 53.7607 66.671C53.55 66.9006 53.4446 67.1918 53.4446 67.5446V71.0957H52.5923V67.3599C52.5923 67.0498 52.4917 66.8 52.2905 66.6106C52.0893 66.4189 51.83 66.323 51.5128 66.323C51.295 66.323 51.0914 66.381 50.902 66.497C50.715 66.613 50.5634 66.774 50.4474 66.9799C50.3338 67.1835 50.277 67.4191 50.277 67.6866V71.0957H49.4389ZM60.4173 71.2093C59.8917 71.2093 59.4383 71.0933 59.0572 70.8613C58.6784 70.627 58.386 70.3002 58.18 69.8812C57.9764 69.4598 57.8746 68.9698 57.8746 68.411C57.8746 67.8523 57.9764 67.3599 58.18 66.9338C58.386 66.5053 58.6725 66.1715 59.0394 65.9324C59.4087 65.6909 59.8396 65.5701 60.332 65.5701C60.6161 65.5701 60.8967 65.6175 61.1737 65.7122C61.4506 65.8069 61.7028 65.9608 61.93 66.1738C62.1573 66.3845 62.3384 66.6639 62.4734 67.0119C62.6083 67.3599 62.6758 67.7884 62.6758 68.2974V68.6525H58.4712V67.9281H61.8235C61.8235 67.6203 61.762 67.3457 61.6388 67.1042C61.5181 66.8627 61.3453 66.6722 61.1204 66.5325C60.8978 66.3928 60.6351 66.323 60.332 66.323C59.9982 66.323 59.7094 66.4058 59.4656 66.5716C59.2241 66.7349 59.0382 66.948 58.908 67.2108C58.7778 67.4735 58.7127 67.7553 58.7127 68.0559V68.5389C58.7127 68.9508 58.7837 69.3 58.9258 69.5865C59.0702 69.8706 59.2702 70.0872 59.5259 70.2363C59.7816 70.3831 60.0787 70.4565 60.4173 70.4565C60.6374 70.4565 60.8363 70.4257 61.0138 70.3642C61.1938 70.3002 61.3488 70.2056 61.479 70.0801C61.6093 69.9522 61.7099 69.7936 61.7809 69.6042L62.5906 69.8315C62.5053 70.1061 62.3621 70.3476 62.1609 70.5559C61.9596 70.7619 61.7111 70.9229 61.4151 71.0389C61.1192 71.1525 60.7866 71.2093 60.4173 71.2093Z" fill="#CFD1DE"/>
<path d="M227.027 71.0957V63.823H229.57C230.076 63.823 230.494 63.9106 230.823 64.0858C231.152 64.2586 231.397 64.4918 231.558 64.7853C231.719 65.0765 231.8 65.3997 231.8 65.7548C231.8 66.0673 231.744 66.3253 231.633 66.5289C231.524 66.7325 231.38 66.8935 231.2 67.0119C231.022 67.1303 230.829 67.2179 230.621 67.2747V67.3457C230.843 67.3599 231.067 67.438 231.292 67.5801C231.517 67.7221 231.705 67.9257 231.857 68.1909C232.008 68.456 232.084 68.7804 232.084 69.1639C232.084 69.5285 232.001 69.8564 231.835 70.1475C231.67 70.4387 231.408 70.6696 231.051 70.84C230.693 71.0105 230.228 71.0957 229.655 71.0957H227.027ZM227.908 70.3145H229.655C230.23 70.3145 230.639 70.2032 230.88 69.9806C231.124 69.7557 231.246 69.4835 231.246 69.1639C231.246 68.9177 231.183 68.6904 231.058 68.4821C230.932 68.2714 230.753 68.1033 230.521 67.9778C230.289 67.85 230.015 67.786 229.698 67.786H227.908V70.3145ZM227.908 67.019H229.541C229.807 67.019 230.046 66.9669 230.259 66.8627C230.474 66.7586 230.645 66.6118 230.77 66.4224C230.898 66.233 230.962 66.0105 230.962 65.7548C230.962 65.4352 230.851 65.1641 230.628 64.9416C230.405 64.7167 230.053 64.6042 229.57 64.6042H227.908V67.019ZM233.417 71.0957V65.6412H234.256V71.0957H233.417ZM233.844 64.7321C233.68 64.7321 233.539 64.6764 233.421 64.5652C233.305 64.4539 233.247 64.3201 233.247 64.1639C233.247 64.0076 233.305 63.8739 233.421 63.7626C233.539 63.6513 233.68 63.5957 233.844 63.5957C234.007 63.5957 234.147 63.6513 234.263 63.7626C234.381 63.8739 234.44 64.0076 234.44 64.1639C234.44 64.3201 234.381 64.4539 234.263 64.5652C234.147 64.6764 234.007 64.7321 233.844 64.7321ZM236.629 63.823V71.0957H235.79V63.823H236.629ZM239.002 63.823V71.0957H238.164V63.823H239.002ZM242.824 71.2093C242.298 71.2093 241.845 71.0933 241.463 70.8613C241.085 70.627 240.792 70.3002 240.586 69.8812C240.383 69.4598 240.281 68.9698 240.281 68.411C240.281 67.8523 240.383 67.3599 240.586 66.9338C240.792 66.5053 241.079 66.1715 241.446 65.9324C241.815 65.6909 242.246 65.5701 242.738 65.5701C243.022 65.5701 243.303 65.6175 243.58 65.7122C243.857 65.8069 244.109 65.9608 244.336 66.1738C244.564 66.3845 244.745 66.6639 244.88 67.0119C245.015 67.3599 245.082 67.7884 245.082 68.2974V68.6525H240.877V67.9281H244.23C244.23 67.6203 244.168 67.3457 244.045 67.1042C243.924 66.8627 243.752 66.6722 243.527 66.5325C243.304 66.3928 243.041 66.323 242.738 66.323C242.404 66.323 242.116 66.4058 241.872 66.5716C241.63 66.7349 241.444 66.948 241.314 67.2108C241.184 67.4735 241.119 67.7553 241.119 68.0559V68.5389C241.119 68.9508 241.19 69.3 241.332 69.5865C241.476 69.8706 241.676 70.0872 241.932 70.2363C242.188 70.3831 242.485 70.4565 242.824 70.4565C243.044 70.4565 243.243 70.4257 243.42 70.3642C243.6 70.3002 243.755 70.2056 243.885 70.0801C244.016 69.9522 244.116 69.7936 244.187 69.6042L244.997 69.8315C244.912 70.1061 244.768 70.3476 244.567 70.5559C244.366 70.7619 244.117 70.9229 243.821 71.0389C243.525 71.1525 243.193 71.2093 242.824 71.2093ZM248.729 65.6412V66.3514H245.902V65.6412H248.729ZM246.726 64.3343H247.564V69.5332C247.564 69.7699 247.599 69.9475 247.667 70.0659C247.738 70.1819 247.828 70.26 247.937 70.3002C248.048 70.3381 248.166 70.3571 248.289 70.3571C248.381 70.3571 248.457 70.3523 248.516 70.3429C248.575 70.331 248.623 70.3216 248.658 70.3145L248.828 71.0673C248.772 71.0886 248.692 71.1099 248.591 71.1312C248.489 71.1549 248.36 71.1667 248.203 71.1667C247.967 71.1667 247.735 71.1158 247.507 71.014C247.283 70.9122 247.096 70.7572 246.946 70.5488C246.8 70.3405 246.726 70.0777 246.726 69.7605V64.3343ZM252.218 71.2093C251.692 71.2093 251.239 71.0933 250.858 70.8613C250.479 70.627 250.187 70.3002 249.981 69.8812C249.777 69.4598 249.675 68.9698 249.675 68.411C249.675 67.8523 249.777 67.3599 249.981 66.9338C250.187 66.5053 250.473 66.1715 250.84 65.9324C251.21 65.6909 251.64 65.5701 252.133 65.5701C252.417 65.5701 252.697 65.6175 252.974 65.7122C253.251 65.8069 253.504 65.9608 253.731 66.1738C253.958 66.3845 254.139 66.6639 254.274 67.0119C254.409 67.3599 254.477 67.7884 254.477 68.2974V68.6525H250.272V67.9281H253.624C253.624 67.6203 253.563 67.3457 253.44 67.1042C253.319 66.8627 253.146 66.6722 252.921 66.5325C252.699 66.3928 252.436 66.323 252.133 66.323C251.799 66.323 251.51 66.4058 251.266 66.5716C251.025 66.7349 250.839 66.948 250.709 67.2108C250.579 67.4735 250.513 67.7553 250.513 68.0559V68.5389C250.513 68.9508 250.585 69.3 250.727 69.5865C250.871 69.8706 251.071 70.0872 251.327 70.2363C251.582 70.3831 251.879 70.4565 252.218 70.4565C252.438 70.4565 252.637 70.4257 252.815 70.3642C252.995 70.3002 253.15 70.2056 253.28 70.0801C253.41 69.9522 253.511 69.7936 253.582 69.6042L254.391 69.8315C254.306 70.1061 254.163 70.3476 253.962 70.5559C253.76 70.7619 253.512 70.9229 253.216 71.0389C252.92 71.1525 252.587 71.2093 252.218 71.2093ZM255.751 71.0957V65.6412H256.561V66.465H256.618C256.717 66.1951 256.897 65.9761 257.158 65.8081C257.418 65.64 257.712 65.5559 258.038 65.5559C258.1 65.5559 258.177 65.5571 258.269 65.5595C258.362 65.5618 258.431 65.5654 258.479 65.5701V66.4224C258.45 66.4153 258.385 66.4047 258.283 66.3904C258.184 66.3739 258.079 66.3656 257.967 66.3656C257.702 66.3656 257.465 66.4212 257.257 66.5325C257.051 66.6414 256.888 66.7929 256.767 66.987C256.649 67.1788 256.589 67.3978 256.589 67.644V71.0957H255.751ZM261.077 71.2235C260.732 71.2235 260.418 71.1584 260.136 71.0282C259.854 70.8957 259.631 70.7051 259.465 70.4565C259.299 70.2056 259.216 69.9025 259.216 69.5474C259.216 69.2349 259.278 68.9816 259.401 68.7875C259.524 68.591 259.689 68.4371 259.895 68.3258C260.101 68.2145 260.328 68.1317 260.577 68.0772C260.827 68.0204 261.08 67.9754 261.333 67.9423C261.664 67.8997 261.933 67.8677 262.139 67.8464C262.347 67.8227 262.499 67.7837 262.594 67.7292C262.691 67.6748 262.739 67.5801 262.739 67.4451V67.4167C262.739 67.0663 262.643 66.7941 262.452 66.6C262.262 66.4058 261.974 66.3088 261.589 66.3088C261.189 66.3088 260.875 66.3964 260.648 66.5716C260.42 66.7467 260.26 66.9338 260.168 67.1326L259.373 66.8485C259.515 66.5171 259.704 66.2591 259.941 66.0744C260.18 65.8874 260.44 65.7572 260.722 65.6838C261.006 65.608 261.286 65.5701 261.56 65.5701C261.735 65.5701 261.937 65.5914 262.164 65.6341C262.394 65.6743 262.615 65.7583 262.828 65.8862C263.043 66.014 263.222 66.207 263.364 66.465C263.506 66.7231 263.577 67.0687 263.577 67.502V71.0957H262.739V70.3571H262.697C262.64 70.4754 262.545 70.6021 262.412 70.737C262.28 70.872 262.104 70.9868 261.883 71.0815C261.663 71.1762 261.394 71.2235 261.077 71.2235ZM261.205 70.4707C261.537 70.4707 261.816 70.4056 262.043 70.2754C262.273 70.1452 262.446 69.9771 262.562 69.7711C262.68 69.5652 262.739 69.3485 262.739 69.1213V68.3542C262.704 68.3968 262.626 68.4359 262.505 68.4714C262.386 68.5046 262.249 68.5341 262.093 68.5602C261.939 68.5839 261.789 68.6052 261.642 68.6241C261.497 68.6407 261.38 68.6549 261.29 68.6667C261.073 68.6951 260.869 68.7413 260.68 68.8052C260.492 68.8668 260.341 68.9603 260.225 69.0858C260.111 69.2089 260.055 69.377 260.055 69.59C260.055 69.8812 260.162 70.1014 260.378 70.2505C260.595 70.3973 260.871 70.4707 261.205 70.4707Z" fill="#389BEC"/>
<path d="M254.339 38.1506C254.897 38.1506 255.349 37.6984 255.349 37.1406C255.349 36.5828 254.897 36.1306 254.339 36.1306V38.1506ZM235.646 39.0716C235.646 38.5138 235.193 38.0616 234.636 38.0616C234.078 38.0616 233.626 38.5138 233.626 39.0716H235.646ZM237.181 38.1506H254.339V36.1306H237.181V38.1506ZM253.305 56.3567H237.181V58.3767H253.305V56.3567ZM235.161 54.3367V40.1706H233.141V54.3367H235.161ZM236.655 42.1013H253.305V40.0813H236.655V42.1013ZM255.325 44.1213V54.3367H257.345V44.1213H255.325ZM236.655 40.0813C236.098 40.0813 235.646 39.6292 235.646 39.0716H233.626C233.626 40.7449 234.982 42.1013 236.655 42.1013V40.0813ZM237.181 56.3567C236.066 56.3567 235.161 55.4523 235.161 54.3367H233.141C233.141 56.5679 234.95 58.3767 237.181 58.3767V56.3567ZM253.305 58.3767C255.536 58.3767 257.345 56.5679 257.345 54.3367H255.325C255.325 55.4523 254.42 56.3567 253.305 56.3567V58.3767ZM253.305 42.1013C254.42 42.1013 255.325 43.0057 255.325 44.1213H257.345C257.345 41.8901 255.536 40.0813 253.305 40.0813V42.1013ZM237.181 36.1306C234.95 36.1306 233.141 37.9394 233.141 40.1706H235.161C235.161 39.055 236.066 38.1506 237.181 38.1506V36.1306Z" fill="#87C9FF"/>
<rect width="70" height="2" transform="matrix(1 0 0 -1 210.243 21.0957)" fill="#55B3FF"/>
</g>
<defs>
<filter id="filter0_d_1552_26383" x="-12.8926" y="0.0957031" width="416" height="101" filterUnits="userSpaceOnUse" color-interpolation-filters="sRGB">
<feFlood flood-opacity="0" result="BackgroundImageFix"/>
<feColorMatrix in="SourceAlpha" type="matrix" values="0 0 0 0 0 0 0 0 0 0 0 0 0 0 0 0 0 0 127 0" result="hardAlpha"/>
<feOffset dy="-6"/>
<feGaussianBlur stdDeviation="6.5"/>
<feComposite in2="hardAlpha" operator="out"/>
<feColorMatrix type="matrix" values="0 0 0 0 0 0 0 0 0 0 0 0 0 0 0 0 0 0 0.04 0"/>
<feBlend mode="normal" in2="BackgroundImageFix" result="effect1_dropShadow_1552_26383"/>
<feBlend mode="normal" in="SourceGraphic" in2="effect1_dropShadow_1552_26383" result="shape"/>
</filter>
</defs>
</svg>
