<svg width="391" height="95" viewBox="0 0 391 95" fill="none" xmlns="http://www.w3.org/2000/svg">
<g filter="url(#filter0_d_1714_37485)">
<rect x="0.357422" y="19.0957" width="390" height="75" fill="white"/>
<g opacity="0.5">
<path d="M29.2441 43.0708C29.2441 42.1172 29.6975 41.2205 30.4653 40.6551L39.3572 34.1074L48.249 40.6551C49.0169 41.2205 49.4702 42.1172 49.4702 43.0708V53.8561C49.4702 55.2368 48.3509 56.3561 46.9702 56.3561H43.3911C42.8388 56.3561 42.3911 55.9084 42.3911 55.3561V49.2713C42.3911 48.9952 42.1672 48.7713 41.8911 48.7713H36.8233C36.5471 48.7713 36.3233 48.9952 36.3233 49.2713V55.3561C36.3233 55.9084 35.8755 56.3561 35.3233 56.3561H31.7441C30.3634 56.3561 29.2441 55.2368 29.2441 53.8561V43.0708Z" stroke="#A0A3BD" stroke-width="2.02261" stroke-linecap="round" stroke-linejoin="round"/>
</g>
<g opacity="0.5">
<path d="M342.256 54.8378L342.427 53.7377C342.636 52.3968 343.51 51.2483 344.807 50.8468C346.416 50.3482 348.808 49.7812 351.358 49.7812C353.908 49.7812 356.299 50.3482 357.909 50.8468C359.205 51.2483 360.08 52.3968 360.288 53.7377L360.459 54.8378" stroke="#CFD1DE" stroke-width="2.02261" stroke-linecap="round" stroke-linejoin="round"/>
<path d="M351.357 45.2322C354.15 45.2322 356.414 42.9683 356.414 40.1757C356.414 37.383 354.15 35.1191 351.357 35.1191C348.565 35.1191 346.301 37.383 346.301 40.1757C346.301 42.9683 348.565 45.2322 351.357 45.2322Z" stroke="#CFD1DE" stroke-width="2.02261" stroke-linecap="round" stroke-linejoin="round"/>
</g>
<path d="M138.301 36.1289H137.29C135.614 36.1289 134.256 37.4872 134.256 39.1628V53.3211C134.256 54.9966 135.614 56.355 137.29 56.355H149.425C151.101 56.355 152.459 54.9966 152.459 53.3211V39.1628C152.459 37.4872 151.101 36.1289 149.425 36.1289H148.414" stroke="#CFD1DE" stroke-width="2.02261"/>
<rect x="138.301" y="34.1074" width="10.113" height="5.05651" rx="2.02261" stroke="#CFD1DE" stroke-width="2.02261"/>
<path d="M26.2977 71.0957V63.823H27.1784V67.0616H31.0562V63.823H31.9369V71.0957H31.0562V67.8429H27.1784V71.0957H26.2977ZM35.8023 71.2093C35.3099 71.2093 34.8778 71.0922 34.5061 70.8578C34.1368 70.6234 33.848 70.2955 33.6396 69.8741C33.4337 69.4527 33.3307 68.9603 33.3307 68.3968C33.3307 67.8287 33.4337 67.3327 33.6396 66.9089C33.848 66.4851 34.1368 66.1561 34.5061 65.9217C34.8778 65.6873 35.3099 65.5701 35.8023 65.5701C36.2947 65.5701 36.7256 65.6873 37.0949 65.9217C37.4666 66.1561 37.7554 66.4851 37.9614 66.9089C38.1697 67.3327 38.2739 67.8287 38.2739 68.3968C38.2739 68.9603 38.1697 69.4527 37.9614 69.8741C37.7554 70.2955 37.4666 70.6234 37.0949 70.8578C36.7256 71.0922 36.2947 71.2093 35.8023 71.2093ZM35.8023 70.4565C36.1763 70.4565 36.4841 70.3606 36.7256 70.1689C36.9671 69.9771 37.1458 69.725 37.2618 69.4125C37.3778 69.1 37.4358 68.7614 37.4358 68.3968C37.4358 68.0323 37.3778 67.6925 37.2618 67.3777C37.1458 67.0628 36.9671 66.8083 36.7256 66.6142C36.4841 66.42 36.1763 66.323 35.8023 66.323C35.4282 66.323 35.1205 66.42 34.879 66.6142C34.6375 66.8083 34.4588 67.0628 34.3428 67.3777C34.2268 67.6925 34.1688 68.0323 34.1688 68.3968C34.1688 68.7614 34.2268 69.1 34.3428 69.4125C34.4588 69.725 34.6375 69.9771 34.879 70.1689C35.1205 70.3606 35.4282 70.4565 35.8023 70.4565ZM39.5532 71.0957V65.6412H40.3628V66.4934H40.4339C40.5475 66.2022 40.731 65.9761 40.9843 65.8152C41.2376 65.6518 41.5418 65.5701 41.8969 65.5701C42.2568 65.5701 42.5563 65.6518 42.7954 65.8152C43.0368 65.9761 43.2251 66.2022 43.36 66.4934H43.4168C43.5565 66.2117 43.766 65.988 44.0454 65.8223C44.3247 65.6542 44.6597 65.5701 45.0503 65.5701C45.538 65.5701 45.9369 65.7228 46.2471 66.0282C46.5572 66.3313 46.7123 66.8036 46.7123 67.4451V71.0957H45.8742V67.4451C45.8742 67.0427 45.7641 66.755 45.5439 66.5822C45.3238 66.4094 45.0645 66.323 44.7662 66.323C44.3827 66.323 44.0856 66.439 43.8749 66.671C43.6642 66.9006 43.5589 67.1918 43.5589 67.5446V71.0957H42.7066V67.3599C42.7066 67.0498 42.606 66.8 42.4047 66.6106C42.2035 66.4189 41.9443 66.323 41.627 66.323C41.4092 66.323 41.2056 66.381 41.0162 66.497C40.8292 66.613 40.6777 66.774 40.5617 66.9799C40.4481 67.1835 40.3912 67.4191 40.3912 67.6866V71.0957H39.5532ZM50.5315 71.2093C50.0059 71.2093 49.5526 71.0933 49.1714 70.8613C48.7926 70.627 48.5003 70.3002 48.2943 69.8812C48.0907 69.4598 47.9889 68.9698 47.9889 68.411C47.9889 67.8523 48.0907 67.3599 48.2943 66.9338C48.5003 66.5053 48.7867 66.1715 49.1537 65.9324C49.523 65.6909 49.9539 65.5701 50.4463 65.5701C50.7304 65.5701 51.0109 65.6175 51.2879 65.7122C51.5649 65.8069 51.817 65.9608 52.0443 66.1738C52.2716 66.3845 52.4527 66.6639 52.5876 67.0119C52.7226 67.3599 52.79 67.7884 52.79 68.2974V68.6525H48.5855V67.9281H51.9378C51.9378 67.6203 51.8762 67.3457 51.7531 67.1042C51.6324 66.8627 51.4595 66.6722 51.2346 66.5325C51.0121 66.3928 50.7493 66.323 50.4463 66.323C50.1125 66.323 49.8237 66.4058 49.5798 66.5716C49.3383 66.7349 49.1525 66.948 49.0223 67.2108C48.8921 67.4735 48.827 67.7553 48.827 68.0559V68.5389C48.827 68.9508 48.898 69.3 49.04 69.5865C49.1845 69.8706 49.3845 70.0872 49.6402 70.2363C49.8959 70.3831 50.193 70.4565 50.5315 70.4565C50.7517 70.4565 50.9506 70.4257 51.1281 70.3642C51.308 70.3002 51.4631 70.2056 51.5933 70.0801C51.7235 69.9522 51.8241 69.7936 51.8952 69.6042L52.7048 69.8315C52.6196 70.1061 52.4764 70.3476 52.2751 70.5559C52.0739 70.7619 51.8253 70.9229 51.5294 71.0389C51.2335 71.1525 50.9008 71.2093 50.5315 71.2093Z" fill="#A0A3BD"/>
<path d="M120.63 71.0957V63.823H123.087C123.658 63.823 124.124 63.926 124.486 64.1319C124.851 64.3355 125.121 64.6113 125.296 64.9593C125.471 65.3074 125.559 65.6956 125.559 66.1241C125.559 66.5526 125.471 66.9421 125.296 67.2924C125.123 67.6428 124.856 67.9222 124.493 68.1305C124.131 68.3365 123.667 68.4395 123.101 68.4395H121.34V67.6582H123.073C123.464 67.6582 123.777 67.5907 124.014 67.4558C124.251 67.3208 124.422 67.1386 124.529 66.9089C124.638 66.6769 124.692 66.4153 124.692 66.1241C124.692 65.8329 124.638 65.5725 124.529 65.3429C124.422 65.1132 124.249 64.9333 124.01 64.8031C123.771 64.6705 123.454 64.6042 123.059 64.6042H121.51V71.0957H120.63ZM126.864 71.0957V65.6412H127.673V66.465H127.73C127.83 66.1951 128.01 65.9761 128.27 65.8081C128.53 65.64 128.824 65.5559 129.151 65.5559C129.212 65.5559 129.289 65.5571 129.381 65.5595C129.474 65.5618 129.544 65.5654 129.591 65.5701V66.4224C129.563 66.4153 129.497 66.4047 129.396 66.3904C129.296 66.3739 129.191 66.3656 129.08 66.3656C128.814 66.3656 128.578 66.4212 128.369 66.5325C128.163 66.6414 128 66.7929 127.879 66.987C127.761 67.1788 127.702 67.3978 127.702 67.644V71.0957H126.864ZM132.634 71.2093C132.142 71.2093 131.71 71.0922 131.338 70.8578C130.969 70.6234 130.68 70.2955 130.472 69.8741C130.266 69.4527 130.163 68.9603 130.163 68.3968C130.163 67.8287 130.266 67.3327 130.472 66.9089C130.68 66.4851 130.969 66.1561 131.338 65.9217C131.71 65.6873 132.142 65.5701 132.634 65.5701C133.127 65.5701 133.558 65.6873 133.927 65.9217C134.299 66.1561 134.587 66.4851 134.793 66.9089C135.002 67.3327 135.106 67.8287 135.106 68.3968C135.106 68.9603 135.002 69.4527 134.793 69.8741C134.587 70.2955 134.299 70.6234 133.927 70.8578C133.558 71.0922 133.127 71.2093 132.634 71.2093ZM132.634 70.4565C133.008 70.4565 133.316 70.3606 133.558 70.1689C133.799 69.9771 133.978 69.725 134.094 69.4125C134.21 69.1 134.268 68.7614 134.268 68.3968C134.268 68.0323 134.21 67.6925 134.094 67.3777C133.978 67.0628 133.799 66.8083 133.558 66.6142C133.316 66.42 133.008 66.323 132.634 66.323C132.26 66.323 131.953 66.42 131.711 66.6142C131.47 66.8083 131.291 67.0628 131.175 67.3777C131.059 67.6925 131.001 68.0323 131.001 68.3968C131.001 68.7614 131.059 69.1 131.175 69.4125C131.291 69.725 131.47 69.9771 131.711 70.1689C131.953 70.3606 132.26 70.4565 132.634 70.4565ZM136.73 73.1412C136.588 73.1412 136.461 73.1293 136.35 73.1056C136.238 73.0843 136.161 73.063 136.119 73.0417L136.332 72.3031C136.536 72.3552 136.715 72.3741 136.872 72.3599C137.028 72.3457 137.166 72.2759 137.287 72.1504C137.41 72.0273 137.523 71.8272 137.625 71.5502L137.781 71.1241L135.764 65.6412H136.673L138.179 69.9877H138.235L139.741 65.6412H140.65L138.335 71.8912C138.231 72.1729 138.102 72.4061 137.948 72.5907C137.794 72.7778 137.615 72.9163 137.411 73.0062C137.21 73.0962 136.983 73.1412 136.73 73.1412ZM143.848 71.2093C143.322 71.2093 142.869 71.0933 142.488 70.8613C142.109 70.627 141.817 70.3002 141.611 69.8812C141.407 69.4598 141.305 68.9698 141.305 68.411C141.305 67.8523 141.407 67.3599 141.611 66.9338C141.817 66.5053 142.103 66.1715 142.47 65.9324C142.839 65.6909 143.27 65.5701 143.763 65.5701C144.047 65.5701 144.327 65.6175 144.604 65.7122C144.881 65.8069 145.133 65.9608 145.361 66.1738C145.588 66.3845 145.769 66.6639 145.904 67.0119C146.039 67.3599 146.106 67.7884 146.106 68.2974V68.6525H141.902V67.9281H145.254C145.254 67.6203 145.193 67.3457 145.07 67.1042C144.949 66.8627 144.776 66.6722 144.551 66.5325C144.329 66.3928 144.066 66.323 143.763 66.323C143.429 66.323 143.14 66.4058 142.896 66.5716C142.655 66.7349 142.469 66.948 142.339 67.2108C142.208 67.4735 142.143 67.7553 142.143 68.0559V68.5389C142.143 68.9508 142.214 69.3 142.356 69.5865C142.501 69.8706 142.701 70.0872 142.957 70.2363C143.212 70.3831 143.509 70.4565 143.848 70.4565C144.068 70.4565 144.267 70.4257 144.445 70.3642C144.624 70.3002 144.78 70.2056 144.91 70.0801C145.04 69.9522 145.141 69.7936 145.212 69.6042L146.021 69.8315C145.936 70.1061 145.793 70.3476 145.592 70.5559C145.39 70.7619 145.142 70.9229 144.846 71.0389C144.55 71.1525 144.217 71.2093 143.848 71.2093ZM149.597 71.2093C149.086 71.2093 148.646 71.0886 148.276 70.8471C147.907 70.6056 147.623 70.273 147.424 69.8493C147.225 69.4255 147.126 68.9413 147.126 68.3968C147.126 67.8429 147.227 67.354 147.431 66.9302C147.637 66.5041 147.923 66.1715 148.29 65.9324C148.66 65.6909 149.091 65.5701 149.583 65.5701C149.967 65.5701 150.312 65.6412 150.62 65.7832C150.928 65.9252 151.18 66.1241 151.376 66.3798C151.573 66.6355 151.695 66.9338 151.742 67.2747H150.904C150.84 67.0261 150.698 66.8059 150.478 66.6142C150.26 66.42 149.967 66.323 149.597 66.323C149.271 66.323 148.984 66.4082 148.738 66.5787C148.494 66.7467 148.303 66.9847 148.166 67.2924C148.031 67.5978 147.964 67.9565 147.964 68.3684C147.964 68.7898 148.03 69.1568 148.163 69.4693C148.297 69.7818 148.487 70.0244 148.731 70.1973C148.977 70.3701 149.266 70.4565 149.597 70.4565C149.815 70.4565 150.013 70.4186 150.19 70.3429C150.368 70.2671 150.518 70.1582 150.641 70.0162C150.764 69.8741 150.852 69.7037 150.904 69.5048H151.742C151.695 69.8268 151.578 70.1168 151.391 70.3748C151.206 70.6305 150.961 70.8341 150.655 70.9856C150.352 71.1348 150 71.2093 149.597 71.2093ZM155.339 65.6412V66.3514H152.513V65.6412H155.339ZM153.337 64.3343H154.175V69.5332C154.175 69.7699 154.209 69.9475 154.278 70.0659C154.349 70.1819 154.439 70.26 154.547 70.3002C154.659 70.3381 154.776 70.3571 154.899 70.3571C154.991 70.3571 155.067 70.3523 155.126 70.3429C155.186 70.331 155.233 70.3216 155.268 70.3145L155.439 71.0673C155.382 71.0886 155.303 71.1099 155.201 71.1312C155.099 71.1549 154.97 71.1667 154.814 71.1667C154.577 71.1667 154.345 71.1158 154.118 71.014C153.893 70.9122 153.706 70.7572 153.557 70.5488C153.41 70.3405 153.337 70.0777 153.337 69.7605V64.3343ZM158.757 71.2093C158.265 71.2093 157.833 71.0922 157.461 70.8578C157.092 70.6234 156.803 70.2955 156.595 69.8741C156.389 69.4527 156.286 68.9603 156.286 68.3968C156.286 67.8287 156.389 67.3327 156.595 66.9089C156.803 66.4851 157.092 66.1561 157.461 65.9217C157.833 65.6873 158.265 65.5701 158.757 65.5701C159.25 65.5701 159.681 65.6873 160.05 65.9217C160.422 66.1561 160.71 66.4851 160.916 66.9089C161.125 67.3327 161.229 67.8287 161.229 68.3968C161.229 68.9603 161.125 69.4527 160.916 69.8741C160.71 70.2955 160.422 70.6234 160.05 70.8578C159.681 71.0922 159.25 71.2093 158.757 71.2093ZM158.757 70.4565C159.131 70.4565 159.439 70.3606 159.681 70.1689C159.922 69.9771 160.101 69.725 160.217 69.4125C160.333 69.1 160.391 68.7614 160.391 68.3968C160.391 68.0323 160.333 67.6925 160.217 67.3777C160.101 67.0628 159.922 66.8083 159.681 66.6142C159.439 66.42 159.131 66.323 158.757 66.323C158.383 66.323 158.076 66.42 157.834 66.6142C157.593 66.8083 157.414 67.0628 157.298 67.3777C157.182 67.6925 157.124 68.0323 157.124 68.3968C157.124 68.7614 157.182 69.1 157.298 69.4125C157.414 69.725 157.593 69.9771 157.834 70.1689C158.076 70.3606 158.383 70.4565 158.757 70.4565ZM166.372 66.8627L165.619 67.0758C165.572 66.9503 165.502 66.8284 165.41 66.71C165.32 66.5893 165.196 66.4899 165.04 66.4118C164.884 66.3336 164.684 66.2946 164.44 66.2946C164.106 66.2946 163.828 66.3715 163.606 66.5254C163.385 66.6769 163.275 66.8699 163.275 67.1042C163.275 67.3126 163.351 67.4771 163.503 67.5978C163.654 67.7186 163.891 67.8192 164.213 67.8997L165.022 68.0985C165.51 68.2169 165.874 68.398 166.113 68.6419C166.352 68.8833 166.471 69.1947 166.471 69.5758C166.471 69.8883 166.381 70.1677 166.201 70.4139C166.024 70.6601 165.775 70.8542 165.456 70.9963C165.136 71.1383 164.764 71.2093 164.341 71.2093C163.784 71.2093 163.324 71.0886 162.959 70.8471C162.595 70.6056 162.364 70.2529 162.267 69.7889L163.062 69.59C163.138 69.8836 163.281 70.1038 163.492 70.2505C163.705 70.3973 163.983 70.4707 164.326 70.4707C164.717 70.4707 165.027 70.3878 165.257 70.2221C165.489 70.054 165.605 69.8528 165.605 69.6184C165.605 69.429 165.539 69.2704 165.406 69.1426C165.273 69.0124 165.07 68.9153 164.795 68.8514L163.886 68.6383C163.387 68.5199 163.02 68.3365 162.785 68.0879C162.553 67.8369 162.437 67.5233 162.437 67.1468C162.437 66.8391 162.524 66.5668 162.696 66.3301C162.872 66.0933 163.11 65.9075 163.41 65.7725C163.713 65.6376 164.057 65.5701 164.44 65.5701C164.98 65.5701 165.404 65.6885 165.711 65.9252C166.022 66.162 166.242 66.4745 166.372 66.8627Z" fill="#A0A3BD"/>
<path d="M229.141 71.0957V63.823H231.684C232.191 63.823 232.609 63.9106 232.938 64.0858C233.267 64.2586 233.512 64.4918 233.673 64.7853C233.834 65.0765 233.914 65.3997 233.914 65.7548C233.914 66.0673 233.859 66.3253 233.747 66.5289C233.638 66.7325 233.494 66.8935 233.314 67.0119C233.136 67.1303 232.944 67.2179 232.735 67.2747V67.3457C232.958 67.3599 233.181 67.438 233.406 67.5801C233.631 67.7221 233.819 67.9257 233.971 68.1909C234.122 68.456 234.198 68.7804 234.198 69.1639C234.198 69.5285 234.115 69.8564 233.95 70.1475C233.784 70.4387 233.522 70.6696 233.165 70.84C232.807 71.0105 232.342 71.0957 231.769 71.0957H229.141ZM230.022 70.3145H231.769C232.345 70.3145 232.753 70.2032 232.994 69.9806C233.238 69.7557 233.36 69.4835 233.36 69.1639C233.36 68.9177 233.297 68.6904 233.172 68.4821C233.046 68.2714 232.868 68.1033 232.636 67.9778C232.404 67.85 232.129 67.786 231.812 67.786H230.022V70.3145ZM230.022 67.019H231.656C231.921 67.019 232.16 66.9669 232.373 66.8627C232.588 66.7586 232.759 66.6118 232.884 66.4224C233.012 66.233 233.076 66.0105 233.076 65.7548C233.076 65.4352 232.965 65.1641 232.742 64.9416C232.52 64.7167 232.167 64.6042 231.684 64.6042H230.022V67.019ZM235.532 71.0957V65.6412H236.37V71.0957H235.532ZM235.958 64.7321C235.794 64.7321 235.654 64.6764 235.535 64.5652C235.419 64.4539 235.361 64.3201 235.361 64.1639C235.361 64.0076 235.419 63.8739 235.535 63.7626C235.654 63.6513 235.794 63.5957 235.958 63.5957C236.121 63.5957 236.261 63.6513 236.377 63.7626C236.495 63.8739 236.554 64.0076 236.554 64.1639C236.554 64.3201 236.495 64.4539 236.377 64.5652C236.261 64.6764 236.121 64.7321 235.958 64.7321ZM238.743 63.823V71.0957H237.905V63.823H238.743ZM241.116 63.823V71.0957H240.278V63.823H241.116ZM244.938 71.2093C244.412 71.2093 243.959 71.0933 243.578 70.8613C243.199 70.627 242.907 70.3002 242.701 69.8812C242.497 69.4598 242.395 68.9698 242.395 68.411C242.395 67.8523 242.497 67.3599 242.701 66.9338C242.907 66.5053 243.193 66.1715 243.56 65.9324C243.929 65.6909 244.36 65.5701 244.853 65.5701C245.137 65.5701 245.417 65.6175 245.694 65.7122C245.971 65.8069 246.223 65.9608 246.451 66.1738C246.678 66.3845 246.859 66.6639 246.994 67.0119C247.129 67.3599 247.196 67.7884 247.196 68.2974V68.6525H242.992V67.9281H246.344C246.344 67.6203 246.282 67.3457 246.159 67.1042C246.039 66.8627 245.866 66.6722 245.641 66.5325C245.418 66.3928 245.156 66.323 244.853 66.323C244.519 66.323 244.23 66.4058 243.986 66.5716C243.745 66.7349 243.559 66.948 243.429 67.2108C243.298 67.4735 243.233 67.7553 243.233 68.0559V68.5389C243.233 68.9508 243.304 69.3 243.446 69.5865C243.591 69.8706 243.791 70.0872 244.046 70.2363C244.302 70.3831 244.599 70.4565 244.938 70.4565C245.158 70.4565 245.357 70.4257 245.534 70.3642C245.714 70.3002 245.869 70.2056 246 70.0801C246.13 69.9522 246.23 69.7936 246.301 69.6042L247.111 69.8315C247.026 70.1061 246.883 70.3476 246.681 70.5559C246.48 70.7619 246.232 70.9229 245.936 71.0389C245.64 71.1525 245.307 71.2093 244.938 71.2093ZM250.843 65.6412V66.3514H248.017V65.6412H250.843ZM248.84 64.3343H249.679V69.5332C249.679 69.7699 249.713 69.9475 249.782 70.0659C249.853 70.1819 249.943 70.26 250.051 70.3002C250.163 70.3381 250.28 70.3571 250.403 70.3571C250.495 70.3571 250.571 70.3523 250.63 70.3429C250.689 70.331 250.737 70.3216 250.772 70.3145L250.943 71.0673C250.886 71.0886 250.807 71.1099 250.705 71.1312C250.603 71.1549 250.474 71.1667 250.318 71.1667C250.081 71.1667 249.849 71.1158 249.622 71.014C249.397 70.9122 249.21 70.7572 249.061 70.5488C248.914 70.3405 248.84 70.0777 248.84 69.7605V64.3343ZM254.332 71.2093C253.807 71.2093 253.353 71.0933 252.972 70.8613C252.593 70.627 252.301 70.3002 252.095 69.8812C251.891 69.4598 251.79 68.9698 251.79 68.411C251.79 67.8523 251.891 67.3599 252.095 66.9338C252.301 66.5053 252.588 66.1715 252.954 65.9324C253.324 65.6909 253.755 65.5701 254.247 65.5701C254.531 65.5701 254.812 65.6175 255.089 65.7122C255.366 65.8069 255.618 65.9608 255.845 66.1738C256.072 66.3845 256.253 66.6639 256.388 67.0119C256.523 67.3599 256.591 67.7884 256.591 68.2974V68.6525H252.386V67.9281H255.739C255.739 67.6203 255.677 67.3457 255.554 67.1042C255.433 66.8627 255.26 66.6722 255.035 66.5325C254.813 66.3928 254.55 66.323 254.247 66.323C253.913 66.323 253.624 66.4058 253.381 66.5716C253.139 66.7349 252.953 66.948 252.823 67.2108C252.693 67.4735 252.628 67.7553 252.628 68.0559V68.5389C252.628 68.9508 252.699 69.3 252.841 69.5865C252.985 69.8706 253.185 70.0872 253.441 70.2363C253.697 70.3831 253.994 70.4565 254.332 70.4565C254.552 70.4565 254.751 70.4257 254.929 70.3642C255.109 70.3002 255.264 70.2056 255.394 70.0801C255.524 69.9522 255.625 69.7936 255.696 69.6042L256.506 69.8315C256.42 70.1061 256.277 70.3476 256.076 70.5559C255.875 70.7619 255.626 70.9229 255.33 71.0389C255.034 71.1525 254.702 71.2093 254.332 71.2093ZM257.866 71.0957V65.6412H258.675V66.465H258.732C258.832 66.1951 259.012 65.9761 259.272 65.8081C259.532 65.64 259.826 65.5559 260.153 65.5559C260.214 65.5559 260.291 65.5571 260.383 65.5595C260.476 65.5618 260.546 65.5654 260.593 65.5701V66.4224C260.565 66.4153 260.499 66.4047 260.398 66.3904C260.298 66.3739 260.193 66.3656 260.082 66.3656C259.816 66.3656 259.58 66.4212 259.371 66.5325C259.165 66.6414 259.002 66.7929 258.881 66.987C258.763 67.1788 258.704 67.3978 258.704 67.644V71.0957H257.866ZM263.191 71.2235C262.846 71.2235 262.532 71.1584 262.25 71.0282C261.969 70.8957 261.745 70.7051 261.579 70.4565C261.414 70.2056 261.331 69.9025 261.331 69.5474C261.331 69.2349 261.392 68.9816 261.515 68.7875C261.638 68.591 261.803 68.4371 262.009 68.3258C262.215 68.2145 262.442 68.1317 262.691 68.0772C262.942 68.0204 263.194 67.9754 263.447 67.9423C263.779 67.8997 264.047 67.8677 264.253 67.8464C264.462 67.8227 264.613 67.7837 264.708 67.7292C264.805 67.6748 264.853 67.5801 264.853 67.4451V67.4167C264.853 67.0663 264.758 66.7941 264.566 66.6C264.376 66.4058 264.089 66.3088 263.703 66.3088C263.303 66.3088 262.989 66.3964 262.762 66.5716C262.535 66.7467 262.375 66.9338 262.282 67.1326L261.487 66.8485C261.629 66.5171 261.818 66.2591 262.055 66.0744C262.294 65.8874 262.555 65.7572 262.836 65.6838C263.12 65.608 263.4 65.5701 263.674 65.5701C263.85 65.5701 264.051 65.5914 264.278 65.6341C264.508 65.6743 264.729 65.7583 264.942 65.8862C265.158 66.014 265.336 66.207 265.478 66.465C265.62 66.7231 265.691 67.0687 265.691 67.502V71.0957H264.853V70.3571H264.811C264.754 70.4754 264.659 70.6021 264.527 70.737C264.394 70.872 264.218 70.9868 263.998 71.0815C263.777 71.1762 263.509 71.2235 263.191 71.2235ZM263.319 70.4707C263.651 70.4707 263.93 70.4056 264.157 70.2754C264.387 70.1452 264.56 69.9771 264.676 69.7711C264.794 69.5652 264.853 69.3485 264.853 69.1213V68.3542C264.818 68.3968 264.74 68.4359 264.619 68.4714C264.501 68.5046 264.363 68.5341 264.207 68.5602C264.053 68.5839 263.903 68.6052 263.756 68.6241C263.612 68.6407 263.495 68.6549 263.405 68.6667C263.187 68.6951 262.983 68.7413 262.794 68.8052C262.607 68.8668 262.455 68.9603 262.339 69.0858C262.226 69.2089 262.169 69.377 262.169 69.59C262.169 69.8812 262.276 70.1014 262.492 70.2505C262.71 70.3973 262.986 70.4707 263.319 70.4707Z" fill="#389BEC"/>
<path d="M339.977 71.0957V63.823H342.435C343.005 63.823 343.472 63.926 343.834 64.1319C344.198 64.3355 344.468 64.6113 344.644 64.9593C344.819 65.3074 344.906 65.6956 344.906 66.1241C344.906 66.5526 344.819 66.9421 344.644 67.2924C344.471 67.6428 344.203 67.9222 343.841 68.1305C343.479 68.3365 343.015 68.4395 342.449 68.4395H340.688V67.6582H342.421C342.811 67.6582 343.125 67.5907 343.362 67.4558C343.598 67.3208 343.77 67.1386 343.877 66.9089C343.985 66.6769 344.04 66.4153 344.04 66.1241C344.04 65.8329 343.985 65.5725 343.877 65.3429C343.77 65.1132 343.597 64.9333 343.358 64.8031C343.119 64.6705 342.802 64.6042 342.406 64.6042H340.858V71.0957H339.977ZM348.44 71.2093C347.914 71.2093 347.461 71.0933 347.08 70.8613C346.701 70.627 346.408 70.3002 346.203 69.8812C345.999 69.4598 345.897 68.9698 345.897 68.411C345.897 67.8523 345.999 67.3599 346.203 66.9338C346.408 66.5053 346.695 66.1715 347.062 65.9324C347.431 65.6909 347.862 65.5701 348.354 65.5701C348.639 65.5701 348.919 65.6175 349.196 65.7122C349.473 65.8069 349.725 65.9608 349.953 66.1738C350.18 66.3845 350.361 66.6639 350.496 67.0119C350.631 67.3599 350.698 67.7884 350.698 68.2974V68.6525H346.494V67.9281H349.846C349.846 67.6203 349.784 67.3457 349.661 67.1042C349.541 66.8627 349.368 66.6722 349.143 66.5325C348.92 66.3928 348.658 66.323 348.354 66.323C348.021 66.323 347.732 66.4058 347.488 66.5716C347.247 66.7349 347.061 66.948 346.93 67.2108C346.8 67.4735 346.735 67.7553 346.735 68.0559V68.5389C346.735 68.9508 346.806 69.3 346.948 69.5865C347.093 69.8706 347.293 70.0872 347.548 70.2363C347.804 70.3831 348.101 70.4565 348.44 70.4565C348.66 70.4565 348.859 70.4257 349.036 70.3642C349.216 70.3002 349.371 70.2056 349.502 70.0801C349.632 69.9522 349.732 69.7936 349.803 69.6042L350.613 69.8315C350.528 70.1061 350.385 70.3476 350.183 70.5559C349.982 70.7619 349.734 70.9229 349.438 71.0389C349.142 71.1525 348.809 71.2093 348.44 71.2093ZM351.973 71.0957V65.6412H352.783V66.465H352.84C352.939 66.1951 353.119 65.9761 353.379 65.8081C353.64 65.64 353.933 65.5559 354.26 65.5559C354.322 65.5559 354.399 65.5571 354.491 65.5595C354.583 65.5618 354.653 65.5654 354.7 65.5701V66.4224C354.672 66.4153 354.607 66.4047 354.505 66.3904C354.406 66.3739 354.3 66.3656 354.189 66.3656C353.924 66.3656 353.687 66.4212 353.479 66.5325C353.273 66.6414 353.109 66.7929 352.989 66.987C352.87 67.1788 352.811 67.3978 352.811 67.644V71.0957H351.973ZM358.465 65.6412V66.3514H355.524V65.6412H358.465ZM356.405 71.0957V64.8883C356.405 64.5758 356.478 64.3154 356.625 64.1071C356.772 63.8987 356.962 63.7425 357.197 63.6383C357.431 63.5341 357.679 63.4821 357.939 63.4821C358.145 63.4821 358.313 63.4986 358.443 63.5318C358.573 63.5649 358.671 63.5957 358.734 63.6241L358.493 64.3485C358.45 64.3343 358.391 64.3166 358.315 64.2953C358.242 64.274 358.145 64.2633 358.024 64.2633C357.747 64.2633 357.547 64.3332 357.424 64.4728C357.303 64.6125 357.243 64.8173 357.243 65.0872V71.0957H356.405ZM359.639 71.0957V65.6412H360.477V71.0957H359.639ZM360.065 64.7321C359.902 64.7321 359.761 64.6764 359.643 64.5652C359.527 64.4539 359.469 64.3201 359.469 64.1639C359.469 64.0076 359.527 63.8739 359.643 63.7626C359.761 63.6513 359.902 63.5957 360.065 63.5957C360.229 63.5957 360.368 63.6513 360.484 63.7626C360.603 63.8739 360.662 64.0076 360.662 64.1639C360.662 64.3201 360.603 64.4539 360.484 64.5652C360.368 64.6764 360.229 64.7321 360.065 64.7321ZM362.85 63.823V71.0957H362.012V63.823H362.85Z" fill="#A0A3BD"/>
<path d="M256.453 37.1406L239.296 37.1406C237.622 37.1406 236.266 38.4972 236.266 40.1706V54.3367C236.266 56.0101 237.622 57.3667 239.296 57.3667H255.419C257.092 57.3667 258.449 56.0101 258.449 54.3367V44.1213C258.449 42.4479 257.092 41.0913 255.419 41.0913H238.77C237.654 41.0913 236.75 40.1871 236.75 39.0716V39.0716" stroke="#9BCDF5" stroke-width="2.02" stroke-linecap="round" stroke-linejoin="round"/>
<rect width="70" height="2" transform="matrix(1 0 0 -1 212.357 21.0957)" fill="#55B3FF"/>
</g>
<defs>
<filter id="filter0_d_1714_37485" x="-12.6426" y="0.0957031" width="416" height="101" filterUnits="userSpaceOnUse" color-interpolation-filters="sRGB">
<feFlood flood-opacity="0" result="BackgroundImageFix"/>
<feColorMatrix in="SourceAlpha" type="matrix" values="0 0 0 0 0 0 0 0 0 0 0 0 0 0 0 0 0 0 127 0" result="hardAlpha"/>
<feOffset dy="-6"/>
<feGaussianBlur stdDeviation="6.5"/>
<feComposite in2="hardAlpha" operator="out"/>
<feColorMatrix type="matrix" values="0 0 0 0 0 0 0 0 0 0 0 0 0 0 0 0 0 0 0.04 0"/>
<feBlend mode="normal" in2="BackgroundImageFix" result="effect1_dropShadow_1714_37485"/>
<feBlend mode="normal" in="SourceGraphic" in2="effect1_dropShadow_1714_37485" result="shape"/>
</filter>
</defs>
</svg>
