<svg width="391" height="94" viewBox="0 0 391 94" fill="none" xmlns="http://www.w3.org/2000/svg">
<g filter="url(#filter0_d_1592_24109)">
<path d="M0.900391 19H390.9V94H0.900391V19Z" fill="white"/>
<path d="M335.935 55.7421L336.106 54.642C336.314 53.3011 337.189 52.1526 338.485 51.7511C340.095 51.2525 342.486 50.6855 345.036 50.6855C347.586 50.6855 349.978 51.2525 351.587 51.7511C352.884 52.1526 353.758 53.3011 353.967 54.642L354.138 55.7421" stroke="#CFD1DE" stroke-width="2.02261" stroke-linecap="round" stroke-linejoin="round"/>
<path d="M345.036 46.1365C347.829 46.1365 350.093 43.8726 350.093 41.08C350.093 38.2873 347.829 36.0234 345.036 36.0234C342.243 36.0234 339.979 38.2873 339.979 41.08C339.979 43.8726 342.243 46.1365 345.036 46.1365Z" stroke="#CFD1DE" stroke-width="2.02261" stroke-linecap="round" stroke-linejoin="round"/>
<path d="M332.656 71V63.7273H335.113C335.684 63.7273 336.15 63.8303 336.513 64.0362C336.877 64.2398 337.147 64.5156 337.322 64.8636C337.497 65.2116 337.585 65.5999 337.585 66.0284C337.585 66.4569 337.497 66.8464 337.322 67.1967C337.149 67.5471 336.882 67.8265 336.52 68.0348C336.157 68.2408 335.693 68.3438 335.128 68.3438H333.366V67.5625H335.099C335.49 67.5625 335.804 67.495 336.04 67.3601C336.277 67.2251 336.449 67.0429 336.555 66.8132C336.664 66.5812 336.719 66.3196 336.719 66.0284C336.719 65.7372 336.664 65.4768 336.555 65.2472C336.449 65.0175 336.276 64.8376 336.037 64.7074C335.798 64.5748 335.48 64.5085 335.085 64.5085H333.537V71H332.656ZM341.118 71.1136C340.593 71.1136 340.14 70.9976 339.758 70.7656C339.38 70.5312 339.087 70.2045 338.881 69.7855C338.678 69.3641 338.576 68.8741 338.576 68.3153C338.576 67.7566 338.678 67.2642 338.881 66.8381C339.087 66.4096 339.374 66.0758 339.741 65.8366C340.11 65.5952 340.541 65.4744 341.033 65.4744C341.317 65.4744 341.598 65.5218 341.875 65.6165C342.152 65.7112 342.404 65.8651 342.631 66.0781C342.858 66.2888 343.04 66.5682 343.175 66.9162C343.309 67.2642 343.377 67.6927 343.377 68.2017V68.5568H339.172V67.8324H342.525C342.525 67.5246 342.463 67.25 342.34 67.0085C342.219 66.767 342.046 66.5765 341.822 66.4368C341.599 66.2971 341.336 66.2273 341.033 66.2273C340.699 66.2273 340.411 66.3101 340.167 66.4759C339.925 66.6392 339.739 66.8523 339.609 67.1151C339.479 67.3778 339.414 67.6596 339.414 67.9602V68.4432C339.414 68.8551 339.485 69.2043 339.627 69.4908C339.771 69.7749 339.971 69.9915 340.227 70.1406C340.483 70.2874 340.78 70.3608 341.118 70.3608C341.339 70.3608 341.537 70.33 341.715 70.2685C341.895 70.2045 342.05 70.1098 342.18 69.9844C342.31 69.8565 342.411 69.6979 342.482 69.5085L343.292 69.7358C343.206 70.0104 343.063 70.2519 342.862 70.4602C342.661 70.6662 342.412 70.8272 342.116 70.9432C341.82 71.0568 341.488 71.1136 341.118 71.1136ZM344.652 71V65.5455H345.461V66.3693H345.518C345.618 66.0994 345.798 65.8804 346.058 65.7124C346.318 65.5443 346.612 65.4602 346.939 65.4602C347 65.4602 347.077 65.4614 347.17 65.4638C347.262 65.4661 347.332 65.4697 347.379 65.4744V66.3267C347.351 66.3196 347.286 66.3089 347.184 66.2947C347.084 66.2782 346.979 66.2699 346.868 66.2699C346.603 66.2699 346.366 66.3255 346.157 66.4368C345.952 66.5457 345.788 66.6972 345.667 66.8913C345.549 67.0831 345.49 67.3021 345.49 67.5483V71H344.652ZM351.143 65.5455V66.2557H348.203V65.5455H351.143ZM349.084 71V64.7926C349.084 64.4801 349.157 64.2197 349.304 64.0114C349.451 63.803 349.641 63.6468 349.876 63.5426C350.11 63.4384 350.357 63.3864 350.618 63.3864C350.824 63.3864 350.992 63.4029 351.122 63.4361C351.252 63.4692 351.349 63.5 351.413 63.5284L351.172 64.2528C351.129 64.2386 351.07 64.2209 350.994 64.1996C350.921 64.1783 350.824 64.1676 350.703 64.1676C350.426 64.1676 350.226 64.2375 350.103 64.3771C349.982 64.5168 349.922 64.7216 349.922 64.9915V71H349.084ZM352.318 71V65.5455H353.156V71H352.318ZM352.744 64.6364C352.581 64.6364 352.44 64.5807 352.321 64.4695C352.205 64.3582 352.147 64.2244 352.147 64.0682C352.147 63.9119 352.205 63.7782 352.321 63.6669C352.44 63.5556 352.581 63.5 352.744 63.5C352.907 63.5 353.047 63.5556 353.163 63.6669C353.281 63.7782 353.341 63.9119 353.341 64.0682C353.341 64.2244 353.281 64.3582 353.163 64.4695C353.047 64.5807 352.907 64.6364 352.744 64.6364ZM355.529 63.7273V71H354.691V63.7273H355.529Z" fill="#CFD1DE"/>
<path d="M142.98 37.0332H141.968C140.293 37.0332 138.935 38.3915 138.935 40.0671V54.2254C138.935 55.9009 140.293 57.2593 141.968 57.2593H154.104C155.78 57.2593 157.138 55.9009 157.138 54.2254V40.0671C157.138 38.3915 155.78 37.0332 154.104 37.0332H153.093" stroke="#CFD1DE" stroke-width="2.02261"/>
<rect x="142.979" y="35.0117" width="10.113" height="5.05651" rx="2.02261" stroke="#CFD1DE" stroke-width="2.02261"/>
<path d="M125.308 71V63.7273H127.766C128.336 63.7273 128.803 63.8303 129.165 64.0362C129.53 64.2398 129.799 64.5156 129.975 64.8636C130.15 65.2116 130.237 65.5999 130.237 66.0284C130.237 66.4569 130.15 66.8464 129.975 67.1967C129.802 67.5471 129.534 67.8265 129.172 68.0348C128.81 68.2408 128.346 68.3438 127.78 68.3438H126.019V67.5625H127.752C128.142 67.5625 128.456 67.495 128.693 67.3601C128.929 67.2251 129.101 67.0429 129.208 66.8132C129.316 66.5812 129.371 66.3196 129.371 66.0284C129.371 65.7372 129.316 65.4768 129.208 65.2472C129.101 65.0175 128.928 64.8376 128.689 64.7074C128.45 64.5748 128.133 64.5085 127.737 64.5085H126.189V71H125.308ZM131.542 71V65.5455H132.352V66.3693H132.409C132.508 66.0994 132.688 65.8804 132.949 65.7124C133.209 65.5443 133.503 65.4602 133.829 65.4602C133.891 65.4602 133.968 65.4614 134.06 65.4638C134.153 65.4661 134.222 65.4697 134.27 65.4744V66.3267C134.241 66.3196 134.176 66.3089 134.074 66.2947C133.975 66.2782 133.87 66.2699 133.758 66.2699C133.493 66.2699 133.256 66.3255 133.048 66.4368C132.842 66.5457 132.679 66.6972 132.558 66.8913C132.44 67.0831 132.381 67.3021 132.381 67.5483V71H131.542ZM137.313 71.1136C136.821 71.1136 136.389 70.9964 136.017 70.7621C135.648 70.5277 135.359 70.1998 135.15 69.7784C134.944 69.357 134.841 68.8646 134.841 68.3011C134.841 67.733 134.944 67.237 135.15 66.8132C135.359 66.3894 135.648 66.0604 136.017 65.826C136.389 65.5916 136.821 65.4744 137.313 65.4744C137.805 65.4744 138.236 65.5916 138.606 65.826C138.977 66.0604 139.266 66.3894 139.472 66.8132C139.68 67.237 139.785 67.733 139.785 68.3011C139.785 68.8646 139.68 69.357 139.472 69.7784C139.266 70.1998 138.977 70.5277 138.606 70.7621C138.236 70.9964 137.805 71.1136 137.313 71.1136ZM137.313 70.3608C137.687 70.3608 137.995 70.2649 138.236 70.0732C138.478 69.8814 138.657 69.6293 138.773 69.3168C138.889 69.0043 138.947 68.6657 138.947 68.3011C138.947 67.9366 138.889 67.5968 138.773 67.282C138.657 66.9671 138.478 66.7126 138.236 66.5185C137.995 66.3243 137.687 66.2273 137.313 66.2273C136.939 66.2273 136.631 66.3243 136.39 66.5185C136.148 66.7126 135.97 66.9671 135.854 67.282C135.738 67.5968 135.68 67.9366 135.68 68.3011C135.68 68.6657 135.738 69.0043 135.854 69.3168C135.97 69.6293 136.148 69.8814 136.39 70.0732C136.631 70.2649 136.939 70.3608 137.313 70.3608ZM141.408 73.0455C141.266 73.0455 141.14 73.0336 141.028 73.0099C140.917 72.9886 140.84 72.9673 140.798 72.946L141.011 72.2074C141.214 72.2595 141.394 72.2784 141.55 72.2642C141.707 72.25 141.845 72.1802 141.966 72.0547C142.089 71.9316 142.201 71.7315 142.303 71.4545L142.46 71.0284L140.442 65.5455H141.352L142.857 69.892H142.914L144.42 65.5455H145.329L143.013 71.7955C142.909 72.0772 142.78 72.3104 142.626 72.495C142.473 72.6821 142.294 72.8205 142.09 72.9105C141.889 73.0005 141.662 73.0455 141.408 73.0455ZM148.527 71.1136C148.001 71.1136 147.548 70.9976 147.167 70.7656C146.788 70.5312 146.495 70.2045 146.289 69.7855C146.086 69.3641 145.984 68.8741 145.984 68.3153C145.984 67.7566 146.086 67.2642 146.289 66.8381C146.495 66.4096 146.782 66.0758 147.149 65.8366C147.518 65.5952 147.949 65.4744 148.441 65.4744C148.725 65.4744 149.006 65.5218 149.283 65.6165C149.56 65.7112 149.812 65.8651 150.039 66.0781C150.267 66.2888 150.448 66.5682 150.583 66.9162C150.718 67.2642 150.785 67.6927 150.785 68.2017V68.5568H146.581V67.8324H149.933C149.933 67.5246 149.871 67.25 149.748 67.0085C149.627 66.767 149.455 66.5765 149.23 66.4368C149.007 66.2971 148.744 66.2273 148.441 66.2273C148.108 66.2273 147.819 66.3101 147.575 66.4759C147.333 66.6392 147.148 66.8523 147.017 67.1151C146.887 67.3778 146.822 67.6596 146.822 67.9602V68.4432C146.822 68.8551 146.893 69.2043 147.035 69.4908C147.18 69.7749 147.38 69.9915 147.635 70.1406C147.891 70.2874 148.188 70.3608 148.527 70.3608C148.747 70.3608 148.946 70.33 149.123 70.2685C149.303 70.2045 149.458 70.1098 149.588 69.9844C149.719 69.8565 149.819 69.6979 149.89 69.5085L150.7 69.7358C150.615 70.0104 150.471 70.2519 150.27 70.4602C150.069 70.6662 149.82 70.8272 149.525 70.9432C149.229 71.0568 148.896 71.1136 148.527 71.1136ZM154.276 71.1136C153.765 71.1136 153.324 70.9929 152.955 70.7514C152.586 70.5099 152.301 70.1773 152.103 69.7536C151.904 69.3298 151.804 68.8456 151.804 68.3011C151.804 67.7472 151.906 67.2583 152.11 66.8345C152.316 66.4084 152.602 66.0758 152.969 65.8366C153.338 65.5952 153.769 65.4744 154.262 65.4744C154.645 65.4744 154.991 65.5455 155.299 65.6875C155.606 65.8295 155.859 66.0284 156.055 66.2841C156.252 66.5398 156.373 66.8381 156.421 67.179H155.583C155.519 66.9304 155.377 66.7102 155.157 66.5185C154.939 66.3243 154.645 66.2273 154.276 66.2273C153.949 66.2273 153.663 66.3125 153.417 66.483C153.173 66.651 152.982 66.889 152.845 67.1967C152.71 67.5021 152.642 67.8608 152.642 68.2727C152.642 68.6941 152.709 69.0611 152.841 69.3736C152.976 69.6861 153.166 69.9287 153.409 70.1016C153.656 70.2744 153.944 70.3608 154.276 70.3608C154.494 70.3608 154.691 70.3229 154.869 70.2472C155.047 70.1714 155.197 70.0625 155.32 69.9205C155.443 69.7784 155.531 69.608 155.583 69.4091H156.421C156.373 69.7311 156.256 70.0211 156.069 70.2791C155.885 70.5348 155.64 70.7384 155.334 70.8899C155.031 71.0391 154.678 71.1136 154.276 71.1136ZM160.018 65.5455V66.2557H157.191V65.5455H160.018ZM158.015 64.2386H158.853V69.4375C158.853 69.6742 158.888 69.8518 158.956 69.9702C159.027 70.0862 159.117 70.1643 159.226 70.2045C159.337 70.2424 159.455 70.2614 159.578 70.2614C159.67 70.2614 159.746 70.2566 159.805 70.2472C159.864 70.2353 159.912 70.2259 159.947 70.2188L160.118 70.9716C160.061 70.9929 159.981 71.0142 159.88 71.0355C159.778 71.0592 159.649 71.071 159.493 71.071C159.256 71.071 159.024 71.0201 158.797 70.9183C158.572 70.8165 158.385 70.6615 158.235 70.4531C158.089 70.2448 158.015 69.982 158.015 69.6648V64.2386ZM163.436 71.1136C162.944 71.1136 162.512 70.9964 162.14 70.7621C161.771 70.5277 161.482 70.1998 161.273 69.7784C161.067 69.357 160.964 68.8646 160.964 68.3011C160.964 67.733 161.067 67.237 161.273 66.8132C161.482 66.3894 161.771 66.0604 162.14 65.826C162.512 65.5916 162.944 65.4744 163.436 65.4744C163.929 65.4744 164.359 65.5916 164.729 65.826C165.1 66.0604 165.389 66.3894 165.595 66.8132C165.804 67.237 165.908 67.733 165.908 68.3011C165.908 68.8646 165.804 69.357 165.595 69.7784C165.389 70.1998 165.1 70.5277 164.729 70.7621C164.359 70.9964 163.929 71.1136 163.436 71.1136ZM163.436 70.3608C163.81 70.3608 164.118 70.2649 164.359 70.0732C164.601 69.8814 164.78 69.6293 164.896 69.3168C165.012 69.0043 165.07 68.6657 165.07 68.3011C165.07 67.9366 165.012 67.5968 164.896 67.282C164.78 66.9671 164.601 66.7126 164.359 66.5185C164.118 66.3243 163.81 66.2273 163.436 66.2273C163.062 66.2273 162.754 66.3243 162.513 66.5185C162.271 66.7126 162.093 66.9671 161.977 67.282C161.861 67.5968 161.803 67.9366 161.803 68.3011C161.803 68.6657 161.861 69.0043 161.977 69.3168C162.093 69.6293 162.271 69.8814 162.513 70.0732C162.754 70.2649 163.062 70.3608 163.436 70.3608ZM171.051 66.767L170.298 66.9801C170.25 66.8546 170.181 66.7327 170.088 66.6143C169.998 66.4936 169.875 66.3942 169.719 66.3161C169.563 66.2379 169.363 66.1989 169.119 66.1989C168.785 66.1989 168.507 66.2758 168.284 66.4297C168.064 66.5812 167.954 66.7741 167.954 67.0085C167.954 67.2169 168.03 67.3814 168.181 67.5021C168.333 67.6229 168.57 67.7235 168.892 67.804L169.701 68.0028C170.189 68.1212 170.552 68.3023 170.791 68.5462C171.03 68.7876 171.15 69.099 171.15 69.4801C171.15 69.7926 171.06 70.072 170.88 70.3182C170.703 70.5644 170.454 70.7585 170.134 70.9006C169.815 71.0426 169.443 71.1136 169.019 71.1136C168.463 71.1136 168.003 70.9929 167.638 70.7514C167.273 70.5099 167.043 70.1572 166.945 69.6932L167.741 69.4943C167.817 69.7879 167.96 70.008 168.171 70.1548C168.384 70.3016 168.662 70.375 169.005 70.375C169.396 70.375 169.706 70.2921 169.936 70.1264C170.168 69.9583 170.284 69.7571 170.284 69.5227C170.284 69.3333 170.217 69.1747 170.085 69.0469C169.952 68.9167 169.749 68.8196 169.474 68.7557L168.565 68.5426C168.065 68.4242 167.698 68.2408 167.464 67.9922C167.232 67.7412 167.116 67.4276 167.116 67.0511C167.116 66.7434 167.202 66.4711 167.375 66.2344C167.55 65.9976 167.788 65.8118 168.089 65.6768C168.392 65.5419 168.735 65.4744 169.119 65.4744C169.659 65.4744 170.082 65.5928 170.39 65.8295C170.7 66.0663 170.92 66.3788 171.051 66.767Z" fill="#CFD1DE"/>
<path d="M39.9229 43.9751C39.9229 43.0215 40.3762 42.1248 41.144 41.5594L50.0359 35.0117L58.9278 41.5594C59.6956 42.1248 60.1489 43.0215 60.1489 43.9751V54.7604C60.1489 56.1411 59.0296 57.2604 57.6489 57.2604H54.0698C53.5175 57.2604 53.0698 56.8127 53.0698 56.2604V50.1756C53.0698 49.8995 52.8459 49.6756 52.5698 49.6756H47.502C47.2258 49.6756 47.002 49.8995 47.002 50.1756V56.2604C47.002 56.8127 46.5543 57.2604 46.002 57.2604H42.4229C41.0421 57.2604 39.9229 56.1411 39.9229 54.7604V43.9751Z" stroke="#CFD1DE" stroke-width="2.02261" stroke-linecap="round" stroke-linejoin="round"/>
<path d="M36.9764 71V63.7273H37.8571V66.9659H41.7349V63.7273H42.6156V71H41.7349V67.7472H37.8571V71H36.9764ZM46.481 71.1136C45.9886 71.1136 45.5565 70.9964 45.1848 70.7621C44.8155 70.5277 44.5267 70.1998 44.3184 69.7784C44.1124 69.357 44.0094 68.8646 44.0094 68.3011C44.0094 67.733 44.1124 67.237 44.3184 66.8132C44.5267 66.3894 44.8155 66.0604 45.1848 65.826C45.5565 65.5916 45.9886 65.4744 46.481 65.4744C46.9734 65.4744 47.4043 65.5916 47.7736 65.826C48.1453 66.0604 48.4341 66.3894 48.6401 66.8132C48.8484 67.237 48.9526 67.733 48.9526 68.3011C48.9526 68.8646 48.8484 69.357 48.6401 69.7784C48.4341 70.1998 48.1453 70.5277 47.7736 70.7621C47.4043 70.9964 46.9734 71.1136 46.481 71.1136ZM46.481 70.3608C46.8551 70.3608 47.1628 70.2649 47.4043 70.0732C47.6458 69.8814 47.8245 69.6293 47.9405 69.3168C48.0565 69.0043 48.1145 68.6657 48.1145 68.3011C48.1145 67.9366 48.0565 67.5968 47.9405 67.282C47.8245 66.9671 47.6458 66.7126 47.4043 66.5185C47.1628 66.3243 46.8551 66.2273 46.481 66.2273C46.1069 66.2273 45.7992 66.3243 45.5577 66.5185C45.3162 66.7126 45.1375 66.9671 45.0215 67.282C44.9055 67.5968 44.8475 67.9366 44.8475 68.3011C44.8475 68.6657 44.9055 69.0043 45.0215 69.3168C45.1375 69.6293 45.3162 69.8814 45.5577 70.0732C45.7992 70.2649 46.1069 70.3608 46.481 70.3608ZM50.2319 71V65.5455H51.0415V66.3977H51.1126C51.2262 66.1065 51.4097 65.8804 51.663 65.7195C51.9163 65.5561 52.2205 65.4744 52.5756 65.4744C52.9355 65.4744 53.235 65.5561 53.4741 65.7195C53.7156 65.8804 53.9038 66.1065 54.0387 66.3977H54.0955C54.2352 66.116 54.4447 65.8923 54.7241 65.7266C55.0034 65.5585 55.3384 65.4744 55.729 65.4744C56.2167 65.4744 56.6156 65.6271 56.9258 65.9325C57.2359 66.2356 57.391 66.7079 57.391 67.3494V71H56.5529V67.3494C56.5529 66.947 56.4428 66.6593 56.2227 66.4865C56.0025 66.3137 55.7433 66.2273 55.445 66.2273C55.0614 66.2273 54.7643 66.3433 54.5536 66.5753C54.3429 66.8049 54.2376 67.0961 54.2376 67.4489V71H53.3853V67.2642C53.3853 66.9541 53.2847 66.7043 53.0835 66.5149C52.8822 66.3232 52.623 66.2273 52.3058 66.2273C52.0879 66.2273 51.8844 66.2853 51.695 66.4013C51.5079 66.5173 51.3564 66.6783 51.2404 66.8842C51.1268 67.0878 51.07 67.3234 51.07 67.5909V71H50.2319ZM61.2102 71.1136C60.6847 71.1136 60.2313 70.9976 59.8501 70.7656C59.4714 70.5312 59.179 70.2045 58.973 69.7855C58.7694 69.3641 58.6676 68.8741 58.6676 68.3153C58.6676 67.7566 58.7694 67.2642 58.973 66.8381C59.179 66.4096 59.4654 66.0758 59.8324 65.8366C60.2017 65.5952 60.6326 65.4744 61.125 65.4744C61.4091 65.4744 61.6896 65.5218 61.9666 65.6165C62.2436 65.7112 62.4957 65.8651 62.723 66.0781C62.9503 66.2888 63.1314 66.5682 63.2663 66.9162C63.4013 67.2642 63.4688 67.6927 63.4688 68.2017V68.5568H59.2642V67.8324H62.6165C62.6165 67.5246 62.5549 67.25 62.4318 67.0085C62.3111 66.767 62.1383 66.5765 61.9134 66.4368C61.6908 66.2971 61.428 66.2273 61.125 66.2273C60.7912 66.2273 60.5024 66.3101 60.2585 66.4759C60.017 66.6392 59.8312 66.8523 59.701 67.1151C59.5708 67.3778 59.5057 67.6596 59.5057 67.9602V68.4432C59.5057 68.8551 59.5767 69.2043 59.7188 69.4908C59.8632 69.7749 60.0632 69.9915 60.3189 70.1406C60.5746 70.2874 60.8717 70.3608 61.2102 70.3608C61.4304 70.3608 61.6293 70.33 61.8068 70.2685C61.9867 70.2045 62.1418 70.1098 62.272 69.9844C62.4022 69.8565 62.5028 69.6979 62.5739 69.5085L63.3835 69.7358C63.2983 70.0104 63.1551 70.2519 62.9538 70.4602C62.7526 70.6662 62.504 70.8272 62.2081 70.9432C61.9122 71.0568 61.5795 71.1136 61.2102 71.1136Z" fill="#CFD1DE"/>
<path d="M227.82 71V63.7273H230.363C230.869 63.7273 231.287 63.8149 231.616 63.9901C231.945 64.1629 232.19 64.3961 232.351 64.6896C232.512 64.9808 232.593 65.304 232.593 65.6591C232.593 65.9716 232.537 66.2296 232.426 66.4332C232.317 66.6368 232.173 66.7978 231.993 66.9162C231.815 67.0346 231.622 67.1222 231.414 67.179V67.25C231.636 67.2642 231.86 67.3423 232.085 67.4844C232.31 67.6264 232.498 67.83 232.65 68.0952C232.801 68.3603 232.877 68.6847 232.877 69.0682C232.877 69.4328 232.794 69.7607 232.628 70.0518C232.463 70.343 232.201 70.5739 231.844 70.7443C231.486 70.9148 231.021 71 230.448 71H227.82ZM228.701 70.2188H230.448C231.023 70.2188 231.432 70.1075 231.673 69.8849C231.917 69.66 232.039 69.3878 232.039 69.0682C232.039 68.822 231.976 68.5947 231.851 68.3864C231.725 68.1757 231.546 68.0076 231.314 67.8821C231.082 67.7543 230.808 67.6903 230.491 67.6903H228.701V70.2188ZM228.701 66.9233H230.334C230.599 66.9233 230.839 66.8712 231.052 66.767C231.267 66.6629 231.438 66.5161 231.563 66.3267C231.691 66.1373 231.755 65.9148 231.755 65.6591C231.755 65.3395 231.644 65.0684 231.421 64.8459C231.198 64.621 230.846 64.5085 230.363 64.5085H228.701V66.9233ZM234.21 71V65.5455H235.048V71H234.21ZM234.637 64.6364C234.473 64.6364 234.332 64.5807 234.214 64.4695C234.098 64.3582 234.04 64.2244 234.04 64.0682C234.04 63.9119 234.098 63.7782 234.214 63.6669C234.332 63.5556 234.473 63.5 234.637 63.5C234.8 63.5 234.94 63.5556 235.056 63.6669C235.174 63.7782 235.233 63.9119 235.233 64.0682C235.233 64.2244 235.174 64.3582 235.056 64.4695C234.94 64.5807 234.8 64.6364 234.637 64.6364ZM237.422 63.7273V71H236.583V63.7273H237.422ZM239.795 63.7273V71H238.956V63.7273H239.795ZM243.616 71.1136C243.091 71.1136 242.638 70.9976 242.256 70.7656C241.878 70.5312 241.585 70.2045 241.379 69.7855C241.176 69.3641 241.074 68.8741 241.074 68.3153C241.074 67.7566 241.176 67.2642 241.379 66.8381C241.585 66.4096 241.872 66.0758 242.239 65.8366C242.608 65.5952 243.039 65.4744 243.531 65.4744C243.815 65.4744 244.096 65.5218 244.373 65.6165C244.65 65.7112 244.902 65.8651 245.129 66.0781C245.357 66.2888 245.538 66.5682 245.673 66.9162C245.808 67.2642 245.875 67.6927 245.875 68.2017V68.5568H241.67V67.8324H245.023C245.023 67.5246 244.961 67.25 244.838 67.0085C244.717 66.767 244.545 66.5765 244.32 66.4368C244.097 66.2971 243.834 66.2273 243.531 66.2273C243.197 66.2273 242.909 66.3101 242.665 66.4759C242.423 66.6392 242.237 66.8523 242.107 67.1151C241.977 67.3778 241.912 67.6596 241.912 67.9602V68.4432C241.912 68.8551 241.983 69.2043 242.125 69.4908C242.269 69.7749 242.469 69.9915 242.725 70.1406C242.981 70.2874 243.278 70.3608 243.616 70.3608C243.837 70.3608 244.036 70.33 244.213 70.2685C244.393 70.2045 244.548 70.1098 244.678 69.9844C244.808 69.8565 244.909 69.6979 244.98 69.5085L245.79 69.7358C245.705 70.0104 245.561 70.2519 245.36 70.4602C245.159 70.6662 244.91 70.8272 244.614 70.9432C244.318 71.0568 243.986 71.1136 243.616 71.1136ZM249.522 65.5455V66.2557H246.695V65.5455H249.522ZM247.519 64.2386H248.357V69.4375C248.357 69.6742 248.392 69.8518 248.46 69.9702C248.531 70.0862 248.621 70.1643 248.73 70.2045C248.841 70.2424 248.959 70.2614 249.082 70.2614C249.174 70.2614 249.25 70.2566 249.309 70.2472C249.368 70.2353 249.415 70.2259 249.451 70.2188L249.621 70.9716C249.565 70.9929 249.485 71.0142 249.384 71.0355C249.282 71.0592 249.153 71.071 248.996 71.071C248.76 71.071 248.528 71.0201 248.3 70.9183C248.076 70.8165 247.888 70.6615 247.739 70.4531C247.593 70.2448 247.519 69.982 247.519 69.6648V64.2386ZM253.011 71.1136C252.485 71.1136 252.032 70.9976 251.651 70.7656C251.272 70.5312 250.98 70.2045 250.774 69.7855C250.57 69.3641 250.468 68.8741 250.468 68.3153C250.468 67.7566 250.57 67.2642 250.774 66.8381C250.98 66.4096 251.266 66.0758 251.633 65.8366C252.002 65.5952 252.433 65.4744 252.926 65.4744C253.21 65.4744 253.49 65.5218 253.767 65.6165C254.044 65.7112 254.297 65.8651 254.524 66.0781C254.751 66.2888 254.932 66.5682 255.067 66.9162C255.202 67.2642 255.27 67.6927 255.27 68.2017V68.5568H251.065V67.8324H254.417C254.417 67.5246 254.356 67.25 254.233 67.0085C254.112 66.767 253.939 66.5765 253.714 66.4368C253.492 66.2971 253.229 66.2273 252.926 66.2273C252.592 66.2273 252.303 66.3101 252.059 66.4759C251.818 66.6392 251.632 66.8523 251.502 67.1151C251.372 67.3778 251.306 67.6596 251.306 67.9602V68.4432C251.306 68.8551 251.377 69.2043 251.52 69.4908C251.664 69.7749 251.864 69.9915 252.12 70.1406C252.375 70.2874 252.672 70.3608 253.011 70.3608C253.231 70.3608 253.43 70.33 253.608 70.2685C253.788 70.2045 253.943 70.1098 254.073 69.9844C254.203 69.8565 254.304 69.6979 254.375 69.5085L255.184 69.7358C255.099 70.0104 254.956 70.2519 254.755 70.4602C254.553 70.6662 254.305 70.8272 254.009 70.9432C253.713 71.0568 253.38 71.1136 253.011 71.1136ZM256.544 71V65.5455H257.354V66.3693H257.411C257.51 66.0994 257.69 65.8804 257.951 65.7124C258.211 65.5443 258.505 65.4602 258.831 65.4602C258.893 65.4602 258.97 65.4614 259.062 65.4638C259.154 65.4661 259.224 65.4697 259.272 65.4744V66.3267C259.243 66.3196 259.178 66.3089 259.076 66.2947C258.977 66.2782 258.872 66.2699 258.76 66.2699C258.495 66.2699 258.258 66.3255 258.05 66.4368C257.844 66.5457 257.681 66.6972 257.56 66.8913C257.442 67.0831 257.382 67.3021 257.382 67.5483V71H256.544ZM261.87 71.1278C261.525 71.1278 261.211 71.0627 260.929 70.9325C260.647 70.8 260.424 70.6094 260.258 70.3608C260.092 70.1098 260.009 69.8068 260.009 69.4517C260.009 69.1392 260.071 68.8859 260.194 68.6918C260.317 68.4953 260.482 68.3414 260.688 68.2301C260.894 68.1188 261.121 68.036 261.369 67.9815C261.62 67.9247 261.873 67.8797 262.126 67.8466C262.457 67.804 262.726 67.772 262.932 67.7507C263.14 67.727 263.292 67.688 263.387 67.6335C263.484 67.5791 263.532 67.4844 263.532 67.3494V67.321C263.532 66.9706 263.436 66.6984 263.244 66.5043C263.055 66.3101 262.767 66.2131 262.382 66.2131C261.981 66.2131 261.668 66.3007 261.441 66.4759C261.213 66.651 261.053 66.8381 260.961 67.0369L260.166 66.7528C260.308 66.4214 260.497 66.1634 260.734 65.9787C260.973 65.7917 261.233 65.6615 261.515 65.5881C261.799 65.5123 262.079 65.4744 262.353 65.4744C262.528 65.4744 262.73 65.4957 262.957 65.5384C263.186 65.5786 263.408 65.6626 263.621 65.7905C263.836 65.9183 264.015 66.1113 264.157 66.3693C264.299 66.6274 264.37 66.973 264.37 67.4062V71H263.532V70.2614H263.49C263.433 70.3797 263.338 70.5064 263.205 70.6413C263.073 70.7763 262.896 70.8911 262.676 70.9858C262.456 71.0805 262.187 71.1278 261.87 71.1278ZM261.998 70.375C262.329 70.375 262.609 70.3099 262.836 70.1797C263.066 70.0495 263.239 69.8814 263.355 69.6754C263.473 69.4695 263.532 69.2528 263.532 69.0256V68.2585C263.497 68.3011 263.419 68.3402 263.298 68.3757C263.179 68.4089 263.042 68.4384 262.886 68.4645C262.732 68.4882 262.582 68.5095 262.435 68.5284C262.29 68.545 262.173 68.5592 262.083 68.571C261.865 68.5994 261.662 68.6456 261.472 68.7095C261.285 68.7711 261.134 68.8646 261.018 68.9901C260.904 69.1132 260.847 69.2812 260.847 69.4943C260.847 69.7855 260.955 70.0057 261.171 70.1548C261.388 70.3016 261.664 70.375 261.998 70.375Z" fill="#389BEC"/>
<path d="M255.132 38.0549C255.689 38.0549 256.142 37.6027 256.142 37.0449C256.142 36.4871 255.689 36.0349 255.132 36.0349V38.0549ZM236.439 38.9759C236.439 38.4181 235.986 37.9659 235.429 37.9659C234.871 37.9659 234.419 38.4181 234.419 38.9759H236.439ZM237.974 38.0549H255.132V36.0349H237.974V38.0549ZM254.098 56.261H237.974V58.281H254.098V56.261ZM235.954 54.241V40.0749H233.934V54.241H235.954ZM237.448 42.0056H254.098V39.9856H237.448V42.0056ZM256.118 44.0256V54.241H258.138V44.0256H256.118ZM237.448 39.9856C236.891 39.9856 236.439 39.5335 236.439 38.9759H234.419C234.419 40.6492 235.775 42.0056 237.448 42.0056V39.9856ZM237.974 56.261C236.859 56.261 235.954 55.3566 235.954 54.241H233.934C233.934 56.4722 235.743 58.281 237.974 58.281V56.261ZM254.098 58.281C256.329 58.281 258.138 56.4722 258.138 54.241H256.118C256.118 55.3566 255.213 56.261 254.098 56.261V58.281ZM254.098 42.0056C255.213 42.0056 256.118 42.91 256.118 44.0256H258.138C258.138 41.7944 256.329 39.9856 254.098 39.9856V42.0056ZM237.974 36.0349C235.743 36.0349 233.934 37.8437 233.934 40.0749H235.954C235.954 38.9593 236.859 38.0549 237.974 38.0549V36.0349Z" fill="#87C9FF"/>
<rect width="70" height="2" transform="matrix(1 0 0 -1 211.036 21)" fill="#55B3FF"/>
</g>
<defs>
<filter id="filter0_d_1592_24109" x="-12.0996" y="0" width="416" height="101" filterUnits="userSpaceOnUse" color-interpolation-filters="sRGB">
<feFlood flood-opacity="0" result="BackgroundImageFix"/>
<feColorMatrix in="SourceAlpha" type="matrix" values="0 0 0 0 0 0 0 0 0 0 0 0 0 0 0 0 0 0 127 0" result="hardAlpha"/>
<feOffset dy="-6"/>
<feGaussianBlur stdDeviation="6.5"/>
<feComposite in2="hardAlpha" operator="out"/>
<feColorMatrix type="matrix" values="0 0 0 0 0 0 0 0 0 0 0 0 0 0 0 0 0 0 0.04 0"/>
<feBlend mode="normal" in2="BackgroundImageFix" result="effect1_dropShadow_1592_24109"/>
<feBlend mode="normal" in="SourceGraphic" in2="effect1_dropShadow_1592_24109" result="shape"/>
</filter>
</defs>
</svg>
