<svg width="27" height="27" viewBox="0 0 27 27" fill="none" xmlns="http://www.w3.org/2000/svg">
<path fill-rule="evenodd" clip-rule="evenodd" d="M5.16555 17.2173C2.63671 11.0101 7.2032 4.21875 13.9057 4.21875H14.2673C19.2799 4.21875 23.3434 8.28226 23.3434 13.2949C23.3434 18.8758 18.8192 23.4 13.2383 23.4H4.44048C4.08244 23.4 3.76338 23.174 3.64455 22.8363C3.52572 22.4985 3.63299 22.1226 3.91215 21.8984L6.13008 20.1172C6.22706 20.0393 6.26136 19.907 6.21443 19.7918L5.16555 17.2173ZM13.9057 5.90625C8.40164 5.90625 4.65166 11.4833 6.72834 16.5806L7.77722 19.1551C8.10571 19.9614 7.86558 20.8877 7.18673 21.4329L6.8386 21.7125H13.2383C17.8872 21.7125 21.6559 17.9438 21.6559 13.2949C21.6559 9.21424 18.348 5.90625 14.2673 5.90625H13.9057Z" fill="#4E4B66"/>
</svg>
