<svg width="23" height="22" viewBox="0 0 23 22" fill="none" xmlns="http://www.w3.org/2000/svg">
<path d="M1.24414 8.18508C1.24414 6.36599 2.7188 4.89133 4.53789 4.89133V4.89133C5.63917 4.89133 6.66758 4.34094 7.27846 3.42462L7.31196 3.37438C7.94376 2.42667 9.00741 1.85742 10.1464 1.85742H12.5679C13.7069 1.85742 14.7706 2.42667 15.4024 3.37438L15.4359 3.42462C16.0468 4.34094 17.0752 4.89133 18.1764 4.89133V4.89133C19.9955 4.89133 21.4702 6.36599 21.4702 8.18508V16.0157C21.4702 18.2498 19.6591 20.0609 17.425 20.0609H5.28935C3.05524 20.0609 1.24414 18.2498 1.24414 16.0157V8.18508Z" stroke="#4E4B66" stroke-width="2.02261" stroke-linecap="round" stroke-linejoin="round"/>
</svg>
