<svg width="40" height="17" viewBox="0 0 40 17" fill="none" xmlns="http://www.w3.org/2000/svg">
<mask id="path-1-inside-1_1464_18182" fill="white">
<path d="M0.464844 2.71094C0.464844 1.60637 1.36027 0.710938 2.46484 0.710938H37.4648C38.5694 0.710938 39.4648 1.60637 39.4648 2.71094V6.71094C39.4648 12.2338 34.9877 16.7109 29.4648 16.7109H10.4648C4.942 16.7109 0.464844 12.2338 0.464844 6.71094V2.71094Z"/>
</mask>
<path d="M0.464844 2.71094C0.464844 1.60637 1.36027 0.710938 2.46484 0.710938H37.4648C38.5694 0.710938 39.4648 1.60637 39.4648 2.71094V6.71094C39.4648 12.2338 34.9877 16.7109 29.4648 16.7109H10.4648C4.942 16.7109 0.464844 12.2338 0.464844 6.71094V2.71094Z" stroke="#55B3FF" stroke-width="4.04" mask="url(#path-1-inside-1_1464_18182)"/>
</svg>
