<svg width="40" height="17" viewBox="0 0 40 17" fill="none" xmlns="http://www.w3.org/2000/svg">
<mask id="path-1-inside-1_1714_40401" fill="white">
<path d="M0.357422 2.32031C0.357422 1.21574 1.25285 0.320312 2.35742 0.320312H37.3574C38.462 0.320312 39.3574 1.21574 39.3574 2.32031V6.32031C39.3574 11.8432 34.8803 16.3203 29.3574 16.3203H10.3574C4.83457 16.3203 0.357422 11.8432 0.357422 6.32031V2.32031Z"/>
</mask>
<path d="M0.357422 2.32031C0.357422 1.21574 1.25285 0.320312 2.35742 0.320312H37.3574C38.462 0.320312 39.3574 1.21574 39.3574 2.32031V6.32031C39.3574 11.8432 34.8803 16.3203 29.3574 16.3203H10.3574C4.83457 16.3203 0.357422 11.8432 0.357422 6.32031V2.32031Z" stroke="#55B3FF" stroke-width="4.04" mask="url(#path-1-inside-1_1714_40401)"/>
</svg>
