<svg width="40" height="17" viewBox="0 0 40 17" fill="none" xmlns="http://www.w3.org/2000/svg">
<mask id="path-1-inside-1_1592_23086" fill="white">
<path d="M0.96875 2.61328C0.96875 1.50871 1.86418 0.613281 2.96875 0.613281H37.9688C39.0733 0.613281 39.9688 1.50871 39.9688 2.61328V6.61328C39.9688 12.1361 35.4916 16.6133 29.9687 16.6133H10.9687C5.4459 16.6133 0.96875 12.1361 0.96875 6.61328V2.61328Z"/>
</mask>
<path d="M0.96875 2.61328C0.96875 1.50871 1.86418 0.613281 2.96875 0.613281H37.9688C39.0733 0.613281 39.9688 1.50871 39.9688 2.61328V6.61328C39.9688 12.1361 35.4916 16.6133 29.9687 16.6133H10.9687C5.4459 16.6133 0.96875 12.1361 0.96875 6.61328V2.61328Z" stroke="#55B3FF" stroke-width="4.04" mask="url(#path-1-inside-1_1592_23086)"/>
</svg>
