<svg width="24" height="21" viewBox="0 0 24 21" fill="none" xmlns="http://www.w3.org/2000/svg">
<path d="M1.88184 8.09133C1.88184 6.27224 3.3565 4.79758 5.17559 4.79758V4.79758C6.27686 4.79758 7.30528 4.24719 7.91615 3.33087L7.94965 3.28063C8.58146 2.33292 9.6451 1.76367 10.7841 1.76367H13.2056C14.3446 1.76367 15.4083 2.33292 16.0401 3.28063L16.0736 3.33087C16.6845 4.24719 17.7129 4.79758 18.8141 4.79758V4.79758C20.6332 4.79758 22.1079 6.27224 22.1079 8.09133V15.9219C22.1079 18.156 20.2968 19.9671 18.0627 19.9671H5.92704C3.69294 19.9671 1.88184 18.156 1.88184 15.9219V8.09133Z" stroke="#4E4B66" stroke-width="2.02261" stroke-linecap="round" stroke-linejoin="round"/>
</svg>
