<svg width="23" height="21" viewBox="0 0 23 21" fill="none" xmlns="http://www.w3.org/2000/svg">
<path d="M1.08521 7.59133C1.08521 5.77224 2.55987 4.29758 4.37896 4.29758V4.29758C5.48023 4.29758 6.50865 3.74719 7.11952 2.83087L7.15302 2.78063C7.78483 1.83292 8.84847 1.26367 9.98748 1.26367H12.409C13.548 1.26367 14.6116 1.83292 15.2434 2.78063L15.2769 2.83087C15.8878 3.74719 16.9162 4.29758 18.0175 4.29758V4.29758C19.8366 4.29758 21.3113 5.77224 21.3113 7.59133V15.4219C21.3113 17.656 19.5002 19.4671 17.2661 19.4671H5.13041C2.89631 19.4671 1.08521 17.656 1.08521 15.4219V7.59133Z" stroke="#4E4B66" stroke-width="2.02261" stroke-linecap="round" stroke-linejoin="round"/>
</svg>
