<svg width="40" height="17" viewBox="0 0 40 17" fill="none" xmlns="http://www.w3.org/2000/svg">
<mask id="path-1-inside-1_1714_37862" fill="white">
<path d="M0.715332 2.71094C0.715332 1.60637 1.61076 0.710938 2.71533 0.710938H37.7153C38.8199 0.710938 39.7153 1.60637 39.7153 2.71094V6.71094C39.7153 12.2338 35.2382 16.7109 29.7153 16.7109H10.7153C5.19248 16.7109 0.715332 12.2338 0.715332 6.71094V2.71094Z"/>
</mask>
<path d="M0.715332 2.71094C0.715332 1.60637 1.61076 0.710938 2.71533 0.710938H37.7153C38.8199 0.710938 39.7153 1.60637 39.7153 2.71094V6.71094C39.7153 12.2338 35.2382 16.7109 29.7153 16.7109H10.7153C5.19248 16.7109 0.715332 12.2338 0.715332 6.71094V2.71094Z" stroke="#55B3FF" stroke-width="4.04" mask="url(#path-1-inside-1_1714_37862)"/>
</svg>
