<svg width="24" height="21" viewBox="0 0 24 21" fill="none" xmlns="http://www.w3.org/2000/svg">
<path d="M1.88672 8.09011C1.88672 6.27102 3.36138 4.79636 5.18047 4.79636V4.79636C6.28175 4.79636 7.31016 4.24597 7.92104 3.32965L7.95454 3.27941C8.58634 2.3317 9.64999 1.76245 10.789 1.76245H13.2105C14.3495 1.76245 15.4132 2.3317 16.045 3.2794L16.0785 3.32965C16.6893 4.24597 17.7177 4.79636 18.819 4.79636V4.79636C20.6381 4.79636 22.1128 6.27102 22.1128 8.09011V15.9207C22.1128 18.1548 20.3017 19.9659 18.0676 19.9659H5.93193C3.69782 19.9659 1.88672 18.1548 1.88672 15.9207V8.09011Z" stroke="#4E4B66" stroke-width="2.02261" stroke-linecap="round" stroke-linejoin="round"/>
</svg>
