<svg width="24" height="22" viewBox="0 0 24 22" fill="none" xmlns="http://www.w3.org/2000/svg">
<path d="M1.99414 8.18508C1.99414 6.36599 3.4688 4.89133 5.28789 4.89133V4.89133C6.38917 4.89133 7.41758 4.34094 8.02846 3.42462L8.06196 3.37438C8.69376 2.42667 9.75741 1.85742 10.8964 1.85742H13.3179C14.4569 1.85742 15.5206 2.42667 16.1524 3.37438L16.1859 3.42462C16.7968 4.34094 17.8252 4.89133 18.9264 4.89133V4.89133C20.7455 4.89133 22.2202 6.36599 22.2202 8.18508V16.0157C22.2202 18.2498 20.4091 20.0609 18.175 20.0609H6.03935C3.80524 20.0609 1.99414 18.2498 1.99414 16.0157V8.18508Z" stroke="#4E4B66" stroke-width="2.02261" stroke-linecap="round" stroke-linejoin="round"/>
</svg>
