<svg width="40" height="17" viewBox="0 0 40 17" fill="none" xmlns="http://www.w3.org/2000/svg">
<mask id="path-1-inside-1_1464_18764" fill="white">
<path d="M0.35791 2.61426C0.35791 1.50969 1.25334 0.614258 2.35791 0.614258H37.3579C38.4625 0.614258 39.3579 1.50969 39.3579 2.61426V6.61426C39.3579 12.1371 34.8808 16.6143 29.3579 16.6143H10.3579C4.83506 16.6143 0.35791 12.1371 0.35791 6.61426V2.61426Z"/>
</mask>
<path d="M0.35791 2.61426C0.35791 1.50969 1.25334 0.614258 2.35791 0.614258H37.3579C38.4625 0.614258 39.3579 1.50969 39.3579 2.61426V6.61426C39.3579 12.1371 34.8808 16.6143 29.3579 16.6143H10.3579C4.83506 16.6143 0.35791 12.1371 0.35791 6.61426V2.61426Z" stroke="#55B3FF" stroke-width="4.04" mask="url(#path-1-inside-1_1464_18764)"/>
</svg>
