<svg width="40" height="17" viewBox="0 0 40 17" fill="none" xmlns="http://www.w3.org/2000/svg">
<mask id="path-1-inside-1_1714_37829" fill="white">
<path d="M0.464844 2.70996C0.464844 1.60539 1.36027 0.709961 2.46484 0.709961H37.4648C38.5694 0.709961 39.4648 1.60539 39.4648 2.70996V6.70996C39.4648 12.2328 34.9877 16.71 29.4648 16.71H10.4648C4.942 16.71 0.464844 12.2328 0.464844 6.70996V2.70996Z"/>
</mask>
<path d="M0.464844 2.70996C0.464844 1.60539 1.36027 0.709961 2.46484 0.709961H37.4648C38.5694 0.709961 39.4648 1.60539 39.4648 2.70996V6.70996C39.4648 12.2328 34.9877 16.71 29.4648 16.71H10.4648C4.942 16.71 0.464844 12.2328 0.464844 6.70996V2.70996Z" stroke="#55B3FF" stroke-width="4.04" mask="url(#path-1-inside-1_1714_37829)"/>
</svg>
