<svg width="23" height="21" viewBox="0 0 23 21" fill="none" xmlns="http://www.w3.org/2000/svg">
<path d="M1.02246 7.94899C1.02246 6.12991 2.49712 4.65525 4.31621 4.65525V4.65525C5.41749 4.65525 6.4459 4.10486 7.05678 3.18854L7.09028 3.13829C7.72208 2.19058 8.78573 1.62134 9.92473 1.62134H12.3462C13.4852 1.62134 14.5489 2.19058 15.1807 3.13829L15.2142 3.18854C15.8251 4.10486 16.8535 4.65525 17.9548 4.65525V4.65525C19.7739 4.65525 21.2485 6.12991 21.2485 7.949V15.7796C21.2485 18.0137 19.4374 19.8248 17.2033 19.8248H5.06767C2.83356 19.8248 1.02246 18.0137 1.02246 15.7796V7.94899Z" stroke="#4E4B66" stroke-width="2.02261" stroke-linecap="round" stroke-linejoin="round"/>
</svg>
