<svg width="40" height="17" viewBox="0 0 40 17" fill="none" xmlns="http://www.w3.org/2000/svg">
<mask id="path-1-inside-1_1714_37903" fill="white">
<path d="M0.464844 2.66113C0.464844 1.55656 1.36027 0.661133 2.46484 0.661133H37.4648C38.5694 0.661133 39.4648 1.55656 39.4648 2.66113V6.66113C39.4648 12.184 34.9877 16.6611 29.4648 16.6611H10.4648C4.942 16.6611 0.464844 12.184 0.464844 6.66113V2.66113Z"/>
</mask>
<path d="M0.464844 2.66113C0.464844 1.55656 1.36027 0.661133 2.46484 0.661133H37.4648C38.5694 0.661133 39.4648 1.55656 39.4648 2.66113V6.66113C39.4648 12.184 34.9877 16.6611 29.4648 16.6611H10.4648C4.942 16.6611 0.464844 12.184 0.464844 6.66113V2.66113Z" stroke="#55B3FF" stroke-width="4.04" mask="url(#path-1-inside-1_1714_37903)"/>
</svg>
