<svg width="24" height="21" viewBox="0 0 24 21" fill="none" xmlns="http://www.w3.org/2000/svg">
<path d="M1.88672 8.08937C1.88672 6.27029 3.36138 4.79563 5.18047 4.79563V4.79563C6.28175 4.79563 7.31016 4.24524 7.92104 3.32892L7.95454 3.27867C8.58634 2.33096 9.64999 1.76172 10.789 1.76172H13.2105C14.3495 1.76172 15.4132 2.33096 16.045 3.27867L16.0785 3.32892C16.6893 4.24524 17.7177 4.79563 18.819 4.79563V4.79563C20.6381 4.79563 22.1128 6.27029 22.1128 8.08938V15.92C22.1128 18.1541 20.3017 19.9652 18.0676 19.9652H5.93193C3.69782 19.9652 1.88672 18.1541 1.88672 15.92V8.08937Z" stroke="#4E4B66" stroke-width="2.02261" stroke-linecap="round" stroke-linejoin="round"/>
</svg>
