<svg width="23" height="21" viewBox="0 0 23 21" fill="none" xmlns="http://www.w3.org/2000/svg">
<path d="M1.02246 7.36086C1.02246 5.54177 2.49712 4.06711 4.31621 4.06711V4.06711C5.41749 4.06711 6.4459 3.51672 7.05678 2.60041L7.09028 2.55016C7.72208 1.60245 8.78573 1.0332 9.92473 1.0332H12.3462C13.4852 1.0332 14.5489 1.60245 15.1807 2.55016L15.2142 2.6004C15.8251 3.51672 16.8535 4.06711 17.9548 4.06711V4.06711C19.7739 4.06711 21.2485 5.54177 21.2485 7.36086V15.1914C21.2485 17.4256 19.4374 19.2367 17.2033 19.2367H5.06767C2.83356 19.2367 1.02246 17.4256 1.02246 15.1914V7.36086Z" stroke="#4E4B66" stroke-width="2.02261" stroke-linecap="round" stroke-linejoin="round"/>
</svg>
