<svg width="40" height="17" viewBox="0 0 40 17" fill="none" xmlns="http://www.w3.org/2000/svg">
<mask id="path-1-inside-1_1714_38357" fill="white">
<path d="M0.35791 2.61328C0.35791 1.50871 1.25334 0.613281 2.35791 0.613281H37.3579C38.4625 0.613281 39.3579 1.50871 39.3579 2.61328V6.61328C39.3579 12.1361 34.8808 16.6133 29.3579 16.6133H10.3579C4.83506 16.6133 0.35791 12.1361 0.35791 6.61328V2.61328Z"/>
</mask>
<path d="M0.35791 2.61328C0.35791 1.50871 1.25334 0.613281 2.35791 0.613281H37.3579C38.4625 0.613281 39.3579 1.50871 39.3579 2.61328V6.61328C39.3579 12.1361 34.8808 16.6133 29.3579 16.6133H10.3579C4.83506 16.6133 0.35791 12.1361 0.35791 6.61328V2.61328Z" stroke="#55B3FF" stroke-width="4.04" mask="url(#path-1-inside-1_1714_38357)"/>
</svg>
