<svg width="23" height="21" viewBox="0 0 23 21" fill="none" xmlns="http://www.w3.org/2000/svg">
<path d="M1.06055 8.09133C1.06055 6.27224 2.53521 4.79758 4.3543 4.79758V4.79758C5.45557 4.79758 6.48399 4.24719 7.09487 3.33087L7.12836 3.28063C7.76017 2.33292 8.82381 1.76367 9.96282 1.76367H12.3843C13.5233 1.76367 14.587 2.33292 15.2188 3.28063L15.2523 3.33087C15.8632 4.24719 16.8916 4.79758 17.9929 4.79758V4.79758C19.8119 4.79758 21.2866 6.27224 21.2866 8.09133V15.9219C21.2866 18.156 19.4755 19.9671 17.2414 19.9671H5.10576C2.87165 19.9671 1.06055 18.156 1.06055 15.9219V8.09133Z" stroke="#4E4B66" stroke-width="2.02261" stroke-linecap="round" stroke-linejoin="round"/>
</svg>
