<svg width="20" height="21" viewBox="0 0 20 21" fill="none" xmlns="http://www.w3.org/2000/svg">
<path fill-rule="evenodd" clip-rule="evenodd" d="M18.4023 12.2651C18.76 12.4507 19.036 12.7437 19.2301 13.0368C19.6083 13.6424 19.5776 14.3848 19.2097 15.0393L18.4943 16.2116C18.1162 16.8367 17.411 17.2275 16.6855 17.2275C16.3278 17.2275 15.9292 17.1298 15.6022 16.9344C15.3365 16.7684 15.0299 16.7098 14.7029 16.7098C13.6911 16.7098 12.8429 17.5205 12.8122 18.4876C12.8122 19.611 11.872 20.4902 10.6968 20.4902H9.30692C8.12145 20.4902 7.18125 19.611 7.18125 18.4876C7.16081 17.5205 6.31259 16.7098 5.30085 16.7098C4.96361 16.7098 4.65702 16.7684 4.40153 16.9344C4.0745 17.1298 3.66572 17.2275 3.31825 17.2275C2.58245 17.2275 1.87729 16.8367 1.49917 16.2116L0.79402 15.0393C0.415896 14.4044 0.395456 13.6424 0.773581 13.0368C0.937094 12.7437 1.24368 12.4507 1.59115 12.2651C1.87729 12.1283 2.06125 11.9036 2.23498 11.6399C2.74596 10.7998 2.43937 9.69595 1.57071 9.19776C0.55897 8.64095 0.231943 7.40035 0.814459 6.43327L1.49917 5.28058C2.09191 4.3135 3.35913 3.9716 4.38109 4.53817C5.27019 5.00706 6.425 4.69447 6.9462 3.86415C7.10972 3.59063 7.20169 3.29757 7.18125 3.00451C7.16081 2.62354 7.27323 2.26211 7.4674 1.96905C7.84553 1.3634 8.53024 0.972662 9.27627 0.953125H10.7172C11.4735 0.953125 12.1582 1.3634 12.5363 1.96905C12.7203 2.26211 12.8429 2.62354 12.8122 3.00451C12.7918 3.29757 12.8838 3.59063 13.0473 3.86415C13.5685 4.69447 14.7233 5.00706 15.6226 4.53817C16.6344 3.9716 17.9118 4.3135 18.4943 5.28058L19.179 6.43327C19.7718 7.40035 19.4447 8.64095 18.4228 9.19776C17.5541 9.69595 17.2475 10.7998 17.7687 11.6399C17.9322 11.9036 18.1162 12.1283 18.4023 12.2651ZM7.10972 10.7314C7.10972 12.2651 8.4076 13.4861 10.0121 13.4861C11.6165 13.4861 12.8838 12.2651 12.8838 10.7314C12.8838 9.19776 11.6165 7.96693 10.0121 7.96693C8.4076 7.96693 7.10972 9.19776 7.10972 10.7314Z" fill="#4E4B66"/>
</svg>
