<svg width="20" height="21" viewBox="0 0 20 21" fill="none" xmlns="http://www.w3.org/2000/svg">
<path fill-rule="evenodd" clip-rule="evenodd" d="M18.4023 12.2658C18.76 12.4514 19.036 12.7445 19.2301 13.0375C19.6083 13.6432 19.5776 14.3856 19.2097 15.0401L18.4943 16.2123C18.1162 16.8375 17.411 17.2282 16.6855 17.2282C16.3278 17.2282 15.9292 17.1305 15.6022 16.9352C15.3365 16.7691 15.0299 16.7105 14.7029 16.7105C13.6911 16.7105 12.8429 17.5213 12.8122 18.4884C12.8122 19.6117 11.872 20.4909 10.6968 20.4909H9.30692C8.12145 20.4909 7.18125 19.6117 7.18125 18.4884C7.16081 17.5213 6.31259 16.7105 5.30085 16.7105C4.96361 16.7105 4.65702 16.7691 4.40153 16.9352C4.0745 17.1305 3.66572 17.2282 3.31825 17.2282C2.58245 17.2282 1.87729 16.8375 1.49917 16.2123L0.79402 15.0401C0.415896 14.4051 0.395456 13.6432 0.773581 13.0375C0.937094 12.7445 1.24368 12.4514 1.59115 12.2658C1.87729 12.129 2.06125 11.9044 2.23498 11.6406C2.74596 10.8005 2.43937 9.69669 1.57071 9.19849C0.55897 8.64169 0.231943 7.40108 0.814459 6.434L1.49917 5.28131C2.09191 4.31423 3.35913 3.97233 4.38109 4.53891C5.27019 5.00779 6.425 4.6952 6.9462 3.86488C7.10972 3.59136 7.20169 3.2983 7.18125 3.00525C7.16081 2.62427 7.27323 2.26284 7.4674 1.96978C7.84553 1.36414 8.53024 0.973394 9.27627 0.953857H10.7172C11.4735 0.953857 12.1582 1.36414 12.5363 1.96978C12.7203 2.26284 12.8429 2.62427 12.8122 3.00525C12.7918 3.2983 12.8838 3.59136 13.0473 3.86488C13.5685 4.6952 14.7233 5.00779 15.6226 4.53891C16.6344 3.97233 17.9118 4.31423 18.4943 5.28131L19.179 6.434C19.7718 7.40108 19.4447 8.64169 18.4228 9.19849C17.5541 9.69669 17.2475 10.8005 17.7687 11.6406C17.9322 11.9044 18.1162 12.129 18.4023 12.2658ZM7.10972 10.7322C7.10972 12.2658 8.4076 13.4869 10.0121 13.4869C11.6165 13.4869 12.8838 12.2658 12.8838 10.7322C12.8838 9.19849 11.6165 7.96766 10.0121 7.96766C8.4076 7.96766 7.10972 9.19849 7.10972 10.7322Z" fill="#4E4B66"/>
</svg>
