<svg width="10" height="10" viewBox="0 0 10 10" fill="none" xmlns="http://www.w3.org/2000/svg">
<path d="M5.10531 1.36002C4.9563 1.10322 4.58545 1.10322 4.43643 1.36002L3.387 3.16858C3.31339 3.29544 3.18615 3.38201 3.04113 3.40392L1.07442 3.70096C0.744099 3.75086 0.628231 4.16792 0.885482 4.38105L2.3506 5.59488C2.48622 5.70724 2.54999 5.88448 2.51704 6.05749L2.13379 8.07014C2.07321 8.3883 2.4072 8.6355 2.69378 8.48461L4.54569 7.5095C4.68664 7.43528 4.85511 7.43528 4.99606 7.5095L6.84796 8.48461C7.13454 8.6355 7.46854 8.3883 7.40795 8.07014L7.0247 6.05749C6.99176 5.88448 7.05553 5.70724 7.19115 5.59488L8.65626 4.38105C8.91351 4.16792 8.79765 3.75086 8.46732 3.70096L6.50062 3.40392C6.35559 3.38201 6.22836 3.29544 6.15475 3.16858L5.10531 1.36002Z" fill="white"/>
</svg>
