<svg width="10" height="10" viewBox="0 0 10 10" fill="none" xmlns="http://www.w3.org/2000/svg">
<path d="M5.10531 1.35667C4.9563 1.09986 4.58545 1.09986 4.43643 1.35667L3.387 3.16523C3.31339 3.29208 3.18615 3.37866 3.04113 3.40056L1.07442 3.69761C0.744099 3.7475 0.628231 4.16456 0.885482 4.37769L2.3506 5.59152C2.48622 5.70388 2.54999 5.88112 2.51704 6.05413L2.13379 8.06678C2.07321 8.38494 2.4072 8.63214 2.69378 8.48125L4.54569 7.50614C4.68664 7.43193 4.85511 7.43193 4.99606 7.50614L6.84796 8.48125C7.13454 8.63214 7.46854 8.38494 7.40795 8.06678L7.0247 6.05413C6.99176 5.88112 7.05553 5.70388 7.19115 5.59152L8.65626 4.37769C8.91351 4.16456 8.79765 3.7475 8.46732 3.69761L6.50062 3.40056C6.35559 3.37866 6.22836 3.29208 6.15475 3.16523L5.10531 1.35667Z" fill="white"/>
</svg>
