<svg width="29" height="30" viewBox="0 0 29 30" fill="none" xmlns="http://www.w3.org/2000/svg">
<path fill-rule="evenodd" clip-rule="evenodd" d="M8.76019 8.92708V9.37401H6.94633C6.40595 9.37401 5.94733 9.77033 5.86899 10.305L5.60476 12.1084C5.08878 15.63 5.08878 19.208 5.60476 22.7296C5.83596 24.3075 7.10839 25.5274 8.69468 25.6919L9.45457 25.7707C12.809 26.1186 16.1905 26.1186 19.545 25.7707L20.3049 25.6919C21.8911 25.5274 23.1636 24.3075 23.3948 22.7296C23.9108 19.208 23.9108 15.63 23.3948 12.1084L23.1305 10.305C23.0522 9.77033 22.5936 9.37401 22.0532 9.37401H20.2394V8.92708C20.2394 6.30773 18.466 4.02066 15.9292 3.36834C14.9915 3.12722 14.0081 3.12722 13.0704 3.36834C10.5336 4.02066 8.76019 6.30772 8.76019 8.92708ZM15.4778 5.12373C14.8362 4.95876 14.1633 4.95876 13.5218 5.12373C11.786 5.57006 10.5727 7.13489 10.5727 8.92708V9.37401H18.4269V8.92708C18.4269 7.13489 17.2135 5.57006 15.4778 5.12373ZM10.5727 11.1865C10.5727 10.686 10.1669 10.2803 9.66644 10.2803C9.16593 10.2803 8.76019 10.686 8.76019 11.1865V13.6032C8.76019 14.1037 9.16593 14.5094 9.66644 14.5094C10.1669 14.5094 10.5727 14.1037 10.5727 13.6032V11.1865ZM20.2394 11.1865C20.2394 10.686 19.8336 10.2803 19.3331 10.2803C18.8326 10.2803 18.4269 10.686 18.4269 11.1865V13.6032C18.4269 14.1037 18.8326 14.5094 19.3331 14.5094C19.8336 14.5094 20.2394 14.1037 20.2394 13.6032V11.1865Z" fill="#CFD1DE"/>
</svg>
