<svg width="29" height="30" viewBox="0 0 29 30" fill="none" xmlns="http://www.w3.org/2000/svg">
<path fill-rule="evenodd" clip-rule="evenodd" d="M8.76019 8.92903V9.37597H6.94633C6.40595 9.37597 5.94733 9.77228 5.86899 10.307L5.60476 12.1103C5.08878 15.6319 5.08878 19.2099 5.60476 22.7315C5.83596 24.3095 7.10839 25.5294 8.69468 25.6939L9.45457 25.7727C12.809 26.1205 16.1905 26.1205 19.545 25.7727L20.3049 25.6939C21.8911 25.5294 23.1636 24.3095 23.3948 22.7315C23.9108 19.2099 23.9108 15.6319 23.3948 12.1103L23.1305 10.307C23.0522 9.77229 22.5936 9.37597 22.0532 9.37597H20.2394V8.92904C20.2394 6.30968 18.466 4.02262 15.9292 3.37029C14.9915 3.12917 14.0081 3.12917 13.0704 3.37029C10.5336 4.02262 8.76019 6.30968 8.76019 8.92903ZM15.4778 5.12568C14.8362 4.96071 14.1633 4.96071 13.5218 5.12568C11.786 5.57201 10.5727 7.13684 10.5727 8.92903V9.37597H18.4269V8.92904C18.4269 7.13684 17.2135 5.57201 15.4778 5.12568ZM10.5727 11.1885C10.5727 10.688 10.1669 10.2822 9.66644 10.2822C9.16593 10.2822 8.76019 10.688 8.76019 11.1885V13.6051C8.76019 14.1056 9.16593 14.5114 9.66644 14.5114C10.1669 14.5114 10.5727 14.1056 10.5727 13.6051V11.1885ZM20.2394 11.1885C20.2394 10.688 19.8336 10.2822 19.3331 10.2822C18.8326 10.2822 18.4269 10.688 18.4269 11.1885V13.6051C18.4269 14.1056 18.8326 14.5114 19.3331 14.5114C19.8336 14.5114 20.2394 14.1056 20.2394 13.6051V11.1885Z" fill="#CFD1DE"/>
</svg>
