<svg width="11" height="11" viewBox="0 0 11 11" fill="none" xmlns="http://www.w3.org/2000/svg">
<path d="M4.85334 1.30417C5.04424 0.716624 5.87547 0.716624 6.06637 1.30417L6.82006 3.62379C6.90544 3.88655 7.1503 4.06445 7.42658 4.06445H9.86557C10.4834 4.06445 10.7402 4.85499 10.2404 5.21812L8.26724 6.65172C8.04372 6.81411 7.95019 7.10196 8.03557 7.36472L8.78926 9.68434C8.98016 10.2719 8.30769 10.7605 7.80789 10.3973L5.8347 8.96374C5.61119 8.80135 5.30852 8.80135 5.08501 8.96374L3.11182 10.3973C2.61203 10.7605 1.93955 10.2719 2.13046 9.68434L2.88415 7.36472C2.96952 7.10196 2.87599 6.81411 2.65248 6.65172L0.679294 5.21812C0.179495 4.85499 0.436357 4.06445 1.05414 4.06445H3.49313C3.76941 4.06445 4.01427 3.88655 4.09965 3.62379L4.85334 1.30417Z" fill="#FFD600"/>
</svg>
