<svg width="11" height="11" viewBox="0 0 11 11" fill="none" xmlns="http://www.w3.org/2000/svg">
<path d="M5.31427 1.004C5.50518 0.416454 6.33641 0.416453 6.52731 1.004L7.281 3.32362C7.36638 3.58638 7.61124 3.76428 7.88752 3.76428H10.3265C10.9443 3.76428 11.2012 4.55482 10.7014 4.91795L8.72817 6.35155C8.50466 6.51394 8.41113 6.80179 8.4965 7.06455L9.25019 9.38417C9.4411 9.97171 8.76862 10.4603 8.26882 10.0972L6.29564 8.66357C6.07213 8.50118 5.76946 8.50118 5.54594 8.66357L3.57276 10.0972C3.07296 10.4603 2.40049 9.97172 2.59139 9.38417L3.34508 7.06455C3.43046 6.80179 3.33693 6.51394 3.11341 6.35155L1.14023 4.91795C0.640432 4.55482 0.897295 3.76428 1.51508 3.76428H3.95407C4.23035 3.76428 4.47521 3.58638 4.56059 3.32362L5.31427 1.004Z" fill="#FFD600"/>
</svg>
