<svg width="11" height="11" viewBox="0 0 11 11" fill="none" xmlns="http://www.w3.org/2000/svg">
<path d="M4.46076 1.10422C4.65166 0.516673 5.48289 0.516673 5.6738 1.10422L6.42748 3.42384C6.51286 3.6866 6.75772 3.8645 7.034 3.8645H9.47299C10.0908 3.8645 10.3476 4.65504 9.84784 5.01817L7.87466 6.45177C7.65114 6.61416 7.55761 6.90201 7.64299 7.16477L8.39668 9.48439C8.58758 10.0719 7.91511 10.5605 7.41531 10.1974L5.44213 8.76379C5.21861 8.6014 4.91595 8.6014 4.69243 8.76379L2.71925 10.1974C2.21945 10.5605 1.54697 10.0719 1.73788 9.48439L2.49157 7.16477C2.57694 6.90201 2.48341 6.61416 2.2599 6.45177L0.286716 5.01817C-0.213084 4.65504 0.0437793 3.8645 0.661565 3.8645H3.10055C3.37683 3.8645 3.62169 3.6866 3.70707 3.42384L4.46076 1.10422Z" fill="#FFD600"/>
</svg>
