<svg width="11" height="11" viewBox="0 0 11 11" fill="none" xmlns="http://www.w3.org/2000/svg">
<path d="M4.60822 1.20383C4.79913 0.616283 5.63035 0.616282 5.82126 1.20383L6.57495 3.52345C6.66032 3.78621 6.90518 3.96411 7.18146 3.96411H9.62045C10.2382 3.96411 10.4951 4.75465 9.9953 5.11778L8.02212 6.55138C7.7986 6.71377 7.70507 7.00162 7.79045 7.26438L8.54414 9.58399C8.73504 10.1715 8.06257 10.6601 7.56277 10.297L5.58959 8.8634C5.36607 8.70101 5.06341 8.70101 4.83989 8.8634L2.86671 10.297C2.36691 10.6601 1.69443 10.1715 1.88534 9.584L2.63903 7.26438C2.7244 7.00162 2.63088 6.71377 2.40736 6.55138L0.434177 5.11778C-0.0656226 4.75465 0.19124 3.96411 0.809026 3.96411H3.24801C3.52429 3.96411 3.76916 3.78621 3.85453 3.52345L4.60822 1.20383Z" fill="#C4C4C4"/>
</svg>
