<svg width="11" height="11" viewBox="0 0 11 11" fill="none" xmlns="http://www.w3.org/2000/svg">
<path d="M4.46076 1.40183C4.65166 0.814281 5.48289 0.814281 5.6738 1.40183L6.42748 3.72144C6.51286 3.9842 6.75772 4.16211 7.034 4.16211H9.47299C10.0908 4.16211 10.3476 4.95265 9.84784 5.31577L7.87466 6.74937C7.65114 6.91177 7.55761 7.19962 7.64299 7.46238L8.39668 9.78199C8.58758 10.3695 7.91511 10.8581 7.41531 10.495L5.44213 9.0614C5.21861 8.899 4.91595 8.899 4.69243 9.0614L2.71925 10.495C2.21945 10.8581 1.54697 10.3695 1.73788 9.78199L2.49157 7.46238C2.57694 7.19962 2.48341 6.91177 2.2599 6.74937L0.286716 5.31577C-0.213084 4.95265 0.0437793 4.16211 0.661565 4.16211H3.10055C3.37683 4.16211 3.62169 3.9842 3.70707 3.72144L4.46076 1.40183Z" fill="#FFD600"/>
</svg>
