<svg width="11" height="11" viewBox="0 0 11 11" fill="none" xmlns="http://www.w3.org/2000/svg">
<path d="M4.60822 1.21824C4.79913 0.630687 5.63035 0.630687 5.82126 1.21824L6.57495 3.53785C6.66032 3.80061 6.90518 3.97851 7.18146 3.97851H9.62045C10.2382 3.97851 10.4951 4.76905 9.9953 5.13218L8.02212 6.56578C7.7986 6.72817 7.70507 7.01603 7.79045 7.27879L8.54414 9.5984C8.73504 10.1859 8.06257 10.6745 7.56277 10.3114L5.58959 8.8778C5.36607 8.71541 5.06341 8.71541 4.83989 8.8778L2.86671 10.3114C2.36691 10.6745 1.69443 10.1859 1.88534 9.5984L2.63903 7.27878C2.7244 7.01603 2.63088 6.72817 2.40736 6.56578L0.434177 5.13218C-0.0656226 4.76905 0.19124 3.97851 0.809026 3.97851H3.24801C3.52429 3.97851 3.76916 3.80061 3.85453 3.53785L4.60822 1.21824Z" fill="#FFD600"/>
</svg>
