<svg width="11" height="10" viewBox="0 0 11 10" fill="none" xmlns="http://www.w3.org/2000/svg">
<path d="M4.70685 0.515111C4.89776 -0.0724381 5.72898 -0.0724382 5.91989 0.515111L6.67358 2.83473C6.75895 3.09749 7.00382 3.27539 7.2801 3.27539H9.71908C10.3369 3.27539 10.5937 4.06593 10.0939 4.42905L8.12075 5.86265C7.89723 6.02505 7.80371 6.3129 7.88908 6.57566L8.64277 8.89527C8.83368 9.48282 8.1612 9.97141 7.6614 9.60828L5.68822 8.17468C5.4647 8.01229 5.16204 8.01229 4.93852 8.17468L2.96534 9.60828C2.46554 9.97141 1.79307 9.48282 1.98397 8.89527L2.73766 6.57566C2.82304 6.3129 2.72951 6.02505 2.50599 5.86265L0.532809 4.42905C0.0330102 4.06593 0.289873 3.27539 0.907659 3.27539H3.34665C3.62293 3.27539 3.86779 3.09749 3.95316 2.83472L4.70685 0.515111Z" fill="#FFD600"/>
</svg>
