<svg width="11" height="11" viewBox="0 0 11 11" fill="none" xmlns="http://www.w3.org/2000/svg">
<path d="M4.46076 1.00339C4.65166 0.415843 5.48289 0.415843 5.6738 1.00339L6.42748 3.32301C6.51286 3.58577 6.75772 3.76367 7.034 3.76367H9.47299C10.0908 3.76367 10.3476 4.55421 9.84784 4.91734L7.87466 6.35094C7.65114 6.51333 7.55761 6.80118 7.64299 7.06394L8.39668 9.38356C8.58758 9.9711 7.91511 10.4597 7.41531 10.0966L5.44213 8.66296C5.21861 8.50057 4.91595 8.50057 4.69243 8.66296L2.71925 10.0966C2.21945 10.4597 1.54697 9.9711 1.73788 9.38356L2.49157 7.06394C2.57694 6.80118 2.48341 6.51333 2.2599 6.35094L0.286716 4.91734C-0.213084 4.55421 0.0437793 3.76367 0.661565 3.76367H3.10055C3.37683 3.76367 3.62169 3.58577 3.70707 3.32301L4.46076 1.00339Z" fill="#FFD600"/>
</svg>
