<svg width="11" height="11" viewBox="0 0 11 11" fill="none" xmlns="http://www.w3.org/2000/svg">
<path d="M4.70685 1.30442C4.89776 0.716869 5.72898 0.716868 5.91989 1.30442L6.67358 3.62403C6.75895 3.88679 7.00382 4.06469 7.2801 4.06469H9.71908C10.3369 4.06469 10.5937 4.85524 10.0939 5.21836L8.12075 6.65196C7.89723 6.81436 7.80371 7.10221 7.88908 7.36497L8.64277 9.68458C8.83368 10.2721 8.1612 10.7607 7.6614 10.3976L5.68822 8.96399C5.4647 8.80159 5.16204 8.80159 4.93852 8.96399L2.96534 10.3976C2.46554 10.7607 1.79307 10.2721 1.98397 9.68458L2.73766 7.36497C2.82304 7.10221 2.72951 6.81436 2.50599 6.65196L0.532809 5.21836C0.0330102 4.85524 0.289873 4.06469 0.907659 4.06469H3.34665C3.62293 4.06469 3.86779 3.88679 3.95316 3.62403L4.70685 1.30442Z" fill="#FFD600"/>
</svg>
