<svg width="11" height="11" viewBox="0 0 11 11" fill="none" xmlns="http://www.w3.org/2000/svg">
<path d="M4.85334 1.30442C5.04424 0.716869 5.87547 0.716868 6.06637 1.30442L6.82006 3.62403C6.90544 3.88679 7.1503 4.06469 7.42658 4.06469H9.86557C10.4834 4.06469 10.7402 4.85524 10.2404 5.21836L8.26724 6.65196C8.04372 6.81436 7.95019 7.10221 8.03557 7.36497L8.78925 9.68458C8.98016 10.2721 8.30769 10.7607 7.80789 10.3976L5.8347 8.96399C5.61119 8.80159 5.30852 8.80159 5.08501 8.96399L3.11182 10.3976C2.61203 10.7607 1.93955 10.2721 2.13046 9.68458L2.88415 7.36497C2.96952 7.10221 2.87599 6.81436 2.65248 6.65196L0.679294 5.21836C0.179495 4.85524 0.436357 4.06469 1.05414 4.06469H3.49313C3.76941 4.06469 4.01427 3.88679 4.09965 3.62403L4.85334 1.30442Z" fill="#FFD600"/>
</svg>
