<svg width="11" height="11" viewBox="0 0 11 11" fill="none" xmlns="http://www.w3.org/2000/svg">
<path d="M4.70685 1.20383C4.89776 0.616283 5.72898 0.616282 5.91989 1.20383L6.67358 3.52345C6.75895 3.78621 7.00382 3.96411 7.2801 3.96411H9.71908C10.3369 3.96411 10.5937 4.75465 10.0939 5.11778L8.12075 6.55138C7.89723 6.71377 7.80371 7.00162 7.88908 7.26438L8.64277 9.58399C8.83368 10.1715 8.1612 10.6601 7.6614 10.297L5.68822 8.8634C5.4647 8.70101 5.16204 8.70101 4.93852 8.8634L2.96534 10.297C2.46554 10.6601 1.79307 10.1715 1.98397 9.584L2.73766 7.26438C2.82304 7.00162 2.72951 6.71377 2.50599 6.55138L0.532809 5.11778C0.0330102 4.75465 0.289873 3.96411 0.907659 3.96411H3.34665C3.62293 3.96411 3.86779 3.78621 3.95316 3.52345L4.70685 1.20383Z" fill="#FFD600"/>
</svg>
