<svg width="11" height="11" viewBox="0 0 11 11" fill="none" xmlns="http://www.w3.org/2000/svg">
<path d="M4.60822 1.41745C4.79913 0.829906 5.63035 0.829906 5.82126 1.41745L6.57495 3.73707C6.66032 3.99983 6.90518 4.17773 7.18146 4.17773H9.62045C10.2382 4.17773 10.4951 4.96827 9.9953 5.3314L8.02212 6.765C7.7986 6.92739 7.70507 7.21524 7.79045 7.478L8.54414 9.79762C8.73504 10.3852 8.06257 10.8737 7.56277 10.5106L5.58959 9.07702C5.36607 8.91463 5.06341 8.91463 4.83989 9.07702L2.86671 10.5106C2.36691 10.8737 1.69443 10.3852 1.88534 9.79762L2.63903 7.478C2.7244 7.21524 2.63088 6.92739 2.40736 6.765L0.434177 5.3314C-0.0656226 4.96827 0.19124 4.17773 0.809026 4.17773H3.24801C3.52429 4.17773 3.76916 3.99983 3.85453 3.73707L4.60822 1.41745Z" fill="#FFD600"/>
</svg>
