<svg width="11" height="11" viewBox="0 0 11 11" fill="none" xmlns="http://www.w3.org/2000/svg">
<path d="M4.85334 1.004C5.04424 0.416454 5.87547 0.416453 6.06637 1.004L6.82006 3.32362C6.90544 3.58638 7.1503 3.76428 7.42658 3.76428H9.86557C10.4834 3.76428 10.7402 4.55482 10.2404 4.91795L8.26724 6.35155C8.04372 6.51394 7.95019 6.80179 8.03557 7.06455L8.78925 9.38417C8.98016 9.97171 8.30769 10.4603 7.80789 10.0972L5.8347 8.66357C5.61119 8.50118 5.30852 8.50118 5.08501 8.66357L3.11182 10.0972C2.61203 10.4603 1.93955 9.97172 2.13046 9.38417L2.88415 7.06455C2.96952 6.80179 2.87599 6.51394 2.65248 6.35155L0.679294 4.91795C0.179495 4.55482 0.436357 3.76428 1.05414 3.76428H3.49313C3.76941 3.76428 4.01427 3.58638 4.09965 3.32362L4.85334 1.004Z" fill="#FFD600"/>
</svg>
