<svg width="11" height="11" viewBox="0 0 11 11" fill="none" xmlns="http://www.w3.org/2000/svg">
<path d="M4.85334 1.00339C5.04424 0.415843 5.87547 0.415843 6.06637 1.00339L6.82006 3.32301C6.90544 3.58577 7.1503 3.76367 7.42658 3.76367H9.86557C10.4834 3.76367 10.7402 4.55421 10.2404 4.91734L8.26724 6.35094C8.04372 6.51333 7.95019 6.80118 8.03557 7.06394L8.78926 9.38356C8.98016 9.9711 8.30769 10.4597 7.80789 10.0966L5.8347 8.66296C5.61119 8.50057 5.30852 8.50057 5.08501 8.66296L3.11182 10.0966C2.61203 10.4597 1.93955 9.9711 2.13046 9.38356L2.88415 7.06394C2.96952 6.80118 2.87599 6.51333 2.65248 6.35094L0.679294 4.91734C0.179495 4.55421 0.436357 3.76367 1.05414 3.76367H3.49313C3.76941 3.76367 4.01427 3.58577 4.09965 3.32301L4.85334 1.00339Z" fill="#FFD600"/>
</svg>
