<svg width="11" height="10" viewBox="0 0 11 10" fill="none" xmlns="http://www.w3.org/2000/svg">
<path d="M4.60822 0.515111C4.79913 -0.0724381 5.63035 -0.0724382 5.82126 0.515111L6.57495 2.83473C6.66032 3.09749 6.90518 3.27539 7.18146 3.27539H9.62045C10.2382 3.27539 10.4951 4.06593 9.9953 4.42905L8.02212 5.86265C7.7986 6.02505 7.70507 6.3129 7.79045 6.57566L8.54414 8.89527C8.73504 9.48282 8.06257 9.97141 7.56277 9.60828L5.58959 8.17468C5.36607 8.01229 5.06341 8.01229 4.83989 8.17468L2.86671 9.60828C2.36691 9.97141 1.69443 9.48282 1.88534 8.89527L2.63903 6.57566C2.7244 6.3129 2.63088 6.02505 2.40736 5.86265L0.434177 4.42905C-0.0656226 4.06593 0.19124 3.27539 0.809026 3.27539H3.24801C3.52429 3.27539 3.76916 3.09749 3.85453 2.83472L4.60822 0.515111Z" fill="#FFD600"/>
</svg>
