<svg width="11" height="11" viewBox="0 0 11 11" fill="none" xmlns="http://www.w3.org/2000/svg">
<path d="M4.60822 1.004C4.79913 0.416454 5.63035 0.416453 5.82126 1.004L6.57495 3.32362C6.66032 3.58638 6.90518 3.76428 7.18146 3.76428H9.62045C10.2382 3.76428 10.4951 4.55482 9.9953 4.91795L8.02212 6.35155C7.7986 6.51394 7.70507 6.80179 7.79045 7.06455L8.54414 9.38417C8.73504 9.97171 8.06257 10.4603 7.56277 10.0972L5.58959 8.66357C5.36607 8.50118 5.06341 8.50118 4.83989 8.66357L2.86671 10.0972C2.36691 10.4603 1.69443 9.97172 1.88534 9.38417L2.63903 7.06455C2.7244 6.80179 2.63088 6.51394 2.40736 6.35155L0.434177 4.91795C-0.0656226 4.55482 0.19124 3.76428 0.809026 3.76428H3.24801C3.52429 3.76428 3.76916 3.58638 3.85453 3.32362L4.60822 1.004Z" fill="#C4C4C4"/>
</svg>
