<svg width="11" height="11" viewBox="0 0 11 11" fill="none" xmlns="http://www.w3.org/2000/svg">
<path d="M5.31427 1.10422C5.50518 0.516673 6.33641 0.516673 6.52731 1.10422L7.281 3.42384C7.36638 3.6866 7.61124 3.8645 7.88752 3.8645H10.3265C10.9443 3.8645 11.2012 4.65504 10.7014 5.01817L8.72817 6.45177C8.50466 6.61416 8.41113 6.90201 8.4965 7.16477L9.25019 9.48439C9.4411 10.0719 8.76862 10.5605 8.26882 10.1974L6.29564 8.76379C6.07213 8.6014 5.76946 8.6014 5.54594 8.76379L3.57276 10.1974C3.07296 10.5605 2.40049 10.0719 2.59139 9.48439L3.34508 7.16477C3.43046 6.90201 3.33693 6.61416 3.11341 6.45177L1.14023 5.01817C0.640432 4.65504 0.897295 3.8645 1.51508 3.8645H3.95407C4.23035 3.8645 4.47521 3.6866 4.56059 3.42384L5.31427 1.10422Z" fill="#FFD600"/>
</svg>
