<svg width="11" height="11" viewBox="0 0 11 11" fill="none" xmlns="http://www.w3.org/2000/svg">
<path d="M4.46076 1.20261C4.65166 0.615062 5.48289 0.615062 5.6738 1.20261L6.42748 3.52223C6.51286 3.78499 6.75772 3.96289 7.034 3.96289H9.47299C10.0908 3.96289 10.3476 4.75343 9.84784 5.11655L7.87466 6.55015C7.65114 6.71255 7.55761 7.0004 7.64299 7.26316L8.39668 9.58277C8.58758 10.1703 7.91511 10.6589 7.41531 10.2958L5.44213 8.86218C5.21861 8.69979 4.91595 8.69979 4.69243 8.86218L2.71925 10.2958C2.21945 10.6589 1.54697 10.1703 1.73788 9.58277L2.49157 7.26316C2.57694 7.0004 2.48341 6.71255 2.2599 6.55015L0.286716 5.11655C-0.213084 4.75343 0.0437793 3.96289 0.661565 3.96289H3.10055C3.37683 3.96289 3.62169 3.78498 3.70707 3.52222L4.46076 1.20261Z" fill="#FFD600"/>
</svg>
