<svg width="11" height="11" viewBox="0 0 11 11" fill="none" xmlns="http://www.w3.org/2000/svg">
<path d="M4.46076 1.20383C4.65166 0.616283 5.48289 0.616282 5.6738 1.20383L6.42748 3.52345C6.51286 3.78621 6.75772 3.96411 7.034 3.96411H9.47299C10.0908 3.96411 10.3476 4.75465 9.84784 5.11778L7.87466 6.55138C7.65114 6.71377 7.55761 7.00162 7.64299 7.26438L8.39668 9.58399C8.58758 10.1715 7.91511 10.6601 7.41531 10.297L5.44213 8.8634C5.21861 8.70101 4.91595 8.70101 4.69243 8.8634L2.71925 10.297C2.21945 10.6601 1.54697 10.1715 1.73788 9.584L2.49157 7.26438C2.57694 7.00162 2.48341 6.71377 2.2599 6.55138L0.286716 5.11778C-0.213084 4.75465 0.0437793 3.96411 0.661565 3.96411H3.10055C3.37683 3.96411 3.62169 3.78621 3.70707 3.52345L4.46076 1.20383Z" fill="#FFD600"/>
</svg>
