<svg width="11" height="11" viewBox="0 0 11 11" fill="none" xmlns="http://www.w3.org/2000/svg">
<path d="M4.60822 1.20261C4.79913 0.615062 5.63035 0.615062 5.82126 1.20261L6.57495 3.52223C6.66032 3.78499 6.90518 3.96289 7.18146 3.96289H9.62045C10.2382 3.96289 10.4951 4.75343 9.9953 5.11655L8.02212 6.55015C7.7986 6.71255 7.70507 7.0004 7.79045 7.26316L8.54414 9.58277C8.73504 10.1703 8.06257 10.6589 7.56277 10.2958L5.58959 8.86218C5.36607 8.69979 5.06341 8.69979 4.83989 8.86218L2.86671 10.2958C2.36691 10.6589 1.69443 10.1703 1.88534 9.58277L2.63903 7.26316C2.7244 7.0004 2.63088 6.71255 2.40736 6.55015L0.434177 5.11655C-0.0656226 4.75343 0.19124 3.96289 0.809026 3.96289H3.24801C3.52429 3.96289 3.76916 3.78499 3.85453 3.52222L4.60822 1.20261Z" fill="#C4C4C4"/>
</svg>
