<svg width="11" height="11" viewBox="0 0 11 11" fill="none" xmlns="http://www.w3.org/2000/svg">
<path d="M4.46076 1.004C4.65166 0.416454 5.48289 0.416453 5.6738 1.004L6.42748 3.32362C6.51286 3.58638 6.75772 3.76428 7.034 3.76428H9.47299C10.0908 3.76428 10.3476 4.55482 9.84784 4.91795L7.87466 6.35155C7.65114 6.51394 7.55761 6.80179 7.64299 7.06455L8.39668 9.38417C8.58758 9.97171 7.91511 10.4603 7.41531 10.0972L5.44213 8.66357C5.21861 8.50118 4.91595 8.50118 4.69243 8.66357L2.71925 10.0972C2.21945 10.4603 1.54697 9.97172 1.73788 9.38417L2.49157 7.06455C2.57694 6.80179 2.48341 6.51394 2.2599 6.35155L0.286716 4.91795C-0.213084 4.55482 0.0437793 3.76428 0.661565 3.76428H3.10055C3.37683 3.76428 3.62169 3.58638 3.70707 3.32362L4.46076 1.004Z" fill="#FFD600"/>
</svg>
