<svg width="11" height="11" viewBox="0 0 11 11" fill="none" xmlns="http://www.w3.org/2000/svg">
<path d="M5.31427 1.40403C5.50518 0.816478 6.33641 0.816478 6.52731 1.40403L7.281 3.72364C7.36638 3.9864 7.61124 4.1643 7.88752 4.1643H10.3265C10.9443 4.1643 11.2012 4.95485 10.7014 5.31797L8.72817 6.75157C8.50466 6.91397 8.41113 7.20182 8.4965 7.46458L9.25019 9.78419C9.4411 10.3717 8.76862 10.8603 8.26882 10.4972L6.29564 9.0636C6.07213 8.9012 5.76946 8.9012 5.54594 9.0636L3.57276 10.4972C3.07296 10.8603 2.40049 10.3717 2.59139 9.78419L3.34508 7.46458C3.43046 7.20182 3.33693 6.91396 3.11341 6.75157L1.14023 5.31797C0.640432 4.95485 0.897295 4.1643 1.51508 4.1643H3.95407C4.23035 4.1643 4.47521 3.9864 4.56059 3.72364L5.31427 1.40403Z" fill="#FFD600"/>
</svg>
