<svg width="11" height="11" viewBox="0 0 11 11" fill="none" xmlns="http://www.w3.org/2000/svg">
<path d="M5.31427 1.20261C5.50518 0.615062 6.33641 0.615062 6.52731 1.20261L7.281 3.52223C7.36638 3.78499 7.61124 3.96289 7.88752 3.96289H10.3265C10.9443 3.96289 11.2012 4.75343 10.7014 5.11655L8.72817 6.55015C8.50466 6.71255 8.41113 7.0004 8.4965 7.26316L9.25019 9.58277C9.4411 10.1703 8.76862 10.6589 8.26882 10.2958L6.29564 8.86218C6.07213 8.69979 5.76946 8.69979 5.54594 8.86218L3.57276 10.2958C3.07296 10.6589 2.40049 10.1703 2.59139 9.58277L3.34508 7.26316C3.43046 7.0004 3.33693 6.71255 3.11341 6.55015L1.14023 5.11655C0.640432 4.75343 0.897295 3.96289 1.51508 3.96289H3.95407C4.23035 3.96289 4.47521 3.78499 4.56059 3.52222L5.31427 1.20261Z" fill="#FFD600"/>
</svg>
