<svg width="11" height="11" viewBox="0 0 11 11" fill="none" xmlns="http://www.w3.org/2000/svg">
<path d="M4.85334 1.20261C5.04424 0.615062 5.87547 0.615062 6.06637 1.20261L6.82006 3.52223C6.90544 3.78499 7.1503 3.96289 7.42658 3.96289H9.86557C10.4834 3.96289 10.7402 4.75343 10.2404 5.11655L8.26724 6.55015C8.04372 6.71255 7.95019 7.0004 8.03557 7.26316L8.78926 9.58277C8.98016 10.1703 8.30769 10.6589 7.80789 10.2958L5.8347 8.86218C5.61119 8.69979 5.30852 8.69979 5.08501 8.86218L3.11182 10.2958C2.61203 10.6589 1.93955 10.1703 2.13046 9.58277L2.88415 7.26316C2.96952 7.0004 2.87599 6.71255 2.65248 6.55015L0.679294 5.11655C0.179495 4.75343 0.436357 3.96289 1.05414 3.96289H3.49313C3.76941 3.96289 4.01427 3.78499 4.09965 3.52222L4.85334 1.20261Z" fill="#FFD600"/>
</svg>
