<svg width="12" height="11" viewBox="0 0 12 11" fill="none" xmlns="http://www.w3.org/2000/svg">
<path d="M5.15637 0.927049C5.45572 0.00573826 6.75913 0.00573993 7.05848 0.927051L7.67902 2.83688C7.81289 3.2489 8.19685 3.52786 8.63008 3.52786H10.6382C11.6069 3.52786 12.0097 4.76748 11.226 5.33688L9.60138 6.51722C9.25089 6.77187 9.10423 7.22323 9.23811 7.63525L9.85865 9.54508C10.158 10.4664 9.10352 11.2325 8.31981 10.6631L6.69521 9.48278C6.34472 9.22813 5.87012 9.22814 5.51964 9.48278L3.89504 10.6631C3.11132 11.2325 2.05684 10.4664 2.3562 9.54508L2.97674 7.63526C3.11061 7.22323 2.96395 6.77186 2.61347 6.51722L0.988867 5.33688C0.205153 4.76748 0.60793 3.52786 1.57665 3.52786H3.58477C4.01799 3.52786 4.40195 3.2489 4.53582 2.83688L5.15637 0.927049Z" fill="#FCFCFC"/>
</svg>
