<svg width="11" height="11" viewBox="0 0 11 11" fill="none" xmlns="http://www.w3.org/2000/svg">
<path d="M5.31427 1.20383C5.50518 0.616283 6.33641 0.616282 6.52731 1.20383L7.281 3.52345C7.36638 3.78621 7.61124 3.96411 7.88752 3.96411H10.3265C10.9443 3.96411 11.2012 4.75465 10.7014 5.11778L8.72817 6.55138C8.50466 6.71377 8.41113 7.00162 8.4965 7.26438L9.25019 9.58399C9.4411 10.1715 8.76862 10.6601 8.26882 10.297L6.29564 8.8634C6.07213 8.70101 5.76946 8.70101 5.54594 8.8634L3.57276 10.297C3.07296 10.6601 2.40049 10.1715 2.59139 9.584L3.34508 7.26438C3.43046 7.00162 3.33693 6.71377 3.11341 6.55138L1.14023 5.11778C0.640432 4.75465 0.897295 3.96411 1.51508 3.96411H3.95407C4.23035 3.96411 4.47521 3.78621 4.56059 3.52345L5.31427 1.20383Z" fill="#FFD600"/>
</svg>
