<svg width="11" height="11" viewBox="0 0 11 11" fill="none" xmlns="http://www.w3.org/2000/svg">
<path d="M4.70685 1.00339C4.89776 0.415843 5.72898 0.415843 5.91989 1.00339L6.67358 3.32301C6.75895 3.58577 7.00382 3.76367 7.2801 3.76367H9.71908C10.3369 3.76367 10.5937 4.55421 10.0939 4.91734L8.12075 6.35094C7.89723 6.51333 7.80371 6.80118 7.88908 7.06394L8.64277 9.38356C8.83368 9.9711 8.1612 10.4597 7.6614 10.0966L5.68822 8.66296C5.4647 8.50057 5.16204 8.50057 4.93852 8.66296L2.96534 10.0966C2.46554 10.4597 1.79307 9.9711 1.98397 9.38356L2.73766 7.06394C2.82304 6.80118 2.72951 6.51333 2.50599 6.35094L0.532809 4.91734C0.0330102 4.55421 0.289873 3.76367 0.907659 3.76367H3.34665C3.62293 3.76367 3.86779 3.58577 3.95316 3.32301L4.70685 1.00339Z" fill="#FFD600"/>
</svg>
