<svg width="11" height="11" viewBox="0 0 11 11" fill="none" xmlns="http://www.w3.org/2000/svg">
<path d="M4.70685 1.004C4.89776 0.416454 5.72898 0.416453 5.91989 1.004L6.67358 3.32362C6.75895 3.58638 7.00382 3.76428 7.2801 3.76428H9.71908C10.3369 3.76428 10.5937 4.55482 10.0939 4.91795L8.12075 6.35155C7.89723 6.51394 7.80371 6.80179 7.88908 7.06455L8.64277 9.38417C8.83368 9.97171 8.1612 10.4603 7.6614 10.0972L5.68822 8.66357C5.4647 8.50118 5.16204 8.50118 4.93852 8.66357L2.96534 10.0972C2.46554 10.4603 1.79307 9.97172 1.98397 9.38417L2.73766 7.06455C2.82304 6.80179 2.72951 6.51394 2.50599 6.35155L0.532809 4.91795C0.0330102 4.55482 0.289873 3.76428 0.907659 3.76428H3.34665C3.62293 3.76428 3.86779 3.58638 3.95316 3.32362L4.70685 1.004Z" fill="#FFD600"/>
</svg>
