<svg width="11" height="11" viewBox="0 0 11 11" fill="none" xmlns="http://www.w3.org/2000/svg">
<path d="M4.46076 1.21824C4.65166 0.630687 5.48289 0.630687 5.6738 1.21824L6.42748 3.53785C6.51286 3.80061 6.75772 3.97851 7.034 3.97851H9.47299C10.0908 3.97851 10.3476 4.76905 9.84784 5.13218L7.87466 6.56578C7.65114 6.72817 7.55761 7.01603 7.64299 7.27879L8.39668 9.5984C8.58758 10.1859 7.91511 10.6745 7.41531 10.3114L5.44213 8.8778C5.21861 8.71541 4.91595 8.71541 4.69243 8.8778L2.71925 10.3114C2.21945 10.6745 1.54697 10.1859 1.73788 9.5984L2.49157 7.27878C2.57694 7.01603 2.48341 6.72817 2.2599 6.56578L0.286716 5.13218C-0.213084 4.76905 0.0437793 3.97851 0.661565 3.97851H3.10055C3.37683 3.97851 3.62169 3.80061 3.70707 3.53785L4.46076 1.21824Z" fill="#FFD600"/>
</svg>
