<svg width="11" height="11" viewBox="0 0 11 11" fill="none" xmlns="http://www.w3.org/2000/svg">
<path d="M4.46076 1.40403C4.65166 0.816478 5.48289 0.816478 5.6738 1.40403L6.42748 3.72364C6.51286 3.9864 6.75772 4.1643 7.034 4.1643H9.47299C10.0908 4.1643 10.3476 4.95485 9.84784 5.31797L7.87466 6.75157C7.65114 6.91397 7.55761 7.20182 7.64299 7.46458L8.39668 9.78419C8.58758 10.3717 7.91511 10.8603 7.41531 10.4972L5.44213 9.0636C5.21861 8.9012 4.91595 8.9012 4.69243 9.0636L2.71925 10.4972C2.21945 10.8603 1.54697 10.3717 1.73788 9.78419L2.49157 7.46458C2.57694 7.20182 2.48341 6.91396 2.2599 6.75157L0.286716 5.31797C-0.213084 4.95485 0.0437793 4.1643 0.661565 4.1643H3.10055C3.37683 4.1643 3.62169 3.9864 3.70707 3.72364L4.46076 1.40403Z" fill="#FFD600"/>
</svg>
