<svg width="11" height="11" viewBox="0 0 11 11" fill="none" xmlns="http://www.w3.org/2000/svg">
<path d="M4.46076 1.30417C4.65166 0.716624 5.48289 0.716624 5.6738 1.30417L6.42748 3.62379C6.51286 3.88655 6.75772 4.06445 7.034 4.06445H9.47299C10.0908 4.06445 10.3476 4.85499 9.84784 5.21812L7.87466 6.65172C7.65114 6.81411 7.55761 7.10196 7.64299 7.36472L8.39668 9.68434C8.58758 10.2719 7.91511 10.7605 7.41531 10.3973L5.44213 8.96374C5.21861 8.80135 4.91595 8.80135 4.69243 8.96374L2.71925 10.3973C2.21945 10.7605 1.54697 10.2719 1.73788 9.68434L2.49157 7.36472C2.57694 7.10196 2.48341 6.81411 2.2599 6.65172L0.286716 5.21812C-0.213084 4.85499 0.0437793 4.06445 0.661565 4.06445H3.10055C3.37683 4.06445 3.62169 3.88655 3.70707 3.62379L4.46076 1.30417Z" fill="#FFD600"/>
</svg>
