<svg width="11" height="11" viewBox="0 0 11 11" fill="none" xmlns="http://www.w3.org/2000/svg">
<path d="M4.60822 1.1041C4.79913 0.516551 5.63035 0.516551 5.82126 1.1041L6.57495 3.42371C6.66032 3.68647 6.90518 3.86438 7.18146 3.86438H9.62045C10.2382 3.86438 10.4951 4.65492 9.9953 5.01804L8.02212 6.45164C7.7986 6.61404 7.70507 6.90189 7.79045 7.16465L8.54414 9.48426C8.73504 10.0718 8.06257 10.5604 7.56277 10.1973L5.58959 8.76367C5.36607 8.60127 5.06341 8.60127 4.83989 8.76367L2.86671 10.1973C2.36691 10.5604 1.69443 10.0718 1.88534 9.48426L2.63903 7.16465C2.7244 6.90189 2.63088 6.61404 2.40736 6.45164L0.434177 5.01804C-0.0656226 4.65492 0.19124 3.86438 0.809026 3.86438H3.24801C3.52429 3.86438 3.76916 3.68647 3.85453 3.42371L4.60822 1.1041Z" fill="#FFD600"/>
</svg>
