<svg width="11" height="11" viewBox="0 0 11 11" fill="none" xmlns="http://www.w3.org/2000/svg">
<path d="M4.70685 1.1041C4.89776 0.516551 5.72898 0.516551 5.91989 1.1041L6.67358 3.42371C6.75895 3.68647 7.00382 3.86438 7.2801 3.86438H9.71908C10.3369 3.86438 10.5937 4.65492 10.0939 5.01804L8.12075 6.45164C7.89723 6.61404 7.80371 6.90189 7.88908 7.16465L8.64277 9.48426C8.83368 10.0718 8.1612 10.5604 7.6614 10.1973L5.68822 8.76367C5.4647 8.60127 5.16204 8.60127 4.93852 8.76367L2.96534 10.1973C2.46554 10.5604 1.79307 10.0718 1.98397 9.48426L2.73766 7.16465C2.82304 6.90189 2.72951 6.61404 2.50599 6.45164L0.532809 5.01804C0.0330102 4.65492 0.289873 3.86438 0.907659 3.86438H3.34665C3.62293 3.86438 3.86779 3.68647 3.95316 3.42371L4.70685 1.1041Z" fill="#FFD600"/>
</svg>
