<svg width="11" height="11" viewBox="0 0 11 11" fill="none" xmlns="http://www.w3.org/2000/svg">
<path d="M4.70685 1.41745C4.89776 0.829906 5.72898 0.829906 5.91989 1.41745L6.67358 3.73707C6.75895 3.99983 7.00382 4.17773 7.2801 4.17773H9.71908C10.3369 4.17773 10.5937 4.96827 10.0939 5.3314L8.12075 6.765C7.89723 6.92739 7.80371 7.21524 7.88908 7.478L8.64277 9.79762C8.83368 10.3852 8.1612 10.8737 7.6614 10.5106L5.68822 9.07702C5.4647 8.91463 5.16204 8.91463 4.93852 9.07702L2.96534 10.5106C2.46554 10.8737 1.79307 10.3852 1.98397 9.79762L2.73766 7.478C2.82304 7.21524 2.72951 6.92739 2.50599 6.765L0.532809 5.3314C0.0330102 4.96827 0.289873 4.17773 0.907659 4.17773H3.34665C3.62293 4.17773 3.86779 3.99983 3.95316 3.73707L4.70685 1.41745Z" fill="#FFD600"/>
</svg>
