<svg width="11" height="11" viewBox="0 0 11 11" fill="none" xmlns="http://www.w3.org/2000/svg">
<path d="M4.46076 1.30442C4.65166 0.716869 5.48289 0.716868 5.6738 1.30442L6.42748 3.62403C6.51286 3.88679 6.75772 4.06469 7.034 4.06469H9.47299C10.0908 4.06469 10.3476 4.85524 9.84784 5.21836L7.87466 6.65196C7.65114 6.81436 7.55761 7.10221 7.64299 7.36497L8.39668 9.68458C8.58758 10.2721 7.91511 10.7607 7.41531 10.3976L5.44213 8.96399C5.21861 8.80159 4.91595 8.80159 4.69243 8.96399L2.71925 10.3976C2.21945 10.7607 1.54697 10.2721 1.73788 9.68458L2.49157 7.36497C2.57694 7.10221 2.48341 6.81436 2.2599 6.65196L0.286716 5.21836C-0.213084 4.85524 0.0437793 4.06469 0.661565 4.06469H3.10055C3.37683 4.06469 3.62169 3.88679 3.70707 3.62403L4.46076 1.30442Z" fill="#FFD600"/>
</svg>
