<svg width="11" height="11" viewBox="0 0 11 11" fill="none" xmlns="http://www.w3.org/2000/svg">
<path d="M4.85334 1.40183C5.04424 0.814281 5.87547 0.814281 6.06637 1.40183L6.82006 3.72144C6.90544 3.9842 7.1503 4.16211 7.42658 4.16211H9.86557C10.4834 4.16211 10.7402 4.95265 10.2404 5.31577L8.26724 6.74937C8.04372 6.91177 7.95019 7.19962 8.03557 7.46238L8.78925 9.78199C8.98016 10.3695 8.30769 10.8581 7.80789 10.495L5.8347 9.0614C5.61119 8.899 5.30852 8.899 5.08501 9.0614L3.11182 10.495C2.61203 10.8581 1.93955 10.3695 2.13046 9.78199L2.88415 7.46238C2.96952 7.19962 2.87599 6.91177 2.65248 6.74937L0.679294 5.31577C0.179495 4.95265 0.436357 4.16211 1.05414 4.16211H3.49313C3.76941 4.16211 4.01427 3.9842 4.09965 3.72144L4.85334 1.40183Z" fill="#FFD600"/>
</svg>
