<svg width="11" height="10" viewBox="0 0 11 10" fill="none" xmlns="http://www.w3.org/2000/svg">
<path d="M5.31427 0.515111C5.50518 -0.0724381 6.33641 -0.0724382 6.52731 0.515111L7.281 2.83473C7.36638 3.09749 7.61124 3.27539 7.88752 3.27539H10.3265C10.9443 3.27539 11.2012 4.06593 10.7014 4.42905L8.72817 5.86265C8.50466 6.02505 8.41113 6.3129 8.4965 6.57566L9.25019 8.89527C9.4411 9.48282 8.76862 9.97141 8.26882 9.60828L6.29564 8.17468C6.07213 8.01229 5.76946 8.01229 5.54594 8.17468L3.57276 9.60828C3.07296 9.97141 2.40049 9.48282 2.59139 8.89527L3.34508 6.57566C3.43046 6.3129 3.33693 6.02505 3.11341 5.86265L1.14023 4.42905C0.640432 4.06593 0.897295 3.27539 1.51508 3.27539H3.95407C4.23035 3.27539 4.47521 3.09749 4.56059 2.83472L5.31427 0.515111Z" fill="#FFD600"/>
</svg>
