<svg width="11" height="11" viewBox="0 0 11 11" fill="none" xmlns="http://www.w3.org/2000/svg">
<path d="M4.85334 1.20383C5.04424 0.616283 5.87547 0.616282 6.06637 1.20383L6.82006 3.52345C6.90544 3.78621 7.1503 3.96411 7.42658 3.96411H9.86557C10.4834 3.96411 10.7402 4.75465 10.2404 5.11778L8.26724 6.55138C8.04372 6.71377 7.95019 7.00162 8.03557 7.26438L8.78925 9.58399C8.98016 10.1715 8.30769 10.6601 7.80789 10.297L5.8347 8.8634C5.61119 8.70101 5.30852 8.70101 5.08501 8.8634L3.11182 10.297C2.61203 10.6601 1.93955 10.1715 2.13046 9.584L2.88415 7.26438C2.96952 7.00162 2.87599 6.71377 2.65248 6.55138L0.679294 5.11778C0.179495 4.75465 0.436357 3.96411 1.05414 3.96411H3.49313C3.76941 3.96411 4.01427 3.78621 4.09965 3.52345L4.85334 1.20383Z" fill="#FFD600"/>
</svg>
