<svg width="11" height="11" viewBox="0 0 11 11" fill="none" xmlns="http://www.w3.org/2000/svg">
<path d="M5.31427 1.31589C5.50518 0.728343 6.33641 0.728343 6.52731 1.31589L7.281 3.63551C7.36638 3.89827 7.61124 4.07617 7.88752 4.07617H10.3265C10.9443 4.07617 11.2012 4.86671 10.7014 5.22984L8.72817 6.66344C8.50466 6.82583 8.41113 7.11368 8.4965 7.37644L9.25019 9.69606C9.4411 10.2836 8.76862 10.7722 8.26882 10.4091L6.29564 8.97546C6.07213 8.81307 5.76946 8.81307 5.54594 8.97546L3.57276 10.4091C3.07296 10.7722 2.40049 10.2836 2.59139 9.69606L3.34508 7.37644C3.43046 7.11368 3.33693 6.82583 3.11341 6.66344L1.14023 5.22984C0.640432 4.86671 0.897295 4.07617 1.51508 4.07617H3.95407C4.23035 4.07617 4.47521 3.89827 4.56059 3.63551L5.31427 1.31589Z" fill="#FFD600"/>
</svg>
