<svg width="11" height="11" viewBox="0 0 11 11" fill="none" xmlns="http://www.w3.org/2000/svg">
<path d="M4.70685 1.10105C4.89776 0.513499 5.72898 0.513499 5.91989 1.10105L6.67358 3.42066C6.75895 3.68342 7.00382 3.86132 7.2801 3.86132H9.71908C10.3369 3.86132 10.5937 4.65187 10.0939 5.01499L8.12075 6.44859C7.89723 6.61099 7.80371 6.89884 7.88908 7.1616L8.64277 9.48121C8.83368 10.0688 8.1612 10.5573 7.6614 10.1942L5.68822 8.76062C5.4647 8.59822 5.16204 8.59822 4.93852 8.76062L2.96534 10.1942C2.46554 10.5573 1.79307 10.0688 1.98397 9.48121L2.73766 7.1616C2.82304 6.89884 2.72951 6.61099 2.50599 6.44859L0.532809 5.01499C0.0330102 4.65187 0.289873 3.86132 0.907659 3.86132H3.34665C3.62293 3.86132 3.86779 3.68342 3.95316 3.42066L4.70685 1.10105Z" fill="#FFD600"/>
</svg>
