<svg width="11" height="11" viewBox="0 0 11 11" fill="none" xmlns="http://www.w3.org/2000/svg">
<path d="M4.60822 1.40412C4.79913 0.81657 5.63035 0.816569 5.82126 1.40412L6.57495 3.72373C6.66032 3.98649 6.90518 4.16439 7.18146 4.16439H9.62045C10.2382 4.16439 10.4951 4.95494 9.9953 5.31806L8.02212 6.75166C7.7986 6.91406 7.70507 7.20191 7.79045 7.46467L8.54414 9.78428C8.73504 10.3718 8.06257 10.8604 7.56277 10.4973L5.58959 9.06369C5.36607 8.90129 5.06341 8.90129 4.83989 9.06369L2.86671 10.4973C2.36691 10.8604 1.69443 10.3718 1.88534 9.78428L2.63903 7.46467C2.7244 7.20191 2.63088 6.91406 2.40736 6.75166L0.434177 5.31806C-0.0656226 4.95494 0.19124 4.16439 0.809026 4.16439H3.24801C3.52429 4.16439 3.76916 3.98649 3.85453 3.72373L4.60822 1.40412Z" fill="#FFD600"/>
</svg>
