<svg width="12" height="11" viewBox="0 0 12 11" fill="none" xmlns="http://www.w3.org/2000/svg">
<path d="M5.1798 0.8145C5.47916 -0.106811 6.78256 -0.106809 7.08192 0.814502L7.70246 2.72433C7.83633 3.13636 8.22029 3.41532 8.65351 3.41532H10.6616C11.6304 3.41532 12.0331 4.65493 11.2494 5.22433L9.62481 6.40467C9.27433 6.65932 9.12767 7.11068 9.26154 7.52271L9.88208 9.43253C10.1814 10.3538 9.12696 11.12 8.34324 10.5506L6.71864 9.37023C6.36816 9.11559 5.89356 9.11559 5.54307 9.37023L3.91847 10.5506C3.13476 11.12 2.08028 10.3538 2.37963 9.43254L3.00018 7.52271C3.13405 7.11068 2.98739 6.65932 2.6369 6.40467L1.0123 5.22433C0.22859 4.65493 0.631367 3.41532 1.60009 3.41532H3.60821C4.04143 3.41532 4.42539 3.13635 4.55926 2.72433L5.1798 0.8145Z" fill="#FCFCFC"/>
</svg>
