<svg width="30" height="30" viewBox="0 0 30 30" fill="none" xmlns="http://www.w3.org/2000/svg">
<path d="M14.0846 3.57376C14.3905 2.84103 15.4286 2.84103 15.7345 3.57376L18.3585 9.85961C18.4807 10.1524 18.749 10.3585 19.0635 10.4011L25.9792 11.3371C26.7542 11.442 27.0304 12.4211 26.4245 12.9155L21.0846 17.2731C20.8206 17.4885 20.702 17.8352 20.7788 18.1672L22.4861 25.5448C22.6709 26.3435 21.7727 26.949 21.1017 26.478L15.4231 22.4924C15.1149 22.2761 14.7042 22.2761 14.396 22.4924L8.71735 26.478C8.04628 26.949 7.14808 26.3436 7.33291 25.5448L9.04005 18.1672C9.11686 17.8352 8.9983 17.4885 8.73433 17.2731L3.39452 12.9155C2.78866 12.4211 3.06487 11.442 3.8398 11.3371L10.7556 10.4011C11.07 10.3585 11.3384 10.1524 11.4606 9.85961L14.0846 3.57376Z" stroke="#389BEC" stroke-width="2.38376" stroke-miterlimit="3.3292" stroke-linecap="round" stroke-linejoin="round"/>
</svg>
