<svg width="11" height="11" viewBox="0 0 11 11" fill="none" xmlns="http://www.w3.org/2000/svg">
<path d="M4.60822 1.00339C4.79913 0.415843 5.63035 0.415843 5.82126 1.00339L6.57495 3.32301C6.66032 3.58577 6.90518 3.76367 7.18146 3.76367H9.62045C10.2382 3.76367 10.4951 4.55421 9.9953 4.91734L8.02212 6.35094C7.7986 6.51333 7.70507 6.80118 7.79045 7.06394L8.54414 9.38356C8.73504 9.9711 8.06257 10.4597 7.56277 10.0966L5.58959 8.66296C5.36607 8.50057 5.06341 8.50057 4.83989 8.66296L2.86671 10.0966C2.36691 10.4597 1.69443 9.9711 1.88534 9.38356L2.63903 7.06394C2.7244 6.80118 2.63088 6.51333 2.40736 6.35094L0.434177 4.91734C-0.0656226 4.55421 0.19124 3.76367 0.809026 3.76367H3.24801C3.52429 3.76367 3.76916 3.58577 3.85453 3.32301L4.60822 1.00339Z" fill="#C4C4C4"/>
</svg>
