<svg width="11" height="11" viewBox="0 0 11 11" fill="none" xmlns="http://www.w3.org/2000/svg">
<path d="M4.70685 1.40412C4.89776 0.81657 5.72898 0.816569 5.91989 1.40412L6.67358 3.72373C6.75895 3.98649 7.00382 4.16439 7.2801 4.16439H9.71908C10.3369 4.16439 10.5937 4.95494 10.0939 5.31806L8.12075 6.75166C7.89723 6.91406 7.80371 7.20191 7.88908 7.46467L8.64277 9.78428C8.83368 10.3718 8.1612 10.8604 7.6614 10.4973L5.68822 9.06369C5.4647 8.90129 5.16204 8.90129 4.93852 9.06369L2.96534 10.4973C2.46554 10.8604 1.79307 10.3718 1.98397 9.78428L2.73766 7.46467C2.82304 7.20191 2.72951 6.91406 2.50599 6.75166L0.532809 5.31806C0.0330102 4.95494 0.289873 4.16439 0.907659 4.16439H3.34665C3.62293 4.16439 3.86779 3.98649 3.95316 3.72373L4.70685 1.40412Z" fill="#FFD600"/>
</svg>
