<svg width="11" height="11" viewBox="0 0 11 11" fill="none" xmlns="http://www.w3.org/2000/svg">
<path d="M5.31427 1.30417C5.50518 0.716624 6.33641 0.716624 6.52731 1.30417L7.281 3.62379C7.36638 3.88655 7.61124 4.06445 7.88752 4.06445H10.3265C10.9443 4.06445 11.2012 4.85499 10.7014 5.21812L8.72817 6.65172C8.50466 6.81411 8.41113 7.10196 8.4965 7.36472L9.25019 9.68434C9.4411 10.2719 8.76862 10.7605 8.26882 10.3973L6.29564 8.96374C6.07213 8.80135 5.76946 8.80135 5.54594 8.96374L3.57276 10.3973C3.07296 10.7605 2.40049 10.2719 2.59139 9.68434L3.34508 7.36472C3.43046 7.10196 3.33693 6.81411 3.11341 6.65172L1.14023 5.21812C0.640432 4.85499 0.897295 4.06445 1.51508 4.06445H3.95407C4.23035 4.06445 4.47521 3.88655 4.56059 3.62379L5.31427 1.30417Z" fill="#FFD600"/>
</svg>
