<svg width="11" height="11" viewBox="0 0 11 11" fill="none" xmlns="http://www.w3.org/2000/svg">
<path d="M4.85334 1.40412C5.04424 0.81657 5.87547 0.816569 6.06637 1.40412L6.82006 3.72373C6.90544 3.98649 7.1503 4.16439 7.42658 4.16439H9.86557C10.4834 4.16439 10.7402 4.95494 10.2404 5.31806L8.26724 6.75166C8.04372 6.91406 7.95019 7.20191 8.03557 7.46467L8.78925 9.78428C8.98016 10.3718 8.30769 10.8604 7.80789 10.4973L5.8347 9.06369C5.61119 8.90129 5.30852 8.90129 5.08501 9.06369L3.11182 10.4973C2.61203 10.8604 1.93955 10.3718 2.13046 9.78428L2.88415 7.46467C2.96952 7.20191 2.87599 6.91406 2.65248 6.75166L0.679294 5.31806C0.179495 4.95494 0.436357 4.16439 1.05414 4.16439H3.49313C3.76941 4.16439 4.01427 3.98649 4.09965 3.72373L4.85334 1.40412Z" fill="#FFD600"/>
</svg>
