<svg width="11" height="11" viewBox="0 0 11 11" fill="none" xmlns="http://www.w3.org/2000/svg">
<path d="M4.85334 1.10105C5.04424 0.513499 5.87547 0.513499 6.06637 1.10105L6.82006 3.42066C6.90544 3.68342 7.1503 3.86132 7.42658 3.86132H9.86557C10.4834 3.86132 10.7402 4.65187 10.2404 5.01499L8.26724 6.44859C8.04372 6.61099 7.95019 6.89884 8.03557 7.1616L8.78926 9.48121C8.98016 10.0688 8.30769 10.5573 7.80789 10.1942L5.8347 8.76062C5.61119 8.59822 5.30852 8.59822 5.08501 8.76062L3.11182 10.1942C2.61203 10.5573 1.93955 10.0688 2.13046 9.48121L2.88415 7.1616C2.96952 6.89884 2.87599 6.61099 2.65248 6.44859L0.679294 5.01499C0.179495 4.65187 0.436357 3.86132 1.05414 3.86132H3.49313C3.76941 3.86132 4.01427 3.68342 4.09965 3.42066L4.85334 1.10105Z" fill="#FFD600"/>
</svg>
