<svg width="11" height="11" viewBox="0 0 11 11" fill="none" xmlns="http://www.w3.org/2000/svg">
<path d="M4.85334 1.1041C5.04424 0.516551 5.87547 0.516551 6.06637 1.1041L6.82006 3.42371C6.90544 3.68647 7.1503 3.86438 7.42658 3.86438H9.86557C10.4834 3.86438 10.7402 4.65492 10.2404 5.01804L8.26724 6.45164C8.04372 6.61404 7.95019 6.90189 8.03557 7.16465L8.78925 9.48426C8.98016 10.0718 8.30769 10.5604 7.80789 10.1973L5.8347 8.76367C5.61119 8.60127 5.30852 8.60127 5.08501 8.76367L3.11182 10.1973C2.61203 10.5604 1.93955 10.0718 2.13046 9.48426L2.88415 7.16465C2.96952 6.90189 2.87599 6.61404 2.65248 6.45164L0.679294 5.01804C0.179495 4.65492 0.436357 3.86438 1.05414 3.86438H3.49313C3.76941 3.86438 4.01427 3.68647 4.09965 3.42371L4.85334 1.1041Z" fill="#FFD600"/>
</svg>
