<svg width="11" height="11" viewBox="0 0 11 11" fill="none" xmlns="http://www.w3.org/2000/svg">
<path d="M5.31427 1.30442C5.50518 0.716869 6.33641 0.716868 6.52731 1.30442L7.281 3.62403C7.36638 3.88679 7.61124 4.06469 7.88752 4.06469H10.3265C10.9443 4.06469 11.2012 4.85524 10.7014 5.21836L8.72817 6.65196C8.50466 6.81436 8.41113 7.10221 8.4965 7.36497L9.25019 9.68458C9.4411 10.2721 8.76862 10.7607 8.26882 10.3976L6.29564 8.96399C6.07213 8.80159 5.76946 8.80159 5.54594 8.96399L3.57276 10.3976C3.07296 10.7607 2.40049 10.2721 2.59139 9.68458L3.34508 7.36497C3.43046 7.10221 3.33693 6.81436 3.11341 6.65196L1.14023 5.21836C0.640432 4.85524 0.897295 4.06469 1.51508 4.06469H3.95407C4.23035 4.06469 4.47521 3.88679 4.56059 3.62403L5.31427 1.30442Z" fill="#FFD600"/>
</svg>
