<svg width="11" height="11" viewBox="0 0 11 11" fill="none" xmlns="http://www.w3.org/2000/svg">
<path d="M4.60822 1.30442C4.79913 0.716869 5.63035 0.716868 5.82126 1.30442L6.57495 3.62403C6.66032 3.88679 6.90518 4.06469 7.18146 4.06469H9.62045C10.2382 4.06469 10.4951 4.85524 9.9953 5.21836L8.02212 6.65196C7.7986 6.81436 7.70507 7.10221 7.79045 7.36497L8.54414 9.68458C8.73504 10.2721 8.06257 10.7607 7.56277 10.3976L5.58959 8.96399C5.36607 8.80159 5.06341 8.80159 4.83989 8.96399L2.86671 10.3976C2.36691 10.7607 1.69443 10.2721 1.88534 9.68458L2.63903 7.36497C2.7244 7.10221 2.63088 6.81436 2.40736 6.65196L0.434177 5.21836C-0.0656226 4.85524 0.19124 4.06469 0.809026 4.06469H3.24801C3.52429 4.06469 3.76916 3.88679 3.85453 3.62403L4.60822 1.30442Z" fill="#FFD600"/>
</svg>
