<svg width="10" height="10" viewBox="0 0 10 10" fill="none" xmlns="http://www.w3.org/2000/svg">
<path fill-rule="evenodd" clip-rule="evenodd" d="M4.63086 9.88745C7.11614 9.88745 9.13086 7.87273 9.13086 5.38745C9.13086 2.90217 7.11614 0.887451 4.63086 0.887451C2.14558 0.887451 0.130859 2.90217 0.130859 5.38745C0.130859 7.87273 2.14558 9.88745 4.63086 9.88745ZM6.76019 4.68345C6.92364 4.52 6.92364 4.25499 6.76019 4.09154C6.59673 3.92808 6.33172 3.92808 6.16827 4.09154L4.14317 6.11663L3.2786 5.25206C3.11515 5.08861 2.85014 5.08861 2.68668 5.25206C2.52323 5.41552 2.52323 5.68053 2.68668 5.84398L3.84721 7.00451C3.92571 7.083 4.03217 7.1271 4.14317 7.1271C4.25418 7.1271 4.36064 7.083 4.43913 7.00451L6.76019 4.68345Z" fill="#55B3FF"/>
</svg>
