<svg width="10" height="9" viewBox="0 0 10 9" fill="none" xmlns="http://www.w3.org/2000/svg">
<path fill-rule="evenodd" clip-rule="evenodd" d="M4.60742 9C7.0927 9 9.10742 6.98528 9.10742 4.5C9.10742 2.01472 7.0927 0 4.60742 0C2.12214 0 0.107422 2.01472 0.107422 4.5C0.107422 6.98528 2.12214 9 4.60742 9ZM6.73636 3.79596C6.89981 3.63251 6.89981 3.36749 6.73636 3.20404C6.5729 3.04059 6.30789 3.04059 6.14444 3.20404L4.11934 5.22914L3.25477 4.36457C3.09132 4.20112 2.82631 4.20112 2.66286 4.36457C2.4994 4.52802 2.4994 4.79303 2.66286 4.95649L3.82338 6.11702C3.90188 6.19551 4.00834 6.23961 4.11934 6.23961C4.23035 6.23961 4.33681 6.19551 4.4153 6.11702L6.73636 3.79596Z" fill="#55B3FF"/>
</svg>
