<svg width="24" height="37" viewBox="0 0 24 37" fill="none" xmlns="http://www.w3.org/2000/svg">
<path fill-rule="evenodd" clip-rule="evenodd" d="M6.82678 6.07954C6.82678 2.72837 9.54344 0.0117188 12.8946 0.0117188C16.2458 0.0117188 18.9624 2.72837 18.9624 6.07954C18.9624 9.4307 16.2458 12.1474 12.8946 12.1474C9.54344 12.1474 6.82678 9.4307 6.82678 6.07954ZM12.8946 2.03432C10.6605 2.03432 8.84939 3.84543 8.84939 6.07954C8.84939 8.31364 10.6605 10.1247 12.8946 10.1247C15.1287 10.1247 16.9398 8.31364 16.9398 6.07954C16.9398 3.84543 15.1287 2.03432 12.8946 2.03432Z" fill="#55B3FF"/>
<path d="M12.8946 16.6982C10.4949 16.6982 8.2211 17.2313 6.66497 17.7117C5.77423 17.9866 5.11969 18.7933 4.95951 19.8231L4.79216 20.8989C4.70631 21.4508 4.18932 21.8286 3.63743 21.7427C3.08554 21.6569 2.70774 21.1399 2.79359 20.588L2.96094 19.5122C3.22262 17.8299 4.33657 16.3137 6.06838 15.7791C7.73124 15.2657 10.2186 14.6756 12.8946 14.6756C15.5706 14.6756 18.058 15.2657 19.7208 15.7791C21.4526 16.3137 22.5666 17.8299 22.8283 19.5122L22.9956 20.588C23.0815 21.1399 22.7037 21.6569 22.1518 21.7427C21.5999 21.8286 21.0829 21.4508 20.997 20.8989L20.8297 19.8231C20.6695 18.7933 20.015 17.9866 19.1242 17.7117C17.5681 17.2313 15.2943 16.6982 12.8946 16.6982Z" fill="#55B3FF"/>
<path fill-rule="evenodd" clip-rule="evenodd" d="M0.514648 28.7277V36.0004H1.39533V33.3442H2.98624C3.55205 33.3442 4.01607 33.2412 4.37828 33.0352C4.7405 32.8269 5.00802 32.5475 5.18084 32.1971C5.35603 31.8468 5.44363 31.4573 5.44363 31.0288C5.44363 30.6003 5.35603 30.2121 5.18084 29.8641C5.00565 29.516 4.73577 29.2402 4.37118 29.0366C4.00897 28.8307 3.54258 28.7277 2.97203 28.7277H0.514648ZM1.39533 32.5629H2.95783C3.34846 32.5629 3.66214 32.4954 3.89888 32.3605C4.13562 32.2256 4.30726 32.0433 4.4138 31.8136C4.5227 31.5816 4.57715 31.32 4.57715 31.0288C4.57715 30.7376 4.5227 30.4772 4.4138 30.2476C4.30726 30.0179 4.13444 29.838 3.89533 29.7078C3.65622 29.5752 3.33899 29.5089 2.94363 29.5089H1.39533V32.5629Z" fill="#55B3FF"/>
<path fill-rule="evenodd" clip-rule="evenodd" d="M7.61692 35.766C7.99808 35.998 8.45144 36.1141 8.97701 36.1141C9.34632 36.1141 9.67895 36.0572 9.97488 35.9436C10.2708 35.8276 10.5194 35.6666 10.7206 35.4606C10.9218 35.2523 11.0651 35.0108 11.1503 34.7362L10.3406 34.5089C10.2696 34.6983 10.169 34.8569 10.0388 34.9848C9.90859 35.1103 9.75352 35.205 9.5736 35.2689C9.39604 35.3304 9.19718 35.3612 8.97701 35.3612C8.63846 35.3612 8.34135 35.2878 8.08567 35.141C7.82999 34.9919 7.62994 34.7753 7.48553 34.4912C7.35673 34.2314 7.28633 33.9201 7.27431 33.5572H11.2355V33.2021C11.2355 32.6931 11.1681 32.2646 11.0331 31.9166C10.8982 31.5686 10.7171 31.2892 10.4898 31.0785C10.2625 30.8655 10.0104 30.7116 9.7334 30.6169C9.45641 30.5222 9.17587 30.4748 8.89178 30.4748C8.39935 30.4748 7.96848 30.5956 7.59917 30.8371C7.23221 31.0762 6.94576 31.41 6.73979 31.8385C6.53619 32.2646 6.43439 32.757 6.43439 33.3158C6.43439 33.8745 6.53619 34.3645 6.73979 34.7859C6.94576 35.205 7.23813 35.5317 7.61692 35.766ZM7.27646 32.8328C7.29242 32.5798 7.35619 32.3407 7.46777 32.1155C7.59798 31.8527 7.78382 31.6396 8.0253 31.4763C8.26915 31.3105 8.55797 31.2277 8.89178 31.2277C9.19481 31.2277 9.45759 31.2975 9.68013 31.4372C9.90504 31.5769 10.0779 31.7675 10.1986 32.0089C10.3217 32.2504 10.3833 32.525 10.3833 32.8328H7.27646Z" fill="#55B3FF"/>
<path d="M12.5104 30.5459V36.0004H13.3485V32.5487C13.3485 32.3025 13.4076 32.0835 13.526 31.8918C13.6468 31.6976 13.8101 31.5461 14.0161 31.4372C14.2244 31.3259 14.4611 31.2703 14.7263 31.2703C14.8376 31.2703 14.9429 31.2786 15.0423 31.2952C15.1441 31.3094 15.2093 31.32 15.2377 31.3271V30.4748C15.1903 30.4701 15.1205 30.4666 15.0281 30.4642C14.9358 30.4618 14.8589 30.4606 14.7973 30.4606C14.4706 30.4606 14.1771 30.5447 13.9166 30.7128C13.6562 30.8809 13.4763 31.0998 13.3769 31.3697H13.32V30.5459H12.5104Z" fill="#55B3FF"/>
<path d="M19.0019 31.2561V30.5459H17.7803V29.9919C17.7803 29.722 17.8406 29.5172 17.9614 29.3775C18.0845 29.2379 18.2845 29.168 18.5615 29.168C18.6823 29.168 18.7793 29.1787 18.8527 29.2C18.9285 29.2213 18.9877 29.2391 19.0303 29.2533L19.2718 28.5288C19.2078 28.5004 19.1108 28.4696 18.9806 28.4365C18.8503 28.4034 18.6823 28.3868 18.4763 28.3868C18.2159 28.3868 17.9685 28.4389 17.7341 28.543C17.4997 28.6472 17.3092 28.8034 17.1624 29.0118C17.0156 29.2201 16.9422 29.4805 16.9422 29.793V30.5459H16.0615V31.2561H16.9422V36.0004H17.7803V31.2561H19.0019Z" fill="#55B3FF"/>
<path d="M20.1764 30.5459V36.0004H21.0145V30.5459H20.1764Z" fill="#55B3FF"/>
<path d="M20.18 29.4699C20.2983 29.5811 20.4392 29.6368 20.6025 29.6368C20.7659 29.6368 20.9056 29.5811 21.0216 29.4699C21.1399 29.3586 21.1991 29.2248 21.1991 29.0686C21.1991 28.9123 21.1399 28.7786 21.0216 28.6673C20.9056 28.556 20.7659 28.5004 20.6025 28.5004C20.4392 28.5004 20.2983 28.556 20.18 28.6673C20.0639 28.7786 20.0059 28.9123 20.0059 29.0686C20.0059 29.2248 20.0639 29.3586 20.18 29.4699Z" fill="#55B3FF"/>
<path d="M23.3875 36.0004V28.7277H22.5494V36.0004H23.3875Z" fill="#55B3FF"/>
</svg>
