<svg width="6" height="12" viewBox="0 0 6 12" fill="none" xmlns="http://www.w3.org/2000/svg">
<path fill-rule="evenodd" clip-rule="evenodd" d="M2.00458 1.19234C2.00458 0.894108 2.24634 0.652344 2.54457 0.652344C2.8428 0.652344 3.08456 0.894107 3.08456 1.19234V1.74651C4.2117 1.98167 5.06056 3.01373 5.06056 4.25128C5.06056 4.69963 4.70989 5.0631 4.27732 5.0631C3.84475 5.0631 3.49409 4.69963 3.49409 4.25128C3.49409 3.73687 3.09176 3.31986 2.59546 3.31986C2.09917 3.31986 1.69684 3.73687 1.69684 4.25128C1.69684 4.76569 2.09917 5.1827 2.59546 5.1827C2.60541 5.1827 2.61532 5.18289 2.62518 5.18327C3.9731 5.19956 5.06094 6.33718 5.06094 7.73815C5.06094 8.97585 4.21189 10.008 3.08455 10.243L3.08455 10.8448C3.08455 11.143 2.84279 11.3848 2.54456 11.3848C2.24633 11.3848 2.00457 11.143 2.00457 10.8448L2.00457 10.2192C0.928697 9.94471 0.130756 8.93801 0.130756 7.73815C0.130756 7.28979 0.481423 6.92633 0.913992 6.92633C1.34656 6.92633 1.69723 7.28979 1.69723 7.73815C1.69723 8.25256 2.09955 8.66957 2.59585 8.66957C3.09214 8.66957 3.49447 8.25256 3.49447 7.73815C3.49447 7.22374 3.09215 6.80673 2.59585 6.80673C2.5859 6.80673 2.576 6.80654 2.56614 6.80616C1.21822 6.78987 0.130371 5.65225 0.130371 4.25128C0.130371 3.05127 0.928508 2.04448 2.00458 1.77009V1.19234Z" fill="#55B3FF"/>
</svg>
