<svg width="27" height="38" viewBox="0 0 27 38" fill="none" xmlns="http://www.w3.org/2000/svg">
<path fill-rule="evenodd" clip-rule="evenodd" d="M13.9571 0.292665C13.6005 0.0300493 13.1145 0.0300493 12.7578 0.292665L3.87977 6.83016C2.84441 7.59255 2.23316 8.80175 2.23316 10.0875V20.8274C2.23316 22.7823 3.81788 24.367 5.77272 24.367H9.31228C10.4293 24.367 11.3349 23.4614 11.3349 22.3444V16.7822H15.3801V22.3444C15.3801 23.4614 16.2857 24.367 17.4027 24.367H20.9423C22.8971 24.367 24.4818 22.7823 24.4818 20.8274V10.0875C24.4818 8.80175 23.8706 7.59255 22.8352 6.83015L13.9571 0.292665ZM5.07907 8.45884L13.3575 2.36291L21.6359 8.45884C22.1536 8.84004 22.4592 9.44464 22.4592 10.0875V20.8274C22.4592 21.6652 21.7801 22.3444 20.9423 22.3444H17.4027V16.2765C17.4027 15.4388 16.7235 14.7596 15.8857 14.7596H10.8292C9.99145 14.7596 9.31228 15.4388 9.31228 16.2765V22.3444H5.77272C4.93493 22.3444 4.25577 21.6652 4.25577 20.8274V10.0875C4.25577 9.44464 4.56139 8.84004 5.07907 8.45884Z" fill="#CFD1DE"/>
<path d="M0.297852 29.823V37.0957H1.17854V33.8429H5.05638V37.0957H5.93706V29.823H5.05638V33.0616H1.17854V29.823H0.297852Z" fill="#CFD1DE"/>
<path fill-rule="evenodd" clip-rule="evenodd" d="M8.5063 36.8578C8.87799 37.0922 9.31005 37.2093 9.80247 37.2093C10.2949 37.2093 10.7258 37.0922 11.0951 36.8578C11.4668 36.6234 11.7556 36.2955 11.9616 35.8741C12.1699 35.4527 12.2741 34.9603 12.2741 34.3968C12.2741 33.8287 12.1699 33.3327 11.9616 32.9089C11.7556 32.4851 11.4668 32.1561 11.0951 31.9217C10.7258 31.6873 10.2949 31.5701 9.80247 31.5701C9.31005 31.5701 8.87799 31.6873 8.5063 31.9217C8.13699 32.1561 7.84816 32.4851 7.63983 32.9089C7.43386 33.3327 7.33088 33.8287 7.33088 34.3968C7.33088 34.9603 7.43386 35.4527 7.63983 35.8741C7.84816 36.2955 8.13699 36.6234 8.5063 36.8578ZM10.7258 36.1689C10.4843 36.3606 10.1765 36.4565 9.80247 36.4565C9.42842 36.4565 9.12065 36.3606 8.87917 36.1689C8.6377 35.9771 8.45896 35.725 8.34295 35.4125C8.22695 35.1 8.16895 34.7614 8.16895 34.3968C8.16895 34.0323 8.22695 33.6925 8.34295 33.3777C8.45896 33.0628 8.6377 32.8083 8.87917 32.6142C9.12065 32.42 9.42842 32.323 9.80247 32.323C10.1765 32.323 10.4843 32.42 10.7258 32.6142C10.9672 32.8083 11.146 33.0628 11.262 33.3777C11.378 33.6925 11.436 34.0323 11.436 34.3968C11.436 34.7614 11.378 35.1 11.262 35.4125C11.146 35.725 10.9672 35.9771 10.7258 36.1689Z" fill="#CFD1DE"/>
<path d="M13.5534 31.6412V37.0957H14.3914V33.6866C14.3914 33.4191 14.4482 33.1835 14.5619 32.9799C14.6779 32.774 14.8294 32.613 15.0164 32.497C15.2058 32.381 15.4094 32.323 15.6272 32.323C15.9445 32.323 16.2037 32.4189 16.4049 32.6106C16.6062 32.8 16.7068 33.0498 16.7068 33.3599V37.0957H17.559V33.5446C17.559 33.1918 17.6644 32.9006 17.8751 32.671C18.0858 32.439 18.3829 32.323 18.7664 32.323C19.0647 32.323 19.324 32.4094 19.5441 32.5822C19.7643 32.755 19.8744 33.0427 19.8744 33.4451V37.0957H20.7124V33.4451C20.7124 32.8036 20.5574 32.3313 20.2472 32.0282C19.9371 31.7228 19.5382 31.5701 19.0505 31.5701C18.6599 31.5701 18.3249 31.6542 18.0455 31.8223C17.7662 31.988 17.5567 32.2117 17.417 32.4934H17.3602C17.2252 32.2022 17.037 31.9761 16.7955 31.8152C16.5564 31.6518 16.257 31.5701 15.8971 31.5701C15.542 31.5701 15.2378 31.6518 14.9845 31.8152C14.7312 31.9761 14.5477 32.2022 14.434 32.4934H14.363V31.6412H13.5534Z" fill="#CFD1DE"/>
<path fill-rule="evenodd" clip-rule="evenodd" d="M23.1716 36.8613C23.5528 37.0933 24.0061 37.2093 24.5317 37.2093C24.901 37.2093 25.2336 37.1525 25.5296 37.0389C25.8255 36.9229 26.0741 36.7619 26.2753 36.5559C26.4765 36.3476 26.6198 36.1061 26.705 35.8315L25.8953 35.6042C25.8243 35.7936 25.7237 35.9522 25.5935 36.0801C25.4633 36.2056 25.3082 36.3002 25.1283 36.3642C24.9507 36.4257 24.7519 36.4565 24.5317 36.4565C24.1932 36.4565 23.896 36.3831 23.6404 36.2363C23.3847 36.0872 23.1846 35.8706 23.0402 35.5865C22.9114 35.3267 22.841 35.0154 22.829 34.6525H26.7902V34.2974C26.7902 33.7884 26.7227 33.3599 26.5878 33.0119C26.4529 32.6639 26.2718 32.3845 26.0445 32.1738C25.8172 31.9608 25.5651 31.8069 25.2881 31.7122C25.0111 31.6175 24.7306 31.5701 24.4465 31.5701C23.954 31.5701 23.5232 31.6909 23.1539 31.9324C22.7869 32.1715 22.5004 32.5053 22.2945 32.9338C22.0909 33.3599 21.9891 33.8523 21.9891 34.411C21.9891 34.9698 22.0909 35.4598 22.2945 35.8812C22.5004 36.3002 22.7928 36.627 23.1716 36.8613ZM22.8311 33.9281C22.8471 33.6751 22.9109 33.436 23.0225 33.2108C23.1527 32.948 23.3385 32.7349 23.58 32.5716C23.8238 32.4058 24.1127 32.323 24.4465 32.323C24.7495 32.323 25.0123 32.3928 25.2348 32.5325C25.4597 32.6722 25.6325 32.8627 25.7533 33.1042C25.8764 33.3457 25.9379 33.6203 25.9379 33.9281H22.8311Z" fill="#CFD1DE"/>
</svg>
