<svg width="37" height="36" viewBox="0 0 37 36" fill="none" xmlns="http://www.w3.org/2000/svg">
<path fill-rule="evenodd" clip-rule="evenodd" d="M10.2958 0.130859C8.06457 0.130859 6.2558 1.93963 6.2558 4.17086V18.3369C6.2558 20.5681 8.06457 22.3769 10.2958 22.3769H26.4192C28.6504 22.3769 30.4592 20.5681 30.4592 18.3369V8.12155C30.4592 5.89032 28.6504 4.08155 26.4192 4.08155H9.76984C9.21218 4.08155 8.7601 3.62948 8.7601 3.07182C8.7601 3.00626 8.75386 2.94216 8.74193 2.88009C9.11246 2.43452 9.671 2.15086 10.2958 2.15086H27.4531C28.0109 2.15086 28.4631 1.69867 28.4631 1.14086C28.4631 0.583052 28.0109 0.130859 27.4531 0.130859H10.2958ZM8.2758 18.3369V5.70817C8.7167 5.95856 9.22657 6.10155 9.76984 6.10155H26.4192C27.5348 6.10155 28.4392 7.00594 28.4392 8.12155V18.3369C28.4392 19.4525 27.5348 20.3569 26.4192 20.3569H10.2958C9.18019 20.3569 8.2758 19.4525 8.2758 18.3369Z" fill="#55B3FF"/>
<path fill-rule="evenodd" clip-rule="evenodd" d="M0.141602 27.8232V35.0959H2.76944C3.34236 35.0959 3.80756 35.0107 4.16504 34.8403C4.52252 34.6698 4.78412 34.439 4.94984 34.1478C5.11556 33.8566 5.19842 33.5287 5.19842 33.1641C5.19842 32.7806 5.12266 32.4563 4.97115 32.1911C4.81963 31.926 4.63142 31.7224 4.40652 31.5803C4.18161 31.4383 3.95789 31.3601 3.73535 31.3459V31.2749C3.94368 31.2181 4.13663 31.1305 4.31419 31.0121C4.49411 30.8938 4.63852 30.7328 4.74743 30.5292C4.85869 30.3256 4.91433 30.0675 4.91433 29.755C4.91433 29.3999 4.83384 29.0768 4.67285 28.7856C4.51187 28.492 4.26684 28.2588 3.93777 28.086C3.60869 27.9108 3.19084 27.8232 2.68422 27.8232H0.141602ZM2.76944 34.3147H1.02228V31.7863H2.81206C3.12929 31.7863 3.40391 31.8502 3.63592 31.978C3.86793 32.1035 4.04667 32.2716 4.17214 32.4823C4.29761 32.6906 4.36035 32.9179 4.36035 33.1641C4.36035 33.4837 4.23843 33.756 3.99458 33.9809C3.75311 34.2034 3.34473 34.3147 2.76944 34.3147ZM2.65581 31.0192H1.02228V28.6045H2.68422C3.16717 28.6045 3.51992 28.7169 3.74245 28.9418C3.96499 29.1644 4.07626 29.4354 4.07626 29.755C4.07626 30.0107 4.01234 30.2332 3.8845 30.4226C3.75903 30.612 3.58857 30.7588 3.37314 30.863C3.16007 30.9671 2.92096 31.0192 2.65581 31.0192Z" fill="#55B3FF"/>
<path d="M6.53187 29.6414V35.0959H7.36994V29.6414H6.53187Z" fill="#55B3FF"/>
<path d="M6.53542 28.5654C6.65379 28.6767 6.79466 28.7323 6.95801 28.7323C7.12136 28.7323 7.26104 28.6767 7.37704 28.5654C7.49541 28.4541 7.5546 28.3204 7.5546 28.1641C7.5546 28.0079 7.49541 27.8741 7.37704 27.7628C7.26104 27.6516 7.12136 27.5959 6.95801 27.5959C6.79466 27.5959 6.65379 27.6516 6.53542 27.7628C6.41942 27.8741 6.36142 28.0079 6.36142 28.1641C6.36142 28.3204 6.41942 28.4541 6.53542 28.5654Z" fill="#55B3FF"/>
<path d="M9.74299 35.0959V27.8232H8.90492V35.0959H9.74299Z" fill="#55B3FF"/>
<path d="M12.116 35.0959V27.8232H11.278V35.0959H12.116Z" fill="#55B3FF"/>
<path fill-rule="evenodd" clip-rule="evenodd" d="M14.5779 34.8616C14.959 35.0936 15.4124 35.2096 15.9379 35.2096C16.3073 35.2096 16.6399 35.1528 16.9358 35.0391C17.2317 34.9231 17.4803 34.7621 17.6816 34.5562C17.8828 34.3478 18.026 34.1064 18.1112 33.8317L17.3016 33.6045C17.2306 33.7939 17.1299 33.9525 16.9997 34.0803C16.8695 34.2058 16.7145 34.3005 16.5345 34.3644C16.357 34.426 16.1581 34.4567 15.9379 34.4567C15.5994 34.4567 15.3023 34.3833 15.0466 34.2366C14.7909 34.0874 14.5909 33.8708 14.4465 33.5867C14.3177 33.327 14.2473 33.0156 14.2353 32.6528H18.1965V32.2976C18.1965 31.7886 18.129 31.3601 17.9941 31.0121C17.8591 30.6641 17.678 30.3848 17.4507 30.1741C17.2235 29.961 16.9713 29.8071 16.6943 29.7124C16.4173 29.6177 16.1368 29.5704 15.8527 29.5704C15.3603 29.5704 14.9294 29.6911 14.5601 29.9326C14.1932 30.1717 13.9067 30.5055 13.7007 30.934C13.4971 31.3601 13.3953 31.8526 13.3953 32.4113C13.3953 32.97 13.4971 33.46 13.7007 33.8815C13.9067 34.3005 14.1991 34.6272 14.5779 34.8616ZM14.2374 31.9283C14.2534 31.6753 14.3171 31.4362 14.4287 31.211C14.5589 30.9482 14.7448 30.7351 14.9862 30.5718C15.2301 30.4061 15.5189 30.3232 15.8527 30.3232C16.1557 30.3232 16.4185 30.393 16.6411 30.5327C16.866 30.6724 17.0388 30.863 17.1595 31.1045C17.2826 31.3459 17.3442 31.6206 17.3442 31.9283H14.2374Z" fill="#55B3FF"/>
<path d="M21.8435 30.3516V29.6414H20.6787V28.3346H19.8406V29.6414H19.0168V30.3516H19.8406V33.7607C19.8406 34.0779 19.914 34.3407 20.0608 34.5491C20.21 34.7574 20.397 34.9125 20.6219 35.0143C20.8492 35.1161 21.0812 35.167 21.3179 35.167C21.4742 35.167 21.6032 35.1551 21.705 35.1315C21.8068 35.1101 21.8861 35.0888 21.9429 35.0675L21.7725 34.3147L21.6304 34.3431C21.5712 34.3526 21.4955 34.3573 21.4031 34.3573C21.28 34.3573 21.1628 34.3384 21.0516 34.3005C20.9427 34.2602 20.8527 34.1821 20.7817 34.0661C20.713 33.9477 20.6787 33.7702 20.6787 33.5334V30.3516H21.8435Z" fill="#55B3FF"/>
<path fill-rule="evenodd" clip-rule="evenodd" d="M23.9724 34.8616C24.3535 35.0936 24.8069 35.2096 25.3325 35.2096C25.7018 35.2096 26.0344 35.1528 26.3303 35.0391C26.6263 34.9231 26.8749 34.7621 27.0761 34.5562C27.2773 34.3478 27.4205 34.1064 27.5058 33.8317L26.6961 33.6045C26.6251 33.7939 26.5245 33.9525 26.3943 34.0803C26.2641 34.2058 26.109 34.3005 25.9291 34.3644C25.7515 34.426 25.5526 34.4567 25.3325 34.4567C24.9939 34.4567 24.6968 34.3833 24.4411 34.2366C24.1855 34.0874 23.9854 33.8708 23.841 33.5867C23.7122 33.327 23.6418 33.0156 23.6298 32.6528H27.591V32.2976C27.591 31.7886 27.5235 31.3601 27.3886 31.0121C27.2536 30.6641 27.0725 30.3848 26.8453 30.1741C26.618 29.961 26.3659 29.8071 26.0889 29.7124C25.8119 29.6177 25.5313 29.5704 25.2472 29.5704C24.7548 29.5704 24.324 29.6911 23.9546 29.9326C23.5877 30.1717 23.3012 30.5055 23.0953 30.934C22.8917 31.3601 22.7899 31.8526 22.7899 32.4113C22.7899 32.97 22.8917 33.46 23.0953 33.8815C23.3012 34.3005 23.5936 34.6272 23.9724 34.8616ZM23.6319 31.9283C23.6479 31.6753 23.7117 31.4362 23.8232 31.211C23.9535 30.9482 24.1393 30.7351 24.3808 30.5718C24.6246 30.4061 24.9134 30.3232 25.2472 30.3232C25.5503 30.3232 25.8131 30.393 26.0356 30.5327C26.2605 30.6724 26.4333 30.863 26.5541 31.1045C26.6772 31.3459 26.7387 31.6206 26.7387 31.9283H23.6319Z" fill="#55B3FF"/>
<path d="M28.8659 29.6414V35.0959H29.7039V31.6442C29.7039 31.398 29.7631 31.179 29.8815 30.9873C30.0022 30.7931 30.1656 30.6416 30.3715 30.5327C30.5799 30.4215 30.8166 30.3658 31.0818 30.3658C31.193 30.3658 31.2984 30.3741 31.3978 30.3907C31.4996 30.4049 31.5647 30.4155 31.5931 30.4226V29.5704C31.5458 29.5656 31.4759 29.5621 31.3836 29.5597C31.2913 29.5573 31.2143 29.5562 31.1528 29.5562C30.8261 29.5562 30.5325 29.6402 30.2721 29.8083C30.0117 29.9764 29.8318 30.1954 29.7323 30.4653H29.6755V29.6414H28.8659Z" fill="#55B3FF"/>
<path fill-rule="evenodd" clip-rule="evenodd" d="M33.2506 35.0285C33.5323 35.1587 33.846 35.2238 34.1917 35.2238C34.5089 35.2238 34.7776 35.1764 34.9978 35.0817C35.218 34.987 35.3943 34.8722 35.5269 34.7373C35.6595 34.6023 35.7542 34.4757 35.811 34.3573H35.8536V35.0959H36.6917V31.5022C36.6917 31.0689 36.6207 30.7233 36.4786 30.4653C36.3366 30.2072 36.1578 30.0143 35.9424 29.8864C35.7293 29.7586 35.508 29.6745 35.2783 29.6343C35.051 29.5917 34.8498 29.5704 34.6746 29.5704C34.4 29.5704 34.1207 29.6082 33.8366 29.684C33.5548 29.7574 33.2944 29.8876 33.0553 30.0746C32.8186 30.2593 32.6292 30.5173 32.4871 30.8488L33.2826 31.1329C33.3749 30.934 33.5347 30.747 33.762 30.5718C33.9893 30.3966 34.3029 30.309 34.703 30.309C35.0889 30.309 35.3766 30.4061 35.566 30.6002C35.7577 30.7943 35.8536 31.0666 35.8536 31.417V31.4454C35.8536 31.5803 35.8051 31.675 35.708 31.7295C35.6133 31.7839 35.4618 31.823 35.2535 31.8466C35.0475 31.868 34.7788 31.8999 34.4474 31.9425C34.194 31.9757 33.9419 32.0207 33.691 32.0775C33.4424 32.1319 33.2151 32.2148 33.0091 32.326C32.8032 32.4373 32.6386 32.5912 32.5155 32.7877C32.3924 32.9818 32.3309 33.2351 32.3309 33.5476C32.3309 33.9028 32.4137 34.2058 32.5795 34.4567C32.7452 34.7053 32.9689 34.8959 33.2506 35.0285ZM35.1576 34.2756C34.9303 34.4058 34.651 34.4709 34.3195 34.4709C33.9857 34.4709 33.7099 34.3975 33.4921 34.2508C33.2767 34.1016 33.1689 33.8815 33.1689 33.5903C33.1689 33.3772 33.2258 33.2091 33.3394 33.086C33.4554 32.9605 33.6069 32.867 33.7939 32.8055C33.9833 32.7415 34.1869 32.6954 34.4047 32.667C34.4947 32.6551 34.6119 32.6409 34.7563 32.6243C34.9031 32.6054 35.0534 32.5841 35.2073 32.5604C35.3635 32.5344 35.5009 32.5048 35.6192 32.4716C35.74 32.4361 35.8181 32.3971 35.8536 32.3545V33.1215C35.8536 33.3488 35.7944 33.5654 35.676 33.7714C35.56 33.9773 35.3872 34.1454 35.1576 34.2756Z" fill="#55B3FF"/>
</svg>
