<svg width="24" height="37" viewBox="0 0 24 37" fill="none" xmlns="http://www.w3.org/2000/svg">
<path fill-rule="evenodd" clip-rule="evenodd" d="M6.68689 6.07954C6.68689 2.72837 9.40354 0.0117188 12.7547 0.0117188C16.1059 0.0117188 18.8225 2.72837 18.8225 6.07954C18.8225 9.4307 16.1059 12.1474 12.7547 12.1474C9.40354 12.1474 6.68689 9.4307 6.68689 6.07954ZM12.7547 2.03432C10.5206 2.03432 8.7095 3.84543 8.7095 6.07954C8.7095 8.31364 10.5206 10.1247 12.7547 10.1247C14.9888 10.1247 16.7999 8.31364 16.7999 6.07954C16.7999 3.84543 14.9888 2.03432 12.7547 2.03432Z" fill="#55B3FF"/>
<path d="M12.7547 16.6982C10.355 16.6982 8.0812 17.2313 6.52508 17.7117C5.63434 17.9866 4.9798 18.7933 4.81961 19.8231L4.65227 20.8989C4.56642 21.4508 4.04943 21.8286 3.49754 21.7427C2.94565 21.6569 2.56785 21.1399 2.6537 20.588L2.82104 19.5122C3.08273 17.8299 4.19668 16.3137 5.92849 15.7791C7.59135 15.2657 10.0787 14.6756 12.7547 14.6756C15.4307 14.6756 17.9181 15.2657 19.5809 15.7791C21.3127 16.3137 22.4267 17.8299 22.6884 19.5122L22.8557 20.588C22.9416 21.1399 22.5638 21.6569 22.0119 21.7427C21.46 21.8286 20.943 21.4508 20.8571 20.8989L20.6898 19.8231C20.5296 18.7933 19.8751 17.9866 18.9843 17.7117C17.4282 17.2313 15.1544 16.6982 12.7547 16.6982Z" fill="#55B3FF"/>
<path fill-rule="evenodd" clip-rule="evenodd" d="M0.374756 28.7277V36.0004H1.25544V33.3442H2.84635C3.41216 33.3442 3.87618 33.2412 4.23839 33.0352C4.60061 32.8269 4.86813 32.5475 5.04095 32.1971C5.21614 31.8468 5.30373 31.4573 5.30373 31.0288C5.30373 30.6003 5.21614 30.2121 5.04095 29.8641C4.86576 29.516 4.59587 29.2402 4.23129 29.0366C3.86907 28.8307 3.40269 28.7277 2.83214 28.7277H0.374756ZM1.25544 32.5629H2.81794C3.20856 32.5629 3.52225 32.4954 3.75899 32.3605C3.99573 32.2256 4.16737 32.0433 4.2739 31.8136C4.3828 31.5816 4.43726 31.32 4.43726 31.0288C4.43726 30.7376 4.3828 30.4772 4.2739 30.2476C4.16737 30.0179 3.99455 29.838 3.75544 29.7078C3.51633 29.5752 3.19909 29.5089 2.80373 29.5089H1.25544V32.5629Z" fill="#55B3FF"/>
<path fill-rule="evenodd" clip-rule="evenodd" d="M7.47703 35.766C7.85818 35.998 8.31155 36.1141 8.83711 36.1141C9.20643 36.1141 9.53905 36.0572 9.83498 35.9436C10.1309 35.8276 10.3795 35.6666 10.5807 35.4606C10.782 35.2523 10.9252 35.0108 11.0104 34.7362L10.2008 34.5089C10.1297 34.6983 10.0291 34.8569 9.8989 34.9848C9.76869 35.1103 9.61363 35.205 9.4337 35.2689C9.25615 35.3304 9.05728 35.3612 8.83711 35.3612C8.49857 35.3612 8.20146 35.2878 7.94578 35.141C7.6901 34.9919 7.49005 34.7753 7.34564 34.4912C7.21684 34.2314 7.14644 33.9201 7.13442 33.5572H11.0956V33.2021C11.0956 32.6931 11.0282 32.2646 10.8932 31.9166C10.7583 31.5686 10.5772 31.2892 10.3499 31.0785C10.1226 30.8655 9.87049 30.7116 9.59351 30.6169C9.31652 30.5222 9.03598 30.4748 8.75189 30.4748C8.25946 30.4748 7.82859 30.5956 7.45927 30.8371C7.09232 31.0762 6.80586 31.41 6.5999 31.8385C6.3963 32.2646 6.2945 32.757 6.2945 33.3158C6.2945 33.8745 6.3963 34.3645 6.5999 34.7859C6.80586 35.205 7.09824 35.5317 7.47703 35.766ZM7.13656 32.8328C7.15252 32.5798 7.2163 32.3407 7.32788 32.1155C7.45809 31.8527 7.64393 31.6396 7.88541 31.4763C8.12925 31.3105 8.41808 31.2277 8.75189 31.2277C9.05492 31.2277 9.3177 31.2975 9.54024 31.4372C9.76514 31.5769 9.93797 31.7675 10.0587 32.0089C10.1818 32.2504 10.2434 32.525 10.2434 32.8328H7.13656Z" fill="#55B3FF"/>
<path d="M12.3705 30.5459V36.0004H13.2086V32.5487C13.2086 32.3025 13.2677 32.0835 13.3861 31.8918C13.5069 31.6976 13.6702 31.5461 13.8762 31.4372C14.0845 31.3259 14.3213 31.2703 14.5864 31.2703C14.6977 31.2703 14.803 31.2786 14.9025 31.2952C15.0043 31.3094 15.0694 31.32 15.0978 31.3271V30.4748C15.0504 30.4701 14.9806 30.4666 14.8883 30.4642C14.7959 30.4618 14.719 30.4606 14.6574 30.4606C14.3307 30.4606 14.0372 30.5447 13.7767 30.7128C13.5163 30.8809 13.3364 31.0998 13.237 31.3697H13.1802V30.5459H12.3705Z" fill="#55B3FF"/>
<path d="M18.862 31.2561V30.5459H17.6404V29.9919C17.6404 29.722 17.7008 29.5172 17.8215 29.3775C17.9446 29.2379 18.1446 29.168 18.4216 29.168C18.5424 29.168 18.6394 29.1787 18.7128 29.2C18.7886 29.2213 18.8478 29.2391 18.8904 29.2533L19.1319 28.5288C19.0679 28.5004 18.9709 28.4696 18.8407 28.4365C18.7105 28.4034 18.5424 28.3868 18.3364 28.3868C18.076 28.3868 17.8286 28.4389 17.5942 28.543C17.3598 28.6472 17.1693 28.8034 17.0225 29.0118C16.8757 29.2201 16.8023 29.4805 16.8023 29.793V30.5459H15.9216V31.2561H16.8023V36.0004H17.6404V31.2561H18.862Z" fill="#55B3FF"/>
<path d="M20.0365 30.5459V36.0004H20.8746V30.5459H20.0365Z" fill="#55B3FF"/>
<path d="M20.0401 29.4699C20.1584 29.5811 20.2993 29.6368 20.4626 29.6368C20.626 29.6368 20.7657 29.5811 20.8817 29.4699C21.0001 29.3586 21.0592 29.2248 21.0592 29.0686C21.0592 28.9123 21.0001 28.7786 20.8817 28.6673C20.7657 28.556 20.626 28.5004 20.4626 28.5004C20.2993 28.5004 20.1584 28.556 20.0401 28.6673C19.9241 28.7786 19.8661 28.9123 19.8661 29.0686C19.8661 29.2248 19.9241 29.3586 20.0401 29.4699Z" fill="#55B3FF"/>
<path d="M23.2476 36.0004V28.7277H22.4096V36.0004H23.2476Z" fill="#55B3FF"/>
</svg>
