<svg width="27" height="38" viewBox="0 0 27 38" fill="none" xmlns="http://www.w3.org/2000/svg">
<path fill-rule="evenodd" clip-rule="evenodd" d="M13.6678 0.196962C13.3112 -0.0656538 12.8252 -0.0656538 12.4685 0.196962L3.59046 6.73445C2.55511 7.49685 1.94386 8.70605 1.94386 9.99182V20.7317C1.94386 22.6866 3.52857 24.2713 5.48342 24.2713H9.02297C10.14 24.2713 11.0456 23.3657 11.0456 22.2487V16.6865H15.0908V22.2487C15.0908 23.3657 15.9963 24.2713 17.1134 24.2713H20.653C22.6078 24.2713 24.1925 22.6866 24.1925 20.7317V9.99182C24.1925 8.70605 23.5813 7.49685 22.5459 6.73445L13.6678 0.196962ZM4.78976 8.36313L13.0682 2.26721L21.3466 8.36313C21.8643 8.74433 22.1699 9.34893 22.1699 9.99182V20.7317C22.1699 21.5695 21.4907 22.2487 20.653 22.2487H17.1134V16.1808C17.1134 15.3431 16.4342 14.6639 15.5964 14.6639H10.5399C9.70214 14.6639 9.02297 15.3431 9.02297 16.1808V22.2487H5.48342C4.64563 22.2487 3.96646 21.5695 3.96646 20.7317V9.99182C3.96646 9.34893 4.27209 8.74433 4.78976 8.36313Z" fill="#CFD1DE"/>
<path d="M0.00854492 29.7273V37H0.889229V33.7472H4.76707V37H5.64775V29.7273H4.76707V32.9659H0.889229V29.7273H0.00854492Z" fill="#CFD1DE"/>
<path fill-rule="evenodd" clip-rule="evenodd" d="M8.217 36.7621C8.58868 36.9964 9.02074 37.1136 9.51316 37.1136C10.0056 37.1136 10.4365 36.9964 10.8058 36.7621C11.1775 36.5277 11.4663 36.1998 11.6723 35.7784C11.8806 35.357 11.9848 34.8646 11.9848 34.3011C11.9848 33.733 11.8806 33.237 11.6723 32.8132C11.4663 32.3894 11.1775 32.0604 10.8058 31.826C10.4365 31.5916 10.0056 31.4744 9.51316 31.4744C9.02074 31.4744 8.58868 31.5916 8.217 31.826C7.84768 32.0604 7.55885 32.3894 7.35052 32.8132C7.14456 33.237 7.04157 33.733 7.04157 34.3011C7.04157 34.8646 7.14456 35.357 7.35052 35.7784C7.55885 36.1998 7.84768 36.5277 8.217 36.7621ZM10.4365 36.0732C10.195 36.2649 9.88722 36.3608 9.51316 36.3608C9.13911 36.3608 8.83134 36.2649 8.58987 36.0732C8.34839 35.8814 8.16965 35.6293 8.05365 35.3168C7.93764 35.0043 7.87964 34.6657 7.87964 34.3011C7.87964 33.9366 7.93764 33.5968 8.05365 33.282C8.16965 32.9671 8.34839 32.7126 8.58987 32.5185C8.83134 32.3243 9.13911 32.2273 9.51316 32.2273C9.88722 32.2273 10.195 32.3243 10.4365 32.5185C10.6779 32.7126 10.8567 32.9671 10.9727 33.282C11.0887 33.5968 11.1467 33.9366 11.1467 34.3011C11.1467 34.6657 11.0887 35.0043 10.9727 35.3168C10.8567 35.6293 10.6779 35.8814 10.4365 36.0732Z" fill="#CFD1DE"/>
<path d="M13.2641 31.5455V37H14.1021V33.5909C14.1021 33.3234 14.1589 33.0878 14.2726 32.8842C14.3886 32.6783 14.5401 32.5173 14.7271 32.4013C14.9165 32.2853 15.1201 32.2273 15.3379 32.2273C15.6551 32.2273 15.9144 32.3232 16.1156 32.5149C16.3168 32.7043 16.4175 32.9541 16.4175 33.2642V37H17.2697V33.4489C17.2697 33.0961 17.3751 32.8049 17.5858 32.5753C17.7965 32.3433 18.0936 32.2273 18.4771 32.2273C18.7754 32.2273 19.0346 32.3137 19.2548 32.4865C19.475 32.6593 19.5851 32.947 19.5851 33.3494V37H20.4231V33.3494C20.4231 32.7079 20.2681 32.2356 19.9579 31.9325C19.6478 31.6271 19.2489 31.4744 18.7612 31.4744C18.3706 31.4744 18.0356 31.5585 17.7562 31.7266C17.4769 31.8923 17.2674 32.116 17.1277 32.3977H17.0709C16.9359 32.1065 16.7477 31.8804 16.5062 31.7195C16.2671 31.5561 15.9676 31.4744 15.6078 31.4744C15.2527 31.4744 14.9485 31.5561 14.6952 31.7195C14.4418 31.8804 14.2584 32.1065 14.1447 32.3977H14.0737V31.5455H13.2641Z" fill="#CFD1DE"/>
<path fill-rule="evenodd" clip-rule="evenodd" d="M22.8823 36.7656C23.2635 36.9976 23.7168 37.1136 24.2424 37.1136C24.6117 37.1136 24.9443 37.0568 25.2403 36.9432C25.5362 36.8272 25.7848 36.6662 25.986 36.4602C26.1872 36.2519 26.3305 36.0104 26.4157 35.7358L25.606 35.5085C25.535 35.6979 25.4344 35.8565 25.3042 35.9844C25.174 36.1098 25.0189 36.2045 24.839 36.2685C24.6614 36.33 24.4626 36.3608 24.2424 36.3608C23.9038 36.3608 23.6067 36.2874 23.3511 36.1406C23.0954 35.9915 22.8953 35.7749 22.7509 35.4908C22.6221 35.231 22.5517 34.9197 22.5397 34.5568H26.5009V34.2017C26.5009 33.6927 26.4334 33.2642 26.2985 32.9162C26.1636 32.5682 25.9824 32.2888 25.7552 32.0781C25.5279 31.8651 25.2758 31.7112 24.9988 31.6165C24.7218 31.5218 24.4413 31.4744 24.1572 31.4744C23.6647 31.4744 23.2339 31.5952 22.8645 31.8366C22.4976 32.0758 22.2111 32.4096 22.0052 32.8381C21.8016 33.2642 21.6998 33.7566 21.6998 34.3153C21.6998 34.8741 21.8016 35.3641 22.0052 35.7855C22.2111 36.2045 22.5035 36.5312 22.8823 36.7656ZM22.5418 33.8324C22.5578 33.5794 22.6216 33.3403 22.7332 33.1151C22.8634 32.8523 23.0492 32.6392 23.2907 32.4759C23.5345 32.3101 23.8234 32.2273 24.1572 32.2273C24.4602 32.2273 24.723 32.2971 24.9455 32.4368C25.1704 32.5765 25.3432 32.767 25.464 33.0085C25.5871 33.25 25.6486 33.5246 25.6486 33.8324H22.5418Z" fill="#CFD1DE"/>
</svg>
