<svg width="24" height="37" viewBox="0 0 24 37" fill="none" xmlns="http://www.w3.org/2000/svg">
<path fill-rule="evenodd" clip-rule="evenodd" d="M6.7738 6.57954C6.7738 3.22837 9.49046 0.511719 12.8416 0.511719C16.1928 0.511719 18.9094 3.22837 18.9094 6.57954C18.9094 9.9307 16.1928 12.6474 12.8416 12.6474C9.49046 12.6474 6.7738 9.9307 6.7738 6.57954ZM12.8416 2.53432C10.6075 2.53432 8.79641 4.34543 8.79641 6.57954C8.79641 8.81364 10.6075 10.6247 12.8416 10.6247C15.0757 10.6247 16.8868 8.81364 16.8868 6.57954C16.8868 4.34543 15.0757 2.53432 12.8416 2.53432Z" fill="#55B3FF"/>
<path d="M12.8416 17.1982C10.4419 17.1982 8.16812 17.7313 6.61199 18.2117C5.72125 18.4866 5.06671 19.2933 4.90653 20.3231L4.73918 21.3989C4.65333 21.9508 4.13634 22.3286 3.58445 22.2427C3.03256 22.1569 2.65476 21.6399 2.74061 21.088L2.90796 20.0122C3.16964 18.3299 4.2836 16.8137 6.0154 16.2791C7.67826 15.7657 10.1656 15.1756 12.8416 15.1756C15.5176 15.1756 18.005 15.7657 19.6678 16.2791C21.3997 16.8137 22.5136 18.3299 22.7753 20.0122L22.9426 21.088C23.0285 21.6399 22.6507 22.1569 22.0988 22.2427C21.5469 22.3286 21.0299 21.9508 20.9441 21.3989L20.7767 20.3231C20.6165 19.2933 19.962 18.4866 19.0713 18.2117C17.5151 17.7313 15.2413 17.1982 12.8416 17.1982Z" fill="#55B3FF"/>
<path fill-rule="evenodd" clip-rule="evenodd" d="M0.46167 29.2277V36.5004H1.34235V33.8442H2.93326C3.49908 33.8442 3.96309 33.7412 4.32531 33.5352C4.68752 33.3269 4.95504 33.0475 5.12786 32.6971C5.30305 32.3468 5.39065 31.9573 5.39065 31.5288C5.39065 31.1003 5.30305 30.7121 5.12786 30.3641C4.95267 30.016 4.68279 29.7402 4.3182 29.5366C3.95599 29.3307 3.48961 29.2277 2.91906 29.2277H0.46167ZM1.34235 33.0629H2.90485C3.29548 33.0629 3.60916 32.9954 3.8459 32.8605C4.08265 32.7256 4.25428 32.5433 4.36082 32.3136C4.46972 32.0816 4.52417 31.82 4.52417 31.5288C4.52417 31.2376 4.46972 30.9772 4.36082 30.7476C4.25428 30.5179 4.08146 30.338 3.84235 30.2078C3.60324 30.0752 3.28601 30.0089 2.89065 30.0089H1.34235V33.0629Z" fill="#55B3FF"/>
<path fill-rule="evenodd" clip-rule="evenodd" d="M7.56394 36.266C7.9451 36.498 8.39846 36.6141 8.92403 36.6141C9.29335 36.6141 9.62597 36.5572 9.9219 36.4436C10.2178 36.3276 10.4664 36.1666 10.6676 35.9606C10.8689 35.7523 11.0121 35.5108 11.0973 35.2362L10.2877 35.0089C10.2166 35.1983 10.116 35.3569 9.98582 35.4848C9.85561 35.6103 9.70054 35.705 9.52062 35.7689C9.34306 35.8304 9.1442 35.8612 8.92403 35.8612C8.58549 35.8612 8.28837 35.7878 8.03269 35.641C7.77701 35.4919 7.57696 35.2753 7.43255 34.9912C7.30376 34.7314 7.23335 34.4201 7.22134 34.0572H11.1826V33.7021C11.1826 33.1931 11.1151 32.7646 10.9801 32.4166C10.8452 32.0686 10.6641 31.7892 10.4368 31.5785C10.2095 31.3655 9.95741 31.2116 9.68042 31.1169C9.40343 31.0222 9.12289 30.9748 8.8388 30.9748C8.34638 30.9748 7.9155 31.0956 7.54619 31.3371C7.17924 31.5762 6.89278 31.91 6.68681 32.3385C6.48321 32.7646 6.38141 33.257 6.38141 33.8158C6.38141 34.3745 6.48321 34.8645 6.68681 35.2859C6.89278 35.705 7.18515 36.0317 7.56394 36.266ZM7.22348 33.3328C7.23944 33.0798 7.30321 32.8407 7.41479 32.6155C7.545 32.3527 7.73085 32.1396 7.97232 31.9763C8.21617 31.8105 8.50499 31.7277 8.8388 31.7277C9.14183 31.7277 9.40462 31.7975 9.62715 31.9372C9.85206 32.0769 10.0249 32.2675 10.1456 32.5089C10.2687 32.7504 10.3303 33.025 10.3303 33.3328H7.22348Z" fill="#55B3FF"/>
<path d="M12.4574 31.0459V36.5004H13.2955V33.0487C13.2955 32.8025 13.3547 32.5835 13.473 32.3918C13.5938 32.1976 13.7571 32.0461 13.9631 31.9372C14.1714 31.8259 14.4082 31.7703 14.6733 31.7703C14.7846 31.7703 14.8899 31.7786 14.9894 31.7952C15.0912 31.8094 15.1563 31.82 15.1847 31.8271V30.9748C15.1373 30.9701 15.0675 30.9666 14.9752 30.9642C14.8828 30.9618 14.8059 30.9606 14.7443 30.9606C14.4176 30.9606 14.1241 31.0447 13.8637 31.2128C13.6032 31.3809 13.4233 31.5998 13.3239 31.8697H13.2671V31.0459H12.4574Z" fill="#55B3FF"/>
<path d="M18.9489 31.7561V31.0459H17.7273V30.4919C17.7273 30.222 17.7877 30.0172 17.9084 29.8775C18.0315 29.7379 18.2316 29.668 18.5085 29.668C18.6293 29.668 18.7263 29.6787 18.7997 29.7C18.8755 29.7213 18.9347 29.7391 18.9773 29.7533L19.2188 29.0288C19.1549 29.0004 19.0578 28.9696 18.9276 28.9365C18.7974 28.9034 18.6293 28.8868 18.4233 28.8868C18.1629 28.8868 17.9155 28.9389 17.6811 29.043C17.4468 29.1472 17.2562 29.3034 17.1094 29.5118C16.9626 29.7201 16.8892 29.9805 16.8892 30.293V31.0459H16.0085V31.7561H16.8892V36.5004H17.7273V31.7561H18.9489Z" fill="#55B3FF"/>
<path d="M20.1234 31.0459V36.5004H20.9615V31.0459H20.1234Z" fill="#55B3FF"/>
<path d="M20.127 29.9699C20.2453 30.0811 20.3862 30.1368 20.5496 30.1368C20.7129 30.1368 20.8526 30.0811 20.9686 29.9699C21.087 29.8586 21.1462 29.7248 21.1462 29.5686C21.1462 29.4123 21.087 29.2786 20.9686 29.1673C20.8526 29.056 20.7129 29.0004 20.5496 29.0004C20.3862 29.0004 20.2453 29.056 20.127 29.1673C20.011 29.2786 19.953 29.4123 19.953 29.5686C19.953 29.7248 20.011 29.8586 20.127 29.9699Z" fill="#55B3FF"/>
<path d="M23.3345 36.5004V29.2277H22.4965V36.5004H23.3345Z" fill="#55B3FF"/>
</svg>
