<svg width="27" height="38" viewBox="0 0 27 38" fill="none" xmlns="http://www.w3.org/2000/svg">
<path fill-rule="evenodd" clip-rule="evenodd" d="M13.9513 0.196962C13.5946 -0.0656538 13.1086 -0.0656538 12.752 0.196962L3.87391 6.73445C2.83855 7.49685 2.2273 8.70605 2.2273 9.99182V20.7317C2.2273 22.6866 3.81202 24.2713 5.76686 24.2713H9.30642C10.4235 24.2713 11.329 23.3657 11.329 22.2487V16.6865H15.3742V22.2487C15.3742 23.3657 16.2798 24.2713 17.3968 24.2713H20.9364C22.8913 24.2713 24.476 22.6866 24.476 20.7317V9.99182C24.476 8.70605 23.8647 7.49685 22.8294 6.73445L13.9513 0.196962ZM5.07321 8.36313L13.3516 2.26721L21.6301 8.36313C22.1477 8.74433 22.4534 9.34893 22.4534 9.99182V20.7317C22.4534 21.5695 21.7742 22.2487 20.9364 22.2487H17.3968V16.1808C17.3968 15.3431 16.7177 14.6639 15.8799 14.6639H10.8234C9.98559 14.6639 9.30642 15.3431 9.30642 16.1808V22.2487H5.76686C4.92907 22.2487 4.24991 21.5695 4.24991 20.7317V9.99182C4.24991 9.34893 4.55553 8.74433 5.07321 8.36313Z" fill="#CFD1DE"/>
<path d="M0.291992 29.7273V37H1.17268V33.7472H5.05052V37H5.9312V29.7273H5.05052V32.9659H1.17268V29.7273H0.291992Z" fill="#CFD1DE"/>
<path fill-rule="evenodd" clip-rule="evenodd" d="M8.50045 36.7621C8.87213 36.9964 9.30419 37.1136 9.79661 37.1136C10.289 37.1136 10.7199 36.9964 11.0892 36.7621C11.4609 36.5277 11.7497 36.1998 11.9557 35.7784C12.164 35.357 12.2682 34.8646 12.2682 34.3011C12.2682 33.733 12.164 33.237 11.9557 32.8132C11.7497 32.3894 11.4609 32.0604 11.0892 31.826C10.7199 31.5916 10.289 31.4744 9.79661 31.4744C9.30419 31.4744 8.87213 31.5916 8.50045 31.826C8.13113 32.0604 7.8423 32.3894 7.63397 32.8132C7.428 33.237 7.32502 33.733 7.32502 34.3011C7.32502 34.8646 7.428 35.357 7.63397 35.7784C7.8423 36.1998 8.13113 36.5277 8.50045 36.7621ZM10.7199 36.0732C10.4784 36.2649 10.1707 36.3608 9.79661 36.3608C9.42256 36.3608 9.11479 36.2649 8.87331 36.0732C8.63184 35.8814 8.4531 35.6293 8.33709 35.3168C8.22109 35.0043 8.16309 34.6657 8.16309 34.3011C8.16309 33.9366 8.22109 33.5968 8.33709 33.282C8.4531 32.9671 8.63184 32.7126 8.87331 32.5185C9.11479 32.3243 9.42256 32.2273 9.79661 32.2273C10.1707 32.2273 10.4784 32.3243 10.7199 32.5185C10.9614 32.7126 11.1401 32.9671 11.2561 33.282C11.3721 33.5968 11.4301 33.9366 11.4301 34.3011C11.4301 34.6657 11.3721 35.0043 11.2561 35.3168C11.1401 35.6293 10.9614 35.8814 10.7199 36.0732Z" fill="#CFD1DE"/>
<path d="M13.5475 31.5455V37H14.3856V33.5909C14.3856 33.3234 14.4424 33.0878 14.556 32.8842C14.672 32.6783 14.8235 32.5173 15.0106 32.4013C15.2 32.2853 15.4036 32.2273 15.6214 32.2273C15.9386 32.2273 16.1978 32.3232 16.3991 32.5149C16.6003 32.7043 16.7009 32.9541 16.7009 33.2642V37H17.5532V33.4489C17.5532 33.0961 17.6585 32.8049 17.8692 32.5753C18.0799 32.3433 18.377 32.2273 18.7606 32.2273C19.0589 32.2273 19.3181 32.3137 19.5383 32.4865C19.7584 32.6593 19.8685 32.947 19.8685 33.3494V37H20.7066V33.3494C20.7066 32.7079 20.5515 32.2356 20.2414 31.9325C19.9313 31.6271 19.5323 31.4744 19.0447 31.4744C18.654 31.4744 18.319 31.5585 18.0397 31.7266C17.7603 31.8923 17.5508 32.116 17.4111 32.3977H17.3543C17.2194 32.1065 17.0312 31.8804 16.7897 31.7195C16.5506 31.5561 16.2511 31.4744 15.8912 31.4744C15.5361 31.4744 15.2319 31.5561 14.9786 31.7195C14.7253 31.8804 14.5418 32.1065 14.4282 32.3977H14.3572V31.5455H13.5475Z" fill="#CFD1DE"/>
<path fill-rule="evenodd" clip-rule="evenodd" d="M23.1658 36.7656C23.5469 36.9976 24.0003 37.1136 24.5258 37.1136C24.8952 37.1136 25.2278 37.0568 25.5237 36.9432C25.8196 36.8272 26.0682 36.6662 26.2694 36.4602C26.4707 36.2519 26.6139 36.0104 26.6991 35.7358L25.8895 35.5085C25.8185 35.6979 25.7178 35.8565 25.5876 35.9844C25.4574 36.1098 25.3024 36.2045 25.1224 36.2685C24.9449 36.33 24.746 36.3608 24.5258 36.3608C24.1873 36.3608 23.8902 36.2874 23.6345 36.1406C23.3788 35.9915 23.1788 35.7749 23.0344 35.4908C22.9056 35.231 22.8352 34.9197 22.8231 34.5568H26.7844V34.2017C26.7844 33.6927 26.7169 33.2642 26.5819 32.9162C26.447 32.5682 26.2659 32.2888 26.0386 32.0781C25.8113 31.8651 25.5592 31.7112 25.2822 31.6165C25.0052 31.5218 24.7247 31.4744 24.4406 31.4744C23.9482 31.4744 23.5173 31.5952 23.148 31.8366C22.781 32.0758 22.4946 32.4096 22.2886 32.8381C22.085 33.2642 21.9832 33.7566 21.9832 34.3153C21.9832 34.8741 22.085 35.3641 22.2886 35.7855C22.4946 36.2045 22.787 36.5312 23.1658 36.7656ZM22.8253 33.8324C22.8412 33.5794 22.905 33.3403 23.0166 33.1151C23.1468 32.8523 23.3327 32.6392 23.5741 32.4759C23.818 32.3101 24.1068 32.2273 24.4406 32.2273C24.7436 32.2273 25.0064 32.2971 25.229 32.4368C25.4539 32.5765 25.6267 32.767 25.7474 33.0085C25.8705 33.25 25.9321 33.5246 25.9321 33.8324H22.8253Z" fill="#CFD1DE"/>
</svg>
