<svg width="6" height="11" viewBox="0 0 6 11" fill="none" xmlns="http://www.w3.org/2000/svg">
<path fill-rule="evenodd" clip-rule="evenodd" d="M2.47284 0.579057C2.47284 0.280826 2.7146 0.0390625 3.01283 0.0390625C3.31106 0.0390625 3.55283 0.280826 3.55283 0.579057V1.13323C4.67996 1.36839 5.52882 2.40045 5.52882 3.638C5.52882 4.08635 5.17815 4.44982 4.74558 4.44982C4.31301 4.44982 3.96235 4.08635 3.96235 3.638C3.96235 3.12359 3.56002 2.70658 3.06373 2.70658C2.56743 2.70658 2.1651 3.12359 2.1651 3.638C2.1651 4.1524 2.56743 4.56941 3.06373 4.56941C3.07367 4.56941 3.08358 4.56961 3.09344 4.56999C4.44136 4.58628 5.5292 5.7239 5.5292 7.12487C5.5292 8.36256 4.68015 9.39471 3.55281 9.62972L3.55281 10.2315C3.55281 10.5298 3.31105 10.7715 3.01282 10.7715C2.71459 10.7715 2.47283 10.5298 2.47283 10.2315L2.47283 9.60595C1.39696 9.33142 0.599018 8.32473 0.599018 7.12487C0.599018 6.67651 0.949685 6.31305 1.38225 6.31305C1.81482 6.31305 2.16549 6.67651 2.16549 7.12487C2.16549 7.63928 2.56782 8.05629 3.06411 8.05629C3.56041 8.05629 3.96273 7.63928 3.96273 7.12487C3.96273 6.61046 3.56041 6.19345 3.06411 6.19345C3.05416 6.19345 3.04426 6.19326 3.0344 6.19288C1.68648 6.17659 0.598633 5.03897 0.598633 3.638C0.598633 2.43799 1.39677 1.4312 2.47284 1.15681V0.579057Z" fill="#55B3FF"/>
</svg>
