<svg width="47" height="40" viewBox="0 0 47 40" fill="none" xmlns="http://www.w3.org/2000/svg">
<path fill-rule="evenodd" clip-rule="evenodd" d="M29.4253 2.06948H29.2527C28.8362 0.891119 27.7124 0.046875 26.3914 0.046875H20.3236C19.0026 0.046875 17.8788 0.891118 17.4623 2.06948H17.2897C15.0556 2.06948 13.2445 3.88058 13.2445 6.11469V20.2729C13.2445 22.507 15.0556 24.3181 17.2897 24.3181H29.4253C31.6594 24.3181 33.4705 22.507 33.4705 20.2729V6.11469C33.4705 3.88058 31.6594 2.06948 29.4253 2.06948ZM15.2671 6.11469C15.2671 4.99764 16.1726 4.09209 17.2897 4.09209C17.2897 5.76767 18.648 7.126 20.3236 7.126H26.3914C28.067 7.126 29.4253 5.76767 29.4253 4.09209C30.5424 4.09209 31.4479 4.99764 31.4479 6.11469V20.2729C31.4479 21.39 30.5424 22.2955 29.4253 22.2955H17.2897C16.1726 22.2955 15.2671 21.39 15.2671 20.2729V6.11469ZM20.3236 2.06948C19.7651 2.06948 19.3123 2.52226 19.3123 3.08078V4.09209C19.3123 4.65061 19.7651 5.10339 20.3236 5.10339H26.3914C26.9499 5.10339 27.4027 4.65061 27.4027 4.09209V3.08078C27.4027 2.52226 26.9499 2.06948 26.3914 2.06948H20.3236Z" fill="#CFD1DE"/>
<path fill-rule="evenodd" clip-rule="evenodd" d="M0.629883 29.7741V37.0469H1.51056V34.3906H3.10147C3.66729 34.3906 4.1313 34.2876 4.49352 34.0817C4.85574 33.8733 5.12325 33.594 5.29608 33.2436C5.47127 32.8932 5.55886 32.5038 5.55886 32.0753C5.55886 31.6468 5.47127 31.2585 5.29608 30.9105C5.12089 30.5625 4.851 30.2867 4.48642 30.0831C4.1242 29.8771 3.65782 29.7741 3.08727 29.7741H0.629883ZM1.51056 33.6094H3.07306C3.46369 33.6094 3.77737 33.5419 4.01412 33.407C4.25086 33.272 4.4225 33.0897 4.52903 32.8601C4.63793 32.6281 4.69238 32.3665 4.69238 32.0753C4.69238 31.7841 4.63793 31.5237 4.52903 31.294C4.4225 31.0644 4.24967 30.8845 4.01056 30.7543C3.77146 30.6217 3.45422 30.5554 3.05886 30.5554H1.51056V33.6094Z" fill="#CFD1DE"/>
<path d="M6.8639 31.5923V37.0469H7.70197V33.5952C7.70197 33.349 7.76116 33.13 7.87953 32.9382C8.00027 32.7441 8.16362 32.5926 8.36958 32.4837C8.57792 32.3724 8.81466 32.3168 9.07981 32.3168C9.19108 32.3168 9.29643 32.325 9.39586 32.3416C9.49766 32.3558 9.56277 32.3665 9.59118 32.3736V31.5213C9.54383 31.5166 9.47399 31.513 9.38166 31.5107C9.28933 31.5083 9.21239 31.5071 9.15084 31.5071C8.82413 31.5071 8.53057 31.5911 8.27015 31.7592C8.00974 31.9273 7.82981 32.1463 7.73038 32.4162H7.67356V31.5923H6.8639Z" fill="#CFD1DE"/>
<path fill-rule="evenodd" clip-rule="evenodd" d="M11.3383 36.8089C11.71 37.0433 12.1421 37.1605 12.6345 37.1605C13.1269 37.1605 13.5578 37.0433 13.9271 36.8089C14.2988 36.5746 14.5876 36.2467 14.7936 35.8253C15.0019 35.4039 15.1061 34.9115 15.1061 34.348C15.1061 33.7798 15.0019 33.2839 14.7936 32.8601C14.5876 32.4363 14.2988 32.1072 13.9271 31.8729C13.5578 31.6385 13.1269 31.5213 12.6345 31.5213C12.1421 31.5213 11.71 31.6385 11.3383 31.8729C10.969 32.1072 10.6802 32.4363 10.4719 32.8601C10.2659 33.2839 10.1629 33.7798 10.1629 34.348C10.1629 34.9115 10.2659 35.4039 10.4719 35.8253C10.6802 36.2467 10.969 36.5746 11.3383 36.8089ZM13.5578 36.12C13.3163 36.3118 13.0086 36.4077 12.6345 36.4077C12.2604 36.4077 11.9527 36.3118 11.7112 36.12C11.4697 35.9283 11.291 35.6761 11.175 35.3636C11.059 35.0511 11.001 34.7126 11.001 34.348C11.001 33.9834 11.059 33.6437 11.175 33.3288C11.291 33.014 11.4697 32.7595 11.7112 32.5653C11.9527 32.3712 12.2604 32.2741 12.6345 32.2741C13.0086 32.2741 13.3163 32.3712 13.5578 32.5653C13.7993 32.7595 13.978 33.014 14.094 33.3288C14.21 33.6437 14.268 33.9834 14.268 34.348C14.268 34.7126 14.21 35.0511 14.094 35.3636C13.978 35.6761 13.7993 35.9283 13.5578 36.12Z" fill="#CFD1DE"/>
<path d="M16.3499 39.0568C16.4611 39.0805 16.5878 39.0923 16.7298 39.0923C16.9832 39.0923 17.2104 39.0473 17.4117 38.9574C17.6153 38.8674 17.794 38.7289 17.9479 38.5419C18.1018 38.3572 18.2308 38.1241 18.335 37.8423L20.6503 31.5923H19.7412L18.2355 35.9389H18.1787L16.673 31.5923H15.7639L17.781 37.0753L17.6247 37.5014C17.5229 37.7784 17.4105 37.9785 17.2874 38.1016C17.1666 38.227 17.0281 38.2969 16.8719 38.3111C16.7156 38.3253 16.5357 38.3063 16.3321 38.2543L16.1191 38.9929C16.1617 39.0142 16.2386 39.0355 16.3499 39.0568Z" fill="#CFD1DE"/>
<path fill-rule="evenodd" clip-rule="evenodd" d="M22.488 36.8125C22.8692 37.0445 23.3225 37.1605 23.8481 37.1605C24.2174 37.1605 24.55 37.1037 24.846 36.9901C25.1419 36.8741 25.3905 36.7131 25.5917 36.5071C25.7929 36.2988 25.9362 36.0573 26.0214 35.7827L25.2117 35.5554C25.1407 35.7448 25.0401 35.9034 24.9099 36.0312C24.7797 36.1567 24.6246 36.2514 24.4447 36.3153C24.2671 36.3769 24.0683 36.4077 23.8481 36.4077C23.5096 36.4077 23.2124 36.3343 22.9568 36.1875C22.7011 36.0384 22.501 35.8217 22.3566 35.5376C22.2278 35.2779 22.1574 34.9666 22.1454 34.6037H26.1066V34.2486C26.1066 33.7396 26.0392 33.3111 25.9042 32.9631C25.7693 32.6151 25.5882 32.3357 25.3609 32.125C25.1336 31.9119 24.8815 31.758 24.6045 31.6634C24.3275 31.5687 24.047 31.5213 23.7629 31.5213C23.2704 31.5213 22.8396 31.642 22.4703 31.8835C22.1033 32.1226 21.8169 32.4564 21.6109 32.8849C21.4073 33.3111 21.3055 33.8035 21.3055 34.3622C21.3055 34.9209 21.4073 35.411 21.6109 35.8324C21.8169 36.2514 22.1092 36.5781 22.488 36.8125ZM22.1476 33.8793C22.1635 33.6262 22.2273 33.3871 22.3389 33.1619C22.4691 32.8991 22.6549 32.6861 22.8964 32.5227C23.1402 32.357 23.4291 32.2741 23.7629 32.2741C24.0659 32.2741 24.3287 32.344 24.5512 32.4837C24.7761 32.6233 24.949 32.8139 25.0697 33.0554C25.1928 33.2969 25.2544 33.5715 25.2544 33.8793H22.1476Z" fill="#CFD1DE"/>
<path d="M28.2764 36.7983C28.6457 37.0398 29.086 37.1605 29.5974 37.1605C29.9999 37.1605 30.3526 37.0859 30.6556 36.9368C30.961 36.7853 31.2061 36.5817 31.3907 36.326C31.5777 36.0679 31.6949 35.7779 31.7423 35.456H30.9042C30.8521 35.6548 30.7645 35.8253 30.6414 35.9673C30.5183 36.1094 30.368 36.2183 30.1904 36.294C30.0129 36.3698 29.8152 36.4077 29.5974 36.4077C29.266 36.4077 28.9771 36.3213 28.7309 36.1484C28.4871 35.9756 28.2977 35.733 28.1627 35.4205C28.0302 35.108 27.9639 34.741 27.9639 34.3196C27.9639 33.9077 28.0313 33.549 28.1663 33.2436C28.3036 32.9358 28.4942 32.6979 28.738 32.5298C28.9842 32.3594 29.2707 32.2741 29.5974 32.2741C29.9667 32.2741 30.2603 32.3712 30.4781 32.5653C30.6982 32.7571 30.8403 32.9773 30.9042 33.2259H31.7423C31.6949 32.8849 31.573 32.5866 31.3765 32.331C31.18 32.0753 30.9279 31.8764 30.6201 31.7344C30.3124 31.5923 29.9667 31.5213 29.5832 31.5213C29.0908 31.5213 28.6599 31.642 28.2906 31.8835C27.9236 32.1226 27.6372 32.4553 27.4312 32.8814C27.2276 33.3052 27.1258 33.794 27.1258 34.348C27.1258 34.8925 27.2252 35.3767 27.4241 35.8004C27.623 36.2242 27.907 36.5568 28.2764 36.7983Z" fill="#CFD1DE"/>
<path d="M35.3396 32.3026V31.5923H34.1748V30.2855H33.3367V31.5923H32.5129V32.3026H33.3367V35.7116C33.3367 36.0289 33.4101 36.2917 33.5569 36.5C33.7061 36.7083 33.8931 36.8634 34.118 36.9652C34.3453 37.067 34.5773 37.1179 34.814 37.1179C34.9703 37.1179 35.0993 37.1061 35.2011 37.0824C35.3029 37.0611 35.3822 37.0398 35.439 37.0185L35.2686 36.2656L35.1265 36.294C35.0673 36.3035 34.9916 36.3082 34.8992 36.3082C34.7761 36.3082 34.6589 36.2893 34.5477 36.2514C34.4388 36.2112 34.3488 36.133 34.2778 36.017C34.2091 35.8987 34.1748 35.7211 34.1748 35.4844V32.3026H35.3396Z" fill="#CFD1DE"/>
<path fill-rule="evenodd" clip-rule="evenodd" d="M37.4614 36.8089C37.8331 37.0433 38.2651 37.1605 38.7575 37.1605C39.25 37.1605 39.6808 37.0433 40.0502 36.8089C40.4218 36.5746 40.7107 36.2467 40.9166 35.8253C41.125 35.4039 41.2291 34.9115 41.2291 34.348C41.2291 33.7798 41.125 33.2839 40.9166 32.8601C40.7107 32.4363 40.4218 32.1072 40.0502 31.8729C39.6808 31.6385 39.25 31.5213 38.7575 31.5213C38.2651 31.5213 37.8331 31.6385 37.4614 31.8729C37.0921 32.1072 36.8032 32.4363 36.5949 32.8601C36.3889 33.2839 36.286 33.7798 36.286 34.348C36.286 34.9115 36.3889 35.4039 36.5949 35.8253C36.8032 36.2467 37.0921 36.5746 37.4614 36.8089ZM39.6808 36.12C39.4394 36.3118 39.1316 36.4077 38.7575 36.4077C38.3835 36.4077 38.0757 36.3118 37.8343 36.12C37.5928 35.9283 37.414 35.6761 37.298 35.3636C37.182 35.0511 37.124 34.7126 37.124 34.348C37.124 33.9834 37.182 33.6437 37.298 33.3288C37.414 33.014 37.5928 32.7595 37.8343 32.5653C38.0757 32.3712 38.3835 32.2741 38.7575 32.2741C39.1316 32.2741 39.4394 32.3712 39.6808 32.5653C39.9223 32.7595 40.1011 33.014 40.2171 33.3288C40.3331 33.6437 40.3911 33.9834 40.3911 34.348C40.3911 34.7126 40.3331 35.0511 40.2171 35.3636C40.1011 35.6761 39.9223 35.9283 39.6808 36.12Z" fill="#CFD1DE"/>
<path d="M45.6192 33.027L46.3721 32.8139C46.2419 32.4257 46.0217 32.1132 45.7116 31.8764C45.4038 31.6397 44.98 31.5213 44.4403 31.5213C44.0567 31.5213 43.7135 31.5888 43.4104 31.7237C43.1098 31.8587 42.8718 32.0445 42.6966 32.2812C42.5238 32.518 42.4374 32.7902 42.4374 33.098C42.4374 33.4744 42.5534 33.7881 42.7854 34.0391C43.0198 34.2876 43.3867 34.4711 43.8863 34.5895L44.7954 34.8026C45.07 34.8665 45.2736 34.9635 45.4062 35.0938C45.5387 35.2216 45.605 35.3802 45.605 35.5696C45.605 35.804 45.489 36.0052 45.257 36.1733C45.0274 36.339 44.7172 36.4219 44.3266 36.4219C43.9833 36.4219 43.7052 36.3485 43.4921 36.2017C43.2814 36.0549 43.1382 35.8348 43.0624 35.5412L42.267 35.7401C42.364 36.2041 42.5948 36.5568 42.9594 36.7983C43.324 37.0398 43.7845 37.1605 44.3408 37.1605C44.7646 37.1605 45.1363 37.0895 45.4559 36.9474C45.7755 36.8054 46.0241 36.6113 46.2016 36.3651C46.3815 36.1188 46.4715 35.8395 46.4715 35.527C46.4715 35.1458 46.3519 34.8345 46.1128 34.593C45.8737 34.3492 45.5103 34.1681 45.0226 34.0497L44.213 33.8509C43.891 33.7704 43.6543 33.6697 43.5028 33.549C43.3512 33.4283 43.2755 33.2637 43.2755 33.0554C43.2755 32.821 43.3856 32.6281 43.6057 32.4766C43.8283 32.3227 44.1064 32.2457 44.4403 32.2457C44.6841 32.2457 44.8841 32.2848 45.0404 32.3629C45.1966 32.4411 45.3198 32.5405 45.4097 32.6612C45.502 32.7796 45.5719 32.9015 45.6192 33.027Z" fill="#CFD1DE"/>
</svg>
