<svg width="38" height="36" viewBox="0 0 38 36" fill="none" xmlns="http://www.w3.org/2000/svg">
<path fill-rule="evenodd" clip-rule="evenodd" d="M10.9384 0.0351562C8.70715 0.0351562 6.89838 1.84392 6.89838 4.07516V18.2412C6.89838 20.4724 8.70715 22.2812 10.9384 22.2812H27.0618C29.293 22.2812 31.1018 20.4724 31.1018 18.2412V8.02585C31.1018 5.79462 29.293 3.98585 27.0618 3.98585H10.4124C9.85475 3.98585 9.40268 3.53378 9.40268 2.97611C9.40268 2.91056 9.39643 2.84646 9.38451 2.78439C9.75504 2.33882 10.3136 2.05516 10.9384 2.05516H28.0957C28.6535 2.05516 29.1057 1.60296 29.1057 1.04516C29.1057 0.487349 28.6535 0.0351562 28.0957 0.0351562H10.9384ZM8.91838 18.2412V5.61247C9.35927 5.86286 9.86915 6.00585 10.4124 6.00585H27.0618C28.1774 6.00585 29.0818 6.91024 29.0818 8.02585V18.2412C29.0818 19.3568 28.1774 20.2612 27.0618 20.2612H10.9384C9.82277 20.2612 8.91838 19.3568 8.91838 18.2412Z" fill="#55B3FF"/>
<path fill-rule="evenodd" clip-rule="evenodd" d="M0.78418 27.7275V35.0002H3.41202C3.98494 35.0002 4.45014 34.915 4.80762 34.7446C5.1651 34.5741 5.4267 34.3433 5.59242 34.0521C5.75814 33.7609 5.841 33.433 5.841 33.0684C5.841 32.6849 5.76524 32.3606 5.61373 32.0954C5.46221 31.8303 5.274 31.6267 5.04909 31.4846C4.82419 31.3426 4.60047 31.2644 4.37793 31.2502V31.1792C4.58626 31.1224 4.77921 31.0348 4.95677 30.9164C5.13669 30.7981 5.2811 30.6371 5.39 30.4335C5.50127 30.2299 5.55691 29.9718 5.55691 29.6593C5.55691 29.3042 5.47641 28.9811 5.31543 28.6899C5.15445 28.3963 4.90942 28.1631 4.58034 27.9903C4.25127 27.8151 3.83342 27.7275 3.32679 27.7275H0.78418ZM3.41202 34.219H1.66486V31.6906H3.45463C3.77187 31.6906 4.04649 31.7545 4.2785 31.8823C4.51051 32.0078 4.68925 32.1759 4.81472 32.3866C4.94019 32.5949 5.00293 32.8222 5.00293 33.0684C5.00293 33.388 4.88101 33.6603 4.63716 33.8852C4.39569 34.1077 3.9873 34.219 3.41202 34.219ZM3.29838 30.9235H1.66486V28.5088H3.32679C3.80975 28.5088 4.16249 28.6212 4.38503 28.8461C4.60757 29.0687 4.71884 29.3397 4.71884 29.6593C4.71884 29.915 4.65492 30.1375 4.52708 30.3269C4.4016 30.5163 4.23115 30.6631 4.01571 30.7673C3.80265 30.8714 3.56354 30.9235 3.29838 30.9235Z" fill="#55B3FF"/>
<path d="M7.17445 29.5457V35.0002H8.01252V29.5457H7.17445Z" fill="#55B3FF"/>
<path d="M7.178 28.4697C7.29637 28.581 7.43723 28.6366 7.60059 28.6366C7.76394 28.6366 7.90362 28.581 8.01962 28.4697C8.13799 28.3584 8.19718 28.2247 8.19718 28.0684C8.19718 27.9122 8.13799 27.7784 8.01962 27.6671C7.90362 27.5559 7.76394 27.5002 7.60059 27.5002C7.43723 27.5002 7.29637 27.5559 7.178 27.6671C7.062 27.7784 7.00399 27.9122 7.00399 28.0684C7.00399 28.2247 7.062 28.3584 7.178 28.4697Z" fill="#55B3FF"/>
<path d="M10.3856 35.0002V27.7275H9.5475V35.0002H10.3856Z" fill="#55B3FF"/>
<path d="M12.7586 35.0002V27.7275H11.9205V35.0002H12.7586Z" fill="#55B3FF"/>
<path fill-rule="evenodd" clip-rule="evenodd" d="M15.2204 34.7659C15.6016 34.9979 16.055 35.1139 16.5805 35.1139C16.9498 35.1139 17.2825 35.0571 17.5784 34.9434C17.8743 34.8274 18.1229 34.6664 18.3241 34.4605C18.5254 34.2521 18.6686 34.0107 18.7538 33.736L17.9442 33.5088C17.8731 33.6982 17.7725 33.8568 17.6423 33.9846C17.5121 34.1101 17.357 34.2048 17.1771 34.2687C16.9996 34.3303 16.8007 34.361 16.5805 34.361C16.242 34.361 15.9449 34.2876 15.6892 34.1409C15.4335 33.9917 15.2335 33.7751 15.089 33.491C14.9602 33.2313 14.8898 32.9199 14.8778 32.5571H18.839V32.2019C18.839 31.6929 18.7716 31.2644 18.6366 30.9164C18.5017 30.5684 18.3206 30.2891 18.0933 30.0784C17.866 29.8653 17.6139 29.7114 17.3369 29.6167C17.0599 29.522 16.7794 29.4747 16.4953 29.4747C16.0029 29.4747 15.572 29.5954 15.2027 29.8369C14.8357 30.076 14.5493 30.4098 14.3433 30.8383C14.1397 31.2644 14.0379 31.7569 14.0379 32.3156C14.0379 32.8743 14.1397 33.3643 14.3433 33.7857C14.5493 34.2048 14.8416 34.5315 15.2204 34.7659ZM14.88 31.8326C14.8959 31.5796 14.9597 31.3405 15.0713 31.1153C15.2015 30.8525 15.3873 30.6394 15.6288 30.4761C15.8727 30.3104 16.1615 30.2275 16.4953 30.2275C16.7983 30.2275 17.0611 30.2973 17.2836 30.437C17.5086 30.5767 17.6814 30.7673 17.8021 31.0088C17.9252 31.2502 17.9868 31.5249 17.9868 31.8326H14.88Z" fill="#55B3FF"/>
<path d="M22.4861 30.2559V29.5457H21.3213V28.2389H20.4832V29.5457H19.6594V30.2559H20.4832V33.665C20.4832 33.9822 20.5566 34.245 20.7034 34.4534C20.8525 34.6617 21.0396 34.8168 21.2645 34.9186C21.4917 35.0204 21.7238 35.0713 21.9605 35.0713C22.1167 35.0713 22.2458 35.0594 22.3476 35.0357C22.4494 35.0144 22.5287 34.9931 22.5855 34.9718L22.415 34.219L22.273 34.2474C22.2138 34.2569 22.1381 34.2616 22.0457 34.2616C21.9226 34.2616 21.8054 34.2427 21.6942 34.2048C21.5853 34.1645 21.4953 34.0864 21.4243 33.9704C21.3556 33.852 21.3213 33.6745 21.3213 33.4377V30.2559H22.4861Z" fill="#55B3FF"/>
<path fill-rule="evenodd" clip-rule="evenodd" d="M24.615 34.7659C24.9961 34.9979 25.4495 35.1139 25.9751 35.1139C26.3444 35.1139 26.677 35.0571 26.9729 34.9434C27.2689 34.8274 27.5174 34.6664 27.7187 34.4605C27.9199 34.2521 28.0631 34.0107 28.1483 33.736L27.3387 33.5088C27.2677 33.6982 27.1671 33.8568 27.0368 33.9846C26.9066 34.1101 26.7516 34.2048 26.5716 34.2687C26.3941 34.3303 26.1952 34.361 25.9751 34.361C25.6365 34.361 25.3394 34.2876 25.0837 34.1409C24.828 33.9917 24.628 33.7751 24.4836 33.491C24.3548 33.2313 24.2844 32.9199 24.2724 32.5571H28.2336V32.2019C28.2336 31.6929 28.1661 31.2644 28.0312 30.9164C27.8962 30.5684 27.7151 30.2891 27.4878 30.0784C27.2606 29.8653 27.0084 29.7114 26.7314 29.6167C26.4545 29.522 26.1739 29.4747 25.8898 29.4747C25.3974 29.4747 24.9665 29.5954 24.5972 29.8369C24.2303 30.076 23.9438 30.4098 23.7378 30.8383C23.5342 31.2644 23.4324 31.7569 23.4324 32.3156C23.4324 32.8743 23.5342 33.3643 23.7378 33.7857C23.9438 34.2048 24.2362 34.5315 24.615 34.7659ZM24.2745 31.8326C24.2905 31.5796 24.3542 31.3405 24.4658 31.1153C24.596 30.8525 24.7819 30.6394 25.0233 30.4761C25.2672 30.3104 25.556 30.2275 25.8898 30.2275C26.1929 30.2275 26.4556 30.2973 26.6782 30.437C26.9031 30.5767 27.0759 30.7673 27.1966 31.0088C27.3197 31.2502 27.3813 31.5249 27.3813 31.8326H24.2745Z" fill="#55B3FF"/>
<path d="M29.5084 29.5457V35.0002H30.3465V31.5485C30.3465 31.3023 30.4057 31.0833 30.5241 30.8916C30.6448 30.6974 30.8081 30.5459 31.0141 30.437C31.2224 30.3258 31.4592 30.2701 31.7243 30.2701C31.8356 30.2701 31.941 30.2784 32.0404 30.295C32.1422 30.3092 32.2073 30.3198 32.2357 30.3269V29.4747C32.1884 29.4699 32.1185 29.4664 32.0262 29.464C31.9339 29.4616 31.8569 29.4605 31.7954 29.4605C31.4687 29.4605 31.1751 29.5445 30.9147 29.7126C30.6543 29.8807 30.4743 30.0997 30.3749 30.3696H30.3181V29.5457H29.5084Z" fill="#55B3FF"/>
<path fill-rule="evenodd" clip-rule="evenodd" d="M33.8932 34.9328C34.1749 35.063 34.4886 35.1281 34.8343 35.1281C35.1515 35.1281 35.4202 35.0807 35.6404 34.986C35.8605 34.8913 36.0369 34.7765 36.1695 34.6416C36.3021 34.5066 36.3968 34.38 36.4536 34.2616H36.4962V35.0002H37.3343V31.4065C37.3343 30.9732 37.2632 30.6276 37.1212 30.3696C36.9791 30.1115 36.8004 29.9186 36.585 29.7907C36.3719 29.6629 36.1505 29.5788 35.9209 29.5386C35.6936 29.496 35.4924 29.4747 35.3172 29.4747C35.0426 29.4747 34.7632 29.5125 34.4791 29.5883C34.1974 29.6617 33.937 29.7919 33.6979 29.9789C33.4611 30.1636 33.2718 30.4216 33.1297 30.7531L33.9252 31.0372C34.0175 30.8383 34.1773 30.6513 34.4046 30.4761C34.6318 30.3009 34.9455 30.2133 35.3456 30.2133C35.7315 30.2133 36.0191 30.3104 36.2085 30.5045C36.4003 30.6986 36.4962 30.9709 36.4962 31.3213V31.3497C36.4962 31.4846 36.4477 31.5793 36.3506 31.6338C36.2559 31.6882 36.1044 31.7273 35.896 31.7509C35.6901 31.7723 35.4214 31.8042 35.0899 31.8468C34.8366 31.88 34.5845 31.9249 34.3335 31.9818C34.085 32.0362 33.8577 32.1191 33.6517 32.2303C33.4458 32.3416 33.2812 32.4955 33.1581 32.692C33.035 32.8861 32.9735 33.1394 32.9735 33.4519C32.9735 33.8071 33.0563 34.1101 33.222 34.361C33.3878 34.6096 33.6115 34.8002 33.8932 34.9328ZM35.8002 34.1799C35.5729 34.3101 35.2935 34.3752 34.9621 34.3752C34.6283 34.3752 34.3525 34.3018 34.1347 34.1551C33.9192 34.0059 33.8115 33.7857 33.8115 33.4946C33.8115 33.2815 33.8683 33.1134 33.982 32.9903C34.098 32.8648 34.2495 32.7713 34.4365 32.7098C34.6259 32.6458 34.8295 32.5997 35.0473 32.5713C35.1373 32.5594 35.2545 32.5452 35.3989 32.5286C35.5457 32.5097 35.696 32.4884 35.8499 32.4647C36.0061 32.4387 36.1434 32.4091 36.2618 32.3759C36.3825 32.3404 36.4607 32.3014 36.4962 32.2588V33.0258C36.4962 33.2531 36.437 33.4697 36.3186 33.6757C36.2026 33.8816 36.0298 34.0497 35.8002 34.1799Z" fill="#55B3FF"/>
</svg>
