<svg width="38" height="36" viewBox="0 0 38 36" fill="none" xmlns="http://www.w3.org/2000/svg">
<path fill-rule="evenodd" clip-rule="evenodd" d="M11.0065 0.0351562C8.77527 0.0351562 6.9665 1.84392 6.9665 4.07516V18.2412C6.9665 20.4724 8.77527 22.2812 11.0065 22.2812H27.1299C29.3611 22.2812 31.1699 20.4724 31.1699 18.2412V8.02585C31.1699 5.79462 29.3611 3.98585 27.1299 3.98585H10.4805C9.92287 3.98585 9.4708 3.53378 9.4708 2.97611C9.4708 2.91056 9.46455 2.84646 9.45262 2.78439C9.82315 2.33882 10.3817 2.05516 11.0065 2.05516H28.1638C28.7216 2.05516 29.1738 1.60296 29.1738 1.04516C29.1738 0.487349 28.7216 0.0351562 28.1638 0.0351562H11.0065ZM8.9865 18.2412V5.61247C9.42739 5.86286 9.93726 6.00585 10.4805 6.00585H27.1299C28.2455 6.00585 29.1499 6.91024 29.1499 8.02585V18.2412C29.1499 19.3568 28.2455 20.2612 27.1299 20.2612H11.0065C9.89088 20.2612 8.9865 19.3568 8.9865 18.2412Z" fill="#CFD1DE"/>
<path fill-rule="evenodd" clip-rule="evenodd" d="M0.852295 27.7275V35.0002H3.48014C4.05305 35.0002 4.51825 34.915 4.87573 34.7446C5.23321 34.5741 5.49481 34.3433 5.66053 34.0521C5.82625 33.7609 5.90911 33.433 5.90911 33.0684C5.90911 32.6849 5.83336 32.3606 5.68184 32.0954C5.53033 31.8303 5.34212 31.6267 5.11721 31.4846C4.8923 31.3426 4.66858 31.2644 4.44604 31.2502V31.1792C4.65438 31.1224 4.84732 31.0348 5.02488 30.9164C5.2048 30.7981 5.34922 30.6371 5.45812 30.4335C5.56939 30.2299 5.62502 29.9718 5.62502 29.6593C5.62502 29.3042 5.54453 28.9811 5.38354 28.6899C5.22256 28.3963 4.97753 28.1631 4.64846 27.9903C4.31939 27.8151 3.90154 27.7275 3.39491 27.7275H0.852295ZM3.48014 34.219H1.73298V31.6906H3.52275C3.83998 31.6906 4.11461 31.7545 4.34661 31.8823C4.57862 32.0078 4.75736 32.1759 4.88283 32.3866C5.00831 32.5949 5.07104 32.8222 5.07104 33.0684C5.07104 33.388 4.94912 33.6603 4.70528 33.8852C4.4638 34.1077 4.05542 34.219 3.48014 34.219ZM3.3665 30.9235H1.73298V28.5088H3.39491C3.87786 28.5088 4.23061 28.6212 4.45315 28.8461C4.67568 29.0687 4.78695 29.3397 4.78695 29.6593C4.78695 29.915 4.72303 30.1375 4.59519 30.3269C4.46972 30.5163 4.29926 30.6631 4.08383 30.7673C3.87076 30.8714 3.63165 30.9235 3.3665 30.9235Z" fill="#CFD1DE"/>
<path d="M7.24256 29.5457V35.0002H8.08063V29.5457H7.24256Z" fill="#CFD1DE"/>
<path d="M7.24612 28.4697C7.36449 28.581 7.50535 28.6366 7.6687 28.6366C7.83205 28.6366 7.97173 28.581 8.08774 28.4697C8.20611 28.3584 8.26529 28.2247 8.26529 28.0684C8.26529 27.9122 8.20611 27.7784 8.08774 27.6671C7.97173 27.5559 7.83205 27.5002 7.6687 27.5002C7.50535 27.5002 7.36449 27.5559 7.24612 27.6671C7.13011 27.7784 7.07211 27.9122 7.07211 28.0684C7.07211 28.2247 7.13011 28.3584 7.24612 28.4697Z" fill="#CFD1DE"/>
<path d="M10.4537 35.0002V27.7275H9.61561V35.0002H10.4537Z" fill="#CFD1DE"/>
<path d="M12.8267 35.0002V27.7275H11.9887V35.0002H12.8267Z" fill="#CFD1DE"/>
<path fill-rule="evenodd" clip-rule="evenodd" d="M15.2886 34.7659C15.6697 34.9979 16.1231 35.1139 16.6486 35.1139C17.018 35.1139 17.3506 35.0571 17.6465 34.9434C17.9424 34.8274 18.191 34.6664 18.3922 34.4605C18.5935 34.2521 18.7367 34.0107 18.8219 33.736L18.0123 33.5088C17.9413 33.6982 17.8406 33.8568 17.7104 33.9846C17.5802 34.1101 17.4252 34.2048 17.2452 34.2687C17.0677 34.3303 16.8688 34.361 16.6486 34.361C16.3101 34.361 16.013 34.2876 15.7573 34.1409C15.5016 33.9917 15.3016 33.7751 15.1572 33.491C15.0284 33.2313 14.958 32.9199 14.9459 32.5571H18.9072V32.2019C18.9072 31.6929 18.8397 31.2644 18.7047 30.9164C18.5698 30.5684 18.3887 30.2891 18.1614 30.0784C17.9341 29.8653 17.682 29.7114 17.405 29.6167C17.128 29.522 16.8475 29.4747 16.5634 29.4747C16.071 29.4747 15.6401 29.5954 15.2708 29.8369C14.9038 30.076 14.6174 30.4098 14.4114 30.8383C14.2078 31.2644 14.106 31.7569 14.106 32.3156C14.106 32.8743 14.2078 33.3643 14.4114 33.7857C14.6174 34.2048 14.9098 34.5315 15.2886 34.7659ZM14.9481 31.8326C14.964 31.5796 15.0278 31.3405 15.1394 31.1153C15.2696 30.8525 15.4555 30.6394 15.6969 30.4761C15.9408 30.3104 16.2296 30.2275 16.5634 30.2275C16.8664 30.2275 17.1292 30.2973 17.3518 30.437C17.5767 30.5767 17.7495 30.7673 17.8702 31.0088C17.9933 31.2502 18.0549 31.5249 18.0549 31.8326H14.9481Z" fill="#CFD1DE"/>
<path d="M22.5542 30.2559V29.5457H21.3894V28.2389H20.5513V29.5457H19.7275V30.2559H20.5513V33.665C20.5513 33.9822 20.6247 34.245 20.7715 34.4534C20.9207 34.6617 21.1077 34.8168 21.3326 34.9186C21.5599 35.0204 21.7919 35.0713 22.0286 35.0713C22.1849 35.0713 22.3139 35.0594 22.4157 35.0357C22.5175 35.0144 22.5968 34.9931 22.6536 34.9718L22.4832 34.219L22.3411 34.2474C22.2819 34.2569 22.2062 34.2616 22.1138 34.2616C21.9907 34.2616 21.8735 34.2427 21.7623 34.2048C21.6534 34.1645 21.5634 34.0864 21.4924 33.9704C21.4237 33.852 21.3894 33.6745 21.3894 33.4377V30.2559H22.5542Z" fill="#CFD1DE"/>
<path fill-rule="evenodd" clip-rule="evenodd" d="M24.6831 34.7659C25.0642 34.9979 25.5176 35.1139 26.0432 35.1139C26.4125 35.1139 26.7451 35.0571 27.041 34.9434C27.337 34.8274 27.5855 34.6664 27.7868 34.4605C27.988 34.2521 28.1312 34.0107 28.2165 33.736L27.4068 33.5088C27.3358 33.6982 27.2352 33.8568 27.105 33.9846C26.9748 34.1101 26.8197 34.2048 26.6398 34.2687C26.4622 34.3303 26.2633 34.361 26.0432 34.361C25.7046 34.361 25.4075 34.2876 25.1518 34.1409C24.8962 33.9917 24.6961 33.7751 24.5517 33.491C24.4229 33.2313 24.3525 32.9199 24.3405 32.5571H28.3017V32.2019C28.3017 31.6929 28.2342 31.2644 28.0993 30.9164C27.9643 30.5684 27.7832 30.2891 27.556 30.0784C27.3287 29.8653 27.0765 29.7114 26.7996 29.6167C26.5226 29.522 26.242 29.4747 25.9579 29.4747C25.4655 29.4747 25.0346 29.5954 24.6653 29.8369C24.2984 30.076 24.0119 30.4098 23.806 30.8383C23.6024 31.2644 23.5006 31.7569 23.5006 32.3156C23.5006 32.8743 23.6024 33.3643 23.806 33.7857C24.0119 34.2048 24.3043 34.5315 24.6831 34.7659ZM24.3426 31.8326C24.3586 31.5796 24.4223 31.3405 24.5339 31.1153C24.6641 30.8525 24.85 30.6394 25.0915 30.4761C25.3353 30.3104 25.6241 30.2275 25.9579 30.2275C26.261 30.2275 26.5238 30.2973 26.7463 30.437C26.9712 30.5767 27.144 30.7673 27.2648 31.0088C27.3879 31.2502 27.4494 31.5249 27.4494 31.8326H24.3426Z" fill="#CFD1DE"/>
<path d="M29.5765 29.5457V35.0002H30.4146V31.5485C30.4146 31.3023 30.4738 31.0833 30.5922 30.8916C30.7129 30.6974 30.8763 30.5459 31.0822 30.437C31.2906 30.3258 31.5273 30.2701 31.7925 30.2701C31.9037 30.2701 32.0091 30.2784 32.1085 30.295C32.2103 30.3092 32.2754 30.3198 32.3038 30.3269V29.4747C32.2565 29.4699 32.1866 29.4664 32.0943 29.464C32.002 29.4616 31.925 29.4605 31.8635 29.4605C31.5368 29.4605 31.2432 29.5445 30.9828 29.7126C30.7224 29.8807 30.5425 30.0997 30.443 30.3696H30.3862V29.5457H29.5765Z" fill="#CFD1DE"/>
<path fill-rule="evenodd" clip-rule="evenodd" d="M33.9613 34.9328C34.243 35.063 34.5567 35.1281 34.9024 35.1281C35.2196 35.1281 35.4883 35.0807 35.7085 34.986C35.9286 34.8913 36.105 34.7765 36.2376 34.6416C36.3702 34.5066 36.4649 34.38 36.5217 34.2616H36.5643V35.0002H37.4024V31.4065C37.4024 30.9732 37.3313 30.6276 37.1893 30.3696C37.0473 30.1115 36.8685 29.9186 36.6531 29.7907C36.44 29.6629 36.2187 29.5788 35.989 29.5386C35.7617 29.496 35.5605 29.4747 35.3853 29.4747C35.1107 29.4747 34.8313 29.5125 34.5473 29.5883C34.2655 29.6617 34.0051 29.7919 33.766 29.9789C33.5293 30.1636 33.3399 30.4216 33.1978 30.7531L33.9933 31.0372C34.0856 30.8383 34.2454 30.6513 34.4727 30.4761C34.7 30.3009 35.0136 30.2133 35.4137 30.2133C35.7996 30.2133 36.0873 30.3104 36.2767 30.5045C36.4684 30.6986 36.5643 30.9709 36.5643 31.3213V31.3497C36.5643 31.4846 36.5158 31.5793 36.4187 31.6338C36.324 31.6882 36.1725 31.7273 35.9642 31.7509C35.7582 31.7723 35.4895 31.8042 35.1581 31.8468C34.9047 31.88 34.6526 31.9249 34.4017 31.9818C34.1531 32.0362 33.9258 32.1191 33.7198 32.2303C33.5139 32.3416 33.3493 32.4955 33.2262 32.692C33.1031 32.8861 33.0416 33.1394 33.0416 33.4519C33.0416 33.8071 33.1244 34.1101 33.2902 34.361C33.4559 34.6096 33.6796 34.8002 33.9613 34.9328ZM35.8683 34.1799C35.641 34.3101 35.3616 34.3752 35.0302 34.3752C34.6964 34.3752 34.4206 34.3018 34.2028 34.1551C33.9874 34.0059 33.8796 33.7857 33.8796 33.4946C33.8796 33.2815 33.9365 33.1134 34.0501 32.9903C34.1661 32.8648 34.3176 32.7713 34.5046 32.7098C34.694 32.6458 34.8976 32.5997 35.1154 32.5713C35.2054 32.5594 35.3226 32.5452 35.467 32.5286C35.6138 32.5097 35.7641 32.4884 35.918 32.4647C36.0742 32.4387 36.2116 32.4091 36.3299 32.3759C36.4507 32.3404 36.5288 32.3014 36.5643 32.2588V33.0258C36.5643 33.2531 36.5051 33.4697 36.3867 33.6757C36.2707 33.8816 36.0979 34.0497 35.8683 34.1799Z" fill="#CFD1DE"/>
</svg>
