<svg width="47" height="40" viewBox="0 0 47 40" fill="none" xmlns="http://www.w3.org/2000/svg">
<path fill-rule="evenodd" clip-rule="evenodd" d="M29.6643 2.02261H29.4917C29.0752 0.844244 27.9514 0 26.6304 0H20.5626C19.2416 0 18.1178 0.844243 17.7013 2.02261H17.5287C15.2946 2.02261 13.4835 3.8337 13.4835 6.06781V20.2261C13.4835 22.4602 15.2946 24.2713 17.5287 24.2713H29.6643C31.8984 24.2713 33.7095 22.4602 33.7095 20.2261V6.06782C33.7095 3.83371 31.8984 2.02261 29.6643 2.02261ZM15.5061 6.06781C15.5061 4.95076 16.4116 4.04521 17.5287 4.04521C17.5287 5.72079 18.887 7.07912 20.5626 7.07912H26.6304C28.306 7.07912 29.6643 5.72079 29.6643 4.04521C30.7814 4.04521 31.6869 4.95076 31.6869 6.06782V20.2261C31.6869 21.3431 30.7814 22.2487 29.6643 22.2487H17.5287C16.4116 22.2487 15.5061 21.3431 15.5061 20.2261V6.06781ZM20.5626 2.02261C20.0041 2.02261 19.5513 2.47538 19.5513 3.03391V4.04521C19.5513 4.60374 20.0041 5.05651 20.5626 5.05651H26.6304C27.1889 5.05651 27.6417 4.60374 27.6417 4.04521V3.03391C27.6417 2.47538 27.1889 2.02261 26.6304 2.02261H20.5626Z" fill="#CFD1DE"/>
<path fill-rule="evenodd" clip-rule="evenodd" d="M0.868896 29.7273V37H1.74958V34.3438H3.34049C3.9063 34.3438 4.37032 34.2408 4.73253 34.0348C5.09475 33.8265 5.36227 33.5471 5.53509 33.1967C5.71028 32.8464 5.79787 32.4569 5.79787 32.0284C5.79787 31.5999 5.71028 31.2116 5.53509 30.8636C5.3599 30.5156 5.09001 30.2398 4.72543 30.0362C4.36321 29.8303 3.89683 29.7273 3.32628 29.7273H0.868896ZM1.74958 33.5625H3.31208C3.7027 33.5625 4.01639 33.495 4.25313 33.3601C4.48987 33.2251 4.66151 33.0429 4.76804 32.8132C4.87695 32.5812 4.9314 32.3196 4.9314 32.0284C4.9314 31.7372 4.87695 31.4768 4.76804 31.2472C4.66151 31.0175 4.48869 30.8376 4.24958 30.7074C4.01047 30.5748 3.69323 30.5085 3.29787 30.5085H1.74958V33.5625Z" fill="#CFD1DE"/>
<path d="M7.10292 31.5455V37H7.94098V33.5483C7.94098 33.3021 8.00017 33.0831 8.11854 32.8913C8.23928 32.6972 8.40263 32.5457 8.6086 32.4368C8.81693 32.3255 9.05367 32.2699 9.31883 32.2699C9.43009 32.2699 9.53545 32.2782 9.63488 32.2947C9.73668 32.3089 9.80178 32.3196 9.83019 32.3267V31.4744C9.78284 31.4697 9.713 31.4661 9.62067 31.4638C9.52834 31.4614 9.4514 31.4602 9.38985 31.4602C9.06314 31.4602 8.76958 31.5443 8.50917 31.7124C8.24875 31.8804 8.06883 32.0994 7.96939 32.3693H7.91258V31.5455H7.10292Z" fill="#CFD1DE"/>
<path fill-rule="evenodd" clip-rule="evenodd" d="M11.5773 36.7621C11.949 36.9964 12.3811 37.1136 12.8735 37.1136C13.3659 37.1136 13.7968 36.9964 14.1661 36.7621C14.5378 36.5277 14.8266 36.1998 15.0326 35.7784C15.2409 35.357 15.3451 34.8646 15.3451 34.3011C15.3451 33.733 15.2409 33.237 15.0326 32.8132C14.8266 32.3894 14.5378 32.0604 14.1661 31.826C13.7968 31.5916 13.3659 31.4744 12.8735 31.4744C12.3811 31.4744 11.949 31.5916 11.5773 31.826C11.208 32.0604 10.9192 32.3894 10.7109 32.8132C10.5049 33.237 10.4019 33.733 10.4019 34.3011C10.4019 34.8646 10.5049 35.357 10.7109 35.7784C10.9192 36.1998 11.208 36.5277 11.5773 36.7621ZM13.7968 36.0732C13.5553 36.2649 13.2476 36.3608 12.8735 36.3608C12.4995 36.3608 12.1917 36.2649 11.9502 36.0732C11.7087 35.8814 11.53 35.6293 11.414 35.3168C11.298 35.0043 11.24 34.6657 11.24 34.3011C11.24 33.9366 11.298 33.5968 11.414 33.282C11.53 32.9671 11.7087 32.7126 11.9502 32.5185C12.1917 32.3243 12.4995 32.2273 12.8735 32.2273C13.2476 32.2273 13.5553 32.3243 13.7968 32.5185C14.0383 32.7126 14.217 32.9671 14.333 33.282C14.449 33.5968 14.507 33.9366 14.507 34.3011C14.507 34.6657 14.449 35.0043 14.333 35.3168C14.217 35.6293 14.0383 35.8814 13.7968 36.0732Z" fill="#CFD1DE"/>
<path d="M16.5889 39.0099C16.7002 39.0336 16.8268 39.0455 16.9689 39.0455C17.2222 39.0455 17.4494 39.0005 17.6507 38.9105C17.8543 38.8205 18.033 38.6821 18.1869 38.495C18.3408 38.3104 18.4698 38.0772 18.574 37.7955L20.8893 31.5455H19.9802L18.4745 35.892H18.4177L16.912 31.5455H16.003L18.02 37.0284L17.8637 37.4545C17.7619 37.7315 17.6495 37.9316 17.5264 38.0547C17.4057 38.1802 17.2672 38.25 17.1109 38.2642C16.9547 38.2784 16.7747 38.2595 16.5711 38.2074L16.3581 38.946C16.4007 38.9673 16.4776 38.9886 16.5889 39.0099Z" fill="#CFD1DE"/>
<path fill-rule="evenodd" clip-rule="evenodd" d="M22.727 36.7656C23.1082 36.9976 23.5615 37.1136 24.0871 37.1136C24.4564 37.1136 24.7891 37.0568 25.085 36.9432C25.3809 36.8272 25.6295 36.6662 25.8307 36.4602C26.032 36.2519 26.1752 36.0104 26.2604 35.7358L25.4508 35.5085C25.3797 35.6979 25.2791 35.8565 25.1489 35.9844C25.0187 36.1098 24.8636 36.2045 24.6837 36.2685C24.5061 36.33 24.3073 36.3608 24.0871 36.3608C23.7486 36.3608 23.4515 36.2874 23.1958 36.1406C22.9401 35.9915 22.74 35.7749 22.5956 35.4908C22.4668 35.231 22.3964 34.9197 22.3844 34.5568H26.3456V34.2017C26.3456 33.6927 26.2782 33.2642 26.1432 32.9162C26.0083 32.5682 25.8272 32.2888 25.5999 32.0781C25.3726 31.8651 25.1205 31.7112 24.8435 31.6165C24.5665 31.5218 24.286 31.4744 24.0019 31.4744C23.5095 31.4744 23.0786 31.5952 22.7093 31.8366C22.3423 32.0758 22.0559 32.4096 21.8499 32.8381C21.6463 33.2642 21.5445 33.7566 21.5445 34.3153C21.5445 34.8741 21.6463 35.3641 21.8499 35.7855C22.0559 36.2045 22.3482 36.5312 22.727 36.7656ZM22.3866 33.8324C22.4025 33.5794 22.4663 33.3403 22.5779 33.1151C22.7081 32.8523 22.8939 32.6392 23.1354 32.4759C23.3793 32.3101 23.6681 32.2273 24.0019 32.2273C24.3049 32.2273 24.5677 32.2971 24.7902 32.4368C25.0151 32.5765 25.188 32.767 25.3087 33.0085C25.4318 33.25 25.4934 33.5246 25.4934 33.8324H22.3866Z" fill="#CFD1DE"/>
<path d="M28.5154 36.7514C28.8847 36.9929 29.325 37.1136 29.8364 37.1136C30.2389 37.1136 30.5916 37.0391 30.8946 36.8899C31.2 36.7384 31.4451 36.5348 31.6297 36.2791C31.8168 36.0211 31.9339 35.7311 31.9813 35.4091H31.1432C31.0911 35.608 31.0035 35.7784 30.8804 35.9205C30.7573 36.0625 30.607 36.1714 30.4294 36.2472C30.2519 36.3229 30.0542 36.3608 29.8364 36.3608C29.505 36.3608 29.2161 36.2744 28.9699 36.1016C28.7261 35.9287 28.5367 35.6861 28.4017 35.3736C28.2692 35.0611 28.2029 34.6941 28.2029 34.2727C28.2029 33.8608 28.2704 33.5021 28.4053 33.1967C28.5426 32.889 28.7332 32.651 28.977 32.483C29.2232 32.3125 29.5097 32.2273 29.8364 32.2273C30.2057 32.2273 30.4993 32.3243 30.7171 32.5185C30.9373 32.7102 31.0793 32.9304 31.1432 33.179H31.9813C31.9339 32.8381 31.812 32.5398 31.6155 32.2841C31.419 32.0284 31.1669 31.8295 30.8591 31.6875C30.5514 31.5455 30.2057 31.4744 29.8222 31.4744C29.3298 31.4744 28.8989 31.5952 28.5296 31.8366C28.1626 32.0758 27.8762 32.4084 27.6702 32.8345C27.4666 33.2583 27.3648 33.7472 27.3648 34.3011C27.3648 34.8456 27.4642 35.3298 27.6631 35.7536C27.862 36.1773 28.1461 36.5099 28.5154 36.7514Z" fill="#CFD1DE"/>
<path d="M35.5786 32.2557V31.5455H34.4138V30.2386H33.5758V31.5455H32.7519V32.2557H33.5758V35.6648C33.5758 35.982 33.6491 36.2448 33.7959 36.4531C33.9451 36.6615 34.1321 36.8165 34.357 36.9183C34.5843 37.0201 34.8163 37.071 35.053 37.071C35.2093 37.071 35.3383 37.0592 35.4401 37.0355C35.5419 37.0142 35.6212 36.9929 35.678 36.9716L35.5076 36.2188L35.3655 36.2472C35.3063 36.2566 35.2306 36.2614 35.1383 36.2614C35.0151 36.2614 34.898 36.2424 34.7867 36.2045C34.6778 36.1643 34.5878 36.0862 34.5168 35.9702C34.4481 35.8518 34.4138 35.6742 34.4138 35.4375V32.2557H35.5786Z" fill="#CFD1DE"/>
<path fill-rule="evenodd" clip-rule="evenodd" d="M37.7004 36.7621C38.0721 36.9964 38.5041 37.1136 38.9966 37.1136C39.489 37.1136 39.9199 36.9964 40.2892 36.7621C40.6609 36.5277 40.9497 36.1998 41.1557 35.7784C41.364 35.357 41.4682 34.8646 41.4682 34.3011C41.4682 33.733 41.364 33.237 41.1557 32.8132C40.9497 32.3894 40.6609 32.0604 40.2892 31.826C39.9199 31.5916 39.489 31.4744 38.9966 31.4744C38.5041 31.4744 38.0721 31.5916 37.7004 31.826C37.3311 32.0604 37.0423 32.3894 36.8339 32.8132C36.628 33.237 36.525 33.733 36.525 34.3011C36.525 34.8646 36.628 35.357 36.8339 35.7784C37.0423 36.1998 37.3311 36.5277 37.7004 36.7621ZM39.9199 36.0732C39.6784 36.2649 39.3706 36.3608 38.9966 36.3608C38.6225 36.3608 38.3147 36.2649 38.0733 36.0732C37.8318 35.8814 37.653 35.6293 37.537 35.3168C37.421 35.0043 37.363 34.6657 37.363 34.3011C37.363 33.9366 37.421 33.5968 37.537 33.282C37.653 32.9671 37.8318 32.7126 38.0733 32.5185C38.3147 32.3243 38.6225 32.2273 38.9966 32.2273C39.3706 32.2273 39.6784 32.3243 39.9199 32.5185C40.1613 32.7126 40.3401 32.9671 40.4561 33.282C40.5721 33.5968 40.6301 33.9366 40.6301 34.3011C40.6301 34.6657 40.5721 35.0043 40.4561 35.3168C40.3401 35.6293 40.1613 35.8814 39.9199 36.0732Z" fill="#CFD1DE"/>
<path d="M45.8582 32.9801L46.6111 32.767C46.4809 32.3788 46.2607 32.0663 45.9506 31.8295C45.6428 31.5928 45.219 31.4744 44.6793 31.4744C44.2957 31.4744 43.9525 31.5419 43.6494 31.6768C43.3488 31.8118 43.1108 31.9976 42.9357 32.2344C42.7628 32.4711 42.6764 32.7434 42.6764 33.0511C42.6764 33.4276 42.7924 33.7412 43.0244 33.9922C43.2588 34.2408 43.6258 34.4242 44.1253 34.5426L45.0344 34.7557C45.309 34.8196 45.5126 34.9167 45.6452 35.0469C45.7778 35.1747 45.844 35.3333 45.844 35.5227C45.844 35.7571 45.728 35.9583 45.496 36.1264C45.2664 36.2921 44.9563 36.375 44.5656 36.375C44.2224 36.375 43.9442 36.3016 43.7311 36.1548C43.5204 36.008 43.3772 35.7879 43.3014 35.4943L42.506 35.6932C42.603 36.1572 42.8339 36.5099 43.1984 36.7514C43.563 36.9929 44.0235 37.1136 44.5798 37.1136C45.0036 37.1136 45.3753 37.0426 45.6949 36.9006C46.0145 36.7585 46.2631 36.5644 46.4406 36.3182C46.6206 36.072 46.7105 35.7926 46.7105 35.4801C46.7105 35.099 46.591 34.7876 46.3519 34.5462C46.1127 34.3023 45.7493 34.1212 45.2617 34.0028L44.452 33.804C44.13 33.7235 43.8933 33.6229 43.7418 33.5021C43.5903 33.3814 43.5145 33.2169 43.5145 33.0085C43.5145 32.7741 43.6246 32.5812 43.8447 32.4297C44.0673 32.2758 44.3455 32.1989 44.6793 32.1989C44.9231 32.1989 45.1232 32.2379 45.2794 32.3161C45.4357 32.3942 45.5588 32.4936 45.6487 32.6143C45.7411 32.7327 45.8109 32.8546 45.8582 32.9801Z" fill="#CFD1DE"/>
</svg>
