<svg width="47" height="40" viewBox="0 0 47 40" fill="none" xmlns="http://www.w3.org/2000/svg">
<path fill-rule="evenodd" clip-rule="evenodd" d="M29.4253 2.56948H29.2527C28.8362 1.39112 27.7124 0.546875 26.3914 0.546875H20.3236C19.0026 0.546875 17.8788 1.39112 17.4623 2.56948H17.2897C15.0556 2.56948 13.2445 4.38058 13.2445 6.61469V20.7729C13.2445 23.007 15.0556 24.8181 17.2897 24.8181H29.4253C31.6594 24.8181 33.4705 23.007 33.4705 20.7729V6.61469C33.4705 4.38058 31.6594 2.56948 29.4253 2.56948ZM15.2671 6.61469C15.2671 5.49764 16.1726 4.59209 17.2897 4.59209C17.2897 6.26767 18.648 7.626 20.3236 7.626H26.3914C28.067 7.626 29.4253 6.26767 29.4253 4.59209C30.5424 4.59209 31.4479 5.49764 31.4479 6.61469V20.7729C31.4479 21.89 30.5424 22.7955 29.4253 22.7955H17.2897C16.1726 22.7955 15.2671 21.89 15.2671 20.7729V6.61469ZM20.3236 2.56948C19.7651 2.56948 19.3123 3.02226 19.3123 3.58078V4.59209C19.3123 5.15061 19.7651 5.60339 20.3236 5.60339H26.3914C26.9499 5.60339 27.4027 5.15061 27.4027 4.59209V3.58078C27.4027 3.02226 26.9499 2.56948 26.3914 2.56948H20.3236Z" fill="#CFD1DE"/>
<path fill-rule="evenodd" clip-rule="evenodd" d="M0.629883 30.2741V37.5469H1.51056V34.8906H3.10147C3.66729 34.8906 4.1313 34.7876 4.49352 34.5817C4.85574 34.3733 5.12325 34.094 5.29608 33.7436C5.47127 33.3932 5.55886 33.0038 5.55886 32.5753C5.55886 32.1468 5.47127 31.7585 5.29608 31.4105C5.12089 31.0625 4.851 30.7867 4.48642 30.5831C4.1242 30.3771 3.65782 30.2741 3.08727 30.2741H0.629883ZM1.51056 34.1094H3.07306C3.46369 34.1094 3.77737 34.0419 4.01412 33.907C4.25086 33.772 4.4225 33.5897 4.52903 33.3601C4.63793 33.1281 4.69238 32.8665 4.69238 32.5753C4.69238 32.2841 4.63793 32.0237 4.52903 31.794C4.4225 31.5644 4.24967 31.3845 4.01056 31.2543C3.77146 31.1217 3.45422 31.0554 3.05886 31.0554H1.51056V34.1094Z" fill="#CFD1DE"/>
<path d="M6.8639 32.0923V37.5469H7.70197V34.0952C7.70197 33.849 7.76116 33.63 7.87953 33.4382C8.00027 33.2441 8.16362 33.0926 8.36958 32.9837C8.57792 32.8724 8.81466 32.8168 9.07981 32.8168C9.19108 32.8168 9.29643 32.825 9.39586 32.8416C9.49766 32.8558 9.56277 32.8665 9.59118 32.8736V32.0213C9.54383 32.0166 9.47399 32.013 9.38166 32.0107C9.28933 32.0083 9.21239 32.0071 9.15084 32.0071C8.82413 32.0071 8.53057 32.0911 8.27015 32.2592C8.00974 32.4273 7.82981 32.6463 7.73038 32.9162H7.67356V32.0923H6.8639Z" fill="#CFD1DE"/>
<path fill-rule="evenodd" clip-rule="evenodd" d="M11.3383 37.3089C11.71 37.5433 12.1421 37.6605 12.6345 37.6605C13.1269 37.6605 13.5578 37.5433 13.9271 37.3089C14.2988 37.0746 14.5876 36.7467 14.7936 36.3253C15.0019 35.9039 15.1061 35.4115 15.1061 34.848C15.1061 34.2798 15.0019 33.7839 14.7936 33.3601C14.5876 32.9363 14.2988 32.6072 13.9271 32.3729C13.5578 32.1385 13.1269 32.0213 12.6345 32.0213C12.1421 32.0213 11.71 32.1385 11.3383 32.3729C10.969 32.6072 10.6802 32.9363 10.4719 33.3601C10.2659 33.7839 10.1629 34.2798 10.1629 34.848C10.1629 35.4115 10.2659 35.9039 10.4719 36.3253C10.6802 36.7467 10.969 37.0746 11.3383 37.3089ZM13.5578 36.62C13.3163 36.8118 13.0086 36.9077 12.6345 36.9077C12.2604 36.9077 11.9527 36.8118 11.7112 36.62C11.4697 36.4283 11.291 36.1761 11.175 35.8636C11.059 35.5511 11.001 35.2126 11.001 34.848C11.001 34.4834 11.059 34.1437 11.175 33.8288C11.291 33.514 11.4697 33.2595 11.7112 33.0653C11.9527 32.8712 12.2604 32.7741 12.6345 32.7741C13.0086 32.7741 13.3163 32.8712 13.5578 33.0653C13.7993 33.2595 13.978 33.514 14.094 33.8288C14.21 34.1437 14.268 34.4834 14.268 34.848C14.268 35.2126 14.21 35.5511 14.094 35.8636C13.978 36.1761 13.7993 36.4283 13.5578 36.62Z" fill="#CFD1DE"/>
<path d="M16.3499 39.5568C16.4611 39.5805 16.5878 39.5923 16.7298 39.5923C16.9832 39.5923 17.2104 39.5473 17.4117 39.4574C17.6153 39.3674 17.794 39.2289 17.9479 39.0419C18.1018 38.8572 18.2308 38.6241 18.335 38.3423L20.6503 32.0923H19.7412L18.2355 36.4389H18.1787L16.673 32.0923H15.7639L17.781 37.5753L17.6247 38.0014C17.5229 38.2784 17.4105 38.4785 17.2874 38.6016C17.1666 38.727 17.0281 38.7969 16.8719 38.8111C16.7156 38.8253 16.5357 38.8063 16.3321 38.7543L16.1191 39.4929C16.1617 39.5142 16.2386 39.5355 16.3499 39.5568Z" fill="#CFD1DE"/>
<path fill-rule="evenodd" clip-rule="evenodd" d="M22.488 37.3125C22.8692 37.5445 23.3225 37.6605 23.8481 37.6605C24.2174 37.6605 24.55 37.6037 24.846 37.4901C25.1419 37.3741 25.3905 37.2131 25.5917 37.0071C25.7929 36.7988 25.9362 36.5573 26.0214 36.2827L25.2117 36.0554C25.1407 36.2448 25.0401 36.4034 24.9099 36.5312C24.7797 36.6567 24.6246 36.7514 24.4447 36.8153C24.2671 36.8769 24.0683 36.9077 23.8481 36.9077C23.5096 36.9077 23.2124 36.8343 22.9568 36.6875C22.7011 36.5384 22.501 36.3217 22.3566 36.0376C22.2278 35.7779 22.1574 35.4666 22.1454 35.1037H26.1066V34.7486C26.1066 34.2396 26.0392 33.8111 25.9042 33.4631C25.7693 33.1151 25.5882 32.8357 25.3609 32.625C25.1336 32.4119 24.8815 32.258 24.6045 32.1634C24.3275 32.0687 24.047 32.0213 23.7629 32.0213C23.2704 32.0213 22.8396 32.142 22.4703 32.3835C22.1033 32.6226 21.8169 32.9564 21.6109 33.3849C21.4073 33.8111 21.3055 34.3035 21.3055 34.8622C21.3055 35.4209 21.4073 35.911 21.6109 36.3324C21.8169 36.7514 22.1092 37.0781 22.488 37.3125ZM22.1476 34.3793C22.1635 34.1262 22.2273 33.8871 22.3389 33.6619C22.4691 33.3991 22.6549 33.1861 22.8964 33.0227C23.1402 32.857 23.4291 32.7741 23.7629 32.7741C24.0659 32.7741 24.3287 32.844 24.5512 32.9837C24.7761 33.1233 24.949 33.3139 25.0697 33.5554C25.1928 33.7969 25.2544 34.0715 25.2544 34.3793H22.1476Z" fill="#CFD1DE"/>
<path d="M28.2764 37.2983C28.6457 37.5398 29.086 37.6605 29.5974 37.6605C29.9999 37.6605 30.3526 37.5859 30.6556 37.4368C30.961 37.2853 31.2061 37.0817 31.3907 36.826C31.5777 36.5679 31.6949 36.2779 31.7423 35.956H30.9042C30.8521 36.1548 30.7645 36.3253 30.6414 36.4673C30.5183 36.6094 30.368 36.7183 30.1904 36.794C30.0129 36.8698 29.8152 36.9077 29.5974 36.9077C29.266 36.9077 28.9771 36.8213 28.7309 36.6484C28.4871 36.4756 28.2977 36.233 28.1627 35.9205C28.0302 35.608 27.9639 35.241 27.9639 34.8196C27.9639 34.4077 28.0313 34.049 28.1663 33.7436C28.3036 33.4358 28.4942 33.1979 28.738 33.0298C28.9842 32.8594 29.2707 32.7741 29.5974 32.7741C29.9667 32.7741 30.2603 32.8712 30.4781 33.0653C30.6982 33.2571 30.8403 33.4773 30.9042 33.7259H31.7423C31.6949 33.3849 31.573 33.0866 31.3765 32.831C31.18 32.5753 30.9279 32.3764 30.6201 32.2344C30.3124 32.0923 29.9667 32.0213 29.5832 32.0213C29.0908 32.0213 28.6599 32.142 28.2906 32.3835C27.9236 32.6226 27.6372 32.9553 27.4312 33.3814C27.2276 33.8052 27.1258 34.294 27.1258 34.848C27.1258 35.3925 27.2252 35.8767 27.4241 36.3004C27.623 36.7242 27.907 37.0568 28.2764 37.2983Z" fill="#CFD1DE"/>
<path d="M35.3396 32.8026V32.0923H34.1748V30.7855H33.3367V32.0923H32.5129V32.8026H33.3367V36.2116C33.3367 36.5289 33.4101 36.7917 33.5569 37C33.7061 37.2083 33.8931 37.3634 34.118 37.4652C34.3453 37.567 34.5773 37.6179 34.814 37.6179C34.9703 37.6179 35.0993 37.6061 35.2011 37.5824C35.3029 37.5611 35.3822 37.5398 35.439 37.5185L35.2686 36.7656L35.1265 36.794C35.0673 36.8035 34.9916 36.8082 34.8992 36.8082C34.7761 36.8082 34.6589 36.7893 34.5477 36.7514C34.4388 36.7112 34.3488 36.633 34.2778 36.517C34.2091 36.3987 34.1748 36.2211 34.1748 35.9844V32.8026H35.3396Z" fill="#CFD1DE"/>
<path fill-rule="evenodd" clip-rule="evenodd" d="M37.4614 37.3089C37.8331 37.5433 38.2651 37.6605 38.7575 37.6605C39.25 37.6605 39.6808 37.5433 40.0502 37.3089C40.4218 37.0746 40.7107 36.7467 40.9166 36.3253C41.125 35.9039 41.2291 35.4115 41.2291 34.848C41.2291 34.2798 41.125 33.7839 40.9166 33.3601C40.7107 32.9363 40.4218 32.6072 40.0502 32.3729C39.6808 32.1385 39.25 32.0213 38.7575 32.0213C38.2651 32.0213 37.8331 32.1385 37.4614 32.3729C37.0921 32.6072 36.8032 32.9363 36.5949 33.3601C36.3889 33.7839 36.286 34.2798 36.286 34.848C36.286 35.4115 36.3889 35.9039 36.5949 36.3253C36.8032 36.7467 37.0921 37.0746 37.4614 37.3089ZM39.6808 36.62C39.4394 36.8118 39.1316 36.9077 38.7575 36.9077C38.3835 36.9077 38.0757 36.8118 37.8343 36.62C37.5928 36.4283 37.414 36.1761 37.298 35.8636C37.182 35.5511 37.124 35.2126 37.124 34.848C37.124 34.4834 37.182 34.1437 37.298 33.8288C37.414 33.514 37.5928 33.2595 37.8343 33.0653C38.0757 32.8712 38.3835 32.7741 38.7575 32.7741C39.1316 32.7741 39.4394 32.8712 39.6808 33.0653C39.9223 33.2595 40.1011 33.514 40.2171 33.8288C40.3331 34.1437 40.3911 34.4834 40.3911 34.848C40.3911 35.2126 40.3331 35.5511 40.2171 35.8636C40.1011 36.1761 39.9223 36.4283 39.6808 36.62Z" fill="#CFD1DE"/>
<path d="M45.6192 33.527L46.3721 33.3139C46.2419 32.9257 46.0217 32.6132 45.7116 32.3764C45.4038 32.1397 44.98 32.0213 44.4403 32.0213C44.0567 32.0213 43.7135 32.0888 43.4104 32.2237C43.1098 32.3587 42.8718 32.5445 42.6966 32.7812C42.5238 33.018 42.4374 33.2902 42.4374 33.598C42.4374 33.9744 42.5534 34.2881 42.7854 34.5391C43.0198 34.7876 43.3867 34.9711 43.8863 35.0895L44.7954 35.3026C45.07 35.3665 45.2736 35.4635 45.4062 35.5938C45.5387 35.7216 45.605 35.8802 45.605 36.0696C45.605 36.304 45.489 36.5052 45.257 36.6733C45.0274 36.839 44.7172 36.9219 44.3266 36.9219C43.9833 36.9219 43.7052 36.8485 43.4921 36.7017C43.2814 36.5549 43.1382 36.3348 43.0624 36.0412L42.267 36.2401C42.364 36.7041 42.5948 37.0568 42.9594 37.2983C43.324 37.5398 43.7845 37.6605 44.3408 37.6605C44.7646 37.6605 45.1363 37.5895 45.4559 37.4474C45.7755 37.3054 46.0241 37.1113 46.2016 36.8651C46.3815 36.6188 46.4715 36.3395 46.4715 36.027C46.4715 35.6458 46.3519 35.3345 46.1128 35.093C45.8737 34.8492 45.5103 34.6681 45.0226 34.5497L44.213 34.3509C43.891 34.2704 43.6543 34.1697 43.5028 34.049C43.3512 33.9283 43.2755 33.7637 43.2755 33.5554C43.2755 33.321 43.3856 33.1281 43.6057 32.9766C43.8283 32.8227 44.1064 32.7457 44.4403 32.7457C44.6841 32.7457 44.8841 32.7848 45.0404 32.8629C45.1966 32.9411 45.3198 33.0405 45.4097 33.1612C45.502 33.2796 45.5719 33.4015 45.6192 33.527Z" fill="#CFD1DE"/>
</svg>
