<svg width="27" height="38" viewBox="0 0 27 38" fill="none" xmlns="http://www.w3.org/2000/svg">
<path fill-rule="evenodd" clip-rule="evenodd" d="M14.1092 0.196962C13.7526 -0.0656538 13.2666 -0.0656538 12.9099 0.196962L4.03187 6.73445C2.99651 7.49685 2.38526 8.70605 2.38526 9.99182V20.7317C2.38526 22.6866 3.96998 24.2713 5.92482 24.2713H9.46438C10.5814 24.2713 11.487 23.3657 11.487 22.2487V16.6865H15.5322V22.2487C15.5322 23.3657 16.4378 24.2713 17.5548 24.2713H21.0944C23.0492 24.2713 24.6339 22.6866 24.6339 20.7317V9.99182C24.6339 8.70605 24.0227 7.49685 22.9873 6.73445L14.1092 0.196962ZM5.23117 8.36313L13.5096 2.26721L21.788 8.36313C22.3057 8.74433 22.6113 9.34893 22.6113 9.99182V20.7317C22.6113 21.5695 21.9322 22.2487 21.0944 22.2487H17.5548V16.1808C17.5548 15.3431 16.8756 14.6639 16.0378 14.6639H10.9813C10.1435 14.6639 9.46438 15.3431 9.46438 16.1808V22.2487H5.92482C5.08703 22.2487 4.40787 21.5695 4.40787 20.7317V9.99182C4.40787 9.34893 4.71349 8.74433 5.23117 8.36313Z" fill="#CFD1DE"/>
<path d="M0.449951 29.7273V37H1.33063V33.7472H5.20848V37H6.08916V29.7273H5.20848V32.9659H1.33063V29.7273H0.449951Z" fill="#CFD1DE"/>
<path fill-rule="evenodd" clip-rule="evenodd" d="M8.6584 36.7621C9.03009 36.9964 9.46214 37.1136 9.95457 37.1136C10.447 37.1136 10.8779 36.9964 11.2472 36.7621C11.6189 36.5277 11.9077 36.1998 12.1137 35.7784C12.322 35.357 12.4262 34.8646 12.4262 34.3011C12.4262 33.733 12.322 33.237 12.1137 32.8132C11.9077 32.3894 11.6189 32.0604 11.2472 31.826C10.8779 31.5916 10.447 31.4744 9.95457 31.4744C9.46214 31.4744 9.03009 31.5916 8.6584 31.826C8.28909 32.0604 8.00026 32.3894 7.79193 32.8132C7.58596 33.237 7.48298 33.733 7.48298 34.3011C7.48298 34.8646 7.58596 35.357 7.79193 35.7784C8.00026 36.1998 8.28909 36.5277 8.6584 36.7621ZM10.8779 36.0732C10.6364 36.2649 10.3286 36.3608 9.95457 36.3608C9.58052 36.3608 9.27275 36.2649 9.03127 36.0732C8.7898 35.8814 8.61106 35.6293 8.49505 35.3168C8.37905 35.0043 8.32105 34.6657 8.32105 34.3011C8.32105 33.9366 8.37905 33.5968 8.49505 33.282C8.61106 32.9671 8.7898 32.7126 9.03127 32.5185C9.27275 32.3243 9.58052 32.2273 9.95457 32.2273C10.3286 32.2273 10.6364 32.3243 10.8779 32.5185C11.1193 32.7126 11.2981 32.9671 11.4141 33.282C11.5301 33.5968 11.5881 33.9366 11.5881 34.3011C11.5881 34.6657 11.5301 35.0043 11.4141 35.3168C11.2981 35.6293 11.1193 35.8814 10.8779 36.0732Z" fill="#CFD1DE"/>
<path d="M13.7055 31.5455V37H14.5435V33.5909C14.5435 33.3234 14.6003 33.0878 14.714 32.8842C14.83 32.6783 14.9815 32.5173 15.1685 32.4013C15.3579 32.2853 15.5615 32.2273 15.7793 32.2273C16.0966 32.2273 16.3558 32.3232 16.557 32.5149C16.7583 32.7043 16.8589 32.9541 16.8589 33.2642V37H17.7111V33.4489C17.7111 33.0961 17.8165 32.8049 18.0272 32.5753C18.2379 32.3433 18.535 32.2273 18.9185 32.2273C19.2168 32.2273 19.4761 32.3137 19.6962 32.4865C19.9164 32.6593 20.0265 32.947 20.0265 33.3494V37H20.8645V33.3494C20.8645 32.7079 20.7095 32.2356 20.3993 31.9325C20.0892 31.6271 19.6903 31.4744 19.2026 31.4744C18.812 31.4744 18.477 31.5585 18.1976 31.7266C17.9183 31.8923 17.7088 32.116 17.5691 32.3977H17.5123C17.3773 32.1065 17.1891 31.8804 16.9476 31.7195C16.7085 31.5561 16.4091 31.4744 16.0492 31.4744C15.6941 31.4744 15.3899 31.5561 15.1366 31.7195C14.8833 31.8804 14.6998 32.1065 14.5861 32.3977H14.5151V31.5455H13.7055Z" fill="#CFD1DE"/>
<path fill-rule="evenodd" clip-rule="evenodd" d="M23.3237 36.7656C23.7049 36.9976 24.1582 37.1136 24.6838 37.1136C25.0531 37.1136 25.3857 37.0568 25.6817 36.9432C25.9776 36.8272 26.2262 36.6662 26.4274 36.4602C26.6286 36.2519 26.7719 36.0104 26.8571 35.7358L26.0474 35.5085C25.9764 35.6979 25.8758 35.8565 25.7456 35.9844C25.6154 36.1098 25.4603 36.2045 25.2804 36.2685C25.1028 36.33 24.904 36.3608 24.6838 36.3608C24.3453 36.3608 24.0481 36.2874 23.7925 36.1406C23.5368 35.9915 23.3367 35.7749 23.1923 35.4908C23.0635 35.231 22.9931 34.9197 22.9811 34.5568H26.9423V34.2017C26.9423 33.6927 26.8748 33.2642 26.7399 32.9162C26.605 32.5682 26.4239 32.2888 26.1966 32.0781C25.9693 31.8651 25.7172 31.7112 25.4402 31.6165C25.1632 31.5218 24.8827 31.4744 24.5986 31.4744C24.1061 31.4744 23.6753 31.5952 23.306 31.8366C22.939 32.0758 22.6525 32.4096 22.4466 32.8381C22.243 33.2642 22.1412 33.7566 22.1412 34.3153C22.1412 34.8741 22.243 35.3641 22.4466 35.7855C22.6525 36.2045 22.9449 36.5312 23.3237 36.7656ZM22.9832 33.8324C22.9992 33.5794 23.063 33.3403 23.1746 33.1151C23.3048 32.8523 23.4906 32.6392 23.7321 32.4759C23.9759 32.3101 24.2648 32.2273 24.5986 32.2273C24.9016 32.2273 25.1644 32.2971 25.3869 32.4368C25.6118 32.5765 25.7846 32.767 25.9054 33.0085C26.0285 33.25 26.09 33.5246 26.09 33.8324H22.9832Z" fill="#CFD1DE"/>
</svg>
