<svg width="24" height="37" viewBox="0 0 24 37" fill="none" xmlns="http://www.w3.org/2000/svg">
<path fill-rule="evenodd" clip-rule="evenodd" d="M7.18225 6.07954C7.18225 2.72837 9.89891 0.0117188 13.2501 0.0117188C16.6012 0.0117188 19.3179 2.72837 19.3179 6.07954C19.3179 9.4307 16.6012 12.1474 13.2501 12.1474C9.89891 12.1474 7.18225 9.4307 7.18225 6.07954ZM13.2501 2.03432C11.016 2.03432 9.20486 3.84543 9.20486 6.07954C9.20486 8.31364 11.016 10.1247 13.2501 10.1247C15.4842 10.1247 17.2953 8.31364 17.2953 6.07954C17.2953 3.84543 15.4842 2.03432 13.2501 2.03432Z" fill="#CFD1DE"/>
<path d="M13.2501 16.6982C10.8388 16.6982 8.55474 17.2365 6.99829 17.7185C6.12155 17.9901 5.47653 18.7845 5.31875 19.7988L5.14763 20.8989C5.06178 21.4508 4.54479 21.8286 3.9929 21.7427C3.44101 21.6569 3.06321 21.1399 3.14906 20.588L3.32019 19.4879C3.57957 17.8204 4.68414 16.3179 6.39989 15.7865C8.06297 15.2714 10.5613 14.6756 13.2501 14.6756C15.9388 14.6756 18.4372 15.2714 20.1003 15.7865C21.816 16.3179 22.9206 17.8204 23.18 19.4879L23.3511 20.588C23.4369 21.1399 23.0591 21.6569 22.5072 21.7427C21.9553 21.8286 21.4384 21.4508 21.3525 20.8989L21.1814 19.7988C21.0236 18.7845 20.3786 17.9901 19.5018 17.7185C17.9454 17.2365 15.6613 16.6982 13.2501 16.6982Z" fill="#CFD1DE"/>
<path fill-rule="evenodd" clip-rule="evenodd" d="M0.870117 28.7277V36.0004H1.7508V33.3442H3.34171C3.90752 33.3442 4.37154 33.2412 4.73375 33.0352C5.09597 32.8269 5.36349 32.5475 5.53631 32.1971C5.7115 31.8468 5.79909 31.4573 5.79909 31.0288C5.79909 30.6003 5.7115 30.2121 5.53631 29.8641C5.36112 29.516 5.09123 29.2402 4.72665 29.0366C4.36444 28.8307 3.89805 28.7277 3.3275 28.7277H0.870117ZM1.7508 32.5629H3.3133C3.70392 32.5629 4.01761 32.4954 4.25435 32.3605C4.49109 32.2256 4.66273 32.0433 4.76927 31.8136C4.87817 31.5816 4.93262 31.32 4.93262 31.0288C4.93262 30.7376 4.87817 30.4772 4.76927 30.2476C4.66273 30.0179 4.48991 29.838 4.2508 29.7078C4.01169 29.5752 3.69445 29.5089 3.29909 29.5089H1.7508V32.5629Z" fill="#CFD1DE"/>
<path fill-rule="evenodd" clip-rule="evenodd" d="M7.97239 35.766C8.35355 35.998 8.80691 36.1141 9.33248 36.1141C9.70179 36.1141 10.0344 36.0572 10.3303 35.9436C10.6263 35.8276 10.8749 35.6666 11.0761 35.4606C11.2773 35.2523 11.4205 35.0108 11.5058 34.7362L10.6961 34.5089C10.6251 34.6983 10.5245 34.8569 10.3943 34.9848C10.2641 35.1103 10.109 35.205 9.92907 35.2689C9.75151 35.3304 9.55265 35.3612 9.33248 35.3612C8.99393 35.3612 8.69682 35.2878 8.44114 35.141C8.18546 34.9919 7.98541 34.7753 7.841 34.4912C7.7122 34.2314 7.6418 33.9201 7.62978 33.5572H11.591V33.2021C11.591 32.6931 11.5235 32.2646 11.3886 31.9166C11.2536 31.5686 11.0725 31.2892 10.8453 31.0785C10.618 30.8655 10.3659 30.7116 10.0889 30.6169C9.81188 30.5222 9.53134 30.4748 9.24725 30.4748C8.75482 30.4748 8.32395 30.5956 7.95463 30.8371C7.58768 31.0762 7.30123 31.41 7.09526 31.8385C6.89166 32.2646 6.78986 32.757 6.78986 33.3158C6.78986 33.8745 6.89166 34.3645 7.09526 34.7859C7.30123 35.205 7.5936 35.5317 7.97239 35.766ZM7.63192 32.8328C7.64788 32.5798 7.71166 32.3407 7.82324 32.1155C7.95345 31.8527 8.13929 31.6396 8.38077 31.4763C8.62462 31.3105 8.91344 31.2277 9.24725 31.2277C9.55028 31.2277 9.81306 31.2975 10.0356 31.4372C10.2605 31.5769 10.4333 31.7675 10.5541 32.0089C10.6772 32.2504 10.7387 32.525 10.7387 32.8328H7.63192Z" fill="#CFD1DE"/>
<path d="M12.8659 30.5459V36.0004H13.7039V32.5487C13.7039 32.3025 13.7631 32.0835 13.8815 31.8918C14.0022 31.6976 14.1656 31.5461 14.3715 31.4372C14.5799 31.3259 14.8166 31.2703 15.0818 31.2703C15.193 31.2703 15.2984 31.2786 15.3978 31.2952C15.4996 31.3094 15.5647 31.32 15.5931 31.3271V30.4748C15.5458 30.4701 15.4759 30.4666 15.3836 30.4642C15.2913 30.4618 15.2143 30.4606 15.1528 30.4606C14.8261 30.4606 14.5325 30.5447 14.2721 30.7128C14.0117 30.8809 13.8318 31.0998 13.7323 31.3697H13.6755V30.5459H12.8659Z" fill="#CFD1DE"/>
<path d="M19.3573 31.2561V30.5459H18.1357V29.9919C18.1357 29.722 18.1961 29.5172 18.3169 29.3775C18.44 29.2379 18.64 29.168 18.917 29.168C19.0377 29.168 19.1348 29.1787 19.2082 29.2C19.2839 29.2213 19.3431 29.2391 19.3857 29.2533L19.6272 28.5288C19.5633 28.5004 19.4662 28.4696 19.336 28.4365C19.2058 28.4034 19.0377 28.3868 18.8318 28.3868C18.5713 28.3868 18.324 28.4389 18.0896 28.543C17.8552 28.6472 17.6646 28.8034 17.5178 29.0118C17.3711 29.2201 17.2977 29.4805 17.2977 29.793V30.5459H16.417V31.2561H17.2977V36.0004H18.1357V31.2561H19.3573Z" fill="#CFD1DE"/>
<path d="M20.5319 30.5459V36.0004H21.3699V30.5459H20.5319Z" fill="#CFD1DE"/>
<path d="M20.5354 29.4699C20.6538 29.5811 20.7947 29.6368 20.958 29.6368C21.1214 29.6368 21.261 29.5811 21.377 29.4699C21.4954 29.3586 21.5546 29.2248 21.5546 29.0686C21.5546 28.9123 21.4954 28.7786 21.377 28.6673C21.261 28.556 21.1214 28.5004 20.958 28.5004C20.7947 28.5004 20.6538 28.556 20.5354 28.6673C20.4194 28.7786 20.3614 28.9123 20.3614 29.0686C20.3614 29.2248 20.4194 29.3586 20.5354 29.4699Z" fill="#CFD1DE"/>
<path d="M23.743 36.0004V28.7277H22.9049V36.0004H23.743Z" fill="#CFD1DE"/>
</svg>
