<svg width="38" height="36" viewBox="0 0 38 36" fill="none" xmlns="http://www.w3.org/2000/svg">
<path fill-rule="evenodd" clip-rule="evenodd" d="M10.7799 0.535156C8.5487 0.535156 6.73993 2.34392 6.73993 4.57516V18.7412C6.73993 20.9724 8.5487 22.7812 10.7799 22.7812H26.9033C29.1346 22.7812 30.9433 20.9724 30.9433 18.7412V8.52585C30.9433 6.29462 29.1346 4.48585 26.9033 4.48585H10.254C9.69631 4.48585 9.24423 4.03378 9.24423 3.47611C9.24423 3.41056 9.23799 3.34646 9.22606 3.28439C9.59659 2.83882 10.1551 2.55516 10.7799 2.55516H27.9373C28.4951 2.55516 28.9473 2.10296 28.9473 1.54516C28.9473 0.987349 28.4951 0.535156 27.9373 0.535156H10.7799ZM8.75993 18.7412V6.11247C9.20083 6.36286 9.7107 6.50585 10.254 6.50585H26.9033C28.019 6.50585 28.9233 7.41024 28.9233 8.52585V18.7412C28.9233 19.8568 28.019 20.7612 26.9033 20.7612H10.7799C9.66432 20.7612 8.75993 19.8568 8.75993 18.7412Z" fill="#CFD1DE"/>
<path fill-rule="evenodd" clip-rule="evenodd" d="M0.625732 28.2275V35.5002H3.25357C3.82649 35.5002 4.29169 35.415 4.64917 35.2446C5.00665 35.0741 5.26825 34.8433 5.43397 34.5521C5.59969 34.2609 5.68255 33.933 5.68255 33.5684C5.68255 33.1849 5.60679 32.8606 5.45528 32.5954C5.30376 32.3303 5.11555 32.1267 4.89065 31.9846C4.66574 31.8426 4.44202 31.7644 4.21948 31.7502V31.6792C4.42782 31.6224 4.62076 31.5348 4.79832 31.4164C4.97824 31.2981 5.12265 31.1371 5.23156 30.9335C5.34283 30.7299 5.39846 30.4718 5.39846 30.1593C5.39846 29.8042 5.31797 29.4811 5.15698 29.1899C4.996 28.8963 4.75097 28.6631 4.4219 28.4903C4.09283 28.3151 3.67497 28.2275 3.16835 28.2275H0.625732ZM3.25357 34.719H1.50641V32.1906H3.29619C3.61342 32.1906 3.88804 32.2545 4.12005 32.3823C4.35206 32.5078 4.5308 32.6759 4.65627 32.8866C4.78175 33.0949 4.84448 33.3222 4.84448 33.5684C4.84448 33.888 4.72256 34.1603 4.47872 34.3852C4.23724 34.6077 3.82886 34.719 3.25357 34.719ZM3.13994 31.4235H1.50641V29.0088H3.16835C3.6513 29.0088 4.00405 29.1212 4.22658 29.3461C4.44912 29.5687 4.56039 29.8397 4.56039 30.1593C4.56039 30.415 4.49647 30.6375 4.36863 30.8269C4.24316 31.0163 4.0727 31.1631 3.85727 31.2673C3.6442 31.3714 3.40509 31.4235 3.13994 31.4235Z" fill="#CFD1DE"/>
<path d="M7.016 30.0457V35.5002H7.85407V30.0457H7.016Z" fill="#CFD1DE"/>
<path d="M7.01955 28.9697C7.13792 29.081 7.27879 29.1366 7.44214 29.1366C7.60549 29.1366 7.74517 29.081 7.86117 28.9697C7.97954 28.8584 8.03873 28.7247 8.03873 28.5684C8.03873 28.4122 7.97954 28.2784 7.86117 28.1671C7.74517 28.0559 7.60549 28.0002 7.44214 28.0002C7.27879 28.0002 7.13792 28.0559 7.01955 28.1671C6.90355 28.2784 6.84555 28.4122 6.84555 28.5684C6.84555 28.7247 6.90355 28.8584 7.01955 28.9697Z" fill="#CFD1DE"/>
<path d="M10.2271 35.5002V28.2275H9.38905V35.5002H10.2271Z" fill="#CFD1DE"/>
<path d="M12.6002 35.5002V28.2275H11.7621V35.5002H12.6002Z" fill="#CFD1DE"/>
<path fill-rule="evenodd" clip-rule="evenodd" d="M15.062 35.2659C15.4431 35.4979 15.8965 35.6139 16.4221 35.6139C16.7914 35.6139 17.124 35.5571 17.4199 35.4434C17.7159 35.3274 17.9645 35.1664 18.1657 34.9605C18.3669 34.7521 18.5101 34.5107 18.5954 34.236L17.7857 34.0088C17.7147 34.1982 17.6141 34.3568 17.4839 34.4846C17.3537 34.6101 17.1986 34.7048 17.0187 34.7687C16.8411 34.8303 16.6422 34.861 16.4221 34.861C16.0835 34.861 15.7864 34.7876 15.5307 34.6409C15.2751 34.4917 15.075 34.2751 14.9306 33.991C14.8018 33.7313 14.7314 33.4199 14.7194 33.0571H18.6806V32.7019C18.6806 32.1929 18.6131 31.7644 18.4782 31.4164C18.3432 31.0684 18.1621 30.7891 17.9349 30.5784C17.7076 30.3653 17.4555 30.2114 17.1785 30.1167C16.9015 30.022 16.6209 29.9747 16.3368 29.9747C15.8444 29.9747 15.4136 30.0954 15.0442 30.3369C14.6773 30.576 14.3908 30.9098 14.1849 31.3383C13.9813 31.7644 13.8795 32.2569 13.8795 32.8156C13.8795 33.3743 13.9813 33.8643 14.1849 34.2857C14.3908 34.7048 14.6832 35.0315 15.062 35.2659ZM14.7215 32.3326C14.7375 32.0796 14.8013 31.8405 14.9128 31.6153C15.043 31.3525 15.2289 31.1394 15.4704 30.9761C15.7142 30.8104 16.003 30.7275 16.3368 30.7275C16.6399 30.7275 16.9027 30.7973 17.1252 30.937C17.3501 31.0767 17.5229 31.2673 17.6437 31.5088C17.7668 31.7502 17.8283 32.0249 17.8283 32.3326H14.7215Z" fill="#CFD1DE"/>
<path d="M22.3276 30.7559V30.0457H21.1628V28.7389H20.3248V30.0457H19.5009V30.7559H20.3248V34.165C20.3248 34.4822 20.3982 34.745 20.5449 34.9534C20.6941 35.1617 20.8811 35.3168 21.106 35.4186C21.3333 35.5204 21.5653 35.5713 21.802 35.5713C21.9583 35.5713 22.0873 35.5594 22.1891 35.5357C22.2909 35.5144 22.3702 35.4931 22.427 35.4718L22.2566 34.719L22.1145 34.7474C22.0554 34.7569 21.9796 34.7616 21.8873 34.7616C21.7642 34.7616 21.647 34.7427 21.5357 34.7048C21.4268 34.6645 21.3368 34.5864 21.2658 34.4704C21.1972 34.352 21.1628 34.1745 21.1628 33.9377V30.7559H22.3276Z" fill="#CFD1DE"/>
<path fill-rule="evenodd" clip-rule="evenodd" d="M24.4565 35.2659C24.8377 35.4979 25.291 35.6139 25.8166 35.6139C26.1859 35.6139 26.5185 35.5571 26.8145 35.4434C27.1104 35.3274 27.359 35.1664 27.5602 34.9605C27.7614 34.7521 27.9047 34.5107 27.9899 34.236L27.1802 34.0088C27.1092 34.1982 27.0086 34.3568 26.8784 34.4846C26.7482 34.6101 26.5931 34.7048 26.4132 34.7687C26.2356 34.8303 26.0368 34.861 25.8166 34.861C25.4781 34.861 25.181 34.7876 24.9253 34.6409C24.6696 34.4917 24.4695 34.2751 24.3251 33.991C24.1963 33.7313 24.1259 33.4199 24.1139 33.0571H28.0751V32.7019C28.0751 32.1929 28.0077 31.7644 27.8727 31.4164C27.7378 31.0684 27.5567 30.7891 27.3294 30.5784C27.1021 30.3653 26.85 30.2114 26.573 30.1167C26.296 30.022 26.0155 29.9747 25.7314 29.9747C25.239 29.9747 24.8081 30.0954 24.4388 30.3369C24.0718 30.576 23.7854 30.9098 23.5794 31.3383C23.3758 31.7644 23.274 32.2569 23.274 32.8156C23.274 33.3743 23.3758 33.8643 23.5794 34.2857C23.7854 34.7048 24.0777 35.0315 24.4565 35.2659ZM24.1161 32.3326C24.132 32.0796 24.1958 31.8405 24.3074 31.6153C24.4376 31.3525 24.6234 31.1394 24.8649 30.9761C25.1087 30.8104 25.3976 30.7275 25.7314 30.7275C26.0344 30.7275 26.2972 30.7973 26.5197 30.937C26.7446 31.0767 26.9175 31.2673 27.0382 31.5088C27.1613 31.7502 27.2229 32.0249 27.2229 32.3326H24.1161Z" fill="#CFD1DE"/>
<path d="M29.35 30.0457V35.5002H30.1881V32.0485C30.1881 31.8023 30.2472 31.5833 30.3656 31.3916C30.4864 31.1974 30.6497 31.0459 30.8557 30.937C31.064 30.8258 31.3007 30.7701 31.5659 30.7701C31.6772 30.7701 31.7825 30.7784 31.8819 30.795C31.9837 30.8092 32.0489 30.8198 32.0773 30.8269V29.9747C32.0299 29.9699 31.9601 29.9664 31.8677 29.964C31.7754 29.9616 31.6985 29.9605 31.6369 29.9605C31.3102 29.9605 31.0167 30.0445 30.7562 30.2126C30.4958 30.3807 30.3159 30.5997 30.2165 30.8696H30.1596V30.0457H29.35Z" fill="#CFD1DE"/>
<path fill-rule="evenodd" clip-rule="evenodd" d="M33.7348 35.4328C34.0165 35.563 34.3302 35.6281 34.6758 35.6281C34.993 35.6281 35.2617 35.5807 35.4819 35.486C35.7021 35.3913 35.8785 35.2765 36.011 35.1416C36.1436 35.0066 36.2383 34.88 36.2951 34.7616H36.3377V35.5002H37.1758V31.9065C37.1758 31.4732 37.1048 31.1276 36.9627 30.8696C36.8207 30.6115 36.642 30.4186 36.4265 30.2907C36.2134 30.1629 35.9921 30.0788 35.7625 30.0386C35.5352 29.996 35.334 29.9747 35.1588 29.9747C34.8841 29.9747 34.6048 30.0125 34.3207 30.0883C34.039 30.1617 33.7786 30.2919 33.5394 30.4789C33.3027 30.6636 33.1133 30.9216 32.9713 31.2531L33.7667 31.5372C33.859 31.3383 34.0188 31.1513 34.2461 30.9761C34.4734 30.8009 34.7871 30.7133 35.1872 30.7133C35.5731 30.7133 35.8607 30.8104 36.0501 31.0045C36.2419 31.1986 36.3377 31.4709 36.3377 31.8213V31.8497C36.3377 31.9846 36.2892 32.0793 36.1921 32.1338C36.0974 32.1882 35.9459 32.2273 35.7376 32.2509C35.5316 32.2723 35.2629 32.3042 34.9315 32.3468C34.6782 32.38 34.426 32.4249 34.1751 32.4818C33.9265 32.5362 33.6992 32.6191 33.4933 32.7303C33.2873 32.8416 33.1228 32.9955 32.9997 33.192C32.8766 33.3861 32.815 33.6394 32.815 33.9519C32.815 34.3071 32.8979 34.6101 33.0636 34.861C33.2293 35.1096 33.453 35.3002 33.7348 35.4328ZM35.6417 34.6799C35.4144 34.8101 35.1351 34.8752 34.8036 34.8752C34.4698 34.8752 34.194 34.8018 33.9762 34.6551C33.7608 34.5059 33.6531 34.2857 33.6531 33.9946C33.6531 33.7815 33.7099 33.6134 33.8235 33.4903C33.9395 33.3648 34.0911 33.2713 34.2781 33.2098C34.4675 33.1458 34.6711 33.0997 34.8889 33.0713C34.9788 33.0594 35.096 33.0452 35.2404 33.0286C35.3872 33.0097 35.5375 32.9884 35.6914 32.9647C35.8477 32.9387 35.985 32.9091 36.1034 32.8759C36.2241 32.8404 36.3022 32.8014 36.3377 32.7588V33.5258C36.3377 33.7531 36.2786 33.9697 36.1602 34.1757C36.0442 34.3816 35.8714 34.5497 35.6417 34.6799Z" fill="#CFD1DE"/>
</svg>
