<svg width="38" height="36" viewBox="0 0 38 36" fill="none" xmlns="http://www.w3.org/2000/svg">
<path fill-rule="evenodd" clip-rule="evenodd" d="M11.1122 0.0351562C8.88098 0.0351562 7.07221 1.84392 7.07221 4.07516V18.2412C7.07221 20.4724 8.88098 22.2812 11.1122 22.2812H27.2356C29.4669 22.2812 31.2756 20.4724 31.2756 18.2412V8.02585C31.2756 5.79462 29.4669 3.98585 27.2356 3.98585H10.5862C10.0286 3.98585 9.57651 3.53378 9.57651 2.97611C9.57651 2.91056 9.57026 2.84646 9.55833 2.78439C9.92887 2.33882 10.4874 2.05516 11.1122 2.05516H28.2695C28.8273 2.05516 29.2795 1.60296 29.2795 1.04516C29.2795 0.487349 28.8273 0.0351562 28.2695 0.0351562H11.1122ZM9.09221 18.2412V5.61247C9.5331 5.86286 10.043 6.00585 10.5862 6.00585H27.2356C28.3512 6.00585 29.2556 6.91024 29.2556 8.02585V18.2412C29.2556 19.3568 28.3512 20.2612 27.2356 20.2612H11.1122C9.99659 20.2612 9.09221 19.3568 9.09221 18.2412Z" fill="#CFD1DE"/>
<path fill-rule="evenodd" clip-rule="evenodd" d="M0.958008 27.7275V35.0002H3.58585C4.15877 35.0002 4.62396 34.915 4.98145 34.7446C5.33893 34.5741 5.60053 34.3433 5.76625 34.0521C5.93197 33.7609 6.01483 33.433 6.01483 33.0684C6.01483 32.6849 5.93907 32.3606 5.78755 32.0954C5.63604 31.8303 5.44783 31.6267 5.22292 31.4846C4.99802 31.3426 4.7743 31.2644 4.55176 31.2502V31.1792C4.76009 31.1224 4.95304 31.0348 5.13059 30.9164C5.31052 30.7981 5.45493 30.6371 5.56383 30.4335C5.6751 30.2299 5.73074 29.9718 5.73074 29.6593C5.73074 29.3042 5.65024 28.9811 5.48926 28.6899C5.32827 28.3963 5.08324 28.1631 4.75417 27.9903C4.4251 27.8151 4.00725 27.7275 3.50062 27.7275H0.958008ZM3.58585 34.219H1.83869V31.6906H3.62846C3.9457 31.6906 4.22032 31.7545 4.45233 31.8823C4.68433 32.0078 4.86307 32.1759 4.98855 32.3866C5.11402 32.5949 5.17676 32.8222 5.17676 33.0684C5.17676 33.388 5.05484 33.6603 4.81099 33.8852C4.56951 34.1077 4.16113 34.219 3.58585 34.219ZM3.47221 30.9235H1.83869V28.5088H3.50062C3.98358 28.5088 4.33632 28.6212 4.55886 28.8461C4.7814 29.0687 4.89267 29.3397 4.89267 29.6593C4.89267 29.915 4.82875 30.1375 4.70091 30.3269C4.57543 30.5163 4.40498 30.6631 4.18954 30.7673C3.97647 30.8714 3.73736 30.9235 3.47221 30.9235Z" fill="#CFD1DE"/>
<path d="M7.34828 29.5457V35.0002H8.18635V29.5457H7.34828Z" fill="#CFD1DE"/>
<path d="M7.35183 28.4697C7.4702 28.581 7.61106 28.6366 7.77441 28.6366C7.93777 28.6366 8.07744 28.581 8.19345 28.4697C8.31182 28.3584 8.37101 28.2247 8.37101 28.0684C8.37101 27.9122 8.31182 27.7784 8.19345 27.6671C8.07744 27.5559 7.93777 27.5002 7.77441 27.5002C7.61106 27.5002 7.4702 27.5559 7.35183 27.6671C7.23583 27.7784 7.17782 27.9122 7.17782 28.0684C7.17782 28.2247 7.23583 28.3584 7.35183 28.4697Z" fill="#CFD1DE"/>
<path d="M10.5594 35.0002V27.7275H9.72132V35.0002H10.5594Z" fill="#CFD1DE"/>
<path d="M12.9324 35.0002V27.7275H12.0944V35.0002H12.9324Z" fill="#CFD1DE"/>
<path fill-rule="evenodd" clip-rule="evenodd" d="M15.3943 34.7659C15.7754 34.9979 16.2288 35.1139 16.7544 35.1139C17.1237 35.1139 17.4563 35.0571 17.7522 34.9434C18.0481 34.8274 18.2967 34.6664 18.498 34.4605C18.6992 34.2521 18.8424 34.0107 18.9276 33.736L18.118 33.5088C18.047 33.6982 17.9463 33.8568 17.8161 33.9846C17.6859 34.1101 17.5309 34.2048 17.3509 34.2687C17.1734 34.3303 16.9745 34.361 16.7544 34.361C16.4158 34.361 16.1187 34.2876 15.863 34.1409C15.6073 33.9917 15.4073 33.7751 15.2629 33.491C15.1341 33.2313 15.0637 32.9199 15.0517 32.5571H19.0129V32.2019C19.0129 31.6929 18.9454 31.2644 18.8105 30.9164C18.6755 30.5684 18.4944 30.2891 18.2671 30.0784C18.0399 29.8653 17.7877 29.7114 17.5107 29.6167C17.2338 29.522 16.9532 29.4747 16.6691 29.4747C16.1767 29.4747 15.7458 29.5954 15.3765 29.8369C15.0096 30.076 14.7231 30.4098 14.5171 30.8383C14.3135 31.2644 14.2117 31.7569 14.2117 32.3156C14.2117 32.8743 14.3135 33.3643 14.5171 33.7857C14.7231 34.2048 15.0155 34.5315 15.3943 34.7659ZM15.0538 31.8326C15.0698 31.5796 15.1335 31.3405 15.2451 31.1153C15.3753 30.8525 15.5612 30.6394 15.8026 30.4761C16.0465 30.3104 16.3353 30.2275 16.6691 30.2275C16.9722 30.2275 17.2349 30.2973 17.4575 30.437C17.6824 30.5767 17.8552 30.7673 17.9759 31.0088C18.099 31.2502 18.1606 31.5249 18.1606 31.8326H15.0538Z" fill="#CFD1DE"/>
<path d="M22.6599 30.2559V29.5457H21.4951V28.2389H20.657V29.5457H19.8332V30.2559H20.657V33.665C20.657 33.9822 20.7304 34.245 20.8772 34.4534C21.0264 34.6617 21.2134 34.8168 21.4383 34.9186C21.6656 35.0204 21.8976 35.0713 22.1343 35.0713C22.2906 35.0713 22.4196 35.0594 22.5214 35.0357C22.6232 35.0144 22.7025 34.9931 22.7593 34.9718L22.5889 34.219L22.4468 34.2474C22.3876 34.2569 22.3119 34.2616 22.2195 34.2616C22.0964 34.2616 21.9793 34.2427 21.868 34.2048C21.7591 34.1645 21.6691 34.0864 21.5981 33.9704C21.5294 33.852 21.4951 33.6745 21.4951 33.4377V30.2559H22.6599Z" fill="#CFD1DE"/>
<path fill-rule="evenodd" clip-rule="evenodd" d="M24.7888 34.7659C25.17 34.9979 25.6233 35.1139 26.1489 35.1139C26.5182 35.1139 26.8508 35.0571 27.1468 34.9434C27.4427 34.8274 27.6913 34.6664 27.8925 34.4605C28.0937 34.2521 28.2369 34.0107 28.3222 33.736L27.5125 33.5088C27.4415 33.6982 27.3409 33.8568 27.2107 33.9846C27.0805 34.1101 26.9254 34.2048 26.7455 34.2687C26.5679 34.3303 26.3691 34.361 26.1489 34.361C25.8103 34.361 25.5132 34.2876 25.2575 34.1409C25.0019 33.9917 24.8018 33.7751 24.6574 33.491C24.5286 33.2313 24.4582 32.9199 24.4462 32.5571H28.4074V32.2019C28.4074 31.6929 28.3399 31.2644 28.205 30.9164C28.07 30.5684 27.8889 30.2891 27.6617 30.0784C27.4344 29.8653 27.1823 29.7114 26.9053 29.6167C26.6283 29.522 26.3477 29.4747 26.0637 29.4747C25.5712 29.4747 25.1404 29.5954 24.771 29.8369C24.4041 30.076 24.1176 30.4098 23.9117 30.8383C23.7081 31.2644 23.6063 31.7569 23.6063 32.3156C23.6063 32.8743 23.7081 33.3643 23.9117 33.7857C24.1176 34.2048 24.41 34.5315 24.7888 34.7659ZM24.4483 31.8326C24.4643 31.5796 24.5281 31.3405 24.6396 31.1153C24.7699 30.8525 24.9557 30.6394 25.1972 30.4761C25.441 30.3104 25.7298 30.2275 26.0637 30.2275C26.3667 30.2275 26.6295 30.2973 26.852 30.437C27.0769 30.5767 27.2497 30.7673 27.3705 31.0088C27.4936 31.2502 27.5551 31.5249 27.5551 31.8326H24.4483Z" fill="#CFD1DE"/>
<path d="M29.6823 29.5457V35.0002H30.5203V31.5485C30.5203 31.3023 30.5795 31.0833 30.6979 30.8916C30.8186 30.6974 30.982 30.5459 31.1879 30.437C31.3963 30.3258 31.633 30.2701 31.8982 30.2701C32.0094 30.2701 32.1148 30.2784 32.2142 30.295C32.316 30.3092 32.3811 30.3198 32.4095 30.3269V29.4747C32.3622 29.4699 32.2923 29.4664 32.2 29.464C32.1077 29.4616 32.0307 29.4605 31.9692 29.4605C31.6425 29.4605 31.3489 29.5445 31.0885 29.7126C30.8281 29.8807 30.6482 30.0997 30.5487 30.3696H30.4919V29.5457H29.6823Z" fill="#CFD1DE"/>
<path fill-rule="evenodd" clip-rule="evenodd" d="M34.067 34.9328C34.3488 35.063 34.6624 35.1281 35.0081 35.1281C35.3253 35.1281 35.594 35.0807 35.8142 34.986C36.0344 34.8913 36.2107 34.7765 36.3433 34.6416C36.4759 34.5066 36.5706 34.38 36.6274 34.2616H36.67V35.0002H37.5081V31.4065C37.5081 30.9732 37.4371 30.6276 37.295 30.3696C37.153 30.1115 36.9742 29.9186 36.7588 29.7907C36.5457 29.6629 36.3244 29.5788 36.0947 29.5386C35.8675 29.496 35.6662 29.4747 35.491 29.4747C35.2164 29.4747 34.9371 29.5125 34.653 29.5883C34.3712 29.6617 34.1108 29.7919 33.8717 29.9789C33.635 30.1636 33.4456 30.4216 33.3035 30.7531L34.099 31.0372C34.1913 30.8383 34.3511 30.6513 34.5784 30.4761C34.8057 30.3009 35.1194 30.2133 35.5194 30.2133C35.9053 30.2133 36.193 30.3104 36.3824 30.5045C36.5741 30.6986 36.67 30.9709 36.67 31.3213V31.3497C36.67 31.4846 36.6215 31.5793 36.5244 31.6338C36.4297 31.6882 36.2782 31.7273 36.0699 31.7509C35.8639 31.7723 35.5952 31.8042 35.2638 31.8468C35.0104 31.88 34.7583 31.9249 34.5074 31.9818C34.2588 32.0362 34.0315 32.1191 33.8256 32.2303C33.6196 32.3416 33.4551 32.4955 33.3319 32.692C33.2088 32.8861 33.1473 33.1394 33.1473 33.4519C33.1473 33.8071 33.2301 34.1101 33.3959 34.361C33.5616 34.6096 33.7853 34.8002 34.067 34.9328ZM35.974 34.1799C35.7467 34.3101 35.4674 34.3752 35.1359 34.3752C34.8021 34.3752 34.5263 34.3018 34.3085 34.1551C34.0931 34.0059 33.9854 33.7857 33.9854 33.4946C33.9854 33.2815 34.0422 33.1134 34.1558 32.9903C34.2718 32.8648 34.4233 32.7713 34.6104 32.7098C34.7997 32.6458 35.0033 32.5997 35.2211 32.5713C35.3111 32.5594 35.4283 32.5452 35.5727 32.5286C35.7195 32.5097 35.8698 32.4884 36.0237 32.4647C36.18 32.4387 36.3173 32.4091 36.4356 32.3759C36.5564 32.3404 36.6345 32.3014 36.67 32.2588V33.0258C36.67 33.2531 36.6108 33.4697 36.4925 33.6757C36.3765 33.8816 36.2036 34.0497 35.974 34.1799Z" fill="#CFD1DE"/>
</svg>
