<svg width="24" height="37" viewBox="0 0 24 37" fill="none" xmlns="http://www.w3.org/2000/svg">
<path fill-rule="evenodd" clip-rule="evenodd" d="M6.93225 6.7768C6.93225 3.42564 9.64891 0.708984 13.0001 0.708984C16.3512 0.708984 19.0679 3.42564 19.0679 6.7768C19.0679 10.128 16.3512 12.8446 13.0001 12.8446C9.64891 12.8446 6.93225 10.128 6.93225 6.7768ZM13.0001 2.73159C10.766 2.73159 8.95486 4.54269 8.95486 6.7768C8.95486 9.01091 10.766 10.822 13.0001 10.822C15.2342 10.822 17.0453 9.01091 17.0453 6.7768C17.0453 4.54269 15.2342 2.73159 13.0001 2.73159Z" fill="#CFD1DE"/>
<path d="M13.0001 17.3955C10.6004 17.3955 8.32656 17.9286 6.77044 18.4089C5.8797 18.6839 5.22516 19.4906 5.06497 20.5203L4.89763 21.5961C4.81178 22.148 4.29479 22.5258 3.7429 22.44C3.19101 22.3541 2.81321 21.8371 2.89906 21.2852L3.0664 20.2095C3.32809 18.5272 4.44204 17.0109 6.17385 16.4763C7.83671 15.963 10.3241 15.3729 13.0001 15.3729C15.6761 15.3729 18.1634 15.963 19.8263 16.4763C21.5581 17.0109 22.672 18.5272 22.9337 20.2095L23.1011 21.2852C23.1869 21.8371 22.8091 22.3541 22.2572 22.44C21.7053 22.5258 21.1884 22.148 21.1025 21.5961L20.9352 20.5203C20.775 19.4906 20.1204 18.6839 19.2297 18.4089C17.6736 17.9286 15.3998 17.3955 13.0001 17.3955Z" fill="#CFD1DE"/>
<path fill-rule="evenodd" clip-rule="evenodd" d="M0.620117 29.425V36.6977H1.5008V34.0414H3.09171C3.65752 34.0414 4.12154 33.9384 4.48375 33.7325C4.84597 33.5242 5.11349 33.2448 5.28631 32.8944C5.4615 32.544 5.54909 32.1546 5.54909 31.7261C5.54909 31.2976 5.4615 30.9093 5.28631 30.5613C5.11112 30.2133 4.84123 29.9375 4.47665 29.7339C4.11444 29.5279 3.64805 29.425 3.0775 29.425H0.620117ZM1.5008 33.2602H3.0633C3.45392 33.2602 3.76761 33.1927 4.00435 33.0578C4.24109 32.9228 4.41273 32.7405 4.51927 32.5109C4.62817 32.2789 4.68262 32.0173 4.68262 31.7261C4.68262 31.4349 4.62817 31.1745 4.51927 30.9448C4.41273 30.7152 4.23991 30.5353 4.0008 30.4051C3.76169 30.2725 3.44445 30.2062 3.04909 30.2062H1.5008V33.2602Z" fill="#CFD1DE"/>
<path fill-rule="evenodd" clip-rule="evenodd" d="M7.72239 36.4633C8.10355 36.6953 8.55691 36.8113 9.08248 36.8113C9.45179 36.8113 9.78442 36.7545 10.0803 36.6409C10.3763 36.5249 10.6249 36.3639 10.8261 36.1579C11.0273 35.9496 11.1705 35.7081 11.2558 35.4335L10.4461 35.2062C10.3751 35.3956 10.2745 35.5542 10.1443 35.6821C10.0141 35.8075 9.85899 35.9022 9.67907 35.9661C9.50151 36.0277 9.30265 36.0585 9.08248 36.0585C8.74393 36.0585 8.44682 35.9851 8.19114 35.8383C7.93546 35.6892 7.73541 35.4725 7.591 35.1884C7.4622 34.9287 7.3918 34.6174 7.37978 34.2545H11.341V33.8994C11.341 33.3904 11.2735 32.9619 11.1386 32.6139C11.0036 32.2659 10.8225 31.9865 10.5953 31.7758C10.368 31.5627 10.1159 31.4089 9.83887 31.3142C9.56188 31.2195 9.28134 31.1721 8.99725 31.1721C8.50482 31.1721 8.07395 31.2929 7.70463 31.5343C7.33768 31.7734 7.05123 32.1072 6.84526 32.5357C6.64166 32.9619 6.53986 33.4543 6.53986 34.013C6.53986 34.5717 6.64166 35.0618 6.84526 35.4832C7.05123 35.9022 7.3436 36.2289 7.72239 36.4633ZM7.38192 33.5301C7.39788 33.2771 7.46166 33.0379 7.57324 32.8127C7.70345 32.55 7.88929 32.3369 8.13077 32.1735C8.37462 32.0078 8.66344 31.925 8.99725 31.925C9.30028 31.925 9.56306 31.9948 9.7856 32.1345C10.0105 32.2741 10.1833 32.4647 10.3041 32.7062C10.4272 32.9477 10.4887 33.2223 10.4887 33.5301H7.38192Z" fill="#CFD1DE"/>
<path d="M12.6159 31.2431V36.6977H13.4539V33.246C13.4539 32.9998 13.5131 32.7808 13.6315 32.589C13.7522 32.3949 13.9156 32.2434 14.1215 32.1345C14.3299 32.0232 14.5666 31.9676 14.8318 31.9676C14.943 31.9676 15.0484 31.9759 15.1478 31.9924C15.2496 32.0066 15.3147 32.0173 15.3431 32.0244V31.1721C15.2958 31.1674 15.2259 31.1638 15.1336 31.1615C15.0413 31.1591 14.9643 31.1579 14.9028 31.1579C14.5761 31.1579 14.2825 31.242 14.0221 31.41C13.7617 31.5781 13.5818 31.7971 13.4823 32.067H13.4255V31.2431H12.6159Z" fill="#CFD1DE"/>
<path d="M19.1073 31.9534V31.2431H17.8857V30.6892C17.8857 30.4193 17.9461 30.2145 18.0669 30.0748C18.19 29.9351 18.39 29.8653 18.667 29.8653C18.7877 29.8653 18.8848 29.8759 18.9582 29.8973C19.0339 29.9186 19.0931 29.9363 19.1357 29.9505L19.3772 29.2261C19.3133 29.1977 19.2162 29.1669 19.086 29.1338C18.9558 29.1006 18.7877 29.084 18.5818 29.084C18.3213 29.084 18.074 29.1361 17.8396 29.2403C17.6052 29.3445 17.4146 29.5007 17.2678 29.709C17.1211 29.9174 17.0477 30.1778 17.0477 30.4903V31.2431H16.167V31.9534H17.0477V36.6977H17.8857V31.9534H19.1073Z" fill="#CFD1DE"/>
<path d="M20.2819 31.2431V36.6977H21.1199V31.2431H20.2819Z" fill="#CFD1DE"/>
<path d="M20.2854 30.1671C20.4038 30.2784 20.5447 30.334 20.708 30.334C20.8714 30.334 21.011 30.2784 21.127 30.1671C21.2454 30.0559 21.3046 29.9221 21.3046 29.7659C21.3046 29.6096 21.2454 29.4759 21.127 29.3646C21.011 29.2533 20.8714 29.1977 20.708 29.1977C20.5447 29.1977 20.4038 29.2533 20.2854 29.3646C20.1694 29.4759 20.1114 29.6096 20.1114 29.7659C20.1114 29.9221 20.1694 30.0559 20.2854 30.1671Z" fill="#CFD1DE"/>
<path d="M23.493 36.6977V29.425H22.6549V36.6977H23.493Z" fill="#CFD1DE"/>
</svg>
