<svg width="47" height="40" viewBox="0 0 47 40" fill="none" xmlns="http://www.w3.org/2000/svg">
<path fill-rule="evenodd" clip-rule="evenodd" d="M29.2417 2.02261H29.0691C28.6526 0.844244 27.5288 0 26.2078 0H20.14C18.819 0 17.6952 0.844243 17.2787 2.02261H17.1061C14.872 2.02261 13.0609 3.8337 13.0609 6.06781V20.2261C13.0609 22.4602 14.872 24.2713 17.1061 24.2713H29.2417C31.4758 24.2713 33.2869 22.4602 33.2869 20.2261V6.06782C33.2869 3.83371 31.4758 2.02261 29.2417 2.02261ZM15.0835 6.06781C15.0835 4.95076 15.989 4.04521 17.1061 4.04521C17.1061 5.72079 18.4644 7.07912 20.14 7.07912H26.2078C27.8834 7.07912 29.2417 5.72079 29.2417 4.04521C30.3588 4.04521 31.2643 4.95076 31.2643 6.06782V20.2261C31.2643 21.3431 30.3588 22.2487 29.2417 22.2487H17.1061C15.989 22.2487 15.0835 21.3431 15.0835 20.2261V6.06781ZM20.14 2.02261C19.5815 2.02261 19.1287 2.47538 19.1287 3.03391V4.04521C19.1287 4.60374 19.5815 5.05651 20.14 5.05651H26.2078C26.7663 5.05651 27.2191 4.60374 27.2191 4.04521V3.03391C27.2191 2.47538 26.7663 2.02261 26.2078 2.02261H20.14Z" fill="#CFD1DE"/>
<path fill-rule="evenodd" clip-rule="evenodd" d="M0.446289 29.7273V37H1.32697V34.3438H2.91788C3.48369 34.3438 3.94771 34.2408 4.30993 34.0348C4.67214 33.8265 4.93966 33.5471 5.11248 33.1967C5.28767 32.8464 5.37527 32.4569 5.37527 32.0284C5.37527 31.5999 5.28767 31.2116 5.11248 30.8636C4.93729 30.5156 4.66741 30.2398 4.30282 30.0362C3.94061 29.8303 3.47422 29.7273 2.90368 29.7273H0.446289ZM1.32697 33.5625H2.88947C3.2801 33.5625 3.59378 33.495 3.83052 33.3601C4.06726 33.2251 4.2389 33.0429 4.34544 32.8132C4.45434 32.5812 4.50879 32.3196 4.50879 32.0284C4.50879 31.7372 4.45434 31.4768 4.34544 31.2472C4.2389 31.0175 4.06608 30.8376 3.82697 30.7074C3.58786 30.5748 3.27063 30.5085 2.87527 30.5085H1.32697V33.5625Z" fill="#CFD1DE"/>
<path d="M6.68031 31.5455V37H7.51838V33.5483C7.51838 33.3021 7.57756 33.0831 7.69593 32.8913C7.81667 32.6972 7.98002 32.5457 8.18599 32.4368C8.39432 32.3255 8.63107 32.2699 8.89622 32.2699C9.00749 32.2699 9.11284 32.2782 9.21227 32.2947C9.31407 32.3089 9.37917 32.3196 9.40758 32.3267V31.4744C9.36023 31.4697 9.29039 31.4661 9.19806 31.4638C9.10573 31.4614 9.02879 31.4602 8.96724 31.4602C8.64054 31.4602 8.34698 31.5443 8.08656 31.7124C7.82614 31.8804 7.64622 32.0994 7.54679 32.3693H7.48997V31.5455H6.68031Z" fill="#CFD1DE"/>
<path fill-rule="evenodd" clip-rule="evenodd" d="M11.1547 36.7621C11.5264 36.9964 11.9585 37.1136 12.4509 37.1136C12.9433 37.1136 13.3742 36.9964 13.7435 36.7621C14.1152 36.5277 14.404 36.1998 14.61 35.7784C14.8183 35.357 14.9225 34.8646 14.9225 34.3011C14.9225 33.733 14.8183 33.237 14.61 32.8132C14.404 32.3894 14.1152 32.0604 13.7435 31.826C13.3742 31.5916 12.9433 31.4744 12.4509 31.4744C11.9585 31.4744 11.5264 31.5916 11.1547 31.826C10.7854 32.0604 10.4966 32.3894 10.2883 32.8132C10.0823 33.237 9.97931 33.733 9.97931 34.3011C9.97931 34.8646 10.0823 35.357 10.2883 35.7784C10.4966 36.1998 10.7854 36.5277 11.1547 36.7621ZM13.3742 36.0732C13.1327 36.2649 12.825 36.3608 12.4509 36.3608C12.0769 36.3608 11.7691 36.2649 11.5276 36.0732C11.2861 35.8814 11.1074 35.6293 10.9914 35.3168C10.8754 35.0043 10.8174 34.6657 10.8174 34.3011C10.8174 33.9366 10.8754 33.5968 10.9914 33.282C11.1074 32.9671 11.2861 32.7126 11.5276 32.5185C11.7691 32.3243 12.0769 32.2273 12.4509 32.2273C12.825 32.2273 13.1327 32.3243 13.3742 32.5185C13.6157 32.7126 13.7944 32.9671 13.9104 33.282C14.0264 33.5968 14.0844 33.9366 14.0844 34.3011C14.0844 34.6657 14.0264 35.0043 13.9104 35.3168C13.7944 35.6293 13.6157 35.8814 13.3742 36.0732Z" fill="#CFD1DE"/>
<path d="M16.1663 39.0099C16.2776 39.0336 16.4042 39.0455 16.5463 39.0455C16.7996 39.0455 17.0268 39.0005 17.2281 38.9105C17.4317 38.8205 17.6104 38.6821 17.7643 38.495C17.9182 38.3104 18.0472 38.0772 18.1514 37.7955L20.4667 31.5455H19.5576L18.0519 35.892H17.9951L16.4894 31.5455H15.5803L17.5974 37.0284L17.4411 37.4545C17.3393 37.7315 17.2269 37.9316 17.1038 38.0547C16.983 38.1802 16.8445 38.25 16.6883 38.2642C16.532 38.2784 16.3521 38.2595 16.1485 38.2074L15.9355 38.946C15.9781 38.9673 16.055 38.9886 16.1663 39.0099Z" fill="#CFD1DE"/>
<path fill-rule="evenodd" clip-rule="evenodd" d="M22.3044 36.7656C22.6856 36.9976 23.1389 37.1136 23.6645 37.1136C24.0338 37.1136 24.3664 37.0568 24.6624 36.9432C24.9583 36.8272 25.2069 36.6662 25.4081 36.4602C25.6093 36.2519 25.7526 36.0104 25.8378 35.7358L25.0281 35.5085C24.9571 35.6979 24.8565 35.8565 24.7263 35.9844C24.5961 36.1098 24.441 36.2045 24.2611 36.2685C24.0835 36.33 23.8847 36.3608 23.6645 36.3608C23.326 36.3608 23.0289 36.2874 22.7732 36.1406C22.5175 35.9915 22.3174 35.7749 22.173 35.4908C22.0442 35.231 21.9738 34.9197 21.9618 34.5568H25.923V34.2017C25.923 33.6927 25.8556 33.2642 25.7206 32.9162C25.5857 32.5682 25.4046 32.2888 25.1773 32.0781C24.95 31.8651 24.6979 31.7112 24.4209 31.6165C24.1439 31.5218 23.8634 31.4744 23.5793 31.4744C23.0869 31.4744 22.656 31.5952 22.2867 31.8366C21.9197 32.0758 21.6333 32.4096 21.4273 32.8381C21.2237 33.2642 21.1219 33.7566 21.1219 34.3153C21.1219 34.8741 21.2237 35.3641 21.4273 35.7855C21.6333 36.2045 21.9256 36.5312 22.3044 36.7656ZM21.964 33.8324C21.9799 33.5794 22.0437 33.3403 22.1553 33.1151C22.2855 32.8523 22.4713 32.6392 22.7128 32.4759C22.9566 32.3101 23.2455 32.2273 23.5793 32.2273C23.8823 32.2273 24.1451 32.2971 24.3676 32.4368C24.5925 32.5765 24.7654 32.767 24.8861 33.0085C25.0092 33.25 25.0708 33.5246 25.0708 33.8324H21.964Z" fill="#CFD1DE"/>
<path d="M28.0928 36.7514C28.4621 36.9929 28.9024 37.1136 29.4138 37.1136C29.8163 37.1136 30.169 37.0391 30.472 36.8899C30.7774 36.7384 31.0225 36.5348 31.2071 36.2791C31.3941 36.0211 31.5113 35.7311 31.5587 35.4091H30.7206C30.6685 35.608 30.5809 35.7784 30.4578 35.9205C30.3347 36.0625 30.1844 36.1714 30.0068 36.2472C29.8293 36.3229 29.6316 36.3608 29.4138 36.3608C29.0824 36.3608 28.7935 36.2744 28.5473 36.1016C28.3035 35.9287 28.1141 35.6861 27.9791 35.3736C27.8466 35.0611 27.7803 34.6941 27.7803 34.2727C27.7803 33.8608 27.8477 33.5021 27.9827 33.1967C28.12 32.889 28.3106 32.651 28.5544 32.483C28.8006 32.3125 29.0871 32.2273 29.4138 32.2273C29.7831 32.2273 30.0767 32.3243 30.2945 32.5185C30.5146 32.7102 30.6567 32.9304 30.7206 33.179H31.5587C31.5113 32.8381 31.3894 32.5398 31.1929 32.2841C30.9964 32.0284 30.7443 31.8295 30.4365 31.6875C30.1288 31.5455 29.7831 31.4744 29.3996 31.4744C28.9072 31.4744 28.4763 31.5952 28.107 31.8366C27.74 32.0758 27.4536 32.4084 27.2476 32.8345C27.044 33.2583 26.9422 33.7472 26.9422 34.3011C26.9422 34.8456 27.0416 35.3298 27.2405 35.7536C27.4394 36.1773 27.7235 36.5099 28.0928 36.7514Z" fill="#CFD1DE"/>
<path d="M35.156 32.2557V31.5455H33.9912V30.2386H33.1531V31.5455H32.3293V32.2557H33.1531V35.6648C33.1531 35.982 33.2265 36.2448 33.3733 36.4531C33.5225 36.6615 33.7095 36.8165 33.9344 36.9183C34.1617 37.0201 34.3937 37.071 34.6304 37.071C34.7867 37.071 34.9157 37.0592 35.0175 37.0355C35.1193 37.0142 35.1986 36.9929 35.2554 36.9716L35.085 36.2188L34.9429 36.2472C34.8837 36.2566 34.808 36.2614 34.7156 36.2614C34.5925 36.2614 34.4753 36.2424 34.3641 36.2045C34.2552 36.1643 34.1652 36.0862 34.0942 35.9702C34.0255 35.8518 33.9912 35.6742 33.9912 35.4375V32.2557H35.156Z" fill="#CFD1DE"/>
<path fill-rule="evenodd" clip-rule="evenodd" d="M37.2778 36.7621C37.6495 36.9964 38.0815 37.1136 38.574 37.1136C39.0664 37.1136 39.4972 36.9964 39.8666 36.7621C40.2383 36.5277 40.5271 36.1998 40.733 35.7784C40.9414 35.357 41.0455 34.8646 41.0455 34.3011C41.0455 33.733 40.9414 33.237 40.733 32.8132C40.5271 32.3894 40.2383 32.0604 39.8666 31.826C39.4972 31.5916 39.0664 31.4744 38.574 31.4744C38.0815 31.4744 37.6495 31.5916 37.2778 31.826C36.9085 32.0604 36.6196 32.3894 36.4113 32.8132C36.2053 33.237 36.1024 33.733 36.1024 34.3011C36.1024 34.8646 36.2053 35.357 36.4113 35.7784C36.6196 36.1998 36.9085 36.5277 37.2778 36.7621ZM39.4972 36.0732C39.2558 36.2649 38.948 36.3608 38.574 36.3608C38.1999 36.3608 37.8921 36.2649 37.6507 36.0732C37.4092 35.8814 37.2304 35.6293 37.1144 35.3168C36.9984 35.0043 36.9404 34.6657 36.9404 34.3011C36.9404 33.9366 36.9984 33.5968 37.1144 33.282C37.2304 32.9671 37.4092 32.7126 37.6507 32.5185C37.8921 32.3243 38.1999 32.2273 38.574 32.2273C38.948 32.2273 39.2558 32.3243 39.4972 32.5185C39.7387 32.7126 39.9175 32.9671 40.0335 33.282C40.1495 33.5968 40.2075 33.9366 40.2075 34.3011C40.2075 34.6657 40.1495 35.0043 40.0335 35.3168C39.9175 35.6293 39.7387 35.8814 39.4972 36.0732Z" fill="#CFD1DE"/>
<path d="M45.4356 32.9801L46.1885 32.767C46.0583 32.3788 45.8381 32.0663 45.528 31.8295C45.2202 31.5928 44.7964 31.4744 44.2567 31.4744C43.8731 31.4744 43.5299 31.5419 43.2268 31.6768C42.9262 31.8118 42.6882 31.9976 42.5131 32.2344C42.3402 32.4711 42.2538 32.7434 42.2538 33.0511C42.2538 33.4276 42.3698 33.7412 42.6018 33.9922C42.8362 34.2408 43.2032 34.4242 43.7027 34.5426L44.6118 34.7557C44.8864 34.8196 45.09 34.9167 45.2226 35.0469C45.3551 35.1747 45.4214 35.3333 45.4214 35.5227C45.4214 35.7571 45.3054 35.9583 45.0734 36.1264C44.8438 36.2921 44.5336 36.375 44.143 36.375C43.7997 36.375 43.5216 36.3016 43.3085 36.1548C43.0978 36.008 42.9546 35.7879 42.8788 35.4943L42.0834 35.6932C42.1804 36.1572 42.4113 36.5099 42.7758 36.7514C43.1404 36.9929 43.6009 37.1136 44.1572 37.1136C44.581 37.1136 44.9527 37.0426 45.2723 36.9006C45.5919 36.7585 45.8405 36.5644 46.018 36.3182C46.1979 36.072 46.2879 35.7926 46.2879 35.4801C46.2879 35.099 46.1684 34.7876 45.9292 34.5462C45.6901 34.3023 45.3267 34.1212 44.839 34.0028L44.0294 33.804C43.7074 33.7235 43.4707 33.6229 43.3192 33.5021C43.1676 33.3814 43.0919 33.2169 43.0919 33.0085C43.0919 32.7741 43.202 32.5812 43.4221 32.4297C43.6447 32.2758 43.9229 32.1989 44.2567 32.1989C44.5005 32.1989 44.7006 32.2379 44.8568 32.3161C45.0131 32.3942 45.1362 32.4936 45.2261 32.6143C45.3185 32.7327 45.3883 32.8546 45.4356 32.9801Z" fill="#CFD1DE"/>
</svg>
