<svg width="38" height="36" viewBox="0 0 38 36" fill="none" xmlns="http://www.w3.org/2000/svg">
<path fill-rule="evenodd" clip-rule="evenodd" d="M10.9384 0.101562C8.70715 0.101562 6.89838 1.91033 6.89838 4.14156V18.3076C6.89838 20.5389 8.70715 22.3476 10.9384 22.3476H27.0618C29.293 22.3476 31.1018 20.5389 31.1018 18.3076V8.09226C31.1018 5.86102 29.293 4.05226 27.0618 4.05226H10.4124C9.85475 4.05226 9.40268 3.60018 9.40268 3.04252C9.40268 2.97697 9.39643 2.91287 9.38451 2.85079C9.75504 2.40523 10.3136 2.12156 10.9384 2.12156H28.0957C28.6535 2.12156 29.1057 1.66937 29.1057 1.11156C29.1057 0.553755 28.6535 0.101562 28.0957 0.101562H10.9384ZM8.91838 18.3076V5.67887C9.35927 5.92927 9.86915 6.07226 10.4124 6.07226H27.0618C28.1774 6.07226 29.0818 6.97664 29.0818 8.09226V18.3076C29.0818 19.4232 28.1774 20.3276 27.0618 20.3276H10.9384C9.82277 20.3276 8.91838 19.4232 8.91838 18.3076Z" fill="#CFD1DE"/>
<path fill-rule="evenodd" clip-rule="evenodd" d="M0.78418 27.7937V35.0664H3.41202C3.98494 35.0664 4.45014 34.9812 4.80762 34.8107C5.1651 34.6403 5.4267 34.4094 5.59242 34.1182C5.75814 33.827 5.841 33.4992 5.841 33.1346C5.841 32.7511 5.76524 32.4267 5.61373 32.1616C5.46221 31.8964 5.274 31.6928 5.04909 31.5508C4.82419 31.4087 4.60047 31.3306 4.37793 31.3164V31.2454C4.58626 31.1886 4.77921 31.101 4.95677 30.9826C5.13669 30.8642 5.2811 30.7032 5.39 30.4996C5.50127 30.296 5.55691 30.038 5.55691 29.7255C5.55691 29.3704 5.47641 29.0472 5.31543 28.756C5.15445 28.4625 4.90942 28.2293 4.58034 28.0565C4.25127 27.8813 3.83342 27.7937 3.32679 27.7937H0.78418ZM3.41202 34.2851H1.66486V31.7567H3.45463C3.77187 31.7567 4.04649 31.8207 4.2785 31.9485C4.51051 32.074 4.68925 32.2421 4.81472 32.4528C4.94019 32.6611 5.00293 32.8884 5.00293 33.1346C5.00293 33.4542 4.88101 33.7264 4.63716 33.9513C4.39569 34.1739 3.9873 34.2851 3.41202 34.2851ZM3.29838 30.9897H1.66486V28.5749H3.32679C3.80975 28.5749 4.16249 28.6874 4.38503 28.9123C4.60757 29.1348 4.71884 29.4059 4.71884 29.7255C4.71884 29.9812 4.65492 30.2037 4.52708 30.3931C4.4016 30.5825 4.23115 30.7293 4.01571 30.8334C3.80265 30.9376 3.56354 30.9897 3.29838 30.9897Z" fill="#CFD1DE"/>
<path d="M7.17445 29.6119V35.0664H8.01252V29.6119H7.17445Z" fill="#CFD1DE"/>
<path d="M7.178 28.5359C7.29637 28.6471 7.43723 28.7028 7.60059 28.7028C7.76394 28.7028 7.90362 28.6471 8.01962 28.5359C8.13799 28.4246 8.19718 28.2908 8.19718 28.1346C8.19718 27.9783 8.13799 27.8446 8.01962 27.7333C7.90362 27.622 7.76394 27.5664 7.60059 27.5664C7.43723 27.5664 7.29637 27.622 7.178 27.7333C7.062 27.8446 7.00399 27.9783 7.00399 28.1346C7.00399 28.2908 7.062 28.4246 7.178 28.5359Z" fill="#CFD1DE"/>
<path d="M10.3856 35.0664V27.7937H9.5475V35.0664H10.3856Z" fill="#CFD1DE"/>
<path d="M12.7586 35.0664V27.7937H11.9205V35.0664H12.7586Z" fill="#CFD1DE"/>
<path fill-rule="evenodd" clip-rule="evenodd" d="M15.2204 34.832C15.6016 35.064 16.055 35.18 16.5805 35.18C16.9498 35.18 17.2825 35.1232 17.5784 35.0096C17.8743 34.8936 18.1229 34.7326 18.3241 34.5266C18.5254 34.3183 18.6686 34.0768 18.7538 33.8022L17.9442 33.5749C17.8731 33.7643 17.7725 33.9229 17.6423 34.0508C17.5121 34.1762 17.357 34.2709 17.1771 34.3349C16.9996 34.3964 16.8007 34.4272 16.5805 34.4272C16.242 34.4272 15.9449 34.3538 15.6892 34.207C15.4335 34.0579 15.2335 33.8413 15.089 33.5572C14.9602 33.2974 14.8898 32.9861 14.8778 32.6232H18.839V32.2681C18.839 31.7591 18.7716 31.3306 18.6366 30.9826C18.5017 30.6346 18.3206 30.3552 18.0933 30.1445C17.866 29.9315 17.6139 29.7776 17.3369 29.6829C17.0599 29.5882 16.7794 29.5408 16.4953 29.5408C16.0029 29.5408 15.572 29.6616 15.2027 29.903C14.8357 30.1422 14.5493 30.476 14.3433 30.9045C14.1397 31.3306 14.0379 31.823 14.0379 32.3817C14.0379 32.9404 14.1397 33.4305 14.3433 33.8519C14.5493 34.2709 14.8416 34.5976 15.2204 34.832ZM14.88 31.8988C14.8959 31.6458 14.9597 31.4067 15.0713 31.1815C15.2015 30.9187 15.3873 30.7056 15.6288 30.5422C15.8727 30.3765 16.1615 30.2937 16.4953 30.2937C16.7983 30.2937 17.0611 30.3635 17.2836 30.5032C17.5086 30.6429 17.6814 30.8334 17.8021 31.0749C17.9252 31.3164 17.9868 31.591 17.9868 31.8988H14.88Z" fill="#CFD1DE"/>
<path d="M22.4861 30.3221V29.6119H21.3213V28.305H20.4832V29.6119H19.6594V30.3221H20.4832V33.7312C20.4832 34.0484 20.5566 34.3112 20.7034 34.5195C20.8525 34.7279 21.0396 34.8829 21.2645 34.9847C21.4917 35.0865 21.7238 35.1374 21.9605 35.1374C22.1167 35.1374 22.2458 35.1256 22.3476 35.1019C22.4494 35.0806 22.5287 35.0593 22.5855 35.038L22.415 34.2851L22.273 34.3136C22.2138 34.323 22.1381 34.3278 22.0457 34.3278C21.9226 34.3278 21.8054 34.3088 21.6942 34.2709C21.5853 34.2307 21.4953 34.1526 21.4243 34.0366C21.3556 33.9182 21.3213 33.7406 21.3213 33.5039V30.3221H22.4861Z" fill="#CFD1DE"/>
<path fill-rule="evenodd" clip-rule="evenodd" d="M24.615 34.832C24.9961 35.064 25.4495 35.18 25.9751 35.18C26.3444 35.18 26.677 35.1232 26.9729 35.0096C27.2689 34.8936 27.5174 34.7326 27.7187 34.5266C27.9199 34.3183 28.0631 34.0768 28.1483 33.8022L27.3387 33.5749C27.2677 33.7643 27.1671 33.9229 27.0368 34.0508C26.9066 34.1762 26.7516 34.2709 26.5716 34.3349C26.3941 34.3964 26.1952 34.4272 25.9751 34.4272C25.6365 34.4272 25.3394 34.3538 25.0837 34.207C24.828 34.0579 24.628 33.8413 24.4836 33.5572C24.3548 33.2974 24.2844 32.9861 24.2724 32.6232H28.2336V32.2681C28.2336 31.7591 28.1661 31.3306 28.0312 30.9826C27.8962 30.6346 27.7151 30.3552 27.4878 30.1445C27.2606 29.9315 27.0084 29.7776 26.7314 29.6829C26.4545 29.5882 26.1739 29.5408 25.8898 29.5408C25.3974 29.5408 24.9665 29.6616 24.5972 29.903C24.2303 30.1422 23.9438 30.476 23.7378 30.9045C23.5342 31.3306 23.4324 31.823 23.4324 32.3817C23.4324 32.9404 23.5342 33.4305 23.7378 33.8519C23.9438 34.2709 24.2362 34.5976 24.615 34.832ZM24.2745 31.8988C24.2905 31.6458 24.3542 31.4067 24.4658 31.1815C24.596 30.9187 24.7819 30.7056 25.0233 30.5422C25.2672 30.3765 25.556 30.2937 25.8898 30.2937C26.1929 30.2937 26.4556 30.3635 26.6782 30.5032C26.9031 30.6429 27.0759 30.8334 27.1966 31.0749C27.3197 31.3164 27.3813 31.591 27.3813 31.8988H24.2745Z" fill="#CFD1DE"/>
<path d="M29.5084 29.6119V35.0664H30.3465V31.6147C30.3465 31.3685 30.4057 31.1495 30.5241 30.9577C30.6448 30.7636 30.8081 30.6121 31.0141 30.5032C31.2224 30.3919 31.4592 30.3363 31.7243 30.3363C31.8356 30.3363 31.941 30.3446 32.0404 30.3611C32.1422 30.3753 32.2073 30.386 32.2357 30.3931V29.5408C32.1884 29.5361 32.1185 29.5325 32.0262 29.5302C31.9339 29.5278 31.8569 29.5266 31.7954 29.5266C31.4687 29.5266 31.1751 29.6107 30.9147 29.7788C30.6543 29.9468 30.4743 30.1658 30.3749 30.4357H30.3181V29.6119H29.5084Z" fill="#CFD1DE"/>
<path fill-rule="evenodd" clip-rule="evenodd" d="M33.8932 34.9989C34.1749 35.1291 34.4886 35.1942 34.8343 35.1942C35.1515 35.1942 35.4202 35.1469 35.6404 35.0522C35.8605 34.9575 36.0369 34.8427 36.1695 34.7077C36.3021 34.5728 36.3968 34.4461 36.4536 34.3278H36.4962V35.0664H37.3343V31.4726C37.3343 31.0394 37.2632 30.6938 37.1212 30.4357C36.9791 30.1777 36.8004 29.9847 36.585 29.8569C36.3719 29.729 36.1505 29.645 35.9209 29.6047C35.6936 29.5621 35.4924 29.5408 35.3172 29.5408C35.0426 29.5408 34.7632 29.5787 34.4791 29.6545C34.1974 29.7279 33.937 29.8581 33.6979 30.0451C33.4611 30.2297 33.2718 30.4878 33.1297 30.8192L33.9252 31.1033C34.0175 30.9045 34.1773 30.7174 34.4046 30.5422C34.6318 30.3671 34.9455 30.2795 35.3456 30.2795C35.7315 30.2795 36.0191 30.3765 36.2085 30.5707C36.4003 30.7648 36.4962 31.037 36.4962 31.3874V31.4158C36.4962 31.5508 36.4477 31.6455 36.3506 31.6999C36.2559 31.7544 36.1044 31.7934 35.896 31.8171C35.6901 31.8384 35.4214 31.8704 35.0899 31.913C34.8366 31.9461 34.5845 31.9911 34.3335 32.0479C34.085 32.1024 33.8577 32.1852 33.6517 32.2965C33.4458 32.4078 33.2812 32.5617 33.1581 32.7582C33.035 32.9523 32.9735 33.2056 32.9735 33.5181C32.9735 33.8732 33.0563 34.1762 33.222 34.4272C33.3878 34.6758 33.6115 34.8663 33.8932 34.9989ZM35.8002 34.2461C35.5729 34.3763 35.2935 34.4414 34.9621 34.4414C34.6283 34.4414 34.3525 34.368 34.1347 34.2212C33.9192 34.0721 33.8115 33.8519 33.8115 33.5607C33.8115 33.3476 33.8683 33.1796 33.982 33.0565C34.098 32.931 34.2495 32.8375 34.4365 32.7759C34.6259 32.712 34.8295 32.6658 35.0473 32.6374C35.1373 32.6256 35.2545 32.6114 35.3989 32.5948C35.5457 32.5759 35.696 32.5546 35.8499 32.5309C36.0061 32.5048 36.1434 32.4753 36.2618 32.4421C36.3825 32.4066 36.4607 32.3675 36.4962 32.3249V33.092C36.4962 33.3192 36.437 33.5359 36.3186 33.7418C36.2026 33.9478 36.0298 34.1159 35.8002 34.2461Z" fill="#CFD1DE"/>
</svg>
