<svg width="47" height="40" viewBox="0 0 47 40" fill="none" xmlns="http://www.w3.org/2000/svg">
<path fill-rule="evenodd" clip-rule="evenodd" d="M29.1997 2.90932H29.0271C28.6106 1.73096 27.4868 0.886719 26.1658 0.886719H20.098C18.777 0.886719 17.6532 1.73096 17.2367 2.90932H17.0641C14.83 2.90932 13.0189 4.72042 13.0189 6.95453V21.1128C13.0189 23.3469 14.83 25.158 17.0641 25.158H29.1997C31.4338 25.158 33.2449 23.3469 33.2449 21.1128V6.95454C33.2449 4.72043 31.4338 2.90932 29.1997 2.90932ZM15.0415 6.95453C15.0415 5.83748 15.947 4.93193 17.0641 4.93193C17.0641 6.60751 18.4224 7.96584 20.098 7.96584H26.1658C27.8414 7.96584 29.1997 6.60751 29.1997 4.93193C30.3168 4.93193 31.2223 5.83748 31.2223 6.95454V21.1128C31.2223 22.2298 30.3168 23.1354 29.1997 23.1354H17.0641C15.947 23.1354 15.0415 22.2298 15.0415 21.1128V6.95453ZM20.098 2.90932C19.5395 2.90932 19.0867 3.3621 19.0867 3.92063V4.93193C19.0867 5.49046 19.5395 5.94323 20.098 5.94323H26.1658C26.7243 5.94323 27.1771 5.49046 27.1771 4.93193V3.92063C27.1771 3.3621 26.7243 2.90932 26.1658 2.90932H20.098Z" fill="#CFD1DE"/>
<path fill-rule="evenodd" clip-rule="evenodd" d="M0.40332 30.614V37.8867H1.284V35.2305H2.87491C3.44073 35.2305 3.90474 35.1275 4.26696 34.9215C4.62917 34.7132 4.89669 34.4338 5.06951 34.0835C5.2447 33.7331 5.3323 33.3436 5.3323 32.9151C5.3323 32.4866 5.2447 32.0984 5.06951 31.7504C4.89432 31.4023 4.62444 31.1265 4.25985 30.9229C3.89764 30.717 3.43126 30.614 2.86071 30.614H0.40332ZM1.284 34.4492H2.8465C3.23713 34.4492 3.55081 34.3817 3.78755 34.2468C4.0243 34.1119 4.19593 33.9296 4.30247 33.6999C4.41137 33.4679 4.46582 33.2063 4.46582 32.9151C4.46582 32.6239 4.41137 32.3635 4.30247 32.1339C4.19593 31.9042 4.02311 31.7243 3.784 31.5941C3.54489 31.4615 3.22766 31.3952 2.8323 31.3952H1.284V34.4492Z" fill="#CFD1DE"/>
<path d="M6.63734 32.4322V37.8867H7.47541V34.435C7.47541 34.1888 7.53459 33.9698 7.65297 33.7781C7.7737 33.5839 7.93706 33.4324 8.14302 33.3235C8.35136 33.2122 8.5881 33.1566 8.85325 33.1566C8.96452 33.1566 9.06987 33.1649 9.1693 33.1815C9.2711 33.1957 9.3362 33.2063 9.36461 33.2134V32.3612C9.31726 32.3564 9.24743 32.3529 9.1551 32.3505C9.06277 32.3481 8.98582 32.3469 8.92427 32.3469C8.59757 32.3469 8.30401 32.431 8.04359 32.5991C7.78317 32.7672 7.60325 32.9861 7.50382 33.256H7.447V32.4322H6.63734Z" fill="#CFD1DE"/>
<path fill-rule="evenodd" clip-rule="evenodd" d="M11.1118 37.6488C11.4835 37.8832 11.9155 38.0004 12.4079 38.0004C12.9004 38.0004 13.3312 37.8832 13.7006 37.6488C14.0722 37.4144 14.3611 37.0865 14.567 36.6651C14.7754 36.2437 14.8795 35.7513 14.8795 35.1879C14.8795 34.6197 14.7754 34.1237 14.567 33.6999C14.3611 33.2762 14.0722 32.9471 13.7006 32.7127C13.3312 32.4783 12.9004 32.3612 12.4079 32.3612C11.9155 32.3612 11.4835 32.4783 11.1118 32.7127C10.7425 32.9471 10.4536 33.2762 10.2453 33.6999C10.0393 34.1237 9.93635 34.6197 9.93635 35.1879C9.93635 35.7513 10.0393 36.2437 10.2453 36.6651C10.4536 37.0865 10.7425 37.4144 11.1118 37.6488ZM13.3312 36.9599C13.0898 37.1516 12.782 37.2475 12.4079 37.2475C12.0339 37.2475 11.7261 37.1516 11.4846 36.9599C11.2432 36.7681 11.0644 36.516 10.9484 36.2035C10.8324 35.891 10.7744 35.5524 10.7744 35.1879C10.7744 34.8233 10.8324 34.4835 10.9484 34.1687C11.0644 33.8538 11.2432 33.5993 11.4846 33.4052C11.7261 33.2111 12.0339 33.114 12.4079 33.114C12.782 33.114 13.0898 33.2111 13.3312 33.4052C13.5727 33.5993 13.7514 33.8538 13.8675 34.1687C13.9835 34.4835 14.0415 34.8233 14.0415 35.1879C14.0415 35.5524 13.9835 35.891 13.8675 36.2035C13.7514 36.516 13.5727 36.7681 13.3312 36.9599Z" fill="#CFD1DE"/>
<path d="M16.1233 39.8967C16.2346 39.9203 16.3612 39.9322 16.5033 39.9322C16.7566 39.9322 16.9839 39.8872 17.1851 39.7972C17.3887 39.7073 17.5674 39.5688 17.7213 39.3817C17.8752 39.1971 18.0042 38.9639 18.1084 38.6822L20.4237 32.4322H19.5146L18.009 36.7788H17.9521L16.4465 32.4322H15.5374L17.5544 37.9151L17.3982 38.3413C17.2964 38.6183 17.1839 38.8183 17.0608 38.9414C16.9401 39.0669 16.8016 39.1367 16.6453 39.1509C16.4891 39.1651 16.3092 39.1462 16.1056 39.0941L15.8925 39.8327C15.9351 39.854 16.012 39.8754 16.1233 39.8967Z" fill="#CFD1DE"/>
<path fill-rule="evenodd" clip-rule="evenodd" d="M22.2615 37.6523C22.6426 37.8843 23.096 38.0004 23.6215 38.0004C23.9909 38.0004 24.3235 37.9435 24.6194 37.8299C24.9153 37.7139 25.1639 37.5529 25.3651 37.3469C25.5664 37.1386 25.7096 36.8971 25.7948 36.6225L24.9852 36.3952C24.9142 36.5846 24.8135 36.7433 24.6833 36.8711C24.5531 36.9966 24.3981 37.0913 24.2181 37.1552C24.0406 37.2167 23.8417 37.2475 23.6215 37.2475C23.283 37.2475 22.9859 37.1741 22.7302 37.0273C22.4745 36.8782 22.2745 36.6616 22.1301 36.3775C22.0013 36.1177 21.9309 35.8064 21.9188 35.4435H25.8801V35.0884C25.8801 34.5794 25.8126 34.1509 25.6776 33.8029C25.5427 33.4549 25.3616 33.1755 25.1343 32.9648C24.907 32.7518 24.6549 32.5979 24.3779 32.5032C24.1009 32.4085 23.8204 32.3612 23.5363 32.3612C23.0439 32.3612 22.613 32.4819 22.2437 32.7234C21.8767 32.9625 21.5903 33.2963 21.3843 33.7248C21.1807 34.1509 21.0789 34.6433 21.0789 35.2021C21.0789 35.7608 21.1807 36.2508 21.3843 36.6722C21.5903 37.0913 21.8827 37.418 22.2615 37.6523ZM21.921 34.7191C21.9369 34.4661 22.0007 34.227 22.1123 34.0018C22.2425 33.739 22.4284 33.5259 22.6698 33.3626C22.9137 33.1968 23.2025 33.114 23.5363 33.114C23.8393 33.114 24.1021 33.1838 24.3247 33.3235C24.5496 33.4632 24.7224 33.6538 24.8431 33.8952C24.9662 34.1367 25.0278 34.4113 25.0278 34.7191H21.921Z" fill="#CFD1DE"/>
<path d="M28.0498 37.6381C28.4191 37.8796 28.8595 38.0004 29.3708 38.0004C29.7733 38.0004 30.126 37.9258 30.4291 37.7766C30.7345 37.6251 30.9795 37.4215 31.1642 37.1658C31.3512 36.9078 31.4684 36.6178 31.5157 36.2958H30.6776C30.6256 36.4947 30.538 36.6651 30.4149 36.8072C30.2918 36.9492 30.1414 37.0581 29.9639 37.1339C29.7863 37.2096 29.5886 37.2475 29.3708 37.2475C29.0394 37.2475 28.7506 37.1611 28.5044 36.9883C28.2605 36.8155 28.0711 36.5728 27.9362 36.2603C27.8036 35.9478 27.7373 35.5808 27.7373 35.1594C27.7373 34.7475 27.8048 34.3889 27.9397 34.0835C28.077 33.7757 28.2676 33.5378 28.5115 33.3697C28.7577 33.1992 29.0441 33.114 29.3708 33.114C29.7401 33.114 30.0337 33.2111 30.2515 33.4052C30.4717 33.5969 30.6137 33.8171 30.6776 34.0657H31.5157C31.4684 33.7248 31.3464 33.4265 31.1499 33.1708C30.9535 32.9151 30.7013 32.7163 30.3936 32.5742C30.0858 32.4322 29.7401 32.3612 29.3566 32.3612C28.8642 32.3612 28.4333 32.4819 28.064 32.7234C27.6971 32.9625 27.4106 33.2951 27.2046 33.7212C27.001 34.145 26.8992 34.6339 26.8992 35.1879C26.8992 35.7324 26.9987 36.2165 27.1975 36.6403C27.3964 37.064 27.6805 37.3967 28.0498 37.6381Z" fill="#CFD1DE"/>
<path d="M35.113 33.1424V32.4322H33.9482V31.1254H33.1102V32.4322H32.2863V33.1424H33.1102V36.5515C33.1102 36.8687 33.1836 37.1315 33.3303 37.3398C33.4795 37.5482 33.6665 37.7032 33.8914 37.805C34.1187 37.9068 34.3507 37.9577 34.5874 37.9577C34.7437 37.9577 34.8727 37.9459 34.9745 37.9222C35.0763 37.9009 35.1556 37.8796 35.2124 37.8583L35.042 37.1055L34.8999 37.1339C34.8408 37.1433 34.765 37.1481 34.6727 37.1481C34.5496 37.1481 34.4324 37.1291 34.3211 37.0913C34.2122 37.051 34.1222 36.9729 34.0512 36.8569C33.9826 36.7385 33.9482 36.561 33.9482 36.3242V33.1424H35.113Z" fill="#CFD1DE"/>
<path fill-rule="evenodd" clip-rule="evenodd" d="M37.2348 37.6488C37.6065 37.8832 38.0386 38.0004 38.531 38.0004C39.0234 38.0004 39.4543 37.8832 39.8236 37.6488C40.1953 37.4144 40.4841 37.0865 40.6901 36.6651C40.8984 36.2437 41.0026 35.7513 41.0026 35.1879C41.0026 34.6197 40.8984 34.1237 40.6901 33.6999C40.4841 33.2762 40.1953 32.9471 39.8236 32.7127C39.4543 32.4783 39.0234 32.3612 38.531 32.3612C38.0386 32.3612 37.6065 32.4783 37.2348 32.7127C36.8655 32.9471 36.5767 33.2762 36.3683 33.6999C36.1624 34.1237 36.0594 34.6197 36.0594 35.1879C36.0594 35.7513 36.1624 36.2437 36.3683 36.6651C36.5767 37.0865 36.8655 37.4144 37.2348 37.6488ZM39.4543 36.9599C39.2128 37.1516 38.905 37.2475 38.531 37.2475C38.1569 37.2475 37.8492 37.1516 37.6077 36.9599C37.3662 36.7681 37.1875 36.516 37.0715 36.2035C36.9555 35.891 36.8975 35.5524 36.8975 35.1879C36.8975 34.8233 36.9555 34.4835 37.0715 34.1687C37.1875 33.8538 37.3662 33.5993 37.6077 33.4052C37.8492 33.2111 38.1569 33.114 38.531 33.114C38.905 33.114 39.2128 33.2111 39.4543 33.4052C39.6958 33.5993 39.8745 33.8538 39.9905 34.1687C40.1065 34.4835 40.1645 34.8233 40.1645 35.1879C40.1645 35.5524 40.1065 35.891 39.9905 36.2035C39.8745 36.516 39.6958 36.7681 39.4543 36.9599Z" fill="#CFD1DE"/>
<path d="M45.3927 33.8668L46.1455 33.6538C46.0153 33.2655 45.7951 32.953 45.485 32.7163C45.1772 32.4795 44.7535 32.3612 44.2137 32.3612C43.8302 32.3612 43.4869 32.4286 43.1839 32.5636C42.8832 32.6985 42.6453 32.8844 42.4701 33.1211C42.2973 33.3578 42.2108 33.6301 42.2108 33.9379C42.2108 34.3143 42.3269 34.628 42.5589 34.8789C42.7932 35.1275 43.1602 35.311 43.6597 35.4293L44.5688 35.6424C44.8434 35.7063 45.047 35.8034 45.1796 35.9336C45.3122 36.0614 45.3785 36.2201 45.3785 36.4094C45.3785 36.6438 45.2625 36.8451 45.0304 37.0131C44.8008 37.1789 44.4907 37.2617 44.1001 37.2617C43.7568 37.2617 43.4786 37.1883 43.2655 37.0415C43.0548 36.8948 42.9116 36.6746 42.8358 36.381L42.0404 36.5799C42.1375 37.0439 42.3683 37.3967 42.7329 37.6381C43.0975 37.8796 43.5579 38.0004 44.1143 38.0004C44.538 38.0004 44.9097 37.9293 45.2293 37.7873C45.5489 37.6452 45.7975 37.4511 45.9751 37.2049C46.155 36.9587 46.2449 36.6793 46.2449 36.3668C46.2449 35.9857 46.1254 35.6744 45.8863 35.4329C45.6472 35.189 45.2838 35.0079 44.7961 34.8896L43.9864 34.6907C43.6644 34.6102 43.4277 34.5096 43.2762 34.3889C43.1247 34.2681 43.0489 34.1036 43.0489 33.8952C43.0489 33.6609 43.159 33.4679 43.3792 33.3164C43.6017 33.1625 43.8799 33.0856 44.2137 33.0856C44.4575 33.0856 44.6576 33.1246 44.8138 33.2028C44.9701 33.2809 45.0932 33.3803 45.1832 33.5011C45.2755 33.6194 45.3453 33.7414 45.3927 33.8668Z" fill="#CFD1DE"/>
</svg>
