<svg width="47" height="40" viewBox="0 0 47 40" fill="none" xmlns="http://www.w3.org/2000/svg">
<path fill-rule="evenodd" clip-rule="evenodd" d="M29.4194 2.02261H29.2468C28.8303 0.844244 27.7065 0 26.3855 0H20.3177C18.9967 0 17.8729 0.844243 17.4565 2.02261H17.2838C15.0497 2.02261 13.2386 3.8337 13.2386 6.06781V20.2261C13.2386 22.4602 15.0497 24.2713 17.2838 24.2713H29.4194C31.6536 24.2713 33.4647 22.4602 33.4647 20.2261V6.06782C33.4647 3.83371 31.6536 2.02261 29.4194 2.02261ZM15.2612 6.06781C15.2612 4.95076 16.1668 4.04521 17.2838 4.04521C17.2838 5.72079 18.6421 7.07912 20.3177 7.07912H26.3855C28.0611 7.07912 29.4194 5.72079 29.4194 4.04521C30.5365 4.04521 31.4421 4.95076 31.4421 6.06782V20.2261C31.4421 21.3431 30.5365 22.2487 29.4194 22.2487H17.2838C16.1668 22.2487 15.2612 21.3431 15.2612 20.2261V6.06781ZM20.3177 2.02261C19.7592 2.02261 19.3064 2.47538 19.3064 3.03391V4.04521C19.3064 4.60374 19.7592 5.05651 20.3177 5.05651H26.3855C26.9441 5.05651 27.3968 4.60374 27.3968 4.04521V3.03391C27.3968 2.47538 26.9441 2.02261 26.3855 2.02261H20.3177Z" fill="#CFD1DE"/>
<path fill-rule="evenodd" clip-rule="evenodd" d="M0.624023 29.7273V37H1.50471V34.3438H3.09561C3.66143 34.3438 4.12544 34.2408 4.48766 34.0348C4.84988 33.8265 5.11739 33.5471 5.29022 33.1967C5.46541 32.8464 5.553 32.4569 5.553 32.0284C5.553 31.5999 5.46541 31.2116 5.29022 30.8636C5.11503 30.5156 4.84514 30.2398 4.48056 30.0362C4.11834 29.8303 3.65196 29.7273 3.08141 29.7273H0.624023ZM1.50471 33.5625H3.06721C3.45783 33.5625 3.77151 33.495 4.00826 33.3601C4.245 33.2251 4.41664 33.0429 4.52317 32.8132C4.63207 32.5812 4.68652 32.3196 4.68652 32.0284C4.68652 31.7372 4.63207 31.4768 4.52317 31.2472C4.41664 31.0175 4.24382 30.8376 4.00471 30.7074C3.7656 30.5748 3.44836 30.5085 3.053 30.5085H1.50471V33.5625Z" fill="#CFD1DE"/>
<path d="M6.85804 31.5455V37H7.69611V33.5483C7.69611 33.3021 7.7553 33.0831 7.87367 32.8913C7.99441 32.6972 8.15776 32.5457 8.36373 32.4368C8.57206 32.3255 8.8088 32.2699 9.07395 32.2699C9.18522 32.2699 9.29057 32.2782 9.39 32.2947C9.4918 32.3089 9.55691 32.3196 9.58532 32.3267V31.4744C9.53797 31.4697 9.46813 31.4661 9.3758 31.4638C9.28347 31.4614 9.20653 31.4602 9.14498 31.4602C8.81827 31.4602 8.52471 31.5443 8.26429 31.7124C8.00388 31.8804 7.82395 32.0994 7.72452 32.3693H7.6677V31.5455H6.85804Z" fill="#CFD1DE"/>
<path fill-rule="evenodd" clip-rule="evenodd" d="M11.3325 36.7621C11.7042 36.9964 12.1362 37.1136 12.6286 37.1136C13.1211 37.1136 13.5519 36.9964 13.9213 36.7621C14.2929 36.5277 14.5818 36.1998 14.7877 35.7784C14.9961 35.357 15.1002 34.8646 15.1002 34.3011C15.1002 33.733 14.9961 33.237 14.7877 32.8132C14.5818 32.3894 14.2929 32.0604 13.9213 31.826C13.5519 31.5916 13.1211 31.4744 12.6286 31.4744C12.1362 31.4744 11.7042 31.5916 11.3325 31.826C10.9632 32.0604 10.6743 32.3894 10.466 32.8132C10.26 33.237 10.157 33.733 10.157 34.3011C10.157 34.8646 10.26 35.357 10.466 35.7784C10.6743 36.1998 10.9632 36.5277 11.3325 36.7621ZM13.5519 36.0732C13.3105 36.2649 13.0027 36.3608 12.6286 36.3608C12.2546 36.3608 11.9468 36.2649 11.7053 36.0732C11.4639 35.8814 11.2851 35.6293 11.1691 35.3168C11.0531 35.0043 10.9951 34.6657 10.9951 34.3011C10.9951 33.9366 11.0531 33.5968 11.1691 33.282C11.2851 32.9671 11.4639 32.7126 11.7053 32.5185C11.9468 32.3243 12.2546 32.2273 12.6286 32.2273C13.0027 32.2273 13.3105 32.3243 13.5519 32.5185C13.7934 32.7126 13.9722 32.9671 14.0882 33.282C14.2042 33.5968 14.2622 33.9366 14.2622 34.3011C14.2622 34.6657 14.2042 35.0043 14.0882 35.3168C13.9722 35.6293 13.7934 35.8814 13.5519 36.0732Z" fill="#CFD1DE"/>
<path d="M16.344 39.0099C16.4553 39.0336 16.5819 39.0455 16.724 39.0455C16.9773 39.0455 17.2046 39.0005 17.4058 38.9105C17.6094 38.8205 17.7881 38.6821 17.942 38.495C18.0959 38.3104 18.2249 38.0772 18.3291 37.7955L20.6444 31.5455H19.7354L18.2297 35.892H18.1729L16.6672 31.5455H15.7581L17.7751 37.0284L17.6189 37.4545C17.5171 37.7315 17.4046 37.9316 17.2815 38.0547C17.1608 38.1802 17.0223 38.25 16.866 38.2642C16.7098 38.2784 16.5299 38.2595 16.3263 38.2074L16.1132 38.946C16.1558 38.9673 16.2327 38.9886 16.344 39.0099Z" fill="#CFD1DE"/>
<path fill-rule="evenodd" clip-rule="evenodd" d="M22.4822 36.7656C22.8633 36.9976 23.3167 37.1136 23.8422 37.1136C24.2116 37.1136 24.5442 37.0568 24.8401 36.9432C25.136 36.8272 25.3846 36.6662 25.5858 36.4602C25.7871 36.2519 25.9303 36.0104 26.0155 35.7358L25.2059 35.5085C25.1349 35.6979 25.0342 35.8565 24.904 35.9844C24.7738 36.1098 24.6188 36.2045 24.4388 36.2685C24.2613 36.33 24.0624 36.3608 23.8422 36.3608C23.5037 36.3608 23.2066 36.2874 22.9509 36.1406C22.6952 35.9915 22.4952 35.7749 22.3508 35.4908C22.222 35.231 22.1516 34.9197 22.1395 34.5568H26.1008V34.2017C26.1008 33.6927 26.0333 33.2642 25.8983 32.9162C25.7634 32.5682 25.5823 32.2888 25.355 32.0781C25.1278 31.8651 24.8756 31.7112 24.5986 31.6165C24.3216 31.5218 24.0411 31.4744 23.757 31.4744C23.2646 31.4744 22.8337 31.5952 22.4644 31.8366C22.0974 32.0758 21.811 32.4096 21.605 32.8381C21.4014 33.2642 21.2996 33.7566 21.2996 34.3153C21.2996 34.8741 21.4014 35.3641 21.605 35.7855C21.811 36.2045 22.1034 36.5312 22.4822 36.7656ZM22.1417 33.8324C22.1576 33.5794 22.2214 33.3403 22.333 33.1151C22.4632 32.8523 22.6491 32.6392 22.8905 32.4759C23.1344 32.3101 23.4232 32.2273 23.757 32.2273C24.06 32.2273 24.3228 32.2971 24.5454 32.4368C24.7703 32.5765 24.9431 32.767 25.0638 33.0085C25.1869 33.25 25.2485 33.5246 25.2485 33.8324H22.1417Z" fill="#CFD1DE"/>
<path d="M28.2705 36.7514C28.6398 36.9929 29.0802 37.1136 29.5915 37.1136C29.994 37.1136 30.3467 37.0391 30.6498 36.8899C30.9552 36.7384 31.2002 36.5348 31.3849 36.2791C31.5719 36.0211 31.6891 35.7311 31.7364 35.4091H30.8983C30.8463 35.608 30.7587 35.7784 30.6356 35.9205C30.5125 36.0625 30.3621 36.1714 30.1846 36.2472C30.007 36.3229 29.8093 36.3608 29.5915 36.3608C29.2601 36.3608 28.9713 36.2744 28.7251 36.1016C28.4812 35.9287 28.2918 35.6861 28.1569 35.3736C28.0243 35.0611 27.958 34.6941 27.958 34.2727C27.958 33.8608 28.0255 33.5021 28.1604 33.1967C28.2977 32.889 28.4883 32.651 28.7322 32.483C28.9784 32.3125 29.2648 32.2273 29.5915 32.2273C29.9608 32.2273 30.2544 32.3243 30.4722 32.5185C30.6924 32.7102 30.8344 32.9304 30.8983 33.179H31.7364C31.6891 32.8381 31.5671 32.5398 31.3706 32.2841C31.1742 32.0284 30.922 31.8295 30.6143 31.6875C30.3065 31.5455 29.9608 31.4744 29.5773 31.4744C29.0849 31.4744 28.654 31.5952 28.2847 31.8366C27.9178 32.0758 27.6313 32.4084 27.4253 32.8345C27.2217 33.2583 27.1199 33.7472 27.1199 34.3011C27.1199 34.8456 27.2194 35.3298 27.4182 35.7536C27.6171 36.1773 27.9012 36.5099 28.2705 36.7514Z" fill="#CFD1DE"/>
<path d="M35.3337 32.2557V31.5455H34.1689V30.2386H33.3309V31.5455H32.507V32.2557H33.3309V35.6648C33.3309 35.982 33.4043 36.2448 33.551 36.4531C33.7002 36.6615 33.8872 36.8165 34.1121 36.9183C34.3394 37.0201 34.5714 37.071 34.8082 37.071C34.9644 37.071 35.0934 37.0592 35.1952 37.0355C35.297 37.0142 35.3763 36.9929 35.4332 36.9716L35.2627 36.2188L35.1207 36.2472C35.0615 36.2566 34.9857 36.2614 34.8934 36.2614C34.7703 36.2614 34.6531 36.2424 34.5418 36.2045C34.4329 36.1643 34.343 36.0862 34.2719 35.9702C34.2033 35.8518 34.1689 35.6742 34.1689 35.4375V32.2557H35.3337Z" fill="#CFD1DE"/>
<path fill-rule="evenodd" clip-rule="evenodd" d="M37.4555 36.7621C37.8272 36.9964 38.2593 37.1136 38.7517 37.1136C39.2441 37.1136 39.675 36.9964 40.0443 36.7621C40.416 36.5277 40.7048 36.1998 40.9108 35.7784C41.1191 35.357 41.2233 34.8646 41.2233 34.3011C41.2233 33.733 41.1191 33.237 40.9108 32.8132C40.7048 32.3894 40.416 32.0604 40.0443 31.826C39.675 31.5916 39.2441 31.4744 38.7517 31.4744C38.2593 31.4744 37.8272 31.5916 37.4555 31.826C37.0862 32.0604 36.7974 32.3894 36.589 32.8132C36.3831 33.237 36.2801 33.733 36.2801 34.3011C36.2801 34.8646 36.3831 35.357 36.589 35.7784C36.7974 36.1998 37.0862 36.5277 37.4555 36.7621ZM39.675 36.0732C39.4335 36.2649 39.1257 36.3608 38.7517 36.3608C38.3776 36.3608 38.0699 36.2649 37.8284 36.0732C37.5869 35.8814 37.4082 35.6293 37.2922 35.3168C37.1762 35.0043 37.1182 34.6657 37.1182 34.3011C37.1182 33.9366 37.1762 33.5968 37.2922 33.282C37.4082 32.9671 37.5869 32.7126 37.8284 32.5185C38.0699 32.3243 38.3776 32.2273 38.7517 32.2273C39.1257 32.2273 39.4335 32.3243 39.675 32.5185C39.9165 32.7126 40.0952 32.9671 40.2112 33.282C40.3272 33.5968 40.3852 33.9366 40.3852 34.3011C40.3852 34.6657 40.3272 35.0043 40.2112 35.3168C40.0952 35.6293 39.9165 35.8814 39.675 36.0732Z" fill="#CFD1DE"/>
<path d="M45.6134 32.9801L46.3662 32.767C46.236 32.3788 46.0158 32.0663 45.7057 31.8295C45.3979 31.5928 44.9742 31.4744 44.4344 31.4744C44.0509 31.4744 43.7076 31.5419 43.4046 31.6768C43.1039 31.8118 42.866 31.9976 42.6908 32.2344C42.518 32.4711 42.4316 32.7434 42.4316 33.0511C42.4316 33.4276 42.5476 33.7412 42.7796 33.9922C43.0139 34.2408 43.3809 34.4242 43.8804 34.5426L44.7895 34.7557C45.0641 34.8196 45.2677 34.9167 45.4003 35.0469C45.5329 35.1747 45.5992 35.3333 45.5992 35.5227C45.5992 35.7571 45.4832 35.9583 45.2512 36.1264C45.0215 36.2921 44.7114 36.375 44.3208 36.375C43.9775 36.375 43.6993 36.3016 43.4862 36.1548C43.2755 36.008 43.1323 35.7879 43.0566 35.4943L42.2611 35.6932C42.3582 36.1572 42.589 36.5099 42.9536 36.7514C43.3182 36.9929 43.7786 37.1136 44.335 37.1136C44.7587 37.1136 45.1304 37.0426 45.45 36.9006C45.7696 36.7585 46.0182 36.5644 46.1958 36.3182C46.3757 36.072 46.4656 35.7926 46.4656 35.4801C46.4656 35.099 46.3461 34.7876 46.107 34.5462C45.8679 34.3023 45.5045 34.1212 45.0168 34.0028L44.2071 33.804C43.8852 33.7235 43.6484 33.6229 43.4969 33.5021C43.3454 33.3814 43.2696 33.2169 43.2696 33.0085C43.2696 32.7741 43.3797 32.5812 43.5999 32.4297C43.8224 32.2758 44.1006 32.1989 44.4344 32.1989C44.6782 32.1989 44.8783 32.2379 45.0345 32.3161C45.1908 32.3942 45.3139 32.4936 45.4039 32.6143C45.4962 32.7327 45.566 32.8546 45.6134 32.9801Z" fill="#CFD1DE"/>
</svg>
