<svg width="6" height="12" viewBox="0 0 6 12" fill="none" xmlns="http://www.w3.org/2000/svg">
<path fill-rule="evenodd" clip-rule="evenodd" d="M2.36151 1.28609C2.36151 0.987858 2.60327 0.746094 2.9015 0.746094C3.19973 0.746094 3.4415 0.987857 3.4415 1.28609V1.84026C4.56864 2.07542 5.41749 3.10748 5.41749 4.34503C5.41749 4.79338 5.06682 5.15685 4.63426 5.15685C4.20169 5.15685 3.85102 4.79338 3.85102 4.34503C3.85102 3.83062 3.44869 3.41361 2.9524 3.41361C2.4561 3.41361 2.05378 3.83062 2.05378 4.34503C2.05378 4.85944 2.4561 5.27645 2.9524 5.27645C2.96235 5.27645 2.97225 5.27664 2.98211 5.27702C4.33003 5.29331 5.41788 6.43093 5.41788 7.8319C5.41788 9.0696 4.56882 10.1017 3.44149 10.3368L3.44149 10.9386C3.44149 11.2368 3.19972 11.4786 2.90149 11.4786C2.60326 11.4786 2.3615 11.2368 2.3615 10.9386L2.3615 10.313C1.28563 10.0385 0.48769 9.03176 0.48769 7.8319C0.48769 7.38354 0.838356 7.02008 1.27093 7.02008C1.70349 7.02008 2.05416 7.38354 2.05416 7.8319C2.05416 8.34631 2.45649 8.76332 2.95278 8.76332C3.44908 8.76332 3.85141 8.34631 3.85141 7.8319C3.85141 7.31749 3.44908 6.90048 2.95278 6.90048C2.94283 6.90048 2.93293 6.90029 2.92307 6.89991C1.57515 6.88362 0.487305 5.746 0.487305 4.34503C0.487305 3.14502 1.28544 2.13823 2.36151 1.86384V1.28609Z" fill="#55B3FF"/>
</svg>
