<svg width="38" height="36" viewBox="0 0 38 36" fill="none" xmlns="http://www.w3.org/2000/svg">
<path fill-rule="evenodd" clip-rule="evenodd" d="M10.6376 0.0351562C8.40637 0.0351562 6.5976 1.84392 6.5976 4.07516V18.2412C6.5976 20.4724 8.40637 22.2812 10.6376 22.2812H26.761C28.9922 22.2812 30.801 20.4724 30.801 18.2412V8.02585C30.801 5.79462 28.9922 3.98585 26.761 3.98585H10.1116C9.55397 3.98585 9.1019 3.53378 9.1019 2.97611C9.1019 2.91056 9.09565 2.84646 9.08372 2.78439C9.45426 2.33882 10.0128 2.05516 10.6376 2.05516H27.7949C28.3527 2.05516 28.8049 1.60296 28.8049 1.04516C28.8049 0.487349 28.3527 0.0351562 27.7949 0.0351562H10.6376ZM8.6176 18.2412V5.61247C9.05849 5.86286 9.56837 6.00585 10.1116 6.00585H26.761C27.8766 6.00585 28.781 6.91024 28.781 8.02585V18.2412C28.781 19.3568 27.8766 20.2612 26.761 20.2612H10.6376C9.52199 20.2612 8.6176 19.3568 8.6176 18.2412Z" fill="#55B3FF"/>
<path fill-rule="evenodd" clip-rule="evenodd" d="M0.483398 27.7275V35.0002H3.11124C3.68416 35.0002 4.14935 34.915 4.50684 34.7446C4.86432 34.5741 5.12592 34.3433 5.29164 34.0521C5.45736 33.7609 5.54022 33.433 5.54022 33.0684C5.54022 32.6849 5.46446 32.3606 5.31294 32.0954C5.16143 31.8303 4.97322 31.6267 4.74831 31.4846C4.52341 31.3426 4.29969 31.2644 4.07715 31.2502V31.1792C4.28548 31.1224 4.47843 31.0348 4.65598 30.9164C4.83591 30.7981 4.98032 30.6371 5.08922 30.4335C5.20049 30.2299 5.25613 29.9718 5.25613 29.6593C5.25613 29.3042 5.17563 28.9811 5.01465 28.6899C4.85366 28.3963 4.60864 28.1631 4.27956 27.9903C3.95049 27.8151 3.53264 27.7275 3.02601 27.7275H0.483398ZM3.11124 34.219H1.36408V31.6906H3.15385C3.47109 31.6906 3.74571 31.7545 3.97772 31.8823C4.20972 32.0078 4.38846 32.1759 4.51394 32.3866C4.63941 32.5949 4.70215 32.8222 4.70215 33.0684C4.70215 33.388 4.58023 33.6603 4.33638 33.8852C4.0949 34.1077 3.68652 34.219 3.11124 34.219ZM2.9976 30.9235H1.36408V28.5088H3.02601C3.50897 28.5088 3.86171 28.6212 4.08425 28.8461C4.30679 29.0687 4.41806 29.3397 4.41806 29.6593C4.41806 29.915 4.35414 30.1375 4.2263 30.3269C4.10082 30.5163 3.93037 30.6631 3.71493 30.7673C3.50186 30.8714 3.26275 30.9235 2.9976 30.9235Z" fill="#55B3FF"/>
<path d="M6.87367 29.5457V35.0002H7.71174V29.5457H6.87367Z" fill="#55B3FF"/>
<path d="M6.87722 28.4697C6.99559 28.581 7.13645 28.6366 7.2998 28.6366C7.46316 28.6366 7.60283 28.581 7.71884 28.4697C7.83721 28.3584 7.8964 28.2247 7.8964 28.0684C7.8964 27.9122 7.83721 27.7784 7.71884 27.6671C7.60283 27.5559 7.46316 27.5002 7.2998 27.5002C7.13645 27.5002 6.99559 27.5559 6.87722 27.6671C6.76122 27.7784 6.70321 27.9122 6.70321 28.0684C6.70321 28.2247 6.76122 28.3584 6.87722 28.4697Z" fill="#55B3FF"/>
<path d="M10.0848 35.0002V27.7275H9.24671V35.0002H10.0848Z" fill="#55B3FF"/>
<path d="M12.4578 35.0002V27.7275H11.6198V35.0002H12.4578Z" fill="#55B3FF"/>
<path fill-rule="evenodd" clip-rule="evenodd" d="M14.9197 34.7659C15.3008 34.9979 15.7542 35.1139 16.2797 35.1139C16.6491 35.1139 16.9817 35.0571 17.2776 34.9434C17.5735 34.8274 17.8221 34.6664 18.0233 34.4605C18.2246 34.2521 18.3678 34.0107 18.453 33.736L17.6434 33.5088C17.5724 33.6982 17.4717 33.8568 17.3415 33.9846C17.2113 34.1101 17.0563 34.2048 16.8763 34.2687C16.6988 34.3303 16.4999 34.361 16.2797 34.361C15.9412 34.361 15.6441 34.2876 15.3884 34.1409C15.1327 33.9917 14.9327 33.7751 14.7883 33.491C14.6595 33.2313 14.5891 32.9199 14.577 32.5571H18.5383V32.2019C18.5383 31.6929 18.4708 31.2644 18.3358 30.9164C18.2009 30.5684 18.0198 30.2891 17.7925 30.0784C17.5653 29.8653 17.3131 29.7114 17.0361 29.6167C16.7591 29.522 16.4786 29.4747 16.1945 29.4747C15.7021 29.4747 15.2712 29.5954 14.9019 29.8369C14.5349 30.076 14.2485 30.4098 14.0425 30.8383C13.8389 31.2644 13.7371 31.7569 13.7371 32.3156C13.7371 32.8743 13.8389 33.3643 14.0425 33.7857C14.2485 34.2048 14.5409 34.5315 14.9197 34.7659ZM14.5792 31.8326C14.5951 31.5796 14.6589 31.3405 14.7705 31.1153C14.9007 30.8525 15.0866 30.6394 15.328 30.4761C15.5719 30.3104 15.8607 30.2275 16.1945 30.2275C16.4975 30.2275 16.7603 30.2973 16.9829 30.437C17.2078 30.5767 17.3806 30.7673 17.5013 31.0088C17.6244 31.2502 17.686 31.5249 17.686 31.8326H14.5792Z" fill="#55B3FF"/>
<path d="M22.1853 30.2559V29.5457H21.0205V28.2389H20.1824V29.5457H19.3586V30.2559H20.1824V33.665C20.1824 33.9822 20.2558 34.245 20.4026 34.4534C20.5518 34.6617 20.7388 34.8168 20.9637 34.9186C21.191 35.0204 21.423 35.0713 21.6597 35.0713C21.816 35.0713 21.945 35.0594 22.0468 35.0357C22.1486 35.0144 22.2279 34.9931 22.2847 34.9718L22.1143 34.219L21.9722 34.2474C21.913 34.2569 21.8373 34.2616 21.7449 34.2616C21.6218 34.2616 21.5046 34.2427 21.3934 34.2048C21.2845 34.1645 21.1945 34.0864 21.1235 33.9704C21.0548 33.852 21.0205 33.6745 21.0205 33.4377V30.2559H22.1853Z" fill="#55B3FF"/>
<path fill-rule="evenodd" clip-rule="evenodd" d="M24.3142 34.7659C24.6953 34.9979 25.1487 35.1139 25.6743 35.1139C26.0436 35.1139 26.3762 35.0571 26.6721 34.9434C26.9681 34.8274 27.2166 34.6664 27.4179 34.4605C27.6191 34.2521 27.7623 34.0107 27.8476 33.736L27.0379 33.5088C26.9669 33.6982 26.8663 33.8568 26.7361 33.9846C26.6059 34.1101 26.4508 34.2048 26.2709 34.2687C26.0933 34.3303 25.8944 34.361 25.6743 34.361C25.3357 34.361 25.0386 34.2876 24.7829 34.1409C24.5273 33.9917 24.3272 33.7751 24.1828 33.491C24.054 33.2313 23.9836 32.9199 23.9716 32.5571H27.9328V32.2019C27.9328 31.6929 27.8653 31.2644 27.7304 30.9164C27.5954 30.5684 27.4143 30.2891 27.1871 30.0784C26.9598 29.8653 26.7077 29.7114 26.4307 29.6167C26.1537 29.522 25.8731 29.4747 25.589 29.4747C25.0966 29.4747 24.6657 29.5954 24.2964 29.8369C23.9295 30.076 23.643 30.4098 23.4371 30.8383C23.2335 31.2644 23.1317 31.7569 23.1317 32.3156C23.1317 32.8743 23.2335 33.3643 23.4371 33.7857C23.643 34.2048 23.9354 34.5315 24.3142 34.7659ZM23.9737 31.8326C23.9897 31.5796 24.0535 31.3405 24.165 31.1153C24.2952 30.8525 24.4811 30.6394 24.7226 30.4761C24.9664 30.3104 25.2552 30.2275 25.589 30.2275C25.8921 30.2275 26.1549 30.2973 26.3774 30.437C26.6023 30.5767 26.7751 30.7673 26.8959 31.0088C27.019 31.2502 27.0805 31.5249 27.0805 31.8326H23.9737Z" fill="#55B3FF"/>
<path d="M29.2077 29.5457V35.0002H30.0457V31.5485C30.0457 31.3023 30.1049 31.0833 30.2233 30.8916C30.344 30.6974 30.5074 30.5459 30.7133 30.437C30.9217 30.3258 31.1584 30.2701 31.4236 30.2701C31.5348 30.2701 31.6402 30.2784 31.7396 30.295C31.8414 30.3092 31.9065 30.3198 31.9349 30.3269V29.4747C31.8876 29.4699 31.8177 29.4664 31.7254 29.464C31.6331 29.4616 31.5561 29.4605 31.4946 29.4605C31.1679 29.4605 30.8743 29.5445 30.6139 29.7126C30.3535 29.8807 30.1736 30.0997 30.0741 30.3696H30.0173V29.5457H29.2077Z" fill="#55B3FF"/>
<path fill-rule="evenodd" clip-rule="evenodd" d="M33.5924 34.9328C33.8741 35.063 34.1878 35.1281 34.5335 35.1281C34.8507 35.1281 35.1194 35.0807 35.3396 34.986C35.5597 34.8913 35.7361 34.7765 35.8687 34.6416C36.0013 34.5066 36.096 34.38 36.1528 34.2616H36.1954V35.0002H37.0335V31.4065C37.0335 30.9732 36.9624 30.6276 36.8204 30.3696C36.6784 30.1115 36.4996 29.9186 36.2842 29.7907C36.0711 29.6629 35.8498 29.5788 35.6201 29.5386C35.3928 29.496 35.1916 29.4747 35.0164 29.4747C34.7418 29.4747 34.4624 29.5125 34.1784 29.5883C33.8966 29.6617 33.6362 29.7919 33.3971 29.9789C33.1604 30.1636 32.971 30.4216 32.8289 30.7531L33.6244 31.0372C33.7167 30.8383 33.8765 30.6513 34.1038 30.4761C34.3311 30.3009 34.6447 30.2133 35.0448 30.2133C35.4307 30.2133 35.7184 30.3104 35.9078 30.5045C36.0995 30.6986 36.1954 30.9709 36.1954 31.3213V31.3497C36.1954 31.4846 36.1469 31.5793 36.0498 31.6338C35.9551 31.6882 35.8036 31.7273 35.5953 31.7509C35.3893 31.7723 35.1206 31.8042 34.7892 31.8468C34.5358 31.88 34.2837 31.9249 34.0328 31.9818C33.7842 32.0362 33.5569 32.1191 33.3509 32.2303C33.145 32.3416 32.9804 32.4955 32.8573 32.692C32.7342 32.8861 32.6727 33.1394 32.6727 33.4519C32.6727 33.8071 32.7555 34.1101 32.9213 34.361C33.087 34.6096 33.3107 34.8002 33.5924 34.9328ZM35.4994 34.1799C35.2721 34.3101 34.9928 34.3752 34.6613 34.3752C34.3275 34.3752 34.0517 34.3018 33.8339 34.1551C33.6185 34.0059 33.5107 33.7857 33.5107 33.4946C33.5107 33.2815 33.5676 33.1134 33.6812 32.9903C33.7972 32.8648 33.9487 32.7713 34.1357 32.7098C34.3251 32.6458 34.5287 32.5997 34.7465 32.5713C34.8365 32.5594 34.9537 32.5452 35.0981 32.5286C35.2449 32.5097 35.3952 32.4884 35.5491 32.4647C35.7053 32.4387 35.8427 32.4091 35.961 32.3759C36.0818 32.3404 36.1599 32.3014 36.1954 32.2588V33.0258C36.1954 33.2531 36.1362 33.4697 36.0178 33.6757C35.9018 33.8816 35.729 34.0497 35.4994 34.1799Z" fill="#55B3FF"/>
</svg>
