<svg width="46" height="40" viewBox="0 0 46 40" fill="none" xmlns="http://www.w3.org/2000/svg">
<path fill-rule="evenodd" clip-rule="evenodd" d="M28.8567 2.02261H28.6841C28.2676 0.844244 27.1438 0 25.8228 0H19.755C18.434 0 17.3102 0.844243 16.8937 2.02261H16.7211C14.487 2.02261 12.6759 3.8337 12.6759 6.06781V20.2261C12.6759 22.4602 14.487 24.2713 16.7211 24.2713H28.8567C31.0908 24.2713 32.9019 22.4602 32.9019 20.2261V6.06782C32.9019 3.83371 31.0908 2.02261 28.8567 2.02261ZM14.6985 6.06781C14.6985 4.95076 15.604 4.04521 16.7211 4.04521C16.7211 5.72079 18.0794 7.07912 19.755 7.07912H25.8228C27.4984 7.07912 28.8567 5.72079 28.8567 4.04521C29.9738 4.04521 30.8793 4.95076 30.8793 6.06782V20.2261C30.8793 21.3431 29.9738 22.2487 28.8567 22.2487H16.7211C15.604 22.2487 14.6985 21.3431 14.6985 20.2261V6.06781ZM19.755 2.02261C19.1965 2.02261 18.7437 2.47538 18.7437 3.03391V4.04521C18.7437 4.60374 19.1965 5.05651 19.755 5.05651H25.8228C26.3813 5.05651 26.8341 4.60374 26.8341 4.04521V3.03391C26.8341 2.47538 26.3813 2.02261 25.8228 2.02261H19.755Z" fill="#CFD1DE"/>
<path fill-rule="evenodd" clip-rule="evenodd" d="M0.0612793 29.7273V37H0.941961V34.3438H2.53287C3.09868 34.3438 3.5627 34.2408 3.92492 34.0348C4.28713 33.8265 4.55465 33.5471 4.72747 33.1967C4.90266 32.8464 4.99026 32.4569 4.99026 32.0284C4.99026 31.5999 4.90266 31.2116 4.72747 30.8636C4.55228 30.5156 4.2824 30.2398 3.91781 30.0362C3.5556 29.8303 3.08921 29.7273 2.51867 29.7273H0.0612793ZM0.941961 33.5625H2.50446C2.89509 33.5625 3.20877 33.495 3.44551 33.3601C3.68225 33.2251 3.85389 33.0429 3.96043 32.8132C4.06933 32.5812 4.12378 32.3196 4.12378 32.0284C4.12378 31.7372 4.06933 31.4768 3.96043 31.2472C3.85389 31.0175 3.68107 30.8376 3.44196 30.7074C3.20285 30.5748 2.88562 30.5085 2.49026 30.5085H0.941961V33.5625Z" fill="#CFD1DE"/>
<path d="M6.2953 31.5455V37H7.13337V33.5483C7.13337 33.3021 7.19255 33.0831 7.31092 32.8913C7.43166 32.6972 7.59502 32.5457 7.80098 32.4368C8.00931 32.3255 8.24606 32.2699 8.51121 32.2699C8.62248 32.2699 8.72783 32.2782 8.82726 32.2947C8.92906 32.3089 8.99416 32.3196 9.02257 32.3267V31.4744C8.97522 31.4697 8.90538 31.4661 8.81306 31.4638C8.72073 31.4614 8.64378 31.4602 8.58223 31.4602C8.25553 31.4602 7.96197 31.5443 7.70155 31.7124C7.44113 31.8804 7.26121 32.0994 7.16178 32.3693H7.10496V31.5455H6.2953Z" fill="#CFD1DE"/>
<path fill-rule="evenodd" clip-rule="evenodd" d="M10.7697 36.7621C11.1414 36.9964 11.5735 37.1136 12.0659 37.1136C12.5583 37.1136 12.9892 36.9964 13.3585 36.7621C13.7302 36.5277 14.019 36.1998 14.225 35.7784C14.4333 35.357 14.5375 34.8646 14.5375 34.3011C14.5375 33.733 14.4333 33.237 14.225 32.8132C14.019 32.3894 13.7302 32.0604 13.3585 31.826C12.9892 31.5916 12.5583 31.4744 12.0659 31.4744C11.5735 31.4744 11.1414 31.5916 10.7697 31.826C10.4004 32.0604 10.1116 32.3894 9.90325 32.8132C9.69729 33.237 9.59431 33.733 9.59431 34.3011C9.59431 34.8646 9.69729 35.357 9.90325 35.7784C10.1116 36.1998 10.4004 36.5277 10.7697 36.7621ZM12.9892 36.0732C12.7477 36.2649 12.4399 36.3608 12.0659 36.3608C11.6918 36.3608 11.3841 36.2649 11.1426 36.0732C10.9011 35.8814 10.7224 35.6293 10.6064 35.3168C10.4904 35.0043 10.4324 34.6657 10.4324 34.3011C10.4324 33.9366 10.4904 33.5968 10.6064 33.282C10.7224 32.9671 10.9011 32.7126 11.1426 32.5185C11.3841 32.3243 11.6918 32.2273 12.0659 32.2273C12.4399 32.2273 12.7477 32.3243 12.9892 32.5185C13.2307 32.7126 13.4094 32.9671 13.5254 33.282C13.6414 33.5968 13.6994 33.9366 13.6994 34.3011C13.6994 34.6657 13.6414 35.0043 13.5254 35.3168C13.4094 35.6293 13.2307 35.8814 12.9892 36.0732Z" fill="#CFD1DE"/>
<path d="M15.7813 39.0099C15.8925 39.0336 16.0192 39.0455 16.1612 39.0455C16.4146 39.0455 16.6418 39.0005 16.8431 38.9105C17.0467 38.8205 17.2254 38.6821 17.3793 38.495C17.5332 38.3104 17.6622 38.0772 17.7664 37.7955L20.0817 31.5455H19.1726L17.6669 35.892H17.6101L16.1044 31.5455H15.1953L17.2124 37.0284L17.0561 37.4545C16.9543 37.7315 16.8419 37.9316 16.7188 38.0547C16.598 38.1802 16.4595 38.25 16.3033 38.2642C16.147 38.2784 15.9671 38.2595 15.7635 38.2074L15.5504 38.946C15.5931 38.9673 15.67 38.9886 15.7813 39.0099Z" fill="#CFD1DE"/>
<path fill-rule="evenodd" clip-rule="evenodd" d="M21.9194 36.7656C22.3006 36.9976 22.7539 37.1136 23.2795 37.1136C23.6488 37.1136 23.9814 37.0568 24.2774 36.9432C24.5733 36.8272 24.8219 36.6662 25.0231 36.4602C25.2243 36.2519 25.3676 36.0104 25.4528 35.7358L24.6431 35.5085C24.5721 35.6979 24.4715 35.8565 24.3413 35.9844C24.2111 36.1098 24.056 36.2045 23.8761 36.2685C23.6985 36.33 23.4997 36.3608 23.2795 36.3608C22.941 36.3608 22.6438 36.2874 22.3882 36.1406C22.1325 35.9915 21.9324 35.7749 21.788 35.4908C21.6592 35.231 21.5888 34.9197 21.5768 34.5568H25.538V34.2017C25.538 33.6927 25.4705 33.2642 25.3356 32.9162C25.2007 32.5682 25.0196 32.2888 24.7923 32.0781C24.565 31.8651 24.3129 31.7112 24.0359 31.6165C23.7589 31.5218 23.4784 31.4744 23.1943 31.4744C22.7018 31.4744 22.271 31.5952 21.9017 31.8366C21.5347 32.0758 21.2482 32.4096 21.0423 32.8381C20.8387 33.2642 20.7369 33.7566 20.7369 34.3153C20.7369 34.8741 20.8387 35.3641 21.0423 35.7855C21.2482 36.2045 21.5406 36.5312 21.9194 36.7656ZM21.5789 33.8324C21.5949 33.5794 21.6587 33.3403 21.7703 33.1151C21.9005 32.8523 22.0863 32.6392 22.3278 32.4759C22.5716 32.3101 22.8605 32.2273 23.1943 32.2273C23.4973 32.2273 23.7601 32.2971 23.9826 32.4368C24.2075 32.5765 24.3803 32.767 24.5011 33.0085C24.6242 33.25 24.6857 33.5246 24.6857 33.8324H21.5789Z" fill="#CFD1DE"/>
<path d="M27.7078 36.7514C28.0771 36.9929 28.5174 37.1136 29.0288 37.1136C29.4312 37.1136 29.784 37.0391 30.087 36.8899C30.3924 36.7384 30.6375 36.5348 30.8221 36.2791C31.0091 36.0211 31.1263 35.7311 31.1737 35.4091H30.3356C30.2835 35.608 30.1959 35.7784 30.0728 35.9205C29.9497 36.0625 29.7994 36.1714 29.6218 36.2472C29.4443 36.3229 29.2466 36.3608 29.0288 36.3608C28.6973 36.3608 28.4085 36.2744 28.1623 36.1016C27.9185 35.9287 27.7291 35.6861 27.5941 35.3736C27.4616 35.0611 27.3953 34.6941 27.3953 34.2727C27.3953 33.8608 27.4627 33.5021 27.5977 33.1967C27.735 32.889 27.9256 32.651 28.1694 32.483C28.4156 32.3125 28.7021 32.2273 29.0288 32.2273C29.3981 32.2273 29.6917 32.3243 29.9095 32.5185C30.1296 32.7102 30.2717 32.9304 30.3356 33.179H31.1737C31.1263 32.8381 31.0044 32.5398 30.8079 32.2841C30.6114 32.0284 30.3593 31.8295 30.0515 31.6875C29.7437 31.5455 29.3981 31.4744 29.0146 31.4744C28.5222 31.4744 28.0913 31.5952 27.722 31.8366C27.355 32.0758 27.0686 32.4084 26.8626 32.8345C26.659 33.2583 26.5572 33.7472 26.5572 34.3011C26.5572 34.8456 26.6566 35.3298 26.8555 35.7536C27.0544 36.1773 27.3384 36.5099 27.7078 36.7514Z" fill="#CFD1DE"/>
<path d="M34.771 32.2557V31.5455H33.6062V30.2386H32.7681V31.5455H31.9443V32.2557H32.7681V35.6648C32.7681 35.982 32.8415 36.2448 32.9883 36.4531C33.1375 36.6615 33.3245 36.8165 33.5494 36.9183C33.7767 37.0201 34.0087 37.071 34.2454 37.071C34.4017 37.071 34.5307 37.0592 34.6325 37.0355C34.7343 37.0142 34.8136 36.9929 34.8704 36.9716L34.7 36.2188L34.5579 36.2472C34.4987 36.2566 34.423 36.2614 34.3306 36.2614C34.2075 36.2614 34.0903 36.2424 33.9791 36.2045C33.8702 36.1643 33.7802 36.0862 33.7092 35.9702C33.6405 35.8518 33.6062 35.6742 33.6062 35.4375V32.2557H34.771Z" fill="#CFD1DE"/>
<path fill-rule="evenodd" clip-rule="evenodd" d="M36.8928 36.7621C37.2645 36.9964 37.6965 37.1136 38.1889 37.1136C38.6814 37.1136 39.1122 36.9964 39.4816 36.7621C39.8532 36.5277 40.1421 36.1998 40.348 35.7784C40.5564 35.357 40.6605 34.8646 40.6605 34.3011C40.6605 33.733 40.5564 33.237 40.348 32.8132C40.1421 32.3894 39.8532 32.0604 39.4816 31.826C39.1122 31.5916 38.6814 31.4744 38.1889 31.4744C37.6965 31.4744 37.2645 31.5916 36.8928 31.826C36.5235 32.0604 36.2346 32.3894 36.0263 32.8132C35.8203 33.237 35.7174 33.733 35.7174 34.3011C35.7174 34.8646 35.8203 35.357 36.0263 35.7784C36.2346 36.1998 36.5235 36.5277 36.8928 36.7621ZM39.1122 36.0732C38.8708 36.2649 38.563 36.3608 38.1889 36.3608C37.8149 36.3608 37.5071 36.2649 37.2656 36.0732C37.0242 35.8814 36.8454 35.6293 36.7294 35.3168C36.6134 35.0043 36.5554 34.6657 36.5554 34.3011C36.5554 33.9366 36.6134 33.5968 36.7294 33.282C36.8454 32.9671 37.0242 32.7126 37.2656 32.5185C37.5071 32.3243 37.8149 32.2273 38.1889 32.2273C38.563 32.2273 38.8708 32.3243 39.1122 32.5185C39.3537 32.7126 39.5325 32.9671 39.6485 33.282C39.7645 33.5968 39.8225 33.9366 39.8225 34.3011C39.8225 34.6657 39.7645 35.0043 39.6485 35.3168C39.5325 35.6293 39.3537 35.8814 39.1122 36.0732Z" fill="#CFD1DE"/>
<path d="M45.0506 32.9801L45.8035 32.767C45.6733 32.3788 45.4531 32.0663 45.143 31.8295C44.8352 31.5928 44.4114 31.4744 43.8717 31.4744C43.4881 31.4744 43.1449 31.5419 42.8418 31.6768C42.5412 31.8118 42.3032 31.9976 42.128 32.2344C41.9552 32.4711 41.8688 32.7434 41.8688 33.0511C41.8688 33.4276 41.9848 33.7412 42.2168 33.9922C42.4512 34.2408 42.8181 34.4242 43.3177 34.5426L44.2268 34.7557C44.5014 34.8196 44.705 34.9167 44.8376 35.0469C44.9701 35.1747 45.0364 35.3333 45.0364 35.5227C45.0364 35.7571 44.9204 35.9583 44.6884 36.1264C44.4588 36.2921 44.1486 36.375 43.758 36.375C43.4147 36.375 43.1366 36.3016 42.9235 36.1548C42.7128 36.008 42.5696 35.7879 42.4938 35.4943L41.6984 35.6932C41.7954 36.1572 42.0262 36.5099 42.3908 36.7514C42.7554 36.9929 43.2159 37.1136 43.7722 37.1136C44.196 37.1136 44.5677 37.0426 44.8873 36.9006C45.2069 36.7585 45.4555 36.5644 45.633 36.3182C45.8129 36.072 45.9029 35.7926 45.9029 35.4801C45.9029 35.099 45.7833 34.7876 45.5442 34.5462C45.3051 34.3023 44.9417 34.1212 44.454 34.0028L43.6444 33.804C43.3224 33.7235 43.0857 33.6229 42.9342 33.5021C42.7826 33.3814 42.7069 33.2169 42.7069 33.0085C42.7069 32.7741 42.817 32.5812 43.0371 32.4297C43.2597 32.2758 43.5378 32.1989 43.8717 32.1989C44.1155 32.1989 44.3155 32.2379 44.4718 32.3161C44.628 32.3942 44.7511 32.4936 44.8411 32.6143C44.9334 32.7327 45.0033 32.8546 45.0506 32.9801Z" fill="#CFD1DE"/>
</svg>
