<svg width="24" height="37" viewBox="0 0 24 37" fill="none" xmlns="http://www.w3.org/2000/svg">
<path fill-rule="evenodd" clip-rule="evenodd" d="M6.68225 6.07954C6.68225 2.72837 9.39891 0.0117188 12.7501 0.0117188C16.1012 0.0117188 18.8179 2.72837 18.8179 6.07954C18.8179 9.4307 16.1012 12.1474 12.7501 12.1474C9.39891 12.1474 6.68225 9.4307 6.68225 6.07954ZM12.7501 2.03432C10.516 2.03432 8.70486 3.84543 8.70486 6.07954C8.70486 8.31364 10.516 10.1247 12.7501 10.1247C14.9842 10.1247 16.7953 8.31364 16.7953 6.07954C16.7953 3.84543 14.9842 2.03432 12.7501 2.03432Z" fill="#55B3FF"/>
<path d="M12.7501 16.6982C10.3504 16.6982 8.07656 17.2313 6.52044 17.7117C5.6297 17.9866 4.97516 18.7933 4.81497 19.8231L4.64763 20.8989C4.56178 21.4508 4.04479 21.8286 3.4929 21.7427C2.94101 21.6569 2.56321 21.1399 2.64906 20.588L2.8164 19.5122C3.07809 17.8299 4.19204 16.3137 5.92385 15.7791C7.58671 15.2657 10.0741 14.6756 12.7501 14.6756C15.4261 14.6756 17.9134 15.2657 19.5763 15.7791C21.3081 16.3137 22.422 17.8299 22.6837 19.5122L22.8511 20.588C22.9369 21.1399 22.5591 21.6569 22.0072 21.7427C21.4553 21.8286 20.9384 21.4508 20.8525 20.8989L20.6852 19.8231C20.525 18.7933 19.8704 17.9866 18.9797 17.7117C17.4236 17.2313 15.1498 16.6982 12.7501 16.6982Z" fill="#55B3FF"/>
<path fill-rule="evenodd" clip-rule="evenodd" d="M0.370117 28.7277V36.0004H1.2508V33.3442H2.84171C3.40752 33.3442 3.87154 33.2412 4.23375 33.0352C4.59597 32.8269 4.86349 32.5475 5.03631 32.1971C5.2115 31.8468 5.29909 31.4573 5.29909 31.0288C5.29909 30.6003 5.2115 30.2121 5.03631 29.8641C4.86112 29.516 4.59123 29.2402 4.22665 29.0366C3.86444 28.8307 3.39805 28.7277 2.8275 28.7277H0.370117ZM1.2508 32.5629H2.8133C3.20392 32.5629 3.51761 32.4954 3.75435 32.3605C3.99109 32.2256 4.16273 32.0433 4.26927 31.8136C4.37817 31.5816 4.43262 31.32 4.43262 31.0288C4.43262 30.7376 4.37817 30.4772 4.26927 30.2476C4.16273 30.0179 3.98991 29.838 3.7508 29.7078C3.51169 29.5752 3.19445 29.5089 2.79909 29.5089H1.2508V32.5629Z" fill="#55B3FF"/>
<path fill-rule="evenodd" clip-rule="evenodd" d="M7.47239 35.766C7.85355 35.998 8.30691 36.1141 8.83248 36.1141C9.20179 36.1141 9.53442 36.0572 9.83034 35.9436C10.1263 35.8276 10.3749 35.6666 10.5761 35.4606C10.7773 35.2523 10.9205 35.0108 11.0058 34.7362L10.1961 34.5089C10.1251 34.6983 10.0245 34.8569 9.89427 34.9848C9.76406 35.1103 9.60899 35.205 9.42907 35.2689C9.25151 35.3304 9.05265 35.3612 8.83248 35.3612C8.49393 35.3612 8.19682 35.2878 7.94114 35.141C7.68546 34.9919 7.48541 34.7753 7.341 34.4912C7.2122 34.2314 7.1418 33.9201 7.12978 33.5572H11.091V33.2021C11.091 32.6931 11.0235 32.2646 10.8886 31.9166C10.7536 31.5686 10.5725 31.2892 10.3453 31.0785C10.118 30.8655 9.86586 30.7116 9.58887 30.6169C9.31188 30.5222 9.03134 30.4748 8.74725 30.4748C8.25482 30.4748 7.82395 30.5956 7.45463 30.8371C7.08768 31.0762 6.80123 31.41 6.59526 31.8385C6.39166 32.2646 6.28986 32.757 6.28986 33.3158C6.28986 33.8745 6.39166 34.3645 6.59526 34.7859C6.80123 35.205 7.0936 35.5317 7.47239 35.766ZM7.13192 32.8328C7.14788 32.5798 7.21166 32.3407 7.32324 32.1155C7.45345 31.8527 7.63929 31.6396 7.88077 31.4763C8.12462 31.3105 8.41344 31.2277 8.74725 31.2277C9.05028 31.2277 9.31306 31.2975 9.5356 31.4372C9.76051 31.5769 9.93333 31.7675 10.0541 32.0089C10.1772 32.2504 10.2387 32.525 10.2387 32.8328H7.13192Z" fill="#55B3FF"/>
<path d="M12.3659 30.5459V36.0004H13.2039V32.5487C13.2039 32.3025 13.2631 32.0835 13.3815 31.8918C13.5022 31.6976 13.6656 31.5461 13.8715 31.4372C14.0799 31.3259 14.3166 31.2703 14.5818 31.2703C14.693 31.2703 14.7984 31.2786 14.8978 31.2952C14.9996 31.3094 15.0647 31.32 15.0931 31.3271V30.4748C15.0458 30.4701 14.9759 30.4666 14.8836 30.4642C14.7913 30.4618 14.7143 30.4606 14.6528 30.4606C14.3261 30.4606 14.0325 30.5447 13.7721 30.7128C13.5117 30.8809 13.3318 31.0998 13.2323 31.3697H13.1755V30.5459H12.3659Z" fill="#55B3FF"/>
<path d="M18.8573 31.2561V30.5459H17.6357V29.9919C17.6357 29.722 17.6961 29.5172 17.8169 29.3775C17.94 29.2379 18.14 29.168 18.417 29.168C18.5377 29.168 18.6348 29.1787 18.7082 29.2C18.7839 29.2213 18.8431 29.2391 18.8857 29.2533L19.1272 28.5288C19.0633 28.5004 18.9662 28.4696 18.836 28.4365C18.7058 28.4034 18.5377 28.3868 18.3318 28.3868C18.0713 28.3868 17.824 28.4389 17.5896 28.543C17.3552 28.6472 17.1646 28.8034 17.0178 29.0118C16.8711 29.2201 16.7977 29.4805 16.7977 29.793V30.5459H15.917V31.2561H16.7977V36.0004H17.6357V31.2561H18.8573Z" fill="#55B3FF"/>
<path d="M20.0319 30.5459V36.0004H20.8699V30.5459H20.0319Z" fill="#55B3FF"/>
<path d="M20.0354 29.4699C20.1538 29.5811 20.2947 29.6368 20.458 29.6368C20.6214 29.6368 20.761 29.5811 20.877 29.4699C20.9954 29.3586 21.0546 29.2248 21.0546 29.0686C21.0546 28.9123 20.9954 28.7786 20.877 28.6673C20.761 28.556 20.6214 28.5004 20.458 28.5004C20.2947 28.5004 20.1538 28.556 20.0354 28.6673C19.9194 28.7786 19.8614 28.9123 19.8614 29.0686C19.8614 29.2248 19.9194 29.3586 20.0354 29.4699Z" fill="#55B3FF"/>
<path d="M23.243 36.0004V28.7277H22.4049V36.0004H23.243Z" fill="#55B3FF"/>
</svg>
