<svg width="27" height="38" viewBox="0 0 27 38" fill="none" xmlns="http://www.w3.org/2000/svg">
<path fill-rule="evenodd" clip-rule="evenodd" d="M14.0245 0.196962C13.6679 -0.0656538 13.1819 -0.0656538 12.8252 0.196962L3.94715 6.73445C2.9118 7.49685 2.30054 8.70605 2.30054 9.99182V20.7317C2.30054 22.6866 3.88526 24.2713 5.84011 24.2713H9.37966C10.4967 24.2713 11.4023 23.3657 11.4023 22.2487V16.6865H15.4475V22.2487C15.4475 23.3657 16.353 24.2713 17.4701 24.2713H21.0096C22.9645 24.2713 24.5492 22.6866 24.5492 20.7317V9.99182C24.5492 8.70605 23.938 7.49685 22.9026 6.73445L14.0245 0.196962ZM5.14645 8.36313L13.4249 2.26721L21.7033 8.36313C22.221 8.74433 22.5266 9.34893 22.5266 9.99182V20.7317C22.5266 21.5695 21.8474 22.2487 21.0096 22.2487H17.4701V16.1808C17.4701 15.3431 16.7909 14.6639 15.9531 14.6639H10.8966C10.0588 14.6639 9.37966 15.3431 9.37966 16.1808V22.2487H5.84011C5.00231 22.2487 4.32315 21.5695 4.32315 20.7317V9.99182C4.32315 9.34893 4.62878 8.74433 5.14645 8.36313Z" fill="#CFD1DE"/>
<path d="M0.365234 29.7273V37H1.24592V33.7472H5.12376V37H6.00444V29.7273H5.12376V32.9659H1.24592V29.7273H0.365234Z" fill="#CFD1DE"/>
<path fill-rule="evenodd" clip-rule="evenodd" d="M8.57369 36.7621C8.94537 36.9964 9.37743 37.1136 9.86985 37.1136C10.3623 37.1136 10.7931 36.9964 11.1625 36.7621C11.5342 36.5277 11.823 36.1998 12.0289 35.7784C12.2373 35.357 12.3414 34.8646 12.3414 34.3011C12.3414 33.733 12.2373 33.237 12.0289 32.8132C11.823 32.3894 11.5342 32.0604 11.1625 31.826C10.7931 31.5916 10.3623 31.4744 9.86985 31.4744C9.37743 31.4744 8.94537 31.5916 8.57369 31.826C8.20437 32.0604 7.91554 32.3894 7.70721 32.8132C7.50124 33.237 7.39826 33.733 7.39826 34.3011C7.39826 34.8646 7.50124 35.357 7.70721 35.7784C7.91554 36.1998 8.20437 36.5277 8.57369 36.7621ZM10.7931 36.0732C10.5517 36.2649 10.2439 36.3608 9.86985 36.3608C9.4958 36.3608 9.18803 36.2649 8.94656 36.0732C8.70508 35.8814 8.52634 35.6293 8.41034 35.3168C8.29433 35.0043 8.23633 34.6657 8.23633 34.3011C8.23633 33.9366 8.29433 33.5968 8.41034 33.282C8.52634 32.9671 8.70508 32.7126 8.94656 32.5185C9.18803 32.3243 9.4958 32.2273 9.86985 32.2273C10.2439 32.2273 10.5517 32.3243 10.7931 32.5185C11.0346 32.7126 11.2134 32.9671 11.3294 33.282C11.4454 33.5968 11.5034 33.9366 11.5034 34.3011C11.5034 34.6657 11.4454 35.0043 11.3294 35.3168C11.2134 35.6293 11.0346 35.8814 10.7931 36.0732Z" fill="#CFD1DE"/>
<path d="M13.6207 31.5455V37H14.4588V33.5909C14.4588 33.3234 14.5156 33.0878 14.6293 32.8842C14.7453 32.6783 14.8968 32.5173 15.0838 32.4013C15.2732 32.2853 15.4768 32.2273 15.6946 32.2273C16.0118 32.2273 16.2711 32.3232 16.4723 32.5149C16.6735 32.7043 16.7741 32.9541 16.7741 33.2642V37H17.6264V33.4489C17.6264 33.0961 17.7318 32.8049 17.9425 32.5753C18.1532 32.3433 18.4503 32.2273 18.8338 32.2273C19.1321 32.2273 19.3913 32.3137 19.6115 32.4865C19.8317 32.6593 19.9418 32.947 19.9418 33.3494V37H20.7798V33.3494C20.7798 32.7079 20.6248 32.2356 20.3146 31.9325C20.0045 31.6271 19.6056 31.4744 19.1179 31.4744C18.7273 31.4744 18.3923 31.5585 18.1129 31.7266C17.8336 31.8923 17.6241 32.116 17.4844 32.3977H17.4276C17.2926 32.1065 17.1044 31.8804 16.8629 31.7195C16.6238 31.5561 16.3243 31.4744 15.9645 31.4744C15.6094 31.4744 15.3052 31.5561 15.0518 31.7195C14.7985 31.8804 14.6151 32.1065 14.5014 32.3977H14.4304V31.5455H13.6207Z" fill="#CFD1DE"/>
<path fill-rule="evenodd" clip-rule="evenodd" d="M23.239 36.7656C23.6201 36.9976 24.0735 37.1136 24.5991 37.1136C24.9684 37.1136 25.301 37.0568 25.5969 36.9432C25.8929 36.8272 26.1415 36.6662 26.3427 36.4602C26.5439 36.2519 26.6871 36.0104 26.7724 35.7358L25.9627 35.5085C25.8917 35.6979 25.7911 35.8565 25.6609 35.9844C25.5307 36.1098 25.3756 36.2045 25.1957 36.2685C25.0181 36.33 24.8192 36.3608 24.5991 36.3608C24.2605 36.3608 23.9634 36.2874 23.7077 36.1406C23.4521 35.9915 23.252 35.7749 23.1076 35.4908C22.9788 35.231 22.9084 34.9197 22.8964 34.5568H26.8576V34.2017C26.8576 33.6927 26.7901 33.2642 26.6552 32.9162C26.5202 32.5682 26.3391 32.2888 26.1119 32.0781C25.8846 31.8651 25.6325 31.7112 25.3555 31.6165C25.0785 31.5218 24.7979 31.4744 24.5139 31.4744C24.0214 31.4744 23.5906 31.5952 23.2212 31.8366C22.8543 32.0758 22.5678 32.4096 22.3619 32.8381C22.1583 33.2642 22.0565 33.7566 22.0565 34.3153C22.0565 34.8741 22.1583 35.3641 22.3619 35.7855C22.5678 36.2045 22.8602 36.5312 23.239 36.7656ZM22.8985 33.8324C22.9145 33.5794 22.9783 33.3403 23.0898 33.1151C23.2201 32.8523 23.4059 32.6392 23.6474 32.4759C23.8912 32.3101 24.18 32.2273 24.5139 32.2273C24.8169 32.2273 25.0797 32.2971 25.3022 32.4368C25.5271 32.5765 25.6999 32.767 25.8207 33.0085C25.9438 33.25 26.0053 33.5246 26.0053 33.8324H22.8985Z" fill="#CFD1DE"/>
</svg>
