<svg width="27" height="38" viewBox="0 0 27 38" fill="none" xmlns="http://www.w3.org/2000/svg">
<path fill-rule="evenodd" clip-rule="evenodd" d="M13.7316 1.08368C13.3749 0.821065 12.8889 0.821065 12.5323 1.08368L3.64038 7.63133C2.6137 8.38734 2.00758 9.5864 2.00758 10.8614V21.6467C2.00758 23.5859 3.57964 25.158 5.51888 25.158H9.098C10.2088 25.158 11.1093 24.2575 11.1093 23.1467V17.5732H15.1545V23.1467C15.1545 24.2575 16.055 25.158 17.1658 25.158H20.7449C22.6842 25.158 24.2562 23.5859 24.2562 21.6467V10.8614C24.2562 9.5864 23.6501 8.38734 22.6234 7.63133L13.7316 1.08368ZM4.83968 9.26002L13.1319 3.15392L21.4241 9.26002C21.9331 9.63482 22.2336 10.2293 22.2336 10.8614V21.6467C22.2336 22.4689 21.5671 23.1354 20.7449 23.1354H17.1771V17.0619C17.1771 16.2272 16.5005 15.5506 15.6658 15.5506H10.598C9.76333 15.5506 9.0867 16.2272 9.0867 17.0619V23.1354H5.51888C4.69669 23.1354 4.03018 22.4689 4.03018 21.6467V10.8614C4.03018 10.2293 4.33068 9.63482 4.83968 9.26002Z" fill="#CFD1DE"/>
<path d="M0.0712891 30.614V37.8867H0.951973V34.6339H4.82981V37.8867H5.7105V30.614H4.82981V33.8526H0.951973V30.614H0.0712891Z" fill="#CFD1DE"/>
<path fill-rule="evenodd" clip-rule="evenodd" d="M8.27974 37.6488C8.65143 37.8832 9.08348 38.0004 9.57591 38.0004C10.0683 38.0004 10.4992 37.8832 10.8685 37.6488C11.2402 37.4144 11.529 37.0865 11.735 36.6651C11.9433 36.2437 12.0475 35.7513 12.0475 35.1879C12.0475 34.6197 11.9433 34.1237 11.735 33.6999C11.529 33.2762 11.2402 32.9471 10.8685 32.7127C10.4992 32.4783 10.0683 32.3612 9.57591 32.3612C9.08348 32.3612 8.65143 32.4783 8.27974 32.7127C7.91042 32.9471 7.6216 33.2762 7.41327 33.6999C7.2073 34.1237 7.10432 34.6197 7.10432 35.1879C7.10432 35.7513 7.2073 36.2437 7.41327 36.6651C7.6216 37.0865 7.91042 37.4144 8.27974 37.6488ZM10.4992 36.9599C10.2577 37.1516 9.94996 37.2475 9.57591 37.2475C9.20185 37.2475 8.89409 37.1516 8.65261 36.9599C8.41113 36.7681 8.23239 36.516 8.11639 36.2035C8.00039 35.891 7.94238 35.5524 7.94238 35.1879C7.94238 34.8233 8.00039 34.4835 8.11639 34.1687C8.23239 33.8538 8.41113 33.5993 8.65261 33.4052C8.89409 33.2111 9.20185 33.114 9.57591 33.114C9.94996 33.114 10.2577 33.2111 10.4992 33.4052C10.7407 33.5993 10.9194 33.8538 11.0354 34.1687C11.1514 34.4835 11.2094 34.8233 11.2094 35.1879C11.2094 35.5524 11.1514 35.891 11.0354 36.2035C10.9194 36.516 10.7407 36.7681 10.4992 36.9599Z" fill="#CFD1DE"/>
<path d="M13.3268 32.4322V37.8867H14.1649V34.4776C14.1649 34.2101 14.2217 33.9745 14.3353 33.771C14.4513 33.565 14.6028 33.404 14.7899 33.288C14.9793 33.172 15.1829 33.114 15.4007 33.114C15.7179 33.114 15.9771 33.2099 16.1784 33.4016C16.3796 33.591 16.4802 33.8408 16.4802 34.1509V37.8867H17.3325V34.3356C17.3325 33.9828 17.4378 33.6916 17.6485 33.462C17.8592 33.23 18.1563 33.114 18.5399 33.114C18.8382 33.114 19.0974 33.2004 19.3176 33.3732C19.5377 33.546 19.6478 33.8337 19.6478 34.2361V37.8867H20.4859V34.2361C20.4859 33.5946 20.3308 33.1223 20.0207 32.8192C19.7106 32.5138 19.3116 32.3612 18.824 32.3612C18.4333 32.3612 18.0983 32.4452 17.819 32.6133C17.5396 32.779 17.3301 33.0027 17.1904 33.2844H17.1336C16.9987 32.9933 16.8105 32.7672 16.569 32.6062C16.3299 32.4428 16.0304 32.3612 15.6705 32.3612C15.3154 32.3612 15.0112 32.4428 14.7579 32.6062C14.5046 32.7672 14.3211 32.9933 14.2075 33.2844H14.1365V32.4322H13.3268Z" fill="#CFD1DE"/>
<path fill-rule="evenodd" clip-rule="evenodd" d="M22.945 37.6523C23.3262 37.8843 23.7796 38.0004 24.3051 38.0004C24.6745 38.0004 25.0071 37.9435 25.303 37.8299C25.5989 37.7139 25.8475 37.5529 26.0487 37.3469C26.25 37.1386 26.3932 36.8971 26.4784 36.6225L25.6688 36.3952C25.5977 36.5846 25.4971 36.7433 25.3669 36.8711C25.2367 36.9966 25.0816 37.0913 24.9017 37.1552C24.7242 37.2167 24.5253 37.2475 24.3051 37.2475C23.9666 37.2475 23.6695 37.1741 23.4138 37.0273C23.1581 36.8782 22.9581 36.6616 22.8137 36.3775C22.6849 36.1177 22.6145 35.8064 22.6024 35.4435H26.5637V35.0884C26.5637 34.5794 26.4962 34.1509 26.3612 33.8029C26.2263 33.4549 26.0452 33.1755 25.8179 32.9648C25.5906 32.7518 25.3385 32.5979 25.0615 32.5032C24.7845 32.4085 24.504 32.3612 24.2199 32.3612C23.7275 32.3612 23.2966 32.4819 22.9273 32.7234C22.5603 32.9625 22.2739 33.2963 22.0679 33.7248C21.8643 34.1509 21.7625 34.6433 21.7625 35.2021C21.7625 35.7608 21.8643 36.2508 22.0679 36.6722C22.2739 37.0913 22.5663 37.418 22.945 37.6523ZM22.6046 34.7191C22.6205 34.4661 22.6843 34.227 22.7959 34.0018C22.9261 33.739 23.112 33.5259 23.3534 33.3626C23.5973 33.1968 23.8861 33.114 24.2199 33.114C24.5229 33.114 24.7857 33.1838 25.0083 33.3235C25.2332 33.4632 25.406 33.6538 25.5267 33.8952C25.6498 34.1367 25.7114 34.4113 25.7114 34.7191H22.6046Z" fill="#CFD1DE"/>
</svg>
