<svg width="28" height="38" viewBox="0 0 28 38" fill="none" xmlns="http://www.w3.org/2000/svg">
<path fill-rule="evenodd" clip-rule="evenodd" d="M14.4413 0.196962C14.0846 -0.0656538 13.5986 -0.0656538 13.242 0.196962L4.3639 6.73445C3.32854 7.49685 2.71729 8.70605 2.71729 9.99182V20.7317C2.71729 22.6866 4.30201 24.2713 6.25685 24.2713H9.79641C10.9135 24.2713 11.819 23.3657 11.819 22.2487V16.6865H15.8642V22.2487C15.8642 23.3657 16.7698 24.2713 17.8868 24.2713H21.4264C23.3812 24.2713 24.966 22.6866 24.966 20.7317V9.99182C24.966 8.70605 24.3547 7.49685 23.3193 6.73445L14.4413 0.196962ZM5.5632 8.36313L13.8416 2.26721L22.12 8.36313C22.6377 8.74433 22.9433 9.34893 22.9433 9.99182V20.7317C22.9433 21.5695 22.2642 22.2487 21.4264 22.2487H17.8868V16.1808C17.8868 15.3431 17.2077 14.6639 16.3699 14.6639H11.3134C10.4756 14.6639 9.79641 15.3431 9.79641 16.1808V22.2487H6.25685C5.41906 22.2487 4.7399 21.5695 4.7399 20.7317V9.99182C4.7399 9.34893 5.04552 8.74433 5.5632 8.36313Z" fill="#CFD1DE"/>
<path d="M0.781982 29.7273V37H1.66267V33.7472H5.54051V37H6.42119V29.7273H5.54051V32.9659H1.66267V29.7273H0.781982Z" fill="#CFD1DE"/>
<path fill-rule="evenodd" clip-rule="evenodd" d="M8.99044 36.7621C9.36212 36.9964 9.79418 37.1136 10.2866 37.1136C10.779 37.1136 11.2099 36.9964 11.5792 36.7621C11.9509 36.5277 12.2397 36.1998 12.4457 35.7784C12.654 35.357 12.7582 34.8646 12.7582 34.3011C12.7582 33.733 12.654 33.237 12.4457 32.8132C12.2397 32.3894 11.9509 32.0604 11.5792 31.826C11.2099 31.5916 10.779 31.4744 10.2866 31.4744C9.79418 31.4744 9.36212 31.5916 8.99044 31.826C8.62112 32.0604 8.33229 32.3894 8.12396 32.8132C7.91799 33.237 7.81501 33.733 7.81501 34.3011C7.81501 34.8646 7.91799 35.357 8.12396 35.7784C8.33229 36.1998 8.62112 36.5277 8.99044 36.7621ZM11.2099 36.0732C10.9684 36.2649 10.6607 36.3608 10.2866 36.3608C9.91255 36.3608 9.60478 36.2649 9.36331 36.0732C9.12183 35.8814 8.94309 35.6293 8.82708 35.3168C8.71108 35.0043 8.65308 34.6657 8.65308 34.3011C8.65308 33.9366 8.71108 33.5968 8.82708 33.282C8.94309 32.9671 9.12183 32.7126 9.36331 32.5185C9.60478 32.3243 9.91255 32.2273 10.2866 32.2273C10.6607 32.2273 10.9684 32.3243 11.2099 32.5185C11.4514 32.7126 11.6301 32.9671 11.7461 33.282C11.8621 33.5968 11.9201 33.9366 11.9201 34.3011C11.9201 34.6657 11.8621 35.0043 11.7461 35.3168C11.6301 35.6293 11.4514 35.8814 11.2099 36.0732Z" fill="#CFD1DE"/>
<path d="M14.0375 31.5455V37H14.8756V33.5909C14.8756 33.3234 14.9324 33.0878 15.046 32.8842C15.162 32.6783 15.3135 32.5173 15.5006 32.4013C15.69 32.2853 15.8935 32.2273 16.1114 32.2273C16.4286 32.2273 16.6878 32.3232 16.8891 32.5149C17.0903 32.7043 17.1909 32.9541 17.1909 33.2642V37H18.0432V33.4489C18.0432 33.0961 18.1485 32.8049 18.3592 32.5753C18.5699 32.3433 18.867 32.2273 19.2506 32.2273C19.5489 32.2273 19.8081 32.3137 20.0283 32.4865C20.2484 32.6593 20.3585 32.947 20.3585 33.3494V37H21.1966V33.3494C21.1966 32.7079 21.0415 32.2356 20.7314 31.9325C20.4212 31.6271 20.0223 31.4744 19.5346 31.4744C19.144 31.4744 18.809 31.5585 18.5297 31.7266C18.2503 31.8923 18.0408 32.116 17.9011 32.3977H17.8443C17.7094 32.1065 17.5212 31.8804 17.2797 31.7195C17.0406 31.5561 16.7411 31.4744 16.3812 31.4744C16.0261 31.4744 15.7219 31.5561 15.4686 31.7195C15.2153 31.8804 15.0318 32.1065 14.9182 32.3977H14.8471V31.5455H14.0375Z" fill="#CFD1DE"/>
<path fill-rule="evenodd" clip-rule="evenodd" d="M23.6557 36.7656C24.0369 36.9976 24.4903 37.1136 25.0158 37.1136C25.3851 37.1136 25.7178 37.0568 26.0137 36.9432C26.3096 36.8272 26.5582 36.6662 26.7594 36.4602C26.9607 36.2519 27.1039 36.0104 27.1891 35.7358L26.3795 35.5085C26.3084 35.6979 26.2078 35.8565 26.0776 35.9844C25.9474 36.1098 25.7923 36.2045 25.6124 36.2685C25.4349 36.33 25.236 36.3608 25.0158 36.3608C24.6773 36.3608 24.3802 36.2874 24.1245 36.1406C23.8688 35.9915 23.6688 35.7749 23.5243 35.4908C23.3956 35.231 23.3251 34.9197 23.3131 34.5568H27.2743V34.2017C27.2743 33.6927 27.2069 33.2642 27.0719 32.9162C26.937 32.5682 26.7559 32.2888 26.5286 32.0781C26.3013 31.8651 26.0492 31.7112 25.7722 31.6165C25.4952 31.5218 25.2147 31.4744 24.9306 31.4744C24.4382 31.4744 24.0073 31.5952 23.638 31.8366C23.271 32.0758 22.9846 32.4096 22.7786 32.8381C22.575 33.2642 22.4732 33.7566 22.4732 34.3153C22.4732 34.8741 22.575 35.3641 22.7786 35.7855C22.9846 36.2045 23.277 36.5312 23.6557 36.7656ZM23.3153 33.8324C23.3312 33.5794 23.395 33.3403 23.5066 33.1151C23.6368 32.8523 23.8226 32.6392 24.0641 32.4759C24.308 32.3101 24.5968 32.2273 24.9306 32.2273C25.2336 32.2273 25.4964 32.2971 25.719 32.4368C25.9439 32.5765 26.1167 32.767 26.2374 33.0085C26.3605 33.25 26.4221 33.5246 26.4221 33.8324H23.3153Z" fill="#CFD1DE"/>
</svg>
