<svg width="43" height="69" viewBox="0 0 43 69" fill="none" xmlns="http://www.w3.org/2000/svg">
<path fill-rule="evenodd" clip-rule="evenodd" d="M13.4858 5.4786C13.7897 7.15977 14.8337 8.61507 16.3288 9.44173L36.2507 20.4565C38.0337 21.4424 39.2062 23.254 39.3754 25.2844L42.0768 57.704C42.0787 57.7268 42.0594 57.7457 42.0366 57.7433V57.7433V57.7433C42.0585 57.7466 42.0711 57.77 42.0617 57.79L38.6645 65.0452C37.5173 67.4952 34.8728 68.8748 32.2071 68.4141L9.64623 64.5144C9.63631 64.5127 9.63241 64.5005 9.63948 64.4933V64.4933V64.4933C9.63143 64.5009 9.61836 64.4982 9.61388 64.4881L-9.3619 21.8481C-10.6829 18.8796 -9.97604 15.4 -7.60144 13.1823L4.01267 2.33568C7.30127 -0.735606 12.6852 1.05064 13.4858 5.4786V5.4786Z" fill="#02195B"/>
</svg>
