<svg width="6" height="12" viewBox="0 0 6 12" fill="none" xmlns="http://www.w3.org/2000/svg">
<path fill-rule="evenodd" clip-rule="evenodd" d="M2.47284 1.19234C2.47284 0.894108 2.7146 0.652344 3.01283 0.652344C3.31106 0.652344 3.55283 0.894107 3.55283 1.19234V1.74651C4.67996 1.98167 5.52882 3.01373 5.52882 4.25128C5.52882 4.69963 5.17815 5.0631 4.74558 5.0631C4.31301 5.0631 3.96235 4.69963 3.96235 4.25128C3.96235 3.73687 3.56002 3.31986 3.06373 3.31986C2.56743 3.31986 2.1651 3.73687 2.1651 4.25128C2.1651 4.76569 2.56743 5.1827 3.06373 5.1827C3.07367 5.1827 3.08358 5.18289 3.09344 5.18327C4.44136 5.19956 5.5292 6.33718 5.5292 7.73815C5.5292 8.97585 4.68015 10.008 3.55281 10.243L3.55281 10.8448C3.55281 11.143 3.31105 11.3848 3.01282 11.3848C2.71459 11.3848 2.47283 11.143 2.47283 10.8448L2.47283 10.2192C1.39696 9.94471 0.599018 8.93801 0.599018 7.73815C0.599018 7.28979 0.949685 6.92633 1.38225 6.92633C1.81482 6.92633 2.16549 7.28979 2.16549 7.73815C2.16549 8.25256 2.56782 8.66957 3.06411 8.66957C3.56041 8.66957 3.96273 8.25256 3.96273 7.73815C3.96273 7.22374 3.56041 6.80673 3.06411 6.80673C3.05416 6.80673 3.04426 6.80654 3.0344 6.80616C1.68648 6.78987 0.598633 5.65225 0.598633 4.25128C0.598633 3.05127 1.39677 2.04448 2.47284 1.77009V1.19234Z" fill="#55B3FF"/>
</svg>
