<svg width="37" height="36" viewBox="0 0 37 36" fill="none" xmlns="http://www.w3.org/2000/svg">
<path fill-rule="evenodd" clip-rule="evenodd" d="M10.4479 0.0351562C8.21667 0.0351562 6.4079 1.84392 6.4079 4.07516V18.2412C6.4079 20.4724 8.21667 22.2812 10.4479 22.2812H26.5713C28.8025 22.2812 30.6113 20.4724 30.6113 18.2412V8.02585C30.6113 5.79462 28.8025 3.98585 26.5713 3.98585H9.92194C9.36428 3.98585 8.9122 3.53378 8.9122 2.97611C8.9122 2.91056 8.90596 2.84646 8.89403 2.78439C9.26456 2.33882 9.8231 2.05516 10.4479 2.05516H27.6052C28.163 2.05516 28.6152 1.60296 28.6152 1.04516C28.6152 0.487349 28.163 0.0351562 27.6052 0.0351562H10.4479ZM8.4279 18.2412V5.61247C8.8688 5.86286 9.37867 6.00585 9.92194 6.00585H26.5713C27.6869 6.00585 28.5913 6.91024 28.5913 8.02585V18.2412C28.5913 19.3568 27.6869 20.2612 26.5713 20.2612H10.4479C9.33229 20.2612 8.4279 19.3568 8.4279 18.2412Z" fill="#CFD1DE"/>
<path fill-rule="evenodd" clip-rule="evenodd" d="M0.293701 27.7275V35.0002H2.92154C3.49446 35.0002 3.95966 34.915 4.31714 34.7446C4.67462 34.5741 4.93622 34.3433 5.10194 34.0521C5.26766 33.7609 5.35052 33.433 5.35052 33.0684C5.35052 32.6849 5.27476 32.3606 5.12325 32.0954C4.97173 31.8303 4.78352 31.6267 4.55862 31.4846C4.33371 31.3426 4.10999 31.2644 3.88745 31.2502V31.1792C4.09578 31.1224 4.28873 31.0348 4.46629 30.9164C4.64621 30.7981 4.79062 30.6371 4.89952 30.4335C5.01079 30.2299 5.06643 29.9718 5.06643 29.6593C5.06643 29.3042 4.98594 28.9811 4.82495 28.6899C4.66397 28.3963 4.41894 28.1631 4.08987 27.9903C3.76079 27.8151 3.34294 27.7275 2.83631 27.7275H0.293701ZM2.92154 34.219H1.17438V31.6906H2.96416C3.28139 31.6906 3.55601 31.7545 3.78802 31.8823C4.02003 32.0078 4.19877 32.1759 4.32424 32.3866C4.44971 32.5949 4.51245 32.8222 4.51245 33.0684C4.51245 33.388 4.39053 33.6603 4.14668 33.8852C3.90521 34.1077 3.49683 34.219 2.92154 34.219ZM2.80791 30.9235H1.17438V28.5088H2.83631C3.31927 28.5088 3.67202 28.6212 3.89455 28.8461C4.11709 29.0687 4.22836 29.3397 4.22836 29.6593C4.22836 29.915 4.16444 30.1375 4.0366 30.3269C3.91113 30.5163 3.74067 30.6631 3.52524 30.7673C3.31217 30.8714 3.07306 30.9235 2.80791 30.9235Z" fill="#CFD1DE"/>
<path d="M6.68397 29.5457V35.0002H7.52204V29.5457H6.68397Z" fill="#CFD1DE"/>
<path d="M6.68752 28.4697C6.80589 28.581 6.94675 28.6366 7.11011 28.6366C7.27346 28.6366 7.41314 28.581 7.52914 28.4697C7.64751 28.3584 7.7067 28.2247 7.7067 28.0684C7.7067 27.9122 7.64751 27.7784 7.52914 27.6671C7.41314 27.5559 7.27346 27.5002 7.11011 27.5002C6.94675 27.5002 6.80589 27.5559 6.68752 27.6671C6.57152 27.7784 6.51352 27.9122 6.51352 28.0684C6.51352 28.2247 6.57152 28.3584 6.68752 28.4697Z" fill="#CFD1DE"/>
<path d="M9.89509 35.0002V27.7275H9.05702V35.0002H9.89509Z" fill="#CFD1DE"/>
<path d="M12.2681 35.0002V27.7275H11.4301V35.0002H12.2681Z" fill="#CFD1DE"/>
<path fill-rule="evenodd" clip-rule="evenodd" d="M14.73 34.7659C15.1111 34.9979 15.5645 35.1139 16.09 35.1139C16.4594 35.1139 16.792 35.0571 17.0879 34.9434C17.3838 34.8274 17.6324 34.6664 17.8337 34.4605C18.0349 34.2521 18.1781 34.0107 18.2633 33.736L17.4537 33.5088C17.3827 33.6982 17.282 33.8568 17.1518 33.9846C17.0216 34.1101 16.8666 34.2048 16.6866 34.2687C16.5091 34.3303 16.3102 34.361 16.09 34.361C15.7515 34.361 15.4544 34.2876 15.1987 34.1409C14.943 33.9917 14.743 33.7751 14.5986 33.491C14.4698 33.2313 14.3994 32.9199 14.3874 32.5571H18.3486V32.2019C18.3486 31.6929 18.2811 31.2644 18.1462 30.9164C18.0112 30.5684 17.8301 30.2891 17.6028 30.0784C17.3756 29.8653 17.1234 29.7114 16.8464 29.6167C16.5694 29.522 16.2889 29.4747 16.0048 29.4747C15.5124 29.4747 15.0815 29.5954 14.7122 29.8369C14.3453 30.076 14.0588 30.4098 13.8528 30.8383C13.6492 31.2644 13.5474 31.7569 13.5474 32.3156C13.5474 32.8743 13.6492 33.3643 13.8528 33.7857C14.0588 34.2048 14.3512 34.5315 14.73 34.7659ZM14.3895 31.8326C14.4055 31.5796 14.4692 31.3405 14.5808 31.1153C14.711 30.8525 14.8969 30.6394 15.1383 30.4761C15.3822 30.3104 15.671 30.2275 16.0048 30.2275C16.3078 30.2275 16.5706 30.2973 16.7932 30.437C17.0181 30.5767 17.1909 30.7673 17.3116 31.0088C17.4347 31.2502 17.4963 31.5249 17.4963 31.8326H14.3895Z" fill="#CFD1DE"/>
<path d="M21.9956 30.2559V29.5457H20.8308V28.2389H19.9927V29.5457H19.1689V30.2559H19.9927V33.665C19.9927 33.9822 20.0661 34.245 20.2129 34.4534C20.3621 34.6617 20.5491 34.8168 20.774 34.9186C21.0013 35.0204 21.2333 35.0713 21.47 35.0713C21.6263 35.0713 21.7553 35.0594 21.8571 35.0357C21.9589 35.0144 22.0382 34.9931 22.095 34.9718L21.9246 34.219L21.7825 34.2474C21.7233 34.2569 21.6476 34.2616 21.5552 34.2616C21.4321 34.2616 21.3149 34.2427 21.2037 34.2048C21.0948 34.1645 21.0048 34.0864 20.9338 33.9704C20.8651 33.852 20.8308 33.6745 20.8308 33.4377V30.2559H21.9956Z" fill="#CFD1DE"/>
<path fill-rule="evenodd" clip-rule="evenodd" d="M24.1245 34.7659C24.5056 34.9979 24.959 35.1139 25.4846 35.1139C25.8539 35.1139 26.1865 35.0571 26.4824 34.9434C26.7784 34.8274 27.027 34.6664 27.2282 34.4605C27.4294 34.2521 27.5726 34.0107 27.6579 33.736L26.8482 33.5088C26.7772 33.6982 26.6766 33.8568 26.5464 33.9846C26.4162 34.1101 26.2611 34.2048 26.0812 34.2687C25.9036 34.3303 25.7047 34.361 25.4846 34.361C25.146 34.361 24.8489 34.2876 24.5932 34.1409C24.3376 33.9917 24.1375 33.7751 23.9931 33.491C23.8643 33.2313 23.7939 32.9199 23.7819 32.5571H27.7431V32.2019C27.7431 31.6929 27.6756 31.2644 27.5407 30.9164C27.4057 30.5684 27.2246 30.2891 26.9974 30.0784C26.7701 29.8653 26.518 29.7114 26.241 29.6167C25.964 29.522 25.6834 29.4747 25.3993 29.4747C24.9069 29.4747 24.4761 29.5954 24.1067 29.8369C23.7398 30.076 23.4533 30.4098 23.2474 30.8383C23.0438 31.2644 22.942 31.7569 22.942 32.3156C22.942 32.8743 23.0438 33.3643 23.2474 33.7857C23.4533 34.2048 23.7457 34.5315 24.1245 34.7659ZM23.784 31.8326C23.8 31.5796 23.8638 31.3405 23.9753 31.1153C24.1056 30.8525 24.2914 30.6394 24.5329 30.4761C24.7767 30.3104 25.0655 30.2275 25.3993 30.2275C25.7024 30.2275 25.9652 30.2973 26.1877 30.437C26.4126 30.5767 26.5854 30.7673 26.7062 31.0088C26.8293 31.2502 26.8908 31.5249 26.8908 31.8326H23.784Z" fill="#CFD1DE"/>
<path d="M29.018 29.5457V35.0002H29.856V31.5485C29.856 31.3023 29.9152 31.0833 30.0336 30.8916C30.1543 30.6974 30.3177 30.5459 30.5236 30.437C30.732 30.3258 30.9687 30.2701 31.2339 30.2701C31.3451 30.2701 31.4505 30.2784 31.5499 30.295C31.6517 30.3092 31.7168 30.3198 31.7452 30.3269V29.4747C31.6979 29.4699 31.628 29.4664 31.5357 29.464C31.4434 29.4616 31.3664 29.4605 31.3049 29.4605C30.9782 29.4605 30.6846 29.5445 30.4242 29.7126C30.1638 29.8807 29.9839 30.0997 29.8844 30.3696H29.8276V29.5457H29.018Z" fill="#CFD1DE"/>
<path fill-rule="evenodd" clip-rule="evenodd" d="M33.4027 34.9328C33.6844 35.063 33.9981 35.1281 34.3438 35.1281C34.661 35.1281 34.9297 35.0807 35.1499 34.986C35.3701 34.8913 35.5464 34.7765 35.679 34.6416C35.8116 34.5066 35.9063 34.38 35.9631 34.2616H36.0057V35.0002H36.8438V31.4065C36.8438 30.9732 36.7728 30.6276 36.6307 30.3696C36.4887 30.1115 36.3099 29.9186 36.0945 29.7907C35.8814 29.6629 35.6601 29.5788 35.4304 29.5386C35.2031 29.496 35.0019 29.4747 34.8267 29.4747C34.5521 29.4747 34.2728 29.5125 33.9887 29.5883C33.7069 29.6617 33.4465 29.7919 33.2074 29.9789C32.9707 30.1636 32.7813 30.4216 32.6392 30.7531L33.4347 31.0372C33.527 30.8383 33.6868 30.6513 33.9141 30.4761C34.1414 30.3009 34.455 30.2133 34.8551 30.2133C35.241 30.2133 35.5287 30.3104 35.7181 30.5045C35.9098 30.6986 36.0057 30.9709 36.0057 31.3213V31.3497C36.0057 31.4846 35.9572 31.5793 35.8601 31.6338C35.7654 31.6882 35.6139 31.7273 35.4056 31.7509C35.1996 31.7723 34.9309 31.8042 34.5995 31.8468C34.3461 31.88 34.094 31.9249 33.8431 31.9818C33.5945 32.0362 33.3672 32.1191 33.1612 32.2303C32.9553 32.3416 32.7907 32.4955 32.6676 32.692C32.5445 32.8861 32.483 33.1394 32.483 33.4519C32.483 33.8071 32.5658 34.1101 32.7316 34.361C32.8973 34.6096 33.121 34.8002 33.4027 34.9328ZM35.3097 34.1799C35.0824 34.3101 34.8031 34.3752 34.4716 34.3752C34.1378 34.3752 33.862 34.3018 33.6442 34.1551C33.4288 34.0059 33.321 33.7857 33.321 33.4946C33.321 33.2815 33.3779 33.1134 33.4915 32.9903C33.6075 32.8648 33.759 32.7713 33.946 32.7098C34.1354 32.6458 34.339 32.5997 34.5568 32.5713C34.6468 32.5594 34.764 32.5452 34.9084 32.5286C35.0552 32.5097 35.2055 32.4884 35.3594 32.4647C35.5156 32.4387 35.653 32.4091 35.7713 32.3759C35.8921 32.3404 35.9702 32.3014 36.0057 32.2588V33.0258C36.0057 33.2531 35.9465 33.4697 35.8281 33.6757C35.7121 33.8816 35.5393 34.0497 35.3097 34.1799Z" fill="#CFD1DE"/>
</svg>
