<svg width="24" height="37" viewBox="0 0 24 37" fill="none" xmlns="http://www.w3.org/2000/svg">
<path fill-rule="evenodd" clip-rule="evenodd" d="M7.28967 6.62641C7.28967 3.27525 10.0063 0.558594 13.3575 0.558594C16.7087 0.558594 19.4253 3.27525 19.4253 6.62641C19.4253 9.97757 16.7087 12.6942 13.3575 12.6942C10.0063 12.6942 7.28967 9.97757 7.28967 6.62641ZM13.3575 2.5812C11.1234 2.5812 9.31228 4.3923 9.31228 6.62641C9.31228 8.86052 11.1234 10.6716 13.3575 10.6716C15.5916 10.6716 17.4027 8.86052 17.4027 6.62641C17.4027 4.3923 15.5916 2.5812 13.3575 2.5812Z" fill="#CFD1DE"/>
<path d="M13.3575 17.2451C10.9578 17.2451 8.68399 17.7782 7.12786 18.2585C6.23712 18.5335 5.58258 19.3402 5.4224 20.37L5.25505 21.4457C5.1692 21.9976 4.65221 22.3754 4.10032 22.2896C3.54843 22.2037 3.17063 21.6867 3.25648 21.1349L3.42383 20.0591C3.68551 18.3768 4.79946 16.8605 6.53127 16.3259C8.19413 15.8126 10.6815 15.2225 13.3575 15.2225C16.0335 15.2225 18.5209 15.8126 20.1837 16.3259C21.9155 16.8605 23.0295 18.3768 23.2912 20.0591L23.4585 21.1349C23.5444 21.6867 23.1666 22.2037 22.6147 22.2896C22.0628 22.3754 21.5458 21.9976 21.4599 21.4457L21.2926 20.37C21.1324 19.3402 20.4779 18.5335 19.5871 18.2586C18.031 17.7782 15.7572 17.2451 13.3575 17.2451Z" fill="#CFD1DE"/>
<path fill-rule="evenodd" clip-rule="evenodd" d="M0.977539 29.2746V36.5473H1.85822V33.891H3.44913C4.01494 33.891 4.47896 33.7881 4.84118 33.5821C5.20339 33.3738 5.47091 33.0944 5.64373 32.744C5.81892 32.3936 5.90652 32.0042 5.90652 31.5757C5.90652 31.1472 5.81892 30.7589 5.64373 30.4109C5.46854 30.0629 5.19866 29.7871 4.83407 29.5835C4.47186 29.3775 4.00547 29.2746 3.43493 29.2746H0.977539ZM1.85822 33.1098H3.42072C3.81135 33.1098 4.12503 33.0423 4.36177 32.9074C4.59851 32.7724 4.77015 32.5901 4.87669 32.3605C4.98559 32.1285 5.04004 31.8669 5.04004 31.5757C5.04004 31.2845 4.98559 31.0241 4.87669 30.7944C4.77015 30.5648 4.59733 30.3849 4.35822 30.2547C4.11911 30.1221 3.80188 30.0558 3.40652 30.0558H1.85822V33.1098Z" fill="#CFD1DE"/>
<path fill-rule="evenodd" clip-rule="evenodd" d="M8.07981 36.3129C8.46097 36.5449 8.91433 36.6609 9.4399 36.6609C9.80922 36.6609 10.1418 36.6041 10.4378 36.4905C10.7337 36.3745 10.9823 36.2135 11.1835 36.0075C11.3847 35.7992 11.528 35.5577 11.6132 35.2831L10.8035 35.0558C10.7325 35.2452 10.6319 35.4038 10.5017 35.5317C10.3715 35.6571 10.2164 35.7518 10.0365 35.8158C9.85893 35.8773 9.66007 35.9081 9.4399 35.9081C9.10136 35.9081 8.80424 35.8347 8.54856 35.6879C8.29288 35.5388 8.09283 35.3221 7.94842 35.0381C7.81962 34.7783 7.74922 34.467 7.73721 34.1041H11.6984V33.749C11.6984 33.24 11.6309 32.8115 11.496 32.4635C11.3611 32.1155 11.18 31.8361 10.9527 31.6254C10.7254 31.4123 10.4733 31.2585 10.1963 31.1638C9.9193 31.0691 9.63876 31.0217 9.35467 31.0217C8.86225 31.0217 8.43137 31.1425 8.06206 31.3839C7.69511 31.623 7.40865 31.9569 7.20268 32.3854C6.99908 32.8115 6.89728 33.3039 6.89728 33.8626C6.89728 34.4213 6.99908 34.9114 7.20268 35.3328C7.40865 35.7518 7.70102 36.0785 8.07981 36.3129ZM7.73935 33.3797C7.75531 33.1267 7.81908 32.8876 7.93066 32.6623C8.06087 32.3996 8.24672 32.1865 8.48819 32.0231C8.73204 31.8574 9.02086 31.7746 9.35467 31.7746C9.6577 31.7746 9.92048 31.8444 10.143 31.9841C10.3679 32.1238 10.5407 32.3143 10.6615 32.5558C10.7846 32.7973 10.8461 33.0719 10.8461 33.3797H7.73935Z" fill="#CFD1DE"/>
<path d="M12.9733 31.0927V36.5473H13.8113V33.0956C13.8113 32.8494 13.8705 32.6304 13.9889 32.4386C14.1096 32.2445 14.273 32.093 14.479 31.9841C14.6873 31.8728 14.924 31.8172 15.1892 31.8172C15.3005 31.8172 15.4058 31.8255 15.5052 31.842C15.607 31.8562 15.6721 31.8669 15.7006 31.874V31.0217C15.6532 31.017 15.5834 31.0134 15.491 31.0111C15.3987 31.0087 15.3218 31.0075 15.2602 31.0075C14.9335 31.0075 14.6399 31.0916 14.3795 31.2596C14.1191 31.4277 13.9392 31.6467 13.8398 31.9166H13.7829V31.0927H12.9733Z" fill="#CFD1DE"/>
<path d="M19.4648 31.803V31.0927H18.2432V30.5388C18.2432 30.2689 18.3035 30.0641 18.4243 29.9244C18.5474 29.7847 18.7474 29.7149 19.0244 29.7149C19.1452 29.7149 19.2422 29.7256 19.3156 29.7469C19.3914 29.7682 19.4506 29.7859 19.4932 29.8001L19.7346 29.0757C19.6707 29.0473 19.5737 29.0165 19.4434 28.9834C19.3132 28.9502 19.1452 28.9337 18.9392 28.9337C18.6788 28.9337 18.4314 28.9857 18.197 29.0899C17.9626 29.1941 17.772 29.3503 17.6253 29.5587C17.4785 29.767 17.4051 30.0274 17.4051 30.3399V31.0927H16.5244V31.803H17.4051V36.5473H18.2432V31.803H19.4648Z" fill="#CFD1DE"/>
<path d="M20.6393 31.0927V36.5473H21.4774V31.0927H20.6393Z" fill="#CFD1DE"/>
<path d="M20.6428 30.0168C20.7612 30.128 20.9021 30.1837 21.0654 30.1837C21.2288 30.1837 21.3685 30.128 21.4845 30.0168C21.6028 29.9055 21.662 29.7717 21.662 29.6155C21.662 29.4592 21.6028 29.3255 21.4845 29.2142C21.3685 29.1029 21.2288 29.0473 21.0654 29.0473C20.9021 29.0473 20.7612 29.1029 20.6428 29.2142C20.5268 29.3255 20.4688 29.4592 20.4688 29.6155C20.4688 29.7717 20.5268 29.9055 20.6428 30.0168Z" fill="#CFD1DE"/>
<path d="M23.8504 36.5473V29.2746H23.0123V36.5473H23.8504Z" fill="#CFD1DE"/>
</svg>
