<svg width="47" height="40" viewBox="0 0 47 40" fill="none" xmlns="http://www.w3.org/2000/svg">
<path fill-rule="evenodd" clip-rule="evenodd" d="M29.4253 2.29214H29.2527C28.8362 1.11377 27.7124 0.269531 26.3914 0.269531H20.3236C19.0026 0.269531 17.8788 1.11377 17.4623 2.29214H17.2897C15.0556 2.29214 13.2445 4.10324 13.2445 6.33735V20.4956C13.2445 22.7297 15.0556 24.5408 17.2897 24.5408H29.4253C31.6594 24.5408 33.4705 22.7297 33.4705 20.4956V6.33735C33.4705 4.10324 31.6594 2.29214 29.4253 2.29214ZM15.2671 6.33735C15.2671 5.22029 16.1726 4.31474 17.2897 4.31474C17.2897 5.99032 18.648 7.34865 20.3236 7.34865H26.3914C28.067 7.34865 29.4253 5.99032 29.4253 4.31474C30.5424 4.31474 31.4479 5.22029 31.4479 6.33735V20.4956C31.4479 21.6126 30.5424 22.5182 29.4253 22.5182H17.2897C16.1726 22.5182 15.2671 21.6126 15.2671 20.4956V6.33735ZM20.3236 2.29214C19.7651 2.29214 19.3123 2.74491 19.3123 3.30344V4.31474C19.3123 4.87327 19.7651 5.32605 20.3236 5.32605H26.3914C26.9499 5.32605 27.4027 4.87327 27.4027 4.31474V3.30344C27.4027 2.74491 26.9499 2.29214 26.3914 2.29214H20.3236Z" fill="#CFD1DE"/>
<path fill-rule="evenodd" clip-rule="evenodd" d="M0.629883 29.9968V37.2695H1.51056V34.6133H3.10147C3.66729 34.6133 4.1313 34.5103 4.49352 34.3043C4.85574 34.096 5.12325 33.8166 5.29608 33.4663C5.47127 33.1159 5.55886 32.7264 5.55886 32.2979C5.55886 31.8694 5.47127 31.4812 5.29608 31.1332C5.12089 30.7852 4.851 30.5094 4.48642 30.3058C4.1242 30.0998 3.65782 29.9968 3.08727 29.9968H0.629883ZM1.51056 33.832H3.07306C3.46369 33.832 3.77737 33.7646 4.01412 33.6296C4.25086 33.4947 4.4225 33.3124 4.52903 33.0827C4.63793 32.8507 4.69238 32.5891 4.69238 32.2979C4.69238 32.0067 4.63793 31.7463 4.52903 31.5167C4.4225 31.2871 4.24967 31.1071 4.01056 30.9769C3.77146 30.8443 3.45422 30.7781 3.05886 30.7781H1.51056V33.832Z" fill="#CFD1DE"/>
<path d="M6.8639 31.815V37.2695H7.70197V33.8178C7.70197 33.5716 7.76116 33.3526 7.87953 33.1609C8.00027 32.9667 8.16362 32.8152 8.36958 32.7063C8.57792 32.5951 8.81466 32.5394 9.07981 32.5394C9.19108 32.5394 9.29643 32.5477 9.39586 32.5643C9.49766 32.5785 9.56277 32.5891 9.59118 32.5962V31.744C9.54383 31.7392 9.47399 31.7357 9.38166 31.7333C9.28933 31.7309 9.21239 31.7298 9.15084 31.7298C8.82413 31.7298 8.53057 31.8138 8.27015 31.9819C8.00974 32.15 7.82981 32.369 7.73038 32.6389H7.67356V31.815H6.8639Z" fill="#CFD1DE"/>
<path fill-rule="evenodd" clip-rule="evenodd" d="M11.3383 37.0316C11.71 37.266 12.1421 37.3832 12.6345 37.3832C13.1269 37.3832 13.5578 37.266 13.9271 37.0316C14.2988 36.7972 14.5876 36.4693 14.7936 36.0479C15.0019 35.6265 15.1061 35.1341 15.1061 34.5707C15.1061 34.0025 15.0019 33.5065 14.7936 33.0827C14.5876 32.659 14.2988 32.3299 13.9271 32.0955C13.5578 31.8612 13.1269 31.744 12.6345 31.744C12.1421 31.744 11.71 31.8612 11.3383 32.0955C10.969 32.3299 10.6802 32.659 10.4719 33.0827C10.2659 33.5065 10.1629 34.0025 10.1629 34.5707C10.1629 35.1341 10.2659 35.6265 10.4719 36.0479C10.6802 36.4693 10.969 36.7972 11.3383 37.0316ZM13.5578 36.3427C13.3163 36.5344 13.0086 36.6303 12.6345 36.6303C12.2604 36.6303 11.9527 36.5344 11.7112 36.3427C11.4697 36.1509 11.291 35.8988 11.175 35.5863C11.059 35.2738 11.001 34.9352 11.001 34.5707C11.001 34.2061 11.059 33.8664 11.175 33.5515C11.291 33.2366 11.4697 32.9821 11.7112 32.788C11.9527 32.5939 12.2604 32.4968 12.6345 32.4968C13.0086 32.4968 13.3163 32.5939 13.5578 32.788C13.7993 32.9821 13.978 33.2366 14.094 33.5515C14.21 33.8664 14.268 34.2061 14.268 34.5707C14.268 34.9352 14.21 35.2738 14.094 35.5863C13.978 35.8988 13.7993 36.1509 13.5578 36.3427Z" fill="#CFD1DE"/>
<path d="M16.3499 39.2795C16.4611 39.3032 16.5878 39.315 16.7298 39.315C16.9832 39.315 17.2104 39.27 17.4117 39.18C17.6153 39.0901 17.794 38.9516 17.9479 38.7646C18.1018 38.5799 18.2308 38.3467 18.335 38.065L20.6503 31.815H19.7412L18.2355 36.1616H18.1787L16.673 31.815H15.7639L17.781 37.2979L17.6247 37.7241C17.5229 38.0011 17.4105 38.2011 17.2874 38.3242C17.1666 38.4497 17.0281 38.5195 16.8719 38.5337C16.7156 38.5479 16.5357 38.529 16.3321 38.4769L16.1191 39.2156C16.1617 39.2369 16.2386 39.2582 16.3499 39.2795Z" fill="#CFD1DE"/>
<path fill-rule="evenodd" clip-rule="evenodd" d="M22.488 37.0352C22.8692 37.2672 23.3225 37.3832 23.8481 37.3832C24.2174 37.3832 24.55 37.3264 24.846 37.2127C25.1419 37.0967 25.3905 36.9357 25.5917 36.7298C25.7929 36.5214 25.9362 36.2799 26.0214 36.0053L25.2117 35.7781C25.1407 35.9674 25.0401 36.1261 24.9099 36.2539C24.7797 36.3794 24.6246 36.4741 24.4447 36.538C24.2671 36.5995 24.0683 36.6303 23.8481 36.6303C23.5096 36.6303 23.2124 36.5569 22.9568 36.4102C22.7011 36.261 22.501 36.0444 22.3566 35.7603C22.2278 35.5006 22.1574 35.1892 22.1454 34.8264H26.1066V34.4712C26.1066 33.9622 26.0392 33.5337 25.9042 33.1857C25.7693 32.8377 25.5882 32.5584 25.3609 32.3477C25.1336 32.1346 24.8815 31.9807 24.6045 31.886C24.3275 31.7913 24.047 31.744 23.7629 31.744C23.2704 31.744 22.8396 31.8647 22.4703 32.1062C22.1033 32.3453 21.8169 32.6791 21.6109 33.1076C21.4073 33.5337 21.3055 34.0262 21.3055 34.5849C21.3055 35.1436 21.4073 35.6336 21.6109 36.055C21.8169 36.4741 22.1092 36.8008 22.488 37.0352ZM22.1476 34.1019C22.1635 33.8489 22.2273 33.6098 22.3389 33.3846C22.4691 33.1218 22.6549 32.9087 22.8964 32.7454C23.1402 32.5797 23.4291 32.4968 23.7629 32.4968C24.0659 32.4968 24.3287 32.5666 24.5512 32.7063C24.7761 32.846 24.949 33.0366 25.0697 33.2781C25.1928 33.5195 25.2544 33.7942 25.2544 34.1019H22.1476Z" fill="#CFD1DE"/>
<path d="M28.2764 37.021C28.6457 37.2624 29.086 37.3832 29.5974 37.3832C29.9999 37.3832 30.3526 37.3086 30.6556 37.1594C30.961 37.0079 31.2061 36.8043 31.3907 36.5486C31.5777 36.2906 31.6949 36.0006 31.7423 35.6786H30.9042C30.8521 35.8775 30.7645 36.0479 30.6414 36.19C30.5183 36.332 30.368 36.4409 30.1904 36.5167C30.0129 36.5924 29.8152 36.6303 29.5974 36.6303C29.266 36.6303 28.9771 36.5439 28.7309 36.3711C28.4871 36.1983 28.2977 35.9556 28.1627 35.6431C28.0302 35.3306 27.9639 34.9637 27.9639 34.5423C27.9639 34.1303 28.0313 33.7717 28.1663 33.4663C28.3036 33.1585 28.4942 32.9206 28.738 32.7525C28.9842 32.582 29.2707 32.4968 29.5974 32.4968C29.9667 32.4968 30.2603 32.5939 30.4781 32.788C30.6982 32.9798 30.8403 33.1999 30.9042 33.4485H31.7423C31.6949 33.1076 31.573 32.8093 31.3765 32.5536C31.18 32.2979 30.9279 32.0991 30.6201 31.957C30.3124 31.815 29.9667 31.744 29.5832 31.744C29.0908 31.744 28.6599 31.8647 28.2906 32.1062C27.9236 32.3453 27.6372 32.6779 27.4312 33.104C27.2276 33.5278 27.1258 34.0167 27.1258 34.5707C27.1258 35.1152 27.2252 35.5993 27.4241 36.0231C27.623 36.4468 27.907 36.7795 28.2764 37.021Z" fill="#CFD1DE"/>
<path d="M35.3396 32.5252V31.815H34.1748V30.5082H33.3367V31.815H32.5129V32.5252H33.3367V35.9343C33.3367 36.2515 33.4101 36.5143 33.5569 36.7227C33.7061 36.931 33.8931 37.0861 34.118 37.1879C34.3453 37.2897 34.5773 37.3406 34.814 37.3406C34.9703 37.3406 35.0993 37.3287 35.2011 37.305C35.3029 37.2837 35.3822 37.2624 35.439 37.2411L35.2686 36.4883L35.1265 36.5167C35.0673 36.5262 34.9916 36.5309 34.8992 36.5309C34.7761 36.5309 34.6589 36.512 34.5477 36.4741C34.4388 36.4338 34.3488 36.3557 34.2778 36.2397C34.2091 36.1213 34.1748 35.9438 34.1748 35.707V32.5252H35.3396Z" fill="#CFD1DE"/>
<path fill-rule="evenodd" clip-rule="evenodd" d="M37.4614 37.0316C37.8331 37.266 38.2651 37.3832 38.7575 37.3832C39.25 37.3832 39.6808 37.266 40.0502 37.0316C40.4218 36.7972 40.7107 36.4693 40.9166 36.0479C41.125 35.6265 41.2291 35.1341 41.2291 34.5707C41.2291 34.0025 41.125 33.5065 40.9166 33.0827C40.7107 32.659 40.4218 32.3299 40.0502 32.0955C39.6808 31.8612 39.25 31.744 38.7575 31.744C38.2651 31.744 37.8331 31.8612 37.4614 32.0955C37.0921 32.3299 36.8032 32.659 36.5949 33.0827C36.3889 33.5065 36.286 34.0025 36.286 34.5707C36.286 35.1341 36.3889 35.6265 36.5949 36.0479C36.8032 36.4693 37.0921 36.7972 37.4614 37.0316ZM39.6808 36.3427C39.4394 36.5344 39.1316 36.6303 38.7575 36.6303C38.3835 36.6303 38.0757 36.5344 37.8343 36.3427C37.5928 36.1509 37.414 35.8988 37.298 35.5863C37.182 35.2738 37.124 34.9352 37.124 34.5707C37.124 34.2061 37.182 33.8664 37.298 33.5515C37.414 33.2366 37.5928 32.9821 37.8343 32.788C38.0757 32.5939 38.3835 32.4968 38.7575 32.4968C39.1316 32.4968 39.4394 32.5939 39.6808 32.788C39.9223 32.9821 40.1011 33.2366 40.2171 33.5515C40.3331 33.8664 40.3911 34.2061 40.3911 34.5707C40.3911 34.9352 40.3331 35.2738 40.2171 35.5863C40.1011 35.8988 39.9223 36.1509 39.6808 36.3427Z" fill="#CFD1DE"/>
<path d="M45.6192 33.2496L46.3721 33.0366C46.2419 32.6483 46.0217 32.3358 45.7116 32.0991C45.4038 31.8623 44.98 31.744 44.4403 31.744C44.0567 31.744 43.7135 31.8114 43.4104 31.9464C43.1098 32.0813 42.8718 32.2672 42.6966 32.5039C42.5238 32.7407 42.4374 33.0129 42.4374 33.3207C42.4374 33.6971 42.5534 34.0108 42.7854 34.2617C43.0198 34.5103 43.3867 34.6938 43.8863 34.8121L44.7954 35.0252C45.07 35.0891 45.2736 35.1862 45.4062 35.3164C45.5387 35.4442 45.605 35.6029 45.605 35.7923C45.605 36.0266 45.489 36.2279 45.257 36.396C45.0274 36.5617 44.7172 36.6445 44.3266 36.6445C43.9833 36.6445 43.7052 36.5711 43.4921 36.4244C43.2814 36.2776 43.1382 36.0574 43.0624 35.7639L42.267 35.9627C42.364 36.4267 42.5948 36.7795 42.9594 37.021C43.324 37.2624 43.7845 37.3832 44.3408 37.3832C44.7646 37.3832 45.1363 37.3121 45.4559 37.1701C45.7755 37.0281 46.0241 36.8339 46.2016 36.5877C46.3815 36.3415 46.4715 36.0621 46.4715 35.7496C46.4715 35.3685 46.3519 35.0572 46.1128 34.8157C45.8737 34.5718 45.5103 34.3907 45.0226 34.2724L44.213 34.0735C43.891 33.993 43.6543 33.8924 43.5028 33.7717C43.3512 33.6509 43.2755 33.4864 43.2755 33.2781C43.2755 33.0437 43.3856 32.8507 43.6057 32.6992C43.8283 32.5453 44.1064 32.4684 44.4403 32.4684C44.6841 32.4684 44.8841 32.5075 45.0404 32.5856C45.1966 32.6637 45.3198 32.7631 45.4097 32.8839C45.502 33.0023 45.5719 33.1242 45.6192 33.2496Z" fill="#CFD1DE"/>
</svg>
