<svg width="38" height="36" viewBox="0 0 38 36" fill="none" xmlns="http://www.w3.org/2000/svg">
<path fill-rule="evenodd" clip-rule="evenodd" d="M10.693 0.0351562C8.46179 0.0351562 6.65302 1.84392 6.65302 4.07516V18.2412C6.65302 20.4724 8.46179 22.2812 10.693 22.2812H26.8164C29.0477 22.2812 30.8564 20.4724 30.8564 18.2412V8.02585C30.8564 5.79462 29.0477 3.98585 26.8164 3.98585H10.1671C9.60939 3.98585 9.15732 3.53378 9.15732 2.97611C9.15732 2.91056 9.15107 2.84646 9.13914 2.78439C9.50968 2.33882 10.0682 2.05516 10.693 2.05516H27.8503C28.4082 2.05516 28.8603 1.60296 28.8603 1.04516C28.8603 0.487349 28.4082 0.0351562 27.8503 0.0351562H10.693ZM8.67302 18.2412V5.61247C9.11391 5.86286 9.62379 6.00585 10.1671 6.00585H26.8164C27.932 6.00585 28.8364 6.91024 28.8364 8.02585V18.2412C28.8364 19.3568 27.9321 20.2612 26.8164 20.2612H10.693C9.5774 20.2612 8.67302 19.3568 8.67302 18.2412Z" fill="#CFD1DE"/>
<path fill-rule="evenodd" clip-rule="evenodd" d="M0.538818 27.7275V35.0002H3.16666C3.73958 35.0002 4.20477 34.915 4.56226 34.7446C4.91974 34.5741 5.18134 34.3433 5.34706 34.0521C5.51278 33.7609 5.59564 33.433 5.59564 33.0684C5.59564 32.6849 5.51988 32.3606 5.36836 32.0954C5.21685 31.8303 5.02864 31.6267 4.80373 31.4846C4.57883 31.3426 4.35511 31.2644 4.13257 31.2502V31.1792C4.3409 31.1224 4.53385 31.0348 4.7114 30.9164C4.89133 30.7981 5.03574 30.6371 5.14464 30.4335C5.25591 30.2299 5.31155 29.9718 5.31155 29.6593C5.31155 29.3042 5.23105 28.9811 5.07007 28.6899C4.90908 28.3963 4.66406 28.1631 4.33498 27.9903C4.00591 27.8151 3.58806 27.7275 3.08143 27.7275H0.538818ZM3.16666 34.219H1.4195V31.6906H3.20927C3.52651 31.6906 3.80113 31.7545 4.03314 31.8823C4.26514 32.0078 4.44388 32.1759 4.56936 32.3866C4.69483 32.5949 4.75757 32.8222 4.75757 33.0684C4.75757 33.388 4.63565 33.6603 4.3918 33.8852C4.15032 34.1077 3.74194 34.219 3.16666 34.219ZM3.05302 30.9235H1.4195V28.5088H3.08143C3.56439 28.5088 3.91713 28.6212 4.13967 28.8461C4.36221 29.0687 4.47348 29.3397 4.47348 29.6593C4.47348 29.915 4.40956 30.1375 4.28172 30.3269C4.15624 30.5163 3.98579 30.6631 3.77035 30.7673C3.55728 30.8714 3.31817 30.9235 3.05302 30.9235Z" fill="#CFD1DE"/>
<path d="M6.92909 29.5457V35.0002H7.76716V29.5457H6.92909Z" fill="#CFD1DE"/>
<path d="M6.93264 28.4697C7.05101 28.581 7.19187 28.6366 7.35522 28.6366C7.51858 28.6366 7.65825 28.581 7.77426 28.4697C7.89263 28.3584 7.95182 28.2247 7.95182 28.0684C7.95182 27.9122 7.89263 27.7784 7.77426 27.6671C7.65825 27.5559 7.51858 27.5002 7.35522 27.5002C7.19187 27.5002 7.05101 27.5559 6.93264 27.6671C6.81664 27.7784 6.75863 27.9122 6.75863 28.0684C6.75863 28.2247 6.81664 28.3584 6.93264 28.4697Z" fill="#CFD1DE"/>
<path d="M10.1402 35.0002V27.7275H9.30213V35.0002H10.1402Z" fill="#CFD1DE"/>
<path d="M12.5133 35.0002V27.7275H11.6752V35.0002H12.5133Z" fill="#CFD1DE"/>
<path fill-rule="evenodd" clip-rule="evenodd" d="M14.9751 34.7659C15.3562 34.9979 15.8096 35.1139 16.3352 35.1139C16.7045 35.1139 17.0371 35.0571 17.333 34.9434C17.629 34.8274 17.8775 34.6664 18.0788 34.4605C18.28 34.2521 18.4232 34.0107 18.5085 33.736L17.6988 33.5088C17.6278 33.6982 17.5272 33.8568 17.3969 33.9846C17.2667 34.1101 17.1117 34.2048 16.9318 34.2687C16.7542 34.3303 16.5553 34.361 16.3352 34.361C15.9966 34.361 15.6995 34.2876 15.4438 34.1409C15.1881 33.9917 14.9881 33.7751 14.8437 33.491C14.7149 33.2313 14.6445 32.9199 14.6325 32.5571H18.5937V32.2019C18.5937 31.6929 18.5262 31.2644 18.3913 30.9164C18.2563 30.5684 18.0752 30.2891 17.8479 30.0784C17.6207 29.8653 17.3685 29.7114 17.0916 29.6167C16.8146 29.522 16.534 29.4747 16.2499 29.4747C15.7575 29.4747 15.3266 29.5954 14.9573 29.8369C14.5904 30.076 14.3039 30.4098 14.0979 30.8383C13.8943 31.2644 13.7925 31.7569 13.7925 32.3156C13.7925 32.8743 13.8943 33.3643 14.0979 33.7857C14.3039 34.2048 14.5963 34.5315 14.9751 34.7659ZM14.6346 31.8326C14.6506 31.5796 14.7143 31.3405 14.8259 31.1153C14.9561 30.8525 15.142 30.6394 15.3835 30.4761C15.6273 30.3104 15.9161 30.2275 16.2499 30.2275C16.553 30.2275 16.8157 30.2973 17.0383 30.437C17.2632 30.5767 17.436 30.7673 17.5568 31.0088C17.6799 31.2502 17.7414 31.5249 17.7414 31.8326H14.6346Z" fill="#CFD1DE"/>
<path d="M22.2407 30.2559V29.5457H21.0759V28.2389H20.2379V29.5457H19.414V30.2559H20.2379V33.665C20.2379 33.9822 20.3112 34.245 20.458 34.4534C20.6072 34.6617 20.7942 34.8168 21.0191 34.9186C21.2464 35.0204 21.4784 35.0713 21.7151 35.0713C21.8714 35.0713 22.0004 35.0594 22.1022 35.0357C22.204 35.0144 22.2833 34.9931 22.3401 34.9718L22.1697 34.219L22.0276 34.2474C21.9684 34.2569 21.8927 34.2616 21.8004 34.2616C21.6773 34.2616 21.5601 34.2427 21.4488 34.2048C21.3399 34.1645 21.2499 34.0864 21.1789 33.9704C21.1103 33.852 21.0759 33.6745 21.0759 33.4377V30.2559H22.2407Z" fill="#CFD1DE"/>
<path fill-rule="evenodd" clip-rule="evenodd" d="M24.3696 34.7659C24.7508 34.9979 25.2041 35.1139 25.7297 35.1139C26.099 35.1139 26.4316 35.0571 26.7276 34.9434C27.0235 34.8274 27.2721 34.6664 27.4733 34.4605C27.6745 34.2521 27.8178 34.0107 27.903 33.736L27.0933 33.5088C27.0223 33.6982 26.9217 33.8568 26.7915 33.9846C26.6613 34.1101 26.5062 34.2048 26.3263 34.2687C26.1487 34.3303 25.9499 34.361 25.7297 34.361C25.3911 34.361 25.094 34.2876 24.8384 34.1409C24.5827 33.9917 24.3826 33.7751 24.2382 33.491C24.1094 33.2313 24.039 32.9199 24.027 32.5571H27.9882V32.2019C27.9882 31.6929 27.9207 31.2644 27.7858 30.9164C27.6509 30.5684 27.4697 30.2891 27.2425 30.0784C27.0152 29.8653 26.7631 29.7114 26.4861 29.6167C26.2091 29.522 25.9286 29.4747 25.6445 29.4747C25.152 29.4747 24.7212 29.5954 24.3519 29.8369C23.9849 30.076 23.6984 30.4098 23.4925 30.8383C23.2889 31.2644 23.1871 31.7569 23.1871 32.3156C23.1871 32.8743 23.2889 33.3643 23.4925 33.7857C23.6984 34.2048 23.9908 34.5315 24.3696 34.7659ZM24.0291 31.8326C24.0451 31.5796 24.1089 31.3405 24.2205 31.1153C24.3507 30.8525 24.5365 30.6394 24.778 30.4761C25.0218 30.3104 25.3107 30.2275 25.6445 30.2275C25.9475 30.2275 26.2103 30.2973 26.4328 30.437C26.6577 30.5767 26.8305 30.7673 26.9513 31.0088C27.0744 31.2502 27.1359 31.5249 27.1359 31.8326H24.0291Z" fill="#CFD1DE"/>
<path d="M29.2631 29.5457V35.0002H30.1011V31.5485C30.1011 31.3023 30.1603 31.0833 30.2787 30.8916C30.3994 30.6974 30.5628 30.5459 30.7688 30.437C30.9771 30.3258 31.2138 30.2701 31.479 30.2701C31.5903 30.2701 31.6956 30.2784 31.795 30.295C31.8968 30.3092 31.9619 30.3198 31.9903 30.3269V29.4747C31.943 29.4699 31.8732 29.4664 31.7808 29.464C31.6885 29.4616 31.6116 29.4605 31.55 29.4605C31.2233 29.4605 30.9297 29.5445 30.6693 29.7126C30.4089 29.8807 30.229 30.0997 30.1295 30.3696H30.0727V29.5457H29.2631Z" fill="#CFD1DE"/>
<path fill-rule="evenodd" clip-rule="evenodd" d="M33.6478 34.9328C33.9296 35.063 34.2432 35.1281 34.5889 35.1281C34.9061 35.1281 35.1748 35.0807 35.395 34.986C35.6152 34.8913 35.7915 34.7765 35.9241 34.6416C36.0567 34.5066 36.1514 34.38 36.2082 34.2616H36.2508V35.0002H37.0889V31.4065C37.0889 30.9732 37.0179 30.6276 36.8758 30.3696C36.7338 30.1115 36.555 29.9186 36.3396 29.7907C36.1265 29.6629 35.9052 29.5788 35.6755 29.5386C35.4483 29.496 35.247 29.4747 35.0718 29.4747C34.7972 29.4747 34.5179 29.5125 34.2338 29.5883C33.9521 29.6617 33.6916 29.7919 33.4525 29.9789C33.2158 30.1636 33.0264 30.4216 32.8843 30.7531L33.6798 31.0372C33.7721 30.8383 33.9319 30.6513 34.1592 30.4761C34.3865 30.3009 34.7002 30.2133 35.1003 30.2133C35.4861 30.2133 35.7738 30.3104 35.9632 30.5045C36.1549 30.6986 36.2508 30.9709 36.2508 31.3213V31.3497C36.2508 31.4846 36.2023 31.5793 36.1052 31.6338C36.0105 31.6882 35.859 31.7273 35.6507 31.7509C35.4447 31.7723 35.176 31.8042 34.8446 31.8468C34.5913 31.88 34.3391 31.9249 34.0882 31.9818C33.8396 32.0362 33.6123 32.1191 33.4064 32.2303C33.2004 32.3416 33.0359 32.4955 32.9128 32.692C32.7896 32.8861 32.7281 33.1394 32.7281 33.4519C32.7281 33.8071 32.811 34.1101 32.9767 34.361C33.1424 34.6096 33.3661 34.8002 33.6478 34.9328ZM35.5548 34.1799C35.3275 34.3101 35.0482 34.3752 34.7167 34.3752C34.3829 34.3752 34.1071 34.3018 33.8893 34.1551C33.6739 34.0059 33.5662 33.7857 33.5662 33.4946C33.5662 33.2815 33.623 33.1134 33.7366 32.9903C33.8526 32.8648 34.0041 32.7713 34.1912 32.7098C34.3806 32.6458 34.5842 32.5997 34.802 32.5713C34.8919 32.5594 35.0091 32.5452 35.1535 32.5286C35.3003 32.5097 35.4506 32.4884 35.6045 32.4647C35.7608 32.4387 35.8981 32.4091 36.0164 32.3759C36.1372 32.3404 36.2153 32.3014 36.2508 32.2588V33.0258C36.2508 33.2531 36.1916 33.4697 36.0733 33.6757C35.9573 33.8816 35.7844 34.0497 35.5548 34.1799Z" fill="#CFD1DE"/>
</svg>
