<svg width="27" height="38" viewBox="0 0 27 38" fill="none" xmlns="http://www.w3.org/2000/svg">
<path fill-rule="evenodd" clip-rule="evenodd" d="M13.9571 0.466493C13.6005 0.203877 13.1145 0.203877 12.7578 0.466493L3.87977 7.00398C2.84441 7.76638 2.23316 8.97558 2.23316 10.2613V21.0012C2.23316 22.9561 3.81788 24.5408 5.77272 24.5408H9.31228C10.4293 24.5408 11.3349 23.6353 11.3349 22.5182V16.956H15.3801V22.5182C15.3801 23.6352 16.2857 24.5408 17.4027 24.5408H20.9423C22.8971 24.5408 24.4818 22.9561 24.4818 21.0012V10.2613C24.4818 8.97558 23.8706 7.76638 22.8352 7.00398L13.9571 0.466493ZM5.07907 8.63267L13.3575 2.53674L21.6359 8.63267C22.1536 9.01386 22.4592 9.61846 22.4592 10.2613V21.0012C22.4592 21.839 21.7801 22.5182 20.9423 22.5182H17.4027V16.4504C17.4027 15.6126 16.7235 14.9334 15.8857 14.9334H10.8292C9.99145 14.9334 9.31228 15.6126 9.31228 16.4504V22.5182H5.77272C4.93493 22.5182 4.25577 21.839 4.25577 21.0012V10.2613C4.25577 9.61846 4.56139 9.01386 5.07907 8.63267Z" fill="#55B3FF"/>
<path d="M0.297852 29.9968V37.2695H1.17854V34.0167H5.05638V37.2695H5.93706V29.9968H5.05638V33.2354H1.17854V29.9968H0.297852Z" fill="#55B3FF"/>
<path fill-rule="evenodd" clip-rule="evenodd" d="M8.5063 37.0316C8.87799 37.266 9.31005 37.3832 9.80247 37.3832C10.2949 37.3832 10.7258 37.266 11.0951 37.0316C11.4668 36.7972 11.7556 36.4693 11.9616 36.0479C12.1699 35.6265 12.2741 35.1341 12.2741 34.5707C12.2741 34.0025 12.1699 33.5065 11.9616 33.0827C11.7556 32.659 11.4668 32.3299 11.0951 32.0955C10.7258 31.8612 10.2949 31.744 9.80247 31.744C9.31005 31.744 8.87799 31.8612 8.5063 32.0955C8.13699 32.3299 7.84816 32.659 7.63983 33.0827C7.43386 33.5065 7.33088 34.0025 7.33088 34.5707C7.33088 35.1341 7.43386 35.6265 7.63983 36.0479C7.84816 36.4693 8.13699 36.7972 8.5063 37.0316ZM10.7258 36.3427C10.4843 36.5344 10.1765 36.6303 9.80247 36.6303C9.42842 36.6303 9.12065 36.5344 8.87917 36.3427C8.6377 36.1509 8.45896 35.8988 8.34295 35.5863C8.22695 35.2738 8.16895 34.9352 8.16895 34.5707C8.16895 34.2061 8.22695 33.8664 8.34295 33.5515C8.45896 33.2366 8.6377 32.9821 8.87917 32.788C9.12065 32.5939 9.42842 32.4968 9.80247 32.4968C10.1765 32.4968 10.4843 32.5939 10.7258 32.788C10.9672 32.9821 11.146 33.2366 11.262 33.5515C11.378 33.8664 11.436 34.2061 11.436 34.5707C11.436 34.9352 11.378 35.2738 11.262 35.5863C11.146 35.8988 10.9672 36.1509 10.7258 36.3427Z" fill="#55B3FF"/>
<path d="M13.5534 31.815V37.2695H14.3914V33.8604C14.3914 33.5929 14.4482 33.3574 14.5619 33.1538C14.6779 32.9478 14.8294 32.7868 15.0164 32.6708C15.2058 32.5548 15.4094 32.4968 15.6272 32.4968C15.9445 32.4968 16.2037 32.5927 16.4049 32.7844C16.6062 32.9738 16.7068 33.2236 16.7068 33.5337V37.2695H17.559V33.7184C17.559 33.3656 17.6644 33.0745 17.8751 32.8448C18.0858 32.6128 18.3829 32.4968 18.7664 32.4968C19.0647 32.4968 19.324 32.5832 19.5441 32.756C19.7643 32.9289 19.8744 33.2165 19.8744 33.619V37.2695H20.7124V33.619C20.7124 32.9774 20.5574 32.5051 20.2472 32.2021C19.9371 31.8967 19.5382 31.744 19.0505 31.744C18.6599 31.744 18.3249 31.828 18.0455 31.9961C17.7662 32.1618 17.5567 32.3855 17.417 32.6673H17.3602C17.2252 32.3761 17.037 32.15 16.7955 31.989C16.5564 31.8256 16.257 31.744 15.8971 31.744C15.542 31.744 15.2378 31.8256 14.9845 31.989C14.7312 32.15 14.5477 32.3761 14.434 32.6673H14.363V31.815H13.5534Z" fill="#55B3FF"/>
<path fill-rule="evenodd" clip-rule="evenodd" d="M23.1716 37.0352C23.5528 37.2672 24.0061 37.3832 24.5317 37.3832C24.901 37.3832 25.2336 37.3263 25.5296 37.2127C25.8255 37.0967 26.0741 36.9357 26.2753 36.7298C26.4765 36.5214 26.6198 36.2799 26.705 36.0053L25.8953 35.7781C25.8243 35.9674 25.7237 36.1261 25.5935 36.2539C25.4633 36.3794 25.3082 36.4741 25.1283 36.538C24.9507 36.5995 24.7519 36.6303 24.5317 36.6303C24.1932 36.6303 23.896 36.5569 23.6404 36.4102C23.3847 36.261 23.1846 36.0444 23.0402 35.7603C22.9114 35.5006 22.841 35.1892 22.829 34.8263H26.7902V34.4712C26.7902 33.9622 26.7227 33.5337 26.5878 33.1857C26.4529 32.8377 26.2718 32.5584 26.0445 32.3477C25.8172 32.1346 25.5651 31.9807 25.2881 31.886C25.0111 31.7913 24.7306 31.744 24.4465 31.744C23.954 31.744 23.5232 31.8647 23.1539 32.1062C22.7869 32.3453 22.5004 32.6791 22.2945 33.1076C22.0909 33.5337 21.9891 34.0262 21.9891 34.5849C21.9891 35.1436 22.0909 35.6336 22.2945 36.055C22.5004 36.4741 22.7928 36.8008 23.1716 37.0352ZM22.8311 34.1019C22.8471 33.8489 22.9109 33.6098 23.0225 33.3846C23.1527 33.1218 23.3385 32.9087 23.58 32.7454C23.8238 32.5797 24.1127 32.4968 24.4465 32.4968C24.7495 32.4968 25.0123 32.5666 25.2348 32.7063C25.4597 32.846 25.6325 33.0366 25.7533 33.2781C25.8764 33.5195 25.9379 33.7942 25.9379 34.1019H22.8311Z" fill="#55B3FF"/>
</svg>
