<svg width="38" height="36" viewBox="0 0 38 36" fill="none" xmlns="http://www.w3.org/2000/svg">
<path fill-rule="evenodd" clip-rule="evenodd" d="M10.6884 0.0351562C8.45715 0.0351562 6.64838 1.84392 6.64838 4.07516V18.2412C6.64838 20.4724 8.45715 22.2812 10.6884 22.2812H26.8118C29.043 22.2812 30.8518 20.4724 30.8518 18.2412V8.02585C30.8518 5.79462 29.043 3.98585 26.8118 3.98585H10.1624C9.60475 3.98585 9.15268 3.53378 9.15268 2.97611C9.15268 2.91056 9.14643 2.84646 9.13451 2.78439C9.50504 2.33882 10.0636 2.05516 10.6884 2.05516H27.8457C28.4035 2.05516 28.8557 1.60296 28.8557 1.04516C28.8557 0.487349 28.4035 0.0351562 27.8457 0.0351562H10.6884ZM8.66838 18.2412V5.61247C9.10927 5.86286 9.61915 6.00585 10.1624 6.00585H26.8118C27.9274 6.00585 28.8318 6.91024 28.8318 8.02585V18.2412C28.8318 19.3568 27.9274 20.2612 26.8118 20.2612H10.6884C9.57277 20.2612 8.66838 19.3568 8.66838 18.2412Z" fill="#CFD1DE"/>
<path fill-rule="evenodd" clip-rule="evenodd" d="M0.53418 27.7275V35.0002H3.16202C3.73494 35.0002 4.20014 34.915 4.55762 34.7446C4.9151 34.5741 5.1767 34.3433 5.34242 34.0521C5.50814 33.7609 5.591 33.433 5.591 33.0684C5.591 32.6849 5.51524 32.3606 5.36373 32.0954C5.21221 31.8303 5.024 31.6267 4.79909 31.4846C4.57419 31.3426 4.35047 31.2644 4.12793 31.2502V31.1792C4.33626 31.1224 4.52921 31.0348 4.70677 30.9164C4.88669 30.7981 5.0311 30.6371 5.14 30.4335C5.25127 30.2299 5.30691 29.9718 5.30691 29.6593C5.30691 29.3042 5.22641 28.9811 5.06543 28.6899C4.90445 28.3963 4.65942 28.1631 4.33034 27.9903C4.00127 27.8151 3.58342 27.7275 3.07679 27.7275H0.53418ZM3.16202 34.219H1.41486V31.6906H3.20463C3.52187 31.6906 3.79649 31.7545 4.0285 31.8823C4.26051 32.0078 4.43925 32.1759 4.56472 32.3866C4.69019 32.5949 4.75293 32.8222 4.75293 33.0684C4.75293 33.388 4.63101 33.6603 4.38716 33.8852C4.14569 34.1077 3.7373 34.219 3.16202 34.219ZM3.04838 30.9235H1.41486V28.5088H3.07679C3.55975 28.5088 3.91249 28.6212 4.13503 28.8461C4.35757 29.0687 4.46884 29.3397 4.46884 29.6593C4.46884 29.915 4.40492 30.1375 4.27708 30.3269C4.1516 30.5163 3.98115 30.6631 3.76571 30.7673C3.55265 30.8714 3.31354 30.9235 3.04838 30.9235Z" fill="#CFD1DE"/>
<path d="M6.92445 29.5457V35.0002H7.76252V29.5457H6.92445Z" fill="#CFD1DE"/>
<path d="M6.928 28.4697C7.04637 28.581 7.18723 28.6366 7.35059 28.6366C7.51394 28.6366 7.65362 28.581 7.76962 28.4697C7.88799 28.3584 7.94718 28.2247 7.94718 28.0684C7.94718 27.9122 7.88799 27.7784 7.76962 27.6671C7.65362 27.5559 7.51394 27.5002 7.35059 27.5002C7.18723 27.5002 7.04637 27.5559 6.928 27.6671C6.812 27.7784 6.75399 27.9122 6.75399 28.0684C6.75399 28.2247 6.812 28.3584 6.928 28.4697Z" fill="#CFD1DE"/>
<path d="M10.1356 35.0002V27.7275H9.2975V35.0002H10.1356Z" fill="#CFD1DE"/>
<path d="M12.5086 35.0002V27.7275H11.6705V35.0002H12.5086Z" fill="#CFD1DE"/>
<path fill-rule="evenodd" clip-rule="evenodd" d="M14.9704 34.7659C15.3516 34.9979 15.805 35.1139 16.3305 35.1139C16.6998 35.1139 17.0325 35.0571 17.3284 34.9434C17.6243 34.8274 17.8729 34.6664 18.0741 34.4605C18.2754 34.2521 18.4186 34.0107 18.5038 33.736L17.6942 33.5088C17.6231 33.6982 17.5225 33.8568 17.3923 33.9846C17.2621 34.1101 17.107 34.2048 16.9271 34.2687C16.7496 34.3303 16.5507 34.361 16.3305 34.361C15.992 34.361 15.6949 34.2876 15.4392 34.1409C15.1835 33.9917 14.9835 33.7751 14.839 33.491C14.7102 33.2313 14.6398 32.9199 14.6278 32.5571H18.589V32.2019C18.589 31.6929 18.5216 31.2644 18.3866 30.9164C18.2517 30.5684 18.0706 30.2891 17.8433 30.0784C17.616 29.8653 17.3639 29.7114 17.0869 29.6167C16.8099 29.522 16.5294 29.4747 16.2453 29.4747C15.7529 29.4747 15.322 29.5954 14.9527 29.8369C14.5857 30.076 14.2993 30.4098 14.0933 30.8383C13.8897 31.2644 13.7879 31.7569 13.7879 32.3156C13.7879 32.8743 13.8897 33.3643 14.0933 33.7857C14.2993 34.2048 14.5916 34.5315 14.9704 34.7659ZM14.63 31.8326C14.6459 31.5796 14.7097 31.3405 14.8213 31.1153C14.9515 30.8525 15.1373 30.6394 15.3788 30.4761C15.6227 30.3104 15.9115 30.2275 16.2453 30.2275C16.5483 30.2275 16.8111 30.2973 17.0336 30.437C17.2586 30.5767 17.4314 30.7673 17.5521 31.0088C17.6752 31.2502 17.7368 31.5249 17.7368 31.8326H14.63Z" fill="#CFD1DE"/>
<path d="M22.2361 30.2559V29.5457H21.0713V28.2389H20.2332V29.5457H19.4094V30.2559H20.2332V33.665C20.2332 33.9822 20.3066 34.245 20.4534 34.4534C20.6025 34.6617 20.7896 34.8168 21.0145 34.9186C21.2417 35.0204 21.4738 35.0713 21.7105 35.0713C21.8667 35.0713 21.9958 35.0594 22.0976 35.0357C22.1994 35.0144 22.2787 34.9931 22.3355 34.9718L22.165 34.219L22.023 34.2474C21.9638 34.2569 21.8881 34.2616 21.7957 34.2616C21.6726 34.2616 21.5554 34.2427 21.4442 34.2048C21.3353 34.1645 21.2453 34.0864 21.1743 33.9704C21.1056 33.852 21.0713 33.6745 21.0713 33.4377V30.2559H22.2361Z" fill="#CFD1DE"/>
<path fill-rule="evenodd" clip-rule="evenodd" d="M24.365 34.7659C24.7461 34.9979 25.1995 35.1139 25.7251 35.1139C26.0944 35.1139 26.427 35.0571 26.7229 34.9434C27.0189 34.8274 27.2674 34.6664 27.4687 34.4605C27.6699 34.2521 27.8131 34.0107 27.8983 33.736L27.0887 33.5088C27.0177 33.6982 26.9171 33.8568 26.7868 33.9846C26.6566 34.1101 26.5016 34.2048 26.3216 34.2687C26.1441 34.3303 25.9452 34.361 25.7251 34.361C25.3865 34.361 25.0894 34.2876 24.8337 34.1409C24.578 33.9917 24.378 33.7751 24.2336 33.491C24.1048 33.2313 24.0344 32.9199 24.0224 32.5571H27.9836V32.2019C27.9836 31.6929 27.9161 31.2644 27.7812 30.9164C27.6462 30.5684 27.4651 30.2891 27.2378 30.0784C27.0106 29.8653 26.7584 29.7114 26.4814 29.6167C26.2045 29.522 25.9239 29.4747 25.6398 29.4747C25.1474 29.4747 24.7165 29.5954 24.3472 29.8369C23.9803 30.076 23.6938 30.4098 23.4878 30.8383C23.2842 31.2644 23.1824 31.7569 23.1824 32.3156C23.1824 32.8743 23.2842 33.3643 23.4878 33.7857C23.6938 34.2048 23.9862 34.5315 24.365 34.7659ZM24.0245 31.8326C24.0405 31.5796 24.1042 31.3405 24.2158 31.1153C24.346 30.8525 24.5319 30.6394 24.7733 30.4761C25.0172 30.3104 25.306 30.2275 25.6398 30.2275C25.9429 30.2275 26.2056 30.2973 26.4282 30.437C26.6531 30.5767 26.8259 30.7673 26.9466 31.0088C27.0697 31.2502 27.1313 31.5249 27.1313 31.8326H24.0245Z" fill="#CFD1DE"/>
<path d="M29.2584 29.5457V35.0002H30.0965V31.5485C30.0965 31.3023 30.1557 31.0833 30.2741 30.8916C30.3948 30.6974 30.5581 30.5459 30.7641 30.437C30.9724 30.3258 31.2092 30.2701 31.4743 30.2701C31.5856 30.2701 31.691 30.2784 31.7904 30.295C31.8922 30.3092 31.9573 30.3198 31.9857 30.3269V29.4747C31.9384 29.4699 31.8685 29.4664 31.7762 29.464C31.6839 29.4616 31.6069 29.4605 31.5454 29.4605C31.2187 29.4605 30.9251 29.5445 30.6647 29.7126C30.4043 29.8807 30.2243 30.0997 30.1249 30.3696H30.0681V29.5457H29.2584Z" fill="#CFD1DE"/>
<path fill-rule="evenodd" clip-rule="evenodd" d="M33.6432 34.9328C33.9249 35.063 34.2386 35.1281 34.5843 35.1281C34.9015 35.1281 35.1702 35.0807 35.3904 34.986C35.6105 34.8913 35.7869 34.7765 35.9195 34.6416C36.0521 34.5066 36.1468 34.38 36.2036 34.2616H36.2462V35.0002H37.0843V31.4065C37.0843 30.9732 37.0132 30.6276 36.8712 30.3696C36.7291 30.1115 36.5504 29.9186 36.335 29.7907C36.1219 29.6629 35.9005 29.5788 35.6709 29.5386C35.4436 29.496 35.2424 29.4747 35.0672 29.4747C34.7926 29.4747 34.5132 29.5125 34.2291 29.5883C33.9474 29.6617 33.687 29.7919 33.4479 29.9789C33.2111 30.1636 33.0218 30.4216 32.8797 30.7531L33.6752 31.0372C33.7675 30.8383 33.9273 30.6513 34.1546 30.4761C34.3818 30.3009 34.6955 30.2133 35.0956 30.2133C35.4815 30.2133 35.7691 30.3104 35.9585 30.5045C36.1503 30.6986 36.2462 30.9709 36.2462 31.3213V31.3497C36.2462 31.4846 36.1977 31.5793 36.1006 31.6338C36.0059 31.6882 35.8544 31.7273 35.646 31.7509C35.4401 31.7723 35.1714 31.8042 34.8399 31.8468C34.5866 31.88 34.3345 31.9249 34.0835 31.9818C33.835 32.0362 33.6077 32.1191 33.4017 32.2303C33.1958 32.3416 33.0312 32.4955 32.9081 32.692C32.785 32.8861 32.7235 33.1394 32.7235 33.4519C32.7235 33.8071 32.8063 34.1101 32.972 34.361C33.1378 34.6096 33.3615 34.8002 33.6432 34.9328ZM35.5502 34.1799C35.3229 34.3101 35.0435 34.3752 34.7121 34.3752C34.3783 34.3752 34.1025 34.3018 33.8847 34.1551C33.6692 34.0059 33.5615 33.7857 33.5615 33.4946C33.5615 33.2815 33.6183 33.1134 33.732 32.9903C33.848 32.8648 33.9995 32.7713 34.1865 32.7098C34.3759 32.6458 34.5795 32.5997 34.7973 32.5713C34.8873 32.5594 35.0045 32.5452 35.1489 32.5286C35.2957 32.5097 35.446 32.4884 35.5999 32.4647C35.7561 32.4387 35.8934 32.4091 36.0118 32.3759C36.1325 32.3404 36.2107 32.3014 36.2462 32.2588V33.0258C36.2462 33.2531 36.187 33.4697 36.0686 33.6757C35.9526 33.8816 35.7798 34.0497 35.5502 34.1799Z" fill="#CFD1DE"/>
</svg>
