<svg width="37" height="36" viewBox="0 0 37 36" fill="none" xmlns="http://www.w3.org/2000/svg">
<path fill-rule="evenodd" clip-rule="evenodd" d="M10.1884 0.0351562C7.95715 0.0351562 6.14838 1.84392 6.14838 4.07516V18.2412C6.14838 20.4724 7.95715 22.2812 10.1884 22.2812H26.3118C28.543 22.2812 30.3518 20.4724 30.3518 18.2412V8.02585C30.3518 5.79462 28.543 3.98585 26.3118 3.98585H9.66241C9.10475 3.98585 8.65268 3.53378 8.65268 2.97611C8.65268 2.91056 8.64643 2.84646 8.63451 2.78439C9.00504 2.33882 9.56358 2.05516 10.1884 2.05516H27.3457C27.9035 2.05516 28.3557 1.60296 28.3557 1.04516C28.3557 0.487349 27.9035 0.0351562 27.3457 0.0351562H10.1884ZM8.16838 18.2412V5.61247C8.60927 5.86286 9.11915 6.00585 9.66241 6.00585H26.3118C27.4274 6.00585 28.3318 6.91024 28.3318 8.02585V18.2412C28.3318 19.3568 27.4274 20.2612 26.3118 20.2612H10.1884C9.07277 20.2612 8.16838 19.3568 8.16838 18.2412Z" fill="#CFD1DE"/>
<path fill-rule="evenodd" clip-rule="evenodd" d="M0.0341797 27.7275V35.0002H2.66202C3.23494 35.0002 3.70014 34.915 4.05762 34.7446C4.4151 34.5741 4.6767 34.3433 4.84242 34.0521C5.00814 33.7609 5.091 33.433 5.091 33.0684C5.091 32.6849 5.01524 32.3606 4.86373 32.0954C4.71221 31.8303 4.524 31.6267 4.29909 31.4846C4.07419 31.3426 3.85047 31.2644 3.62793 31.2502V31.1792C3.83626 31.1224 4.02921 31.0348 4.20677 30.9164C4.38669 30.7981 4.5311 30.6371 4.64 30.4335C4.75127 30.2299 4.80691 29.9718 4.80691 29.6593C4.80691 29.3042 4.72641 28.9811 4.56543 28.6899C4.40445 28.3963 4.15942 28.1631 3.83034 27.9903C3.50127 27.8151 3.08342 27.7275 2.57679 27.7275H0.0341797ZM2.66202 34.219H0.914862V31.6906H2.70463C3.02187 31.6906 3.29649 31.7545 3.5285 31.8823C3.76051 32.0078 3.93925 32.1759 4.06472 32.3866C4.19019 32.5949 4.25293 32.8222 4.25293 33.0684C4.25293 33.388 4.13101 33.6603 3.88716 33.8852C3.64569 34.1077 3.2373 34.219 2.66202 34.219ZM2.54838 30.9235H0.914862V28.5088H2.57679C3.05975 28.5088 3.41249 28.6212 3.63503 28.8461C3.85757 29.0687 3.96884 29.3397 3.96884 29.6593C3.96884 29.915 3.90492 30.1375 3.77708 30.3269C3.6516 30.5163 3.48115 30.6631 3.26571 30.7673C3.05265 30.8714 2.81354 30.9235 2.54838 30.9235Z" fill="#CFD1DE"/>
<path d="M6.42445 29.5457V35.0002H7.26252V29.5457H6.42445Z" fill="#CFD1DE"/>
<path d="M6.428 28.4697C6.54637 28.581 6.68723 28.6366 6.85059 28.6366C7.01394 28.6366 7.15362 28.581 7.26962 28.4697C7.38799 28.3584 7.44718 28.2247 7.44718 28.0684C7.44718 27.9122 7.38799 27.7784 7.26962 27.6671C7.15362 27.5559 7.01394 27.5002 6.85059 27.5002C6.68723 27.5002 6.54637 27.5559 6.428 27.6671C6.312 27.7784 6.25399 27.9122 6.25399 28.0684C6.25399 28.2247 6.312 28.3584 6.428 28.4697Z" fill="#CFD1DE"/>
<path d="M9.63556 35.0002V27.7275H8.7975V35.0002H9.63556Z" fill="#CFD1DE"/>
<path d="M12.0086 35.0002V27.7275H11.1705V35.0002H12.0086Z" fill="#CFD1DE"/>
<path fill-rule="evenodd" clip-rule="evenodd" d="M14.4704 34.7659C14.8516 34.9979 15.305 35.1139 15.8305 35.1139C16.1998 35.1139 16.5325 35.0571 16.8284 34.9434C17.1243 34.8274 17.3729 34.6664 17.5741 34.4605C17.7754 34.2521 17.9186 34.0107 18.0038 33.736L17.1942 33.5088C17.1231 33.6982 17.0225 33.8568 16.8923 33.9846C16.7621 34.1101 16.607 34.2048 16.4271 34.2687C16.2496 34.3303 16.0507 34.361 15.8305 34.361C15.492 34.361 15.1949 34.2876 14.9392 34.1409C14.6835 33.9917 14.4835 33.7751 14.339 33.491C14.2102 33.2313 14.1398 32.9199 14.1278 32.5571H18.089V32.2019C18.089 31.6929 18.0216 31.2644 17.8866 30.9164C17.7517 30.5684 17.5706 30.2891 17.3433 30.0784C17.116 29.8653 16.8639 29.7114 16.5869 29.6167C16.3099 29.522 16.0294 29.4747 15.7453 29.4747C15.2529 29.4747 14.822 29.5954 14.4527 29.8369C14.0857 30.076 13.7993 30.4098 13.5933 30.8383C13.3897 31.2644 13.2879 31.7569 13.2879 32.3156C13.2879 32.8743 13.3897 33.3643 13.5933 33.7857C13.7993 34.2048 14.0916 34.5315 14.4704 34.7659ZM14.13 31.8326C14.1459 31.5796 14.2097 31.3405 14.3213 31.1153C14.4515 30.8525 14.6373 30.6394 14.8788 30.4761C15.1227 30.3104 15.4115 30.2275 15.7453 30.2275C16.0483 30.2275 16.3111 30.2973 16.5336 30.437C16.7586 30.5767 16.9314 30.7673 17.0521 31.0088C17.1752 31.2502 17.2368 31.5249 17.2368 31.8326H14.13Z" fill="#CFD1DE"/>
<path d="M21.7361 30.2559V29.5457H20.5713V28.2389H19.7332V29.5457H18.9094V30.2559H19.7332V33.665C19.7332 33.9822 19.8066 34.245 19.9534 34.4534C20.1025 34.6617 20.2896 34.8168 20.5145 34.9186C20.7417 35.0204 20.9738 35.0713 21.2105 35.0713C21.3667 35.0713 21.4958 35.0594 21.5976 35.0357C21.6994 35.0144 21.7787 34.9931 21.8355 34.9718L21.665 34.219L21.523 34.2474C21.4638 34.2569 21.3881 34.2616 21.2957 34.2616C21.1726 34.2616 21.0554 34.2427 20.9442 34.2048C20.8353 34.1645 20.7453 34.0864 20.6743 33.9704C20.6056 33.852 20.5713 33.6745 20.5713 33.4377V30.2559H21.7361Z" fill="#CFD1DE"/>
<path fill-rule="evenodd" clip-rule="evenodd" d="M23.865 34.7659C24.2461 34.9979 24.6995 35.1139 25.2251 35.1139C25.5944 35.1139 25.927 35.0571 26.2229 34.9434C26.5189 34.8274 26.7674 34.6664 26.9687 34.4605C27.1699 34.2521 27.3131 34.0107 27.3983 33.736L26.5887 33.5088C26.5177 33.6982 26.4171 33.8568 26.2868 33.9846C26.1566 34.1101 26.0016 34.2048 25.8216 34.2687C25.6441 34.3303 25.4452 34.361 25.2251 34.361C24.8865 34.361 24.5894 34.2876 24.3337 34.1409C24.078 33.9917 23.878 33.7751 23.7336 33.491C23.6048 33.2313 23.5344 32.9199 23.5224 32.5571H27.4836V32.2019C27.4836 31.6929 27.4161 31.2644 27.2812 30.9164C27.1462 30.5684 26.9651 30.2891 26.7378 30.0784C26.5106 29.8653 26.2584 29.7114 25.9814 29.6167C25.7045 29.522 25.4239 29.4747 25.1398 29.4747C24.6474 29.4747 24.2165 29.5954 23.8472 29.8369C23.4803 30.076 23.1938 30.4098 22.9878 30.8383C22.7842 31.2644 22.6824 31.7569 22.6824 32.3156C22.6824 32.8743 22.7842 33.3643 22.9878 33.7857C23.1938 34.2048 23.4862 34.5315 23.865 34.7659ZM23.5245 31.8326C23.5405 31.5796 23.6042 31.3405 23.7158 31.1153C23.846 30.8525 24.0319 30.6394 24.2733 30.4761C24.5172 30.3104 24.806 30.2275 25.1398 30.2275C25.4429 30.2275 25.7056 30.2973 25.9282 30.437C26.1531 30.5767 26.3259 30.7673 26.4466 31.0088C26.5697 31.2502 26.6313 31.5249 26.6313 31.8326H23.5245Z" fill="#CFD1DE"/>
<path d="M28.7584 29.5457V35.0002H29.5965V31.5485C29.5965 31.3023 29.6557 31.0833 29.7741 30.8916C29.8948 30.6974 30.0581 30.5459 30.2641 30.437C30.4724 30.3258 30.7092 30.2701 30.9743 30.2701C31.0856 30.2701 31.191 30.2784 31.2904 30.295C31.3922 30.3092 31.4573 30.3198 31.4857 30.3269V29.4747C31.4384 29.4699 31.3685 29.4664 31.2762 29.464C31.1839 29.4616 31.1069 29.4605 31.0454 29.4605C30.7187 29.4605 30.4251 29.5445 30.1647 29.7126C29.9043 29.8807 29.7243 30.0997 29.6249 30.3696H29.5681V29.5457H28.7584Z" fill="#CFD1DE"/>
<path fill-rule="evenodd" clip-rule="evenodd" d="M33.1432 34.9328C33.4249 35.063 33.7386 35.1281 34.0843 35.1281C34.4015 35.1281 34.6702 35.0807 34.8904 34.986C35.1105 34.8913 35.2869 34.7765 35.4195 34.6416C35.5521 34.5066 35.6468 34.38 35.7036 34.2616H35.7462V35.0002H36.5843V31.4065C36.5843 30.9732 36.5132 30.6276 36.3712 30.3696C36.2291 30.1115 36.0504 29.9186 35.835 29.7907C35.6219 29.6629 35.4005 29.5788 35.1709 29.5386C34.9436 29.496 34.7424 29.4747 34.5672 29.4747C34.2926 29.4747 34.0132 29.5125 33.7291 29.5883C33.4474 29.6617 33.187 29.7919 32.9479 29.9789C32.7111 30.1636 32.5218 30.4216 32.3797 30.7531L33.1752 31.0372C33.2675 30.8383 33.4273 30.6513 33.6546 30.4761C33.8818 30.3009 34.1955 30.2133 34.5956 30.2133C34.9815 30.2133 35.2691 30.3104 35.4585 30.5045C35.6503 30.6986 35.7462 30.9709 35.7462 31.3213V31.3497C35.7462 31.4846 35.6977 31.5793 35.6006 31.6338C35.5059 31.6882 35.3544 31.7273 35.146 31.7509C34.9401 31.7723 34.6714 31.8042 34.3399 31.8468C34.0866 31.88 33.8345 31.9249 33.5835 31.9818C33.335 32.0362 33.1077 32.1191 32.9017 32.2303C32.6958 32.3416 32.5312 32.4955 32.4081 32.692C32.285 32.8861 32.2235 33.1394 32.2235 33.4519C32.2235 33.8071 32.3063 34.1101 32.472 34.361C32.6378 34.6096 32.8615 34.8002 33.1432 34.9328ZM35.0502 34.1799C34.8229 34.3101 34.5435 34.3752 34.2121 34.3752C33.8783 34.3752 33.6025 34.3018 33.3847 34.1551C33.1692 34.0059 33.0615 33.7857 33.0615 33.4946C33.0615 33.2815 33.1183 33.1134 33.232 32.9903C33.348 32.8648 33.4995 32.7713 33.6865 32.7098C33.8759 32.6458 34.0795 32.5997 34.2973 32.5713C34.3873 32.5594 34.5045 32.5452 34.6489 32.5286C34.7957 32.5097 34.946 32.4884 35.0999 32.4647C35.2561 32.4387 35.3934 32.4091 35.5118 32.3759C35.6325 32.3404 35.7107 32.3014 35.7462 32.2588V33.0258C35.7462 33.2531 35.687 33.4697 35.5686 33.6757C35.4526 33.8816 35.2798 34.0497 35.0502 34.1799Z" fill="#CFD1DE"/>
</svg>
