<svg width="11" height="11" viewBox="0 0 11 11" fill="none" xmlns="http://www.w3.org/2000/svg">
<path fill-rule="evenodd" clip-rule="evenodd" d="M6.60742 1.04688C6.60742 0.49459 6.15971 0.046875 5.60742 0.046875C5.05514 0.046875 4.60742 0.49459 4.60742 1.04688V4.29687H1.35742C0.805137 4.29687 0.357422 4.74459 0.357422 5.29687C0.357422 5.84916 0.805137 6.29687 1.35742 6.29687H4.60742V9.54688C4.60742 10.0992 5.05514 10.5469 5.60742 10.5469C6.15971 10.5469 6.60742 10.0992 6.60742 9.54688V6.29688H9.85742C10.4097 6.29688 10.8574 5.84916 10.8574 5.29688C10.8574 4.74459 10.4097 4.29688 9.85742 4.29688H6.60742V1.04688Z" fill="white"/>
</svg>
