<svg width="27" height="38" viewBox="0 0 27 38" fill="none" xmlns="http://www.w3.org/2000/svg">
<path fill-rule="evenodd" clip-rule="evenodd" d="M13.8497 0.196962C13.4931 -0.0656538 13.0071 -0.0656538 12.6504 0.196962L3.77235 6.73445C2.73699 7.49685 2.12574 8.70605 2.12574 9.99182V20.7317C2.12574 22.6866 3.71046 24.2713 5.6653 24.2713H9.20486C10.3219 24.2713 11.2275 23.3657 11.2275 22.2487V16.6865H15.2727V22.2487C15.2727 23.3657 16.1782 24.2713 17.2953 24.2713H20.8348C22.7897 24.2713 24.3744 22.6866 24.3744 20.7317V9.99182C24.3744 8.70605 23.7631 7.49685 22.7278 6.73445L13.8497 0.196962ZM4.97165 8.36313L13.2501 2.26721L21.5285 8.36313C22.0462 8.74433 22.3518 9.34893 22.3518 9.99182V20.7317C22.3518 21.5695 21.6726 22.2487 20.8348 22.2487H17.2953V16.1808C17.2953 15.3431 16.6161 14.6639 15.7783 14.6639H10.7218C9.88403 14.6639 9.20486 15.3431 9.20486 16.1808V22.2487H5.6653C4.82751 22.2487 4.14835 21.5695 4.14835 20.7317V9.99182C4.14835 9.34893 4.45397 8.74433 4.97165 8.36313Z" fill="#CFD1DE"/>
<path d="M0.19043 29.7273V37H1.07111V33.7472H4.94895V37H5.82964V29.7273H4.94895V32.9659H1.07111V29.7273H0.19043Z" fill="#CFD1DE"/>
<path fill-rule="evenodd" clip-rule="evenodd" d="M8.39888 36.7621C8.77057 36.9964 9.20262 37.1136 9.69505 37.1136C10.1875 37.1136 10.6183 36.9964 10.9877 36.7621C11.3593 36.5277 11.6482 36.1998 11.8541 35.7784C12.0625 35.357 12.1666 34.8646 12.1666 34.3011C12.1666 33.733 12.0625 33.237 11.8541 32.8132C11.6482 32.3894 11.3593 32.0604 10.9877 31.826C10.6183 31.5916 10.1875 31.4744 9.69505 31.4744C9.20262 31.4744 8.77057 31.5916 8.39888 31.826C8.02956 32.0604 7.74074 32.3894 7.53241 32.8132C7.32644 33.237 7.22346 33.733 7.22346 34.3011C7.22346 34.8646 7.32644 35.357 7.53241 35.7784C7.74074 36.1998 8.02956 36.5277 8.39888 36.7621ZM10.6183 36.0732C10.3769 36.2649 10.0691 36.3608 9.69505 36.3608C9.321 36.3608 9.01323 36.2649 8.77175 36.0732C8.53028 35.8814 8.35153 35.6293 8.23553 35.3168C8.11953 35.0043 8.06153 34.6657 8.06153 34.3011C8.06153 33.9366 8.11953 33.5968 8.23553 33.282C8.35153 32.9671 8.53028 32.7126 8.77175 32.5185C9.01323 32.3243 9.321 32.2273 9.69505 32.2273C10.0691 32.2273 10.3769 32.3243 10.6183 32.5185C10.8598 32.7126 11.0386 32.9671 11.1546 33.282C11.2706 33.5968 11.3286 33.9366 11.3286 34.3011C11.3286 34.6657 11.2706 35.0043 11.1546 35.3168C11.0386 35.6293 10.8598 35.8814 10.6183 36.0732Z" fill="#CFD1DE"/>
<path d="M13.4459 31.5455V37H14.284V33.5909C14.284 33.3234 14.3408 33.0878 14.4545 32.8842C14.5705 32.6783 14.722 32.5173 14.909 32.4013C15.0984 32.2853 15.302 32.2273 15.5198 32.2273C15.837 32.2273 16.0963 32.3232 16.2975 32.5149C16.4987 32.7043 16.5993 32.9541 16.5993 33.2642V37H17.4516V33.4489C17.4516 33.0961 17.557 32.8049 17.7677 32.5753C17.9784 32.3433 18.2755 32.2273 18.659 32.2273C18.9573 32.2273 19.2165 32.3137 19.4367 32.4865C19.6569 32.6593 19.767 32.947 19.767 33.3494V37H20.605V33.3494C20.605 32.7079 20.45 32.2356 20.1398 31.9325C19.8297 31.6271 19.4308 31.4744 18.9431 31.4744C18.5525 31.4744 18.2175 31.5585 17.9381 31.7266C17.6588 31.8923 17.4492 32.116 17.3096 32.3977H17.2528C17.1178 32.1065 16.9296 31.8804 16.6881 31.7195C16.449 31.5561 16.1495 31.4744 15.7897 31.4744C15.4346 31.4744 15.1304 31.5561 14.877 31.7195C14.6237 31.8804 14.4403 32.1065 14.3266 32.3977H14.2556V31.5455H13.4459Z" fill="#CFD1DE"/>
<path fill-rule="evenodd" clip-rule="evenodd" d="M23.0642 36.7656C23.4453 36.9976 23.8987 37.1136 24.4243 37.1136C24.7936 37.1136 25.1262 37.0568 25.4221 36.9432C25.7181 36.8272 25.9667 36.6662 26.1679 36.4602C26.3691 36.2519 26.5123 36.0104 26.5976 35.7358L25.7879 35.5085C25.7169 35.6979 25.6163 35.8565 25.4861 35.9844C25.3559 36.1098 25.2008 36.2045 25.0209 36.2685C24.8433 36.33 24.6444 36.3608 24.4243 36.3608C24.0857 36.3608 23.7886 36.2874 23.5329 36.1406C23.2773 35.9915 23.0772 35.7749 22.9328 35.4908C22.804 35.231 22.7336 34.9197 22.7216 34.5568H26.6828V34.2017C26.6828 33.6927 26.6153 33.2642 26.4804 32.9162C26.3454 32.5682 26.1643 32.2888 25.9371 32.0781C25.7098 31.8651 25.4577 31.7112 25.1807 31.6165C24.9037 31.5218 24.6231 31.4744 24.339 31.4744C23.8466 31.4744 23.4158 31.5952 23.0464 31.8366C22.6795 32.0758 22.393 32.4096 22.1871 32.8381C21.9835 33.2642 21.8817 33.7566 21.8817 34.3153C21.8817 34.8741 21.9835 35.3641 22.1871 35.7855C22.393 36.2045 22.6854 36.5312 23.0642 36.7656ZM22.7237 33.8324C22.7397 33.5794 22.8035 33.3403 22.915 33.1151C23.0452 32.8523 23.2311 32.6392 23.4726 32.4759C23.7164 32.3101 24.0052 32.2273 24.339 32.2273C24.6421 32.2273 24.9049 32.2971 25.1274 32.4368C25.3523 32.5765 25.5251 32.767 25.6459 33.0085C25.769 33.25 25.8305 33.5246 25.8305 33.8324H22.7237Z" fill="#CFD1DE"/>
</svg>
