<svg width="28" height="38" viewBox="0 0 28 38" fill="none" xmlns="http://www.w3.org/2000/svg">
<path fill-rule="evenodd" clip-rule="evenodd" d="M14.4413 0.696962C14.0846 0.434346 13.5986 0.434346 13.242 0.696962L4.3639 7.23445C3.32854 7.99685 2.71729 9.20605 2.71729 10.4918V21.2317C2.71729 23.1866 4.30201 24.7713 6.25685 24.7713H9.79641C10.9135 24.7713 11.819 23.8657 11.819 22.7487V17.1865H15.8642V22.7487C15.8642 23.8657 16.7698 24.7713 17.8868 24.7713H21.4264C23.3812 24.7713 24.966 23.1866 24.966 21.2317V10.4918C24.966 9.20605 24.3547 7.99685 23.3193 7.23445L14.4413 0.696962ZM5.5632 8.86313L13.8416 2.76721L22.12 8.86313C22.6377 9.24433 22.9433 9.84893 22.9433 10.4918V21.2317C22.9433 22.0695 22.2642 22.7487 21.4264 22.7487H17.8868V16.6808C17.8868 15.8431 17.2077 15.1639 16.3699 15.1639H11.3134C10.4756 15.1639 9.79641 15.8431 9.79641 16.6808V22.7487H6.25685C5.41906 22.7487 4.7399 22.0695 4.7399 21.2317V10.4918C4.7399 9.84893 5.04552 9.24433 5.5632 8.86313Z" fill="#CFD1DE"/>
<path d="M0.781982 30.2273V37.5H1.66267V34.2472H5.54051V37.5H6.42119V30.2273H5.54051V33.4659H1.66267V30.2273H0.781982Z" fill="#CFD1DE"/>
<path fill-rule="evenodd" clip-rule="evenodd" d="M8.99044 37.2621C9.36212 37.4964 9.79418 37.6136 10.2866 37.6136C10.779 37.6136 11.2099 37.4964 11.5792 37.2621C11.9509 37.0277 12.2397 36.6998 12.4457 36.2784C12.654 35.857 12.7582 35.3646 12.7582 34.8011C12.7582 34.233 12.654 33.737 12.4457 33.3132C12.2397 32.8894 11.9509 32.5604 11.5792 32.326C11.2099 32.0916 10.779 31.9744 10.2866 31.9744C9.79418 31.9744 9.36212 32.0916 8.99044 32.326C8.62112 32.5604 8.33229 32.8894 8.12396 33.3132C7.91799 33.737 7.81501 34.233 7.81501 34.8011C7.81501 35.3646 7.91799 35.857 8.12396 36.2784C8.33229 36.6998 8.62112 37.0277 8.99044 37.2621ZM11.2099 36.5732C10.9684 36.7649 10.6607 36.8608 10.2866 36.8608C9.91255 36.8608 9.60478 36.7649 9.36331 36.5732C9.12183 36.3814 8.94309 36.1293 8.82708 35.8168C8.71108 35.5043 8.65308 35.1657 8.65308 34.8011C8.65308 34.4366 8.71108 34.0968 8.82708 33.782C8.94309 33.4671 9.12183 33.2126 9.36331 33.0185C9.60478 32.8243 9.91255 32.7273 10.2866 32.7273C10.6607 32.7273 10.9684 32.8243 11.2099 33.0185C11.4514 33.2126 11.6301 33.4671 11.7461 33.782C11.8621 34.0968 11.9201 34.4366 11.9201 34.8011C11.9201 35.1657 11.8621 35.5043 11.7461 35.8168C11.6301 36.1293 11.4514 36.3814 11.2099 36.5732Z" fill="#CFD1DE"/>
<path d="M14.0375 32.0455V37.5H14.8756V34.0909C14.8756 33.8234 14.9324 33.5878 15.046 33.3842C15.162 33.1783 15.3135 33.0173 15.5006 32.9013C15.69 32.7853 15.8935 32.7273 16.1114 32.7273C16.4286 32.7273 16.6878 32.8232 16.8891 33.0149C17.0903 33.2043 17.1909 33.4541 17.1909 33.7642V37.5H18.0432V33.9489C18.0432 33.5961 18.1485 33.3049 18.3592 33.0753C18.5699 32.8433 18.867 32.7273 19.2506 32.7273C19.5489 32.7273 19.8081 32.8137 20.0283 32.9865C20.2484 33.1593 20.3585 33.447 20.3585 33.8494V37.5H21.1966V33.8494C21.1966 33.2079 21.0415 32.7356 20.7314 32.4325C20.4212 32.1271 20.0223 31.9744 19.5346 31.9744C19.144 31.9744 18.809 32.0585 18.5297 32.2266C18.2503 32.3923 18.0408 32.616 17.9011 32.8977H17.8443C17.7094 32.6065 17.5212 32.3804 17.2797 32.2195C17.0406 32.0561 16.7411 31.9744 16.3812 31.9744C16.0261 31.9744 15.7219 32.0561 15.4686 32.2195C15.2153 32.3804 15.0318 32.6065 14.9182 32.8977H14.8471V32.0455H14.0375Z" fill="#CFD1DE"/>
<path fill-rule="evenodd" clip-rule="evenodd" d="M23.6557 37.2656C24.0369 37.4976 24.4903 37.6136 25.0158 37.6136C25.3851 37.6136 25.7178 37.5568 26.0137 37.4432C26.3096 37.3272 26.5582 37.1662 26.7594 36.9602C26.9607 36.7519 27.1039 36.5104 27.1891 36.2358L26.3795 36.0085C26.3084 36.1979 26.2078 36.3565 26.0776 36.4844C25.9474 36.6098 25.7923 36.7045 25.6124 36.7685C25.4349 36.83 25.236 36.8608 25.0158 36.8608C24.6773 36.8608 24.3802 36.7874 24.1245 36.6406C23.8688 36.4915 23.6688 36.2749 23.5243 35.9908C23.3956 35.731 23.3251 35.4197 23.3131 35.0568H27.2743V34.7017C27.2743 34.1927 27.2069 33.7642 27.0719 33.4162C26.937 33.0682 26.7559 32.7888 26.5286 32.5781C26.3013 32.3651 26.0492 32.2112 25.7722 32.1165C25.4952 32.0218 25.2147 31.9744 24.9306 31.9744C24.4382 31.9744 24.0073 32.0952 23.638 32.3366C23.271 32.5758 22.9846 32.9096 22.7786 33.3381C22.575 33.7642 22.4732 34.2566 22.4732 34.8153C22.4732 35.3741 22.575 35.8641 22.7786 36.2855C22.9846 36.7045 23.277 37.0312 23.6557 37.2656ZM23.3153 34.3324C23.3312 34.0794 23.395 33.8403 23.5066 33.6151C23.6368 33.3523 23.8226 33.1392 24.0641 32.9759C24.308 32.8101 24.5968 32.7273 24.9306 32.7273C25.2336 32.7273 25.4964 32.7971 25.719 32.9368C25.9439 33.0765 26.1167 33.267 26.2374 33.5085C26.3605 33.75 26.4221 34.0246 26.4221 34.3324H23.3153Z" fill="#CFD1DE"/>
</svg>
