<svg width="46" height="40" viewBox="0 0 46 40" fill="none" xmlns="http://www.w3.org/2000/svg">
<path fill-rule="evenodd" clip-rule="evenodd" d="M28.8226 2.02261H28.65C28.2335 0.844244 27.1097 0 25.7887 0H19.7209C18.3999 0 17.2761 0.844243 16.8596 2.02261H16.687C14.4529 2.02261 12.6418 3.8337 12.6418 6.06781V20.2261C12.6418 22.4602 14.4529 24.2713 16.687 24.2713H28.8226C31.0568 24.2713 32.8679 22.4602 32.8679 20.2261V6.06782C32.8679 3.83371 31.0568 2.02261 28.8226 2.02261ZM14.6644 6.06781C14.6644 4.95076 15.57 4.04521 16.687 4.04521C16.687 5.72079 18.0453 7.07912 19.7209 7.07912H25.7887C27.4643 7.07912 28.8226 5.72079 28.8226 4.04521C29.9397 4.04521 30.8453 4.95076 30.8453 6.06782V20.2261C30.8453 21.3431 29.9397 22.2487 28.8226 22.2487H16.687C15.57 22.2487 14.6644 21.3431 14.6644 20.2261V6.06781ZM19.7209 2.02261C19.1624 2.02261 18.7096 2.47538 18.7096 3.03391V4.04521C18.7096 4.60374 19.1624 5.05651 19.7209 5.05651H25.7887C26.3473 5.05651 26.8 4.60374 26.8 4.04521V3.03391C26.8 2.47538 26.3473 2.02261 25.7887 2.02261H19.7209Z" fill="#CFD1DE"/>
<path fill-rule="evenodd" clip-rule="evenodd" d="M0.0272217 29.7273V37H0.907904V34.3438H2.49881C3.06463 34.3438 3.52864 34.2408 3.89086 34.0348C4.25307 33.8265 4.52059 33.5471 4.69341 33.1967C4.8686 32.8464 4.9562 32.4569 4.9562 32.0284C4.9562 31.5999 4.8686 31.2116 4.69341 30.8636C4.51823 30.5156 4.24834 30.2398 3.88376 30.0362C3.52154 29.8303 3.05516 29.7273 2.48461 29.7273H0.0272217ZM0.907904 33.5625H2.4704C2.86103 33.5625 3.17471 33.495 3.41145 33.3601C3.6482 33.2251 3.81984 33.0429 3.92637 32.8132C4.03527 32.5812 4.08972 32.3196 4.08972 32.0284C4.08972 31.7372 4.03527 31.4768 3.92637 31.2472C3.81984 31.0175 3.64701 30.8376 3.4079 30.7074C3.16879 30.5748 2.85156 30.5085 2.4562 30.5085H0.907904V33.5625Z" fill="#CFD1DE"/>
<path d="M6.26124 31.5455V37H7.09931V33.5483C7.09931 33.3021 7.1585 33.0831 7.27687 32.8913C7.3976 32.6972 7.56096 32.5457 7.76692 32.4368C7.97526 32.3255 8.212 32.2699 8.47715 32.2699C8.58842 32.2699 8.69377 32.2782 8.7932 32.2947C8.895 32.3089 8.9601 32.3196 8.98851 32.3267V31.4744C8.94117 31.4697 8.87133 31.4661 8.779 31.4638C8.68667 31.4614 8.60973 31.4602 8.54817 31.4602C8.22147 31.4602 7.92791 31.5443 7.66749 31.7124C7.40707 31.8804 7.22715 32.0994 7.12772 32.3693H7.0709V31.5455H6.26124Z" fill="#CFD1DE"/>
<path fill-rule="evenodd" clip-rule="evenodd" d="M10.7357 36.7621C11.1074 36.9964 11.5394 37.1136 12.0318 37.1136C12.5243 37.1136 12.9551 36.9964 13.3245 36.7621C13.6961 36.5277 13.985 36.1998 14.1909 35.7784C14.3993 35.357 14.5034 34.8646 14.5034 34.3011C14.5034 33.733 14.3993 33.237 14.1909 32.8132C13.985 32.3894 13.6961 32.0604 13.3245 31.826C12.9551 31.5916 12.5243 31.4744 12.0318 31.4744C11.5394 31.4744 11.1074 31.5916 10.7357 31.826C10.3664 32.0604 10.0775 32.3894 9.8692 32.8132C9.66323 33.237 9.56025 33.733 9.56025 34.3011C9.56025 34.8646 9.66323 35.357 9.8692 35.7784C10.0775 36.1998 10.3664 36.5277 10.7357 36.7621ZM12.9551 36.0732C12.7137 36.2649 12.4059 36.3608 12.0318 36.3608C11.6578 36.3608 11.35 36.2649 11.1085 36.0732C10.8671 35.8814 10.6883 35.6293 10.5723 35.3168C10.4563 35.0043 10.3983 34.6657 10.3983 34.3011C10.3983 33.9366 10.4563 33.5968 10.5723 33.282C10.6883 32.9671 10.8671 32.7126 11.1085 32.5185C11.35 32.3243 11.6578 32.2273 12.0318 32.2273C12.4059 32.2273 12.7137 32.3243 12.9551 32.5185C13.1966 32.7126 13.3754 32.9671 13.4914 33.282C13.6074 33.5968 13.6654 33.9366 13.6654 34.3011C13.6654 34.6657 13.6074 35.0043 13.4914 35.3168C13.3754 35.6293 13.1966 35.8814 12.9551 36.0732Z" fill="#CFD1DE"/>
<path d="M15.7472 39.0099C15.8585 39.0336 15.9851 39.0455 16.1272 39.0455C16.3805 39.0455 16.6078 39.0005 16.809 38.9105C17.0126 38.8205 17.1913 38.6821 17.3452 38.495C17.4991 38.3104 17.6281 38.0772 17.7323 37.7955L20.0476 31.5455H19.1385L17.6329 35.892H17.576L16.0704 31.5455H15.1613L17.1783 37.0284L17.0221 37.4545C16.9203 37.7315 16.8078 37.9316 16.6847 38.0547C16.564 38.1802 16.4255 38.25 16.2692 38.2642C16.113 38.2784 15.9331 38.2595 15.7295 38.2074L15.5164 38.946C15.559 38.9673 15.6359 38.9886 15.7472 39.0099Z" fill="#CFD1DE"/>
<path fill-rule="evenodd" clip-rule="evenodd" d="M21.8854 36.7656C22.2665 36.9976 22.7199 37.1136 23.2454 37.1136C23.6148 37.1136 23.9474 37.0568 24.2433 36.9432C24.5392 36.8272 24.7878 36.6662 24.989 36.4602C25.1903 36.2519 25.3335 36.0104 25.4187 35.7358L24.6091 35.5085C24.5381 35.6979 24.4374 35.8565 24.3072 35.9844C24.177 36.1098 24.022 36.2045 23.842 36.2685C23.6645 36.33 23.4656 36.3608 23.2454 36.3608C22.9069 36.3608 22.6098 36.2874 22.3541 36.1406C22.0984 35.9915 21.8984 35.7749 21.754 35.4908C21.6252 35.231 21.5548 34.9197 21.5427 34.5568H25.504V34.2017C25.504 33.6927 25.4365 33.2642 25.3015 32.9162C25.1666 32.5682 24.9855 32.2888 24.7582 32.0781C24.531 31.8651 24.2788 31.7112 24.0018 31.6165C23.7248 31.5218 23.4443 31.4744 23.1602 31.4744C22.6678 31.4744 22.2369 31.5952 21.8676 31.8366C21.5006 32.0758 21.2142 32.4096 21.0082 32.8381C20.8046 33.2642 20.7028 33.7566 20.7028 34.3153C20.7028 34.8741 20.8046 35.3641 21.0082 35.7855C21.2142 36.2045 21.5066 36.5312 21.8854 36.7656ZM21.5449 33.8324C21.5608 33.5794 21.6246 33.3403 21.7362 33.1151C21.8664 32.8523 22.0523 32.6392 22.2937 32.4759C22.5376 32.3101 22.8264 32.2273 23.1602 32.2273C23.4632 32.2273 23.726 32.2971 23.9486 32.4368C24.1735 32.5765 24.3463 32.767 24.467 33.0085C24.5901 33.25 24.6517 33.5246 24.6517 33.8324H21.5449Z" fill="#CFD1DE"/>
<path d="M27.6737 36.7514C28.043 36.9929 28.4834 37.1136 28.9947 37.1136C29.3972 37.1136 29.7499 37.0391 30.053 36.8899C30.3584 36.7384 30.6034 36.5348 30.7881 36.2791C30.9751 36.0211 31.0923 35.7311 31.1396 35.4091H30.3015C30.2495 35.608 30.1619 35.7784 30.0388 35.9205C29.9157 36.0625 29.7653 36.1714 29.5878 36.2472C29.4102 36.3229 29.2125 36.3608 28.9947 36.3608C28.6633 36.3608 28.3745 36.2744 28.1283 36.1016C27.8844 35.9287 27.695 35.6861 27.5601 35.3736C27.4275 35.0611 27.3612 34.6941 27.3612 34.2727C27.3612 33.8608 27.4287 33.5021 27.5636 33.1967C27.7009 32.889 27.8915 32.651 28.1354 32.483C28.3816 32.3125 28.668 32.2273 28.9947 32.2273C29.364 32.2273 29.6576 32.3243 29.8754 32.5185C30.0956 32.7102 30.2376 32.9304 30.3015 33.179H31.1396C31.0923 32.8381 30.9703 32.5398 30.7738 32.2841C30.5774 32.0284 30.3252 31.8295 30.0175 31.6875C29.7097 31.5455 29.364 31.4744 28.9805 31.4744C28.4881 31.4744 28.0572 31.5952 27.6879 31.8366C27.321 32.0758 27.0345 32.4084 26.8285 32.8345C26.6249 33.2583 26.5231 33.7472 26.5231 34.3011C26.5231 34.8456 26.6226 35.3298 26.8214 35.7536C27.0203 36.1773 27.3044 36.5099 27.6737 36.7514Z" fill="#CFD1DE"/>
<path d="M34.7369 32.2557V31.5455H33.5721V30.2386H32.7341V31.5455H31.9102V32.2557H32.7341V35.6648C32.7341 35.982 32.8075 36.2448 32.9542 36.4531C33.1034 36.6615 33.2904 36.8165 33.5153 36.9183C33.7426 37.0201 33.9746 37.071 34.2113 37.071C34.3676 37.071 34.4966 37.0592 34.5984 37.0355C34.7002 37.0142 34.7795 36.9929 34.8363 36.9716L34.6659 36.2188L34.5238 36.2472C34.4647 36.2566 34.3889 36.2614 34.2966 36.2614C34.1735 36.2614 34.0563 36.2424 33.945 36.2045C33.8361 36.1643 33.7462 36.0862 33.6751 35.9702C33.6065 35.8518 33.5721 35.6742 33.5721 35.4375V32.2557H34.7369Z" fill="#CFD1DE"/>
<path fill-rule="evenodd" clip-rule="evenodd" d="M36.8587 36.7621C37.2304 36.9964 37.6625 37.1136 38.1549 37.1136C38.6473 37.1136 39.0782 36.9964 39.4475 36.7621C39.8192 36.5277 40.108 36.1998 40.314 35.7784C40.5223 35.357 40.6265 34.8646 40.6265 34.3011C40.6265 33.733 40.5223 33.237 40.314 32.8132C40.108 32.3894 39.8192 32.0604 39.4475 31.826C39.0782 31.5916 38.6473 31.4744 38.1549 31.4744C37.6625 31.4744 37.2304 31.5916 36.8587 31.826C36.4894 32.0604 36.2006 32.3894 35.9922 32.8132C35.7863 33.237 35.6833 33.733 35.6833 34.3011C35.6833 34.8646 35.7863 35.357 35.9922 35.7784C36.2006 36.1998 36.4894 36.5277 36.8587 36.7621ZM39.0782 36.0732C38.8367 36.2649 38.5289 36.3608 38.1549 36.3608C37.7808 36.3608 37.4731 36.2649 37.2316 36.0732C36.9901 35.8814 36.8114 35.6293 36.6954 35.3168C36.5794 35.0043 36.5214 34.6657 36.5214 34.3011C36.5214 33.9366 36.5794 33.5968 36.6954 33.282C36.8114 32.9671 36.9901 32.7126 37.2316 32.5185C37.4731 32.3243 37.7808 32.2273 38.1549 32.2273C38.5289 32.2273 38.8367 32.3243 39.0782 32.5185C39.3197 32.7126 39.4984 32.9671 39.6144 33.282C39.7304 33.5968 39.7884 33.9366 39.7884 34.3011C39.7884 34.6657 39.7304 35.0043 39.6144 35.3168C39.4984 35.6293 39.3197 35.8814 39.0782 36.0732Z" fill="#CFD1DE"/>
<path d="M45.0166 32.9801L45.7694 32.767C45.6392 32.3788 45.419 32.0663 45.1089 31.8295C44.8011 31.5928 44.3774 31.4744 43.8376 31.4744C43.4541 31.4744 43.1108 31.5419 42.8078 31.6768C42.5071 31.8118 42.2692 31.9976 42.094 32.2344C41.9212 32.4711 41.8348 32.7434 41.8348 33.0511C41.8348 33.4276 41.9508 33.7412 42.1828 33.9922C42.4171 34.2408 42.7841 34.4242 43.2836 34.5426L44.1927 34.7557C44.4673 34.8196 44.6709 34.9167 44.8035 35.0469C44.9361 35.1747 45.0024 35.3333 45.0024 35.5227C45.0024 35.7571 44.8864 35.9583 44.6544 36.1264C44.4247 36.2921 44.1146 36.375 43.724 36.375C43.3807 36.375 43.1025 36.3016 42.8894 36.1548C42.6787 36.008 42.5355 35.7879 42.4598 35.4943L41.6643 35.6932C41.7614 36.1572 41.9922 36.5099 42.3568 36.7514C42.7214 36.9929 43.1818 37.1136 43.7382 37.1136C44.1619 37.1136 44.5336 37.0426 44.8532 36.9006C45.1728 36.7585 45.4214 36.5644 45.599 36.3182C45.7789 36.072 45.8688 35.7926 45.8688 35.4801C45.8688 35.099 45.7493 34.7876 45.5102 34.5462C45.2711 34.3023 44.9077 34.1212 44.42 34.0028L43.6103 33.804C43.2883 33.7235 43.0516 33.6229 42.9001 33.5021C42.7486 33.3814 42.6728 33.2169 42.6728 33.0085C42.6728 32.7741 42.7829 32.5812 43.0031 32.4297C43.2256 32.2758 43.5038 32.1989 43.8376 32.1989C44.0814 32.1989 44.2815 32.2379 44.4377 32.3161C44.594 32.3942 44.7171 32.4936 44.8071 32.6143C44.8994 32.7327 44.9692 32.8546 45.0166 32.9801Z" fill="#CFD1DE"/>
</svg>
