<svg width="27" height="38" viewBox="0 0 27 38" fill="none" xmlns="http://www.w3.org/2000/svg">
<path fill-rule="evenodd" clip-rule="evenodd" d="M13.6603 0.196962C13.3036 -0.0656538 12.8176 -0.0656538 12.461 0.196962L3.58289 6.73445C2.54754 7.49685 1.93629 8.70605 1.93629 9.99182V20.7317C1.93629 22.6866 3.521 24.2713 5.47585 24.2713H9.01541C10.1325 24.2713 11.038 23.3657 11.038 22.2487V16.6865H15.0832V22.2487C15.0832 23.3657 15.9888 24.2713 17.1058 24.2713H20.6454C22.6002 24.2713 24.1849 22.6866 24.1849 20.7317V9.99182C24.1849 8.70605 23.5737 7.49685 22.5383 6.73445L13.6603 0.196962ZM4.7822 8.36313L13.0606 2.26721L21.339 8.36313C21.8567 8.74433 22.1623 9.34893 22.1623 9.99182V20.7317C22.1623 21.5695 21.4832 22.2487 20.6454 22.2487H17.1058V16.1808C17.1058 15.3431 16.4267 14.6639 15.5889 14.6639H10.5324C9.69457 14.6639 9.01541 15.3431 9.01541 16.1808V22.2487H5.47585C4.63806 22.2487 3.95889 21.5695 3.95889 20.7317V9.99182C3.95889 9.34893 4.26452 8.74433 4.7822 8.36313Z" fill="#55B3FF"/>
<path d="M0 29.7273V37H0.880684V33.7472H4.75852V37H5.63921V29.7273H4.75852V32.9659H0.880684V29.7273H0Z" fill="#55B3FF"/>
<path fill-rule="evenodd" clip-rule="evenodd" d="M8.20845 36.7621C8.58014 36.9964 9.01219 37.1136 9.50462 37.1136C9.99704 37.1136 10.4279 36.9964 10.7972 36.7621C11.1689 36.5277 11.4577 36.1998 11.6637 35.7784C11.872 35.357 11.9762 34.8646 11.9762 34.3011C11.9762 33.733 11.872 33.237 11.6637 32.8132C11.4577 32.3894 11.1689 32.0604 10.7972 31.826C10.4279 31.5916 9.99704 31.4744 9.50462 31.4744C9.01219 31.4744 8.58014 31.5916 8.20845 31.826C7.83914 32.0604 7.55031 32.3894 7.34198 32.8132C7.13601 33.237 7.03303 33.733 7.03303 34.3011C7.03303 34.8646 7.13601 35.357 7.34198 35.7784C7.55031 36.1998 7.83914 36.5277 8.20845 36.7621ZM10.4279 36.0732C10.1864 36.2649 9.87867 36.3608 9.50462 36.3608C9.13057 36.3608 8.8228 36.2649 8.58132 36.0732C8.33985 35.8814 8.16111 35.6293 8.0451 35.3168C7.9291 35.0043 7.8711 34.6657 7.8711 34.3011C7.8711 33.9366 7.9291 33.5968 8.0451 33.282C8.16111 32.9671 8.33985 32.7126 8.58132 32.5185C8.8228 32.3243 9.13057 32.2273 9.50462 32.2273C9.87867 32.2273 10.1864 32.3243 10.4279 32.5185C10.6694 32.7126 10.8481 32.9671 10.9641 33.282C11.0801 33.5968 11.1381 33.9366 11.1381 34.3011C11.1381 34.6657 11.0801 35.0043 10.9641 35.3168C10.8481 35.6293 10.6694 35.8814 10.4279 36.0732Z" fill="#55B3FF"/>
<path d="M13.2555 31.5455V37H14.0936V33.5909C14.0936 33.3234 14.1504 33.0878 14.264 32.8842C14.38 32.6783 14.5315 32.5173 14.7186 32.4013C14.908 32.2853 15.1116 32.2273 15.3294 32.2273C15.6466 32.2273 15.9058 32.3232 16.1071 32.5149C16.3083 32.7043 16.4089 32.9541 16.4089 33.2642V37H17.2612V33.4489C17.2612 33.0961 17.3665 32.8049 17.5772 32.5753C17.7879 32.3433 18.0851 32.2273 18.4686 32.2273C18.7669 32.2273 19.0261 32.3137 19.2463 32.4865C19.4664 32.6593 19.5765 32.947 19.5765 33.3494V37H20.4146V33.3494C20.4146 32.7079 20.2595 32.2356 19.9494 31.9325C19.6393 31.6271 19.2404 31.4744 18.7527 31.4744C18.362 31.4744 18.0271 31.5585 17.7477 31.7266C17.4683 31.8923 17.2588 32.116 17.1191 32.3977H17.0623C16.9274 32.1065 16.7392 31.8804 16.4977 31.7195C16.2586 31.5561 15.9591 31.4744 15.5993 31.4744C15.2441 31.4744 14.9399 31.5561 14.6866 31.7195C14.4333 31.8804 14.2498 32.1065 14.1362 32.3977H14.0652V31.5455H13.2555Z" fill="#55B3FF"/>
<path fill-rule="evenodd" clip-rule="evenodd" d="M22.8738 36.7656C23.2549 36.9976 23.7083 37.1136 24.2338 37.1136C24.6032 37.1136 24.9358 37.0568 25.2317 36.9432C25.5276 36.8272 25.7762 36.6662 25.9775 36.4602C26.1787 36.2519 26.3219 36.0104 26.4071 35.7358L25.5975 35.5085C25.5265 35.6979 25.4258 35.8565 25.2956 35.9844C25.1654 36.1098 25.0104 36.2045 24.8304 36.2685C24.6529 36.33 24.454 36.3608 24.2338 36.3608C23.8953 36.3608 23.5982 36.2874 23.3425 36.1406C23.0868 35.9915 22.8868 35.7749 22.7424 35.4908C22.6136 35.231 22.5432 34.9197 22.5312 34.5568H26.4924V34.2017C26.4924 33.6927 26.4249 33.2642 26.29 32.9162C26.155 32.5682 25.9739 32.2888 25.7466 32.0781C25.5194 31.8651 25.2672 31.7112 24.9902 31.6165C24.7132 31.5218 24.4327 31.4744 24.1486 31.4744C23.6562 31.4744 23.2253 31.5952 22.856 31.8366C22.4891 32.0758 22.2026 32.4096 21.9966 32.8381C21.793 33.2642 21.6912 33.7566 21.6912 34.3153C21.6912 34.8741 21.793 35.3641 21.9966 35.7855C22.2026 36.2045 22.495 36.5312 22.8738 36.7656ZM22.5333 33.8324C22.5493 33.5794 22.613 33.3403 22.7246 33.1151C22.8548 32.8523 23.0407 32.6392 23.2821 32.4759C23.526 32.3101 23.8148 32.2273 24.1486 32.2273C24.4516 32.2273 24.7144 32.2971 24.937 32.4368C25.1619 32.5765 25.3347 32.767 25.4554 33.0085C25.5785 33.25 25.6401 33.5246 25.6401 33.8324H22.5333Z" fill="#55B3FF"/>
</svg>
