<svg width="46" height="40" viewBox="0 0 46 40" fill="none" xmlns="http://www.w3.org/2000/svg">
<path fill-rule="evenodd" clip-rule="evenodd" d="M28.8179 2.02261H28.6453C28.2288 0.844244 27.105 0 25.784 0H19.7162C18.3952 0 17.2714 0.844243 16.8549 2.02261H16.6823C14.4481 2.02261 12.637 3.8337 12.637 6.06781V20.2261C12.637 22.4602 14.4481 24.2713 16.6823 24.2713H28.8179C31.052 24.2713 32.8631 22.4602 32.8631 20.2261V6.06782C32.8631 3.83371 31.052 2.02261 28.8179 2.02261ZM14.6596 6.06781C14.6596 4.95076 15.5652 4.04521 16.6823 4.04521C16.6823 5.72079 18.0406 7.07912 19.7162 7.07912H25.784C27.4596 7.07912 28.8179 5.72079 28.8179 4.04521C29.9349 4.04521 30.8405 4.95076 30.8405 6.06782V20.2261C30.8405 21.3431 29.9349 22.2487 28.8179 22.2487H16.6823C15.5652 22.2487 14.6596 21.3431 14.6596 20.2261V6.06781ZM19.7162 2.02261C19.1576 2.02261 18.7049 2.47538 18.7049 3.03391V4.04521C18.7049 4.60374 19.1576 5.05651 19.7162 5.05651H25.784C26.3425 5.05651 26.7953 4.60374 26.7953 4.04521V3.03391C26.7953 2.47538 26.3425 2.02261 25.784 2.02261H19.7162Z" fill="#CFD1DE"/>
<path fill-rule="evenodd" clip-rule="evenodd" d="M0.0224609 29.7273V37H0.903143V34.3438H2.49405C3.05987 34.3438 3.52388 34.2408 3.8861 34.0348C4.24831 33.8265 4.51583 33.5471 4.68865 33.1967C4.86384 32.8464 4.95144 32.4569 4.95144 32.0284C4.95144 31.5999 4.86384 31.2116 4.68865 30.8636C4.51346 30.5156 4.24358 30.2398 3.87899 30.0362C3.51678 29.8303 3.0504 29.7273 2.47985 29.7273H0.0224609ZM0.903143 33.5625H2.46564C2.85627 33.5625 3.16995 33.495 3.40669 33.3601C3.64344 33.2251 3.81507 33.0429 3.92161 32.8132C4.03051 32.5812 4.08496 32.3196 4.08496 32.0284C4.08496 31.7372 4.03051 31.4768 3.92161 31.2472C3.81507 31.0175 3.64225 30.8376 3.40314 30.7074C3.16403 30.5748 2.8468 30.5085 2.45144 30.5085H0.903143V33.5625Z" fill="#CFD1DE"/>
<path d="M6.25648 31.5455V37H7.09455V33.5483C7.09455 33.3021 7.15373 33.0831 7.27211 32.8913C7.39284 32.6972 7.5562 32.5457 7.76216 32.4368C7.9705 32.3255 8.20724 32.2699 8.47239 32.2699C8.58366 32.2699 8.68901 32.2782 8.78844 32.2947C8.89024 32.3089 8.95534 32.3196 8.98375 32.3267V31.4744C8.93641 31.4697 8.86657 31.4661 8.77424 31.4638C8.68191 31.4614 8.60497 31.4602 8.54341 31.4602C8.21671 31.4602 7.92315 31.5443 7.66273 31.7124C7.40231 31.8804 7.22239 32.0994 7.12296 32.3693H7.06614V31.5455H6.25648Z" fill="#CFD1DE"/>
<path fill-rule="evenodd" clip-rule="evenodd" d="M10.7309 36.7621C11.1026 36.9964 11.5347 37.1136 12.0271 37.1136C12.5195 37.1136 12.9504 36.9964 13.3197 36.7621C13.6914 36.5277 13.9802 36.1998 14.1862 35.7784C14.3945 35.357 14.4987 34.8646 14.4987 34.3011C14.4987 33.733 14.3945 33.237 14.1862 32.8132C13.9802 32.3894 13.6914 32.0604 13.3197 31.826C12.9504 31.5916 12.5195 31.4744 12.0271 31.4744C11.5347 31.4744 11.1026 31.5916 10.7309 31.826C10.3616 32.0604 10.0728 32.3894 9.86444 32.8132C9.65847 33.237 9.55549 33.733 9.55549 34.3011C9.55549 34.8646 9.65847 35.357 9.86444 35.7784C10.0728 36.1998 10.3616 36.5277 10.7309 36.7621ZM12.9504 36.0732C12.7089 36.2649 12.4011 36.3608 12.0271 36.3608C11.653 36.3608 11.3453 36.2649 11.1038 36.0732C10.8623 35.8814 10.6836 35.6293 10.5676 35.3168C10.4516 35.0043 10.3936 34.6657 10.3936 34.3011C10.3936 33.9366 10.4516 33.5968 10.5676 33.282C10.6836 32.9671 10.8623 32.7126 11.1038 32.5185C11.3453 32.3243 11.653 32.2273 12.0271 32.2273C12.4011 32.2273 12.7089 32.3243 12.9504 32.5185C13.1918 32.7126 13.3706 32.9671 13.4866 33.282C13.6026 33.5968 13.6606 33.9366 13.6606 34.3011C13.6606 34.6657 13.6026 35.0043 13.4866 35.3168C13.3706 35.6293 13.1918 35.8814 12.9504 36.0732Z" fill="#CFD1DE"/>
<path d="M15.7425 39.0099C15.8537 39.0336 15.9804 39.0455 16.1224 39.0455C16.3757 39.0455 16.603 39.0005 16.8042 38.9105C17.0078 38.8205 17.1866 38.6821 17.3405 38.495C17.4943 38.3104 17.6234 38.0772 17.7275 37.7955L20.0429 31.5455H19.1338L17.6281 35.892H17.5713L16.0656 31.5455H15.1565L17.1736 37.0284L17.0173 37.4545C16.9155 37.7315 16.8031 37.9316 16.68 38.0547C16.5592 38.1802 16.4207 38.25 16.2645 38.2642C16.1082 38.2784 15.9283 38.2595 15.7247 38.2074L15.5116 38.946C15.5542 38.9673 15.6312 38.9886 15.7425 39.0099Z" fill="#CFD1DE"/>
<path fill-rule="evenodd" clip-rule="evenodd" d="M21.8806 36.7656C22.2617 36.9976 22.7151 37.1136 23.2407 37.1136C23.61 37.1136 23.9426 37.0568 24.2385 36.9432C24.5345 36.8272 24.7831 36.6662 24.9843 36.4602C25.1855 36.2519 25.3287 36.0104 25.414 35.7358L24.6043 35.5085C24.5333 35.6979 24.4327 35.8565 24.3025 35.9844C24.1723 36.1098 24.0172 36.2045 23.8373 36.2685C23.6597 36.33 23.4608 36.3608 23.2407 36.3608C22.9021 36.3608 22.605 36.2874 22.3493 36.1406C22.0937 35.9915 21.8936 35.7749 21.7492 35.4908C21.6204 35.231 21.55 34.9197 21.538 34.5568H25.4992V34.2017C25.4992 33.6927 25.4317 33.2642 25.2968 32.9162C25.1618 32.5682 24.9807 32.2888 24.7535 32.0781C24.5262 31.8651 24.2741 31.7112 23.9971 31.6165C23.7201 31.5218 23.4395 31.4744 23.1555 31.4744C22.663 31.4744 22.2322 31.5952 21.8628 31.8366C21.4959 32.0758 21.2094 32.4096 21.0035 32.8381C20.7999 33.2642 20.6981 33.7566 20.6981 34.3153C20.6981 34.8741 20.7999 35.3641 21.0035 35.7855C21.2094 36.2045 21.5018 36.5312 21.8806 36.7656ZM21.5401 33.8324C21.5561 33.5794 21.6199 33.3403 21.7314 33.1151C21.8617 32.8523 22.0475 32.6392 22.289 32.4759C22.5328 32.3101 22.8216 32.2273 23.1555 32.2273C23.4585 32.2273 23.7213 32.2971 23.9438 32.4368C24.1687 32.5765 24.3415 32.767 24.4623 33.0085C24.5854 33.25 24.6469 33.5246 24.6469 33.8324H21.5401Z" fill="#CFD1DE"/>
<path d="M27.6689 36.7514C28.0383 36.9929 28.4786 37.1136 28.99 37.1136C29.3924 37.1136 29.7452 37.0391 30.0482 36.8899C30.3536 36.7384 30.5986 36.5348 30.7833 36.2791C30.9703 36.0211 31.0875 35.7311 31.1349 35.4091H30.2968C30.2447 35.608 30.1571 35.7784 30.034 35.9205C29.9109 36.0625 29.7606 36.1714 29.583 36.2472C29.4055 36.3229 29.2078 36.3608 28.99 36.3608C28.6585 36.3608 28.3697 36.2744 28.1235 36.1016C27.8796 35.9287 27.6903 35.6861 27.5553 35.3736C27.4227 35.0611 27.3564 34.6941 27.3564 34.2727C27.3564 33.8608 27.4239 33.5021 27.5589 33.1967C27.6962 32.889 27.8867 32.651 28.1306 32.483C28.3768 32.3125 28.6633 32.2273 28.99 32.2273C29.3593 32.2273 29.6528 32.3243 29.8706 32.5185C30.0908 32.7102 30.2329 32.9304 30.2968 33.179H31.1349C31.0875 32.8381 30.9656 32.5398 30.7691 32.2841C30.5726 32.0284 30.3205 31.8295 30.0127 31.6875C29.7049 31.5455 29.3593 31.4744 28.9758 31.4744C28.4833 31.4744 28.0525 31.5952 27.6831 31.8366C27.3162 32.0758 27.0297 32.4084 26.8238 32.8345C26.6202 33.2583 26.5184 33.7472 26.5184 34.3011C26.5184 34.8456 26.6178 35.3298 26.8167 35.7536C27.0155 36.1773 27.2996 36.5099 27.6689 36.7514Z" fill="#CFD1DE"/>
<path d="M34.7322 32.2557V31.5455H33.5674V30.2386H32.7293V31.5455H31.9055V32.2557H32.7293V35.6648C32.7293 35.982 32.8027 36.2448 32.9495 36.4531C33.0986 36.6615 33.2857 36.8165 33.5106 36.9183C33.7378 37.0201 33.9698 37.071 34.2066 37.071C34.3628 37.071 34.4919 37.0592 34.5937 37.0355C34.6955 37.0142 34.7748 36.9929 34.8316 36.9716L34.6611 36.2188L34.5191 36.2472C34.4599 36.2566 34.3841 36.2614 34.2918 36.2614C34.1687 36.2614 34.0515 36.2424 33.9403 36.2045C33.8314 36.1643 33.7414 36.0862 33.6704 35.9702C33.6017 35.8518 33.5674 35.6742 33.5674 35.4375V32.2557H34.7322Z" fill="#CFD1DE"/>
<path fill-rule="evenodd" clip-rule="evenodd" d="M36.854 36.7621C37.2256 36.9964 37.6577 37.1136 38.1501 37.1136C38.6426 37.1136 39.0734 36.9964 39.4427 36.7621C39.8144 36.5277 40.1033 36.1998 40.3092 35.7784C40.5176 35.357 40.6217 34.8646 40.6217 34.3011C40.6217 33.733 40.5176 33.237 40.3092 32.8132C40.1033 32.3894 39.8144 32.0604 39.4427 31.826C39.0734 31.5916 38.6426 31.4744 38.1501 31.4744C37.6577 31.4744 37.2256 31.5916 36.854 31.826C36.4846 32.0604 36.1958 32.3894 35.9875 32.8132C35.7815 33.237 35.6785 33.733 35.6785 34.3011C35.6785 34.8646 35.7815 35.357 35.9875 35.7784C36.1958 36.1998 36.4846 36.5277 36.854 36.7621ZM39.0734 36.0732C38.8319 36.2649 38.5242 36.3608 38.1501 36.3608C37.7761 36.3608 37.4683 36.2649 37.2268 36.0732C36.9854 35.8814 36.8066 35.6293 36.6906 35.3168C36.5746 35.0043 36.5166 34.6657 36.5166 34.3011C36.5166 33.9366 36.5746 33.5968 36.6906 33.282C36.8066 32.9671 36.9854 32.7126 37.2268 32.5185C37.4683 32.3243 37.7761 32.2273 38.1501 32.2273C38.5242 32.2273 38.8319 32.3243 39.0734 32.5185C39.3149 32.7126 39.4936 32.9671 39.6096 33.282C39.7256 33.5968 39.7836 33.9366 39.7836 34.3011C39.7836 34.6657 39.7256 35.0043 39.6096 35.3168C39.4936 35.6293 39.3149 35.8814 39.0734 36.0732Z" fill="#CFD1DE"/>
<path d="M45.0118 32.9801L45.7646 32.767C45.6344 32.3788 45.4143 32.0663 45.1041 31.8295C44.7964 31.5928 44.3726 31.4744 43.8328 31.4744C43.4493 31.4744 43.106 31.5419 42.803 31.6768C42.5023 31.8118 42.2644 31.9976 42.0892 32.2344C41.9164 32.4711 41.83 32.7434 41.83 33.0511C41.83 33.4276 41.946 33.7412 42.178 33.9922C42.4124 34.2408 42.7793 34.4242 43.2789 34.5426L44.1879 34.7557C44.4626 34.8196 44.6662 34.9167 44.7987 35.0469C44.9313 35.1747 44.9976 35.3333 44.9976 35.5227C44.9976 35.7571 44.8816 35.9583 44.6496 36.1264C44.42 36.2921 44.1098 36.375 43.7192 36.375C43.3759 36.375 43.0977 36.3016 42.8847 36.1548C42.674 36.008 42.5308 35.7879 42.455 35.4943L41.6595 35.6932C41.7566 36.1572 41.9874 36.5099 42.352 36.7514C42.7166 36.9929 43.1771 37.1136 43.7334 37.1136C44.1572 37.1136 44.5289 37.0426 44.8485 36.9006C45.1681 36.7585 45.4166 36.5644 45.5942 36.3182C45.7741 36.072 45.8641 35.7926 45.8641 35.4801C45.8641 35.099 45.7445 34.7876 45.5054 34.5462C45.2663 34.3023 44.9029 34.1212 44.4152 34.0028L43.6056 33.804C43.2836 33.7235 43.0468 33.6229 42.8953 33.5021C42.7438 33.3814 42.6681 33.2169 42.6681 33.0085C42.6681 32.7741 42.7781 32.5812 42.9983 32.4297C43.2209 32.2758 43.499 32.1989 43.8328 32.1989C44.0767 32.1989 44.2767 32.2379 44.433 32.3161C44.5892 32.3942 44.7123 32.4936 44.8023 32.6143C44.8946 32.7327 44.9645 32.8546 45.0118 32.9801Z" fill="#CFD1DE"/>
</svg>
