<svg width="38" height="36" viewBox="0 0 38 36" fill="none" xmlns="http://www.w3.org/2000/svg">
<path fill-rule="evenodd" clip-rule="evenodd" d="M11.0888 0.0351562C8.85754 0.0351562 7.04877 1.84392 7.04877 4.07516V18.2412C7.04877 20.4724 8.85754 22.2812 11.0888 22.2812H27.2122C29.4434 22.2812 31.2522 20.4724 31.2522 18.2412V8.02585C31.2522 5.79462 29.4434 3.98585 27.2122 3.98585H10.5628C10.0051 3.98585 9.55307 3.53378 9.55307 2.97611C9.55307 2.91056 9.54683 2.84646 9.5349 2.78439C9.90543 2.33882 10.464 2.05516 11.0888 2.05516H28.2461C28.8039 2.05516 29.2561 1.60296 29.2561 1.04516C29.2561 0.487349 28.8039 0.0351562 28.2461 0.0351562H11.0888ZM9.06877 18.2412V5.61247C9.50966 5.86286 10.0195 6.00585 10.5628 6.00585H27.2122C28.3278 6.00585 29.2322 6.91024 29.2322 8.02585V18.2412C29.2322 19.3568 28.3278 20.2612 27.2122 20.2612H11.0888C9.97316 20.2612 9.06877 19.3568 9.06877 18.2412Z" fill="#CFD1DE"/>
<path fill-rule="evenodd" clip-rule="evenodd" d="M0.93457 27.7275V35.0002H3.56241C4.13533 35.0002 4.60053 34.915 4.95801 34.7446C5.31549 34.5741 5.57709 34.3433 5.74281 34.0521C5.90853 33.7609 5.99139 33.433 5.99139 33.0684C5.99139 32.6849 5.91563 32.3606 5.76412 32.0954C5.6126 31.8303 5.42439 31.6267 5.19949 31.4846C4.97458 31.3426 4.75086 31.2644 4.52832 31.2502V31.1792C4.73665 31.1224 4.9296 31.0348 5.10716 30.9164C5.28708 30.7981 5.43149 30.6371 5.54039 30.4335C5.65166 30.2299 5.7073 29.9718 5.7073 29.6593C5.7073 29.3042 5.62681 28.9811 5.46582 28.6899C5.30484 28.3963 5.05981 28.1631 4.73074 27.9903C4.40166 27.8151 3.98381 27.7275 3.47718 27.7275H0.93457ZM3.56241 34.219H1.81525V31.6906H3.60502C3.92226 31.6906 4.19688 31.7545 4.42889 31.8823C4.6609 32.0078 4.83964 32.1759 4.96511 32.3866C5.09058 32.5949 5.15332 32.8222 5.15332 33.0684C5.15332 33.388 5.0314 33.6603 4.78755 33.8852C4.54608 34.1077 4.1377 34.219 3.56241 34.219ZM3.44877 30.9235H1.81525V28.5088H3.47718C3.96014 28.5088 4.31288 28.6212 4.53542 28.8461C4.75796 29.0687 4.86923 29.3397 4.86923 29.6593C4.86923 29.915 4.80531 30.1375 4.67747 30.3269C4.55199 30.5163 4.38154 30.6631 4.1661 30.7673C3.95304 30.8714 3.71393 30.9235 3.44877 30.9235Z" fill="#CFD1DE"/>
<path d="M7.32484 29.5457V35.0002H8.16291V29.5457H7.32484Z" fill="#CFD1DE"/>
<path d="M7.32839 28.4697C7.44676 28.581 7.58762 28.6366 7.75098 28.6366C7.91433 28.6366 8.05401 28.581 8.17001 28.4697C8.28838 28.3584 8.34757 28.2247 8.34757 28.0684C8.34757 27.9122 8.28838 27.7784 8.17001 27.6671C8.05401 27.5559 7.91433 27.5002 7.75098 27.5002C7.58762 27.5002 7.44676 27.5559 7.32839 27.6671C7.21239 27.7784 7.15439 27.9122 7.15439 28.0684C7.15439 28.2247 7.21239 28.3584 7.32839 28.4697Z" fill="#CFD1DE"/>
<path d="M10.536 35.0002V27.7275H9.69789V35.0002H10.536Z" fill="#CFD1DE"/>
<path d="M12.909 35.0002V27.7275H12.0709V35.0002H12.909Z" fill="#CFD1DE"/>
<path fill-rule="evenodd" clip-rule="evenodd" d="M15.3708 34.7659C15.752 34.9979 16.2053 35.1139 16.7309 35.1139C17.1002 35.1139 17.4329 35.0571 17.7288 34.9434C18.0247 34.8274 18.2733 34.6664 18.4745 34.4605C18.6758 34.2521 18.819 34.0107 18.9042 33.736L18.0945 33.5088C18.0235 33.6982 17.9229 33.8568 17.7927 33.9846C17.6625 34.1101 17.5074 34.2048 17.3275 34.2687C17.1499 34.3303 16.9511 34.361 16.7309 34.361C16.3924 34.361 16.0953 34.2876 15.8396 34.1409C15.5839 33.9917 15.3838 33.7751 15.2394 33.491C15.1106 33.2313 15.0402 32.9199 15.0282 32.5571H18.9894V32.2019C18.9894 31.6929 18.922 31.2644 18.787 30.9164C18.6521 30.5684 18.471 30.2891 18.2437 30.0784C18.0164 29.8653 17.7643 29.7114 17.4873 29.6167C17.2103 29.522 16.9298 29.4747 16.6457 29.4747C16.1533 29.4747 15.7224 29.5954 15.3531 29.8369C14.9861 30.076 14.6997 30.4098 14.4937 30.8383C14.2901 31.2644 14.1883 31.7569 14.1883 32.3156C14.1883 32.8743 14.2901 33.3643 14.4937 33.7857C14.6997 34.2048 14.992 34.5315 15.3708 34.7659ZM15.0304 31.8326C15.0463 31.5796 15.1101 31.3405 15.2217 31.1153C15.3519 30.8525 15.5377 30.6394 15.7792 30.4761C16.0231 30.3104 16.3119 30.2275 16.6457 30.2275C16.9487 30.2275 17.2115 30.2973 17.434 30.437C17.6589 30.5767 17.8318 30.7673 17.9525 31.0088C18.0756 31.2502 18.1372 31.5249 18.1372 31.8326H15.0304Z" fill="#CFD1DE"/>
<path d="M22.6365 30.2559V29.5457H21.4717V28.2389H20.6336V29.5457H19.8097V30.2559H20.6336V33.665C20.6336 33.9822 20.707 34.245 20.8538 34.4534C21.0029 34.6617 21.19 34.8168 21.4149 34.9186C21.6421 35.0204 21.8741 35.0713 22.1109 35.0713C22.2671 35.0713 22.3962 35.0594 22.498 35.0357C22.5998 35.0144 22.6791 34.9931 22.7359 34.9718L22.5654 34.219L22.4234 34.2474C22.3642 34.2569 22.2884 34.2616 22.1961 34.2616C22.073 34.2616 21.9558 34.2427 21.8445 34.2048C21.7356 34.1645 21.6457 34.0864 21.5747 33.9704C21.506 33.852 21.4717 33.6745 21.4717 33.4377V30.2559H22.6365Z" fill="#CFD1DE"/>
<path fill-rule="evenodd" clip-rule="evenodd" d="M24.7654 34.7659C25.1465 34.9979 25.5999 35.1139 26.1254 35.1139C26.4948 35.1139 26.8274 35.0571 27.1233 34.9434C27.4192 34.8274 27.6678 34.6664 27.8691 34.4605C28.0703 34.2521 28.2135 34.0107 28.2987 33.736L27.4891 33.5088C27.4181 33.6982 27.3174 33.8568 27.1872 33.9846C27.057 34.1101 26.902 34.2048 26.722 34.2687C26.5445 34.3303 26.3456 34.361 26.1254 34.361C25.7869 34.361 25.4898 34.2876 25.2341 34.1409C24.9784 33.9917 24.7784 33.7751 24.634 33.491C24.5052 33.2313 24.4348 32.9199 24.4228 32.5571H28.384V32.2019C28.384 31.6929 28.3165 31.2644 28.1816 30.9164C28.0466 30.5684 27.8655 30.2891 27.6382 30.0784C27.411 29.8653 27.1588 29.7114 26.8818 29.6167C26.6048 29.522 26.3243 29.4747 26.0402 29.4747C25.5478 29.4747 25.1169 29.5954 24.7476 29.8369C24.3807 30.076 24.0942 30.4098 23.8882 30.8383C23.6846 31.2644 23.5828 31.7569 23.5828 32.3156C23.5828 32.8743 23.6846 33.3643 23.8882 33.7857C24.0942 34.2048 24.3866 34.5315 24.7654 34.7659ZM24.4249 31.8326C24.4409 31.5796 24.5046 31.3405 24.6162 31.1153C24.7464 30.8525 24.9323 30.6394 25.1737 30.4761C25.4176 30.3104 25.7064 30.2275 26.0402 30.2275C26.3432 30.2275 26.606 30.2973 26.8286 30.437C27.0535 30.5767 27.2263 30.7673 27.347 31.0088C27.4701 31.2502 27.5317 31.5249 27.5317 31.8326H24.4249Z" fill="#CFD1DE"/>
<path d="M29.6588 29.5457V35.0002H30.4969V31.5485C30.4969 31.3023 30.5561 31.0833 30.6744 30.8916C30.7952 30.6974 30.9585 30.5459 31.1645 30.437C31.3728 30.3258 31.6096 30.2701 31.8747 30.2701C31.986 30.2701 32.0914 30.2784 32.1908 30.295C32.2926 30.3092 32.3577 30.3198 32.3861 30.3269V29.4747C32.3387 29.4699 32.2689 29.4664 32.1766 29.464C32.0843 29.4616 32.0073 29.4605 31.9458 29.4605C31.6191 29.4605 31.3255 29.5445 31.0651 29.7126C30.8047 29.8807 30.6247 30.0997 30.5253 30.3696H30.4685V29.5457H29.6588Z" fill="#CFD1DE"/>
<path fill-rule="evenodd" clip-rule="evenodd" d="M34.0436 34.9328C34.3253 35.063 34.639 35.1281 34.9846 35.1281C35.3019 35.1281 35.5706 35.0807 35.7908 34.986C36.0109 34.8913 36.1873 34.7765 36.3199 34.6416C36.4524 34.5066 36.5471 34.38 36.604 34.2616H36.6466V35.0002H37.4846V31.4065C37.4846 30.9732 37.4136 30.6276 37.2716 30.3696C37.1295 30.1115 36.9508 29.9186 36.7354 29.7907C36.5223 29.6629 36.3009 29.5788 36.0713 29.5386C35.844 29.496 35.6428 29.4747 35.4676 29.4747C35.193 29.4747 34.9136 29.5125 34.6295 29.5883C34.3478 29.6617 34.0874 29.7919 33.8483 29.9789C33.6115 30.1636 33.4221 30.4216 33.2801 30.7531L34.0756 31.0372C34.1679 30.8383 34.3277 30.6513 34.555 30.4761C34.7822 30.3009 35.0959 30.2133 35.496 30.2133C35.8819 30.2133 36.1695 30.3104 36.3589 30.5045C36.5507 30.6986 36.6466 30.9709 36.6466 31.3213V31.3497C36.6466 31.4846 36.598 31.5793 36.501 31.6338C36.4063 31.6882 36.2548 31.7273 36.0464 31.7509C35.8405 31.7723 35.5718 31.8042 35.2403 31.8468C34.987 31.88 34.7349 31.9249 34.4839 31.9818C34.2354 32.0362 34.0081 32.1191 33.8021 32.2303C33.5961 32.3416 33.4316 32.4955 33.3085 32.692C33.1854 32.8861 33.1238 33.1394 33.1238 33.4519C33.1238 33.8071 33.2067 34.1101 33.3724 34.361C33.5381 34.6096 33.7619 34.8002 34.0436 34.9328ZM35.9506 34.1799C35.7233 34.3101 35.4439 34.3752 35.1125 34.3752C34.7787 34.3752 34.5029 34.3018 34.2851 34.1551C34.0696 34.0059 33.9619 33.7857 33.9619 33.4946C33.9619 33.2815 34.0187 33.1134 34.1324 32.9903C34.2484 32.8648 34.3999 32.7713 34.5869 32.7098C34.7763 32.6458 34.9799 32.5997 35.1977 32.5713C35.2877 32.5594 35.4049 32.5452 35.5493 32.5286C35.6961 32.5097 35.8464 32.4884 36.0003 32.4647C36.1565 32.4387 36.2938 32.4091 36.4122 32.3759C36.5329 32.3404 36.6111 32.3014 36.6466 32.2588V33.0258C36.6466 33.2531 36.5874 33.4697 36.469 33.6757C36.353 33.8816 36.1802 34.0497 35.9506 34.1799Z" fill="#CFD1DE"/>
</svg>
