<svg width="38" height="37" viewBox="0 0 38 37" fill="none" xmlns="http://www.w3.org/2000/svg">
<path fill-rule="evenodd" clip-rule="evenodd" d="M10.9374 0.988281C8.70617 0.988281 6.8974 2.79705 6.8974 5.02828V19.1943C6.8974 21.4256 8.70618 23.2343 10.9374 23.2343H27.0608C29.2921 23.2343 31.1008 21.4256 31.1008 19.1943V8.97897C31.1008 6.74774 29.292 4.93897 27.0608 4.93897H10.4114C9.85378 4.93897 9.4017 4.4869 9.4017 3.92924C9.4017 3.86368 9.39546 3.79959 9.38353 3.73751C9.75406 3.29194 10.3126 3.00828 10.9374 3.00828H28.0947C28.6525 3.00828 29.1047 2.55609 29.1047 1.99828C29.1047 1.44047 28.6525 0.988281 28.0947 0.988281H10.9374ZM8.9174 19.1943V6.56559C9.3583 6.81599 9.86817 6.95897 10.4114 6.95897H27.0608C28.1764 6.95897 29.0808 7.86336 29.0808 8.97897V19.1943C29.0808 20.31 28.1764 21.2143 27.0608 21.2143H10.9374C9.82179 21.2143 8.9174 20.31 8.9174 19.1943Z" fill="#CFD1DE"/>
<path fill-rule="evenodd" clip-rule="evenodd" d="M0.783203 28.6804V35.9531H3.41104C3.98396 35.9531 4.44916 35.8679 4.80664 35.6974C5.16412 35.527 5.42572 35.2962 5.59144 35.005C5.75716 34.7138 5.84002 34.3859 5.84002 34.0213C5.84002 33.6378 5.76426 33.3134 5.61275 33.0483C5.46123 32.7831 5.27302 32.5795 5.04812 32.4375C4.82321 32.2954 4.59949 32.2173 4.37695 32.2031V32.1321C4.58529 32.0753 4.77823 31.9877 4.95579 31.8693C5.13571 31.7509 5.28013 31.59 5.38903 31.3864C5.5003 31.1828 5.55593 30.9247 5.55593 30.6122C5.55593 30.2571 5.47544 29.9339 5.31445 29.6427C5.15347 29.3492 4.90844 29.116 4.57937 28.9432C4.2503 28.768 3.83245 28.6804 3.32582 28.6804H0.783203ZM3.41104 35.1719H1.66388V32.6435H3.45366C3.77089 32.6435 4.04551 32.7074 4.27752 32.8352C4.50953 32.9607 4.68827 33.1288 4.81374 33.3395C4.93922 33.5478 5.00195 33.7751 5.00195 34.0213C5.00195 34.3409 4.88003 34.6132 4.63619 34.8381C4.39471 35.0606 3.98633 35.1719 3.41104 35.1719ZM3.29741 31.8764H1.66388V29.4616H3.32582C3.80877 29.4616 4.16152 29.5741 4.38406 29.799C4.60659 30.0215 4.71786 30.2926 4.71786 30.6122C4.71786 30.8679 4.65394 31.0904 4.5261 31.2798C4.40063 31.4692 4.23017 31.616 4.01474 31.7202C3.80167 31.8243 3.56256 31.8764 3.29741 31.8764Z" fill="#CFD1DE"/>
<path d="M7.17347 30.4986V35.9531H8.01154V30.4986H7.17347Z" fill="#CFD1DE"/>
<path d="M7.17702 29.4226C7.2954 29.5338 7.43626 29.5895 7.59961 29.5895C7.76296 29.5895 7.90264 29.5338 8.01864 29.4226C8.13701 29.3113 8.1962 29.1775 8.1962 29.0213C8.1962 28.865 8.13701 28.7313 8.01864 28.62C7.90264 28.5087 7.76296 28.4531 7.59961 28.4531C7.43626 28.4531 7.2954 28.5087 7.17702 28.62C7.06102 28.7313 7.00302 28.865 7.00302 29.0213C7.00302 29.1775 7.06102 29.3113 7.17702 29.4226Z" fill="#CFD1DE"/>
<path d="M10.3846 35.9531V28.6804H9.54652V35.9531H10.3846Z" fill="#CFD1DE"/>
<path d="M12.7576 35.9531V28.6804H11.9196V35.9531H12.7576Z" fill="#CFD1DE"/>
<path fill-rule="evenodd" clip-rule="evenodd" d="M15.2195 35.7187C15.6006 35.9507 16.054 36.0668 16.5795 36.0668C16.9489 36.0668 17.2815 36.0099 17.5774 35.8963C17.8733 35.7803 18.1219 35.6193 18.3232 35.4133C18.5244 35.205 18.6676 34.9635 18.7528 34.6889L17.9432 34.4616C17.8722 34.651 17.7715 34.8097 17.6413 34.9375C17.5111 35.063 17.3561 35.1577 17.1761 35.2216C16.9986 35.2831 16.7997 35.3139 16.5795 35.3139C16.241 35.3139 15.9439 35.2405 15.6882 35.0937C15.4325 34.9446 15.2325 34.728 15.0881 34.4439C14.9593 34.1841 14.8889 33.8728 14.8769 33.5099H18.8381V33.1548C18.8381 32.6458 18.7706 32.2173 18.6357 31.8693C18.5007 31.5213 18.3196 31.2419 18.0923 31.0312C17.8651 30.8182 17.6129 30.6643 17.3359 30.5696C17.0589 30.4749 16.7784 30.4275 16.4943 30.4275C16.0019 30.4275 15.571 30.5483 15.2017 30.7898C14.8348 31.0289 14.5483 31.3627 14.3423 31.7912C14.1387 32.2173 14.0369 32.7097 14.0369 33.2685C14.0369 33.8272 14.1387 34.3172 14.3423 34.7386C14.5483 35.1577 14.8407 35.4844 15.2195 35.7187ZM14.879 32.7855C14.895 32.5325 14.9587 32.2934 15.0703 32.0682C15.2005 31.8054 15.3864 31.5923 15.6278 31.429C15.8717 31.2632 16.1605 31.1804 16.4943 31.1804C16.7973 31.1804 17.0601 31.2502 17.2827 31.3899C17.5076 31.5296 17.6804 31.7202 17.8011 31.9616C17.9242 32.2031 17.9858 32.4777 17.9858 32.7855H14.879Z" fill="#CFD1DE"/>
<path d="M22.4851 31.2088V30.4986H21.3203V29.1918H20.4822V30.4986H19.6584V31.2088H20.4822V34.6179C20.4822 34.9351 20.5556 35.1979 20.7024 35.4062C20.8516 35.6146 21.0386 35.7696 21.2635 35.8714C21.4908 35.9732 21.7228 36.0241 21.9595 36.0241C22.1158 36.0241 22.2448 36.0123 22.3466 35.9886C22.4484 35.9673 22.5277 35.946 22.5845 35.9247L22.4141 35.1719L22.272 35.2003C22.2128 35.2097 22.1371 35.2145 22.0447 35.2145C21.9216 35.2145 21.8045 35.1955 21.6932 35.1577C21.5843 35.1174 21.4943 35.0393 21.4233 34.9233C21.3546 34.8049 21.3203 34.6274 21.3203 34.3906V31.2088H22.4851Z" fill="#CFD1DE"/>
<path fill-rule="evenodd" clip-rule="evenodd" d="M24.614 35.7187C24.9951 35.9507 25.4485 36.0668 25.9741 36.0668C26.3434 36.0668 26.676 36.0099 26.9719 35.8963C27.2679 35.7803 27.5165 35.6193 27.7177 35.4133C27.9189 35.205 28.0621 34.9635 28.1474 34.6889L27.3377 34.4616C27.2667 34.651 27.1661 34.8097 27.0359 34.9375C26.9057 35.063 26.7506 35.1577 26.5707 35.2216C26.3931 35.2831 26.1942 35.3139 25.9741 35.3139C25.6355 35.3139 25.3384 35.2405 25.0827 35.0937C24.8271 34.9446 24.627 34.728 24.4826 34.4439C24.3538 34.1841 24.2834 33.8728 24.2714 33.5099H28.2326V33.1548C28.2326 32.6458 28.1651 32.2173 28.0302 31.8693C27.8952 31.5213 27.7141 31.2419 27.4869 31.0312C27.2596 30.8182 27.0075 30.6643 26.7305 30.5696C26.4535 30.4749 26.1729 30.4275 25.8888 30.4275C25.3964 30.4275 24.9656 30.5483 24.5962 30.7898C24.2293 31.0289 23.9428 31.3627 23.7369 31.7912C23.5333 32.2173 23.4315 32.7097 23.4315 33.2685C23.4315 33.8272 23.5333 34.3172 23.7369 34.7386C23.9428 35.1577 24.2352 35.4844 24.614 35.7187ZM24.2735 32.7855C24.2895 32.5325 24.3533 32.2934 24.4648 32.0682C24.5951 31.8054 24.7809 31.5923 25.0224 31.429C25.2662 31.2632 25.555 31.1804 25.8888 31.1804C26.1919 31.1804 26.4547 31.2502 26.6772 31.3899C26.9021 31.5296 27.0749 31.7202 27.1957 31.9616C27.3188 32.2031 27.3803 32.4777 27.3803 32.7855H24.2735Z" fill="#CFD1DE"/>
<path d="M29.5075 30.4986V35.9531H30.3455V32.5014C30.3455 32.2552 30.4047 32.0362 30.5231 31.8444C30.6438 31.6503 30.8072 31.4988 31.0131 31.3899C31.2215 31.2786 31.4582 31.223 31.7234 31.223C31.8346 31.223 31.94 31.2313 32.0394 31.2479C32.1412 31.2621 32.2063 31.2727 32.2347 31.2798V30.4275C32.1874 30.4228 32.1175 30.4193 32.0252 30.4169C31.9329 30.4145 31.8559 30.4133 31.7944 30.4133C31.4677 30.4133 31.1741 30.4974 30.9137 30.6655C30.6533 30.8336 30.4734 31.0525 30.3739 31.3224H30.3171V30.4986H29.5075Z" fill="#CFD1DE"/>
<path fill-rule="evenodd" clip-rule="evenodd" d="M33.8922 35.8856C34.174 36.0159 34.4876 36.081 34.8333 36.081C35.1505 36.081 35.4192 36.0336 35.6394 35.9389C35.8596 35.8442 36.0359 35.7294 36.1685 35.5945C36.3011 35.4595 36.3958 35.3329 36.4526 35.2145H36.4952V35.9531H37.3333V32.3594C37.3333 31.9261 37.2623 31.5805 37.1202 31.3224C36.9782 31.0644 36.7994 30.8714 36.584 30.7436C36.3709 30.6158 36.1496 30.5317 35.9199 30.4915C35.6926 30.4489 35.4914 30.4275 35.3162 30.4275C35.0416 30.4275 34.7623 30.4654 34.4782 30.5412C34.1964 30.6146 33.936 30.7448 33.6969 30.9318C33.4602 31.1165 33.2708 31.3745 33.1287 31.706L33.9242 31.99C34.0165 31.7912 34.1763 31.6042 34.4036 31.429C34.6309 31.2538 34.9445 31.1662 35.3446 31.1662C35.7305 31.1662 36.0182 31.2632 36.2076 31.4574C36.3993 31.6515 36.4952 31.9238 36.4952 32.2741V32.3025C36.4952 32.4375 36.4467 32.5322 36.3496 32.5866C36.2549 32.6411 36.1034 32.6802 35.8951 32.7038C35.6891 32.7251 35.4204 32.7571 35.089 32.7997C34.8356 32.8328 34.5835 32.8778 34.3326 32.9347C34.084 32.9891 33.8567 33.072 33.6507 33.1832C33.4448 33.2945 33.2802 33.4484 33.1571 33.6449C33.034 33.839 32.9725 34.0923 32.9725 34.4048C32.9725 34.7599 33.0553 35.063 33.2211 35.3139C33.3868 35.5625 33.6105 35.7531 33.8922 35.8856ZM35.7992 35.1328C35.5719 35.263 35.2926 35.3281 34.9611 35.3281C34.6273 35.3281 34.3515 35.2547 34.1337 35.1079C33.9183 34.9588 33.8105 34.7386 33.8105 34.4474C33.8105 34.2344 33.8674 34.0663 33.981 33.9432C34.097 33.8177 34.2485 33.7242 34.4355 33.6626C34.6249 33.5987 34.8285 33.5525 35.0463 33.5241C35.1363 33.5123 35.2535 33.4981 35.3979 33.4815C35.5447 33.4626 35.695 33.4413 35.8489 33.4176C36.0051 33.3916 36.1425 33.362 36.2608 33.3288C36.3816 33.2933 36.4597 33.2543 36.4952 33.2116V33.9787C36.4952 34.206 36.436 34.4226 36.3176 34.6285C36.2016 34.8345 36.0288 35.0026 35.7992 35.1328Z" fill="#CFD1DE"/>
</svg>
