<svg width="38" height="36" viewBox="0 0 38 36" fill="none" xmlns="http://www.w3.org/2000/svg">
<path fill-rule="evenodd" clip-rule="evenodd" d="M11.1364 0.535156C8.90515 0.535156 7.09638 2.34392 7.09638 4.57516V18.7412C7.09638 20.9724 8.90515 22.7812 11.1364 22.7812H27.2598C29.491 22.7812 31.2998 20.9724 31.2998 18.7412V8.52585C31.2998 6.29462 29.491 4.48585 27.2598 4.48585H10.6104C10.0528 4.48585 9.60068 4.03378 9.60068 3.47611C9.60068 3.41056 9.59443 3.34646 9.5825 3.28439C9.95304 2.83882 10.5116 2.55516 11.1364 2.55516H28.2937C28.8515 2.55516 29.3037 2.10296 29.3037 1.54516C29.3037 0.987349 28.8515 0.535156 28.2937 0.535156H11.1364ZM9.11638 18.7412V6.11247C9.55727 6.36286 10.0671 6.50585 10.6104 6.50585H27.2598C28.3754 6.50585 29.2798 7.41024 29.2798 8.52585V18.7412C29.2798 19.8568 28.3754 20.7612 27.2598 20.7612H11.1364C10.0208 20.7612 9.11638 19.8568 9.11638 18.7412Z" fill="#CFD1DE"/>
<path fill-rule="evenodd" clip-rule="evenodd" d="M0.982178 28.2275V35.5002H3.61002C4.18294 35.5002 4.64813 35.415 5.00562 35.2446C5.3631 35.0741 5.6247 34.8433 5.79042 34.5521C5.95614 34.2609 6.039 33.933 6.039 33.5684C6.039 33.1849 5.96324 32.8606 5.81172 32.5954C5.66021 32.3303 5.472 32.1267 5.24709 31.9846C5.02219 31.8426 4.79847 31.7644 4.57593 31.7502V31.6792C4.78426 31.6224 4.97721 31.5348 5.15476 31.4164C5.33469 31.2981 5.4791 31.1371 5.588 30.9335C5.69927 30.7299 5.75491 30.4718 5.75491 30.1593C5.75491 29.8042 5.67441 29.4811 5.51343 29.1899C5.35244 28.8963 5.10741 28.6631 4.77834 28.4903C4.44927 28.3151 4.03142 28.2275 3.52479 28.2275H0.982178ZM3.61002 34.719H1.86286V32.1906H3.65263C3.96987 32.1906 4.24449 32.2545 4.4765 32.3823C4.7085 32.5078 4.88724 32.6759 5.01272 32.8866C5.13819 33.0949 5.20093 33.3222 5.20093 33.5684C5.20093 33.888 5.07901 34.1603 4.83516 34.3852C4.59368 34.6077 4.1853 34.719 3.61002 34.719ZM3.49638 31.4235H1.86286V29.0088H3.52479C4.00775 29.0088 4.36049 29.1212 4.58303 29.3461C4.80557 29.5687 4.91684 29.8397 4.91684 30.1593C4.91684 30.415 4.85292 30.6375 4.72508 30.8269C4.5996 31.0163 4.42915 31.1631 4.21371 31.2673C4.00064 31.3714 3.76153 31.4235 3.49638 31.4235Z" fill="#CFD1DE"/>
<path d="M7.37245 30.0457V35.5002H8.21052V30.0457H7.37245Z" fill="#CFD1DE"/>
<path d="M7.376 28.9697C7.49437 29.081 7.63523 29.1366 7.79858 29.1366C7.96194 29.1366 8.10161 29.081 8.21762 28.9697C8.33599 28.8584 8.39517 28.7247 8.39517 28.5684C8.39517 28.4122 8.33599 28.2784 8.21762 28.1671C8.10161 28.0559 7.96194 28.0002 7.79858 28.0002C7.63523 28.0002 7.49437 28.0559 7.376 28.1671C7.25999 28.2784 7.20199 28.4122 7.20199 28.5684C7.20199 28.7247 7.25999 28.8584 7.376 28.9697Z" fill="#CFD1DE"/>
<path d="M10.5836 35.5002V28.2275H9.74549V35.5002H10.5836Z" fill="#CFD1DE"/>
<path d="M12.9566 35.5002V28.2275H12.1185V35.5002H12.9566Z" fill="#CFD1DE"/>
<path fill-rule="evenodd" clip-rule="evenodd" d="M15.4184 35.2659C15.7996 35.4979 16.253 35.6139 16.7785 35.6139C17.1478 35.6139 17.4805 35.5571 17.7764 35.4434C18.0723 35.3274 18.3209 35.1664 18.5221 34.9605C18.7234 34.7521 18.8666 34.5107 18.9518 34.236L18.1422 34.0088C18.0711 34.1982 17.9705 34.3568 17.8403 34.4846C17.7101 34.6101 17.555 34.7048 17.3751 34.7687C17.1976 34.8303 16.9987 34.861 16.7785 34.861C16.44 34.861 16.1429 34.7876 15.8872 34.6409C15.6315 34.4917 15.4315 34.2751 15.287 33.991C15.1582 33.7313 15.0878 33.4199 15.0758 33.0571H19.037V32.7019C19.037 32.1929 18.9696 31.7644 18.8346 31.4164C18.6997 31.0684 18.5186 30.7891 18.2913 30.5784C18.064 30.3653 17.8119 30.2114 17.5349 30.1167C17.2579 30.022 16.9774 29.9747 16.6933 29.9747C16.2009 29.9747 15.77 30.0954 15.4007 30.3369C15.0337 30.576 14.7473 30.9098 14.5413 31.3383C14.3377 31.7644 14.2359 32.2569 14.2359 32.8156C14.2359 33.3743 14.3377 33.8643 14.5413 34.2857C14.7473 34.7048 15.0396 35.0315 15.4184 35.2659ZM15.078 32.3326C15.0939 32.0796 15.1577 31.8405 15.2693 31.6153C15.3995 31.3525 15.5853 31.1394 15.8268 30.9761C16.0707 30.8104 16.3595 30.7275 16.6933 30.7275C16.9963 30.7275 17.2591 30.7973 17.4816 30.937C17.7066 31.0767 17.8794 31.2673 18.0001 31.5088C18.1232 31.7502 18.1848 32.0249 18.1848 32.3326H15.078Z" fill="#CFD1DE"/>
<path d="M22.6841 30.7559V30.0457H21.5193V28.7389H20.6812V30.0457H19.8574V30.7559H20.6812V34.165C20.6812 34.4822 20.7546 34.745 20.9014 34.9534C21.0505 35.1617 21.2376 35.3168 21.4625 35.4186C21.6897 35.5204 21.9217 35.5713 22.1585 35.5713C22.3147 35.5713 22.4438 35.5594 22.5456 35.5357C22.6474 35.5144 22.7267 35.4931 22.7835 35.4718L22.613 34.719L22.471 34.7474C22.4118 34.7569 22.336 34.7616 22.2437 34.7616C22.1206 34.7616 22.0034 34.7427 21.8922 34.7048C21.7833 34.6645 21.6933 34.5864 21.6223 34.4704C21.5536 34.352 21.5193 34.1745 21.5193 33.9377V30.7559H22.6841Z" fill="#CFD1DE"/>
<path fill-rule="evenodd" clip-rule="evenodd" d="M24.813 35.2659C25.1941 35.4979 25.6475 35.6139 26.1731 35.6139C26.5424 35.6139 26.875 35.5571 27.1709 35.4434C27.4668 35.3274 27.7154 35.1664 27.9167 34.9605C28.1179 34.7521 28.2611 34.5107 28.3463 34.236L27.5367 34.0088C27.4657 34.1982 27.365 34.3568 27.2348 34.4846C27.1046 34.6101 26.9496 34.7048 26.7696 34.7687C26.5921 34.8303 26.3932 34.861 26.1731 34.861C25.8345 34.861 25.5374 34.7876 25.2817 34.6409C25.026 34.4917 24.826 34.2751 24.6816 33.991C24.5528 33.7313 24.4824 33.4199 24.4704 33.0571H28.4316V32.7019C28.4316 32.1929 28.3641 31.7644 28.2292 31.4164C28.0942 31.0684 27.9131 30.7891 27.6858 30.5784C27.4586 30.3653 27.2064 30.2114 26.9294 30.1167C26.6525 30.022 26.3719 29.9747 26.0878 29.9747C25.5954 29.9747 25.1645 30.0954 24.7952 30.3369C24.4283 30.576 24.1418 30.9098 23.9358 31.3383C23.7322 31.7644 23.6304 32.2569 23.6304 32.8156C23.6304 33.3743 23.7322 33.8643 23.9358 34.2857C24.1418 34.7048 24.4342 35.0315 24.813 35.2659ZM24.4725 32.3326C24.4885 32.0796 24.5522 31.8405 24.6638 31.6153C24.794 31.3525 24.9799 31.1394 25.2213 30.9761C25.4652 30.8104 25.754 30.7275 26.0878 30.7275C26.3909 30.7275 26.6536 30.7973 26.8762 30.937C27.1011 31.0767 27.2739 31.2673 27.3946 31.5088C27.5177 31.7502 27.5793 32.0249 27.5793 32.3326H24.4725Z" fill="#CFD1DE"/>
<path d="M29.7064 30.0457V35.5002H30.5445V32.0485C30.5445 31.8023 30.6037 31.5833 30.7221 31.3916C30.8428 31.1974 31.0061 31.0459 31.2121 30.937C31.4204 30.8258 31.6572 30.7701 31.9223 30.7701C32.0336 30.7701 32.139 30.7784 32.2384 30.795C32.3402 30.8092 32.4053 30.8198 32.4337 30.8269V29.9747C32.3864 29.9699 32.3165 29.9664 32.2242 29.964C32.1319 29.9616 32.0549 29.9605 31.9934 29.9605C31.6667 29.9605 31.3731 30.0445 31.1127 30.2126C30.8523 30.3807 30.6723 30.5997 30.5729 30.8696H30.5161V30.0457H29.7064Z" fill="#CFD1DE"/>
<path fill-rule="evenodd" clip-rule="evenodd" d="M34.0912 35.4328C34.3729 35.563 34.6866 35.6281 35.0322 35.6281C35.3495 35.6281 35.6182 35.5807 35.8384 35.486C36.0585 35.3913 36.2349 35.2765 36.3675 35.1416C36.5001 35.0066 36.5947 34.88 36.6516 34.7616H36.6942V35.5002H37.5322V31.9065C37.5322 31.4732 37.4612 31.1276 37.3192 30.8696C37.1771 30.6115 36.9984 30.4186 36.783 30.2907C36.5699 30.1629 36.3485 30.0788 36.1189 30.0386C35.8916 29.996 35.6904 29.9747 35.5152 29.9747C35.2406 29.9747 34.9612 30.0125 34.6771 30.0883C34.3954 30.1617 34.135 30.2919 33.8959 30.4789C33.6591 30.6636 33.4697 30.9216 33.3277 31.2531L34.1232 31.5372C34.2155 31.3383 34.3753 31.1513 34.6026 30.9761C34.8298 30.8009 35.1435 30.7133 35.5436 30.7133C35.9295 30.7133 36.2171 30.8104 36.4065 31.0045C36.5983 31.1986 36.6942 31.4709 36.6942 31.8213V31.8497C36.6942 31.9846 36.6456 32.0793 36.5486 32.1338C36.4539 32.1882 36.3024 32.2273 36.094 32.2509C35.8881 32.2723 35.6194 32.3042 35.2879 32.3468C35.0346 32.38 34.7825 32.4249 34.5315 32.4818C34.283 32.5362 34.0557 32.6191 33.8497 32.7303C33.6438 32.8416 33.4792 32.9955 33.3561 33.192C33.233 33.3861 33.1715 33.6394 33.1715 33.9519C33.1715 34.3071 33.2543 34.6101 33.42 34.861C33.5858 35.1096 33.8095 35.3002 34.0912 35.4328ZM35.9982 34.6799C35.7709 34.8101 35.4915 34.8752 35.1601 34.8752C34.8263 34.8752 34.5505 34.8018 34.3327 34.6551C34.1172 34.5059 34.0095 34.2857 34.0095 33.9946C34.0095 33.7815 34.0663 33.6134 34.18 33.4903C34.296 33.3648 34.4475 33.2713 34.6345 33.2098C34.8239 33.1458 35.0275 33.0997 35.2453 33.0713C35.3353 33.0594 35.4525 33.0452 35.5969 33.0286C35.7437 33.0097 35.894 32.9884 36.0479 32.9647C36.2041 32.9387 36.3414 32.9091 36.4598 32.8759C36.5805 32.8404 36.6587 32.8014 36.6942 32.7588V33.5258C36.6942 33.7531 36.635 33.9697 36.5166 34.1757C36.4006 34.3816 36.2278 34.5497 35.9982 34.6799Z" fill="#CFD1DE"/>
</svg>
