<svg width="28" height="38" viewBox="0 0 28 38" fill="none" xmlns="http://www.w3.org/2000/svg">
<path fill-rule="evenodd" clip-rule="evenodd" d="M14.5987 0.196962C14.2421 -0.0656538 13.7561 -0.0656538 13.3994 0.196962L4.52137 6.73445C3.48601 7.49685 2.87476 8.70605 2.87476 9.99182V20.7317C2.87476 22.6866 4.45948 24.2713 6.41432 24.2713H9.95388C11.0709 24.2713 11.9765 23.3657 11.9765 22.2487V16.6865H16.0217V22.2487C16.0217 23.3657 16.9273 24.2713 18.0443 24.2713H21.5839C23.5387 24.2713 25.1234 22.6866 25.1234 20.7317V9.99182C25.1234 8.70605 24.5122 7.49685 23.4768 6.73445L14.5987 0.196962ZM5.72067 8.36313L13.9991 2.26721L22.2775 8.36313C22.7952 8.74433 23.1008 9.34893 23.1008 9.99182V20.7317C23.1008 21.5695 22.4217 22.2487 21.5839 22.2487H18.0443V16.1808C18.0443 15.3431 17.3651 14.6639 16.5274 14.6639H11.4708C10.633 14.6639 9.95388 15.3431 9.95388 16.1808V22.2487H6.41432C5.57653 22.2487 4.89737 21.5695 4.89737 20.7317V9.99182C4.89737 9.34893 5.203 8.74433 5.72067 8.36313Z" fill="#CFD1DE"/>
<path d="M0.939453 29.7273V37H1.82014V33.7472H5.69798V37H6.57866V29.7273H5.69798V32.9659H1.82014V29.7273H0.939453Z" fill="#CFD1DE"/>
<path fill-rule="evenodd" clip-rule="evenodd" d="M9.14791 36.7621C9.51959 36.9964 9.95165 37.1136 10.4441 37.1136C10.9365 37.1136 11.3674 36.9964 11.7367 36.7621C12.1084 36.5277 12.3972 36.1998 12.6032 35.7784C12.8115 35.357 12.9157 34.8646 12.9157 34.3011C12.9157 33.733 12.8115 33.237 12.6032 32.8132C12.3972 32.3894 12.1084 32.0604 11.7367 31.826C11.3674 31.5916 10.9365 31.4744 10.4441 31.4744C9.95165 31.4744 9.51959 31.5916 9.14791 31.826C8.77859 32.0604 8.48976 32.3894 8.28143 32.8132C8.07546 33.237 7.97248 33.733 7.97248 34.3011C7.97248 34.8646 8.07546 35.357 8.28143 35.7784C8.48976 36.1998 8.77859 36.5277 9.14791 36.7621ZM11.3674 36.0732C11.1259 36.2649 10.8181 36.3608 10.4441 36.3608C10.07 36.3608 9.76225 36.2649 9.52078 36.0732C9.2793 35.8814 9.10056 35.6293 8.98455 35.3168C8.86855 35.0043 8.81055 34.6657 8.81055 34.3011C8.81055 33.9366 8.86855 33.5968 8.98455 33.282C9.10056 32.9671 9.2793 32.7126 9.52078 32.5185C9.76225 32.3243 10.07 32.2273 10.4441 32.2273C10.8181 32.2273 11.1259 32.3243 11.3674 32.5185C11.6088 32.7126 11.7876 32.9671 11.9036 33.282C12.0196 33.5968 12.0776 33.9366 12.0776 34.3011C12.0776 34.6657 12.0196 35.0043 11.9036 35.3168C11.7876 35.6293 11.6088 35.8814 11.3674 36.0732Z" fill="#CFD1DE"/>
<path d="M14.195 31.5455V37H15.033V33.5909C15.033 33.3234 15.0898 33.0878 15.2035 32.8842C15.3195 32.6783 15.471 32.5173 15.658 32.4013C15.8474 32.2853 16.051 32.2273 16.2688 32.2273C16.5861 32.2273 16.8453 32.3232 17.0465 32.5149C17.2478 32.7043 17.3484 32.9541 17.3484 33.2642V37H18.2006V33.4489C18.2006 33.0961 18.306 32.8049 18.5167 32.5753C18.7274 32.3433 19.0245 32.2273 19.408 32.2273C19.7063 32.2273 19.9656 32.3137 20.1857 32.4865C20.4059 32.6593 20.516 32.947 20.516 33.3494V37H21.354V33.3494C21.354 32.7079 21.199 32.2356 20.8889 31.9325C20.5787 31.6271 20.1798 31.4744 19.6921 31.4744C19.3015 31.4744 18.9665 31.5585 18.6871 31.7266C18.4078 31.8923 18.1983 32.116 18.0586 32.3977H18.0018C17.8668 32.1065 17.6786 31.8804 17.4371 31.7195C17.198 31.5561 16.8986 31.4744 16.5387 31.4744C16.1836 31.4744 15.8794 31.5561 15.6261 31.7195C15.3728 31.8804 15.1893 32.1065 15.0756 32.3977H15.0046V31.5455H14.195Z" fill="#CFD1DE"/>
<path fill-rule="evenodd" clip-rule="evenodd" d="M23.8132 36.7656C24.1944 36.9976 24.6477 37.1136 25.1733 37.1136C25.5426 37.1136 25.8752 37.0568 26.1712 36.9432C26.4671 36.8272 26.7157 36.6662 26.9169 36.4602C27.1181 36.2519 27.2614 36.0104 27.3466 35.7358L26.5369 35.5085C26.4659 35.6979 26.3653 35.8565 26.2351 35.9844C26.1049 36.1098 25.9498 36.2045 25.7699 36.2685C25.5923 36.33 25.3935 36.3608 25.1733 36.3608C24.8348 36.3608 24.5376 36.2874 24.282 36.1406C24.0263 35.9915 23.8262 35.7749 23.6818 35.4908C23.553 35.231 23.4826 34.9197 23.4706 34.5568H27.4318V34.2017C27.4318 33.6927 27.3643 33.2642 27.2294 32.9162C27.0945 32.5682 26.9134 32.2888 26.6861 32.0781C26.4588 31.8651 26.2067 31.7112 25.9297 31.6165C25.6527 31.5218 25.3722 31.4744 25.0881 31.4744C24.5956 31.4744 24.1648 31.5952 23.7955 31.8366C23.4285 32.0758 23.142 32.4096 22.9361 32.8381C22.7325 33.2642 22.6307 33.7566 22.6307 34.3153C22.6307 34.8741 22.7325 35.3641 22.9361 35.7855C23.142 36.2045 23.4344 36.5312 23.8132 36.7656ZM23.4727 33.8324C23.4887 33.5794 23.5525 33.3403 23.6641 33.1151C23.7943 32.8523 23.9801 32.6392 24.2216 32.4759C24.4654 32.3101 24.7543 32.2273 25.0881 32.2273C25.3911 32.2273 25.6539 32.2971 25.8764 32.4368C26.1013 32.5765 26.2741 32.767 26.3949 33.0085C26.518 33.25 26.5795 33.5246 26.5795 33.8324H23.4727Z" fill="#CFD1DE"/>
</svg>
