<svg width="37" height="36" viewBox="0 0 37 36" fill="none" xmlns="http://www.w3.org/2000/svg">
<path fill-rule="evenodd" clip-rule="evenodd" d="M10.2958 0.0820312C8.06457 0.0820312 6.2558 1.8908 6.2558 4.12203V18.2881C6.2558 20.5193 8.06457 22.3281 10.2958 22.3281H26.4192C28.6504 22.3281 30.4592 20.5193 30.4592 18.2881V8.07272C30.4592 5.84149 28.6504 4.03272 26.4192 4.03272H9.76984C9.21218 4.03272 8.7601 3.58065 8.7601 3.02299C8.7601 2.95743 8.75386 2.89334 8.74193 2.83126C9.11246 2.38569 9.671 2.10203 10.2958 2.10203H27.4531C28.0109 2.10203 28.4631 1.64984 28.4631 1.09203C28.4631 0.534224 28.0109 0.0820312 27.4531 0.0820312H10.2958ZM8.2758 18.2881V5.65934C8.7167 5.90974 9.22657 6.05272 9.76984 6.05272H26.4192C27.5348 6.05272 28.4392 6.95711 28.4392 8.07272V18.2881C28.4392 19.4037 27.5348 20.3081 26.4192 20.3081H10.2958C9.18019 20.3081 8.2758 19.4037 8.2758 18.2881Z" fill="#55B3FF"/>
<path fill-rule="evenodd" clip-rule="evenodd" d="M0.141602 27.7744V35.0471H2.76944C3.34236 35.0471 3.80756 34.9619 4.16504 34.7914C4.52252 34.621 4.78412 34.3901 4.94984 34.099C5.11556 33.8078 5.19842 33.4799 5.19842 33.1153C5.19842 32.7318 5.12266 32.4074 4.97115 32.1423C4.81963 31.8771 4.63142 31.6735 4.40652 31.5315C4.18161 31.3894 3.95789 31.3113 3.73535 31.2971V31.2261C3.94368 31.1693 4.13663 31.0817 4.31419 30.9633C4.49411 30.8449 4.63852 30.6839 4.74743 30.4803C4.85869 30.2767 4.91433 30.0187 4.91433 29.7062C4.91433 29.3511 4.83384 29.0279 4.67285 28.7367C4.51187 28.4432 4.26684 28.21 3.93777 28.0372C3.60869 27.862 3.19084 27.7744 2.68422 27.7744H0.141602ZM2.76944 34.2659H1.02228V31.7374H2.81206C3.12929 31.7374 3.40391 31.8014 3.63592 31.9292C3.86793 32.0547 4.04667 32.2228 4.17214 32.4335C4.29761 32.6418 4.36035 32.8691 4.36035 33.1153C4.36035 33.4349 4.23843 33.7071 3.99458 33.9321C3.75311 34.1546 3.34473 34.2659 2.76944 34.2659ZM2.65581 30.9704H1.02228V28.5556H2.68422C3.16717 28.5556 3.51992 28.6681 3.74245 28.893C3.96499 29.1155 4.07626 29.3866 4.07626 29.7062C4.07626 29.9619 4.01234 30.1844 3.8845 30.3738C3.75903 30.5632 3.58857 30.71 3.37314 30.8142C3.16007 30.9183 2.92096 30.9704 2.65581 30.9704Z" fill="#55B3FF"/>
<path d="M6.53187 29.5926V35.0471H7.36994V29.5926H6.53187Z" fill="#55B3FF"/>
<path d="M6.53542 28.5166C6.65379 28.6278 6.79466 28.6835 6.95801 28.6835C7.12136 28.6835 7.26104 28.6278 7.37704 28.5166C7.49541 28.4053 7.5546 28.2715 7.5546 28.1153C7.5546 27.959 7.49541 27.8253 7.37704 27.714C7.26104 27.6027 7.12136 27.5471 6.95801 27.5471C6.79466 27.5471 6.65379 27.6027 6.53542 27.714C6.41942 27.8253 6.36142 27.959 6.36142 28.1153C6.36142 28.2715 6.41942 28.4053 6.53542 28.5166Z" fill="#55B3FF"/>
<path d="M9.74299 35.0471V27.7744H8.90492V35.0471H9.74299Z" fill="#55B3FF"/>
<path d="M12.116 35.0471V27.7744H11.278V35.0471H12.116Z" fill="#55B3FF"/>
<path fill-rule="evenodd" clip-rule="evenodd" d="M14.5779 34.8127C14.959 35.0447 15.4124 35.1607 15.9379 35.1607C16.3073 35.1607 16.6399 35.1039 16.9358 34.9903C17.2317 34.8743 17.4803 34.7133 17.6816 34.5073C17.8828 34.299 18.026 34.0575 18.1112 33.7829L17.3016 33.5556C17.2306 33.745 17.1299 33.9036 16.9997 34.0315C16.8695 34.157 16.7145 34.2517 16.5345 34.3156C16.357 34.3771 16.1581 34.4079 15.9379 34.4079C15.5994 34.4079 15.3023 34.3345 15.0466 34.1877C14.7909 34.0386 14.5909 33.822 14.4465 33.5379C14.3177 33.2781 14.2473 32.9668 14.2353 32.6039H18.1965V32.2488C18.1965 31.7398 18.129 31.3113 17.9941 30.9633C17.8591 30.6153 17.678 30.3359 17.4507 30.1252C17.2235 29.9122 16.9713 29.7583 16.6943 29.6636C16.4173 29.5689 16.1368 29.5215 15.8527 29.5215C15.3603 29.5215 14.9294 29.6423 14.5601 29.8838C14.1932 30.1229 13.9067 30.4567 13.7007 30.8852C13.4971 31.3113 13.3953 31.8037 13.3953 32.3624C13.3953 32.9212 13.4971 33.4112 13.7007 33.8326C13.9067 34.2517 14.1991 34.5784 14.5779 34.8127ZM14.2374 31.8795C14.2534 31.6265 14.3171 31.3874 14.4287 31.1622C14.5589 30.8994 14.7448 30.6863 14.9862 30.523C15.2301 30.3572 15.5189 30.2744 15.8527 30.2744C16.1557 30.2744 16.4185 30.3442 16.6411 30.4839C16.866 30.6236 17.0388 30.8142 17.1595 31.0556C17.2826 31.2971 17.3442 31.5717 17.3442 31.8795H14.2374Z" fill="#55B3FF"/>
<path d="M21.8435 30.3028V29.5926H20.6787V28.2857H19.8406V29.5926H19.0168V30.3028H19.8406V33.7119C19.8406 34.0291 19.914 34.2919 20.0608 34.5002C20.21 34.7086 20.397 34.8636 20.6219 34.9654C20.8492 35.0672 21.0812 35.1181 21.3179 35.1181C21.4742 35.1181 21.6032 35.1063 21.705 35.0826C21.8068 35.0613 21.8861 35.04 21.9429 35.0187L21.7725 34.2659L21.6304 34.2943C21.5712 34.3037 21.4955 34.3085 21.4031 34.3085C21.28 34.3085 21.1628 34.2895 21.0516 34.2517C20.9427 34.2114 20.8527 34.1333 20.7817 34.0173C20.713 33.8989 20.6787 33.7214 20.6787 33.4846V30.3028H21.8435Z" fill="#55B3FF"/>
<path fill-rule="evenodd" clip-rule="evenodd" d="M23.9724 34.8127C24.3535 35.0447 24.8069 35.1607 25.3325 35.1607C25.7018 35.1607 26.0344 35.1039 26.3303 34.9903C26.6263 34.8743 26.8749 34.7133 27.0761 34.5073C27.2773 34.299 27.4205 34.0575 27.5058 33.7829L26.6961 33.5556C26.6251 33.745 26.5245 33.9036 26.3943 34.0315C26.2641 34.157 26.109 34.2517 25.9291 34.3156C25.7515 34.3771 25.5526 34.4079 25.3325 34.4079C24.9939 34.4079 24.6968 34.3345 24.4411 34.1877C24.1855 34.0386 23.9854 33.822 23.841 33.5379C23.7122 33.2781 23.6418 32.9668 23.6298 32.6039H27.591V32.2488C27.591 31.7398 27.5235 31.3113 27.3886 30.9633C27.2536 30.6153 27.0725 30.3359 26.8453 30.1252C26.618 29.9122 26.3659 29.7583 26.0889 29.6636C25.8119 29.5689 25.5313 29.5215 25.2472 29.5215C24.7548 29.5215 24.324 29.6423 23.9546 29.8838C23.5877 30.1229 23.3012 30.4567 23.0953 30.8852C22.8917 31.3113 22.7899 31.8037 22.7899 32.3624C22.7899 32.9212 22.8917 33.4112 23.0953 33.8326C23.3012 34.2517 23.5936 34.5784 23.9724 34.8127ZM23.6319 31.8795C23.6479 31.6265 23.7117 31.3874 23.8232 31.1622C23.9535 30.8994 24.1393 30.6863 24.3808 30.523C24.6246 30.3572 24.9134 30.2744 25.2472 30.2744C25.5503 30.2744 25.8131 30.3442 26.0356 30.4839C26.2605 30.6236 26.4333 30.8142 26.5541 31.0556C26.6772 31.2971 26.7387 31.5717 26.7387 31.8795H23.6319Z" fill="#55B3FF"/>
<path d="M28.8659 29.5926V35.0471H29.7039V31.5954C29.7039 31.3492 29.7631 31.1302 29.8815 30.9384C30.0022 30.7443 30.1656 30.5928 30.3715 30.4839C30.5799 30.3726 30.8166 30.317 31.0818 30.317C31.193 30.317 31.2984 30.3253 31.3978 30.3419C31.4996 30.3561 31.5647 30.3667 31.5931 30.3738V29.5215C31.5458 29.5168 31.4759 29.5133 31.3836 29.5109C31.2913 29.5085 31.2143 29.5073 31.1528 29.5073C30.8261 29.5073 30.5325 29.5914 30.2721 29.7595C30.0117 29.9276 29.8318 30.1465 29.7323 30.4164H29.6755V29.5926H28.8659Z" fill="#55B3FF"/>
<path fill-rule="evenodd" clip-rule="evenodd" d="M33.2506 34.9796C33.5323 35.1098 33.846 35.1749 34.1917 35.1749C34.5089 35.1749 34.7776 35.1276 34.9978 35.0329C35.218 34.9382 35.3943 34.8234 35.5269 34.6884C35.6595 34.5535 35.7542 34.4268 35.811 34.3085H35.8536V35.0471H36.6917V31.4534C36.6917 31.0201 36.6207 30.6745 36.4786 30.4164C36.3366 30.1584 36.1578 29.9654 35.9424 29.8376C35.7293 29.7098 35.508 29.6257 35.2783 29.5855C35.051 29.5428 34.8498 29.5215 34.6746 29.5215C34.4 29.5215 34.1207 29.5594 33.8366 29.6352C33.5548 29.7086 33.2944 29.8388 33.0553 30.0258C32.8186 30.2105 32.6292 30.4685 32.4871 30.7999L33.2826 31.084C33.3749 30.8852 33.5347 30.6982 33.762 30.523C33.9893 30.3478 34.3029 30.2602 34.703 30.2602C35.0889 30.2602 35.3766 30.3572 35.566 30.5514C35.7577 30.7455 35.8536 31.0178 35.8536 31.3681V31.3965C35.8536 31.5315 35.8051 31.6262 35.708 31.6806C35.6133 31.7351 35.4618 31.7741 35.2535 31.7978C35.0475 31.8191 34.7788 31.8511 34.4474 31.8937C34.194 31.9268 33.9419 31.9718 33.691 32.0286C33.4424 32.0831 33.2151 32.166 33.0091 32.2772C32.8032 32.3885 32.6386 32.5424 32.5155 32.7389C32.3924 32.933 32.3309 33.1863 32.3309 33.4988C32.3309 33.8539 32.4137 34.157 32.5795 34.4079C32.7452 34.6565 32.9689 34.8471 33.2506 34.9796ZM35.1576 34.2268C34.9303 34.357 34.651 34.4221 34.3195 34.4221C33.9857 34.4221 33.7099 34.3487 33.4921 34.2019C33.2767 34.0528 33.1689 33.8326 33.1689 33.5414C33.1689 33.3284 33.2258 33.1603 33.3394 33.0372C33.4554 32.9117 33.6069 32.8182 33.7939 32.7566C33.9833 32.6927 34.1869 32.6465 34.4047 32.6181C34.4947 32.6063 34.6119 32.5921 34.7563 32.5755C34.9031 32.5566 35.0534 32.5353 35.2073 32.5116C35.3635 32.4856 35.5009 32.456 35.6192 32.4228C35.74 32.3873 35.8181 32.3482 35.8536 32.3056V33.0727C35.8536 33.2999 35.7944 33.5166 35.676 33.7225C35.56 33.9285 35.3872 34.0966 35.1576 34.2268Z" fill="#55B3FF"/>
</svg>
