<svg width="47" height="40" viewBox="0 0 47 40" fill="none" xmlns="http://www.w3.org/2000/svg">
<path fill-rule="evenodd" clip-rule="evenodd" d="M29.0677 2.52261H28.8951C28.4786 1.34424 27.3548 0.5 26.0338 0.5H19.966C18.645 0.5 17.5212 1.34424 17.1047 2.52261H16.9321C14.698 2.52261 12.8869 4.3337 12.8869 6.56781V20.7261C12.8869 22.9602 14.698 24.7713 16.9321 24.7713H29.0677C31.3018 24.7713 33.1129 22.9602 33.1129 20.7261V6.56782C33.1129 4.33371 31.3018 2.52261 29.0677 2.52261ZM14.9095 6.56781C14.9095 5.45076 15.815 4.54521 16.9321 4.54521C16.9321 6.22079 18.2904 7.57912 19.966 7.57912H26.0338C27.7094 7.57912 29.0677 6.22079 29.0677 4.54521C30.1848 4.54521 31.0903 5.45076 31.0903 6.56782V20.7261C31.0903 21.8431 30.1848 22.7487 29.0677 22.7487H16.9321C15.815 22.7487 14.9095 21.8431 14.9095 20.7261V6.56781ZM19.966 2.52261C19.4075 2.52261 18.9547 2.97538 18.9547 3.53391V4.54521C18.9547 5.10374 19.4075 5.55651 19.966 5.55651H26.0338C26.5923 5.55651 27.0451 5.10374 27.0451 4.54521V3.53391C27.0451 2.97538 26.5923 2.52261 26.0338 2.52261H19.966Z" fill="#CFD1DE"/>
<path fill-rule="evenodd" clip-rule="evenodd" d="M0.272285 30.2273V37.5H1.15297V34.8438H2.74388C3.30969 34.8438 3.77371 34.7408 4.13592 34.5348C4.49814 34.3265 4.76566 34.0471 4.93848 33.6967C5.11367 33.3464 5.20126 32.9569 5.20126 32.5284C5.20126 32.0999 5.11367 31.7116 4.93848 31.3636C4.76329 31.0156 4.4934 30.7398 4.12882 30.5362C3.7666 30.3303 3.30022 30.2273 2.72967 30.2273H0.272285ZM1.15297 34.0625H2.71547C3.10609 34.0625 3.41978 33.995 3.65652 33.8601C3.89326 33.7251 4.0649 33.5429 4.17143 33.3132C4.28033 33.0812 4.33479 32.8196 4.33479 32.5284C4.33479 32.2372 4.28033 31.9768 4.17143 31.7472C4.0649 31.5175 3.89208 31.3376 3.65297 31.2074C3.41386 31.0748 3.09662 31.0085 2.70126 31.0085H1.15297V34.0625Z" fill="#CFD1DE"/>
<path d="M6.50631 32.0455V37.5H7.34437V34.0483C7.34437 33.8021 7.40356 33.5831 7.52193 33.3913C7.64267 33.1972 7.80602 33.0457 8.01199 32.9368C8.22032 32.8255 8.45706 32.7699 8.72221 32.7699C8.83348 32.7699 8.93883 32.7782 9.03827 32.7947C9.14007 32.8089 9.20517 32.8196 9.23358 32.8267V31.9744C9.18623 31.9697 9.11639 31.9661 9.02406 31.9638C8.93173 31.9614 8.85479 31.9602 8.79324 31.9602C8.46653 31.9602 8.17297 32.0443 7.91256 32.2124C7.65214 32.3804 7.47221 32.5994 7.37278 32.8693H7.31596V32.0455H6.50631Z" fill="#CFD1DE"/>
<path fill-rule="evenodd" clip-rule="evenodd" d="M10.9807 37.2621C11.3524 37.4964 11.7845 37.6136 12.2769 37.6136C12.7693 37.6136 13.2002 37.4964 13.5695 37.2621C13.9412 37.0277 14.23 36.6998 14.436 36.2784C14.6443 35.857 14.7485 35.3646 14.7485 34.8011C14.7485 34.233 14.6443 33.737 14.436 33.3132C14.23 32.8894 13.9412 32.5604 13.5695 32.326C13.2002 32.0916 12.7693 31.9744 12.2769 31.9744C11.7845 31.9744 11.3524 32.0916 10.9807 32.326C10.6114 32.5604 10.3226 32.8894 10.1143 33.3132C9.90829 33.737 9.80531 34.233 9.80531 34.8011C9.80531 35.3646 9.90829 35.857 10.1143 36.2784C10.3226 36.6998 10.6114 37.0277 10.9807 37.2621ZM13.2002 36.5732C12.9587 36.7649 12.651 36.8608 12.2769 36.8608C11.9028 36.8608 11.5951 36.7649 11.3536 36.5732C11.1121 36.3814 10.9334 36.1293 10.8174 35.8168C10.7014 35.5043 10.6434 35.1657 10.6434 34.8011C10.6434 34.4366 10.7014 34.0968 10.8174 33.782C10.9334 33.4671 11.1121 33.2126 11.3536 33.0185C11.5951 32.8243 11.9028 32.7273 12.2769 32.7273C12.651 32.7273 12.9587 32.8243 13.2002 33.0185C13.4417 33.2126 13.6204 33.4671 13.7364 33.782C13.8524 34.0968 13.9104 34.4366 13.9104 34.8011C13.9104 35.1657 13.8524 35.5043 13.7364 35.8168C13.6204 36.1293 13.4417 36.3814 13.2002 36.5732Z" fill="#CFD1DE"/>
<path d="M15.9923 39.5099C16.1035 39.5336 16.2302 39.5455 16.3722 39.5455C16.6256 39.5455 16.8528 39.5005 17.0541 39.4105C17.2577 39.3205 17.4364 39.1821 17.5903 38.995C17.7442 38.8104 17.8732 38.5772 17.9774 38.2955L20.2927 32.0455H19.3836L17.8779 36.392H17.8211L16.3154 32.0455H15.4063L17.4234 37.5284L17.2671 37.9545C17.1653 38.2315 17.0529 38.4316 16.9298 38.5547C16.809 38.6802 16.6705 38.75 16.5143 38.7642C16.358 38.7784 16.1781 38.7595 15.9745 38.7074L15.7615 39.446C15.8041 39.4673 15.881 39.4886 15.9923 39.5099Z" fill="#CFD1DE"/>
<path fill-rule="evenodd" clip-rule="evenodd" d="M22.1304 37.2656C22.5116 37.4976 22.9649 37.6136 23.4905 37.6136C23.8598 37.6136 24.1924 37.5568 24.4884 37.4432C24.7843 37.3272 25.0329 37.1662 25.2341 36.9602C25.4353 36.7519 25.5786 36.5104 25.6638 36.2358L24.8541 36.0085C24.7831 36.1979 24.6825 36.3565 24.5523 36.4844C24.4221 36.6098 24.267 36.7045 24.0871 36.7685C23.9095 36.83 23.7107 36.8608 23.4905 36.8608C23.152 36.8608 22.8548 36.7874 22.5992 36.6406C22.3435 36.4915 22.1434 36.2749 21.999 35.9908C21.8702 35.731 21.7998 35.4197 21.7878 35.0568H25.749V34.7017C25.749 34.1927 25.6816 33.7642 25.5466 33.4162C25.4117 33.0682 25.2306 32.7888 25.0033 32.5781C24.776 32.3651 24.5239 32.2112 24.2469 32.1165C23.9699 32.0218 23.6894 31.9744 23.4053 31.9744C22.9129 31.9744 22.482 32.0952 22.1127 32.3366C21.7457 32.5758 21.4593 32.9096 21.2533 33.3381C21.0497 33.7642 20.9479 34.2566 20.9479 34.8153C20.9479 35.3741 21.0497 35.8641 21.2533 36.2855C21.4593 36.7045 21.7516 37.0312 22.1304 37.2656ZM21.79 34.3324C21.8059 34.0794 21.8697 33.8403 21.9813 33.6151C22.1115 33.3523 22.2973 33.1392 22.5388 32.9759C22.7826 32.8101 23.0715 32.7273 23.4053 32.7273C23.7083 32.7273 23.9711 32.7971 24.1936 32.9368C24.4185 33.0765 24.5914 33.267 24.7121 33.5085C24.8352 33.75 24.8968 34.0246 24.8968 34.3324H21.79Z" fill="#CFD1DE"/>
<path d="M27.9188 37.2514C28.2881 37.4929 28.7284 37.6136 29.2398 37.6136C29.6423 37.6136 29.995 37.5391 30.298 37.3899C30.6034 37.2384 30.8485 37.0348 31.0331 36.7791C31.2201 36.5211 31.3373 36.2311 31.3847 35.9091H30.5466C30.4945 36.108 30.4069 36.2784 30.2838 36.4205C30.1607 36.5625 30.0104 36.6714 29.8328 36.7472C29.6553 36.8229 29.4576 36.8608 29.2398 36.8608C28.9084 36.8608 28.6195 36.7744 28.3733 36.6016C28.1295 36.4287 27.9401 36.1861 27.8051 35.8736C27.6726 35.5611 27.6063 35.1941 27.6063 34.7727C27.6063 34.3608 27.6737 34.0021 27.8087 33.6967C27.946 33.389 28.1366 33.151 28.3804 32.983C28.6266 32.8125 28.9131 32.7273 29.2398 32.7273C29.6091 32.7273 29.9027 32.8243 30.1205 33.0185C30.3406 33.2102 30.4827 33.4304 30.5466 33.679H31.3847C31.3373 33.3381 31.2154 33.0398 31.0189 32.7841C30.8224 32.5284 30.5703 32.3295 30.2625 32.1875C29.9548 32.0455 29.6091 31.9744 29.2256 31.9744C28.7332 31.9744 28.3023 32.0952 27.933 32.3366C27.566 32.5758 27.2796 32.9084 27.0736 33.3345C26.87 33.7583 26.7682 34.2472 26.7682 34.8011C26.7682 35.3456 26.8676 35.8298 27.0665 36.2536C27.2654 36.6773 27.5495 37.0099 27.9188 37.2514Z" fill="#CFD1DE"/>
<path d="M34.982 32.7557V32.0455H33.8172V30.7386H32.9791V32.0455H32.1553V32.7557H32.9791V36.1648C32.9791 36.482 33.0525 36.7448 33.1993 36.9531C33.3485 37.1615 33.5355 37.3165 33.7604 37.4183C33.9877 37.5201 34.2197 37.571 34.4564 37.571C34.6127 37.571 34.7417 37.5592 34.8435 37.5355C34.9453 37.5142 35.0246 37.4929 35.0814 37.4716L34.911 36.7188L34.7689 36.7472C34.7097 36.7566 34.634 36.7614 34.5416 36.7614C34.4185 36.7614 34.3013 36.7424 34.1901 36.7045C34.0812 36.6643 33.9912 36.5862 33.9202 36.4702C33.8515 36.3518 33.8172 36.1742 33.8172 35.9375V32.7557H34.982Z" fill="#CFD1DE"/>
<path fill-rule="evenodd" clip-rule="evenodd" d="M37.1038 37.2621C37.4755 37.4964 37.9075 37.6136 38.4 37.6136C38.8924 37.6136 39.3232 37.4964 39.6926 37.2621C40.0643 37.0277 40.3531 36.6998 40.559 36.2784C40.7674 35.857 40.8715 35.3646 40.8715 34.8011C40.8715 34.233 40.7674 33.737 40.559 33.3132C40.3531 32.8894 40.0643 32.5604 39.6926 32.326C39.3232 32.0916 38.8924 31.9744 38.4 31.9744C37.9075 31.9744 37.4755 32.0916 37.1038 32.326C36.7345 32.5604 36.4456 32.8894 36.2373 33.3132C36.0313 33.737 35.9284 34.233 35.9284 34.8011C35.9284 35.3646 36.0313 35.857 36.2373 36.2784C36.4456 36.6998 36.7345 37.0277 37.1038 37.2621ZM39.3232 36.5732C39.0818 36.7649 38.774 36.8608 38.4 36.8608C38.0259 36.8608 37.7181 36.7649 37.4767 36.5732C37.2352 36.3814 37.0564 36.1293 36.9404 35.8168C36.8244 35.5043 36.7664 35.1657 36.7664 34.8011C36.7664 34.4366 36.8244 34.0968 36.9404 33.782C37.0564 33.4671 37.2352 33.2126 37.4767 33.0185C37.7181 32.8243 38.0259 32.7273 38.4 32.7273C38.774 32.7273 39.0818 32.8243 39.3232 33.0185C39.5647 33.2126 39.7435 33.4671 39.8595 33.782C39.9755 34.0968 40.0335 34.4366 40.0335 34.8011C40.0335 35.1657 39.9755 35.5043 39.8595 35.8168C39.7435 36.1293 39.5647 36.3814 39.3232 36.5732Z" fill="#CFD1DE"/>
<path d="M45.2616 33.4801L46.0145 33.267C45.8843 32.8788 45.6641 32.5663 45.354 32.3295C45.0462 32.0928 44.6224 31.9744 44.0827 31.9744C43.6991 31.9744 43.3559 32.0419 43.0528 32.1768C42.7522 32.3118 42.5142 32.4976 42.3391 32.7344C42.1662 32.9711 42.0798 33.2434 42.0798 33.5511C42.0798 33.9276 42.1958 34.2412 42.4278 34.4922C42.6622 34.7408 43.0292 34.9242 43.5287 35.0426L44.4378 35.2557C44.7124 35.3196 44.916 35.4167 45.0486 35.5469C45.1811 35.6747 45.2474 35.8333 45.2474 36.0227C45.2474 36.2571 45.1314 36.4583 44.8994 36.6264C44.6698 36.7921 44.3596 36.875 43.969 36.875C43.6257 36.875 43.3476 36.8016 43.1345 36.6548C42.9238 36.508 42.7806 36.2879 42.7048 35.9943L41.9094 36.1932C42.0064 36.6572 42.2372 37.0099 42.6018 37.2514C42.9664 37.4929 43.4269 37.6136 43.9832 37.6136C44.407 37.6136 44.7787 37.5426 45.0983 37.4006C45.4179 37.2585 45.6665 37.0644 45.844 36.8182C46.0239 36.572 46.1139 36.2926 46.1139 35.9801C46.1139 35.599 45.9944 35.2876 45.7552 35.0462C45.5161 34.8023 45.1527 34.6212 44.665 34.5028L43.8554 34.304C43.5334 34.2235 43.2967 34.1229 43.1452 34.0021C42.9936 33.8814 42.9179 33.7169 42.9179 33.5085C42.9179 33.2741 43.028 33.0812 43.2481 32.9297C43.4707 32.7758 43.7488 32.6989 44.0827 32.6989C44.3265 32.6989 44.5266 32.7379 44.6828 32.8161C44.8391 32.8942 44.9622 32.9936 45.0521 33.1143C45.1444 33.2327 45.2143 33.3546 45.2616 33.4801Z" fill="#CFD1DE"/>
</svg>
