<svg width="24" height="37" viewBox="0 0 24 37" fill="none" xmlns="http://www.w3.org/2000/svg">
<path fill-rule="evenodd" clip-rule="evenodd" d="M6.93207 6.57954C6.93207 3.22837 9.64872 0.511719 12.9999 0.511719C16.351 0.511719 19.0677 3.22837 19.0677 6.57954C19.0677 9.9307 16.351 12.6474 12.9999 12.6474C9.64872 12.6474 6.93207 9.9307 6.93207 6.57954ZM12.9999 2.53432C10.7658 2.53432 8.95467 4.34543 8.95467 6.57954C8.95467 8.81364 10.7658 10.6247 12.9999 10.6247C15.234 10.6247 17.0451 8.81364 17.0451 6.57954C17.0451 4.34543 15.234 2.53432 12.9999 2.53432Z" fill="#CFD1DE"/>
<path d="M12.9999 17.1982C10.5886 17.1982 8.30455 17.7365 6.74811 18.2185C5.87137 18.4901 5.22635 19.2845 5.06857 20.2988L4.89745 21.3989C4.8116 21.9508 4.29461 22.3286 3.74272 22.2427C3.19083 22.1569 2.81303 21.6399 2.89888 21.088L3.07 19.9879C3.32938 18.3204 4.43396 16.8179 6.1497 16.2865C7.81279 15.7714 10.3112 15.1756 12.9999 15.1756C15.6886 15.1756 18.187 15.7714 19.8501 16.2865C21.5658 16.8179 22.6704 18.3204 22.9298 19.9879L23.1009 21.088C23.1867 21.6399 22.8089 22.1569 22.2571 22.2427C21.7052 22.3286 21.1882 21.9508 21.1023 21.3989L20.9312 20.2988C20.7734 19.2845 20.1284 18.4901 19.2517 18.2185C17.6952 17.7365 15.4111 17.1982 12.9999 17.1982Z" fill="#CFD1DE"/>
<path fill-rule="evenodd" clip-rule="evenodd" d="M0.619934 29.2277V36.5004H1.50062V33.8442H3.09153C3.65734 33.8442 4.12135 33.7412 4.48357 33.5352C4.84579 33.3269 5.11331 33.0475 5.28613 32.6971C5.46132 32.3468 5.54891 31.9573 5.54891 31.5288C5.54891 31.1003 5.46132 30.7121 5.28613 30.3641C5.11094 30.016 4.84105 29.7402 4.47647 29.5366C4.11425 29.3307 3.64787 29.2277 3.07732 29.2277H0.619934ZM1.50062 33.0629H3.06312C3.45374 33.0629 3.76742 32.9954 4.00417 32.8605C4.24091 32.7256 4.41255 32.5433 4.51908 32.3136C4.62798 32.0816 4.68243 31.82 4.68243 31.5288C4.68243 31.2376 4.62798 30.9772 4.51908 30.7476C4.41255 30.5179 4.23973 30.338 4.00062 30.2078C3.76151 30.0752 3.44427 30.0089 3.04891 30.0089H1.50062V33.0629Z" fill="#CFD1DE"/>
<path fill-rule="evenodd" clip-rule="evenodd" d="M7.72221 36.266C8.10336 36.498 8.55672 36.6141 9.08229 36.6141C9.45161 36.6141 9.78423 36.5572 10.0802 36.4436C10.3761 36.3276 10.6247 36.1666 10.8259 35.9606C11.0271 35.7523 11.1704 35.5108 11.2556 35.2362L10.4459 35.0089C10.3749 35.1983 10.2743 35.3569 10.1441 35.4848C10.0139 35.6103 9.85881 35.705 9.67888 35.7689C9.50133 35.8304 9.30246 35.8612 9.08229 35.8612C8.74375 35.8612 8.44664 35.7878 8.19096 35.641C7.93528 35.4919 7.73523 35.2753 7.59081 34.9912C7.46202 34.7314 7.39161 34.4201 7.3796 34.0572H11.3408V33.7021C11.3408 33.1931 11.2733 32.7646 11.1384 32.4166C11.0035 32.0686 10.8223 31.7892 10.5951 31.5785C10.3678 31.3655 10.1157 31.2116 9.83868 31.1169C9.5617 31.0222 9.28116 30.9748 8.99706 30.9748C8.50464 30.9748 8.07377 31.0956 7.70445 31.3371C7.3375 31.5762 7.05104 31.91 6.84508 32.3385C6.64148 32.7646 6.53968 33.257 6.53968 33.8158C6.53968 34.3745 6.64148 34.8645 6.84508 35.2859C7.05104 35.705 7.34342 36.0317 7.72221 36.266ZM7.38174 33.3328C7.3977 33.0798 7.46147 32.8407 7.57306 32.6155C7.70327 32.3527 7.88911 32.1396 8.13059 31.9763C8.37443 31.8105 8.66326 31.7277 8.99706 31.7277C9.30009 31.7277 9.56288 31.7975 9.78542 31.9372C10.0103 32.0769 10.1831 32.2675 10.3039 32.5089C10.427 32.7504 10.4885 33.025 10.4885 33.3328H7.38174Z" fill="#CFD1DE"/>
<path d="M12.6157 31.0459V36.5004H13.4537V33.0487C13.4537 32.8025 13.5129 32.5835 13.6313 32.3918C13.752 32.1976 13.9154 32.0461 14.1214 31.9372C14.3297 31.8259 14.5664 31.7703 14.8316 31.7703C14.9429 31.7703 15.0482 31.7786 15.1476 31.7952C15.2494 31.8094 15.3145 31.82 15.3429 31.8271V30.9748C15.2956 30.9701 15.2258 30.9666 15.1334 30.9642C15.0411 30.9618 14.9642 30.9606 14.9026 30.9606C14.5759 30.9606 14.2823 31.0447 14.0219 31.2128C13.7615 31.3809 13.5816 31.5998 13.4822 31.8697H13.4253V31.0459H12.6157Z" fill="#CFD1DE"/>
<path d="M19.1071 31.7561V31.0459H17.8856V30.4919C17.8856 30.222 17.9459 30.0172 18.0667 29.8775C18.1898 29.7379 18.3898 29.668 18.6668 29.668C18.7875 29.668 18.8846 29.6787 18.958 29.7C19.0338 29.7213 19.0929 29.7391 19.1356 29.7533L19.377 29.0288C19.3131 29.0004 19.2161 28.9696 19.0858 28.9365C18.9556 28.9034 18.7875 28.8868 18.5816 28.8868C18.3212 28.8868 18.0738 28.9389 17.8394 29.043C17.605 29.1472 17.4144 29.3034 17.2677 29.5118C17.1209 29.7201 17.0475 29.9805 17.0475 30.293V31.0459H16.1668V31.7561H17.0475V36.5004H17.8856V31.7561H19.1071Z" fill="#CFD1DE"/>
<path d="M20.2817 31.0459V36.5004H21.1198V31.0459H20.2817Z" fill="#CFD1DE"/>
<path d="M20.2852 29.9699C20.4036 30.0811 20.5445 30.1368 20.7078 30.1368C20.8712 30.1368 21.0109 30.0811 21.1269 29.9699C21.2452 29.8586 21.3044 29.7248 21.3044 29.5686C21.3044 29.4123 21.2452 29.2786 21.1269 29.1673C21.0109 29.056 20.8712 29.0004 20.7078 29.0004C20.5445 29.0004 20.4036 29.056 20.2852 29.1673C20.1692 29.2786 20.1112 29.4123 20.1112 29.5686C20.1112 29.7248 20.1692 29.8586 20.2852 29.9699Z" fill="#CFD1DE"/>
<path d="M23.4928 36.5004V29.2277H22.6547V36.5004H23.4928Z" fill="#CFD1DE"/>
</svg>
