<svg width="47" height="40" viewBox="0 0 47 40" fill="none" xmlns="http://www.w3.org/2000/svg">
<path fill-rule="evenodd" clip-rule="evenodd" d="M29.0669 2.02261H28.8943C28.4778 0.844244 27.354 0 26.033 0H19.9652C18.6442 0 17.5204 0.844243 17.1039 2.02261H16.9313C14.6972 2.02261 12.8861 3.8337 12.8861 6.06781V20.2261C12.8861 22.4602 14.6972 24.2713 16.9313 24.2713H29.0669C31.301 24.2713 33.1121 22.4602 33.1121 20.2261V6.06782C33.1121 3.83371 31.301 2.02261 29.0669 2.02261ZM14.9087 6.06781C14.9087 4.95076 15.8142 4.04521 16.9313 4.04521C16.9313 5.72079 18.2896 7.07912 19.9652 7.07912H26.033C27.7086 7.07912 29.0669 5.72079 29.0669 4.04521C30.184 4.04521 31.0895 4.95076 31.0895 6.06782V20.2261C31.0895 21.3431 30.184 22.2487 29.0669 22.2487H16.9313C15.8142 22.2487 14.9087 21.3431 14.9087 20.2261V6.06781ZM19.9652 2.02261C19.4067 2.02261 18.9539 2.47538 18.9539 3.03391V4.04521C18.9539 4.60374 19.4067 5.05651 19.9652 5.05651H26.033C26.5915 5.05651 27.0443 4.60374 27.0443 4.04521V3.03391C27.0443 2.47538 26.5915 2.02261 26.033 2.02261H19.9652Z" fill="#CFD1DE"/>
<path fill-rule="evenodd" clip-rule="evenodd" d="M0.271484 29.7273V37H1.15217V34.3438H2.74308C3.30889 34.3438 3.7729 34.2408 4.13512 34.0348C4.49734 33.8265 4.76486 33.5471 4.93768 33.1967C5.11287 32.8464 5.20046 32.4569 5.20046 32.0284C5.20046 31.5999 5.11287 31.2116 4.93768 30.8636C4.76249 30.5156 4.4926 30.2398 4.12802 30.0362C3.7658 29.8303 3.29942 29.7273 2.72887 29.7273H0.271484ZM1.15217 33.5625H2.71467C3.10529 33.5625 3.41897 33.495 3.65572 33.3601C3.89246 33.2251 4.0641 33.0429 4.17063 32.8132C4.27953 32.5812 4.33398 32.3196 4.33398 32.0284C4.33398 31.7372 4.27953 31.4768 4.17063 31.2472C4.0641 31.0175 3.89128 30.8376 3.65217 30.7074C3.41306 30.5748 3.09582 30.5085 2.70046 30.5085H1.15217V33.5625Z" fill="#CFD1DE"/>
<path d="M6.5055 31.5455V37H7.34357V33.5483C7.34357 33.3021 7.40276 33.0831 7.52113 32.8913C7.64187 32.6972 7.80522 32.5457 8.01119 32.4368C8.21952 32.3255 8.45626 32.2699 8.72141 32.2699C8.83268 32.2699 8.93803 32.2782 9.03746 32.2947C9.13926 32.3089 9.20437 32.3196 9.23278 32.3267V31.4744C9.18543 31.4697 9.11559 31.4661 9.02326 31.4638C8.93093 31.4614 8.85399 31.4602 8.79244 31.4602C8.46573 31.4602 8.17217 31.5443 7.91175 31.7124C7.65134 31.8804 7.47141 32.0994 7.37198 32.3693H7.31516V31.5455H6.5055Z" fill="#CFD1DE"/>
<path fill-rule="evenodd" clip-rule="evenodd" d="M10.9799 36.7621C11.3516 36.9964 11.7837 37.1136 12.2761 37.1136C12.7685 37.1136 13.1994 36.9964 13.5687 36.7621C13.9404 36.5277 14.2292 36.1998 14.4352 35.7784C14.6435 35.357 14.7477 34.8646 14.7477 34.3011C14.7477 33.733 14.6435 33.237 14.4352 32.8132C14.2292 32.3894 13.9404 32.0604 13.5687 31.826C13.1994 31.5916 12.7685 31.4744 12.2761 31.4744C11.7837 31.4744 11.3516 31.5916 10.9799 31.826C10.6106 32.0604 10.3218 32.3894 10.1135 32.8132C9.90749 33.237 9.80451 33.733 9.80451 34.3011C9.80451 34.8646 9.90749 35.357 10.1135 35.7784C10.3218 36.1998 10.6106 36.5277 10.9799 36.7621ZM13.1994 36.0732C12.9579 36.2649 12.6502 36.3608 12.2761 36.3608C11.902 36.3608 11.5943 36.2649 11.3528 36.0732C11.1113 35.8814 10.9326 35.6293 10.8166 35.3168C10.7006 35.0043 10.6426 34.6657 10.6426 34.3011C10.6426 33.9366 10.7006 33.5968 10.8166 33.282C10.9326 32.9671 11.1113 32.7126 11.3528 32.5185C11.5943 32.3243 11.902 32.2273 12.2761 32.2273C12.6502 32.2273 12.9579 32.3243 13.1994 32.5185C13.4409 32.7126 13.6196 32.9671 13.7356 33.282C13.8516 33.5968 13.9096 33.9366 13.9096 34.3011C13.9096 34.6657 13.8516 35.0043 13.7356 35.3168C13.6196 35.6293 13.4409 35.8814 13.1994 36.0732Z" fill="#CFD1DE"/>
<path d="M15.9915 39.0099C16.1027 39.0336 16.2294 39.0455 16.3714 39.0455C16.6248 39.0455 16.852 39.0005 17.0533 38.9105C17.2569 38.8205 17.4356 38.6821 17.5895 38.495C17.7434 38.3104 17.8724 38.0772 17.9766 37.7955L20.2919 31.5455H19.3828L17.8771 35.892H17.8203L16.3146 31.5455H15.4055L17.4226 37.0284L17.2663 37.4545C17.1645 37.7315 17.0521 37.9316 16.929 38.0547C16.8082 38.1802 16.6697 38.25 16.5135 38.2642C16.3572 38.2784 16.1773 38.2595 15.9737 38.2074L15.7607 38.946C15.8033 38.9673 15.8802 38.9886 15.9915 39.0099Z" fill="#CFD1DE"/>
<path fill-rule="evenodd" clip-rule="evenodd" d="M22.1296 36.7656C22.5108 36.9976 22.9641 37.1136 23.4897 37.1136C23.859 37.1136 24.1916 37.0568 24.4876 36.9432C24.7835 36.8272 25.0321 36.6662 25.2333 36.4602C25.4345 36.2519 25.5778 36.0104 25.663 35.7358L24.8533 35.5085C24.7823 35.6979 24.6817 35.8565 24.5515 35.9844C24.4213 36.1098 24.2662 36.2045 24.0863 36.2685C23.9087 36.33 23.7099 36.3608 23.4897 36.3608C23.1512 36.3608 22.854 36.2874 22.5984 36.1406C22.3427 35.9915 22.1426 35.7749 21.9982 35.4908C21.8694 35.231 21.799 34.9197 21.787 34.5568H25.7482V34.2017C25.7482 33.6927 25.6808 33.2642 25.5458 32.9162C25.4109 32.5682 25.2298 32.2888 25.0025 32.0781C24.7752 31.8651 24.5231 31.7112 24.2461 31.6165C23.9691 31.5218 23.6886 31.4744 23.4045 31.4744C22.9121 31.4744 22.4812 31.5952 22.1119 31.8366C21.7449 32.0758 21.4585 32.4096 21.2525 32.8381C21.0489 33.2642 20.9471 33.7566 20.9471 34.3153C20.9471 34.8741 21.0489 35.3641 21.2525 35.7855C21.4585 36.2045 21.7508 36.5312 22.1296 36.7656ZM21.7892 33.8324C21.8051 33.5794 21.8689 33.3403 21.9805 33.1151C22.1107 32.8523 22.2965 32.6392 22.538 32.4759C22.7818 32.3101 23.0707 32.2273 23.4045 32.2273C23.7075 32.2273 23.9703 32.2971 24.1928 32.4368C24.4177 32.5765 24.5906 32.767 24.7113 33.0085C24.8344 33.25 24.896 33.5246 24.896 33.8324H21.7892Z" fill="#CFD1DE"/>
<path d="M27.918 36.7514C28.2873 36.9929 28.7276 37.1136 29.239 37.1136C29.6415 37.1136 29.9942 37.0391 30.2972 36.8899C30.6026 36.7384 30.8477 36.5348 31.0323 36.2791C31.2193 36.0211 31.3365 35.7311 31.3839 35.4091H30.5458C30.4937 35.608 30.4061 35.7784 30.283 35.9205C30.1599 36.0625 30.0096 36.1714 29.832 36.2472C29.6545 36.3229 29.4568 36.3608 29.239 36.3608C28.9076 36.3608 28.6187 36.2744 28.3725 36.1016C28.1287 35.9287 27.9393 35.6861 27.8043 35.3736C27.6718 35.0611 27.6055 34.6941 27.6055 34.2727C27.6055 33.8608 27.6729 33.5021 27.8079 33.1967C27.9452 32.889 28.1358 32.651 28.3796 32.483C28.6258 32.3125 28.9123 32.2273 29.239 32.2273C29.6083 32.2273 29.9019 32.3243 30.1197 32.5185C30.3398 32.7102 30.4819 32.9304 30.5458 33.179H31.3839C31.3365 32.8381 31.2146 32.5398 31.0181 32.2841C30.8216 32.0284 30.5695 31.8295 30.2617 31.6875C29.954 31.5455 29.6083 31.4744 29.2248 31.4744C28.7324 31.4744 28.3015 31.5952 27.9322 31.8366C27.5652 32.0758 27.2788 32.4084 27.0728 32.8345C26.8692 33.2583 26.7674 33.7472 26.7674 34.3011C26.7674 34.8456 26.8668 35.3298 27.0657 35.7536C27.2646 36.1773 27.5487 36.5099 27.918 36.7514Z" fill="#CFD1DE"/>
<path d="M34.9812 32.2557V31.5455H33.8164V30.2386H32.9783V31.5455H32.1545V32.2557H32.9783V35.6648C32.9783 35.982 33.0517 36.2448 33.1985 36.4531C33.3477 36.6615 33.5347 36.8165 33.7596 36.9183C33.9869 37.0201 34.2189 37.071 34.4556 37.071C34.6119 37.071 34.7409 37.0592 34.8427 37.0355C34.9445 37.0142 35.0238 36.9929 35.0806 36.9716L34.9102 36.2188L34.7681 36.2472C34.7089 36.2566 34.6332 36.2614 34.5408 36.2614C34.4177 36.2614 34.3005 36.2424 34.1893 36.2045C34.0804 36.1643 33.9904 36.0862 33.9194 35.9702C33.8507 35.8518 33.8164 35.6742 33.8164 35.4375V32.2557H34.9812Z" fill="#CFD1DE"/>
<path fill-rule="evenodd" clip-rule="evenodd" d="M37.103 36.7621C37.4747 36.9964 37.9067 37.1136 38.3992 37.1136C38.8916 37.1136 39.3224 36.9964 39.6918 36.7621C40.0634 36.5277 40.3523 36.1998 40.5582 35.7784C40.7666 35.357 40.8707 34.8646 40.8707 34.3011C40.8707 33.733 40.7666 33.237 40.5582 32.8132C40.3523 32.3894 40.0634 32.0604 39.6918 31.826C39.3224 31.5916 38.8916 31.4744 38.3992 31.4744C37.9067 31.4744 37.4747 31.5916 37.103 31.826C36.7337 32.0604 36.4448 32.3894 36.2365 32.8132C36.0305 33.237 35.9276 33.733 35.9276 34.3011C35.9276 34.8646 36.0305 35.357 36.2365 35.7784C36.4448 36.1998 36.7337 36.5277 37.103 36.7621ZM39.3224 36.0732C39.081 36.2649 38.7732 36.3608 38.3992 36.3608C38.0251 36.3608 37.7173 36.2649 37.4759 36.0732C37.2344 35.8814 37.0556 35.6293 36.9396 35.3168C36.8236 35.0043 36.7656 34.6657 36.7656 34.3011C36.7656 33.9366 36.8236 33.5968 36.9396 33.282C37.0556 32.9671 37.2344 32.7126 37.4759 32.5185C37.7173 32.3243 38.0251 32.2273 38.3992 32.2273C38.7732 32.2273 39.081 32.3243 39.3224 32.5185C39.5639 32.7126 39.7427 32.9671 39.8587 33.282C39.9747 33.5968 40.0327 33.9366 40.0327 34.3011C40.0327 34.6657 39.9747 35.0043 39.8587 35.3168C39.7427 35.6293 39.5639 35.8814 39.3224 36.0732Z" fill="#CFD1DE"/>
<path d="M45.2608 32.9801L46.0137 32.767C45.8835 32.3788 45.6633 32.0663 45.3532 31.8295C45.0454 31.5928 44.6216 31.4744 44.0819 31.4744C43.6983 31.4744 43.3551 31.5419 43.052 31.6768C42.7514 31.8118 42.5134 31.9976 42.3382 32.2344C42.1654 32.4711 42.079 32.7434 42.079 33.0511C42.079 33.4276 42.195 33.7412 42.427 33.9922C42.6614 34.2408 43.0284 34.4242 43.5279 34.5426L44.437 34.7557C44.7116 34.8196 44.9152 34.9167 45.0478 35.0469C45.1803 35.1747 45.2466 35.3333 45.2466 35.5227C45.2466 35.7571 45.1306 35.9583 44.8986 36.1264C44.669 36.2921 44.3588 36.375 43.9682 36.375C43.6249 36.375 43.3468 36.3016 43.1337 36.1548C42.923 36.008 42.7798 35.7879 42.704 35.4943L41.9086 35.6932C42.0056 36.1572 42.2364 36.5099 42.601 36.7514C42.9656 36.9929 43.4261 37.1136 43.9824 37.1136C44.4062 37.1136 44.7779 37.0426 45.0975 36.9006C45.4171 36.7585 45.6657 36.5644 45.8432 36.3182C46.0231 36.072 46.1131 35.7926 46.1131 35.4801C46.1131 35.099 45.9935 34.7876 45.7544 34.5462C45.5153 34.3023 45.1519 34.1212 44.6642 34.0028L43.8546 33.804C43.5326 33.7235 43.2959 33.6229 43.1444 33.5021C42.9928 33.3814 42.9171 33.2169 42.9171 33.0085C42.9171 32.7741 43.0272 32.5812 43.2473 32.4297C43.4699 32.2758 43.748 32.1989 44.0819 32.1989C44.3257 32.1989 44.5257 32.2379 44.682 32.3161C44.8382 32.3942 44.9614 32.4936 45.0513 32.6143C45.1436 32.7327 45.2135 32.8546 45.2608 32.9801Z" fill="#CFD1DE"/>
</svg>
