<svg width="24" height="37" viewBox="0 0 24 37" fill="none" xmlns="http://www.w3.org/2000/svg">
<path fill-rule="evenodd" clip-rule="evenodd" d="M6.63147 6.07954C6.63147 2.72837 9.34812 0.0117188 12.6993 0.0117188C16.0505 0.0117188 18.7671 2.72837 18.7671 6.07954C18.7671 9.4307 16.0505 12.1474 12.6993 12.1474C9.34812 12.1474 6.63147 9.4307 6.63147 6.07954ZM12.6993 2.03432C10.4652 2.03432 8.65408 3.84543 8.65408 6.07954C8.65408 8.31364 10.4652 10.1247 12.6993 10.1247C14.9334 10.1247 16.7445 8.31364 16.7445 6.07954C16.7445 3.84543 14.9334 2.03432 12.6993 2.03432Z" fill="#CFD1DE"/>
<path d="M12.6993 16.6982C10.288 16.6982 8.00396 17.2365 6.44751 17.7185C5.57077 17.9901 4.92575 18.7845 4.76797 19.7988L4.59685 20.8989C4.511 21.4508 3.99401 21.8286 3.44212 21.7427C2.89023 21.6569 2.51243 21.1399 2.59828 20.588L2.7694 19.4879C3.02878 17.8204 4.13336 16.3179 5.8491 15.7865C7.51219 15.2714 10.0106 14.6756 12.6993 14.6756C15.388 14.6756 17.8864 15.2714 19.5495 15.7865C21.2652 16.3179 22.3698 17.8204 22.6292 19.4879L22.8003 20.588C22.8861 21.1399 22.5083 21.6569 21.9565 21.7427C21.4046 21.8286 20.8876 21.4508 20.8017 20.8989L20.6306 19.7988C20.4728 18.7845 19.8278 17.9901 18.9511 17.7185C17.3946 17.2365 15.1105 16.6982 12.6993 16.6982Z" fill="#CFD1DE"/>
<path fill-rule="evenodd" clip-rule="evenodd" d="M0.319336 28.7277V36.0004H1.20002V33.3442H2.79093C3.35674 33.3442 3.82076 33.2412 4.18297 33.0352C4.54519 32.8269 4.81271 32.5475 4.98553 32.1971C5.16072 31.8468 5.24831 31.4573 5.24831 31.0288C5.24831 30.6003 5.16072 30.2121 4.98553 29.8641C4.81034 29.516 4.54045 29.2402 4.17587 29.0366C3.81365 28.8307 3.34727 28.7277 2.77672 28.7277H0.319336ZM1.20002 32.5629H2.76252C3.15314 32.5629 3.46683 32.4954 3.70357 32.3605C3.94031 32.2256 4.11195 32.0433 4.21848 31.8136C4.32739 31.5816 4.38184 31.32 4.38184 31.0288C4.38184 30.7376 4.32739 30.4772 4.21848 30.2476C4.11195 30.0179 3.93913 29.838 3.70002 29.7078C3.46091 29.5752 3.14367 29.5089 2.74831 29.5089H1.20002V32.5629Z" fill="#CFD1DE"/>
<path fill-rule="evenodd" clip-rule="evenodd" d="M7.42161 35.766C7.80276 35.998 8.25613 36.1141 8.78169 36.1141C9.15101 36.1141 9.48363 36.0572 9.77956 35.9436C10.0755 35.8276 10.3241 35.6666 10.5253 35.4606C10.7265 35.2523 10.8698 35.0108 10.955 34.7362L10.1453 34.5089C10.0743 34.6983 9.97369 34.8569 9.84348 34.9848C9.71327 35.1103 9.55821 35.205 9.37828 35.2689C9.20073 35.3304 9.00186 35.3612 8.78169 35.3612C8.44315 35.3612 8.14604 35.2878 7.89036 35.141C7.63468 34.9919 7.43463 34.7753 7.29022 34.4912C7.16142 34.2314 7.09102 33.9201 7.079 33.5572H11.0402V33.2021C11.0402 32.6931 10.9727 32.2646 10.8378 31.9166C10.7029 31.5686 10.5218 31.2892 10.2945 31.0785C10.0672 30.8655 9.81507 30.7116 9.53809 30.6169C9.2611 30.5222 8.98056 30.4748 8.69647 30.4748C8.20404 30.4748 7.77317 30.5956 7.40385 30.8371C7.0369 31.0762 6.75044 31.41 6.54448 31.8385C6.34088 32.2646 6.23908 32.757 6.23908 33.3158C6.23908 33.8745 6.34088 34.3645 6.54448 34.7859C6.75044 35.205 7.04282 35.5317 7.42161 35.766ZM7.08114 32.8328C7.0971 32.5798 7.16088 32.3407 7.27246 32.1155C7.40267 31.8527 7.58851 31.6396 7.82999 31.4763C8.07383 31.3105 8.36266 31.2277 8.69647 31.2277C8.9995 31.2277 9.26228 31.2975 9.48482 31.4372C9.70972 31.5769 9.88255 31.7675 10.0033 32.0089C10.1264 32.2504 10.1879 32.525 10.1879 32.8328H7.08114Z" fill="#CFD1DE"/>
<path d="M12.3151 30.5459V36.0004H13.1531V32.5487C13.1531 32.3025 13.2123 32.0835 13.3307 31.8918C13.4514 31.6976 13.6148 31.5461 13.8208 31.4372C14.0291 31.3259 14.2658 31.2703 14.531 31.2703C14.6423 31.2703 14.7476 31.2786 14.847 31.2952C14.9488 31.3094 15.0139 31.32 15.0423 31.3271V30.4748C14.995 30.4701 14.9252 30.4666 14.8328 30.4642C14.7405 30.4618 14.6636 30.4606 14.602 30.4606C14.2753 30.4606 13.9817 30.5447 13.7213 30.7128C13.4609 30.8809 13.281 31.0998 13.1816 31.3697H13.1247V30.5459H12.3151Z" fill="#CFD1DE"/>
<path d="M18.8066 31.2561V30.5459H17.585V29.9919C17.585 29.722 17.6453 29.5172 17.7661 29.3775C17.8892 29.2379 18.0892 29.168 18.3662 29.168C18.4869 29.168 18.584 29.1787 18.6574 29.2C18.7332 29.2213 18.7923 29.2391 18.835 29.2533L19.0764 28.5288C19.0125 28.5004 18.9155 28.4696 18.7852 28.4365C18.655 28.4034 18.4869 28.3868 18.281 28.3868C18.0206 28.3868 17.7732 28.4389 17.5388 28.543C17.3044 28.6472 17.1138 28.8034 16.9671 29.0118C16.8203 29.2201 16.7469 29.4805 16.7469 29.793V30.5459H15.8662V31.2561H16.7469V36.0004H17.585V31.2561H18.8066Z" fill="#CFD1DE"/>
<path d="M19.9811 30.5459V36.0004H20.8192V30.5459H19.9811Z" fill="#CFD1DE"/>
<path d="M19.9846 29.4699C20.103 29.5811 20.2439 29.6368 20.4072 29.6368C20.5706 29.6368 20.7103 29.5811 20.8263 29.4699C20.9446 29.3586 21.0038 29.2248 21.0038 29.0686C21.0038 28.9123 20.9446 28.7786 20.8263 28.6673C20.7103 28.556 20.5706 28.5004 20.4072 28.5004C20.2439 28.5004 20.103 28.556 19.9846 28.6673C19.8686 28.7786 19.8106 28.9123 19.8106 29.0686C19.8106 29.2248 19.8686 29.3586 19.9846 29.4699Z" fill="#CFD1DE"/>
<path d="M23.1922 36.0004V28.7277H22.3541V36.0004H23.1922Z" fill="#CFD1DE"/>
</svg>
