<svg width="47" height="40" viewBox="0 0 47 40" fill="none" xmlns="http://www.w3.org/2000/svg">
<path fill-rule="evenodd" clip-rule="evenodd" d="M29.5015 2.02261H29.3288C28.9124 0.844244 27.7886 0 26.4676 0H20.3998C19.0788 0 17.955 0.844243 17.5385 2.02261H17.3658C15.1317 2.02261 13.3206 3.8337 13.3206 6.06781V20.2261C13.3206 22.4602 15.1317 24.2713 17.3658 24.2713H29.5015C31.7356 24.2713 33.5467 22.4602 33.5467 20.2261V6.06782C33.5467 3.83371 31.7356 2.02261 29.5015 2.02261ZM15.3432 6.06781C15.3432 4.95076 16.2488 4.04521 17.3658 4.04521C17.3658 5.72079 18.7242 7.07912 20.3998 7.07912H26.4676C28.1432 7.07912 29.5015 5.72079 29.5015 4.04521C30.6185 4.04521 31.5241 4.95076 31.5241 6.06782V20.2261C31.5241 21.3431 30.6185 22.2487 29.5015 22.2487H17.3658C16.2488 22.2487 15.3432 21.3431 15.3432 20.2261V6.06781ZM20.3998 2.02261C19.8412 2.02261 19.3885 2.47538 19.3885 3.03391V4.04521C19.3885 4.60374 19.8412 5.05651 20.3998 5.05651H26.4676C27.0261 5.05651 27.4789 4.60374 27.4789 4.04521V3.03391C27.4789 2.47538 27.0261 2.02261 26.4676 2.02261H20.3998Z" fill="#CFD1DE"/>
<path fill-rule="evenodd" clip-rule="evenodd" d="M0.705078 29.7273V37H1.58576V34.3438H3.17667C3.74248 34.3438 4.2065 34.2408 4.56871 34.0348C4.93093 33.8265 5.19845 33.5471 5.37127 33.1967C5.54646 32.8464 5.63406 32.4569 5.63406 32.0284C5.63406 31.5999 5.54646 31.2116 5.37127 30.8636C5.19608 30.5156 4.9262 30.2398 4.56161 30.0362C4.1994 29.8303 3.73301 29.7273 3.16246 29.7273H0.705078ZM1.58576 33.5625H3.14826C3.53888 33.5625 3.85257 33.495 4.08931 33.3601C4.32605 33.2251 4.49769 33.0429 4.60423 32.8132C4.71313 32.5812 4.76758 32.3196 4.76758 32.0284C4.76758 31.7372 4.71313 31.4768 4.60423 31.2472C4.49769 31.0175 4.32487 30.8376 4.08576 30.7074C3.84665 30.5748 3.52942 30.5085 3.13406 30.5085H1.58576V33.5625Z" fill="#CFD1DE"/>
<path d="M6.9391 31.5455V37H7.77717V33.5483C7.77717 33.3021 7.83635 33.0831 7.95472 32.8913C8.07546 32.6972 8.23881 32.5457 8.44478 32.4368C8.65311 32.3255 8.88986 32.2699 9.15501 32.2699C9.26628 32.2699 9.37163 32.2782 9.47106 32.2947C9.57286 32.3089 9.63796 32.3196 9.66637 32.3267V31.4744C9.61902 31.4697 9.54918 31.4661 9.45685 31.4638C9.36452 31.4614 9.28758 31.4602 9.22603 31.4602C8.89933 31.4602 8.60576 31.5443 8.34535 31.7124C8.08493 31.8804 7.90501 32.0994 7.80558 32.3693H7.74876V31.5455H6.9391Z" fill="#CFD1DE"/>
<path fill-rule="evenodd" clip-rule="evenodd" d="M11.4135 36.7621C11.7852 36.9964 12.2173 37.1136 12.7097 37.1136C13.2021 37.1136 13.633 36.9964 14.0023 36.7621C14.374 36.5277 14.6628 36.1998 14.8688 35.7784C15.0771 35.357 15.1813 34.8646 15.1813 34.3011C15.1813 33.733 15.0771 33.237 14.8688 32.8132C14.6628 32.3894 14.374 32.0604 14.0023 31.826C13.633 31.5916 13.2021 31.4744 12.7097 31.4744C12.2173 31.4744 11.7852 31.5916 11.4135 31.826C11.0442 32.0604 10.7554 32.3894 10.5471 32.8132C10.3411 33.237 10.2381 33.733 10.2381 34.3011C10.2381 34.8646 10.3411 35.357 10.5471 35.7784C10.7554 36.1998 11.0442 36.5277 11.4135 36.7621ZM13.633 36.0732C13.3915 36.2649 13.0837 36.3608 12.7097 36.3608C12.3356 36.3608 12.0279 36.2649 11.7864 36.0732C11.5449 35.8814 11.3662 35.6293 11.2502 35.3168C11.1342 35.0043 11.0762 34.6657 11.0762 34.3011C11.0762 33.9366 11.1342 33.5968 11.2502 33.282C11.3662 32.9671 11.5449 32.7126 11.7864 32.5185C12.0279 32.3243 12.3356 32.2273 12.7097 32.2273C13.0837 32.2273 13.3915 32.3243 13.633 32.5185C13.8745 32.7126 14.0532 32.9671 14.1692 33.282C14.2852 33.5968 14.3432 33.9366 14.3432 34.3011C14.3432 34.6657 14.2852 35.0043 14.1692 35.3168C14.0532 35.6293 13.8745 35.8814 13.633 36.0732Z" fill="#CFD1DE"/>
<path d="M16.4251 39.0099C16.5363 39.0336 16.663 39.0455 16.805 39.0455C17.0584 39.0455 17.2856 39.0005 17.4869 38.9105C17.6905 38.8205 17.8692 38.6821 18.0231 38.495C18.177 38.3104 18.306 38.0772 18.4102 37.7955L20.7255 31.5455H19.8164L18.3107 35.892H18.2539L16.7482 31.5455H15.8391L17.8562 37.0284L17.6999 37.4545C17.5981 37.7315 17.4857 37.9316 17.3626 38.0547C17.2418 38.1802 17.1033 38.25 16.9471 38.2642C16.7908 38.2784 16.6109 38.2595 16.4073 38.2074L16.1942 38.946C16.2369 38.9673 16.3138 38.9886 16.4251 39.0099Z" fill="#CFD1DE"/>
<path fill-rule="evenodd" clip-rule="evenodd" d="M22.5632 36.7656C22.9444 36.9976 23.3977 37.1136 23.9233 37.1136C24.2926 37.1136 24.6252 37.0568 24.9212 36.9432C25.2171 36.8272 25.4657 36.6662 25.6669 36.4602C25.8681 36.2519 26.0114 36.0104 26.0966 35.7358L25.2869 35.5085C25.2159 35.6979 25.1153 35.8565 24.9851 35.9844C24.8549 36.1098 24.6998 36.2045 24.5199 36.2685C24.3423 36.33 24.1435 36.3608 23.9233 36.3608C23.5848 36.3608 23.2876 36.2874 23.032 36.1406C22.7763 35.9915 22.5762 35.7749 22.4318 35.4908C22.303 35.231 22.2326 34.9197 22.2206 34.5568H26.1818V34.2017C26.1818 33.6927 26.1143 33.2642 25.9794 32.9162C25.8445 32.5682 25.6634 32.2888 25.4361 32.0781C25.2088 31.8651 24.9567 31.7112 24.6797 31.6165C24.4027 31.5218 24.1222 31.4744 23.8381 31.4744C23.3456 31.4744 22.9148 31.5952 22.5455 31.8366C22.1785 32.0758 21.892 32.4096 21.6861 32.8381C21.4825 33.2642 21.3807 33.7566 21.3807 34.3153C21.3807 34.8741 21.4825 35.3641 21.6861 35.7855C21.892 36.2045 22.1844 36.5312 22.5632 36.7656ZM22.2227 33.8324C22.2387 33.5794 22.3025 33.3403 22.4141 33.1151C22.5443 32.8523 22.7301 32.6392 22.9716 32.4759C23.2154 32.3101 23.5043 32.2273 23.8381 32.2273C24.1411 32.2273 24.4039 32.2971 24.6264 32.4368C24.8513 32.5765 25.0241 32.767 25.1449 33.0085C25.268 33.25 25.3295 33.5246 25.3295 33.8324H22.2227Z" fill="#CFD1DE"/>
<path d="M28.3516 36.7514C28.7209 36.9929 29.1612 37.1136 29.6726 37.1136C30.075 37.1136 30.4278 37.0391 30.7308 36.8899C31.0362 36.7384 31.2812 36.5348 31.4659 36.2791C31.6529 36.0211 31.7701 35.7311 31.8175 35.4091H30.9794C30.9273 35.608 30.8397 35.7784 30.7166 35.9205C30.5935 36.0625 30.4432 36.1714 30.2656 36.2472C30.0881 36.3229 29.8904 36.3608 29.6726 36.3608C29.3411 36.3608 29.0523 36.2744 28.8061 36.1016C28.5623 35.9287 28.3729 35.6861 28.2379 35.3736C28.1054 35.0611 28.0391 34.6941 28.0391 34.2727C28.0391 33.8608 28.1065 33.5021 28.2415 33.1967C28.3788 32.889 28.5694 32.651 28.8132 32.483C29.0594 32.3125 29.3459 32.2273 29.6726 32.2273C30.0419 32.2273 30.3355 32.3243 30.5533 32.5185C30.7734 32.7102 30.9155 32.9304 30.9794 33.179H31.8175C31.7701 32.8381 31.6482 32.5398 31.4517 32.2841C31.2552 32.0284 31.0031 31.8295 30.6953 31.6875C30.3875 31.5455 30.0419 31.4744 29.6584 31.4744C29.166 31.4744 28.7351 31.5952 28.3658 31.8366C27.9988 32.0758 27.7124 32.4084 27.5064 32.8345C27.3028 33.2583 27.201 33.7472 27.201 34.3011C27.201 34.8456 27.3004 35.3298 27.4993 35.7536C27.6982 36.1773 27.9822 36.5099 28.3516 36.7514Z" fill="#CFD1DE"/>
<path d="M35.4148 32.2557V31.5455H34.25V30.2386H33.4119V31.5455H32.5881V32.2557H33.4119V35.6648C33.4119 35.982 33.4853 36.2448 33.6321 36.4531C33.7812 36.6615 33.9683 36.8165 34.1932 36.9183C34.4205 37.0201 34.6525 37.071 34.8892 37.071C35.0455 37.071 35.1745 37.0592 35.2763 37.0355C35.3781 37.0142 35.4574 36.9929 35.5142 36.9716L35.3438 36.2188L35.2017 36.2472C35.1425 36.2566 35.0668 36.2614 34.9744 36.2614C34.8513 36.2614 34.7341 36.2424 34.6229 36.2045C34.514 36.1643 34.424 36.0862 34.353 35.9702C34.2843 35.8518 34.25 35.6742 34.25 35.4375V32.2557H35.4148Z" fill="#CFD1DE"/>
<path fill-rule="evenodd" clip-rule="evenodd" d="M37.5366 36.7621C37.9083 36.9964 38.3403 37.1136 38.8327 37.1136C39.3252 37.1136 39.756 36.9964 40.1254 36.7621C40.497 36.5277 40.7859 36.1998 40.9918 35.7784C41.2002 35.357 41.3043 34.8646 41.3043 34.3011C41.3043 33.733 41.2002 33.237 40.9918 32.8132C40.7859 32.3894 40.497 32.0604 40.1254 31.826C39.756 31.5916 39.3252 31.4744 38.8327 31.4744C38.3403 31.4744 37.9083 31.5916 37.5366 31.826C37.1673 32.0604 36.8784 32.3894 36.6701 32.8132C36.4641 33.237 36.3611 33.733 36.3611 34.3011C36.3611 34.8646 36.4641 35.357 36.6701 35.7784C36.8784 36.1998 37.1673 36.5277 37.5366 36.7621ZM39.756 36.0732C39.5146 36.2649 39.2068 36.3608 38.8327 36.3608C38.4587 36.3608 38.1509 36.2649 37.9094 36.0732C37.668 35.8814 37.4892 35.6293 37.3732 35.3168C37.2572 35.0043 37.1992 34.6657 37.1992 34.3011C37.1992 33.9366 37.2572 33.5968 37.3732 33.282C37.4892 32.9671 37.668 32.7126 37.9094 32.5185C38.1509 32.3243 38.4587 32.2273 38.8327 32.2273C39.2068 32.2273 39.5146 32.3243 39.756 32.5185C39.9975 32.7126 40.1763 32.9671 40.2923 33.282C40.4083 33.5968 40.4663 33.9366 40.4663 34.3011C40.4663 34.6657 40.4083 35.0043 40.2923 35.3168C40.1763 35.6293 39.9975 35.8814 39.756 36.0732Z" fill="#CFD1DE"/>
<path d="M45.6944 32.9801L46.4473 32.767C46.3171 32.3788 46.0969 32.0663 45.7868 31.8295C45.479 31.5928 45.0552 31.4744 44.5154 31.4744C44.1319 31.4744 43.7886 31.5419 43.4856 31.6768C43.185 31.8118 42.947 31.9976 42.7718 32.2344C42.599 32.4711 42.5126 32.7434 42.5126 33.0511C42.5126 33.4276 42.6286 33.7412 42.8606 33.9922C43.095 34.2408 43.4619 34.4242 43.9615 34.5426L44.8706 34.7557C45.1452 34.8196 45.3488 34.9167 45.4814 35.0469C45.6139 35.1747 45.6802 35.3333 45.6802 35.5227C45.6802 35.7571 45.5642 35.9583 45.3322 36.1264C45.1026 36.2921 44.7924 36.375 44.4018 36.375C44.0585 36.375 43.7804 36.3016 43.5673 36.1548C43.3566 36.008 43.2134 35.7879 43.1376 35.4943L42.3422 35.6932C42.4392 36.1572 42.67 36.5099 43.0346 36.7514C43.3992 36.9929 43.8597 37.1136 44.416 37.1136C44.8398 37.1136 45.2115 37.0426 45.5311 36.9006C45.8507 36.7585 46.0993 36.5644 46.2768 36.3182C46.4567 36.072 46.5467 35.7926 46.5467 35.4801C46.5467 35.099 46.4271 34.7876 46.188 34.5462C45.9489 34.3023 45.5855 34.1212 45.0978 34.0028L44.2882 33.804C43.9662 33.7235 43.7295 33.6229 43.5779 33.5021C43.4264 33.3814 43.3507 33.2169 43.3507 33.0085C43.3507 32.7741 43.4608 32.5812 43.6809 32.4297C43.9035 32.2758 44.1816 32.1989 44.5154 32.1989C44.7593 32.1989 44.9593 32.2379 45.1156 32.3161C45.2718 32.3942 45.3949 32.4936 45.4849 32.6143C45.5772 32.7327 45.6471 32.8546 45.6944 32.9801Z" fill="#CFD1DE"/>
</svg>
