<svg width="37" height="37" viewBox="0 0 37 37" fill="none" xmlns="http://www.w3.org/2000/svg">
<path fill-rule="evenodd" clip-rule="evenodd" d="M10.371 0.988281C8.13977 0.988281 6.331 2.79705 6.331 5.02828V19.1943C6.331 21.4256 8.13977 23.2343 10.371 23.2343H26.4944C28.7256 23.2343 30.5344 21.4256 30.5344 19.1943V8.97897C30.5344 6.74774 28.7256 4.93897 26.4944 4.93897H9.84503C9.28737 4.93897 8.8353 4.4869 8.8353 3.92924C8.8353 3.86368 8.82905 3.79959 8.81712 3.73751C9.18765 3.29194 9.7462 3.00828 10.371 3.00828H27.5283C28.0861 3.00828 28.5383 2.55609 28.5383 1.99828C28.5383 1.44047 28.0861 0.988281 27.5283 0.988281H10.371ZM8.351 19.1943V6.56559C8.79189 6.81599 9.30176 6.95897 9.84503 6.95897H26.4944C27.61 6.95897 28.5144 7.86336 28.5144 8.97897V19.1943C28.5144 20.31 27.61 21.2143 26.4944 21.2143H10.371C9.25538 21.2143 8.351 20.31 8.351 19.1943Z" fill="#CFD1DE"/>
<path fill-rule="evenodd" clip-rule="evenodd" d="M0.216797 28.6804V35.9531H2.84464C3.41755 35.9531 3.88275 35.8679 4.24023 35.6974C4.59772 35.527 4.85932 35.2962 5.02504 35.005C5.19075 34.7138 5.27361 34.3859 5.27361 34.0213C5.27361 33.6378 5.19786 33.3134 5.04634 33.0483C4.89483 32.7831 4.70662 32.5795 4.48171 32.4375C4.25681 32.2954 4.03308 32.2173 3.81055 32.2031V32.1321C4.01888 32.0753 4.21183 31.9877 4.38938 31.8693C4.56931 31.7509 4.71372 31.59 4.82262 31.3864C4.93389 31.1828 4.98952 30.9247 4.98952 30.6122C4.98952 30.2571 4.90903 29.9339 4.74805 29.6427C4.58706 29.3492 4.34203 29.116 4.01296 28.9432C3.68389 28.768 3.26604 28.6804 2.75941 28.6804H0.216797ZM2.84464 35.1719H1.09748V32.6435H2.88725C3.20449 32.6435 3.47911 32.7074 3.71111 32.8352C3.94312 32.9607 4.12186 33.1288 4.24734 33.3395C4.37281 33.5478 4.43555 33.7751 4.43555 34.0213C4.43555 34.3409 4.31362 34.6132 4.06978 34.8381C3.8283 35.0606 3.41992 35.1719 2.84464 35.1719ZM2.731 31.8764H1.09748V29.4616H2.75941C3.24237 29.4616 3.59511 29.5741 3.81765 29.799C4.04019 30.0215 4.15146 30.2926 4.15146 30.6122C4.15146 30.8679 4.08754 31.0904 3.95969 31.2798C3.83422 31.4692 3.66377 31.616 3.44833 31.7202C3.23526 31.8243 2.99615 31.8764 2.731 31.8764Z" fill="#CFD1DE"/>
<path d="M6.60707 30.4986V35.9531H7.44514V30.4986H6.60707Z" fill="#CFD1DE"/>
<path d="M6.61062 29.4226C6.72899 29.5338 6.86985 29.5895 7.0332 29.5895C7.19656 29.5895 7.33623 29.5338 7.45224 29.4226C7.57061 29.3113 7.62979 29.1775 7.62979 29.0213C7.62979 28.865 7.57061 28.7313 7.45224 28.62C7.33623 28.5087 7.19656 28.4531 7.0332 28.4531C6.86985 28.4531 6.72899 28.5087 6.61062 28.62C6.49461 28.7313 6.43661 28.865 6.43661 29.0213C6.43661 29.1775 6.49461 29.3113 6.61062 29.4226Z" fill="#CFD1DE"/>
<path d="M9.81818 35.9531V28.6804H8.98011V35.9531H9.81818Z" fill="#CFD1DE"/>
<path d="M12.1912 35.9531V28.6804H11.3532V35.9531H12.1912Z" fill="#CFD1DE"/>
<path fill-rule="evenodd" clip-rule="evenodd" d="M14.6531 35.7187C15.0342 35.9507 15.4876 36.0668 16.0131 36.0668C16.3825 36.0668 16.7151 36.0099 17.011 35.8963C17.3069 35.7803 17.5555 35.6193 17.7567 35.4133C17.958 35.205 18.1012 34.9635 18.1864 34.6889L17.3768 34.4616C17.3058 34.651 17.2051 34.8097 17.0749 34.9375C16.9447 35.063 16.7897 35.1577 16.6097 35.2216C16.4322 35.2831 16.2333 35.3139 16.0131 35.3139C15.6746 35.3139 15.3775 35.2405 15.1218 35.0937C14.8661 34.9446 14.6661 34.728 14.5217 34.4439C14.3929 34.1841 14.3225 33.8728 14.3104 33.5099H18.2717V33.1548C18.2717 32.6458 18.2042 32.2173 18.0692 31.8693C17.9343 31.5213 17.7532 31.2419 17.5259 31.0312C17.2987 30.8182 17.0465 30.6643 16.7695 30.5696C16.4925 30.4749 16.212 30.4275 15.9279 30.4275C15.4355 30.4275 15.0046 30.5483 14.6353 30.7898C14.2683 31.0289 13.9819 31.3627 13.7759 31.7912C13.5723 32.2173 13.4705 32.7097 13.4705 33.2685C13.4705 33.8272 13.5723 34.3172 13.7759 34.7386C13.9819 35.1577 14.2743 35.4844 14.6531 35.7187ZM14.3126 32.7855C14.3285 32.5325 14.3923 32.2934 14.5039 32.0682C14.6341 31.8054 14.82 31.5923 15.0614 31.429C15.3053 31.2632 15.5941 31.1804 15.9279 31.1804C16.2309 31.1804 16.4937 31.2502 16.7163 31.3899C16.9412 31.5296 17.114 31.7202 17.2347 31.9616C17.3578 32.2031 17.4194 32.4777 17.4194 32.7855H14.3126Z" fill="#CFD1DE"/>
<path d="M21.9187 31.2088V30.4986H20.7539V29.1918H19.9158V30.4986H19.092V31.2088H19.9158V34.6179C19.9158 34.9351 19.9892 35.1979 20.136 35.4062C20.2852 35.6146 20.4722 35.7696 20.6971 35.8714C20.9244 35.9732 21.1564 36.0241 21.3931 36.0241C21.5494 36.0241 21.6784 36.0123 21.7802 35.9886C21.882 35.9673 21.9613 35.946 22.0181 35.9247L21.8477 35.1719L21.7056 35.2003C21.6464 35.2097 21.5707 35.2145 21.4783 35.2145C21.3552 35.2145 21.238 35.1955 21.1268 35.1577C21.0179 35.1174 20.9279 35.0393 20.8569 34.9233C20.7882 34.8049 20.7539 34.6274 20.7539 34.3906V31.2088H21.9187Z" fill="#CFD1DE"/>
<path fill-rule="evenodd" clip-rule="evenodd" d="M24.0476 35.7187C24.4287 35.9507 24.8821 36.0668 25.4077 36.0668C25.777 36.0668 26.1096 36.0099 26.4055 35.8963C26.7015 35.7803 26.95 35.6193 27.1513 35.4133C27.3525 35.205 27.4957 34.9635 27.581 34.6889L26.7713 34.4616C26.7003 34.651 26.5997 34.8097 26.4695 34.9375C26.3393 35.063 26.1842 35.1577 26.0043 35.2216C25.8267 35.2831 25.6278 35.3139 25.4077 35.3139C25.0691 35.3139 24.772 35.2405 24.5163 35.0937C24.2607 34.9446 24.0606 34.728 23.9162 34.4439C23.7874 34.1841 23.717 33.8728 23.705 33.5099H27.6662V33.1548C27.6662 32.6458 27.5987 32.2173 27.4638 31.8693C27.3288 31.5213 27.1477 31.2419 26.9205 31.0312C26.6932 30.8182 26.4411 30.6643 26.1641 30.5696C25.8871 30.4749 25.6065 30.4275 25.3224 30.4275C24.83 30.4275 24.3991 30.5483 24.0298 30.7898C23.6629 31.0289 23.3764 31.3627 23.1705 31.7912C22.9669 32.2173 22.8651 32.7097 22.8651 33.2685C22.8651 33.8272 22.9669 34.3172 23.1705 34.7386C23.3764 35.1577 23.6688 35.4844 24.0476 35.7187ZM23.7071 32.7855C23.7231 32.5325 23.7869 32.2934 23.8984 32.0682C24.0286 31.8054 24.2145 31.5923 24.456 31.429C24.6998 31.2632 24.9886 31.1804 25.3224 31.1804C25.6255 31.1804 25.8883 31.2502 26.1108 31.3899C26.3357 31.5296 26.5085 31.7202 26.6293 31.9616C26.7524 32.2031 26.8139 32.4777 26.8139 32.7855H23.7071Z" fill="#CFD1DE"/>
<path d="M28.9411 30.4986V35.9531H29.7791V32.5014C29.7791 32.2552 29.8383 32.0362 29.9567 31.8444C30.0774 31.6503 30.2408 31.4988 30.4467 31.3899C30.6551 31.2786 30.8918 31.223 31.157 31.223C31.2682 31.223 31.3736 31.2313 31.473 31.2479C31.5748 31.2621 31.6399 31.2727 31.6683 31.2798V30.4275C31.621 30.4228 31.5511 30.4193 31.4588 30.4169C31.3665 30.4145 31.2895 30.4133 31.228 30.4133C30.9013 30.4133 30.6077 30.4974 30.3473 30.6655C30.0869 30.8336 29.907 31.0525 29.8075 31.3224H29.7507V30.4986H28.9411Z" fill="#CFD1DE"/>
<path fill-rule="evenodd" clip-rule="evenodd" d="M33.3258 35.8856C33.6075 36.0159 33.9212 36.081 34.2669 36.081C34.5841 36.081 34.8528 36.0336 35.073 35.9389C35.2931 35.8442 35.4695 35.7294 35.6021 35.5945C35.7347 35.4595 35.8294 35.3329 35.8862 35.2145H35.9288V35.9531H36.7669V32.3594C36.7669 31.9261 36.6958 31.5805 36.5538 31.3224C36.4118 31.0644 36.233 30.8714 36.0176 30.7436C35.8045 30.6158 35.5832 30.5317 35.3535 30.4915C35.1262 30.4489 34.925 30.4275 34.7498 30.4275C34.4752 30.4275 34.1958 30.4654 33.9118 30.5412C33.63 30.6146 33.3696 30.7448 33.1305 30.9318C32.8938 31.1165 32.7044 31.3745 32.5623 31.706L33.3578 31.99C33.4501 31.7912 33.6099 31.6042 33.8372 31.429C34.0645 31.2538 34.3781 31.1662 34.7782 31.1662C35.1641 31.1662 35.4518 31.2632 35.6412 31.4574C35.8329 31.6515 35.9288 31.9238 35.9288 32.2741V32.3025C35.9288 32.4375 35.8803 32.5322 35.7832 32.5866C35.6885 32.6411 35.537 32.6802 35.3287 32.7038C35.1227 32.7251 34.854 32.7571 34.5226 32.7997C34.2692 32.8328 34.0171 32.8778 33.7662 32.9347C33.5176 32.9891 33.2903 33.072 33.0843 33.1832C32.8784 33.2945 32.7138 33.4484 32.5907 33.6449C32.4676 33.839 32.4061 34.0923 32.4061 34.4048C32.4061 34.7599 32.4889 35.063 32.6547 35.3139C32.8204 35.5625 33.0441 35.7531 33.3258 35.8856ZM35.2328 35.1328C35.0055 35.263 34.7262 35.3281 34.3947 35.3281C34.0609 35.3281 33.7851 35.2547 33.5673 35.1079C33.3519 34.9588 33.2441 34.7386 33.2441 34.4474C33.2441 34.2344 33.301 34.0663 33.4146 33.9432C33.5306 33.8177 33.6821 33.7242 33.8691 33.6626C34.0585 33.5987 34.2621 33.5525 34.4799 33.5241C34.5699 33.5123 34.6871 33.4981 34.8315 33.4815C34.9783 33.4626 35.1286 33.4413 35.2825 33.4176C35.4387 33.3916 35.5761 33.362 35.6944 33.3288C35.8152 33.2933 35.8933 33.2543 35.9288 33.2116V33.9787C35.9288 34.206 35.8696 34.4226 35.7512 34.6285C35.6352 34.8345 35.4624 35.0026 35.2328 35.1328Z" fill="#CFD1DE"/>
</svg>
