<svg width="38" height="36" viewBox="0 0 38 36" fill="none" xmlns="http://www.w3.org/2000/svg">
<path fill-rule="evenodd" clip-rule="evenodd" d="M10.7272 0.0351562C8.49597 0.0351562 6.6872 1.84392 6.6872 4.07516V18.2412C6.6872 20.4724 8.49597 22.2812 10.7272 22.2812H26.8506C29.0818 22.2812 30.8906 20.4724 30.8906 18.2412V8.02585C30.8906 5.79462 29.0818 3.98585 26.8506 3.98585H10.2012C9.64357 3.98585 9.1915 3.53378 9.1915 2.97611C9.1915 2.91056 9.18525 2.84646 9.17332 2.78439C9.54386 2.33882 10.1024 2.05516 10.7272 2.05516H27.8845C28.4423 2.05516 28.8945 1.60296 28.8945 1.04516C28.8945 0.487349 28.4423 0.0351562 27.8845 0.0351562H10.7272ZM8.7072 18.2412V5.61247C9.14809 5.86286 9.65796 6.00585 10.2012 6.00585H26.8506C27.9662 6.00585 28.8706 6.91024 28.8706 8.02585V18.2412C28.8706 19.3568 27.9662 20.2612 26.8506 20.2612H10.7272C9.61158 20.2612 8.7072 19.3568 8.7072 18.2412Z" fill="#CFD1DE"/>
<path fill-rule="evenodd" clip-rule="evenodd" d="M0.572998 27.7275V35.0002H3.20084C3.77376 35.0002 4.23895 34.915 4.59644 34.7446C4.95392 34.5741 5.21552 34.3433 5.38124 34.0521C5.54696 33.7609 5.62982 33.433 5.62982 33.0684C5.62982 32.6849 5.55406 32.3606 5.40254 32.0954C5.25103 31.8303 5.06282 31.6267 4.83791 31.4846C4.61301 31.3426 4.38929 31.2644 4.16675 31.2502V31.1792C4.37508 31.1224 4.56803 31.0348 4.74558 30.9164C4.92551 30.7981 5.06992 30.6371 5.17882 30.4335C5.29009 30.2299 5.34573 29.9718 5.34573 29.6593C5.34573 29.3042 5.26523 28.9811 5.10425 28.6899C4.94326 28.3963 4.69824 28.1631 4.36916 27.9903C4.04009 27.8151 3.62224 27.7275 3.11561 27.7275H0.572998ZM3.20084 34.219H1.45368V31.6906H3.24345C3.56069 31.6906 3.83531 31.7545 4.06732 31.8823C4.29932 32.0078 4.47806 32.1759 4.60354 32.3866C4.72901 32.5949 4.79175 32.8222 4.79175 33.0684C4.79175 33.388 4.66983 33.6603 4.42598 33.8852C4.1845 34.1077 3.77612 34.219 3.20084 34.219ZM3.0872 30.9235H1.45368V28.5088H3.11561C3.59857 28.5088 3.95131 28.6212 4.17385 28.8461C4.39639 29.0687 4.50766 29.3397 4.50766 29.6593C4.50766 29.915 4.44374 30.1375 4.3159 30.3269C4.19042 30.5163 4.01997 30.6631 3.80453 30.7673C3.59146 30.8714 3.35235 30.9235 3.0872 30.9235Z" fill="#CFD1DE"/>
<path d="M6.96327 29.5457V35.0002H7.80134V29.5457H6.96327Z" fill="#CFD1DE"/>
<path d="M6.96682 28.4697C7.08519 28.581 7.22605 28.6366 7.3894 28.6366C7.55276 28.6366 7.69243 28.581 7.80844 28.4697C7.92681 28.3584 7.986 28.2247 7.986 28.0684C7.986 27.9122 7.92681 27.7784 7.80844 27.6671C7.69243 27.5559 7.55276 27.5002 7.3894 27.5002C7.22605 27.5002 7.08519 27.5559 6.96682 27.6671C6.85082 27.7784 6.79281 27.9122 6.79281 28.0684C6.79281 28.2247 6.85082 28.3584 6.96682 28.4697Z" fill="#CFD1DE"/>
<path d="M10.1744 35.0002V27.7275H9.33631V35.0002H10.1744Z" fill="#CFD1DE"/>
<path d="M12.5474 35.0002V27.7275H11.7094V35.0002H12.5474Z" fill="#CFD1DE"/>
<path fill-rule="evenodd" clip-rule="evenodd" d="M15.0093 34.7659C15.3904 34.9979 15.8438 35.1139 16.3693 35.1139C16.7387 35.1139 17.0713 35.0571 17.3672 34.9434C17.6631 34.8274 17.9117 34.6664 18.1129 34.4605C18.3142 34.2521 18.4574 34.0107 18.5426 33.736L17.733 33.5088C17.662 33.6982 17.5613 33.8568 17.4311 33.9846C17.3009 34.1101 17.1459 34.2048 16.9659 34.2687C16.7884 34.3303 16.5895 34.361 16.3693 34.361C16.0308 34.361 15.7337 34.2876 15.478 34.1409C15.2223 33.9917 15.0223 33.7751 14.8779 33.491C14.7491 33.2313 14.6787 32.9199 14.6666 32.5571H18.6279V32.2019C18.6279 31.6929 18.5604 31.2644 18.4254 30.9164C18.2905 30.5684 18.1094 30.2891 17.8821 30.0784C17.6549 29.8653 17.4027 29.7114 17.1257 29.6167C16.8487 29.522 16.5682 29.4747 16.2841 29.4747C15.7917 29.4747 15.3608 29.5954 14.9915 29.8369C14.6245 30.076 14.3381 30.4098 14.1321 30.8383C13.9285 31.2644 13.8267 31.7569 13.8267 32.3156C13.8267 32.8743 13.9285 33.3643 14.1321 33.7857C14.3381 34.2048 14.6305 34.5315 15.0093 34.7659ZM14.6688 31.8326C14.6847 31.5796 14.7485 31.3405 14.8601 31.1153C14.9903 30.8525 15.1762 30.6394 15.4176 30.4761C15.6615 30.3104 15.9503 30.2275 16.2841 30.2275C16.5871 30.2275 16.8499 30.2973 17.0725 30.437C17.2974 30.5767 17.4702 30.7673 17.5909 31.0088C17.714 31.2502 17.7756 31.5249 17.7756 31.8326H14.6688Z" fill="#CFD1DE"/>
<path d="M22.2749 30.2559V29.5457H21.1101V28.2389H20.272V29.5457H19.4482V30.2559H20.272V33.665C20.272 33.9822 20.3454 34.245 20.4922 34.4534C20.6414 34.6617 20.8284 34.8168 21.0533 34.9186C21.2806 35.0204 21.5126 35.0713 21.7493 35.0713C21.9056 35.0713 22.0346 35.0594 22.1364 35.0357C22.2382 35.0144 22.3175 34.9931 22.3743 34.9718L22.2039 34.219L22.0618 34.2474C22.0026 34.2569 21.9269 34.2616 21.8345 34.2616C21.7114 34.2616 21.5942 34.2427 21.483 34.2048C21.3741 34.1645 21.2841 34.0864 21.2131 33.9704C21.1444 33.852 21.1101 33.6745 21.1101 33.4377V30.2559H22.2749Z" fill="#CFD1DE"/>
<path fill-rule="evenodd" clip-rule="evenodd" d="M24.4038 34.7659C24.7849 34.9979 25.2383 35.1139 25.7639 35.1139C26.1332 35.1139 26.4658 35.0571 26.7617 34.9434C27.0577 34.8274 27.3062 34.6664 27.5075 34.4605C27.7087 34.2521 27.8519 34.0107 27.9372 33.736L27.1275 33.5088C27.0565 33.6982 26.9559 33.8568 26.8257 33.9846C26.6955 34.1101 26.5404 34.2048 26.3605 34.2687C26.1829 34.3303 25.984 34.361 25.7639 34.361C25.4253 34.361 25.1282 34.2876 24.8725 34.1409C24.6169 33.9917 24.4168 33.7751 24.2724 33.491C24.1436 33.2313 24.0732 32.9199 24.0612 32.5571H28.0224V32.2019C28.0224 31.6929 27.9549 31.2644 27.82 30.9164C27.685 30.5684 27.5039 30.2891 27.2767 30.0784C27.0494 29.8653 26.7973 29.7114 26.5203 29.6167C26.2433 29.522 25.9627 29.4747 25.6786 29.4747C25.1862 29.4747 24.7553 29.5954 24.386 29.8369C24.0191 30.076 23.7326 30.4098 23.5267 30.8383C23.3231 31.2644 23.2213 31.7569 23.2213 32.3156C23.2213 32.8743 23.3231 33.3643 23.5267 33.7857C23.7326 34.2048 24.025 34.5315 24.4038 34.7659ZM24.0633 31.8326C24.0793 31.5796 24.1431 31.3405 24.2546 31.1153C24.3848 30.8525 24.5707 30.6394 24.8122 30.4761C25.056 30.3104 25.3448 30.2275 25.6786 30.2275C25.9817 30.2275 26.2445 30.2973 26.467 30.437C26.6919 30.5767 26.8647 30.7673 26.9855 31.0088C27.1086 31.2502 27.1701 31.5249 27.1701 31.8326H24.0633Z" fill="#CFD1DE"/>
<path d="M29.2973 29.5457V35.0002H30.1353V31.5485C30.1353 31.3023 30.1945 31.0833 30.3129 30.8916C30.4336 30.6974 30.597 30.5459 30.8029 30.437C31.0113 30.3258 31.248 30.2701 31.5132 30.2701C31.6244 30.2701 31.7298 30.2784 31.8292 30.295C31.931 30.3092 31.9961 30.3198 32.0245 30.3269V29.4747C31.9772 29.4699 31.9073 29.4664 31.815 29.464C31.7227 29.4616 31.6457 29.4605 31.5842 29.4605C31.2575 29.4605 30.9639 29.5445 30.7035 29.7126C30.4431 29.8807 30.2632 30.0997 30.1637 30.3696H30.1069V29.5457H29.2973Z" fill="#CFD1DE"/>
<path fill-rule="evenodd" clip-rule="evenodd" d="M33.682 34.9328C33.9637 35.063 34.2774 35.1281 34.6231 35.1281C34.9403 35.1281 35.209 35.0807 35.4292 34.986C35.6493 34.8913 35.8257 34.7765 35.9583 34.6416C36.0909 34.5066 36.1856 34.38 36.2424 34.2616H36.285V35.0002H37.1231V31.4065C37.1231 30.9732 37.052 30.6276 36.91 30.3696C36.768 30.1115 36.5892 29.9186 36.3738 29.7907C36.1607 29.6629 35.9394 29.5788 35.7097 29.5386C35.4824 29.496 35.2812 29.4747 35.106 29.4747C34.8314 29.4747 34.552 29.5125 34.268 29.5883C33.9862 29.6617 33.7258 29.7919 33.4867 29.9789C33.25 30.1636 33.0606 30.4216 32.9185 30.7531L33.714 31.0372C33.8063 30.8383 33.9661 30.6513 34.1934 30.4761C34.4207 30.3009 34.7343 30.2133 35.1344 30.2133C35.5203 30.2133 35.808 30.3104 35.9974 30.5045C36.1891 30.6986 36.285 30.9709 36.285 31.3213V31.3497C36.285 31.4846 36.2365 31.5793 36.1394 31.6338C36.0447 31.6882 35.8932 31.7273 35.6849 31.7509C35.4789 31.7723 35.2102 31.8042 34.8788 31.8468C34.6254 31.88 34.3733 31.9249 34.1224 31.9818C33.8738 32.0362 33.6465 32.1191 33.4405 32.2303C33.2346 32.3416 33.07 32.4955 32.9469 32.692C32.8238 32.8861 32.7623 33.1394 32.7623 33.4519C32.7623 33.8071 32.8451 34.1101 33.0109 34.361C33.1766 34.6096 33.4003 34.8002 33.682 34.9328ZM35.589 34.1799C35.3617 34.3101 35.0824 34.3752 34.7509 34.3752C34.4171 34.3752 34.1413 34.3018 33.9235 34.1551C33.7081 34.0059 33.6003 33.7857 33.6003 33.4946C33.6003 33.2815 33.6572 33.1134 33.7708 32.9903C33.8868 32.8648 34.0383 32.7713 34.2253 32.7098C34.4147 32.6458 34.6183 32.5997 34.8361 32.5713C34.9261 32.5594 35.0433 32.5452 35.1877 32.5286C35.3345 32.5097 35.4848 32.4884 35.6387 32.4647C35.7949 32.4387 35.9323 32.4091 36.0506 32.3759C36.1714 32.3404 36.2495 32.3014 36.285 32.2588V33.0258C36.285 33.2531 36.2258 33.4697 36.1074 33.6757C35.9914 33.8816 35.8186 34.0497 35.589 34.1799Z" fill="#CFD1DE"/>
</svg>
