<svg width="47" height="40" viewBox="0 0 47 40" fill="none" xmlns="http://www.w3.org/2000/svg">
<path fill-rule="evenodd" clip-rule="evenodd" d="M29.0882 2.52261H28.9155C28.499 1.34424 27.3752 0.5 26.0542 0.5H19.9864C18.6654 0.5 17.5416 1.34424 17.1252 2.52261H16.9525C14.7184 2.52261 12.9073 4.3337 12.9073 6.56781V20.7261C12.9073 22.9602 14.7184 24.7713 16.9525 24.7713H29.0882C31.3223 24.7713 33.1334 22.9602 33.1334 20.7261V6.56782C33.1334 4.33371 31.3223 2.52261 29.0882 2.52261ZM14.9299 6.56781C14.9299 5.45076 15.8355 4.54521 16.9525 4.54521C16.9525 6.22079 18.3108 7.57912 19.9864 7.57912H26.0542C27.7298 7.57912 29.0882 6.22079 29.0882 4.54521C30.2052 4.54521 31.1108 5.45076 31.1108 6.56782V20.7261C31.1108 21.8431 30.2052 22.7487 29.0882 22.7487H16.9525C15.8355 22.7487 14.9299 21.8431 14.9299 20.7261V6.56781ZM19.9864 2.52261C19.4279 2.52261 18.9751 2.97538 18.9751 3.53391V4.54521C18.9751 5.10374 19.4279 5.55651 19.9864 5.55651H26.0542C26.6128 5.55651 27.0655 5.10374 27.0655 4.54521V3.53391C27.0655 2.97538 26.6128 2.52261 26.0542 2.52261H19.9864Z" fill="#CFD1DE"/>
<path fill-rule="evenodd" clip-rule="evenodd" d="M0.292725 30.2273V37.5H1.17341V34.8438H2.76432C3.33013 34.8438 3.79415 34.7408 4.15636 34.5348C4.51858 34.3265 4.7861 34.0471 4.95892 33.6967C5.13411 33.3464 5.2217 32.9569 5.2217 32.5284C5.2217 32.0999 5.13411 31.7116 4.95892 31.3636C4.78373 31.0156 4.51384 30.7398 4.14926 30.5362C3.78704 30.3303 3.32066 30.2273 2.75011 30.2273H0.292725ZM1.17341 34.0625H2.73591C3.12653 34.0625 3.44022 33.995 3.67696 33.8601C3.9137 33.7251 4.08534 33.5429 4.19187 33.3132C4.30077 33.0812 4.35522 32.8196 4.35522 32.5284C4.35522 32.2372 4.30077 31.9768 4.19187 31.7472C4.08534 31.5175 3.91252 31.3376 3.67341 31.2074C3.4343 31.0748 3.11706 31.0085 2.7217 31.0085H1.17341V34.0625Z" fill="#CFD1DE"/>
<path d="M6.52674 32.0455V37.5H7.36481V34.0483C7.36481 33.8021 7.424 33.5831 7.54237 33.3913C7.66311 33.1972 7.82646 33.0457 8.03243 32.9368C8.24076 32.8255 8.4775 32.7699 8.74265 32.7699C8.85392 32.7699 8.95927 32.7782 9.0587 32.7947C9.1605 32.8089 9.22561 32.8196 9.25402 32.8267V31.9744C9.20667 31.9697 9.13683 31.9661 9.0445 31.9638C8.95217 31.9614 8.87523 31.9602 8.81368 31.9602C8.48697 31.9602 8.19341 32.0443 7.93299 32.2124C7.67258 32.3804 7.49265 32.5994 7.39322 32.8693H7.3364V32.0455H6.52674Z" fill="#CFD1DE"/>
<path fill-rule="evenodd" clip-rule="evenodd" d="M11.0012 37.2621C11.3729 37.4964 11.8049 37.6136 12.2973 37.6136C12.7898 37.6136 13.2206 37.4964 13.59 37.2621C13.9616 37.0277 14.2505 36.6998 14.4564 36.2784C14.6648 35.857 14.7689 35.3646 14.7689 34.8011C14.7689 34.233 14.6648 33.737 14.4564 33.3132C14.2505 32.8894 13.9616 32.5604 13.59 32.326C13.2206 32.0916 12.7898 31.9744 12.2973 31.9744C11.8049 31.9744 11.3729 32.0916 11.0012 32.326C10.6319 32.5604 10.343 32.8894 10.1347 33.3132C9.92873 33.737 9.82575 34.233 9.82575 34.8011C9.82575 35.3646 9.92873 35.857 10.1347 36.2784C10.343 36.6998 10.6319 37.0277 11.0012 37.2621ZM13.2206 36.5732C12.9792 36.7649 12.6714 36.8608 12.2973 36.8608C11.9233 36.8608 11.6155 36.7649 11.374 36.5732C11.1326 36.3814 10.9538 36.1293 10.8378 35.8168C10.7218 35.5043 10.6638 35.1657 10.6638 34.8011C10.6638 34.4366 10.7218 34.0968 10.8378 33.782C10.9538 33.4671 11.1326 33.2126 11.374 33.0185C11.6155 32.8243 11.9233 32.7273 12.2973 32.7273C12.6714 32.7273 12.9792 32.8243 13.2206 33.0185C13.4621 33.2126 13.6409 33.4671 13.7569 33.782C13.8729 34.0968 13.9309 34.4366 13.9309 34.8011C13.9309 35.1657 13.8729 35.5043 13.7569 35.8168C13.6409 36.1293 13.4621 36.3814 13.2206 36.5732Z" fill="#CFD1DE"/>
<path d="M16.0127 39.5099C16.124 39.5336 16.2506 39.5455 16.3927 39.5455C16.646 39.5455 16.8733 39.5005 17.0745 39.4105C17.2781 39.3205 17.4568 39.1821 17.6107 38.995C17.7646 38.8104 17.8936 38.5772 17.9978 38.2955L20.3131 32.0455H19.4041L17.8984 36.392H17.8416L16.3359 32.0455H15.4268L17.4438 37.5284L17.2876 37.9545C17.1858 38.2315 17.0733 38.4316 16.9502 38.5547C16.8295 38.6802 16.691 38.75 16.5347 38.7642C16.3785 38.7784 16.1986 38.7595 15.995 38.7074L15.7819 39.446C15.8245 39.4673 15.9014 39.4886 16.0127 39.5099Z" fill="#CFD1DE"/>
<path fill-rule="evenodd" clip-rule="evenodd" d="M22.1509 37.2656C22.532 37.4976 22.9854 37.6136 23.5109 37.6136C23.8803 37.6136 24.2129 37.5568 24.5088 37.4432C24.8047 37.3272 25.0533 37.1662 25.2545 36.9602C25.4558 36.7519 25.599 36.5104 25.6842 36.2358L24.8746 36.0085C24.8036 36.1979 24.7029 36.3565 24.5727 36.4844C24.4425 36.6098 24.2875 36.7045 24.1075 36.7685C23.93 36.83 23.7311 36.8608 23.5109 36.8608C23.1724 36.8608 22.8753 36.7874 22.6196 36.6406C22.3639 36.4915 22.1639 36.2749 22.0195 35.9908C21.8907 35.731 21.8203 35.4197 21.8083 35.0568H25.7695V34.7017C25.7695 34.1927 25.702 33.7642 25.5671 33.4162C25.4321 33.0682 25.251 32.7888 25.0237 32.5781C24.7965 32.3651 24.5443 32.2112 24.2673 32.1165C23.9903 32.0218 23.7098 31.9744 23.4257 31.9744C22.9333 31.9744 22.5024 32.0952 22.1331 32.3366C21.7661 32.5758 21.4797 32.9096 21.2737 33.3381C21.0701 33.7642 20.9683 34.2566 20.9683 34.8153C20.9683 35.3741 21.0701 35.8641 21.2737 36.2855C21.4797 36.7045 21.7721 37.0312 22.1509 37.2656ZM21.8104 34.3324C21.8264 34.0794 21.8901 33.8403 22.0017 33.6151C22.1319 33.3523 22.3178 33.1392 22.5592 32.9759C22.8031 32.8101 23.0919 32.7273 23.4257 32.7273C23.7287 32.7273 23.9915 32.7971 24.2141 32.9368C24.439 33.0765 24.6118 33.267 24.7325 33.5085C24.8556 33.75 24.9172 34.0246 24.9172 34.3324H21.8104Z" fill="#CFD1DE"/>
<path d="M27.9392 37.2514C28.3085 37.4929 28.7489 37.6136 29.2602 37.6136C29.6627 37.6136 30.0154 37.5391 30.3185 37.3899C30.6239 37.2384 30.8689 37.0348 31.0536 36.7791C31.2406 36.5211 31.3578 36.2311 31.4051 35.9091H30.567C30.515 36.108 30.4274 36.2784 30.3043 36.4205C30.1812 36.5625 30.0308 36.6714 29.8533 36.7472C29.6757 36.8229 29.478 36.8608 29.2602 36.8608C28.9288 36.8608 28.64 36.7744 28.3938 36.6016C28.1499 36.4287 27.9605 36.1861 27.8256 35.8736C27.693 35.5611 27.6267 35.1941 27.6267 34.7727C27.6267 34.3608 27.6942 34.0021 27.8291 33.6967C27.9664 33.389 28.157 33.151 28.4009 32.983C28.6471 32.8125 28.9335 32.7273 29.2602 32.7273C29.6295 32.7273 29.9231 32.8243 30.1409 33.0185C30.3611 33.2102 30.5031 33.4304 30.567 33.679H31.4051C31.3578 33.3381 31.2358 33.0398 31.0394 32.7841C30.8429 32.5284 30.5907 32.3295 30.283 32.1875C29.9752 32.0455 29.6295 31.9744 29.246 31.9744C28.7536 31.9744 28.3227 32.0952 27.9534 32.3366C27.5865 32.5758 27.3 32.9084 27.094 33.3345C26.8904 33.7583 26.7886 34.2472 26.7886 34.8011C26.7886 35.3456 26.8881 35.8298 27.0869 36.2536C27.2858 36.6773 27.5699 37.0099 27.9392 37.2514Z" fill="#CFD1DE"/>
<path d="M35.0024 32.7557V32.0455H33.8376V30.7386H32.9996V32.0455H32.1757V32.7557H32.9996V36.1648C32.9996 36.482 33.073 36.7448 33.2197 36.9531C33.3689 37.1615 33.5559 37.3165 33.7808 37.4183C34.0081 37.5201 34.2401 37.571 34.4769 37.571C34.6331 37.571 34.7621 37.5592 34.8639 37.5355C34.9657 37.5142 35.045 37.4929 35.1019 37.4716L34.9314 36.7188L34.7894 36.7472C34.7302 36.7566 34.6544 36.7614 34.5621 36.7614C34.439 36.7614 34.3218 36.7424 34.2105 36.7045C34.1016 36.6643 34.0117 36.5862 33.9406 36.4702C33.872 36.3518 33.8376 36.1742 33.8376 35.9375V32.7557H35.0024Z" fill="#CFD1DE"/>
<path fill-rule="evenodd" clip-rule="evenodd" d="M37.1242 37.2621C37.4959 37.4964 37.928 37.6136 38.4204 37.6136C38.9128 37.6136 39.3437 37.4964 39.713 37.2621C40.0847 37.0277 40.3735 36.6998 40.5795 36.2784C40.7878 35.857 40.892 35.3646 40.892 34.8011C40.892 34.233 40.7878 33.737 40.5795 33.3132C40.3735 32.8894 40.0847 32.5604 39.713 32.326C39.3437 32.0916 38.9128 31.9744 38.4204 31.9744C37.928 31.9744 37.4959 32.0916 37.1242 32.326C36.7549 32.5604 36.4661 32.8894 36.2577 33.3132C36.0518 33.737 35.9488 34.233 35.9488 34.8011C35.9488 35.3646 36.0518 35.857 36.2577 36.2784C36.4661 36.6998 36.7549 37.0277 37.1242 37.2621ZM39.3437 36.5732C39.1022 36.7649 38.7944 36.8608 38.4204 36.8608C38.0463 36.8608 37.7386 36.7649 37.4971 36.5732C37.2556 36.3814 37.0769 36.1293 36.9609 35.8168C36.8449 35.5043 36.7869 35.1657 36.7869 34.8011C36.7869 34.4366 36.8449 34.0968 36.9609 33.782C37.0769 33.4671 37.2556 33.2126 37.4971 33.0185C37.7386 32.8243 38.0463 32.7273 38.4204 32.7273C38.7944 32.7273 39.1022 32.8243 39.3437 33.0185C39.5852 33.2126 39.7639 33.4671 39.8799 33.782C39.9959 34.0968 40.0539 34.4366 40.0539 34.8011C40.0539 35.1657 39.9959 35.5043 39.8799 35.8168C39.7639 36.1293 39.5852 36.3814 39.3437 36.5732Z" fill="#CFD1DE"/>
<path d="M45.2821 33.4801L46.0349 33.267C45.9047 32.8788 45.6845 32.5663 45.3744 32.3295C45.0666 32.0928 44.6429 31.9744 44.1031 31.9744C43.7196 31.9744 43.3763 32.0419 43.0733 32.1768C42.7726 32.3118 42.5347 32.4976 42.3595 32.7344C42.1867 32.9711 42.1003 33.2434 42.1003 33.5511C42.1003 33.9276 42.2163 34.2412 42.4483 34.4922C42.6826 34.7408 43.0496 34.9242 43.5491 35.0426L44.4582 35.2557C44.7328 35.3196 44.9364 35.4167 45.069 35.5469C45.2016 35.6747 45.2679 35.8333 45.2679 36.0227C45.2679 36.2571 45.1519 36.4583 44.9199 36.6264C44.6902 36.7921 44.3801 36.875 43.9895 36.875C43.6462 36.875 43.368 36.8016 43.1549 36.6548C42.9442 36.508 42.801 36.2879 42.7253 35.9943L41.9298 36.1932C42.0269 36.6572 42.2577 37.0099 42.6223 37.2514C42.9869 37.4929 43.4473 37.6136 44.0037 37.6136C44.4274 37.6136 44.7991 37.5426 45.1187 37.4006C45.4383 37.2585 45.6869 37.0644 45.8645 36.8182C46.0444 36.572 46.1343 36.2926 46.1343 35.9801C46.1343 35.599 46.0148 35.2876 45.7757 35.0462C45.5366 34.8023 45.1732 34.6212 44.6855 34.5028L43.8758 34.304C43.5539 34.2235 43.3171 34.1229 43.1656 34.0021C43.0141 33.8814 42.9383 33.7169 42.9383 33.5085C42.9383 33.2741 43.0484 33.0812 43.2686 32.9297C43.4911 32.7758 43.7693 32.6989 44.1031 32.6989C44.3469 32.6989 44.547 32.7379 44.7032 32.8161C44.8595 32.8942 44.9826 32.9936 45.0726 33.1143C45.1649 33.2327 45.2347 33.3546 45.2821 33.4801Z" fill="#CFD1DE"/>
</svg>
