<svg width="47" height="40" viewBox="0 0 47 40" fill="none" xmlns="http://www.w3.org/2000/svg">
<path fill-rule="evenodd" clip-rule="evenodd" d="M28.9624 2.02261H28.7898C28.3733 0.844244 27.2495 0 25.9285 0H19.8607C18.5397 0 17.4159 0.844243 16.9994 2.02261H16.8268C14.5927 2.02261 12.7816 3.8337 12.7816 6.06781V20.2261C12.7816 22.4602 14.5927 24.2713 16.8268 24.2713H28.9624C31.1965 24.2713 33.0076 22.4602 33.0076 20.2261V6.06782C33.0076 3.83371 31.1965 2.02261 28.9624 2.02261ZM14.8042 6.06781C14.8042 4.95076 15.7097 4.04521 16.8268 4.04521C16.8268 5.72079 18.1851 7.07912 19.8607 7.07912H25.9285C27.6041 7.07912 28.9624 5.72079 28.9624 4.04521C30.0795 4.04521 30.985 4.95076 30.985 6.06782V20.2261C30.985 21.3431 30.0795 22.2487 28.9624 22.2487H16.8268C15.7097 22.2487 14.8042 21.3431 14.8042 20.2261V6.06781ZM19.8607 2.02261C19.3022 2.02261 18.8494 2.47538 18.8494 3.03391V4.04521C18.8494 4.60374 19.3022 5.05651 19.8607 5.05651H25.9285C26.487 5.05651 26.9398 4.60374 26.9398 4.04521V3.03391C26.9398 2.47538 26.487 2.02261 25.9285 2.02261H19.8607Z" fill="#CFD1DE"/>
<path fill-rule="evenodd" clip-rule="evenodd" d="M0.166992 29.7273V37H1.04767V34.3438H2.63858C3.2044 34.3438 3.66841 34.2408 4.03063 34.0348C4.39284 33.8265 4.66036 33.5471 4.83319 33.1967C5.00837 32.8464 5.09597 32.4569 5.09597 32.0284C5.09597 31.5999 5.00837 31.2116 4.83319 30.8636C4.658 30.5156 4.38811 30.2398 4.02353 30.0362C3.66131 29.8303 3.19493 29.7273 2.62438 29.7273H0.166992ZM1.04767 33.5625H2.61017C3.0008 33.5625 3.31448 33.495 3.55123 33.3601C3.78797 33.2251 3.95961 33.0429 4.06614 32.8132C4.17504 32.5812 4.22949 32.3196 4.22949 32.0284C4.22949 31.7372 4.17504 31.4768 4.06614 31.2472C3.95961 31.0175 3.78678 30.8376 3.54767 30.7074C3.30856 30.5748 2.99133 30.5085 2.59597 30.5085H1.04767V33.5625Z" fill="#CFD1DE"/>
<path d="M6.40101 31.5455V37H7.23908V33.5483C7.23908 33.3021 7.29827 33.0831 7.41664 32.8913C7.53738 32.6972 7.70073 32.5457 7.90669 32.4368C8.11503 32.3255 8.35177 32.2699 8.61692 32.2699C8.72819 32.2699 8.83354 32.2782 8.93297 32.2947C9.03477 32.3089 9.09988 32.3196 9.12828 32.3267V31.4744C9.08094 31.4697 9.0111 31.4661 8.91877 31.4638C8.82644 31.4614 8.7495 31.4602 8.68794 31.4602C8.36124 31.4602 8.06768 31.5443 7.80726 31.7124C7.54685 31.8804 7.36692 32.0994 7.26749 32.3693H7.21067V31.5455H6.40101Z" fill="#CFD1DE"/>
<path fill-rule="evenodd" clip-rule="evenodd" d="M10.8754 36.7621C11.2471 36.9964 11.6792 37.1136 12.1716 37.1136C12.664 37.1136 13.0949 36.9964 13.4642 36.7621C13.8359 36.5277 14.1247 36.1998 14.3307 35.7784C14.539 35.357 14.6432 34.8646 14.6432 34.3011C14.6432 33.733 14.539 33.237 14.3307 32.8132C14.1247 32.3894 13.8359 32.0604 13.4642 31.826C13.0949 31.5916 12.664 31.4744 12.1716 31.4744C11.6792 31.4744 11.2471 31.5916 10.8754 31.826C10.5061 32.0604 10.2173 32.3894 10.009 32.8132C9.803 33.237 9.70002 33.733 9.70002 34.3011C9.70002 34.8646 9.803 35.357 10.009 35.7784C10.2173 36.1998 10.5061 36.5277 10.8754 36.7621ZM13.0949 36.0732C12.8534 36.2649 12.5457 36.3608 12.1716 36.3608C11.7976 36.3608 11.4898 36.2649 11.2483 36.0732C11.0068 35.8814 10.8281 35.6293 10.7121 35.3168C10.5961 35.0043 10.5381 34.6657 10.5381 34.3011C10.5381 33.9366 10.5961 33.5968 10.7121 33.282C10.8281 32.9671 11.0068 32.7126 11.2483 32.5185C11.4898 32.3243 11.7976 32.2273 12.1716 32.2273C12.5457 32.2273 12.8534 32.3243 13.0949 32.5185C13.3364 32.7126 13.5151 32.9671 13.6311 33.282C13.7471 33.5968 13.8051 33.9366 13.8051 34.3011C13.8051 34.6657 13.7471 35.0043 13.6311 35.3168C13.5151 35.6293 13.3364 35.8814 13.0949 36.0732Z" fill="#CFD1DE"/>
<path d="M15.887 39.0099C15.9983 39.0336 16.1249 39.0455 16.267 39.0455C16.5203 39.0455 16.7475 39.0005 16.9488 38.9105C17.1524 38.8205 17.3311 38.6821 17.485 38.495C17.6389 38.3104 17.7679 38.0772 17.8721 37.7955L20.1874 31.5455H19.2783L17.7726 35.892H17.7158L16.2101 31.5455H15.301L17.3181 37.0284L17.1618 37.4545C17.06 37.7315 16.9476 37.9316 16.8245 38.0547C16.7037 38.1802 16.5653 38.25 16.409 38.2642C16.2528 38.2784 16.0728 38.2595 15.8692 38.2074L15.6562 38.946C15.6988 38.9673 15.7757 38.9886 15.887 39.0099Z" fill="#CFD1DE"/>
<path fill-rule="evenodd" clip-rule="evenodd" d="M22.0251 36.7656C22.4063 36.9976 22.8596 37.1136 23.3852 37.1136C23.7545 37.1136 24.0872 37.0568 24.3831 36.9432C24.679 36.8272 24.9276 36.6662 25.1288 36.4602C25.33 36.2519 25.4733 36.0104 25.5585 35.7358L24.7488 35.5085C24.6778 35.6979 24.5772 35.8565 24.447 35.9844C24.3168 36.1098 24.1617 36.2045 23.9818 36.2685C23.8042 36.33 23.6054 36.3608 23.3852 36.3608C23.0467 36.3608 22.7496 36.2874 22.4939 36.1406C22.2382 35.9915 22.0381 35.7749 21.8937 35.4908C21.7649 35.231 21.6945 34.9197 21.6825 34.5568H25.6437V34.2017C25.6437 33.6927 25.5763 33.2642 25.4413 32.9162C25.3064 32.5682 25.1253 32.2888 24.898 32.0781C24.6707 31.8651 24.4186 31.7112 24.1416 31.6165C23.8646 31.5218 23.5841 31.4744 23.3 31.4744C22.8076 31.4744 22.3767 31.5952 22.0074 31.8366C21.6404 32.0758 21.354 32.4096 21.148 32.8381C20.9444 33.2642 20.8426 33.7566 20.8426 34.3153C20.8426 34.8741 20.9444 35.3641 21.148 35.7855C21.354 36.2045 21.6463 36.5312 22.0251 36.7656ZM21.6847 33.8324C21.7006 33.5794 21.7644 33.3403 21.876 33.1151C22.0062 32.8523 22.192 32.6392 22.4335 32.4759C22.6773 32.3101 22.9662 32.2273 23.3 32.2273C23.603 32.2273 23.8658 32.2971 24.0883 32.4368C24.3132 32.5765 24.4861 32.767 24.6068 33.0085C24.7299 33.25 24.7915 33.5246 24.7915 33.8324H21.6847Z" fill="#CFD1DE"/>
<path d="M27.8135 36.7514C28.1828 36.9929 28.6231 37.1136 29.1345 37.1136C29.537 37.1136 29.8897 37.0391 30.1927 36.8899C30.4981 36.7384 30.7432 36.5348 30.9278 36.2791C31.1148 36.0211 31.232 35.7311 31.2794 35.4091H30.4413C30.3892 35.608 30.3016 35.7784 30.1785 35.9205C30.0554 36.0625 29.9051 36.1714 29.7275 36.2472C29.55 36.3229 29.3523 36.3608 29.1345 36.3608C28.8031 36.3608 28.5142 36.2744 28.268 36.1016C28.0242 35.9287 27.8348 35.6861 27.6998 35.3736C27.5673 35.0611 27.501 34.6941 27.501 34.2727C27.501 33.8608 27.5684 33.5021 27.7034 33.1967C27.8407 32.889 28.0313 32.651 28.2751 32.483C28.5213 32.3125 28.8078 32.2273 29.1345 32.2273C29.5038 32.2273 29.7974 32.3243 30.0152 32.5185C30.2354 32.7102 30.3774 32.9304 30.4413 33.179H31.2794C31.232 32.8381 31.1101 32.5398 30.9136 32.2841C30.7171 32.0284 30.465 31.8295 30.1572 31.6875C29.8495 31.5455 29.5038 31.4744 29.1203 31.4744C28.6279 31.4744 28.197 31.5952 27.8277 31.8366C27.4607 32.0758 27.1743 32.4084 26.9683 32.8345C26.7647 33.2583 26.6629 33.7472 26.6629 34.3011C26.6629 34.8456 26.7623 35.3298 26.9612 35.7536C27.1601 36.1773 27.4442 36.5099 27.8135 36.7514Z" fill="#CFD1DE"/>
<path d="M34.8767 32.2557V31.5455H33.7119V30.2386H32.8738V31.5455H32.05V32.2557H32.8738V35.6648C32.8738 35.982 32.9472 36.2448 33.094 36.4531C33.2432 36.6615 33.4302 36.8165 33.6551 36.9183C33.8824 37.0201 34.1144 37.071 34.3511 37.071C34.5074 37.071 34.6364 37.0592 34.7382 37.0355C34.84 37.0142 34.9193 36.9929 34.9761 36.9716L34.8057 36.2188L34.6636 36.2472C34.6044 36.2566 34.5287 36.2614 34.4363 36.2614C34.3132 36.2614 34.1961 36.2424 34.0848 36.2045C33.9759 36.1643 33.8859 36.0862 33.8149 35.9702C33.7462 35.8518 33.7119 35.6742 33.7119 35.4375V32.2557H34.8767Z" fill="#CFD1DE"/>
<path fill-rule="evenodd" clip-rule="evenodd" d="M36.9985 36.7621C37.3702 36.9964 37.8022 37.1136 38.2947 37.1136C38.7871 37.1136 39.218 36.9964 39.5873 36.7621C39.959 36.5277 40.2478 36.1998 40.4537 35.7784C40.6621 35.357 40.7662 34.8646 40.7662 34.3011C40.7662 33.733 40.6621 33.237 40.4537 32.8132C40.2478 32.3894 39.959 32.0604 39.5873 31.826C39.218 31.5916 38.7871 31.4744 38.2947 31.4744C37.8022 31.4744 37.3702 31.5916 36.9985 31.826C36.6292 32.0604 36.3403 32.3894 36.132 32.8132C35.926 33.237 35.8231 33.733 35.8231 34.3011C35.8231 34.8646 35.926 35.357 36.132 35.7784C36.3403 36.1998 36.6292 36.5277 36.9985 36.7621ZM39.218 36.0732C38.9765 36.2649 38.6687 36.3608 38.2947 36.3608C37.9206 36.3608 37.6128 36.2649 37.3714 36.0732C37.1299 35.8814 36.9511 35.6293 36.8351 35.3168C36.7191 35.0043 36.6611 34.6657 36.6611 34.3011C36.6611 33.9366 36.7191 33.5968 36.8351 33.282C36.9511 32.9671 37.1299 32.7126 37.3714 32.5185C37.6128 32.3243 37.9206 32.2273 38.2947 32.2273C38.6687 32.2273 38.9765 32.3243 39.218 32.5185C39.4594 32.7126 39.6382 32.9671 39.7542 33.282C39.8702 33.5968 39.9282 33.9366 39.9282 34.3011C39.9282 34.6657 39.8702 35.0043 39.7542 35.3168C39.6382 35.6293 39.4594 35.8814 39.218 36.0732Z" fill="#CFD1DE"/>
<path d="M45.1563 32.9801L45.9092 32.767C45.779 32.3788 45.5588 32.0663 45.2487 31.8295C44.9409 31.5928 44.5171 31.4744 43.9774 31.4744C43.5938 31.4744 43.2506 31.5419 42.9475 31.6768C42.6469 31.8118 42.4089 31.9976 42.2338 32.2344C42.0609 32.4711 41.9745 32.7434 41.9745 33.0511C41.9745 33.4276 42.0905 33.7412 42.3225 33.9922C42.5569 34.2408 42.9239 34.4242 43.4234 34.5426L44.3325 34.7557C44.6071 34.8196 44.8107 34.9167 44.9433 35.0469C45.0758 35.1747 45.1421 35.3333 45.1421 35.5227C45.1421 35.7571 45.0261 35.9583 44.7941 36.1264C44.5645 36.2921 44.2544 36.375 43.8637 36.375C43.5205 36.375 43.2423 36.3016 43.0292 36.1548C42.8185 36.008 42.6753 35.7879 42.5995 35.4943L41.8041 35.6932C41.9011 36.1572 42.132 36.5099 42.4965 36.7514C42.8611 36.9929 43.3216 37.1136 43.8779 37.1136C44.3017 37.1136 44.6734 37.0426 44.993 36.9006C45.3126 36.7585 45.5612 36.5644 45.7387 36.3182C45.9187 36.072 46.0086 35.7926 46.0086 35.4801C46.0086 35.099 45.8891 34.7876 45.6499 34.5462C45.4108 34.3023 45.0474 34.1212 44.5597 34.0028L43.7501 33.804C43.4281 33.7235 43.1914 33.6229 43.0399 33.5021C42.8883 33.3814 42.8126 33.2169 42.8126 33.0085C42.8126 32.7741 42.9227 32.5812 43.1428 32.4297C43.3654 32.2758 43.6436 32.1989 43.9774 32.1989C44.2212 32.1989 44.4213 32.2379 44.5775 32.3161C44.7338 32.3942 44.8569 32.4936 44.9468 32.6143C45.0392 32.7327 45.109 32.8546 45.1563 32.9801Z" fill="#CFD1DE"/>
</svg>
