<svg width="46" height="40" viewBox="0 0 46 40" fill="none" xmlns="http://www.w3.org/2000/svg">
<path fill-rule="evenodd" clip-rule="evenodd" d="M28.9094 2.02261H28.7368C28.3203 0.844244 27.1965 0 25.8755 0H19.8077C18.4867 0 17.3629 0.844243 16.9464 2.02261H16.7738C14.5397 2.02261 12.7286 3.8337 12.7286 6.06781V20.2261C12.7286 22.4602 14.5397 24.2713 16.7738 24.2713H28.9094C31.1435 24.2713 32.9547 22.4602 32.9547 20.2261V6.06782C32.9547 3.83371 31.1435 2.02261 28.9094 2.02261ZM14.7512 6.06781C14.7512 4.95076 15.6567 4.04521 16.7738 4.04521C16.7738 5.72079 18.1321 7.07912 19.8077 7.07912H25.8755C27.5511 7.07912 28.9094 5.72079 28.9094 4.04521C30.0265 4.04521 30.932 4.95076 30.932 6.06782V20.2261C30.932 21.3431 30.0265 22.2487 28.9094 22.2487H16.7738C15.6568 22.2487 14.7512 21.3431 14.7512 20.2261V6.06781ZM19.8077 2.02261C19.2492 2.02261 18.7964 2.47538 18.7964 3.03391V4.04521C18.7964 4.60374 19.2492 5.05651 19.8077 5.05651H25.8755C26.4341 5.05651 26.8868 4.60374 26.8868 4.04521V3.03391C26.8868 2.47538 26.4341 2.02261 25.8755 2.02261H19.8077Z" fill="#CFD1DE"/>
<path fill-rule="evenodd" clip-rule="evenodd" d="M0.114014 29.7273V37H0.994696V34.3438H2.5856C3.15142 34.3438 3.61543 34.2408 3.97765 34.0348C4.33987 33.8265 4.60739 33.5471 4.78021 33.1967C4.9554 32.8464 5.04299 32.4569 5.04299 32.0284C5.04299 31.5999 4.9554 31.2116 4.78021 30.8636C4.60502 30.5156 4.33513 30.2398 3.97055 30.0362C3.60833 29.8303 3.14195 29.7273 2.5714 29.7273H0.114014ZM0.994696 33.5625H2.5572C2.94782 33.5625 3.2615 33.495 3.49825 33.3601C3.73499 33.2251 3.90663 33.0429 4.01316 32.8132C4.12206 32.5812 4.17651 32.3196 4.17651 32.0284C4.17651 31.7372 4.12206 31.4768 4.01316 31.2472C3.90663 31.0175 3.73381 30.8376 3.4947 30.7074C3.25559 30.5748 2.93835 30.5085 2.54299 30.5085H0.994696V33.5625Z" fill="#CFD1DE"/>
<path d="M6.34803 31.5455V37H7.1861V33.5483C7.1861 33.3021 7.24529 33.0831 7.36366 32.8913C7.4844 32.6972 7.64775 32.5457 7.85372 32.4368C8.06205 32.3255 8.29879 32.2699 8.56394 32.2699C8.67521 32.2699 8.78056 32.2782 8.87999 32.2947C8.98179 32.3089 9.0469 32.3196 9.07531 32.3267V31.4744C9.02796 31.4697 8.95812 31.4661 8.86579 31.4638C8.77346 31.4614 8.69652 31.4602 8.63497 31.4602C8.30826 31.4602 8.0147 31.5443 7.75428 31.7124C7.49387 31.8804 7.31394 32.0994 7.21451 32.3693H7.15769V31.5455H6.34803Z" fill="#CFD1DE"/>
<path fill-rule="evenodd" clip-rule="evenodd" d="M10.8225 36.7621C11.1942 36.9964 11.6262 37.1136 12.1186 37.1136C12.6111 37.1136 13.0419 36.9964 13.4112 36.7621C13.7829 36.5277 14.0718 36.1998 14.2777 35.7784C14.4861 35.357 14.5902 34.8646 14.5902 34.3011C14.5902 33.733 14.4861 33.237 14.2777 32.8132C14.0718 32.3894 13.7829 32.0604 13.4112 31.826C13.0419 31.5916 12.6111 31.4744 12.1186 31.4744C11.6262 31.4744 11.1942 31.5916 10.8225 31.826C10.4531 32.0604 10.1643 32.3894 9.95599 32.8132C9.75002 33.237 9.64704 33.733 9.64704 34.3011C9.64704 34.8646 9.75002 35.357 9.95599 35.7784C10.1643 36.1998 10.4531 36.5277 10.8225 36.7621ZM13.0419 36.0732C12.8004 36.2649 12.4927 36.3608 12.1186 36.3608C11.7446 36.3608 11.4368 36.2649 11.1953 36.0732C10.9539 35.8814 10.7751 35.6293 10.6591 35.3168C10.5431 35.0043 10.4851 34.6657 10.4851 34.3011C10.4851 33.9366 10.5431 33.5968 10.6591 33.282C10.7751 32.9671 10.9539 32.7126 11.1953 32.5185C11.4368 32.3243 11.7446 32.2273 12.1186 32.2273C12.4927 32.2273 12.8004 32.3243 13.0419 32.5185C13.2834 32.7126 13.4621 32.9671 13.5781 33.282C13.6942 33.5968 13.7522 33.9366 13.7522 34.3011C13.7522 34.6657 13.6942 35.0043 13.5781 35.3168C13.4621 35.6293 13.2834 35.8814 13.0419 36.0732Z" fill="#CFD1DE"/>
<path d="M15.834 39.0099C15.9453 39.0336 16.0719 39.0455 16.214 39.0455C16.4673 39.0455 16.6946 39.0005 16.8958 38.9105C17.0994 38.8205 17.2781 38.6821 17.432 38.495C17.5859 38.3104 17.7149 38.0772 17.8191 37.7955L20.1344 31.5455H19.2253L17.7197 35.892H17.6628L16.1572 31.5455H15.2481L17.2651 37.0284L17.1089 37.4545C17.0071 37.7315 16.8946 37.9316 16.7715 38.0547C16.6508 38.1802 16.5123 38.25 16.356 38.2642C16.1998 38.2784 16.0198 38.2595 15.8163 38.2074L15.6032 38.946C15.6458 38.9673 15.7227 38.9886 15.834 39.0099Z" fill="#CFD1DE"/>
<path fill-rule="evenodd" clip-rule="evenodd" d="M21.9721 36.7656C22.3533 36.9976 22.8067 37.1136 23.3322 37.1136C23.7015 37.1136 24.0342 37.0568 24.3301 36.9432C24.626 36.8272 24.8746 36.6662 25.0758 36.4602C25.2771 36.2519 25.4203 36.0104 25.5055 35.7358L24.6959 35.5085C24.6248 35.6979 24.5242 35.8565 24.394 35.9844C24.2638 36.1098 24.1087 36.2045 23.9288 36.2685C23.7513 36.33 23.5524 36.3608 23.3322 36.3608C22.9937 36.3608 22.6966 36.2874 22.4409 36.1406C22.1852 35.9915 21.9852 35.7749 21.8408 35.4908C21.712 35.231 21.6416 34.9197 21.6295 34.5568H25.5908V34.2017C25.5908 33.6927 25.5233 33.2642 25.3883 32.9162C25.2534 32.5682 25.0723 32.2888 24.845 32.0781C24.6177 31.8651 24.3656 31.7112 24.0886 31.6165C23.8116 31.5218 23.5311 31.4744 23.247 31.4744C22.7546 31.4744 22.3237 31.5952 21.9544 31.8366C21.5874 32.0758 21.301 32.4096 21.095 32.8381C20.8914 33.2642 20.7896 33.7566 20.7896 34.3153C20.7896 34.8741 20.8914 35.3641 21.095 35.7855C21.301 36.2045 21.5934 36.5312 21.9721 36.7656ZM21.6317 33.8324C21.6476 33.5794 21.7114 33.3403 21.823 33.1151C21.9532 32.8523 22.139 32.6392 22.3805 32.4759C22.6244 32.3101 22.9132 32.2273 23.247 32.2273C23.55 32.2273 23.8128 32.2971 24.0354 32.4368C24.2603 32.5765 24.4331 32.767 24.5538 33.0085C24.6769 33.25 24.7385 33.5246 24.7385 33.8324H21.6317Z" fill="#CFD1DE"/>
<path d="M27.7605 36.7514C28.1298 36.9929 28.5702 37.1136 29.0815 37.1136C29.484 37.1136 29.8367 37.0391 30.1398 36.8899C30.4452 36.7384 30.6902 36.5348 30.8748 36.2791C31.0619 36.0211 31.1791 35.7311 31.2264 35.4091H30.3883C30.3363 35.608 30.2487 35.7784 30.1256 35.9205C30.0024 36.0625 29.8521 36.1714 29.6746 36.2472C29.497 36.3229 29.2993 36.3608 29.0815 36.3608C28.7501 36.3608 28.4613 36.2744 28.215 36.1016C27.9712 35.9287 27.7818 35.6861 27.6469 35.3736C27.5143 35.0611 27.448 34.6941 27.448 34.2727C27.448 33.8608 27.5155 33.5021 27.6504 33.1967C27.7877 32.889 27.9783 32.651 28.2221 32.483C28.4684 32.3125 28.7548 32.2273 29.0815 32.2273C29.4508 32.2273 29.7444 32.3243 29.9622 32.5185C30.1824 32.7102 30.3244 32.9304 30.3883 33.179H31.2264C31.1791 32.8381 31.0571 32.5398 30.8606 32.2841C30.6641 32.0284 30.412 31.8295 30.1042 31.6875C29.7965 31.5455 29.4508 31.4744 29.0673 31.4744C28.5749 31.4744 28.144 31.5952 27.7747 31.8366C27.4078 32.0758 27.1213 32.4084 26.9153 32.8345C26.7117 33.2583 26.6099 33.7472 26.6099 34.3011C26.6099 34.8456 26.7094 35.3298 26.9082 35.7536C27.1071 36.1773 27.3912 36.5099 27.7605 36.7514Z" fill="#CFD1DE"/>
<path d="M34.8237 32.2557V31.5455H33.6589V30.2386H32.8209V31.5455H31.997V32.2557H32.8209V35.6648C32.8209 35.982 32.8943 36.2448 33.041 36.4531C33.1902 36.6615 33.3772 36.8165 33.6021 36.9183C33.8294 37.0201 34.0614 37.071 34.2981 37.071C34.4544 37.071 34.5834 37.0592 34.6852 37.0355C34.787 37.0142 34.8663 36.9929 34.9231 36.9716L34.7527 36.2188L34.6106 36.2472C34.5515 36.2566 34.4757 36.2614 34.3834 36.2614C34.2603 36.2614 34.1431 36.2424 34.0318 36.2045C33.9229 36.1643 33.8329 36.0862 33.7619 35.9702C33.6933 35.8518 33.6589 35.6742 33.6589 35.4375V32.2557H34.8237Z" fill="#CFD1DE"/>
<path fill-rule="evenodd" clip-rule="evenodd" d="M36.9455 36.7621C37.3172 36.9964 37.7493 37.1136 38.2417 37.1136C38.7341 37.1136 39.165 36.9964 39.5343 36.7621C39.906 36.5277 40.1948 36.1998 40.4008 35.7784C40.6091 35.357 40.7133 34.8646 40.7133 34.3011C40.7133 33.733 40.6091 33.237 40.4008 32.8132C40.1948 32.3894 39.906 32.0604 39.5343 31.826C39.165 31.5916 38.7341 31.4744 38.2417 31.4744C37.7493 31.4744 37.3172 31.5916 36.9455 31.826C36.5762 32.0604 36.2874 32.3894 36.079 32.8132C35.8731 33.237 35.7701 33.733 35.7701 34.3011C35.7701 34.8646 35.8731 35.357 36.079 35.7784C36.2874 36.1998 36.5762 36.5277 36.9455 36.7621ZM39.165 36.0732C38.9235 36.2649 38.6157 36.3608 38.2417 36.3608C37.8676 36.3608 37.5599 36.2649 37.3184 36.0732C37.0769 35.8814 36.8982 35.6293 36.7822 35.3168C36.6662 35.0043 36.6082 34.6657 36.6082 34.3011C36.6082 33.9366 36.6662 33.5968 36.7822 33.282C36.8982 32.9671 37.0769 32.7126 37.3184 32.5185C37.5599 32.3243 37.8676 32.2273 38.2417 32.2273C38.6157 32.2273 38.9235 32.3243 39.165 32.5185C39.4065 32.7126 39.5852 32.9671 39.7012 33.282C39.8172 33.5968 39.8752 33.9366 39.8752 34.3011C39.8752 34.6657 39.8172 35.0043 39.7012 35.3168C39.5852 35.6293 39.4065 35.8814 39.165 36.0732Z" fill="#CFD1DE"/>
<path d="M45.1034 32.9801L45.8562 32.767C45.726 32.3788 45.5058 32.0663 45.1957 31.8295C44.8879 31.5928 44.4642 31.4744 43.9244 31.4744C43.5409 31.4744 43.1976 31.5419 42.8946 31.6768C42.5939 31.8118 42.356 31.9976 42.1808 32.2344C42.008 32.4711 41.9215 32.7434 41.9215 33.0511C41.9215 33.4276 42.0375 33.7412 42.2696 33.9922C42.5039 34.2408 42.8709 34.4242 43.3704 34.5426L44.2795 34.7557C44.5541 34.8196 44.7577 34.9167 44.8903 35.0469C45.0229 35.1747 45.0892 35.3333 45.0892 35.5227C45.0892 35.7571 44.9732 35.9583 44.7411 36.1264C44.5115 36.2921 44.2014 36.375 43.8107 36.375C43.4675 36.375 43.1893 36.3016 42.9762 36.1548C42.7655 36.008 42.6223 35.7879 42.5465 35.4943L41.7511 35.6932C41.8482 36.1572 42.079 36.5099 42.4436 36.7514C42.8081 36.9929 43.2686 37.1136 43.825 37.1136C44.2487 37.1136 44.6204 37.0426 44.94 36.9006C45.2596 36.7585 45.5082 36.5644 45.6857 36.3182C45.8657 36.072 45.9556 35.7926 45.9556 35.4801C45.9556 35.099 45.8361 34.7876 45.597 34.5462C45.3579 34.3023 44.9945 34.1212 44.5068 34.0028L43.6971 33.804C43.3751 33.7235 43.1384 33.6229 42.9869 33.5021C42.8354 33.3814 42.7596 33.2169 42.7596 33.0085C42.7596 32.7741 42.8697 32.5812 43.0899 32.4297C43.3124 32.2758 43.5906 32.1989 43.9244 32.1989C44.1682 32.1989 44.3683 32.2379 44.5245 32.3161C44.6808 32.3942 44.8039 32.4936 44.8938 32.6143C44.9862 32.7327 45.056 32.8546 45.1034 32.9801Z" fill="#CFD1DE"/>
</svg>
