<svg width="24" height="37" viewBox="0 0 24 37" fill="none" xmlns="http://www.w3.org/2000/svg">
<path fill-rule="evenodd" clip-rule="evenodd" d="M7.28967 6.34907C7.28967 2.9979 10.0063 0.28125 13.3575 0.28125C16.7087 0.28125 19.4253 2.9979 19.4253 6.34907C19.4253 9.70023 16.7087 12.4169 13.3575 12.4169C10.0063 12.4169 7.28967 9.70023 7.28967 6.34907ZM13.3575 2.30386C11.1234 2.30386 9.31228 4.11496 9.31228 6.34907C9.31228 8.58318 11.1234 10.3943 13.3575 10.3943C15.5916 10.3943 17.4027 8.58318 17.4027 6.34907C17.4027 4.11496 15.5916 2.30386 13.3575 2.30386Z" fill="#CFD1DE"/>
<path d="M13.3575 16.9677C10.9578 16.9677 8.68399 17.5008 7.12786 17.9812C6.23712 18.2562 5.58258 19.0628 5.4224 20.0926L5.25505 21.1684C5.1692 21.7203 4.65221 22.0981 4.10032 22.0122C3.54843 21.9264 3.17063 21.4094 3.25648 20.8575L3.42383 19.7817C3.68551 18.0994 4.79946 16.5832 6.53127 16.0486C8.19413 15.5353 10.6815 14.9451 13.3575 14.9451C16.0335 14.9451 18.5209 15.5353 20.1837 16.0486C21.9155 16.5832 23.0295 18.0994 23.2912 19.7817L23.4585 20.8575C23.5444 21.4094 23.1666 21.9264 22.6147 22.0122C22.0628 22.0981 21.5458 21.7203 21.4599 21.1684L21.2926 20.0926C21.1324 19.0628 20.4779 18.2562 19.5871 17.9812C18.031 17.5008 15.7572 16.9677 13.3575 16.9677Z" fill="#CFD1DE"/>
<path fill-rule="evenodd" clip-rule="evenodd" d="M0.977539 28.9972V36.2699H1.85822V33.6137H3.44913C4.01494 33.6137 4.47896 33.5107 4.84118 33.3047C5.20339 33.0964 5.47091 32.8171 5.64373 32.4667C5.81892 32.1163 5.90652 31.7269 5.90652 31.2984C5.90652 30.8699 5.81892 30.4816 5.64373 30.1336C5.46854 29.7856 5.19866 29.5098 4.83407 29.3062C4.47186 29.1002 4.00547 28.9972 3.43493 28.9972H0.977539ZM1.85822 32.8324H3.42072C3.81135 32.8324 4.12503 32.765 4.36177 32.63C4.59851 32.4951 4.77015 32.3128 4.87669 32.0832C4.98559 31.8512 5.04004 31.5896 5.04004 31.2984C5.04004 31.0072 4.98559 30.7467 4.87669 30.5171C4.77015 30.2875 4.59733 30.1075 4.35822 29.9773C4.11911 29.8448 3.80188 29.7785 3.40652 29.7785H1.85822V32.8324Z" fill="#CFD1DE"/>
<path fill-rule="evenodd" clip-rule="evenodd" d="M8.07981 36.0356C8.46097 36.2676 8.91433 36.3836 9.4399 36.3836C9.80922 36.3836 10.1418 36.3268 10.4378 36.2131C10.7337 36.0971 10.9823 35.9361 11.1835 35.7302C11.3847 35.5218 11.528 35.2804 11.6132 35.0057L10.8035 34.7785C10.7325 34.9679 10.6319 35.1265 10.5017 35.2543C10.3715 35.3798 10.2164 35.4745 10.0365 35.5384C9.85893 35.6 9.66007 35.6307 9.4399 35.6307C9.10136 35.6307 8.80424 35.5574 8.54856 35.4106C8.29288 35.2614 8.09283 35.0448 7.94842 34.7607C7.81962 34.501 7.74922 34.1897 7.73721 33.8268H11.6984V33.4717C11.6984 32.9627 11.6309 32.5342 11.496 32.1861C11.3611 31.8381 11.18 31.5588 10.9527 31.3481C10.7254 31.135 10.4733 30.9811 10.1963 30.8864C9.9193 30.7917 9.63876 30.7444 9.35467 30.7444C8.86225 30.7444 8.43137 30.8651 8.06206 31.1066C7.69511 31.3457 7.40865 31.6795 7.20268 32.108C6.99908 32.5342 6.89728 33.0266 6.89728 33.5853C6.89728 34.144 6.99908 34.6341 7.20268 35.0555C7.40865 35.4745 7.70102 35.8012 8.07981 36.0356ZM7.73935 33.1023C7.75531 32.8493 7.81908 32.6102 7.93066 32.385C8.06087 32.1222 8.24672 31.9092 8.48819 31.7458C8.73204 31.5801 9.02086 31.4972 9.35467 31.4972C9.6577 31.4972 9.92048 31.5671 10.143 31.7067C10.3679 31.8464 10.5407 32.037 10.6615 32.2785C10.7846 32.5199 10.8461 32.7946 10.8461 33.1023H7.73935Z" fill="#CFD1DE"/>
<path d="M12.9733 30.8154V36.2699H13.8113V32.8182C13.8113 32.572 13.8705 32.353 13.9889 32.1613C14.1096 31.9672 14.273 31.8156 14.479 31.7067C14.6873 31.5955 14.924 31.5398 15.1892 31.5398C15.3005 31.5398 15.4058 31.5481 15.5052 31.5647C15.607 31.5789 15.6721 31.5896 15.7006 31.5967V30.7444C15.6532 30.7396 15.5834 30.7361 15.491 30.7337C15.3987 30.7314 15.3218 30.7302 15.2602 30.7302C14.9335 30.7302 14.6399 30.8142 14.3795 30.9823C14.1191 31.1504 13.9392 31.3694 13.8398 31.6393H13.7829V30.8154H12.9733Z" fill="#CFD1DE"/>
<path d="M19.4648 31.5256V30.8154H18.2432V30.2614C18.2432 29.9915 18.3035 29.7868 18.4243 29.6471C18.5474 29.5074 18.7474 29.4376 19.0244 29.4376C19.1452 29.4376 19.2422 29.4482 19.3156 29.4695C19.3914 29.4908 19.4506 29.5086 19.4932 29.5228L19.7346 28.7984C19.6707 28.7699 19.5737 28.7392 19.4434 28.706C19.3132 28.6729 19.1452 28.6563 18.9392 28.6563C18.6788 28.6563 18.4314 28.7084 18.197 28.8126C17.9626 28.9167 17.772 29.073 17.6253 29.2813C17.4785 29.4896 17.4051 29.7501 17.4051 30.0626V30.8154H16.5244V31.5256H17.4051V36.2699H18.2432V31.5256H19.4648Z" fill="#CFD1DE"/>
<path d="M20.6393 30.8154V36.2699H21.4774V30.8154H20.6393Z" fill="#CFD1DE"/>
<path d="M20.6428 29.7394C20.7612 29.8507 20.9021 29.9063 21.0654 29.9063C21.2288 29.9063 21.3685 29.8507 21.4845 29.7394C21.6028 29.6281 21.662 29.4944 21.662 29.3381C21.662 29.1819 21.6028 29.0481 21.4845 28.9368C21.3685 28.8256 21.2288 28.7699 21.0654 28.7699C20.9021 28.7699 20.7612 28.8256 20.6428 28.9368C20.5268 29.0481 20.4688 29.1819 20.4688 29.3381C20.4688 29.4944 20.5268 29.6281 20.6428 29.7394Z" fill="#CFD1DE"/>
<path d="M23.8504 36.2699V28.9972H23.0123V36.2699H23.8504Z" fill="#CFD1DE"/>
</svg>
