<svg width="37" height="37" viewBox="0 0 37 37" fill="none" xmlns="http://www.w3.org/2000/svg">
<path fill-rule="evenodd" clip-rule="evenodd" d="M10.5058 0.988281C8.27453 0.988281 6.46576 2.79705 6.46576 5.02828V19.1943C6.46576 21.4256 8.27453 23.2343 10.5058 23.2343H26.6292C28.8604 23.2343 30.6692 21.4256 30.6692 19.1943V8.97897C30.6692 6.74774 28.8604 4.93897 26.6292 4.93897H9.9798C9.42214 4.93897 8.97006 4.4869 8.97006 3.92924C8.97006 3.86368 8.96382 3.79959 8.95189 3.73751C9.32242 3.29194 9.88097 3.00828 10.5058 3.00828H27.6631C28.2209 3.00828 28.6731 2.55609 28.6731 1.99828C28.6731 1.44047 28.2209 0.988281 27.6631 0.988281H10.5058ZM8.48576 19.1943V6.56559C8.92666 6.81599 9.43653 6.95897 9.9798 6.95897H26.6292C27.7448 6.95897 28.6492 7.86336 28.6492 8.97897V19.1943C28.6492 20.31 27.7448 21.2143 26.6292 21.2143H10.5058C9.39015 21.2143 8.48576 20.31 8.48576 19.1943Z" fill="#CFD1DE"/>
<path fill-rule="evenodd" clip-rule="evenodd" d="M0.351562 28.6804V35.9531H2.9794C3.55232 35.9531 4.01752 35.8679 4.375 35.6974C4.73248 35.527 4.99408 35.2962 5.1598 35.005C5.32552 34.7138 5.40838 34.3859 5.40838 34.0213C5.40838 33.6378 5.33262 33.3134 5.18111 33.0483C5.02959 32.7831 4.84138 32.5795 4.61648 32.4375C4.39157 32.2954 4.16785 32.2173 3.94531 32.2031V32.1321C4.15365 32.0753 4.34659 31.9877 4.52415 31.8693C4.70407 31.7509 4.84848 31.59 4.95739 31.3864C5.06866 31.1828 5.12429 30.9247 5.12429 30.6122C5.12429 30.2571 5.0438 29.9339 4.88281 29.6427C4.72183 29.3492 4.4768 29.116 4.14773 28.9432C3.81866 28.768 3.4008 28.6804 2.89418 28.6804H0.351562ZM2.9794 35.1719H1.23224V32.6435H3.02202C3.33925 32.6435 3.61387 32.7074 3.84588 32.8352C4.07789 32.9607 4.25663 33.1288 4.3821 33.3395C4.50758 33.5478 4.57031 33.7751 4.57031 34.0213C4.57031 34.3409 4.44839 34.6132 4.20455 34.8381C3.96307 35.0606 3.55469 35.1719 2.9794 35.1719ZM2.86577 31.8764H1.23224V29.4616H2.89418C3.37713 29.4616 3.72988 29.5741 3.95241 29.799C4.17495 30.0215 4.28622 30.2926 4.28622 30.6122C4.28622 30.8679 4.2223 31.0904 4.09446 31.2798C3.96899 31.4692 3.79853 31.616 3.5831 31.7202C3.37003 31.8243 3.13092 31.8764 2.86577 31.8764Z" fill="#CFD1DE"/>
<path d="M6.74183 30.4986V35.9531H7.5799V30.4986H6.74183Z" fill="#CFD1DE"/>
<path d="M6.74538 29.4226C6.86375 29.5338 7.00462 29.5895 7.16797 29.5895C7.33132 29.5895 7.471 29.5338 7.587 29.4226C7.70537 29.3113 7.76456 29.1775 7.76456 29.0213C7.76456 28.865 7.70537 28.7313 7.587 28.62C7.471 28.5087 7.33132 28.4531 7.16797 28.4531C7.00462 28.4531 6.86375 28.5087 6.74538 28.62C6.62938 28.7313 6.57138 28.865 6.57138 29.0213C6.57138 29.1775 6.62938 29.3113 6.74538 29.4226Z" fill="#CFD1DE"/>
<path d="M9.95295 35.9531V28.6804H9.11488V35.9531H9.95295Z" fill="#CFD1DE"/>
<path d="M12.326 35.9531V28.6804H11.4879V35.9531H12.326Z" fill="#CFD1DE"/>
<path fill-rule="evenodd" clip-rule="evenodd" d="M14.7878 35.7187C15.169 35.9507 15.6223 36.0668 16.1479 36.0668C16.5172 36.0668 16.8498 36.0099 17.1458 35.8963C17.4417 35.7803 17.6903 35.6193 17.8915 35.4133C18.0927 35.205 18.236 34.9635 18.3212 34.6889L17.5115 34.4616C17.4405 34.651 17.3399 34.8097 17.2097 34.9375C17.0795 35.063 16.9244 35.1577 16.7445 35.2216C16.5669 35.2831 16.3681 35.3139 16.1479 35.3139C15.8094 35.3139 15.5123 35.2405 15.2566 35.0937C15.0009 34.9446 14.8008 34.728 14.6564 34.4439C14.5276 34.1841 14.4572 33.8728 14.4452 33.5099H18.4064V33.1548C18.4064 32.6458 18.339 32.2173 18.204 31.8693C18.0691 31.5213 17.888 31.2419 17.6607 31.0312C17.4334 30.8182 17.1813 30.6643 16.9043 30.5696C16.6273 30.4749 16.3468 30.4275 16.0627 30.4275C15.5703 30.4275 15.1394 30.5483 14.7701 30.7898C14.4031 31.0289 14.1167 31.3627 13.9107 31.7912C13.7071 32.2173 13.6053 32.7097 13.6053 33.2685C13.6053 33.8272 13.7071 34.3172 13.9107 34.7386C14.1167 35.1577 14.409 35.4844 14.7878 35.7187ZM14.4474 32.7855C14.4633 32.5325 14.5271 32.2934 14.6387 32.0682C14.7689 31.8054 14.9547 31.5923 15.1962 31.429C15.44 31.2632 15.7289 31.1804 16.0627 31.1804C16.3657 31.1804 16.6285 31.2502 16.851 31.3899C17.0759 31.5296 17.2488 31.7202 17.3695 31.9616C17.4926 32.2031 17.5542 32.4777 17.5542 32.7855H14.4474Z" fill="#CFD1DE"/>
<path d="M22.0534 31.2088V30.4986H20.8887V29.1918H20.0506V30.4986H19.2267V31.2088H20.0506V34.6179C20.0506 34.9351 20.124 35.1979 20.2708 35.4062C20.4199 35.6146 20.6069 35.7696 20.8319 35.8714C21.0591 35.9732 21.2911 36.0241 21.5279 36.0241C21.6841 36.0241 21.8132 36.0123 21.9149 35.9886C22.0167 35.9673 22.0961 35.946 22.1529 35.9247L21.9824 35.1719L21.8404 35.2003C21.7812 35.2097 21.7054 35.2145 21.6131 35.2145C21.49 35.2145 21.3728 35.1955 21.2615 35.1577C21.1526 35.1174 21.0627 35.0393 20.9917 34.9233C20.923 34.8049 20.8887 34.6274 20.8887 34.3906V31.2088H22.0534Z" fill="#CFD1DE"/>
<path fill-rule="evenodd" clip-rule="evenodd" d="M24.1824 35.7187C24.5635 35.9507 25.0169 36.0668 25.5424 36.0668C25.9118 36.0668 26.2444 36.0099 26.5403 35.8963C26.8362 35.7803 27.0848 35.6193 27.286 35.4133C27.4873 35.205 27.6305 34.9635 27.7157 34.6889L26.9061 34.4616C26.8351 34.651 26.7344 34.8097 26.6042 34.9375C26.474 35.063 26.319 35.1577 26.139 35.2216C25.9615 35.2831 25.7626 35.3139 25.5424 35.3139C25.2039 35.3139 24.9068 35.2405 24.6511 35.0937C24.3954 34.9446 24.1954 34.728 24.051 34.4439C23.9222 34.1841 23.8518 33.8728 23.8397 33.5099H27.801V33.1548C27.801 32.6458 27.7335 32.2173 27.5985 31.8693C27.4636 31.5213 27.2825 31.2419 27.0552 31.0312C26.8279 30.8182 26.5758 30.6643 26.2988 30.5696C26.0218 30.4749 25.7413 30.4275 25.4572 30.4275C24.9648 30.4275 24.5339 30.5483 24.1646 30.7898C23.7976 31.0289 23.5112 31.3627 23.3052 31.7912C23.1016 32.2173 22.9998 32.7097 22.9998 33.2685C22.9998 33.8272 23.1016 34.3172 23.3052 34.7386C23.5112 35.1577 23.8036 35.4844 24.1824 35.7187ZM23.8419 32.7855C23.8578 32.5325 23.9216 32.2934 24.0332 32.0682C24.1634 31.8054 24.3493 31.5923 24.5907 31.429C24.8346 31.2632 25.1234 31.1804 25.4572 31.1804C25.7602 31.1804 26.023 31.2502 26.2456 31.3899C26.4705 31.5296 26.6433 31.7202 26.764 31.9616C26.8871 32.2031 26.9487 32.4777 26.9487 32.7855H23.8419Z" fill="#CFD1DE"/>
<path d="M29.0758 30.4986V35.9531H29.9139V32.5014C29.9139 32.2552 29.9731 32.0362 30.0914 31.8444C30.2122 31.6503 30.3755 31.4988 30.5815 31.3899C30.7898 31.2786 31.0266 31.223 31.2917 31.223C31.403 31.223 31.5083 31.2313 31.6078 31.2479C31.7096 31.2621 31.7747 31.2727 31.8031 31.2798V30.4275C31.7557 30.4228 31.6859 30.4193 31.5936 30.4169C31.5012 30.4145 31.4243 30.4133 31.3627 30.4133C31.036 30.4133 30.7425 30.4974 30.4821 30.6655C30.2216 30.8336 30.0417 31.0525 29.9423 31.3224H29.8855V30.4986H29.0758Z" fill="#CFD1DE"/>
<path fill-rule="evenodd" clip-rule="evenodd" d="M33.4606 35.8856C33.7423 36.0159 34.056 36.081 34.4016 36.081C34.7189 36.081 34.9876 36.0336 35.2077 35.9389C35.4279 35.8442 35.6043 35.7294 35.7369 35.5945C35.8694 35.4595 35.9641 35.3329 36.021 35.2145H36.0636V35.9531H36.9016V32.3594C36.9016 31.9261 36.8306 31.5805 36.6886 31.3224C36.5465 31.0644 36.3678 30.8714 36.1523 30.7436C35.9393 30.6158 35.7179 30.5317 35.4883 30.4915C35.261 30.4489 35.0598 30.4275 34.8846 30.4275C34.61 30.4275 34.3306 30.4654 34.0465 30.5412C33.7648 30.6146 33.5044 30.7448 33.2653 30.9318C33.0285 31.1165 32.8391 31.3745 32.6971 31.706L33.4925 31.99C33.5849 31.7912 33.7447 31.6042 33.9719 31.429C34.1992 31.2538 34.5129 31.1662 34.913 31.1662C35.2989 31.1662 35.5865 31.2632 35.7759 31.4574C35.9677 31.6515 36.0636 31.9238 36.0636 32.2741V32.3025C36.0636 32.4375 36.015 32.5322 35.918 32.5866C35.8233 32.6411 35.6718 32.6802 35.4634 32.7038C35.2575 32.7251 34.9888 32.7571 34.6573 32.7997C34.404 32.8328 34.1519 32.8778 33.9009 32.9347C33.6523 32.9891 33.4251 33.072 33.2191 33.1832C33.0131 33.2945 32.8486 33.4484 32.7255 33.6449C32.6024 33.839 32.5408 34.0923 32.5408 34.4048C32.5408 34.7599 32.6237 35.063 32.7894 35.3139C32.9551 35.5625 33.1789 35.7531 33.4606 35.8856ZM35.3675 35.1328C35.1403 35.263 34.8609 35.3281 34.5295 35.3281C34.1957 35.3281 33.9199 35.2547 33.7021 35.1079C33.4866 34.9588 33.3789 34.7386 33.3789 34.4474C33.3789 34.2344 33.4357 34.0663 33.5494 33.9432C33.6654 33.8177 33.8169 33.7242 34.0039 33.6626C34.1933 33.5987 34.3969 33.5525 34.6147 33.5241C34.7047 33.5123 34.8219 33.4981 34.9663 33.4815C35.113 33.4626 35.2634 33.4413 35.4173 33.4176C35.5735 33.3916 35.7108 33.362 35.8292 33.3288C35.9499 33.2933 36.0281 33.2543 36.0636 33.2116V33.9787C36.0636 34.206 36.0044 34.4226 35.886 34.6285C35.77 34.8345 35.5972 35.0026 35.3675 35.1328Z" fill="#CFD1DE"/>
</svg>
