<svg width="38" height="36" viewBox="0 0 38 36" fill="none" xmlns="http://www.w3.org/2000/svg">
<path fill-rule="evenodd" clip-rule="evenodd" d="M10.9382 0.535156C8.70697 0.535156 6.8982 2.34392 6.8982 4.57516V18.7412C6.8982 20.9724 8.70697 22.7812 10.9382 22.7812H27.0616C29.2928 22.7812 31.1016 20.9724 31.1016 18.7412V8.52585C31.1016 6.29462 29.2928 4.48585 27.0616 4.48585H10.4122C9.85457 4.48585 9.4025 4.03378 9.4025 3.47611C9.4025 3.41056 9.39625 3.34646 9.38432 3.28439C9.75485 2.83882 10.3134 2.55516 10.9382 2.55516H28.0955C28.6533 2.55516 29.1055 2.10296 29.1055 1.54516C29.1055 0.987349 28.6533 0.535156 28.0955 0.535156H10.9382ZM8.9182 18.7412V6.11247C9.35909 6.36286 9.86896 6.50585 10.4122 6.50585H27.0616C28.1772 6.50585 29.0816 7.41024 29.0816 8.52585V18.7412C29.0816 19.8568 28.1772 20.7612 27.0616 20.7612H10.9382C9.82258 20.7612 8.9182 19.8568 8.9182 18.7412Z" fill="#CFD1DE"/>
<path fill-rule="evenodd" clip-rule="evenodd" d="M0.783997 28.2275V35.5002H3.41184C3.98475 35.5002 4.44995 35.415 4.80743 35.2446C5.16492 35.0741 5.42652 34.8433 5.59224 34.5521C5.75795 34.2609 5.84081 33.933 5.84081 33.5684C5.84081 33.1849 5.76506 32.8606 5.61354 32.5954C5.46203 32.3303 5.27382 32.1267 5.04891 31.9846C4.82401 31.8426 4.60028 31.7644 4.37775 31.7502V31.6792C4.58608 31.6224 4.77903 31.5348 4.95658 31.4164C5.13651 31.2981 5.28092 31.1371 5.38982 30.9335C5.50109 30.7299 5.55672 30.4718 5.55672 30.1593C5.55672 29.8042 5.47623 29.4811 5.31525 29.1899C5.15426 28.8963 4.90923 28.6631 4.58016 28.4903C4.25109 28.3151 3.83324 28.2275 3.32661 28.2275H0.783997ZM3.41184 34.719H1.66468V32.1906H3.45445C3.77169 32.1906 4.04631 32.2545 4.27831 32.3823C4.51032 32.5078 4.68906 32.6759 4.81454 32.8866C4.94001 33.0949 5.00275 33.3222 5.00275 33.5684C5.00275 33.888 4.88082 34.1603 4.63698 34.3852C4.3955 34.6077 3.98712 34.719 3.41184 34.719ZM3.2982 31.4235H1.66468V29.0088H3.32661C3.80956 29.0088 4.16231 29.1212 4.38485 29.3461C4.60739 29.5687 4.71866 29.8397 4.71866 30.1593C4.71866 30.415 4.65474 30.6375 4.52689 30.8269C4.40142 31.0163 4.23097 31.1631 4.01553 31.2673C3.80246 31.3714 3.56335 31.4235 3.2982 31.4235Z" fill="#CFD1DE"/>
<path d="M7.17427 30.0457V35.5002H8.01233V30.0457H7.17427Z" fill="#CFD1DE"/>
<path d="M7.17782 28.9697C7.29619 29.081 7.43705 29.1366 7.6004 29.1366C7.76375 29.1366 7.90343 29.081 8.01944 28.9697C8.13781 28.8584 8.19699 28.7247 8.19699 28.5684C8.19699 28.4122 8.13781 28.2784 8.01944 28.1671C7.90343 28.0559 7.76375 28.0002 7.6004 28.0002C7.43705 28.0002 7.29619 28.0559 7.17782 28.1671C7.06181 28.2784 7.00381 28.4122 7.00381 28.5684C7.00381 28.7247 7.06181 28.8584 7.17782 28.9697Z" fill="#CFD1DE"/>
<path d="M10.3854 35.5002V28.2275H9.54731V35.5002H10.3854Z" fill="#CFD1DE"/>
<path d="M12.7584 35.5002V28.2275H11.9204V35.5002H12.7584Z" fill="#CFD1DE"/>
<path fill-rule="evenodd" clip-rule="evenodd" d="M15.2203 35.2659C15.6014 35.4979 16.0548 35.6139 16.5803 35.6139C16.9497 35.6139 17.2823 35.5571 17.5782 35.4434C17.8741 35.3274 18.1227 35.1664 18.3239 34.9605C18.5252 34.7521 18.6684 34.5107 18.7536 34.236L17.944 34.0088C17.873 34.1982 17.7723 34.3568 17.6421 34.4846C17.5119 34.6101 17.3569 34.7048 17.1769 34.7687C16.9994 34.8303 16.8005 34.861 16.5803 34.861C16.2418 34.861 15.9447 34.7876 15.689 34.6409C15.4333 34.4917 15.2333 34.2751 15.0889 33.991C14.9601 33.7313 14.8897 33.4199 14.8776 33.0571H18.8389V32.7019C18.8389 32.1929 18.7714 31.7644 18.6364 31.4164C18.5015 31.0684 18.3204 30.7891 18.0931 30.5784C17.8659 30.3653 17.6137 30.2114 17.3367 30.1167C17.0597 30.022 16.7792 29.9747 16.4951 29.9747C16.0027 29.9747 15.5718 30.0954 15.2025 30.3369C14.8355 30.576 14.5491 30.9098 14.3431 31.3383C14.1395 31.7644 14.0377 32.2569 14.0377 32.8156C14.0377 33.3743 14.1395 33.8643 14.3431 34.2857C14.5491 34.7048 14.8415 35.0315 15.2203 35.2659ZM14.8798 32.3326C14.8957 32.0796 14.9595 31.8405 15.0711 31.6153C15.2013 31.3525 15.3872 31.1394 15.6286 30.9761C15.8725 30.8104 16.1613 30.7275 16.4951 30.7275C16.7981 30.7275 17.0609 30.7973 17.2835 30.937C17.5084 31.0767 17.6812 31.2673 17.8019 31.5088C17.925 31.7502 17.9866 32.0249 17.9866 32.3326H14.8798Z" fill="#CFD1DE"/>
<path d="M22.4859 30.7559V30.0457H21.3211V28.7389H20.483V30.0457H19.6592V30.7559H20.483V34.165C20.483 34.4822 20.5564 34.745 20.7032 34.9534C20.8524 35.1617 21.0394 35.3168 21.2643 35.4186C21.4916 35.5204 21.7236 35.5713 21.9603 35.5713C22.1166 35.5713 22.2456 35.5594 22.3474 35.5357C22.4492 35.5144 22.5285 35.4931 22.5853 35.4718L22.4149 34.719L22.2728 34.7474C22.2136 34.7569 22.1379 34.7616 22.0455 34.7616C21.9224 34.7616 21.8052 34.7427 21.694 34.7048C21.5851 34.6645 21.4951 34.5864 21.4241 34.4704C21.3554 34.352 21.3211 34.1745 21.3211 33.9377V30.7559H22.4859Z" fill="#CFD1DE"/>
<path fill-rule="evenodd" clip-rule="evenodd" d="M24.6148 35.2659C24.9959 35.4979 25.4493 35.6139 25.9749 35.6139C26.3442 35.6139 26.6768 35.5571 26.9727 35.4434C27.2687 35.3274 27.5172 35.1664 27.7185 34.9605C27.9197 34.7521 28.0629 34.5107 28.1482 34.236L27.3385 34.0088C27.2675 34.1982 27.1669 34.3568 27.0367 34.4846C26.9065 34.6101 26.7514 34.7048 26.5715 34.7687C26.3939 34.8303 26.195 34.861 25.9749 34.861C25.6363 34.861 25.3392 34.7876 25.0835 34.6409C24.8279 34.4917 24.6278 34.2751 24.4834 33.991C24.3546 33.7313 24.2842 33.4199 24.2722 33.0571H28.2334V32.7019C28.2334 32.1929 28.1659 31.7644 28.031 31.4164C27.896 31.0684 27.7149 30.7891 27.4877 30.5784C27.2604 30.3653 27.0083 30.2114 26.7313 30.1167C26.4543 30.022 26.1737 29.9747 25.8896 29.9747C25.3972 29.9747 24.9663 30.0954 24.597 30.3369C24.2301 30.576 23.9436 30.9098 23.7377 31.3383C23.5341 31.7644 23.4323 32.2569 23.4323 32.8156C23.4323 33.3743 23.5341 33.8643 23.7377 34.2857C23.9436 34.7048 24.236 35.0315 24.6148 35.2659ZM24.2743 32.3326C24.2903 32.0796 24.3541 31.8405 24.4656 31.6153C24.5958 31.3525 24.7817 31.1394 25.0232 30.9761C25.267 30.8104 25.5558 30.7275 25.8896 30.7275C26.1927 30.7275 26.4555 30.7973 26.678 30.937C26.9029 31.0767 27.0757 31.2673 27.1965 31.5088C27.3196 31.7502 27.3811 32.0249 27.3811 32.3326H24.2743Z" fill="#CFD1DE"/>
<path d="M29.5083 30.0457V35.5002H30.3463V32.0485C30.3463 31.8023 30.4055 31.5833 30.5239 31.3916C30.6446 31.1974 30.808 31.0459 31.0139 30.937C31.2223 30.8258 31.459 30.7701 31.7242 30.7701C31.8354 30.7701 31.9408 30.7784 32.0402 30.795C32.142 30.8092 32.2071 30.8198 32.2355 30.8269V29.9747C32.1882 29.9699 32.1183 29.9664 32.026 29.964C31.9337 29.9616 31.8567 29.9605 31.7952 29.9605C31.4685 29.9605 31.1749 30.0445 30.9145 30.2126C30.6541 30.3807 30.4742 30.5997 30.3747 30.8696H30.3179V30.0457H29.5083Z" fill="#CFD1DE"/>
<path fill-rule="evenodd" clip-rule="evenodd" d="M33.893 35.4328C34.1747 35.563 34.4884 35.6281 34.8341 35.6281C35.1513 35.6281 35.42 35.5807 35.6402 35.486C35.8603 35.3913 36.0367 35.2765 36.1693 35.1416C36.3019 35.0066 36.3966 34.88 36.4534 34.7616H36.496V35.5002H37.3341V31.9065C37.3341 31.4732 37.263 31.1276 37.121 30.8696C36.979 30.6115 36.8002 30.4186 36.5848 30.2907C36.3717 30.1629 36.1504 30.0788 35.9207 30.0386C35.6934 29.996 35.4922 29.9747 35.317 29.9747C35.0424 29.9747 34.763 30.0125 34.479 30.0883C34.1972 30.1617 33.9368 30.2919 33.6977 30.4789C33.461 30.6636 33.2716 30.9216 33.1295 31.2531L33.925 31.5372C34.0173 31.3383 34.1771 31.1513 34.4044 30.9761C34.6317 30.8009 34.9453 30.7133 35.3454 30.7133C35.7313 30.7133 36.019 30.8104 36.2084 31.0045C36.4001 31.1986 36.496 31.4709 36.496 31.8213V31.8497C36.496 31.9846 36.4475 32.0793 36.3504 32.1338C36.2557 32.1882 36.1042 32.2273 35.8959 32.2509C35.6899 32.2723 35.4212 32.3042 35.0898 32.3468C34.8364 32.38 34.5843 32.4249 34.3334 32.4818C34.0848 32.5362 33.8575 32.6191 33.6515 32.7303C33.4456 32.8416 33.281 32.9955 33.1579 33.192C33.0348 33.3861 32.9733 33.6394 32.9733 33.9519C32.9733 34.3071 33.0561 34.6101 33.2219 34.861C33.3876 35.1096 33.6113 35.3002 33.893 35.4328ZM35.8 34.6799C35.5727 34.8101 35.2934 34.8752 34.9619 34.8752C34.6281 34.8752 34.3523 34.8018 34.1345 34.6551C33.9191 34.5059 33.8113 34.2857 33.8113 33.9946C33.8113 33.7815 33.8682 33.6134 33.9818 33.4903C34.0978 33.3648 34.2493 33.2713 34.4363 33.2098C34.6257 33.1458 34.8293 33.0997 35.0471 33.0713C35.1371 33.0594 35.2543 33.0452 35.3987 33.0286C35.5455 33.0097 35.6958 32.9884 35.8497 32.9647C36.0059 32.9387 36.1433 32.9091 36.2616 32.8759C36.3824 32.8404 36.4605 32.8014 36.496 32.7588V33.5258C36.496 33.7531 36.4368 33.9697 36.3184 34.1757C36.2024 34.3816 36.0296 34.5497 35.8 34.6799Z" fill="#CFD1DE"/>
</svg>
