<svg width="9" height="18" viewBox="0 0 9 18" fill="none" xmlns="http://www.w3.org/2000/svg">
<path fill-rule="evenodd" clip-rule="evenodd" d="M3.69531 1.15104C3.69531 0.683611 4.07423 0.304688 4.54166 0.304688C5.00909 0.304688 5.38801 0.683611 5.38801 1.15104V2.01961C7.15461 2.38819 8.48505 4.00576 8.48505 5.94541C8.48505 6.64813 7.93544 7.2178 7.25746 7.2178C6.57948 7.2178 6.02987 6.64813 6.02987 5.94541C6.02987 5.13916 5.39929 4.48557 4.62143 4.48557C3.84357 4.48557 3.21299 5.13916 3.21299 5.94541C3.21299 6.75166 3.84357 7.40525 4.62143 7.40525C4.63702 7.40525 4.65255 7.40555 4.66801 7.40615C6.78064 7.43168 8.48565 9.21471 8.48565 11.4105C8.48565 13.3504 7.1549 14.9681 5.38799 15.3364V16.2797C5.38799 16.7471 5.00907 17.126 4.54164 17.126C4.07422 17.126 3.69529 16.7471 3.69529 16.2797L3.69529 15.2992C2.00905 14.8689 0.758416 13.2911 0.758416 11.4105C0.758416 10.7078 1.30803 10.1381 1.98601 10.1381C2.66398 10.1381 3.21359 10.7078 3.21359 11.4105C3.21359 12.2167 3.84417 12.8703 4.62203 12.8703C5.39989 12.8703 6.03047 12.2167 6.03047 11.4105C6.03047 10.6042 5.39989 9.95065 4.62203 9.95065C4.60643 9.95065 4.5909 9.95035 4.57544 9.94975C2.46281 9.92421 0.757812 8.14119 0.757812 5.94541C0.757812 4.0646 2.00876 2.48662 3.69531 2.05657V1.15104Z" fill="#389BEC"/>
</svg>
