<svg width="37" height="36" viewBox="0 0 37 36" fill="none" xmlns="http://www.w3.org/2000/svg">
<path fill-rule="evenodd" clip-rule="evenodd" d="M10.2958 0.582031C8.06457 0.582031 6.2558 2.3908 6.2558 4.62203V18.7881C6.2558 21.0193 8.06457 22.8281 10.2958 22.8281H26.4192C28.6504 22.8281 30.4592 21.0193 30.4592 18.7881V8.57272C30.4592 6.34149 28.6504 4.53272 26.4192 4.53272H9.76984C9.21218 4.53272 8.7601 4.08065 8.7601 3.52299C8.7601 3.45743 8.75386 3.39334 8.74193 3.33126C9.11246 2.88569 9.671 2.60203 10.2958 2.60203H27.4531C28.0109 2.60203 28.4631 2.14984 28.4631 1.59203C28.4631 1.03422 28.0109 0.582031 27.4531 0.582031H10.2958ZM8.2758 18.7881V6.15934C8.7167 6.40974 9.22657 6.55272 9.76984 6.55272H26.4192C27.5348 6.55272 28.4392 7.45711 28.4392 8.57272V18.7881C28.4392 19.9037 27.5348 20.8081 26.4192 20.8081H10.2958C9.18019 20.8081 8.2758 19.9037 8.2758 18.7881Z" fill="#55B3FF"/>
<path fill-rule="evenodd" clip-rule="evenodd" d="M0.141602 28.2744V35.5471H2.76944C3.34236 35.5471 3.80756 35.4619 4.16504 35.2914C4.52252 35.121 4.78412 34.8901 4.94984 34.599C5.11556 34.3078 5.19842 33.9799 5.19842 33.6153C5.19842 33.2318 5.12266 32.9074 4.97115 32.6423C4.81963 32.3771 4.63142 32.1735 4.40652 32.0315C4.18161 31.8894 3.95789 31.8113 3.73535 31.7971V31.7261C3.94368 31.6693 4.13663 31.5817 4.31419 31.4633C4.49411 31.3449 4.63852 31.1839 4.74743 30.9803C4.85869 30.7767 4.91433 30.5187 4.91433 30.2062C4.91433 29.8511 4.83384 29.5279 4.67285 29.2367C4.51187 28.9432 4.26684 28.71 3.93777 28.5372C3.60869 28.362 3.19084 28.2744 2.68422 28.2744H0.141602ZM2.76944 34.7659H1.02228V32.2374H2.81206C3.12929 32.2374 3.40391 32.3014 3.63592 32.4292C3.86793 32.5547 4.04667 32.7228 4.17214 32.9335C4.29761 33.1418 4.36035 33.3691 4.36035 33.6153C4.36035 33.9349 4.23843 34.2071 3.99458 34.4321C3.75311 34.6546 3.34473 34.7659 2.76944 34.7659ZM2.65581 31.4704H1.02228V29.0556H2.68422C3.16717 29.0556 3.51992 29.1681 3.74245 29.393C3.96499 29.6155 4.07626 29.8866 4.07626 30.2062C4.07626 30.4619 4.01234 30.6844 3.8845 30.8738C3.75903 31.0632 3.58857 31.21 3.37314 31.3142C3.16007 31.4183 2.92096 31.4704 2.65581 31.4704Z" fill="#55B3FF"/>
<path d="M6.53187 30.0926V35.5471H7.36994V30.0926H6.53187Z" fill="#55B3FF"/>
<path d="M6.53542 29.0166C6.65379 29.1278 6.79466 29.1835 6.95801 29.1835C7.12136 29.1835 7.26104 29.1278 7.37704 29.0166C7.49541 28.9053 7.5546 28.7715 7.5546 28.6153C7.5546 28.459 7.49541 28.3253 7.37704 28.214C7.26104 28.1027 7.12136 28.0471 6.95801 28.0471C6.79466 28.0471 6.65379 28.1027 6.53542 28.214C6.41942 28.3253 6.36142 28.459 6.36142 28.6153C6.36142 28.7715 6.41942 28.9053 6.53542 29.0166Z" fill="#55B3FF"/>
<path d="M9.74299 35.5471V28.2744H8.90492V35.5471H9.74299Z" fill="#55B3FF"/>
<path d="M12.116 35.5471V28.2744H11.278V35.5471H12.116Z" fill="#55B3FF"/>
<path fill-rule="evenodd" clip-rule="evenodd" d="M14.5779 35.3127C14.959 35.5447 15.4124 35.6607 15.9379 35.6607C16.3073 35.6607 16.6399 35.6039 16.9358 35.4903C17.2317 35.3743 17.4803 35.2133 17.6816 35.0073C17.8828 34.799 18.026 34.5575 18.1112 34.2829L17.3016 34.0556C17.2306 34.245 17.1299 34.4036 16.9997 34.5315C16.8695 34.657 16.7145 34.7517 16.5345 34.8156C16.357 34.8771 16.1581 34.9079 15.9379 34.9079C15.5994 34.9079 15.3023 34.8345 15.0466 34.6877C14.7909 34.5386 14.5909 34.322 14.4465 34.0379C14.3177 33.7781 14.2473 33.4668 14.2353 33.1039H18.1965V32.7488C18.1965 32.2398 18.129 31.8113 17.9941 31.4633C17.8591 31.1153 17.678 30.8359 17.4507 30.6252C17.2235 30.4122 16.9713 30.2583 16.6943 30.1636C16.4173 30.0689 16.1368 30.0215 15.8527 30.0215C15.3603 30.0215 14.9294 30.1423 14.5601 30.3838C14.1932 30.6229 13.9067 30.9567 13.7007 31.3852C13.4971 31.8113 13.3953 32.3037 13.3953 32.8624C13.3953 33.4212 13.4971 33.9112 13.7007 34.3326C13.9067 34.7517 14.1991 35.0784 14.5779 35.3127ZM14.2374 32.3795C14.2534 32.1265 14.3171 31.8874 14.4287 31.6622C14.5589 31.3994 14.7448 31.1863 14.9862 31.023C15.2301 30.8572 15.5189 30.7744 15.8527 30.7744C16.1557 30.7744 16.4185 30.8442 16.6411 30.9839C16.866 31.1236 17.0388 31.3142 17.1595 31.5556C17.2826 31.7971 17.3442 32.0717 17.3442 32.3795H14.2374Z" fill="#55B3FF"/>
<path d="M21.8435 30.8028V30.0926H20.6787V28.7857H19.8406V30.0926H19.0168V30.8028H19.8406V34.2119C19.8406 34.5291 19.914 34.7919 20.0608 35.0002C20.21 35.2086 20.397 35.3636 20.6219 35.4654C20.8492 35.5672 21.0812 35.6181 21.3179 35.6181C21.4742 35.6181 21.6032 35.6063 21.705 35.5826C21.8068 35.5613 21.8861 35.54 21.9429 35.5187L21.7725 34.7659L21.6304 34.7943C21.5712 34.8037 21.4955 34.8085 21.4031 34.8085C21.28 34.8085 21.1628 34.7895 21.0516 34.7517C20.9427 34.7114 20.8527 34.6333 20.7817 34.5173C20.713 34.3989 20.6787 34.2214 20.6787 33.9846V30.8028H21.8435Z" fill="#55B3FF"/>
<path fill-rule="evenodd" clip-rule="evenodd" d="M23.9724 35.3127C24.3535 35.5447 24.8069 35.6607 25.3325 35.6607C25.7018 35.6607 26.0344 35.6039 26.3303 35.4903C26.6263 35.3743 26.8749 35.2133 27.0761 35.0073C27.2773 34.799 27.4205 34.5575 27.5058 34.2829L26.6961 34.0556C26.6251 34.245 26.5245 34.4036 26.3943 34.5315C26.2641 34.657 26.109 34.7517 25.9291 34.8156C25.7515 34.8771 25.5526 34.9079 25.3325 34.9079C24.9939 34.9079 24.6968 34.8345 24.4411 34.6877C24.1855 34.5386 23.9854 34.322 23.841 34.0379C23.7122 33.7781 23.6418 33.4668 23.6298 33.1039H27.591V32.7488C27.591 32.2398 27.5235 31.8113 27.3886 31.4633C27.2536 31.1153 27.0725 30.8359 26.8453 30.6252C26.618 30.4122 26.3659 30.2583 26.0889 30.1636C25.8119 30.0689 25.5313 30.0215 25.2472 30.0215C24.7548 30.0215 24.324 30.1423 23.9546 30.3838C23.5877 30.6229 23.3012 30.9567 23.0953 31.3852C22.8917 31.8113 22.7899 32.3037 22.7899 32.8624C22.7899 33.4212 22.8917 33.9112 23.0953 34.3326C23.3012 34.7517 23.5936 35.0784 23.9724 35.3127ZM23.6319 32.3795C23.6479 32.1265 23.7117 31.8874 23.8232 31.6622C23.9535 31.3994 24.1393 31.1863 24.3808 31.023C24.6246 30.8572 24.9134 30.7744 25.2472 30.7744C25.5503 30.7744 25.8131 30.8442 26.0356 30.9839C26.2605 31.1236 26.4333 31.3142 26.5541 31.5556C26.6772 31.7971 26.7387 32.0717 26.7387 32.3795H23.6319Z" fill="#55B3FF"/>
<path d="M28.8659 30.0926V35.5471H29.7039V32.0954C29.7039 31.8492 29.7631 31.6302 29.8815 31.4384C30.0022 31.2443 30.1656 31.0928 30.3715 30.9839C30.5799 30.8726 30.8166 30.817 31.0818 30.817C31.193 30.817 31.2984 30.8253 31.3978 30.8419C31.4996 30.8561 31.5647 30.8667 31.5931 30.8738V30.0215C31.5458 30.0168 31.4759 30.0133 31.3836 30.0109C31.2913 30.0085 31.2143 30.0073 31.1528 30.0073C30.8261 30.0073 30.5325 30.0914 30.2721 30.2595C30.0117 30.4276 29.8318 30.6465 29.7323 30.9164H29.6755V30.0926H28.8659Z" fill="#55B3FF"/>
<path fill-rule="evenodd" clip-rule="evenodd" d="M33.2506 35.4796C33.5323 35.6098 33.846 35.6749 34.1917 35.6749C34.5089 35.6749 34.7776 35.6276 34.9978 35.5329C35.218 35.4382 35.3943 35.3234 35.5269 35.1884C35.6595 35.0535 35.7542 34.9268 35.811 34.8085H35.8536V35.5471H36.6917V31.9534C36.6917 31.5201 36.6207 31.1745 36.4786 30.9164C36.3366 30.6584 36.1578 30.4654 35.9424 30.3376C35.7293 30.2098 35.508 30.1257 35.2783 30.0855C35.051 30.0428 34.8498 30.0215 34.6746 30.0215C34.4 30.0215 34.1207 30.0594 33.8366 30.1352C33.5548 30.2086 33.2944 30.3388 33.0553 30.5258C32.8186 30.7105 32.6292 30.9685 32.4871 31.2999L33.2826 31.584C33.3749 31.3852 33.5347 31.1982 33.762 31.023C33.9893 30.8478 34.3029 30.7602 34.703 30.7602C35.0889 30.7602 35.3766 30.8572 35.566 31.0514C35.7577 31.2455 35.8536 31.5178 35.8536 31.8681V31.8965C35.8536 32.0315 35.8051 32.1262 35.708 32.1806C35.6133 32.2351 35.4618 32.2741 35.2535 32.2978C35.0475 32.3191 34.7788 32.3511 34.4474 32.3937C34.194 32.4268 33.9419 32.4718 33.691 32.5286C33.4424 32.5831 33.2151 32.666 33.0091 32.7772C32.8032 32.8885 32.6386 33.0424 32.5155 33.2389C32.3924 33.433 32.3309 33.6863 32.3309 33.9988C32.3309 34.3539 32.4137 34.657 32.5795 34.9079C32.7452 35.1565 32.9689 35.3471 33.2506 35.4796ZM35.1576 34.7268C34.9303 34.857 34.651 34.9221 34.3195 34.9221C33.9857 34.9221 33.7099 34.8487 33.4921 34.7019C33.2767 34.5528 33.1689 34.3326 33.1689 34.0414C33.1689 33.8284 33.2258 33.6603 33.3394 33.5372C33.4554 33.4117 33.6069 33.3182 33.7939 33.2566C33.9833 33.1927 34.1869 33.1465 34.4047 33.1181C34.4947 33.1063 34.6119 33.0921 34.7563 33.0755C34.9031 33.0566 35.0534 33.0353 35.2073 33.0116C35.3635 32.9856 35.5009 32.956 35.6192 32.9228C35.74 32.8873 35.8181 32.8482 35.8536 32.8056V33.5727C35.8536 33.7999 35.7944 34.0166 35.676 34.2225C35.56 34.4285 35.3872 34.5966 35.1576 34.7268Z" fill="#55B3FF"/>
</svg>
