<svg width="27" height="38" viewBox="0 0 27 38" fill="none" xmlns="http://www.w3.org/2000/svg">
<path fill-rule="evenodd" clip-rule="evenodd" d="M13.9571 0.243837C13.6005 -0.0187788 13.1145 -0.0187788 12.7578 0.243837L3.87977 6.78133C2.84441 7.54372 2.23316 8.75292 2.23316 10.0387V20.7786C2.23316 22.7334 3.81788 24.3181 5.77272 24.3181H9.31228C10.4293 24.3181 11.3349 23.4126 11.3349 22.2955V16.7334H15.3801V22.2955C15.3801 23.4126 16.2857 24.3181 17.4027 24.3181H20.9423C22.8971 24.3181 24.4818 22.7334 24.4818 20.7786V10.0387C24.4818 8.75292 23.8706 7.54372 22.8352 6.78133L13.9571 0.243837ZM5.07907 8.41001L13.3575 2.31408L21.6359 8.41001C22.1536 8.79121 22.4592 9.39581 22.4592 10.0387V20.7786C22.4592 21.6164 21.7801 22.2955 20.9423 22.2955H17.4027V16.2277C17.4027 15.3899 16.7235 14.7108 15.8857 14.7108H10.8292C9.99145 14.7108 9.31228 15.3899 9.31228 16.2277V22.2955H5.77272C4.93493 22.2955 4.25577 21.6164 4.25577 20.7786V10.0387C4.25577 9.39581 4.56139 8.79121 5.07907 8.41001Z" fill="#CFD1DE"/>
<path d="M0.297852 29.7741V37.0469H1.17854V33.794H5.05638V37.0469H5.93706V29.7741H5.05638V33.0128H1.17854V29.7741H0.297852Z" fill="#CFD1DE"/>
<path fill-rule="evenodd" clip-rule="evenodd" d="M8.5063 36.8089C8.87799 37.0433 9.31005 37.1605 9.80247 37.1605C10.2949 37.1605 10.7258 37.0433 11.0951 36.8089C11.4668 36.5746 11.7556 36.2467 11.9616 35.8253C12.1699 35.4039 12.2741 34.9115 12.2741 34.348C12.2741 33.7798 12.1699 33.2839 11.9616 32.8601C11.7556 32.4363 11.4668 32.1072 11.0951 31.8729C10.7258 31.6385 10.2949 31.5213 9.80247 31.5213C9.31005 31.5213 8.87799 31.6385 8.5063 31.8729C8.13699 32.1072 7.84816 32.4363 7.63983 32.8601C7.43386 33.2839 7.33088 33.7798 7.33088 34.348C7.33088 34.9115 7.43386 35.4039 7.63983 35.8253C7.84816 36.2467 8.13699 36.5746 8.5063 36.8089ZM10.7258 36.12C10.4843 36.3118 10.1765 36.4077 9.80247 36.4077C9.42842 36.4077 9.12065 36.3118 8.87917 36.12C8.6377 35.9283 8.45896 35.6761 8.34295 35.3636C8.22695 35.0511 8.16895 34.7126 8.16895 34.348C8.16895 33.9834 8.22695 33.6437 8.34295 33.3288C8.45896 33.014 8.6377 32.7595 8.87917 32.5653C9.12065 32.3712 9.42842 32.2741 9.80247 32.2741C10.1765 32.2741 10.4843 32.3712 10.7258 32.5653C10.9672 32.7595 11.146 33.014 11.262 33.3288C11.378 33.6437 11.436 33.9834 11.436 34.348C11.436 34.7126 11.378 35.0511 11.262 35.3636C11.146 35.6761 10.9672 35.9283 10.7258 36.12Z" fill="#CFD1DE"/>
<path d="M13.5534 31.5923V37.0469H14.3914V33.6378C14.3914 33.3703 14.4482 33.1347 14.5619 32.9311C14.6779 32.7251 14.8294 32.5642 15.0164 32.4482C15.2058 32.3321 15.4094 32.2741 15.6272 32.2741C15.9445 32.2741 16.2037 32.37 16.4049 32.5618C16.6062 32.7512 16.7068 33.0009 16.7068 33.3111V37.0469H17.559V33.4957C17.559 33.143 17.6644 32.8518 17.8751 32.6222C18.0858 32.3902 18.3829 32.2741 18.7664 32.2741C19.0647 32.2741 19.324 32.3606 19.5441 32.5334C19.7643 32.7062 19.8744 32.9938 19.8744 33.3963V37.0469H20.7124V33.3963C20.7124 32.7547 20.5574 32.2824 20.2472 31.9794C19.9371 31.674 19.5382 31.5213 19.0505 31.5213C18.6599 31.5213 18.3249 31.6054 18.0455 31.7734C17.7662 31.9392 17.5567 32.1629 17.417 32.4446H17.3602C17.2252 32.1534 17.037 31.9273 16.7955 31.7663C16.5564 31.603 16.257 31.5213 15.8971 31.5213C15.542 31.5213 15.2378 31.603 14.9845 31.7663C14.7312 31.9273 14.5477 32.1534 14.434 32.4446H14.363V31.5923H13.5534Z" fill="#CFD1DE"/>
<path fill-rule="evenodd" clip-rule="evenodd" d="M23.1716 36.8125C23.5528 37.0445 24.0061 37.1605 24.5317 37.1605C24.901 37.1605 25.2336 37.1037 25.5296 36.9901C25.8255 36.8741 26.0741 36.7131 26.2753 36.5071C26.4765 36.2988 26.6198 36.0573 26.705 35.7827L25.8953 35.5554C25.8243 35.7448 25.7237 35.9034 25.5935 36.0312C25.4633 36.1567 25.3082 36.2514 25.1283 36.3153C24.9507 36.3769 24.7519 36.4077 24.5317 36.4077C24.1932 36.4077 23.896 36.3343 23.6404 36.1875C23.3847 36.0384 23.1846 35.8217 23.0402 35.5376C22.9114 35.2779 22.841 34.9666 22.829 34.6037H26.7902V34.2486C26.7902 33.7396 26.7227 33.3111 26.5878 32.9631C26.4529 32.6151 26.2718 32.3357 26.0445 32.125C25.8172 31.9119 25.5651 31.758 25.2881 31.6634C25.0111 31.5687 24.7306 31.5213 24.4465 31.5213C23.954 31.5213 23.5232 31.642 23.1539 31.8835C22.7869 32.1226 22.5004 32.4564 22.2945 32.8849C22.0909 33.3111 21.9891 33.8035 21.9891 34.3622C21.9891 34.9209 22.0909 35.411 22.2945 35.8324C22.5004 36.2514 22.7928 36.5781 23.1716 36.8125ZM22.8311 33.8793C22.8471 33.6262 22.9109 33.3871 23.0225 33.1619C23.1527 32.8991 23.3385 32.6861 23.58 32.5227C23.8238 32.357 24.1127 32.2741 24.4465 32.2741C24.7495 32.2741 25.0123 32.344 25.2348 32.4837C25.4597 32.6233 25.6325 32.8139 25.7533 33.0554C25.8764 33.2969 25.9379 33.5715 25.9379 33.8793H22.8311Z" fill="#CFD1DE"/>
</svg>
