<svg width="47" height="40" viewBox="0 0 47 40" fill="none" xmlns="http://www.w3.org/2000/svg">
<path fill-rule="evenodd" clip-rule="evenodd" d="M29.063 2.02261H28.8904C28.4739 0.844244 27.3501 0 26.0291 0H19.9613C18.6403 0 17.5165 0.844243 17.1 2.02261H16.9274C14.6933 2.02261 12.8822 3.8337 12.8822 6.06781V20.2261C12.8822 22.4602 14.6933 24.2713 16.9274 24.2713H29.063C31.2971 24.2713 33.1082 22.4602 33.1082 20.2261V6.06782C33.1082 3.83371 31.2971 2.02261 29.063 2.02261ZM14.9048 6.06781C14.9048 4.95076 15.8103 4.04521 16.9274 4.04521C16.9274 5.72079 18.2857 7.07912 19.9613 7.07912H26.0291C27.7047 7.07912 29.063 5.72079 29.063 4.04521C30.1801 4.04521 31.0856 4.95076 31.0856 6.06782V20.2261C31.0856 21.3431 30.1801 22.2487 29.063 22.2487H16.9274C15.8103 22.2487 14.9048 21.3431 14.9048 20.2261V6.06781ZM19.9613 2.02261C19.4028 2.02261 18.95 2.47538 18.95 3.03391V4.04521C18.95 4.60374 19.4028 5.05651 19.9613 5.05651H26.0291C26.5876 5.05651 27.0404 4.60374 27.0404 4.04521V3.03391C27.0404 2.47538 26.5876 2.02261 26.0291 2.02261H19.9613Z" fill="#CFD1DE"/>
<path fill-rule="evenodd" clip-rule="evenodd" d="M0.267578 29.7273V37H1.14826V34.3438H2.73917C3.30498 34.3438 3.769 34.2408 4.13121 34.0348C4.49343 33.8265 4.76095 33.5471 4.93377 33.1967C5.10896 32.8464 5.19656 32.4569 5.19656 32.0284C5.19656 31.5999 5.10896 31.2116 4.93377 30.8636C4.75858 30.5156 4.4887 30.2398 4.12411 30.0362C3.7619 29.8303 3.29551 29.7273 2.72496 29.7273H0.267578ZM1.14826 33.5625H2.71076C3.10139 33.5625 3.41507 33.495 3.65181 33.3601C3.88855 33.2251 4.06019 33.0429 4.16673 32.8132C4.27563 32.5812 4.33008 32.3196 4.33008 32.0284C4.33008 31.7372 4.27563 31.4768 4.16673 31.2472C4.06019 31.0175 3.88737 30.8376 3.64826 30.7074C3.40915 30.5748 3.09192 30.5085 2.69656 30.5085H1.14826V33.5625Z" fill="#CFD1DE"/>
<path d="M6.5016 31.5455V37H7.33967V33.5483C7.33967 33.3021 7.39885 33.0831 7.51722 32.8913C7.63796 32.6972 7.80131 32.5457 8.00728 32.4368C8.21561 32.3255 8.45236 32.2699 8.71751 32.2699C8.82878 32.2699 8.93413 32.2782 9.03356 32.2947C9.13536 32.3089 9.20046 32.3196 9.22887 32.3267V31.4744C9.18152 31.4697 9.11168 31.4661 9.01935 31.4638C8.92702 31.4614 8.85008 31.4602 8.78853 31.4602C8.46183 31.4602 8.16826 31.5443 7.90785 31.7124C7.64743 31.8804 7.46751 32.0994 7.36808 32.3693H7.31126V31.5455H6.5016Z" fill="#CFD1DE"/>
<path fill-rule="evenodd" clip-rule="evenodd" d="M10.976 36.7621C11.3477 36.9964 11.7798 37.1136 12.2722 37.1136C12.7646 37.1136 13.1955 36.9964 13.5648 36.7621C13.9365 36.5277 14.2253 36.1998 14.4313 35.7784C14.6396 35.357 14.7438 34.8646 14.7438 34.3011C14.7438 33.733 14.6396 33.237 14.4313 32.8132C14.2253 32.3894 13.9365 32.0604 13.5648 31.826C13.1955 31.5916 12.7646 31.4744 12.2722 31.4744C11.7798 31.4744 11.3477 31.5916 10.976 31.826C10.6067 32.0604 10.3179 32.3894 10.1096 32.8132C9.90359 33.237 9.8006 33.733 9.8006 34.3011C9.8006 34.8646 9.90359 35.357 10.1096 35.7784C10.3179 36.1998 10.6067 36.5277 10.976 36.7621ZM13.1955 36.0732C12.954 36.2649 12.6462 36.3608 12.2722 36.3608C11.8981 36.3608 11.5904 36.2649 11.3489 36.0732C11.1074 35.8814 10.9287 35.6293 10.8127 35.3168C10.6967 35.0043 10.6387 34.6657 10.6387 34.3011C10.6387 33.9366 10.6967 33.5968 10.8127 33.282C10.9287 32.9671 11.1074 32.7126 11.3489 32.5185C11.5904 32.3243 11.8981 32.2273 12.2722 32.2273C12.6462 32.2273 12.954 32.3243 13.1955 32.5185C13.437 32.7126 13.6157 32.9671 13.7317 33.282C13.8477 33.5968 13.9057 33.9366 13.9057 34.3011C13.9057 34.6657 13.8477 35.0043 13.7317 35.3168C13.6157 35.6293 13.437 35.8814 13.1955 36.0732Z" fill="#CFD1DE"/>
<path d="M15.9876 39.0099C16.0988 39.0336 16.2255 39.0455 16.3675 39.0455C16.6209 39.0455 16.8481 39.0005 17.0494 38.9105C17.253 38.8205 17.4317 38.6821 17.5856 38.495C17.7395 38.3104 17.8685 38.0772 17.9727 37.7955L20.288 31.5455H19.3789L17.8732 35.892H17.8164L16.3107 31.5455H15.4016L17.4187 37.0284L17.2624 37.4545C17.1606 37.7315 17.0482 37.9316 16.9251 38.0547C16.8043 38.1802 16.6658 38.25 16.5096 38.2642C16.3533 38.2784 16.1734 38.2595 15.9698 38.2074L15.7567 38.946C15.7994 38.9673 15.8763 38.9886 15.9876 39.0099Z" fill="#CFD1DE"/>
<path fill-rule="evenodd" clip-rule="evenodd" d="M22.1257 36.7656C22.5069 36.9976 22.9602 37.1136 23.4858 37.1136C23.8551 37.1136 24.1877 37.0568 24.4837 36.9432C24.7796 36.8272 25.0282 36.6662 25.2294 36.4602C25.4306 36.2519 25.5739 36.0104 25.6591 35.7358L24.8494 35.5085C24.7784 35.6979 24.6778 35.8565 24.5476 35.9844C24.4174 36.1098 24.2623 36.2045 24.0824 36.2685C23.9048 36.33 23.706 36.3608 23.4858 36.3608C23.1473 36.3608 22.8501 36.2874 22.5945 36.1406C22.3388 35.9915 22.1387 35.7749 21.9943 35.4908C21.8655 35.231 21.7951 34.9197 21.7831 34.5568H25.7443V34.2017C25.7443 33.6927 25.6768 33.2642 25.5419 32.9162C25.407 32.5682 25.2259 32.2888 24.9986 32.0781C24.7713 31.8651 24.5192 31.7112 24.2422 31.6165C23.9652 31.5218 23.6847 31.4744 23.4006 31.4744C22.9081 31.4744 22.4773 31.5952 22.108 31.8366C21.741 32.0758 21.4545 32.4096 21.2486 32.8381C21.045 33.2642 20.9432 33.7566 20.9432 34.3153C20.9432 34.8741 21.045 35.3641 21.2486 35.7855C21.4545 36.2045 21.7469 36.5312 22.1257 36.7656ZM21.7852 33.8324C21.8012 33.5794 21.865 33.3403 21.9766 33.1151C22.1068 32.8523 22.2926 32.6392 22.5341 32.4759C22.7779 32.3101 23.0668 32.2273 23.4006 32.2273C23.7036 32.2273 23.9664 32.2971 24.1889 32.4368C24.4138 32.5765 24.5866 32.767 24.7074 33.0085C24.8305 33.25 24.892 33.5246 24.892 33.8324H21.7852Z" fill="#CFD1DE"/>
<path d="M27.9141 36.7514C28.2834 36.9929 28.7237 37.1136 29.2351 37.1136C29.6375 37.1136 29.9903 37.0391 30.2933 36.8899C30.5987 36.7384 30.8438 36.5348 31.0284 36.2791C31.2154 36.0211 31.3326 35.7311 31.38 35.4091H30.5419C30.4898 35.608 30.4022 35.7784 30.2791 35.9205C30.156 36.0625 30.0057 36.1714 29.8281 36.2472C29.6506 36.3229 29.4529 36.3608 29.2351 36.3608C28.9036 36.3608 28.6148 36.2744 28.3686 36.1016C28.1248 35.9287 27.9354 35.6861 27.8004 35.3736C27.6679 35.0611 27.6016 34.6941 27.6016 34.2727C27.6016 33.8608 27.669 33.5021 27.804 33.1967C27.9413 32.889 28.1319 32.651 28.3757 32.483C28.6219 32.3125 28.9084 32.2273 29.2351 32.2273C29.6044 32.2273 29.898 32.3243 30.1158 32.5185C30.3359 32.7102 30.478 32.9304 30.5419 33.179H31.38C31.3326 32.8381 31.2107 32.5398 31.0142 32.2841C30.8177 32.0284 30.5656 31.8295 30.2578 31.6875C29.95 31.5455 29.6044 31.4744 29.2209 31.4744C28.7285 31.4744 28.2976 31.5952 27.9283 31.8366C27.5613 32.0758 27.2749 32.4084 27.0689 32.8345C26.8653 33.2583 26.7635 33.7472 26.7635 34.3011C26.7635 34.8456 26.8629 35.3298 27.0618 35.7536C27.2607 36.1773 27.5447 36.5099 27.9141 36.7514Z" fill="#CFD1DE"/>
<path d="M34.9773 32.2557V31.5455H33.8125V30.2386H32.9744V31.5455H32.1506V32.2557H32.9744V35.6648C32.9744 35.982 33.0478 36.2448 33.1946 36.4531C33.3438 36.6615 33.5308 36.8165 33.7557 36.9183C33.983 37.0201 34.215 37.071 34.4517 37.071C34.608 37.071 34.737 37.0592 34.8388 37.0355C34.9406 37.0142 35.0199 36.9929 35.0767 36.9716L34.9062 36.2188L34.7642 36.2472C34.705 36.2566 34.6293 36.2614 34.5369 36.2614C34.4138 36.2614 34.2966 36.2424 34.1854 36.2045C34.0765 36.1643 33.9865 36.0862 33.9155 35.9702C33.8468 35.8518 33.8125 35.6742 33.8125 35.4375V32.2557H34.9773Z" fill="#CFD1DE"/>
<path fill-rule="evenodd" clip-rule="evenodd" d="M37.0991 36.7621C37.4708 36.9964 37.9028 37.1136 38.3952 37.1136C38.8877 37.1136 39.3185 36.9964 39.6879 36.7621C40.0595 36.5277 40.3484 36.1998 40.5543 35.7784C40.7627 35.357 40.8668 34.8646 40.8668 34.3011C40.8668 33.733 40.7627 33.237 40.5543 32.8132C40.3484 32.3894 40.0595 32.0604 39.6879 31.826C39.3185 31.5916 38.8877 31.4744 38.3952 31.4744C37.9028 31.4744 37.4708 31.5916 37.0991 31.826C36.7298 32.0604 36.4409 32.3894 36.2326 32.8132C36.0266 33.237 35.9237 33.733 35.9237 34.3011C35.9237 34.8646 36.0266 35.357 36.2326 35.7784C36.4409 36.1998 36.7298 36.5277 37.0991 36.7621ZM39.3185 36.0732C39.0771 36.2649 38.7693 36.3608 38.3952 36.3608C38.0212 36.3608 37.7134 36.2649 37.4719 36.0732C37.2305 35.8814 37.0517 35.6293 36.9357 35.3168C36.8197 35.0043 36.7617 34.6657 36.7617 34.3011C36.7617 33.9366 36.8197 33.5968 36.9357 33.282C37.0517 32.9671 37.2305 32.7126 37.4719 32.5185C37.7134 32.3243 38.0212 32.2273 38.3952 32.2273C38.7693 32.2273 39.0771 32.3243 39.3185 32.5185C39.56 32.7126 39.7388 32.9671 39.8548 33.282C39.9708 33.5968 40.0288 33.9366 40.0288 34.3011C40.0288 34.6657 39.9708 35.0043 39.8548 35.3168C39.7388 35.6293 39.56 35.8814 39.3185 36.0732Z" fill="#CFD1DE"/>
<path d="M45.2569 32.9801L46.0098 32.767C45.8796 32.3788 45.6594 32.0663 45.3493 31.8295C45.0415 31.5928 44.6177 31.4744 44.0779 31.4744C43.6944 31.4744 43.3512 31.5419 43.0481 31.6768C42.7475 31.8118 42.5095 31.9976 42.3343 32.2344C42.1615 32.4711 42.0751 32.7434 42.0751 33.0511C42.0751 33.4276 42.1911 33.7412 42.4231 33.9922C42.6575 34.2408 43.0244 34.4242 43.524 34.5426L44.4331 34.7557C44.7077 34.8196 44.9113 34.9167 45.0439 35.0469C45.1764 35.1747 45.2427 35.3333 45.2427 35.5227C45.2427 35.7571 45.1267 35.9583 44.8947 36.1264C44.6651 36.2921 44.3549 36.375 43.9643 36.375C43.621 36.375 43.3429 36.3016 43.1298 36.1548C42.9191 36.008 42.7759 35.7879 42.7001 35.4943L41.9047 35.6932C42.0017 36.1572 42.2325 36.5099 42.5971 36.7514C42.9617 36.9929 43.4222 37.1136 43.9785 37.1136C44.4023 37.1136 44.774 37.0426 45.0936 36.9006C45.4132 36.7585 45.6618 36.5644 45.8393 36.3182C46.0192 36.072 46.1092 35.7926 46.1092 35.4801C46.1092 35.099 45.9896 34.7876 45.7505 34.5462C45.5114 34.3023 45.148 34.1212 44.6603 34.0028L43.8507 33.804C43.5287 33.7235 43.292 33.6229 43.1404 33.5021C42.9889 33.3814 42.9132 33.2169 42.9132 33.0085C42.9132 32.7741 43.0233 32.5812 43.2434 32.4297C43.466 32.2758 43.7441 32.1989 44.0779 32.1989C44.3218 32.1989 44.5218 32.2379 44.6781 32.3161C44.8343 32.3942 44.9574 32.4936 45.0474 32.6143C45.1397 32.7327 45.2096 32.8546 45.2569 32.9801Z" fill="#CFD1DE"/>
</svg>
