<svg width="24" height="37" viewBox="0 0 24 37" fill="none" xmlns="http://www.w3.org/2000/svg">
<path fill-rule="evenodd" clip-rule="evenodd" d="M7.28967 6.12641C7.28967 2.77525 10.0063 0.0585938 13.3575 0.0585938C16.7087 0.0585938 19.4253 2.77525 19.4253 6.12641C19.4253 9.47757 16.7087 12.1942 13.3575 12.1942C10.0063 12.1942 7.28967 9.47757 7.28967 6.12641ZM13.3575 2.0812C11.1234 2.0812 9.31228 3.8923 9.31228 6.12641C9.31228 8.36052 11.1234 10.1716 13.3575 10.1716C15.5916 10.1716 17.4027 8.36052 17.4027 6.12641C17.4027 3.8923 15.5916 2.0812 13.3575 2.0812Z" fill="#CFD1DE"/>
<path d="M13.3575 16.7451C10.9578 16.7451 8.68399 17.2782 7.12786 17.7585C6.23712 18.0335 5.58258 18.8402 5.4224 19.87L5.25505 20.9457C5.1692 21.4976 4.65221 21.8754 4.10032 21.7896C3.54843 21.7037 3.17063 21.1867 3.25648 20.6349L3.42383 19.5591C3.68551 17.8768 4.79946 16.3605 6.53127 15.8259C8.19413 15.3126 10.6815 14.7225 13.3575 14.7225C16.0335 14.7225 18.5209 15.3126 20.1837 15.8259C21.9155 16.3605 23.0295 17.8768 23.2912 19.5591L23.4585 20.6349C23.5444 21.1867 23.1666 21.7037 22.6147 21.7896C22.0628 21.8754 21.5458 21.4976 21.4599 20.9457L21.2926 19.87C21.1324 18.8402 20.4779 18.0335 19.5871 17.7586C18.031 17.2782 15.7572 16.7451 13.3575 16.7451Z" fill="#CFD1DE"/>
<path fill-rule="evenodd" clip-rule="evenodd" d="M0.977539 28.7746V36.0473H1.85822V33.391H3.44913C4.01494 33.391 4.47896 33.2881 4.84118 33.0821C5.20339 32.8738 5.47091 32.5944 5.64373 32.244C5.81892 31.8936 5.90652 31.5042 5.90652 31.0757C5.90652 30.6472 5.81892 30.2589 5.64373 29.9109C5.46854 29.5629 5.19866 29.2871 4.83407 29.0835C4.47186 28.8775 4.00547 28.7746 3.43493 28.7746H0.977539ZM1.85822 32.6098H3.42072C3.81135 32.6098 4.12503 32.5423 4.36177 32.4074C4.59851 32.2724 4.77015 32.0901 4.87669 31.8605C4.98559 31.6285 5.04004 31.3669 5.04004 31.0757C5.04004 30.7845 4.98559 30.5241 4.87669 30.2944C4.77015 30.0648 4.59733 29.8849 4.35822 29.7547C4.11911 29.6221 3.80188 29.5558 3.40652 29.5558H1.85822V32.6098Z" fill="#CFD1DE"/>
<path fill-rule="evenodd" clip-rule="evenodd" d="M8.07981 35.8129C8.46097 36.0449 8.91433 36.1609 9.4399 36.1609C9.80922 36.1609 10.1418 36.1041 10.4378 35.9905C10.7337 35.8745 10.9823 35.7135 11.1835 35.5075C11.3847 35.2992 11.528 35.0577 11.6132 34.7831L10.8035 34.5558C10.7325 34.7452 10.6319 34.9038 10.5017 35.0317C10.3715 35.1571 10.2164 35.2518 10.0365 35.3158C9.85893 35.3773 9.66007 35.4081 9.4399 35.4081C9.10136 35.4081 8.80424 35.3347 8.54856 35.1879C8.29288 35.0388 8.09283 34.8221 7.94842 34.5381C7.81962 34.2783 7.74922 33.967 7.73721 33.6041H11.6984V33.249C11.6984 32.74 11.6309 32.3115 11.496 31.9635C11.3611 31.6155 11.18 31.3361 10.9527 31.1254C10.7254 30.9123 10.4733 30.7585 10.1963 30.6638C9.9193 30.5691 9.63876 30.5217 9.35467 30.5217C8.86225 30.5217 8.43137 30.6425 8.06206 30.8839C7.69511 31.123 7.40865 31.4569 7.20268 31.8854C6.99908 32.3115 6.89728 32.8039 6.89728 33.3626C6.89728 33.9213 6.99908 34.4114 7.20268 34.8328C7.40865 35.2518 7.70102 35.5785 8.07981 35.8129ZM7.73935 32.8797C7.75531 32.6267 7.81908 32.3876 7.93066 32.1623C8.06087 31.8996 8.24672 31.6865 8.48819 31.5231C8.73204 31.3574 9.02086 31.2746 9.35467 31.2746C9.6577 31.2746 9.92048 31.3444 10.143 31.4841C10.3679 31.6238 10.5407 31.8143 10.6615 32.0558C10.7846 32.2973 10.8461 32.5719 10.8461 32.8797H7.73935Z" fill="#CFD1DE"/>
<path d="M12.9733 30.5927V36.0473H13.8113V32.5956C13.8113 32.3494 13.8705 32.1304 13.9889 31.9386C14.1096 31.7445 14.273 31.593 14.479 31.4841C14.6873 31.3728 14.924 31.3172 15.1892 31.3172C15.3005 31.3172 15.4058 31.3255 15.5052 31.342C15.607 31.3562 15.6721 31.3669 15.7006 31.374V30.5217C15.6532 30.517 15.5834 30.5134 15.491 30.5111C15.3987 30.5087 15.3218 30.5075 15.2602 30.5075C14.9335 30.5075 14.6399 30.5916 14.3795 30.7596C14.1191 30.9277 13.9392 31.1467 13.8398 31.4166H13.7829V30.5927H12.9733Z" fill="#CFD1DE"/>
<path d="M19.4648 31.303V30.5927H18.2432V30.0388C18.2432 29.7689 18.3035 29.5641 18.4243 29.4244C18.5474 29.2847 18.7474 29.2149 19.0244 29.2149C19.1452 29.2149 19.2422 29.2256 19.3156 29.2469C19.3914 29.2682 19.4506 29.2859 19.4932 29.3001L19.7346 28.5757C19.6707 28.5473 19.5737 28.5165 19.4434 28.4834C19.3132 28.4502 19.1452 28.4337 18.9392 28.4337C18.6788 28.4337 18.4314 28.4857 18.197 28.5899C17.9626 28.6941 17.772 28.8503 17.6253 29.0587C17.4785 29.267 17.4051 29.5274 17.4051 29.8399V30.5927H16.5244V31.303H17.4051V36.0473H18.2432V31.303H19.4648Z" fill="#CFD1DE"/>
<path d="M20.6393 30.5927V36.0473H21.4774V30.5927H20.6393Z" fill="#CFD1DE"/>
<path d="M20.6428 29.5168C20.7612 29.628 20.9021 29.6837 21.0654 29.6837C21.2288 29.6837 21.3685 29.628 21.4845 29.5168C21.6028 29.4055 21.662 29.2717 21.662 29.1155C21.662 28.9592 21.6028 28.8255 21.4845 28.7142C21.3685 28.6029 21.2288 28.5473 21.0654 28.5473C20.9021 28.5473 20.7612 28.6029 20.6428 28.7142C20.5268 28.8255 20.4688 28.9592 20.4688 29.1155C20.4688 29.2717 20.5268 29.4055 20.6428 29.5168Z" fill="#CFD1DE"/>
<path d="M23.8504 36.0473V28.7746H23.0123V36.0473H23.8504Z" fill="#CFD1DE"/>
</svg>
