<svg width="47" height="40" viewBox="0 0 47 40" fill="none" xmlns="http://www.w3.org/2000/svg">
<path fill-rule="evenodd" clip-rule="evenodd" d="M29.136 2.02261H28.9634C28.5469 0.844244 27.4231 0 26.1021 0H20.0343C18.7133 0 17.5895 0.844243 17.173 2.02261H17.0004C14.7663 2.02261 12.9552 3.8337 12.9552 6.06781V20.2261C12.9552 22.4602 14.7663 24.2713 17.0004 24.2713H29.136C31.3701 24.2713 33.1812 22.4602 33.1812 20.2261V6.06782C33.1812 3.83371 31.3701 2.02261 29.136 2.02261ZM14.9778 6.06781C14.9778 4.95076 15.8833 4.04521 17.0004 4.04521C17.0004 5.72079 18.3587 7.07912 20.0343 7.07912H26.1021C27.7777 7.07912 29.136 5.72079 29.136 4.04521C30.2531 4.04521 31.1586 4.95076 31.1586 6.06782V20.2261C31.1586 21.3431 30.2531 22.2487 29.136 22.2487H17.0004C15.8833 22.2487 14.9778 21.3431 14.9778 20.2261V6.06781ZM20.0343 2.02261C19.4757 2.02261 19.023 2.47538 19.023 3.03391V4.04521C19.023 4.60374 19.4757 5.05651 20.0343 5.05651H26.1021C26.6606 5.05651 27.1134 4.60374 27.1134 4.04521V3.03391C27.1134 2.47538 26.6606 2.02261 26.1021 2.02261H20.0343Z" fill="#CFD1DE"/>
<path fill-rule="evenodd" clip-rule="evenodd" d="M0.340576 29.7273V37H1.22126V34.3438H2.81217C3.37798 34.3438 3.842 34.2408 4.20421 34.0348C4.56643 33.8265 4.83395 33.5471 5.00677 33.1967C5.18196 32.8464 5.26955 32.4569 5.26955 32.0284C5.26955 31.5999 5.18196 31.2116 5.00677 30.8636C4.83158 30.5156 4.56169 30.2398 4.19711 30.0362C3.83489 29.8303 3.36851 29.7273 2.79796 29.7273H0.340576ZM1.22126 33.5625H2.78376C3.17438 33.5625 3.48807 33.495 3.72481 33.3601C3.96155 33.2251 4.13319 33.0429 4.23972 32.8132C4.34863 32.5812 4.40308 32.3196 4.40308 32.0284C4.40308 31.7372 4.34863 31.4768 4.23972 31.2472C4.13319 31.0175 3.96037 30.8376 3.72126 30.7074C3.48215 30.5748 3.16491 30.5085 2.76955 30.5085H1.22126V33.5625Z" fill="#CFD1DE"/>
<path d="M6.5746 31.5455V37H7.41266V33.5483C7.41266 33.3021 7.47185 33.0831 7.59022 32.8913C7.71096 32.6972 7.87431 32.5457 8.08028 32.4368C8.28861 32.3255 8.52535 32.2699 8.79051 32.2699C8.90177 32.2699 9.00712 32.2782 9.10656 32.2947C9.20836 32.3089 9.27346 32.3196 9.30187 32.3267V31.4744C9.25452 31.4697 9.18468 31.4661 9.09235 31.4638C9.00002 31.4614 8.92308 31.4602 8.86153 31.4602C8.53482 31.4602 8.24126 31.5443 7.98085 31.7124C7.72043 31.8804 7.5405 32.0994 7.44107 32.3693H7.38425V31.5455H6.5746Z" fill="#CFD1DE"/>
<path fill-rule="evenodd" clip-rule="evenodd" d="M11.049 36.7621C11.4207 36.9964 11.8528 37.1136 12.3452 37.1136C12.8376 37.1136 13.2685 36.9964 13.6378 36.7621C14.0095 36.5277 14.2983 36.1998 14.5043 35.7784C14.7126 35.357 14.8168 34.8646 14.8168 34.3011C14.8168 33.733 14.7126 33.237 14.5043 32.8132C14.2983 32.3894 14.0095 32.0604 13.6378 31.826C13.2685 31.5916 12.8376 31.4744 12.3452 31.4744C11.8528 31.4744 11.4207 31.5916 11.049 31.826C10.6797 32.0604 10.3909 32.3894 10.1826 32.8132C9.97658 33.237 9.8736 33.733 9.8736 34.3011C9.8736 34.8646 9.97658 35.357 10.1826 35.7784C10.3909 36.1998 10.6797 36.5277 11.049 36.7621ZM13.2685 36.0732C13.027 36.2649 12.7192 36.3608 12.3452 36.3608C11.9711 36.3608 11.6634 36.2649 11.4219 36.0732C11.1804 35.8814 11.0017 35.6293 10.8857 35.3168C10.7697 35.0043 10.7117 34.6657 10.7117 34.3011C10.7117 33.9366 10.7697 33.5968 10.8857 33.282C11.0017 32.9671 11.1804 32.7126 11.4219 32.5185C11.6634 32.3243 11.9711 32.2273 12.3452 32.2273C12.7192 32.2273 13.027 32.3243 13.2685 32.5185C13.51 32.7126 13.6887 32.9671 13.8047 33.282C13.9207 33.5968 13.9787 33.9366 13.9787 34.3011C13.9787 34.6657 13.9207 35.0043 13.8047 35.3168C13.6887 35.6293 13.51 35.8814 13.2685 36.0732Z" fill="#CFD1DE"/>
<path d="M16.0606 39.0099C16.1718 39.0336 16.2985 39.0455 16.4405 39.0455C16.6939 39.0455 16.9211 39.0005 17.1224 38.9105C17.326 38.8205 17.5047 38.6821 17.6586 38.495C17.8125 38.3104 17.9415 38.0772 18.0457 37.7955L20.361 31.5455H19.4519L17.9462 35.892H17.8894L16.3837 31.5455H15.4746L17.4917 37.0284L17.3354 37.4545C17.2336 37.7315 17.1212 37.9316 16.9981 38.0547C16.8773 38.1802 16.7388 38.25 16.5826 38.2642C16.4263 38.2784 16.2464 38.2595 16.0428 38.2074L15.8297 38.946C15.8724 38.9673 15.9493 38.9886 16.0606 39.0099Z" fill="#CFD1DE"/>
<path fill-rule="evenodd" clip-rule="evenodd" d="M22.1987 36.7656C22.5799 36.9976 23.0332 37.1136 23.5588 37.1136C23.9281 37.1136 24.2607 37.0568 24.5567 36.9432C24.8526 36.8272 25.1012 36.6662 25.3024 36.4602C25.5036 36.2519 25.6469 36.0104 25.7321 35.7358L24.9224 35.5085C24.8514 35.6979 24.7508 35.8565 24.6206 35.9844C24.4904 36.1098 24.3353 36.2045 24.1554 36.2685C23.9778 36.33 23.779 36.3608 23.5588 36.3608C23.2203 36.3608 22.9231 36.2874 22.6675 36.1406C22.4118 35.9915 22.2117 35.7749 22.0673 35.4908C21.9385 35.231 21.8681 34.9197 21.8561 34.5568H25.8173V34.2017C25.8173 33.6927 25.7498 33.2642 25.6149 32.9162C25.48 32.5682 25.2989 32.2888 25.0716 32.0781C24.8443 31.8651 24.5922 31.7112 24.3152 31.6165C24.0382 31.5218 23.7577 31.4744 23.4736 31.4744C22.9811 31.4744 22.5503 31.5952 22.181 31.8366C21.814 32.0758 21.5275 32.4096 21.3216 32.8381C21.118 33.2642 21.0162 33.7566 21.0162 34.3153C21.0162 34.8741 21.118 35.3641 21.3216 35.7855C21.5275 36.2045 21.8199 36.5312 22.1987 36.7656ZM21.8582 33.8324C21.8742 33.5794 21.938 33.3403 22.0496 33.1151C22.1798 32.8523 22.3656 32.6392 22.6071 32.4759C22.8509 32.3101 23.1398 32.2273 23.4736 32.2273C23.7766 32.2273 24.0394 32.2971 24.2619 32.4368C24.4868 32.5765 24.6596 32.767 24.7804 33.0085C24.9035 33.25 24.965 33.5246 24.965 33.8324H21.8582Z" fill="#CFD1DE"/>
<path d="M27.9871 36.7514C28.3564 36.9929 28.7967 37.1136 29.3081 37.1136C29.7105 37.1136 30.0633 37.0391 30.3663 36.8899C30.6717 36.7384 30.9167 36.5348 31.1014 36.2791C31.2884 36.0211 31.4056 35.7311 31.453 35.4091H30.6149C30.5628 35.608 30.4752 35.7784 30.3521 35.9205C30.229 36.0625 30.0787 36.1714 29.9011 36.2472C29.7236 36.3229 29.5259 36.3608 29.3081 36.3608C28.9766 36.3608 28.6878 36.2744 28.4416 36.1016C28.1978 35.9287 28.0084 35.6861 27.8734 35.3736C27.7408 35.0611 27.6746 34.6941 27.6746 34.2727C27.6746 33.8608 27.742 33.5021 27.877 33.1967C28.0143 32.889 28.2049 32.651 28.4487 32.483C28.6949 32.3125 28.9814 32.2273 29.3081 32.2273C29.6774 32.2273 29.971 32.3243 30.1888 32.5185C30.4089 32.7102 30.551 32.9304 30.6149 33.179H31.453C31.4056 32.8381 31.2837 32.5398 31.0872 32.2841C30.8907 32.0284 30.6386 31.8295 30.3308 31.6875C30.023 31.5455 29.6774 31.4744 29.2939 31.4744C28.8015 31.4744 28.3706 31.5952 28.0013 31.8366C27.6343 32.0758 27.3479 32.4084 27.1419 32.8345C26.9383 33.2583 26.8365 33.7472 26.8365 34.3011C26.8365 34.8456 26.9359 35.3298 27.1348 35.7536C27.3337 36.1773 27.6177 36.5099 27.9871 36.7514Z" fill="#CFD1DE"/>
<path d="M35.0503 32.2557V31.5455H33.8855V30.2386H33.0474V31.5455H32.2236V32.2557H33.0474V35.6648C33.0474 35.982 33.1208 36.2448 33.2676 36.4531C33.4167 36.6615 33.6038 36.8165 33.8287 36.9183C34.056 37.0201 34.288 37.071 34.5247 37.071C34.681 37.071 34.81 37.0592 34.9118 37.0355C35.0136 37.0142 35.0929 36.9929 35.1497 36.9716L34.9792 36.2188L34.8372 36.2472C34.778 36.2566 34.7023 36.2614 34.6099 36.2614C34.4868 36.2614 34.3696 36.2424 34.2584 36.2045C34.1495 36.1643 34.0595 36.0862 33.9885 35.9702C33.9198 35.8518 33.8855 35.6742 33.8855 35.4375V32.2557H35.0503Z" fill="#CFD1DE"/>
<path fill-rule="evenodd" clip-rule="evenodd" d="M37.1721 36.7621C37.5438 36.9964 37.9758 37.1136 38.4682 37.1136C38.9607 37.1136 39.3915 36.9964 39.7609 36.7621C40.1325 36.5277 40.4214 36.1998 40.6273 35.7784C40.8357 35.357 40.9398 34.8646 40.9398 34.3011C40.9398 33.733 40.8357 33.237 40.6273 32.8132C40.4214 32.3894 40.1325 32.0604 39.7609 31.826C39.3915 31.5916 38.9607 31.4744 38.4682 31.4744C37.9758 31.4744 37.5438 31.5916 37.1721 31.826C36.8028 32.0604 36.5139 32.3894 36.3056 32.8132C36.0996 33.237 35.9967 33.733 35.9967 34.3011C35.9967 34.8646 36.0996 35.357 36.3056 35.7784C36.5139 36.1998 36.8028 36.5277 37.1721 36.7621ZM39.3915 36.0732C39.1501 36.2649 38.8423 36.3608 38.4682 36.3608C38.0942 36.3608 37.7864 36.2649 37.5449 36.0732C37.3035 35.8814 37.1247 35.6293 37.0087 35.3168C36.8927 35.0043 36.8347 34.6657 36.8347 34.3011C36.8347 33.9366 36.8927 33.5968 37.0087 33.282C37.1247 32.9671 37.3035 32.7126 37.5449 32.5185C37.7864 32.3243 38.0942 32.2273 38.4682 32.2273C38.8423 32.2273 39.1501 32.3243 39.3915 32.5185C39.633 32.7126 39.8118 32.9671 39.9278 33.282C40.0438 33.5968 40.1018 33.9366 40.1018 34.3011C40.1018 34.6657 40.0438 35.0043 39.9278 35.3168C39.8118 35.6293 39.633 35.8814 39.3915 36.0732Z" fill="#CFD1DE"/>
<path d="M45.3299 32.9801L46.0828 32.767C45.9526 32.3788 45.7324 32.0663 45.4223 31.8295C45.1145 31.5928 44.6907 31.4744 44.1509 31.4744C43.7674 31.4744 43.4241 31.5419 43.1211 31.6768C42.8205 31.8118 42.5825 31.9976 42.4073 32.2344C42.2345 32.4711 42.1481 32.7434 42.1481 33.0511C42.1481 33.4276 42.2641 33.7412 42.4961 33.9922C42.7305 34.2408 43.0974 34.4242 43.597 34.5426L44.5061 34.7557C44.7807 34.8196 44.9843 34.9167 45.1169 35.0469C45.2494 35.1747 45.3157 35.3333 45.3157 35.5227C45.3157 35.7571 45.1997 35.9583 44.9677 36.1264C44.7381 36.2921 44.4279 36.375 44.0373 36.375C43.694 36.375 43.4159 36.3016 43.2028 36.1548C42.9921 36.008 42.8489 35.7879 42.7731 35.4943L41.9777 35.6932C42.0747 36.1572 42.3055 36.5099 42.6701 36.7514C43.0347 36.9929 43.4952 37.1136 44.0515 37.1136C44.4753 37.1136 44.847 37.0426 45.1666 36.9006C45.4862 36.7585 45.7348 36.5644 45.9123 36.3182C46.0922 36.072 46.1822 35.7926 46.1822 35.4801C46.1822 35.099 46.0626 34.7876 45.8235 34.5462C45.5844 34.3023 45.221 34.1212 44.7333 34.0028L43.9237 33.804C43.6017 33.7235 43.365 33.6229 43.2134 33.5021C43.0619 33.3814 42.9862 33.2169 42.9862 33.0085C42.9862 32.7741 43.0963 32.5812 43.3164 32.4297C43.539 32.2758 43.8171 32.1989 44.1509 32.1989C44.3948 32.1989 44.5948 32.2379 44.7511 32.3161C44.9073 32.3942 45.0304 32.4936 45.1204 32.6143C45.2127 32.7327 45.2826 32.8546 45.3299 32.9801Z" fill="#CFD1DE"/>
</svg>
