<svg width="6" height="12" viewBox="0 0 6 12" fill="none" xmlns="http://www.w3.org/2000/svg">
<path fill-rule="evenodd" clip-rule="evenodd" d="M2.11151 1.23726C2.11151 0.93903 2.35327 0.697266 2.6515 0.697266C2.94973 0.697266 3.1915 0.939029 3.1915 1.23726V1.79143C4.31864 2.0266 5.16749 3.05865 5.16749 4.2962C5.16749 4.74456 4.81682 5.10802 4.38426 5.10802C3.95169 5.10802 3.60102 4.74456 3.60102 4.2962C3.60102 3.78179 3.19869 3.36478 2.7024 3.36478C2.2061 3.36478 1.80378 3.78179 1.80378 4.2962C1.80378 4.81061 2.2061 5.22762 2.7024 5.22762C2.71235 5.22762 2.72225 5.22781 2.73211 5.22819C4.08003 5.24448 5.16788 6.3821 5.16788 7.78307C5.16788 9.02077 4.31882 10.0529 3.19149 10.2879L3.19149 10.8897C3.19149 11.188 2.94972 11.4297 2.65149 11.4297C2.35326 11.4297 2.1115 11.188 2.1115 10.8897L2.1115 10.2642C1.03563 9.98963 0.23769 8.98293 0.23769 7.78307C0.23769 7.33472 0.588356 6.97125 1.02093 6.97125C1.45349 6.97125 1.80416 7.33472 1.80416 7.78307C1.80416 8.29748 2.20649 8.71449 2.70278 8.71449C3.19908 8.71449 3.60141 8.29748 3.60141 7.78307C3.60141 7.26866 3.19908 6.85165 2.70278 6.85165C2.69283 6.85165 2.68293 6.85146 2.67307 6.85108C1.32515 6.83479 0.237305 5.69717 0.237305 4.2962C0.237305 3.09619 1.03544 2.0894 2.11151 1.81502V1.23726Z" fill="#55B3FF"/>
</svg>
