<svg width="27" height="38" viewBox="0 0 27 38" fill="none" xmlns="http://www.w3.org/2000/svg">
<path fill-rule="evenodd" clip-rule="evenodd" d="M13.7501 0.196962C13.3935 -0.0656538 12.9074 -0.0656538 12.5508 0.196962L3.67274 6.73445C2.63738 7.49685 2.02613 8.70605 2.02613 9.99182V20.7317C2.02613 22.6866 3.61085 24.2713 5.56569 24.2713H9.10525C10.2223 24.2713 11.1279 23.3657 11.1279 22.2487V16.6865H15.1731V22.2487C15.1731 23.3657 16.0786 24.2713 17.1957 24.2713H20.7352C22.6901 24.2713 24.2748 22.6866 24.2748 20.7317V9.99182C24.2748 8.70605 23.6635 7.49685 22.6282 6.73445L13.7501 0.196962ZM4.87204 8.36313L13.1505 2.26721L21.4289 8.36313C21.9466 8.74433 22.2522 9.34893 22.2522 9.99182V20.7317C22.2522 21.5695 21.573 22.2487 20.7352 22.2487H17.1957V16.1808C17.1957 15.3431 16.5165 14.6639 15.6787 14.6639H10.6222C9.78442 14.6639 9.10525 15.3431 9.10525 16.1808V22.2487H5.56569C4.7279 22.2487 4.04874 21.5695 4.04874 20.7317V9.99182C4.04874 9.34893 4.35436 8.74433 4.87204 8.36313Z" fill="#CFD1DE"/>
<path d="M0.0908203 29.7273V37H0.971504V33.7472H4.84935V37H5.73003V29.7273H4.84935V32.9659H0.971504V29.7273H0.0908203Z" fill="#CFD1DE"/>
<path fill-rule="evenodd" clip-rule="evenodd" d="M8.29927 36.7621C8.67096 36.9964 9.10301 37.1136 9.59544 37.1136C10.0879 37.1136 10.5187 36.9964 10.8881 36.7621C11.2597 36.5277 11.5486 36.1998 11.7545 35.7784C11.9629 35.357 12.067 34.8646 12.067 34.3011C12.067 33.733 11.9629 33.237 11.7545 32.8132C11.5486 32.3894 11.2597 32.0604 10.8881 31.826C10.5187 31.5916 10.0879 31.4744 9.59544 31.4744C9.10301 31.4744 8.67096 31.5916 8.29927 31.826C7.92996 32.0604 7.64113 32.3894 7.4328 32.8132C7.22683 33.237 7.12385 33.733 7.12385 34.3011C7.12385 34.8646 7.22683 35.357 7.4328 35.7784C7.64113 36.1998 7.92996 36.5277 8.29927 36.7621ZM10.5187 36.0732C10.2773 36.2649 9.96949 36.3608 9.59544 36.3608C9.22139 36.3608 8.91362 36.2649 8.67214 36.0732C8.43067 35.8814 8.25193 35.6293 8.13592 35.3168C8.01992 35.0043 7.96192 34.6657 7.96192 34.3011C7.96192 33.9366 8.01992 33.5968 8.13592 33.282C8.25193 32.9671 8.43067 32.7126 8.67214 32.5185C8.91362 32.3243 9.22139 32.2273 9.59544 32.2273C9.96949 32.2273 10.2773 32.3243 10.5187 32.5185C10.7602 32.7126 10.939 32.9671 11.055 33.282C11.171 33.5968 11.229 33.9366 11.229 34.3011C11.229 34.6657 11.171 35.0043 11.055 35.3168C10.939 35.6293 10.7602 35.8814 10.5187 36.0732Z" fill="#CFD1DE"/>
<path d="M13.3463 31.5455V37H14.1844V33.5909C14.1844 33.3234 14.2412 33.0878 14.3548 32.8842C14.4709 32.6783 14.6224 32.5173 14.8094 32.4013C14.9988 32.2853 15.2024 32.2273 15.4202 32.2273C15.7374 32.2273 15.9967 32.3232 16.1979 32.5149C16.3991 32.7043 16.4997 32.9541 16.4997 33.2642V37H17.352V33.4489C17.352 33.0961 17.4574 32.8049 17.6681 32.5753C17.8788 32.3433 18.1759 32.2273 18.5594 32.2273C18.8577 32.2273 19.1169 32.3137 19.3371 32.4865C19.5573 32.6593 19.6673 32.947 19.6673 33.3494V37H20.5054V33.3494C20.5054 32.7079 20.3504 32.2356 20.0402 31.9325C19.7301 31.6271 19.3312 31.4744 18.8435 31.4744C18.4529 31.4744 18.1179 31.5585 17.8385 31.7266C17.5592 31.8923 17.3496 32.116 17.21 32.3977H17.1531C17.0182 32.1065 16.83 31.8804 16.5885 31.7195C16.3494 31.5561 16.0499 31.4744 15.6901 31.4744C15.335 31.4744 15.0307 31.5561 14.7774 31.7195C14.5241 31.8804 14.3406 32.1065 14.227 32.3977H14.156V31.5455H13.3463Z" fill="#CFD1DE"/>
<path fill-rule="evenodd" clip-rule="evenodd" d="M22.9646 36.7656C23.3457 36.9976 23.7991 37.1136 24.3247 37.1136C24.694 37.1136 25.0266 37.0568 25.3225 36.9432C25.6185 36.8272 25.867 36.6662 26.0683 36.4602C26.2695 36.2519 26.4127 36.0104 26.498 35.7358L25.6883 35.5085C25.6173 35.6979 25.5167 35.8565 25.3865 35.9844C25.2562 36.1098 25.1012 36.2045 24.9213 36.2685C24.7437 36.33 24.5448 36.3608 24.3247 36.3608C23.9861 36.3608 23.689 36.2874 23.4333 36.1406C23.1776 35.9915 22.9776 35.7749 22.8332 35.4908C22.7044 35.231 22.634 34.9197 22.622 34.5568H26.5832V34.2017C26.5832 33.6927 26.5157 33.2642 26.3808 32.9162C26.2458 32.5682 26.0647 32.2888 25.8374 32.0781C25.6102 31.8651 25.358 31.7112 25.0811 31.6165C24.8041 31.5218 24.5235 31.4744 24.2394 31.4744C23.747 31.4744 23.3161 31.5952 22.9468 31.8366C22.5799 32.0758 22.2934 32.4096 22.0874 32.8381C21.8839 33.2642 21.7821 33.7566 21.7821 34.3153C21.7821 34.8741 21.8839 35.3641 22.0874 35.7855C22.2934 36.2045 22.5858 36.5312 22.9646 36.7656ZM22.6241 33.8324C22.6401 33.5794 22.7038 33.3403 22.8154 33.1151C22.9456 32.8523 23.1315 32.6392 23.373 32.4759C23.6168 32.3101 23.9056 32.2273 24.2394 32.2273C24.5425 32.2273 24.8053 32.2971 25.0278 32.4368C25.2527 32.5765 25.4255 32.767 25.5463 33.0085C25.6694 33.25 25.7309 33.5246 25.7309 33.8324H22.6241Z" fill="#CFD1DE"/>
</svg>
