<svg width="24" height="37" viewBox="0 0 24 37" fill="none" xmlns="http://www.w3.org/2000/svg">
<path fill-rule="evenodd" clip-rule="evenodd" d="M6.95252 6.57954C6.95252 3.22837 9.66917 0.511719 13.0203 0.511719C16.3715 0.511719 19.0882 3.22837 19.0882 6.57954C19.0882 9.9307 16.3715 12.6474 13.0203 12.6474C9.66917 12.6474 6.95252 9.9307 6.95252 6.57954ZM13.0203 2.53432C10.7862 2.53432 8.97512 4.34543 8.97512 6.57954C8.97512 8.81364 10.7862 10.6247 13.0203 10.6247C15.2544 10.6247 17.0655 8.81364 17.0655 6.57954C17.0655 4.34543 15.2544 2.53432 13.0203 2.53432Z" fill="#55B3FF"/>
<path d="M13.0203 17.1982C10.6206 17.1982 8.34683 17.7313 6.79071 18.2117C5.89997 18.4866 5.24542 19.2933 5.08524 20.3231L4.91789 21.3989C4.83204 21.9508 4.31505 22.3286 3.76316 22.2427C3.21127 22.1569 2.83347 21.6399 2.91932 21.088L3.08667 20.0122C3.34835 18.3299 4.46231 16.8137 6.19411 16.2791C7.85697 15.7657 10.3443 15.1756 13.0203 15.1756C15.6963 15.1756 18.1837 15.7657 19.8466 16.2791C21.5784 16.8137 22.6923 18.3299 22.954 20.0122L23.1213 21.088C23.2072 21.6399 22.8294 22.1569 22.2775 22.2427C21.7256 22.3286 21.2086 21.9508 21.1228 21.3989L20.9554 20.3231C20.7952 19.2933 20.1407 18.4866 19.25 18.2117C17.6938 17.7313 15.42 17.1982 13.0203 17.1982Z" fill="#55B3FF"/>
<path fill-rule="evenodd" clip-rule="evenodd" d="M0.640381 29.2277V36.5004H1.52106V33.8442H3.11197C3.67779 33.8442 4.1418 33.7412 4.50402 33.5352C4.86623 33.3269 5.13375 33.0475 5.30657 32.6971C5.48176 32.3468 5.56936 31.9573 5.56936 31.5288C5.56936 31.1003 5.48176 30.7121 5.30657 30.3641C5.13138 30.016 4.8615 29.7402 4.49691 29.5366C4.1347 29.3307 3.66832 29.2277 3.09777 29.2277H0.640381ZM1.52106 33.0629H3.08356C3.47419 33.0629 3.78787 32.9954 4.02461 32.8605C4.26136 32.7256 4.43299 32.5433 4.53953 32.3136C4.64843 32.0816 4.70288 31.82 4.70288 31.5288C4.70288 31.2376 4.64843 30.9772 4.53953 30.7476C4.43299 30.5179 4.26017 30.338 4.02106 30.2078C3.78195 30.0752 3.46472 30.0089 3.06936 30.0089H1.52106V33.0629Z" fill="#55B3FF"/>
<path fill-rule="evenodd" clip-rule="evenodd" d="M7.74265 36.266C8.12381 36.498 8.57717 36.6141 9.10274 36.6141C9.47206 36.6141 9.80468 36.5572 10.1006 36.4436C10.3965 36.3276 10.6451 36.1666 10.8463 35.9606C11.0476 35.7523 11.1908 35.5108 11.276 35.2362L10.4664 35.0089C10.3954 35.1983 10.2947 35.3569 10.1645 35.4848C10.0343 35.6103 9.87925 35.705 9.69933 35.7689C9.52177 35.8304 9.32291 35.8612 9.10274 35.8612C8.7642 35.8612 8.46709 35.7878 8.2114 35.641C7.95572 35.4919 7.75567 35.2753 7.61126 34.9912C7.48247 34.7314 7.41206 34.4201 7.40005 34.0572H11.3613V33.7021C11.3613 33.1931 11.2938 32.7646 11.1588 32.4166C11.0239 32.0686 10.8428 31.7892 10.6155 31.5785C10.3883 31.3655 10.1361 31.2116 9.85913 31.1169C9.58214 31.0222 9.3016 30.9748 9.01751 30.9748C8.52509 30.9748 8.09422 31.0956 7.7249 31.3371C7.35795 31.5762 7.07149 31.91 6.86552 32.3385C6.66192 32.7646 6.56012 33.257 6.56012 33.8158C6.56012 34.3745 6.66192 34.8645 6.86552 35.2859C7.07149 35.705 7.36387 36.0317 7.74265 36.266ZM7.40219 33.3328C7.41815 33.0798 7.48192 32.8407 7.59351 32.6155C7.72371 32.3527 7.90956 32.1396 8.15103 31.9763C8.39488 31.8105 8.6837 31.7277 9.01751 31.7277C9.32054 31.7277 9.58333 31.7975 9.80586 31.9372C10.0308 32.0769 10.2036 32.2675 10.3243 32.5089C10.4474 32.7504 10.509 33.025 10.509 33.3328H7.40219Z" fill="#55B3FF"/>
<path d="M12.6361 31.0459V36.5004H13.4742V33.0487C13.4742 32.8025 13.5334 32.5835 13.6517 32.3918C13.7725 32.1976 13.9358 32.0461 14.1418 31.9372C14.3501 31.8259 14.5869 31.7703 14.852 31.7703C14.9633 31.7703 15.0686 31.7786 15.1681 31.7952C15.2699 31.8094 15.335 31.82 15.3634 31.8271V30.9748C15.316 30.9701 15.2462 30.9666 15.1539 30.9642C15.0615 30.9618 14.9846 30.9606 14.9231 30.9606C14.5963 30.9606 14.3028 31.0447 14.0424 31.2128C13.782 31.3809 13.602 31.5998 13.5026 31.8697H13.4458V31.0459H12.6361Z" fill="#55B3FF"/>
<path d="M19.1276 31.7561V31.0459H17.906V30.4919C17.906 30.222 17.9664 30.0172 18.0871 29.8775C18.2102 29.7379 18.4103 29.668 18.6873 29.668C18.808 29.668 18.9051 29.6787 18.9784 29.7C19.0542 29.7213 19.1134 29.7391 19.156 29.7533L19.3975 29.0288C19.3336 29.0004 19.2365 28.9696 19.1063 28.9365C18.9761 28.9034 18.808 28.8868 18.602 28.8868C18.3416 28.8868 18.0942 28.9389 17.8598 29.043C17.6255 29.1472 17.4349 29.3034 17.2881 29.5118C17.1413 29.7201 17.0679 29.9805 17.0679 30.293V31.0459H16.1873V31.7561H17.0679V36.5004H17.906V31.7561H19.1276Z" fill="#55B3FF"/>
<path d="M20.3021 31.0459V36.5004H21.1402V31.0459H20.3021Z" fill="#55B3FF"/>
<path d="M20.3057 29.9699C20.4241 30.0811 20.5649 30.1368 20.7283 30.1368C20.8916 30.1368 21.0313 30.0811 21.1473 29.9699C21.2657 29.8586 21.3249 29.7248 21.3249 29.5686C21.3249 29.4123 21.2657 29.2786 21.1473 29.1673C21.0313 29.056 20.8916 29.0004 20.7283 29.0004C20.5649 29.0004 20.4241 29.056 20.3057 29.1673C20.1897 29.2786 20.1317 29.4123 20.1317 29.5686C20.1317 29.7248 20.1897 29.8586 20.3057 29.9699Z" fill="#55B3FF"/>
<path d="M23.5133 36.5004V29.2277H22.6752V36.5004H23.5133Z" fill="#55B3FF"/>
</svg>
