<svg width="47" height="40" viewBox="0 0 47 40" fill="none" xmlns="http://www.w3.org/2000/svg">
<path fill-rule="evenodd" clip-rule="evenodd" d="M29.4253 2.11831H29.2527C28.8362 0.939947 27.7124 0.0957031 26.3914 0.0957031H20.3236C19.0026 0.0957031 17.8788 0.939946 17.4623 2.11831H17.2897C15.0556 2.11831 13.2445 3.92941 13.2445 6.16352V20.3218C13.2445 22.5559 15.0556 24.367 17.2897 24.367H29.4253C31.6594 24.367 33.4705 22.5559 33.4705 20.3218V6.16352C33.4705 3.92941 31.6594 2.11831 29.4253 2.11831ZM15.2671 6.16352C15.2671 5.04646 16.1726 4.14091 17.2897 4.14091C17.2897 5.8165 18.648 7.17482 20.3236 7.17482H26.3914C28.067 7.17482 29.4253 5.8165 29.4253 4.14091C30.5424 4.14091 31.4479 5.04647 31.4479 6.16352V20.3218C31.4479 21.4388 30.5424 22.3444 29.4253 22.3444H17.2897C16.1726 22.3444 15.2671 21.4388 15.2671 20.3218V6.16352ZM20.3236 2.11831C19.7651 2.11831 19.3123 2.57108 19.3123 3.12961V4.14091C19.3123 4.69944 19.7651 5.15222 20.3236 5.15222H26.3914C26.9499 5.15222 27.4027 4.69944 27.4027 4.14091V3.12961C27.4027 2.57108 26.9499 2.11831 26.3914 2.11831H20.3236Z" fill="#CFD1DE"/>
<path fill-rule="evenodd" clip-rule="evenodd" d="M0.629883 29.823V37.0957H1.51056V34.4395H3.10147C3.66729 34.4395 4.1313 34.3365 4.49352 34.1305C4.85574 33.9222 5.12325 33.6428 5.29608 33.2924C5.47127 32.9421 5.55886 32.5526 5.55886 32.1241C5.55886 31.6956 5.47127 31.3074 5.29608 30.9593C5.12089 30.6113 4.851 30.3355 4.48642 30.1319C4.1242 29.926 3.65782 29.823 3.08727 29.823H0.629883ZM1.51056 33.6582H3.07306C3.46369 33.6582 3.77737 33.5907 4.01412 33.4558C4.25086 33.3208 4.4225 33.1386 4.52903 32.9089C4.63793 32.6769 4.69238 32.4153 4.69238 32.1241C4.69238 31.8329 4.63793 31.5725 4.52903 31.3429C4.4225 31.1132 4.24967 30.9333 4.01056 30.8031C3.77146 30.6705 3.45422 30.6042 3.05886 30.6042H1.51056V33.6582Z" fill="#CFD1DE"/>
<path d="M6.8639 31.6412V37.0957H7.70197V33.644C7.70197 33.3978 7.76116 33.1788 7.87953 32.987C8.00027 32.7929 8.16362 32.6414 8.36958 32.5325C8.57792 32.4212 8.81466 32.3656 9.07981 32.3656C9.19108 32.3656 9.29643 32.3739 9.39586 32.3904C9.49766 32.4047 9.56277 32.4153 9.59118 32.4224V31.5701C9.54383 31.5654 9.47399 31.5618 9.38166 31.5595C9.28933 31.5571 9.21239 31.5559 9.15084 31.5559C8.82413 31.5559 8.53057 31.64 8.27015 31.8081C8.00974 31.9761 7.82981 32.1951 7.73038 32.465H7.67356V31.6412H6.8639Z" fill="#CFD1DE"/>
<path fill-rule="evenodd" clip-rule="evenodd" d="M11.3383 36.8578C11.71 37.0922 12.1421 37.2093 12.6345 37.2093C13.1269 37.2093 13.5578 37.0922 13.9271 36.8578C14.2988 36.6234 14.5876 36.2955 14.7936 35.8741C15.0019 35.4527 15.1061 34.9603 15.1061 34.3968C15.1061 33.8287 15.0019 33.3327 14.7936 32.9089C14.5876 32.4851 14.2988 32.1561 13.9271 31.9217C13.5578 31.6873 13.1269 31.5701 12.6345 31.5701C12.1421 31.5701 11.71 31.6873 11.3383 31.9217C10.969 32.1561 10.6802 32.4851 10.4719 32.9089C10.2659 33.3327 10.1629 33.8287 10.1629 34.3968C10.1629 34.9603 10.2659 35.4527 10.4719 35.8741C10.6802 36.2955 10.969 36.6234 11.3383 36.8578ZM13.5578 36.1689C13.3163 36.3606 13.0086 36.4565 12.6345 36.4565C12.2604 36.4565 11.9527 36.3606 11.7112 36.1689C11.4697 35.9771 11.291 35.725 11.175 35.4125C11.059 35.1 11.001 34.7614 11.001 34.3968C11.001 34.0323 11.059 33.6925 11.175 33.3777C11.291 33.0628 11.4697 32.8083 11.7112 32.6142C11.9527 32.42 12.2604 32.323 12.6345 32.323C13.0086 32.323 13.3163 32.42 13.5578 32.6142C13.7993 32.8083 13.978 33.0628 14.094 33.3777C14.21 33.6925 14.268 34.0323 14.268 34.3968C14.268 34.7614 14.21 35.1 14.094 35.4125C13.978 35.725 13.7993 35.9771 13.5578 36.1689Z" fill="#CFD1DE"/>
<path d="M16.3499 39.1056C16.4611 39.1293 16.5878 39.1412 16.7298 39.1412C16.9832 39.1412 17.2104 39.0962 17.4117 39.0062C17.6153 38.9163 17.794 38.7778 17.9479 38.5907C18.1018 38.4061 18.2308 38.1729 18.335 37.8912L20.6503 31.6412H19.7412L18.2355 35.9877H18.1787L16.673 31.6412H15.7639L17.781 37.1241L17.6247 37.5502C17.5229 37.8272 17.4105 38.0273 17.2874 38.1504C17.1666 38.2759 17.0281 38.3457 16.8719 38.3599C16.7156 38.3741 16.5357 38.3552 16.3321 38.3031L16.1191 39.0417C16.1617 39.063 16.2386 39.0843 16.3499 39.1056Z" fill="#CFD1DE"/>
<path fill-rule="evenodd" clip-rule="evenodd" d="M22.488 36.8613C22.8692 37.0933 23.3225 37.2093 23.8481 37.2093C24.2174 37.2093 24.55 37.1525 24.846 37.0389C25.1419 36.9229 25.3905 36.7619 25.5917 36.5559C25.7929 36.3476 25.9362 36.1061 26.0214 35.8315L25.2117 35.6042C25.1407 35.7936 25.0401 35.9522 24.9099 36.0801C24.7797 36.2056 24.6246 36.3002 24.4447 36.3642C24.2671 36.4257 24.0683 36.4565 23.8481 36.4565C23.5096 36.4565 23.2124 36.3831 22.9568 36.2363C22.7011 36.0872 22.501 35.8706 22.3566 35.5865C22.2278 35.3267 22.1574 35.0154 22.1454 34.6525H26.1066V34.2974C26.1066 33.7884 26.0392 33.3599 25.9042 33.0119C25.7693 32.6639 25.5882 32.3845 25.3609 32.1738C25.1336 31.9608 24.8815 31.8069 24.6045 31.7122C24.3275 31.6175 24.047 31.5701 23.7629 31.5701C23.2704 31.5701 22.8396 31.6909 22.4703 31.9324C22.1033 32.1715 21.8169 32.5053 21.6109 32.9338C21.4073 33.3599 21.3055 33.8523 21.3055 34.411C21.3055 34.9698 21.4073 35.4598 21.6109 35.8812C21.8169 36.3002 22.1092 36.627 22.488 36.8613ZM22.1476 33.9281C22.1635 33.6751 22.2273 33.436 22.3389 33.2108C22.4691 32.948 22.6549 32.7349 22.8964 32.5716C23.1402 32.4058 23.4291 32.323 23.7629 32.323C24.0659 32.323 24.3287 32.3928 24.5512 32.5325C24.7761 32.6722 24.949 32.8627 25.0697 33.1042C25.1928 33.3457 25.2544 33.6203 25.2544 33.9281H22.1476Z" fill="#CFD1DE"/>
<path d="M28.2764 36.8471C28.6457 37.0886 29.086 37.2093 29.5974 37.2093C29.9999 37.2093 30.3526 37.1348 30.6556 36.9856C30.961 36.8341 31.2061 36.6305 31.3907 36.3748C31.5777 36.1168 31.6949 35.8268 31.7423 35.5048H30.9042C30.8521 35.7037 30.7645 35.8741 30.6414 36.0162C30.5183 36.1582 30.368 36.2671 30.1904 36.3429C30.0129 36.4186 29.8152 36.4565 29.5974 36.4565C29.266 36.4565 28.9771 36.3701 28.7309 36.1973C28.4871 36.0244 28.2977 35.7818 28.1627 35.4693C28.0302 35.1568 27.9639 34.7898 27.9639 34.3684C27.9639 33.9565 28.0313 33.5978 28.1663 33.2924C28.3036 32.9847 28.4942 32.7467 28.738 32.5787C28.9842 32.4082 29.2707 32.323 29.5974 32.323C29.9667 32.323 30.2603 32.42 30.4781 32.6142C30.6982 32.8059 30.8403 33.0261 30.9042 33.2747H31.7423C31.6949 32.9338 31.573 32.6355 31.3765 32.3798C31.18 32.1241 30.9279 31.9252 30.6201 31.7832C30.3124 31.6412 29.9667 31.5701 29.5832 31.5701C29.0908 31.5701 28.6599 31.6909 28.2906 31.9324C27.9236 32.1715 27.6372 32.5041 27.4312 32.9302C27.2276 33.354 27.1258 33.8429 27.1258 34.3968C27.1258 34.9413 27.2252 35.4255 27.4241 35.8493C27.623 36.273 27.907 36.6056 28.2764 36.8471Z" fill="#CFD1DE"/>
<path d="M35.3396 32.3514V31.6412H34.1748V30.3343H33.3367V31.6412H32.5129V32.3514H33.3367V35.7605C33.3367 36.0777 33.4101 36.3405 33.5569 36.5488C33.7061 36.7572 33.8931 36.9122 34.118 37.014C34.3453 37.1158 34.5773 37.1667 34.814 37.1667C34.9703 37.1667 35.0993 37.1549 35.2011 37.1312C35.3029 37.1099 35.3822 37.0886 35.439 37.0673L35.2686 36.3145L35.1265 36.3429C35.0673 36.3523 34.9916 36.3571 34.8992 36.3571C34.7761 36.3571 34.6589 36.3381 34.5477 36.3002C34.4388 36.26 34.3488 36.1819 34.2778 36.0659C34.2091 35.9475 34.1748 35.7699 34.1748 35.5332V32.3514H35.3396Z" fill="#CFD1DE"/>
<path fill-rule="evenodd" clip-rule="evenodd" d="M37.4614 36.8578C37.8331 37.0922 38.2651 37.2093 38.7575 37.2093C39.25 37.2093 39.6808 37.0922 40.0502 36.8578C40.4218 36.6234 40.7107 36.2955 40.9166 35.8741C41.125 35.4527 41.2291 34.9603 41.2291 34.3968C41.2291 33.8287 41.125 33.3327 40.9166 32.9089C40.7107 32.4851 40.4218 32.1561 40.0502 31.9217C39.6808 31.6873 39.25 31.5701 38.7575 31.5701C38.2651 31.5701 37.8331 31.6873 37.4614 31.9217C37.0921 32.1561 36.8032 32.4851 36.5949 32.9089C36.3889 33.3327 36.286 33.8287 36.286 34.3968C36.286 34.9603 36.3889 35.4527 36.5949 35.8741C36.8032 36.2955 37.0921 36.6234 37.4614 36.8578ZM39.6808 36.1689C39.4394 36.3606 39.1316 36.4565 38.7575 36.4565C38.3835 36.4565 38.0757 36.3606 37.8343 36.1689C37.5928 35.9771 37.414 35.725 37.298 35.4125C37.182 35.1 37.124 34.7614 37.124 34.3968C37.124 34.0323 37.182 33.6925 37.298 33.3777C37.414 33.0628 37.5928 32.8083 37.8343 32.6142C38.0757 32.42 38.3835 32.323 38.7575 32.323C39.1316 32.323 39.4394 32.42 39.6808 32.6142C39.9223 32.8083 40.1011 33.0628 40.2171 33.3777C40.3331 33.6925 40.3911 34.0323 40.3911 34.3968C40.3911 34.7614 40.3331 35.1 40.2171 35.4125C40.1011 35.725 39.9223 35.9771 39.6808 36.1689Z" fill="#CFD1DE"/>
<path d="M45.6192 33.0758L46.3721 32.8627C46.2419 32.4745 46.0217 32.162 45.7116 31.9252C45.4038 31.6885 44.98 31.5701 44.4403 31.5701C44.0567 31.5701 43.7135 31.6376 43.4104 31.7725C43.1098 31.9075 42.8718 32.0933 42.6966 32.3301C42.5238 32.5668 42.4374 32.8391 42.4374 33.1468C42.4374 33.5233 42.5534 33.8369 42.7854 34.0879C43.0198 34.3365 43.3867 34.5199 43.8863 34.6383L44.7954 34.8514C45.07 34.9153 45.2736 35.0124 45.4062 35.1426C45.5387 35.2704 45.605 35.429 45.605 35.6184C45.605 35.8528 45.489 36.054 45.257 36.2221C45.0274 36.3878 44.7172 36.4707 44.3266 36.4707C43.9833 36.4707 43.7052 36.3973 43.4921 36.2505C43.2814 36.1038 43.1382 35.8836 43.0624 35.59L42.267 35.7889C42.364 36.2529 42.5948 36.6056 42.9594 36.8471C43.324 37.0886 43.7845 37.2093 44.3408 37.2093C44.7646 37.2093 45.1363 37.1383 45.4559 36.9963C45.7755 36.8542 46.0241 36.6601 46.2016 36.4139C46.3815 36.1677 46.4715 35.8883 46.4715 35.5758C46.4715 35.1947 46.3519 34.8833 46.1128 34.6419C45.8737 34.398 45.5103 34.2169 45.0226 34.0985L44.213 33.8997C43.891 33.8192 43.6543 33.7186 43.5028 33.5978C43.3512 33.4771 43.2755 33.3126 43.2755 33.1042C43.2755 32.8699 43.3856 32.6769 43.6057 32.5254C43.8283 32.3715 44.1064 32.2946 44.4403 32.2946C44.6841 32.2946 44.8841 32.3336 45.0404 32.4118C45.1966 32.4899 45.3198 32.5893 45.4097 32.71C45.502 32.8284 45.5719 32.9503 45.6192 33.0758Z" fill="#CFD1DE"/>
</svg>
