<svg width="28" height="38" viewBox="0 0 28 38" fill="none" xmlns="http://www.w3.org/2000/svg">
<path fill-rule="evenodd" clip-rule="evenodd" d="M14.3497 0.196962C13.9931 -0.0656538 13.5071 -0.0656538 13.1504 0.196962L4.27235 6.73445C3.23699 7.49685 2.62574 8.70605 2.62574 9.99182V20.7317C2.62574 22.6866 4.21046 24.2713 6.1653 24.2713H9.70486C10.8219 24.2713 11.7275 23.3657 11.7275 22.2487V16.6865H15.7727V22.2487C15.7727 23.3657 16.6782 24.2713 17.7953 24.2713H21.3348C23.2897 24.2713 24.8744 22.6866 24.8744 20.7317V9.99182C24.8744 8.70605 24.2631 7.49685 23.2278 6.73445L14.3497 0.196962ZM5.47165 8.36313L13.7501 2.26721L22.0285 8.36313C22.5462 8.74433 22.8518 9.34893 22.8518 9.99182V20.7317C22.8518 21.5695 22.1726 22.2487 21.3348 22.2487H17.7953V16.1808C17.7953 15.3431 17.1161 14.6639 16.2783 14.6639H11.2218C10.384 14.6639 9.70486 15.3431 9.70486 16.1808V22.2487H6.1653C5.32751 22.2487 4.64835 21.5695 4.64835 20.7317V9.99182C4.64835 9.34893 4.95397 8.74433 5.47165 8.36313Z" fill="#CFD1DE"/>
<path d="M0.69043 29.7273V37H1.57111V33.7472H5.44895V37H6.32964V29.7273H5.44895V32.9659H1.57111V29.7273H0.69043Z" fill="#CFD1DE"/>
<path fill-rule="evenodd" clip-rule="evenodd" d="M8.89888 36.7621C9.27057 36.9964 9.70262 37.1136 10.195 37.1136C10.6875 37.1136 11.1183 36.9964 11.4877 36.7621C11.8593 36.5277 12.1482 36.1998 12.3541 35.7784C12.5625 35.357 12.6666 34.8646 12.6666 34.3011C12.6666 33.733 12.5625 33.237 12.3541 32.8132C12.1482 32.3894 11.8593 32.0604 11.4877 31.826C11.1183 31.5916 10.6875 31.4744 10.195 31.4744C9.70262 31.4744 9.27057 31.5916 8.89888 31.826C8.52956 32.0604 8.24074 32.3894 8.03241 32.8132C7.82644 33.237 7.72346 33.733 7.72346 34.3011C7.72346 34.8646 7.82644 35.357 8.03241 35.7784C8.24074 36.1998 8.52956 36.5277 8.89888 36.7621ZM11.1183 36.0732C10.8769 36.2649 10.5691 36.3608 10.195 36.3608C9.821 36.3608 9.51323 36.2649 9.27175 36.0732C9.03028 35.8814 8.85153 35.6293 8.73553 35.3168C8.61953 35.0043 8.56153 34.6657 8.56153 34.3011C8.56153 33.9366 8.61953 33.5968 8.73553 33.282C8.85153 32.9671 9.03028 32.7126 9.27175 32.5185C9.51323 32.3243 9.821 32.2273 10.195 32.2273C10.5691 32.2273 10.8769 32.3243 11.1183 32.5185C11.3598 32.7126 11.5386 32.9671 11.6546 33.282C11.7706 33.5968 11.8286 33.9366 11.8286 34.3011C11.8286 34.6657 11.7706 35.0043 11.6546 35.3168C11.5386 35.6293 11.3598 35.8814 11.1183 36.0732Z" fill="#CFD1DE"/>
<path d="M13.9459 31.5455V37H14.784V33.5909C14.784 33.3234 14.8408 33.0878 14.9545 32.8842C15.0705 32.6783 15.222 32.5173 15.409 32.4013C15.5984 32.2853 15.802 32.2273 16.0198 32.2273C16.337 32.2273 16.5963 32.3232 16.7975 32.5149C16.9987 32.7043 17.0993 32.9541 17.0993 33.2642V37H17.9516V33.4489C17.9516 33.0961 18.057 32.8049 18.2677 32.5753C18.4784 32.3433 18.7755 32.2273 19.159 32.2273C19.4573 32.2273 19.7165 32.3137 19.9367 32.4865C20.1569 32.6593 20.267 32.947 20.267 33.3494V37H21.105V33.3494C21.105 32.7079 20.95 32.2356 20.6398 31.9325C20.3297 31.6271 19.9308 31.4744 19.4431 31.4744C19.0525 31.4744 18.7175 31.5585 18.4381 31.7266C18.1588 31.8923 17.9492 32.116 17.8096 32.3977H17.7528C17.6178 32.1065 17.4296 31.8804 17.1881 31.7195C16.949 31.5561 16.6495 31.4744 16.2897 31.4744C15.9346 31.4744 15.6304 31.5561 15.377 31.7195C15.1237 31.8804 14.9403 32.1065 14.8266 32.3977H14.7556V31.5455H13.9459Z" fill="#CFD1DE"/>
<path fill-rule="evenodd" clip-rule="evenodd" d="M23.5642 36.7656C23.9453 36.9976 24.3987 37.1136 24.9243 37.1136C25.2936 37.1136 25.6262 37.0568 25.9221 36.9432C26.2181 36.8272 26.4667 36.6662 26.6679 36.4602C26.8691 36.2519 27.0123 36.0104 27.0976 35.7358L26.2879 35.5085C26.2169 35.6979 26.1163 35.8565 25.9861 35.9844C25.8559 36.1098 25.7008 36.2045 25.5209 36.2685C25.3433 36.33 25.1444 36.3608 24.9243 36.3608C24.5857 36.3608 24.2886 36.2874 24.0329 36.1406C23.7773 35.9915 23.5772 35.7749 23.4328 35.4908C23.304 35.231 23.2336 34.9197 23.2216 34.5568H27.1828V34.2017C27.1828 33.6927 27.1153 33.2642 26.9804 32.9162C26.8454 32.5682 26.6643 32.2888 26.4371 32.0781C26.2098 31.8651 25.9577 31.7112 25.6807 31.6165C25.4037 31.5218 25.1231 31.4744 24.839 31.4744C24.3466 31.4744 23.9158 31.5952 23.5464 31.8366C23.1795 32.0758 22.893 32.4096 22.6871 32.8381C22.4835 33.2642 22.3817 33.7566 22.3817 34.3153C22.3817 34.8741 22.4835 35.3641 22.6871 35.7855C22.893 36.2045 23.1854 36.5312 23.5642 36.7656ZM23.2237 33.8324C23.2397 33.5794 23.3035 33.3403 23.415 33.1151C23.5452 32.8523 23.7311 32.6392 23.9726 32.4759C24.2164 32.3101 24.5052 32.2273 24.839 32.2273C25.1421 32.2273 25.4049 32.2971 25.6274 32.4368C25.8523 32.5765 26.0251 32.767 26.1459 33.0085C26.269 33.25 26.3305 33.5246 26.3305 33.8324H23.2237Z" fill="#CFD1DE"/>
</svg>
