<svg width="47" height="40" viewBox="0 0 47 40" fill="none" xmlns="http://www.w3.org/2000/svg">
<path fill-rule="evenodd" clip-rule="evenodd" d="M29.3179 2.02261H29.1453C28.7288 0.844244 27.605 0 26.284 0H20.2162C18.8952 0 17.7714 0.844243 17.3549 2.02261H17.1823C14.9481 2.02261 13.137 3.8337 13.137 6.06781V20.2261C13.137 22.4602 14.9481 24.2713 17.1823 24.2713H29.3179C31.552 24.2713 33.3631 22.4602 33.3631 20.2261V6.06782C33.3631 3.83371 31.552 2.02261 29.3179 2.02261ZM15.1596 6.06781C15.1596 4.95076 16.0652 4.04521 17.1823 4.04521C17.1823 5.72079 18.5406 7.07912 20.2162 7.07912H26.284C27.9596 7.07912 29.3179 5.72079 29.3179 4.04521C30.4349 4.04521 31.3405 4.95076 31.3405 6.06782V20.2261C31.3405 21.3431 30.4349 22.2487 29.3179 22.2487H17.1823C16.0652 22.2487 15.1596 21.3431 15.1596 20.2261V6.06781ZM20.2162 2.02261C19.6576 2.02261 19.2049 2.47538 19.2049 3.03391V4.04521C19.2049 4.60374 19.6576 5.05651 20.2162 5.05651H26.284C26.8425 5.05651 27.2953 4.60374 27.2953 4.04521V3.03391C27.2953 2.47538 26.8425 2.02261 26.284 2.02261H20.2162Z" fill="#CFD1DE"/>
<path fill-rule="evenodd" clip-rule="evenodd" d="M0.522461 29.7273V37H1.40314V34.3438H2.99405C3.55987 34.3438 4.02388 34.2408 4.3861 34.0348C4.74831 33.8265 5.01583 33.5471 5.18865 33.1967C5.36384 32.8464 5.45144 32.4569 5.45144 32.0284C5.45144 31.5999 5.36384 31.2116 5.18865 30.8636C5.01346 30.5156 4.74358 30.2398 4.37899 30.0362C4.01678 29.8303 3.5504 29.7273 2.97985 29.7273H0.522461ZM1.40314 33.5625H2.96564C3.35627 33.5625 3.66995 33.495 3.90669 33.3601C4.14344 33.2251 4.31507 33.0429 4.42161 32.8132C4.53051 32.5812 4.58496 32.3196 4.58496 32.0284C4.58496 31.7372 4.53051 31.4768 4.42161 31.2472C4.31507 31.0175 4.14225 30.8376 3.90314 30.7074C3.66403 30.5748 3.3468 30.5085 2.95144 30.5085H1.40314V33.5625Z" fill="#CFD1DE"/>
<path d="M6.75648 31.5455V37H7.59455V33.5483C7.59455 33.3021 7.65373 33.0831 7.77211 32.8913C7.89284 32.6972 8.0562 32.5457 8.26216 32.4368C8.4705 32.3255 8.70724 32.2699 8.97239 32.2699C9.08366 32.2699 9.18901 32.2782 9.28844 32.2947C9.39024 32.3089 9.45534 32.3196 9.48375 32.3267V31.4744C9.43641 31.4697 9.36657 31.4661 9.27424 31.4638C9.18191 31.4614 9.10497 31.4602 9.04341 31.4602C8.71671 31.4602 8.42315 31.5443 8.16273 31.7124C7.90231 31.8804 7.72239 32.0994 7.62296 32.3693H7.56614V31.5455H6.75648Z" fill="#CFD1DE"/>
<path fill-rule="evenodd" clip-rule="evenodd" d="M11.2309 36.7621C11.6026 36.9964 12.0347 37.1136 12.5271 37.1136C13.0195 37.1136 13.4504 36.9964 13.8197 36.7621C14.1914 36.5277 14.4802 36.1998 14.6862 35.7784C14.8945 35.357 14.9987 34.8646 14.9987 34.3011C14.9987 33.733 14.8945 33.237 14.6862 32.8132C14.4802 32.3894 14.1914 32.0604 13.8197 31.826C13.4504 31.5916 13.0195 31.4744 12.5271 31.4744C12.0347 31.4744 11.6026 31.5916 11.2309 31.826C10.8616 32.0604 10.5728 32.3894 10.3644 32.8132C10.1585 33.237 10.0555 33.733 10.0555 34.3011C10.0555 34.8646 10.1585 35.357 10.3644 35.7784C10.5728 36.1998 10.8616 36.5277 11.2309 36.7621ZM13.4504 36.0732C13.2089 36.2649 12.9011 36.3608 12.5271 36.3608C12.153 36.3608 11.8453 36.2649 11.6038 36.0732C11.3623 35.8814 11.1836 35.6293 11.0676 35.3168C10.9516 35.0043 10.8936 34.6657 10.8936 34.3011C10.8936 33.9366 10.9516 33.5968 11.0676 33.282C11.1836 32.9671 11.3623 32.7126 11.6038 32.5185C11.8453 32.3243 12.153 32.2273 12.5271 32.2273C12.9011 32.2273 13.2089 32.3243 13.4504 32.5185C13.6918 32.7126 13.8706 32.9671 13.9866 33.282C14.1026 33.5968 14.1606 33.9366 14.1606 34.3011C14.1606 34.6657 14.1026 35.0043 13.9866 35.3168C13.8706 35.6293 13.6918 35.8814 13.4504 36.0732Z" fill="#CFD1DE"/>
<path d="M16.2425 39.0099C16.3537 39.0336 16.4804 39.0455 16.6224 39.0455C16.8757 39.0455 17.103 39.0005 17.3042 38.9105C17.5078 38.8205 17.6866 38.6821 17.8405 38.495C17.9943 38.3104 18.1234 38.0772 18.2275 37.7955L20.5429 31.5455H19.6338L18.1281 35.892H18.0713L16.5656 31.5455H15.6565L17.6736 37.0284L17.5173 37.4545C17.4155 37.7315 17.3031 37.9316 17.18 38.0547C17.0592 38.1802 16.9207 38.25 16.7645 38.2642C16.6082 38.2784 16.4283 38.2595 16.2247 38.2074L16.0116 38.946C16.0542 38.9673 16.1312 38.9886 16.2425 39.0099Z" fill="#CFD1DE"/>
<path fill-rule="evenodd" clip-rule="evenodd" d="M22.3806 36.7656C22.7617 36.9976 23.2151 37.1136 23.7407 37.1136C24.11 37.1136 24.4426 37.0568 24.7385 36.9432C25.0345 36.8272 25.2831 36.6662 25.4843 36.4602C25.6855 36.2519 25.8287 36.0104 25.914 35.7358L25.1043 35.5085C25.0333 35.6979 24.9327 35.8565 24.8025 35.9844C24.6723 36.1098 24.5172 36.2045 24.3373 36.2685C24.1597 36.33 23.9608 36.3608 23.7407 36.3608C23.4021 36.3608 23.105 36.2874 22.8493 36.1406C22.5937 35.9915 22.3936 35.7749 22.2492 35.4908C22.1204 35.231 22.05 34.9197 22.038 34.5568H25.9992V34.2017C25.9992 33.6927 25.9317 33.2642 25.7968 32.9162C25.6618 32.5682 25.4807 32.2888 25.2535 32.0781C25.0262 31.8651 24.7741 31.7112 24.4971 31.6165C24.2201 31.5218 23.9395 31.4744 23.6555 31.4744C23.163 31.4744 22.7322 31.5952 22.3628 31.8366C21.9959 32.0758 21.7094 32.4096 21.5035 32.8381C21.2999 33.2642 21.1981 33.7566 21.1981 34.3153C21.1981 34.8741 21.2999 35.3641 21.5035 35.7855C21.7094 36.2045 22.0018 36.5312 22.3806 36.7656ZM22.0401 33.8324C22.0561 33.5794 22.1199 33.3403 22.2314 33.1151C22.3617 32.8523 22.5475 32.6392 22.789 32.4759C23.0328 32.3101 23.3216 32.2273 23.6555 32.2273C23.9585 32.2273 24.2213 32.2971 24.4438 32.4368C24.6687 32.5765 24.8415 32.767 24.9623 33.0085C25.0854 33.25 25.1469 33.5246 25.1469 33.8324H22.0401Z" fill="#CFD1DE"/>
<path d="M28.1689 36.7514C28.5383 36.9929 28.9786 37.1136 29.49 37.1136C29.8924 37.1136 30.2452 37.0391 30.5482 36.8899C30.8536 36.7384 31.0986 36.5348 31.2833 36.2791C31.4703 36.0211 31.5875 35.7311 31.6349 35.4091H30.7968C30.7447 35.608 30.6571 35.7784 30.534 35.9205C30.4109 36.0625 30.2606 36.1714 30.083 36.2472C29.9055 36.3229 29.7078 36.3608 29.49 36.3608C29.1585 36.3608 28.8697 36.2744 28.6235 36.1016C28.3796 35.9287 28.1903 35.6861 28.0553 35.3736C27.9227 35.0611 27.8564 34.6941 27.8564 34.2727C27.8564 33.8608 27.9239 33.5021 28.0589 33.1967C28.1962 32.889 28.3867 32.651 28.6306 32.483C28.8768 32.3125 29.1633 32.2273 29.49 32.2273C29.8593 32.2273 30.1528 32.3243 30.3706 32.5185C30.5908 32.7102 30.7329 32.9304 30.7968 33.179H31.6349C31.5875 32.8381 31.4656 32.5398 31.2691 32.2841C31.0726 32.0284 30.8205 31.8295 30.5127 31.6875C30.2049 31.5455 29.8593 31.4744 29.4758 31.4744C28.9833 31.4744 28.5525 31.5952 28.1831 31.8366C27.8162 32.0758 27.5297 32.4084 27.3238 32.8345C27.1202 33.2583 27.0184 33.7472 27.0184 34.3011C27.0184 34.8456 27.1178 35.3298 27.3167 35.7536C27.5155 36.1773 27.7996 36.5099 28.1689 36.7514Z" fill="#CFD1DE"/>
<path d="M35.2322 32.2557V31.5455H34.0674V30.2386H33.2293V31.5455H32.4055V32.2557H33.2293V35.6648C33.2293 35.982 33.3027 36.2448 33.4495 36.4531C33.5986 36.6615 33.7857 36.8165 34.0106 36.9183C34.2378 37.0201 34.4698 37.071 34.7066 37.071C34.8628 37.071 34.9919 37.0592 35.0937 37.0355C35.1955 37.0142 35.2748 36.9929 35.3316 36.9716L35.1611 36.2188L35.0191 36.2472C34.9599 36.2566 34.8841 36.2614 34.7918 36.2614C34.6687 36.2614 34.5515 36.2424 34.4403 36.2045C34.3314 36.1643 34.2414 36.0862 34.1704 35.9702C34.1017 35.8518 34.0674 35.6742 34.0674 35.4375V32.2557H35.2322Z" fill="#CFD1DE"/>
<path fill-rule="evenodd" clip-rule="evenodd" d="M37.354 36.7621C37.7256 36.9964 38.1577 37.1136 38.6501 37.1136C39.1426 37.1136 39.5734 36.9964 39.9427 36.7621C40.3144 36.5277 40.6033 36.1998 40.8092 35.7784C41.0176 35.357 41.1217 34.8646 41.1217 34.3011C41.1217 33.733 41.0176 33.237 40.8092 32.8132C40.6033 32.3894 40.3144 32.0604 39.9427 31.826C39.5734 31.5916 39.1426 31.4744 38.6501 31.4744C38.1577 31.4744 37.7256 31.5916 37.354 31.826C36.9846 32.0604 36.6958 32.3894 36.4875 32.8132C36.2815 33.237 36.1785 33.733 36.1785 34.3011C36.1785 34.8646 36.2815 35.357 36.4875 35.7784C36.6958 36.1998 36.9846 36.5277 37.354 36.7621ZM39.5734 36.0732C39.3319 36.2649 39.0242 36.3608 38.6501 36.3608C38.2761 36.3608 37.9683 36.2649 37.7268 36.0732C37.4854 35.8814 37.3066 35.6293 37.1906 35.3168C37.0746 35.0043 37.0166 34.6657 37.0166 34.3011C37.0166 33.9366 37.0746 33.5968 37.1906 33.282C37.3066 32.9671 37.4854 32.7126 37.7268 32.5185C37.9683 32.3243 38.2761 32.2273 38.6501 32.2273C39.0242 32.2273 39.3319 32.3243 39.5734 32.5185C39.8149 32.7126 39.9936 32.9671 40.1096 33.282C40.2256 33.5968 40.2836 33.9366 40.2836 34.3011C40.2836 34.6657 40.2256 35.0043 40.1096 35.3168C39.9936 35.6293 39.8149 35.8814 39.5734 36.0732Z" fill="#CFD1DE"/>
<path d="M45.5118 32.9801L46.2646 32.767C46.1344 32.3788 45.9143 32.0663 45.6041 31.8295C45.2964 31.5928 44.8726 31.4744 44.3328 31.4744C43.9493 31.4744 43.606 31.5419 43.303 31.6768C43.0023 31.8118 42.7644 31.9976 42.5892 32.2344C42.4164 32.4711 42.33 32.7434 42.33 33.0511C42.33 33.4276 42.446 33.7412 42.678 33.9922C42.9124 34.2408 43.2793 34.4242 43.7789 34.5426L44.6879 34.7557C44.9626 34.8196 45.1662 34.9167 45.2987 35.0469C45.4313 35.1747 45.4976 35.3333 45.4976 35.5227C45.4976 35.7571 45.3816 35.9583 45.1496 36.1264C44.92 36.2921 44.6098 36.375 44.2192 36.375C43.8759 36.375 43.5977 36.3016 43.3847 36.1548C43.174 36.008 43.0308 35.7879 42.955 35.4943L42.1595 35.6932C42.2566 36.1572 42.4874 36.5099 42.852 36.7514C43.2166 36.9929 43.6771 37.1136 44.2334 37.1136C44.6572 37.1136 45.0289 37.0426 45.3485 36.9006C45.6681 36.7585 45.9166 36.5644 46.0942 36.3182C46.2741 36.072 46.3641 35.7926 46.3641 35.4801C46.3641 35.099 46.2445 34.7876 46.0054 34.5462C45.7663 34.3023 45.4029 34.1212 44.9152 34.0028L44.1056 33.804C43.7836 33.7235 43.5468 33.6229 43.3953 33.5021C43.2438 33.3814 43.1681 33.2169 43.1681 33.0085C43.1681 32.7741 43.2781 32.5812 43.4983 32.4297C43.7209 32.2758 43.999 32.1989 44.3328 32.1989C44.5767 32.1989 44.7767 32.2379 44.933 32.3161C45.0892 32.3942 45.2123 32.4936 45.3023 32.6143C45.3946 32.7327 45.4645 32.8546 45.5118 32.9801Z" fill="#CFD1DE"/>
</svg>
