<svg width="28" height="38" viewBox="0 0 28 38" fill="none" xmlns="http://www.w3.org/2000/svg">
<path fill-rule="evenodd" clip-rule="evenodd" d="M14.3885 0.196962C14.0319 -0.0656538 13.5459 -0.0656538 13.1892 0.196962L4.31116 6.73445C3.27581 7.49685 2.66456 8.70605 2.66456 9.99182V20.7317C2.66456 22.6866 4.24928 24.2713 6.20412 24.2713H9.74368C10.8607 24.2713 11.7663 23.3657 11.7663 22.2487V16.6865H15.8115V22.2487C15.8115 23.3657 16.717 24.2713 17.8341 24.2713H21.3737C23.3285 24.2713 24.9132 22.6866 24.9132 20.7317V9.99182C24.9132 8.70605 24.302 7.49685 23.2666 6.73445L14.3885 0.196962ZM5.51047 8.36313L13.7889 2.26721L22.0673 8.36313C22.585 8.74433 22.8906 9.34893 22.8906 9.99182V20.7317C22.8906 21.5695 22.2115 22.2487 21.3737 22.2487H17.8341V16.1808C17.8341 15.3431 17.1549 14.6639 16.3171 14.6639H11.2606C10.4228 14.6639 9.74368 15.3431 9.74368 16.1808V22.2487H6.20412C5.36633 22.2487 4.68716 21.5695 4.68716 20.7317V9.99182C4.68716 9.34893 4.99279 8.74433 5.51047 8.36313Z" fill="#CFD1DE"/>
<path d="M0.729248 29.7273V37H1.60993V33.7472H5.48777V37H6.36845V29.7273H5.48777V32.9659H1.60993V29.7273H0.729248Z" fill="#CFD1DE"/>
<path fill-rule="evenodd" clip-rule="evenodd" d="M8.9377 36.7621C9.30939 36.9964 9.74144 37.1136 10.2339 37.1136C10.7263 37.1136 11.1572 36.9964 11.5265 36.7621C11.8982 36.5277 12.187 36.1998 12.393 35.7784C12.6013 35.357 12.7055 34.8646 12.7055 34.3011C12.7055 33.733 12.6013 33.237 12.393 32.8132C12.187 32.3894 11.8982 32.0604 11.5265 31.826C11.1572 31.5916 10.7263 31.4744 10.2339 31.4744C9.74144 31.4744 9.30939 31.5916 8.9377 31.826C8.56838 32.0604 8.27956 32.3894 8.07122 32.8132C7.86526 33.237 7.76228 33.733 7.76228 34.3011C7.76228 34.8646 7.86526 35.357 8.07122 35.7784C8.27956 36.1998 8.56838 36.5277 8.9377 36.7621ZM11.1572 36.0732C10.9157 36.2649 10.6079 36.3608 10.2339 36.3608C9.85981 36.3608 9.55205 36.2649 9.31057 36.0732C9.06909 35.8814 8.89035 35.6293 8.77435 35.3168C8.65835 35.0043 8.60034 34.6657 8.60034 34.3011C8.60034 33.9366 8.65835 33.5968 8.77435 33.282C8.89035 32.9671 9.06909 32.7126 9.31057 32.5185C9.55205 32.3243 9.85981 32.2273 10.2339 32.2273C10.6079 32.2273 10.9157 32.3243 11.1572 32.5185C11.3986 32.7126 11.5774 32.9671 11.6934 33.282C11.8094 33.5968 11.8674 33.9366 11.8674 34.3011C11.8674 34.6657 11.8094 35.0043 11.6934 35.3168C11.5774 35.6293 11.3986 35.8814 11.1572 36.0732Z" fill="#CFD1DE"/>
<path d="M13.9848 31.5455V37H14.8228V33.5909C14.8228 33.3234 14.8796 33.0878 14.9933 32.8842C15.1093 32.6783 15.2608 32.5173 15.4478 32.4013C15.6372 32.2853 15.8408 32.2273 16.0586 32.2273C16.3759 32.2273 16.6351 32.3232 16.8363 32.5149C17.0375 32.7043 17.1382 32.9541 17.1382 33.2642V37H17.9904V33.4489C17.9904 33.0961 18.0958 32.8049 18.3065 32.5753C18.5172 32.3433 18.8143 32.2273 19.1978 32.2273C19.4961 32.2273 19.7554 32.3137 19.9755 32.4865C20.1957 32.6593 20.3058 32.947 20.3058 33.3494V37H21.1438V33.3494C21.1438 32.7079 20.9888 32.2356 20.6786 31.9325C20.3685 31.6271 19.9696 31.4744 19.4819 31.4744C19.0913 31.4744 18.7563 31.5585 18.4769 31.7266C18.1976 31.8923 17.9881 32.116 17.8484 32.3977H17.7916C17.6566 32.1065 17.4684 31.8804 17.2269 31.7195C16.9878 31.5561 16.6884 31.4744 16.3285 31.4744C15.9734 31.4744 15.6692 31.5561 15.4159 31.7195C15.1625 31.8804 14.9791 32.1065 14.8654 32.3977H14.7944V31.5455H13.9848Z" fill="#CFD1DE"/>
<path fill-rule="evenodd" clip-rule="evenodd" d="M23.603 36.7656C23.9842 36.9976 24.4375 37.1136 24.9631 37.1136C25.3324 37.1136 25.665 37.0568 25.961 36.9432C26.2569 36.8272 26.5055 36.6662 26.7067 36.4602C26.9079 36.2519 27.0512 36.0104 27.1364 35.7358L26.3267 35.5085C26.2557 35.6979 26.1551 35.8565 26.0249 35.9844C25.8947 36.1098 25.7396 36.2045 25.5597 36.2685C25.3821 36.33 25.1833 36.3608 24.9631 36.3608C24.6245 36.3608 24.3274 36.2874 24.0718 36.1406C23.8161 35.9915 23.616 35.7749 23.4716 35.4908C23.3428 35.231 23.2724 34.9197 23.2604 34.5568H27.2216V34.2017C27.2216 33.6927 27.1541 33.2642 27.0192 32.9162C26.8843 32.5682 26.7031 32.2888 26.4759 32.0781C26.2486 31.8651 25.9965 31.7112 25.7195 31.6165C25.4425 31.5218 25.162 31.4744 24.8779 31.4744C24.3854 31.4744 23.9546 31.5952 23.5853 31.8366C23.2183 32.0758 22.9318 32.4096 22.7259 32.8381C22.5223 33.2642 22.4205 33.7566 22.4205 34.3153C22.4205 34.8741 22.5223 35.3641 22.7259 35.7855C22.9318 36.2045 23.2242 36.5312 23.603 36.7656ZM23.2625 33.8324C23.2785 33.5794 23.3423 33.3403 23.4539 33.1151C23.5841 32.8523 23.7699 32.6392 24.0114 32.4759C24.2552 32.3101 24.5441 32.2273 24.8779 32.2273C25.1809 32.2273 25.4437 32.2971 25.6662 32.4368C25.8911 32.5765 26.0639 32.767 26.1847 33.0085C26.3078 33.25 26.3693 33.5246 26.3693 33.8324H23.2625Z" fill="#CFD1DE"/>
</svg>
