<svg width="37" height="36" viewBox="0 0 37 36" fill="none" xmlns="http://www.w3.org/2000/svg">
<path fill-rule="evenodd" clip-rule="evenodd" d="M10.5348 0.0351562C8.30359 0.0351562 6.49482 1.84392 6.49482 4.07516V18.2412C6.49482 20.4724 8.30359 22.2812 10.5348 22.2812H26.6582C28.8895 22.2812 30.6982 20.4724 30.6982 18.2412V8.02585C30.6982 5.79462 28.8895 3.98585 26.6582 3.98585H10.0089C9.45119 3.98585 8.99912 3.53378 8.99912 2.97611C8.99912 2.91056 8.99287 2.84646 8.98094 2.78439C9.35147 2.33882 9.91002 2.05516 10.5348 2.05516H27.6921C28.25 2.05516 28.7021 1.60296 28.7021 1.04516C28.7021 0.487349 28.25 0.0351562 27.6921 0.0351562H10.5348ZM8.51482 18.2412V5.61247C8.95571 5.86286 9.46558 6.00585 10.0089 6.00585H26.6582C27.7738 6.00585 28.6782 6.91024 28.6782 8.02585V18.2412C28.6782 19.3568 27.7738 20.2612 26.6582 20.2612H10.5348C9.4192 20.2612 8.51482 19.3568 8.51482 18.2412Z" fill="#CFD1DE"/>
<path fill-rule="evenodd" clip-rule="evenodd" d="M0.380615 27.7275V35.0002H3.00846C3.58137 35.0002 4.04657 34.915 4.40405 34.7446C4.76153 34.5741 5.02313 34.3433 5.18885 34.0521C5.35457 33.7609 5.43743 33.433 5.43743 33.0684C5.43743 32.6849 5.36168 32.3606 5.21016 32.0954C5.05865 31.8303 4.87044 31.6267 4.64553 31.4846C4.42062 31.3426 4.1969 31.2644 3.97437 31.2502V31.1792C4.1827 31.1224 4.37564 31.0348 4.5532 30.9164C4.73312 30.7981 4.87754 30.6371 4.98644 30.4335C5.09771 30.2299 5.15334 29.9718 5.15334 29.6593C5.15334 29.3042 5.07285 28.9811 4.91187 28.6899C4.75088 28.3963 4.50585 28.1631 4.17678 27.9903C3.84771 27.8151 3.42986 27.7275 2.92323 27.7275H0.380615ZM3.00846 34.219H1.2613V31.6906H3.05107C3.3683 31.6906 3.64293 31.7545 3.87493 31.8823C4.10694 32.0078 4.28568 32.1759 4.41116 32.3866C4.53663 32.5949 4.59937 32.8222 4.59937 33.0684C4.59937 33.388 4.47744 33.6603 4.2336 33.8852C3.99212 34.1077 3.58374 34.219 3.00846 34.219ZM2.89482 30.9235H1.2613V28.5088H2.92323C3.40618 28.5088 3.75893 28.6212 3.98147 28.8461C4.20401 29.0687 4.31527 29.3397 4.31527 29.6593C4.31527 29.915 4.25135 30.1375 4.12351 30.3269C3.99804 30.5163 3.82758 30.6631 3.61215 30.7673C3.39908 30.8714 3.15997 30.9235 2.89482 30.9235Z" fill="#CFD1DE"/>
<path d="M6.77088 29.5457V35.0002H7.60895V29.5457H6.77088Z" fill="#CFD1DE"/>
<path d="M6.77444 28.4697C6.89281 28.581 7.03367 28.6366 7.19702 28.6366C7.36037 28.6366 7.50005 28.581 7.61606 28.4697C7.73443 28.3584 7.79361 28.2247 7.79361 28.0684C7.79361 27.9122 7.73443 27.7784 7.61606 27.6671C7.50005 27.5559 7.36037 27.5002 7.19702 27.5002C7.03367 27.5002 6.89281 27.5559 6.77444 27.6671C6.65843 27.7784 6.60043 27.9122 6.60043 28.0684C6.60043 28.2247 6.65843 28.3584 6.77444 28.4697Z" fill="#CFD1DE"/>
<path d="M9.982 35.0002V27.7275H9.14393V35.0002H9.982Z" fill="#CFD1DE"/>
<path d="M12.355 35.0002V27.7275H11.517V35.0002H12.355Z" fill="#CFD1DE"/>
<path fill-rule="evenodd" clip-rule="evenodd" d="M14.8169 34.7659C15.198 34.9979 15.6514 35.1139 16.177 35.1139C16.5463 35.1139 16.8789 35.0571 17.1748 34.9434C17.4708 34.8274 17.7193 34.6664 17.9206 34.4605C18.1218 34.2521 18.265 34.0107 18.3503 33.736L17.5406 33.5088C17.4696 33.6982 17.369 33.8568 17.2387 33.9846C17.1085 34.1101 16.9535 34.2048 16.7735 34.2687C16.596 34.3303 16.3971 34.361 16.177 34.361C15.8384 34.361 15.5413 34.2876 15.2856 34.1409C15.0299 33.9917 14.8299 33.7751 14.6855 33.491C14.5567 33.2313 14.4863 32.9199 14.4743 32.5571H18.4355V32.2019C18.4355 31.6929 18.368 31.2644 18.2331 30.9164C18.0981 30.5684 17.917 30.2891 17.6897 30.0784C17.4625 29.8653 17.2103 29.7114 16.9333 29.6167C16.6564 29.522 16.3758 29.4747 16.0917 29.4747C15.5993 29.4747 15.1684 29.5954 14.7991 29.8369C14.4322 30.076 14.1457 30.4098 13.9397 30.8383C13.7361 31.2644 13.6343 31.7569 13.6343 32.3156C13.6343 32.8743 13.7361 33.3643 13.9397 33.7857C14.1457 34.2048 14.4381 34.5315 14.8169 34.7659ZM14.4764 31.8326C14.4924 31.5796 14.5561 31.3405 14.6677 31.1153C14.7979 30.8525 14.9838 30.6394 15.2253 30.4761C15.4691 30.3104 15.7579 30.2275 16.0917 30.2275C16.3948 30.2275 16.6575 30.2973 16.8801 30.437C17.105 30.5767 17.2778 30.7673 17.3985 31.0088C17.5217 31.2502 17.5832 31.5249 17.5832 31.8326H14.4764Z" fill="#CFD1DE"/>
<path d="M22.0825 30.2559V29.5457H20.9177V28.2389H20.0797V29.5457H19.2558V30.2559H20.0797V33.665C20.0797 33.9822 20.153 34.245 20.2998 34.4534C20.449 34.6617 20.636 34.8168 20.8609 34.9186C21.0882 35.0204 21.3202 35.0713 21.5569 35.0713C21.7132 35.0713 21.8422 35.0594 21.944 35.0357C22.0458 35.0144 22.1251 34.9931 22.1819 34.9718L22.0115 34.219L21.8694 34.2474C21.8102 34.2569 21.7345 34.2616 21.6422 34.2616C21.5191 34.2616 21.4019 34.2427 21.2906 34.2048C21.1817 34.1645 21.0917 34.0864 21.0207 33.9704C20.9521 33.852 20.9177 33.6745 20.9177 33.4377V30.2559H22.0825Z" fill="#CFD1DE"/>
<path fill-rule="evenodd" clip-rule="evenodd" d="M24.2114 34.7659C24.5926 34.9979 25.0459 35.1139 25.5715 35.1139C25.9408 35.1139 26.2734 35.0571 26.5694 34.9434C26.8653 34.8274 27.1139 34.6664 27.3151 34.4605C27.5163 34.2521 27.6596 34.0107 27.7448 33.736L26.9351 33.5088C26.8641 33.6982 26.7635 33.8568 26.6333 33.9846C26.5031 34.1101 26.348 34.2048 26.1681 34.2687C25.9905 34.3303 25.7917 34.361 25.5715 34.361C25.2329 34.361 24.9358 34.2876 24.6802 34.1409C24.4245 33.9917 24.2244 33.7751 24.08 33.491C23.9512 33.2313 23.8808 32.9199 23.8688 32.5571H27.83V32.2019C27.83 31.6929 27.7625 31.2644 27.6276 30.9164C27.4927 30.5684 27.3115 30.2891 27.0843 30.0784C26.857 29.8653 26.6049 29.7114 26.3279 29.6167C26.0509 29.522 25.7704 29.4747 25.4863 29.4747C24.9938 29.4747 24.563 29.5954 24.1936 29.8369C23.8267 30.076 23.5402 30.4098 23.3343 30.8383C23.1307 31.2644 23.0289 31.7569 23.0289 32.3156C23.0289 32.8743 23.1307 33.3643 23.3343 33.7857C23.5402 34.2048 23.8326 34.5315 24.2114 34.7659ZM23.8709 31.8326C23.8869 31.5796 23.9507 31.3405 24.0623 31.1153C24.1925 30.8525 24.3783 30.6394 24.6198 30.4761C24.8636 30.3104 25.1525 30.2275 25.4863 30.2275C25.7893 30.2275 26.0521 30.2973 26.2746 30.437C26.4995 30.5767 26.6723 30.7673 26.7931 31.0088C26.9162 31.2502 26.9777 31.5249 26.9777 31.8326H23.8709Z" fill="#CFD1DE"/>
<path d="M29.1049 29.5457V35.0002H29.9429V31.5485C29.9429 31.3023 30.0021 31.0833 30.1205 30.8916C30.2412 30.6974 30.4046 30.5459 30.6106 30.437C30.8189 30.3258 31.0556 30.2701 31.3208 30.2701C31.432 30.2701 31.5374 30.2784 31.6368 30.295C31.7386 30.3092 31.8037 30.3198 31.8321 30.3269V29.4747C31.7848 29.4699 31.715 29.4664 31.6226 29.464C31.5303 29.4616 31.4534 29.4605 31.3918 29.4605C31.0651 29.4605 30.7715 29.5445 30.5111 29.7126C30.2507 29.8807 30.0708 30.0997 29.9713 30.3696H29.9145V29.5457H29.1049Z" fill="#CFD1DE"/>
<path fill-rule="evenodd" clip-rule="evenodd" d="M33.4896 34.9328C33.7714 35.063 34.085 35.1281 34.4307 35.1281C34.7479 35.1281 35.0166 35.0807 35.2368 34.986C35.457 34.8913 35.6333 34.7765 35.7659 34.6416C35.8985 34.5066 35.9932 34.38 36.05 34.2616H36.0926V35.0002H36.9307V31.4065C36.9307 30.9732 36.8597 30.6276 36.7176 30.3696C36.5756 30.1115 36.3968 29.9186 36.1814 29.7907C35.9683 29.6629 35.747 29.5788 35.5173 29.5386C35.2901 29.496 35.0888 29.4747 34.9136 29.4747C34.639 29.4747 34.3597 29.5125 34.0756 29.5883C33.7938 29.6617 33.5334 29.7919 33.2943 29.9789C33.0576 30.1636 32.8682 30.4216 32.7261 30.7531L33.5216 31.0372C33.6139 30.8383 33.7737 30.6513 34.001 30.4761C34.2283 30.3009 34.542 30.2133 34.9421 30.2133C35.3279 30.2133 35.6156 30.3104 35.805 30.5045C35.9967 30.6986 36.0926 30.9709 36.0926 31.3213V31.3497C36.0926 31.4846 36.0441 31.5793 35.947 31.6338C35.8523 31.6882 35.7008 31.7273 35.4925 31.7509C35.2865 31.7723 35.0178 31.8042 34.6864 31.8468C34.4331 31.88 34.1809 31.9249 33.93 31.9818C33.6814 32.0362 33.4541 32.1191 33.2482 32.2303C33.0422 32.3416 32.8777 32.4955 32.7546 32.692C32.6314 32.8861 32.5699 33.1394 32.5699 33.4519C32.5699 33.8071 32.6528 34.1101 32.8185 34.361C32.9842 34.6096 33.2079 34.8002 33.4896 34.9328ZM35.3966 34.1799C35.1693 34.3101 34.89 34.3752 34.5585 34.3752C34.2247 34.3752 33.9489 34.3018 33.7311 34.1551C33.5157 34.0059 33.408 33.7857 33.408 33.4946C33.408 33.2815 33.4648 33.1134 33.5784 32.9903C33.6944 32.8648 33.8459 32.7713 34.033 32.7098C34.2224 32.6458 34.426 32.5997 34.6438 32.5713C34.7337 32.5594 34.8509 32.5452 34.9953 32.5286C35.1421 32.5097 35.2924 32.4884 35.4463 32.4647C35.6026 32.4387 35.7399 32.4091 35.8582 32.3759C35.979 32.3404 36.0571 32.3014 36.0926 32.2588V33.0258C36.0926 33.2531 36.0334 33.4697 35.9151 33.6757C35.7991 33.8816 35.6262 34.0497 35.3966 34.1799Z" fill="#CFD1DE"/>
</svg>
