<svg width="47" height="40" viewBox="0 0 47 40" fill="none" xmlns="http://www.w3.org/2000/svg">
<path fill-rule="evenodd" clip-rule="evenodd" d="M29.7671 2.02261H29.5945C29.178 0.844244 28.0542 0 26.7332 0H20.6654C19.3444 0 18.2206 0.844243 17.8041 2.02261H17.6315C15.3974 2.02261 13.5863 3.8337 13.5863 6.06781V20.2261C13.5863 22.4602 15.3974 24.2713 17.6315 24.2713H29.7671C32.0012 24.2713 33.8123 22.4602 33.8123 20.2261V6.06782C33.8123 3.83371 32.0012 2.02261 29.7671 2.02261ZM15.6089 6.06781C15.6089 4.95076 16.5144 4.04521 17.6315 4.04521C17.6315 5.72079 18.9898 7.07912 20.6654 7.07912H26.7332C28.4088 7.07912 29.7671 5.72079 29.7671 4.04521C30.8842 4.04521 31.7897 4.95076 31.7897 6.06782V20.2261C31.7897 21.3431 30.8842 22.2487 29.7671 22.2487H17.6315C16.5144 22.2487 15.6089 21.3431 15.6089 20.2261V6.06781ZM20.6654 2.02261C20.1069 2.02261 19.6541 2.47538 19.6541 3.03391V4.04521C19.6541 4.60374 20.1069 5.05651 20.6654 5.05651H26.7332C27.2917 5.05651 27.7445 4.60374 27.7445 4.04521V3.03391C27.7445 2.47538 27.2917 2.02261 26.7332 2.02261H20.6654Z" fill="#CFD1DE"/>
<path fill-rule="evenodd" clip-rule="evenodd" d="M0.97168 29.7273V37H1.85236V34.3438H3.44327C4.00909 34.3438 4.4731 34.2408 4.83532 34.0348C5.19753 33.8265 5.46505 33.5471 5.63787 33.1967C5.81306 32.8464 5.90066 32.4569 5.90066 32.0284C5.90066 31.5999 5.81306 31.2116 5.63787 30.8636C5.46268 30.5156 5.1928 30.2398 4.82821 30.0362C4.466 29.8303 3.99962 29.7273 3.42907 29.7273H0.97168ZM1.85236 33.5625H3.41486C3.80549 33.5625 4.11917 33.495 4.35591 33.3601C4.59265 33.2251 4.76429 33.0429 4.87083 32.8132C4.97973 32.5812 5.03418 32.3196 5.03418 32.0284C5.03418 31.7372 4.97973 31.4768 4.87083 31.2472C4.76429 31.0175 4.59147 30.8376 4.35236 30.7074C4.11325 30.5748 3.79602 30.5085 3.40066 30.5085H1.85236V33.5625Z" fill="#CFD1DE"/>
<path d="M7.2057 31.5455V37H8.04377V33.5483C8.04377 33.3021 8.10295 33.0831 8.22132 32.8913C8.34206 32.6972 8.50542 32.5457 8.71138 32.4368C8.91971 32.3255 9.15646 32.2699 9.42161 32.2699C9.53288 32.2699 9.63823 32.2782 9.73766 32.2947C9.83946 32.3089 9.90456 32.3196 9.93297 32.3267V31.4744C9.88562 31.4697 9.81578 31.4661 9.72346 31.4638C9.63113 31.4614 9.55418 31.4602 9.49263 31.4602C9.16593 31.4602 8.87237 31.5443 8.61195 31.7124C8.35153 31.8804 8.17161 32.0994 8.07218 32.3693H8.01536V31.5455H7.2057Z" fill="#CFD1DE"/>
<path fill-rule="evenodd" clip-rule="evenodd" d="M11.6801 36.7621C12.0518 36.9964 12.4839 37.1136 12.9763 37.1136C13.4687 37.1136 13.8996 36.9964 14.2689 36.7621C14.6406 36.5277 14.9294 36.1998 15.1354 35.7784C15.3437 35.357 15.4479 34.8646 15.4479 34.3011C15.4479 33.733 15.3437 33.237 15.1354 32.8132C14.9294 32.3894 14.6406 32.0604 14.2689 31.826C13.8996 31.5916 13.4687 31.4744 12.9763 31.4744C12.4839 31.4744 12.0518 31.5916 11.6801 31.826C11.3108 32.0604 11.022 32.3894 10.8137 32.8132C10.6077 33.237 10.5047 33.733 10.5047 34.3011C10.5047 34.8646 10.6077 35.357 10.8137 35.7784C11.022 36.1998 11.3108 36.5277 11.6801 36.7621ZM13.8996 36.0732C13.6581 36.2649 13.3503 36.3608 12.9763 36.3608C12.6022 36.3608 12.2945 36.2649 12.053 36.0732C11.8115 35.8814 11.6328 35.6293 11.5168 35.3168C11.4008 35.0043 11.3428 34.6657 11.3428 34.3011C11.3428 33.9366 11.4008 33.5968 11.5168 33.282C11.6328 32.9671 11.8115 32.7126 12.053 32.5185C12.2945 32.3243 12.6022 32.2273 12.9763 32.2273C13.3503 32.2273 13.6581 32.3243 13.8996 32.5185C14.1411 32.7126 14.3198 32.9671 14.4358 33.282C14.5518 33.5968 14.6098 33.9366 14.6098 34.3011C14.6098 34.6657 14.5518 35.0043 14.4358 35.3168C14.3198 35.6293 14.1411 35.8814 13.8996 36.0732Z" fill="#CFD1DE"/>
<path d="M16.6917 39.0099C16.8029 39.0336 16.9296 39.0455 17.0716 39.0455C17.325 39.0455 17.5522 39.0005 17.7535 38.9105C17.9571 38.8205 18.1358 38.6821 18.2897 38.495C18.4436 38.3104 18.5726 38.0772 18.6768 37.7955L20.9921 31.5455H20.083L18.5773 35.892H18.5205L17.0148 31.5455H16.1057L18.1228 37.0284L17.9665 37.4545C17.8647 37.7315 17.7523 37.9316 17.6292 38.0547C17.5084 38.1802 17.3699 38.25 17.2137 38.2642C17.0574 38.2784 16.8775 38.2595 16.6739 38.2074L16.4608 38.946C16.5035 38.9673 16.5804 38.9886 16.6917 39.0099Z" fill="#CFD1DE"/>
<path fill-rule="evenodd" clip-rule="evenodd" d="M22.8298 36.7656C23.211 36.9976 23.6643 37.1136 24.1899 37.1136C24.5592 37.1136 24.8918 37.0568 25.1878 36.9432C25.4837 36.8272 25.7323 36.6662 25.9335 36.4602C26.1347 36.2519 26.278 36.0104 26.3632 35.7358L25.5535 35.5085C25.4825 35.6979 25.3819 35.8565 25.2517 35.9844C25.1215 36.1098 24.9664 36.2045 24.7865 36.2685C24.6089 36.33 24.4101 36.3608 24.1899 36.3608C23.8514 36.3608 23.5542 36.2874 23.2986 36.1406C23.0429 35.9915 22.8428 35.7749 22.6984 35.4908C22.5696 35.231 22.4992 34.9197 22.4872 34.5568H26.4484V34.2017C26.4484 33.6927 26.3809 33.2642 26.246 32.9162C26.1111 32.5682 25.93 32.2888 25.7027 32.0781C25.4754 31.8651 25.2233 31.7112 24.9463 31.6165C24.6693 31.5218 24.3888 31.4744 24.1047 31.4744C23.6122 31.4744 23.1814 31.5952 22.8121 31.8366C22.4451 32.0758 22.1586 32.4096 21.9527 32.8381C21.7491 33.2642 21.6473 33.7566 21.6473 34.3153C21.6473 34.8741 21.7491 35.3641 21.9527 35.7855C22.1586 36.2045 22.451 36.5312 22.8298 36.7656ZM22.4893 33.8324C22.5053 33.5794 22.5691 33.3403 22.6807 33.1151C22.8109 32.8523 22.9967 32.6392 23.2382 32.4759C23.482 32.3101 23.7709 32.2273 24.1047 32.2273C24.4077 32.2273 24.6705 32.2971 24.893 32.4368C25.1179 32.5765 25.2907 32.767 25.4115 33.0085C25.5346 33.25 25.5961 33.5246 25.5961 33.8324H22.4893Z" fill="#CFD1DE"/>
<path d="M28.6182 36.7514C28.9875 36.9929 29.4278 37.1136 29.9392 37.1136C30.3416 37.1136 30.6944 37.0391 30.9974 36.8899C31.3028 36.7384 31.5479 36.5348 31.7325 36.2791C31.9195 36.0211 32.0367 35.7311 32.0841 35.4091H31.246C31.1939 35.608 31.1063 35.7784 30.9832 35.9205C30.8601 36.0625 30.7098 36.1714 30.5322 36.2472C30.3547 36.3229 30.157 36.3608 29.9392 36.3608C29.6077 36.3608 29.3189 36.2744 29.0727 36.1016C28.8289 35.9287 28.6395 35.6861 28.5045 35.3736C28.372 35.0611 28.3057 34.6941 28.3057 34.2727C28.3057 33.8608 28.3731 33.5021 28.5081 33.1967C28.6454 32.889 28.836 32.651 29.0798 32.483C29.326 32.3125 29.6125 32.2273 29.9392 32.2273C30.3085 32.2273 30.6021 32.3243 30.8199 32.5185C31.04 32.7102 31.1821 32.9304 31.246 33.179H32.0841C32.0367 32.8381 31.9148 32.5398 31.7183 32.2841C31.5218 32.0284 31.2697 31.8295 30.9619 31.6875C30.6541 31.5455 30.3085 31.4744 29.925 31.4744C29.4326 31.4744 29.0017 31.5952 28.6324 31.8366C28.2654 32.0758 27.979 32.4084 27.773 32.8345C27.5694 33.2583 27.4676 33.7472 27.4676 34.3011C27.4676 34.8456 27.567 35.3298 27.7659 35.7536C27.9648 36.1773 28.2488 36.5099 28.6182 36.7514Z" fill="#CFD1DE"/>
<path d="M35.6814 32.2557V31.5455H34.5166V30.2386H33.6785V31.5455H32.8547V32.2557H33.6785V35.6648C33.6785 35.982 33.7519 36.2448 33.8987 36.4531C34.0479 36.6615 34.2349 36.8165 34.4598 36.9183C34.6871 37.0201 34.9191 37.071 35.1558 37.071C35.3121 37.071 35.4411 37.0592 35.5429 37.0355C35.6447 37.0142 35.724 36.9929 35.7808 36.9716L35.6104 36.2188L35.4683 36.2472C35.4091 36.2566 35.3334 36.2614 35.241 36.2614C35.1179 36.2614 35.0007 36.2424 34.8895 36.2045C34.7806 36.1643 34.6906 36.0862 34.6196 35.9702C34.5509 35.8518 34.5166 35.6742 34.5166 35.4375V32.2557H35.6814Z" fill="#CFD1DE"/>
<path fill-rule="evenodd" clip-rule="evenodd" d="M37.8032 36.7621C38.1749 36.9964 38.6069 37.1136 39.0993 37.1136C39.5918 37.1136 40.0226 36.9964 40.392 36.7621C40.7636 36.5277 41.0525 36.1998 41.2584 35.7784C41.4668 35.357 41.5709 34.8646 41.5709 34.3011C41.5709 33.733 41.4668 33.237 41.2584 32.8132C41.0525 32.3894 40.7636 32.0604 40.392 31.826C40.0226 31.5916 39.5918 31.4744 39.0993 31.4744C38.6069 31.4744 38.1749 31.5916 37.8032 31.826C37.4339 32.0604 37.145 32.3894 36.9367 32.8132C36.7307 33.237 36.6278 33.733 36.6278 34.3011C36.6278 34.8646 36.7307 35.357 36.9367 35.7784C37.145 36.1998 37.4339 36.5277 37.8032 36.7621ZM40.0226 36.0732C39.7812 36.2649 39.4734 36.3608 39.0993 36.3608C38.7253 36.3608 38.4175 36.2649 38.176 36.0732C37.9346 35.8814 37.7558 35.6293 37.6398 35.3168C37.5238 35.0043 37.4658 34.6657 37.4658 34.3011C37.4658 33.9366 37.5238 33.5968 37.6398 33.282C37.7558 32.9671 37.9346 32.7126 38.176 32.5185C38.4175 32.3243 38.7253 32.2273 39.0993 32.2273C39.4734 32.2273 39.7812 32.3243 40.0226 32.5185C40.2641 32.7126 40.4429 32.9671 40.5589 33.282C40.6749 33.5968 40.7329 33.9366 40.7329 34.3011C40.7329 34.6657 40.6749 35.0043 40.5589 35.3168C40.4429 35.6293 40.2641 35.8814 40.0226 36.0732Z" fill="#CFD1DE"/>
<path d="M45.961 32.9801L46.7139 32.767C46.5837 32.3788 46.3635 32.0663 46.0534 31.8295C45.7456 31.5928 45.3218 31.4744 44.7821 31.4744C44.3985 31.4744 44.0553 31.5419 43.7522 31.6768C43.4516 31.8118 43.2136 31.9976 43.0384 32.2344C42.8656 32.4711 42.7792 32.7434 42.7792 33.0511C42.7792 33.4276 42.8952 33.7412 43.1272 33.9922C43.3616 34.2408 43.7285 34.4242 44.2281 34.5426L45.1372 34.7557C45.4118 34.8196 45.6154 34.9167 45.748 35.0469C45.8805 35.1747 45.9468 35.3333 45.9468 35.5227C45.9468 35.7571 45.8308 35.9583 45.5988 36.1264C45.3692 36.2921 45.059 36.375 44.6684 36.375C44.3251 36.375 44.047 36.3016 43.8339 36.1548C43.6232 36.008 43.48 35.7879 43.4042 35.4943L42.6088 35.6932C42.7058 36.1572 42.9366 36.5099 43.3012 36.7514C43.6658 36.9929 44.1263 37.1136 44.6826 37.1136C45.1064 37.1136 45.4781 37.0426 45.7977 36.9006C46.1173 36.7585 46.3659 36.5644 46.5434 36.3182C46.7233 36.072 46.8133 35.7926 46.8133 35.4801C46.8133 35.099 46.6937 34.7876 46.4546 34.5462C46.2155 34.3023 45.8521 34.1212 45.3644 34.0028L44.5548 33.804C44.2328 33.7235 43.9961 33.6229 43.8446 33.5021C43.693 33.3814 43.6173 33.2169 43.6173 33.0085C43.6173 32.7741 43.7274 32.5812 43.9475 32.4297C44.1701 32.2758 44.4482 32.1989 44.7821 32.1989C45.0259 32.1989 45.2259 32.2379 45.3822 32.3161C45.5384 32.3942 45.6615 32.4936 45.7515 32.6143C45.8438 32.7327 45.9137 32.8546 45.961 32.9801Z" fill="#CFD1DE"/>
</svg>
