<svg width="24" height="37" viewBox="0 0 24 37" fill="none" xmlns="http://www.w3.org/2000/svg">
<path fill-rule="evenodd" clip-rule="evenodd" d="M6.44177 6.07954C6.44177 2.72837 9.15843 0.0117188 12.5096 0.0117188C15.8608 0.0117188 18.5774 2.72837 18.5774 6.07954C18.5774 9.4307 15.8608 12.1474 12.5096 12.1474C9.15843 12.1474 6.44177 9.4307 6.44177 6.07954ZM12.5096 2.03432C10.2755 2.03432 8.46438 3.84543 8.46438 6.07954C8.46438 8.31364 10.2755 10.1247 12.5096 10.1247C14.7437 10.1247 16.5548 8.31364 16.5548 6.07954C16.5548 3.84543 14.7437 2.03432 12.5096 2.03432Z" fill="#CFD1DE"/>
<path d="M12.5096 16.6982C10.0983 16.6982 7.81426 17.2365 6.25781 17.7185C5.38107 17.9901 4.73605 18.7845 4.57828 19.7988L4.40715 20.8989C4.3213 21.4508 3.80431 21.8286 3.25242 21.7427C2.70053 21.6569 2.32273 21.1399 2.40858 20.588L2.57971 19.4879C2.83909 17.8204 3.94366 16.3179 5.65941 15.7865C7.32249 15.2714 9.82087 14.6756 12.5096 14.6756C15.1983 14.6756 17.6967 15.2714 19.3598 15.7865C21.0755 16.3179 22.1801 17.8204 22.4395 19.4879L22.6106 20.588C22.6965 21.1399 22.3187 21.6569 21.7668 21.7427C21.2149 21.8286 20.6979 21.4508 20.612 20.8989L20.4409 19.7988C20.2831 18.7845 19.6381 17.9901 18.7614 17.7185C17.2049 17.2365 14.9208 16.6982 12.5096 16.6982Z" fill="#CFD1DE"/>
<path fill-rule="evenodd" clip-rule="evenodd" d="M0.129639 28.7277V36.0004H1.01032V33.3442H2.60123C3.16704 33.3442 3.63106 33.2412 3.99328 33.0352C4.35549 32.8269 4.62301 32.5475 4.79583 32.1971C4.97102 31.8468 5.05862 31.4573 5.05862 31.0288C5.05862 30.6003 4.97102 30.2121 4.79583 29.8641C4.62064 29.516 4.35076 29.2402 3.98617 29.0366C3.62396 28.8307 3.15757 28.7277 2.58703 28.7277H0.129639ZM1.01032 32.5629H2.57282C2.96345 32.5629 3.27713 32.4954 3.51387 32.3605C3.75061 32.2256 3.92225 32.0433 4.02879 31.8136C4.13769 31.5816 4.19214 31.32 4.19214 31.0288C4.19214 30.7376 4.13769 30.4772 4.02879 30.2476C3.92225 30.0179 3.74943 29.838 3.51032 29.7078C3.27121 29.5752 2.95398 29.5089 2.55862 29.5089H1.01032V32.5629Z" fill="#CFD1DE"/>
<path fill-rule="evenodd" clip-rule="evenodd" d="M7.23191 35.766C7.61307 35.998 8.06643 36.1141 8.592 36.1141C8.96132 36.1141 9.29394 36.0572 9.58987 35.9436C9.88579 35.8276 10.1344 35.6666 10.3356 35.4606C10.5368 35.2523 10.6801 35.0108 10.7653 34.7362L9.95563 34.5089C9.88461 34.6983 9.78399 34.8569 9.65379 34.9848C9.52358 35.1103 9.36851 35.205 9.18859 35.2689C9.01103 35.3304 8.81217 35.3612 8.592 35.3612C8.25346 35.3612 7.95634 35.2878 7.70066 35.141C7.44498 34.9919 7.24493 34.7753 7.10052 34.4912C6.97172 34.2314 6.90132 33.9201 6.88931 33.5572H10.8505V33.2021C10.8505 32.6931 10.783 32.2646 10.6481 31.9166C10.5132 31.5686 10.3321 31.2892 10.1048 31.0785C9.87751 30.8655 9.62538 30.7116 9.34839 30.6169C9.0714 30.5222 8.79086 30.4748 8.50677 30.4748C8.01435 30.4748 7.58347 30.5956 7.21416 30.8371C6.8472 31.0762 6.56075 31.41 6.35478 31.8385C6.15118 32.2646 6.04938 32.757 6.04938 33.3158C6.04938 33.8745 6.15118 34.3645 6.35478 34.7859C6.56075 35.205 6.85312 35.5317 7.23191 35.766ZM6.89145 32.8328C6.90741 32.5798 6.97118 32.3407 7.08276 32.1155C7.21297 31.8527 7.39881 31.6396 7.64029 31.4763C7.88414 31.3105 8.17296 31.2277 8.50677 31.2277C8.8098 31.2277 9.07258 31.2975 9.29512 31.4372C9.52003 31.5769 9.69285 31.7675 9.81359 32.0089C9.93669 32.2504 9.99825 32.525 9.99825 32.8328H6.89145Z" fill="#CFD1DE"/>
<path d="M12.1254 30.5459V36.0004H12.9634V32.5487C12.9634 32.3025 13.0226 32.0835 13.141 31.8918C13.2617 31.6976 13.4251 31.5461 13.6311 31.4372C13.8394 31.3259 14.0761 31.2703 14.3413 31.2703C14.4526 31.2703 14.5579 31.2786 14.6573 31.2952C14.7591 31.3094 14.8242 31.32 14.8526 31.3271V30.4748C14.8053 30.4701 14.7355 30.4666 14.6431 30.4642C14.5508 30.4618 14.4739 30.4606 14.4123 30.4606C14.0856 30.4606 13.792 30.5447 13.5316 30.7128C13.2712 30.8809 13.0913 31.0998 12.9919 31.3697H12.935V30.5459H12.1254Z" fill="#CFD1DE"/>
<path d="M18.6169 31.2561V30.5459H17.3953V29.9919C17.3953 29.722 17.4556 29.5172 17.5764 29.3775C17.6995 29.2379 17.8995 29.168 18.1765 29.168C18.2973 29.168 18.3943 29.1787 18.4677 29.2C18.5435 29.2213 18.6026 29.2391 18.6453 29.2533L18.8867 28.5288C18.8228 28.5004 18.7258 28.4696 18.5955 28.4365C18.4653 28.4034 18.2973 28.3868 18.0913 28.3868C17.8309 28.3868 17.5835 28.4389 17.3491 28.543C17.1147 28.6472 16.9241 28.8034 16.7774 29.0118C16.6306 29.2201 16.5572 29.4805 16.5572 29.793V30.5459H15.6765V31.2561H16.5572V36.0004H17.3953V31.2561H18.6169Z" fill="#CFD1DE"/>
<path d="M19.7914 30.5459V36.0004H20.6295V30.5459H19.7914Z" fill="#CFD1DE"/>
<path d="M19.7949 29.4699C19.9133 29.5811 20.0542 29.6368 20.2175 29.6368C20.3809 29.6368 20.5206 29.5811 20.6366 29.4699C20.7549 29.3586 20.8141 29.2248 20.8141 29.0686C20.8141 28.9123 20.7549 28.7786 20.6366 28.6673C20.5206 28.556 20.3809 28.5004 20.2175 28.5004C20.0542 28.5004 19.9133 28.556 19.7949 28.6673C19.6789 28.7786 19.6209 28.9123 19.6209 29.0686C19.6209 29.2248 19.6789 29.3586 19.7949 29.4699Z" fill="#CFD1DE"/>
<path d="M23.0025 36.0004V28.7277H22.1644V36.0004H23.0025Z" fill="#CFD1DE"/>
</svg>
