<svg width="37" height="36" viewBox="0 0 37 36" fill="none" xmlns="http://www.w3.org/2000/svg">
<path fill-rule="evenodd" clip-rule="evenodd" d="M10.3632 0.0351562C8.13196 0.0351562 6.32318 1.84392 6.32318 4.07516V18.2412C6.32318 20.4724 8.13196 22.2812 10.3632 22.2812H26.4866C28.7178 22.2812 30.5266 20.4724 30.5266 18.2412V8.02585C30.5266 5.79462 28.7178 3.98585 26.4866 3.98585H9.83722C9.27956 3.98585 8.82749 3.53378 8.82749 2.97611C8.82749 2.91056 8.82124 2.84646 8.80931 2.78439C9.17984 2.33882 9.73839 2.05516 10.3632 2.05516H27.5205C28.0783 2.05516 28.5305 1.60296 28.5305 1.04516C28.5305 0.487349 28.0783 0.0351562 27.5205 0.0351562H10.3632ZM8.34319 18.2412V5.61247C8.78408 5.86286 9.29395 6.00585 9.83722 6.00585H26.4866C27.6022 6.00585 28.5066 6.91024 28.5066 8.02585V18.2412C28.5066 19.3568 27.6022 20.2612 26.4866 20.2612H10.3632C9.24757 20.2612 8.34319 19.3568 8.34319 18.2412Z" fill="#55B3FF"/>
<path fill-rule="evenodd" clip-rule="evenodd" d="M0.208984 27.7275V35.0002H2.83683C3.40974 35.0002 3.87494 34.915 4.23242 34.7446C4.5899 34.5741 4.8515 34.3433 5.01722 34.0521C5.18294 33.7609 5.2658 33.433 5.2658 33.0684C5.2658 32.6849 5.19004 32.3606 5.03853 32.0954C4.88701 31.8303 4.6988 31.6267 4.4739 31.4846C4.24899 31.3426 4.02527 31.2644 3.80273 31.2502V31.1792C4.01107 31.1224 4.20401 31.0348 4.38157 30.9164C4.56149 30.7981 4.70591 30.6371 4.81481 30.4335C4.92608 30.2299 4.98171 29.9718 4.98171 29.6593C4.98171 29.3042 4.90122 28.9811 4.74023 28.6899C4.57925 28.3963 4.33422 28.1631 4.00515 27.9903C3.67608 27.8151 3.25823 27.7275 2.7516 27.7275H0.208984ZM2.83683 34.219H1.08967V31.6906H2.87944C3.19667 31.6906 3.47129 31.7545 3.7033 31.8823C3.93531 32.0078 4.11405 32.1759 4.23952 32.3866C4.365 32.5949 4.42773 32.8222 4.42773 33.0684C4.42773 33.388 4.30581 33.6603 4.06197 33.8852C3.82049 34.1077 3.41211 34.219 2.83683 34.219ZM2.72319 30.9235H1.08967V28.5088H2.7516C3.23455 28.5088 3.5873 28.6212 3.80984 28.8461C4.03237 29.0687 4.14364 29.3397 4.14364 29.6593C4.14364 29.915 4.07972 30.1375 3.95188 30.3269C3.82641 30.5163 3.65595 30.6631 3.44052 30.7673C3.22745 30.8714 2.98834 30.9235 2.72319 30.9235Z" fill="#55B3FF"/>
<path d="M6.59925 29.5457V35.0002H7.43732V29.5457H6.59925Z" fill="#55B3FF"/>
<path d="M6.60281 28.4697C6.72118 28.581 6.86204 28.6366 7.02539 28.6366C7.18874 28.6366 7.32842 28.581 7.44442 28.4697C7.5628 28.3584 7.62198 28.2247 7.62198 28.0684C7.62198 27.9122 7.5628 27.7784 7.44442 27.6671C7.32842 27.5559 7.18874 27.5002 7.02539 27.5002C6.86204 27.5002 6.72118 27.5559 6.60281 27.6671C6.4868 27.7784 6.4288 27.9122 6.4288 28.0684C6.4288 28.2247 6.4868 28.3584 6.60281 28.4697Z" fill="#55B3FF"/>
<path d="M9.81037 35.0002V27.7275H8.9723V35.0002H9.81037Z" fill="#55B3FF"/>
<path d="M12.1834 35.0002V27.7275H11.3453V35.0002H12.1834Z" fill="#55B3FF"/>
<path fill-rule="evenodd" clip-rule="evenodd" d="M14.6452 34.7659C15.0264 34.9979 15.4798 35.1139 16.0053 35.1139C16.3746 35.1139 16.7073 35.0571 17.0032 34.9434C17.2991 34.8274 17.5477 34.6664 17.7489 34.4605C17.9502 34.2521 18.0934 34.0107 18.1786 33.736L17.369 33.5088C17.2979 33.6982 17.1973 33.8568 17.0671 33.9846C16.9369 34.1101 16.7818 34.2048 16.6019 34.2687C16.4244 34.3303 16.2255 34.361 16.0053 34.361C15.6668 34.361 15.3697 34.2876 15.114 34.1409C14.8583 33.9917 14.6583 33.7751 14.5138 33.491C14.3851 33.2313 14.3146 32.9199 14.3026 32.5571H18.2638V32.2019C18.2638 31.6929 18.1964 31.2644 18.0614 30.9164C17.9265 30.5684 17.7454 30.2891 17.5181 30.0784C17.2908 29.8653 17.0387 29.7114 16.7617 29.6167C16.4847 29.522 16.2042 29.4747 15.9201 29.4747C15.4277 29.4747 14.9968 29.5954 14.6275 29.8369C14.2605 30.076 13.9741 30.4098 13.7681 30.8383C13.5645 31.2644 13.4627 31.7569 13.4627 32.3156C13.4627 32.8743 13.5645 33.3643 13.7681 33.7857C13.9741 34.2048 14.2665 34.5315 14.6452 34.7659ZM14.3048 31.8326C14.3207 31.5796 14.3845 31.3405 14.4961 31.1153C14.6263 30.8525 14.8121 30.6394 15.0536 30.4761C15.2975 30.3104 15.5863 30.2275 15.9201 30.2275C16.2231 30.2275 16.4859 30.2973 16.7085 30.437C16.9334 30.5767 17.1062 30.7673 17.2269 31.0088C17.35 31.2502 17.4116 31.5249 17.4116 31.8326H14.3048Z" fill="#55B3FF"/>
<path d="M21.9109 30.2559V29.5457H20.7461V28.2389H19.908V29.5457H19.0842V30.2559H19.908V33.665C19.908 33.9822 19.9814 34.245 20.1282 34.4534C20.2773 34.6617 20.4644 34.8168 20.6893 34.9186C20.9165 35.0204 21.1486 35.0713 21.3853 35.0713C21.5415 35.0713 21.6706 35.0594 21.7724 35.0357C21.8742 35.0144 21.9535 34.9931 22.0103 34.9718L21.8398 34.219L21.6978 34.2474C21.6386 34.2569 21.5629 34.2616 21.4705 34.2616C21.3474 34.2616 21.2302 34.2427 21.119 34.2048C21.0101 34.1645 20.9201 34.0864 20.8491 33.9704C20.7804 33.852 20.7461 33.6745 20.7461 33.4377V30.2559H21.9109Z" fill="#55B3FF"/>
<path fill-rule="evenodd" clip-rule="evenodd" d="M24.0398 34.7659C24.4209 34.9979 24.8743 35.1139 25.3999 35.1139C25.7692 35.1139 26.1018 35.0571 26.3977 34.9434C26.6937 34.8274 26.9422 34.6664 27.1435 34.4605C27.3447 34.2521 27.4879 34.0107 27.5732 33.736L26.7635 33.5088C26.6925 33.6982 26.5919 33.8568 26.4616 33.9846C26.3314 34.1101 26.1764 34.2048 25.9964 34.2687C25.8189 34.3303 25.62 34.361 25.3999 34.361C25.0613 34.361 24.7642 34.2876 24.5085 34.1409C24.2528 33.9917 24.0528 33.7751 23.9084 33.491C23.7796 33.2313 23.7092 32.9199 23.6972 32.5571H27.6584V32.2019C27.6584 31.6929 27.5909 31.2644 27.456 30.9164C27.321 30.5684 27.1399 30.2891 26.9126 30.0784C26.6854 29.8653 26.4332 29.7114 26.1562 29.6167C25.8793 29.522 25.5987 29.4747 25.3146 29.4747C24.8222 29.4747 24.3913 29.5954 24.022 29.8369C23.6551 30.076 23.3686 30.4098 23.1626 30.8383C22.959 31.2644 22.8572 31.7569 22.8572 32.3156C22.8572 32.8743 22.959 33.3643 23.1626 33.7857C23.3686 34.2048 23.661 34.5315 24.0398 34.7659ZM23.6993 31.8326C23.7153 31.5796 23.779 31.3405 23.8906 31.1153C24.0208 30.8525 24.2067 30.6394 24.4482 30.4761C24.692 30.3104 24.9808 30.2275 25.3146 30.2275C25.6177 30.2275 25.8804 30.2973 26.103 30.437C26.3279 30.5767 26.5007 30.7673 26.6214 31.0088C26.7446 31.2502 26.8061 31.5249 26.8061 31.8326H23.6993Z" fill="#55B3FF"/>
<path d="M28.9332 29.5457V35.0002H29.7713V31.5485C29.7713 31.3023 29.8305 31.0833 29.9489 30.8916C30.0696 30.6974 30.233 30.5459 30.4389 30.437C30.6473 30.3258 30.884 30.2701 31.1491 30.2701C31.2604 30.2701 31.3658 30.2784 31.4652 30.295C31.567 30.3092 31.6321 30.3198 31.6605 30.3269V29.4747C31.6132 29.4699 31.5433 29.4664 31.451 29.464C31.3587 29.4616 31.2817 29.4605 31.2202 29.4605C30.8935 29.4605 30.5999 29.5445 30.3395 29.7126C30.0791 29.8807 29.8991 30.0997 29.7997 30.3696H29.7429V29.5457H28.9332Z" fill="#55B3FF"/>
<path fill-rule="evenodd" clip-rule="evenodd" d="M33.318 34.9328C33.5997 35.063 33.9134 35.1281 34.2591 35.1281C34.5763 35.1281 34.845 35.0807 35.0652 34.986C35.2853 34.8913 35.4617 34.7765 35.5943 34.6416C35.7269 34.5066 35.8216 34.38 35.8784 34.2616H35.921V35.0002H36.7591V31.4065C36.7591 30.9732 36.688 30.6276 36.546 30.3696C36.4039 30.1115 36.2252 29.9186 36.0098 29.7907C35.7967 29.6629 35.5753 29.5788 35.3457 29.5386C35.1184 29.496 34.9172 29.4747 34.742 29.4747C34.4674 29.4747 34.188 29.5125 33.9039 29.5883C33.6222 29.6617 33.3618 29.7919 33.1227 29.9789C32.886 30.1636 32.6966 30.4216 32.5545 30.7531L33.35 31.0372C33.4423 30.8383 33.6021 30.6513 33.8294 30.4761C34.0566 30.3009 34.3703 30.2133 34.7704 30.2133C35.1563 30.2133 35.444 30.3104 35.6333 30.5045C35.8251 30.6986 35.921 30.9709 35.921 31.3213V31.3497C35.921 31.4846 35.8725 31.5793 35.7754 31.6338C35.6807 31.6882 35.5292 31.7273 35.3208 31.7509C35.1149 31.7723 34.8462 31.8042 34.5147 31.8468C34.2614 31.88 34.0093 31.9249 33.7583 31.9818C33.5098 32.0362 33.2825 32.1191 33.0765 32.2303C32.8706 32.3416 32.706 32.4955 32.5829 32.692C32.4598 32.8861 32.3983 33.1394 32.3983 33.4519C32.3983 33.8071 32.4811 34.1101 32.6468 34.361C32.8126 34.6096 33.0363 34.8002 33.318 34.9328ZM35.225 34.1799C34.9977 34.3101 34.7183 34.3752 34.3869 34.3752C34.0531 34.3752 33.7773 34.3018 33.5595 34.1551C33.344 34.0059 33.2363 33.7857 33.2363 33.4946C33.2363 33.2815 33.2931 33.1134 33.4068 32.9903C33.5228 32.8648 33.6743 32.7713 33.8613 32.7098C34.0507 32.6458 34.2543 32.5997 34.4721 32.5713C34.5621 32.5594 34.6793 32.5452 34.8237 32.5286C34.9705 32.5097 35.1208 32.4884 35.2747 32.4647C35.4309 32.4387 35.5682 32.4091 35.6866 32.3759C35.8074 32.3404 35.8855 32.3014 35.921 32.2588V33.0258C35.921 33.2531 35.8618 33.4697 35.7434 33.6757C35.6274 33.8816 35.4546 34.0497 35.225 34.1799Z" fill="#55B3FF"/>
</svg>
