<svg width="38" height="36" viewBox="0 0 38 36" fill="none" xmlns="http://www.w3.org/2000/svg">
<path fill-rule="evenodd" clip-rule="evenodd" d="M10.9586 0.535156C8.72741 0.535156 6.91864 2.34392 6.91864 4.57516V18.7412C6.91864 20.9724 8.72742 22.7812 10.9586 22.7812H27.0821C29.3133 22.7812 31.1221 20.9724 31.1221 18.7412V8.52585C31.1221 6.29462 29.3133 4.48585 27.0821 4.48585H10.4327C9.87502 4.48585 9.42295 4.03378 9.42295 3.47611C9.42295 3.41056 9.4167 3.34646 9.40477 3.28439C9.7753 2.83882 10.3338 2.55516 10.9586 2.55516H28.116C28.6738 2.55516 29.126 2.10296 29.126 1.54516C29.126 0.987349 28.6738 0.535156 28.116 0.535156H10.9586ZM8.93864 18.7412V6.11247C9.37954 6.36286 9.88941 6.50585 10.4327 6.50585H27.0821C28.1977 6.50585 29.1021 7.41024 29.1021 8.52585V18.7412C29.1021 19.8568 28.1977 20.7612 27.0821 20.7612H10.9586C9.84303 20.7612 8.93864 19.8568 8.93864 18.7412Z" fill="#CFD1DE"/>
<path fill-rule="evenodd" clip-rule="evenodd" d="M0.804443 28.2275V35.5002H3.43228C4.0052 35.5002 4.4704 35.415 4.82788 35.2446C5.18536 35.0741 5.44696 34.8433 5.61268 34.5521C5.7784 34.2609 5.86126 33.933 5.86126 33.5684C5.86126 33.1849 5.7855 32.8606 5.63399 32.5954C5.48247 32.3303 5.29426 32.1267 5.06936 31.9846C4.84445 31.8426 4.62073 31.7644 4.39819 31.7502V31.6792C4.60653 31.6224 4.79947 31.5348 4.97703 31.4164C5.15695 31.2981 5.30137 31.1371 5.41027 30.9335C5.52154 30.7299 5.57717 30.4718 5.57717 30.1593C5.57717 29.8042 5.49668 29.4811 5.33569 29.1899C5.17471 28.8963 4.92968 28.6631 4.60061 28.4903C4.27154 28.3151 3.85369 28.2275 3.34706 28.2275H0.804443ZM3.43228 34.719H1.68513V32.1906H3.4749C3.79213 32.1906 4.06675 32.2545 4.29876 32.3823C4.53077 32.5078 4.70951 32.6759 4.83498 32.8866C4.96046 33.0949 5.02319 33.3222 5.02319 33.5684C5.02319 33.888 4.90127 34.1603 4.65743 34.3852C4.41595 34.6077 4.00757 34.719 3.43228 34.719ZM3.31865 31.4235H1.68513V29.0088H3.34706C3.83001 29.0088 4.18276 29.1212 4.4053 29.3461C4.62783 29.5687 4.7391 29.8397 4.7391 30.1593C4.7391 30.415 4.67518 30.6375 4.54734 30.8269C4.42187 31.0163 4.25141 31.1631 4.03598 31.2673C3.82291 31.3714 3.5838 31.4235 3.31865 31.4235Z" fill="#CFD1DE"/>
<path d="M7.19471 30.0457V35.5002H8.03278V30.0457H7.19471Z" fill="#CFD1DE"/>
<path d="M7.19826 28.9697C7.31664 29.081 7.4575 29.1366 7.62085 29.1366C7.7842 29.1366 7.92388 29.081 8.03988 28.9697C8.15825 28.8584 8.21744 28.7247 8.21744 28.5684C8.21744 28.4122 8.15825 28.2784 8.03988 28.1671C7.92388 28.0559 7.7842 28.0002 7.62085 28.0002C7.4575 28.0002 7.31664 28.0559 7.19826 28.1671C7.08226 28.2784 7.02426 28.4122 7.02426 28.5684C7.02426 28.7247 7.08226 28.8584 7.19826 28.9697Z" fill="#CFD1DE"/>
<path d="M10.4058 35.5002V28.2275H9.56776V35.5002H10.4058Z" fill="#CFD1DE"/>
<path d="M12.7789 35.5002V28.2275H11.9408V35.5002H12.7789Z" fill="#CFD1DE"/>
<path fill-rule="evenodd" clip-rule="evenodd" d="M15.2407 35.2659C15.6219 35.4979 16.0752 35.6139 16.6008 35.6139C16.9701 35.6139 17.3027 35.5571 17.5987 35.4434C17.8946 35.3274 18.1432 35.1664 18.3444 34.9605C18.5456 34.7521 18.6889 34.5107 18.7741 34.236L17.9644 34.0088C17.8934 34.1982 17.7928 34.3568 17.6626 34.4846C17.5324 34.6101 17.3773 34.7048 17.1974 34.7687C17.0198 34.8303 16.821 34.861 16.6008 34.861C16.2622 34.861 15.9651 34.7876 15.7095 34.6409C15.4538 34.4917 15.2537 34.2751 15.1093 33.991C14.9805 33.7313 14.9101 33.4199 14.8981 33.0571H18.8593V32.7019C18.8593 32.1929 18.7918 31.7644 18.6569 31.4164C18.5219 31.0684 18.3408 30.7891 18.1136 30.5784C17.8863 30.3653 17.6342 30.2114 17.3572 30.1167C17.0802 30.022 16.7996 29.9747 16.5156 29.9747C16.0231 29.9747 15.5923 30.0954 15.2229 30.3369C14.856 30.576 14.5695 30.9098 14.3636 31.3383C14.16 31.7644 14.0582 32.2569 14.0582 32.8156C14.0582 33.3743 14.16 33.8643 14.3636 34.2857C14.5695 34.7048 14.8619 35.0315 15.2407 35.2659ZM14.9002 32.3326C14.9162 32.0796 14.98 31.8405 15.0916 31.6153C15.2218 31.3525 15.4076 31.1394 15.6491 30.9761C15.8929 30.8104 16.1818 30.7275 16.5156 30.7275C16.8186 30.7275 17.0814 30.7973 17.3039 30.937C17.5288 31.0767 17.7016 31.2673 17.8224 31.5088C17.9455 31.7502 18.007 32.0249 18.007 32.3326H14.9002Z" fill="#CFD1DE"/>
<path d="M22.5063 30.7559V30.0457H21.3416V28.7389H20.5035V30.0457H19.6796V30.7559H20.5035V34.165C20.5035 34.4822 20.5769 34.745 20.7237 34.9534C20.8728 35.1617 21.0598 35.3168 21.2847 35.4186C21.512 35.5204 21.744 35.5713 21.9808 35.5713C22.137 35.5713 22.266 35.5594 22.3678 35.5357C22.4696 35.5144 22.5489 35.4931 22.6058 35.4718L22.4353 34.719L22.2933 34.7474C22.2341 34.7569 22.1583 34.7616 22.066 34.7616C21.9429 34.7616 21.8257 34.7427 21.7144 34.7048C21.6055 34.6645 21.5156 34.5864 21.4445 34.4704C21.3759 34.352 21.3416 34.1745 21.3416 33.9377V30.7559H22.5063Z" fill="#CFD1DE"/>
<path fill-rule="evenodd" clip-rule="evenodd" d="M24.6352 35.2659C25.0164 35.4979 25.4697 35.6139 25.9953 35.6139C26.3646 35.6139 26.6973 35.5571 26.9932 35.4434C27.2891 35.3274 27.5377 35.1664 27.7389 34.9605C27.9402 34.7521 28.0834 34.5107 28.1686 34.236L27.359 34.0088C27.2879 34.1982 27.1873 34.3568 27.0571 34.4846C26.9269 34.6101 26.7718 34.7048 26.5919 34.7687C26.4144 34.8303 26.2155 34.861 25.9953 34.861C25.6568 34.861 25.3597 34.7876 25.104 34.6409C24.8483 34.4917 24.6483 34.2751 24.5038 33.991C24.375 33.7313 24.3046 33.4199 24.2926 33.0571H28.2538V32.7019C28.2538 32.1929 28.1864 31.7644 28.0514 31.4164C27.9165 31.0684 27.7354 30.7891 27.5081 30.5784C27.2808 30.3653 27.0287 30.2114 26.7517 30.1167C26.4747 30.022 26.1942 29.9747 25.9101 29.9747C25.4177 29.9747 24.9868 30.0954 24.6175 30.3369C24.2505 30.576 23.9641 30.9098 23.7581 31.3383C23.5545 31.7644 23.4527 32.2569 23.4527 32.8156C23.4527 33.3743 23.5545 33.8643 23.7581 34.2857C23.9641 34.7048 24.2564 35.0315 24.6352 35.2659ZM24.2948 32.3326C24.3107 32.0796 24.3745 31.8405 24.4861 31.6153C24.6163 31.3525 24.8021 31.1394 25.0436 30.9761C25.2875 30.8104 25.5763 30.7275 25.9101 30.7275C26.2131 30.7275 26.4759 30.7973 26.6984 30.937C26.9233 31.0767 27.0962 31.2673 27.2169 31.5088C27.34 31.7502 27.4016 32.0249 27.4016 32.3326H24.2948Z" fill="#CFD1DE"/>
<path d="M29.5287 30.0457V35.5002H30.3668V32.0485C30.3668 31.8023 30.426 31.5833 30.5443 31.3916C30.6651 31.1974 30.8284 31.0459 31.0344 30.937C31.2427 30.8258 31.4795 30.7701 31.7446 30.7701C31.8559 30.7701 31.9612 30.7784 32.0607 30.795C32.1625 30.8092 32.2276 30.8198 32.256 30.8269V29.9747C32.2086 29.9699 32.1388 29.9664 32.0465 29.964C31.9541 29.9616 31.8772 29.9605 31.8156 29.9605C31.4889 29.9605 31.1954 30.0445 30.9349 30.2126C30.6745 30.3807 30.4946 30.5997 30.3952 30.8696H30.3384V30.0457H29.5287Z" fill="#CFD1DE"/>
<path fill-rule="evenodd" clip-rule="evenodd" d="M33.9135 35.4328C34.1952 35.563 34.5089 35.6281 34.8545 35.6281C35.1718 35.6281 35.4405 35.5807 35.6606 35.486C35.8808 35.3913 36.0572 35.2765 36.1897 35.1416C36.3223 35.0066 36.417 34.88 36.4738 34.7616H36.5164V35.5002H37.3545V31.9065C37.3545 31.4732 37.2835 31.1276 37.1414 30.8696C36.9994 30.6115 36.8207 30.4186 36.6052 30.2907C36.3922 30.1629 36.1708 30.0788 35.9412 30.0386C35.7139 29.996 35.5127 29.9747 35.3375 29.9747C35.0629 29.9747 34.7835 30.0125 34.4994 30.0883C34.2177 30.1617 33.9573 30.2919 33.7182 30.4789C33.4814 30.6636 33.292 30.9216 33.15 31.2531L33.9454 31.5372C34.0378 31.3383 34.1976 31.1513 34.4248 30.9761C34.6521 30.8009 34.9658 30.7133 35.3659 30.7133C35.7518 30.7133 36.0394 30.8104 36.2288 31.0045C36.4206 31.1986 36.5164 31.4709 36.5164 31.8213V31.8497C36.5164 31.9846 36.4679 32.0793 36.3708 32.1338C36.2762 32.1882 36.1246 32.2273 35.9163 32.2509C35.7103 32.2723 35.4416 32.3042 35.1102 32.3468C34.8569 32.38 34.6048 32.4249 34.3538 32.4818C34.1052 32.5362 33.878 32.6191 33.672 32.7303C33.466 32.8416 33.3015 32.9955 33.1784 33.192C33.0553 33.3861 32.9937 33.6394 32.9937 33.9519C32.9937 34.3071 33.0766 34.6101 33.2423 34.861C33.408 35.1096 33.6317 35.3002 33.9135 35.4328ZM35.8204 34.6799C35.5932 34.8101 35.3138 34.8752 34.9824 34.8752C34.6486 34.8752 34.3727 34.8018 34.1549 34.6551C33.9395 34.5059 33.8318 34.2857 33.8318 33.9946C33.8318 33.7815 33.8886 33.6134 34.0022 33.4903C34.1182 33.3648 34.2698 33.2713 34.4568 33.2098C34.6462 33.1458 34.8498 33.0997 35.0676 33.0713C35.1575 33.0594 35.2747 33.0452 35.4191 33.0286C35.5659 33.0097 35.7163 32.9884 35.8701 32.9647C36.0264 32.9387 36.1637 32.9091 36.2821 32.8759C36.4028 32.8404 36.4809 32.8014 36.5164 32.7588V33.5258C36.5164 33.7531 36.4573 33.9697 36.3389 34.1757C36.2229 34.3816 36.0501 34.5497 35.8204 34.6799Z" fill="#CFD1DE"/>
</svg>
