<svg width="24" height="37" viewBox="0 0 24 37" fill="none" xmlns="http://www.w3.org/2000/svg">
<path fill-rule="evenodd" clip-rule="evenodd" d="M6.93225 6.19282C6.93225 2.84165 9.64891 0.125 13.0001 0.125C16.3512 0.125 19.0679 2.84165 19.0679 6.19282C19.0679 9.54398 16.3512 12.2606 13.0001 12.2606C9.64891 12.2606 6.93225 9.54398 6.93225 6.19282ZM13.0001 2.14761C10.766 2.14761 8.95486 3.95871 8.95486 6.19282C8.95486 8.42693 10.766 10.238 13.0001 10.238C15.2342 10.238 17.0453 8.42693 17.0453 6.19282C17.0453 3.95871 15.2342 2.14761 13.0001 2.14761Z" fill="#CFD1DE"/>
<path d="M13.0001 16.8115C10.5888 16.8115 8.30474 17.3497 6.74829 17.8318C5.87155 18.1034 5.22653 18.8978 5.06875 19.9121L4.89763 21.0122C4.81178 21.564 4.29479 21.9418 3.7429 21.856C3.19101 21.7701 2.81321 21.2532 2.89906 20.7013L3.07018 19.6012C3.32957 17.9337 4.43414 16.4312 6.14989 15.8997C7.81297 15.3847 10.3113 14.7889 13.0001 14.7889C15.6888 14.7889 18.1872 15.3847 19.8503 15.8997C21.566 16.4312 22.6706 17.9337 22.93 19.6012L23.1011 20.7013C23.1869 21.2532 22.8091 21.7701 22.2572 21.856C21.7053 21.9418 21.1884 21.564 21.1025 21.0122L20.9314 19.9121C20.7736 18.8978 20.1286 18.1034 19.2518 17.8318C17.6954 17.3497 15.4113 16.8115 13.0001 16.8115Z" fill="#CFD1DE"/>
<path fill-rule="evenodd" clip-rule="evenodd" d="M0.620117 28.841V36.1137H1.5008V33.4574H3.09171C3.65752 33.4574 4.12154 33.3545 4.48375 33.1485C4.84597 32.9402 5.11349 32.6608 5.28631 32.3104C5.4615 31.9601 5.54909 31.5706 5.54909 31.1421C5.54909 30.7136 5.4615 30.3253 5.28631 29.9773C5.11112 29.6293 4.84123 29.3535 4.47665 29.1499C4.11444 28.944 3.64805 28.841 3.0775 28.841H0.620117ZM1.5008 32.6762H3.0633C3.45392 32.6762 3.76761 32.6087 4.00435 32.4738C4.24109 32.3388 4.41273 32.1565 4.51926 31.9269C4.62817 31.6949 4.68262 31.4333 4.68262 31.1421C4.68262 30.8509 4.62817 30.5905 4.51926 30.3609C4.41273 30.1312 4.23991 29.9513 4.0008 29.8211C3.76169 29.6885 3.44445 29.6222 3.04909 29.6222H1.5008V32.6762Z" fill="#CFD1DE"/>
<path fill-rule="evenodd" clip-rule="evenodd" d="M7.72239 35.8793C8.10355 36.1113 8.55691 36.2273 9.08248 36.2273C9.45179 36.2273 9.78442 36.1705 10.0803 36.0569C10.3763 35.9409 10.6249 35.7799 10.8261 35.5739C11.0273 35.3656 11.1705 35.1241 11.2558 34.8495L10.4461 34.6222C10.3751 34.8116 10.2745 34.9702 10.1443 35.0981C10.0141 35.2235 9.85899 35.3182 9.67907 35.3822C9.50151 35.4437 9.30265 35.4745 9.08248 35.4745C8.74393 35.4745 8.44682 35.4011 8.19114 35.2543C7.93546 35.1052 7.73541 34.8886 7.591 34.6045C7.4622 34.3447 7.3918 34.0334 7.37978 33.6705H11.341V33.3154C11.341 32.8064 11.2735 32.3779 11.1386 32.0299C11.0036 31.6819 10.8225 31.4025 10.5953 31.1918C10.368 30.9788 10.1159 30.8249 9.83887 30.7302C9.56188 30.6355 9.28134 30.5881 8.99725 30.5881C8.50482 30.5881 8.07395 30.7089 7.70463 30.9503C7.33768 31.1895 7.05123 31.5233 6.84526 31.9518C6.64166 32.3779 6.53986 32.8703 6.53986 33.429C6.53986 33.9878 6.64166 34.4778 6.84526 34.8992C7.05123 35.3182 7.3436 35.6449 7.72239 35.8793ZM7.38192 32.9461C7.39788 32.6931 7.46166 32.454 7.57324 32.2288C7.70345 31.966 7.88929 31.7529 8.13077 31.5896C8.37462 31.4238 8.66344 31.341 8.99725 31.341C9.30028 31.341 9.56306 31.4108 9.7856 31.5505C10.0105 31.6902 10.1833 31.8807 10.3041 32.1222C10.4272 32.3637 10.4887 32.6383 10.4887 32.9461H7.38192Z" fill="#CFD1DE"/>
<path d="M12.6159 30.6592V36.1137H13.4539V32.662C13.4539 32.4158 13.5131 32.1968 13.6315 32.005C13.7522 31.8109 13.9156 31.6594 14.1215 31.5505C14.3299 31.4392 14.5666 31.3836 14.8318 31.3836C14.943 31.3836 15.0484 31.3919 15.1478 31.4084C15.2496 31.4226 15.3147 31.4333 15.3431 31.4404V30.5881C15.2958 30.5834 15.2259 30.5798 15.1336 30.5775C15.0413 30.5751 14.9643 30.5739 14.9028 30.5739C14.5761 30.5739 14.2825 30.658 14.0221 30.8261C13.7617 30.9941 13.5818 31.2131 13.4823 31.483H13.4255V30.6592H12.6159Z" fill="#CFD1DE"/>
<path d="M19.1073 31.3694V30.6592H17.8857V30.1052C17.8857 29.8353 17.9461 29.6305 18.0669 29.4908C18.19 29.3511 18.39 29.2813 18.667 29.2813C18.7877 29.2813 18.8848 29.292 18.9582 29.3133C19.0339 29.3346 19.0931 29.3523 19.1357 29.3665L19.3772 28.6421C19.3133 28.6137 19.2162 28.5829 19.086 28.5498C18.9558 28.5166 18.7877 28.5001 18.5818 28.5001C18.3213 28.5001 18.074 28.5521 17.8396 28.6563C17.6052 28.7605 17.4146 28.9167 17.2678 29.1251C17.1211 29.3334 17.0477 29.5938 17.0477 29.9063V30.6592H16.167V31.3694H17.0477V36.1137H17.8857V31.3694H19.1073Z" fill="#CFD1DE"/>
<path d="M20.2819 30.6592V36.1137H21.1199V30.6592H20.2819Z" fill="#CFD1DE"/>
<path d="M20.2854 29.5832C20.4038 29.6944 20.5447 29.7501 20.708 29.7501C20.8714 29.7501 21.011 29.6944 21.127 29.5832C21.2454 29.4719 21.3046 29.3381 21.3046 29.1819C21.3046 29.0256 21.2454 28.8919 21.127 28.7806C21.011 28.6693 20.8714 28.6137 20.708 28.6137C20.5447 28.6137 20.4038 28.6693 20.2854 28.7806C20.1694 28.8919 20.1114 29.0256 20.1114 29.1819C20.1114 29.3381 20.1694 29.4719 20.2854 29.5832Z" fill="#CFD1DE"/>
<path d="M23.493 36.1137V28.841H22.6549V36.1137H23.493Z" fill="#CFD1DE"/>
</svg>
