<svg width="24" height="37" viewBox="0 0 24 37" fill="none" xmlns="http://www.w3.org/2000/svg">
<path fill-rule="evenodd" clip-rule="evenodd" d="M7.06311 6.96625C7.06311 3.61509 9.77977 0.898438 13.1309 0.898438C16.4821 0.898438 19.1987 3.61509 19.1987 6.96625C19.1987 10.3174 16.4821 13.0341 13.1309 13.0341C9.77977 13.0341 7.06311 10.3174 7.06311 6.96625ZM13.1309 2.92104C10.8968 2.92104 9.08572 4.73215 9.08572 6.96625C9.08572 9.20036 10.8968 11.0115 13.1309 11.0115C15.365 11.0115 17.1761 9.20036 17.1761 6.96625C17.1761 4.73215 15.365 2.92104 13.1309 2.92104Z" fill="#CFD1DE"/>
<path d="M13.1309 17.5849C10.7197 17.5849 8.4356 18.1232 6.87915 18.6052C6.00241 18.8768 5.35739 19.6712 5.19961 20.6855L5.02849 21.7856C4.94264 22.3375 4.42565 22.7153 3.87376 22.6294C3.32187 22.5436 2.94407 22.0266 3.02992 21.4747L3.20104 20.3746C3.46043 18.7072 4.565 17.2046 6.28075 16.6732C7.94383 16.1581 10.4422 15.5623 13.1309 15.5623C15.8196 15.5623 18.318 16.1581 19.9811 16.6732C21.6969 17.2046 22.8014 18.7072 23.0608 20.3746L23.2319 21.4747C23.3178 22.0266 22.94 22.5436 22.3881 22.6294C21.8362 22.7153 21.3192 22.3375 21.2334 21.7856L21.0622 20.6855C20.9045 19.6712 20.2594 18.8768 19.3827 18.6052C17.8263 18.1232 15.5422 17.5849 13.1309 17.5849Z" fill="#CFD1DE"/>
<path fill-rule="evenodd" clip-rule="evenodd" d="M0.750977 29.6144V36.8871H1.63166V34.2309H3.22257C3.78838 34.2309 4.2524 34.1279 4.61461 33.9219C4.97683 33.7136 5.24435 33.4342 5.41717 33.0839C5.59236 32.7335 5.67995 32.344 5.67995 31.9155C5.67995 31.487 5.59236 31.0988 5.41717 30.7508C5.24198 30.4028 4.97209 30.127 4.60751 29.9234C4.24529 29.7174 3.77891 29.6144 3.20836 29.6144H0.750977ZM1.63166 33.4496H3.19416C3.58478 33.4496 3.89847 33.3822 4.13521 33.2472C4.37195 33.1123 4.54359 32.93 4.65012 32.7003C4.75903 32.4683 4.81348 32.2067 4.81348 31.9155C4.81348 31.6244 4.75903 31.3639 4.65012 31.1343C4.54359 30.9047 4.37077 30.7247 4.13166 30.5945C3.89255 30.4619 3.57531 30.3957 3.17995 30.3957H1.63166V33.4496Z" fill="#CFD1DE"/>
<path fill-rule="evenodd" clip-rule="evenodd" d="M7.85325 36.6528C8.2344 36.8848 8.68777 37.0008 9.21334 37.0008C9.58265 37.0008 9.91528 36.944 10.2112 36.8303C10.5071 36.7143 10.7557 36.5533 10.9569 36.3474C11.1582 36.139 11.3014 35.8976 11.3866 35.6229L10.577 35.3957C10.5059 35.5851 10.4053 35.7437 10.2751 35.8715C10.1449 35.997 9.98985 36.0917 9.80993 36.1556C9.63237 36.2172 9.43351 36.2479 9.21334 36.2479C8.87479 36.2479 8.57768 36.1745 8.322 36.0278C8.06632 35.8786 7.86627 35.662 7.72186 35.3779C7.59306 35.1182 7.52266 34.8069 7.51064 34.444H11.4719V34.0888C11.4719 33.5798 11.4044 33.1513 11.2694 32.8033C11.1345 32.4553 10.9534 32.176 10.7261 31.9653C10.4988 31.7522 10.2467 31.5983 9.96973 31.5036C9.69274 31.4089 9.4122 31.3616 9.12811 31.3616C8.63568 31.3616 8.20481 31.4823 7.83549 31.7238C7.46854 31.9629 7.18208 32.2967 6.97612 32.7252C6.77252 33.1513 6.67072 33.6438 6.67072 34.2025C6.67072 34.7612 6.77252 35.2512 6.97612 35.6726C7.18208 36.0917 7.47446 36.4184 7.85325 36.6528ZM7.51278 33.7195C7.52874 33.4665 7.59252 33.2274 7.7041 33.0022C7.83431 32.7394 8.02015 32.5263 8.26163 32.363C8.50547 32.1973 8.7943 32.1144 9.12811 32.1144C9.43114 32.1144 9.69392 32.1842 9.91646 32.3239C10.1414 32.4636 10.3142 32.6542 10.4349 32.8957C10.558 33.1371 10.6196 33.4118 10.6196 33.7195H7.51278Z" fill="#CFD1DE"/>
<path d="M12.7467 31.4326V36.8871H13.5848V33.4354C13.5848 33.1892 13.644 32.9702 13.7623 32.7785C13.8831 32.5843 14.0464 32.4328 14.2524 32.3239C14.4607 32.2127 14.6975 32.157 14.9626 32.157C15.0739 32.157 15.1792 32.1653 15.2787 32.1819C15.3805 32.1961 15.4456 32.2067 15.474 32.2138V31.3616C15.4266 31.3568 15.3568 31.3533 15.2645 31.3509C15.1721 31.3485 15.0952 31.3474 15.0336 31.3474C14.7069 31.3474 14.4134 31.4314 14.153 31.5995C13.8925 31.7676 13.7126 31.9866 13.6132 32.2565H13.5564V31.4326H12.7467Z" fill="#CFD1DE"/>
<path d="M19.2382 32.1428V31.4326H18.0166V30.8786C18.0166 30.6087 18.077 30.4039 18.1977 30.2643C18.3208 30.1246 18.5209 30.0547 18.7979 30.0547C18.9186 30.0547 19.0157 30.0654 19.089 30.0867C19.1648 30.108 19.224 30.1258 19.2666 30.14L19.5081 29.4155C19.4442 29.3871 19.3471 29.3564 19.2169 29.3232C19.0867 29.2901 18.9186 29.2735 18.7126 29.2735C18.4522 29.2735 18.2048 29.3256 17.9704 29.4297C17.7361 29.5339 17.5455 29.6902 17.3987 29.8985C17.2519 30.1068 17.1785 30.3672 17.1785 30.6797V31.4326H16.2979V32.1428H17.1785V36.8871H18.0166V32.1428H19.2382Z" fill="#CFD1DE"/>
<path d="M20.4127 31.4326V36.8871H21.2508V31.4326H20.4127Z" fill="#CFD1DE"/>
<path d="M20.4163 30.3566C20.5347 30.4679 20.6755 30.5235 20.8389 30.5235C21.0022 30.5235 21.1419 30.4679 21.2579 30.3566C21.3763 30.2453 21.4355 30.1116 21.4355 29.9553C21.4355 29.7991 21.3763 29.6653 21.2579 29.554C21.1419 29.4428 21.0022 29.3871 20.8389 29.3871C20.6755 29.3871 20.5347 29.4428 20.4163 29.554C20.3003 29.6653 20.2423 29.7991 20.2423 29.9553C20.2423 30.1116 20.3003 30.2453 20.4163 30.3566Z" fill="#CFD1DE"/>
<path d="M23.6238 36.8871V29.6144H22.7858V36.8871H23.6238Z" fill="#CFD1DE"/>
</svg>
