<svg width="24" height="37" viewBox="0 0 24 37" fill="none" xmlns="http://www.w3.org/2000/svg">
<path fill-rule="evenodd" clip-rule="evenodd" d="M7.10608 6.07954C7.10608 2.72837 9.82273 0.0117188 13.1739 0.0117188C16.5251 0.0117188 19.2417 2.72837 19.2417 6.07954C19.2417 9.4307 16.5251 12.1474 13.1739 12.1474C9.82273 12.1474 7.10608 9.4307 7.10608 6.07954ZM13.1739 2.03432C10.9398 2.03432 9.12869 3.84543 9.12869 6.07954C9.12869 8.31364 10.9398 10.1247 13.1739 10.1247C15.408 10.1247 17.2191 8.31364 17.2191 6.07954C17.2191 3.84543 15.408 2.03432 13.1739 2.03432Z" fill="#55B3FF"/>
<path d="M13.1739 16.6982C10.7742 16.6982 8.50039 17.2313 6.94427 17.7117C6.05353 17.9866 5.39899 18.7933 5.2388 19.8231L5.07146 20.8989C4.98561 21.4508 4.46862 21.8286 3.91673 21.7427C3.36484 21.6569 2.98704 21.1399 3.07289 20.588L3.24023 19.5122C3.50192 17.8299 4.61587 16.3137 6.34768 15.7791C8.01054 15.2657 10.4979 14.6756 13.1739 14.6756C15.8499 14.6756 18.3373 15.2657 20.0001 15.7791C21.7319 16.3137 22.8459 17.8299 23.1076 19.5122L23.2749 20.588C23.3608 21.1399 22.983 21.6569 22.4311 21.7427C21.8792 21.8286 21.3622 21.4508 21.2763 20.8989L21.109 19.8231C20.9488 18.7933 20.2943 17.9866 19.4035 17.7117C17.8474 17.2313 15.5736 16.6982 13.1739 16.6982Z" fill="#55B3FF"/>
<path fill-rule="evenodd" clip-rule="evenodd" d="M0.793945 28.7277V36.0004H1.67463V33.3442H3.26554C3.83135 33.3442 4.29537 33.2412 4.65758 33.0352C5.0198 32.8269 5.28732 32.5475 5.46014 32.1971C5.63533 31.8468 5.72292 31.4573 5.72292 31.0288C5.72292 30.6003 5.63533 30.2121 5.46014 29.8641C5.28495 29.516 5.01506 29.2402 4.65048 29.0366C4.28826 28.8307 3.82188 28.7277 3.25133 28.7277H0.793945ZM1.67463 32.5629H3.23713C3.62775 32.5629 3.94144 32.4954 4.17818 32.3605C4.41492 32.2256 4.58656 32.0433 4.69309 31.8136C4.80199 31.5816 4.85645 31.32 4.85645 31.0288C4.85645 30.7376 4.80199 30.4772 4.69309 30.2476C4.58656 30.0179 4.41374 29.838 4.17463 29.7078C3.93552 29.5752 3.61828 29.5089 3.22292 29.5089H1.67463V32.5629Z" fill="#55B3FF"/>
<path fill-rule="evenodd" clip-rule="evenodd" d="M7.89622 35.766C8.27737 35.998 8.73073 36.1141 9.2563 36.1141C9.62562 36.1141 9.95824 36.0572 10.2542 35.9436C10.5501 35.8276 10.7987 35.6666 10.9999 35.4606C11.2011 35.2523 11.3444 35.0108 11.4296 34.7362L10.6199 34.5089C10.5489 34.6983 10.4483 34.8569 10.3181 34.9848C10.1879 35.1103 10.0328 35.205 9.85289 35.2689C9.67534 35.3304 9.47647 35.3612 9.2563 35.3612C8.91776 35.3612 8.62065 35.2878 8.36497 35.141C8.10929 34.9919 7.90924 34.7753 7.76483 34.4912C7.63603 34.2314 7.56563 33.9201 7.55361 33.5572H11.5148V33.2021C11.5148 32.6931 11.4474 32.2646 11.3124 31.9166C11.1775 31.5686 10.9964 31.2892 10.7691 31.0785C10.5418 30.8655 10.2897 30.7116 10.0127 30.6169C9.73571 30.5222 9.45517 30.4748 9.17108 30.4748C8.67865 30.4748 8.24778 30.5956 7.87846 30.8371C7.51151 31.0762 7.22505 31.41 7.01909 31.8385C6.81549 32.2646 6.71369 32.757 6.71369 33.3158C6.71369 33.8745 6.81549 34.3645 7.01909 34.7859C7.22505 35.205 7.51743 35.5317 7.89622 35.766ZM7.55575 32.8328C7.57171 32.5798 7.63548 32.3407 7.74707 32.1155C7.87728 31.8527 8.06312 31.6396 8.3046 31.4763C8.54844 31.3105 8.83727 31.2277 9.17108 31.2277C9.47411 31.2277 9.73689 31.2975 9.95943 31.4372C10.1843 31.5769 10.3572 31.7675 10.4779 32.0089C10.601 32.2504 10.6626 32.525 10.6626 32.8328H7.55575Z" fill="#55B3FF"/>
<path d="M12.7897 30.5459V36.0004H13.6278V32.5487C13.6278 32.3025 13.6869 32.0835 13.8053 31.8918C13.926 31.6976 14.0894 31.5461 14.2954 31.4372C14.5037 31.3259 14.7404 31.2703 15.0056 31.2703C15.1169 31.2703 15.2222 31.2786 15.3216 31.2952C15.4234 31.3094 15.4885 31.32 15.517 31.3271V30.4748C15.4696 30.4701 15.3998 30.4666 15.3074 30.4642C15.2151 30.4618 15.1382 30.4606 15.0766 30.4606C14.7499 30.4606 14.4564 30.5447 14.1959 30.7128C13.9355 30.8809 13.7556 31.0998 13.6562 31.3697H13.5993V30.5459H12.7897Z" fill="#55B3FF"/>
<path d="M19.2812 31.2561V30.5459H18.0596V29.9919C18.0596 29.722 18.1199 29.5172 18.2407 29.3775C18.3638 29.2379 18.5638 29.168 18.8408 29.168C18.9616 29.168 19.0586 29.1787 19.132 29.2C19.2078 29.2213 19.267 29.2391 19.3096 29.2533L19.551 28.5288C19.4871 28.5004 19.3901 28.4696 19.2599 28.4365C19.1296 28.4034 18.9616 28.3868 18.7556 28.3868C18.4952 28.3868 18.2478 28.4389 18.0134 28.543C17.779 28.6472 17.5885 28.8034 17.4417 29.0118C17.2949 29.2201 17.2215 29.4805 17.2215 29.793V30.5459H16.3408V31.2561H17.2215V36.0004H18.0596V31.2561H19.2812Z" fill="#55B3FF"/>
<path d="M20.4557 30.5459V36.0004H21.2938V30.5459H20.4557Z" fill="#55B3FF"/>
<path d="M20.4593 29.4699C20.5776 29.5811 20.7185 29.6368 20.8818 29.6368C21.0452 29.6368 21.1849 29.5811 21.3009 29.4699C21.4192 29.3586 21.4784 29.2248 21.4784 29.0686C21.4784 28.9123 21.4192 28.7786 21.3009 28.6673C21.1849 28.556 21.0452 28.5004 20.8818 28.5004C20.7185 28.5004 20.5776 28.556 20.4593 28.6673C20.3432 28.7786 20.2852 28.9123 20.2852 29.0686C20.2852 29.2248 20.3432 29.3586 20.4593 29.4699Z" fill="#55B3FF"/>
<path d="M23.6668 36.0004V28.7277H22.8287V36.0004H23.6668Z" fill="#55B3FF"/>
</svg>
