<svg width="38" height="36" viewBox="0 0 38 36" fill="none" xmlns="http://www.w3.org/2000/svg">
<path fill-rule="evenodd" clip-rule="evenodd" d="M10.7799 0.0351562C8.5487 0.0351562 6.73993 1.84392 6.73993 4.07516V18.2412C6.73993 20.4724 8.5487 22.2812 10.7799 22.2812H26.9033C29.1346 22.2812 30.9433 20.4724 30.9433 18.2412V8.02585C30.9433 5.79462 29.1346 3.98585 26.9033 3.98585H10.254C9.69631 3.98585 9.24423 3.53378 9.24423 2.97611C9.24423 2.91056 9.23799 2.84646 9.22606 2.78439C9.59659 2.33882 10.1551 2.05516 10.7799 2.05516H27.9373C28.4951 2.05516 28.9473 1.60296 28.9473 1.04516C28.9473 0.487349 28.4951 0.0351562 27.9373 0.0351562H10.7799ZM8.75993 18.2412V5.61247C9.20083 5.86286 9.7107 6.00585 10.254 6.00585H26.9033C28.019 6.00585 28.9233 6.91024 28.9233 8.02585V18.2412C28.9233 19.3568 28.019 20.2612 26.9033 20.2612H10.7799C9.66432 20.2612 8.75993 19.3568 8.75993 18.2412Z" fill="#CFD1DE"/>
<path fill-rule="evenodd" clip-rule="evenodd" d="M0.625732 27.7275V35.0002H3.25357C3.82649 35.0002 4.29169 34.915 4.64917 34.7446C5.00665 34.5741 5.26825 34.3433 5.43397 34.0521C5.59969 33.7609 5.68255 33.433 5.68255 33.0684C5.68255 32.6849 5.60679 32.3606 5.45528 32.0954C5.30376 31.8303 5.11555 31.6267 4.89065 31.4846C4.66574 31.3426 4.44202 31.2644 4.21948 31.2502V31.1792C4.42782 31.1224 4.62076 31.0348 4.79832 30.9164C4.97824 30.7981 5.12265 30.6371 5.23156 30.4335C5.34283 30.2299 5.39846 29.9718 5.39846 29.6593C5.39846 29.3042 5.31797 28.9811 5.15698 28.6899C4.996 28.3963 4.75097 28.1631 4.4219 27.9903C4.09283 27.8151 3.67497 27.7275 3.16835 27.7275H0.625732ZM3.25357 34.219H1.50641V31.6906H3.29619C3.61342 31.6906 3.88804 31.7545 4.12005 31.8823C4.35206 32.0078 4.5308 32.1759 4.65627 32.3866C4.78175 32.5949 4.84448 32.8222 4.84448 33.0684C4.84448 33.388 4.72256 33.6603 4.47872 33.8852C4.23724 34.1077 3.82886 34.219 3.25357 34.219ZM3.13994 30.9235H1.50641V28.5088H3.16835C3.6513 28.5088 4.00405 28.6212 4.22658 28.8461C4.44912 29.0687 4.56039 29.3397 4.56039 29.6593C4.56039 29.915 4.49647 30.1375 4.36863 30.3269C4.24316 30.5163 4.0727 30.6631 3.85727 30.7673C3.6442 30.8714 3.40509 30.9235 3.13994 30.9235Z" fill="#CFD1DE"/>
<path d="M7.016 29.5457V35.0002H7.85407V29.5457H7.016Z" fill="#CFD1DE"/>
<path d="M7.01955 28.4697C7.13792 28.581 7.27879 28.6366 7.44214 28.6366C7.60549 28.6366 7.74517 28.581 7.86117 28.4697C7.97954 28.3584 8.03873 28.2247 8.03873 28.0684C8.03873 27.9122 7.97954 27.7784 7.86117 27.6671C7.74517 27.5559 7.60549 27.5002 7.44214 27.5002C7.27879 27.5002 7.13792 27.5559 7.01955 27.6671C6.90355 27.7784 6.84555 27.9122 6.84555 28.0684C6.84555 28.2247 6.90355 28.3584 7.01955 28.4697Z" fill="#CFD1DE"/>
<path d="M10.2271 35.0002V27.7275H9.38905V35.0002H10.2271Z" fill="#CFD1DE"/>
<path d="M12.6002 35.0002V27.7275H11.7621V35.0002H12.6002Z" fill="#CFD1DE"/>
<path fill-rule="evenodd" clip-rule="evenodd" d="M15.062 34.7659C15.4431 34.9979 15.8965 35.1139 16.4221 35.1139C16.7914 35.1139 17.124 35.0571 17.4199 34.9434C17.7159 34.8274 17.9645 34.6664 18.1657 34.4605C18.3669 34.2521 18.5101 34.0107 18.5954 33.736L17.7857 33.5088C17.7147 33.6982 17.6141 33.8568 17.4839 33.9846C17.3537 34.1101 17.1986 34.2048 17.0187 34.2687C16.8411 34.3303 16.6422 34.361 16.4221 34.361C16.0835 34.361 15.7864 34.2876 15.5307 34.1409C15.2751 33.9917 15.075 33.7751 14.9306 33.491C14.8018 33.2313 14.7314 32.9199 14.7194 32.5571H18.6806V32.2019C18.6806 31.6929 18.6131 31.2644 18.4782 30.9164C18.3432 30.5684 18.1621 30.2891 17.9349 30.0784C17.7076 29.8653 17.4555 29.7114 17.1785 29.6167C16.9015 29.522 16.6209 29.4747 16.3368 29.4747C15.8444 29.4747 15.4136 29.5954 15.0442 29.8369C14.6773 30.076 14.3908 30.4098 14.1849 30.8383C13.9813 31.2644 13.8795 31.7569 13.8795 32.3156C13.8795 32.8743 13.9813 33.3643 14.1849 33.7857C14.3908 34.2048 14.6832 34.5315 15.062 34.7659ZM14.7215 31.8326C14.7375 31.5796 14.8013 31.3405 14.9128 31.1153C15.043 30.8525 15.2289 30.6394 15.4704 30.4761C15.7142 30.3104 16.003 30.2275 16.3368 30.2275C16.6399 30.2275 16.9027 30.2973 17.1252 30.437C17.3501 30.5767 17.5229 30.7673 17.6437 31.0088C17.7668 31.2502 17.8283 31.5249 17.8283 31.8326H14.7215Z" fill="#CFD1DE"/>
<path d="M22.3276 30.2559V29.5457H21.1628V28.2389H20.3248V29.5457H19.5009V30.2559H20.3248V33.665C20.3248 33.9822 20.3982 34.245 20.5449 34.4534C20.6941 34.6617 20.8811 34.8168 21.106 34.9186C21.3333 35.0204 21.5653 35.0713 21.802 35.0713C21.9583 35.0713 22.0873 35.0594 22.1891 35.0357C22.2909 35.0144 22.3702 34.9931 22.427 34.9718L22.2566 34.219L22.1145 34.2474C22.0554 34.2569 21.9796 34.2616 21.8873 34.2616C21.7642 34.2616 21.647 34.2427 21.5357 34.2048C21.4268 34.1645 21.3368 34.0864 21.2658 33.9704C21.1972 33.852 21.1628 33.6745 21.1628 33.4377V30.2559H22.3276Z" fill="#CFD1DE"/>
<path fill-rule="evenodd" clip-rule="evenodd" d="M24.4565 34.7659C24.8377 34.9979 25.291 35.1139 25.8166 35.1139C26.1859 35.1139 26.5185 35.0571 26.8145 34.9434C27.1104 34.8274 27.359 34.6664 27.5602 34.4605C27.7614 34.2521 27.9047 34.0107 27.9899 33.736L27.1802 33.5088C27.1092 33.6982 27.0086 33.8568 26.8784 33.9846C26.7482 34.1101 26.5931 34.2048 26.4132 34.2687C26.2356 34.3303 26.0368 34.361 25.8166 34.361C25.4781 34.361 25.181 34.2876 24.9253 34.1409C24.6696 33.9917 24.4695 33.7751 24.3251 33.491C24.1963 33.2313 24.1259 32.9199 24.1139 32.5571H28.0751V32.2019C28.0751 31.6929 28.0077 31.2644 27.8727 30.9164C27.7378 30.5684 27.5567 30.2891 27.3294 30.0784C27.1021 29.8653 26.85 29.7114 26.573 29.6167C26.296 29.522 26.0155 29.4747 25.7314 29.4747C25.239 29.4747 24.8081 29.5954 24.4388 29.8369C24.0718 30.076 23.7854 30.4098 23.5794 30.8383C23.3758 31.2644 23.274 31.7569 23.274 32.3156C23.274 32.8743 23.3758 33.3643 23.5794 33.7857C23.7854 34.2048 24.0777 34.5315 24.4565 34.7659ZM24.1161 31.8326C24.132 31.5796 24.1958 31.3405 24.3074 31.1153C24.4376 30.8525 24.6234 30.6394 24.8649 30.4761C25.1087 30.3104 25.3976 30.2275 25.7314 30.2275C26.0344 30.2275 26.2972 30.2973 26.5197 30.437C26.7446 30.5767 26.9175 30.7673 27.0382 31.0088C27.1613 31.2502 27.2229 31.5249 27.2229 31.8326H24.1161Z" fill="#CFD1DE"/>
<path d="M29.35 29.5457V35.0002H30.1881V31.5485C30.1881 31.3023 30.2472 31.0833 30.3656 30.8916C30.4864 30.6974 30.6497 30.5459 30.8557 30.437C31.064 30.3258 31.3007 30.2701 31.5659 30.2701C31.6772 30.2701 31.7825 30.2784 31.8819 30.295C31.9837 30.3092 32.0489 30.3198 32.0773 30.3269V29.4747C32.0299 29.4699 31.9601 29.4664 31.8677 29.464C31.7754 29.4616 31.6985 29.4605 31.6369 29.4605C31.3102 29.4605 31.0167 29.5445 30.7562 29.7126C30.4958 29.8807 30.3159 30.0997 30.2165 30.3696H30.1596V29.5457H29.35Z" fill="#CFD1DE"/>
<path fill-rule="evenodd" clip-rule="evenodd" d="M33.7348 34.9328C34.0165 35.063 34.3302 35.1281 34.6758 35.1281C34.993 35.1281 35.2617 35.0807 35.4819 34.986C35.7021 34.8913 35.8785 34.7765 36.011 34.6416C36.1436 34.5066 36.2383 34.38 36.2951 34.2616H36.3377V35.0002H37.1758V31.4065C37.1758 30.9732 37.1048 30.6276 36.9627 30.3696C36.8207 30.1115 36.642 29.9186 36.4265 29.7907C36.2134 29.6629 35.9921 29.5788 35.7625 29.5386C35.5352 29.496 35.334 29.4747 35.1588 29.4747C34.8841 29.4747 34.6048 29.5125 34.3207 29.5883C34.039 29.6617 33.7786 29.7919 33.5394 29.9789C33.3027 30.1636 33.1133 30.4216 32.9713 30.7531L33.7667 31.0372C33.859 30.8383 34.0188 30.6513 34.2461 30.4761C34.4734 30.3009 34.7871 30.2133 35.1872 30.2133C35.5731 30.2133 35.8607 30.3104 36.0501 30.5045C36.2419 30.6986 36.3377 30.9709 36.3377 31.3213V31.3497C36.3377 31.4846 36.2892 31.5793 36.1921 31.6338C36.0974 31.6882 35.9459 31.7273 35.7376 31.7509C35.5316 31.7723 35.2629 31.8042 34.9315 31.8468C34.6782 31.88 34.426 31.9249 34.1751 31.9818C33.9265 32.0362 33.6992 32.1191 33.4933 32.2303C33.2873 32.3416 33.1228 32.4955 32.9997 32.692C32.8766 32.8861 32.815 33.1394 32.815 33.4519C32.815 33.8071 32.8979 34.1101 33.0636 34.361C33.2293 34.6096 33.453 34.8002 33.7348 34.9328ZM35.6417 34.1799C35.4144 34.3101 35.1351 34.3752 34.8036 34.3752C34.4698 34.3752 34.194 34.3018 33.9762 34.1551C33.7608 34.0059 33.6531 33.7857 33.6531 33.4946C33.6531 33.2815 33.7099 33.1134 33.8235 32.9903C33.9395 32.8648 34.0911 32.7713 34.2781 32.7098C34.4675 32.6458 34.6711 32.5997 34.8889 32.5713C34.9788 32.5594 35.096 32.5452 35.2404 32.5286C35.3872 32.5097 35.5375 32.4884 35.6914 32.4647C35.8477 32.4387 35.985 32.4091 36.1034 32.3759C36.2241 32.3404 36.3022 32.3014 36.3377 32.2588V33.0258C36.3377 33.2531 36.2786 33.4697 36.1602 33.6757C36.0442 33.8816 35.8714 34.0497 35.6417 34.1799Z" fill="#CFD1DE"/>
</svg>
