<svg width="6" height="12" viewBox="0 0 6 12" fill="none" xmlns="http://www.w3.org/2000/svg">
<path fill-rule="evenodd" clip-rule="evenodd" d="M2.09979 1.19234C2.09979 0.894108 2.34155 0.652344 2.63978 0.652344C2.93801 0.652344 3.17978 0.894107 3.17978 1.19234V1.74651C4.30692 1.98167 5.15577 3.01373 5.15577 4.25128C5.15577 4.69963 4.80511 5.0631 4.37254 5.0631C3.93997 5.0631 3.5893 4.69963 3.5893 4.25128C3.5893 3.73687 3.18698 3.31986 2.69068 3.31986C2.19438 3.31986 1.79206 3.73687 1.79206 4.25128C1.79206 4.76569 2.19438 5.1827 2.69068 5.1827C2.70063 5.1827 2.71054 5.18289 2.72041 5.18327C4.06832 5.19957 5.15616 6.33718 5.15616 7.73815C5.15616 8.97585 4.3071 10.008 3.17977 10.243L3.17977 10.8448C3.17977 11.143 2.938 11.3848 2.63977 11.3848C2.34154 11.3848 2.09978 11.143 2.09978 10.8448L2.09978 10.2192C1.02391 9.94471 0.225971 8.93801 0.225971 7.73815C0.225971 7.28979 0.576638 6.92633 1.00921 6.92633C1.44178 6.92633 1.79244 7.28979 1.79244 7.73815C1.79244 8.25256 2.19477 8.66957 2.69106 8.66957C3.18736 8.66957 3.58969 8.25256 3.58969 7.73815C3.58969 7.22374 3.18736 6.80673 2.69106 6.80673C2.68111 6.80673 2.6712 6.80654 2.66134 6.80616C1.31342 6.78986 0.225586 5.65225 0.225586 4.25128C0.225586 3.05127 1.02372 2.04448 2.09979 1.77009V1.19234Z" fill="#55B3FF"/>
</svg>
