<svg width="28" height="38" viewBox="0 0 28 38" fill="none" xmlns="http://www.w3.org/2000/svg">
<path fill-rule="evenodd" clip-rule="evenodd" d="M14.5948 0.196962C14.2382 -0.0656538 13.7522 -0.0656538 13.3955 0.196962L4.51746 6.73445C3.48211 7.49685 2.87086 8.70605 2.87086 9.99182V20.7317C2.87086 22.6866 4.45557 24.2713 6.41042 24.2713H9.94998C11.067 24.2713 11.9726 23.3657 11.9726 22.2487V16.6865H16.0178V22.2487C16.0178 23.3657 16.9233 24.2713 18.0404 24.2713H21.58C23.5348 24.2713 25.1195 22.6866 25.1195 20.7317V9.99182C25.1195 8.70605 24.5083 7.49685 23.4729 6.73445L14.5948 0.196962ZM5.71677 8.36313L13.9952 2.26721L22.2736 8.36313C22.7913 8.74433 23.0969 9.34893 23.0969 9.99182V20.7317C23.0969 21.5695 22.4177 22.2487 21.58 22.2487H18.0404V16.1808C18.0404 15.3431 17.3612 14.6639 16.5234 14.6639H11.4669C10.6291 14.6639 9.94998 15.3431 9.94998 16.1808V22.2487H6.41042C5.57263 22.2487 4.89346 21.5695 4.89346 20.7317V9.99182C4.89346 9.34893 5.19909 8.74433 5.71677 8.36313Z" fill="#CFD1DE"/>
<path d="M0.935547 29.7273V37H1.81623V33.7472H5.69407V37H6.57475V29.7273H5.69407V32.9659H1.81623V29.7273H0.935547Z" fill="#CFD1DE"/>
<path fill-rule="evenodd" clip-rule="evenodd" d="M9.144 36.7621C9.51569 36.9964 9.94774 37.1136 10.4402 37.1136C10.9326 37.1136 11.3635 36.9964 11.7328 36.7621C12.1045 36.5277 12.3933 36.1998 12.5993 35.7784C12.8076 35.357 12.9118 34.8646 12.9118 34.3011C12.9118 33.733 12.8076 33.237 12.5993 32.8132C12.3933 32.3894 12.1045 32.0604 11.7328 31.826C11.3635 31.5916 10.9326 31.4744 10.4402 31.4744C9.94774 31.4744 9.51569 31.5916 9.144 31.826C8.77468 32.0604 8.48586 32.3894 8.27752 32.8132C8.07156 33.237 7.96857 33.733 7.96857 34.3011C7.96857 34.8646 8.07156 35.357 8.27752 35.7784C8.48586 36.1998 8.77468 36.5277 9.144 36.7621ZM11.3635 36.0732C11.122 36.2649 10.8142 36.3608 10.4402 36.3608C10.0661 36.3608 9.75835 36.2649 9.51687 36.0732C9.27539 35.8814 9.09665 35.6293 8.98065 35.3168C8.86464 35.0043 8.80664 34.6657 8.80664 34.3011C8.80664 33.9366 8.86464 33.5968 8.98065 33.282C9.09665 32.9671 9.27539 32.7126 9.51687 32.5185C9.75835 32.3243 10.0661 32.2273 10.4402 32.2273C10.8142 32.2273 11.122 32.3243 11.3635 32.5185C11.6049 32.7126 11.7837 32.9671 11.8997 33.282C12.0157 33.5968 12.0737 33.9366 12.0737 34.3011C12.0737 34.6657 12.0157 35.0043 11.8997 35.3168C11.7837 35.6293 11.6049 35.8814 11.3635 36.0732Z" fill="#CFD1DE"/>
<path d="M14.1911 31.5455V37H15.0291V33.5909C15.0291 33.3234 15.0859 33.0878 15.1996 32.8842C15.3156 32.6783 15.4671 32.5173 15.6541 32.4013C15.8435 32.2853 16.0471 32.2273 16.2649 32.2273C16.5822 32.2273 16.8414 32.3232 17.0426 32.5149C17.2438 32.7043 17.3445 32.9541 17.3445 33.2642V37H18.1967V33.4489C18.1967 33.0961 18.3021 32.8049 18.5128 32.5753C18.7235 32.3433 19.0206 32.2273 19.4041 32.2273C19.7024 32.2273 19.9616 32.3137 20.1818 32.4865C20.402 32.6593 20.5121 32.947 20.5121 33.3494V37H21.3501V33.3494C21.3501 32.7079 21.1951 32.2356 20.8849 31.9325C20.5748 31.6271 20.1759 31.4744 19.6882 31.4744C19.2976 31.4744 18.9626 31.5585 18.6832 31.7266C18.4039 31.8923 18.1944 32.116 18.0547 32.3977H17.9979C17.8629 32.1065 17.6747 31.8804 17.4332 31.7195C17.1941 31.5561 16.8947 31.4744 16.5348 31.4744C16.1797 31.4744 15.8755 31.5561 15.6222 31.7195C15.3688 31.8804 15.1854 32.1065 15.0717 32.3977H15.0007V31.5455H14.1911Z" fill="#CFD1DE"/>
<path fill-rule="evenodd" clip-rule="evenodd" d="M23.8093 36.7656C24.1905 36.9976 24.6438 37.1136 25.1694 37.1136C25.5387 37.1136 25.8713 37.0568 26.1673 36.9432C26.4632 36.8272 26.7118 36.6662 26.913 36.4602C27.1142 36.2519 27.2575 36.0104 27.3427 35.7358L26.533 35.5085C26.462 35.6979 26.3614 35.8565 26.2312 35.9844C26.101 36.1098 25.9459 36.2045 25.766 36.2685C25.5884 36.33 25.3896 36.3608 25.1694 36.3608C24.8308 36.3608 24.5337 36.2874 24.2781 36.1406C24.0224 35.9915 23.8223 35.7749 23.6779 35.4908C23.5491 35.231 23.4787 34.9197 23.4667 34.5568H27.4279V34.2017C27.4279 33.6927 27.3604 33.2642 27.2255 32.9162C27.0906 32.5682 26.9094 32.2888 26.6822 32.0781C26.4549 31.8651 26.2028 31.7112 25.9258 31.6165C25.6488 31.5218 25.3683 31.4744 25.0842 31.4744C24.5917 31.4744 24.1609 31.5952 23.7915 31.8366C23.4246 32.0758 23.1381 32.4096 22.9322 32.8381C22.7286 33.2642 22.6268 33.7566 22.6268 34.3153C22.6268 34.8741 22.7286 35.3641 22.9322 35.7855C23.1381 36.2045 23.4305 36.5312 23.8093 36.7656ZM23.4688 33.8324C23.4848 33.5794 23.5486 33.3403 23.6602 33.1151C23.7904 32.8523 23.9762 32.6392 24.2177 32.4759C24.4615 32.3101 24.7504 32.2273 25.0842 32.2273C25.3872 32.2273 25.65 32.2971 25.8725 32.4368C26.0974 32.5765 26.2702 32.767 26.391 33.0085C26.5141 33.25 26.5756 33.5246 26.5756 33.8324H23.4688Z" fill="#CFD1DE"/>
</svg>
