<svg width="37" height="36" viewBox="0 0 37 36" fill="none" xmlns="http://www.w3.org/2000/svg">
<path fill-rule="evenodd" clip-rule="evenodd" d="M10.2899 0.0351562C8.05871 0.0351562 6.24994 1.84392 6.24994 4.07516V18.2412C6.24994 20.4724 8.05871 22.2812 10.2899 22.2812H26.4134C28.6446 22.2812 30.4534 20.4724 30.4534 18.2412V8.02585C30.4534 5.79462 28.6446 3.98585 26.4134 3.98585H9.76398C9.20632 3.98585 8.75424 3.53378 8.75424 2.97611C8.75424 2.91056 8.748 2.84646 8.73607 2.78439C9.1066 2.33882 9.66514 2.05516 10.2899 2.05516H27.4473C28.0051 2.05516 28.4573 1.60296 28.4573 1.04516C28.4573 0.487349 28.0051 0.0351562 27.4473 0.0351562H10.2899ZM8.26994 18.2412V5.61247C8.71084 5.86286 9.22071 6.00585 9.76398 6.00585H26.4134C27.529 6.00585 28.4334 6.91024 28.4334 8.02585V18.2412C28.4334 19.3568 27.529 20.2612 26.4134 20.2612H10.2899C9.17433 20.2612 8.26994 19.3568 8.26994 18.2412Z" fill="#CFD1DE"/>
<path fill-rule="evenodd" clip-rule="evenodd" d="M0.135742 27.7275V35.0002H2.76358C3.3365 35.0002 3.8017 34.915 4.15918 34.7446C4.51666 34.5741 4.77826 34.3433 4.94398 34.0521C5.1097 33.7609 5.19256 33.433 5.19256 33.0684C5.19256 32.6849 5.1168 32.3606 4.96529 32.0954C4.81377 31.8303 4.62556 31.6267 4.40066 31.4846C4.17575 31.3426 3.95203 31.2644 3.72949 31.2502V31.1792C3.93783 31.1224 4.13077 31.0348 4.30833 30.9164C4.48825 30.7981 4.63266 30.6371 4.74157 30.4335C4.85284 30.2299 4.90847 29.9718 4.90847 29.6593C4.90847 29.3042 4.82798 28.9811 4.66699 28.6899C4.50601 28.3963 4.26098 28.1631 3.93191 27.9903C3.60283 27.8151 3.18498 27.7275 2.67836 27.7275H0.135742ZM2.76358 34.219H1.01642V31.6906H2.8062C3.12343 31.6906 3.39805 31.7545 3.63006 31.8823C3.86207 32.0078 4.04081 32.1759 4.16628 32.3866C4.29176 32.5949 4.35449 32.8222 4.35449 33.0684C4.35449 33.388 4.23257 33.6603 3.98873 33.8852C3.74725 34.1077 3.33887 34.219 2.76358 34.219ZM2.64995 30.9235H1.01642V28.5088H2.67836C3.16131 28.5088 3.51406 28.6212 3.73659 28.8461C3.95913 29.0687 4.0704 29.3397 4.0704 29.6593C4.0704 29.915 4.00648 30.1375 3.87864 30.3269C3.75317 30.5163 3.58271 30.6631 3.36728 30.7673C3.15421 30.8714 2.9151 30.9235 2.64995 30.9235Z" fill="#CFD1DE"/>
<path d="M6.52601 29.5457V35.0002H7.36408V29.5457H6.52601Z" fill="#CFD1DE"/>
<path d="M6.52956 28.4697C6.64793 28.581 6.7888 28.6366 6.95215 28.6366C7.1155 28.6366 7.25518 28.581 7.37118 28.4697C7.48955 28.3584 7.54874 28.2247 7.54874 28.0684C7.54874 27.9122 7.48955 27.7784 7.37118 27.6671C7.25518 27.5559 7.1155 27.5002 6.95215 27.5002C6.7888 27.5002 6.64793 27.5559 6.52956 27.6671C6.41356 27.7784 6.35556 27.9122 6.35556 28.0684C6.35556 28.2247 6.41356 28.3584 6.52956 28.4697Z" fill="#CFD1DE"/>
<path d="M9.73713 35.0002V27.7275H8.89906V35.0002H9.73713Z" fill="#CFD1DE"/>
<path d="M12.1102 35.0002V27.7275H11.2721V35.0002H12.1102Z" fill="#CFD1DE"/>
<path fill-rule="evenodd" clip-rule="evenodd" d="M14.572 34.7659C14.9532 34.9979 15.4065 35.1139 15.9321 35.1139C16.3014 35.1139 16.634 35.0571 16.93 34.9434C17.2259 34.8274 17.4745 34.6664 17.6757 34.4605C17.8769 34.2521 18.0202 34.0107 18.1054 33.736L17.2957 33.5088C17.2247 33.6982 17.1241 33.8568 16.9939 33.9846C16.8637 34.1101 16.7086 34.2048 16.5287 34.2687C16.3511 34.3303 16.1523 34.361 15.9321 34.361C15.5935 34.361 15.2964 34.2876 15.0407 34.1409C14.7851 33.9917 14.585 33.7751 14.4406 33.491C14.3118 33.2313 14.2414 32.9199 14.2294 32.5571H18.1906V32.2019C18.1906 31.6929 18.1231 31.2644 17.9882 30.9164C17.8532 30.5684 17.6721 30.2891 17.4449 30.0784C17.2176 29.8653 16.9655 29.7114 16.6885 29.6167C16.4115 29.522 16.1309 29.4747 15.8469 29.4747C15.3544 29.4747 14.9236 29.5954 14.5542 29.8369C14.1873 30.076 13.9008 30.4098 13.6949 30.8383C13.4913 31.2644 13.3895 31.7569 13.3895 32.3156C13.3895 32.8743 13.4913 33.3643 13.6949 33.7857C13.9008 34.2048 14.1932 34.5315 14.572 34.7659ZM14.2315 31.8326C14.2475 31.5796 14.3113 31.3405 14.4229 31.1153C14.5531 30.8525 14.7389 30.6394 14.9804 30.4761C15.2242 30.3104 15.5131 30.2275 15.8469 30.2275C16.1499 30.2275 16.4127 30.2973 16.6352 30.437C16.8601 30.5767 17.0329 30.7673 17.1537 31.0088C17.2768 31.2502 17.3383 31.5249 17.3383 31.8326H14.2315Z" fill="#CFD1DE"/>
<path d="M21.8376 30.2559V29.5457H20.6729V28.2389H19.8348V29.5457H19.0109V30.2559H19.8348V33.665C19.8348 33.9822 19.9082 34.245 20.055 34.4534C20.2041 34.6617 20.3911 34.8168 20.616 34.9186C20.8433 35.0204 21.0753 35.0713 21.3121 35.0713C21.4683 35.0713 21.5973 35.0594 21.6991 35.0357C21.8009 35.0144 21.8802 34.9931 21.9371 34.9718L21.7666 34.219L21.6246 34.2474C21.5654 34.2569 21.4896 34.2616 21.3973 34.2616C21.2742 34.2616 21.157 34.2427 21.0457 34.2048C20.9368 34.1645 20.8469 34.0864 20.7758 33.9704C20.7072 33.852 20.6729 33.6745 20.6729 33.4377V30.2559H21.8376Z" fill="#CFD1DE"/>
<path fill-rule="evenodd" clip-rule="evenodd" d="M23.9665 34.7659C24.3477 34.9979 24.801 35.1139 25.3266 35.1139C25.6959 35.1139 26.0286 35.0571 26.3245 34.9434C26.6204 34.8274 26.869 34.6664 27.0702 34.4605C27.2715 34.2521 27.4147 34.0107 27.4999 33.736L26.6903 33.5088C26.6192 33.6982 26.5186 33.8568 26.3884 33.9846C26.2582 34.1101 26.1031 34.2048 25.9232 34.2687C25.7456 34.3303 25.5468 34.361 25.3266 34.361C24.9881 34.361 24.691 34.2876 24.4353 34.1409C24.1796 33.9917 23.9796 33.7751 23.8351 33.491C23.7063 33.2313 23.6359 32.9199 23.6239 32.5571H27.5851V32.2019C27.5851 31.6929 27.5177 31.2644 27.3827 30.9164C27.2478 30.5684 27.0667 30.2891 26.8394 30.0784C26.6121 29.8653 26.36 29.7114 26.083 29.6167C25.806 29.522 25.5255 29.4747 25.2414 29.4747C24.749 29.4747 24.3181 29.5954 23.9488 29.8369C23.5818 30.076 23.2954 30.4098 23.0894 30.8383C22.8858 31.2644 22.784 31.7569 22.784 32.3156C22.784 32.8743 22.8858 33.3643 23.0894 33.7857C23.2954 34.2048 23.5877 34.5315 23.9665 34.7659ZM23.6261 31.8326C23.642 31.5796 23.7058 31.3405 23.8174 31.1153C23.9476 30.8525 24.1334 30.6394 24.3749 30.4761C24.6188 30.3104 24.9076 30.2275 25.2414 30.2275C25.5444 30.2275 25.8072 30.2973 26.0297 30.437C26.2546 30.5767 26.4275 30.7673 26.5482 31.0088C26.6713 31.2502 26.7329 31.5249 26.7329 31.8326H23.6261Z" fill="#CFD1DE"/>
<path d="M28.86 29.5457V35.0002H29.6981V31.5485C29.6981 31.3023 29.7572 31.0833 29.8756 30.8916C29.9964 30.6974 30.1597 30.5459 30.3657 30.437C30.574 30.3258 30.8108 30.2701 31.0759 30.2701C31.1872 30.2701 31.2925 30.2784 31.392 30.295C31.4938 30.3092 31.5589 30.3198 31.5873 30.3269V29.4747C31.5399 29.4699 31.4701 29.4664 31.3778 29.464C31.2854 29.4616 31.2085 29.4605 31.1469 29.4605C30.8202 29.4605 30.5267 29.5445 30.2662 29.7126C30.0058 29.8807 29.8259 30.0997 29.7265 30.3696H29.6697V29.5457H28.86Z" fill="#CFD1DE"/>
<path fill-rule="evenodd" clip-rule="evenodd" d="M33.2448 34.9328C33.5265 35.063 33.8402 35.1281 34.1858 35.1281C34.5031 35.1281 34.7718 35.0807 34.9919 34.986C35.2121 34.8913 35.3885 34.7765 35.521 34.6416C35.6536 34.5066 35.7483 34.38 35.8051 34.2616H35.8477V35.0002H36.6858V31.4065C36.6858 30.9732 36.6148 30.6276 36.4727 30.3696C36.3307 30.1115 36.152 29.9186 35.9365 29.7907C35.7235 29.6629 35.5021 29.5788 35.2725 29.5386C35.0452 29.496 34.844 29.4747 34.6688 29.4747C34.3941 29.4747 34.1148 29.5125 33.8307 29.5883C33.549 29.6617 33.2886 29.7919 33.0494 29.9789C32.8127 30.1636 32.6233 30.4216 32.4813 30.7531L33.2767 31.0372C33.3691 30.8383 33.5289 30.6513 33.7561 30.4761C33.9834 30.3009 34.2971 30.2133 34.6972 30.2133C35.0831 30.2133 35.3707 30.3104 35.5601 30.5045C35.7519 30.6986 35.8477 30.9709 35.8477 31.3213V31.3497C35.8477 31.4846 35.7992 31.5793 35.7021 31.6338C35.6075 31.6882 35.4559 31.7273 35.2476 31.7509C35.0416 31.7723 34.7729 31.8042 34.4415 31.8468C34.1882 31.88 33.9361 31.9249 33.6851 31.9818C33.4365 32.0362 33.2093 32.1191 33.0033 32.2303C32.7973 32.3416 32.6328 32.4955 32.5097 32.692C32.3866 32.8861 32.325 33.1394 32.325 33.4519C32.325 33.8071 32.4079 34.1101 32.5736 34.361C32.7393 34.6096 32.963 34.8002 33.2448 34.9328ZM35.1517 34.1799C34.9244 34.3101 34.6451 34.3752 34.3137 34.3752C33.9799 34.3752 33.704 34.3018 33.4862 34.1551C33.2708 34.0059 33.1631 33.7857 33.1631 33.4946C33.1631 33.2815 33.2199 33.1134 33.3335 32.9903C33.4495 32.8648 33.6011 32.7713 33.7881 32.7098C33.9775 32.6458 34.1811 32.5997 34.3989 32.5713C34.4888 32.5594 34.606 32.5452 34.7504 32.5286C34.8972 32.5097 35.0476 32.4884 35.2014 32.4647C35.3577 32.4387 35.495 32.4091 35.6134 32.3759C35.7341 32.3404 35.8122 32.3014 35.8477 32.2588V33.0258C35.8477 33.2531 35.7886 33.4697 35.6702 33.6757C35.5542 33.8816 35.3814 34.0497 35.1517 34.1799Z" fill="#CFD1DE"/>
</svg>
