<svg width="28" height="38" viewBox="0 0 28 38" fill="none" xmlns="http://www.w3.org/2000/svg">
<path fill-rule="evenodd" clip-rule="evenodd" d="M14.6007 0.310243C14.2441 0.0476274 13.758 0.0476274 13.4014 0.310243L4.50952 6.8579C3.48284 7.6139 2.87672 8.81296 2.87672 10.088V20.8732C2.87672 22.8125 4.44878 24.3846 6.38802 24.3846H9.96714C11.078 24.3846 11.9784 23.4841 11.9784 22.3732V16.7998H16.0237V22.3732C16.0237 23.4841 16.9241 24.3846 18.035 24.3846H21.6141C23.5533 24.3846 25.1254 22.8125 25.1254 20.8732V10.088C25.1254 8.81296 24.5193 7.6139 23.4926 6.8579L14.6007 0.310243ZM5.70882 8.48658L14.001 2.38049L22.2933 8.48658C22.8023 8.86139 23.1028 9.45585 23.1028 10.088V20.8732C23.1028 21.6954 22.4363 22.3619 21.6141 22.3619H18.0463V16.2885C18.0463 15.4538 17.3696 14.7772 16.535 14.7772H11.4671C10.6325 14.7772 9.95584 15.4538 9.95584 16.2885V22.3619H6.38802C5.56583 22.3619 4.89932 21.6954 4.89932 20.8732V10.088C4.89932 9.45585 5.19982 8.86139 5.70882 8.48658Z" fill="#CFD1DE"/>
<path d="M0.94043 29.8406V37.1133H1.82111V33.8604H5.69895V37.1133H6.57964V29.8406H5.69895V33.0792H1.82111V29.8406H0.94043Z" fill="#CFD1DE"/>
<path fill-rule="evenodd" clip-rule="evenodd" d="M9.14888 36.8754C9.52057 37.1097 9.95262 37.2269 10.445 37.2269C10.9375 37.2269 11.3683 37.1097 11.7377 36.8754C12.1093 36.641 12.3982 36.3131 12.6041 35.8917C12.8125 35.4703 12.9166 34.9779 12.9166 34.4144C12.9166 33.8462 12.8125 33.3503 12.6041 32.9265C12.3982 32.5027 12.1093 32.1736 11.7377 31.9393C11.3683 31.7049 10.9375 31.5877 10.445 31.5877C9.95262 31.5877 9.52057 31.7049 9.14888 31.9393C8.77956 32.1736 8.49074 32.5027 8.28241 32.9265C8.07644 33.3503 7.97346 33.8462 7.97346 34.4144C7.97346 34.9779 8.07644 35.4703 8.28241 35.8917C8.49074 36.3131 8.77956 36.641 9.14888 36.8754ZM11.3683 36.1864C11.1269 36.3782 10.8191 36.4741 10.445 36.4741C10.071 36.4741 9.76323 36.3782 9.52175 36.1864C9.28028 35.9947 9.10153 35.7425 8.98553 35.43C8.86953 35.1175 8.81153 34.779 8.81153 34.4144C8.81153 34.0498 8.86953 33.7101 8.98553 33.3952C9.10153 33.0804 9.28028 32.8259 9.52175 32.6317C9.76323 32.4376 10.071 32.3406 10.445 32.3406C10.8191 32.3406 11.1269 32.4376 11.3683 32.6317C11.6098 32.8259 11.7886 33.0804 11.9046 33.3952C12.0206 33.7101 12.0786 34.0498 12.0786 34.4144C12.0786 34.779 12.0206 35.1175 11.9046 35.43C11.7886 35.7425 11.6098 35.9947 11.3683 36.1864Z" fill="#CFD1DE"/>
<path d="M14.1959 31.6587V37.1133H15.034V33.7042C15.034 33.4367 15.0908 33.2011 15.2045 32.9975C15.3205 32.7915 15.472 32.6306 15.659 32.5146C15.8484 32.3986 16.052 32.3406 16.2698 32.3406C16.587 32.3406 16.8463 32.4364 17.0475 32.6282C17.2487 32.8176 17.3493 33.0674 17.3493 33.3775V37.1133H18.2016V33.5621C18.2016 33.2094 18.307 32.9182 18.5177 32.6886C18.7284 32.4566 19.0255 32.3406 19.409 32.3406C19.7073 32.3406 19.9665 32.427 20.1867 32.5998C20.4069 32.7726 20.517 33.0602 20.517 33.4627V37.1133H21.355V33.4627C21.355 32.8211 21.2 32.3488 20.8898 32.0458C20.5797 31.7404 20.1808 31.5877 19.6931 31.5877C19.3025 31.5877 18.9675 31.6718 18.6881 31.8398C18.4088 32.0056 18.1992 32.2293 18.0596 32.511H18.0028C17.8678 32.2198 17.6796 31.9937 17.4381 31.8327C17.199 31.6694 16.8995 31.5877 16.5397 31.5877C16.1846 31.5877 15.8804 31.6694 15.627 31.8327C15.3737 31.9937 15.1903 32.2198 15.0766 32.511H15.0056V31.6587H14.1959Z" fill="#CFD1DE"/>
<path fill-rule="evenodd" clip-rule="evenodd" d="M23.8142 36.8789C24.1953 37.1109 24.6487 37.2269 25.1743 37.2269C25.5436 37.2269 25.8762 37.1701 26.1721 37.0565C26.4681 36.9405 26.7167 36.7795 26.9179 36.5735C27.1191 36.3652 27.2623 36.1237 27.3476 35.8491L26.5379 35.6218C26.4669 35.8112 26.3663 35.9698 26.2361 36.0977C26.1059 36.2231 25.9508 36.3178 25.7709 36.3817C25.5933 36.4433 25.3944 36.4741 25.1743 36.4741C24.8357 36.4741 24.5386 36.4007 24.2829 36.2539C24.0273 36.1048 23.8272 35.8881 23.6828 35.604C23.554 35.3443 23.4836 35.033 23.4716 34.6701H27.4328V34.315C27.4328 33.806 27.3653 33.3775 27.2304 33.0295C27.0954 32.6815 26.9143 32.4021 26.6871 32.1914C26.4598 31.9783 26.2077 31.8245 25.9307 31.7298C25.6537 31.6351 25.3731 31.5877 25.089 31.5877C24.5966 31.5877 24.1658 31.7085 23.7964 31.9499C23.4295 32.189 23.143 32.5228 22.9371 32.9513C22.7335 33.3775 22.6317 33.8699 22.6317 34.4286C22.6317 34.9873 22.7335 35.4774 22.9371 35.8988C23.143 36.3178 23.4354 36.6445 23.8142 36.8789ZM23.4737 33.9457C23.4897 33.6926 23.5535 33.4535 23.665 33.2283C23.7952 32.9656 23.9811 32.7525 24.2226 32.5891C24.4664 32.4234 24.7552 32.3406 25.089 32.3406C25.3921 32.3406 25.6549 32.4104 25.8774 32.5501C26.1023 32.6897 26.2751 32.8803 26.3959 33.1218C26.519 33.3633 26.5805 33.6379 26.5805 33.9457H23.4737Z" fill="#CFD1DE"/>
</svg>
