<svg width="24" height="37" viewBox="0 0 24 37" fill="none" xmlns="http://www.w3.org/2000/svg">
<path fill-rule="evenodd" clip-rule="evenodd" d="M6.93128 6.07954C6.93128 2.72837 9.64793 0.0117188 12.9991 0.0117188C16.3503 0.0117188 19.0669 2.72837 19.0669 6.07954C19.0669 9.4307 16.3503 12.1474 12.9991 12.1474C9.64793 12.1474 6.93128 9.4307 6.93128 6.07954ZM12.9991 2.03432C10.765 2.03432 8.95388 3.84543 8.95388 6.07954C8.95388 8.31364 10.765 10.1247 12.9991 10.1247C15.2332 10.1247 17.0443 8.31364 17.0443 6.07954C17.0443 3.84543 15.2332 2.03432 12.9991 2.03432Z" fill="#55B3FF"/>
<path d="M12.9991 16.6982C10.5994 16.6982 8.32559 17.2313 6.76946 17.7117C5.87873 17.9866 5.22418 18.7933 5.064 19.8231L4.89665 20.8989C4.8108 21.4508 4.29381 21.8286 3.74192 21.7427C3.19003 21.6569 2.81223 21.1399 2.89808 20.588L3.06543 19.5122C3.32711 17.8299 4.44107 16.3137 6.17287 15.7791C7.83573 15.2657 10.3231 14.6756 12.9991 14.6756C15.6751 14.6756 18.1625 15.2657 19.8253 15.7791C21.5571 16.3137 22.6711 17.8299 22.9328 19.5122L23.1001 20.588C23.186 21.1399 22.8082 21.6569 22.2563 21.7427C21.7044 21.8286 21.1874 21.4508 21.1015 20.8989L20.9342 19.8231C20.774 18.7933 20.1195 17.9866 19.2287 17.7117C17.6726 17.2313 15.3988 16.6982 12.9991 16.6982Z" fill="#55B3FF"/>
<path fill-rule="evenodd" clip-rule="evenodd" d="M0.619141 28.7277V36.0004H1.49982V33.3442H3.09073C3.65655 33.3442 4.12056 33.2412 4.48278 33.0352C4.84499 32.8269 5.11251 32.5475 5.28533 32.1971C5.46052 31.8468 5.54812 31.4573 5.54812 31.0288C5.54812 30.6003 5.46052 30.2121 5.28533 29.8641C5.11014 29.516 4.84026 29.2402 4.47567 29.0366C4.11346 28.8307 3.64708 28.7277 3.07653 28.7277H0.619141ZM1.49982 32.5629H3.06232C3.45295 32.5629 3.76663 32.4954 4.00337 32.3605C4.24012 32.2256 4.41175 32.0433 4.51829 31.8136C4.62719 31.5816 4.68164 31.32 4.68164 31.0288C4.68164 30.7376 4.62719 30.4772 4.51829 30.2476C4.41175 30.0179 4.23893 29.838 3.99982 29.7078C3.76071 29.5752 3.44348 29.5089 3.04812 29.5089H1.49982V32.5629Z" fill="#55B3FF"/>
<path fill-rule="evenodd" clip-rule="evenodd" d="M7.72141 35.766C8.10257 35.998 8.55593 36.1141 9.0815 36.1141C9.45082 36.1141 9.78344 36.0572 10.0794 35.9436C10.3753 35.8276 10.6239 35.6666 10.8251 35.4606C11.0263 35.2523 11.1696 35.0108 11.2548 34.7362L10.4451 34.5089C10.3741 34.6983 10.2735 34.8569 10.1433 34.9848C10.0131 35.1103 9.85801 35.205 9.67809 35.2689C9.50053 35.3304 9.30167 35.3612 9.0815 35.3612C8.74296 35.3612 8.44585 35.2878 8.19016 35.141C7.93448 34.9919 7.73443 34.7753 7.59002 34.4912C7.46123 34.2314 7.39082 33.9201 7.37881 33.5572H11.34V33.2021C11.34 32.6931 11.2725 32.2646 11.1376 31.9166C11.0027 31.5686 10.8216 31.2892 10.5943 31.0785C10.367 30.8655 10.1149 30.7116 9.83789 30.6169C9.5609 30.5222 9.28036 30.4748 8.99627 30.4748C8.50385 30.4748 8.07298 30.5956 7.70366 30.8371C7.33671 31.0762 7.05025 31.41 6.84428 31.8385C6.64068 32.2646 6.53888 32.757 6.53888 33.3158C6.53888 33.8745 6.64068 34.3645 6.84428 34.7859C7.05025 35.205 7.34263 35.5317 7.72141 35.766ZM7.38095 32.8328C7.39691 32.5798 7.46068 32.3407 7.57227 32.1155C7.70247 31.8527 7.88832 31.6396 8.12979 31.4763C8.37364 31.3105 8.66246 31.2277 8.99627 31.2277C9.2993 31.2277 9.56209 31.2975 9.78462 31.4372C10.0095 31.5769 10.1824 31.7675 10.3031 32.0089C10.4262 32.2504 10.4877 32.525 10.4877 32.8328H7.38095Z" fill="#55B3FF"/>
<path d="M12.6149 30.5459V36.0004H13.4529V32.5487C13.4529 32.3025 13.5121 32.0835 13.6305 31.8918C13.7512 31.6976 13.9146 31.5461 14.1206 31.4372C14.3289 31.3259 14.5656 31.2703 14.8308 31.2703C14.9421 31.2703 15.0474 31.2786 15.1468 31.2952C15.2486 31.3094 15.3137 31.32 15.3422 31.3271V30.4748C15.2948 30.4701 15.225 30.4666 15.1326 30.4642C15.0403 30.4618 14.9634 30.4606 14.9018 30.4606C14.5751 30.4606 14.2815 30.5447 14.0211 30.7128C13.7607 30.8809 13.5808 31.0998 13.4814 31.3697H13.4245V30.5459H12.6149Z" fill="#55B3FF"/>
<path d="M19.1064 31.2561V30.5459H17.8848V29.9919C17.8848 29.722 17.9451 29.5172 18.0659 29.3775C18.189 29.2379 18.389 29.168 18.666 29.168C18.7868 29.168 18.8838 29.1787 18.9572 29.2C19.033 29.2213 19.0922 29.2391 19.1348 29.2533L19.3762 28.5288C19.3123 28.5004 19.2153 28.4696 19.085 28.4365C18.9548 28.4034 18.7868 28.3868 18.5808 28.3868C18.3204 28.3868 18.073 28.4389 17.8386 28.543C17.6042 28.6472 17.4136 28.8034 17.2669 29.0118C17.1201 29.2201 17.0467 29.4805 17.0467 29.793V30.5459H16.166V31.2561H17.0467V36.0004H17.8848V31.2561H19.1064Z" fill="#55B3FF"/>
<path d="M20.2809 30.5459V36.0004H21.119V30.5459H20.2809Z" fill="#55B3FF"/>
<path d="M20.2844 29.4699C20.4028 29.5811 20.5437 29.6368 20.707 29.6368C20.8704 29.6368 21.0101 29.5811 21.1261 29.4699C21.2444 29.3586 21.3036 29.2248 21.3036 29.0686C21.3036 28.9123 21.2444 28.7786 21.1261 28.6673C21.0101 28.556 20.8704 28.5004 20.707 28.5004C20.5437 28.5004 20.4028 28.556 20.2844 28.6673C20.1684 28.7786 20.1104 28.9123 20.1104 29.0686C20.1104 29.2248 20.1684 29.3586 20.2844 29.4699Z" fill="#55B3FF"/>
<path d="M23.492 36.0004V28.7277H22.6539V36.0004H23.492Z" fill="#55B3FF"/>
</svg>
