<svg width="27" height="38" viewBox="0 0 27 38" fill="none" xmlns="http://www.w3.org/2000/svg">
<path fill-rule="evenodd" clip-rule="evenodd" d="M13.9571 0.743837C13.6005 0.481221 13.1145 0.481221 12.7578 0.743837L3.87977 7.28133C2.84441 8.04372 2.23316 9.25292 2.23316 10.5387V21.2786C2.23316 23.2334 3.81788 24.8181 5.77272 24.8181H9.31228C10.4293 24.8181 11.3349 23.9126 11.3349 22.7955V17.2334H15.3801V22.7955C15.3801 23.9126 16.2857 24.8181 17.4027 24.8181H20.9423C22.8971 24.8181 24.4818 23.2334 24.4818 21.2786V10.5387C24.4818 9.25292 23.8706 8.04372 22.8352 7.28133L13.9571 0.743837ZM5.07907 8.91001L13.3575 2.81408L21.6359 8.91001C22.1536 9.29121 22.4592 9.89581 22.4592 10.5387V21.2786C22.4592 22.1164 21.7801 22.7955 20.9423 22.7955H17.4027V16.7277C17.4027 15.8899 16.7235 15.2108 15.8857 15.2108H10.8292C9.99145 15.2108 9.31228 15.8899 9.31228 16.7277V22.7955H5.77272C4.93493 22.7955 4.25577 22.1164 4.25577 21.2786V10.5387C4.25577 9.89581 4.56139 9.29121 5.07907 8.91001Z" fill="#CFD1DE"/>
<path d="M0.297852 30.2741V37.5469H1.17854V34.294H5.05638V37.5469H5.93706V30.2741H5.05638V33.5128H1.17854V30.2741H0.297852Z" fill="#CFD1DE"/>
<path fill-rule="evenodd" clip-rule="evenodd" d="M8.5063 37.3089C8.87799 37.5433 9.31005 37.6605 9.80247 37.6605C10.2949 37.6605 10.7258 37.5433 11.0951 37.3089C11.4668 37.0746 11.7556 36.7467 11.9616 36.3253C12.1699 35.9039 12.2741 35.4115 12.2741 34.848C12.2741 34.2798 12.1699 33.7839 11.9616 33.3601C11.7556 32.9363 11.4668 32.6072 11.0951 32.3729C10.7258 32.1385 10.2949 32.0213 9.80247 32.0213C9.31005 32.0213 8.87799 32.1385 8.5063 32.3729C8.13699 32.6072 7.84816 32.9363 7.63983 33.3601C7.43386 33.7839 7.33088 34.2798 7.33088 34.848C7.33088 35.4115 7.43386 35.9039 7.63983 36.3253C7.84816 36.7467 8.13699 37.0746 8.5063 37.3089ZM10.7258 36.62C10.4843 36.8118 10.1765 36.9077 9.80247 36.9077C9.42842 36.9077 9.12065 36.8118 8.87917 36.62C8.6377 36.4283 8.45896 36.1761 8.34295 35.8636C8.22695 35.5511 8.16895 35.2126 8.16895 34.848C8.16895 34.4834 8.22695 34.1437 8.34295 33.8288C8.45896 33.514 8.6377 33.2595 8.87917 33.0653C9.12065 32.8712 9.42842 32.7741 9.80247 32.7741C10.1765 32.7741 10.4843 32.8712 10.7258 33.0653C10.9672 33.2595 11.146 33.514 11.262 33.8288C11.378 34.1437 11.436 34.4834 11.436 34.848C11.436 35.2126 11.378 35.5511 11.262 35.8636C11.146 36.1761 10.9672 36.4283 10.7258 36.62Z" fill="#CFD1DE"/>
<path d="M13.5534 32.0923V37.5469H14.3914V34.1378C14.3914 33.8703 14.4482 33.6347 14.5619 33.4311C14.6779 33.2251 14.8294 33.0642 15.0164 32.9482C15.2058 32.8321 15.4094 32.7741 15.6272 32.7741C15.9445 32.7741 16.2037 32.87 16.4049 33.0618C16.6062 33.2512 16.7068 33.5009 16.7068 33.8111V37.5469H17.559V33.9957C17.559 33.643 17.6644 33.3518 17.8751 33.1222C18.0858 32.8902 18.3829 32.7741 18.7664 32.7741C19.0647 32.7741 19.324 32.8606 19.5441 33.0334C19.7643 33.2062 19.8744 33.4938 19.8744 33.8963V37.5469H20.7124V33.8963C20.7124 33.2547 20.5574 32.7824 20.2472 32.4794C19.9371 32.174 19.5382 32.0213 19.0505 32.0213C18.6599 32.0213 18.3249 32.1054 18.0455 32.2734C17.7662 32.4392 17.5567 32.6629 17.417 32.9446H17.3602C17.2252 32.6534 17.037 32.4273 16.7955 32.2663C16.5564 32.103 16.257 32.0213 15.8971 32.0213C15.542 32.0213 15.2378 32.103 14.9845 32.2663C14.7312 32.4273 14.5477 32.6534 14.434 32.9446H14.363V32.0923H13.5534Z" fill="#CFD1DE"/>
<path fill-rule="evenodd" clip-rule="evenodd" d="M23.1716 37.3125C23.5528 37.5445 24.0061 37.6605 24.5317 37.6605C24.901 37.6605 25.2336 37.6037 25.5296 37.4901C25.8255 37.3741 26.0741 37.2131 26.2753 37.0071C26.4765 36.7988 26.6198 36.5573 26.705 36.2827L25.8953 36.0554C25.8243 36.2448 25.7237 36.4034 25.5935 36.5312C25.4633 36.6567 25.3082 36.7514 25.1283 36.8153C24.9507 36.8769 24.7519 36.9077 24.5317 36.9077C24.1932 36.9077 23.896 36.8343 23.6404 36.6875C23.3847 36.5384 23.1846 36.3217 23.0402 36.0376C22.9114 35.7779 22.841 35.4666 22.829 35.1037H26.7902V34.7486C26.7902 34.2396 26.7227 33.8111 26.5878 33.4631C26.4529 33.1151 26.2718 32.8357 26.0445 32.625C25.8172 32.4119 25.5651 32.258 25.2881 32.1634C25.0111 32.0687 24.7306 32.0213 24.4465 32.0213C23.954 32.0213 23.5232 32.142 23.1539 32.3835C22.7869 32.6226 22.5004 32.9564 22.2945 33.3849C22.0909 33.8111 21.9891 34.3035 21.9891 34.8622C21.9891 35.4209 22.0909 35.911 22.2945 36.3324C22.5004 36.7514 22.7928 37.0781 23.1716 37.3125ZM22.8311 34.3793C22.8471 34.1262 22.9109 33.8871 23.0225 33.6619C23.1527 33.3991 23.3385 33.1861 23.58 33.0227C23.8238 32.857 24.1127 32.7741 24.4465 32.7741C24.7495 32.7741 25.0123 32.844 25.2348 32.9837C25.4597 33.1233 25.6325 33.3139 25.7533 33.5554C25.8764 33.7969 25.9379 34.0715 25.9379 34.3793H22.8311Z" fill="#CFD1DE"/>
</svg>
