<svg width="38" height="37" viewBox="0 0 38 37" fill="none" xmlns="http://www.w3.org/2000/svg">
<path fill-rule="evenodd" clip-rule="evenodd" d="M10.9384 0.988281C8.70715 0.988281 6.89838 2.79705 6.89838 5.02828V19.1943C6.89838 21.4256 8.70715 23.2343 10.9384 23.2343H27.0618C29.293 23.2343 31.1018 21.4256 31.1018 19.1943V8.97897C31.1018 6.74774 29.293 4.93897 27.0618 4.93897H10.4124C9.85475 4.93897 9.40268 4.4869 9.40268 3.92924C9.40268 3.86368 9.39643 3.79959 9.38451 3.73751C9.75504 3.29194 10.3136 3.00828 10.9384 3.00828H28.0957C28.6535 3.00828 29.1057 2.55609 29.1057 1.99828C29.1057 1.44047 28.6535 0.988281 28.0957 0.988281H10.9384ZM8.91838 19.1943V6.56559C9.35927 6.81599 9.86915 6.95897 10.4124 6.95897H27.0618C28.1774 6.95897 29.0818 7.86336 29.0818 8.97897V19.1943C29.0818 20.31 28.1774 21.2143 27.0618 21.2143H10.9384C9.82277 21.2143 8.91838 20.31 8.91838 19.1943Z" fill="#CFD1DE"/>
<path fill-rule="evenodd" clip-rule="evenodd" d="M0.78418 28.6804V35.9531H3.41202C3.98494 35.9531 4.45014 35.8679 4.80762 35.6974C5.1651 35.527 5.4267 35.2962 5.59242 35.005C5.75814 34.7138 5.841 34.3859 5.841 34.0213C5.841 33.6378 5.76524 33.3134 5.61373 33.0483C5.46221 32.7831 5.274 32.5795 5.04909 32.4375C4.82419 32.2954 4.60047 32.2173 4.37793 32.2031V32.1321C4.58626 32.0753 4.77921 31.9877 4.95677 31.8693C5.13669 31.7509 5.2811 31.59 5.39 31.3864C5.50127 31.1828 5.55691 30.9247 5.55691 30.6122C5.55691 30.2571 5.47641 29.9339 5.31543 29.6427C5.15445 29.3492 4.90942 29.116 4.58034 28.9432C4.25127 28.768 3.83342 28.6804 3.32679 28.6804H0.78418ZM3.41202 35.1719H1.66486V32.6435H3.45463C3.77187 32.6435 4.04649 32.7074 4.2785 32.8352C4.51051 32.9607 4.68925 33.1288 4.81472 33.3395C4.94019 33.5478 5.00293 33.7751 5.00293 34.0213C5.00293 34.3409 4.88101 34.6132 4.63716 34.8381C4.39569 35.0606 3.9873 35.1719 3.41202 35.1719ZM3.29838 31.8764H1.66486V29.4616H3.32679C3.80975 29.4616 4.16249 29.5741 4.38503 29.799C4.60757 30.0215 4.71884 30.2926 4.71884 30.6122C4.71884 30.8679 4.65492 31.0904 4.52708 31.2798C4.4016 31.4692 4.23115 31.616 4.01571 31.7202C3.80265 31.8243 3.56354 31.8764 3.29838 31.8764Z" fill="#CFD1DE"/>
<path d="M7.17445 30.4986V35.9531H8.01252V30.4986H7.17445Z" fill="#CFD1DE"/>
<path d="M7.178 29.4226C7.29637 29.5338 7.43723 29.5895 7.60059 29.5895C7.76394 29.5895 7.90362 29.5338 8.01962 29.4226C8.13799 29.3113 8.19718 29.1775 8.19718 29.0213C8.19718 28.865 8.13799 28.7313 8.01962 28.62C7.90362 28.5087 7.76394 28.4531 7.60059 28.4531C7.43723 28.4531 7.29637 28.5087 7.178 28.62C7.062 28.7313 7.00399 28.865 7.00399 29.0213C7.00399 29.1775 7.062 29.3113 7.178 29.4226Z" fill="#CFD1DE"/>
<path d="M10.3856 35.9531V28.6804H9.5475V35.9531H10.3856Z" fill="#CFD1DE"/>
<path d="M12.7586 35.9531V28.6804H11.9205V35.9531H12.7586Z" fill="#CFD1DE"/>
<path fill-rule="evenodd" clip-rule="evenodd" d="M15.2204 35.7187C15.6016 35.9507 16.055 36.0668 16.5805 36.0668C16.9498 36.0668 17.2825 36.0099 17.5784 35.8963C17.8743 35.7803 18.1229 35.6193 18.3241 35.4133C18.5254 35.205 18.6686 34.9635 18.7538 34.6889L17.9442 34.4616C17.8731 34.651 17.7725 34.8097 17.6423 34.9375C17.5121 35.063 17.357 35.1577 17.1771 35.2216C16.9996 35.2831 16.8007 35.3139 16.5805 35.3139C16.242 35.3139 15.9449 35.2405 15.6892 35.0937C15.4335 34.9446 15.2335 34.728 15.089 34.4439C14.9602 34.1841 14.8898 33.8728 14.8778 33.5099H18.839V33.1548C18.839 32.6458 18.7716 32.2173 18.6366 31.8693C18.5017 31.5213 18.3206 31.2419 18.0933 31.0312C17.866 30.8182 17.6139 30.6643 17.3369 30.5696C17.0599 30.4749 16.7794 30.4275 16.4953 30.4275C16.0029 30.4275 15.572 30.5483 15.2027 30.7898C14.8357 31.0289 14.5493 31.3627 14.3433 31.7912C14.1397 32.2173 14.0379 32.7097 14.0379 33.2685C14.0379 33.8272 14.1397 34.3172 14.3433 34.7386C14.5493 35.1577 14.8416 35.4844 15.2204 35.7187ZM14.88 32.7855C14.8959 32.5325 14.9597 32.2934 15.0713 32.0682C15.2015 31.8054 15.3873 31.5923 15.6288 31.429C15.8727 31.2632 16.1615 31.1804 16.4953 31.1804C16.7983 31.1804 17.0611 31.2502 17.2836 31.3899C17.5086 31.5296 17.6814 31.7202 17.8021 31.9616C17.9252 32.2031 17.9868 32.4777 17.9868 32.7855H14.88Z" fill="#CFD1DE"/>
<path d="M22.4861 31.2088V30.4986H21.3213V29.1918H20.4832V30.4986H19.6594V31.2088H20.4832V34.6179C20.4832 34.9351 20.5566 35.1979 20.7034 35.4062C20.8525 35.6146 21.0396 35.7696 21.2645 35.8714C21.4917 35.9732 21.7238 36.0241 21.9605 36.0241C22.1167 36.0241 22.2458 36.0123 22.3476 35.9886C22.4494 35.9673 22.5287 35.946 22.5855 35.9247L22.415 35.1719L22.273 35.2003C22.2138 35.2097 22.1381 35.2145 22.0457 35.2145C21.9226 35.2145 21.8054 35.1955 21.6942 35.1577C21.5853 35.1174 21.4953 35.0393 21.4243 34.9233C21.3556 34.8049 21.3213 34.6274 21.3213 34.3906V31.2088H22.4861Z" fill="#CFD1DE"/>
<path fill-rule="evenodd" clip-rule="evenodd" d="M24.615 35.7187C24.9961 35.9507 25.4495 36.0668 25.9751 36.0668C26.3444 36.0668 26.677 36.0099 26.9729 35.8963C27.2689 35.7803 27.5174 35.6193 27.7187 35.4133C27.9199 35.205 28.0631 34.9635 28.1483 34.6889L27.3387 34.4616C27.2677 34.651 27.1671 34.8097 27.0368 34.9375C26.9066 35.063 26.7516 35.1577 26.5716 35.2216C26.3941 35.2831 26.1952 35.3139 25.9751 35.3139C25.6365 35.3139 25.3394 35.2405 25.0837 35.0937C24.828 34.9446 24.628 34.728 24.4836 34.4439C24.3548 34.1841 24.2844 33.8728 24.2724 33.5099H28.2336V33.1548C28.2336 32.6458 28.1661 32.2173 28.0312 31.8693C27.8962 31.5213 27.7151 31.2419 27.4878 31.0312C27.2606 30.8182 27.0084 30.6643 26.7314 30.5696C26.4545 30.4749 26.1739 30.4275 25.8898 30.4275C25.3974 30.4275 24.9665 30.5483 24.5972 30.7898C24.2303 31.0289 23.9438 31.3627 23.7378 31.7912C23.5342 32.2173 23.4324 32.7097 23.4324 33.2685C23.4324 33.8272 23.5342 34.3172 23.7378 34.7386C23.9438 35.1577 24.2362 35.4844 24.615 35.7187ZM24.2745 32.7855C24.2905 32.5325 24.3542 32.2934 24.4658 32.0682C24.596 31.8054 24.7819 31.5923 25.0233 31.429C25.2672 31.2632 25.556 31.1804 25.8898 31.1804C26.1929 31.1804 26.4556 31.2502 26.6782 31.3899C26.9031 31.5296 27.0759 31.7202 27.1966 31.9616C27.3197 32.2031 27.3813 32.4777 27.3813 32.7855H24.2745Z" fill="#CFD1DE"/>
<path d="M29.5084 30.4986V35.9531H30.3465V32.5014C30.3465 32.2552 30.4057 32.0362 30.5241 31.8444C30.6448 31.6503 30.8081 31.4988 31.0141 31.3899C31.2224 31.2786 31.4592 31.223 31.7243 31.223C31.8356 31.223 31.941 31.2313 32.0404 31.2479C32.1422 31.2621 32.2073 31.2727 32.2357 31.2798V30.4275C32.1884 30.4228 32.1185 30.4193 32.0262 30.4169C31.9339 30.4145 31.8569 30.4133 31.7954 30.4133C31.4687 30.4133 31.1751 30.4974 30.9147 30.6655C30.6543 30.8336 30.4743 31.0525 30.3749 31.3224H30.3181V30.4986H29.5084Z" fill="#CFD1DE"/>
<path fill-rule="evenodd" clip-rule="evenodd" d="M33.8932 35.8856C34.1749 36.0159 34.4886 36.081 34.8343 36.081C35.1515 36.081 35.4202 36.0336 35.6404 35.9389C35.8605 35.8442 36.0369 35.7294 36.1695 35.5945C36.3021 35.4595 36.3968 35.3329 36.4536 35.2145H36.4962V35.9531H37.3343V32.3594C37.3343 31.9261 37.2632 31.5805 37.1212 31.3224C36.9791 31.0644 36.8004 30.8714 36.585 30.7436C36.3719 30.6158 36.1505 30.5317 35.9209 30.4915C35.6936 30.4489 35.4924 30.4275 35.3172 30.4275C35.0426 30.4275 34.7632 30.4654 34.4791 30.5412C34.1974 30.6146 33.937 30.7448 33.6979 30.9318C33.4611 31.1165 33.2718 31.3745 33.1297 31.706L33.9252 31.99C34.0175 31.7912 34.1773 31.6042 34.4046 31.429C34.6318 31.2538 34.9455 31.1662 35.3456 31.1662C35.7315 31.1662 36.0191 31.2632 36.2085 31.4574C36.4003 31.6515 36.4962 31.9238 36.4962 32.2741V32.3025C36.4962 32.4375 36.4477 32.5322 36.3506 32.5866C36.2559 32.6411 36.1044 32.6802 35.896 32.7038C35.6901 32.7251 35.4214 32.7571 35.0899 32.7997C34.8366 32.8328 34.5845 32.8778 34.3335 32.9347C34.085 32.9891 33.8577 33.072 33.6517 33.1832C33.4458 33.2945 33.2812 33.4484 33.1581 33.6449C33.035 33.839 32.9735 34.0923 32.9735 34.4048C32.9735 34.7599 33.0563 35.063 33.222 35.3139C33.3878 35.5625 33.6115 35.7531 33.8932 35.8856ZM35.8002 35.1328C35.5729 35.263 35.2935 35.3281 34.9621 35.3281C34.6283 35.3281 34.3525 35.2547 34.1347 35.1079C33.9192 34.9588 33.8115 34.7386 33.8115 34.4474C33.8115 34.2344 33.8683 34.0663 33.982 33.9432C34.098 33.8177 34.2495 33.7242 34.4365 33.6626C34.6259 33.5987 34.8295 33.5525 35.0473 33.5241C35.1373 33.5123 35.2545 33.4981 35.3989 33.4815C35.5457 33.4626 35.696 33.4413 35.8499 33.4176C36.0061 33.3916 36.1434 33.362 36.2618 33.3288C36.3825 33.2933 36.4607 33.2543 36.4962 33.2116V33.9787C36.4962 34.206 36.437 34.4226 36.3186 34.6285C36.2026 34.8345 36.0298 35.0026 35.8002 35.1328Z" fill="#CFD1DE"/>
</svg>
