<svg width="24" height="37" viewBox="0 0 24 37" fill="none" xmlns="http://www.w3.org/2000/svg">
<path fill-rule="evenodd" clip-rule="evenodd" d="M6.92737 6.07954C6.92737 2.72837 9.64402 0.0117188 12.9952 0.0117188C16.3463 0.0117188 19.063 2.72837 19.063 6.07954C19.063 9.4307 16.3463 12.1474 12.9952 12.1474C9.64402 12.1474 6.92737 9.4307 6.92737 6.07954ZM12.9952 2.03432C10.7611 2.03432 8.94998 3.84543 8.94998 6.07954C8.94998 8.31364 10.7611 10.1247 12.9952 10.1247C15.2293 10.1247 17.0404 8.31364 17.0404 6.07954C17.0404 3.84543 15.2293 2.03432 12.9952 2.03432Z" fill="#55B3FF"/>
<path d="M12.9952 16.6982C10.5955 16.6982 8.32168 17.2313 6.76556 17.7117C5.87482 17.9866 5.22028 18.7933 5.06009 19.8231L4.89275 20.8989C4.8069 21.4508 4.28991 21.8286 3.73802 21.7427C3.18613 21.6569 2.80833 21.1399 2.89418 20.588L3.06152 19.5122C3.32321 17.8299 4.43716 16.3137 6.16897 15.7791C7.83183 15.2657 10.3192 14.6756 12.9952 14.6756C15.6712 14.6756 18.1585 15.2657 19.8214 15.7791C21.5532 16.3137 22.6672 17.8299 22.9289 19.5122L23.0962 20.588C23.182 21.1399 22.8042 21.6569 22.2524 21.7427C21.7005 21.8286 21.1835 21.4508 21.0976 20.8989L20.9303 19.8231C20.7701 18.7933 20.1156 17.9866 19.2248 17.7117C17.6687 17.2313 15.3949 16.6982 12.9952 16.6982Z" fill="#55B3FF"/>
<path fill-rule="evenodd" clip-rule="evenodd" d="M0.615234 28.7277V36.0004H1.49592V33.3442H3.08683C3.65264 33.3442 4.11665 33.2412 4.47887 33.0352C4.84109 32.8269 5.10861 32.5475 5.28143 32.1971C5.45662 31.8468 5.54421 31.4573 5.54421 31.0288C5.54421 30.6003 5.45662 30.2121 5.28143 29.8641C5.10624 29.516 4.83635 29.2402 4.47177 29.0366C4.10955 28.8307 3.64317 28.7277 3.07262 28.7277H0.615234ZM1.49592 32.5629H3.05842C3.44904 32.5629 3.76272 32.4954 3.99947 32.3605C4.23621 32.2256 4.40785 32.0433 4.51438 31.8136C4.62328 31.5816 4.67773 31.32 4.67773 31.0288C4.67773 30.7376 4.62328 30.4772 4.51438 30.2476C4.40785 30.0179 4.23503 29.838 3.99592 29.7078C3.75681 29.5752 3.43957 29.5089 3.04421 29.5089H1.49592V32.5629Z" fill="#55B3FF"/>
<path fill-rule="evenodd" clip-rule="evenodd" d="M7.71751 35.766C8.09866 35.998 8.55202 36.1141 9.07759 36.1141C9.44691 36.1141 9.77953 36.0572 10.0755 35.9436C10.3714 35.8276 10.62 35.6666 10.8212 35.4606C11.0224 35.2523 11.1657 35.0108 11.2509 34.7362L10.4412 34.5089C10.3702 34.6983 10.2696 34.8569 10.1394 34.9848C10.0092 35.1103 9.85411 35.205 9.67418 35.2689C9.49663 35.3304 9.29776 35.3612 9.07759 35.3612C8.73905 35.3612 8.44194 35.2878 8.18626 35.141C7.93058 34.9919 7.73053 34.7753 7.58611 34.4912C7.45732 34.2314 7.38692 33.9201 7.3749 33.5572H11.3361V33.2021C11.3361 32.6931 11.2686 32.2646 11.1337 31.9166C10.9988 31.5686 10.8176 31.2892 10.5904 31.0785C10.3631 30.8655 10.111 30.7116 9.83398 30.6169C9.557 30.5222 9.27646 30.4748 8.99236 30.4748C8.49994 30.4748 8.06907 30.5956 7.69975 30.8371C7.3328 31.0762 7.04634 31.41 6.84038 31.8385C6.63678 32.2646 6.53498 32.757 6.53498 33.3158C6.53498 33.8745 6.63678 34.3645 6.84038 34.7859C7.04634 35.205 7.33872 35.5317 7.71751 35.766ZM7.37704 32.8328C7.393 32.5798 7.45677 32.3407 7.56836 32.1155C7.69857 31.8527 7.88441 31.6396 8.12589 31.4763C8.36973 31.3105 8.65856 31.2277 8.99236 31.2277C9.29539 31.2277 9.55818 31.2975 9.78072 31.4372C10.0056 31.5769 10.1784 31.7675 10.2992 32.0089C10.4223 32.2504 10.4838 32.525 10.4838 32.8328H7.37704Z" fill="#55B3FF"/>
<path d="M12.611 30.5459V36.0004H13.449V32.5487C13.449 32.3025 13.5082 32.0835 13.6266 31.8918C13.7473 31.6976 13.9107 31.5461 14.1167 31.4372C14.325 31.3259 14.5617 31.2703 14.8269 31.2703C14.9382 31.2703 15.0435 31.2786 15.1429 31.2952C15.2447 31.3094 15.3098 31.32 15.3382 31.3271V30.4748C15.2909 30.4701 15.2211 30.4666 15.1287 30.4642C15.0364 30.4618 14.9595 30.4606 14.8979 30.4606C14.5712 30.4606 14.2776 30.5447 14.0172 30.7128C13.7568 30.8809 13.5769 31.0998 13.4775 31.3697H13.4206V30.5459H12.611Z" fill="#55B3FF"/>
<path d="M19.1024 31.2561V30.5459H17.8809V29.9919C17.8809 29.722 17.9412 29.5172 18.062 29.3775C18.1851 29.2379 18.3851 29.168 18.6621 29.168C18.7828 29.168 18.8799 29.1787 18.9533 29.2C19.0291 29.2213 19.0882 29.2391 19.1309 29.2533L19.3723 28.5288C19.3084 28.5004 19.2114 28.4696 19.0811 28.4365C18.9509 28.4034 18.7828 28.3868 18.5769 28.3868C18.3165 28.3868 18.0691 28.4389 17.8347 28.543C17.6003 28.6472 17.4097 28.8034 17.263 29.0118C17.1162 29.2201 17.0428 29.4805 17.0428 29.793V30.5459H16.1621V31.2561H17.0428V36.0004H17.8809V31.2561H19.1024Z" fill="#55B3FF"/>
<path d="M20.277 30.5459V36.0004H21.1151V30.5459H20.277Z" fill="#55B3FF"/>
<path d="M20.2805 29.4699C20.3989 29.5811 20.5398 29.6368 20.7031 29.6368C20.8665 29.6368 21.0062 29.5811 21.1222 29.4699C21.2405 29.3586 21.2997 29.2248 21.2997 29.0686C21.2997 28.9123 21.2405 28.7786 21.1222 28.6673C21.0062 28.556 20.8665 28.5004 20.7031 28.5004C20.5398 28.5004 20.3989 28.556 20.2805 28.6673C20.1645 28.7786 20.1065 28.9123 20.1065 29.0686C20.1065 29.2248 20.1645 29.3586 20.2805 29.4699Z" fill="#55B3FF"/>
<path d="M23.4881 36.0004V28.7277H22.65V36.0004H23.4881Z" fill="#55B3FF"/>
</svg>
