<svg width="47" height="40" viewBox="0 0 47 40" fill="none" xmlns="http://www.w3.org/2000/svg">
<path fill-rule="evenodd" clip-rule="evenodd" d="M29.0679 2.71987H28.8953C28.4788 1.54151 27.355 0.697266 26.034 0.697266H19.9662C18.6452 0.697266 17.5214 1.54151 17.1049 2.71987H16.9323C14.6981 2.71987 12.887 4.53097 12.887 6.76508V20.9233C12.887 23.1574 14.6981 24.9685 16.9323 24.9685H29.0679C31.302 24.9685 33.1131 23.1574 33.1131 20.9233V6.76508C33.1131 4.53097 31.302 2.71987 29.0679 2.71987ZM14.9096 6.76508C14.9096 5.64803 15.8152 4.74248 16.9323 4.74248C16.9323 6.41806 18.2906 7.77639 19.9662 7.77639H26.034C27.7096 7.77639 29.0679 6.41806 29.0679 4.74248C30.1849 4.74248 31.0905 5.64803 31.0905 6.76508V20.9233C31.0905 22.0404 30.1849 22.9459 29.0679 22.9459H16.9323C15.8152 22.9459 14.9096 22.0404 14.9096 20.9233V6.76508ZM19.9662 2.71987C19.4076 2.71987 18.9549 3.17265 18.9549 3.73117V4.74248C18.9549 5.301 19.4076 5.75378 19.9662 5.75378H26.034C26.5925 5.75378 27.0453 5.301 27.0453 4.74248V3.73117C27.0453 3.17265 26.5925 2.71987 26.034 2.71987H19.9662Z" fill="#CFD1DE"/>
<path fill-rule="evenodd" clip-rule="evenodd" d="M0.272461 30.4245V37.6973H1.15314V35.041H2.74405C3.30987 35.041 3.77388 34.938 4.1361 34.7321C4.49831 34.5237 4.76583 34.2444 4.93865 33.894C5.11384 33.5436 5.20144 33.1542 5.20144 32.7257C5.20144 32.2972 5.11384 31.9089 4.93865 31.5609C4.76346 31.2129 4.49358 30.9371 4.12899 30.7335C3.76678 30.5275 3.3004 30.4245 2.72985 30.4245H0.272461ZM1.15314 34.2598H2.71564C3.10627 34.2598 3.41995 34.1923 3.65669 34.0574C3.89344 33.9224 4.06507 33.7401 4.17161 33.5105C4.28051 33.2785 4.33496 33.0169 4.33496 32.7257C4.33496 32.4345 4.28051 32.1741 4.17161 31.9444C4.06507 31.7148 3.89225 31.5349 3.65314 31.4047C3.41403 31.2721 3.0968 31.2058 2.70144 31.2058H1.15314V34.2598Z" fill="#CFD1DE"/>
<path d="M6.50648 32.2427V37.6973H7.34455V34.2456C7.34455 33.9993 7.40373 33.7804 7.52211 33.5886C7.64284 33.3945 7.8062 33.243 8.01216 33.1341C8.2205 33.0228 8.45724 32.9672 8.72239 32.9672C8.83366 32.9672 8.93901 32.9754 9.03844 32.992C9.14024 33.0062 9.20534 33.0169 9.23375 33.024V32.1717C9.18641 32.167 9.11657 32.1634 9.02424 32.161C8.93191 32.1587 8.85497 32.1575 8.79341 32.1575C8.46671 32.1575 8.17315 32.2415 7.91273 32.4096C7.65231 32.5777 7.47239 32.7967 7.37296 33.0666H7.31614V32.2427H6.50648Z" fill="#CFD1DE"/>
<path fill-rule="evenodd" clip-rule="evenodd" d="M10.9809 37.4593C11.3526 37.6937 11.7847 37.8109 12.2771 37.8109C12.7695 37.8109 13.2004 37.6937 13.5697 37.4593C13.9414 37.225 14.2302 36.8971 14.4362 36.4757C14.6445 36.0543 14.7487 35.5618 14.7487 34.9984C14.7487 34.4302 14.6445 33.9342 14.4362 33.5105C14.2302 33.0867 13.9414 32.7576 13.5697 32.5233C13.2004 32.2889 12.7695 32.1717 12.2771 32.1717C11.7847 32.1717 11.3526 32.2889 10.9809 32.5233C10.6116 32.7576 10.3228 33.0867 10.1144 33.5105C9.90847 33.9342 9.80549 34.4302 9.80549 34.9984C9.80549 35.5618 9.90847 36.0543 10.1144 36.4757C10.3228 36.8971 10.6116 37.225 10.9809 37.4593ZM13.2004 36.7704C12.9589 36.9622 12.6511 37.0581 12.2771 37.0581C11.903 37.0581 11.5953 36.9622 11.3538 36.7704C11.1123 36.5787 10.9336 36.3265 10.8176 36.014C10.7016 35.7015 10.6436 35.363 10.6436 34.9984C10.6436 34.6338 10.7016 34.2941 10.8176 33.9792C10.9336 33.6644 11.1123 33.4099 11.3538 33.2157C11.5953 33.0216 11.903 32.9245 12.2771 32.9245C12.6511 32.9245 12.9589 33.0216 13.2004 33.2157C13.4418 33.4099 13.6206 33.6644 13.7366 33.9792C13.8526 34.2941 13.9106 34.6338 13.9106 34.9984C13.9106 35.363 13.8526 35.7015 13.7366 36.014C13.6206 36.3265 13.4418 36.5787 13.2004 36.7704Z" fill="#CFD1DE"/>
<path d="M15.9925 39.7072C16.1037 39.7309 16.2304 39.7427 16.3724 39.7427C16.6257 39.7427 16.853 39.6977 17.0542 39.6078C17.2578 39.5178 17.4366 39.3793 17.5905 39.1923C17.7443 39.0076 17.8734 38.7744 17.9775 38.4927L20.2929 32.2427H19.3838L17.8781 36.5893H17.8213L16.3156 32.2427H15.4065L17.4236 37.7257L17.2673 38.1518C17.1655 38.4288 17.0531 38.6288 16.93 38.752C16.8092 38.8774 16.6707 38.9473 16.5145 38.9615C16.3582 38.9757 16.1783 38.9567 15.9747 38.9047L15.7616 39.6433C15.8042 39.6646 15.8812 39.6859 15.9925 39.7072Z" fill="#CFD1DE"/>
<path fill-rule="evenodd" clip-rule="evenodd" d="M22.1306 37.4629C22.5117 37.6949 22.9651 37.8109 23.4907 37.8109C23.86 37.8109 24.1926 37.7541 24.4885 37.6404C24.7845 37.5244 25.0331 37.3635 25.2343 37.1575C25.4355 36.9492 25.5787 36.7077 25.664 36.4331L24.8543 36.2058C24.7833 36.3952 24.6827 36.5538 24.5525 36.6816C24.4223 36.8071 24.2672 36.9018 24.0873 36.9657C23.9097 37.0273 23.7108 37.0581 23.4907 37.0581C23.1521 37.0581 22.855 36.9847 22.5993 36.8379C22.3437 36.6887 22.1436 36.4721 21.9992 36.188C21.8704 35.9283 21.8 35.617 21.788 35.2541H25.7492V34.899C25.7492 34.39 25.6817 33.9615 25.5468 33.6135C25.4118 33.2654 25.2307 32.9861 25.0035 32.7754C24.7762 32.5623 24.5241 32.4084 24.2471 32.3137C23.9701 32.219 23.6895 32.1717 23.4055 32.1717C22.913 32.1717 22.4822 32.2924 22.1128 32.5339C21.7459 32.773 21.4594 33.1068 21.2535 33.5353C21.0499 33.9615 20.9481 34.4539 20.9481 35.0126C20.9481 35.5713 21.0499 36.0614 21.2535 36.4828C21.4594 36.9018 21.7518 37.2285 22.1306 37.4629ZM21.7901 34.5297C21.8061 34.2766 21.8699 34.0375 21.9814 33.8123C22.1117 33.5495 22.2975 33.3365 22.539 33.1731C22.7828 33.0074 23.0716 32.9245 23.4055 32.9245C23.7085 32.9245 23.9713 32.9944 24.1938 33.1341C24.4187 33.2737 24.5915 33.4643 24.7123 33.7058C24.8354 33.9473 24.8969 34.2219 24.8969 34.5297H21.7901Z" fill="#CFD1DE"/>
<path d="M27.9189 37.4487C28.2883 37.6902 28.7286 37.8109 29.24 37.8109C29.6424 37.8109 29.9952 37.7363 30.2982 37.5872C30.6036 37.4357 30.8486 37.2321 31.0333 36.9764C31.2203 36.7183 31.3375 36.4283 31.3849 36.1064H30.5468C30.4947 36.3052 30.4071 36.4757 30.284 36.6177C30.1609 36.7598 30.0106 36.8687 29.833 36.9444C29.6555 37.0202 29.4578 37.0581 29.24 37.0581C28.9085 37.0581 28.6197 36.9716 28.3735 36.7988C28.1296 36.626 27.9403 36.3833 27.8053 36.0708C27.6727 35.7583 27.6064 35.3914 27.6064 34.97C27.6064 34.5581 27.6739 34.1994 27.8089 33.894C27.9462 33.5862 28.1367 33.3483 28.3806 33.1802C28.6268 33.0098 28.9133 32.9245 29.24 32.9245C29.6093 32.9245 29.9028 33.0216 30.1206 33.2157C30.3408 33.4075 30.4829 33.6277 30.5468 33.8762H31.3849C31.3375 33.5353 31.2156 33.237 31.0191 32.9814C30.8226 32.7257 30.5705 32.5268 30.2627 32.3848C29.9549 32.2427 29.6093 32.1717 29.2258 32.1717C28.7333 32.1717 28.3025 32.2924 27.9331 32.5339C27.5662 32.773 27.2797 33.1056 27.0738 33.5318C26.8702 33.9556 26.7684 34.4444 26.7684 34.9984C26.7684 35.5429 26.8678 36.027 27.0667 36.4508C27.2655 36.8746 27.5496 37.2072 27.9189 37.4487Z" fill="#CFD1DE"/>
<path d="M34.9822 32.9529V32.2427H33.8174V30.9359H32.9793V32.2427H32.1555V32.9529H32.9793V36.362C32.9793 36.6793 33.0527 36.9421 33.1995 37.1504C33.3486 37.3587 33.5357 37.5138 33.7606 37.6156C33.9878 37.7174 34.2198 37.7683 34.4566 37.7683C34.6128 37.7683 34.7419 37.7565 34.8437 37.7328C34.9455 37.7115 35.0248 37.6902 35.0816 37.6689L34.9111 36.916L34.7691 36.9444C34.7099 36.9539 34.6341 36.9586 34.5418 36.9586C34.4187 36.9586 34.3015 36.9397 34.1903 36.9018C34.0814 36.8616 33.9914 36.7834 33.9204 36.6674C33.8517 36.5491 33.8174 36.3715 33.8174 36.1348V32.9529H34.9822Z" fill="#CFD1DE"/>
<path fill-rule="evenodd" clip-rule="evenodd" d="M37.104 37.4593C37.4756 37.6937 37.9077 37.8109 38.4001 37.8109C38.8926 37.8109 39.3234 37.6937 39.6927 37.4593C40.0644 37.225 40.3533 36.8971 40.5592 36.4757C40.7676 36.0543 40.8717 35.5618 40.8717 34.9984C40.8717 34.4302 40.7676 33.9342 40.5592 33.5105C40.3533 33.0867 40.0644 32.7576 39.6927 32.5233C39.3234 32.2889 38.8926 32.1717 38.4001 32.1717C37.9077 32.1717 37.4756 32.2889 37.104 32.5233C36.7346 32.7576 36.4458 33.0867 36.2375 33.5105C36.0315 33.9342 35.9285 34.4302 35.9285 34.9984C35.9285 35.5618 36.0315 36.0543 36.2375 36.4757C36.4458 36.8971 36.7346 37.225 37.104 37.4593ZM39.3234 36.7704C39.0819 36.9622 38.7742 37.0581 38.4001 37.0581C38.0261 37.0581 37.7183 36.9622 37.4768 36.7704C37.2354 36.5787 37.0566 36.3265 36.9406 36.014C36.8246 35.7015 36.7666 35.363 36.7666 34.9984C36.7666 34.6338 36.8246 34.2941 36.9406 33.9792C37.0566 33.6644 37.2354 33.4099 37.4768 33.2157C37.7183 33.0216 38.0261 32.9245 38.4001 32.9245C38.7742 32.9245 39.0819 33.0216 39.3234 33.2157C39.5649 33.4099 39.7436 33.6644 39.8596 33.9792C39.9756 34.2941 40.0336 34.6338 40.0336 34.9984C40.0336 35.363 39.9756 35.7015 39.8596 36.014C39.7436 36.3265 39.5649 36.5787 39.3234 36.7704Z" fill="#CFD1DE"/>
<path d="M45.2618 33.6774L46.0146 33.4643C45.8844 33.0761 45.6643 32.7636 45.3541 32.5268C45.0464 32.2901 44.6226 32.1717 44.0828 32.1717C43.6993 32.1717 43.356 32.2392 43.053 32.3741C42.7523 32.5091 42.5144 32.6949 42.3392 32.9316C42.1664 33.1684 42.08 33.4406 42.08 33.7484C42.08 34.1248 42.196 34.4385 42.428 34.6895C42.6624 34.938 43.0293 35.1215 43.5289 35.2399L44.4379 35.4529C44.7126 35.5169 44.9162 35.6139 45.0487 35.7441C45.1813 35.872 45.2476 36.0306 45.2476 36.22C45.2476 36.4544 45.1316 36.6556 44.8996 36.8237C44.67 36.9894 44.3598 37.0723 43.9692 37.0723C43.6259 37.0723 43.3477 36.9989 43.1347 36.8521C42.924 36.7053 42.7808 36.4851 42.705 36.1916L41.9095 36.3904C42.0066 36.8545 42.2374 37.2072 42.602 37.4487C42.9666 37.6902 43.4271 37.8109 43.9834 37.8109C44.4072 37.8109 44.7789 37.7399 45.0985 37.5978C45.4181 37.4558 45.6666 37.2617 45.8442 37.0154C46.0241 36.7692 46.1141 36.4899 46.1141 36.1774C46.1141 35.7962 45.9945 35.4849 45.7554 35.2434C45.5163 34.9996 45.1529 34.8185 44.6652 34.7001L43.8556 34.5012C43.5336 34.4207 43.2968 34.3201 43.1453 34.1994C42.9938 34.0787 42.9181 33.9141 42.9181 33.7058C42.9181 33.4714 43.0281 33.2785 43.2483 33.127C43.4709 32.9731 43.749 32.8961 44.0828 32.8961C44.3267 32.8961 44.5267 32.9352 44.683 33.0133C44.8392 33.0914 44.9623 33.1909 45.0523 33.3116C45.1446 33.43 45.2145 33.5519 45.2618 33.6774Z" fill="#CFD1DE"/>
</svg>
