<svg width="46" height="40" viewBox="0 0 46 40" fill="none" xmlns="http://www.w3.org/2000/svg">
<path fill-rule="evenodd" clip-rule="evenodd" d="M28.9094 2.52261H28.7368C28.3203 1.34424 27.1965 0.5 25.8755 0.5H19.8077C18.4867 0.5 17.3629 1.34424 16.9464 2.52261H16.7738C14.5397 2.52261 12.7286 4.3337 12.7286 6.56781V20.7261C12.7286 22.9602 14.5397 24.7713 16.7738 24.7713H28.9094C31.1435 24.7713 32.9547 22.9602 32.9547 20.7261V6.56782C32.9547 4.33371 31.1435 2.52261 28.9094 2.52261ZM14.7512 6.56781C14.7512 5.45076 15.6567 4.54521 16.7738 4.54521C16.7738 6.22079 18.1321 7.57912 19.8077 7.57912H25.8755C27.5511 7.57912 28.9094 6.22079 28.9094 4.54521C30.0265 4.54521 30.932 5.45076 30.932 6.56782V20.7261C30.932 21.8431 30.0265 22.7487 28.9094 22.7487H16.7738C15.6568 22.7487 14.7512 21.8431 14.7512 20.7261V6.56781ZM19.8077 2.52261C19.2492 2.52261 18.7964 2.97538 18.7964 3.53391V4.54521C18.7964 5.10374 19.2492 5.55651 19.8077 5.55651H25.8755C26.4341 5.55651 26.8868 5.10374 26.8868 4.54521V3.53391C26.8868 2.97538 26.4341 2.52261 25.8755 2.52261H19.8077Z" fill="#CFD1DE"/>
<path fill-rule="evenodd" clip-rule="evenodd" d="M0.114014 30.2273V37.5H0.994696V34.8438H2.5856C3.15142 34.8438 3.61543 34.7408 3.97765 34.5348C4.33987 34.3265 4.60739 34.0471 4.78021 33.6967C4.9554 33.3464 5.04299 32.9569 5.04299 32.5284C5.04299 32.0999 4.9554 31.7116 4.78021 31.3636C4.60502 31.0156 4.33513 30.7398 3.97055 30.5362C3.60833 30.3303 3.14195 30.2273 2.5714 30.2273H0.114014ZM0.994696 34.0625H2.5572C2.94782 34.0625 3.2615 33.995 3.49825 33.8601C3.73499 33.7251 3.90663 33.5429 4.01316 33.3132C4.12206 33.0812 4.17651 32.8196 4.17651 32.5284C4.17651 32.2372 4.12206 31.9768 4.01316 31.7472C3.90663 31.5175 3.73381 31.3376 3.4947 31.2074C3.25559 31.0748 2.93835 31.0085 2.54299 31.0085H0.994696V34.0625Z" fill="#CFD1DE"/>
<path d="M6.34803 32.0455V37.5H7.1861V34.0483C7.1861 33.8021 7.24529 33.5831 7.36366 33.3913C7.4844 33.1972 7.64775 33.0457 7.85372 32.9368C8.06205 32.8255 8.29879 32.7699 8.56394 32.7699C8.67521 32.7699 8.78056 32.7782 8.87999 32.7947C8.98179 32.8089 9.0469 32.8196 9.07531 32.8267V31.9744C9.02796 31.9697 8.95812 31.9661 8.86579 31.9638C8.77346 31.9614 8.69652 31.9602 8.63497 31.9602C8.30826 31.9602 8.0147 32.0443 7.75428 32.2124C7.49387 32.3804 7.31394 32.5994 7.21451 32.8693H7.15769V32.0455H6.34803Z" fill="#CFD1DE"/>
<path fill-rule="evenodd" clip-rule="evenodd" d="M10.8225 37.2621C11.1942 37.4964 11.6262 37.6136 12.1186 37.6136C12.6111 37.6136 13.0419 37.4964 13.4112 37.2621C13.7829 37.0277 14.0718 36.6998 14.2777 36.2784C14.4861 35.857 14.5902 35.3646 14.5902 34.8011C14.5902 34.233 14.4861 33.737 14.2777 33.3132C14.0718 32.8894 13.7829 32.5604 13.4112 32.326C13.0419 32.0916 12.6111 31.9744 12.1186 31.9744C11.6262 31.9744 11.1942 32.0916 10.8225 32.326C10.4531 32.5604 10.1643 32.8894 9.95599 33.3132C9.75002 33.737 9.64704 34.233 9.64704 34.8011C9.64704 35.3646 9.75002 35.857 9.95599 36.2784C10.1643 36.6998 10.4531 37.0277 10.8225 37.2621ZM13.0419 36.5732C12.8004 36.7649 12.4927 36.8608 12.1186 36.8608C11.7446 36.8608 11.4368 36.7649 11.1953 36.5732C10.9539 36.3814 10.7751 36.1293 10.6591 35.8168C10.5431 35.5043 10.4851 35.1657 10.4851 34.8011C10.4851 34.4366 10.5431 34.0968 10.6591 33.782C10.7751 33.4671 10.9539 33.2126 11.1953 33.0185C11.4368 32.8243 11.7446 32.7273 12.1186 32.7273C12.4927 32.7273 12.8004 32.8243 13.0419 33.0185C13.2834 33.2126 13.4621 33.4671 13.5781 33.782C13.6942 34.0968 13.7522 34.4366 13.7522 34.8011C13.7522 35.1657 13.6942 35.5043 13.5781 35.8168C13.4621 36.1293 13.2834 36.3814 13.0419 36.5732Z" fill="#CFD1DE"/>
<path d="M15.834 39.5099C15.9453 39.5336 16.0719 39.5455 16.214 39.5455C16.4673 39.5455 16.6946 39.5005 16.8958 39.4105C17.0994 39.3205 17.2781 39.1821 17.432 38.995C17.5859 38.8104 17.7149 38.5772 17.8191 38.2955L20.1344 32.0455H19.2253L17.7197 36.392H17.6628L16.1572 32.0455H15.2481L17.2651 37.5284L17.1089 37.9545C17.0071 38.2315 16.8946 38.4316 16.7715 38.5547C16.6508 38.6802 16.5123 38.75 16.356 38.7642C16.1998 38.7784 16.0198 38.7595 15.8163 38.7074L15.6032 39.446C15.6458 39.4673 15.7227 39.4886 15.834 39.5099Z" fill="#CFD1DE"/>
<path fill-rule="evenodd" clip-rule="evenodd" d="M21.9721 37.2656C22.3533 37.4976 22.8067 37.6136 23.3322 37.6136C23.7015 37.6136 24.0342 37.5568 24.3301 37.4432C24.626 37.3272 24.8746 37.1662 25.0758 36.9602C25.2771 36.7519 25.4203 36.5104 25.5055 36.2358L24.6959 36.0085C24.6248 36.1979 24.5242 36.3565 24.394 36.4844C24.2638 36.6098 24.1087 36.7045 23.9288 36.7685C23.7513 36.83 23.5524 36.8608 23.3322 36.8608C22.9937 36.8608 22.6966 36.7874 22.4409 36.6406C22.1852 36.4915 21.9852 36.2749 21.8408 35.9908C21.712 35.731 21.6416 35.4197 21.6295 35.0568H25.5908V34.7017C25.5908 34.1927 25.5233 33.7642 25.3883 33.4162C25.2534 33.0682 25.0723 32.7888 24.845 32.5781C24.6177 32.3651 24.3656 32.2112 24.0886 32.1165C23.8116 32.0218 23.5311 31.9744 23.247 31.9744C22.7546 31.9744 22.3237 32.0952 21.9544 32.3366C21.5874 32.5758 21.301 32.9096 21.095 33.3381C20.8914 33.7642 20.7896 34.2566 20.7896 34.8153C20.7896 35.3741 20.8914 35.8641 21.095 36.2855C21.301 36.7045 21.5934 37.0312 21.9721 37.2656ZM21.6317 34.3324C21.6476 34.0794 21.7114 33.8403 21.823 33.6151C21.9532 33.3523 22.139 33.1392 22.3805 32.9759C22.6244 32.8101 22.9132 32.7273 23.247 32.7273C23.55 32.7273 23.8128 32.7971 24.0354 32.9368C24.2603 33.0765 24.4331 33.267 24.5538 33.5085C24.6769 33.75 24.7385 34.0246 24.7385 34.3324H21.6317Z" fill="#CFD1DE"/>
<path d="M27.7605 37.2514C28.1298 37.4929 28.5702 37.6136 29.0815 37.6136C29.484 37.6136 29.8367 37.5391 30.1398 37.3899C30.4452 37.2384 30.6902 37.0348 30.8748 36.7791C31.0619 36.5211 31.1791 36.2311 31.2264 35.9091H30.3883C30.3363 36.108 30.2487 36.2784 30.1256 36.4205C30.0024 36.5625 29.8521 36.6714 29.6746 36.7472C29.497 36.8229 29.2993 36.8608 29.0815 36.8608C28.7501 36.8608 28.4613 36.7744 28.215 36.6016C27.9712 36.4287 27.7818 36.1861 27.6469 35.8736C27.5143 35.5611 27.448 35.1941 27.448 34.7727C27.448 34.3608 27.5155 34.0021 27.6504 33.6967C27.7877 33.389 27.9783 33.151 28.2221 32.983C28.4684 32.8125 28.7548 32.7273 29.0815 32.7273C29.4508 32.7273 29.7444 32.8243 29.9622 33.0185C30.1824 33.2102 30.3244 33.4304 30.3883 33.679H31.2264C31.1791 33.3381 31.0571 33.0398 30.8606 32.7841C30.6641 32.5284 30.412 32.3295 30.1042 32.1875C29.7965 32.0455 29.4508 31.9744 29.0673 31.9744C28.5749 31.9744 28.144 32.0952 27.7747 32.3366C27.4078 32.5758 27.1213 32.9084 26.9153 33.3345C26.7117 33.7583 26.6099 34.2472 26.6099 34.8011C26.6099 35.3456 26.7094 35.8298 26.9082 36.2536C27.1071 36.6773 27.3912 37.0099 27.7605 37.2514Z" fill="#CFD1DE"/>
<path d="M34.8237 32.7557V32.0455H33.6589V30.7386H32.8209V32.0455H31.997V32.7557H32.8209V36.1648C32.8209 36.482 32.8943 36.7448 33.041 36.9531C33.1902 37.1615 33.3772 37.3165 33.6021 37.4183C33.8294 37.5201 34.0614 37.571 34.2981 37.571C34.4544 37.571 34.5834 37.5592 34.6852 37.5355C34.787 37.5142 34.8663 37.4929 34.9231 37.4716L34.7527 36.7188L34.6106 36.7472C34.5515 36.7566 34.4757 36.7614 34.3834 36.7614C34.2603 36.7614 34.1431 36.7424 34.0318 36.7045C33.9229 36.6643 33.8329 36.5862 33.7619 36.4702C33.6933 36.3518 33.6589 36.1742 33.6589 35.9375V32.7557H34.8237Z" fill="#CFD1DE"/>
<path fill-rule="evenodd" clip-rule="evenodd" d="M36.9455 37.2621C37.3172 37.4964 37.7493 37.6136 38.2417 37.6136C38.7341 37.6136 39.165 37.4964 39.5343 37.2621C39.906 37.0277 40.1948 36.6998 40.4008 36.2784C40.6091 35.857 40.7133 35.3646 40.7133 34.8011C40.7133 34.233 40.6091 33.737 40.4008 33.3132C40.1948 32.8894 39.906 32.5604 39.5343 32.326C39.165 32.0916 38.7341 31.9744 38.2417 31.9744C37.7493 31.9744 37.3172 32.0916 36.9455 32.326C36.5762 32.5604 36.2874 32.8894 36.079 33.3132C35.8731 33.737 35.7701 34.233 35.7701 34.8011C35.7701 35.3646 35.8731 35.857 36.079 36.2784C36.2874 36.6998 36.5762 37.0277 36.9455 37.2621ZM39.165 36.5732C38.9235 36.7649 38.6157 36.8608 38.2417 36.8608C37.8676 36.8608 37.5599 36.7649 37.3184 36.5732C37.0769 36.3814 36.8982 36.1293 36.7822 35.8168C36.6662 35.5043 36.6082 35.1657 36.6082 34.8011C36.6082 34.4366 36.6662 34.0968 36.7822 33.782C36.8982 33.4671 37.0769 33.2126 37.3184 33.0185C37.5599 32.8243 37.8676 32.7273 38.2417 32.7273C38.6157 32.7273 38.9235 32.8243 39.165 33.0185C39.4065 33.2126 39.5852 33.4671 39.7012 33.782C39.8172 34.0968 39.8752 34.4366 39.8752 34.8011C39.8752 35.1657 39.8172 35.5043 39.7012 35.8168C39.5852 36.1293 39.4065 36.3814 39.165 36.5732Z" fill="#CFD1DE"/>
<path d="M45.1034 33.4801L45.8562 33.267C45.726 32.8788 45.5058 32.5663 45.1957 32.3295C44.8879 32.0928 44.4642 31.9744 43.9244 31.9744C43.5409 31.9744 43.1976 32.0419 42.8946 32.1768C42.5939 32.3118 42.356 32.4976 42.1808 32.7344C42.008 32.9711 41.9215 33.2434 41.9215 33.5511C41.9215 33.9276 42.0375 34.2412 42.2696 34.4922C42.5039 34.7408 42.8709 34.9242 43.3704 35.0426L44.2795 35.2557C44.5541 35.3196 44.7577 35.4167 44.8903 35.5469C45.0229 35.6747 45.0892 35.8333 45.0892 36.0227C45.0892 36.2571 44.9732 36.4583 44.7411 36.6264C44.5115 36.7921 44.2014 36.875 43.8107 36.875C43.4675 36.875 43.1893 36.8016 42.9762 36.6548C42.7655 36.508 42.6223 36.2879 42.5465 35.9943L41.7511 36.1932C41.8482 36.6572 42.079 37.0099 42.4436 37.2514C42.8081 37.4929 43.2686 37.6136 43.825 37.6136C44.2487 37.6136 44.6204 37.5426 44.94 37.4006C45.2596 37.2585 45.5082 37.0644 45.6857 36.8182C45.8657 36.572 45.9556 36.2926 45.9556 35.9801C45.9556 35.599 45.8361 35.2876 45.597 35.0462C45.3579 34.8023 44.9945 34.6212 44.5068 34.5028L43.6971 34.304C43.3751 34.2235 43.1384 34.1229 42.9869 34.0021C42.8354 33.8814 42.7596 33.7169 42.7596 33.5085C42.7596 33.2741 42.8697 33.0812 43.0899 32.9297C43.3124 32.7758 43.5906 32.6989 43.9244 32.6989C44.1682 32.6989 44.3683 32.7379 44.5245 32.8161C44.6808 32.8942 44.8039 32.9936 44.8938 33.1143C44.9862 33.2327 45.056 33.3546 45.1034 33.4801Z" fill="#CFD1DE"/>
</svg>
