<svg width="28" height="38" viewBox="0 0 28 38" fill="none" xmlns="http://www.w3.org/2000/svg">
<path fill-rule="evenodd" clip-rule="evenodd" d="M14.4943 0.196962C14.1376 -0.0656538 13.6516 -0.0656538 13.295 0.196962L4.41688 6.73445C3.38152 7.49685 2.77027 8.70605 2.77027 9.99182V20.7317C2.77027 22.6866 4.35499 24.2713 6.30983 24.2713H9.84939C10.9664 24.2713 11.872 23.3657 11.872 22.2487V16.6865H15.9172V22.2487C15.9172 23.3657 16.8228 24.2713 17.9398 24.2713H21.4794C23.4342 24.2713 25.0189 22.6866 25.0189 20.7317V9.99182C25.0189 8.70605 24.4077 7.49685 23.3723 6.73445L14.4943 0.196962ZM5.61618 8.36313L13.8946 2.26721L22.173 8.36313C22.6907 8.74433 22.9963 9.34893 22.9963 9.99182V20.7317C22.9963 21.5695 22.3172 22.2487 21.4794 22.2487H17.9398V16.1808C17.9398 15.3431 17.2606 14.6639 16.4229 14.6639H11.3663C10.5286 14.6639 9.84939 15.3431 9.84939 16.1808V22.2487H6.30983C5.47204 22.2487 4.79288 21.5695 4.79288 20.7317V9.99182C4.79288 9.34893 5.0985 8.74433 5.61618 8.36313Z" fill="#CFD1DE"/>
<path d="M0.834961 29.7273V37H1.71564V33.7472H5.59349V37H6.47417V29.7273H5.59349V32.9659H1.71564V29.7273H0.834961Z" fill="#CFD1DE"/>
<path fill-rule="evenodd" clip-rule="evenodd" d="M9.04341 36.7621C9.4151 36.9964 9.84715 37.1136 10.3396 37.1136C10.832 37.1136 11.2629 36.9964 11.6322 36.7621C12.0039 36.5277 12.2927 36.1998 12.4987 35.7784C12.707 35.357 12.8112 34.8646 12.8112 34.3011C12.8112 33.733 12.707 33.237 12.4987 32.8132C12.2927 32.3894 12.0039 32.0604 11.6322 31.826C11.2629 31.5916 10.832 31.4744 10.3396 31.4744C9.84715 31.4744 9.4151 31.5916 9.04341 31.826C8.6741 32.0604 8.38527 32.3894 8.17694 32.8132C7.97097 33.237 7.86799 33.733 7.86799 34.3011C7.86799 34.8646 7.97097 35.357 8.17694 35.7784C8.38527 36.1998 8.6741 36.5277 9.04341 36.7621ZM11.2629 36.0732C11.0214 36.2649 10.7136 36.3608 10.3396 36.3608C9.96553 36.3608 9.65776 36.2649 9.41628 36.0732C9.17481 35.8814 8.99607 35.6293 8.88006 35.3168C8.76406 35.0043 8.70606 34.6657 8.70606 34.3011C8.70606 33.9366 8.76406 33.5968 8.88006 33.282C8.99607 32.9671 9.17481 32.7126 9.41628 32.5185C9.65776 32.3243 9.96553 32.2273 10.3396 32.2273C10.7136 32.2273 11.0214 32.3243 11.2629 32.5185C11.5044 32.7126 11.6831 32.9671 11.7991 33.282C11.9151 33.5968 11.9731 33.9366 11.9731 34.3011C11.9731 34.6657 11.9151 35.0043 11.7991 35.3168C11.6831 35.6293 11.5044 35.8814 11.2629 36.0732Z" fill="#CFD1DE"/>
<path d="M14.0905 31.5455V37H14.9285V33.5909C14.9285 33.3234 14.9854 33.0878 15.099 32.8842C15.215 32.6783 15.3665 32.5173 15.5535 32.4013C15.7429 32.2853 15.9465 32.2273 16.1643 32.2273C16.4816 32.2273 16.7408 32.3232 16.942 32.5149C17.1433 32.7043 17.2439 32.9541 17.2439 33.2642V37H18.0961V33.4489C18.0961 33.0961 18.2015 32.8049 18.4122 32.5753C18.6229 32.3433 18.92 32.2273 19.3035 32.2273C19.6018 32.2273 19.8611 32.3137 20.0812 32.4865C20.3014 32.6593 20.4115 32.947 20.4115 33.3494V37H21.2496V33.3494C21.2496 32.7079 21.0945 32.2356 20.7844 31.9325C20.4742 31.6271 20.0753 31.4744 19.5876 31.4744C19.197 31.4744 18.862 31.5585 18.5827 31.7266C18.3033 31.8923 18.0938 32.116 17.9541 32.3977H17.8973C17.7623 32.1065 17.5741 31.8804 17.3327 31.7195C17.0935 31.5561 16.7941 31.4744 16.4342 31.4744C16.0791 31.4744 15.7749 31.5561 15.5216 31.7195C15.2683 31.8804 15.0848 32.1065 14.9711 32.3977H14.9001V31.5455H14.0905Z" fill="#CFD1DE"/>
<path fill-rule="evenodd" clip-rule="evenodd" d="M23.7087 36.7656C24.0899 36.9976 24.5432 37.1136 25.0688 37.1136C25.4381 37.1136 25.7707 37.0568 26.0667 36.9432C26.3626 36.8272 26.6112 36.6662 26.8124 36.4602C27.0136 36.2519 27.1569 36.0104 27.2421 35.7358L26.4324 35.5085C26.3614 35.6979 26.2608 35.8565 26.1306 35.9844C26.0004 36.1098 25.8453 36.2045 25.6654 36.2685C25.4878 36.33 25.289 36.3608 25.0688 36.3608C24.7303 36.3608 24.4332 36.2874 24.1775 36.1406C23.9218 35.9915 23.7217 35.7749 23.5773 35.4908C23.4485 35.231 23.3781 34.9197 23.3661 34.5568H27.3273V34.2017C27.3273 33.6927 27.2599 33.2642 27.1249 32.9162C26.99 32.5682 26.8089 32.2888 26.5816 32.0781C26.3543 31.8651 26.1022 31.7112 25.8252 31.6165C25.5482 31.5218 25.2677 31.4744 24.9836 31.4744C24.4912 31.4744 24.0603 31.5952 23.691 31.8366C23.324 32.0758 23.0376 32.4096 22.8316 32.8381C22.628 33.2642 22.5262 33.7566 22.5262 34.3153C22.5262 34.8741 22.628 35.3641 22.8316 35.7855C23.0376 36.2045 23.3299 36.5312 23.7087 36.7656ZM23.3683 33.8324C23.3842 33.5794 23.448 33.3403 23.5596 33.1151C23.6898 32.8523 23.8756 32.6392 24.1171 32.4759C24.3609 32.3101 24.6498 32.2273 24.9836 32.2273C25.2866 32.2273 25.5494 32.2971 25.7719 32.4368C25.9968 32.5765 26.1697 32.767 26.2904 33.0085C26.4135 33.25 26.4751 33.5246 26.4751 33.8324H23.3683Z" fill="#CFD1DE"/>
</svg>
