<svg width="27" height="38" viewBox="0 0 27 38" fill="none" xmlns="http://www.w3.org/2000/svg">
<path fill-rule="evenodd" clip-rule="evenodd" d="M14.0333 0.196962C13.6767 -0.0656538 13.1907 -0.0656538 12.834 0.196962L3.94214 6.74462C2.91546 7.50062 2.30933 8.69968 2.30933 9.97468V20.76C2.30933 22.6992 3.8814 24.2713 5.82064 24.2713H9.39976C10.5106 24.2713 11.4111 23.3708 11.4111 22.26V16.6865H15.4563V22.26C15.4563 23.3708 16.3568 24.2713 17.4676 24.2713H21.0467C22.9859 24.2713 24.558 22.6992 24.558 20.76V9.97468C24.558 8.69968 23.9519 7.50062 22.9252 6.74462L14.0333 0.196962ZM5.14144 8.3733L13.4337 2.26721L21.7259 8.3733C22.2349 8.74811 22.5354 9.34257 22.5354 9.97468V20.76C22.5354 21.5821 21.8689 22.2487 21.0467 22.2487H17.4789V16.1752C17.4789 15.3405 16.8022 14.6639 15.9676 14.6639H10.8998C10.0651 14.6639 9.38845 15.3405 9.38845 16.1752V22.2487H5.82064C4.99845 22.2487 4.33194 21.5821 4.33194 20.76V9.97468C4.33194 9.34257 4.63244 8.74811 5.14144 8.3733Z" fill="#CFD1DE"/>
<path d="M0.373047 29.7273V37H1.25373V33.7472H5.13157V37H6.01225V29.7273H5.13157V32.9659H1.25373V29.7273H0.373047Z" fill="#CFD1DE"/>
<path fill-rule="evenodd" clip-rule="evenodd" d="M8.5815 36.7621C8.95319 36.9964 9.38524 37.1136 9.87767 37.1136C10.3701 37.1136 10.801 36.9964 11.1703 36.7621C11.542 36.5277 11.8308 36.1998 12.0368 35.7784C12.2451 35.357 12.3493 34.8646 12.3493 34.3011C12.3493 33.733 12.2451 33.237 12.0368 32.8132C11.8308 32.3894 11.542 32.0604 11.1703 31.826C10.801 31.5916 10.3701 31.4744 9.87767 31.4744C9.38524 31.4744 8.95319 31.5916 8.5815 31.826C8.21218 32.0604 7.92336 32.3894 7.71502 32.8132C7.50906 33.237 7.40607 33.733 7.40607 34.3011C7.40607 34.8646 7.50906 35.357 7.71502 35.7784C7.92336 36.1998 8.21218 36.5277 8.5815 36.7621ZM10.801 36.0732C10.5595 36.2649 10.2517 36.3608 9.87767 36.3608C9.50361 36.3608 9.19585 36.2649 8.95437 36.0732C8.71289 35.8814 8.53415 35.6293 8.41815 35.3168C8.30214 35.0043 8.24414 34.6657 8.24414 34.3011C8.24414 33.9366 8.30214 33.5968 8.41815 33.282C8.53415 32.9671 8.71289 32.7126 8.95437 32.5185C9.19585 32.3243 9.50361 32.2273 9.87767 32.2273C10.2517 32.2273 10.5595 32.3243 10.801 32.5185C11.0424 32.7126 11.2212 32.9671 11.3372 33.282C11.4532 33.5968 11.5112 33.9366 11.5112 34.3011C11.5112 34.6657 11.4532 35.0043 11.3372 35.3168C11.2212 35.6293 11.0424 35.8814 10.801 36.0732Z" fill="#CFD1DE"/>
<path d="M13.6286 31.5455V37H14.4666V33.5909C14.4666 33.3234 14.5234 33.0878 14.6371 32.8842C14.7531 32.6783 14.9046 32.5173 15.0916 32.4013C15.281 32.2853 15.4846 32.2273 15.7024 32.2273C16.0197 32.2273 16.2789 32.3232 16.4801 32.5149C16.6813 32.7043 16.782 32.9541 16.782 33.2642V37H17.6342V33.4489C17.6342 33.0961 17.7396 32.8049 17.9503 32.5753C18.161 32.3433 18.4581 32.2273 18.8416 32.2273C19.1399 32.2273 19.3991 32.3137 19.6193 32.4865C19.8395 32.6593 19.9496 32.947 19.9496 33.3494V37H20.7876V33.3494C20.7876 32.7079 20.6326 32.2356 20.3224 31.9325C20.0123 31.6271 19.6134 31.4744 19.1257 31.4744C18.7351 31.4744 18.4001 31.5585 18.1207 31.7266C17.8414 31.8923 17.6319 32.116 17.4922 32.3977H17.4354C17.3004 32.1065 17.1122 31.8804 16.8707 31.7195C16.6316 31.5561 16.3322 31.4744 15.9723 31.4744C15.6172 31.4744 15.313 31.5561 15.0597 31.7195C14.8063 31.8804 14.6229 32.1065 14.5092 32.3977H14.4382V31.5455H13.6286Z" fill="#CFD1DE"/>
<path fill-rule="evenodd" clip-rule="evenodd" d="M23.2468 36.7656C23.628 36.9976 24.0813 37.1136 24.6069 37.1136C24.9762 37.1136 25.3088 37.0568 25.6048 36.9432C25.9007 36.8272 26.1493 36.6662 26.3505 36.4602C26.5517 36.2519 26.695 36.0104 26.7802 35.7358L25.9705 35.5085C25.8995 35.6979 25.7989 35.8565 25.6687 35.9844C25.5385 36.1098 25.3834 36.2045 25.2035 36.2685C25.0259 36.33 24.8271 36.3608 24.6069 36.3608C24.2683 36.3608 23.9712 36.2874 23.7156 36.1406C23.4599 35.9915 23.2598 35.7749 23.1154 35.4908C22.9866 35.231 22.9162 34.9197 22.9042 34.5568H26.8654V34.2017C26.8654 33.6927 26.7979 33.2642 26.663 32.9162C26.5281 32.5682 26.3469 32.2888 26.1197 32.0781C25.8924 31.8651 25.6403 31.7112 25.3633 31.6165C25.0863 31.5218 24.8058 31.4744 24.5217 31.4744C24.0292 31.4744 23.5984 31.5952 23.229 31.8366C22.8621 32.0758 22.5756 32.4096 22.3697 32.8381C22.1661 33.2642 22.0643 33.7566 22.0643 34.3153C22.0643 34.8741 22.1661 35.3641 22.3697 35.7855C22.5756 36.2045 22.868 36.5312 23.2468 36.7656ZM22.9063 33.8324C22.9223 33.5794 22.9861 33.3403 23.0977 33.1151C23.2279 32.8523 23.4137 32.6392 23.6552 32.4759C23.899 32.3101 24.1879 32.2273 24.5217 32.2273C24.8247 32.2273 25.0875 32.2971 25.31 32.4368C25.5349 32.5765 25.7077 32.767 25.8285 33.0085C25.9516 33.25 26.0131 33.5246 26.0131 33.8324H22.9063Z" fill="#CFD1DE"/>
</svg>
