<svg width="28" height="38" viewBox="0 0 28 38" fill="none" xmlns="http://www.w3.org/2000/svg">
<path fill-rule="evenodd" clip-rule="evenodd" d="M14.62 0.696962C14.2633 0.434346 13.7773 0.434346 13.4207 0.696962L4.54261 7.23445C3.50726 7.99685 2.896 9.20605 2.896 10.4918V21.2317C2.896 23.1866 4.48072 24.7713 6.43556 24.7713H9.97512C11.0922 24.7713 11.9977 23.8657 11.9977 22.7487V17.1865H16.0429V22.7487C16.0429 23.8657 16.9485 24.7713 18.0655 24.7713H21.6051C23.56 24.7713 25.1447 23.1866 25.1447 21.2317V10.4918C25.1447 9.20605 24.5334 7.99685 23.4981 7.23445L14.62 0.696962ZM5.74191 8.86313L14.0203 2.76721L22.2988 8.86313C22.8164 9.24433 23.1221 9.84893 23.1221 10.4918V21.2317C23.1221 22.0695 22.4429 22.7487 21.6051 22.7487H18.0655V16.6808C18.0655 15.8431 17.3864 15.1639 16.5486 15.1639H11.4921C10.6543 15.1639 9.97512 15.8431 9.97512 16.6808V22.7487H6.43556C5.59777 22.7487 4.91861 22.0695 4.91861 21.2317V10.4918C4.91861 9.84893 5.22424 9.24433 5.74191 8.86313Z" fill="#CFD1DE"/>
<path d="M0.960693 30.2273V37.5H1.84138V34.2472H5.71922V37.5H6.5999V30.2273H5.71922V33.4659H1.84138V30.2273H0.960693Z" fill="#CFD1DE"/>
<path fill-rule="evenodd" clip-rule="evenodd" d="M9.16915 37.2621C9.54083 37.4964 9.97289 37.6136 10.4653 37.6136C10.9577 37.6136 11.3886 37.4964 11.7579 37.2621C12.1296 37.0277 12.4184 36.6998 12.6244 36.2784C12.8327 35.857 12.9369 35.3646 12.9369 34.8011C12.9369 34.233 12.8327 33.737 12.6244 33.3132C12.4184 32.8894 12.1296 32.5604 11.7579 32.326C11.3886 32.0916 10.9577 31.9744 10.4653 31.9744C9.97289 31.9744 9.54083 32.0916 9.16915 32.326C8.79983 32.5604 8.511 32.8894 8.30267 33.3132C8.0967 33.737 7.99372 34.233 7.99372 34.8011C7.99372 35.3646 8.0967 35.857 8.30267 36.2784C8.511 36.6998 8.79983 37.0277 9.16915 37.2621ZM11.3886 36.5732C11.1471 36.7649 10.8394 36.8608 10.4653 36.8608C10.0913 36.8608 9.78349 36.7649 9.54202 36.5732C9.30054 36.3814 9.1218 36.1293 9.00579 35.8168C8.88979 35.5043 8.83179 35.1657 8.83179 34.8011C8.83179 34.4366 8.88979 34.0968 9.00579 33.782C9.1218 33.4671 9.30054 33.2126 9.54202 33.0185C9.78349 32.8243 10.0913 32.7273 10.4653 32.7273C10.8394 32.7273 11.1471 32.8243 11.3886 33.0185C11.6301 33.2126 11.8088 33.4671 11.9248 33.782C12.0408 34.0968 12.0988 34.4366 12.0988 34.8011C12.0988 35.1657 12.0408 35.5043 11.9248 35.8168C11.8088 36.1293 11.6301 36.3814 11.3886 36.5732Z" fill="#CFD1DE"/>
<path d="M14.2162 32.0455V37.5H15.0543V34.0909C15.0543 33.8234 15.1111 33.5878 15.2247 33.3842C15.3407 33.1783 15.4922 33.0173 15.6793 32.9013C15.8687 32.7853 16.0723 32.7273 16.2901 32.7273C16.6073 32.7273 16.8665 32.8232 17.0678 33.0149C17.269 33.2043 17.3696 33.4541 17.3696 33.7642V37.5H18.2219V33.9489C18.2219 33.5961 18.3272 33.3049 18.5379 33.0753C18.7486 32.8433 19.0457 32.7273 19.4293 32.7273C19.7276 32.7273 19.9868 32.8137 20.207 32.9865C20.4271 33.1593 20.5372 33.447 20.5372 33.8494V37.5H21.3753V33.8494C21.3753 33.2079 21.2202 32.7356 20.9101 32.4325C20.6 32.1271 20.201 31.9744 19.7134 31.9744C19.3227 31.9744 18.9877 32.0585 18.7084 32.2266C18.429 32.3923 18.2195 32.616 18.0798 32.8977H18.023C17.8881 32.6065 17.6999 32.3804 17.4584 32.2195C17.2193 32.0561 16.9198 31.9744 16.5599 31.9744C16.2048 31.9744 15.9006 32.0561 15.6473 32.2195C15.394 32.3804 15.2105 32.6065 15.0969 32.8977H15.0259V32.0455H14.2162Z" fill="#CFD1DE"/>
<path fill-rule="evenodd" clip-rule="evenodd" d="M23.8345 37.2656C24.2156 37.4976 24.669 37.6136 25.1945 37.6136C25.5639 37.6136 25.8965 37.5568 26.1924 37.4432C26.4883 37.3272 26.7369 37.1662 26.9381 36.9602C27.1394 36.7519 27.2826 36.5104 27.3678 36.2358L26.5582 36.0085C26.4872 36.1979 26.3865 36.3565 26.2563 36.4844C26.1261 36.6098 25.9711 36.7045 25.7911 36.7685C25.6136 36.83 25.4147 36.8608 25.1945 36.8608C24.856 36.8608 24.5589 36.7874 24.3032 36.6406C24.0475 36.4915 23.8475 36.2749 23.7031 35.9908C23.5743 35.731 23.5039 35.4197 23.4918 35.0568H27.4531V34.7017C27.4531 34.1927 27.3856 33.7642 27.2506 33.4162C27.1157 33.0682 26.9346 32.7888 26.7073 32.5781C26.48 32.3651 26.2279 32.2112 25.9509 32.1165C25.6739 32.0218 25.3934 31.9744 25.1093 31.9744C24.6169 31.9744 24.186 32.0952 23.8167 32.3366C23.4497 32.5758 23.1633 32.9096 22.9573 33.3381C22.7537 33.7642 22.6519 34.2566 22.6519 34.8153C22.6519 35.3741 22.7537 35.8641 22.9573 36.2855C23.1633 36.7045 23.4557 37.0312 23.8345 37.2656ZM23.494 34.3324C23.5099 34.0794 23.5737 33.8403 23.6853 33.6151C23.8155 33.3523 24.0014 33.1392 24.2428 32.9759C24.4867 32.8101 24.7755 32.7273 25.1093 32.7273C25.4123 32.7273 25.6751 32.7971 25.8977 32.9368C26.1226 33.0765 26.2954 33.267 26.4161 33.5085C26.5392 33.75 26.6008 34.0246 26.6008 34.3324H23.494Z" fill="#CFD1DE"/>
</svg>
