<svg width="27" height="38" viewBox="0 0 27 38" fill="none" xmlns="http://www.w3.org/2000/svg">
<path fill-rule="evenodd" clip-rule="evenodd" d="M13.7736 0.196962C13.4169 -0.0656538 12.9309 -0.0656538 12.5742 0.196962L3.69617 6.73445C2.66082 7.49685 2.04957 8.70605 2.04957 9.99182V20.7317C2.04957 22.6866 3.63428 24.2713 5.58913 24.2713H9.12869C10.2457 24.2713 11.1513 23.3657 11.1513 22.2487V16.6865H15.1965V22.2487C15.1965 23.3657 16.1021 24.2713 17.2191 24.2713H20.7587C22.7135 24.2713 24.2982 22.6866 24.2982 20.7317V9.99182C24.2982 8.70605 23.687 7.49685 22.6516 6.73445L13.7736 0.196962ZM4.89548 8.36313L13.1739 2.26721L21.4523 8.36313C21.97 8.74433 22.2756 9.34893 22.2756 9.99182V20.7317C22.2756 21.5695 21.5965 22.2487 20.7587 22.2487H17.2191V16.1808C17.2191 15.3431 16.5399 14.6639 15.7022 14.6639H10.6456C9.80785 14.6639 9.12869 15.3431 9.12869 16.1808V22.2487H5.58913C4.75134 22.2487 4.07217 21.5695 4.07217 20.7317V9.99182C4.07217 9.34893 4.3778 8.74433 4.89548 8.36313Z" fill="#CFD1DE"/>
<path d="M0.114258 29.7273V37H0.994941V33.7472H4.87278V37H5.75346V29.7273H4.87278V32.9659H0.994941V29.7273H0.114258Z" fill="#CFD1DE"/>
<path fill-rule="evenodd" clip-rule="evenodd" d="M8.32271 36.7621C8.6944 36.9964 9.12645 37.1136 9.61888 37.1136C10.1113 37.1136 10.5422 36.9964 10.9115 36.7621C11.2832 36.5277 11.572 36.1998 11.778 35.7784C11.9863 35.357 12.0905 34.8646 12.0905 34.3011C12.0905 33.733 11.9863 33.237 11.778 32.8132C11.572 32.3894 11.2832 32.0604 10.9115 31.826C10.5422 31.5916 10.1113 31.4744 9.61888 31.4744C9.12645 31.4744 8.6944 31.5916 8.32271 31.826C7.95339 32.0604 7.66457 32.3894 7.45623 32.8132C7.25027 33.237 7.14728 33.733 7.14728 34.3011C7.14728 34.8646 7.25027 35.357 7.45623 35.7784C7.66457 36.1998 7.95339 36.5277 8.32271 36.7621ZM10.5422 36.0732C10.3007 36.2649 9.99293 36.3608 9.61888 36.3608C9.24482 36.3608 8.93706 36.2649 8.69558 36.0732C8.4541 35.8814 8.27536 35.6293 8.15936 35.3168C8.04335 35.0043 7.98535 34.6657 7.98535 34.3011C7.98535 33.9366 8.04335 33.5968 8.15936 33.282C8.27536 32.9671 8.4541 32.7126 8.69558 32.5185C8.93706 32.3243 9.24482 32.2273 9.61888 32.2273C9.99293 32.2273 10.3007 32.3243 10.5422 32.5185C10.7836 32.7126 10.9624 32.9671 11.0784 33.282C11.1944 33.5968 11.2524 33.9366 11.2524 34.3011C11.2524 34.6657 11.1944 35.0043 11.0784 35.3168C10.9624 35.6293 10.7836 35.8814 10.5422 36.0732Z" fill="#CFD1DE"/>
<path d="M13.3698 31.5455V37H14.2078V33.5909C14.2078 33.3234 14.2647 33.0878 14.3783 32.8842C14.4943 32.6783 14.6458 32.5173 14.8328 32.4013C15.0222 32.2853 15.2258 32.2273 15.4436 32.2273C15.7609 32.2273 16.0201 32.3232 16.2213 32.5149C16.4226 32.7043 16.5232 32.9541 16.5232 33.2642V37H17.3754V33.4489C17.3754 33.0961 17.4808 32.8049 17.6915 32.5753C17.9022 32.3433 18.1993 32.2273 18.5828 32.2273C18.8811 32.2273 19.1404 32.3137 19.3605 32.4865C19.5807 32.6593 19.6908 32.947 19.6908 33.3494V37H20.5289V33.3494C20.5289 32.7079 20.3738 32.2356 20.0637 31.9325C19.7535 31.6271 19.3546 31.4744 18.8669 31.4744C18.4763 31.4744 18.1413 31.5585 17.862 31.7266C17.5826 31.8923 17.3731 32.116 17.2334 32.3977H17.1766C17.0416 32.1065 16.8534 31.8804 16.612 31.7195C16.3728 31.5561 16.0734 31.4744 15.7135 31.4744C15.3584 31.4744 15.0542 31.5561 14.8009 31.7195C14.5476 31.8804 14.3641 32.1065 14.2504 32.3977H14.1794V31.5455H13.3698Z" fill="#CFD1DE"/>
<path fill-rule="evenodd" clip-rule="evenodd" d="M22.988 36.7656C23.3692 36.9976 23.8225 37.1136 24.3481 37.1136C24.7174 37.1136 25.05 37.0568 25.346 36.9432C25.6419 36.8272 25.8905 36.6662 26.0917 36.4602C26.2929 36.2519 26.4362 36.0104 26.5214 35.7358L25.7117 35.5085C25.6407 35.6979 25.5401 35.8565 25.4099 35.9844C25.2797 36.1098 25.1246 36.2045 24.9447 36.2685C24.7671 36.33 24.5683 36.3608 24.3481 36.3608C24.0096 36.3608 23.7124 36.2874 23.4568 36.1406C23.2011 35.9915 23.001 35.7749 22.8566 35.4908C22.7278 35.231 22.6574 34.9197 22.6454 34.5568H26.6066V34.2017C26.6066 33.6927 26.5392 33.2642 26.4042 32.9162C26.2693 32.5682 26.0882 32.2888 25.8609 32.0781C25.6336 31.8651 25.3815 31.7112 25.1045 31.6165C24.8275 31.5218 24.547 31.4744 24.2629 31.4744C23.7705 31.4744 23.3396 31.5952 22.9703 31.8366C22.6033 32.0758 22.3169 32.4096 22.1109 32.8381C21.9073 33.2642 21.8055 33.7566 21.8055 34.3153C21.8055 34.8741 21.9073 35.3641 22.1109 35.7855C22.3169 36.2045 22.6092 36.5312 22.988 36.7656ZM22.6476 33.8324C22.6635 33.5794 22.7273 33.3403 22.8389 33.1151C22.9691 32.8523 23.1549 32.6392 23.3964 32.4759C23.6402 32.3101 23.9291 32.2273 24.2629 32.2273C24.5659 32.2273 24.8287 32.2971 25.0512 32.4368C25.2761 32.5765 25.449 32.767 25.5697 33.0085C25.6928 33.25 25.7544 33.5246 25.7544 33.8324H22.6476Z" fill="#CFD1DE"/>
</svg>
