<svg width="47" height="40" viewBox="0 0 47 40" fill="none" xmlns="http://www.w3.org/2000/svg">
<path fill-rule="evenodd" clip-rule="evenodd" d="M29.5774 2.02261H29.4048C28.9883 0.844244 27.8645 0 26.5435 0H20.4757C19.1547 0 18.0309 0.844243 17.6144 2.02261H17.4418C15.2077 2.02261 13.3966 3.8337 13.3966 6.06781V20.2261C13.3966 22.4602 15.2077 24.2713 17.4418 24.2713H29.5774C31.8115 24.2713 33.6226 22.4602 33.6226 20.2261V6.06782C33.6226 3.83371 31.8115 2.02261 29.5774 2.02261ZM15.4192 6.06781C15.4192 4.95076 16.3247 4.04521 17.4418 4.04521C17.4418 5.72079 18.8001 7.07912 20.4757 7.07912H26.5435C28.2191 7.07912 29.5774 5.72079 29.5774 4.04521C30.6945 4.04521 31.6 4.95076 31.6 6.06782V20.2261C31.6 21.3431 30.6945 22.2487 29.5774 22.2487H17.4418C16.3247 22.2487 15.4192 21.3431 15.4192 20.2261V6.06781ZM20.4757 2.02261C19.9172 2.02261 19.4644 2.47538 19.4644 3.03391V4.04521C19.4644 4.60374 19.9172 5.05651 20.4757 5.05651H26.5435C27.102 5.05651 27.5548 4.60374 27.5548 4.04521V3.03391C27.5548 2.47538 27.102 2.02261 26.5435 2.02261H20.4757Z" fill="#CFD1DE"/>
<path fill-rule="evenodd" clip-rule="evenodd" d="M0.781982 29.7273V37H1.66266V34.3438H3.25357C3.81939 34.3438 4.2834 34.2408 4.64562 34.0348C5.00783 33.8265 5.27535 33.5471 5.44818 33.1967C5.62336 32.8464 5.71096 32.4569 5.71096 32.0284C5.71096 31.5999 5.62336 31.2116 5.44818 30.8636C5.27299 30.5156 5.0031 30.2398 4.63852 30.0362C4.2763 29.8303 3.80992 29.7273 3.23937 29.7273H0.781982ZM1.66266 33.5625H3.22516C3.61579 33.5625 3.92947 33.495 4.16622 33.3601C4.40296 33.2251 4.5746 33.0429 4.68113 32.8132C4.79003 32.5812 4.84448 32.3196 4.84448 32.0284C4.84448 31.7372 4.79003 31.4768 4.68113 31.2472C4.5746 31.0175 4.40177 30.8376 4.16266 30.7074C3.92355 30.5748 3.60632 30.5085 3.21096 30.5085H1.66266V33.5625Z" fill="#CFD1DE"/>
<path d="M7.016 31.5455V37H7.85407V33.5483C7.85407 33.3021 7.91326 33.0831 8.03163 32.8913C8.15237 32.6972 8.31572 32.5457 8.52168 32.4368C8.73002 32.3255 8.96676 32.2699 9.23191 32.2699C9.34318 32.2699 9.44853 32.2782 9.54796 32.2947C9.64976 32.3089 9.71487 32.3196 9.74327 32.3267V31.4744C9.69593 31.4697 9.62609 31.4661 9.53376 31.4638C9.44143 31.4614 9.36449 31.4602 9.30293 31.4602C8.97623 31.4602 8.68267 31.5443 8.42225 31.7124C8.16184 31.8804 7.98191 32.0994 7.88248 32.3693H7.82566V31.5455H7.016Z" fill="#CFD1DE"/>
<path fill-rule="evenodd" clip-rule="evenodd" d="M11.4904 36.7621C11.8621 36.9964 12.2942 37.1136 12.7866 37.1136C13.279 37.1136 13.7099 36.9964 14.0792 36.7621C14.4509 36.5277 14.7397 36.1998 14.9457 35.7784C15.154 35.357 15.2582 34.8646 15.2582 34.3011C15.2582 33.733 15.154 33.237 14.9457 32.8132C14.7397 32.3894 14.4509 32.0604 14.0792 31.826C13.7099 31.5916 13.279 31.4744 12.7866 31.4744C12.2942 31.4744 11.8621 31.5916 11.4904 31.826C11.1211 32.0604 10.8323 32.3894 10.624 32.8132C10.418 33.237 10.315 33.733 10.315 34.3011C10.315 34.8646 10.418 35.357 10.624 35.7784C10.8323 36.1998 11.1211 36.5277 11.4904 36.7621ZM13.7099 36.0732C13.4684 36.2649 13.1607 36.3608 12.7866 36.3608C12.4125 36.3608 12.1048 36.2649 11.8633 36.0732C11.6218 35.8814 11.4431 35.6293 11.3271 35.3168C11.2111 35.0043 11.1531 34.6657 11.1531 34.3011C11.1531 33.9366 11.2111 33.5968 11.3271 33.282C11.4431 32.9671 11.6218 32.7126 11.8633 32.5185C12.1048 32.3243 12.4125 32.2273 12.7866 32.2273C13.1607 32.2273 13.4684 32.3243 13.7099 32.5185C13.9514 32.7126 14.1301 32.9671 14.2461 33.282C14.3621 33.5968 14.4201 33.9366 14.4201 34.3011C14.4201 34.6657 14.3621 35.0043 14.2461 35.3168C14.1301 35.6293 13.9514 35.8814 13.7099 36.0732Z" fill="#CFD1DE"/>
<path d="M16.502 39.0099C16.6132 39.0336 16.7399 39.0455 16.8819 39.0455C17.1353 39.0455 17.3625 39.0005 17.5638 38.9105C17.7674 38.8205 17.9461 38.6821 18.1 38.495C18.2539 38.3104 18.3829 38.0772 18.4871 37.7955L20.8024 31.5455H19.8933L18.3876 35.892H18.3308L16.8251 31.5455H15.916L17.9331 37.0284L17.7768 37.4545C17.675 37.7315 17.5626 37.9316 17.4395 38.0547C17.3187 38.1802 17.1802 38.25 17.024 38.2642C16.8677 38.2784 16.6878 38.2595 16.4842 38.2074L16.2712 38.946C16.3138 38.9673 16.3907 38.9886 16.502 39.0099Z" fill="#CFD1DE"/>
<path fill-rule="evenodd" clip-rule="evenodd" d="M22.6401 36.7656C23.0213 36.9976 23.4746 37.1136 24.0002 37.1136C24.3695 37.1136 24.7021 37.0568 24.9981 36.9432C25.294 36.8272 25.5426 36.6662 25.7438 36.4602C25.945 36.2519 26.0883 36.0104 26.1735 35.7358L25.3638 35.5085C25.2928 35.6979 25.1922 35.8565 25.062 35.9844C24.9318 36.1098 24.7767 36.2045 24.5968 36.2685C24.4192 36.33 24.2204 36.3608 24.0002 36.3608C23.6617 36.3608 23.3645 36.2874 23.1089 36.1406C22.8532 35.9915 22.6531 35.7749 22.5087 35.4908C22.3799 35.231 22.3095 34.9197 22.2975 34.5568H26.2587V34.2017C26.2587 33.6927 26.1913 33.2642 26.0563 32.9162C25.9214 32.5682 25.7403 32.2888 25.513 32.0781C25.2857 31.8651 25.0336 31.7112 24.7566 31.6165C24.4796 31.5218 24.1991 31.4744 23.915 31.4744C23.4225 31.4744 22.9917 31.5952 22.6224 31.8366C22.2554 32.0758 21.969 32.4096 21.763 32.8381C21.5594 33.2642 21.4576 33.7566 21.4576 34.3153C21.4576 34.8741 21.5594 35.3641 21.763 35.7855C21.969 36.2045 22.2613 36.5312 22.6401 36.7656ZM22.2997 33.8324C22.3156 33.5794 22.3794 33.3403 22.491 33.1151C22.6212 32.8523 22.807 32.6392 23.0485 32.4759C23.2923 32.3101 23.5812 32.2273 23.915 32.2273C24.218 32.2273 24.4808 32.2971 24.7033 32.4368C24.9282 32.5765 25.1011 32.767 25.2218 33.0085C25.3449 33.25 25.4065 33.5246 25.4065 33.8324H22.2997Z" fill="#CFD1DE"/>
<path d="M28.4285 36.7514C28.7978 36.9929 29.2381 37.1136 29.7495 37.1136C30.152 37.1136 30.5047 37.0391 30.8077 36.8899C31.1131 36.7384 31.3582 36.5348 31.5428 36.2791C31.7298 36.0211 31.847 35.7311 31.8944 35.4091H31.0563C31.0042 35.608 30.9166 35.7784 30.7935 35.9205C30.6704 36.0625 30.5201 36.1714 30.3425 36.2472C30.165 36.3229 29.9673 36.3608 29.7495 36.3608C29.4181 36.3608 29.1292 36.2744 28.883 36.1016C28.6392 35.9287 28.4498 35.6861 28.3148 35.3736C28.1823 35.0611 28.116 34.6941 28.116 34.2727C28.116 33.8608 28.1834 33.5021 28.3184 33.1967C28.4557 32.889 28.6463 32.651 28.8901 32.483C29.1363 32.3125 29.4228 32.2273 29.7495 32.2273C30.1188 32.2273 30.4124 32.3243 30.6302 32.5185C30.8503 32.7102 30.9924 32.9304 31.0563 33.179H31.8944C31.847 32.8381 31.7251 32.5398 31.5286 32.2841C31.3321 32.0284 31.08 31.8295 30.7722 31.6875C30.4645 31.5455 30.1188 31.4744 29.7353 31.4744C29.2429 31.4744 28.812 31.5952 28.4427 31.8366C28.0757 32.0758 27.7893 32.4084 27.5833 32.8345C27.3797 33.2583 27.2779 33.7472 27.2779 34.3011C27.2779 34.8456 27.3773 35.3298 27.5762 35.7536C27.7751 36.1773 28.0591 36.5099 28.4285 36.7514Z" fill="#CFD1DE"/>
<path d="M35.4917 32.2557V31.5455H34.3269V30.2386H33.4888V31.5455H32.665V32.2557H33.4888V35.6648C33.4888 35.982 33.5622 36.2448 33.709 36.4531C33.8582 36.6615 34.0452 36.8165 34.2701 36.9183C34.4974 37.0201 34.7294 37.071 34.9661 37.071C35.1224 37.071 35.2514 37.0592 35.3532 37.0355C35.455 37.0142 35.5343 36.9929 35.5911 36.9716L35.4207 36.2188L35.2786 36.2472C35.2194 36.2566 35.1437 36.2614 35.0513 36.2614C34.9282 36.2614 34.811 36.2424 34.6998 36.2045C34.5909 36.1643 34.5009 36.0862 34.4299 35.9702C34.3612 35.8518 34.3269 35.6742 34.3269 35.4375V32.2557H35.4917Z" fill="#CFD1DE"/>
<path fill-rule="evenodd" clip-rule="evenodd" d="M37.6135 36.7621C37.9852 36.9964 38.4172 37.1136 38.9096 37.1136C39.4021 37.1136 39.8329 36.9964 40.2023 36.7621C40.5739 36.5277 40.8628 36.1998 41.0687 35.7784C41.2771 35.357 41.3812 34.8646 41.3812 34.3011C41.3812 33.733 41.2771 33.237 41.0687 32.8132C40.8628 32.3894 40.5739 32.0604 40.2023 31.826C39.8329 31.5916 39.4021 31.4744 38.9096 31.4744C38.4172 31.4744 37.9852 31.5916 37.6135 31.826C37.2442 32.0604 36.9553 32.3894 36.747 32.8132C36.541 33.237 36.4381 33.733 36.4381 34.3011C36.4381 34.8646 36.541 35.357 36.747 35.7784C36.9553 36.1998 37.2442 36.5277 37.6135 36.7621ZM39.8329 36.0732C39.5915 36.2649 39.2837 36.3608 38.9096 36.3608C38.5356 36.3608 38.2278 36.2649 37.9864 36.0732C37.7449 35.8814 37.5661 35.6293 37.4501 35.3168C37.3341 35.0043 37.2761 34.6657 37.2761 34.3011C37.2761 33.9366 37.3341 33.5968 37.4501 33.282C37.5661 32.9671 37.7449 32.7126 37.9864 32.5185C38.2278 32.3243 38.5356 32.2273 38.9096 32.2273C39.2837 32.2273 39.5915 32.3243 39.8329 32.5185C40.0744 32.7126 40.2532 32.9671 40.3692 33.282C40.4852 33.5968 40.5432 33.9366 40.5432 34.3011C40.5432 34.6657 40.4852 35.0043 40.3692 35.3168C40.2532 35.6293 40.0744 35.8814 39.8329 36.0732Z" fill="#CFD1DE"/>
<path d="M45.7713 32.9801L46.5242 32.767C46.394 32.3788 46.1738 32.0663 45.8637 31.8295C45.5559 31.5928 45.1321 31.4744 44.5924 31.4744C44.2088 31.4744 43.8656 31.5419 43.5625 31.6768C43.2619 31.8118 43.0239 31.9976 42.8487 32.2344C42.6759 32.4711 42.5895 32.7434 42.5895 33.0511C42.5895 33.4276 42.7055 33.7412 42.9375 33.9922C43.1719 34.2408 43.5388 34.4242 44.0384 34.5426L44.9475 34.7557C45.2221 34.8196 45.4257 34.9167 45.5583 35.0469C45.6908 35.1747 45.7571 35.3333 45.7571 35.5227C45.7571 35.7571 45.6411 35.9583 45.4091 36.1264C45.1795 36.2921 44.8693 36.375 44.4787 36.375C44.1354 36.375 43.8573 36.3016 43.6442 36.1548C43.4335 36.008 43.2903 35.7879 43.2145 35.4943L42.4191 35.6932C42.5161 36.1572 42.7469 36.5099 43.1115 36.7514C43.4761 36.9929 43.9366 37.1136 44.4929 37.1136C44.9167 37.1136 45.2884 37.0426 45.608 36.9006C45.9276 36.7585 46.1762 36.5644 46.3537 36.3182C46.5336 36.072 46.6236 35.7926 46.6236 35.4801C46.6236 35.099 46.504 34.7876 46.2649 34.5462C46.0258 34.3023 45.6624 34.1212 45.1747 34.0028L44.3651 33.804C44.0431 33.7235 43.8064 33.6229 43.6549 33.5021C43.5033 33.3814 43.4276 33.2169 43.4276 33.0085C43.4276 32.7741 43.5377 32.5812 43.7578 32.4297C43.9804 32.2758 44.2585 32.1989 44.5924 32.1989C44.8362 32.1989 45.0362 32.2379 45.1925 32.3161C45.3487 32.3942 45.4719 32.4936 45.5618 32.6143C45.6541 32.7327 45.724 32.8546 45.7713 32.9801Z" fill="#CFD1DE"/>
</svg>
