<svg width="24" height="37" viewBox="0 0 24 37" fill="none" xmlns="http://www.w3.org/2000/svg">
<path fill-rule="evenodd" clip-rule="evenodd" d="M7.08264 6.07954C7.08264 2.72837 9.7993 0.0117188 13.1505 0.0117188C16.5016 0.0117188 19.2183 2.72837 19.2183 6.07954C19.2183 9.4307 16.5016 12.1474 13.1505 12.1474C9.7993 12.1474 7.08264 9.4307 7.08264 6.07954ZM13.1505 2.03432C10.9164 2.03432 9.10525 3.84543 9.10525 6.07954C9.10525 8.31364 10.9164 10.1247 13.1505 10.1247C15.3846 10.1247 17.1957 8.31364 17.1957 6.07954C17.1957 3.84543 15.3846 2.03432 13.1505 2.03432Z" fill="#CFD1DE"/>
<path d="M13.1505 16.6982C10.7508 16.6982 8.47695 17.2313 6.92083 17.7117C6.03009 17.9866 5.37555 18.7933 5.21536 19.8231L5.04802 20.8989C4.96217 21.4508 4.44518 21.8286 3.89329 21.7427C3.3414 21.6569 2.9636 21.1399 3.04945 20.588L3.21679 19.5122C3.47848 17.8299 4.59243 16.3137 6.32424 15.7791C7.9871 15.2657 10.4745 14.6756 13.1505 14.6756C15.8265 14.6756 18.3138 15.2657 19.9767 15.7791C21.7085 16.3137 22.8224 17.8299 23.0841 19.5122L23.2515 20.588C23.3373 21.1399 22.9595 21.6569 22.4076 21.7427C21.8557 21.8286 21.3388 21.4508 21.2529 20.8989L21.0856 19.8231C20.9254 18.7933 20.2708 17.9866 19.3801 17.7117C17.824 17.2313 15.5501 16.6982 13.1505 16.6982Z" fill="#CFD1DE"/>
<path fill-rule="evenodd" clip-rule="evenodd" d="M0.770508 28.7277V36.0004H1.65119V33.3442H3.2421C3.80791 33.3442 4.27193 33.2412 4.63414 33.0352C4.99636 32.8269 5.26388 32.5475 5.4367 32.1971C5.61189 31.8468 5.69949 31.4573 5.69949 31.0288C5.69949 30.6003 5.61189 30.2121 5.4367 29.8641C5.26151 29.516 4.99163 29.2402 4.62704 29.0366C4.26483 28.8307 3.79844 28.7277 3.22789 28.7277H0.770508ZM1.65119 32.5629H3.21369C3.60431 32.5629 3.918 32.4954 4.15474 32.3605C4.39148 32.2256 4.56312 32.0433 4.66966 31.8136C4.77856 31.5816 4.83301 31.32 4.83301 31.0288C4.83301 30.7376 4.77856 30.4772 4.66966 30.2476C4.56312 30.0179 4.3903 29.838 4.15119 29.7078C3.91208 29.5752 3.59484 29.5089 3.19948 29.5089H1.65119V32.5629Z" fill="#CFD1DE"/>
<path fill-rule="evenodd" clip-rule="evenodd" d="M7.87278 35.766C8.25394 35.998 8.7073 36.1141 9.23287 36.1141C9.60218 36.1141 9.93481 36.0572 10.2307 35.9436C10.5267 35.8276 10.7752 35.6666 10.9765 35.4606C11.1777 35.2523 11.3209 35.0108 11.4062 34.7362L10.5965 34.5089C10.5255 34.6983 10.4249 34.8569 10.2947 34.9848C10.1644 35.1103 10.0094 35.205 9.82946 35.2689C9.6519 35.3304 9.45304 35.3612 9.23287 35.3612C8.89432 35.3612 8.59721 35.2878 8.34153 35.141C8.08585 34.9919 7.8858 34.7753 7.74139 34.4912C7.61259 34.2314 7.54219 33.9201 7.53017 33.5572H11.4914V33.2021C11.4914 32.6931 11.4239 32.2646 11.289 31.9166C11.154 31.5686 10.9729 31.2892 10.7457 31.0785C10.5184 30.8655 10.2662 30.7116 9.98926 30.6169C9.71227 30.5222 9.43173 30.4748 9.14764 30.4748C8.65521 30.4748 8.22434 30.5956 7.85502 30.8371C7.48807 31.0762 7.20162 31.41 6.99565 31.8385C6.79205 32.2646 6.69025 32.757 6.69025 33.3158C6.69025 33.8745 6.79205 34.3645 6.99565 34.7859C7.20162 35.205 7.49399 35.5317 7.87278 35.766ZM7.53232 32.8328C7.54827 32.5798 7.61205 32.3407 7.72363 32.1155C7.85384 31.8527 8.03968 31.6396 8.28116 31.4763C8.52501 31.3105 8.81383 31.2277 9.14764 31.2277C9.45067 31.2277 9.71345 31.2975 9.93599 31.4372C10.1609 31.5769 10.3337 31.7675 10.4545 32.0089C10.5776 32.2504 10.6391 32.525 10.6391 32.8328H7.53232Z" fill="#CFD1DE"/>
<path d="M12.7662 30.5459V36.0004H13.6043V32.5487C13.6043 32.3025 13.6635 32.0835 13.7819 31.8918C13.9026 31.6976 14.066 31.5461 14.2719 31.4372C14.4803 31.3259 14.717 31.2703 14.9822 31.2703C15.0934 31.2703 15.1988 31.2786 15.2982 31.2952C15.4 31.3094 15.4651 31.32 15.4935 31.3271V30.4748C15.4462 30.4701 15.3763 30.4666 15.284 30.4642C15.1917 30.4618 15.1147 30.4606 15.0532 30.4606C14.7265 30.4606 14.4329 30.5447 14.1725 30.7128C13.9121 30.8809 13.7322 31.0998 13.6327 31.3697H13.5759V30.5459H12.7662Z" fill="#CFD1DE"/>
<path d="M19.2577 31.2561V30.5459H18.0361V29.9919C18.0361 29.722 18.0965 29.5172 18.2172 29.3775C18.3403 29.2379 18.5404 29.168 18.8174 29.168C18.9381 29.168 19.0352 29.1787 19.1086 29.2C19.1843 29.2213 19.2435 29.2391 19.2861 29.2533L19.5276 28.5288C19.4637 28.5004 19.3666 28.4696 19.2364 28.4365C19.1062 28.4034 18.9381 28.3868 18.7322 28.3868C18.4717 28.3868 18.2243 28.4389 17.99 28.543C17.7556 28.6472 17.565 28.8034 17.4182 29.0118C17.2715 29.2201 17.1981 29.4805 17.1981 29.793V30.5459H16.3174V31.2561H17.1981V36.0004H18.0361V31.2561H19.2577Z" fill="#CFD1DE"/>
<path d="M20.4323 30.5459V36.0004H21.2703V30.5459H20.4323Z" fill="#CFD1DE"/>
<path d="M20.4358 29.4699C20.5542 29.5811 20.695 29.6368 20.8584 29.6368C21.0218 29.6368 21.1614 29.5811 21.2774 29.4699C21.3958 29.3586 21.455 29.2248 21.455 29.0686C21.455 28.9123 21.3958 28.7786 21.2774 28.6673C21.1614 28.556 21.0218 28.5004 20.8584 28.5004C20.695 28.5004 20.5542 28.556 20.4358 28.6673C20.3198 28.7786 20.2618 28.9123 20.2618 29.0686C20.2618 29.2248 20.3198 29.3586 20.4358 29.4699Z" fill="#CFD1DE"/>
<path d="M23.6434 36.0004V28.7277H22.8053V36.0004H23.6434Z" fill="#CFD1DE"/>
</svg>
