<svg width="47" height="40" viewBox="0 0 47 40" fill="none" xmlns="http://www.w3.org/2000/svg">
<path fill-rule="evenodd" clip-rule="evenodd" d="M29.5774 2.52261H29.4048C28.9883 1.34424 27.8645 0.5 26.5435 0.5H20.4757C19.1547 0.5 18.0309 1.34424 17.6144 2.52261H17.4418C15.2077 2.52261 13.3966 4.3337 13.3966 6.56781V20.7261C13.3966 22.9602 15.2077 24.7713 17.4418 24.7713H29.5774C31.8115 24.7713 33.6226 22.9602 33.6226 20.7261V6.56782C33.6226 4.33371 31.8115 2.52261 29.5774 2.52261ZM15.4192 6.56781C15.4192 5.45076 16.3247 4.54521 17.4418 4.54521C17.4418 6.22079 18.8001 7.57912 20.4757 7.57912H26.5435C28.2191 7.57912 29.5774 6.22079 29.5774 4.54521C30.6945 4.54521 31.6 5.45076 31.6 6.56782V20.7261C31.6 21.8431 30.6945 22.7487 29.5774 22.7487H17.4418C16.3247 22.7487 15.4192 21.8431 15.4192 20.7261V6.56781ZM20.4757 2.52261C19.9172 2.52261 19.4644 2.97538 19.4644 3.53391V4.54521C19.4644 5.10374 19.9172 5.55651 20.4757 5.55651H26.5435C27.102 5.55651 27.5548 5.10374 27.5548 4.54521V3.53391C27.5548 2.97538 27.102 2.52261 26.5435 2.52261H20.4757Z" fill="#CFD1DE"/>
<path fill-rule="evenodd" clip-rule="evenodd" d="M0.781982 30.2273V37.5H1.66266V34.8438H3.25357C3.81939 34.8438 4.2834 34.7408 4.64562 34.5348C5.00783 34.3265 5.27535 34.0471 5.44818 33.6967C5.62336 33.3464 5.71096 32.9569 5.71096 32.5284C5.71096 32.0999 5.62336 31.7116 5.44818 31.3636C5.27299 31.0156 5.0031 30.7398 4.63852 30.5362C4.2763 30.3303 3.80992 30.2273 3.23937 30.2273H0.781982ZM1.66266 34.0625H3.22516C3.61579 34.0625 3.92947 33.995 4.16622 33.8601C4.40296 33.7251 4.5746 33.5429 4.68113 33.3132C4.79003 33.0812 4.84448 32.8196 4.84448 32.5284C4.84448 32.2372 4.79003 31.9768 4.68113 31.7472C4.5746 31.5175 4.40177 31.3376 4.16266 31.2074C3.92355 31.0748 3.60632 31.0085 3.21096 31.0085H1.66266V34.0625Z" fill="#CFD1DE"/>
<path d="M7.016 32.0455V37.5H7.85407V34.0483C7.85407 33.8021 7.91326 33.5831 8.03163 33.3913C8.15237 33.1972 8.31572 33.0457 8.52168 32.9368C8.73002 32.8255 8.96676 32.7699 9.23191 32.7699C9.34318 32.7699 9.44853 32.7782 9.54796 32.7947C9.64976 32.8089 9.71487 32.8196 9.74327 32.8267V31.9744C9.69593 31.9697 9.62609 31.9661 9.53376 31.9638C9.44143 31.9614 9.36449 31.9602 9.30293 31.9602C8.97623 31.9602 8.68267 32.0443 8.42225 32.2124C8.16184 32.3804 7.98191 32.5994 7.88248 32.8693H7.82566V32.0455H7.016Z" fill="#CFD1DE"/>
<path fill-rule="evenodd" clip-rule="evenodd" d="M11.4904 37.2621C11.8621 37.4964 12.2942 37.6136 12.7866 37.6136C13.279 37.6136 13.7099 37.4964 14.0792 37.2621C14.4509 37.0277 14.7397 36.6998 14.9457 36.2784C15.154 35.857 15.2582 35.3646 15.2582 34.8011C15.2582 34.233 15.154 33.737 14.9457 33.3132C14.7397 32.8894 14.4509 32.5604 14.0792 32.326C13.7099 32.0916 13.279 31.9744 12.7866 31.9744C12.2942 31.9744 11.8621 32.0916 11.4904 32.326C11.1211 32.5604 10.8323 32.8894 10.624 33.3132C10.418 33.737 10.315 34.233 10.315 34.8011C10.315 35.3646 10.418 35.857 10.624 36.2784C10.8323 36.6998 11.1211 37.0277 11.4904 37.2621ZM13.7099 36.5732C13.4684 36.7649 13.1607 36.8608 12.7866 36.8608C12.4125 36.8608 12.1048 36.7649 11.8633 36.5732C11.6218 36.3814 11.4431 36.1293 11.3271 35.8168C11.2111 35.5043 11.1531 35.1657 11.1531 34.8011C11.1531 34.4366 11.2111 34.0968 11.3271 33.782C11.4431 33.4671 11.6218 33.2126 11.8633 33.0185C12.1048 32.8243 12.4125 32.7273 12.7866 32.7273C13.1607 32.7273 13.4684 32.8243 13.7099 33.0185C13.9514 33.2126 14.1301 33.4671 14.2461 33.782C14.3621 34.0968 14.4201 34.4366 14.4201 34.8011C14.4201 35.1657 14.3621 35.5043 14.2461 35.8168C14.1301 36.1293 13.9514 36.3814 13.7099 36.5732Z" fill="#CFD1DE"/>
<path d="M16.502 39.5099C16.6132 39.5336 16.7399 39.5455 16.8819 39.5455C17.1353 39.5455 17.3625 39.5005 17.5638 39.4105C17.7674 39.3205 17.9461 39.1821 18.1 38.995C18.2539 38.8104 18.3829 38.5772 18.4871 38.2955L20.8024 32.0455H19.8933L18.3876 36.392H18.3308L16.8251 32.0455H15.916L17.9331 37.5284L17.7768 37.9545C17.675 38.2315 17.5626 38.4316 17.4395 38.5547C17.3187 38.6802 17.1802 38.75 17.024 38.7642C16.8677 38.7784 16.6878 38.7595 16.4842 38.7074L16.2712 39.446C16.3138 39.4673 16.3907 39.4886 16.502 39.5099Z" fill="#CFD1DE"/>
<path fill-rule="evenodd" clip-rule="evenodd" d="M22.6401 37.2656C23.0213 37.4976 23.4746 37.6136 24.0002 37.6136C24.3695 37.6136 24.7021 37.5568 24.9981 37.4432C25.294 37.3272 25.5426 37.1662 25.7438 36.9602C25.945 36.7519 26.0883 36.5104 26.1735 36.2358L25.3638 36.0085C25.2928 36.1979 25.1922 36.3565 25.062 36.4844C24.9318 36.6098 24.7767 36.7045 24.5968 36.7685C24.4192 36.83 24.2204 36.8608 24.0002 36.8608C23.6617 36.8608 23.3645 36.7874 23.1089 36.6406C22.8532 36.4915 22.6531 36.2749 22.5087 35.9908C22.3799 35.731 22.3095 35.4197 22.2975 35.0568H26.2587V34.7017C26.2587 34.1927 26.1913 33.7642 26.0563 33.4162C25.9214 33.0682 25.7403 32.7888 25.513 32.5781C25.2857 32.3651 25.0336 32.2112 24.7566 32.1165C24.4796 32.0218 24.1991 31.9744 23.915 31.9744C23.4225 31.9744 22.9917 32.0952 22.6224 32.3366C22.2554 32.5758 21.969 32.9096 21.763 33.3381C21.5594 33.7642 21.4576 34.2566 21.4576 34.8153C21.4576 35.3741 21.5594 35.8641 21.763 36.2855C21.969 36.7045 22.2613 37.0312 22.6401 37.2656ZM22.2997 34.3324C22.3156 34.0794 22.3794 33.8403 22.491 33.6151C22.6212 33.3523 22.807 33.1392 23.0485 32.9759C23.2923 32.8101 23.5812 32.7273 23.915 32.7273C24.218 32.7273 24.4808 32.7971 24.7033 32.9368C24.9282 33.0765 25.1011 33.267 25.2218 33.5085C25.3449 33.75 25.4065 34.0246 25.4065 34.3324H22.2997Z" fill="#CFD1DE"/>
<path d="M28.4285 37.2514C28.7978 37.4929 29.2381 37.6136 29.7495 37.6136C30.152 37.6136 30.5047 37.5391 30.8077 37.3899C31.1131 37.2384 31.3582 37.0348 31.5428 36.7791C31.7298 36.5211 31.847 36.2311 31.8944 35.9091H31.0563C31.0042 36.108 30.9166 36.2784 30.7935 36.4205C30.6704 36.5625 30.5201 36.6714 30.3425 36.7472C30.165 36.8229 29.9673 36.8608 29.7495 36.8608C29.4181 36.8608 29.1292 36.7744 28.883 36.6016C28.6392 36.4287 28.4498 36.1861 28.3148 35.8736C28.1823 35.5611 28.116 35.1941 28.116 34.7727C28.116 34.3608 28.1834 34.0021 28.3184 33.6967C28.4557 33.389 28.6463 33.151 28.8901 32.983C29.1363 32.8125 29.4228 32.7273 29.7495 32.7273C30.1188 32.7273 30.4124 32.8243 30.6302 33.0185C30.8503 33.2102 30.9924 33.4304 31.0563 33.679H31.8944C31.847 33.3381 31.7251 33.0398 31.5286 32.7841C31.3321 32.5284 31.08 32.3295 30.7722 32.1875C30.4645 32.0455 30.1188 31.9744 29.7353 31.9744C29.2429 31.9744 28.812 32.0952 28.4427 32.3366C28.0757 32.5758 27.7893 32.9084 27.5833 33.3345C27.3797 33.7583 27.2779 34.2472 27.2779 34.8011C27.2779 35.3456 27.3773 35.8298 27.5762 36.2536C27.7751 36.6773 28.0591 37.0099 28.4285 37.2514Z" fill="#CFD1DE"/>
<path d="M35.4917 32.7557V32.0455H34.3269V30.7386H33.4888V32.0455H32.665V32.7557H33.4888V36.1648C33.4888 36.482 33.5622 36.7448 33.709 36.9531C33.8582 37.1615 34.0452 37.3165 34.2701 37.4183C34.4974 37.5201 34.7294 37.571 34.9661 37.571C35.1224 37.571 35.2514 37.5592 35.3532 37.5355C35.455 37.5142 35.5343 37.4929 35.5911 37.4716L35.4207 36.7188L35.2786 36.7472C35.2194 36.7566 35.1437 36.7614 35.0513 36.7614C34.9282 36.7614 34.811 36.7424 34.6998 36.7045C34.5909 36.6643 34.5009 36.5862 34.4299 36.4702C34.3612 36.3518 34.3269 36.1742 34.3269 35.9375V32.7557H35.4917Z" fill="#CFD1DE"/>
<path fill-rule="evenodd" clip-rule="evenodd" d="M37.6135 37.2621C37.9852 37.4964 38.4172 37.6136 38.9096 37.6136C39.4021 37.6136 39.8329 37.4964 40.2023 37.2621C40.5739 37.0277 40.8628 36.6998 41.0687 36.2784C41.2771 35.857 41.3812 35.3646 41.3812 34.8011C41.3812 34.233 41.2771 33.737 41.0687 33.3132C40.8628 32.8894 40.5739 32.5604 40.2023 32.326C39.8329 32.0916 39.4021 31.9744 38.9096 31.9744C38.4172 31.9744 37.9852 32.0916 37.6135 32.326C37.2442 32.5604 36.9553 32.8894 36.747 33.3132C36.541 33.737 36.4381 34.233 36.4381 34.8011C36.4381 35.3646 36.541 35.857 36.747 36.2784C36.9553 36.6998 37.2442 37.0277 37.6135 37.2621ZM39.8329 36.5732C39.5915 36.7649 39.2837 36.8608 38.9096 36.8608C38.5356 36.8608 38.2278 36.7649 37.9864 36.5732C37.7449 36.3814 37.5661 36.1293 37.4501 35.8168C37.3341 35.5043 37.2761 35.1657 37.2761 34.8011C37.2761 34.4366 37.3341 34.0968 37.4501 33.782C37.5661 33.4671 37.7449 33.2126 37.9864 33.0185C38.2278 32.8243 38.5356 32.7273 38.9096 32.7273C39.2837 32.7273 39.5915 32.8243 39.8329 33.0185C40.0744 33.2126 40.2532 33.4671 40.3692 33.782C40.4852 34.0968 40.5432 34.4366 40.5432 34.8011C40.5432 35.1657 40.4852 35.5043 40.3692 35.8168C40.2532 36.1293 40.0744 36.3814 39.8329 36.5732Z" fill="#CFD1DE"/>
<path d="M45.7713 33.4801L46.5242 33.267C46.394 32.8788 46.1738 32.5663 45.8637 32.3295C45.5559 32.0928 45.1321 31.9744 44.5924 31.9744C44.2088 31.9744 43.8656 32.0419 43.5625 32.1768C43.2619 32.3118 43.0239 32.4976 42.8487 32.7344C42.6759 32.9711 42.5895 33.2434 42.5895 33.5511C42.5895 33.9276 42.7055 34.2412 42.9375 34.4922C43.1719 34.7408 43.5388 34.9242 44.0384 35.0426L44.9475 35.2557C45.2221 35.3196 45.4257 35.4167 45.5583 35.5469C45.6908 35.6747 45.7571 35.8333 45.7571 36.0227C45.7571 36.2571 45.6411 36.4583 45.4091 36.6264C45.1795 36.7921 44.8693 36.875 44.4787 36.875C44.1354 36.875 43.8573 36.8016 43.6442 36.6548C43.4335 36.508 43.2903 36.2879 43.2145 35.9943L42.4191 36.1932C42.5161 36.6572 42.7469 37.0099 43.1115 37.2514C43.4761 37.4929 43.9366 37.6136 44.4929 37.6136C44.9167 37.6136 45.2884 37.5426 45.608 37.4006C45.9276 37.2585 46.1762 37.0644 46.3537 36.8182C46.5336 36.572 46.6236 36.2926 46.6236 35.9801C46.6236 35.599 46.504 35.2876 46.2649 35.0462C46.0258 34.8023 45.6624 34.6212 45.1747 34.5028L44.3651 34.304C44.0431 34.2235 43.8064 34.1229 43.6549 34.0021C43.5033 33.8814 43.4276 33.7169 43.4276 33.5085C43.4276 33.2741 43.5377 33.0812 43.7578 32.9297C43.9804 32.7758 44.2585 32.6989 44.5924 32.6989C44.8362 32.6989 45.0362 32.7379 45.1925 32.8161C45.3487 32.8942 45.4719 32.9936 45.5618 33.1143C45.6541 33.2327 45.724 33.3546 45.7713 33.4801Z" fill="#CFD1DE"/>
</svg>
