<svg width="23" height="37" viewBox="0 0 23 37" fill="none" xmlns="http://www.w3.org/2000/svg">
<path fill-rule="evenodd" clip-rule="evenodd" d="M6.36487 6.07954C6.36487 2.72837 9.08152 0.0117188 12.4327 0.0117188C15.7838 0.0117188 18.5005 2.72837 18.5005 6.07954C18.5005 9.4307 15.7838 12.1474 12.4327 12.1474C9.08152 12.1474 6.36487 9.4307 6.36487 6.07954ZM12.4327 2.03432C10.1986 2.03432 8.38748 3.84543 8.38748 6.07954C8.38748 8.31364 10.1986 10.1247 12.4327 10.1247C14.6668 10.1247 16.4779 8.31364 16.4779 6.07954C16.4779 3.84543 14.6668 2.03432 12.4327 2.03432Z" fill="#CFD1DE"/>
<path d="M12.4327 16.6982C10.0214 16.6982 7.73735 17.2365 6.18091 17.7185C5.30417 17.9901 4.65915 18.7845 4.50137 19.7988L4.33025 20.8989C4.2444 21.4508 3.72741 21.8286 3.17552 21.7427C2.62363 21.6569 2.24583 21.1399 2.33168 20.588L2.5028 19.4879C2.76218 17.8204 3.86676 16.3179 5.5825 15.7865C7.24559 15.2714 9.74397 14.6756 12.4327 14.6756C15.1214 14.6756 17.6198 15.2714 19.2829 15.7865C20.9986 16.3179 22.1032 17.8204 22.3626 19.4879L22.5337 20.588C22.6195 21.1399 22.2417 21.6569 21.6899 21.7427C21.138 21.8286 20.621 21.4508 20.5351 20.8989L20.364 19.7988C20.2062 18.7845 19.5612 17.9901 18.6845 17.7185C17.128 17.2365 14.8439 16.6982 12.4327 16.6982Z" fill="#CFD1DE"/>
<path fill-rule="evenodd" clip-rule="evenodd" d="M0.0527344 28.7277V36.0004H0.933416V33.3442H2.52433C3.09014 33.3442 3.55415 33.2412 3.91637 33.0352C4.27859 32.8269 4.54611 32.5475 4.71893 32.1971C4.89412 31.8468 4.98171 31.4573 4.98171 31.0288C4.98171 30.6003 4.89412 30.2121 4.71893 29.8641C4.54374 29.516 4.27385 29.2402 3.90927 29.0366C3.54705 28.8307 3.08067 28.7277 2.51012 28.7277H0.0527344ZM0.933416 32.5629H2.49592C2.88654 32.5629 3.20022 32.4954 3.43697 32.3605C3.67371 32.2256 3.84535 32.0433 3.95188 31.8136C4.06078 31.5816 4.11523 31.32 4.11523 31.0288C4.11523 30.7376 4.06078 30.4772 3.95188 30.2476C3.84535 30.0179 3.67253 29.838 3.43342 29.7078C3.19431 29.5752 2.87707 29.5089 2.48171 29.5089H0.933416V32.5629Z" fill="#CFD1DE"/>
<path fill-rule="evenodd" clip-rule="evenodd" d="M7.15501 35.766C7.53616 35.998 7.98952 36.1141 8.51509 36.1141C8.88441 36.1141 9.21703 36.0572 9.51296 35.9436C9.80889 35.8276 10.0575 35.6666 10.2587 35.4606C10.4599 35.2523 10.6032 35.0108 10.6884 34.7362L9.87873 34.5089C9.80771 34.6983 9.70709 34.8569 9.57688 34.9848C9.44667 35.1103 9.29161 35.205 9.11168 35.2689C8.93413 35.3304 8.73526 35.3612 8.51509 35.3612C8.17655 35.3612 7.87944 35.2878 7.62376 35.141C7.36808 34.9919 7.16803 34.7753 7.02361 34.4912C6.89482 34.2314 6.82442 33.9201 6.8124 33.5572H10.7736V33.2021C10.7736 32.6931 10.7061 32.2646 10.5712 31.9166C10.4363 31.5686 10.2551 31.2892 10.0279 31.0785C9.8006 30.8655 9.54847 30.7116 9.27148 30.6169C8.9945 30.5222 8.71396 30.4748 8.42986 30.4748C7.93744 30.4748 7.50657 30.5956 7.13725 30.8371C6.7703 31.0762 6.48384 31.41 6.27788 31.8385C6.07428 32.2646 5.97248 32.757 5.97248 33.3158C5.97248 33.8745 6.07428 34.3645 6.27788 34.7859C6.48384 35.205 6.77622 35.5317 7.15501 35.766ZM6.81454 32.8328C6.8305 32.5798 6.89427 32.3407 7.00586 32.1155C7.13607 31.8527 7.32191 31.6396 7.56339 31.4763C7.80723 31.3105 8.09606 31.2277 8.42986 31.2277C8.73289 31.2277 8.99568 31.2975 9.21822 31.4372C9.44312 31.5769 9.61594 31.7675 9.73668 32.0089C9.85979 32.2504 9.92134 32.525 9.92134 32.8328H6.81454Z" fill="#CFD1DE"/>
<path d="M12.0485 30.5459V36.0004H12.8865V32.5487C12.8865 32.3025 12.9457 32.0835 13.0641 31.8918C13.1848 31.6976 13.3482 31.5461 13.5542 31.4372C13.7625 31.3259 13.9992 31.2703 14.2644 31.2703C14.3757 31.2703 14.481 31.2786 14.5804 31.2952C14.6822 31.3094 14.7473 31.32 14.7757 31.3271V30.4748C14.7284 30.4701 14.6586 30.4666 14.5662 30.4642C14.4739 30.4618 14.397 30.4606 14.3354 30.4606C14.0087 30.4606 13.7151 30.5447 13.4547 30.7128C13.1943 30.8809 13.0144 31.0998 12.915 31.3697H12.8581V30.5459H12.0485Z" fill="#CFD1DE"/>
<path d="M18.5399 31.2561V30.5459H17.3184V29.9919C17.3184 29.722 17.3787 29.5172 17.4995 29.3775C17.6226 29.2379 17.8226 29.168 18.0996 29.168C18.2203 29.168 18.3174 29.1787 18.3908 29.2C18.4666 29.2213 18.5257 29.2391 18.5684 29.2533L18.8098 28.5288C18.7459 28.5004 18.6489 28.4696 18.5186 28.4365C18.3884 28.4034 18.2203 28.3868 18.0144 28.3868C17.754 28.3868 17.5066 28.4389 17.2722 28.543C17.0378 28.6472 16.8472 28.8034 16.7005 29.0118C16.5537 29.2201 16.4803 29.4805 16.4803 29.793V30.5459H15.5996V31.2561H16.4803V36.0004H17.3184V31.2561H18.5399Z" fill="#CFD1DE"/>
<path d="M19.7145 30.5459V36.0004H20.5526V30.5459H19.7145Z" fill="#CFD1DE"/>
<path d="M19.718 29.4699C19.8364 29.5811 19.9773 29.6368 20.1406 29.6368C20.304 29.6368 20.4437 29.5811 20.5597 29.4699C20.678 29.3586 20.7372 29.2248 20.7372 29.0686C20.7372 28.9123 20.678 28.7786 20.5597 28.6673C20.4437 28.556 20.304 28.5004 20.1406 28.5004C19.9773 28.5004 19.8364 28.556 19.718 28.6673C19.602 28.7786 19.544 28.9123 19.544 29.0686C19.544 29.2248 19.602 29.3586 19.718 29.4699Z" fill="#CFD1DE"/>
<path d="M22.9256 36.0004V28.7277H22.0875V36.0004H22.9256Z" fill="#CFD1DE"/>
</svg>
