<svg width="38" height="36" viewBox="0 0 38 36" fill="none" xmlns="http://www.w3.org/2000/svg">
<path fill-rule="evenodd" clip-rule="evenodd" d="M11.0692 0.875C8.83801 0.875 7.02924 2.68377 7.02924 4.915V19.0811C7.02924 21.3123 8.83801 23.1211 11.0692 23.1211H27.1927C29.4239 23.1211 31.2327 21.3123 31.2327 19.0811V8.86569C31.2327 6.63446 29.4239 4.82569 27.1927 4.82569H10.5433C9.98561 4.82569 9.53354 4.37362 9.53354 3.81596C9.53354 3.7504 9.52729 3.68631 9.51537 3.62423C9.8859 3.17866 10.4444 2.895 11.0692 2.895H28.2266C28.7844 2.895 29.2366 2.44281 29.2366 1.885C29.2366 1.32719 28.7844 0.875 28.2266 0.875H11.0692ZM9.04924 19.0811V6.45231C9.49013 6.70271 10 6.84569 10.5433 6.84569H27.1927C28.3083 6.84569 29.2127 7.75008 29.2127 8.86569V19.0811C29.2127 20.1967 28.3083 21.1011 27.1927 21.1011H11.0692C9.95363 21.1011 9.04924 20.1967 9.04924 19.0811Z" fill="#CFD1DE"/>
<path fill-rule="evenodd" clip-rule="evenodd" d="M0.915039 28.5671V35.8398H3.54288C4.1158 35.8398 4.581 35.7546 4.93848 35.5842C5.29596 35.4137 5.55756 35.1829 5.72328 34.8917C5.889 34.6005 5.97186 34.2726 5.97186 33.908C5.97186 33.5245 5.8961 33.2002 5.74458 32.935C5.59307 32.6699 5.40486 32.4663 5.17995 32.3242C4.95505 32.1822 4.73133 32.104 4.50879 32.0898V32.0188C4.71712 31.962 4.91007 31.8744 5.08762 31.756C5.26755 31.6377 5.41196 31.4767 5.52086 31.2731C5.63213 31.0695 5.68777 30.8114 5.68777 30.4989C5.68777 30.1438 5.60727 29.8207 5.44629 29.5295C5.2853 29.2359 5.04028 29.0027 4.7112 28.8299C4.38213 28.6547 3.96428 28.5671 3.45765 28.5671H0.915039ZM3.54288 35.0586H1.79572V32.5302H3.58549C3.90273 32.5302 4.17735 32.5941 4.40936 32.7219C4.64136 32.8474 4.82011 33.0155 4.94558 33.2262C5.07105 33.4345 5.13379 33.6618 5.13379 33.908C5.13379 34.2276 5.01187 34.4999 4.76802 34.7248C4.52654 34.9473 4.11816 35.0586 3.54288 35.0586ZM3.42924 31.7631H1.79572V29.3484H3.45765C3.94061 29.3484 4.29335 29.4608 4.51589 29.6857C4.73843 29.9083 4.8497 30.1793 4.8497 30.4989C4.8497 30.7546 4.78578 30.9771 4.65794 31.1665C4.53246 31.3559 4.36201 31.5027 4.14657 31.6069C3.9335 31.711 3.6944 31.7631 3.42924 31.7631Z" fill="#CFD1DE"/>
<path d="M7.30531 30.3853V35.8398H8.14338V30.3853H7.30531Z" fill="#CFD1DE"/>
<path d="M7.30886 29.3093C7.42723 29.4206 7.56809 29.4762 7.73145 29.4762C7.8948 29.4762 8.03448 29.4206 8.15048 29.3093C8.26885 29.198 8.32804 29.0643 8.32804 28.908C8.32804 28.7518 8.26885 28.618 8.15048 28.5067C8.03448 28.3955 7.8948 28.3398 7.73145 28.3398C7.56809 28.3398 7.42723 28.3955 7.30886 28.5067C7.19286 28.618 7.13485 28.7518 7.13485 28.908C7.13485 29.0643 7.19286 29.198 7.30886 29.3093Z" fill="#CFD1DE"/>
<path d="M10.5164 35.8398V28.5671H9.67836V35.8398H10.5164Z" fill="#CFD1DE"/>
<path d="M12.8895 35.8398V28.5671H12.0514V35.8398H12.8895Z" fill="#CFD1DE"/>
<path fill-rule="evenodd" clip-rule="evenodd" d="M15.3513 35.6055C15.7325 35.8375 16.1858 35.9535 16.7114 35.9535C17.0807 35.9535 17.4133 35.8967 17.7093 35.783C18.0052 35.667 18.2538 35.506 18.455 35.3001C18.6562 35.0917 18.7994 34.8503 18.8847 34.5756L18.075 34.3484C18.004 34.5378 17.9034 34.6964 17.7732 34.8242C17.643 34.9497 17.4879 35.0444 17.308 35.1083C17.1304 35.1699 16.9316 35.2006 16.7114 35.2006C16.3728 35.2006 16.0757 35.1272 15.82 34.9805C15.5644 34.8313 15.3643 34.6147 15.2199 34.3306C15.0911 34.0709 15.0207 33.7595 15.0087 33.3967H18.9699V33.0415C18.9699 32.5325 18.9024 32.104 18.7675 31.756C18.6325 31.408 18.4514 31.1287 18.2242 30.918C17.9969 30.7049 17.7448 30.551 17.4678 30.4563C17.1908 30.3616 16.9102 30.3143 16.6262 30.3143C16.1337 30.3143 15.7029 30.435 15.3335 30.6765C14.9666 30.9156 14.6801 31.2494 14.4742 31.6779C14.2706 32.104 14.1688 32.5965 14.1688 33.1552C14.1688 33.7139 14.2706 34.2039 14.4742 34.6253C14.6801 35.0444 14.9725 35.3711 15.3513 35.6055ZM15.0108 32.6722C15.0268 32.4192 15.0906 32.1801 15.2021 31.9549C15.3324 31.6921 15.5182 31.479 15.7597 31.3157C16.0035 31.15 16.2923 31.0671 16.6262 31.0671C16.9292 31.0671 17.192 31.1369 17.4145 31.2766C17.6394 31.4163 17.8122 31.6069 17.933 31.8484C18.0561 32.0898 18.1176 32.3645 18.1176 32.6722H15.0108Z" fill="#CFD1DE"/>
<path d="M22.6169 31.0955V30.3853H21.4521V29.0785H20.6141V30.3853H19.7902V31.0955H20.6141V34.5046C20.6141 34.8218 20.6875 35.0846 20.8343 35.293C20.9834 35.5013 21.1704 35.6564 21.3953 35.7582C21.6226 35.86 21.8546 35.9109 22.0914 35.9109C22.2476 35.9109 22.3766 35.899 22.4784 35.8753C22.5802 35.854 22.6595 35.8327 22.7164 35.8114L22.5459 35.0586L22.4039 35.087C22.3447 35.0965 22.2689 35.1012 22.1766 35.1012C22.0535 35.1012 21.9363 35.0823 21.825 35.0444C21.7161 35.0041 21.6262 34.926 21.5551 34.81C21.4865 34.6916 21.4521 34.5141 21.4521 34.2773V31.0955H22.6169Z" fill="#CFD1DE"/>
<path fill-rule="evenodd" clip-rule="evenodd" d="M24.7458 35.6055C25.127 35.8375 25.5803 35.9535 26.1059 35.9535C26.4752 35.9535 26.8079 35.8967 27.1038 35.783C27.3997 35.667 27.6483 35.506 27.8495 35.3001C28.0508 35.0917 28.194 34.8503 28.2792 34.5756L27.4695 34.3484C27.3985 34.5378 27.2979 34.6964 27.1677 34.8242C27.0375 34.9497 26.8824 35.0444 26.7025 35.1083C26.5249 35.1699 26.3261 35.2006 26.1059 35.2006C25.7674 35.2006 25.4703 35.1272 25.2146 34.9805C24.9589 34.8313 24.7588 34.6147 24.6144 34.3306C24.4856 34.0709 24.4152 33.7595 24.4032 33.3967H28.3644V33.0415C28.3644 32.5325 28.297 32.104 28.162 31.756C28.0271 31.408 27.846 31.1287 27.6187 30.918C27.3914 30.7049 27.1393 30.551 26.8623 30.4563C26.5853 30.3616 26.3048 30.3143 26.0207 30.3143C25.5283 30.3143 25.0974 30.435 24.7281 30.6765C24.3611 30.9156 24.0747 31.2494 23.8687 31.6779C23.6651 32.104 23.5633 32.5965 23.5633 33.1552C23.5633 33.7139 23.6651 34.2039 23.8687 34.6253C24.0747 35.0444 24.367 35.3711 24.7458 35.6055ZM24.4054 32.6722C24.4213 32.4192 24.4851 32.1801 24.5967 31.9549C24.7269 31.6921 24.9127 31.479 25.1542 31.3157C25.3981 31.15 25.6869 31.0671 26.0207 31.0671C26.3237 31.0671 26.5865 31.1369 26.809 31.2766C27.0339 31.4163 27.2068 31.6069 27.3275 31.8484C27.4506 32.0898 27.5122 32.3645 27.5122 32.6722H24.4054Z" fill="#CFD1DE"/>
<path d="M29.6393 30.3853V35.8398H30.4774V32.3881C30.4774 32.1419 30.5365 31.9229 30.6549 31.7312C30.7757 31.537 30.939 31.3855 31.145 31.2766C31.3533 31.1654 31.5901 31.1097 31.8552 31.1097C31.9665 31.1097 32.0718 31.118 32.1713 31.1346C32.2731 31.1488 32.3382 31.1594 32.3666 31.1665V30.3143C32.3192 30.3095 32.2494 30.306 32.157 30.3036C32.0647 30.3012 31.9878 30.3001 31.9262 30.3001C31.5995 30.3001 31.306 30.3841 31.0455 30.5522C30.7851 30.7203 30.6052 30.9393 30.5058 31.2092H30.449V30.3853H29.6393Z" fill="#CFD1DE"/>
<path fill-rule="evenodd" clip-rule="evenodd" d="M34.0241 35.7724C34.3058 35.9026 34.6195 35.9677 34.9651 35.9677C35.2823 35.9677 35.551 35.9203 35.7712 35.8256C35.9914 35.7309 36.1678 35.6161 36.3003 35.4812C36.4329 35.3462 36.5276 35.2196 36.5844 35.1012H36.627V35.8398H37.4651V32.2461C37.4651 31.8128 37.3941 31.4672 37.252 31.2092C37.11 30.9511 36.9313 30.7582 36.7158 30.6303C36.5028 30.5025 36.2814 30.4184 36.0518 30.3782C35.8245 30.3356 35.6233 30.3143 35.4481 30.3143C35.1734 30.3143 34.8941 30.3521 34.61 30.4279C34.3283 30.5013 34.0679 30.6315 33.8287 30.8185C33.592 31.0032 33.4026 31.2612 33.2606 31.5927L34.056 31.8768C34.1483 31.6779 34.3082 31.4909 34.5354 31.3157C34.7627 31.1405 35.0764 31.0529 35.4765 31.0529C35.8624 31.0529 36.15 31.15 36.3394 31.3441C36.5312 31.5382 36.627 31.8105 36.627 32.1609V32.1893C36.627 32.3242 36.5785 32.4189 36.4814 32.4734C36.3867 32.5278 36.2352 32.5669 36.0269 32.5905C35.8209 32.6119 35.5522 32.6438 35.2208 32.6864C34.9675 32.7196 34.7153 32.7645 34.4644 32.8214C34.2158 32.8758 33.9885 32.9587 33.7826 33.0699C33.5766 33.1812 33.4121 33.3351 33.289 33.5316C33.1659 33.7257 33.1043 33.979 33.1043 34.2915C33.1043 34.6467 33.1872 34.9497 33.3529 35.2006C33.5186 35.4492 33.7423 35.6398 34.0241 35.7724ZM35.931 35.0195C35.7037 35.1497 35.4244 35.2148 35.093 35.2148C34.7591 35.2148 34.4833 35.1414 34.2655 34.9947C34.0501 34.8455 33.9424 34.6253 33.9424 34.3342C33.9424 34.1211 33.9992 33.953 34.1128 33.8299C34.2288 33.7044 34.3804 33.6109 34.5674 33.5494C34.7568 33.4854 34.9604 33.4393 35.1782 33.4109C35.2681 33.399 35.3853 33.3848 35.5297 33.3682C35.6765 33.3493 35.8269 33.328 35.9807 33.3043C36.137 33.2783 36.2743 33.2487 36.3927 33.2155C36.5134 33.18 36.5915 33.141 36.627 33.0984V33.8654C36.627 34.0927 36.5679 34.3093 36.4495 34.5153C36.3335 34.7212 36.1607 34.8893 35.931 35.0195Z" fill="#CFD1DE"/>
</svg>
