<svg width="47" height="40" viewBox="0 0 47 40" fill="none" xmlns="http://www.w3.org/2000/svg">
<path fill-rule="evenodd" clip-rule="evenodd" d="M29.4927 2.02261H29.3201C28.9036 0.844244 27.7798 0 26.4588 0H20.391C19.07 0 17.9462 0.844243 17.5297 2.02261H17.3571C15.1229 2.02261 13.3118 3.8337 13.3118 6.06781V20.2261C13.3118 22.4602 15.123 24.2713 17.3571 24.2713H29.4927C31.7268 24.2713 33.5379 22.4602 33.5379 20.2261V6.06782C33.5379 3.83371 31.7268 2.02261 29.4927 2.02261ZM15.3345 6.06781C15.3345 4.95076 16.24 4.04521 17.3571 4.04521C17.3571 5.72079 18.7154 7.07912 20.391 7.07912H26.4588C28.1344 7.07912 29.4927 5.72079 29.4927 4.04521C30.6097 4.04521 31.5153 4.95076 31.5153 6.06782V20.2261C31.5153 21.3431 30.6097 22.2487 29.4927 22.2487H17.3571C16.24 22.2487 15.3345 21.3431 15.3345 20.2261V6.06781ZM20.391 2.02261C19.8324 2.02261 19.3797 2.47538 19.3797 3.03391V4.04521C19.3797 4.60374 19.8324 5.05651 20.391 5.05651H26.4588C27.0173 5.05651 27.4701 4.60374 27.4701 4.04521V3.03391C27.4701 2.47538 27.0173 2.02261 26.4588 2.02261H20.391Z" fill="#CFD1DE"/>
<path fill-rule="evenodd" clip-rule="evenodd" d="M0.697266 29.7273V37H1.57795V34.3438H3.16886C3.73467 34.3438 4.19869 34.2408 4.5609 34.0348C4.92312 33.8265 5.19064 33.5471 5.36346 33.1967C5.53865 32.8464 5.62624 32.4569 5.62624 32.0284C5.62624 31.5999 5.53865 31.2116 5.36346 30.8636C5.18827 30.5156 4.91838 30.2398 4.5538 30.0362C4.19158 29.8303 3.7252 29.7273 3.15465 29.7273H0.697266ZM1.57795 33.5625H3.14045C3.53107 33.5625 3.84476 33.495 4.0815 33.3601C4.31824 33.2251 4.48988 33.0429 4.59641 32.8132C4.70531 32.5812 4.75977 32.3196 4.75977 32.0284C4.75977 31.7372 4.70531 31.4768 4.59641 31.2472C4.48988 31.0175 4.31706 30.8376 4.07795 30.7074C3.83884 30.5748 3.5216 30.5085 3.12624 30.5085H1.57795V33.5625Z" fill="#CFD1DE"/>
<path d="M6.93129 31.5455V37H7.76935V33.5483C7.76935 33.3021 7.82854 33.0831 7.94691 32.8913C8.06765 32.6972 8.231 32.5457 8.43697 32.4368C8.6453 32.3255 8.88204 32.2699 9.14719 32.2699C9.25846 32.2699 9.36381 32.2782 9.46325 32.2947C9.56505 32.3089 9.63015 32.3196 9.65856 32.3267V31.4744C9.61121 31.4697 9.54137 31.4661 9.44904 31.4638C9.35671 31.4614 9.27977 31.4602 9.21822 31.4602C8.89151 31.4602 8.59795 31.5443 8.33754 31.7124C8.07712 31.8804 7.89719 32.0994 7.79776 32.3693H7.74094V31.5455H6.93129Z" fill="#CFD1DE"/>
<path fill-rule="evenodd" clip-rule="evenodd" d="M11.4057 36.7621C11.7774 36.9964 12.2095 37.1136 12.7019 37.1136C13.1943 37.1136 13.6252 36.9964 13.9945 36.7621C14.3662 36.5277 14.655 36.1998 14.861 35.7784C15.0693 35.357 15.1735 34.8646 15.1735 34.3011C15.1735 33.733 15.0693 33.237 14.861 32.8132C14.655 32.3894 14.3662 32.0604 13.9945 31.826C13.6252 31.5916 13.1943 31.4744 12.7019 31.4744C12.2095 31.4744 11.7774 31.5916 11.4057 31.826C11.0364 32.0604 10.7476 32.3894 10.5392 32.8132C10.3333 33.237 10.2303 33.733 10.2303 34.3011C10.2303 34.8646 10.3333 35.357 10.5392 35.7784C10.7476 36.1998 11.0364 36.5277 11.4057 36.7621ZM13.6252 36.0732C13.3837 36.2649 13.0759 36.3608 12.7019 36.3608C12.3278 36.3608 12.0201 36.2649 11.7786 36.0732C11.5371 35.8814 11.3584 35.6293 11.2424 35.3168C11.1264 35.0043 11.0684 34.6657 11.0684 34.3011C11.0684 33.9366 11.1264 33.5968 11.2424 33.282C11.3584 32.9671 11.5371 32.7126 11.7786 32.5185C12.0201 32.3243 12.3278 32.2273 12.7019 32.2273C13.0759 32.2273 13.3837 32.3243 13.6252 32.5185C13.8667 32.7126 14.0454 32.9671 14.1614 33.282C14.2774 33.5968 14.3354 33.9366 14.3354 34.3011C14.3354 34.6657 14.2774 35.0043 14.1614 35.3168C14.0454 35.6293 13.8667 35.8814 13.6252 36.0732Z" fill="#CFD1DE"/>
<path d="M16.4173 39.0099C16.5285 39.0336 16.6552 39.0455 16.7972 39.0455C17.0505 39.0455 17.2778 39.0005 17.479 38.9105C17.6826 38.8205 17.8614 38.6821 18.0153 38.495C18.1692 38.3104 18.2982 38.0772 18.4023 37.7955L20.7177 31.5455H19.8086L18.3029 35.892H18.2461L16.7404 31.5455H15.8313L17.8484 37.0284L17.6921 37.4545C17.5903 37.7315 17.4779 37.9316 17.3548 38.0547C17.234 38.1802 17.0955 38.25 16.9393 38.2642C16.783 38.2784 16.6031 38.2595 16.3995 38.2074L16.1864 38.946C16.229 38.9673 16.306 38.9886 16.4173 39.0099Z" fill="#CFD1DE"/>
<path fill-rule="evenodd" clip-rule="evenodd" d="M22.5554 36.7656C22.9366 36.9976 23.3899 37.1136 23.9155 37.1136C24.2848 37.1136 24.6174 37.0568 24.9134 36.9432C25.2093 36.8272 25.4579 36.6662 25.6591 36.4602C25.8603 36.2519 26.0036 36.0104 26.0888 35.7358L25.2791 35.5085C25.2081 35.6979 25.1075 35.8565 24.9773 35.9844C24.8471 36.1098 24.692 36.2045 24.5121 36.2685C24.3345 36.33 24.1357 36.3608 23.9155 36.3608C23.5769 36.3608 23.2798 36.2874 23.0241 36.1406C22.7685 35.9915 22.5684 35.7749 22.424 35.4908C22.2952 35.231 22.2248 34.9197 22.2128 34.5568H26.174V34.2017C26.174 33.6927 26.1065 33.2642 25.9716 32.9162C25.8366 32.5682 25.6555 32.2888 25.4283 32.0781C25.201 31.8651 24.9489 31.7112 24.6719 31.6165C24.3949 31.5218 24.1143 31.4744 23.8303 31.4744C23.3378 31.4744 22.907 31.5952 22.5376 31.8366C22.1707 32.0758 21.8842 32.4096 21.6783 32.8381C21.4747 33.2642 21.3729 33.7566 21.3729 34.3153C21.3729 34.8741 21.4747 35.3641 21.6783 35.7855C21.8842 36.2045 22.1766 36.5312 22.5554 36.7656ZM22.2149 33.8324C22.2309 33.5794 22.2947 33.3403 22.4062 33.1151C22.5365 32.8523 22.7223 32.6392 22.9638 32.4759C23.2076 32.3101 23.4964 32.2273 23.8303 32.2273C24.1333 32.2273 24.3961 32.2971 24.6186 32.4368C24.8435 32.5765 25.0163 32.767 25.1371 33.0085C25.2602 33.25 25.3217 33.5246 25.3217 33.8324H22.2149Z" fill="#CFD1DE"/>
<path d="M28.3438 36.7514C28.7131 36.9929 29.1534 37.1136 29.6648 37.1136C30.0672 37.1136 30.42 37.0391 30.723 36.8899C31.0284 36.7384 31.2734 36.5348 31.4581 36.2791C31.6451 36.0211 31.7623 35.7311 31.8097 35.4091H30.9716C30.9195 35.608 30.8319 35.7784 30.7088 35.9205C30.5857 36.0625 30.4354 36.1714 30.2578 36.2472C30.0803 36.3229 29.8826 36.3608 29.6648 36.3608C29.3333 36.3608 29.0445 36.2744 28.7983 36.1016C28.5545 35.9287 28.3651 35.6861 28.2301 35.3736C28.0975 35.0611 28.0312 34.6941 28.0312 34.2727C28.0312 33.8608 28.0987 33.5021 28.2337 33.1967C28.371 32.889 28.5616 32.651 28.8054 32.483C29.0516 32.3125 29.3381 32.2273 29.6648 32.2273C30.0341 32.2273 30.3277 32.3243 30.5455 32.5185C30.7656 32.7102 30.9077 32.9304 30.9716 33.179H31.8097C31.7623 32.8381 31.6404 32.5398 31.4439 32.2841C31.2474 32.0284 30.9953 31.8295 30.6875 31.6875C30.3797 31.5455 30.0341 31.4744 29.6506 31.4744C29.1581 31.4744 28.7273 31.5952 28.358 31.8366C27.991 32.0758 27.7045 32.4084 27.4986 32.8345C27.295 33.2583 27.1932 33.7472 27.1932 34.3011C27.1932 34.8456 27.2926 35.3298 27.4915 35.7536C27.6903 36.1773 27.9744 36.5099 28.3438 36.7514Z" fill="#CFD1DE"/>
<path d="M35.407 32.2557V31.5455H34.2422V30.2386H33.4041V31.5455H32.5803V32.2557H33.4041V35.6648C33.4041 35.982 33.4775 36.2448 33.6243 36.4531C33.7734 36.6615 33.9605 36.8165 34.1854 36.9183C34.4126 37.0201 34.6447 37.071 34.8814 37.071C35.0376 37.071 35.1667 37.0592 35.2685 37.0355C35.3703 37.0142 35.4496 36.9929 35.5064 36.9716L35.3359 36.2188L35.1939 36.2472C35.1347 36.2566 35.059 36.2614 34.9666 36.2614C34.8435 36.2614 34.7263 36.2424 34.6151 36.2045C34.5062 36.1643 34.4162 36.0862 34.3452 35.9702C34.2765 35.8518 34.2422 35.6742 34.2422 35.4375V32.2557H35.407Z" fill="#CFD1DE"/>
<path fill-rule="evenodd" clip-rule="evenodd" d="M37.5288 36.7621C37.9005 36.9964 38.3325 37.1136 38.8249 37.1136C39.3174 37.1136 39.7482 36.9964 40.1175 36.7621C40.4892 36.5277 40.7781 36.1998 40.984 35.7784C41.1924 35.357 41.2965 34.8646 41.2965 34.3011C41.2965 33.733 41.1924 33.237 40.984 32.8132C40.7781 32.3894 40.4892 32.0604 40.1175 31.826C39.7482 31.5916 39.3174 31.4744 38.8249 31.4744C38.3325 31.4744 37.9005 31.5916 37.5288 31.826C37.1594 32.0604 36.8706 32.3894 36.6623 32.8132C36.4563 33.237 36.3533 33.733 36.3533 34.3011C36.3533 34.8646 36.4563 35.357 36.6623 35.7784C36.8706 36.1998 37.1594 36.5277 37.5288 36.7621ZM39.7482 36.0732C39.5067 36.2649 39.199 36.3608 38.8249 36.3608C38.4509 36.3608 38.1431 36.2649 37.9016 36.0732C37.6602 35.8814 37.4814 35.6293 37.3654 35.3168C37.2494 35.0043 37.1914 34.6657 37.1914 34.3011C37.1914 33.9366 37.2494 33.5968 37.3654 33.282C37.4814 32.9671 37.6602 32.7126 37.9016 32.5185C38.1431 32.3243 38.4509 32.2273 38.8249 32.2273C39.199 32.2273 39.5067 32.3243 39.7482 32.5185C39.9897 32.7126 40.1684 32.9671 40.2844 33.282C40.4005 33.5968 40.4585 33.9366 40.4585 34.3011C40.4585 34.6657 40.4005 35.0043 40.2844 35.3168C40.1684 35.6293 39.9897 35.8814 39.7482 36.0732Z" fill="#CFD1DE"/>
<path d="M45.6866 32.9801L46.4395 32.767C46.3092 32.3788 46.0891 32.0663 45.7789 31.8295C45.4712 31.5928 45.0474 31.4744 44.5076 31.4744C44.1241 31.4744 43.7808 31.5419 43.4778 31.6768C43.1771 31.8118 42.9392 31.9976 42.764 32.2344C42.5912 32.4711 42.5048 32.7434 42.5048 33.0511C42.5048 33.4276 42.6208 33.7412 42.8528 33.9922C43.0872 34.2408 43.4541 34.4242 43.9537 34.5426L44.8628 34.7557C45.1374 34.8196 45.341 34.9167 45.4735 35.0469C45.6061 35.1747 45.6724 35.3333 45.6724 35.5227C45.6724 35.7571 45.5564 35.9583 45.3244 36.1264C45.0948 36.2921 44.7846 36.375 44.394 36.375C44.0507 36.375 43.7726 36.3016 43.5595 36.1548C43.3488 36.008 43.2056 35.7879 43.1298 35.4943L42.3343 35.6932C42.4314 36.1572 42.6622 36.5099 43.0268 36.7514C43.3914 36.9929 43.8519 37.1136 44.4082 37.1136C44.832 37.1136 45.2037 37.0426 45.5233 36.9006C45.8429 36.7585 46.0914 36.5644 46.269 36.3182C46.4489 36.072 46.5389 35.7926 46.5389 35.4801C46.5389 35.099 46.4193 34.7876 46.1802 34.5462C45.9411 34.3023 45.5777 34.1212 45.09 34.0028L44.2804 33.804C43.9584 33.7235 43.7217 33.6229 43.5701 33.5021C43.4186 33.3814 43.3429 33.2169 43.3429 33.0085C43.3429 32.7741 43.4529 32.5812 43.6731 32.4297C43.8957 32.2758 44.1738 32.1989 44.5076 32.1989C44.7515 32.1989 44.9515 32.2379 45.1078 32.3161C45.264 32.3942 45.3871 32.4936 45.4771 32.6143C45.5694 32.7327 45.6393 32.8546 45.6866 32.9801Z" fill="#CFD1DE"/>
</svg>
