<svg width="69" height="51" viewBox="0 0 69 51" fill="none" xmlns="http://www.w3.org/2000/svg">
<path fill-rule="evenodd" clip-rule="evenodd" d="M68.8058 26.6816C68.8057 26.6817 68.8057 26.6817 68.8057 26.6818V38.752C68.8057 41.2249 67.3116 43.4526 65.0238 44.3911L50.0136 50.5481C50.0133 50.5482 50.0131 50.5485 50.0131 50.5489C50.0131 50.5494 50.0125 50.5498 50.012 50.5496L5.8768 35.307C2.80567 34.2464 0.745117 31.3548 0.745117 28.1056V1.79361C0.745117 1.79202 0.746877 1.79106 0.748214 1.79192L0.74966 1.79285C0.750175 1.79319 0.750781 1.79335 0.751393 1.79332L36.5983 0.131545C38.1968 0.057439 39.7604 0.615003 40.9514 1.68385L68.8009 26.677C68.8015 26.6775 68.8023 26.6776 68.803 26.6774C68.8043 26.6769 68.8057 26.6778 68.8057 26.6793V26.6812C68.8057 26.6812 68.8057 26.6813 68.8058 26.6813L68.8058 26.6814C68.8059 26.6815 68.8059 26.6816 68.8058 26.6816Z" fill="#02195B"/>
</svg>
