<svg width="47" height="40" viewBox="0 0 47 40" fill="none" xmlns="http://www.w3.org/2000/svg">
<path fill-rule="evenodd" clip-rule="evenodd" d="M29.0689 2.13589H28.8962C28.4797 0.957525 27.3559 0.113281 26.035 0.113281H19.9671C18.6462 0.113281 17.5224 0.957525 17.1059 2.13589H16.9332C14.6991 2.13589 12.888 3.94699 12.888 6.1811V20.3393C12.888 22.5734 14.6991 24.3846 16.9332 24.3846H29.0689C31.303 24.3846 33.1141 22.5735 33.1141 20.3393V6.1811C33.1141 3.94699 31.303 2.13589 29.0689 2.13589ZM14.9106 6.1811C14.9106 5.06404 15.8162 4.15849 16.9332 4.15849C16.9332 5.83407 18.2916 7.1924 19.9671 7.1924H26.035C27.7105 7.1924 29.0689 5.83407 29.0689 4.15849C30.1859 4.15849 31.0915 5.06404 31.0915 6.1811V20.3393C31.0915 21.4564 30.1859 22.3619 29.0689 22.3619H16.9332C15.8162 22.3619 14.9106 21.4564 14.9106 20.3393V6.1811ZM19.9671 2.13589C19.4086 2.13589 18.9558 2.58866 18.9558 3.14719V4.15849C18.9558 4.71702 19.4086 5.1698 19.9671 5.1698H26.035C26.5935 5.1698 27.0463 4.71702 27.0463 4.15849V3.14719C27.0463 2.58866 26.5935 2.13589 26.035 2.13589H19.9671Z" fill="#CFD1DE"/>
<path fill-rule="evenodd" clip-rule="evenodd" d="M0.272461 29.8406V37.1133H1.15314V34.457H2.74405C3.30987 34.457 3.77388 34.354 4.1361 34.1481C4.49831 33.9398 4.76583 33.6604 4.93865 33.31C5.11384 32.9596 5.20144 32.5702 5.20144 32.1417C5.20144 31.7132 5.11384 31.3249 4.93865 30.9769C4.76346 30.6289 4.49358 30.3531 4.12899 30.1495C3.76678 29.9435 3.3004 29.8406 2.72985 29.8406H0.272461ZM1.15314 33.6758H2.71564C3.10627 33.6758 3.41995 33.6083 3.65669 33.4734C3.89344 33.3384 4.06507 33.1561 4.17161 32.9265C4.28051 32.6945 4.33496 32.4329 4.33496 32.1417C4.33496 31.8505 4.28051 31.5901 4.17161 31.3604C4.06507 31.1308 3.89225 30.9509 3.65314 30.8207C3.41403 30.6881 3.0968 30.6218 2.70144 30.6218H1.15314V33.6758Z" fill="#CFD1DE"/>
<path d="M6.50648 31.6587V37.1133H7.34455V33.6616C7.34455 33.4154 7.40373 33.1964 7.52211 33.0046C7.64284 32.8105 7.8062 32.659 8.01216 32.5501C8.2205 32.4388 8.45724 32.3832 8.72239 32.3832C8.83366 32.3832 8.93901 32.3915 9.03844 32.408C9.14024 32.4222 9.20534 32.4329 9.23375 32.44V31.5877C9.18641 31.583 9.11657 31.5794 9.02424 31.5771C8.93191 31.5747 8.85497 31.5735 8.79341 31.5735C8.46671 31.5735 8.17315 31.6576 7.91273 31.8256C7.65231 31.9937 7.47239 32.2127 7.37296 32.4826H7.31614V31.6587H6.50648Z" fill="#CFD1DE"/>
<path fill-rule="evenodd" clip-rule="evenodd" d="M10.9809 36.8754C11.3526 37.1097 11.7847 37.2269 12.2771 37.2269C12.7695 37.2269 13.2004 37.1097 13.5697 36.8754C13.9414 36.641 14.2302 36.3131 14.4362 35.8917C14.6445 35.4703 14.7487 34.9779 14.7487 34.4144C14.7487 33.8462 14.6445 33.3503 14.4362 32.9265C14.2302 32.5027 13.9414 32.1736 13.5697 31.9393C13.2004 31.7049 12.7695 31.5877 12.2771 31.5877C11.7847 31.5877 11.3526 31.7049 10.9809 31.9393C10.6116 32.1736 10.3228 32.5027 10.1144 32.9265C9.90847 33.3503 9.80549 33.8462 9.80549 34.4144C9.80549 34.9779 9.90847 35.4703 10.1144 35.8917C10.3228 36.3131 10.6116 36.641 10.9809 36.8754ZM13.2004 36.1864C12.9589 36.3782 12.6511 36.4741 12.2771 36.4741C11.903 36.4741 11.5953 36.3782 11.3538 36.1864C11.1123 35.9947 10.9336 35.7425 10.8176 35.43C10.7016 35.1175 10.6436 34.779 10.6436 34.4144C10.6436 34.0498 10.7016 33.7101 10.8176 33.3952C10.9336 33.0804 11.1123 32.8259 11.3538 32.6317C11.5953 32.4376 11.903 32.3406 12.2771 32.3406C12.6511 32.3406 12.9589 32.4376 13.2004 32.6317C13.4418 32.8259 13.6206 33.0804 13.7366 33.3952C13.8526 33.7101 13.9106 34.0498 13.9106 34.4144C13.9106 34.779 13.8526 35.1175 13.7366 35.43C13.6206 35.7425 13.4418 35.9947 13.2004 36.1864Z" fill="#CFD1DE"/>
<path d="M15.9925 39.1232C16.1037 39.1469 16.2304 39.1587 16.3724 39.1587C16.6257 39.1587 16.853 39.1138 17.0542 39.0238C17.2578 38.9338 17.4366 38.7953 17.5905 38.6083C17.7443 38.4236 17.8734 38.1905 17.9775 37.9087L20.2929 31.6587H19.3838L17.8781 36.0053H17.8213L16.3156 31.6587H15.4065L17.4236 37.1417L17.2673 37.5678C17.1655 37.8448 17.0531 38.0449 16.93 38.168C16.8092 38.2934 16.6707 38.3633 16.5145 38.3775C16.3582 38.3917 16.1783 38.3727 15.9747 38.3207L15.7616 39.0593C15.8042 39.0806 15.8812 39.1019 15.9925 39.1232Z" fill="#CFD1DE"/>
<path fill-rule="evenodd" clip-rule="evenodd" d="M22.1306 36.8789C22.5117 37.1109 22.9651 37.2269 23.4907 37.2269C23.86 37.2269 24.1926 37.1701 24.4885 37.0565C24.7845 36.9405 25.0331 36.7795 25.2343 36.5735C25.4355 36.3652 25.5787 36.1237 25.664 35.8491L24.8543 35.6218C24.7833 35.8112 24.6827 35.9698 24.5525 36.0977C24.4223 36.2231 24.2672 36.3178 24.0873 36.3817C23.9097 36.4433 23.7108 36.4741 23.4907 36.4741C23.1521 36.4741 22.855 36.4007 22.5993 36.2539C22.3437 36.1048 22.1436 35.8881 21.9992 35.604C21.8704 35.3443 21.8 35.033 21.788 34.6701H25.7492V34.315C25.7492 33.806 25.6817 33.3775 25.5468 33.0295C25.4118 32.6815 25.2307 32.4021 25.0035 32.1914C24.7762 31.9783 24.5241 31.8245 24.2471 31.7298C23.9701 31.6351 23.6895 31.5877 23.4055 31.5877C22.913 31.5877 22.4822 31.7085 22.1128 31.9499C21.7459 32.189 21.4594 32.5228 21.2535 32.9514C21.0499 33.3775 20.9481 33.8699 20.9481 34.4286C20.9481 34.9873 21.0499 35.4774 21.2535 35.8988C21.4594 36.3178 21.7518 36.6445 22.1306 36.8789ZM21.7901 33.9457C21.8061 33.6926 21.8699 33.4535 21.9814 33.2283C22.1117 32.9656 22.2975 32.7525 22.539 32.5891C22.7828 32.4234 23.0716 32.3406 23.4055 32.3406C23.7085 32.3406 23.9713 32.4104 24.1938 32.5501C24.4187 32.6898 24.5915 32.8803 24.7123 33.1218C24.8354 33.3633 24.8969 33.6379 24.8969 33.9457H21.7901Z" fill="#CFD1DE"/>
<path d="M27.9189 36.8647C28.2883 37.1062 28.7286 37.2269 29.24 37.2269C29.6424 37.2269 29.9952 37.1523 30.2982 37.0032C30.6036 36.8517 30.8486 36.6481 31.0333 36.3924C31.2203 36.1343 31.3375 35.8443 31.3849 35.5224H30.5468C30.4947 35.7212 30.4071 35.8917 30.284 36.0337C30.1609 36.1758 30.0106 36.2847 29.833 36.3604C29.6555 36.4362 29.4578 36.4741 29.24 36.4741C28.9085 36.4741 28.6197 36.3877 28.3735 36.2148C28.1296 36.042 27.9403 35.7994 27.8053 35.4869C27.6727 35.1744 27.6064 34.8074 27.6064 34.386C27.6064 33.9741 27.6739 33.6154 27.8089 33.31C27.9462 33.0023 28.1367 32.7643 28.3806 32.5962C28.6268 32.4258 28.9133 32.3406 29.24 32.3406C29.6093 32.3406 29.9028 32.4376 30.1206 32.6317C30.3408 32.8235 30.4829 33.0437 30.5468 33.2923H31.3849C31.3375 32.9514 31.2156 32.6531 31.0191 32.3974C30.8226 32.1417 30.5705 31.9428 30.2627 31.8008C29.9549 31.6587 29.6093 31.5877 29.2258 31.5877C28.7333 31.5877 28.3025 31.7085 27.9331 31.9499C27.5662 32.189 27.2797 32.5217 27.0738 32.9478C26.8702 33.3716 26.7684 33.8604 26.7684 34.4144C26.7684 34.9589 26.8678 35.4431 27.0667 35.8668C27.2655 36.2906 27.5496 36.6232 27.9189 36.8647Z" fill="#CFD1DE"/>
<path d="M34.9822 32.369V31.6587H33.8174V30.3519H32.9793V31.6587H32.1555V32.369H32.9793V35.7781C32.9793 36.0953 33.0527 36.3581 33.1995 36.5664C33.3486 36.7747 33.5357 36.9298 33.7606 37.0316C33.9878 37.1334 34.2198 37.1843 34.4566 37.1843C34.6128 37.1843 34.7419 37.1725 34.8437 37.1488C34.9455 37.1275 35.0248 37.1062 35.0816 37.0849L34.9111 36.332L34.7691 36.3604C34.7099 36.3699 34.6341 36.3746 34.5418 36.3746C34.4187 36.3746 34.3015 36.3557 34.1903 36.3178C34.0814 36.2776 33.9914 36.1995 33.9204 36.0835C33.8517 35.9651 33.8174 35.7875 33.8174 35.5508V32.369H34.9822Z" fill="#CFD1DE"/>
<path fill-rule="evenodd" clip-rule="evenodd" d="M37.104 36.8754C37.4756 37.1097 37.9077 37.2269 38.4001 37.2269C38.8925 37.2269 39.3234 37.1097 39.6927 36.8754C40.0644 36.641 40.3532 36.3131 40.5592 35.8917C40.7675 35.4703 40.8717 34.9779 40.8717 34.4144C40.8717 33.8462 40.7675 33.3503 40.5592 32.9265C40.3532 32.5027 40.0644 32.1736 39.6927 31.9393C39.3234 31.7049 38.8925 31.5877 38.4001 31.5877C37.9077 31.5877 37.4756 31.7049 37.104 31.9393C36.7346 32.1736 36.4458 32.5027 36.2375 32.9265C36.0315 33.3503 35.9285 33.8462 35.9285 34.4144C35.9285 34.9779 36.0315 35.4703 36.2375 35.8917C36.4458 36.3131 36.7346 36.641 37.104 36.8754ZM39.3234 36.1864C39.0819 36.3782 38.7742 36.4741 38.4001 36.4741C38.0261 36.4741 37.7183 36.3782 37.4768 36.1864C37.2354 35.9947 37.0566 35.7425 36.9406 35.43C36.8246 35.1175 36.7666 34.779 36.7666 34.4144C36.7666 34.0498 36.8246 33.7101 36.9406 33.3952C37.0566 33.0804 37.2354 32.8259 37.4768 32.6317C37.7183 32.4376 38.0261 32.3406 38.4001 32.3406C38.7742 32.3406 39.0819 32.4376 39.3234 32.6317C39.5649 32.8259 39.7436 33.0804 39.8596 33.3952C39.9756 33.7101 40.0336 34.0498 40.0336 34.4144C40.0336 34.779 39.9756 35.1175 39.8596 35.43C39.7436 35.7425 39.5649 35.9947 39.3234 36.1864Z" fill="#CFD1DE"/>
<path d="M45.2618 33.0934L46.0146 32.8803C45.8844 32.4921 45.6643 32.1796 45.3541 31.9428C45.0464 31.7061 44.6226 31.5877 44.0828 31.5877C43.6993 31.5877 43.356 31.6552 43.053 31.7901C42.7523 31.9251 42.5144 32.1109 42.3392 32.3477C42.1664 32.5844 42.08 32.8567 42.08 33.1644C42.08 33.5408 42.196 33.8545 42.428 34.1055C42.6624 34.354 43.0293 34.5375 43.5289 34.6559L44.4379 34.869C44.7126 34.9329 44.9162 35.0299 45.0487 35.1602C45.1813 35.288 45.2476 35.4466 45.2476 35.636C45.2476 35.8704 45.1316 36.0716 44.8996 36.2397C44.67 36.4054 44.3598 36.4883 43.9692 36.4883C43.6259 36.4883 43.3477 36.4149 43.1347 36.2681C42.924 36.1213 42.7807 35.9012 42.705 35.6076L41.9095 35.8065C42.0066 36.2705 42.2374 36.6232 42.602 36.8647C42.9666 37.1062 43.4271 37.2269 43.9834 37.2269C44.4072 37.2269 44.7789 37.1559 45.0985 37.0139C45.4181 36.8718 45.6666 36.6777 45.8442 36.4315C46.0241 36.1852 46.1141 35.9059 46.1141 35.5934C46.1141 35.2122 45.9945 34.9009 45.7554 34.6594C45.5163 34.4156 45.1529 34.2345 44.6652 34.1161L43.8556 33.9173C43.5336 33.8368 43.2968 33.7361 43.1453 33.6154C42.9938 33.4947 42.9181 33.3301 42.9181 33.1218C42.9181 32.8874 43.0281 32.6945 43.2483 32.543C43.4709 32.3891 43.749 32.3121 44.0828 32.3121C44.3267 32.3121 44.5267 32.3512 44.683 32.4293C44.8392 32.5075 44.9623 32.6069 45.0523 32.7276C45.1446 32.846 45.2145 32.9679 45.2618 33.0934Z" fill="#CFD1DE"/>
</svg>
