<svg width="38" height="36" viewBox="0 0 38 36" fill="none" xmlns="http://www.w3.org/2000/svg">
<path fill-rule="evenodd" clip-rule="evenodd" d="M10.9374 0.0351562C8.70617 0.0351562 6.8974 1.84392 6.8974 4.07516V18.2412C6.8974 20.4724 8.70618 22.2812 10.9374 22.2812H27.0608C29.2921 22.2812 31.1008 20.4724 31.1008 18.2412V8.02585C31.1008 5.79462 29.292 3.98585 27.0608 3.98585H10.4114C9.85378 3.98585 9.4017 3.53378 9.4017 2.97611C9.4017 2.91056 9.39546 2.84646 9.38353 2.78439C9.75406 2.33882 10.3126 2.05516 10.9374 2.05516H28.0947C28.6525 2.05516 29.1047 1.60296 29.1047 1.04516C29.1047 0.487349 28.6525 0.0351562 28.0947 0.0351562H10.9374ZM8.9174 18.2412V5.61247C9.3583 5.86286 9.86817 6.00585 10.4114 6.00585H27.0608C28.1764 6.00585 29.0808 6.91024 29.0808 8.02585V18.2412C29.0808 19.3568 28.1764 20.2612 27.0608 20.2612H10.9374C9.82179 20.2612 8.9174 19.3568 8.9174 18.2412Z" fill="#CFD1DE"/>
<path fill-rule="evenodd" clip-rule="evenodd" d="M0.783203 27.7275V35.0002H3.41104C3.98396 35.0002 4.44916 34.915 4.80664 34.7446C5.16412 34.5741 5.42572 34.3433 5.59144 34.0521C5.75716 33.7609 5.84002 33.433 5.84002 33.0684C5.84002 32.6849 5.76426 32.3606 5.61275 32.0954C5.46123 31.8303 5.27302 31.6267 5.04812 31.4846C4.82321 31.3426 4.59949 31.2644 4.37695 31.2502V31.1792C4.58529 31.1224 4.77823 31.0348 4.95579 30.9164C5.13571 30.7981 5.28013 30.6371 5.38903 30.4335C5.5003 30.2299 5.55593 29.9718 5.55593 29.6593C5.55593 29.3042 5.47544 28.9811 5.31445 28.6899C5.15347 28.3963 4.90844 28.1631 4.57937 27.9903C4.2503 27.8151 3.83245 27.7275 3.32582 27.7275H0.783203ZM3.41104 34.219H1.66388V31.6906H3.45366C3.77089 31.6906 4.04551 31.7545 4.27752 31.8823C4.50953 32.0078 4.68827 32.1759 4.81374 32.3866C4.93922 32.5949 5.00195 32.8222 5.00195 33.0684C5.00195 33.388 4.88003 33.6603 4.63619 33.8852C4.39471 34.1077 3.98633 34.219 3.41104 34.219ZM3.29741 30.9235H1.66388V28.5088H3.32582C3.80877 28.5088 4.16152 28.6212 4.38406 28.8461C4.60659 29.0687 4.71786 29.3397 4.71786 29.6593C4.71786 29.915 4.65394 30.1375 4.5261 30.3269C4.40063 30.5163 4.23017 30.6631 4.01474 30.7673C3.80167 30.8714 3.56256 30.9235 3.29741 30.9235Z" fill="#CFD1DE"/>
<path d="M7.17347 29.5457V35.0002H8.01154V29.5457H7.17347Z" fill="#CFD1DE"/>
<path d="M7.17702 28.4697C7.2954 28.581 7.43626 28.6366 7.59961 28.6366C7.76296 28.6366 7.90264 28.581 8.01864 28.4697C8.13701 28.3584 8.1962 28.2247 8.1962 28.0684C8.1962 27.9122 8.13701 27.7784 8.01864 27.6671C7.90264 27.5559 7.76296 27.5002 7.59961 27.5002C7.43626 27.5002 7.2954 27.5559 7.17702 27.6671C7.06102 27.7784 7.00302 27.9122 7.00302 28.0684C7.00302 28.2247 7.06102 28.3584 7.17702 28.4697Z" fill="#CFD1DE"/>
<path d="M10.3846 35.0002V27.7275H9.54652V35.0002H10.3846Z" fill="#CFD1DE"/>
<path d="M12.7576 35.0002V27.7275H11.9196V35.0002H12.7576Z" fill="#CFD1DE"/>
<path fill-rule="evenodd" clip-rule="evenodd" d="M15.2195 34.7659C15.6006 34.9979 16.054 35.1139 16.5795 35.1139C16.9489 35.1139 17.2815 35.0571 17.5774 34.9434C17.8733 34.8274 18.1219 34.6664 18.3232 34.4605C18.5244 34.2521 18.6676 34.0107 18.7528 33.736L17.9432 33.5088C17.8722 33.6982 17.7715 33.8568 17.6413 33.9846C17.5111 34.1101 17.3561 34.2048 17.1761 34.2687C16.9986 34.3303 16.7997 34.361 16.5795 34.361C16.241 34.361 15.9439 34.2876 15.6882 34.1409C15.4325 33.9917 15.2325 33.7751 15.0881 33.491C14.9593 33.2313 14.8889 32.9199 14.8769 32.5571H18.8381V32.2019C18.8381 31.6929 18.7706 31.2644 18.6357 30.9164C18.5007 30.5684 18.3196 30.2891 18.0923 30.0784C17.8651 29.8653 17.6129 29.7114 17.3359 29.6167C17.0589 29.522 16.7784 29.4747 16.4943 29.4747C16.0019 29.4747 15.571 29.5954 15.2017 29.8369C14.8348 30.076 14.5483 30.4098 14.3423 30.8383C14.1387 31.2644 14.0369 31.7569 14.0369 32.3156C14.0369 32.8743 14.1387 33.3643 14.3423 33.7857C14.5483 34.2048 14.8407 34.5315 15.2195 34.7659ZM14.879 31.8326C14.895 31.5796 14.9587 31.3405 15.0703 31.1153C15.2005 30.8525 15.3864 30.6394 15.6278 30.4761C15.8717 30.3104 16.1605 30.2275 16.4943 30.2275C16.7973 30.2275 17.0601 30.2973 17.2827 30.437C17.5076 30.5767 17.6804 30.7673 17.8011 31.0088C17.9242 31.2502 17.9858 31.5249 17.9858 31.8326H14.879Z" fill="#CFD1DE"/>
<path d="M22.4851 30.2559V29.5457H21.3203V28.2389H20.4822V29.5457H19.6584V30.2559H20.4822V33.665C20.4822 33.9822 20.5556 34.245 20.7024 34.4534C20.8516 34.6617 21.0386 34.8168 21.2635 34.9186C21.4908 35.0204 21.7228 35.0713 21.9595 35.0713C22.1158 35.0713 22.2448 35.0594 22.3466 35.0357C22.4484 35.0144 22.5277 34.9931 22.5845 34.9718L22.4141 34.219L22.272 34.2474C22.2128 34.2569 22.1371 34.2616 22.0447 34.2616C21.9216 34.2616 21.8045 34.2427 21.6932 34.2048C21.5843 34.1645 21.4943 34.0864 21.4233 33.9704C21.3546 33.852 21.3203 33.6745 21.3203 33.4377V30.2559H22.4851Z" fill="#CFD1DE"/>
<path fill-rule="evenodd" clip-rule="evenodd" d="M24.614 34.7659C24.9951 34.9979 25.4485 35.1139 25.9741 35.1139C26.3434 35.1139 26.676 35.0571 26.9719 34.9434C27.2679 34.8274 27.5165 34.6664 27.7177 34.4605C27.9189 34.2521 28.0621 34.0107 28.1474 33.736L27.3377 33.5088C27.2667 33.6982 27.1661 33.8568 27.0359 33.9846C26.9057 34.1101 26.7506 34.2048 26.5707 34.2687C26.3931 34.3303 26.1942 34.361 25.9741 34.361C25.6355 34.361 25.3384 34.2876 25.0827 34.1409C24.8271 33.9917 24.627 33.7751 24.4826 33.491C24.3538 33.2313 24.2834 32.9199 24.2714 32.5571H28.2326V32.2019C28.2326 31.6929 28.1651 31.2644 28.0302 30.9164C27.8952 30.5684 27.7141 30.2891 27.4869 30.0784C27.2596 29.8653 27.0075 29.7114 26.7305 29.6167C26.4535 29.522 26.1729 29.4747 25.8888 29.4747C25.3964 29.4747 24.9656 29.5954 24.5962 29.8369C24.2293 30.076 23.9428 30.4098 23.7369 30.8383C23.5333 31.2644 23.4315 31.7569 23.4315 32.3156C23.4315 32.8743 23.5333 33.3643 23.7369 33.7857C23.9428 34.2048 24.2352 34.5315 24.614 34.7659ZM24.2735 31.8326C24.2895 31.5796 24.3533 31.3405 24.4648 31.1153C24.5951 30.8525 24.7809 30.6394 25.0224 30.4761C25.2662 30.3104 25.555 30.2275 25.8888 30.2275C26.1919 30.2275 26.4547 30.2973 26.6772 30.437C26.9021 30.5767 27.0749 30.7673 27.1957 31.0088C27.3188 31.2502 27.3803 31.5249 27.3803 31.8326H24.2735Z" fill="#CFD1DE"/>
<path d="M29.5075 29.5457V35.0002H30.3455V31.5485C30.3455 31.3023 30.4047 31.0833 30.5231 30.8916C30.6438 30.6974 30.8072 30.5459 31.0131 30.437C31.2215 30.3258 31.4582 30.2701 31.7234 30.2701C31.8346 30.2701 31.94 30.2784 32.0394 30.295C32.1412 30.3092 32.2063 30.3198 32.2347 30.3269V29.4747C32.1874 29.4699 32.1175 29.4664 32.0252 29.464C31.9329 29.4616 31.8559 29.4605 31.7944 29.4605C31.4677 29.4605 31.1741 29.5445 30.9137 29.7126C30.6533 29.8807 30.4734 30.0997 30.3739 30.3696H30.3171V29.5457H29.5075Z" fill="#CFD1DE"/>
<path fill-rule="evenodd" clip-rule="evenodd" d="M33.8922 34.9328C34.174 35.063 34.4876 35.1281 34.8333 35.1281C35.1505 35.1281 35.4192 35.0807 35.6394 34.986C35.8596 34.8913 36.0359 34.7765 36.1685 34.6416C36.3011 34.5066 36.3958 34.38 36.4526 34.2616H36.4952V35.0002H37.3333V31.4065C37.3333 30.9732 37.2623 30.6276 37.1202 30.3696C36.9782 30.1115 36.7994 29.9186 36.584 29.7907C36.3709 29.6629 36.1496 29.5788 35.9199 29.5386C35.6926 29.496 35.4914 29.4747 35.3162 29.4747C35.0416 29.4747 34.7623 29.5125 34.4782 29.5883C34.1964 29.6617 33.936 29.7919 33.6969 29.9789C33.4602 30.1636 33.2708 30.4216 33.1287 30.7531L33.9242 31.0372C34.0165 30.8383 34.1763 30.6513 34.4036 30.4761C34.6309 30.3009 34.9445 30.2133 35.3446 30.2133C35.7305 30.2133 36.0182 30.3104 36.2076 30.5045C36.3993 30.6986 36.4952 30.9709 36.4952 31.3213V31.3497C36.4952 31.4846 36.4467 31.5793 36.3496 31.6338C36.2549 31.6882 36.1034 31.7273 35.8951 31.7509C35.6891 31.7723 35.4204 31.8042 35.089 31.8468C34.8356 31.88 34.5835 31.9249 34.3326 31.9818C34.084 32.0362 33.8567 32.1191 33.6507 32.2303C33.4448 32.3416 33.2802 32.4955 33.1571 32.692C33.034 32.8861 32.9725 33.1394 32.9725 33.4519C32.9725 33.8071 33.0553 34.1101 33.2211 34.361C33.3868 34.6096 33.6105 34.8002 33.8922 34.9328ZM35.7992 34.1799C35.5719 34.3101 35.2926 34.3752 34.9611 34.3752C34.6273 34.3752 34.3515 34.3018 34.1337 34.1551C33.9183 34.0059 33.8105 33.7857 33.8105 33.4946C33.8105 33.2815 33.8674 33.1134 33.981 32.9903C34.097 32.8648 34.2485 32.7713 34.4355 32.7098C34.6249 32.6458 34.8285 32.5997 35.0463 32.5713C35.1363 32.5594 35.2535 32.5452 35.3979 32.5286C35.5447 32.5097 35.695 32.4884 35.8489 32.4647C36.0051 32.4387 36.1425 32.4091 36.2608 32.3759C36.3816 32.3404 36.4597 32.3014 36.4952 32.2588V33.0258C36.4952 33.2531 36.436 33.4697 36.3176 33.6757C36.2016 33.8816 36.0288 34.0497 35.7992 34.1799Z" fill="#CFD1DE"/>
</svg>
