<svg width="28" height="38" viewBox="0 0 28 38" fill="none" xmlns="http://www.w3.org/2000/svg">
<path fill-rule="evenodd" clip-rule="evenodd" d="M14.2989 0.196962C13.9423 -0.0656538 13.4563 -0.0656538 13.0996 0.196962L4.22156 6.73445C3.18621 7.49685 2.57496 8.70605 2.57496 9.99182V20.7317C2.57496 22.6866 4.15968 24.2713 6.11452 24.2713H9.65408C10.7711 24.2713 11.6767 23.3657 11.6767 22.2487V16.6865H15.7219V22.2487C15.7219 23.3657 16.6274 24.2713 17.7445 24.2713H21.2841C23.2389 24.2713 24.8236 22.6866 24.8236 20.7317V9.99182C24.8236 8.70605 24.2124 7.49685 23.177 6.73445L14.2989 0.196962ZM5.42087 8.36313L13.6993 2.26721L21.9777 8.36313C22.4954 8.74433 22.801 9.34893 22.801 9.99182V20.7317C22.801 21.5695 22.1219 22.2487 21.2841 22.2487H17.7445V16.1808C17.7445 15.3431 17.0653 14.6639 16.2275 14.6639H11.171C10.3332 14.6639 9.65408 15.3431 9.65408 16.1808V22.2487H6.11452C5.27673 22.2487 4.59756 21.5695 4.59756 20.7317V9.99182C4.59756 9.34893 4.90319 8.74433 5.42087 8.36313Z" fill="#CFD1DE"/>
<path d="M0.639648 29.7273V37H1.52033V33.7472H5.39817V37H6.27886V29.7273H5.39817V32.9659H1.52033V29.7273H0.639648Z" fill="#CFD1DE"/>
<path fill-rule="evenodd" clip-rule="evenodd" d="M8.8481 36.7621C9.21979 36.9964 9.65184 37.1136 10.1443 37.1136C10.6367 37.1136 11.0676 36.9964 11.4369 36.7621C11.8086 36.5277 12.0974 36.1998 12.3034 35.7784C12.5117 35.357 12.6159 34.8646 12.6159 34.3011C12.6159 33.733 12.5117 33.237 12.3034 32.8132C12.0974 32.3894 11.8086 32.0604 11.4369 31.826C11.0676 31.5916 10.6367 31.4744 10.1443 31.4744C9.65184 31.4744 9.21979 31.5916 8.8481 31.826C8.47878 32.0604 8.18996 32.3894 7.98162 32.8132C7.77566 33.237 7.67268 33.733 7.67268 34.3011C7.67268 34.8646 7.77566 35.357 7.98162 35.7784C8.18996 36.1998 8.47878 36.5277 8.8481 36.7621ZM11.0676 36.0732C10.8261 36.2649 10.5183 36.3608 10.1443 36.3608C9.77021 36.3608 9.46245 36.2649 9.22097 36.0732C8.97949 35.8814 8.80075 35.6293 8.68475 35.3168C8.56875 35.0043 8.51074 34.6657 8.51074 34.3011C8.51074 33.9366 8.56875 33.5968 8.68475 33.282C8.80075 32.9671 8.97949 32.7126 9.22097 32.5185C9.46245 32.3243 9.77021 32.2273 10.1443 32.2273C10.5183 32.2273 10.8261 32.3243 11.0676 32.5185C11.309 32.7126 11.4878 32.9671 11.6038 33.282C11.7198 33.5968 11.7778 33.9366 11.7778 34.3011C11.7778 34.6657 11.7198 35.0043 11.6038 35.3168C11.4878 35.6293 11.309 35.8814 11.0676 36.0732Z" fill="#CFD1DE"/>
<path d="M13.8952 31.5455V37H14.7332V33.5909C14.7332 33.3234 14.79 33.0878 14.9037 32.8842C15.0197 32.6783 15.1712 32.5173 15.3582 32.4013C15.5476 32.2853 15.7512 32.2273 15.969 32.2273C16.2863 32.2273 16.5455 32.3232 16.7467 32.5149C16.9479 32.7043 17.0486 32.9541 17.0486 33.2642V37H17.9008V33.4489C17.9008 33.0961 18.0062 32.8049 18.2169 32.5753C18.4276 32.3433 18.7247 32.2273 19.1082 32.2273C19.4065 32.2273 19.6658 32.3137 19.8859 32.4865C20.1061 32.6593 20.2162 32.947 20.2162 33.3494V37H21.0542V33.3494C21.0542 32.7079 20.8992 32.2356 20.589 31.9325C20.2789 31.6271 19.88 31.4744 19.3923 31.4744C19.0017 31.4744 18.6667 31.5585 18.3873 31.7266C18.108 31.8923 17.8985 32.116 17.7588 32.3977H17.702C17.567 32.1065 17.3788 31.8804 17.1373 31.7195C16.8982 31.5561 16.5988 31.4744 16.2389 31.4744C15.8838 31.4744 15.5796 31.5561 15.3263 31.7195C15.0729 31.8804 14.8895 32.1065 14.7758 32.3977H14.7048V31.5455H13.8952Z" fill="#CFD1DE"/>
<path fill-rule="evenodd" clip-rule="evenodd" d="M23.5134 36.7656C23.8946 36.9976 24.3479 37.1136 24.8735 37.1136C25.2428 37.1136 25.5754 37.0568 25.8714 36.9432C26.1673 36.8272 26.4159 36.6662 26.6171 36.4602C26.8183 36.2519 26.9616 36.0104 27.0468 35.7358L26.2371 35.5085C26.1661 35.6979 26.0655 35.8565 25.9353 35.9844C25.8051 36.1098 25.65 36.2045 25.4701 36.2685C25.2925 36.33 25.0937 36.3608 24.8735 36.3608C24.535 36.3608 24.2378 36.2874 23.9822 36.1406C23.7265 35.9915 23.5264 35.7749 23.382 35.4908C23.2532 35.231 23.1828 34.9197 23.1708 34.5568H27.132V34.2017C27.132 33.6927 27.0645 33.2642 26.9296 32.9162C26.7947 32.5682 26.6136 32.2888 26.3863 32.0781C26.159 31.8651 25.9069 31.7112 25.6299 31.6165C25.3529 31.5218 25.0724 31.4744 24.7883 31.4744C24.2958 31.4744 23.865 31.5952 23.4957 31.8366C23.1287 32.0758 22.8422 32.4096 22.6363 32.8381C22.4327 33.2642 22.3309 33.7566 22.3309 34.3153C22.3309 34.8741 22.4327 35.3641 22.6363 35.7855C22.8422 36.2045 23.1346 36.5312 23.5134 36.7656ZM23.1729 33.8324C23.1889 33.5794 23.2527 33.3403 23.3643 33.1151C23.4945 32.8523 23.6803 32.6392 23.9218 32.4759C24.1656 32.3101 24.4545 32.2273 24.7883 32.2273C25.0913 32.2273 25.3541 32.2971 25.5766 32.4368C25.8015 32.5765 25.9743 32.767 26.0951 33.0085C26.2182 33.25 26.2797 33.5246 26.2797 33.8324H23.1729Z" fill="#CFD1DE"/>
</svg>
