<svg width="27" height="38" viewBox="0 0 27 38" fill="none" xmlns="http://www.w3.org/2000/svg">
<path fill-rule="evenodd" clip-rule="evenodd" d="M14.1092 0.696962C13.7526 0.434346 13.2666 0.434346 12.9099 0.696962L4.03187 7.23445C2.99651 7.99685 2.38526 9.20605 2.38526 10.4918V21.2317C2.38526 23.1866 3.96998 24.7713 5.92482 24.7713H9.46438C10.5814 24.7713 11.487 23.8657 11.487 22.7487V17.1865H15.5322V22.7487C15.5322 23.8657 16.4378 24.7713 17.5548 24.7713H21.0944C23.0492 24.7713 24.6339 23.1866 24.6339 21.2317V10.4918C24.6339 9.20605 24.0227 7.99685 22.9873 7.23445L14.1092 0.696962ZM5.23117 8.86313L13.5096 2.76721L21.788 8.86313C22.3057 9.24433 22.6113 9.84893 22.6113 10.4918V21.2317C22.6113 22.0695 21.9322 22.7487 21.0944 22.7487H17.5548V16.6808C17.5548 15.8431 16.8756 15.1639 16.0378 15.1639H10.9813C10.1435 15.1639 9.46438 15.8431 9.46438 16.6808V22.7487H5.92482C5.08703 22.7487 4.40787 22.0695 4.40787 21.2317V10.4918C4.40787 9.84893 4.71349 9.24433 5.23117 8.86313Z" fill="#CFD1DE"/>
<path d="M0.449951 30.2273V37.5H1.33063V34.2472H5.20848V37.5H6.08916V30.2273H5.20848V33.4659H1.33063V30.2273H0.449951Z" fill="#CFD1DE"/>
<path fill-rule="evenodd" clip-rule="evenodd" d="M8.6584 37.2621C9.03009 37.4964 9.46214 37.6136 9.95457 37.6136C10.447 37.6136 10.8779 37.4964 11.2472 37.2621C11.6189 37.0277 11.9077 36.6998 12.1137 36.2784C12.322 35.857 12.4262 35.3646 12.4262 34.8011C12.4262 34.233 12.322 33.737 12.1137 33.3132C11.9077 32.8894 11.6189 32.5604 11.2472 32.326C10.8779 32.0916 10.447 31.9744 9.95457 31.9744C9.46214 31.9744 9.03009 32.0916 8.6584 32.326C8.28909 32.5604 8.00026 32.8894 7.79193 33.3132C7.58596 33.737 7.48298 34.233 7.48298 34.8011C7.48298 35.3646 7.58596 35.857 7.79193 36.2784C8.00026 36.6998 8.28909 37.0277 8.6584 37.2621ZM10.8779 36.5732C10.6364 36.7649 10.3286 36.8608 9.95457 36.8608C9.58052 36.8608 9.27275 36.7649 9.03127 36.5732C8.7898 36.3814 8.61106 36.1293 8.49505 35.8168C8.37905 35.5043 8.32105 35.1657 8.32105 34.8011C8.32105 34.4366 8.37905 34.0968 8.49505 33.782C8.61106 33.4671 8.7898 33.2126 9.03127 33.0185C9.27275 32.8243 9.58052 32.7273 9.95457 32.7273C10.3286 32.7273 10.6364 32.8243 10.8779 33.0185C11.1193 33.2126 11.2981 33.4671 11.4141 33.782C11.5301 34.0968 11.5881 34.4366 11.5881 34.8011C11.5881 35.1657 11.5301 35.5043 11.4141 35.8168C11.2981 36.1293 11.1193 36.3814 10.8779 36.5732Z" fill="#CFD1DE"/>
<path d="M13.7055 32.0455V37.5H14.5435V34.0909C14.5435 33.8234 14.6003 33.5878 14.714 33.3842C14.83 33.1783 14.9815 33.0173 15.1685 32.9013C15.3579 32.7853 15.5615 32.7273 15.7793 32.7273C16.0966 32.7273 16.3558 32.8232 16.557 33.0149C16.7583 33.2043 16.8589 33.4541 16.8589 33.7642V37.5H17.7111V33.9489C17.7111 33.5961 17.8165 33.3049 18.0272 33.0753C18.2379 32.8433 18.535 32.7273 18.9185 32.7273C19.2168 32.7273 19.4761 32.8137 19.6962 32.9865C19.9164 33.1593 20.0265 33.447 20.0265 33.8494V37.5H20.8645V33.8494C20.8645 33.2079 20.7095 32.7356 20.3993 32.4325C20.0892 32.1271 19.6903 31.9744 19.2026 31.9744C18.812 31.9744 18.477 32.0585 18.1976 32.2266C17.9183 32.3923 17.7088 32.616 17.5691 32.8977H17.5123C17.3773 32.6065 17.1891 32.3804 16.9476 32.2195C16.7085 32.0561 16.4091 31.9744 16.0492 31.9744C15.6941 31.9744 15.3899 32.0561 15.1366 32.2195C14.8833 32.3804 14.6998 32.6065 14.5861 32.8977H14.5151V32.0455H13.7055Z" fill="#CFD1DE"/>
<path fill-rule="evenodd" clip-rule="evenodd" d="M23.3237 37.2656C23.7049 37.4976 24.1582 37.6136 24.6838 37.6136C25.0531 37.6136 25.3857 37.5568 25.6817 37.4432C25.9776 37.3272 26.2262 37.1662 26.4274 36.9602C26.6286 36.7519 26.7719 36.5104 26.8571 36.2358L26.0474 36.0085C25.9764 36.1979 25.8758 36.3565 25.7456 36.4844C25.6154 36.6098 25.4603 36.7045 25.2804 36.7685C25.1028 36.83 24.904 36.8608 24.6838 36.8608C24.3453 36.8608 24.0481 36.7874 23.7925 36.6406C23.5368 36.4915 23.3367 36.2749 23.1923 35.9908C23.0635 35.731 22.9931 35.4197 22.9811 35.0568H26.9423V34.7017C26.9423 34.1927 26.8748 33.7642 26.7399 33.4162C26.605 33.0682 26.4239 32.7888 26.1966 32.5781C25.9693 32.3651 25.7172 32.2112 25.4402 32.1165C25.1632 32.0218 24.8827 31.9744 24.5986 31.9744C24.1061 31.9744 23.6753 32.0952 23.306 32.3366C22.939 32.5758 22.6525 32.9096 22.4466 33.3381C22.243 33.7642 22.1412 34.2566 22.1412 34.8153C22.1412 35.3741 22.243 35.8641 22.4466 36.2855C22.6525 36.7045 22.9449 37.0312 23.3237 37.2656ZM22.9832 34.3324C22.9992 34.0794 23.063 33.8403 23.1746 33.6151C23.3048 33.3523 23.4906 33.1392 23.7321 32.9759C23.9759 32.8101 24.2648 32.7273 24.5986 32.7273C24.9016 32.7273 25.1644 32.7971 25.3869 32.9368C25.6118 33.0765 25.7846 33.267 25.9054 33.5085C26.0285 33.75 26.09 34.0246 26.09 34.3324H22.9832Z" fill="#CFD1DE"/>
</svg>
