<svg width="6" height="12" viewBox="0 0 6 12" fill="none" xmlns="http://www.w3.org/2000/svg">
<path fill-rule="evenodd" clip-rule="evenodd" d="M2.00409 0.895463C2.00409 0.597233 2.24585 0.355469 2.54408 0.355469C2.84231 0.355469 3.08408 0.597232 3.08408 0.895463V1.44963C4.21121 1.6848 5.06007 2.71685 5.06007 3.9544C5.06007 4.40276 4.7094 4.76622 4.27683 4.76622C3.84426 4.76622 3.4936 4.40276 3.4936 3.9544C3.4936 3.43999 3.09127 3.02298 2.59498 3.02298C2.09868 3.02298 1.69635 3.43999 1.69635 3.9544C1.69635 4.46881 2.09868 4.88582 2.59498 4.88582C2.60492 4.88582 2.61483 4.88601 2.62469 4.88639C3.97261 4.90268 5.06045 6.0403 5.06045 7.44128C5.06045 8.67897 4.2114 9.71112 3.08406 9.94613L3.08406 10.5479C3.08406 10.8462 2.8423 11.0879 2.54407 11.0879C2.24584 11.0879 2.00408 10.8462 2.00408 10.5479L2.00408 9.92236C0.928209 9.64783 0.130268 8.64114 0.130268 7.44127C0.130268 6.99292 0.480935 6.62946 0.913503 6.62946C1.34607 6.62946 1.69674 6.99292 1.69674 7.44128C1.69674 7.95568 2.09907 8.37269 2.59536 8.37269C3.09166 8.37269 3.49398 7.95568 3.49398 7.44128C3.49398 6.92687 3.09166 6.50986 2.59536 6.50986C2.58541 6.50986 2.57551 6.50967 2.56565 6.50928C1.21773 6.493 0.129883 5.35538 0.129883 3.9544C0.129883 2.75439 0.92802 1.7476 2.00409 1.47322V0.895463Z" fill="#55B3FF"/>
</svg>
