<svg width="38" height="36" viewBox="0 0 38 36" fill="none" xmlns="http://www.w3.org/2000/svg">
<path fill-rule="evenodd" clip-rule="evenodd" d="M10.9335 0.0351562C8.70227 0.0351562 6.8935 1.84392 6.8935 4.07516V18.2412C6.8935 20.4724 8.70227 22.2812 10.9335 22.2812H27.0569C29.2881 22.2812 31.0969 20.4724 31.0969 18.2412V8.02585C31.0969 5.79462 29.2881 3.98585 27.0569 3.98585H10.4075C9.84987 3.98585 9.3978 3.53378 9.3978 2.97611C9.3978 2.91056 9.39155 2.84646 9.37962 2.78439C9.75015 2.33882 10.3087 2.05516 10.9335 2.05516H28.0908C28.6486 2.05516 29.1008 1.60296 29.1008 1.04516C29.1008 0.487349 28.6486 0.0351562 28.0908 0.0351562H10.9335ZM8.9135 18.2412V5.61247C9.35439 5.86286 9.86426 6.00585 10.4075 6.00585H27.0569C28.1725 6.00585 29.0769 6.91024 29.0769 8.02585V18.2412C29.0769 19.3568 28.1725 20.2612 27.0569 20.2612H10.9335C9.81788 20.2612 8.9135 19.3568 8.9135 18.2412Z" fill="#CFD1DE"/>
<path fill-rule="evenodd" clip-rule="evenodd" d="M0.779297 27.7275V35.0002H3.40714C3.98005 35.0002 4.44525 34.915 4.80273 34.7446C5.16022 34.5741 5.42182 34.3433 5.58754 34.0521C5.75325 33.7609 5.83611 33.433 5.83611 33.0684C5.83611 32.6849 5.76036 32.3606 5.60884 32.0954C5.45733 31.8303 5.26912 31.6267 5.04421 31.4846C4.81931 31.3426 4.59558 31.2644 4.37305 31.2502V31.1792C4.58138 31.1224 4.77433 31.0348 4.95188 30.9164C5.13181 30.7981 5.27622 30.6371 5.38512 30.4335C5.49639 30.2299 5.55202 29.9718 5.55202 29.6593C5.55202 29.3042 5.47153 28.9811 5.31055 28.6899C5.14956 28.3963 4.90453 28.1631 4.57546 27.9903C4.24639 27.8151 3.82854 27.7275 3.32191 27.7275H0.779297ZM3.40714 34.219H1.65998V31.6906H3.44975C3.76699 31.6906 4.04161 31.7545 4.27361 31.8823C4.50562 32.0078 4.68436 32.1759 4.80984 32.3866C4.93531 32.5949 4.99805 32.8222 4.99805 33.0684C4.99805 33.388 4.87612 33.6603 4.63228 33.8852C4.3908 34.1077 3.98242 34.219 3.40714 34.219ZM3.2935 30.9235H1.65998V28.5088H3.32191C3.80487 28.5088 4.15761 28.6212 4.38015 28.8461C4.60269 29.0687 4.71396 29.3397 4.71396 29.6593C4.71396 29.915 4.65004 30.1375 4.52219 30.3269C4.39672 30.5163 4.22627 30.6631 4.01083 30.7673C3.79776 30.8714 3.55865 30.9235 3.2935 30.9235Z" fill="#CFD1DE"/>
<path d="M7.16957 29.5457V35.0002H8.00764V29.5457H7.16957Z" fill="#CFD1DE"/>
<path d="M7.17312 28.4697C7.29149 28.581 7.43235 28.6366 7.5957 28.6366C7.75906 28.6366 7.89873 28.581 8.01474 28.4697C8.13311 28.3584 8.19229 28.2247 8.19229 28.0684C8.19229 27.9122 8.13311 27.7784 8.01474 27.6671C7.89873 27.5559 7.75906 27.5002 7.5957 27.5002C7.43235 27.5002 7.29149 27.5559 7.17312 27.6671C7.05711 27.7784 6.99911 27.9122 6.99911 28.0684C6.99911 28.2247 7.05711 28.3584 7.17312 28.4697Z" fill="#CFD1DE"/>
<path d="M10.3807 35.0002V27.7275H9.54261V35.0002H10.3807Z" fill="#CFD1DE"/>
<path d="M12.7537 35.0002V27.7275H11.9157V35.0002H12.7537Z" fill="#CFD1DE"/>
<path fill-rule="evenodd" clip-rule="evenodd" d="M15.2156 34.7659C15.5967 34.9979 16.0501 35.1139 16.5756 35.1139C16.945 35.1139 17.2776 35.0571 17.5735 34.9434C17.8694 34.8274 18.118 34.6664 18.3192 34.4605C18.5205 34.2521 18.6637 34.0107 18.7489 33.736L17.9393 33.5088C17.8683 33.6982 17.7676 33.8568 17.6374 33.9846C17.5072 34.1101 17.3522 34.2048 17.1722 34.2687C16.9947 34.3303 16.7958 34.361 16.5756 34.361C16.2371 34.361 15.94 34.2876 15.6843 34.1409C15.4286 33.9917 15.2286 33.7751 15.0842 33.491C14.9554 33.2313 14.885 32.9199 14.8729 32.5571H18.8342V32.2019C18.8342 31.6929 18.7667 31.2644 18.6317 30.9164C18.4968 30.5684 18.3157 30.2891 18.0884 30.0784C17.8612 29.8653 17.609 29.7114 17.332 29.6167C17.055 29.522 16.7745 29.4747 16.4904 29.4747C15.998 29.4747 15.5671 29.5954 15.1978 29.8369C14.8308 30.076 14.5444 30.4098 14.3384 30.8383C14.1348 31.2644 14.033 31.7569 14.033 32.3156C14.033 32.8743 14.1348 33.3643 14.3384 33.7857C14.5444 34.2048 14.8368 34.5315 15.2156 34.7659ZM14.8751 31.8326C14.891 31.5796 14.9548 31.3405 15.0664 31.1153C15.1966 30.8525 15.3825 30.6394 15.6239 30.4761C15.8678 30.3104 16.1566 30.2275 16.4904 30.2275C16.7934 30.2275 17.0562 30.2973 17.2788 30.437C17.5037 30.5767 17.6765 30.7673 17.7972 31.0088C17.9203 31.2502 17.9819 31.5249 17.9819 31.8326H14.8751Z" fill="#CFD1DE"/>
<path d="M22.4812 30.2559V29.5457H21.3164V28.2389H20.4783V29.5457H19.6545V30.2559H20.4783V33.665C20.4783 33.9822 20.5517 34.245 20.6985 34.4534C20.8477 34.6617 21.0347 34.8168 21.2596 34.9186C21.4869 35.0204 21.7189 35.0713 21.9556 35.0713C22.1119 35.0713 22.2409 35.0594 22.3427 35.0357C22.4445 35.0144 22.5238 34.9931 22.5806 34.9718L22.4102 34.219L22.2681 34.2474C22.2089 34.2569 22.1332 34.2616 22.0408 34.2616C21.9177 34.2616 21.8005 34.2427 21.6893 34.2048C21.5804 34.1645 21.4904 34.0864 21.4194 33.9704C21.3507 33.852 21.3164 33.6745 21.3164 33.4377V30.2559H22.4812Z" fill="#CFD1DE"/>
<path fill-rule="evenodd" clip-rule="evenodd" d="M24.6101 34.7659C24.9912 34.9979 25.4446 35.1139 25.9702 35.1139C26.3395 35.1139 26.6721 35.0571 26.968 34.9434C27.264 34.8274 27.5125 34.6664 27.7138 34.4605C27.915 34.2521 28.0582 34.0107 28.1435 33.736L27.3338 33.5088C27.2628 33.6982 27.1622 33.8568 27.032 33.9846C26.9018 34.1101 26.7467 34.2048 26.5668 34.2687C26.3892 34.3303 26.1903 34.361 25.9702 34.361C25.6316 34.361 25.3345 34.2876 25.0788 34.1409C24.8232 33.9917 24.6231 33.7751 24.4787 33.491C24.3499 33.2313 24.2795 32.9199 24.2675 32.5571H28.2287V32.2019C28.2287 31.6929 28.1612 31.2644 28.0263 30.9164C27.8913 30.5684 27.7102 30.2891 27.483 30.0784C27.2557 29.8653 27.0036 29.7114 26.7266 29.6167C26.4496 29.522 26.169 29.4747 25.8849 29.4747C25.3925 29.4747 24.9616 29.5954 24.5923 29.8369C24.2254 30.076 23.9389 30.4098 23.733 30.8383C23.5294 31.2644 23.4276 31.7569 23.4276 32.3156C23.4276 32.8743 23.5294 33.3643 23.733 33.7857C23.9389 34.2048 24.2313 34.5315 24.6101 34.7659ZM24.2696 31.8326C24.2856 31.5796 24.3494 31.3405 24.4609 31.1153C24.5911 30.8525 24.777 30.6394 25.0185 30.4761C25.2623 30.3104 25.5511 30.2275 25.8849 30.2275C26.188 30.2275 26.4508 30.2973 26.6733 30.437C26.8982 30.5767 27.071 30.7673 27.1918 31.0088C27.3149 31.2502 27.3764 31.5249 27.3764 31.8326H24.2696Z" fill="#CFD1DE"/>
<path d="M29.5036 29.5457V35.0002H30.3416V31.5485C30.3416 31.3023 30.4008 31.0833 30.5192 30.8916C30.6399 30.6974 30.8033 30.5459 31.0092 30.437C31.2176 30.3258 31.4543 30.2701 31.7195 30.2701C31.8307 30.2701 31.9361 30.2784 32.0355 30.295C32.1373 30.3092 32.2024 30.3198 32.2308 30.3269V29.4747C32.1835 29.4699 32.1136 29.4664 32.0213 29.464C31.929 29.4616 31.852 29.4605 31.7905 29.4605C31.4638 29.4605 31.1702 29.5445 30.9098 29.7126C30.6494 29.8807 30.4695 30.0997 30.37 30.3696H30.3132V29.5457H29.5036Z" fill="#CFD1DE"/>
<path fill-rule="evenodd" clip-rule="evenodd" d="M33.8883 34.9328C34.17 35.063 34.4837 35.1281 34.8294 35.1281C35.1466 35.1281 35.4153 35.0807 35.6355 34.986C35.8556 34.8913 36.032 34.7765 36.1646 34.6416C36.2972 34.5066 36.3919 34.38 36.4487 34.2616H36.4913V35.0002H37.3294V31.4065C37.3294 30.9732 37.2583 30.6276 37.1163 30.3696C36.9743 30.1115 36.7955 29.9186 36.5801 29.7907C36.367 29.6629 36.1457 29.5788 35.916 29.5386C35.6887 29.496 35.4875 29.4747 35.3123 29.4747C35.0377 29.4747 34.7583 29.5125 34.4743 29.5883C34.1925 29.6617 33.9321 29.7919 33.693 29.9789C33.4563 30.1636 33.2669 30.4216 33.1248 30.7531L33.9203 31.0372C34.0126 30.8383 34.1724 30.6513 34.3997 30.4761C34.627 30.3009 34.9406 30.2133 35.3407 30.2133C35.7266 30.2133 36.0143 30.3104 36.2037 30.5045C36.3954 30.6986 36.4913 30.9709 36.4913 31.3213V31.3497C36.4913 31.4846 36.4428 31.5793 36.3457 31.6338C36.251 31.6882 36.0995 31.7273 35.8912 31.7509C35.6852 31.7723 35.4165 31.8042 35.0851 31.8468C34.8317 31.88 34.5796 31.9249 34.3287 31.9818C34.0801 32.0362 33.8528 32.1191 33.6468 32.2303C33.4409 32.3416 33.2763 32.4955 33.1532 32.692C33.0301 32.8861 32.9686 33.1394 32.9686 33.4519C32.9686 33.8071 33.0514 34.1101 33.2172 34.361C33.3829 34.6096 33.6066 34.8002 33.8883 34.9328ZM35.7953 34.1799C35.568 34.3101 35.2887 34.3752 34.9572 34.3752C34.6234 34.3752 34.3476 34.3018 34.1298 34.1551C33.9144 34.0059 33.8066 33.7857 33.8066 33.4946C33.8066 33.2815 33.8635 33.1134 33.9771 32.9903C34.0931 32.8648 34.2446 32.7713 34.4316 32.7098C34.621 32.6458 34.8246 32.5997 35.0424 32.5713C35.1324 32.5594 35.2496 32.5452 35.394 32.5286C35.5408 32.5097 35.6911 32.4884 35.845 32.4647C36.0012 32.4387 36.1386 32.4091 36.2569 32.3759C36.3777 32.3404 36.4558 32.3014 36.4913 32.2588V33.0258C36.4913 33.2531 36.4321 33.4697 36.3137 33.6757C36.1977 33.8816 36.0249 34.0497 35.7953 34.1799Z" fill="#CFD1DE"/>
</svg>
