<svg width="23" height="37" viewBox="0 0 23 37" fill="none" xmlns="http://www.w3.org/2000/svg">
<path fill-rule="evenodd" clip-rule="evenodd" d="M6.35706 6.07954C6.35706 2.72837 9.07371 0.0117188 12.4249 0.0117188C15.776 0.0117188 18.4927 2.72837 18.4927 6.07954C18.4927 9.4307 15.776 12.1474 12.4249 12.1474C9.07371 12.1474 6.35706 9.4307 6.35706 6.07954ZM12.4249 2.03432C10.1908 2.03432 8.37966 3.84543 8.37966 6.07954C8.37966 8.31364 10.1908 10.1247 12.4249 10.1247C14.659 10.1247 16.4701 8.31364 16.4701 6.07954C16.4701 3.84543 14.659 2.03432 12.4249 2.03432Z" fill="#CFD1DE"/>
<path d="M12.4249 16.6982C10.0252 16.6982 7.75137 17.2313 6.19525 17.7117C5.30451 17.9866 4.64996 18.7933 4.48978 19.8231L4.32243 20.8989C4.23658 21.4508 3.71959 21.8286 3.1677 21.7427C2.61581 21.6569 2.23801 21.1399 2.32386 20.588L2.49121 19.5122C2.7529 17.8299 3.86685 16.3137 5.59866 15.7791C7.26151 15.2657 9.74888 14.6756 12.4249 14.6756C15.1009 14.6756 17.5882 15.2657 19.2511 15.7791C20.9829 16.3137 22.0969 17.8299 22.3585 19.5122L22.5259 20.588C22.6117 21.1399 22.2339 21.6569 21.682 21.7427C21.1302 21.8286 20.6132 21.4508 20.5273 20.8989L20.36 19.8231C20.1998 18.7933 19.5452 17.9866 18.6545 17.7117C17.0984 17.2313 14.8246 16.6982 12.4249 16.6982Z" fill="#CFD1DE"/>
<path fill-rule="evenodd" clip-rule="evenodd" d="M0.0449219 28.7277V36.0004H0.925604V33.3442H2.51651C3.08233 33.3442 3.54634 33.2412 3.90856 33.0352C4.27077 32.8269 4.53829 32.5475 4.71111 32.1971C4.8863 31.8468 4.9739 31.4573 4.9739 31.0288C4.9739 30.6003 4.8863 30.2121 4.71111 29.8641C4.53593 29.516 4.26604 29.2402 3.90146 29.0366C3.53924 28.8307 3.07286 28.7277 2.50231 28.7277H0.0449219ZM0.925604 32.5629H2.4881C2.87873 32.5629 3.19241 32.4954 3.42915 32.3605C3.6659 32.2256 3.83754 32.0433 3.94407 31.8136C4.05297 31.5816 4.10742 31.32 4.10742 31.0288C4.10742 30.7376 4.05297 30.4772 3.94407 30.2476C3.83754 30.0179 3.66471 29.838 3.4256 29.7078C3.18649 29.5752 2.86926 29.5089 2.4739 29.5089H0.925604V32.5629Z" fill="#CFD1DE"/>
<path fill-rule="evenodd" clip-rule="evenodd" d="M7.14719 35.766C7.52835 35.998 7.98171 36.1141 8.50728 36.1141C8.8766 36.1141 9.20922 36.0572 9.50515 35.9436C9.80108 35.8276 10.0497 35.6666 10.2509 35.4606C10.4521 35.2523 10.5953 35.0108 10.6806 34.7362L9.87092 34.5089C9.79989 34.6983 9.69928 34.8569 9.56907 34.9848C9.43886 35.1103 9.2838 35.205 9.10387 35.2689C8.92631 35.3304 8.72745 35.3612 8.50728 35.3612C8.16874 35.3612 7.87163 35.2878 7.61594 35.141C7.36026 34.9919 7.16022 34.7753 7.0158 34.4912C6.88701 34.2314 6.8166 33.9201 6.80459 33.5572H10.7658V33.2021C10.7658 32.6931 10.6983 32.2646 10.5634 31.9166C10.4284 31.5686 10.2473 31.2892 10.0201 31.0785C9.79279 30.8655 9.54066 30.7116 9.26367 30.6169C8.98668 30.5222 8.70614 30.4748 8.42205 30.4748C7.92963 30.4748 7.49876 30.5956 7.12944 30.8371C6.76249 31.0762 6.47603 31.41 6.27006 31.8385C6.06647 32.2646 5.96467 32.757 5.96467 33.3158C5.96467 33.8745 6.06647 34.3645 6.27006 34.7859C6.47603 35.205 6.76841 35.5317 7.14719 35.766ZM6.80673 32.8328C6.82269 32.5798 6.88646 32.3407 6.99805 32.1155C7.12825 31.8527 7.3141 31.6396 7.55558 31.4763C7.79942 31.3105 8.08825 31.2277 8.42205 31.2277C8.72508 31.2277 8.98787 31.2975 9.21041 31.4372C9.43531 31.5769 9.60813 31.7675 9.72887 32.0089C9.85198 32.2504 9.91353 32.525 9.91353 32.8328H6.80673Z" fill="#CFD1DE"/>
<path d="M12.0407 30.5459V36.0004H12.8787V32.5487C12.8787 32.3025 12.9379 32.0835 13.0563 31.8918C13.177 31.6976 13.3404 31.5461 13.5463 31.4372C13.7547 31.3259 13.9914 31.2703 14.2566 31.2703C14.3678 31.2703 14.4732 31.2786 14.5726 31.2952C14.6744 31.3094 14.7395 31.32 14.7679 31.3271V30.4748C14.7206 30.4701 14.6507 30.4666 14.5584 30.4642C14.4661 30.4618 14.3891 30.4606 14.3276 30.4606C14.0009 30.4606 13.7073 30.5447 13.4469 30.7128C13.1865 30.8809 13.0066 31.0998 12.9071 31.3697H12.8503V30.5459H12.0407Z" fill="#CFD1DE"/>
<path d="M18.5321 31.2561V30.5459H17.3105V29.9919C17.3105 29.722 17.3709 29.5172 17.4917 29.3775C17.6148 29.2379 17.8148 29.168 18.0918 29.168C18.2125 29.168 18.3096 29.1787 18.383 29.2C18.4587 29.2213 18.5179 29.2391 18.5605 29.2533L18.802 28.5288C18.7381 28.5004 18.641 28.4696 18.5108 28.4365C18.3806 28.4034 18.2125 28.3868 18.0066 28.3868C17.7462 28.3868 17.4988 28.4389 17.2644 28.543C17.03 28.6472 16.8394 28.8034 16.6926 29.0118C16.5459 29.2201 16.4725 29.4805 16.4725 29.793V30.5459H15.5918V31.2561H16.4725V36.0004H17.3105V31.2561H18.5321Z" fill="#CFD1DE"/>
<path d="M19.7067 30.5459V36.0004H20.5447V30.5459H19.7067Z" fill="#CFD1DE"/>
<path d="M19.7102 29.4699C19.8286 29.5811 19.9695 29.6368 20.1328 29.6368C20.2962 29.6368 20.4358 29.5811 20.5518 29.4699C20.6702 29.3586 20.7294 29.2248 20.7294 29.0686C20.7294 28.9123 20.6702 28.7786 20.5518 28.6673C20.4358 28.556 20.2962 28.5004 20.1328 28.5004C19.9695 28.5004 19.8286 28.556 19.7102 28.6673C19.5942 28.7786 19.5362 28.9123 19.5362 29.0686C19.5362 29.2248 19.5942 29.3586 19.7102 29.4699Z" fill="#CFD1DE"/>
<path d="M22.9178 36.0004V28.7277H22.0797V36.0004H22.9178Z" fill="#CFD1DE"/>
</svg>
