<svg width="25" height="24" viewBox="0 0 25 24" fill="none" xmlns="http://www.w3.org/2000/svg">
<path d="M18.7764 23.5073C18.5436 23.5067 18.3115 23.4817 18.0841 23.4329C13.7549 22.5574 9.76665 20.5046 6.57823 17.5109C3.45785 14.5106 1.2937 10.6905 0.347623 6.51289C0.236068 5.99224 0.263448 5.45228 0.427128 4.94496C0.590809 4.43764 0.885281 3.98005 1.28221 3.61619L4.05137 1.01051C4.19281 0.879745 4.36087 0.779607 4.54457 0.716633C4.72828 0.653659 4.9235 0.629264 5.1175 0.64504C5.31865 0.665556 5.51277 0.728904 5.68619 0.830631C5.85962 0.932357 6.00814 1.06999 6.12132 1.23386L9.58277 6.2354C9.71257 6.42947 9.77523 6.65915 9.76152 6.89064C9.74782 7.12212 9.65846 7.3432 9.50662 7.52132L7.76897 9.55172C8.46102 11.0491 9.44109 12.4025 10.6558 13.5381C11.8627 14.7149 13.2892 15.6546 14.858 16.3062L17.011 14.6345C17.1919 14.4948 17.4119 14.4122 17.6419 14.3977C17.8719 14.3832 18.101 14.4374 18.2987 14.5533L23.5255 17.8561C23.7048 17.9608 23.8577 18.1038 23.9725 18.2744C24.0873 18.445 24.1611 18.6388 24.1884 18.8413C24.2157 19.0438 24.1958 19.2497 24.1301 19.4436C24.0645 19.6375 23.9548 19.8143 23.8093 19.9609L21.1094 22.5733C20.8027 22.8717 20.4387 23.1078 20.0383 23.2681C19.6379 23.4284 19.209 23.5097 18.7764 23.5073V23.5073ZM5.00673 1.9851L2.23757 4.59078C2.01428 4.79419 1.84898 5.05092 1.75795 5.33572C1.66691 5.62052 1.65326 5.92358 1.71836 6.2151C2.59806 10.1352 4.62024 13.7224 7.54051 16.5431C10.541 19.3596 14.2942 21.2904 18.3679 22.1131C18.6763 22.1761 18.9958 22.1634 19.2979 22.076C19.5999 21.9886 19.8751 21.8292 20.0986 21.6123L22.7986 18.9998L17.7518 15.8121L15.4395 17.6124C15.351 17.6809 15.2467 17.7272 15.1357 17.7472C15.0247 17.7673 14.9103 17.7605 14.8026 17.7275C12.8827 17.0359 11.1428 15.9381 9.70738 14.5127C8.22266 13.1572 7.07019 11.4914 6.33593 9.63971C6.30487 9.5276 6.30383 9.40957 6.33293 9.29697C6.36203 9.18436 6.42028 9.08097 6.50208 8.99675L8.37126 6.81068L5.00673 1.9851Z" fill="#389BEC"/>
</svg>
