<svg width="21" height="21" viewBox="0 0 21 21" fill="none" xmlns="http://www.w3.org/2000/svg">
<path d="M10.9356 0.832031C3.95114 0.832031 -0.807443 7.90906 1.82778 14.3773L2.95436 17.1426C3.05517 17.39 2.98148 17.6743 2.77315 17.8416L0.390933 19.7547C0.19104 19.9152 0.11423 20.1845 0.199319 20.4263C0.284408 20.6681 0.512866 20.8299 0.769239 20.8299H10.2187C16.0462 20.8299 20.7703 16.1058 20.7703 10.2784C20.7703 5.0613 16.5411 0.832031 11.324 0.832031H10.9356Z" fill="#CFD1DE"/>
<path d="M10.9739 7.15721C10.8249 6.90041 10.454 6.90041 10.305 7.15721L9.25555 8.96577C9.18194 9.09263 9.05471 9.1792 8.90968 9.20111L6.94298 9.49815C6.61265 9.54805 6.49679 9.96511 6.75404 10.1782L8.21915 11.3921C8.35477 11.5044 8.41854 11.6817 8.3856 11.8547L8.00235 13.8673C7.94176 14.1855 8.27576 14.4327 8.56234 14.2818L10.4142 13.3067C10.5552 13.2325 10.7237 13.2325 10.8646 13.3067L12.7165 14.2818C13.0031 14.4327 13.3371 14.1855 13.2765 13.8673L12.8933 11.8547C12.8603 11.6817 12.9241 11.5044 13.0597 11.3921L14.5248 10.1782C14.7821 9.96511 14.6662 9.54805 14.3359 9.49815L12.3692 9.20111C12.2241 9.1792 12.0969 9.09263 12.0233 8.96577L10.9739 7.15721Z" fill="white"/>
</svg>
