<svg width="21" height="21" viewBox="0 0 21 21" fill="none" xmlns="http://www.w3.org/2000/svg">
<path d="M10.9356 0.833984C3.95114 0.833984 -0.807443 7.91101 1.82778 14.3793L2.95436 17.1445C3.05517 17.392 2.98147 17.6762 2.77315 17.8435L0.390933 19.7567C0.19104 19.9172 0.11423 20.1864 0.199319 20.4283C0.284408 20.6701 0.512866 20.8319 0.769239 20.8319H10.2187C16.0462 20.8319 20.7703 16.1078 20.7703 10.2803C20.7703 5.06325 16.5411 0.833984 11.324 0.833984H10.9356Z" fill="#CFD1DE"/>
<path d="M10.9739 7.15917C10.8249 6.90236 10.454 6.90236 10.305 7.15917L9.25555 8.96773C9.18194 9.09459 9.05471 9.18116 8.90969 9.20306L6.94298 9.50011C6.61265 9.55 6.49679 9.96706 6.75404 10.1802L8.21915 11.394C8.35477 11.5064 8.41854 11.6836 8.3856 11.8566L8.00235 13.8693C7.94176 14.1874 8.27576 14.4346 8.56234 14.2837L10.4142 13.3086C10.5552 13.2344 10.7237 13.2344 10.8646 13.3086L12.7165 14.2837C13.0031 14.4346 13.3371 14.1874 13.2765 13.8693L12.8933 11.8566C12.8603 11.6836 12.9241 11.5064 13.0597 11.394L14.5248 10.1802C14.7821 9.96706 14.6662 9.55 14.3359 9.50011L12.3692 9.20306C12.2241 9.18116 12.0969 9.09458 12.0233 8.96773L10.9739 7.15917Z" fill="white"/>
</svg>
