<svg width="21" height="21" viewBox="0 0 21 21" fill="none" xmlns="http://www.w3.org/2000/svg">
<path d="M11.0431 0.832031C4.05857 0.832031 -0.700021 7.90906 1.93521 14.3773L3.06178 17.1426C3.16259 17.39 3.0889 17.6743 2.88057 17.8416L0.498355 19.7547C0.298462 19.9152 0.221652 20.1845 0.306741 20.4263C0.39183 20.6681 0.620287 20.8299 0.876661 20.8299H10.3262C16.1536 20.8299 20.8778 16.1058 20.8778 10.2784C20.8778 5.0613 16.6485 0.832031 11.4314 0.832031H11.0431Z" fill="#55B3FF"/>
<path d="M11.0813 7.15721C10.9323 6.90041 10.5614 6.90041 10.4124 7.15721L9.36297 8.96577C9.28936 9.09263 9.16213 9.1792 9.01711 9.20111L7.0504 9.49815C6.72008 9.54805 6.60421 9.96511 6.86146 10.1782L8.32657 11.3921C8.46219 11.5044 8.52596 11.6817 8.49302 11.8547L8.10977 13.8673C8.04918 14.1855 8.38318 14.4327 8.66976 14.2818L10.5217 13.3067C10.6626 13.2325 10.8311 13.2325 10.972 13.3067L12.8239 14.2818C13.1105 14.4327 13.4445 14.1855 13.3839 13.8673L13.0007 11.8547C12.9677 11.6817 13.0315 11.5044 13.1671 11.3921L14.6322 10.1782C14.8895 9.96511 14.7736 9.54805 14.4433 9.49815L12.4766 9.20111C12.3316 9.1792 12.2043 9.09263 12.1307 8.96577L11.0813 7.15721Z" fill="white"/>
</svg>
