<svg width="18" height="19" viewBox="0 0 18 19" fill="none" xmlns="http://www.w3.org/2000/svg">
<path d="M14.5728 7.50765C14.566 9.01691 14.1536 10.4016 13.331 11.6547C13.2792 11.7331 13.2814 11.777 13.349 11.8462C14.7689 13.2932 16.1887 14.7424 17.6018 16.194C18.235 16.8448 18.0931 17.881 17.3178 18.3102C16.8287 18.5802 16.2157 18.4948 15.8078 18.0817C14.9807 17.2417 14.1626 16.3971 13.34 15.5524C12.736 14.9317 12.1298 14.3132 11.5281 13.6901C11.465 13.6255 11.4244 13.6301 11.359 13.6762C10.4102 14.334 9.36677 14.7447 8.23091 14.8947C7.25055 15.024 6.27921 14.9663 5.3304 14.6755C3.05643 13.9763 1.43828 12.5062 0.545814 10.2562C-0.231709 8.2969 -0.175367 6.31916 0.694558 4.39912C1.6028 2.39831 3.10601 1.03905 5.16814 0.39057C7.27985 -0.27406 9.30366 0.0051773 11.1742 1.21674C12.9006 2.33369 13.9756 3.93988 14.4195 5.98454C14.5277 6.48532 14.575 6.99302 14.5728 7.50765ZM2.59217 7.50303C2.59217 10.18 4.67683 12.3239 7.27985 12.3239C9.90765 12.3262 12.0013 10.1962 12.0036 7.51457C12.0058 4.84221 9.91892 2.68447 7.33168 2.68447C4.68359 2.68677 2.59217 4.81221 2.59217 7.50303Z" fill="#4E4B66"/>
</svg>
