<svg width="18" height="20" viewBox="0 0 18 20" fill="none" xmlns="http://www.w3.org/2000/svg">
<path d="M14.5728 8.39437C14.566 9.90363 14.1536 11.2883 13.331 12.5414C13.2792 12.6198 13.2814 12.6637 13.349 12.7329C14.7689 14.1799 16.1887 15.6291 17.6018 17.0807C18.235 17.7315 18.0931 18.7677 17.3178 19.1969C16.8287 19.4669 16.2157 19.3815 15.8078 18.9684C14.9807 18.1284 14.1626 17.2838 13.34 16.4392C12.736 15.8184 12.1298 15.1999 11.5281 14.5768C11.465 14.5122 11.4244 14.5168 11.359 14.563C10.4102 15.2207 9.36677 15.6315 8.23091 15.7815C7.25055 15.9107 6.27921 15.853 5.3304 15.5622C3.05643 14.863 1.43828 13.3929 0.545814 11.1429C-0.231709 9.18362 -0.175367 7.20588 0.694558 5.28584C1.6028 3.28503 3.10601 1.92576 5.16814 1.27729C7.27985 0.612659 9.30366 0.891896 11.1742 2.10346C12.9006 3.22041 13.9756 4.8266 14.4195 6.87126C14.5277 7.37204 14.575 7.87974 14.5728 8.39437ZM2.59217 8.38975C2.59217 11.0667 4.67683 13.2106 7.27985 13.2106C9.90765 13.2129 12.0013 11.0829 12.0036 8.40129C12.0058 5.72893 9.91892 3.57119 7.33168 3.57119C4.68359 3.57349 2.59217 5.69892 2.59217 8.38975Z" fill="#4E4B66"/>
</svg>
