<svg width="25" height="24" viewBox="0 0 25 24" fill="none" xmlns="http://www.w3.org/2000/svg">
<path d="M19.0264 23.5076C18.7936 23.5069 18.5615 23.482 18.3341 23.4331C14.0049 22.5576 10.0166 20.5049 6.82823 17.5111C3.70785 14.5108 1.5437 10.6907 0.597623 6.51314C0.486068 5.99248 0.513448 5.45252 0.677128 4.9452C0.840809 4.43789 1.13528 3.98029 1.53221 3.61643L4.30137 1.01076C4.44281 0.87999 4.61087 0.779852 4.79457 0.716877C4.97828 0.653903 5.1735 0.629508 5.3675 0.645284C5.56865 0.6658 5.76277 0.729148 5.93619 0.830875C6.10962 0.932602 6.25814 1.07024 6.37132 1.2341L9.83277 6.23565C9.96257 6.42972 10.0252 6.65939 10.0115 6.89088C9.99782 7.12237 9.90846 7.34344 9.75662 7.52157L8.01897 9.55197C8.71102 11.0494 9.69109 12.4027 10.9058 13.5383C12.1127 14.7151 13.5392 15.6548 15.108 16.3064L17.261 14.6347C17.4419 14.495 17.6619 14.4124 17.8919 14.3979C18.1219 14.3834 18.351 14.4377 18.5487 14.5535L23.7755 17.8563C23.9548 17.961 24.1077 18.104 24.2225 18.2746C24.3373 18.4453 24.4111 18.6391 24.4384 18.8416C24.4657 19.0441 24.4458 19.25 24.3801 19.4438C24.3145 19.6377 24.2048 19.8146 24.0593 19.9611L21.3594 22.5736C21.0527 22.8719 20.6887 23.1081 20.2883 23.2684C19.8879 23.4286 19.459 23.5099 19.0264 23.5076ZM5.25673 1.98535L2.48757 4.59103C2.26428 4.79444 2.09898 5.05117 2.00795 5.33597C1.91691 5.62077 1.90326 5.92383 1.96836 6.21534C2.84806 10.1355 4.87024 13.7226 7.79051 16.5433C10.791 19.3598 14.5442 21.2906 18.6179 22.1134C18.9263 22.1764 19.2458 22.1636 19.5479 22.0762C19.8499 21.9888 20.1251 21.8295 20.3486 21.6125L23.0486 19.0001L18.0018 15.8124L15.6895 17.6126C15.601 17.6811 15.4967 17.7274 15.3857 17.7475C15.2747 17.7675 15.1603 17.7607 15.0526 17.7277C13.1327 17.0361 11.3928 15.9384 9.95738 14.5129C8.47266 13.1574 7.32019 11.4917 6.58593 9.63995C6.55487 9.52785 6.55383 9.40982 6.58293 9.29721C6.61203 9.18461 6.67028 9.08122 6.75208 8.99699L8.62126 6.81093L5.25673 1.98535Z" fill="#389BEC"/>
</svg>
