<svg width="117" height="25" viewBox="0 0 117 25" fill="none" xmlns="http://www.w3.org/2000/svg">
<g filter="url(#filter0_d_2059_10995)">
<path d="M112.564 1.68944C68.7835 23.6951 21.1851 10.8585 2.8584 1.68944V8.05951C40.6668 29.9912 101.874 19.7019 113.067 6.95783C113.432 6.5423 113.632 6.03861 113.728 5.49393L114.413 1.59437C114.488 1.17107 114.035 0.852429 113.662 1.06492L112.564 1.68944Z" fill="#1C3D8C"/>
<path d="M112.564 1.68944C68.7835 23.6951 21.1851 10.8585 2.8584 1.68944V8.05951C40.6668 29.9912 101.874 19.7019 113.067 6.95783C113.432 6.5423 113.632 6.03861 113.728 5.49393L114.413 1.59437C114.488 1.17107 114.035 0.852429 113.662 1.06492L112.564 1.68944Z" fill="url(#paint0_linear_2059_10995)" fill-opacity="0.57"/>
<path d="M112.564 1.68944C68.7835 23.6951 21.1851 10.8585 2.8584 1.68944V8.05951C40.6668 29.9912 101.874 19.7019 113.067 6.95783C113.432 6.5423 113.632 6.03861 113.728 5.49393L114.413 1.59437C114.488 1.17107 114.035 0.852429 113.662 1.06492L112.564 1.68944Z" fill="black" fill-opacity="0.2"/>
</g>
<defs>
<filter id="filter0_d_2059_10995" x="0.82673" y="0.996094" width="115.626" height="23.9149" filterUnits="userSpaceOnUse" color-interpolation-filters="sRGB">
<feFlood flood-opacity="0" result="BackgroundImageFix"/>
<feColorMatrix in="SourceAlpha" type="matrix" values="0 0 0 0 0 0 0 0 0 0 0 0 0 0 0 0 0 0 127 0" result="hardAlpha"/>
<feOffset dy="2.03167"/>
<feGaussianBlur stdDeviation="1.01583"/>
<feComposite in2="hardAlpha" operator="out"/>
<feColorMatrix type="matrix" values="0 0 0 0 0 0 0 0 0 0 0 0 0 0 0 0 0 0 0.07 0"/>
<feBlend mode="normal" in2="BackgroundImageFix" result="effect1_dropShadow_2059_10995"/>
<feBlend mode="normal" in="SourceGraphic" in2="effect1_dropShadow_2059_10995" result="shape"/>
</filter>
<linearGradient id="paint0_linear_2059_10995" x1="119.679" y1="-8.61126" x2="18.3499" y2="2.30896" gradientUnits="userSpaceOnUse">
<stop stop-color="#98D3F4"/>
<stop offset="0.31531" stop-color="#2B73FF" stop-opacity="0"/>
<stop offset="0.651037" stop-color="#98D3F4" stop-opacity="0.23"/>
<stop offset="1" stop-color="#3F85FD" stop-opacity="0.0437054"/>
</linearGradient>
</defs>
</svg>
