<svg width="21" height="21" viewBox="0 0 21 21" fill="none" xmlns="http://www.w3.org/2000/svg">
<path d="M10.9347 0.832031C3.95017 0.832031 -0.808419 7.90906 1.82681 14.3773L2.95338 17.1426C3.05419 17.39 2.9805 17.6743 2.77217 17.8416L0.389956 19.7547C0.190063 19.9152 0.113253 20.1845 0.198343 20.4263C0.283431 20.6681 0.511889 20.8299 0.768263 20.8299H10.2178C16.0452 20.8299 20.7694 16.1058 20.7694 10.2784C20.7694 5.0613 16.5401 0.832031 11.323 0.832031H10.9347Z" fill="#55B3FF"/>
<path d="M10.9729 7.15721C10.8239 6.90041 10.453 6.90041 10.304 7.15721L9.25458 8.96577C9.18096 9.09263 9.05373 9.1792 8.90871 9.20111L6.942 9.49815C6.61168 9.54805 6.49581 9.96511 6.75306 10.1782L8.21818 11.3921C8.3538 11.5044 8.41757 11.6817 8.38462 11.8547L8.00137 13.8673C7.94078 14.1855 8.27478 14.4327 8.56136 14.2818L10.4133 13.3067C10.5542 13.2325 10.7227 13.2325 10.8636 13.3067L12.7155 14.2818C13.0021 14.4327 13.3361 14.1855 13.2755 13.8673L12.8923 11.8547C12.8593 11.6817 12.9231 11.5044 13.0587 11.3921L14.5238 10.1782C14.7811 9.96511 14.6652 9.54805 14.3349 9.49815L12.3682 9.20111C12.2232 9.1792 12.0959 9.09263 12.0223 8.96577L10.9729 7.15721Z" fill="white"/>
</svg>
