<svg width="43" height="17" viewBox="0 0 43 17" fill="none" xmlns="http://www.w3.org/2000/svg">
<path d="M0.746094 2.71791C0.746094 1.90879 1.68873 1.19775 2.5238 0.944903C2.5238 2.19388 2.5238 2.07443 3.25131 2.46506C4.81707 3.30578 18.0248 4.25469 23.3484 4.25469C28.672 4.25469 37.7605 2.90969 39.5769 2.21221C40.8715 1.71511 40.6176 0.944903 40.6176 0.445312C41.8702 0.445312 41.8734 1.53794 42.0821 1.95936C42.1865 4.99356 42.3953 11.4159 42.3953 12.8319C42.3953 14.2479 38.3878 14.8325 35.2845 15.6133C26.9363 17.7134 14.7138 16.6987 7.63544 15.6133C2.43142 14.8153 0.850478 14.0119 0.746094 13.3376V2.71791Z" fill="#1A4276"/>
<path d="M0.746094 2.71791C0.746094 1.90879 1.68873 1.19775 2.5238 0.944903C2.5238 2.19388 2.5238 2.07443 3.25131 2.46506C4.81707 3.30578 18.0248 4.25469 23.3484 4.25469C28.672 4.25469 37.7605 2.90969 39.5769 2.21221C40.8715 1.71511 40.6176 0.944903 40.6176 0.445312C41.8702 0.445312 41.8734 1.53794 42.0821 1.95936C42.1865 4.99356 42.3953 11.4159 42.3953 12.8319C42.3953 14.2479 38.3878 14.8325 35.2845 15.6133C26.9363 17.7134 14.7138 16.6987 7.63544 15.6133C2.43142 14.8153 0.850478 14.0119 0.746094 13.3376V2.71791Z" fill="url(#paint0_linear_2059_11100)" fill-opacity="0.18"/>
<path d="M0.746094 2.71791C0.746094 1.90879 1.68873 1.19775 2.5238 0.944903C2.5238 2.19388 2.5238 2.07443 3.25131 2.46506C4.81707 3.30578 18.0248 4.25469 23.3484 4.25469C28.672 4.25469 37.7605 2.90969 39.5769 2.21221C40.8715 1.71511 40.6176 0.944903 40.6176 0.445312C41.8702 0.445312 41.8734 1.53794 42.0821 1.95936C42.1865 4.99356 42.3953 11.4159 42.3953 12.8319C42.3953 14.2479 38.3878 14.8325 35.2845 15.6133C26.9363 17.7134 14.7138 16.6987 7.63544 15.6133C2.43142 14.8153 0.850478 14.0119 0.746094 13.3376V2.71791Z" fill="url(#paint1_linear_2059_11100)" fill-opacity="0.42"/>
<defs>
<linearGradient id="paint0_linear_2059_11100" x1="21.5707" y1="1.96906" x2="21.5707" y2="6.28636" gradientUnits="userSpaceOnUse">
<stop stop-color="#A2B0FF"/>
<stop offset="1" stop-color="#00A3FF" stop-opacity="0"/>
</linearGradient>
<linearGradient id="paint1_linear_2059_11100" x1="24.1103" y1="9.58782" x2="0.746095" y2="8.57199" gradientUnits="userSpaceOnUse">
<stop stop-color="#034DB0"/>
<stop offset="0.603899" stop-color="#034DB0" stop-opacity="0"/>
</linearGradient>
</defs>
</svg>
