<svg width="18" height="13" viewBox="0 0 18 13" fill="none" xmlns="http://www.w3.org/2000/svg">
<path fill-rule="evenodd" clip-rule="evenodd" d="M9.36375 2.84599C11.8303 2.8461 14.2025 3.81668 15.9902 5.55712C16.1248 5.69149 16.3399 5.68979 16.4725 5.55332L17.7593 4.2234C17.8264 4.15418 17.8638 4.06042 17.8633 3.96287C17.8627 3.86531 17.8242 3.77201 17.7563 3.7036C13.0644 -0.901199 5.66236 -0.901199 0.970444 3.7036C0.902479 3.77196 0.863916 3.86523 0.863289 3.96279C0.862662 4.06034 0.900023 4.15413 0.967105 4.2234L2.25424 5.55332C2.38674 5.69 2.60207 5.6917 2.7366 5.55712C4.52444 3.81656 6.89695 2.84598 9.36375 2.84599ZM9.36373 7.17266C10.7189 7.17257 12.0258 7.68843 13.0304 8.61999C13.1662 8.7522 13.3803 8.74933 13.5127 8.61353L14.798 7.28361C14.8657 7.21386 14.9032 7.11922 14.9023 7.02089C14.9013 6.92255 14.8618 6.82872 14.7928 6.76039C11.7337 3.84629 6.99634 3.84629 3.93727 6.76039C3.86817 6.82872 3.82874 6.9226 3.82784 7.02097C3.82693 7.11933 3.86462 7.21396 3.93244 7.28361L5.21736 8.61353C5.3498 8.74933 5.56384 8.7522 5.69971 8.61999C6.7036 7.68905 8.00941 7.17323 9.36373 7.17266ZM11.9384 10.084C11.9403 10.1826 11.9025 10.2777 11.8337 10.3468L9.61047 12.6445C9.5453 12.712 9.45644 12.75 9.36373 12.75C9.27101 12.75 9.18216 12.712 9.11699 12.6445L6.89334 10.3468C6.82465 10.2776 6.78686 10.1825 6.7889 10.0839C6.79093 9.98529 6.83262 9.89191 6.9041 9.82581C8.32397 8.59595 10.4035 8.59595 11.8234 9.82581C11.8948 9.89196 11.9364 9.98537 11.9384 10.084Z" fill="black"/>
</svg>
