<svg width="18" height="14" viewBox="0 0 18 14" fill="none" xmlns="http://www.w3.org/2000/svg">
<path fill-rule="evenodd" clip-rule="evenodd" d="M8.57859 3.53349C11.0451 3.5336 13.4174 4.50418 15.205 6.24462C15.3396 6.37899 15.5548 6.37729 15.6874 6.24082L16.9741 4.9109C17.0413 4.84168 17.0787 4.74792 17.0781 4.65037C17.0776 4.55281 17.0391 4.45951 16.9712 4.3911C12.2792 -0.213699 4.8772 -0.213699 0.185288 4.3911C0.117322 4.45946 0.0787595 4.55273 0.0781328 4.65029C0.077506 4.74784 0.114867 4.84163 0.181949 4.9109L1.46909 6.24082C1.60158 6.3775 1.81691 6.3792 1.95144 6.24462C3.73928 4.50406 6.11179 3.53348 8.57859 3.53349ZM8.57858 7.86016C9.93379 7.86007 11.2406 8.37593 12.2452 9.30749C12.3811 9.4397 12.5951 9.43683 12.7275 9.30103L14.0128 7.97111C14.0805 7.90136 14.1181 7.80672 14.1171 7.70839C14.1161 7.61005 14.0767 7.51622 14.0076 7.44789C10.9486 4.53379 6.21119 4.53379 3.15211 7.44789C3.08301 7.51622 3.04359 7.6101 3.04268 7.70846C3.04177 7.80683 3.07946 7.90146 3.14729 7.97111L4.4322 9.30103C4.56465 9.43683 4.77868 9.4397 4.91455 9.30749C5.91845 8.37655 7.22426 7.86073 8.57858 7.86016ZM11.1532 10.7715C11.1552 10.8701 11.1173 10.9652 11.0486 11.0343L8.82531 13.332C8.76014 13.3995 8.67128 13.4375 8.57857 13.4375C8.48586 13.4375 8.397 13.3995 8.33183 13.332L6.10818 11.0343C6.03949 10.9651 6.0017 10.87 6.00374 10.7714C6.00578 10.6728 6.04746 10.5794 6.11894 10.5133C7.53881 9.28345 9.61833 9.28345 11.0382 10.5133C11.1096 10.5795 11.1512 10.6729 11.1532 10.7715Z" fill="black"/>
</svg>
