<svg width="18" height="14" viewBox="0 0 18 14" fill="none" xmlns="http://www.w3.org/2000/svg">
<path fill-rule="evenodd" clip-rule="evenodd" d="M8.60203 3.38896C11.0686 3.38907 13.4408 4.35965 15.2284 6.10009C15.363 6.23446 15.5782 6.23276 15.7108 6.09629L16.9976 4.76637C17.0647 4.69715 17.1021 4.60339 17.1016 4.50584C17.101 4.40828 17.0625 4.31497 16.9946 4.24656C12.3027 -0.35823 4.90064 -0.35823 0.208725 4.24656C0.14076 4.31492 0.102197 4.4082 0.10157 4.50576C0.100944 4.60331 0.138305 4.6971 0.205386 4.76637L1.49252 6.09629C1.62502 6.23297 1.84035 6.23466 1.97488 6.10009C3.76272 4.35953 6.13523 3.38895 8.60203 3.38896ZM8.60201 7.71563C9.95723 7.71554 11.2641 8.2314 12.2686 9.16296C12.4045 9.29517 12.6185 9.2923 12.751 9.1565L14.0363 7.82658C14.104 7.75682 14.1415 7.66219 14.1405 7.56386C14.1396 7.46552 14.1001 7.37169 14.0311 7.30336C10.972 4.38926 6.23463 4.38926 3.17555 7.30336C3.10645 7.37169 3.06702 7.46557 3.06612 7.56393C3.06521 7.6623 3.1029 7.75693 3.17073 7.82658L4.45564 9.1565C4.58809 9.2923 4.80212 9.29517 4.93799 9.16296C5.94188 8.23201 7.2477 7.7162 8.60201 7.71563ZM11.1767 10.627C11.1786 10.7256 11.1408 10.8206 11.072 10.8897L8.84875 13.1874C8.78358 13.255 8.69472 13.293 8.60201 13.293C8.5093 13.293 8.42044 13.255 8.35527 13.1874L6.13162 10.8897C6.06293 10.8206 6.02514 10.7255 6.02718 10.6269C6.02921 10.5283 6.0709 10.4349 6.14238 10.3688C7.56225 9.13892 9.64177 9.13892 11.0616 10.3688C11.1331 10.4349 11.1747 10.5283 11.1767 10.627Z" fill="white"/>
</svg>
