<svg width="18" height="13" viewBox="0 0 18 13" fill="none" xmlns="http://www.w3.org/2000/svg">
<path fill-rule="evenodd" clip-rule="evenodd" d="M9.46629 2.84599C11.9328 2.8461 14.3051 3.81668 16.0927 5.55712C16.2273 5.69149 16.4425 5.68979 16.575 5.55332L17.8618 4.2234C17.9289 4.15418 17.9664 4.06042 17.9658 3.96287C17.9653 3.86531 17.9268 3.77201 17.8588 3.7036C13.1669 -0.901199 5.7649 -0.901199 1.07298 3.7036C1.00502 3.77196 0.966455 3.86523 0.965828 3.96279C0.965201 4.06034 1.00256 4.15413 1.06964 4.2234L2.35678 5.55332C2.48928 5.69 2.7046 5.6917 2.83914 5.55712C4.62698 3.81656 6.99949 2.84598 9.46629 2.84599ZM9.46627 7.17266C10.8215 7.17257 12.1283 7.68843 13.1329 8.61999C13.2688 8.7522 13.4828 8.74933 13.6152 8.61353L14.9005 7.28361C14.9682 7.21386 15.0058 7.11922 15.0048 7.02089C15.0038 6.92255 14.9644 6.82872 14.8953 6.76039C11.8363 3.84629 7.09888 3.84629 4.03981 6.76039C3.97071 6.82872 3.93128 6.9226 3.93037 7.02097C3.92947 7.11933 3.96715 7.21396 4.03498 7.28361L5.3199 8.61353C5.45234 8.74933 5.66638 8.7522 5.80225 8.61999C6.80614 7.68905 8.11195 7.17323 9.46627 7.17266ZM12.0409 10.084C12.0429 10.1826 12.005 10.2777 11.9363 10.3468L9.71301 12.6445C9.64783 12.712 9.55898 12.75 9.46627 12.75C9.37355 12.75 9.2847 12.712 9.21952 12.6445L6.99588 10.3468C6.92719 10.2776 6.8894 10.1825 6.89144 10.0839C6.89347 9.98529 6.93515 9.89191 7.00664 9.82581C8.42651 8.59595 10.506 8.59595 11.9259 9.82581C11.9973 9.89196 12.0389 9.98537 12.0409 10.084Z" fill="black"/>
</svg>
