<svg width="18" height="14" viewBox="0 0 18 14" fill="none" xmlns="http://www.w3.org/2000/svg">
<path fill-rule="evenodd" clip-rule="evenodd" d="M9.47117 3.43339C11.9377 3.4335 14.31 4.40408 16.0976 6.14452C16.2322 6.27889 16.4474 6.2772 16.5799 6.14072L17.8667 4.81081C17.9338 4.74159 17.9713 4.64783 17.9707 4.55027C17.9701 4.45271 17.9316 4.35941 17.8637 4.291C13.1718 -0.313796 5.76978 -0.313796 1.07787 4.291C1.0099 4.35936 0.971338 4.45264 0.970711 4.55019C0.970084 4.64775 1.00745 4.74154 1.07453 4.81081L2.36167 6.14072C2.49416 6.2774 2.70949 6.2791 2.84402 6.14452C4.63186 4.40397 7.00437 3.43339 9.47117 3.43339ZM9.47115 7.76006C10.8264 7.75998 12.1332 8.27583 13.1378 9.20739C13.2736 9.3396 13.4877 9.33673 13.6201 9.20093L14.9054 7.87102C14.9731 7.80126 15.0107 7.70662 15.0097 7.60829C15.0087 7.50995 14.9693 7.41612 14.9002 7.34779C11.8411 4.4337 7.10377 4.4337 4.04469 7.34779C3.97559 7.41612 3.93616 7.51 3.93526 7.60837C3.93435 7.70673 3.97204 7.80136 4.03987 7.87102L5.32478 9.20093C5.45723 9.33673 5.67126 9.3396 5.80713 9.20739C6.81102 8.27645 8.11684 7.76064 9.47115 7.76006ZM12.0458 10.6714C12.0478 10.77 12.0099 10.8651 11.9412 10.9342L9.71789 13.2319C9.65272 13.2994 9.56386 13.3374 9.47115 13.3374C9.37844 13.3374 9.28958 13.2994 9.22441 13.2319L7.00076 10.9342C6.93207 10.865 6.89428 10.7699 6.89632 10.6713C6.89836 10.5727 6.94004 10.4793 7.01152 10.4132C8.43139 9.18336 10.5109 9.18336 11.9308 10.4132C12.0022 10.4794 12.0438 10.5728 12.0458 10.6714Z" fill="black"/>
</svg>
