<svg width="18" height="13" viewBox="0 0 18 13" fill="none" xmlns="http://www.w3.org/2000/svg">
<path fill-rule="evenodd" clip-rule="evenodd" d="M8.62156 2.84599C11.0881 2.8461 13.4604 3.81668 15.248 5.55712C15.3826 5.69149 15.5977 5.68979 15.7303 5.55332L17.0171 4.2234C17.0842 4.15418 17.1216 4.06042 17.1211 3.96287C17.1205 3.86531 17.082 3.77201 17.0141 3.7036C12.3222 -0.901199 4.92017 -0.901199 0.228257 3.7036C0.160291 3.77196 0.121728 3.86523 0.121102 3.96279C0.120475 4.06034 0.157836 4.15413 0.224917 4.2234L1.51206 5.55332C1.64455 5.69 1.85988 5.6917 1.99441 5.55712C3.78225 3.81656 6.15476 2.84598 8.62156 2.84599ZM8.62154 7.17266C9.97676 7.17257 11.2836 7.68843 12.2882 8.61999C12.424 8.7522 12.6381 8.74933 12.7705 8.61353L14.0558 7.28361C14.1235 7.21386 14.161 7.11922 14.1601 7.02089C14.1591 6.92255 14.1197 6.82872 14.0506 6.76039C10.9915 3.84629 6.25416 3.84629 3.19508 6.76039C3.12598 6.82872 3.08656 6.9226 3.08565 7.02097C3.08474 7.11933 3.12243 7.21396 3.19026 7.28361L4.47517 8.61353C4.60762 8.74933 4.82165 8.7522 4.95752 8.61999C5.96141 7.68905 7.26723 7.17323 8.62154 7.17266ZM11.1962 10.084C11.1981 10.1826 11.1603 10.2777 11.0916 10.3468L8.86828 12.6445C8.80311 12.712 8.71425 12.75 8.62154 12.75C8.52883 12.75 8.43997 12.712 8.3748 12.6445L6.15115 10.3468C6.08246 10.2776 6.04467 10.1825 6.04671 10.0839C6.04875 9.98529 6.09043 9.89191 6.16191 9.82581C7.58178 8.59595 9.6613 8.59595 11.0812 9.82581C11.1526 9.89196 11.1942 9.98537 11.1962 10.084Z" fill="#FCFCFC"/>
</svg>
