<svg width="18" height="13" viewBox="0 0 18 13" fill="none" xmlns="http://www.w3.org/2000/svg">
<path fill-rule="evenodd" clip-rule="evenodd" d="M9.31297 2.84599C11.7795 2.8461 14.1518 3.81668 15.9394 5.55712C16.074 5.69149 16.2891 5.68979 16.4217 5.55332L17.7085 4.2234C17.7756 4.15418 17.8131 4.06042 17.8125 3.96287C17.8119 3.86531 17.7734 3.77201 17.7055 3.7036C13.0136 -0.901199 5.61158 -0.901199 0.919663 3.7036C0.851697 3.77196 0.813134 3.86523 0.812508 3.96279C0.811881 4.06034 0.849242 4.15413 0.916324 4.2234L2.20346 5.55332C2.33596 5.69 2.55128 5.6917 2.68581 5.55712C4.47366 3.81656 6.84617 2.84598 9.31297 2.84599ZM9.31295 7.17266C10.6682 7.17257 11.975 7.68843 12.9796 8.61999C13.1154 8.7522 13.3295 8.74933 13.4619 8.61353L14.7472 7.28361C14.8149 7.21386 14.8524 7.11922 14.8515 7.02089C14.8505 6.92255 14.8111 6.82872 14.742 6.76039C11.6829 3.84629 6.94556 3.84629 3.88649 6.76039C3.81739 6.82872 3.77796 6.9226 3.77705 7.02097C3.77615 7.11933 3.81383 7.21396 3.88166 7.28361L5.16657 8.61353C5.29902 8.74933 5.51306 8.7522 5.64893 8.61999C6.65282 7.68905 7.95863 7.17323 9.31295 7.17266ZM11.8876 10.084C11.8896 10.1826 11.8517 10.2777 11.783 10.3468L9.55969 12.6445C9.49451 12.712 9.40566 12.75 9.31295 12.75C9.22023 12.75 9.13138 12.712 9.0662 12.6445L6.84256 10.3468C6.77387 10.2776 6.73608 10.1825 6.73812 10.0839C6.74015 9.98529 6.78183 9.89191 6.85332 9.82581C8.27318 8.59595 10.3527 8.59595 11.7726 9.82581C11.844 9.89196 11.8856 9.98537 11.8876 10.084Z" fill="black"/>
</svg>
