<svg width="18" height="13" viewBox="0 0 18 13" fill="none" xmlns="http://www.w3.org/2000/svg">
<path fill-rule="evenodd" clip-rule="evenodd" d="M9.22117 2.84599C11.6877 2.8461 14.06 3.81668 15.8476 5.55712C15.9822 5.69149 16.1974 5.68979 16.3299 5.55332L17.6167 4.2234C17.6838 4.15418 17.7213 4.06042 17.7207 3.96287C17.7201 3.86531 17.6816 3.77201 17.6137 3.7036C12.9218 -0.901199 5.51978 -0.901199 0.827866 3.7036C0.7599 3.77196 0.721338 3.86523 0.720711 3.96279C0.720084 4.06034 0.757445 4.15413 0.824527 4.2234L2.11167 5.55332C2.24416 5.69 2.45949 5.6917 2.59402 5.55712C4.38186 3.81656 6.75437 2.84598 9.22117 2.84599ZM9.22115 7.17266C10.5764 7.17257 11.8832 7.68843 12.8878 8.61999C13.0236 8.7522 13.2377 8.74933 13.3701 8.61353L14.6554 7.28361C14.7231 7.21386 14.7607 7.11922 14.7597 7.02089C14.7587 6.92255 14.7193 6.82872 14.6502 6.76039C11.5911 3.84629 6.85377 3.84629 3.79469 6.76039C3.72559 6.82872 3.68616 6.9226 3.68526 7.02097C3.68435 7.11933 3.72204 7.21396 3.78987 7.28361L5.07478 8.61353C5.20723 8.74933 5.42126 8.7522 5.55713 8.61999C6.56102 7.68905 7.86684 7.17323 9.22115 7.17266ZM11.7958 10.084C11.7978 10.1826 11.7599 10.2777 11.6912 10.3468L9.46789 12.6445C9.40272 12.712 9.31386 12.75 9.22115 12.75C9.12844 12.75 9.03958 12.712 8.97441 12.6445L6.75076 10.3468C6.68207 10.2776 6.64428 10.1825 6.64632 10.0839C6.64836 9.98529 6.69004 9.89191 6.76152 9.82581C8.18139 8.59595 10.2609 8.59595 11.6808 9.82581C11.7522 9.89196 11.7938 9.98537 11.7958 10.084Z" fill="black"/>
</svg>
