<svg width="18" height="13" viewBox="0 0 18 13" fill="none" xmlns="http://www.w3.org/2000/svg">
<path fill-rule="evenodd" clip-rule="evenodd" d="M8.645 2.84599C11.1116 2.8461 13.4838 3.81668 15.2714 5.55712C15.406 5.69149 15.6212 5.68979 15.7538 5.55332L17.0405 4.2234C17.1077 4.15418 17.1451 4.06042 17.1445 3.96287C17.144 3.86531 17.1055 3.77201 17.0376 3.7036C12.3456 -0.901199 4.94361 -0.901199 0.251694 3.7036C0.183729 3.77196 0.145166 3.86523 0.144539 3.96279C0.143912 4.06034 0.181273 4.15413 0.248355 4.2234L1.53549 5.55332C1.66799 5.69 1.88332 5.6917 2.01785 5.55712C3.80569 3.81656 6.1782 2.84598 8.645 2.84599ZM8.64498 7.17266C10.0002 7.17257 11.307 7.68843 12.3116 8.61999C12.4475 8.7522 12.6615 8.74933 12.794 8.61353L14.0792 7.28361C14.1469 7.21386 14.1845 7.11922 14.1835 7.02089C14.1825 6.92255 14.1431 6.82872 14.074 6.76039C11.015 3.84629 6.27759 3.84629 3.21852 6.76039C3.14942 6.82872 3.10999 6.9226 3.10909 7.02096C3.10818 7.11933 3.14587 7.21396 3.21369 7.28361L4.49861 8.61353C4.63105 8.74933 4.84509 8.7522 4.98096 8.61999C5.98485 7.68905 7.29066 7.17323 8.64498 7.17266ZM11.2196 10.084C11.2216 10.1826 11.1837 10.2777 11.115 10.3468L8.89172 12.6445C8.82655 12.712 8.73769 12.75 8.64498 12.75C8.55226 12.75 8.46341 12.712 8.39824 12.6445L6.17459 10.3468C6.1059 10.2776 6.06811 10.1825 6.07015 10.0839C6.07218 9.98529 6.11387 9.89191 6.18535 9.82581C7.60522 8.59595 9.68474 8.59595 11.1046 9.82581C11.176 9.89196 11.2177 9.98537 11.2196 10.084Z" fill="black"/>
</svg>
