<svg width="18" height="13" viewBox="0 0 18 13" fill="none" xmlns="http://www.w3.org/2000/svg">
<path fill-rule="evenodd" clip-rule="evenodd" d="M8.57859 2.89286C11.0451 2.89298 13.4174 3.86355 15.205 5.60399C15.3396 5.73836 15.5548 5.73667 15.6874 5.60019L16.9741 4.27028C17.0413 4.20106 17.0787 4.1073 17.0781 4.00974C17.0776 3.91219 17.0391 3.81888 16.9712 3.75047C12.2792 -0.854324 4.8772 -0.854324 0.185288 3.75047C0.117322 3.81883 0.0787595 3.91211 0.0781328 4.00966C0.077506 4.10722 0.114867 4.20101 0.181949 4.27028L1.46909 5.60019C1.60158 5.73687 1.81691 5.73857 1.95144 5.60399C3.73928 3.86344 6.11179 2.89286 8.57859 2.89286ZM8.57858 7.21953C9.93379 7.21945 11.2406 7.7353 12.2452 8.66686C12.3811 8.79907 12.5951 8.79621 12.7275 8.6604L14.0128 7.33049C14.0805 7.26073 14.1181 7.1661 14.1171 7.06776C14.1161 6.96943 14.0767 6.8756 14.0076 6.80726C10.9486 3.89317 6.21119 3.89317 3.15211 6.80726C3.08301 6.87559 3.04359 6.96947 3.04268 7.06784C3.04177 7.16621 3.07946 7.26083 3.14729 7.33049L4.4322 8.6604C4.56465 8.79621 4.77868 8.79907 4.91455 8.66686C5.91845 7.73592 7.22426 7.22011 8.57858 7.21953ZM11.1532 10.1309C11.1552 10.2295 11.1173 10.3245 11.0486 10.3936L8.82531 12.6913C8.76014 12.7589 8.67128 12.7969 8.57857 12.7969C8.48586 12.7969 8.397 12.7589 8.33183 12.6913L6.10818 10.3936C6.03949 10.3245 6.0017 10.2294 6.00374 10.1308C6.00578 10.0322 6.04746 9.93878 6.11894 9.87268C7.53881 8.64283 9.61833 8.64283 11.0382 9.87268C11.1096 9.93884 11.1512 10.0322 11.1532 10.1309Z" fill="black"/>
</svg>
