<svg width="18" height="13" viewBox="0 0 18 13" fill="none" xmlns="http://www.w3.org/2000/svg">
<path fill-rule="evenodd" clip-rule="evenodd" d="M8.60203 2.73271C11.0686 2.73282 13.4408 3.7034 15.2284 5.44384C15.363 5.57821 15.5782 5.57651 15.7108 5.44004L16.9976 4.11012C17.0647 4.0409 17.1021 3.94714 17.1016 3.84959C17.101 3.75203 17.0625 3.65872 16.9946 3.59031C12.3027 -1.01448 4.90064 -1.01448 0.208725 3.59031C0.14076 3.65867 0.102197 3.75195 0.10157 3.84951C0.100944 3.94706 0.138305 4.04085 0.205386 4.11012L1.49252 5.44004C1.62502 5.57672 1.84035 5.57841 1.97488 5.44384C3.76272 3.70328 6.13523 2.7327 8.60203 2.73271ZM8.60201 7.05938C9.95723 7.05929 11.2641 7.57515 12.2686 8.50671C12.4045 8.63892 12.6185 8.63605 12.751 8.50025L14.0363 7.17033C14.104 7.10057 14.1415 7.00594 14.1405 6.90761C14.1396 6.80927 14.1001 6.71544 14.0311 6.64711C10.972 3.73301 6.23463 3.73301 3.17555 6.64711C3.10645 6.71544 3.06702 6.80932 3.06612 6.90768C3.06521 7.00605 3.1029 7.10068 3.17073 7.17033L4.45564 8.50025C4.58809 8.63605 4.80212 8.63892 4.93799 8.50671C5.94188 7.57576 7.2477 7.05995 8.60201 7.05938ZM11.1767 9.9707C11.1786 10.0693 11.1408 10.1644 11.072 10.2335L8.84875 12.5312C8.78358 12.5987 8.69472 12.6367 8.60201 12.6367C8.5093 12.6367 8.42044 12.5987 8.35527 12.5312L6.13162 10.2335C6.06293 10.1643 6.02514 10.0692 6.02718 9.97062C6.02921 9.87201 6.0709 9.77863 6.14238 9.71252C7.56225 8.48267 9.64177 8.48267 11.0616 9.71252C11.1331 9.77868 11.1747 9.87209 11.1767 9.9707Z" fill="white"/>
</svg>
