<svg width="18" height="13" viewBox="0 0 18 13" fill="none" xmlns="http://www.w3.org/2000/svg">
<path fill-rule="evenodd" clip-rule="evenodd" d="M9.47117 2.69365C11.9377 2.69376 14.31 3.66433 16.0976 5.40478C16.2322 5.53914 16.4474 5.53745 16.5799 5.40098L17.8667 4.07106C17.9338 4.00184 17.9713 3.90808 17.9707 3.81052C17.9701 3.71297 17.9316 3.61966 17.8637 3.55125C13.1718 -1.05354 5.76978 -1.05354 1.07787 3.55125C1.0099 3.61961 0.971338 3.71289 0.970711 3.81044C0.970084 3.908 1.00745 4.00179 1.07453 4.07106L2.36167 5.40098C2.49416 5.53766 2.70949 5.53935 2.84402 5.40478C4.63186 3.66422 7.00437 2.69364 9.47117 2.69365ZM9.47115 7.02032C10.8264 7.02023 12.1332 7.53609 13.1378 8.46765C13.2736 8.59986 13.4877 8.59699 13.6201 8.46119L14.9054 7.13127C14.9731 7.06151 15.0107 6.96688 15.0097 6.86854C15.0087 6.77021 14.9693 6.67638 14.9002 6.60804C11.8411 3.69395 7.10377 3.69395 4.04469 6.60804C3.97559 6.67638 3.93616 6.77025 3.93526 6.86862C3.93435 6.96699 3.97204 7.06161 4.03987 7.13127L5.32478 8.46119C5.45723 8.59699 5.67126 8.59986 5.80713 8.46765C6.81102 7.5367 8.11684 7.02089 9.47115 7.02032ZM12.0458 9.93164C12.0478 10.0302 12.0099 10.1253 11.9412 10.1944L9.71789 12.4921C9.65272 12.5597 9.56386 12.5977 9.47115 12.5977C9.37844 12.5977 9.28958 12.5597 9.22441 12.4921L7.00076 10.1944C6.93207 10.1253 6.89428 10.0302 6.89632 9.93156C6.89836 9.83294 6.94004 9.73956 7.01152 9.67346C8.43139 8.44361 10.5109 8.44361 11.9308 9.67346C12.0022 9.73962 12.0438 9.83303 12.0458 9.93164Z" fill="white"/>
</svg>
