<svg width="18" height="13" viewBox="0 0 18 13" fill="none" xmlns="http://www.w3.org/2000/svg">
<path fill-rule="evenodd" clip-rule="evenodd" d="M8.62156 2.68974C11.0881 2.68985 13.4604 3.66043 15.248 5.40087C15.3826 5.53524 15.5977 5.53354 15.7303 5.39707L17.0171 4.06715C17.0842 3.99793 17.1216 3.90417 17.1211 3.80662C17.1205 3.70906 17.082 3.61576 17.0141 3.54735C12.3222 -1.05745 4.92017 -1.05745 0.228257 3.54735C0.160291 3.61571 0.121728 3.70898 0.121102 3.80654C0.120475 3.90409 0.157836 3.99788 0.224917 4.06715L1.51206 5.39707C1.64455 5.53375 1.85988 5.53545 1.99441 5.40087C3.78225 3.66031 6.15476 2.68973 8.62156 2.68974ZM8.62154 7.01641C9.97676 7.01632 11.2836 7.53218 12.2882 8.46374C12.424 8.59595 12.6381 8.59308 12.7705 8.45728L14.0558 7.12736C14.1235 7.05761 14.161 6.96297 14.1601 6.86464C14.1591 6.7663 14.1197 6.67247 14.0506 6.60414C10.9915 3.69004 6.25416 3.69004 3.19508 6.60414C3.12598 6.67247 3.08656 6.76635 3.08565 6.86472C3.08474 6.96308 3.12243 7.05771 3.19026 7.12736L4.47517 8.45728C4.60762 8.59308 4.82165 8.59595 4.95752 8.46374C5.96141 7.53279 7.26723 7.01698 8.62154 7.01641ZM11.1962 9.92773C11.1981 10.0263 11.1603 10.1214 11.0916 10.1905L8.86828 12.4882C8.80311 12.5557 8.71425 12.5938 8.62154 12.5938C8.52883 12.5938 8.43997 12.5557 8.3748 12.4882L6.15115 10.1905C6.08246 10.1214 6.04467 10.0263 6.04671 9.92765C6.04875 9.82904 6.09043 9.73566 6.16191 9.66956C7.58178 8.4397 9.6613 8.4397 11.0812 9.66956C11.1526 9.73571 11.1942 9.82912 11.1962 9.92773Z" fill="white"/>
</svg>
