<svg width="18" height="13" viewBox="0 0 18 13" fill="none" xmlns="http://www.w3.org/2000/svg">
<path fill-rule="evenodd" clip-rule="evenodd" d="M8.82859 2.89286C11.2951 2.89298 13.6674 3.86355 15.455 5.60399C15.5896 5.73836 15.8048 5.73667 15.9374 5.60019L17.2241 4.27028C17.2913 4.20106 17.3287 4.1073 17.3281 4.00974C17.3276 3.91219 17.2891 3.81888 17.2212 3.75047C12.5292 -0.854324 5.1272 -0.854324 0.435288 3.75047C0.367322 3.81883 0.328759 3.91211 0.328133 4.00966C0.327506 4.10722 0.364867 4.20101 0.431949 4.27028L1.71909 5.60019C1.85158 5.73687 2.06691 5.73857 2.20144 5.60399C3.98928 3.86344 6.36179 2.89286 8.82859 2.89286ZM8.82858 7.21953C10.1838 7.21945 11.4906 7.7353 12.4952 8.66686C12.6311 8.79907 12.8451 8.79621 12.9775 8.6604L14.2628 7.33049C14.3305 7.26073 14.3681 7.1661 14.3671 7.06776C14.3661 6.96943 14.3267 6.8756 14.2576 6.80726C11.1986 3.89317 6.46119 3.89317 3.40211 6.80726C3.33301 6.87559 3.29359 6.96947 3.29268 7.06784C3.29177 7.16621 3.32946 7.26083 3.39729 7.33049L4.6822 8.6604C4.81465 8.79621 5.02868 8.79907 5.16455 8.66686C6.16845 7.73592 7.47426 7.22011 8.82858 7.21953ZM11.4032 10.1309C11.4052 10.2295 11.3673 10.3245 11.2986 10.3936L9.07531 12.6913C9.01014 12.7589 8.92128 12.7969 8.82857 12.7969C8.73586 12.7969 8.647 12.7589 8.58183 12.6913L6.35818 10.3936C6.28949 10.3245 6.2517 10.2294 6.25374 10.1308C6.25578 10.0322 6.29746 9.93878 6.36894 9.87268C7.78881 8.64283 9.86833 8.64283 11.2882 9.87268C11.3596 9.93884 11.4012 10.0322 11.4032 10.1309Z" fill="black"/>
</svg>
