<svg width="18" height="13" viewBox="0 0 18 13" fill="none" xmlns="http://www.w3.org/2000/svg">
<path fill-rule="evenodd" clip-rule="evenodd" d="M9.22593 2.84599C11.6925 2.8461 14.0647 3.81668 15.8523 5.55712C15.9869 5.69149 16.2021 5.68979 16.3347 5.55332L17.6215 4.2234C17.6886 4.15418 17.726 4.06042 17.7255 3.96287C17.7249 3.86531 17.6864 3.77201 17.6185 3.7036C12.9266 -0.901199 5.52454 -0.901199 0.832627 3.7036C0.764661 3.77196 0.726098 3.86523 0.725472 3.96279C0.724845 4.06034 0.762206 4.15413 0.829287 4.2234L2.11643 5.55332C2.24892 5.69 2.46425 5.6917 2.59878 5.55712C4.38662 3.81656 6.75913 2.84598 9.22593 2.84599ZM9.22591 7.17266C10.5811 7.17257 11.888 7.68843 12.8925 8.61999C13.0284 8.7522 13.2424 8.74933 13.3749 8.61353L14.6602 7.28361C14.7279 7.21386 14.7654 7.11922 14.7644 7.02089C14.7635 6.92255 14.724 6.82872 14.655 6.76039C11.5959 3.84629 6.85853 3.84629 3.79945 6.76039C3.73035 6.82872 3.69093 6.9226 3.69002 7.02096C3.68911 7.11933 3.7268 7.21396 3.79463 7.28361L5.07954 8.61353C5.21199 8.74933 5.42602 8.7522 5.56189 8.61999C6.56578 7.68905 7.8716 7.17323 9.22591 7.17266ZM11.8006 10.084C11.8025 10.1826 11.7647 10.2777 11.6959 10.3468L9.47265 12.6445C9.40748 12.712 9.31862 12.75 9.22591 12.75C9.1332 12.75 9.04434 12.712 8.97917 12.6445L6.75552 10.3468C6.68683 10.2776 6.64904 10.1825 6.65108 10.0839C6.65312 9.98529 6.6948 9.89191 6.76628 9.82581C8.18615 8.59595 10.2657 8.59595 11.6855 9.82581C11.757 9.89196 11.7986 9.98537 11.8006 10.084Z" fill="black"/>
</svg>
