<svg width="18" height="13" viewBox="0 0 18 13" fill="none" xmlns="http://www.w3.org/2000/svg">
<path fill-rule="evenodd" clip-rule="evenodd" d="M9.37156 2.84599C11.8381 2.8461 14.2104 3.81668 15.998 5.55712C16.1326 5.69149 16.3477 5.68979 16.4803 5.55332L17.7671 4.2234C17.8342 4.15418 17.8716 4.06042 17.8711 3.96287C17.8705 3.86531 17.832 3.77201 17.7641 3.7036C13.0722 -0.901199 5.67017 -0.901199 0.978257 3.7036C0.910291 3.77196 0.871728 3.86523 0.871102 3.96279C0.870475 4.06034 0.907836 4.15413 0.974917 4.2234L2.26206 5.55332C2.39455 5.69 2.60988 5.6917 2.74441 5.55712C4.53225 3.81656 6.90476 2.84598 9.37156 2.84599ZM9.37154 7.17266C10.7268 7.17257 12.0336 7.68843 13.0382 8.61999C13.174 8.7522 13.3881 8.74933 13.5205 8.61353L14.8058 7.28361C14.8735 7.21386 14.911 7.11922 14.9101 7.02089C14.9091 6.92255 14.8697 6.82872 14.8006 6.76039C11.7415 3.84629 7.00416 3.84629 3.94508 6.76039C3.87598 6.82872 3.83656 6.9226 3.83565 7.02097C3.83474 7.11933 3.87243 7.21396 3.94026 7.28361L5.22517 8.61353C5.35762 8.74933 5.57165 8.7522 5.70752 8.61999C6.71141 7.68904 8.01723 7.17323 9.37154 7.17266ZM11.9462 10.084C11.9481 10.1826 11.9103 10.2777 11.8416 10.3468L9.61828 12.6445C9.55311 12.712 9.46425 12.75 9.37154 12.75C9.27883 12.75 9.18997 12.712 9.1248 12.6445L6.90115 10.3468C6.83246 10.2776 6.79467 10.1825 6.79671 10.0839C6.79875 9.98529 6.84043 9.89191 6.91191 9.82581C8.33178 8.59595 10.4113 8.59595 11.8312 9.82581C11.9026 9.89196 11.9442 9.98537 11.9462 10.084Z" fill="black"/>
</svg>
