<svg width="18" height="13" viewBox="0 0 18 13" fill="none" xmlns="http://www.w3.org/2000/svg">
<path fill-rule="evenodd" clip-rule="evenodd" d="M9.17039 2.68974C11.6369 2.68985 14.0092 3.66043 15.7968 5.40087C15.9314 5.53524 16.1466 5.53354 16.2791 5.39707L17.5659 4.06715C17.633 3.99793 17.6705 3.90417 17.6699 3.80662C17.6694 3.70906 17.6309 3.61576 17.5629 3.54735C12.871 -1.05745 5.469 -1.05745 0.777085 3.54735C0.709119 3.61571 0.670556 3.70898 0.66993 3.80654C0.669303 3.90409 0.706664 3.99788 0.773745 4.06715L2.06088 5.39707C2.19338 5.53375 2.40871 5.53545 2.54324 5.40087C4.33108 3.66031 6.70359 2.68973 9.17039 2.68974ZM9.17037 7.01641C10.5256 7.01632 11.8324 7.53218 12.837 8.46374C12.9729 8.59595 13.1869 8.59308 13.3193 8.45728L14.6046 7.12736C14.6723 7.05761 14.7099 6.96297 14.7089 6.86464C14.7079 6.7663 14.6685 6.67247 14.5994 6.60414C11.5404 3.69004 6.80299 3.69004 3.74391 6.60414C3.67481 6.67247 3.63538 6.76635 3.63448 6.86472C3.63357 6.96308 3.67126 7.05771 3.73908 7.12736L5.024 8.45728C5.15645 8.59308 5.37048 8.59595 5.50635 8.46374C6.51024 7.5328 7.81606 7.01698 9.17037 7.01641ZM11.745 9.92773C11.747 10.0263 11.7091 10.1214 11.6404 10.1905L9.41711 12.4882C9.35194 12.5557 9.26308 12.5938 9.17037 12.5938C9.07765 12.5938 8.9888 12.5557 8.92363 12.4882L6.69998 10.1905C6.63129 10.1214 6.5935 10.0263 6.59554 9.92765C6.59757 9.82904 6.63926 9.73566 6.71074 9.66956C8.13061 8.4397 10.2101 8.4397 11.63 9.66956C11.7014 9.73571 11.743 9.82912 11.745 9.92773Z" fill="white"/>
</svg>
