<svg width="18" height="13" viewBox="0 0 18 13" fill="none" xmlns="http://www.w3.org/2000/svg">
<path fill-rule="evenodd" clip-rule="evenodd" d="M9.47117 2.69291C11.9377 2.69302 14.31 3.6636 16.0976 5.40404C16.2322 5.53841 16.4474 5.53672 16.5799 5.40024L17.8667 4.07033C17.9338 4.00111 17.9713 3.90735 17.9707 3.80979C17.9701 3.71224 17.9316 3.61893 17.8637 3.55052C13.1718 -1.05427 5.76978 -1.05427 1.07787 3.55052C1.0099 3.61888 0.971338 3.71216 0.970711 3.80971C0.970084 3.90727 1.00745 4.00106 1.07453 4.07033L2.36167 5.40024C2.49416 5.53692 2.70949 5.53862 2.84402 5.40404C4.63186 3.66349 7.00437 2.69291 9.47117 2.69291ZM9.47115 7.01958C10.8264 7.0195 12.1332 7.53535 13.1378 8.46691C13.2736 8.59912 13.4877 8.59626 13.6201 8.46045L14.9054 7.13054C14.9731 7.06078 15.0107 6.96615 15.0097 6.86781C15.0087 6.76947 14.9693 6.67564 14.9002 6.60731C11.8411 3.69322 7.10377 3.69322 4.04469 6.60731C3.97559 6.67564 3.93616 6.76952 3.93526 6.86789C3.93435 6.96626 3.97204 7.06088 4.03987 7.13054L5.32478 8.46045C5.45723 8.59626 5.67126 8.59912 5.80713 8.46691C6.81102 7.53597 8.11684 7.02016 9.47115 7.01958ZM12.0458 9.93091C12.0478 10.0295 12.0099 10.1246 11.9412 10.1937L9.71789 12.4914C9.65272 12.5589 9.56386 12.5969 9.47115 12.5969C9.37844 12.5969 9.28958 12.5589 9.22441 12.4914L7.00076 10.1937C6.93207 10.1245 6.89428 10.0294 6.89632 9.93082C6.89836 9.83221 6.94004 9.73883 7.01152 9.67273C8.43139 8.44288 10.5109 8.44288 11.9308 9.67273C12.0022 9.73888 12.0438 9.83229 12.0458 9.93091Z" fill="white"/>
</svg>
