<svg width="18" height="13" viewBox="0 0 18 13" fill="none" xmlns="http://www.w3.org/2000/svg">
<path fill-rule="evenodd" clip-rule="evenodd" d="M9.47117 2.73271C11.9377 2.73282 14.31 3.7034 16.0976 5.44384C16.2322 5.57821 16.4474 5.57651 16.5799 5.44004L17.8667 4.11012C17.9338 4.0409 17.9713 3.94714 17.9707 3.84959C17.9701 3.75203 17.9316 3.65873 17.8637 3.59031C13.1718 -1.01448 5.76978 -1.01448 1.07787 3.59031C1.0099 3.65867 0.971338 3.75195 0.970711 3.84951C0.970084 3.94706 1.00745 4.04085 1.07453 4.11012L2.36167 5.44004C2.49416 5.57672 2.70949 5.57841 2.84402 5.44384C4.63186 3.70328 7.00437 2.7327 9.47117 2.73271ZM9.47115 7.05938C10.8264 7.05929 12.1332 7.57515 13.1378 8.50671C13.2736 8.63892 13.4877 8.63605 13.6201 8.50025L14.9054 7.17033C14.9731 7.10057 15.0107 7.00594 15.0097 6.90761C15.0087 6.80927 14.9693 6.71544 14.9002 6.64711C11.8411 3.73301 7.10377 3.73301 4.04469 6.64711C3.97559 6.71544 3.93616 6.80932 3.93526 6.90768C3.93435 7.00605 3.97204 7.10067 4.03987 7.17033L5.32478 8.50025C5.45723 8.63605 5.67126 8.63892 5.80713 8.50671C6.81102 7.57576 8.11684 7.05995 9.47115 7.05938ZM12.0458 9.9707C12.0478 10.0693 12.0099 10.1644 11.9412 10.2335L9.71789 12.5312C9.65272 12.5987 9.56386 12.6367 9.47115 12.6367C9.37844 12.6367 9.28958 12.5987 9.22441 12.5312L7.00076 10.2335C6.93207 10.1643 6.89428 10.0692 6.89632 9.97062C6.89836 9.87201 6.94004 9.77863 7.01152 9.71252C8.43139 8.48267 10.5109 8.48267 11.9308 9.71252C12.0022 9.77868 12.0438 9.87209 12.0458 9.9707Z" fill="white"/>
</svg>
