<svg width="18" height="13" viewBox="0 0 18 13" fill="none" xmlns="http://www.w3.org/2000/svg">
<path fill-rule="evenodd" clip-rule="evenodd" d="M8.89597 2.68974C11.3625 2.68985 13.7348 3.66043 15.5224 5.40087C15.657 5.53524 15.8722 5.53354 16.0047 5.39707L17.2915 4.06715C17.3586 3.99793 17.3961 3.90417 17.3955 3.80662C17.3949 3.70906 17.3564 3.61576 17.2885 3.54735C12.5966 -1.05745 5.19458 -1.05745 0.502671 3.54735C0.434705 3.61571 0.396142 3.70898 0.395516 3.80654C0.394889 3.90409 0.43225 3.99788 0.499331 4.06715L1.78647 5.39707C1.91896 5.53375 2.13429 5.53545 2.26882 5.40087C4.05666 3.66031 6.42917 2.68973 8.89597 2.68974ZM8.89596 7.01641C10.2512 7.01632 11.558 7.53218 12.5626 8.46374C12.6984 8.59595 12.9125 8.59308 13.0449 8.45728L14.3302 7.12736C14.3979 7.05761 14.4355 6.96297 14.4345 6.86464C14.4335 6.7663 14.3941 6.67247 14.325 6.60414C11.2659 3.69004 6.52857 3.69004 3.46949 6.60414C3.40039 6.67247 3.36097 6.76635 3.36006 6.86472C3.35916 6.96308 3.39684 7.05771 3.46467 7.12736L4.74958 8.45728C4.88203 8.59308 5.09606 8.59595 5.23194 8.46374C6.23583 7.53279 7.54164 7.01698 8.89596 7.01641ZM11.4706 9.92773C11.4726 10.0263 11.4347 10.1214 11.366 10.1905L9.1427 12.4882C9.07752 12.5557 8.98867 12.5938 8.89595 12.5938C8.80324 12.5938 8.71439 12.5557 8.64921 12.4882L6.42557 10.1905C6.35687 10.1214 6.31909 10.0263 6.32112 9.92765C6.32316 9.82904 6.36484 9.73566 6.43633 9.66956C7.85619 8.4397 9.93571 8.4397 11.3556 9.66956C11.427 9.73571 11.4686 9.82912 11.4706 9.92773Z" fill="white"/>
</svg>
