<svg width="18" height="14" viewBox="0 0 18 14" fill="none" xmlns="http://www.w3.org/2000/svg">
<path fill-rule="evenodd" clip-rule="evenodd" d="M8.98093 3.34599C11.4475 3.3461 13.8197 4.31668 15.6073 6.05712C15.742 6.19149 15.9571 6.18979 16.0897 6.05332L17.3765 4.7234C17.4436 4.65418 17.481 4.56042 17.4805 4.46287C17.4799 4.36531 17.4414 4.27201 17.3735 4.2036C12.6816 -0.401199 5.27955 -0.401199 0.587632 4.2036C0.519666 4.27196 0.481103 4.36523 0.480477 4.46279C0.47985 4.56034 0.517211 4.65413 0.584292 4.7234L1.87143 6.05332C2.00392 6.19 2.21925 6.1917 2.35378 6.05712C4.14162 4.31656 6.51414 3.34598 8.98093 3.34599ZM8.98092 7.67266C10.3361 7.67257 11.643 8.18843 12.6475 9.11999C12.7834 9.2522 12.9974 9.24933 13.1299 9.11353L14.4152 7.78361C14.4829 7.71386 14.5204 7.61922 14.5194 7.52089C14.5185 7.42255 14.479 7.32872 14.41 7.26039C11.3509 4.34629 6.61353 4.34629 3.55445 7.26039C3.48535 7.32872 3.44593 7.4226 3.44502 7.52096C3.44412 7.61933 3.4818 7.71396 3.54963 7.78361L4.83454 9.11353C4.96699 9.24933 5.18103 9.2522 5.3169 9.11999C6.32079 8.18905 7.6266 7.67323 8.98092 7.67266ZM11.5556 10.584C11.5575 10.6826 11.5197 10.7777 11.4509 10.8468L9.22766 13.1445C9.16248 13.212 9.07363 13.25 8.98091 13.25C8.8882 13.25 8.79935 13.212 8.73417 13.1445L6.51053 10.8468C6.44184 10.7776 6.40405 10.6825 6.40608 10.5839C6.40812 10.4853 6.4498 10.3919 6.52129 10.3258C7.94115 9.09595 10.0207 9.09595 11.4405 10.3258C11.512 10.392 11.5536 10.4854 11.5556 10.584Z" fill="black"/>
</svg>
