<svg width="18" height="13" viewBox="0 0 18 13" fill="none" xmlns="http://www.w3.org/2000/svg">
<path fill-rule="evenodd" clip-rule="evenodd" d="M9.26023 2.84599C11.7268 2.8461 14.099 3.81668 15.8866 5.55712C16.0213 5.69149 16.2364 5.68979 16.369 5.55332L17.6558 4.2234C17.7229 4.15418 17.7603 4.06042 17.7598 3.96287C17.7592 3.86531 17.7207 3.77201 17.6528 3.7036C12.9609 -0.901199 5.55884 -0.901199 0.866929 3.7036C0.798963 3.77196 0.7604 3.86523 0.759773 3.96279C0.759147 4.06034 0.796508 4.15413 0.863589 4.2234L2.15073 5.55332C2.28322 5.69 2.49855 5.6917 2.63308 5.55712C4.42092 3.81656 6.79343 2.84598 9.26023 2.84599ZM9.26022 7.17266C10.6154 7.17257 11.9223 7.68843 12.9268 8.61999C13.0627 8.7522 13.2767 8.74933 13.4092 8.61353L14.6945 7.28361C14.7622 7.21386 14.7997 7.11922 14.7987 7.02089C14.7978 6.92255 14.7583 6.82872 14.6893 6.76039C11.6302 3.84629 6.89283 3.84629 3.83375 6.76039C3.76465 6.82872 3.72523 6.9226 3.72432 7.02096C3.72341 7.11933 3.7611 7.21396 3.82893 7.28361L5.11384 8.61353C5.24629 8.74933 5.46032 8.7522 5.59619 8.61999C6.60009 7.68905 7.9059 7.17323 9.26022 7.17266ZM11.8349 10.084C11.8368 10.1826 11.799 10.2777 11.7302 10.3468L9.50695 12.6445C9.44178 12.712 9.35292 12.75 9.26021 12.75C9.1675 12.75 9.07864 12.712 9.01347 12.6445L6.78982 10.3468C6.72113 10.2776 6.68334 10.1825 6.68538 10.0839C6.68742 9.98529 6.7291 9.89191 6.80059 9.82581C8.22045 8.59595 10.3 8.59595 11.7198 9.82581C11.7913 9.89196 11.8329 9.98537 11.8349 10.084Z" fill="black"/>
</svg>
