<svg width="18" height="13" viewBox="0 0 18 13" fill="none" xmlns="http://www.w3.org/2000/svg">
<path fill-rule="evenodd" clip-rule="evenodd" d="M8.82273 2.84599C11.2893 2.8461 13.6615 3.81668 15.4491 5.55712C15.5838 5.69149 15.7989 5.68979 15.9315 5.55332L17.2183 4.2234C17.2854 4.15418 17.3228 4.06042 17.3223 3.96287C17.3217 3.86531 17.2832 3.77201 17.2153 3.7036C12.5234 -0.901199 5.12134 -0.901199 0.429429 3.7036C0.361463 3.77196 0.3229 3.86523 0.322273 3.96279C0.321647 4.06034 0.359008 4.15413 0.426089 4.2234L1.71323 5.55332C1.84572 5.69 2.06105 5.6917 2.19558 5.55712C3.98342 3.81656 6.35593 2.84598 8.82273 2.84599ZM8.82272 7.17266C10.1779 7.17257 11.4848 7.68843 12.4893 8.61999C12.6252 8.7522 12.8392 8.74933 12.9717 8.61353L14.257 7.28361C14.3247 7.21386 14.3622 7.11922 14.3612 7.02089C14.3603 6.92255 14.3208 6.82872 14.2518 6.76039C11.1927 3.84629 6.45533 3.84629 3.39625 6.76039C3.32715 6.82872 3.28773 6.9226 3.28682 7.02097C3.28591 7.11933 3.3236 7.21396 3.39143 7.28361L4.67634 8.61353C4.80879 8.74933 5.02282 8.7522 5.15869 8.61999C6.16259 7.68905 7.4684 7.17323 8.82272 7.17266ZM11.3974 10.084C11.3993 10.1826 11.3615 10.2777 11.2927 10.3468L9.06945 12.6445C9.00428 12.712 8.91542 12.75 8.82271 12.75C8.73 12.75 8.64114 12.712 8.57597 12.6445L6.35232 10.3468C6.28363 10.2776 6.24584 10.1825 6.24788 10.0839C6.24992 9.98529 6.2916 9.89191 6.36309 9.82581C7.78295 8.59595 9.86247 8.59595 11.2823 9.82581C11.3538 9.89196 11.3954 9.98537 11.3974 10.084Z" fill="black"/>
</svg>
