<svg width="18" height="13" viewBox="0 0 18 13" fill="none" xmlns="http://www.w3.org/2000/svg">
<path fill-rule="evenodd" clip-rule="evenodd" d="M8.82859 2.73661C11.2951 2.73673 13.6674 3.7073 15.455 5.44774C15.5896 5.58211 15.8048 5.58042 15.9374 5.44394L17.2241 4.11403C17.2913 4.04481 17.3287 3.95105 17.3281 3.85349C17.3276 3.75594 17.2891 3.66263 17.2212 3.59422C12.5292 -1.01057 5.1272 -1.01057 0.435288 3.59422C0.367322 3.66258 0.328759 3.75586 0.328133 3.85341C0.327506 3.95097 0.364867 4.04476 0.431949 4.11403L1.71909 5.44394C1.85158 5.58062 2.06691 5.58232 2.20144 5.44774C3.98928 3.70719 6.36179 2.73661 8.82859 2.73661ZM8.82858 7.06329C10.1838 7.0632 11.4906 7.57905 12.4952 8.51061C12.6311 8.64282 12.8451 8.63996 12.9775 8.50415L14.2628 7.17424C14.3305 7.10448 14.3681 7.00985 14.3671 6.91151C14.3661 6.81318 14.3267 6.71935 14.2576 6.65101C11.1986 3.73692 6.46119 3.73692 3.40211 6.65101C3.33301 6.71934 3.29359 6.81322 3.29268 6.91159C3.29177 7.00996 3.32946 7.10458 3.39729 7.17424L4.6822 8.50415C4.81465 8.63996 5.02868 8.64282 5.16455 8.51061C6.16845 7.57967 7.47426 7.06386 8.82858 7.06329ZM11.4032 9.97461C11.4052 10.0732 11.3673 10.1683 11.2986 10.2374L9.07531 12.5351C9.01014 12.6026 8.92128 12.6406 8.82857 12.6406C8.73586 12.6406 8.647 12.6026 8.58183 12.5351L6.35818 10.2374C6.28949 10.1682 6.2517 10.0731 6.25374 9.97452C6.25578 9.87591 6.29746 9.78253 6.36894 9.71643C7.78881 8.48658 9.86833 8.48658 11.2882 9.71643C11.3596 9.78258 11.4012 9.876 11.4032 9.97461Z" fill="white"/>
</svg>
