<svg width="18" height="14" viewBox="0 0 18 14" fill="none" xmlns="http://www.w3.org/2000/svg">
<path fill-rule="evenodd" clip-rule="evenodd" d="M9.49168 3.34599C11.9582 3.3461 14.3305 4.31668 16.1181 6.05712C16.2527 6.19149 16.4679 6.18979 16.6004 6.05332L17.8872 4.7234C17.9543 4.65418 17.9918 4.56042 17.9912 4.46287C17.9906 4.36531 17.9522 4.27201 17.8842 4.2036C13.1923 -0.401199 5.79029 -0.401199 1.09837 4.2036C1.03041 4.27196 0.991845 4.36523 0.991219 4.46279C0.990592 4.56034 1.02795 4.65413 1.09503 4.7234L2.38217 6.05332C2.51467 6.19 2.73 6.1917 2.86453 6.05712C4.65237 4.31656 7.02488 3.34598 9.49168 3.34599ZM9.49166 7.67266C10.8469 7.67257 12.1537 8.18843 13.1583 9.11999C13.2942 9.2522 13.5082 9.24933 13.6406 9.11353L14.9259 7.78361C14.9936 7.71386 15.0312 7.61922 15.0302 7.52089C15.0292 7.42255 14.9898 7.32872 14.9207 7.26039C11.8616 4.34629 7.12427 4.34629 4.0652 7.26039C3.9961 7.32872 3.95667 7.4226 3.95577 7.52096C3.95486 7.61933 3.99255 7.71396 4.06037 7.78361L5.34529 9.11353C5.47773 9.24933 5.69177 9.2522 5.82764 9.11999C6.83153 8.18905 8.13734 7.67323 9.49166 7.67266ZM12.0663 10.584C12.0683 10.6826 12.0304 10.7777 11.9617 10.8468L9.7384 13.1445C9.67323 13.212 9.58437 13.25 9.49166 13.25C9.39894 13.25 9.31009 13.212 9.24492 13.1445L7.02127 10.8468C6.95258 10.7776 6.91479 10.6825 6.91683 10.5839C6.91886 10.4853 6.96055 10.3919 7.03203 10.3258C8.4519 9.09595 10.5314 9.09595 11.9513 10.3258C12.0227 10.392 12.0643 10.4854 12.0663 10.584Z" fill="black"/>
</svg>
