<svg width="18" height="14" viewBox="0 0 18 14" fill="none" xmlns="http://www.w3.org/2000/svg">
<path fill-rule="evenodd" clip-rule="evenodd" d="M8.82859 3.53349C11.2951 3.5336 13.6674 4.50418 15.455 6.24462C15.5896 6.37899 15.8048 6.37729 15.9374 6.24082L17.2241 4.9109C17.2913 4.84168 17.3287 4.74792 17.3281 4.65037C17.3276 4.55281 17.2891 4.45951 17.2212 4.3911C12.5292 -0.213699 5.1272 -0.213699 0.435288 4.3911C0.367322 4.45946 0.328759 4.55273 0.328133 4.65029C0.327506 4.74784 0.364867 4.84163 0.431949 4.9109L1.71909 6.24082C1.85158 6.3775 2.06691 6.3792 2.20144 6.24462C3.98928 4.50406 6.36179 3.53348 8.82859 3.53349ZM8.82858 7.86016C10.1838 7.86007 11.4906 8.37593 12.4952 9.30749C12.6311 9.4397 12.8451 9.43683 12.9775 9.30103L14.2628 7.97111C14.3305 7.90136 14.3681 7.80672 14.3671 7.70839C14.3661 7.61005 14.3267 7.51622 14.2576 7.44789C11.1986 4.53379 6.46119 4.53379 3.40211 7.44789C3.33301 7.51622 3.29359 7.6101 3.29268 7.70846C3.29177 7.80683 3.32946 7.90146 3.39729 7.97111L4.6822 9.30103C4.81465 9.43683 5.02868 9.4397 5.16455 9.30749C6.16845 8.37655 7.47426 7.86073 8.82858 7.86016ZM11.4032 10.7715C11.4052 10.8701 11.3673 10.9652 11.2986 11.0343L9.07531 13.332C9.01014 13.3995 8.92128 13.4375 8.82857 13.4375C8.73586 13.4375 8.647 13.3995 8.58183 13.332L6.35818 11.0343C6.28949 10.9651 6.2517 10.87 6.25374 10.7714C6.25578 10.6728 6.29746 10.5794 6.36894 10.5133C7.78881 9.28345 9.86833 9.28345 11.2882 10.5133C11.3596 10.5795 11.4012 10.6729 11.4032 10.7715Z" fill="black"/>
</svg>
