<svg width="18" height="13" viewBox="0 0 18 13" fill="none" xmlns="http://www.w3.org/2000/svg">
<path fill-rule="evenodd" clip-rule="evenodd" d="M8.82859 2.94169C11.2951 2.9418 13.6674 3.91238 15.455 5.65282C15.5896 5.78719 15.8048 5.7855 15.9374 5.64902L17.2241 4.31911C17.2913 4.24989 17.3287 4.15613 17.3281 4.05857C17.3276 3.96102 17.2891 3.86771 17.2212 3.7993C12.5292 -0.805496 5.1272 -0.805496 0.435288 3.7993C0.367322 3.86766 0.328759 3.96094 0.328133 4.05849C0.327506 4.15605 0.364867 4.24984 0.431949 4.31911L1.71909 5.64902C1.85158 5.7857 2.06691 5.7874 2.20144 5.65282C3.98928 3.91227 6.36179 2.94169 8.82859 2.94169ZM8.82858 7.26836C10.1838 7.26828 11.4906 7.78413 12.4952 8.71569C12.6311 8.8479 12.8451 8.84504 12.9775 8.70923L14.2628 7.37932C14.3305 7.30956 14.3681 7.21493 14.3671 7.11659C14.3661 7.01825 14.3267 6.92442 14.2576 6.85609C11.1986 3.942 6.46119 3.942 3.40211 6.85609C3.33301 6.92442 3.29359 7.0183 3.29268 7.11667C3.29177 7.21504 3.32946 7.30966 3.39729 7.37932L4.6822 8.70923C4.81465 8.84504 5.02868 8.8479 5.16455 8.71569C6.16845 7.78475 7.47426 7.26894 8.82858 7.26836ZM11.4032 10.1797C11.4052 10.2783 11.3673 10.3734 11.2986 10.4425L9.07531 12.7402C9.01014 12.8077 8.92128 12.8457 8.82857 12.8457C8.73586 12.8457 8.647 12.8077 8.58183 12.7402L6.35818 10.4425C6.28949 10.3733 6.2517 10.2782 6.25374 10.1796C6.25578 10.081 6.29746 9.98761 6.36894 9.92151C7.78881 8.69166 9.86833 8.69166 11.2882 9.92151C11.3596 9.98766 11.4012 10.0811 11.4032 10.1797Z" fill="black"/>
</svg>
