<svg width="18" height="13" viewBox="0 0 18 13" fill="none" xmlns="http://www.w3.org/2000/svg">
<path fill-rule="evenodd" clip-rule="evenodd" d="M9.47117 2.73344C11.9377 2.73355 14.31 3.70413 16.0976 5.44457C16.2322 5.57894 16.4474 5.57724 16.5799 5.44077L17.8667 4.11085C17.9338 4.04164 17.9713 3.94787 17.9707 3.85032C17.9701 3.75276 17.9316 3.65946 17.8637 3.59105C13.1718 -1.01375 5.76978 -1.01375 1.07787 3.59105C1.0099 3.65941 0.971338 3.75268 0.970711 3.85024C0.970084 3.9478 1.00745 4.04159 1.07453 4.11085L2.36167 5.44077C2.49416 5.57745 2.70949 5.57915 2.84402 5.44457C4.63186 3.70402 7.00437 2.73343 9.47117 2.73344ZM9.47115 7.06011C10.8264 7.06003 12.1332 7.57588 13.1378 8.50744C13.2736 8.63965 13.4877 8.63678 13.6201 8.50098L14.9054 7.17106C14.9731 7.10131 15.0107 7.00667 15.0097 6.90834C15.0087 6.81 14.9693 6.71617 14.9002 6.64784C11.8411 3.73374 7.10377 3.73374 4.04469 6.64784C3.97559 6.71617 3.93616 6.81005 3.93526 6.90842C3.93435 7.00678 3.97204 7.10141 4.03987 7.17106L5.32478 8.50098C5.45723 8.63678 5.67126 8.63965 5.80713 8.50744C6.81102 7.5765 8.11684 7.06069 9.47115 7.06011ZM12.0458 9.97143C12.0478 10.07 12.0099 10.1651 11.9412 10.2342L9.71789 12.5319C9.65272 12.5994 9.56386 12.6375 9.47115 12.6375C9.37844 12.6375 9.28958 12.5994 9.22441 12.5319L7.00076 10.2342C6.93207 10.1651 6.89428 10.07 6.89632 9.97135C6.89836 9.87274 6.94004 9.77936 7.01152 9.71326C8.43139 8.48341 10.5109 8.48341 11.9308 9.71326C12.0022 9.77941 12.0438 9.87282 12.0458 9.97143Z" fill="white"/>
</svg>
