<svg width="18" height="13" viewBox="0 0 18 13" fill="none" xmlns="http://www.w3.org/2000/svg">
<path fill-rule="evenodd" clip-rule="evenodd" d="M9.3657 2.84599C11.8323 2.8461 14.2045 3.81668 15.9921 5.55712C16.1267 5.69149 16.3419 5.68979 16.4745 5.55332L17.7612 4.2234C17.8284 4.15418 17.8658 4.06042 17.8652 3.96287C17.8647 3.86531 17.8262 3.77201 17.7583 3.7036C13.0663 -0.901199 5.66431 -0.901199 0.972397 3.7036C0.904432 3.77196 0.865869 3.86523 0.865242 3.96279C0.864615 4.06034 0.901977 4.15413 0.969058 4.2234L2.2562 5.55332C2.38869 5.69 2.60402 5.6917 2.73855 5.55712C4.52639 3.81656 6.8989 2.84598 9.3657 2.84599ZM9.36568 7.17266C10.7209 7.17257 12.0277 7.68843 13.0323 8.61999C13.1682 8.7522 13.3822 8.74933 13.5147 8.61353L14.7999 7.28361C14.8676 7.21386 14.9052 7.11922 14.9042 7.02089C14.9032 6.92255 14.8638 6.82872 14.7947 6.76039C11.7357 3.84629 6.9983 3.84629 3.93922 6.76039C3.87012 6.82872 3.8307 6.9226 3.82979 7.02097C3.82888 7.11933 3.86657 7.21396 3.9344 7.28361L5.21931 8.61353C5.35176 8.74933 5.56579 8.7522 5.70166 8.61999C6.70555 7.68905 8.01137 7.17323 9.36568 7.17266ZM11.9403 10.084C11.9423 10.1826 11.9044 10.2777 11.8357 10.3468L9.61242 12.6445C9.54725 12.712 9.45839 12.75 9.36568 12.75C9.27297 12.75 9.18411 12.712 9.11894 12.6445L6.89529 10.3468C6.8266 10.2776 6.78881 10.1825 6.79085 10.0839C6.79289 9.98529 6.83457 9.89191 6.90605 9.82581C8.32592 8.59595 10.4054 8.59595 11.8253 9.82581C11.8967 9.89196 11.9384 9.98537 11.9403 10.084Z" fill="black"/>
</svg>
