<svg width="18" height="13" viewBox="0 0 18 13" fill="none" xmlns="http://www.w3.org/2000/svg">
<path fill-rule="evenodd" clip-rule="evenodd" d="M8.92332 2.84599C11.3899 2.8461 13.7621 3.81668 15.5497 5.55712C15.6843 5.69149 15.8995 5.68979 16.0321 5.55332L17.3188 4.2234C17.386 4.15418 17.4234 4.06042 17.4228 3.96287C17.4223 3.86531 17.3838 3.77201 17.3159 3.7036C12.624 -0.901199 5.22193 -0.901199 0.530014 3.7036C0.462049 3.77196 0.423486 3.86523 0.422859 3.96279C0.422233 4.06034 0.459594 4.15413 0.526675 4.2234L1.81381 5.55332C1.94631 5.69 2.16164 5.6917 2.29617 5.55712C4.08401 3.81656 6.45652 2.84598 8.92332 2.84599ZM8.9233 7.17266C10.2785 7.17257 11.5854 7.68843 12.5899 8.61999C12.7258 8.7522 12.9398 8.74933 13.0723 8.61353L14.3576 7.28361C14.4252 7.21386 14.4628 7.11922 14.4618 7.02089C14.4608 6.92255 14.4214 6.82872 14.3524 6.76039C11.2933 3.84629 6.55591 3.84629 3.49684 6.76039C3.42774 6.82872 3.38831 6.9226 3.38741 7.02097C3.3865 7.11933 3.42419 7.21396 3.49201 7.28361L4.77693 8.61353C4.90938 8.74933 5.12341 8.7522 5.25928 8.61999C6.26317 7.68905 7.56898 7.17323 8.9233 7.17266ZM11.4979 10.084C11.4999 10.1826 11.4621 10.2777 11.3933 10.3468L9.17004 12.6445C9.10487 12.712 9.01601 12.75 8.9233 12.75C8.83058 12.75 8.74173 12.712 8.67656 12.6445L6.45291 10.3468C6.38422 10.2776 6.34643 10.1825 6.34847 10.0839C6.3505 9.98529 6.39219 9.89191 6.46367 9.82581C7.88354 8.59595 9.96306 8.59595 11.3829 9.82581C11.4544 9.89196 11.496 9.98537 11.4979 10.084Z" fill="black"/>
</svg>
