<svg width="18" height="14" viewBox="0 0 18 14" fill="none" xmlns="http://www.w3.org/2000/svg">
<path fill-rule="evenodd" clip-rule="evenodd" d="M8.60203 3.39018C11.0686 3.39029 13.4408 4.36087 15.2284 6.10131C15.363 6.23568 15.5782 6.23398 15.7108 6.09751L16.9976 4.76759C17.0647 4.69837 17.1021 4.60461 17.1016 4.50706C17.101 4.4095 17.0625 4.3162 16.9946 4.24779C12.3027 -0.357009 4.90064 -0.357009 0.208725 4.24779C0.14076 4.31614 0.102197 4.40942 0.10157 4.50698C0.100944 4.60453 0.138305 4.69832 0.205386 4.76759L1.49252 6.09751C1.62502 6.23419 1.84035 6.23589 1.97488 6.10131C3.76272 4.36075 6.13523 3.39017 8.60203 3.39018ZM8.60201 7.71685C9.95723 7.71676 11.2641 8.23262 12.2686 9.16418C12.4045 9.29639 12.6185 9.29352 12.751 9.15772L14.0363 7.8278C14.104 7.75805 14.1415 7.66341 14.1405 7.56508C14.1396 7.46674 14.1001 7.37291 14.0311 7.30458C10.972 4.39048 6.23463 4.39048 3.17555 7.30458C3.10645 7.37291 3.06702 7.46679 3.06612 7.56515C3.06521 7.66352 3.1029 7.75815 3.17073 7.8278L4.45564 9.15772C4.58809 9.29352 4.80212 9.29639 4.93799 9.16418C5.94188 8.23323 7.2477 7.71742 8.60201 7.71685ZM11.1767 10.6282C11.1786 10.7268 11.1408 10.8219 11.072 10.8909L8.84875 13.1887C8.78358 13.2562 8.69472 13.2942 8.60201 13.2942C8.50929 13.2942 8.42044 13.2562 8.35527 13.1887L6.13162 10.8909C6.06293 10.8218 6.02514 10.7267 6.02718 10.6281C6.02921 10.5295 6.0709 10.4361 6.14238 10.37C7.56225 9.14014 9.64177 9.14014 11.0616 10.37C11.1331 10.4361 11.1747 10.5296 11.1767 10.6282Z" fill="white"/>
</svg>
