<svg width="18" height="14" viewBox="0 0 18 14" fill="none" xmlns="http://www.w3.org/2000/svg">
<path fill-rule="evenodd" clip-rule="evenodd" d="M9.31297 3.34599C11.7795 3.3461 14.1518 4.31668 15.9394 6.05712C16.074 6.19149 16.2891 6.18979 16.4217 6.05332L17.7085 4.7234C17.7756 4.65418 17.8131 4.56042 17.8125 4.46287C17.8119 4.36531 17.7734 4.27201 17.7055 4.2036C13.0136 -0.401199 5.61158 -0.401199 0.919663 4.2036C0.851697 4.27196 0.813134 4.36523 0.812508 4.46279C0.811881 4.56034 0.849242 4.65413 0.916324 4.7234L2.20346 6.05332C2.33596 6.19 2.55128 6.1917 2.68581 6.05712C4.47366 4.31656 6.84617 3.34598 9.31297 3.34599ZM9.31295 7.67266C10.6682 7.67257 11.975 8.18843 12.9796 9.11999C13.1154 9.2522 13.3295 9.24933 13.4619 9.11353L14.7472 7.78361C14.8149 7.71386 14.8524 7.61922 14.8515 7.52089C14.8505 7.42255 14.8111 7.32872 14.742 7.26039C11.6829 4.34629 6.94556 4.34629 3.88649 7.26039C3.81739 7.32872 3.77796 7.4226 3.77705 7.52097C3.77615 7.61933 3.81383 7.71396 3.88166 7.78361L5.16657 9.11353C5.29902 9.24933 5.51306 9.2522 5.64893 9.11999C6.65282 8.18905 7.95863 7.67323 9.31295 7.67266ZM11.8876 10.584C11.8896 10.6826 11.8517 10.7777 11.783 10.8468L9.55969 13.1445C9.49451 13.212 9.40566 13.25 9.31295 13.25C9.22023 13.25 9.13138 13.212 9.0662 13.1445L6.84256 10.8468C6.77387 10.7776 6.73608 10.6825 6.73812 10.5839C6.74015 10.4853 6.78183 10.3919 6.85332 10.3258C8.27318 9.09595 10.3527 9.09595 11.7726 10.3258C11.844 10.392 11.8856 10.4854 11.8876 10.584Z" fill="black"/>
</svg>
