<svg width="18" height="13" viewBox="0 0 18 13" fill="none" xmlns="http://www.w3.org/2000/svg">
<path fill-rule="evenodd" clip-rule="evenodd" d="M8.98093 2.84599C11.4475 2.8461 13.8197 3.81668 15.6073 5.55712C15.742 5.69149 15.9571 5.68979 16.0897 5.55332L17.3765 4.2234C17.4436 4.15418 17.481 4.06042 17.4805 3.96287C17.4799 3.86531 17.4414 3.77201 17.3735 3.7036C12.6816 -0.901199 5.27955 -0.901199 0.587632 3.7036C0.519666 3.77196 0.481103 3.86523 0.480477 3.96279C0.47985 4.06034 0.517211 4.15413 0.584292 4.2234L1.87143 5.55332C2.00392 5.69 2.21925 5.6917 2.35378 5.55712C4.14162 3.81656 6.51414 2.84598 8.98093 2.84599ZM8.98092 7.17266C10.3361 7.17257 11.643 7.68843 12.6475 8.61999C12.7834 8.7522 12.9974 8.74933 13.1299 8.61353L14.4152 7.28361C14.4829 7.21386 14.5204 7.11922 14.5194 7.02089C14.5185 6.92255 14.479 6.82872 14.41 6.76039C11.3509 3.84629 6.61353 3.84629 3.55445 6.76039C3.48535 6.82872 3.44593 6.9226 3.44502 7.02097C3.44412 7.11933 3.4818 7.21396 3.54963 7.28361L4.83454 8.61353C4.96699 8.74933 5.18103 8.7522 5.3169 8.61999C6.32079 7.68905 7.6266 7.17323 8.98092 7.17266ZM11.5556 10.084C11.5575 10.1826 11.5197 10.2777 11.4509 10.3468L9.22766 12.6445C9.16248 12.712 9.07363 12.75 8.98091 12.75C8.8882 12.75 8.79935 12.712 8.73417 12.6445L6.51053 10.3468C6.44184 10.2776 6.40405 10.1825 6.40608 10.0839C6.40812 9.98529 6.4498 9.89191 6.52129 9.82581C7.94115 8.59595 10.0207 8.59595 11.4405 9.82581C11.512 9.89196 11.5536 9.98537 11.5556 10.084Z" fill="black"/>
</svg>
