<svg width="18" height="13" viewBox="0 0 18 13" fill="none" xmlns="http://www.w3.org/2000/svg">
<path fill-rule="evenodd" clip-rule="evenodd" d="M8.8364 2.84599C11.303 2.8461 13.6752 3.81668 15.4628 5.55712C15.5974 5.69149 15.8126 5.68979 15.9452 5.55332L17.2319 4.2234C17.2991 4.15418 17.3365 4.06042 17.3359 3.96287C17.3354 3.86531 17.2969 3.77201 17.229 3.7036C12.537 -0.901199 5.13501 -0.901199 0.4431 3.7036C0.375135 3.77196 0.336572 3.86523 0.335945 3.96279C0.335319 4.06034 0.37268 4.15413 0.439761 4.2234L1.7269 5.55332C1.85939 5.69 2.07472 5.6917 2.20925 5.55712C3.99709 3.81656 6.3696 2.84598 8.8364 2.84599ZM8.83639 7.17266C10.1916 7.17257 11.4985 7.68843 12.503 8.61999C12.6389 8.7522 12.8529 8.74933 12.9854 8.61353L14.2706 7.28361C14.3383 7.21386 14.3759 7.11922 14.3749 7.02089C14.3739 6.92255 14.3345 6.82872 14.2654 6.76039C11.2064 3.84629 6.469 3.84629 3.40992 6.76039C3.34082 6.82872 3.3014 6.9226 3.30049 7.02097C3.29959 7.11933 3.33727 7.21396 3.4051 7.28361L4.69001 8.61353C4.82246 8.74933 5.03649 8.7522 5.17237 8.61999C6.17626 7.68905 7.48207 7.17323 8.83639 7.17266ZM11.411 10.084C11.413 10.1826 11.3751 10.2777 11.3064 10.3468L9.08313 12.6445C9.01795 12.712 8.9291 12.75 8.83638 12.75C8.74367 12.75 8.65481 12.712 8.58964 12.6445L6.366 10.3468C6.2973 10.2776 6.25952 10.1825 6.26155 10.0839C6.26359 9.98529 6.30527 9.89191 6.37676 9.82581C7.79662 8.59595 9.87614 8.59595 11.296 9.82581C11.3674 9.89196 11.4091 9.98537 11.411 10.084Z" fill="black"/>
</svg>
